<?xml version="1.0" encoding="UTF-8" standalone="no"?>
<!DOCTYPE svg PUBLIC "-//W3C//DTD SVG 1.1//EN"
 "http://www.w3.org/Graphics/SVG/1.1/DTD/svg11.dtd">
<!-- Generated by graphviz version 2.43.0 (0)
 -->
<!-- Title: boost/ui/canvas.hpp Pages: 1 -->
<svg width="2756pt" height="330pt"
 viewBox="0.00 0.00 2755.50 330.00" xmlns="http://www.w3.org/2000/svg" xmlns:xlink="http://www.w3.org/1999/xlink">
<g id="graph0" class="graph" transform="scale(1 1) rotate(0) translate(4 326)">
<title>boost/ui/canvas.hpp</title>
<polygon fill="white" stroke="transparent" points="-4,4 -4,-326 2751.5,-326 2751.5,4 -4,4"/>
<!-- Node1 -->
<g id="node1" class="node">
<title>Node1</title>
<g id="a_node1"><a xlink:title="Canvas widget.">
<polygon fill="#bfbfbf" stroke="black" points="1998,-302.5 1998,-321.5 2112,-321.5 2112,-302.5 1998,-302.5"/>
<text text-anchor="middle" x="2055" y="-309.5" font-family="Helvetica,sans-Serif" font-size="10.00">boost/ui/canvas.hpp</text>
</a>
</g>
</g>
<!-- Node2 -->
<g id="node2" class="node">
<title>Node2</title>
<g id="a_node2"><a xlink:href="config_8hpp.html" target="_top" xlink:title="Configuration options.">
<polygon fill="white" stroke="black" points="1029,-62 1029,-81 1139,-81 1139,-62 1029,-62"/>
<text text-anchor="middle" x="1084" y="-69" font-family="Helvetica,sans-Serif" font-size="10.00">boost/ui/config.hpp</text>
</a>
</g>
</g>
<!-- Node1&#45;&gt;Node2 -->
<g id="edge1" class="edge">
<title>Node1&#45;&gt;Node2</title>
<path fill="none" stroke="midnightblue" d="M1997.71,-308.11C1823.17,-298.7 1306.95,-266.31 1259,-210 1250.07,-199.51 1255.4,-192.3 1259,-179 1265.94,-153.34 1296.28,-144.01 1280,-123 1263.91,-102.23 1199.74,-88.5 1149.15,-80.66"/>
<polygon fill="midnightblue" stroke="midnightblue" points="1149.65,-77.2 1139.24,-79.18 1148.61,-84.12 1149.65,-77.2"/>
</g>
<!-- Node4 -->
<g id="node4" class="node">
<title>Node4</title>
<g id="a_node4"><a xlink:href="widget_8hpp.html" target="_top" xlink:title="Widget class.">
<polygon fill="white" stroke="black" points="854.5,-246.5 854.5,-265.5 967.5,-265.5 967.5,-246.5 854.5,-246.5"/>
<text text-anchor="middle" x="911" y="-253.5" font-family="Helvetica,sans-Serif" font-size="10.00">boost/ui/widget.hpp</text>
</a>
</g>
</g>
<!-- Node1&#45;&gt;Node4 -->
<g id="edge3" class="edge">
<title>Node1&#45;&gt;Node4</title>
<path fill="none" stroke="midnightblue" d="M1997.88,-308.3C1805.76,-299.23 1183.49,-269.86 977.73,-260.15"/>
<polygon fill="midnightblue" stroke="midnightblue" points="977.83,-256.65 967.67,-259.68 977.5,-263.64 977.83,-256.65"/>
</g>
<!-- Node18 -->
<g id="node18" class="node">
<title>Node18</title>
<g id="a_node18"><a xlink:title=" ">
<polygon fill="white" stroke="#bfbfbf" points="1111.5,-123.5 1111.5,-142.5 1270.5,-142.5 1270.5,-123.5 1111.5,-123.5"/>
<text text-anchor="middle" x="1191" y="-130.5" font-family="Helvetica,sans-Serif" font-size="10.00">boost/core/scoped_enum.hpp</text>
</a>
</g>
</g>
<!-- Node1&#45;&gt;Node18 -->
<g id="edge59" class="edge">
<title>Node1&#45;&gt;Node18</title>
<path fill="none" stroke="midnightblue" d="M1997.8,-309.73C1815.11,-305.43 1255.91,-290.33 1226,-266 1192.07,-238.39 1188.87,-182.01 1189.72,-152.68"/>
<polygon fill="midnightblue" stroke="midnightblue" points="1193.23,-152.71 1190.22,-142.55 1186.24,-152.37 1193.23,-152.71"/>
</g>
<!-- Node22 -->
<g id="node22" class="node">
<title>Node22</title>
<g id="a_node22"><a xlink:href="painter_8hpp.html" target="_top" xlink:title="Painter class.">
<polygon fill="white" stroke="black" points="1751,-246.5 1751,-265.5 1865,-265.5 1865,-246.5 1751,-246.5"/>
<text text-anchor="middle" x="1808" y="-253.5" font-family="Helvetica,sans-Serif" font-size="10.00">boost/ui/painter.hpp</text>
</a>
</g>
</g>
<!-- Node1&#45;&gt;Node22 -->
<g id="edge29" class="edge">
<title>Node1&#45;&gt;Node22</title>
<path fill="none" stroke="midnightblue" d="M2015.86,-302.44C1972.77,-293.02 1903.44,-277.87 1856.83,-267.68"/>
<polygon fill="midnightblue" stroke="midnightblue" points="1857.47,-264.23 1846.95,-265.52 1855.98,-271.07 1857.47,-264.23"/>
</g>
<!-- Node24 -->
<g id="node24" class="node">
<title>Node24</title>
<g id="a_node24"><a xlink:title=" ">
<polygon fill="white" stroke="#bfbfbf" points="1268,-185 1268,-204 1378,-204 1378,-185 1268,-185"/>
<text text-anchor="middle" x="1323" y="-192" font-family="Helvetica,sans-Serif" font-size="10.00">boost/ui/config.hpp</text>
</a>
</g>
</g>
<!-- Node1&#45;&gt;Node24 -->
<g id="edge52" class="edge">
<title>Node1&#45;&gt;Node24</title>
<path fill="none" stroke="midnightblue" d="M1997.59,-303.5C1882.39,-288.19 1614.97,-251.24 1392,-210 1385.45,-208.79 1378.57,-207.44 1371.79,-206.06"/>
<polygon fill="midnightblue" stroke="midnightblue" points="1372.48,-202.63 1361.98,-204.04 1371.07,-209.48 1372.48,-202.63"/>
</g>
<!-- Node30 -->
<g id="node30" class="node">
<title>Node30</title>
<g id="a_node30"><a xlink:title=" ">
<polygon fill="white" stroke="#bfbfbf" points="2000,-185 2000,-204 2130,-204 2130,-185 2000,-185"/>
<text text-anchor="middle" x="2065" y="-192" font-family="Helvetica,sans-Serif" font-size="10.00">boost/noncopyable.hpp</text>
</a>
</g>
</g>
<!-- Node1&#45;&gt;Node30 -->
<g id="edge58" class="edge">
<title>Node1&#45;&gt;Node30</title>
<path fill="none" stroke="midnightblue" d="M2039.42,-302.46C2020.43,-290.83 1992.14,-268.84 2003,-246 2010.41,-230.41 2025.24,-218.06 2038.54,-209.47"/>
<polygon fill="midnightblue" stroke="midnightblue" points="2040.64,-212.29 2047.39,-204.13 2037.02,-206.3 2040.64,-212.29"/>
</g>
<!-- Node31 -->
<g id="node31" class="node">
<title>Node31</title>
<g id="a_node31"><a xlink:title=" ">
<polygon fill="white" stroke="#bfbfbf" points="2148.5,-185 2148.5,-204 2195.5,-204 2195.5,-185 2148.5,-185"/>
<text text-anchor="middle" x="2172" y="-192" font-family="Helvetica,sans-Serif" font-size="10.00">vector</text>
</a>
</g>
</g>
<!-- Node1&#45;&gt;Node31 -->
<g id="edge60" class="edge">
<title>Node1&#45;&gt;Node31</title>
<path fill="none" stroke="midnightblue" d="M2049.15,-302.16C2041.12,-288.81 2028.98,-263.23 2041,-246 2067.56,-207.95 2095.96,-227.34 2139,-210 2140.41,-209.43 2141.86,-208.84 2143.32,-208.23"/>
<polygon fill="midnightblue" stroke="midnightblue" points="2145.07,-211.29 2152.89,-204.14 2142.32,-204.85 2145.07,-211.29"/>
</g>
<!-- Node32 -->
<g id="node32" class="node">
<title>Node32</title>
<g id="a_node32"><a xlink:title=" ">
<polygon fill="white" stroke="#bfbfbf" points="2213.5,-185 2213.5,-204 2338.5,-204 2338.5,-185 2213.5,-185"/>
<text text-anchor="middle" x="2276" y="-192" font-family="Helvetica,sans-Serif" font-size="10.00">boost/range/begin.hpp</text>
</a>
</g>
</g>
<!-- Node1&#45;&gt;Node32 -->
<g id="edge61" class="edge">
<title>Node1&#45;&gt;Node32</title>
<path fill="none" stroke="midnightblue" d="M2055.68,-302.44C2057.25,-288.51 2062.39,-260.99 2079,-246 2089.89,-236.18 2169.63,-217.83 2224.26,-206.16"/>
<polygon fill="midnightblue" stroke="midnightblue" points="2225.09,-209.57 2234.15,-204.07 2223.64,-202.72 2225.09,-209.57"/>
</g>
<!-- Node33 -->
<g id="node33" class="node">
<title>Node33</title>
<g id="a_node33"><a xlink:title=" ">
<polygon fill="white" stroke="#bfbfbf" points="2357,-185 2357,-204 2473,-204 2473,-185 2357,-185"/>
<text text-anchor="middle" x="2415" y="-192" font-family="Helvetica,sans-Serif" font-size="10.00">boost/range/end.hpp</text>
</a>
</g>
</g>
<!-- Node1&#45;&gt;Node33 -->
<g id="edge62" class="edge">
<title>Node1&#45;&gt;Node33</title>
<path fill="none" stroke="midnightblue" d="M2060.61,-302.09C2070.21,-287.66 2091.3,-259.44 2117,-246 2209.08,-197.85 2245.85,-229 2348,-210 2354.3,-208.83 2360.91,-207.51 2367.42,-206.16"/>
<polygon fill="midnightblue" stroke="midnightblue" points="2368.46,-209.51 2377.52,-204.02 2367.01,-202.67 2368.46,-209.51"/>
</g>
<!-- Node34 -->
<g id="node34" class="node">
<title>Node34</title>
<g id="a_node34"><a xlink:title=" ">
<polygon fill="white" stroke="#bfbfbf" points="2491,-185 2491,-204 2609,-204 2609,-185 2491,-185"/>
<text text-anchor="middle" x="2550" y="-192" font-family="Helvetica,sans-Serif" font-size="10.00">boost/range/size.hpp</text>
</a>
</g>
</g>
<!-- Node1&#45;&gt;Node34 -->
<g id="edge63" class="edge">
<title>Node1&#45;&gt;Node34</title>
<path fill="none" stroke="midnightblue" d="M2067.19,-302.26C2090.91,-285.33 2141.79,-249.38 2151,-246 2289.92,-195.01 2335.89,-233.46 2482,-210 2488.89,-208.89 2496.13,-207.55 2503.21,-206.13"/>
<polygon fill="midnightblue" stroke="midnightblue" points="2504.34,-209.47 2513.43,-204.01 2502.92,-202.61 2504.34,-209.47"/>
</g>
<!-- Node35 -->
<g id="node35" class="node">
<title>Node35</title>
<g id="a_node35"><a xlink:title=" ">
<polygon fill="white" stroke="#bfbfbf" points="2159.5,-246.5 2159.5,-265.5 2254.5,-265.5 2254.5,-246.5 2159.5,-246.5"/>
<text text-anchor="middle" x="2207" y="-253.5" font-family="Helvetica,sans-Serif" font-size="10.00">boost/ui/def.hpp</text>
</a>
</g>
</g>
<!-- Node1&#45;&gt;Node35 -->
<g id="edge53" class="edge">
<title>Node1&#45;&gt;Node35</title>
<path fill="none" stroke="midnightblue" d="M2079.08,-302.44C2104.54,-293.4 2144.89,-279.06 2173.46,-268.92"/>
<polygon fill="midnightblue" stroke="midnightblue" points="2174.78,-272.16 2183.03,-265.52 2172.43,-265.57 2174.78,-272.16"/>
</g>
<!-- Node36 -->
<g id="node36" class="node">
<title>Node36</title>
<g id="a_node36"><a xlink:title=" ">
<polygon fill="white" stroke="#bfbfbf" points="2273,-246.5 2273,-265.5 2377,-265.5 2377,-246.5 2273,-246.5"/>
<text text-anchor="middle" x="2325" y="-253.5" font-family="Helvetica,sans-Serif" font-size="10.00">boost/ui/color.hpp</text>
</a>
</g>
</g>
<!-- Node1&#45;&gt;Node36 -->
<g id="edge54" class="edge">
<title>Node1&#45;&gt;Node36</title>
<path fill="none" stroke="midnightblue" d="M2097.78,-302.44C2145.18,-292.96 2221.63,-277.67 2272.58,-267.48"/>
<polygon fill="midnightblue" stroke="midnightblue" points="2273.3,-270.91 2282.42,-265.52 2271.93,-264.05 2273.3,-270.91"/>
</g>
<!-- Node37 -->
<g id="node37" class="node">
<title>Node37</title>
<g id="a_node37"><a xlink:title=" ">
<polygon fill="white" stroke="#bfbfbf" points="2395,-246.5 2395,-265.5 2505,-265.5 2505,-246.5 2395,-246.5"/>
<text text-anchor="middle" x="2450" y="-253.5" font-family="Helvetica,sans-Serif" font-size="10.00">boost/ui/image.hpp</text>
</a>
</g>
</g>
<!-- Node1&#45;&gt;Node37 -->
<g id="edge55" class="edge">
<title>Node1&#45;&gt;Node37</title>
<path fill="none" stroke="midnightblue" d="M2112.12,-303.32C2175.98,-294.71 2282.76,-280.26 2384.68,-266.18"/>
<polygon fill="midnightblue" stroke="midnightblue" points="2385.42,-269.61 2394.84,-264.77 2384.46,-262.67 2385.42,-269.61"/>
</g>
<!-- Node38 -->
<g id="node38" class="node">
<title>Node38</title>
<g id="a_node38"><a xlink:title=" ">
<polygon fill="white" stroke="#bfbfbf" points="2523.5,-246.5 2523.5,-265.5 2622.5,-265.5 2622.5,-246.5 2523.5,-246.5"/>
<text text-anchor="middle" x="2573" y="-253.5" font-family="Helvetica,sans-Serif" font-size="10.00">boost/ui/font.hpp</text>
</a>
</g>
</g>
<!-- Node1&#45;&gt;Node38 -->
<g id="edge56" class="edge">
<title>Node1&#45;&gt;Node38</title>
<path fill="none" stroke="midnightblue" d="M2112.36,-306.37C2197.48,-299.28 2362.51,-284.7 2513.53,-265.99"/>
<polygon fill="midnightblue" stroke="midnightblue" points="2513.96,-269.47 2523.45,-264.76 2513.1,-262.52 2513.96,-269.47"/>
</g>
<!-- Node39 -->
<g id="node39" class="node">
<title>Node39</title>
<g id="a_node39"><a xlink:title=" ">
<polygon fill="white" stroke="#bfbfbf" points="2640.5,-246.5 2640.5,-265.5 2747.5,-265.5 2747.5,-246.5 2640.5,-246.5"/>
<text text-anchor="middle" x="2694" y="-253.5" font-family="Helvetica,sans-Serif" font-size="10.00">boost/ui/string.hpp</text>
</a>
</g>
</g>
<!-- Node1&#45;&gt;Node39 -->
<g id="edge57" class="edge">
<title>Node1&#45;&gt;Node39</title>
<path fill="none" stroke="midnightblue" d="M2112.04,-307.81C2213.97,-301.83 2434.32,-287.67 2630.07,-266.15"/>
<polygon fill="midnightblue" stroke="midnightblue" points="2630.71,-269.6 2640.26,-265.02 2629.93,-262.65 2630.71,-269.6"/>
</g>
<!-- Node3 -->
<g id="node3" class="node">
<title>Node3</title>
<g id="a_node3"><a xlink:title=" ">
<polygon fill="white" stroke="#bfbfbf" points="1035,-0.5 1035,-19.5 1133,-19.5 1133,-0.5 1035,-0.5"/>
<text text-anchor="middle" x="1084" y="-7.5" font-family="Helvetica,sans-Serif" font-size="10.00">boost/config.hpp</text>
</a>
</g>
</g>
<!-- Node2&#45;&gt;Node3 -->
<g id="edge2" class="edge">
<title>Node2&#45;&gt;Node3</title>
<path fill="none" stroke="midnightblue" d="M1084,-61.98C1084,-53.58 1084,-40.48 1084,-29.66"/>
<polygon fill="midnightblue" stroke="midnightblue" points="1087.5,-29.51 1084,-19.51 1080.5,-29.51 1087.5,-29.51"/>
</g>
<!-- Node4&#45;&gt;Node2 -->
<g id="edge4" class="edge">
<title>Node4&#45;&gt;Node2</title>
<path fill="none" stroke="midnightblue" d="M939.54,-246.42C959.68,-239.24 986.3,-227.35 1005,-210 1042.23,-175.47 1066.82,-119.32 1077.66,-90.63"/>
<polygon fill="midnightblue" stroke="midnightblue" points="1081,-91.68 1081.14,-81.08 1074.43,-89.28 1081,-91.68"/>
</g>
<!-- Node5 -->
<g id="node5" class="node">
<title>Node5</title>
<g id="a_node5"><a xlink:href="coord_8hpp.html" target="_top" xlink:title="Coordinates classes.">
<polygon fill="white" stroke="black" points="475.5,-123.5 475.5,-142.5 582.5,-142.5 582.5,-123.5 475.5,-123.5"/>
<text text-anchor="middle" x="529" y="-130.5" font-family="Helvetica,sans-Serif" font-size="10.00">boost/ui/coord.hpp</text>
</a>
</g>
</g>
<!-- Node4&#45;&gt;Node5 -->
<g id="edge5" class="edge">
<title>Node4&#45;&gt;Node5</title>
<path fill="none" stroke="midnightblue" d="M854.12,-252.4C752.93,-247.19 550.21,-233.86 529,-210 515.26,-194.55 518.34,-169.54 522.8,-152.47"/>
<polygon fill="midnightblue" stroke="midnightblue" points="526.25,-153.15 525.76,-142.57 519.54,-151.14 526.25,-153.15"/>
</g>
<!-- Node11 -->
<g id="node11" class="node">
<title>Node11</title>
<g id="a_node11"><a xlink:href="string_8hpp.html" target="_top" xlink:title="String class and operations.">
<polygon fill="white" stroke="black" points="744.5,-123.5 744.5,-142.5 851.5,-142.5 851.5,-123.5 744.5,-123.5"/>
<text text-anchor="middle" x="798" y="-130.5" font-family="Helvetica,sans-Serif" font-size="10.00">boost/ui/string.hpp</text>
</a>
</g>
</g>
<!-- Node4&#45;&gt;Node11 -->
<g id="edge12" class="edge">
<title>Node4&#45;&gt;Node11</title>
<path fill="none" stroke="midnightblue" d="M854.26,-251.24C796.6,-246.09 712.98,-234.53 693,-210 684.3,-199.32 685.42,-190.5 693,-179 703.64,-162.86 721.39,-152.49 739.31,-145.83"/>
<polygon fill="midnightblue" stroke="midnightblue" points="740.86,-149 749.23,-142.5 738.63,-142.37 740.86,-149"/>
</g>
<!-- Node15 -->
<g id="node15" class="node">
<title>Node15</title>
<g id="a_node15"><a xlink:href="event_8hpp.html" target="_top" xlink:title="Event classes.">
<polygon fill="white" stroke="black" points="538.5,-185 538.5,-204 645.5,-204 645.5,-185 538.5,-185"/>
<text text-anchor="middle" x="592" y="-192" font-family="Helvetica,sans-Serif" font-size="10.00">boost/ui/event.hpp</text>
</a>
</g>
</g>
<!-- Node4&#45;&gt;Node15 -->
<g id="edge17" class="edge">
<title>Node4&#45;&gt;Node15</title>
<path fill="none" stroke="midnightblue" d="M860.43,-246.43C809.67,-237.72 729.29,-223.6 660,-210 653.78,-208.78 647.25,-207.45 640.8,-206.11"/>
<polygon fill="midnightblue" stroke="midnightblue" points="641.3,-202.63 630.79,-204 639.86,-209.48 641.3,-202.63"/>
</g>
<!-- Node17 -->
<g id="node17" class="node">
<title>Node17</title>
<g id="a_node17"><a xlink:href="font_8hpp.html" target="_top" xlink:title="Font class.">
<polygon fill="white" stroke="black" points="1074.5,-185 1074.5,-204 1173.5,-204 1173.5,-185 1074.5,-185"/>
<text text-anchor="middle" x="1124" y="-192" font-family="Helvetica,sans-Serif" font-size="10.00">boost/ui/font.hpp</text>
</a>
</g>
</g>
<!-- Node4&#45;&gt;Node17 -->
<g id="edge21" class="edge">
<title>Node4&#45;&gt;Node17</title>
<path fill="none" stroke="midnightblue" d="M941.52,-246.48C978.92,-236.03 1042.43,-218.29 1083.79,-206.73"/>
<polygon fill="midnightblue" stroke="midnightblue" points="1084.85,-210.07 1093.54,-204.01 1082.97,-203.33 1084.85,-210.07"/>
</g>
<!-- Node19 -->
<g id="node19" class="node">
<title>Node19</title>
<g id="a_node19"><a xlink:href="layout_8hpp.html" target="_top" xlink:title="Layout classes.">
<polygon fill="white" stroke="black" points="908,-123.5 908,-142.5 1018,-142.5 1018,-123.5 908,-123.5"/>
<text text-anchor="middle" x="963" y="-130.5" font-family="Helvetica,sans-Serif" font-size="10.00">boost/ui/layout.hpp</text>
</a>
</g>
</g>
<!-- Node4&#45;&gt;Node19 -->
<g id="edge25" class="edge">
<title>Node4&#45;&gt;Node19</title>
<path fill="none" stroke="midnightblue" d="M940.12,-246.44C957.64,-239.62 978.52,-228.14 989,-210 999.84,-191.22 987.92,-167.22 976.89,-151.27"/>
<polygon fill="midnightblue" stroke="midnightblue" points="979.45,-148.84 970.68,-142.9 973.83,-153.02 979.45,-148.84"/>
</g>
<!-- Node20 -->
<g id="node20" class="node">
<title>Node20</title>
<g id="a_node20"><a xlink:title=" ">
<polygon fill="white" stroke="#bfbfbf" points="702,-179.5 702,-209.5 824,-209.5 824,-179.5 702,-179.5"/>
<text text-anchor="start" x="710" y="-197.5" font-family="Helvetica,sans-Serif" font-size="10.00">boost/ui/detail/shared</text>
<text text-anchor="middle" x="763" y="-186.5" font-family="Helvetica,sans-Serif" font-size="10.00">_count.hpp</text>
</a>
</g>
</g>
<!-- Node4&#45;&gt;Node20 -->
<g id="edge27" class="edge">
<title>Node4&#45;&gt;Node20</title>
<path fill="none" stroke="midnightblue" d="M889.8,-246.48C868.35,-237.85 834.55,-224.26 807.24,-213.29"/>
<polygon fill="midnightblue" stroke="midnightblue" points="808.46,-210.01 797.88,-209.52 805.85,-216.5 808.46,-210.01"/>
</g>
<!-- Node21 -->
<g id="node21" class="node">
<title>Node21</title>
<g id="a_node21"><a xlink:title=" ">
<polygon fill="white" stroke="#bfbfbf" points="842,-185 842,-204 980,-204 980,-185 842,-185"/>
<text text-anchor="middle" x="911" y="-192" font-family="Helvetica,sans-Serif" font-size="10.00">boost/ui/detail/event.hpp</text>
</a>
</g>
</g>
<!-- Node4&#45;&gt;Node21 -->
<g id="edge28" class="edge">
<title>Node4&#45;&gt;Node21</title>
<path fill="none" stroke="midnightblue" d="M911,-246.48C911,-238.08 911,-224.98 911,-214.16"/>
<polygon fill="midnightblue" stroke="midnightblue" points="914.5,-214.01 911,-204.01 907.5,-214.01 914.5,-214.01"/>
</g>
<!-- Node5&#45;&gt;Node2 -->
<g id="edge6" class="edge">
<title>Node5&#45;&gt;Node2</title>
<path fill="none" stroke="midnightblue" d="M582.74,-124.01C585.53,-123.66 588.3,-123.32 591,-123 769.6,-102.08 815.57,-109.32 994,-87 1004.01,-85.75 1014.62,-84.22 1024.9,-82.63"/>
<polygon fill="midnightblue" stroke="midnightblue" points="1025.71,-86.05 1035.04,-81.03 1024.62,-79.13 1025.71,-86.05"/>
</g>
<!-- Node6 -->
<g id="node6" class="node">
<title>Node6</title>
<g id="a_node6"><a xlink:title=" ">
<polygon fill="white" stroke="#bfbfbf" points="624.5,-62 624.5,-81 737.5,-81 737.5,-62 624.5,-62"/>
<text text-anchor="middle" x="681" y="-69" font-family="Helvetica,sans-Serif" font-size="10.00">boost/geometry.hpp</text>
</a>
</g>
</g>
<!-- Node5&#45;&gt;Node6 -->
<g id="edge7" class="edge">
<title>Node5&#45;&gt;Node6</title>
<path fill="none" stroke="midnightblue" d="M550.78,-123.48C576.74,-113.31 620.31,-96.26 649.83,-84.7"/>
<polygon fill="midnightblue" stroke="midnightblue" points="651.23,-87.91 659.26,-81.01 648.67,-81.4 651.23,-87.91"/>
</g>
<!-- Node7 -->
<g id="node7" class="node">
<title>Node7</title>
<g id="a_node7"><a xlink:title=" ">
<polygon fill="white" stroke="#bfbfbf" points="0,-56.5 0,-86.5 152,-86.5 152,-56.5 0,-56.5"/>
<text text-anchor="start" x="8" y="-74.5" font-family="Helvetica,sans-Serif" font-size="10.00">boost/geometry/geometries</text>
<text text-anchor="middle" x="76" y="-63.5" font-family="Helvetica,sans-Serif" font-size="10.00">/point_xy.hpp</text>
</a>
</g>
</g>
<!-- Node5&#45;&gt;Node7 -->
<g id="edge8" class="edge">
<title>Node5&#45;&gt;Node7</title>
<path fill="none" stroke="midnightblue" d="M475.26,-126.23C405.53,-118.57 279.83,-104.16 162.65,-87.2"/>
<polygon fill="midnightblue" stroke="midnightblue" points="162.83,-83.69 152.43,-85.71 161.82,-90.62 162.83,-83.69"/>
</g>
<!-- Node8 -->
<g id="node8" class="node">
<title>Node8</title>
<g id="a_node8"><a xlink:title=" ">
<polygon fill="white" stroke="#bfbfbf" points="170,-56.5 170,-86.5 322,-86.5 322,-56.5 170,-56.5"/>
<text text-anchor="start" x="178" y="-74.5" font-family="Helvetica,sans-Serif" font-size="10.00">boost/geometry/geometries</text>
<text text-anchor="middle" x="246" y="-63.5" font-family="Helvetica,sans-Serif" font-size="10.00">/box.hpp</text>
</a>
</g>
</g>
<!-- Node5&#45;&gt;Node8 -->
<g id="edge9" class="edge">
<title>Node5&#45;&gt;Node8</title>
<path fill="none" stroke="midnightblue" d="M488.45,-123.48C445.29,-114.4 375.97,-99.83 322.49,-88.58"/>
<polygon fill="midnightblue" stroke="midnightblue" points="323.2,-85.16 312.7,-86.52 321.76,-92.01 323.2,-85.16"/>
</g>
<!-- Node9 -->
<g id="node9" class="node">
<title>Node9</title>
<g id="a_node9"><a xlink:title=" ">
<polygon fill="white" stroke="#bfbfbf" points="340.5,-56.5 340.5,-86.5 453.5,-86.5 453.5,-56.5 340.5,-56.5"/>
<text text-anchor="start" x="348.5" y="-74.5" font-family="Helvetica,sans-Serif" font-size="10.00">boost/polygon/point</text>
<text text-anchor="middle" x="397" y="-63.5" font-family="Helvetica,sans-Serif" font-size="10.00">_data.hpp</text>
</a>
</g>
</g>
<!-- Node5&#45;&gt;Node9 -->
<g id="edge10" class="edge">
<title>Node5&#45;&gt;Node9</title>
<path fill="none" stroke="midnightblue" d="M510.09,-123.48C491.21,-114.96 461.6,-101.62 437.42,-90.72"/>
<polygon fill="midnightblue" stroke="midnightblue" points="438.66,-87.44 428.11,-86.52 435.79,-93.82 438.66,-87.44"/>
</g>
<!-- Node10 -->
<g id="node10" class="node">
<title>Node10</title>
<g id="a_node10"><a xlink:title=" ">
<polygon fill="white" stroke="#bfbfbf" points="472,-56.5 472,-86.5 606,-86.5 606,-56.5 472,-56.5"/>
<text text-anchor="start" x="480" y="-74.5" font-family="Helvetica,sans-Serif" font-size="10.00">boost/polygon/rectangle</text>
<text text-anchor="middle" x="539" y="-63.5" font-family="Helvetica,sans-Serif" font-size="10.00">_data.hpp</text>
</a>
</g>
</g>
<!-- Node5&#45;&gt;Node10 -->
<g id="edge11" class="edge">
<title>Node5&#45;&gt;Node10</title>
<path fill="none" stroke="midnightblue" d="M530.43,-123.48C531.62,-116.4 533.37,-105.97 534.98,-96.39"/>
<polygon fill="midnightblue" stroke="midnightblue" points="538.44,-96.96 536.64,-86.52 531.53,-95.8 538.44,-96.96"/>
</g>
<!-- Node11&#45;&gt;Node2 -->
<g id="edge13" class="edge">
<title>Node11&#45;&gt;Node2</title>
<path fill="none" stroke="midnightblue" d="M838.98,-123.48C890.16,-112.83 977.73,-94.61 1033.14,-83.08"/>
<polygon fill="midnightblue" stroke="midnightblue" points="1034.02,-86.47 1043.1,-81.01 1032.6,-79.62 1034.02,-86.47"/>
</g>
<!-- Node12 -->
<g id="node12" class="node">
<title>Node12</title>
<g id="a_node12"><a xlink:title=" ">
<polygon fill="white" stroke="#bfbfbf" points="839,-62 839,-81 883,-81 883,-62 839,-62"/>
<text text-anchor="middle" x="861" y="-69" font-family="Helvetica,sans-Serif" font-size="10.00">string</text>
</a>
</g>
</g>
<!-- Node11&#45;&gt;Node12 -->
<g id="edge14" class="edge">
<title>Node11&#45;&gt;Node12</title>
<path fill="none" stroke="midnightblue" d="M807.03,-123.48C816.76,-114.28 832.46,-99.46 844.42,-88.16"/>
<polygon fill="midnightblue" stroke="midnightblue" points="847.12,-90.42 851.99,-81.01 842.32,-85.33 847.12,-90.42"/>
</g>
<!-- Node13 -->
<g id="node13" class="node">
<title>Node13</title>
<g id="a_node13"><a xlink:title=" ">
<polygon fill="white" stroke="#bfbfbf" points="901.5,-62 901.5,-81 984.5,-81 984.5,-62 901.5,-62"/>
<text text-anchor="middle" x="943" y="-69" font-family="Helvetica,sans-Serif" font-size="10.00">initializer_list</text>
</a>
</g>
</g>
<!-- Node11&#45;&gt;Node13 -->
<g id="edge15" class="edge">
<title>Node11&#45;&gt;Node13</title>
<path fill="none" stroke="midnightblue" d="M818.77,-123.48C843.43,-113.36 884.75,-96.4 912.9,-84.85"/>
<polygon fill="midnightblue" stroke="midnightblue" points="914.34,-88.04 922.26,-81.01 911.68,-81.57 914.34,-88.04"/>
</g>
<!-- Node14 -->
<g id="node14" class="node">
<title>Node14</title>
<g id="a_node14"><a xlink:title=" ">
<polygon fill="white" stroke="#bfbfbf" points="755.5,-62 755.5,-81 820.5,-81 820.5,-62 755.5,-62"/>
<text text-anchor="middle" x="788" y="-69" font-family="Helvetica,sans-Serif" font-size="10.00">functional</text>
</a>
</g>
</g>
<!-- Node11&#45;&gt;Node14 -->
<g id="edge16" class="edge">
<title>Node11&#45;&gt;Node14</title>
<path fill="none" stroke="midnightblue" d="M796.57,-123.48C795.16,-115.08 792.95,-101.98 791.14,-91.16"/>
<polygon fill="midnightblue" stroke="midnightblue" points="794.54,-90.29 789.43,-81.01 787.64,-91.45 794.54,-90.29"/>
</g>
<!-- Node15&#45;&gt;Node2 -->
<g id="edge18" class="edge">
<title>Node15&#45;&gt;Node2</title>
<path fill="none" stroke="midnightblue" d="M645.74,-185.25C712.17,-174.72 821.2,-156.29 860,-143 878.43,-136.69 880.84,-130.05 899,-123 943.12,-105.88 995.27,-92.2 1032.94,-83.42"/>
<polygon fill="midnightblue" stroke="midnightblue" points="1034.2,-86.73 1043.17,-81.08 1032.64,-79.9 1034.2,-86.73"/>
</g>
<!-- Node15&#45;&gt;Node5 -->
<g id="edge19" class="edge">
<title>Node15&#45;&gt;Node5</title>
<path fill="none" stroke="midnightblue" d="M582.97,-184.98C573.24,-175.78 557.54,-160.96 545.58,-149.66"/>
<polygon fill="midnightblue" stroke="midnightblue" points="547.68,-146.83 538.01,-142.51 542.88,-151.92 547.68,-146.83"/>
</g>
<!-- Node16 -->
<g id="node16" class="node">
<title>Node16</title>
<g id="a_node16"><a xlink:title=" ">
<polygon fill="white" stroke="#bfbfbf" points="600.5,-123.5 600.5,-142.5 707.5,-142.5 707.5,-123.5 600.5,-123.5"/>
<text text-anchor="middle" x="654" y="-130.5" font-family="Helvetica,sans-Serif" font-size="10.00">boost/function.hpp</text>
</a>
</g>
</g>
<!-- Node15&#45;&gt;Node16 -->
<g id="edge20" class="edge">
<title>Node15&#45;&gt;Node16</title>
<path fill="none" stroke="midnightblue" d="M600.88,-184.98C610.46,-175.78 625.91,-160.96 637.69,-149.66"/>
<polygon fill="midnightblue" stroke="midnightblue" points="640.34,-151.96 645.13,-142.51 635.49,-146.91 640.34,-151.96"/>
</g>
<!-- Node17&#45;&gt;Node2 -->
<g id="edge22" class="edge">
<title>Node17&#45;&gt;Node2</title>
<path fill="none" stroke="midnightblue" d="M1119.92,-184.7C1115.41,-174.72 1108.09,-157.92 1103,-143 1097.12,-125.77 1091.86,-105.69 1088.37,-91.37"/>
<polygon fill="midnightblue" stroke="midnightblue" points="1091.7,-90.21 1085.98,-81.29 1084.89,-91.83 1091.7,-90.21"/>
</g>
<!-- Node17&#45;&gt;Node11 -->
<g id="edge23" class="edge">
<title>Node17&#45;&gt;Node11</title>
<path fill="none" stroke="midnightblue" d="M1077.29,-184.98C1018.59,-174.26 917.89,-155.88 854.8,-144.37"/>
<polygon fill="midnightblue" stroke="midnightblue" points="855.09,-140.86 844.62,-142.51 853.83,-147.75 855.09,-140.86"/>
</g>
<!-- Node17&#45;&gt;Node18 -->
<g id="edge24" class="edge">
<title>Node17&#45;&gt;Node18</title>
<path fill="none" stroke="midnightblue" d="M1133.6,-184.98C1144.05,-175.7 1160.97,-160.67 1173.74,-149.33"/>
<polygon fill="midnightblue" stroke="midnightblue" points="1176.27,-151.77 1181.42,-142.51 1171.62,-146.53 1176.27,-151.77"/>
</g>
<!-- Node19&#45;&gt;Node2 -->
<g id="edge26" class="edge">
<title>Node19&#45;&gt;Node2</title>
<path fill="none" stroke="midnightblue" d="M980.34,-123.48C1000.55,-113.53 1034.19,-96.99 1057.64,-85.46"/>
<polygon fill="midnightblue" stroke="midnightblue" points="1059.27,-88.56 1066.7,-81.01 1056.18,-82.28 1059.27,-88.56"/>
</g>
<!-- Node22&#45;&gt;Node2 -->
<g id="edge30" class="edge">
<title>Node22&#45;&gt;Node2</title>
<path fill="none" stroke="midnightblue" d="M1865.26,-246.87C1915.68,-237.06 1977.57,-216.93 1953,-179 1919.9,-127.91 1887.07,-137.74 1828,-123 1700.37,-91.16 1306.58,-78.05 1149.59,-74"/>
<polygon fill="midnightblue" stroke="midnightblue" points="1149.24,-70.48 1139.15,-73.73 1149.06,-77.48 1149.24,-70.48"/>
</g>
<!-- Node22&#45;&gt;Node11 -->
<g id="edge45" class="edge">
<title>Node22&#45;&gt;Node11</title>
<path fill="none" stroke="midnightblue" d="M1750.95,-250.37C1650.37,-241.93 1449.33,-223.62 1420,-210 1401.75,-201.52 1405.42,-187.09 1387,-179 1287.44,-135.27 1007.38,-151.83 899,-143 887.01,-142.02 874.22,-140.93 861.91,-139.84"/>
<polygon fill="midnightblue" stroke="midnightblue" points="861.98,-136.34 851.71,-138.94 861.37,-143.31 861.98,-136.34"/>
</g>
<!-- Node22&#45;&gt;Node17 -->
<g id="edge44" class="edge">
<title>Node22&#45;&gt;Node17</title>
<path fill="none" stroke="midnightblue" d="M1750.66,-250.78C1650.73,-243.31 1438.23,-226.97 1259,-210 1234.37,-207.67 1207.24,-204.81 1183.8,-202.25"/>
<polygon fill="midnightblue" stroke="midnightblue" points="1183.98,-198.75 1173.66,-201.14 1183.22,-205.71 1183.98,-198.75"/>
</g>
<!-- Node22&#45;&gt;Node18 -->
<g id="edge47" class="edge">
<title>Node22&#45;&gt;Node18</title>
<path fill="none" stroke="midnightblue" d="M1750.71,-251.46C1665.36,-245.55 1509.36,-232.08 1458,-210 1437.98,-201.39 1439.73,-188.27 1420,-179 1376.54,-158.58 1324.23,-147.43 1280.59,-141.33"/>
<polygon fill="midnightblue" stroke="midnightblue" points="1280.94,-137.84 1270.56,-140 1280.01,-144.78 1280.94,-137.84"/>
</g>
<!-- Node23 -->
<g id="node23" class="node">
<title>Node23</title>
<g id="a_node23"><a xlink:href="def_8hpp.html" target="_top" xlink:title="Definitions.">
<polygon fill="white" stroke="black" points="1348.5,-123.5 1348.5,-142.5 1443.5,-142.5 1443.5,-123.5 1348.5,-123.5"/>
<text text-anchor="middle" x="1396" y="-130.5" font-family="Helvetica,sans-Serif" font-size="10.00">boost/ui/def.hpp</text>
</a>
</g>
</g>
<!-- Node22&#45;&gt;Node23 -->
<g id="edge31" class="edge">
<title>Node22&#45;&gt;Node23</title>
<path fill="none" stroke="midnightblue" d="M1750.99,-254.69C1687.7,-252.54 1583.59,-243.57 1501,-210 1500.4,-209.76 1446.51,-170.66 1416.18,-148.65"/>
<polygon fill="midnightblue" stroke="midnightblue" points="1418.11,-145.72 1407.96,-142.68 1413.99,-151.39 1418.11,-145.72"/>
</g>
<!-- Node22&#45;&gt;Node24 -->
<g id="edge33" class="edge">
<title>Node22&#45;&gt;Node24</title>
<path fill="none" stroke="midnightblue" d="M1750.9,-250.63C1670.52,-244.07 1519.53,-230.25 1392,-210 1384.85,-208.87 1377.33,-207.48 1369.98,-206.02"/>
<polygon fill="midnightblue" stroke="midnightblue" points="1370.62,-202.58 1360.12,-204.01 1369.21,-209.44 1370.62,-202.58"/>
</g>
<!-- Node25 -->
<g id="node25" class="node">
<title>Node25</title>
<g id="a_node25"><a xlink:href="color_8hpp.html" target="_top" xlink:title="Color class.">
<polygon fill="white" stroke="black" points="1676,-185 1676,-204 1780,-204 1780,-185 1676,-185"/>
<text text-anchor="middle" x="1728" y="-192" font-family="Helvetica,sans-Serif" font-size="10.00">boost/ui/color.hpp</text>
</a>
</g>
</g>
<!-- Node22&#45;&gt;Node25 -->
<g id="edge34" class="edge">
<title>Node22&#45;&gt;Node25</title>
<path fill="none" stroke="midnightblue" d="M1796.54,-246.48C1783.83,-237.02 1763.09,-221.6 1747.75,-210.19"/>
<polygon fill="midnightblue" stroke="midnightblue" points="1749.55,-207.17 1739.44,-204.01 1745.38,-212.79 1749.55,-207.17"/>
</g>
<!-- Node26 -->
<g id="node26" class="node">
<title>Node26</title>
<g id="a_node26"><a xlink:title=" ">
<polygon fill="white" stroke="#bfbfbf" points="1717.5,-123.5 1717.5,-142.5 1818.5,-142.5 1818.5,-123.5 1717.5,-123.5"/>
<text text-anchor="middle" x="1768" y="-130.5" font-family="Helvetica,sans-Serif" font-size="10.00">boost/cstdint.hpp</text>
</a>
</g>
</g>
<!-- Node22&#45;&gt;Node26 -->
<g id="edge37" class="edge">
<title>Node22&#45;&gt;Node26</title>
<path fill="none" stroke="midnightblue" d="M1806.41,-246.41C1803.65,-232.16 1797.46,-202.84 1789,-179 1785.72,-169.76 1781.21,-159.84 1777.21,-151.68"/>
<polygon fill="midnightblue" stroke="midnightblue" points="1780.33,-150.1 1772.7,-142.75 1774.09,-153.26 1780.33,-150.1"/>
</g>
<!-- Node27 -->
<g id="node27" class="node">
<title>Node27</title>
<g id="a_node27"><a xlink:href="image_8hpp.html" target="_top" xlink:title="Image class.">
<polygon fill="white" stroke="black" points="1510,-185 1510,-204 1620,-204 1620,-185 1510,-185"/>
<text text-anchor="middle" x="1565" y="-192" font-family="Helvetica,sans-Serif" font-size="10.00">boost/ui/image.hpp</text>
</a>
</g>
</g>
<!-- Node22&#45;&gt;Node27 -->
<g id="edge38" class="edge">
<title>Node22&#45;&gt;Node27</title>
<path fill="none" stroke="midnightblue" d="M1773.18,-246.48C1730.15,-235.94 1656.83,-217.99 1609.69,-206.44"/>
<polygon fill="midnightblue" stroke="midnightblue" points="1610.3,-202.99 1599.75,-204.01 1608.63,-209.79 1610.3,-202.99"/>
</g>
<!-- Node28 -->
<g id="node28" class="node">
<title>Node28</title>
<g id="a_node28"><a xlink:title=" ">
<polygon fill="white" stroke="#bfbfbf" points="1545,-123.5 1545,-142.5 1599,-142.5 1599,-123.5 1545,-123.5"/>
<text text-anchor="middle" x="1572" y="-130.5" font-family="Helvetica,sans-Serif" font-size="10.00">istream</text>
</a>
</g>
</g>
<!-- Node22&#45;&gt;Node28 -->
<g id="edge43" class="edge">
<title>Node22&#45;&gt;Node28</title>
<path fill="none" stroke="midnightblue" d="M1767.8,-246.44C1738.67,-239.24 1698.97,-227.32 1667,-210 1647.84,-199.62 1646,-192.64 1629,-179 1616.43,-168.91 1602.2,-157.68 1591.11,-148.96"/>
<polygon fill="midnightblue" stroke="midnightblue" points="1593,-145.99 1582.97,-142.58 1588.68,-151.5 1593,-145.99"/>
</g>
<!-- Node29 -->
<g id="node29" class="node">
<title>Node29</title>
<g id="a_node29"><a xlink:title=" ">
<polygon fill="white" stroke="#bfbfbf" points="1836.5,-185 1836.5,-204 1943.5,-204 1943.5,-185 1836.5,-185"/>
<text text-anchor="middle" x="1890" y="-192" font-family="Helvetica,sans-Serif" font-size="10.00">boost/ui/coord.hpp</text>
</a>
</g>
</g>
<!-- Node22&#45;&gt;Node29 -->
<g id="edge42" class="edge">
<title>Node22&#45;&gt;Node29</title>
<path fill="none" stroke="midnightblue" d="M1819.75,-246.48C1832.78,-237.02 1854.04,-221.6 1869.76,-210.19"/>
<polygon fill="midnightblue" stroke="midnightblue" points="1872.23,-212.71 1878.27,-204.01 1868.12,-207.05 1872.23,-212.71"/>
</g>
<!-- Node22&#45;&gt;Node30 -->
<g id="edge46" class="edge">
<title>Node22&#45;&gt;Node30</title>
<path fill="none" stroke="midnightblue" d="M1844.82,-246.48C1890.53,-235.89 1968.53,-217.84 2018.37,-206.3"/>
<polygon fill="midnightblue" stroke="midnightblue" points="2019.29,-209.67 2028.25,-204.01 2017.71,-202.85 2019.29,-209.67"/>
</g>
<!-- Node22&#45;&gt;Node31 -->
<g id="edge48" class="edge">
<title>Node22&#45;&gt;Node31</title>
<path fill="none" stroke="midnightblue" d="M1865.2,-252.07C1931.98,-247.54 2045.22,-236.42 2139,-210 2141.15,-209.39 2143.35,-208.67 2145.53,-207.88"/>
<polygon fill="midnightblue" stroke="midnightblue" points="2146.91,-211.1 2154.87,-204.11 2144.28,-204.61 2146.91,-211.1"/>
</g>
<!-- Node22&#45;&gt;Node32 -->
<g id="edge49" class="edge">
<title>Node22&#45;&gt;Node32</title>
<path fill="none" stroke="midnightblue" d="M1865.08,-250.13C1942.4,-243.17 2084.59,-229.08 2205,-210 2212.26,-208.85 2219.91,-207.47 2227.38,-206.02"/>
<polygon fill="midnightblue" stroke="midnightblue" points="2228.3,-209.41 2237.42,-204.03 2226.93,-202.54 2228.3,-209.41"/>
</g>
<!-- Node22&#45;&gt;Node33 -->
<g id="edge50" class="edge">
<title>Node22&#45;&gt;Node33</title>
<path fill="none" stroke="midnightblue" d="M1865.03,-252.69C1963.85,-248.14 2173.08,-236.1 2348,-210 2354.96,-208.96 2362.28,-207.63 2369.42,-206.19"/>
<polygon fill="midnightblue" stroke="midnightblue" points="2370.62,-209.52 2379.69,-204.04 2369.19,-202.67 2370.62,-209.52"/>
</g>
<!-- Node22&#45;&gt;Node34 -->
<g id="edge51" class="edge">
<title>Node22&#45;&gt;Node34</title>
<path fill="none" stroke="midnightblue" d="M1865.09,-253.95C1981.6,-251.19 2254.92,-241.62 2482,-210 2489.32,-208.98 2497.02,-207.62 2504.51,-206.14"/>
<polygon fill="midnightblue" stroke="midnightblue" points="2505.44,-209.52 2514.53,-204.07 2504.02,-202.67 2505.44,-209.52"/>
</g>
<!-- Node23&#45;&gt;Node2 -->
<g id="edge32" class="edge">
<title>Node23&#45;&gt;Node2</title>
<path fill="none" stroke="midnightblue" d="M1351.3,-123.48C1295.23,-112.78 1199.14,-94.46 1138.73,-82.94"/>
<polygon fill="midnightblue" stroke="midnightblue" points="1139.1,-79.44 1128.62,-81.01 1137.79,-86.32 1139.1,-79.44"/>
</g>
<!-- Node25&#45;&gt;Node2 -->
<g id="edge35" class="edge">
<title>Node25&#45;&gt;Node2</title>
<path fill="none" stroke="midnightblue" d="M1717.21,-184.93C1697.09,-169.47 1651.9,-137.24 1608,-123 1524.37,-95.88 1270.49,-81 1149.48,-75.28"/>
<polygon fill="midnightblue" stroke="midnightblue" points="1149.4,-71.77 1139.25,-74.8 1149.08,-78.77 1149.4,-71.77"/>
</g>
<!-- Node25&#45;&gt;Node26 -->
<g id="edge36" class="edge">
<title>Node25&#45;&gt;Node26</title>
<path fill="none" stroke="midnightblue" d="M1733.73,-184.98C1739.67,-176.14 1749.12,-162.09 1756.59,-150.98"/>
<polygon fill="midnightblue" stroke="midnightblue" points="1759.61,-152.76 1762.28,-142.51 1753.8,-148.86 1759.61,-152.76"/>
</g>
<!-- Node27&#45;&gt;Node2 -->
<g id="edge39" class="edge">
<title>Node27&#45;&gt;Node2</title>
<path fill="none" stroke="midnightblue" d="M1554.69,-184.83C1535.85,-169.53 1494.02,-137.92 1453,-123 1351.3,-86 1224.84,-75.8 1149.48,-73.16"/>
<polygon fill="midnightblue" stroke="midnightblue" points="1149.3,-69.66 1139.2,-72.84 1149.08,-76.65 1149.3,-69.66"/>
</g>
<!-- Node27&#45;&gt;Node5 -->
<g id="edge40" class="edge">
<title>Node27&#45;&gt;Node5</title>
<path fill="none" stroke="midnightblue" d="M1509.71,-188.48C1474.59,-185.42 1428.15,-181.61 1387,-179 1036.85,-156.83 945.25,-176.11 592.7,-143.07"/>
<polygon fill="midnightblue" stroke="midnightblue" points="593.01,-139.59 582.73,-142.13 592.36,-146.56 593.01,-139.59"/>
</g>
<!-- Node27&#45;&gt;Node28 -->
<g id="edge41" class="edge">
<title>Node27&#45;&gt;Node28</title>
<path fill="none" stroke="midnightblue" d="M1566,-184.98C1566.99,-176.58 1568.53,-163.48 1569.8,-152.66"/>
<polygon fill="midnightblue" stroke="midnightblue" points="1573.31,-152.85 1571,-142.51 1566.35,-152.03 1573.31,-152.85"/>
</g>
</g>
</svg>
