<?xml version="1.0" encoding="UTF-8" standalone="no"?>
<!DOCTYPE svg PUBLIC "-//W3C//DTD SVG 1.1//EN"
 "http://www.w3.org/Graphics/SVG/1.1/DTD/svg11.dtd">
<!-- Generated by graphviz version 2.38.0 (20140413.2041)
 -->
<!-- Title: boost/ui/canvas.hpp Pages: 1 -->
<svg width="2607pt" height="330pt"
 viewBox="0.00 0.00 2607.00 330.00" xmlns="http://www.w3.org/2000/svg" xmlns:xlink="http://www.w3.org/1999/xlink">
<g id="graph0" class="graph" transform="scale(1 1) rotate(0) translate(4 326)">
<title>boost/ui/canvas.hpp</title>
<polygon fill="white" stroke="none" points="-4,4 -4,-326 2603,-326 2603,4 -4,4"/>
<!-- Node1 -->
<g id="node1" class="node"><title>Node1</title>
<polygon fill="#bfbfbf" stroke="black" points="1905.5,-302.5 1905.5,-321.5 2009.5,-321.5 2009.5,-302.5 1905.5,-302.5"/>
<text text-anchor="middle" x="1957.5" y="-309.5" font-family="Helvetica,sans-Serif" font-size="10.00">boost/ui/canvas.hpp</text>
</g>
<!-- Node2 -->
<g id="node2" class="node"><title>Node2</title>
<g id="a_node2"><a xlink:href="config_8hpp.html" target="_top" xlink:title="Configuration options. ">
<polygon fill="white" stroke="black" points="925,-62 925,-81 1024,-81 1024,-62 925,-62"/>
<text text-anchor="middle" x="974.5" y="-69" font-family="Helvetica,sans-Serif" font-size="10.00">boost/ui/config.hpp</text>
</a>
</g>
</g>
<!-- Node1&#45;&gt;Node2 -->
<g id="edge1" class="edge"><title>Node1&#45;&gt;Node2</title>
<path fill="none" stroke="midnightblue" d="M1969.58,-302.331C1993.1,-285.514 2043.52,-249.778 2052.5,-246 2131.57,-212.739 2291.54,-242.159 2233.5,-179 2151.55,-89.8275 1274.06,-75.2507 1034.58,-72.9287"/>
<polygon fill="midnightblue" stroke="midnightblue" points="1034.36,-69.4266 1024.33,-72.8331 1034.29,-76.4263 1034.36,-69.4266"/>
</g>
<!-- Node4 -->
<g id="node4" class="node"><title>Node4</title>
<g id="a_node4"><a xlink:href="widget_8hpp.html" target="_top" xlink:title="Widget class. ">
<polygon fill="white" stroke="black" points="692,-246.5 692,-265.5 793,-265.5 793,-246.5 692,-246.5"/>
<text text-anchor="middle" x="742.5" y="-253.5" font-family="Helvetica,sans-Serif" font-size="10.00">boost/ui/widget.hpp</text>
</a>
</g>
</g>
<!-- Node1&#45;&gt;Node4 -->
<g id="edge3" class="edge"><title>Node1&#45;&gt;Node4</title>
<path fill="none" stroke="midnightblue" d="M1905.45,-308.786C1754.72,-302.36 1304.86,-283.077 931.5,-266 888.607,-264.038 840.243,-261.733 803.177,-259.947"/>
<polygon fill="midnightblue" stroke="midnightblue" points="803.193,-256.444 793.036,-259.458 802.855,-263.436 803.193,-256.444"/>
</g>
<!-- Node18 -->
<g id="node18" class="node"><title>Node18</title>
<polygon fill="white" stroke="#bfbfbf" points="1003,-123.5 1003,-142.5 1148,-142.5 1148,-123.5 1003,-123.5"/>
<text text-anchor="middle" x="1075.5" y="-130.5" font-family="Helvetica,sans-Serif" font-size="10.00">boost/core/scoped_enum.hpp</text>
</g>
<!-- Node1&#45;&gt;Node18 -->
<g id="edge58" class="edge"><title>Node1&#45;&gt;Node18</title>
<path fill="none" stroke="midnightblue" d="M1905.34,-309.91C1709.24,-305.255 1024.23,-283.783 964.5,-210 955.831,-199.291 956.802,-190.427 964.5,-179 975.482,-162.698 993.486,-152.3 1011.83,-145.668"/>
<polygon fill="midnightblue" stroke="midnightblue" points="1013,-148.967 1021.42,-142.532 1010.83,-142.314 1013,-148.967"/>
</g>
<!-- Node21 -->
<g id="node21" class="node"><title>Node21</title>
<g id="a_node21"><a xlink:href="painter_8hpp.html" target="_top" xlink:title="Painter class. ">
<polygon fill="white" stroke="black" points="1358.5,-246.5 1358.5,-265.5 1460.5,-265.5 1460.5,-246.5 1358.5,-246.5"/>
<text text-anchor="middle" x="1409.5" y="-253.5" font-family="Helvetica,sans-Serif" font-size="10.00">boost/ui/painter.hpp</text>
</a>
</g>
</g>
<!-- Node1&#45;&gt;Node21 -->
<g id="edge28" class="edge"><title>Node1&#45;&gt;Node21</title>
<path fill="none" stroke="midnightblue" d="M1905.45,-305.871C1803.86,-295.861 1579.64,-273.765 1470.95,-263.055"/>
<polygon fill="midnightblue" stroke="midnightblue" points="1471.1,-259.553 1460.8,-262.055 1470.41,-266.519 1471.1,-259.553"/>
</g>
<!-- Node23 -->
<g id="node23" class="node"><title>Node23</title>
<polygon fill="white" stroke="#bfbfbf" points="974,-185 974,-204 1073,-204 1073,-185 974,-185"/>
<text text-anchor="middle" x="1023.5" y="-192" font-family="Helvetica,sans-Serif" font-size="10.00">boost/ui/config.hpp</text>
</g>
<!-- Node1&#45;&gt;Node23 -->
<g id="edge51" class="edge"><title>Node1&#45;&gt;Node23</title>
<path fill="none" stroke="midnightblue" d="M1905.21,-309.405C1799.69,-305.685 1553.92,-294.487 1349.5,-266 1227.26,-248.965 1197.6,-238.461 1077.5,-210 1073.08,-208.952 1068.47,-207.802 1063.88,-206.623"/>
<polygon fill="midnightblue" stroke="midnightblue" points="1064.54,-203.176 1053.98,-204.022 1062.76,-209.947 1064.54,-203.176"/>
</g>
<!-- Node29 -->
<g id="node29" class="node"><title>Node29</title>
<polygon fill="white" stroke="#bfbfbf" points="1665,-185 1665,-204 1782,-204 1782,-185 1665,-185"/>
<text text-anchor="middle" x="1723.5" y="-192" font-family="Helvetica,sans-Serif" font-size="10.00">boost/noncopyable.hpp</text>
</g>
<!-- Node1&#45;&gt;Node29 -->
<g id="edge57" class="edge"><title>Node1&#45;&gt;Node29</title>
<path fill="none" stroke="midnightblue" d="M1939.91,-302.319C1899.24,-282.245 1798.49,-232.515 1750.18,-208.667"/>
<polygon fill="midnightblue" stroke="midnightblue" points="1751.49,-205.412 1740.97,-204.124 1748.39,-211.689 1751.49,-205.412"/>
</g>
<!-- Node30 -->
<g id="node30" class="node"><title>Node30</title>
<polygon fill="white" stroke="#bfbfbf" points="1800.5,-185 1800.5,-204 1844.5,-204 1844.5,-185 1800.5,-185"/>
<text text-anchor="middle" x="1822.5" y="-192" font-family="Helvetica,sans-Serif" font-size="10.00">vector</text>
</g>
<!-- Node1&#45;&gt;Node30 -->
<g id="edge59" class="edge"><title>Node1&#45;&gt;Node30</title>
<path fill="none" stroke="midnightblue" d="M1947.35,-302.319C1924.58,-282.837 1869.17,-235.425 1840.44,-210.845"/>
<polygon fill="midnightblue" stroke="midnightblue" points="1842.64,-208.124 1832.76,-204.282 1838.09,-213.442 1842.64,-208.124"/>
</g>
<!-- Node31 -->
<g id="node31" class="node"><title>Node31</title>
<polygon fill="white" stroke="#bfbfbf" points="1863,-185 1863,-204 1976,-204 1976,-185 1863,-185"/>
<text text-anchor="middle" x="1919.5" y="-192" font-family="Helvetica,sans-Serif" font-size="10.00">boost/range/begin.hpp</text>
</g>
<!-- Node1&#45;&gt;Node31 -->
<g id="edge60" class="edge"><title>Node1&#45;&gt;Node31</title>
<path fill="none" stroke="midnightblue" d="M1954.64,-302.319C1948.48,-283.59 1933.83,-239.046 1925.52,-213.792"/>
<polygon fill="midnightblue" stroke="midnightblue" points="1928.84,-212.687 1922.39,-204.282 1922.19,-214.875 1928.84,-212.687"/>
</g>
<!-- Node32 -->
<g id="node32" class="node"><title>Node32</title>
<polygon fill="white" stroke="#bfbfbf" points="1994,-185 1994,-204 2099,-204 2099,-185 1994,-185"/>
<text text-anchor="middle" x="2046.5" y="-192" font-family="Helvetica,sans-Serif" font-size="10.00">boost/range/end.hpp</text>
</g>
<!-- Node1&#45;&gt;Node32 -->
<g id="edge61" class="edge"><title>Node1&#45;&gt;Node32</title>
<path fill="none" stroke="midnightblue" d="M1959.11,-302.274C1961.89,-289.066 1968.57,-263.665 1981.5,-246 1992.34,-231.198 2008.65,-218.543 2022.22,-209.603"/>
<polygon fill="midnightblue" stroke="midnightblue" points="2024.48,-212.316 2031.08,-204.026 2020.75,-206.392 2024.48,-212.316"/>
</g>
<!-- Node33 -->
<g id="node33" class="node"><title>Node33</title>
<polygon fill="white" stroke="#bfbfbf" points="2117,-185 2117,-204 2224,-204 2224,-185 2117,-185"/>
<text text-anchor="middle" x="2170.5" y="-192" font-family="Helvetica,sans-Serif" font-size="10.00">boost/range/size.hpp</text>
</g>
<!-- Node1&#45;&gt;Node33 -->
<g id="edge62" class="edge"><title>Node1&#45;&gt;Node33</title>
<path fill="none" stroke="midnightblue" d="M1963.71,-302.118C1973.85,-288.233 1995.28,-261.385 2019.5,-246 2037.97,-234.266 2091.37,-217.726 2129.41,-206.816"/>
<polygon fill="midnightblue" stroke="midnightblue" points="2130.55,-210.133 2139.21,-204.033 2128.63,-203.399 2130.55,-210.133"/>
</g>
<!-- Node34 -->
<g id="node34" class="node"><title>Node34</title>
<polygon fill="white" stroke="#bfbfbf" points="2061.5,-246.5 2061.5,-265.5 2147.5,-265.5 2147.5,-246.5 2061.5,-246.5"/>
<text text-anchor="middle" x="2104.5" y="-253.5" font-family="Helvetica,sans-Serif" font-size="10.00">boost/ui/def.hpp</text>
</g>
<!-- Node1&#45;&gt;Node34 -->
<g id="edge52" class="edge"><title>Node1&#45;&gt;Node34</title>
<path fill="none" stroke="midnightblue" d="M1980.79,-302.444C2005.31,-293.438 2044.1,-279.189 2071.7,-269.049"/>
<polygon fill="midnightblue" stroke="midnightblue" points="2073.14,-272.25 2081.32,-265.516 2070.72,-265.679 2073.14,-272.25"/>
</g>
<!-- Node35 -->
<g id="node35" class="node"><title>Node35</title>
<polygon fill="white" stroke="#bfbfbf" points="2165.5,-246.5 2165.5,-265.5 2259.5,-265.5 2259.5,-246.5 2165.5,-246.5"/>
<text text-anchor="middle" x="2212.5" y="-253.5" font-family="Helvetica,sans-Serif" font-size="10.00">boost/ui/color.hpp</text>
</g>
<!-- Node1&#45;&gt;Node35 -->
<g id="edge53" class="edge"><title>Node1&#45;&gt;Node35</title>
<path fill="none" stroke="midnightblue" d="M1997.91,-302.444C2042.48,-293.004 2114.27,-277.802 2162.39,-267.611"/>
<polygon fill="midnightblue" stroke="midnightblue" points="2163.23,-271.012 2172.28,-265.516 2161.78,-264.164 2163.23,-271.012"/>
</g>
<!-- Node36 -->
<g id="node36" class="node"><title>Node36</title>
<polygon fill="white" stroke="#bfbfbf" points="2278,-246.5 2278,-265.5 2377,-265.5 2377,-246.5 2278,-246.5"/>
<text text-anchor="middle" x="2327.5" y="-253.5" font-family="Helvetica,sans-Serif" font-size="10.00">boost/ui/image.hpp</text>
</g>
<!-- Node1&#45;&gt;Node36 -->
<g id="edge54" class="edge"><title>Node1&#45;&gt;Node36</title>
<path fill="none" stroke="midnightblue" d="M2009.52,-303.598C2069.24,-295.071 2170.44,-280.539 2267.9,-266.079"/>
<polygon fill="midnightblue" stroke="midnightblue" points="2268.55,-269.521 2277.93,-264.59 2267.52,-262.597 2268.55,-269.521"/>
</g>
<!-- Node37 -->
<g id="node37" class="node"><title>Node37</title>
<polygon fill="white" stroke="#bfbfbf" points="2395,-246.5 2395,-265.5 2484,-265.5 2484,-246.5 2395,-246.5"/>
<text text-anchor="middle" x="2439.5" y="-253.5" font-family="Helvetica,sans-Serif" font-size="10.00">boost/ui/font.hpp</text>
</g>
<!-- Node1&#45;&gt;Node37 -->
<g id="edge55" class="edge"><title>Node1&#45;&gt;Node37</title>
<path fill="none" stroke="midnightblue" d="M2009.8,-306.596C2088.83,-299.703 2243.62,-285.275 2384.85,-266.153"/>
<polygon fill="midnightblue" stroke="midnightblue" points="2385.56,-269.589 2395,-264.768 2384.62,-262.653 2385.56,-269.589"/>
</g>
<!-- Node38 -->
<g id="node38" class="node"><title>Node38</title>
<polygon fill="white" stroke="#bfbfbf" points="2502,-246.5 2502,-265.5 2599,-265.5 2599,-246.5 2502,-246.5"/>
<text text-anchor="middle" x="2550.5" y="-253.5" font-family="Helvetica,sans-Serif" font-size="10.00">boost/ui/string.hpp</text>
</g>
<!-- Node1&#45;&gt;Node38 -->
<g id="edge56" class="edge"><title>Node1&#45;&gt;Node38</title>
<path fill="none" stroke="midnightblue" d="M2009.75,-307.882C2104.03,-301.979 2309.07,-287.878 2491.66,-266.149"/>
<polygon fill="midnightblue" stroke="midnightblue" points="2492.2,-269.609 2501.72,-264.942 2491.37,-262.659 2492.2,-269.609"/>
</g>
<!-- Node3 -->
<g id="node3" class="node"><title>Node3</title>
<polygon fill="white" stroke="#bfbfbf" points="930,-0.5 930,-19.5 1019,-19.5 1019,-0.5 930,-0.5"/>
<text text-anchor="middle" x="974.5" y="-7.5" font-family="Helvetica,sans-Serif" font-size="10.00">boost/config.hpp</text>
</g>
<!-- Node2&#45;&gt;Node3 -->
<g id="edge2" class="edge"><title>Node2&#45;&gt;Node3</title>
<path fill="none" stroke="midnightblue" d="M974.5,-61.9751C974.5,-53.5803 974.5,-40.4806 974.5,-29.6631"/>
<polygon fill="midnightblue" stroke="midnightblue" points="978,-29.5091 974.5,-19.5091 971,-29.5091 978,-29.5091"/>
</g>
<!-- Node4&#45;&gt;Node2 -->
<g id="edge4" class="edge"><title>Node4&#45;&gt;Node2</title>
<path fill="none" stroke="midnightblue" d="M746.009,-246.061C752.028,-231.311 765.254,-201.293 781.5,-179 802.23,-150.554 807.853,-141.973 837.5,-123 865.739,-104.929 901.366,-92.0508 929.21,-83.8237"/>
<polygon fill="midnightblue" stroke="midnightblue" points="930.434,-87.1141 939.088,-81.0021 928.512,-80.3833 930.434,-87.1141"/>
</g>
<!-- Node5 -->
<g id="node5" class="node"><title>Node5</title>
<g id="a_node5"><a xlink:href="coord_8hpp.html" target="_top" xlink:title="Coordinates classes. ">
<polygon fill="white" stroke="black" points="424,-123.5 424,-142.5 521,-142.5 521,-123.5 424,-123.5"/>
<text text-anchor="middle" x="472.5" y="-130.5" font-family="Helvetica,sans-Serif" font-size="10.00">boost/ui/coord.hpp</text>
</a>
</g>
</g>
<!-- Node4&#45;&gt;Node5 -->
<g id="edge5" class="edge"><title>Node4&#45;&gt;Node5</title>
<path fill="none" stroke="midnightblue" d="M691.87,-254.474C618.888,-252.519 489.66,-244.182 460.5,-210 446.859,-194.01 454.52,-168.966 462.45,-152.038"/>
<polygon fill="midnightblue" stroke="midnightblue" points="465.789,-153.196 467.234,-142.7 459.559,-150.004 465.789,-153.196"/>
</g>
<!-- Node11 -->
<g id="node11" class="node"><title>Node11</title>
<g id="a_node11"><a xlink:href="string_8hpp.html" target="_top" xlink:title="String class and operations. ">
<polygon fill="white" stroke="black" points="693,-123.5 693,-142.5 790,-142.5 790,-123.5 693,-123.5"/>
<text text-anchor="middle" x="741.5" y="-130.5" font-family="Helvetica,sans-Serif" font-size="10.00">boost/ui/string.hpp</text>
</a>
</g>
</g>
<!-- Node4&#45;&gt;Node11 -->
<g id="edge12" class="edge"><title>Node4&#45;&gt;Node11</title>
<path fill="none" stroke="midnightblue" d="M742.428,-246.298C742.267,-226.85 741.876,-179.49 741.656,-152.904"/>
<polygon fill="midnightblue" stroke="midnightblue" points="745.154,-152.594 741.571,-142.623 738.154,-152.652 745.154,-152.594"/>
</g>
<!-- Node15 -->
<g id="node15" class="node"><title>Node15</title>
<g id="a_node15"><a xlink:href="event_8hpp.html" target="_top" xlink:title="Event classes. ">
<polygon fill="white" stroke="black" points="598,-185 598,-204 695,-204 695,-185 598,-185"/>
<text text-anchor="middle" x="646.5" y="-192" font-family="Helvetica,sans-Serif" font-size="10.00">boost/ui/event.hpp</text>
</a>
</g>
</g>
<!-- Node4&#45;&gt;Node15 -->
<g id="edge17" class="edge"><title>Node4&#45;&gt;Node15</title>
<path fill="none" stroke="midnightblue" d="M728.746,-246.475C713.134,-236.799 687.437,-220.872 668.917,-209.394"/>
<polygon fill="midnightblue" stroke="midnightblue" points="670.573,-206.302 660.229,-204.009 666.885,-212.252 670.573,-206.302"/>
</g>
<!-- Node17 -->
<g id="node17" class="node"><title>Node17</title>
<g id="a_node17"><a xlink:href="font_8hpp.html" target="_top" xlink:title="Font class. ">
<polygon fill="white" stroke="black" points="828,-185 828,-204 917,-204 917,-185 828,-185"/>
<text text-anchor="middle" x="872.5" y="-192" font-family="Helvetica,sans-Serif" font-size="10.00">boost/ui/font.hpp</text>
</a>
</g>
</g>
<!-- Node4&#45;&gt;Node17 -->
<g id="edge21" class="edge"><title>Node4&#45;&gt;Node17</title>
<path fill="none" stroke="midnightblue" d="M761.126,-246.475C782.943,-236.49 819.304,-219.848 844.517,-208.307"/>
<polygon fill="midnightblue" stroke="midnightblue" points="846.272,-211.353 853.909,-204.009 843.359,-204.988 846.272,-211.353"/>
</g>
<!-- Node19 -->
<g id="node19" class="node"><title>Node19</title>
<g id="a_node19"><a xlink:href="layout_8hpp.html" target="_top" xlink:title="Layout classes. ">
<polygon fill="white" stroke="black" points="847,-123.5 847,-142.5 946,-142.5 946,-123.5 847,-123.5"/>
<text text-anchor="middle" x="896.5" y="-130.5" font-family="Helvetica,sans-Serif" font-size="10.00">boost/ui/layout.hpp</text>
</a>
</g>
</g>
<!-- Node4&#45;&gt;Node19 -->
<g id="edge25" class="edge"><title>Node4&#45;&gt;Node19</title>
<path fill="none" stroke="midnightblue" d="M749.846,-246.281C762.726,-231.33 790.665,-200.351 818.5,-179 834.422,-166.786 853.987,-155.507 869.539,-147.296"/>
<polygon fill="midnightblue" stroke="midnightblue" points="871.356,-150.297 878.635,-142.599 868.144,-144.078 871.356,-150.297"/>
</g>
<!-- Node20 -->
<g id="node20" class="node"><title>Node20</title>
<polygon fill="white" stroke="#bfbfbf" points="469.5,-179.5 469.5,-209.5 579.5,-209.5 579.5,-179.5 469.5,-179.5"/>
<text text-anchor="start" x="477.5" y="-197.5" font-family="Helvetica,sans-Serif" font-size="10.00">boost/ui/detail/shared</text>
<text text-anchor="middle" x="524.5" y="-186.5" font-family="Helvetica,sans-Serif" font-size="10.00">_count.hpp</text>
</g>
<!-- Node4&#45;&gt;Node20 -->
<g id="edge27" class="edge"><title>Node4&#45;&gt;Node20</title>
<path fill="none" stroke="midnightblue" d="M711.266,-246.475C678.637,-237.569 626.608,-223.369 585.742,-212.215"/>
<polygon fill="midnightblue" stroke="midnightblue" points="586.447,-208.78 575.878,-209.523 584.604,-215.533 586.447,-208.78"/>
</g>
<!-- Node5&#45;&gt;Node2 -->
<g id="edge6" class="edge"><title>Node5&#45;&gt;Node2</title>
<path fill="none" stroke="midnightblue" d="M521.29,-124.098C524.065,-123.71 526.817,-123.341 529.5,-123 694.719,-102.003 737.76,-111.473 902.5,-87 910.042,-85.8796 917.989,-84.4915 925.74,-83.0219"/>
<polygon fill="midnightblue" stroke="midnightblue" points="926.626,-86.4151 935.767,-81.0586 925.281,-79.5455 926.626,-86.4151"/>
</g>
<!-- Node6 -->
<g id="node6" class="node"><title>Node6</title>
<polygon fill="white" stroke="#bfbfbf" points="564,-62 564,-81 667,-81 667,-62 564,-62"/>
<text text-anchor="middle" x="615.5" y="-69" font-family="Helvetica,sans-Serif" font-size="10.00">boost/geometry.hpp</text>
</g>
<!-- Node5&#45;&gt;Node6 -->
<g id="edge7" class="edge"><title>Node5&#45;&gt;Node6</title>
<path fill="none" stroke="midnightblue" d="M492.988,-123.475C517.306,-113.357 558.049,-96.4046 585.817,-84.8507"/>
<polygon fill="midnightblue" stroke="midnightblue" points="587.161,-88.0822 595.05,-81.0091 584.472,-81.6193 587.161,-88.0822"/>
</g>
<!-- Node7 -->
<g id="node7" class="node"><title>Node7</title>
<polygon fill="white" stroke="#bfbfbf" points="0,-56.5 0,-86.5 135,-86.5 135,-56.5 0,-56.5"/>
<text text-anchor="start" x="8" y="-74.5" font-family="Helvetica,sans-Serif" font-size="10.00">boost/geometry/geometries</text>
<text text-anchor="middle" x="67.5" y="-63.5" font-family="Helvetica,sans-Serif" font-size="10.00">/point_xy.hpp</text>
</g>
<!-- Node5&#45;&gt;Node7 -->
<g id="edge8" class="edge"><title>Node5&#45;&gt;Node7</title>
<path fill="none" stroke="midnightblue" d="M423.883,-126.162C361.586,-118.501 250.027,-104.18 145.14,-87.2208"/>
<polygon fill="midnightblue" stroke="midnightblue" points="145.445,-83.7244 135.012,-85.5715 144.32,-90.6334 145.445,-83.7244"/>
</g>
<!-- Node8 -->
<g id="node8" class="node"><title>Node8</title>
<polygon fill="white" stroke="#bfbfbf" points="153,-56.5 153,-86.5 288,-86.5 288,-56.5 153,-56.5"/>
<text text-anchor="start" x="161" y="-74.5" font-family="Helvetica,sans-Serif" font-size="10.00">boost/geometry/geometries</text>
<text text-anchor="middle" x="220.5" y="-63.5" font-family="Helvetica,sans-Serif" font-size="10.00">/box.hpp</text>
</g>
<!-- Node5&#45;&gt;Node8 -->
<g id="edge9" class="edge"><title>Node5&#45;&gt;Node8</title>
<path fill="none" stroke="midnightblue" d="M436.395,-123.475C398.278,-114.475 337.259,-100.068 289.8,-88.8624"/>
<polygon fill="midnightblue" stroke="midnightblue" points="290.428,-85.4146 279.891,-86.523 288.82,-92.2273 290.428,-85.4146"/>
</g>
<!-- Node9 -->
<g id="node9" class="node"><title>Node9</title>
<polygon fill="white" stroke="#bfbfbf" points="306,-56.5 306,-86.5 407,-86.5 407,-56.5 306,-56.5"/>
<text text-anchor="start" x="314" y="-74.5" font-family="Helvetica,sans-Serif" font-size="10.00">boost/polygon/point</text>
<text text-anchor="middle" x="356.5" y="-63.5" font-family="Helvetica,sans-Serif" font-size="10.00">_data.hpp</text>
</g>
<!-- Node5&#45;&gt;Node9 -->
<g id="edge10" class="edge"><title>Node5&#45;&gt;Node9</title>
<path fill="none" stroke="midnightblue" d="M455.88,-123.475C439.509,-115.078 413.959,-101.973 392.866,-91.1534"/>
<polygon fill="midnightblue" stroke="midnightblue" points="394.334,-87.9727 383.839,-86.523 391.139,-94.2012 394.334,-87.9727"/>
</g>
<!-- Node10 -->
<g id="node10" class="node"><title>Node10</title>
<polygon fill="white" stroke="#bfbfbf" points="425.5,-56.5 425.5,-86.5 545.5,-86.5 545.5,-56.5 425.5,-56.5"/>
<text text-anchor="start" x="433.5" y="-74.5" font-family="Helvetica,sans-Serif" font-size="10.00">boost/polygon/rectangle</text>
<text text-anchor="middle" x="485.5" y="-63.5" font-family="Helvetica,sans-Serif" font-size="10.00">_data.hpp</text>
</g>
<!-- Node5&#45;&gt;Node10 -->
<g id="edge11" class="edge"><title>Node5&#45;&gt;Node10</title>
<path fill="none" stroke="midnightblue" d="M474.363,-123.475C475.909,-116.396 478.187,-105.97 480.28,-96.3896"/>
<polygon fill="midnightblue" stroke="midnightblue" points="483.721,-97.0396 482.436,-86.523 476.882,-95.5454 483.721,-97.0396"/>
</g>
<!-- Node11&#45;&gt;Node2 -->
<g id="edge13" class="edge"><title>Node11&#45;&gt;Node2</title>
<path fill="none" stroke="midnightblue" d="M774.883,-123.475C816.062,-112.959 886.15,-95.0615 931.369,-83.5142"/>
<polygon fill="midnightblue" stroke="midnightblue" points="932.356,-86.8746 941.179,-81.0091 930.624,-80.0922 932.356,-86.8746"/>
</g>
<!-- Node12 -->
<g id="node12" class="node"><title>Node12</title>
<polygon fill="white" stroke="#bfbfbf" points="853,-62 853,-81 894,-81 894,-62 853,-62"/>
<text text-anchor="middle" x="873.5" y="-69" font-family="Helvetica,sans-Serif" font-size="10.00">string</text>
</g>
<!-- Node11&#45;&gt;Node12 -->
<g id="edge14" class="edge"><title>Node11&#45;&gt;Node12</title>
<path fill="none" stroke="midnightblue" d="M761.528,-123.409C782.162,-114.5 815.212,-100.071 843.5,-87 844.652,-86.4677 845.827,-85.9201 847.012,-85.3638"/>
<polygon fill="midnightblue" stroke="midnightblue" points="848.575,-88.4963 856.099,-81.0369 845.565,-82.1763 848.575,-88.4963"/>
</g>
<!-- Node13 -->
<g id="node13" class="node"><title>Node13</title>
<polygon fill="white" stroke="#bfbfbf" points="685,-62 685,-81 758,-81 758,-62 685,-62"/>
<text text-anchor="middle" x="721.5" y="-69" font-family="Helvetica,sans-Serif" font-size="10.00">initializer_list</text>
</g>
<!-- Node11&#45;&gt;Node13 -->
<g id="edge15" class="edge"><title>Node11&#45;&gt;Node13</title>
<path fill="none" stroke="midnightblue" d="M738.634,-123.475C735.783,-114.992 731.317,-101.704 727.659,-90.8222"/>
<polygon fill="midnightblue" stroke="midnightblue" points="730.864,-89.3727 724.36,-81.0091 724.229,-91.6031 730.864,-89.3727"/>
</g>
<!-- Node14 -->
<g id="node14" class="node"><title>Node14</title>
<polygon fill="white" stroke="#bfbfbf" points="776,-62 776,-81 835,-81 835,-62 776,-62"/>
<text text-anchor="middle" x="805.5" y="-69" font-family="Helvetica,sans-Serif" font-size="10.00">functional</text>
</g>
<!-- Node11&#45;&gt;Node14 -->
<g id="edge16" class="edge"><title>Node11&#45;&gt;Node14</title>
<path fill="none" stroke="midnightblue" d="M750.67,-123.475C760.65,-114.197 776.812,-99.1706 789.009,-87.831"/>
<polygon fill="midnightblue" stroke="midnightblue" points="791.407,-90.3814 796.347,-81.0091 786.64,-85.2547 791.407,-90.3814"/>
</g>
<!-- Node15&#45;&gt;Node2 -->
<g id="edge18" class="edge"><title>Node15&#45;&gt;Node2</title>
<path fill="none" stroke="midnightblue" d="M648.363,-184.923C652.138,-169.76 662.205,-138.371 683.5,-123 763.481,-65.2696 805.469,-104.74 902.5,-87 909.242,-85.7674 916.327,-84.4132 923.313,-83.0428"/>
<polygon fill="midnightblue" stroke="midnightblue" points="924.3,-86.4152 933.428,-81.0356 922.938,-79.5491 924.3,-86.4152"/>
</g>
<!-- Node15&#45;&gt;Node5 -->
<g id="edge19" class="edge"><title>Node15&#45;&gt;Node5</title>
<path fill="none" stroke="midnightblue" d="M621.57,-184.975C591.464,-174.68 540.668,-157.31 506.862,-145.75"/>
<polygon fill="midnightblue" stroke="midnightblue" points="507.978,-142.433 497.384,-142.509 505.713,-149.056 507.978,-142.433"/>
</g>
<!-- Node16 -->
<g id="node16" class="node"><title>Node16</title>
<polygon fill="white" stroke="#bfbfbf" points="539,-123.5 539,-142.5 636,-142.5 636,-123.5 539,-123.5"/>
<text text-anchor="middle" x="587.5" y="-130.5" font-family="Helvetica,sans-Serif" font-size="10.00">boost/function.hpp</text>
</g>
<!-- Node15&#45;&gt;Node16 -->
<g id="edge20" class="edge"><title>Node15&#45;&gt;Node16</title>
<path fill="none" stroke="midnightblue" d="M638.047,-184.975C628.934,-175.785 614.23,-160.956 603.024,-149.656"/>
<polygon fill="midnightblue" stroke="midnightblue" points="605.464,-147.146 595.938,-142.509 600.493,-152.074 605.464,-147.146"/>
</g>
<!-- Node17&#45;&gt;Node2 -->
<g id="edge22" class="edge"><title>Node17&#45;&gt;Node2</title>
<path fill="none" stroke="midnightblue" d="M895.252,-184.983C913.818,-176.901 939.37,-163.001 954.5,-143 965.876,-127.961 970.784,-106.704 972.899,-91.47"/>
<polygon fill="midnightblue" stroke="midnightblue" points="976.415,-91.5214 974.034,-81.1976 969.457,-90.7529 976.415,-91.5214"/>
</g>
<!-- Node17&#45;&gt;Node11 -->
<g id="edge23" class="edge"><title>Node17&#45;&gt;Node11</title>
<path fill="none" stroke="midnightblue" d="M853.731,-184.975C831.649,-174.945 794.781,-158.2 769.361,-146.655"/>
<polygon fill="midnightblue" stroke="midnightblue" points="770.787,-143.458 760.234,-142.509 767.892,-149.831 770.787,-143.458"/>
</g>
<!-- Node17&#45;&gt;Node18 -->
<g id="edge24" class="edge"><title>Node17&#45;&gt;Node18</title>
<path fill="none" stroke="midnightblue" d="M901.585,-184.975C937.085,-174.57 997.245,-156.937 1036.67,-145.38"/>
<polygon fill="midnightblue" stroke="midnightblue" points="1037.86,-148.681 1046.47,-142.509 1035.89,-141.963 1037.86,-148.681"/>
</g>
<!-- Node19&#45;&gt;Node2 -->
<g id="edge26" class="edge"><title>Node19&#45;&gt;Node2</title>
<path fill="none" stroke="midnightblue" d="M907.675,-123.475C920.071,-114.02 940.29,-98.5961 955.246,-87.1871"/>
<polygon fill="midnightblue" stroke="midnightblue" points="957.517,-89.857 963.345,-81.0091 953.272,-84.2914 957.517,-89.857"/>
</g>
<!-- Node21&#45;&gt;Node2 -->
<g id="edge29" class="edge"><title>Node21&#45;&gt;Node2</title>
<path fill="none" stroke="midnightblue" d="M1403.82,-246.422C1387.36,-222.368 1337.01,-154.014 1276.5,-123 1199.31,-83.4356 1097.83,-73.7904 1034.39,-71.9978"/>
<polygon fill="midnightblue" stroke="midnightblue" points="1034.23,-68.4935 1024.15,-71.7677 1034.07,-75.4918 1034.23,-68.4935"/>
</g>
<!-- Node21&#45;&gt;Node11 -->
<g id="edge44" class="edge"><title>Node21&#45;&gt;Node11</title>
<path fill="none" stroke="midnightblue" d="M1358.24,-250.752C1285.75,-244.139 1157.43,-230.029 1115.5,-210 1097.05,-201.187 1100.04,-187.626 1081.5,-179 1056.58,-167.407 890.749,-149.129 800.227,-139.839"/>
<polygon fill="midnightblue" stroke="midnightblue" points="800.412,-136.34 790.109,-138.806 799.701,-143.303 800.412,-136.34"/>
</g>
<!-- Node21&#45;&gt;Node17 -->
<g id="edge43" class="edge"><title>Node21&#45;&gt;Node17</title>
<path fill="none" stroke="midnightblue" d="M1358.34,-250.757C1275.46,-243.674 1106.78,-228.391 964.5,-210 952.473,-208.445 939.597,-206.557 927.401,-204.664"/>
<polygon fill="midnightblue" stroke="midnightblue" points="927.773,-201.18 917.35,-203.08 926.683,-208.094 927.773,-201.18"/>
</g>
<!-- Node21&#45;&gt;Node18 -->
<g id="edge46" class="edge"><title>Node21&#45;&gt;Node18</title>
<path fill="none" stroke="midnightblue" d="M1358.34,-254.091C1305.71,-251.315 1222.58,-241.703 1158.5,-210 1129.6,-195.705 1103.48,-168.266 1088.55,-150.564"/>
<polygon fill="midnightblue" stroke="midnightblue" points="1091.21,-148.279 1082.16,-142.756 1085.79,-152.712 1091.21,-148.279"/>
</g>
<!-- Node22 -->
<g id="node22" class="node"><title>Node22</title>
<g id="a_node22"><a xlink:href="def_8hpp.html" target="_top" xlink:title="Definitions. ">
<polygon fill="white" stroke="black" points="1328.5,-123.5 1328.5,-142.5 1414.5,-142.5 1414.5,-123.5 1328.5,-123.5"/>
<text text-anchor="middle" x="1371.5" y="-130.5" font-family="Helvetica,sans-Serif" font-size="10.00">boost/ui/def.hpp</text>
</a>
</g>
</g>
<!-- Node21&#45;&gt;Node22 -->
<g id="edge30" class="edge"><title>Node21&#45;&gt;Node22</title>
<path fill="none" stroke="midnightblue" d="M1406.77,-246.298C1400.6,-226.676 1385.52,-178.638 1377.21,-152.193"/>
<polygon fill="midnightblue" stroke="midnightblue" points="1380.54,-151.115 1374.21,-142.623 1373.87,-153.212 1380.54,-151.115"/>
</g>
<!-- Node21&#45;&gt;Node23 -->
<g id="edge32" class="edge"><title>Node21&#45;&gt;Node23</title>
<path fill="none" stroke="midnightblue" d="M1358.26,-249.186C1294.55,-241.647 1182.59,-227.384 1087.5,-210 1081.32,-208.871 1074.84,-207.555 1068.46,-206.186"/>
<polygon fill="midnightblue" stroke="midnightblue" points="1069.12,-202.747 1058.6,-204.01 1067.61,-209.583 1069.12,-202.747"/>
</g>
<!-- Node24 -->
<g id="node24" class="node"><title>Node24</title>
<g id="a_node24"><a xlink:href="color_8hpp.html" target="_top" xlink:title="Color class. ">
<polygon fill="white" stroke="black" points="1437.5,-185 1437.5,-204 1531.5,-204 1531.5,-185 1437.5,-185"/>
<text text-anchor="middle" x="1484.5" y="-192" font-family="Helvetica,sans-Serif" font-size="10.00">boost/ui/color.hpp</text>
</a>
</g>
</g>
<!-- Node21&#45;&gt;Node24 -->
<g id="edge33" class="edge"><title>Node21&#45;&gt;Node24</title>
<path fill="none" stroke="midnightblue" d="M1420.25,-246.475C1432.05,-237.108 1451.24,-221.884 1465.58,-210.508"/>
<polygon fill="midnightblue" stroke="midnightblue" points="1468.12,-212.966 1473.77,-204.009 1463.76,-207.482 1468.12,-212.966"/>
</g>
<!-- Node25 -->
<g id="node25" class="node"><title>Node25</title>
<polygon fill="white" stroke="#bfbfbf" points="1432.5,-123.5 1432.5,-142.5 1524.5,-142.5 1524.5,-123.5 1432.5,-123.5"/>
<text text-anchor="middle" x="1478.5" y="-130.5" font-family="Helvetica,sans-Serif" font-size="10.00">boost/cstdint.hpp</text>
</g>
<!-- Node21&#45;&gt;Node25 -->
<g id="edge36" class="edge"><title>Node21&#45;&gt;Node25</title>
<path fill="none" stroke="midnightblue" d="M1410.02,-246.4C1411.25,-231.628 1415.32,-200.911 1428.5,-179 1435.58,-167.235 1446.7,-156.785 1456.66,-148.924"/>
<polygon fill="midnightblue" stroke="midnightblue" points="1459.06,-151.5 1464.98,-142.714 1454.87,-145.89 1459.06,-151.5"/>
</g>
<!-- Node26 -->
<g id="node26" class="node"><title>Node26</title>
<g id="a_node26"><a xlink:href="image_8hpp.html" target="_top" xlink:title="Image class. ">
<polygon fill="white" stroke="black" points="1168,-185 1168,-204 1267,-204 1267,-185 1168,-185"/>
<text text-anchor="middle" x="1217.5" y="-192" font-family="Helvetica,sans-Serif" font-size="10.00">boost/ui/image.hpp</text>
</a>
</g>
</g>
<!-- Node21&#45;&gt;Node26 -->
<g id="edge37" class="edge"><title>Node21&#45;&gt;Node26</title>
<path fill="none" stroke="midnightblue" d="M1381.99,-246.475C1348.63,-236.136 1292.24,-218.661 1254.94,-207.102"/>
<polygon fill="midnightblue" stroke="midnightblue" points="1255.55,-203.626 1244.96,-204.009 1253.47,-210.312 1255.55,-203.626"/>
</g>
<!-- Node27 -->
<g id="node27" class="node"><title>Node27</title>
<polygon fill="white" stroke="#bfbfbf" points="1219,-123.5 1219,-142.5 1268,-142.5 1268,-123.5 1219,-123.5"/>
<text text-anchor="middle" x="1243.5" y="-130.5" font-family="Helvetica,sans-Serif" font-size="10.00">istream</text>
</g>
<!-- Node21&#45;&gt;Node27 -->
<g id="edge42" class="edge"><title>Node21&#45;&gt;Node27</title>
<path fill="none" stroke="midnightblue" d="M1387.67,-246.441C1368.73,-238.479 1341.04,-225.526 1319.5,-210 1295.27,-192.533 1271.62,-167.19 1257.3,-150.653"/>
<polygon fill="midnightblue" stroke="midnightblue" points="1259.86,-148.252 1250.71,-142.896 1254.52,-152.784 1259.86,-148.252"/>
</g>
<!-- Node28 -->
<g id="node28" class="node"><title>Node28</title>
<polygon fill="white" stroke="#bfbfbf" points="1550,-185 1550,-204 1647,-204 1647,-185 1550,-185"/>
<text text-anchor="middle" x="1598.5" y="-192" font-family="Helvetica,sans-Serif" font-size="10.00">boost/ui/coord.hpp</text>
</g>
<!-- Node21&#45;&gt;Node28 -->
<g id="edge41" class="edge"><title>Node21&#45;&gt;Node28</title>
<path fill="none" stroke="midnightblue" d="M1436.58,-246.475C1469.42,-236.136 1524.93,-218.661 1561.65,-207.102"/>
<polygon fill="midnightblue" stroke="midnightblue" points="1562.98,-210.35 1571.47,-204.009 1560.88,-203.674 1562.98,-210.35"/>
</g>
<!-- Node21&#45;&gt;Node29 -->
<g id="edge45" class="edge"><title>Node21&#45;&gt;Node29</title>
<path fill="none" stroke="midnightblue" d="M1459.27,-246.429C1509.21,-237.71 1588.32,-223.585 1656.5,-210 1662.41,-208.823 1668.6,-207.545 1674.73,-206.251"/>
<polygon fill="midnightblue" stroke="midnightblue" points="1675.88,-209.585 1684.93,-204.075 1674.42,-202.739 1675.88,-209.585"/>
</g>
<!-- Node21&#45;&gt;Node30 -->
<g id="edge47" class="edge"><title>Node21&#45;&gt;Node30</title>
<path fill="none" stroke="midnightblue" d="M1460.56,-254.14C1534.79,-251.742 1676.22,-242.824 1791.5,-210 1793.43,-209.451 1795.39,-208.795 1797.34,-208.069"/>
<polygon fill="midnightblue" stroke="midnightblue" points="1798.96,-211.18 1806.79,-204.037 1796.22,-204.741 1798.96,-211.18"/>
</g>
<!-- Node21&#45;&gt;Node31 -->
<g id="edge48" class="edge"><title>Node21&#45;&gt;Node31</title>
<path fill="none" stroke="midnightblue" d="M1460.69,-251.738C1543.58,-246.024 1712.16,-232.612 1853.5,-210 1860.27,-208.917 1867.39,-207.572 1874.35,-206.142"/>
<polygon fill="midnightblue" stroke="midnightblue" points="1875.31,-209.515 1884.36,-204.006 1873.85,-202.669 1875.31,-209.515"/>
</g>
<!-- Node21&#45;&gt;Node32 -->
<g id="edge49" class="edge"><title>Node21&#45;&gt;Node32</title>
<path fill="none" stroke="midnightblue" d="M1460.66,-253.669C1561.6,-250.456 1793.26,-240.17 1985.5,-210 1991.78,-209.014 1998.37,-207.724 2004.8,-206.318"/>
<polygon fill="midnightblue" stroke="midnightblue" points="2005.75,-209.693 2014.71,-204.043 2004.18,-202.87 2005.75,-209.693"/>
</g>
<!-- Node21&#45;&gt;Node33 -->
<g id="edge50" class="edge"><title>Node21&#45;&gt;Node33</title>
<path fill="none" stroke="midnightblue" d="M1460.67,-254.597C1576.61,-253.053 1867.91,-245.627 2108.5,-210 2114.96,-209.044 2121.74,-207.757 2128.34,-206.343"/>
<polygon fill="midnightblue" stroke="midnightblue" points="2129.53,-209.663 2138.52,-204.045 2127.99,-202.835 2129.53,-209.663"/>
</g>
<!-- Node22&#45;&gt;Node2 -->
<g id="edge31" class="edge"><title>Node22&#45;&gt;Node2</title>
<path fill="none" stroke="midnightblue" d="M1328.25,-125.128C1323.61,-124.404 1318.96,-123.683 1314.5,-123 1216.31,-107.957 1102.07,-91.1259 1034.16,-81.192"/>
<polygon fill="midnightblue" stroke="midnightblue" points="1034.47,-77.7013 1024.07,-79.7178 1033.46,-84.6277 1034.47,-77.7013"/>
</g>
<!-- Node24&#45;&gt;Node2 -->
<g id="edge34" class="edge"><title>Node24&#45;&gt;Node2</title>
<path fill="none" stroke="midnightblue" d="M1498.01,-184.937C1518.23,-171.109 1552.1,-143.357 1533.5,-123 1500.35,-86.7182 1172.28,-76.2584 1034.72,-73.4545"/>
<polygon fill="midnightblue" stroke="midnightblue" points="1034.43,-69.9482 1024.36,-73.2506 1034.29,-76.9468 1034.43,-69.9482"/>
</g>
<!-- Node24&#45;&gt;Node25 -->
<g id="edge35" class="edge"><title>Node24&#45;&gt;Node25</title>
<path fill="none" stroke="midnightblue" d="M1483.64,-184.975C1482.79,-176.58 1481.47,-163.481 1480.38,-152.663"/>
<polygon fill="midnightblue" stroke="midnightblue" points="1483.84,-152.107 1479.36,-142.509 1476.88,-152.81 1483.84,-152.107"/>
</g>
<!-- Node26&#45;&gt;Node2 -->
<g id="edge38" class="edge"><title>Node26&#45;&gt;Node2</title>
<path fill="none" stroke="midnightblue" d="M1212.32,-184.663C1203.06,-169.664 1182.21,-139.268 1156.5,-123 1119.52,-99.6035 1071.64,-86.8766 1034.27,-80.0533"/>
<polygon fill="midnightblue" stroke="midnightblue" points="1034.47,-76.5372 1024.02,-78.2814 1033.28,-83.4347 1034.47,-76.5372"/>
</g>
<!-- Node26&#45;&gt;Node5 -->
<g id="edge39" class="edge"><title>Node26&#45;&gt;Node5</title>
<path fill="none" stroke="midnightblue" d="M1167.81,-187.707C1142.07,-184.832 1110.13,-181.458 1081.5,-179 839.896,-158.251 775.594,-169.872 531.532,-143.136"/>
<polygon fill="midnightblue" stroke="midnightblue" points="531.602,-139.623 521.278,-142.002 530.833,-146.581 531.602,-139.623"/>
</g>
<!-- Node26&#45;&gt;Node27 -->
<g id="edge40" class="edge"><title>Node26&#45;&gt;Node27</title>
<path fill="none" stroke="midnightblue" d="M1221.23,-184.975C1224.97,-176.404 1230.86,-162.927 1235.64,-151.983"/>
<polygon fill="midnightblue" stroke="midnightblue" points="1238.98,-153.074 1239.78,-142.509 1232.57,-150.271 1238.98,-153.074"/>
</g>
</g>
</svg>
