<?xml version="1.0" encoding="UTF-8" standalone="no"?>
<!DOCTYPE svg PUBLIC "-//W3C//DTD SVG 1.1//EN"
 "http://www.w3.org/Graphics/SVG/1.1/DTD/svg11.dtd">
<!-- Generated by graphviz version 2.38.0 (20140413.2041)
 -->
<!-- Title: boost/ui/canvas.hpp Pages: 1 -->
<svg width="2565pt" height="330pt"
 viewBox="0.00 0.00 2565.00 330.00" xmlns="http://www.w3.org/2000/svg" xmlns:xlink="http://www.w3.org/1999/xlink">
<g id="graph0" class="graph" transform="scale(1 1) rotate(0) translate(4 326)">
<title>boost/ui/canvas.hpp</title>
<polygon fill="white" stroke="none" points="-4,4 -4,-326 2561,-326 2561,4 -4,4"/>
<!-- Node1 -->
<g id="node1" class="node"><title>Node1</title>
<polygon fill="#bfbfbf" stroke="black" points="1863.5,-302.5 1863.5,-321.5 1967.5,-321.5 1967.5,-302.5 1863.5,-302.5"/>
<text text-anchor="middle" x="1915.5" y="-309.5" font-family="Helvetica,sans-Serif" font-size="10.00">boost/ui/canvas.hpp</text>
</g>
<!-- Node2 -->
<g id="node2" class="node"><title>Node2</title>
<g id="a_node2"><a xlink:href="config_8hpp.html" target="_top" xlink:title="Configuration options. ">
<polygon fill="white" stroke="black" points="946,-62 946,-81 1045,-81 1045,-62 946,-62"/>
<text text-anchor="middle" x="995.5" y="-69" font-family="Helvetica,sans-Serif" font-size="10.00">boost/ui/config.hpp</text>
</a>
</g>
</g>
<!-- Node1&#45;&gt;Node2 -->
<g id="edge1" class="edge"><title>Node1&#45;&gt;Node2</title>
<path fill="none" stroke="midnightblue" d="M1863.46,-308.017C1700.15,-298.125 1205.98,-263.928 1160.5,-210 1135.1,-179.882 1201.35,-154.362 1177.5,-123 1162.57,-103.363 1102.32,-89.3641 1055.18,-81.1595"/>
<polygon fill="midnightblue" stroke="midnightblue" points="1055.48,-77.6609 1045.04,-79.4471 1054.32,-84.5632 1055.48,-77.6609"/>
</g>
<!-- Node4 -->
<g id="node4" class="node"><title>Node4</title>
<g id="a_node4"><a xlink:href="widget_8hpp.html" target="_top" xlink:title="Widget class. ">
<polygon fill="white" stroke="black" points="779,-246.5 779,-265.5 880,-265.5 880,-246.5 779,-246.5"/>
<text text-anchor="middle" x="829.5" y="-253.5" font-family="Helvetica,sans-Serif" font-size="10.00">boost/ui/widget.hpp</text>
</a>
</g>
</g>
<!-- Node1&#45;&gt;Node4 -->
<g id="edge3" class="edge"><title>Node1&#45;&gt;Node4</title>
<path fill="none" stroke="midnightblue" d="M1863.49,-308.414C1682.97,-299.438 1084,-269.655 890.419,-260.029"/>
<polygon fill="midnightblue" stroke="midnightblue" points="890.312,-256.52 880.15,-259.519 889.964,-263.511 890.312,-256.52"/>
</g>
<!-- Node18 -->
<g id="node18" class="node"><title>Node18</title>
<polygon fill="white" stroke="#bfbfbf" points="1024,-123.5 1024,-142.5 1169,-142.5 1169,-123.5 1024,-123.5"/>
<text text-anchor="middle" x="1096.5" y="-130.5" font-family="Helvetica,sans-Serif" font-size="10.00">boost/core/scoped_enum.hpp</text>
</g>
<!-- Node1&#45;&gt;Node18 -->
<g id="edge59" class="edge"><title>Node1&#45;&gt;Node18</title>
<path fill="none" stroke="midnightblue" d="M1863.36,-311.571C1696.57,-312.916 1183.64,-313.148 1127.5,-266 1094.24,-238.066 1092.82,-181.83 1094.62,-152.598"/>
<polygon fill="midnightblue" stroke="midnightblue" points="1098.12,-152.765 1095.44,-142.515 1091.14,-152.198 1098.12,-152.765"/>
</g>
<!-- Node22 -->
<g id="node22" class="node"><title>Node22</title>
<g id="a_node22"><a xlink:href="painter_8hpp.html" target="_top" xlink:title="Painter class. ">
<polygon fill="white" stroke="black" points="1628.5,-246.5 1628.5,-265.5 1730.5,-265.5 1730.5,-246.5 1628.5,-246.5"/>
<text text-anchor="middle" x="1679.5" y="-253.5" font-family="Helvetica,sans-Serif" font-size="10.00">boost/ui/painter.hpp</text>
</a>
</g>
</g>
<!-- Node1&#45;&gt;Node22 -->
<g id="edge29" class="edge"><title>Node1&#45;&gt;Node22</title>
<path fill="none" stroke="midnightblue" d="M1878.11,-302.444C1837.11,-293.063 1771.25,-277.993 1726.72,-267.804"/>
<polygon fill="midnightblue" stroke="midnightblue" points="1727.25,-264.335 1716.72,-265.516 1725.69,-271.159 1727.25,-264.335"/>
</g>
<!-- Node24 -->
<g id="node24" class="node"><title>Node24</title>
<polygon fill="white" stroke="#bfbfbf" points="1170,-185 1170,-204 1269,-204 1269,-185 1170,-185"/>
<text text-anchor="middle" x="1219.5" y="-192" font-family="Helvetica,sans-Serif" font-size="10.00">boost/ui/config.hpp</text>
</g>
<!-- Node1&#45;&gt;Node24 -->
<g id="edge52" class="edge"><title>Node1&#45;&gt;Node24</title>
<path fill="none" stroke="midnightblue" d="M1863.26,-303.932C1754.79,-288.977 1497.47,-252.034 1283.5,-210 1277.7,-208.86 1271.62,-207.587 1265.61,-206.281"/>
<polygon fill="midnightblue" stroke="midnightblue" points="1266.16,-202.817 1255.64,-204.07 1264.64,-209.651 1266.16,-202.817"/>
</g>
<!-- Node30 -->
<g id="node30" class="node"><title>Node30</title>
<polygon fill="white" stroke="#bfbfbf" points="1862,-185 1862,-204 1979,-204 1979,-185 1862,-185"/>
<text text-anchor="middle" x="1920.5" y="-192" font-family="Helvetica,sans-Serif" font-size="10.00">boost/noncopyable.hpp</text>
</g>
<!-- Node1&#45;&gt;Node30 -->
<g id="edge58" class="edge"><title>Node1&#45;&gt;Node30</title>
<path fill="none" stroke="midnightblue" d="M1899.74,-302.323C1880.91,-290.718 1853.18,-268.93 1863.5,-246 1870.27,-230.963 1883.97,-218.591 1896.25,-209.856"/>
<polygon fill="midnightblue" stroke="midnightblue" points="1898.43,-212.608 1904.81,-204.153 1894.55,-206.782 1898.43,-212.608"/>
</g>
<!-- Node31 -->
<g id="node31" class="node"><title>Node31</title>
<polygon fill="white" stroke="#bfbfbf" points="1997.5,-185 1997.5,-204 2041.5,-204 2041.5,-185 1997.5,-185"/>
<text text-anchor="middle" x="2019.5" y="-192" font-family="Helvetica,sans-Serif" font-size="10.00">vector</text>
</g>
<!-- Node1&#45;&gt;Node31 -->
<g id="edge60" class="edge"><title>Node1&#45;&gt;Node31</title>
<path fill="none" stroke="midnightblue" d="M1909.74,-302.225C1901.83,-288.951 1889.82,-263.466 1901.5,-246 1924.75,-211.21 1950.2,-226.869 1988.5,-210 1989.69,-209.475 1990.91,-208.933 1992.14,-208.381"/>
<polygon fill="midnightblue" stroke="midnightblue" points="1993.9,-211.422 2001.53,-204.072 1990.98,-205.059 1993.9,-211.422"/>
</g>
<!-- Node32 -->
<g id="node32" class="node"><title>Node32</title>
<polygon fill="white" stroke="#bfbfbf" points="2060,-185 2060,-204 2173,-204 2173,-185 2060,-185"/>
<text text-anchor="middle" x="2116.5" y="-192" font-family="Helvetica,sans-Serif" font-size="10.00">boost/range/begin.hpp</text>
</g>
<!-- Node1&#45;&gt;Node32 -->
<g id="edge61" class="edge"><title>Node1&#45;&gt;Node32</title>
<path fill="none" stroke="midnightblue" d="M1916.22,-302.49C1917.86,-288.631 1923.09,-261.211 1939.5,-246 1949.26,-236.956 2021.22,-218.309 2070.33,-206.38"/>
<polygon fill="midnightblue" stroke="midnightblue" points="2071.22,-209.764 2080.12,-204.015 2069.58,-202.959 2071.22,-209.764"/>
</g>
<!-- Node33 -->
<g id="node33" class="node"><title>Node33</title>
<polygon fill="white" stroke="#bfbfbf" points="2191,-185 2191,-204 2296,-204 2296,-185 2191,-185"/>
<text text-anchor="middle" x="2243.5" y="-192" font-family="Helvetica,sans-Serif" font-size="10.00">boost/range/end.hpp</text>
</g>
<!-- Node1&#45;&gt;Node33 -->
<g id="edge62" class="edge"><title>Node1&#45;&gt;Node33</title>
<path fill="none" stroke="midnightblue" d="M1921.14,-302.148C1930.78,-287.799 1951.93,-259.688 1977.5,-246 2059.06,-202.348 2091.91,-228.705 2182.5,-210 2187.9,-208.886 2193.54,-207.645 2199.13,-206.372"/>
<polygon fill="midnightblue" stroke="midnightblue" points="2200.11,-209.737 2209.06,-204.064 2198.53,-202.919 2200.11,-209.737"/>
</g>
<!-- Node34 -->
<g id="node34" class="node"><title>Node34</title>
<polygon fill="white" stroke="#bfbfbf" points="2314,-185 2314,-204 2421,-204 2421,-185 2314,-185"/>
<text text-anchor="middle" x="2367.5" y="-192" font-family="Helvetica,sans-Serif" font-size="10.00">boost/range/size.hpp</text>
</g>
<!-- Node1&#45;&gt;Node34 -->
<g id="edge63" class="edge"><title>Node1&#45;&gt;Node34</title>
<path fill="none" stroke="midnightblue" d="M1927.56,-302.273C1951.04,-285.353 2001.38,-249.439 2010.5,-246 2134.08,-199.379 2175.45,-233.073 2305.5,-210 2311.43,-208.948 2317.64,-207.688 2323.74,-206.356"/>
<polygon fill="midnightblue" stroke="midnightblue" points="2324.87,-209.689 2333.85,-204.069 2323.32,-202.862 2324.87,-209.689"/>
</g>
<!-- Node35 -->
<g id="node35" class="node"><title>Node35</title>
<polygon fill="white" stroke="#bfbfbf" points="2019.5,-246.5 2019.5,-265.5 2105.5,-265.5 2105.5,-246.5 2019.5,-246.5"/>
<text text-anchor="middle" x="2062.5" y="-253.5" font-family="Helvetica,sans-Serif" font-size="10.00">boost/ui/def.hpp</text>
</g>
<!-- Node1&#45;&gt;Node35 -->
<g id="edge53" class="edge"><title>Node1&#45;&gt;Node35</title>
<path fill="none" stroke="midnightblue" d="M1938.79,-302.444C1963.31,-293.438 2002.1,-279.189 2029.7,-269.049"/>
<polygon fill="midnightblue" stroke="midnightblue" points="2031.14,-272.25 2039.32,-265.516 2028.72,-265.679 2031.14,-272.25"/>
</g>
<!-- Node36 -->
<g id="node36" class="node"><title>Node36</title>
<polygon fill="white" stroke="#bfbfbf" points="2123.5,-246.5 2123.5,-265.5 2217.5,-265.5 2217.5,-246.5 2123.5,-246.5"/>
<text text-anchor="middle" x="2170.5" y="-253.5" font-family="Helvetica,sans-Serif" font-size="10.00">boost/ui/color.hpp</text>
</g>
<!-- Node1&#45;&gt;Node36 -->
<g id="edge54" class="edge"><title>Node1&#45;&gt;Node36</title>
<path fill="none" stroke="midnightblue" d="M1955.91,-302.444C2000.48,-293.004 2072.27,-277.802 2120.39,-267.611"/>
<polygon fill="midnightblue" stroke="midnightblue" points="2121.23,-271.012 2130.28,-265.516 2119.78,-264.164 2121.23,-271.012"/>
</g>
<!-- Node37 -->
<g id="node37" class="node"><title>Node37</title>
<polygon fill="white" stroke="#bfbfbf" points="2236,-246.5 2236,-265.5 2335,-265.5 2335,-246.5 2236,-246.5"/>
<text text-anchor="middle" x="2285.5" y="-253.5" font-family="Helvetica,sans-Serif" font-size="10.00">boost/ui/image.hpp</text>
</g>
<!-- Node1&#45;&gt;Node37 -->
<g id="edge55" class="edge"><title>Node1&#45;&gt;Node37</title>
<path fill="none" stroke="midnightblue" d="M1967.52,-303.598C2027.24,-295.071 2128.44,-280.539 2225.9,-266.079"/>
<polygon fill="midnightblue" stroke="midnightblue" points="2226.55,-269.521 2235.93,-264.59 2225.52,-262.597 2226.55,-269.521"/>
</g>
<!-- Node38 -->
<g id="node38" class="node"><title>Node38</title>
<polygon fill="white" stroke="#bfbfbf" points="2353,-246.5 2353,-265.5 2442,-265.5 2442,-246.5 2353,-246.5"/>
<text text-anchor="middle" x="2397.5" y="-253.5" font-family="Helvetica,sans-Serif" font-size="10.00">boost/ui/font.hpp</text>
</g>
<!-- Node1&#45;&gt;Node38 -->
<g id="edge56" class="edge"><title>Node1&#45;&gt;Node38</title>
<path fill="none" stroke="midnightblue" d="M1967.8,-306.596C2046.83,-299.703 2201.62,-285.275 2342.85,-266.153"/>
<polygon fill="midnightblue" stroke="midnightblue" points="2343.56,-269.589 2353,-264.768 2342.62,-262.653 2343.56,-269.589"/>
</g>
<!-- Node39 -->
<g id="node39" class="node"><title>Node39</title>
<polygon fill="white" stroke="#bfbfbf" points="2460,-246.5 2460,-265.5 2557,-265.5 2557,-246.5 2460,-246.5"/>
<text text-anchor="middle" x="2508.5" y="-253.5" font-family="Helvetica,sans-Serif" font-size="10.00">boost/ui/string.hpp</text>
</g>
<!-- Node1&#45;&gt;Node39 -->
<g id="edge57" class="edge"><title>Node1&#45;&gt;Node39</title>
<path fill="none" stroke="midnightblue" d="M1967.75,-307.882C2062.03,-301.979 2267.07,-287.878 2449.66,-266.149"/>
<polygon fill="midnightblue" stroke="midnightblue" points="2450.2,-269.609 2459.72,-264.942 2449.37,-262.659 2450.2,-269.609"/>
</g>
<!-- Node3 -->
<g id="node3" class="node"><title>Node3</title>
<polygon fill="white" stroke="#bfbfbf" points="951,-0.5 951,-19.5 1040,-19.5 1040,-0.5 951,-0.5"/>
<text text-anchor="middle" x="995.5" y="-7.5" font-family="Helvetica,sans-Serif" font-size="10.00">boost/config.hpp</text>
</g>
<!-- Node2&#45;&gt;Node3 -->
<g id="edge2" class="edge"><title>Node2&#45;&gt;Node3</title>
<path fill="none" stroke="midnightblue" d="M995.5,-61.9751C995.5,-53.5803 995.5,-40.4806 995.5,-29.6631"/>
<polygon fill="midnightblue" stroke="midnightblue" points="999,-29.5091 995.5,-19.5091 992,-29.5091 999,-29.5091"/>
</g>
<!-- Node4&#45;&gt;Node2 -->
<g id="edge4" class="edge"><title>Node4&#45;&gt;Node2</title>
<path fill="none" stroke="midnightblue" d="M854.727,-246.418C873.491,-239.051 898.807,-226.929 916.5,-210 953.189,-174.896 978.018,-119.003 989.032,-90.4975"/>
<polygon fill="midnightblue" stroke="midnightblue" points="992.354,-91.6064 992.573,-81.0139 985.797,-89.1579 992.354,-91.6064"/>
</g>
<!-- Node5 -->
<g id="node5" class="node"><title>Node5</title>
<g id="a_node5"><a xlink:href="coord_8hpp.html" target="_top" xlink:title="Coordinates classes. ">
<polygon fill="white" stroke="black" points="427,-123.5 427,-142.5 524,-142.5 524,-123.5 427,-123.5"/>
<text text-anchor="middle" x="475.5" y="-130.5" font-family="Helvetica,sans-Serif" font-size="10.00">boost/ui/coord.hpp</text>
</a>
</g>
</g>
<!-- Node4&#45;&gt;Node5 -->
<g id="edge5" class="edge"><title>Node4&#45;&gt;Node5</title>
<path fill="none" stroke="midnightblue" d="M778.771,-252.162C685.919,-246.45 496.296,-232.184 476.5,-210 462.735,-194.574 465.444,-169.562 469.619,-152.477"/>
<polygon fill="midnightblue" stroke="midnightblue" points="473.066,-153.149 472.415,-142.574 466.329,-151.246 473.066,-153.149"/>
</g>
<!-- Node11 -->
<g id="node11" class="node"><title>Node11</title>
<g id="a_node11"><a xlink:href="string_8hpp.html" target="_top" xlink:title="String class and operations. ">
<polygon fill="white" stroke="black" points="676,-123.5 676,-142.5 773,-142.5 773,-123.5 676,-123.5"/>
<text text-anchor="middle" x="724.5" y="-130.5" font-family="Helvetica,sans-Serif" font-size="10.00">boost/ui/string.hpp</text>
</a>
</g>
</g>
<!-- Node4&#45;&gt;Node11 -->
<g id="edge12" class="edge"><title>Node4&#45;&gt;Node11</title>
<path fill="none" stroke="midnightblue" d="M778.856,-250.638C726.138,-244.924 648.743,-232.829 630.5,-210 621.899,-199.237 623.156,-190.657 630.5,-179 640.508,-163.112 657.851,-152.711 674.936,-145.958"/>
<polygon fill="midnightblue" stroke="midnightblue" points="676.128,-149.249 684.353,-142.571 673.758,-142.662 676.128,-149.249"/>
</g>
<!-- Node15 -->
<g id="node15" class="node"><title>Node15</title>
<g id="a_node15"><a xlink:href="event_8hpp.html" target="_top" xlink:title="Event classes. ">
<polygon fill="white" stroke="black" points="486,-185 486,-204 583,-204 583,-185 486,-185"/>
<text text-anchor="middle" x="534.5" y="-192" font-family="Helvetica,sans-Serif" font-size="10.00">boost/ui/event.hpp</text>
</a>
</g>
</g>
<!-- Node4&#45;&gt;Node15 -->
<g id="edge17" class="edge"><title>Node4&#45;&gt;Node15</title>
<path fill="none" stroke="midnightblue" d="M782.745,-246.423C735.823,-237.7 661.518,-223.571 597.5,-210 592.079,-208.851 586.405,-207.605 580.778,-206.344"/>
<polygon fill="midnightblue" stroke="midnightblue" points="581.292,-202.871 570.765,-204.073 579.743,-209.698 581.292,-202.871"/>
</g>
<!-- Node17 -->
<g id="node17" class="node"><title>Node17</title>
<g id="a_node17"><a xlink:href="font_8hpp.html" target="_top" xlink:title="Font class. ">
<polygon fill="white" stroke="black" points="986,-185 986,-204 1075,-204 1075,-185 986,-185"/>
<text text-anchor="middle" x="1030.5" y="-192" font-family="Helvetica,sans-Serif" font-size="10.00">boost/ui/font.hpp</text>
</a>
</g>
</g>
<!-- Node4&#45;&gt;Node17 -->
<g id="edge21" class="edge"><title>Node4&#45;&gt;Node17</title>
<path fill="none" stroke="midnightblue" d="M858.298,-246.475C893.374,-236.092 952.763,-218.512 991.807,-206.954"/>
<polygon fill="midnightblue" stroke="midnightblue" points="993.16,-210.204 1001.76,-204.009 991.173,-203.492 993.16,-210.204"/>
</g>
<!-- Node19 -->
<g id="node19" class="node"><title>Node19</title>
<g id="a_node19"><a xlink:href="layout_8hpp.html" target="_top" xlink:title="Layout classes. ">
<polygon fill="white" stroke="black" points="830,-123.5 830,-142.5 929,-142.5 929,-123.5 830,-123.5"/>
<text text-anchor="middle" x="879.5" y="-130.5" font-family="Helvetica,sans-Serif" font-size="10.00">boost/ui/layout.hpp</text>
</a>
</g>
</g>
<!-- Node4&#45;&gt;Node19 -->
<g id="edge25" class="edge"><title>Node4&#45;&gt;Node19</title>
<path fill="none" stroke="midnightblue" d="M853.969,-246.438C870.067,-239.378 889.877,-227.626 899.5,-210 909.57,-191.554 900.282,-167.792 891.285,-151.788"/>
<polygon fill="midnightblue" stroke="midnightblue" points="894.088,-149.662 885.896,-142.943 888.11,-153.304 894.088,-149.662"/>
</g>
<!-- Node20 -->
<g id="node20" class="node"><title>Node20</title>
<polygon fill="white" stroke="#bfbfbf" points="639.5,-179.5 639.5,-209.5 749.5,-209.5 749.5,-179.5 639.5,-179.5"/>
<text text-anchor="start" x="647.5" y="-197.5" font-family="Helvetica,sans-Serif" font-size="10.00">boost/ui/detail/shared</text>
<text text-anchor="middle" x="694.5" y="-186.5" font-family="Helvetica,sans-Serif" font-size="10.00">_count.hpp</text>
</g>
<!-- Node4&#45;&gt;Node20 -->
<g id="edge27" class="edge"><title>Node4&#45;&gt;Node20</title>
<path fill="none" stroke="midnightblue" d="M810.158,-246.475C790.763,-237.927 760.301,-224.501 735.507,-213.573"/>
<polygon fill="midnightblue" stroke="midnightblue" points="736.879,-210.353 726.317,-209.523 734.056,-216.759 736.879,-210.353"/>
</g>
<!-- Node21 -->
<g id="node21" class="node"><title>Node21</title>
<polygon fill="white" stroke="#bfbfbf" points="768,-185 768,-204 891,-204 891,-185 768,-185"/>
<text text-anchor="middle" x="829.5" y="-192" font-family="Helvetica,sans-Serif" font-size="10.00">boost/ui/detail/event.hpp</text>
</g>
<!-- Node4&#45;&gt;Node21 -->
<g id="edge28" class="edge"><title>Node4&#45;&gt;Node21</title>
<path fill="none" stroke="midnightblue" d="M829.5,-246.475C829.5,-238.08 829.5,-224.981 829.5,-214.163"/>
<polygon fill="midnightblue" stroke="midnightblue" points="833,-214.009 829.5,-204.009 826,-214.009 833,-214.009"/>
</g>
<!-- Node5&#45;&gt;Node2 -->
<g id="edge6" class="edge"><title>Node5&#45;&gt;Node2</title>
<path fill="none" stroke="midnightblue" d="M524.29,-124.1C527.065,-123.712 529.817,-123.342 532.5,-123 696.395,-102.107 738.585,-107.735 902.5,-87 913.299,-85.634 924.774,-83.9972 935.843,-82.323"/>
<polygon fill="midnightblue" stroke="midnightblue" points="936.511,-85.7614 945.862,-80.7816 935.446,-78.8428 936.511,-85.7614"/>
</g>
<!-- Node6 -->
<g id="node6" class="node"><title>Node6</title>
<polygon fill="white" stroke="#bfbfbf" points="564,-62 564,-81 667,-81 667,-62 564,-62"/>
<text text-anchor="middle" x="615.5" y="-69" font-family="Helvetica,sans-Serif" font-size="10.00">boost/geometry.hpp</text>
</g>
<!-- Node5&#45;&gt;Node6 -->
<g id="edge7" class="edge"><title>Node5&#45;&gt;Node6</title>
<path fill="none" stroke="midnightblue" d="M495.559,-123.475C519.262,-113.401 558.906,-96.5525 586.083,-85.0023"/>
<polygon fill="midnightblue" stroke="midnightblue" points="587.644,-88.1417 595.479,-81.0091 584.906,-81.6994 587.644,-88.1417"/>
</g>
<!-- Node7 -->
<g id="node7" class="node"><title>Node7</title>
<polygon fill="white" stroke="#bfbfbf" points="0,-56.5 0,-86.5 135,-86.5 135,-56.5 0,-56.5"/>
<text text-anchor="start" x="8" y="-74.5" font-family="Helvetica,sans-Serif" font-size="10.00">boost/geometry/geometries</text>
<text text-anchor="middle" x="67.5" y="-63.5" font-family="Helvetica,sans-Serif" font-size="10.00">/point_xy.hpp</text>
</g>
<!-- Node5&#45;&gt;Node7 -->
<g id="edge8" class="edge"><title>Node5&#45;&gt;Node7</title>
<path fill="none" stroke="midnightblue" d="M426.994,-126.255C364.179,-118.632 251.075,-104.283 144.93,-87.185"/>
<polygon fill="midnightblue" stroke="midnightblue" points="145.443,-83.7224 135.012,-85.5758 144.322,-90.6321 145.443,-83.7224"/>
</g>
<!-- Node8 -->
<g id="node8" class="node"><title>Node8</title>
<polygon fill="white" stroke="#bfbfbf" points="153,-56.5 153,-86.5 288,-86.5 288,-56.5 153,-56.5"/>
<text text-anchor="start" x="161" y="-74.5" font-family="Helvetica,sans-Serif" font-size="10.00">boost/geometry/geometries</text>
<text text-anchor="middle" x="220.5" y="-63.5" font-family="Helvetica,sans-Serif" font-size="10.00">/box.hpp</text>
</g>
<!-- Node5&#45;&gt;Node8 -->
<g id="edge9" class="edge"><title>Node5&#45;&gt;Node8</title>
<path fill="none" stroke="midnightblue" d="M438.965,-123.475C400.394,-114.475 338.649,-100.068 290.625,-88.8624"/>
<polygon fill="midnightblue" stroke="midnightblue" points="291.132,-85.3869 280.598,-86.523 289.542,-92.2038 291.132,-85.3869"/>
</g>
<!-- Node9 -->
<g id="node9" class="node"><title>Node9</title>
<polygon fill="white" stroke="#bfbfbf" points="306,-56.5 306,-86.5 407,-86.5 407,-56.5 306,-56.5"/>
<text text-anchor="start" x="314" y="-74.5" font-family="Helvetica,sans-Serif" font-size="10.00">boost/polygon/point</text>
<text text-anchor="middle" x="356.5" y="-63.5" font-family="Helvetica,sans-Serif" font-size="10.00">_data.hpp</text>
</g>
<!-- Node5&#45;&gt;Node9 -->
<g id="edge10" class="edge"><title>Node5&#45;&gt;Node9</title>
<path fill="none" stroke="midnightblue" d="M458.45,-123.475C441.58,-115.04 415.21,-101.855 393.516,-91.008"/>
<polygon fill="midnightblue" stroke="midnightblue" points="395.055,-87.8647 384.546,-86.523 391.925,-94.1257 395.055,-87.8647"/>
</g>
<!-- Node10 -->
<g id="node10" class="node"><title>Node10</title>
<polygon fill="white" stroke="#bfbfbf" points="425.5,-56.5 425.5,-86.5 545.5,-86.5 545.5,-56.5 425.5,-56.5"/>
<text text-anchor="start" x="433.5" y="-74.5" font-family="Helvetica,sans-Serif" font-size="10.00">boost/polygon/rectangle</text>
<text text-anchor="middle" x="485.5" y="-63.5" font-family="Helvetica,sans-Serif" font-size="10.00">_data.hpp</text>
</g>
<!-- Node5&#45;&gt;Node10 -->
<g id="edge11" class="edge"><title>Node5&#45;&gt;Node10</title>
<path fill="none" stroke="midnightblue" d="M476.933,-123.475C478.123,-116.396 479.875,-105.97 481.485,-96.3896"/>
<polygon fill="midnightblue" stroke="midnightblue" points="484.937,-96.9648 483.143,-86.523 478.034,-95.8045 484.937,-96.9648"/>
</g>
<!-- Node11&#45;&gt;Node2 -->
<g id="edge13" class="edge"><title>Node11&#45;&gt;Node2</title>
<path fill="none" stroke="midnightblue" d="M763.328,-123.475C811.625,-112.871 894.113,-94.7602 946.654,-83.2244"/>
<polygon fill="midnightblue" stroke="midnightblue" points="947.728,-86.5722 956.744,-81.0091 946.226,-79.7351 947.728,-86.5722"/>
</g>
<!-- Node12 -->
<g id="node12" class="node"><title>Node12</title>
<polygon fill="white" stroke="#bfbfbf" points="762,-62 762,-81 803,-81 803,-62 762,-62"/>
<text text-anchor="middle" x="782.5" y="-69" font-family="Helvetica,sans-Serif" font-size="10.00">string</text>
</g>
<!-- Node11&#45;&gt;Node12 -->
<g id="edge14" class="edge"><title>Node11&#45;&gt;Node12</title>
<path fill="none" stroke="midnightblue" d="M732.81,-123.475C741.682,-114.373 755.946,-99.741 766.92,-88.483"/>
<polygon fill="midnightblue" stroke="midnightblue" points="769.731,-90.613 774.205,-81.0091 764.719,-85.7268 769.731,-90.613"/>
</g>
<!-- Node13 -->
<g id="node13" class="node"><title>Node13</title>
<polygon fill="white" stroke="#bfbfbf" points="821,-62 821,-81 894,-81 894,-62 821,-62"/>
<text text-anchor="middle" x="857.5" y="-69" font-family="Helvetica,sans-Serif" font-size="10.00">initializer_list</text>
</g>
<!-- Node11&#45;&gt;Node13 -->
<g id="edge15" class="edge"><title>Node11&#45;&gt;Node13</title>
<path fill="none" stroke="midnightblue" d="M743.556,-123.475C765.975,-113.445 803.405,-96.7002 829.213,-85.1546"/>
<polygon fill="midnightblue" stroke="midnightblue" points="830.781,-88.2877 838.48,-81.0091 827.922,-81.8979 830.781,-88.2877"/>
</g>
<!-- Node14 -->
<g id="node14" class="node"><title>Node14</title>
<polygon fill="white" stroke="#bfbfbf" points="685,-62 685,-81 744,-81 744,-62 685,-62"/>
<text text-anchor="middle" x="714.5" y="-69" font-family="Helvetica,sans-Serif" font-size="10.00">functional</text>
</g>
<!-- Node11&#45;&gt;Node14 -->
<g id="edge16" class="edge"><title>Node11&#45;&gt;Node14</title>
<path fill="none" stroke="midnightblue" d="M723.067,-123.475C721.656,-115.08 719.455,-101.981 717.637,-91.1631"/>
<polygon fill="midnightblue" stroke="midnightblue" points="721.039,-90.2906 715.93,-81.0091 714.136,-91.4509 721.039,-90.2906"/>
</g>
<!-- Node15&#45;&gt;Node2 -->
<g id="edge18" class="edge"><title>Node15&#45;&gt;Node2</title>
<path fill="none" stroke="midnightblue" d="M583.233,-185.159C644.376,-174.413 745.572,-155.619 781.5,-143 799.879,-136.545 802.391,-130.178 820.5,-123 862.64,-106.296 912.458,-92.4647 948.143,-83.5264"/>
<polygon fill="midnightblue" stroke="midnightblue" points="949.407,-86.8195 958.277,-81.0244 947.729,-80.0236 949.407,-86.8195"/>
</g>
<!-- Node15&#45;&gt;Node5 -->
<g id="edge19" class="edge"><title>Node15&#45;&gt;Node5</title>
<path fill="none" stroke="midnightblue" d="M526.047,-184.975C516.934,-175.785 502.23,-160.956 491.024,-149.656"/>
<polygon fill="midnightblue" stroke="midnightblue" points="493.464,-147.146 483.938,-142.509 488.493,-152.074 493.464,-147.146"/>
</g>
<!-- Node16 -->
<g id="node16" class="node"><title>Node16</title>
<polygon fill="white" stroke="#bfbfbf" points="542,-123.5 542,-142.5 639,-142.5 639,-123.5 542,-123.5"/>
<text text-anchor="middle" x="590.5" y="-130.5" font-family="Helvetica,sans-Serif" font-size="10.00">boost/function.hpp</text>
</g>
<!-- Node15&#45;&gt;Node16 -->
<g id="edge20" class="edge"><title>Node15&#45;&gt;Node16</title>
<path fill="none" stroke="midnightblue" d="M542.523,-184.975C551.09,-175.873 564.861,-161.241 575.457,-149.983"/>
<polygon fill="midnightblue" stroke="midnightblue" points="578.186,-152.19 582.491,-142.509 573.089,-147.392 578.186,-152.19"/>
</g>
<!-- Node17&#45;&gt;Node2 -->
<g id="edge22" class="edge"><title>Node17&#45;&gt;Node2</title>
<path fill="none" stroke="midnightblue" d="M1027.67,-184.957C1024.38,-174.942 1018.84,-157.827 1014.5,-143 1009.38,-125.53 1004.03,-105.475 1000.31,-91.2324"/>
<polygon fill="midnightblue" stroke="midnightblue" points="1003.61,-90.0209 997.719,-81.2169 996.836,-91.7749 1003.61,-90.0209"/>
</g>
<!-- Node17&#45;&gt;Node11 -->
<g id="edge23" class="edge"><title>Node17&#45;&gt;Node11</title>
<path fill="none" stroke="midnightblue" d="M986.658,-184.975C931.668,-174.283 837.426,-155.958 778.178,-144.437"/>
<polygon fill="midnightblue" stroke="midnightblue" points="778.745,-140.982 768.261,-142.509 777.409,-147.854 778.745,-140.982"/>
</g>
<!-- Node17&#45;&gt;Node18 -->
<g id="edge24" class="edge"><title>Node17&#45;&gt;Node18</title>
<path fill="none" stroke="midnightblue" d="M1039.96,-184.975C1050.25,-175.697 1066.92,-160.671 1079.49,-149.331"/>
<polygon fill="midnightblue" stroke="midnightblue" points="1081.98,-151.805 1087.06,-142.509 1077.29,-146.605 1081.98,-151.805"/>
</g>
<!-- Node19&#45;&gt;Node2 -->
<g id="edge26" class="edge"><title>Node19&#45;&gt;Node2</title>
<path fill="none" stroke="midnightblue" d="M896.12,-123.475C915.415,-113.578 947.459,-97.1416 969.931,-85.6151"/>
<polygon fill="midnightblue" stroke="midnightblue" points="971.61,-88.6873 978.911,-81.0091 968.416,-82.4589 971.61,-88.6873"/>
</g>
<!-- Node22&#45;&gt;Node2 -->
<g id="edge30" class="edge"><title>Node22&#45;&gt;Node2</title>
<path fill="none" stroke="midnightblue" d="M1730.75,-252.123C1760.4,-247.508 1795.5,-236.355 1814.5,-210 1822.56,-198.823 1821.86,-190.645 1814.5,-179 1783.48,-129.935 1752.64,-137.784 1696.5,-123 1576.09,-91.2884 1202.09,-78.0424 1055.4,-73.975"/>
<polygon fill="midnightblue" stroke="midnightblue" points="1055.33,-70.4719 1045.24,-73.6979 1055.14,-77.4693 1055.33,-70.4719"/>
</g>
<!-- Node22&#45;&gt;Node11 -->
<g id="edge45" class="edge"><title>Node22&#45;&gt;Node11</title>
<path fill="none" stroke="midnightblue" d="M1628.37,-250.487C1534.05,-241.906 1339.69,-222.943 1311.5,-210 1292.92,-201.466 1296.26,-187.131 1277.5,-179 1184.03,-138.492 921.993,-151.755 820.5,-143 808.513,-141.966 795.689,-140.803 783.444,-139.665"/>
<polygon fill="midnightblue" stroke="midnightblue" points="783.608,-136.165 773.325,-138.719 782.956,-143.135 783.608,-136.165"/>
</g>
<!-- Node22&#45;&gt;Node17 -->
<g id="edge44" class="edge"><title>Node22&#45;&gt;Node17</title>
<path fill="none" stroke="midnightblue" d="M1628.26,-250.978C1535.09,-243.57 1331.73,-226.97 1160.5,-210 1135.79,-207.552 1108.48,-204.55 1085.3,-201.914"/>
<polygon fill="midnightblue" stroke="midnightblue" points="1085.63,-198.429 1075.29,-200.771 1084.83,-205.384 1085.63,-198.429"/>
</g>
<!-- Node22&#45;&gt;Node18 -->
<g id="edge47" class="edge"><title>Node22&#45;&gt;Node18</title>
<path fill="none" stroke="midnightblue" d="M1628.47,-251.237C1549.17,-244.848 1400.38,-230.542 1351.5,-210 1330.76,-201.286 1331.92,-188.434 1311.5,-179 1270.08,-159.864 1220.42,-148.786 1179.27,-142.413"/>
<polygon fill="midnightblue" stroke="midnightblue" points="1179.68,-138.936 1169.27,-140.931 1178.65,-145.86 1179.68,-138.936"/>
</g>
<!-- Node23 -->
<g id="node23" class="node"><title>Node23</title>
<g id="a_node23"><a xlink:href="def_8hpp.html" target="_top" xlink:title="Definitions. ">
<polygon fill="white" stroke="black" points="1265.5,-123.5 1265.5,-142.5 1351.5,-142.5 1351.5,-123.5 1265.5,-123.5"/>
<text text-anchor="middle" x="1308.5" y="-130.5" font-family="Helvetica,sans-Serif" font-size="10.00">boost/ui/def.hpp</text>
</a>
</g>
</g>
<!-- Node22&#45;&gt;Node23 -->
<g id="edge31" class="edge"><title>Node22&#45;&gt;Node23</title>
<path fill="none" stroke="midnightblue" d="M1628.45,-255.651C1568.96,-254.504 1469.08,-246.564 1392.5,-210 1376.99,-202.594 1343.5,-169.869 1323.81,-149.854"/>
<polygon fill="midnightblue" stroke="midnightblue" points="1326.26,-147.356 1316.78,-142.644 1321.26,-152.245 1326.26,-147.356"/>
</g>
<!-- Node22&#45;&gt;Node24 -->
<g id="edge33" class="edge"><title>Node22&#45;&gt;Node24</title>
<path fill="none" stroke="midnightblue" d="M1628.3,-250.989C1552.59,-244.649 1406.46,-230.851 1283.5,-210 1277.16,-208.925 1270.51,-207.619 1263.98,-206.237"/>
<polygon fill="midnightblue" stroke="midnightblue" points="1264.42,-202.75 1253.91,-204.023 1262.92,-209.587 1264.42,-202.75"/>
</g>
<!-- Node25 -->
<g id="node25" class="node"><title>Node25</title>
<g id="a_node25"><a xlink:href="color_8hpp.html" target="_top" xlink:title="Color class. ">
<polygon fill="white" stroke="black" points="1557.5,-185 1557.5,-204 1651.5,-204 1651.5,-185 1557.5,-185"/>
<text text-anchor="middle" x="1604.5" y="-192" font-family="Helvetica,sans-Serif" font-size="10.00">boost/ui/color.hpp</text>
</a>
</g>
</g>
<!-- Node22&#45;&gt;Node25 -->
<g id="edge34" class="edge"><title>Node22&#45;&gt;Node25</title>
<path fill="none" stroke="midnightblue" d="M1668.75,-246.475C1656.95,-237.108 1637.76,-221.884 1623.42,-210.508"/>
<polygon fill="midnightblue" stroke="midnightblue" points="1625.24,-207.482 1615.23,-204.009 1620.88,-212.966 1625.24,-207.482"/>
</g>
<!-- Node26 -->
<g id="node26" class="node"><title>Node26</title>
<polygon fill="white" stroke="#bfbfbf" points="1595.5,-123.5 1595.5,-142.5 1687.5,-142.5 1687.5,-123.5 1595.5,-123.5"/>
<text text-anchor="middle" x="1641.5" y="-130.5" font-family="Helvetica,sans-Serif" font-size="10.00">boost/cstdint.hpp</text>
</g>
<!-- Node22&#45;&gt;Node26 -->
<g id="edge37" class="edge"><title>Node22&#45;&gt;Node26</title>
<path fill="none" stroke="midnightblue" d="M1677.81,-246.443C1674.91,-232.242 1668.51,-202.995 1660.5,-179 1657.48,-169.951 1653.44,-160.165 1649.87,-152.037"/>
<polygon fill="midnightblue" stroke="midnightblue" points="1653.01,-150.48 1645.7,-142.809 1646.63,-153.363 1653.01,-150.48"/>
</g>
<!-- Node27 -->
<g id="node27" class="node"><title>Node27</title>
<g id="a_node27"><a xlink:href="image_8hpp.html" target="_top" xlink:title="Image class. ">
<polygon fill="white" stroke="black" points="1402,-185 1402,-204 1501,-204 1501,-185 1402,-185"/>
<text text-anchor="middle" x="1451.5" y="-192" font-family="Helvetica,sans-Serif" font-size="10.00">boost/ui/image.hpp</text>
</a>
</g>
</g>
<!-- Node22&#45;&gt;Node27 -->
<g id="edge38" class="edge"><title>Node22&#45;&gt;Node27</title>
<path fill="none" stroke="midnightblue" d="M1646.83,-246.475C1606.62,-235.982 1538.24,-218.137 1493.98,-206.587"/>
<polygon fill="midnightblue" stroke="midnightblue" points="1494.67,-203.148 1484.11,-204.009 1492.9,-209.921 1494.67,-203.148"/>
</g>
<!-- Node28 -->
<g id="node28" class="node"><title>Node28</title>
<polygon fill="white" stroke="#bfbfbf" points="1452,-123.5 1452,-142.5 1501,-142.5 1501,-123.5 1452,-123.5"/>
<text text-anchor="middle" x="1476.5" y="-130.5" font-family="Helvetica,sans-Serif" font-size="10.00">istream</text>
</g>
<!-- Node22&#45;&gt;Node28 -->
<g id="edge43" class="edge"><title>Node22&#45;&gt;Node28</title>
<path fill="none" stroke="midnightblue" d="M1639.15,-246.499C1612.04,-239.543 1576.31,-227.889 1548.5,-210 1523.87,-194.153 1501.71,-168.14 1488.68,-151.04"/>
<polygon fill="midnightblue" stroke="midnightblue" points="1491.18,-148.536 1482.42,-142.578 1485.56,-152.699 1491.18,-148.536"/>
</g>
<!-- Node29 -->
<g id="node29" class="node"><title>Node29</title>
<polygon fill="white" stroke="#bfbfbf" points="1708,-185 1708,-204 1805,-204 1805,-185 1708,-185"/>
<text text-anchor="middle" x="1756.5" y="-192" font-family="Helvetica,sans-Serif" font-size="10.00">boost/ui/coord.hpp</text>
</g>
<!-- Node22&#45;&gt;Node29 -->
<g id="edge42" class="edge"><title>Node22&#45;&gt;Node29</title>
<path fill="none" stroke="midnightblue" d="M1690.53,-246.475C1702.77,-237.02 1722.73,-221.596 1737.49,-210.187"/>
<polygon fill="midnightblue" stroke="midnightblue" points="1739.72,-212.893 1745.49,-204.009 1735.44,-207.354 1739.72,-212.893"/>
</g>
<!-- Node22&#45;&gt;Node30 -->
<g id="edge46" class="edge"><title>Node22&#45;&gt;Node30</title>
<path fill="none" stroke="midnightblue" d="M1714.03,-246.475C1756.71,-235.937 1829.42,-217.986 1876.18,-206.441"/>
<polygon fill="midnightblue" stroke="midnightblue" points="1877.17,-209.804 1886.03,-204.009 1875.49,-203.008 1877.17,-209.804"/>
</g>
<!-- Node22&#45;&gt;Node31 -->
<g id="edge48" class="edge"><title>Node22&#45;&gt;Node31</title>
<path fill="none" stroke="midnightblue" d="M1730.52,-252.151C1792.61,-247.646 1900.09,-236.486 1988.5,-210 1990.38,-209.437 1992.29,-208.779 1994.19,-208.058"/>
<polygon fill="midnightblue" stroke="midnightblue" points="1995.62,-211.251 2003.44,-204.099 1992.87,-204.815 1995.62,-211.251"/>
</g>
<!-- Node22&#45;&gt;Node32 -->
<g id="edge49" class="edge"><title>Node22&#45;&gt;Node32</title>
<path fill="none" stroke="midnightblue" d="M1730.73,-250.349C1802.51,-243.477 1936.97,-229.312 2050.5,-210 2057.1,-208.877 2064.05,-207.533 2070.85,-206.123"/>
<polygon fill="midnightblue" stroke="midnightblue" points="2071.61,-209.54 2080.66,-204.028 2070.14,-202.694 2071.61,-209.54"/>
</g>
<!-- Node22&#45;&gt;Node33 -->
<g id="edge50" class="edge"><title>Node22&#45;&gt;Node33</title>
<path fill="none" stroke="midnightblue" d="M1730.86,-252.852C1822.21,-248.489 2018.73,-236.648 2182.5,-210 2188.7,-208.99 2195.21,-207.698 2201.58,-206.303"/>
<polygon fill="midnightblue" stroke="midnightblue" points="2202.42,-209.7 2211.38,-204.05 2200.85,-202.877 2202.42,-209.7"/>
</g>
<!-- Node22&#45;&gt;Node34 -->
<g id="edge51" class="edge"><title>Node22&#45;&gt;Node34</title>
<path fill="none" stroke="midnightblue" d="M1730.52,-254.058C1837.63,-251.484 2093.55,-242.196 2305.5,-210 2311.88,-209.03 2318.58,-207.748 2325.12,-206.347"/>
<polygon fill="midnightblue" stroke="midnightblue" points="2326.2,-209.69 2335.19,-204.075 2324.66,-202.862 2326.2,-209.69"/>
</g>
<!-- Node23&#45;&gt;Node2 -->
<g id="edge32" class="edge"><title>Node23&#45;&gt;Node2</title>
<path fill="none" stroke="midnightblue" d="M1265.31,-123.789C1209.23,-113.129 1111.32,-94.5166 1050.14,-82.8859"/>
<polygon fill="midnightblue" stroke="midnightblue" points="1050.75,-79.4401 1040.27,-81.0109 1049.44,-86.317 1050.75,-79.4401"/>
</g>
<!-- Node25&#45;&gt;Node2 -->
<g id="edge35" class="edge"><title>Node25&#45;&gt;Node2</title>
<path fill="none" stroke="midnightblue" d="M1596.07,-184.659C1580.6,-169.076 1545.91,-137.045 1509.5,-123 1427.99,-91.5555 1172.74,-78.721 1055.49,-74.3845"/>
<polygon fill="midnightblue" stroke="midnightblue" points="1055.38,-70.8783 1045.26,-74.0148 1055.12,-77.8737 1055.38,-70.8783"/>
</g>
<!-- Node25&#45;&gt;Node26 -->
<g id="edge36" class="edge"><title>Node25&#45;&gt;Node26</title>
<path fill="none" stroke="midnightblue" d="M1609.8,-184.975C1615.24,-176.227 1623.86,-162.369 1630.74,-151.309"/>
<polygon fill="midnightblue" stroke="midnightblue" points="1633.9,-152.849 1636.21,-142.509 1627.96,-149.153 1633.9,-152.849"/>
</g>
<!-- Node27&#45;&gt;Node2 -->
<g id="edge39" class="edge"><title>Node27&#45;&gt;Node2</title>
<path fill="none" stroke="midnightblue" d="M1443.45,-184.795C1428.67,-169.428 1395.5,-137.728 1360.5,-123 1306.76,-100.386 1144.49,-84.3725 1055.5,-77.0252"/>
<polygon fill="midnightblue" stroke="midnightblue" points="1055.53,-73.5167 1045.28,-76.1934 1054.97,-80.4936 1055.53,-73.5167"/>
</g>
<!-- Node27&#45;&gt;Node5 -->
<g id="edge40" class="edge"><title>Node27&#45;&gt;Node5</title>
<path fill="none" stroke="midnightblue" d="M1401.66,-188.882C1366.89,-185.775 1319.39,-181.757 1277.5,-179 950.11,-157.455 864.017,-176.501 534.59,-143.111"/>
<polygon fill="midnightblue" stroke="midnightblue" points="534.576,-139.592 524.272,-142.057 533.864,-146.556 534.576,-139.592"/>
</g>
<!-- Node27&#45;&gt;Node28 -->
<g id="edge41" class="edge"><title>Node27&#45;&gt;Node28</title>
<path fill="none" stroke="midnightblue" d="M1455.08,-184.975C1458.68,-176.404 1464.35,-162.927 1468.94,-151.983"/>
<polygon fill="midnightblue" stroke="midnightblue" points="1472.28,-153.084 1472.92,-142.509 1465.82,-150.373 1472.28,-153.084"/>
</g>
</g>
</svg>
