<?xml version="1.0" encoding="UTF-8" standalone="no"?>
<!DOCTYPE svg PUBLIC "-//W3C//DTD SVG 1.1//EN"
 "http://www.w3.org/Graphics/SVG/1.1/DTD/svg11.dtd">
<!-- Generated by graphviz version 2.38.0 (20140413.2041)
 -->
<!-- Title: boost/ui/choice.hpp Pages: 1 -->
<svg width="1449pt" height="386pt"
 viewBox="0.00 0.00 1448.50 386.00" xmlns="http://www.w3.org/2000/svg" xmlns:xlink="http://www.w3.org/1999/xlink">
<g id="graph0" class="graph" transform="scale(1 1) rotate(0) translate(4 382)">
<title>boost/ui/choice.hpp</title>
<polygon fill="white" stroke="none" points="-4,4 -4,-382 1444.5,-382 1444.5,4 -4,4"/>
<!-- Node1 -->
<g id="node1" class="node"><title>Node1</title>
<polygon fill="#bfbfbf" stroke="black" points="821.5,-358.5 821.5,-377.5 922.5,-377.5 922.5,-358.5 821.5,-358.5"/>
<text text-anchor="middle" x="872" y="-365.5" font-family="Helvetica,sans-Serif" font-size="10.00">boost/ui/choice.hpp</text>
</g>
<!-- Node2 -->
<g id="node2" class="node"><title>Node2</title>
<g id="a_node2"><a xlink:href="config_8hpp.html" target="_top" xlink:title="Configuration options. ">
<polygon fill="white" stroke="black" points="910.5,-62 910.5,-81 1009.5,-81 1009.5,-62 910.5,-62"/>
<text text-anchor="middle" x="960" y="-69" font-family="Helvetica,sans-Serif" font-size="10.00">boost/ui/config.hpp</text>
</a>
</g>
</g>
<!-- Node1&#45;&gt;Node2 -->
<g id="edge1" class="edge"><title>Node1&#45;&gt;Node2</title>
<path fill="none" stroke="midnightblue" d="M922.632,-363.832C1030.87,-355.67 1275,-329.253 1275,-257 1275,-257 1275,-257 1275,-193.5 1275,-157.253 1263.64,-143.858 1234,-123 1200.21,-99.2224 1089.48,-84.6898 1019.56,-77.6527"/>
<polygon fill="midnightblue" stroke="midnightblue" points="1019.85,-74.1643 1009.56,-76.6687 1019.17,-81.1307 1019.85,-74.1643"/>
</g>
<!-- Node4 -->
<g id="node4" class="node"><title>Node4</title>
<g id="a_node4"><a xlink:href="strings__box_8hpp.html" target="_top" xlink:title="Widget with array of strings. ">
<polygon fill="white" stroke="black" points="407.5,-302.5 407.5,-321.5 530.5,-321.5 530.5,-302.5 407.5,-302.5"/>
<text text-anchor="middle" x="469" y="-309.5" font-family="Helvetica,sans-Serif" font-size="10.00">boost/ui/strings_box.hpp</text>
</a>
</g>
</g>
<!-- Node1&#45;&gt;Node4 -->
<g id="edge3" class="edge"><title>Node1&#45;&gt;Node4</title>
<path fill="none" stroke="midnightblue" d="M821.368,-360.216C750.513,-350.721 621.425,-333.424 540.709,-322.609"/>
<polygon fill="midnightblue" stroke="midnightblue" points="541.002,-319.117 530.626,-321.258 540.072,-326.055 541.002,-319.117"/>
</g>
<!-- Node3 -->
<g id="node3" class="node"><title>Node3</title>
<polygon fill="white" stroke="#bfbfbf" points="915.5,-0.5 915.5,-19.5 1004.5,-19.5 1004.5,-0.5 915.5,-0.5"/>
<text text-anchor="middle" x="960" y="-7.5" font-family="Helvetica,sans-Serif" font-size="10.00">boost/config.hpp</text>
</g>
<!-- Node2&#45;&gt;Node3 -->
<g id="edge2" class="edge"><title>Node2&#45;&gt;Node3</title>
<path fill="none" stroke="midnightblue" d="M960,-61.9751C960,-53.5803 960,-40.4806 960,-29.6631"/>
<polygon fill="midnightblue" stroke="midnightblue" points="963.5,-29.5091 960,-19.5091 956.5,-29.5091 963.5,-29.5091"/>
</g>
<!-- Node4&#45;&gt;Node2 -->
<g id="edge4" class="edge"><title>Node4&#45;&gt;Node2</title>
<path fill="none" stroke="midnightblue" d="M502.452,-302.351C524.047,-295.403 551.623,-283.817 571,-266 624.292,-216.999 589.92,-164.841 649,-123 651.562,-121.185 810.538,-95.9794 900.165,-81.8811"/>
<polygon fill="midnightblue" stroke="midnightblue" points="900.87,-85.3132 910.205,-80.3025 899.783,-78.3982 900.87,-85.3132"/>
</g>
<!-- Node5 -->
<g id="node5" class="node"><title>Node5</title>
<g id="a_node5"><a xlink:href="widget_8hpp.html" target="_top" xlink:title="Widget class. ">
<polygon fill="white" stroke="black" points="912.5,-246.5 912.5,-265.5 1013.5,-265.5 1013.5,-246.5 912.5,-246.5"/>
<text text-anchor="middle" x="963" y="-253.5" font-family="Helvetica,sans-Serif" font-size="10.00">boost/ui/widget.hpp</text>
</a>
</g>
</g>
<!-- Node4&#45;&gt;Node5 -->
<g id="edge5" class="edge"><title>Node4&#45;&gt;Node5</title>
<path fill="none" stroke="midnightblue" d="M530.567,-304.27C625.77,-293.863 807.588,-273.988 902.277,-263.638"/>
<polygon fill="midnightblue" stroke="midnightblue" points="902.712,-267.111 912.272,-262.545 901.951,-260.153 902.712,-267.111"/>
</g>
<!-- Node23 -->
<g id="node23" class="node"><title>Node23</title>
<polygon fill="white" stroke="#bfbfbf" points="0,-246.5 0,-265.5 44,-265.5 44,-246.5 0,-246.5"/>
<text text-anchor="middle" x="22" y="-253.5" font-family="Helvetica,sans-Serif" font-size="10.00">vector</text>
</g>
<!-- Node4&#45;&gt;Node23 -->
<g id="edge31" class="edge"><title>Node4&#45;&gt;Node23</title>
<path fill="none" stroke="midnightblue" d="M407.169,-307.696C327.542,-302.691 184.835,-291.186 54.404,-265.96"/>
<polygon fill="midnightblue" stroke="midnightblue" points="54.7237,-262.456 44.2363,-263.96 53.3729,-269.324 54.7237,-262.456"/>
</g>
<!-- Node24 -->
<g id="node24" class="node"><title>Node24</title>
<polygon fill="white" stroke="#bfbfbf" points="62.5,-246.5 62.5,-265.5 175.5,-265.5 175.5,-246.5 62.5,-246.5"/>
<text text-anchor="middle" x="119" y="-253.5" font-family="Helvetica,sans-Serif" font-size="10.00">boost/range/begin.hpp</text>
</g>
<!-- Node4&#45;&gt;Node24 -->
<g id="edge32" class="edge"><title>Node4&#45;&gt;Node24</title>
<path fill="none" stroke="midnightblue" d="M413.541,-302.444C351.333,-292.846 250.52,-277.292 184.487,-267.104"/>
<polygon fill="midnightblue" stroke="midnightblue" points="184.616,-263.582 174.199,-265.516 183.548,-270.5 184.616,-263.582"/>
</g>
<!-- Node25 -->
<g id="node25" class="node"><title>Node25</title>
<polygon fill="white" stroke="#bfbfbf" points="193.5,-246.5 193.5,-265.5 298.5,-265.5 298.5,-246.5 193.5,-246.5"/>
<text text-anchor="middle" x="246" y="-253.5" font-family="Helvetica,sans-Serif" font-size="10.00">boost/range/end.hpp</text>
</g>
<!-- Node4&#45;&gt;Node25 -->
<g id="edge33" class="edge"><title>Node4&#45;&gt;Node25</title>
<path fill="none" stroke="midnightblue" d="M433.665,-302.444C395.089,-293.102 333.215,-278.119 291.147,-267.933"/>
<polygon fill="midnightblue" stroke="midnightblue" points="291.713,-264.468 281.17,-265.516 290.065,-271.272 291.713,-264.468"/>
</g>
<!-- Node26 -->
<g id="node26" class="node"><title>Node26</title>
<polygon fill="white" stroke="#bfbfbf" points="316.5,-246.5 316.5,-265.5 423.5,-265.5 423.5,-246.5 316.5,-246.5"/>
<text text-anchor="middle" x="370" y="-253.5" font-family="Helvetica,sans-Serif" font-size="10.00">boost/range/size.hpp</text>
</g>
<!-- Node4&#45;&gt;Node26 -->
<g id="edge34" class="edge"><title>Node4&#45;&gt;Node26</title>
<path fill="none" stroke="midnightblue" d="M453.094,-302.324C437.362,-293.743 413.058,-280.486 394.791,-270.522"/>
<polygon fill="midnightblue" stroke="midnightblue" points="396.322,-267.37 385.867,-265.655 392.97,-273.516 396.322,-267.37"/>
</g>
<!-- Node27 -->
<g id="node27" class="node"><title>Node27</title>
<polygon fill="white" stroke="#bfbfbf" points="441,-246.5 441,-265.5 497,-265.5 497,-246.5 441,-246.5"/>
<text text-anchor="middle" x="469" y="-253.5" font-family="Helvetica,sans-Serif" font-size="10.00">algorithm</text>
</g>
<!-- Node4&#45;&gt;Node27 -->
<g id="edge35" class="edge"><title>Node4&#45;&gt;Node27</title>
<path fill="none" stroke="midnightblue" d="M469,-302.083C469,-295.006 469,-284.861 469,-275.986"/>
<polygon fill="midnightblue" stroke="midnightblue" points="472.5,-275.751 469,-265.751 465.5,-275.751 472.5,-275.751"/>
</g>
<!-- Node28 -->
<g id="node28" class="node"><title>Node28</title>
<polygon fill="white" stroke="#bfbfbf" points="515.5,-246.5 515.5,-265.5 562.5,-265.5 562.5,-246.5 515.5,-246.5"/>
<text text-anchor="middle" x="539" y="-253.5" font-family="Helvetica,sans-Serif" font-size="10.00">iterator</text>
</g>
<!-- Node4&#45;&gt;Node28 -->
<g id="edge36" class="edge"><title>Node4&#45;&gt;Node28</title>
<path fill="none" stroke="midnightblue" d="M480.247,-302.324C490.797,-294.185 506.801,-281.839 519.442,-272.087"/>
<polygon fill="midnightblue" stroke="midnightblue" points="521.769,-274.713 527.549,-265.834 517.493,-269.171 521.769,-274.713"/>
</g>
<!-- Node5&#45;&gt;Node2 -->
<g id="edge6" class="edge"><title>Node5&#45;&gt;Node2</title>
<path fill="none" stroke="midnightblue" d="M988.161,-246.378C1004.42,-239.343 1024.29,-227.645 1034,-210 1040.64,-197.928 1041.85,-190.324 1034,-179 1008.04,-141.546 963.955,-180.454 938,-143 926.751,-126.767 937.003,-104.546 946.955,-89.419"/>
<polygon fill="midnightblue" stroke="midnightblue" points="949.975,-91.2119 952.918,-81.0341 944.27,-87.1551 949.975,-91.2119"/>
</g>
<!-- Node6 -->
<g id="node6" class="node"><title>Node6</title>
<g id="a_node6"><a xlink:href="coord_8hpp.html" target="_top" xlink:title="Coordinates classes. ">
<polygon fill="white" stroke="black" points="497.5,-123.5 497.5,-142.5 594.5,-142.5 594.5,-123.5 497.5,-123.5"/>
<text text-anchor="middle" x="546" y="-130.5" font-family="Helvetica,sans-Serif" font-size="10.00">boost/ui/coord.hpp</text>
</a>
</g>
</g>
<!-- Node5&#45;&gt;Node6 -->
<g id="edge7" class="edge"><title>Node5&#45;&gt;Node6</title>
<path fill="none" stroke="midnightblue" d="M912.351,-255.254C848.586,-253.913 736.772,-245.978 649,-210 614.609,-195.903 581.192,-167.787 562.155,-149.987"/>
<polygon fill="midnightblue" stroke="midnightblue" points="564.335,-147.228 554.691,-142.841 559.494,-152.285 564.335,-147.228"/>
</g>
<!-- Node12 -->
<g id="node12" class="node"><title>Node12</title>
<g id="a_node12"><a xlink:href="string_8hpp.html" target="_top" xlink:title="String class and operations. ">
<polygon fill="white" stroke="black" points="1303.5,-123.5 1303.5,-142.5 1400.5,-142.5 1400.5,-123.5 1303.5,-123.5"/>
<text text-anchor="middle" x="1352" y="-130.5" font-family="Helvetica,sans-Serif" font-size="10.00">boost/ui/string.hpp</text>
</a>
</g>
</g>
<!-- Node5&#45;&gt;Node12 -->
<g id="edge14" class="edge"><title>Node5&#45;&gt;Node12</title>
<path fill="none" stroke="midnightblue" d="M1013.66,-251.177C1066.08,-246.052 1149.68,-234.574 1218,-210 1261.03,-194.52 1306.37,-165.81 1331.72,-148.452"/>
<polygon fill="midnightblue" stroke="midnightblue" points="1333.91,-151.197 1340.12,-142.616 1329.91,-145.449 1333.91,-151.197"/>
</g>
<!-- Node16 -->
<g id="node16" class="node"><title>Node16</title>
<g id="a_node16"><a xlink:href="event_8hpp.html" target="_top" xlink:title="Event classes. ">
<polygon fill="white" stroke="black" points="657.5,-185 657.5,-204 754.5,-204 754.5,-185 657.5,-185"/>
<text text-anchor="middle" x="706" y="-192" font-family="Helvetica,sans-Serif" font-size="10.00">boost/ui/event.hpp</text>
</a>
</g>
</g>
<!-- Node5&#45;&gt;Node16 -->
<g id="edge19" class="edge"><title>Node5&#45;&gt;Node16</title>
<path fill="none" stroke="midnightblue" d="M924.046,-246.464C883.884,-237.6 819.478,-223.206 764,-210 759.324,-208.887 754.441,-207.702 749.58,-206.508"/>
<polygon fill="midnightblue" stroke="midnightblue" points="750.253,-203.069 739.705,-204.063 748.571,-209.864 750.253,-203.069"/>
</g>
<!-- Node18 -->
<g id="node18" class="node"><title>Node18</title>
<g id="a_node18"><a xlink:href="font_8hpp.html" target="_top" xlink:title="Font class. ">
<polygon fill="white" stroke="black" points="1119.5,-185 1119.5,-204 1208.5,-204 1208.5,-185 1119.5,-185"/>
<text text-anchor="middle" x="1164" y="-192" font-family="Helvetica,sans-Serif" font-size="10.00">boost/ui/font.hpp</text>
</a>
</g>
</g>
<!-- Node5&#45;&gt;Node18 -->
<g id="edge23" class="edge"><title>Node5&#45;&gt;Node18</title>
<path fill="none" stroke="midnightblue" d="M991.798,-246.475C1026.87,-236.092 1086.26,-218.512 1125.31,-206.954"/>
<polygon fill="midnightblue" stroke="midnightblue" points="1126.66,-210.204 1135.26,-204.009 1124.67,-203.492 1126.66,-210.204"/>
</g>
<!-- Node20 -->
<g id="node20" class="node"><title>Node20</title>
<g id="a_node20"><a xlink:href="layout_8hpp.html" target="_top" xlink:title="Layout classes. ">
<polygon fill="white" stroke="black" points="946.5,-123.5 946.5,-142.5 1045.5,-142.5 1045.5,-123.5 946.5,-123.5"/>
<text text-anchor="middle" x="996" y="-130.5" font-family="Helvetica,sans-Serif" font-size="10.00">boost/ui/layout.hpp</text>
</a>
</g>
</g>
<!-- Node5&#45;&gt;Node20 -->
<g id="edge27" class="edge"><title>Node5&#45;&gt;Node20</title>
<path fill="none" stroke="midnightblue" d="M1011.05,-246.458C1031.94,-240.101 1054.47,-229.074 1067,-210 1074.56,-198.485 1073.64,-191.072 1067,-179 1059.11,-164.663 1044.51,-154.253 1030.6,-147.079"/>
<polygon fill="midnightblue" stroke="midnightblue" points="1031.7,-143.728 1021.16,-142.622 1028.71,-150.058 1031.7,-143.728"/>
</g>
<!-- Node21 -->
<g id="node21" class="node"><title>Node21</title>
<polygon fill="white" stroke="#bfbfbf" points="773,-179.5 773,-209.5 883,-209.5 883,-179.5 773,-179.5"/>
<text text-anchor="start" x="781" y="-197.5" font-family="Helvetica,sans-Serif" font-size="10.00">boost/ui/detail/shared</text>
<text text-anchor="middle" x="828" y="-186.5" font-family="Helvetica,sans-Serif" font-size="10.00">_count.hpp</text>
</g>
<!-- Node5&#45;&gt;Node21 -->
<g id="edge29" class="edge"><title>Node5&#45;&gt;Node21</title>
<path fill="none" stroke="midnightblue" d="M943.658,-246.475C924.263,-237.927 893.801,-224.501 869.007,-213.573"/>
<polygon fill="midnightblue" stroke="midnightblue" points="870.379,-210.353 859.817,-209.523 867.556,-216.759 870.379,-210.353"/>
</g>
<!-- Node22 -->
<g id="node22" class="node"><title>Node22</title>
<polygon fill="white" stroke="#bfbfbf" points="901.5,-185 901.5,-204 1024.5,-204 1024.5,-185 901.5,-185"/>
<text text-anchor="middle" x="963" y="-192" font-family="Helvetica,sans-Serif" font-size="10.00">boost/ui/detail/event.hpp</text>
</g>
<!-- Node5&#45;&gt;Node22 -->
<g id="edge30" class="edge"><title>Node5&#45;&gt;Node22</title>
<path fill="none" stroke="midnightblue" d="M963,-246.475C963,-238.08 963,-224.981 963,-214.163"/>
<polygon fill="midnightblue" stroke="midnightblue" points="966.5,-214.009 963,-204.009 959.5,-214.009 966.5,-214.009"/>
</g>
<!-- Node6&#45;&gt;Node2 -->
<g id="edge8" class="edge"><title>Node6&#45;&gt;Node2</title>
<path fill="none" stroke="midnightblue" d="M594.837,-125.01C599.623,-124.329 604.405,-123.65 609,-123 723.2,-106.844 751.892,-103.792 866,-87 877.007,-85.3803 888.731,-83.6087 900.032,-81.8775"/>
<polygon fill="midnightblue" stroke="midnightblue" points="900.908,-85.2841 910.26,-80.3045 899.844,-78.3654 900.908,-85.2841"/>
</g>
<!-- Node7 -->
<g id="node7" class="node"><title>Node7</title>
<polygon fill="white" stroke="#bfbfbf" points="753.5,-62 753.5,-81 856.5,-81 856.5,-62 753.5,-62"/>
<text text-anchor="middle" x="805" y="-69" font-family="Helvetica,sans-Serif" font-size="10.00">boost/geometry.hpp</text>
</g>
<!-- Node6&#45;&gt;Node7 -->
<g id="edge9" class="edge"><title>Node6&#45;&gt;Node7</title>
<path fill="none" stroke="midnightblue" d="M583.984,-123.485C623.862,-114.517 688.376,-99.9317 744,-87 748.975,-85.8434 754.175,-84.6237 759.352,-83.4028"/>
<polygon fill="midnightblue" stroke="midnightblue" points="760.285,-86.7787 769.21,-81.0699 758.673,-79.9668 760.285,-86.7787"/>
</g>
<!-- Node8 -->
<g id="node8" class="node"><title>Node8</title>
<polygon fill="white" stroke="#bfbfbf" points="189.5,-56.5 189.5,-86.5 324.5,-86.5 324.5,-56.5 189.5,-56.5"/>
<text text-anchor="start" x="197.5" y="-74.5" font-family="Helvetica,sans-Serif" font-size="10.00">boost/geometry/geometries</text>
<text text-anchor="middle" x="257" y="-63.5" font-family="Helvetica,sans-Serif" font-size="10.00">/point_xy.hpp</text>
</g>
<!-- Node6&#45;&gt;Node8 -->
<g id="edge10" class="edge"><title>Node6&#45;&gt;Node8</title>
<path fill="none" stroke="midnightblue" d="M504.593,-123.475C460.367,-114.37 389.256,-99.7293 334.566,-88.4695"/>
<polygon fill="midnightblue" stroke="midnightblue" points="335.056,-84.9969 324.555,-86.4084 333.644,-91.8531 335.056,-84.9969"/>
</g>
<!-- Node9 -->
<g id="node9" class="node"><title>Node9</title>
<polygon fill="white" stroke="#bfbfbf" points="342.5,-56.5 342.5,-86.5 477.5,-86.5 477.5,-56.5 342.5,-56.5"/>
<text text-anchor="start" x="350.5" y="-74.5" font-family="Helvetica,sans-Serif" font-size="10.00">boost/geometry/geometries</text>
<text text-anchor="middle" x="410" y="-63.5" font-family="Helvetica,sans-Serif" font-size="10.00">/box.hpp</text>
</g>
<!-- Node6&#45;&gt;Node9 -->
<g id="edge11" class="edge"><title>Node6&#45;&gt;Node9</title>
<path fill="none" stroke="midnightblue" d="M526.515,-123.475C506.976,-114.927 476.288,-101.501 451.311,-90.5734"/>
<polygon fill="midnightblue" stroke="midnightblue" points="452.617,-87.3247 442.053,-86.523 449.811,-93.7378 452.617,-87.3247"/>
</g>
<!-- Node10 -->
<g id="node10" class="node"><title>Node10</title>
<polygon fill="white" stroke="#bfbfbf" points="495.5,-56.5 495.5,-86.5 596.5,-86.5 596.5,-56.5 495.5,-56.5"/>
<text text-anchor="start" x="503.5" y="-74.5" font-family="Helvetica,sans-Serif" font-size="10.00">boost/polygon/point</text>
<text text-anchor="middle" x="546" y="-63.5" font-family="Helvetica,sans-Serif" font-size="10.00">_data.hpp</text>
</g>
<!-- Node6&#45;&gt;Node10 -->
<g id="edge12" class="edge"><title>Node6&#45;&gt;Node10</title>
<path fill="none" stroke="midnightblue" d="M546,-123.475C546,-116.471 546,-106.192 546,-96.6956"/>
<polygon fill="midnightblue" stroke="midnightblue" points="549.5,-96.5229 546,-86.523 542.5,-96.523 549.5,-96.5229"/>
</g>
<!-- Node11 -->
<g id="node11" class="node"><title>Node11</title>
<polygon fill="white" stroke="#bfbfbf" points="615,-56.5 615,-86.5 735,-86.5 735,-56.5 615,-56.5"/>
<text text-anchor="start" x="623" y="-74.5" font-family="Helvetica,sans-Serif" font-size="10.00">boost/polygon/rectangle</text>
<text text-anchor="middle" x="675" y="-63.5" font-family="Helvetica,sans-Serif" font-size="10.00">_data.hpp</text>
</g>
<!-- Node6&#45;&gt;Node11 -->
<g id="edge13" class="edge"><title>Node6&#45;&gt;Node11</title>
<path fill="none" stroke="midnightblue" d="M564.483,-123.475C582.934,-114.965 611.867,-101.619 635.502,-90.718"/>
<polygon fill="midnightblue" stroke="midnightblue" points="636.983,-93.8896 644.597,-86.523 634.051,-87.5332 636.983,-93.8896"/>
</g>
<!-- Node12&#45;&gt;Node2 -->
<g id="edge15" class="edge"><title>Node12&#45;&gt;Node2</title>
<path fill="none" stroke="midnightblue" d="M1303.15,-124.585C1231.35,-113.688 1097.49,-93.3695 1019.88,-81.5893"/>
<polygon fill="midnightblue" stroke="midnightblue" points="1020.19,-78.0963 1009.78,-80.0559 1019.14,-85.017 1020.19,-78.0963"/>
</g>
<!-- Node13 -->
<g id="node13" class="node"><title>Node13</title>
<polygon fill="white" stroke="#bfbfbf" points="1399.5,-62 1399.5,-81 1440.5,-81 1440.5,-62 1399.5,-62"/>
<text text-anchor="middle" x="1420" y="-69" font-family="Helvetica,sans-Serif" font-size="10.00">string</text>
</g>
<!-- Node12&#45;&gt;Node13 -->
<g id="edge16" class="edge"><title>Node12&#45;&gt;Node13</title>
<path fill="none" stroke="midnightblue" d="M1361.74,-123.475C1372.35,-114.197 1389.52,-99.1706 1402.48,-87.831"/>
<polygon fill="midnightblue" stroke="midnightblue" points="1405.05,-90.2282 1410.28,-81.0091 1400.44,-84.9601 1405.05,-90.2282"/>
</g>
<!-- Node14 -->
<g id="node14" class="node"><title>Node14</title>
<polygon fill="white" stroke="#bfbfbf" points="1231.5,-62 1231.5,-81 1304.5,-81 1304.5,-62 1231.5,-62"/>
<text text-anchor="middle" x="1268" y="-69" font-family="Helvetica,sans-Serif" font-size="10.00">initializer_list</text>
</g>
<!-- Node12&#45;&gt;Node14 -->
<g id="edge17" class="edge"><title>Node12&#45;&gt;Node14</title>
<path fill="none" stroke="midnightblue" d="M1339.96,-123.475C1326.49,-113.931 1304.43,-98.3073 1288.28,-86.8683"/>
<polygon fill="midnightblue" stroke="midnightblue" points="1290.2,-83.9332 1280.01,-81.0091 1286.15,-89.6454 1290.2,-83.9332"/>
</g>
<!-- Node15 -->
<g id="node15" class="node"><title>Node15</title>
<polygon fill="white" stroke="#bfbfbf" points="1322.5,-62 1322.5,-81 1381.5,-81 1381.5,-62 1322.5,-62"/>
<text text-anchor="middle" x="1352" y="-69" font-family="Helvetica,sans-Serif" font-size="10.00">functional</text>
</g>
<!-- Node12&#45;&gt;Node15 -->
<g id="edge18" class="edge"><title>Node12&#45;&gt;Node15</title>
<path fill="none" stroke="midnightblue" d="M1352,-123.475C1352,-115.08 1352,-101.981 1352,-91.1631"/>
<polygon fill="midnightblue" stroke="midnightblue" points="1355.5,-91.0091 1352,-81.0091 1348.5,-91.0091 1355.5,-91.0091"/>
</g>
<!-- Node16&#45;&gt;Node2 -->
<g id="edge20" class="edge"><title>Node16&#45;&gt;Node2</title>
<path fill="none" stroke="midnightblue" d="M723.861,-184.992C767.568,-164.171 880.143,-110.542 932.484,-85.608"/>
<polygon fill="midnightblue" stroke="midnightblue" points="934.296,-88.6216 941.819,-81.161 931.286,-82.302 934.296,-88.6216"/>
</g>
<!-- Node16&#45;&gt;Node6 -->
<g id="edge21" class="edge"><title>Node16&#45;&gt;Node6</title>
<path fill="none" stroke="midnightblue" d="M683.076,-184.975C655.63,-174.769 609.484,-157.608 578.401,-146.049"/>
<polygon fill="midnightblue" stroke="midnightblue" points="579.474,-142.714 568.882,-142.509 577.035,-149.275 579.474,-142.714"/>
</g>
<!-- Node17 -->
<g id="node17" class="node"><title>Node17</title>
<polygon fill="white" stroke="#bfbfbf" points="657.5,-123.5 657.5,-142.5 754.5,-142.5 754.5,-123.5 657.5,-123.5"/>
<text text-anchor="middle" x="706" y="-130.5" font-family="Helvetica,sans-Serif" font-size="10.00">boost/function.hpp</text>
</g>
<!-- Node16&#45;&gt;Node17 -->
<g id="edge22" class="edge"><title>Node16&#45;&gt;Node17</title>
<path fill="none" stroke="midnightblue" d="M706,-184.975C706,-176.58 706,-163.481 706,-152.663"/>
<polygon fill="midnightblue" stroke="midnightblue" points="709.5,-152.509 706,-142.509 702.5,-152.509 709.5,-152.509"/>
</g>
<!-- Node18&#45;&gt;Node2 -->
<g id="edge24" class="edge"><title>Node18&#45;&gt;Node2</title>
<path fill="none" stroke="midnightblue" d="M1179.04,-184.885C1200.63,-171.448 1235.93,-144.782 1218,-123 1193.37,-93.0864 1087.93,-80.6384 1019.7,-75.6468"/>
<polygon fill="midnightblue" stroke="midnightblue" points="1019.72,-72.1399 1009.5,-74.9357 1019.23,-79.1229 1019.72,-72.1399"/>
</g>
<!-- Node18&#45;&gt;Node12 -->
<g id="edge25" class="edge"><title>Node18&#45;&gt;Node12</title>
<path fill="none" stroke="midnightblue" d="M1190.94,-184.975C1223.6,-174.636 1278.82,-157.161 1315.34,-145.602"/>
<polygon fill="midnightblue" stroke="midnightblue" points="1316.64,-148.863 1325.11,-142.509 1314.52,-142.19 1316.64,-148.863"/>
</g>
<!-- Node19 -->
<g id="node19" class="node"><title>Node19</title>
<polygon fill="white" stroke="#bfbfbf" points="1063.5,-123.5 1063.5,-142.5 1208.5,-142.5 1208.5,-123.5 1063.5,-123.5"/>
<text text-anchor="middle" x="1136" y="-130.5" font-family="Helvetica,sans-Serif" font-size="10.00">boost/core/scoped_enum.hpp</text>
</g>
<!-- Node18&#45;&gt;Node19 -->
<g id="edge26" class="edge"><title>Node18&#45;&gt;Node19</title>
<path fill="none" stroke="midnightblue" d="M1159.99,-184.975C1155.91,-176.315 1149.48,-162.649 1144.3,-151.645"/>
<polygon fill="midnightblue" stroke="midnightblue" points="1147.43,-150.067 1140,-142.509 1141.1,-153.048 1147.43,-150.067"/>
</g>
<!-- Node20&#45;&gt;Node2 -->
<g id="edge28" class="edge"><title>Node20&#45;&gt;Node2</title>
<path fill="none" stroke="midnightblue" d="M990.842,-123.475C985.549,-114.727 977.165,-100.869 970.473,-89.8093"/>
<polygon fill="midnightblue" stroke="midnightblue" points="973.32,-87.7531 965.148,-81.0091 967.33,-91.3768 973.32,-87.7531"/>
</g>
</g>
</svg>
