<?xml version="1.0" encoding="UTF-8" standalone="no"?>
<!DOCTYPE svg PUBLIC "-//W3C//DTD SVG 1.1//EN"
 "http://www.w3.org/Graphics/SVG/1.1/DTD/svg11.dtd">
<!-- Generated by graphviz version 2.38.0 (20140413.2041)
 -->
<!-- Title: boost/ui/choice.hpp Pages: 1 -->
<svg width="5278pt" height="274pt"
 viewBox="0.00 0.00 5277.67 274.00" xmlns="http://www.w3.org/2000/svg" xmlns:xlink="http://www.w3.org/1999/xlink">
<g id="graph0" class="graph" transform="scale(1 1) rotate(0) translate(4 270)">
<title>boost/ui/choice.hpp</title>
<polygon fill="white" stroke="none" points="-4,4 -4,-270 5273.67,-270 5273.67,4 -4,4"/>
<!-- Node1 -->
<g id="node1" class="node"><title>Node1</title>
<polygon fill="#bfbfbf" stroke="black" points="1175,-246.5 1175,-265.5 1276,-265.5 1276,-246.5 1175,-246.5"/>
<text text-anchor="middle" x="1225.5" y="-253.5" font-family="Helvetica,sans-Serif" font-size="10.00">boost/ui/choice.hpp</text>
</g>
<!-- Node2 -->
<g id="node2" class="node"><title>Node2</title>
<g id="a_node2"><a xlink:href="config_8hpp.html" target="_top" xlink:title="Configuration options. ">
<polygon fill="white" stroke="black" points="0,-62 0,-81 99,-81 99,-62 0,-62"/>
<text text-anchor="middle" x="49.5" y="-69" font-family="Helvetica,sans-Serif" font-size="10.00">boost/ui/config.hpp</text>
</a>
</g>
</g>
<!-- Node1&#45;&gt;Node2 -->
<g id="edge1" class="edge"><title>Node1&#45;&gt;Node2</title>
<path fill="none" stroke="midnightblue" d="M1174.87,-254.536C986.583,-252.165 327.921,-237.919 138.5,-154 105.942,-139.576 77.3843,-108.379 61.8673,-89.0394"/>
<polygon fill="midnightblue" stroke="midnightblue" points="64.5889,-86.8377 55.6879,-81.0911 59.0625,-91.1342 64.5889,-86.8377"/>
</g>
<!-- Node4 -->
<g id="node4" class="node"><title>Node4</title>
<g id="a_node4"><a xlink:href="strings__box_8hpp.html" target="_top" xlink:title="Widget with array of strings. ">
<polygon fill="white" stroke="red" points="2298,-190.5 2298,-209.5 2421,-209.5 2421,-190.5 2298,-190.5"/>
<text text-anchor="middle" x="2359.5" y="-197.5" font-family="Helvetica,sans-Serif" font-size="10.00">boost/ui/strings_box.hpp</text>
</a>
</g>
</g>
<!-- Node1&#45;&gt;Node4 -->
<g id="edge3" class="edge"><title>Node1&#45;&gt;Node4</title>
<path fill="none" stroke="midnightblue" d="M1276.06,-252.592C1457.47,-243.954 2076.1,-214.495 2287.78,-204.415"/>
<polygon fill="midnightblue" stroke="midnightblue" points="2288.03,-207.907 2297.85,-203.936 2287.7,-200.915 2288.03,-207.907"/>
</g>
<!-- Node3 -->
<g id="node3" class="node"><title>Node3</title>
<polygon fill="white" stroke="#bfbfbf" points="481,-0.5 481,-19.5 570,-19.5 570,-0.5 481,-0.5"/>
<text text-anchor="middle" x="525.5" y="-7.5" font-family="Helvetica,sans-Serif" font-size="10.00">boost/config.hpp</text>
</g>
<!-- Node2&#45;&gt;Node3 -->
<g id="edge2" class="edge"><title>Node2&#45;&gt;Node3</title>
<path fill="none" stroke="midnightblue" d="M80.873,-61.9657C89.7533,-59.7751 99.4623,-57.5909 108.5,-56 237.185,-33.3479 390.352,-20.3419 470.452,-14.5888"/>
<polygon fill="midnightblue" stroke="midnightblue" points="471.062,-18.0545 480.791,-13.8575 470.568,-11.0719 471.062,-18.0545"/>
</g>
<!-- Node4&#45;&gt;Node2 -->
<g id="edge4" class="edge"><title>Node4&#45;&gt;Node2</title>
<path fill="none" stroke="midnightblue" d="M2297.85,-199.19C1969.5,-200 433.59,-201.221 227.5,-154 168.099,-140.389 104.588,-105.864 71.8634,-86.3984"/>
<polygon fill="midnightblue" stroke="midnightblue" points="73.4753,-83.2831 63.106,-81.1086 69.856,-89.2749 73.4753,-83.2831"/>
</g>
<!-- Node4&#45;&gt;Node3 -->
<g id="edge62" class="edge"><title>Node4&#45;&gt;Node3</title>
<path fill="none" stroke="midnightblue" d="M2421.23,-198.632C2838.99,-196.07 5236.67,-180.229 5262.5,-154 5272.17,-144.182 5271.92,-133.057 5262.5,-123 5107.54,42.4897 4471.04,-64.8191 4244.5,-56 3485.84,-26.4655 982.735,-13.2193 580.317,-11.2588"/>
<polygon fill="midnightblue" stroke="midnightblue" points="580.128,-7.75794 570.111,-11.2093 580.094,-14.7579 580.128,-7.75794"/>
</g>
<!-- Node5 -->
<g id="node5" class="node"><title>Node5</title>
<g id="a_node5"><a xlink:href="widget_8hpp.html" target="_top" xlink:title="Widget class. ">
<polygon fill="white" stroke="red" points="384,-129 384,-148 485,-148 485,-129 384,-129"/>
<text text-anchor="middle" x="434.5" y="-136" font-family="Helvetica,sans-Serif" font-size="10.00">boost/ui/widget.hpp</text>
</a>
</g>
</g>
<!-- Node4&#45;&gt;Node5 -->
<g id="edge5" class="edge"><title>Node4&#45;&gt;Node5</title>
<path fill="none" stroke="midnightblue" d="M2297.82,-199.126C2017.2,-199.45 859.192,-198.042 499.5,-154 492.162,-153.102 484.435,-151.747 476.971,-150.221"/>
<polygon fill="midnightblue" stroke="midnightblue" points="477.532,-146.762 467.017,-148.06 476.047,-153.602 477.532,-146.762"/>
</g>
<!-- Node6 -->
<g id="node6" class="node"><title>Node6</title>
<polygon fill="white" stroke="#bfbfbf" points="117.5,-56.5 117.5,-86.5 217.5,-86.5 217.5,-56.5 117.5,-56.5"/>
<text text-anchor="start" x="125.5" y="-74.5" font-family="Helvetica,sans-Serif" font-size="10.00">boost/preprocessor</text>
<text text-anchor="middle" x="167.5" y="-63.5" font-family="Helvetica,sans-Serif" font-size="10.00">/cat.hpp</text>
</g>
<!-- Node4&#45;&gt;Node6 -->
<g id="edge54" class="edge"><title>Node4&#45;&gt;Node6</title>
<path fill="none" stroke="midnightblue" d="M2297.86,-198.604C1964.81,-196.348 391.591,-184.124 293.5,-154 253.846,-141.822 214.776,-113.264 190.904,-93.4133"/>
<polygon fill="midnightblue" stroke="midnightblue" points="193.004,-90.6051 183.118,-86.796 188.471,-95.939 193.004,-90.6051"/>
</g>
<!-- Node7 -->
<g id="node7" class="node"><title>Node7</title>
<polygon fill="white" stroke="#bfbfbf" points="236,-62 236,-81 285,-81 285,-62 236,-62"/>
<text text-anchor="middle" x="260.5" y="-69" font-family="Helvetica,sans-Serif" font-size="10.00">cstddef</text>
</g>
<!-- Node4&#45;&gt;Node7 -->
<g id="edge31" class="edge"><title>Node4&#45;&gt;Node7</title>
<path fill="none" stroke="midnightblue" d="M2297.96,-198.963C1968.95,-198.6 429.181,-194.724 337.5,-154 307.383,-140.622 283.425,-109.295 270.651,-89.6098"/>
<polygon fill="midnightblue" stroke="midnightblue" points="273.555,-87.6524 265.3,-81.0109 267.612,-91.3506 273.555,-87.6524"/>
</g>
<!-- Node8 -->
<g id="node8" class="node"><title>Node8</title>
<polygon fill="white" stroke="#bfbfbf" points="303,-62 303,-81 354,-81 354,-62 303,-62"/>
<text text-anchor="middle" x="328.5" y="-69" font-family="Helvetica,sans-Serif" font-size="10.00">wchar.h</text>
</g>
<!-- Node4&#45;&gt;Node8 -->
<g id="edge34" class="edge"><title>Node4&#45;&gt;Node8</title>
<path fill="none" stroke="midnightblue" d="M2297.9,-198.514C1966.16,-195.785 405.693,-181.503 364.5,-154 343.423,-139.927 334.579,-110.484 330.943,-91.1095"/>
<polygon fill="midnightblue" stroke="midnightblue" points="334.372,-90.3872 329.35,-81.0579 327.458,-91.4824 334.372,-90.3872"/>
</g>
<!-- Node9 -->
<g id="node9" class="node"><title>Node9</title>
<polygon fill="white" stroke="#bfbfbf" points="372,-56.5 372,-86.5 497,-86.5 497,-56.5 372,-56.5"/>
<text text-anchor="start" x="380" y="-74.5" font-family="Helvetica,sans-Serif" font-size="10.00">boost/type_traits/remove</text>
<text text-anchor="middle" x="434.5" y="-63.5" font-family="Helvetica,sans-Serif" font-size="10.00">_reference.hpp</text>
</g>
<!-- Node4&#45;&gt;Node9 -->
<g id="edge61" class="edge"><title>Node4&#45;&gt;Node9</title>
<path fill="none" stroke="midnightblue" d="M2297.99,-198.777C1966.74,-197.432 408.951,-189.241 374.5,-154 355.904,-134.977 380.292,-109.948 403.324,-92.6709"/>
<polygon fill="midnightblue" stroke="midnightblue" points="405.584,-95.357 411.667,-86.6819 401.502,-89.6706 405.584,-95.357"/>
</g>
<!-- Node10 -->
<g id="node10" class="node"><title>Node10</title>
<polygon fill="white" stroke="#bfbfbf" points="553.5,-56.5 553.5,-86.5 653.5,-86.5 653.5,-56.5 553.5,-56.5"/>
<text text-anchor="start" x="561.5" y="-74.5" font-family="Helvetica,sans-Serif" font-size="10.00">boost/type_traits/is</text>
<text text-anchor="middle" x="603.5" y="-63.5" font-family="Helvetica,sans-Serif" font-size="10.00">_array.hpp</text>
</g>
<!-- Node4&#45;&gt;Node10 -->
<g id="edge25" class="edge"><title>Node4&#45;&gt;Node10</title>
<path fill="none" stroke="midnightblue" d="M2297.9,-198.603C1988.64,-196.467 618.969,-185.253 588.5,-154 573.619,-138.736 580.989,-113.839 589.838,-95.5728"/>
<polygon fill="midnightblue" stroke="midnightblue" points="592.941,-97.1926 594.49,-86.7117 586.743,-93.9387 592.941,-97.1926"/>
</g>
<!-- Node11 -->
<g id="node11" class="node"><title>Node11</title>
<polygon fill="white" stroke="#bfbfbf" points="671.5,-62 671.5,-81 715.5,-81 715.5,-62 671.5,-62"/>
<text text-anchor="middle" x="693.5" y="-69" font-family="Helvetica,sans-Serif" font-size="10.00">vector</text>
</g>
<!-- Node4&#45;&gt;Node11 -->
<g id="edge17" class="edge"><title>Node4&#45;&gt;Node11</title>
<path fill="none" stroke="midnightblue" d="M2297.99,-198.595C1989.98,-196.422 628.787,-185.07 598.5,-154 588.883,-144.134 591.403,-134.809 598.5,-123 602.377,-116.548 639.041,-98.1971 665.663,-85.4914"/>
<polygon fill="midnightblue" stroke="midnightblue" points="667.398,-88.5423 674.937,-81.0982 664.401,-82.2161 667.398,-88.5423"/>
</g>
<!-- Node12 -->
<g id="node12" class="node"><title>Node12</title>
<polygon fill="white" stroke="#bfbfbf" points="733.5,-56.5 733.5,-86.5 833.5,-86.5 833.5,-56.5 733.5,-56.5"/>
<text text-anchor="start" x="741.5" y="-74.5" font-family="Helvetica,sans-Serif" font-size="10.00">boost/type_traits/is</text>
<text text-anchor="middle" x="783.5" y="-63.5" font-family="Helvetica,sans-Serif" font-size="10.00">_void.hpp</text>
</g>
<!-- Node4&#45;&gt;Node12 -->
<g id="edge28" class="edge"><title>Node4&#45;&gt;Node12</title>
<path fill="none" stroke="midnightblue" d="M2297.83,-198.584C1990.59,-196.369 638.596,-184.879 608.5,-154 598.884,-144.133 600.218,-134.01 608.5,-123 612.146,-118.153 674.282,-100.977 723.488,-87.9903"/>
<polygon fill="midnightblue" stroke="midnightblue" points="724.669,-91.2989 733.451,-85.3714 722.889,-84.5289 724.669,-91.2989"/>
</g>
<!-- Node13 -->
<g id="node13" class="node"><title>Node13</title>
<polygon fill="white" stroke="#bfbfbf" points="1911.5,-62 1911.5,-81 1997.5,-81 1997.5,-62 1911.5,-62"/>
<text text-anchor="middle" x="1954.5" y="-69" font-family="Helvetica,sans-Serif" font-size="10.00">boost/mpl/if.hpp</text>
</g>
<!-- Node4&#45;&gt;Node13 -->
<g id="edge29" class="edge"><title>Node4&#45;&gt;Node13</title>
<path fill="none" stroke="midnightblue" d="M2421.17,-198.621C2835.9,-195.999 5202.99,-179.911 5228.5,-154 5238.17,-144.182 5238.17,-132.817 5228.5,-123 5199.01,-93.0533 2427.86,-75.3274 2007.64,-72.8107"/>
<polygon fill="midnightblue" stroke="midnightblue" points="2007.61,-69.3105 1997.59,-72.7507 2007.57,-76.3104 2007.61,-69.3105"/>
</g>
<!-- Node14 -->
<g id="node14" class="node"><title>Node14</title>
<polygon fill="white" stroke="#bfbfbf" points="4135.5,-56.5 4135.5,-86.5 4235.5,-86.5 4235.5,-56.5 4135.5,-56.5"/>
<text text-anchor="start" x="4143.5" y="-74.5" font-family="Helvetica,sans-Serif" font-size="10.00">boost/preprocessor</text>
<text text-anchor="middle" x="4185.5" y="-63.5" font-family="Helvetica,sans-Serif" font-size="10.00">/config/config.hpp</text>
</g>
<!-- Node4&#45;&gt;Node14 -->
<g id="edge56" class="edge"><title>Node4&#45;&gt;Node14</title>
<path fill="none" stroke="midnightblue" d="M2421.2,-198.626C2837.45,-196.035 5219.83,-180.07 5245.5,-154 5255.17,-144.182 5255.01,-132.971 5245.5,-123 5210.83,-86.6382 4465.44,-75.5761 4245.85,-73.1005"/>
<polygon fill="midnightblue" stroke="midnightblue" points="4245.84,-69.6002 4235.8,-72.989 4245.76,-76.5997 4245.84,-69.6002"/>
</g>
<!-- Node15 -->
<g id="node15" class="node"><title>Node15</title>
<polygon fill="white" stroke="#bfbfbf" points="618,-129 618,-148 731,-148 731,-129 618,-129"/>
<text text-anchor="middle" x="674.5" y="-136" font-family="Helvetica,sans-Serif" font-size="10.00">boost/range/begin.hpp</text>
</g>
<!-- Node4&#45;&gt;Node15 -->
<g id="edge18" class="edge"><title>Node4&#45;&gt;Node15</title>
<path fill="none" stroke="midnightblue" d="M2297.81,-198.84C2040.3,-197.932 1050.29,-191.991 740.5,-154 732.97,-153.077 725.033,-151.695 717.376,-150.144"/>
<polygon fill="midnightblue" stroke="midnightblue" points="718.038,-146.707 707.527,-148.034 716.572,-153.552 718.038,-146.707"/>
</g>
<!-- Node16 -->
<g id="node16" class="node"><title>Node16</title>
<polygon fill="white" stroke="#bfbfbf" points="749.5,-129 749.5,-148 865.5,-148 865.5,-129 749.5,-129"/>
<text text-anchor="middle" x="807.5" y="-136" font-family="Helvetica,sans-Serif" font-size="10.00">boost/range/config.hpp</text>
</g>
<!-- Node4&#45;&gt;Node16 -->
<g id="edge19" class="edge"><title>Node4&#45;&gt;Node16</title>
<path fill="none" stroke="midnightblue" d="M2297.62,-198.633C2053.47,-196.951 1156.61,-188.506 874.5,-154 866.861,-153.066 858.806,-151.678 851.033,-150.126"/>
<polygon fill="midnightblue" stroke="midnightblue" points="851.543,-146.657 841.036,-148.015 850.097,-153.506 851.543,-146.657"/>
</g>
<!-- Node17 -->
<g id="node17" class="node"><title>Node17</title>
<polygon fill="white" stroke="#bfbfbf" points="884,-129 884,-148 1003,-148 1003,-129 884,-129"/>
<text text-anchor="middle" x="943.5" y="-136" font-family="Helvetica,sans-Serif" font-size="10.00">boost/range/iterator.hpp</text>
</g>
<!-- Node4&#45;&gt;Node17 -->
<g id="edge20" class="edge"><title>Node4&#45;&gt;Node17</title>
<path fill="none" stroke="midnightblue" d="M2297.94,-198.39C2068.81,-195.895 1265.57,-185.082 1011.5,-154 1003.84,-153.062 995.756,-151.688 987.946,-150.154"/>
<polygon fill="midnightblue" stroke="midnightblue" points="988.396,-146.673 977.894,-148.068 986.974,-153.527 988.396,-146.673"/>
</g>
<!-- Node18 -->
<g id="node18" class="node"><title>Node18</title>
<polygon fill="white" stroke="#bfbfbf" points="1021,-129 1021,-148 1126,-148 1126,-129 1021,-129"/>
<text text-anchor="middle" x="1073.5" y="-136" font-family="Helvetica,sans-Serif" font-size="10.00">boost/range/end.hpp</text>
</g>
<!-- Node4&#45;&gt;Node18 -->
<g id="edge21" class="edge"><title>Node4&#45;&gt;Node18</title>
<path fill="none" stroke="midnightblue" d="M2297.74,-198.305C2082.16,-195.634 1363.78,-184.598 1135.5,-154 1128.73,-153.092 1121.61,-151.777 1114.71,-150.305"/>
<polygon fill="midnightblue" stroke="midnightblue" points="1115.35,-146.861 1104.82,-148.064 1113.8,-153.688 1115.35,-146.861"/>
</g>
<!-- Node19 -->
<g id="node19" class="node"><title>Node19</title>
<polygon fill="white" stroke="#bfbfbf" points="1144.5,-123.5 1144.5,-153.5 1272.5,-153.5 1272.5,-123.5 1144.5,-123.5"/>
<text text-anchor="start" x="1152.5" y="-141.5" font-family="Helvetica,sans-Serif" font-size="10.00">boost/range/detail</text>
<text text-anchor="middle" x="1208.5" y="-130.5" font-family="Helvetica,sans-Serif" font-size="10.00">/implementation_help.hpp</text>
</g>
<!-- Node4&#45;&gt;Node19 -->
<g id="edge22" class="edge"><title>Node4&#45;&gt;Node19</title>
<path fill="none" stroke="midnightblue" d="M2297.7,-197.676C2102.47,-193.298 1499.64,-178.241 1282.55,-153.957"/>
<polygon fill="midnightblue" stroke="midnightblue" points="1282.84,-150.468 1272.5,-152.794 1282.04,-157.421 1282.84,-150.468"/>
</g>
<!-- Node20 -->
<g id="node20" class="node"><title>Node20</title>
<polygon fill="white" stroke="#bfbfbf" points="1290.5,-123.5 1290.5,-153.5 1384.5,-153.5 1384.5,-123.5 1290.5,-123.5"/>
<text text-anchor="start" x="1298.5" y="-141.5" font-family="Helvetica,sans-Serif" font-size="10.00">boost/range/detail</text>
<text text-anchor="middle" x="1337.5" y="-130.5" font-family="Helvetica,sans-Serif" font-size="10.00">/common.hpp</text>
</g>
<!-- Node4&#45;&gt;Node20 -->
<g id="edge23" class="edge"><title>Node4&#45;&gt;Node20</title>
<path fill="none" stroke="midnightblue" d="M2297.99,-197.798C2117.12,-194.004 1588.09,-180.993 1394.77,-153.924"/>
<polygon fill="midnightblue" stroke="midnightblue" points="1395.11,-150.438 1384.71,-152.458 1394.1,-157.365 1395.11,-150.438"/>
</g>
<!-- Node21 -->
<g id="node21" class="node"><title>Node21</title>
<polygon fill="white" stroke="#bfbfbf" points="1402.5,-123.5 1402.5,-153.5 1496.5,-153.5 1496.5,-123.5 1402.5,-123.5"/>
<text text-anchor="start" x="1410.5" y="-141.5" font-family="Helvetica,sans-Serif" font-size="10.00">boost/range/detail</text>
<text text-anchor="middle" x="1449.5" y="-130.5" font-family="Helvetica,sans-Serif" font-size="10.00">/sfinae.hpp</text>
</g>
<!-- Node4&#45;&gt;Node21 -->
<g id="edge24" class="edge"><title>Node4&#45;&gt;Node21</title>
<path fill="none" stroke="midnightblue" d="M2297.7,-197.355C2131.58,-192.681 1677.07,-178.172 1506.79,-153.935"/>
<polygon fill="midnightblue" stroke="midnightblue" points="1507.12,-150.445 1496.72,-152.437 1506.09,-157.369 1507.12,-150.445"/>
</g>
<!-- Node22 -->
<g id="node22" class="node"><title>Node22</title>
<polygon fill="white" stroke="#bfbfbf" points="1514.5,-123.5 1514.5,-153.5 1630.5,-153.5 1630.5,-123.5 1514.5,-123.5"/>
<text text-anchor="start" x="1522.5" y="-141.5" font-family="Helvetica,sans-Serif" font-size="10.00">boost/type_traits/detail</text>
<text text-anchor="middle" x="1572.5" y="-130.5" font-family="Helvetica,sans-Serif" font-size="10.00">/yes_no_type.hpp</text>
</g>
<!-- Node4&#45;&gt;Node22 -->
<g id="edge26" class="edge"><title>Node4&#45;&gt;Node22</title>
<path fill="none" stroke="midnightblue" d="M2297.55,-198.266C2174.19,-196.123 1889.06,-187.766 1640.45,-153.982"/>
<polygon fill="midnightblue" stroke="midnightblue" points="1640.89,-150.509 1630.51,-152.614 1639.94,-157.444 1640.89,-150.509"/>
</g>
<!-- Node23 -->
<g id="node23" class="node"><title>Node23</title>
<polygon fill="white" stroke="#bfbfbf" points="1648.5,-129 1648.5,-148 1688.5,-148 1688.5,-129 1648.5,-129"/>
<text text-anchor="middle" x="1668.5" y="-136" font-family="Helvetica,sans-Serif" font-size="10.00">utility</text>
</g>
<!-- Node4&#45;&gt;Node23 -->
<g id="edge27" class="edge"><title>Node4&#45;&gt;Node23</title>
<path fill="none" stroke="midnightblue" d="M2297.76,-197.9C2155.75,-194.871 1809.55,-184.501 1697.5,-154 1695.78,-153.532 1694.05,-152.959 1692.32,-152.313"/>
<polygon fill="midnightblue" stroke="midnightblue" points="1693.36,-148.943 1682.8,-148.053 1690.5,-155.333 1693.36,-148.943"/>
</g>
<!-- Node24 -->
<g id="node24" class="node"><title>Node24</title>
<polygon fill="white" stroke="#bfbfbf" points="1706.5,-129 1706.5,-148 1798.5,-148 1798.5,-129 1706.5,-129"/>
<text text-anchor="middle" x="1752.5" y="-136" font-family="Helvetica,sans-Serif" font-size="10.00">boost/mpl/int.hpp</text>
</g>
<!-- Node4&#45;&gt;Node24 -->
<g id="edge30" class="edge"><title>Node4&#45;&gt;Node24</title>
<path fill="none" stroke="midnightblue" d="M2297.79,-197.515C2195.3,-194.259 1983.78,-184.179 1807.5,-154 1802.09,-153.073 1796.43,-151.864 1790.89,-150.54"/>
<polygon fill="midnightblue" stroke="midnightblue" points="1791.67,-147.129 1781.12,-148.068 1789.96,-153.915 1791.67,-147.129"/>
</g>
<!-- Node25 -->
<g id="node25" class="node"><title>Node25</title>
<polygon fill="white" stroke="#bfbfbf" points="1816.5,-123.5 1816.5,-153.5 1916.5,-153.5 1916.5,-123.5 1816.5,-123.5"/>
<text text-anchor="start" x="1824.5" y="-141.5" font-family="Helvetica,sans-Serif" font-size="10.00">boost/type_traits/is</text>
<text text-anchor="middle" x="1866.5" y="-130.5" font-family="Helvetica,sans-Serif" font-size="10.00">_same.hpp</text>
</g>
<!-- Node4&#45;&gt;Node25 -->
<g id="edge32" class="edge"><title>Node4&#45;&gt;Node25</title>
<path fill="none" stroke="midnightblue" d="M2297.68,-195.278C2215.15,-189.713 2064.32,-177.463 1926.51,-154.021"/>
<polygon fill="midnightblue" stroke="midnightblue" points="1927.06,-150.564 1916.61,-152.314 1925.87,-157.462 1927.06,-150.564"/>
</g>
<!-- Node26 -->
<g id="node26" class="node"><title>Node26</title>
<polygon fill="white" stroke="#bfbfbf" points="1935,-129 1935,-148 1984,-148 1984,-129 1935,-129"/>
<text text-anchor="middle" x="1959.5" y="-136" font-family="Helvetica,sans-Serif" font-size="10.00">string.h</text>
</g>
<!-- Node4&#45;&gt;Node26 -->
<g id="edge33" class="edge"><title>Node4&#45;&gt;Node26</title>
<path fill="none" stroke="midnightblue" d="M2297.72,-196.911C2223.92,-193.168 2097.27,-182.77 1992.5,-154 1990.21,-153.371 1987.87,-152.609 1985.55,-151.769"/>
<polygon fill="midnightblue" stroke="midnightblue" points="1986.86,-148.524 1976.28,-148.002 1984.23,-155.009 1986.86,-148.524"/>
</g>
<!-- Node27 -->
<g id="node27" class="node"><title>Node27</title>
<polygon fill="white" stroke="#bfbfbf" points="2002,-129 2002,-148 2151,-148 2151,-129 2002,-129"/>
<text text-anchor="middle" x="2076.5" y="-136" font-family="Helvetica,sans-Serif" font-size="10.00">boost/range/const_iterator.hpp</text>
</g>
<!-- Node4&#45;&gt;Node27 -->
<g id="edge35" class="edge"><title>Node4&#45;&gt;Node27</title>
<path fill="none" stroke="midnightblue" d="M2318.95,-190.475C2268.31,-179.827 2181.66,-161.609 2126.82,-150.081"/>
<polygon fill="midnightblue" stroke="midnightblue" points="2127.48,-146.642 2116.97,-148.009 2126.04,-153.492 2127.48,-146.642"/>
</g>
<!-- Node28 -->
<g id="node28" class="node"><title>Node28</title>
<polygon fill="white" stroke="#bfbfbf" points="2169,-129 2169,-148 2276,-148 2276,-129 2169,-129"/>
<text text-anchor="middle" x="2222.5" y="-136" font-family="Helvetica,sans-Serif" font-size="10.00">boost/range/size.hpp</text>
</g>
<!-- Node4&#45;&gt;Node28 -->
<g id="edge36" class="edge"><title>Node4&#45;&gt;Node28</title>
<path fill="none" stroke="midnightblue" d="M2339.87,-190.475C2316.68,-180.401 2277.88,-163.553 2251.29,-152.002"/>
<polygon fill="midnightblue" stroke="midnightblue" points="2252.66,-148.782 2242.09,-148.009 2249.87,-155.203 2252.66,-148.782"/>
</g>
<!-- Node29 -->
<g id="node29" class="node"><title>Node29</title>
<polygon fill="white" stroke="#bfbfbf" points="2294,-129 2294,-148 2425,-148 2425,-129 2294,-129"/>
<text text-anchor="middle" x="2359.5" y="-136" font-family="Helvetica,sans-Serif" font-size="10.00">boost/range/size_type.hpp</text>
</g>
<!-- Node4&#45;&gt;Node29 -->
<g id="edge37" class="edge"><title>Node4&#45;&gt;Node29</title>
<path fill="none" stroke="midnightblue" d="M2359.5,-190.475C2359.5,-182.08 2359.5,-168.981 2359.5,-158.163"/>
<polygon fill="midnightblue" stroke="midnightblue" points="2363,-158.009 2359.5,-148.009 2356,-158.009 2363,-158.009"/>
</g>
<!-- Node30 -->
<g id="node30" class="node"><title>Node30</title>
<polygon fill="white" stroke="#bfbfbf" points="2443,-123.5 2443,-153.5 2556,-153.5 2556,-123.5 2443,-123.5"/>
<text text-anchor="start" x="2451" y="-141.5" font-family="Helvetica,sans-Serif" font-size="10.00">boost/range/difference</text>
<text text-anchor="middle" x="2499.5" y="-130.5" font-family="Helvetica,sans-Serif" font-size="10.00">_type.hpp</text>
</g>
<!-- Node4&#45;&gt;Node30 -->
<g id="edge38" class="edge"><title>Node4&#45;&gt;Node30</title>
<path fill="none" stroke="midnightblue" d="M2379.56,-190.475C2399.67,-181.927 2431.26,-168.501 2456.97,-157.573"/>
<polygon fill="midnightblue" stroke="midnightblue" points="2458.67,-160.656 2466.5,-153.523 2455.93,-154.213 2458.67,-160.656"/>
</g>
<!-- Node31 -->
<g id="node31" class="node"><title>Node31</title>
<polygon fill="white" stroke="#bfbfbf" points="2574,-129 2574,-148 2671,-148 2671,-129 2574,-129"/>
<text text-anchor="middle" x="2622.5" y="-136" font-family="Helvetica,sans-Serif" font-size="10.00">boost/mpl/and.hpp</text>
</g>
<!-- Node4&#45;&gt;Node31 -->
<g id="edge39" class="edge"><title>Node4&#45;&gt;Node31</title>
<path fill="none" stroke="midnightblue" d="M2400.03,-190.464C2441.44,-181.658 2507.56,-167.363 2564.5,-154 2569.24,-152.888 2574.19,-151.696 2579.11,-150.492"/>
<polygon fill="midnightblue" stroke="midnightblue" points="2580.24,-153.819 2589.11,-148.023 2578.56,-147.023 2580.24,-153.819"/>
</g>
<!-- Node32 -->
<g id="node32" class="node"><title>Node32</title>
<polygon fill="white" stroke="#bfbfbf" points="2689.5,-123.5 2689.5,-153.5 2807.5,-153.5 2807.5,-123.5 2689.5,-123.5"/>
<text text-anchor="start" x="2697.5" y="-141.5" font-family="Helvetica,sans-Serif" font-size="10.00">boost/mpl/aux_/config</text>
<text text-anchor="middle" x="2748.5" y="-130.5" font-family="Helvetica,sans-Serif" font-size="10.00">/use_preprocessed.hpp</text>
</g>
<!-- Node4&#45;&gt;Node32 -->
<g id="edge40" class="edge"><title>Node4&#45;&gt;Node32</title>
<path fill="none" stroke="midnightblue" d="M2421.04,-191.597C2485.61,-183.537 2589.98,-169.682 2679.5,-154 2679.6,-153.982 2679.7,-153.964 2679.81,-153.946"/>
<polygon fill="midnightblue" stroke="midnightblue" points="2680.25,-157.424 2689.46,-152.181 2678.99,-150.538 2680.25,-157.424"/>
</g>
<!-- Node33 -->
<g id="node33" class="node"><title>Node33</title>
<polygon fill="white" stroke="#bfbfbf" points="2826,-129 2826,-148 2925,-148 2925,-129 2826,-129"/>
<text text-anchor="middle" x="2875.5" y="-136" font-family="Helvetica,sans-Serif" font-size="10.00">boost/mpl/bool.hpp</text>
</g>
<!-- Node4&#45;&gt;Node33 -->
<g id="edge41" class="edge"><title>Node4&#45;&gt;Node33</title>
<path fill="none" stroke="midnightblue" d="M2421.23,-195.727C2509.39,-190.419 2676.23,-178.015 2816.5,-154 2822.36,-152.997 2828.5,-151.732 2834.52,-150.37"/>
<polygon fill="midnightblue" stroke="midnightblue" points="2835.52,-153.728 2844.44,-148.014 2833.9,-146.917 2835.52,-153.728"/>
</g>
<!-- Node34 -->
<g id="node34" class="node"><title>Node34</title>
<polygon fill="white" stroke="#bfbfbf" points="2943.5,-123.5 2943.5,-153.5 3059.5,-153.5 3059.5,-123.5 2943.5,-123.5"/>
<text text-anchor="start" x="2951.5" y="-141.5" font-family="Helvetica,sans-Serif" font-size="10.00">boost/mpl/aux_/nested</text>
<text text-anchor="middle" x="3001.5" y="-130.5" font-family="Helvetica,sans-Serif" font-size="10.00">_type_wknd.hpp</text>
</g>
<!-- Node4&#45;&gt;Node34 -->
<g id="edge42" class="edge"><title>Node4&#45;&gt;Node34</title>
<path fill="none" stroke="midnightblue" d="M2421.38,-196.825C2525.11,-192.592 2740.74,-181.285 2933.33,-153.871"/>
<polygon fill="midnightblue" stroke="midnightblue" points="2933.95,-157.317 2943.35,-152.426 2932.96,-150.388 2933.95,-157.317"/>
</g>
<!-- Node35 -->
<g id="node35" class="node"><title>Node35</title>
<polygon fill="white" stroke="#bfbfbf" points="3077.5,-129 3077.5,-148 3219.5,-148 3219.5,-129 3077.5,-129"/>
<text text-anchor="middle" x="3148.5" y="-136" font-family="Helvetica,sans-Serif" font-size="10.00">boost/mpl/aux_/na_spec.hpp</text>
</g>
<!-- Node4&#45;&gt;Node35 -->
<g id="edge43" class="edge"><title>Node4&#45;&gt;Node35</title>
<path fill="none" stroke="midnightblue" d="M2421.37,-197.484C2544.82,-193.928 2830.37,-183.038 3068.5,-154 3077.66,-152.883 3087.35,-151.392 3096.72,-149.789"/>
<polygon fill="midnightblue" stroke="midnightblue" points="3097.47,-153.211 3106.7,-148.02 3096.25,-146.318 3097.47,-153.211"/>
</g>
<!-- Node36 -->
<g id="node36" class="node"><title>Node36</title>
<polygon fill="white" stroke="#bfbfbf" points="3237.5,-123.5 3237.5,-153.5 3355.5,-153.5 3355.5,-123.5 3237.5,-123.5"/>
<text text-anchor="start" x="3245.5" y="-141.5" font-family="Helvetica,sans-Serif" font-size="10.00">boost/mpl/aux_/lambda</text>
<text text-anchor="middle" x="3296.5" y="-130.5" font-family="Helvetica,sans-Serif" font-size="10.00">_support.hpp</text>
</g>
<!-- Node4&#45;&gt;Node36 -->
<g id="edge44" class="edge"><title>Node4&#45;&gt;Node36</title>
<path fill="none" stroke="midnightblue" d="M2421.18,-199.149C2562.35,-198.771 2919.84,-193.724 3227.26,-154.016"/>
<polygon fill="midnightblue" stroke="midnightblue" points="3227.8,-157.476 3237.26,-152.71 3226.89,-150.535 3227.8,-157.476"/>
</g>
<!-- Node37 -->
<g id="node37" class="node"><title>Node37</title>
<polygon fill="white" stroke="#bfbfbf" points="3374,-123.5 3374,-153.5 3491,-153.5 3491,-123.5 3374,-123.5"/>
<text text-anchor="start" x="3382" y="-141.5" font-family="Helvetica,sans-Serif" font-size="10.00">boost/mpl/aux_/include</text>
<text text-anchor="middle" x="3432.5" y="-130.5" font-family="Helvetica,sans-Serif" font-size="10.00">_preprocessed.hpp</text>
</g>
<!-- Node4&#45;&gt;Node37 -->
<g id="edge45" class="edge"><title>Node4&#45;&gt;Node37</title>
<path fill="none" stroke="midnightblue" d="M2421.08,-197.578C2607,-193.078 3161.71,-178.077 3363.71,-153.907"/>
<polygon fill="midnightblue" stroke="midnightblue" points="3364.14,-157.381 3373.63,-152.675 3363.28,-150.434 3364.14,-157.381"/>
</g>
<!-- Node38 -->
<g id="node38" class="node"><title>Node38</title>
<polygon fill="white" stroke="#bfbfbf" points="3509,-123.5 3509,-153.5 3622,-153.5 3622,-123.5 3509,-123.5"/>
<text text-anchor="start" x="3517" y="-141.5" font-family="Helvetica,sans-Serif" font-size="10.00">boost/mpl/aux_/config</text>
<text text-anchor="middle" x="3565.5" y="-130.5" font-family="Helvetica,sans-Serif" font-size="10.00">/compiler.hpp</text>
</g>
<!-- Node4&#45;&gt;Node38 -->
<g id="edge46" class="edge"><title>Node4&#45;&gt;Node38</title>
<path fill="none" stroke="midnightblue" d="M2421.25,-198.002C2623.99,-194.504 3268.92,-181.553 3498.76,-153.884"/>
<polygon fill="midnightblue" stroke="midnightblue" points="3499.24,-157.351 3508.73,-152.64 3498.37,-150.404 3499.24,-157.351"/>
</g>
<!-- Node39 -->
<g id="node39" class="node"><title>Node39</title>
<polygon fill="white" stroke="#bfbfbf" points="3640,-123.5 3640,-153.5 3753,-153.5 3753,-123.5 3640,-123.5"/>
<text text-anchor="start" x="3648" y="-141.5" font-family="Helvetica,sans-Serif" font-size="10.00">boost/mpl/aux_/config</text>
<text text-anchor="middle" x="3696.5" y="-130.5" font-family="Helvetica,sans-Serif" font-size="10.00">/dtp.hpp</text>
</g>
<!-- Node4&#45;&gt;Node39 -->
<g id="edge47" class="edge"><title>Node4&#45;&gt;Node39</title>
<path fill="none" stroke="midnightblue" d="M2421.31,-198.293C2639.34,-195.569 3372.73,-184.416 3629.69,-153.889"/>
<polygon fill="midnightblue" stroke="midnightblue" points="3630.23,-157.348 3639.73,-152.655 3629.38,-150.401 3630.23,-157.348"/>
</g>
<!-- Node40 -->
<g id="node40" class="node"><title>Node40</title>
<polygon fill="white" stroke="#bfbfbf" points="3771,-123.5 3771,-153.5 3884,-153.5 3884,-123.5 3771,-123.5"/>
<text text-anchor="start" x="3779" y="-141.5" font-family="Helvetica,sans-Serif" font-size="10.00">boost/mpl/aux_/config</text>
<text text-anchor="middle" x="3827.5" y="-130.5" font-family="Helvetica,sans-Serif" font-size="10.00">/ttp.hpp</text>
</g>
<!-- Node4&#45;&gt;Node40 -->
<g id="edge48" class="edge"><title>Node4&#45;&gt;Node40</title>
<path fill="none" stroke="midnightblue" d="M2421.1,-198.532C2653.25,-196.536 3476.01,-187.313 3760.44,-153.916"/>
<polygon fill="midnightblue" stroke="midnightblue" points="3761.23,-157.346 3770.73,-152.667 3760.38,-150.397 3761.23,-157.346"/>
</g>
<!-- Node41 -->
<g id="node41" class="node"><title>Node41</title>
<polygon fill="white" stroke="#bfbfbf" points="3902,-123.5 3902,-153.5 4015,-153.5 4015,-123.5 3902,-123.5"/>
<text text-anchor="start" x="3910" y="-141.5" font-family="Helvetica,sans-Serif" font-size="10.00">boost/mpl/aux_/config</text>
<text text-anchor="middle" x="3958.5" y="-130.5" font-family="Helvetica,sans-Serif" font-size="10.00">/ctps.hpp</text>
</g>
<!-- Node4&#45;&gt;Node41 -->
<g id="edge49" class="edge"><title>Node4&#45;&gt;Node41</title>
<path fill="none" stroke="midnightblue" d="M2421.25,-198.728C2667.38,-197.406 3579.69,-190.205 3891.35,-153.924"/>
<polygon fill="midnightblue" stroke="midnightblue" points="3892.22,-157.345 3901.73,-152.677 3891.39,-150.395 3892.22,-157.345"/>
</g>
<!-- Node42 -->
<g id="node42" class="node"><title>Node42</title>
<polygon fill="white" stroke="#bfbfbf" points="4033,-123.5 4033,-153.5 4146,-153.5 4146,-123.5 4033,-123.5"/>
<text text-anchor="start" x="4041" y="-141.5" font-family="Helvetica,sans-Serif" font-size="10.00">boost/mpl/aux_/config</text>
<text text-anchor="middle" x="4089.5" y="-130.5" font-family="Helvetica,sans-Serif" font-size="10.00">/msvc.hpp</text>
</g>
<!-- Node4&#45;&gt;Node42 -->
<g id="edge50" class="edge"><title>Node4&#45;&gt;Node42</title>
<path fill="none" stroke="midnightblue" d="M2421.13,-198.894C2680.36,-198.211 3684,-193.118 4022.67,-153.886"/>
<polygon fill="midnightblue" stroke="midnightblue" points="4023.22,-157.345 4032.74,-152.685 4022.39,-150.394 4023.22,-157.345"/>
</g>
<!-- Node43 -->
<g id="node43" class="node"><title>Node43</title>
<polygon fill="white" stroke="#bfbfbf" points="4164,-123.5 4164,-153.5 4277,-153.5 4277,-123.5 4164,-123.5"/>
<text text-anchor="start" x="4172" y="-141.5" font-family="Helvetica,sans-Serif" font-size="10.00">boost/mpl/aux_/config</text>
<text text-anchor="middle" x="4220.5" y="-130.5" font-family="Helvetica,sans-Serif" font-size="10.00">/gcc.hpp</text>
</g>
<!-- Node4&#45;&gt;Node43 -->
<g id="edge51" class="edge"><title>Node4&#45;&gt;Node43</title>
<path fill="none" stroke="midnightblue" d="M2421.3,-199.036C2693.49,-198.954 3787.72,-196.034 4153.65,-153.887"/>
<polygon fill="midnightblue" stroke="midnightblue" points="4154.22,-157.344 4163.74,-152.693 4153.39,-150.393 4154.22,-157.344"/>
</g>
<!-- Node44 -->
<g id="node44" class="node"><title>Node44</title>
<polygon fill="white" stroke="#bfbfbf" points="4295,-123.5 4295,-153.5 4408,-153.5 4408,-123.5 4295,-123.5"/>
<text text-anchor="start" x="4303" y="-141.5" font-family="Helvetica,sans-Serif" font-size="10.00">boost/mpl/aux_/config</text>
<text text-anchor="middle" x="4351.5" y="-130.5" font-family="Helvetica,sans-Serif" font-size="10.00">/workaround.hpp</text>
</g>
<!-- Node4&#45;&gt;Node44 -->
<g id="edge52" class="edge"><title>Node4&#45;&gt;Node44</title>
<path fill="none" stroke="midnightblue" d="M2421.47,-199.187C2706.32,-199.799 3892.5,-199.576 4284.92,-154.002"/>
<polygon fill="midnightblue" stroke="midnightblue" points="4285.38,-157.473 4294.89,-152.813 4284.55,-150.522 4285.38,-157.473"/>
</g>
<!-- Node45 -->
<g id="node45" class="node"><title>Node45</title>
<polygon fill="white" stroke="#bfbfbf" points="4426,-123.5 4426,-153.5 4539,-153.5 4539,-123.5 4426,-123.5"/>
<text text-anchor="start" x="4434" y="-141.5" font-family="Helvetica,sans-Serif" font-size="10.00">boost/mpl/aux_/config</text>
<text text-anchor="middle" x="4482.5" y="-130.5" font-family="Helvetica,sans-Serif" font-size="10.00">/preprocessor.hpp</text>
</g>
<!-- Node4&#45;&gt;Node45 -->
<g id="edge53" class="edge"><title>Node4&#45;&gt;Node45</title>
<path fill="none" stroke="midnightblue" d="M2421.15,-199.294C2717.22,-200.456 3995.77,-202.579 4415.83,-154.012"/>
<polygon fill="midnightblue" stroke="midnightblue" points="4416.38,-157.472 4425.89,-152.819 4415.55,-150.521 4416.38,-157.472"/>
</g>
<!-- Node46 -->
<g id="node46" class="node"><title>Node46</title>
<polygon fill="white" stroke="#bfbfbf" points="4557.5,-123.5 4557.5,-153.5 4657.5,-153.5 4657.5,-123.5 4557.5,-123.5"/>
<text text-anchor="start" x="4565.5" y="-141.5" font-family="Helvetica,sans-Serif" font-size="10.00">boost/preprocessor</text>
<text text-anchor="middle" x="4607.5" y="-130.5" font-family="Helvetica,sans-Serif" font-size="10.00">/stringize.hpp</text>
</g>
<!-- Node4&#45;&gt;Node46 -->
<g id="edge55" class="edge"><title>Node4&#45;&gt;Node46</title>
<path fill="none" stroke="midnightblue" d="M2421.03,-198.545C2749.42,-196.007 4289.98,-182.724 4547.47,-153.812"/>
<polygon fill="midnightblue" stroke="midnightblue" points="4547.93,-157.283 4557.43,-152.601 4547.08,-150.334 4547.93,-157.283"/>
</g>
<!-- Node47 -->
<g id="node47" class="node"><title>Node47</title>
<polygon fill="white" stroke="#bfbfbf" points="4676,-123.5 4676,-153.5 4821,-153.5 4821,-123.5 4676,-123.5"/>
<text text-anchor="start" x="4684" y="-141.5" font-family="Helvetica,sans-Serif" font-size="10.00">boost/mpl/aux_/preprocessed</text>
<text text-anchor="middle" x="4748.5" y="-130.5" font-family="Helvetica,sans-Serif" font-size="10.00">/plain/and.hpp</text>
</g>
<!-- Node4&#45;&gt;Node47 -->
<g id="edge57" class="edge"><title>Node4&#45;&gt;Node47</title>
<path fill="none" stroke="midnightblue" d="M2421.26,-199.096C2738.91,-199.391 4191.82,-198.302 4665.72,-153.934"/>
<polygon fill="midnightblue" stroke="midnightblue" points="4666.08,-157.415 4675.7,-152.978 4665.42,-150.447 4666.08,-157.415"/>
</g>
<!-- Node48 -->
<g id="node48" class="node"><title>Node48</title>
<polygon fill="white" stroke="#bfbfbf" points="4839.5,-123.5 4839.5,-153.5 4955.5,-153.5 4955.5,-123.5 4839.5,-123.5"/>
<text text-anchor="start" x="4847.5" y="-141.5" font-family="Helvetica,sans-Serif" font-size="10.00">boost/range/has_range</text>
<text text-anchor="middle" x="4897.5" y="-130.5" font-family="Helvetica,sans-Serif" font-size="10.00">_iterator.hpp</text>
</g>
<!-- Node4&#45;&gt;Node48 -->
<g id="edge58" class="edge"><title>Node4&#45;&gt;Node48</title>
<path fill="none" stroke="midnightblue" d="M2421.15,-198.597C2774.93,-196.189 4541.1,-182.859 4829.15,-153.91"/>
<polygon fill="midnightblue" stroke="midnightblue" points="4829.58,-157.384 4839.15,-152.829 4828.83,-150.424 4829.58,-157.384"/>
</g>
<!-- Node49 -->
<g id="node49" class="node"><title>Node49</title>
<polygon fill="white" stroke="#bfbfbf" points="4973.5,-129 4973.5,-148 5083.5,-148 5083.5,-129 4973.5,-129"/>
<text text-anchor="middle" x="5028.5" y="-136" font-family="Helvetica,sans-Serif" font-size="10.00">boost/mpl/eval_if.hpp</text>
</g>
<!-- Node4&#45;&gt;Node49 -->
<g id="edge59" class="edge"><title>Node4&#45;&gt;Node49</title>
<path fill="none" stroke="midnightblue" d="M2421.16,-198.694C2790.72,-196.762 4705.02,-185.297 4964.5,-154 4971.81,-153.118 4979.51,-151.758 4986.93,-150.216"/>
<polygon fill="midnightblue" stroke="midnightblue" points="4987.81,-153.606 4996.82,-148.03 4986.3,-146.771 4987.81,-153.606"/>
</g>
<!-- Node50 -->
<g id="node50" class="node"><title>Node50</title>
<polygon fill="white" stroke="#bfbfbf" points="5101.5,-129 5101.5,-148 5219.5,-148 5219.5,-129 5101.5,-129"/>
<text text-anchor="middle" x="5160.5" y="-136" font-family="Helvetica,sans-Serif" font-size="10.00">boost/mpl/has_xxx.hpp</text>
</g>
<!-- Node4&#45;&gt;Node50 -->
<g id="edge60" class="edge"><title>Node4&#45;&gt;Node50</title>
<path fill="none" stroke="midnightblue" d="M2421.07,-198.702C2801,-196.766 4819.32,-185.077 5092.5,-154 5100.43,-153.098 5108.79,-151.696 5116.84,-150.111"/>
<polygon fill="midnightblue" stroke="midnightblue" points="5117.74,-153.499 5126.82,-148.03 5116.31,-146.647 5117.74,-153.499"/>
</g>
<!-- Node5&#45;&gt;Node2 -->
<g id="edge6" class="edge"><title>Node5&#45;&gt;Node2</title>
<path fill="none" stroke="midnightblue" d="M383.997,-131.069C319.716,-122.565 205.377,-106.37 108.5,-87 103.134,-85.9272 97.5208,-84.6938 91.9799,-83.4089"/>
<polygon fill="midnightblue" stroke="midnightblue" points="92.6935,-79.981 82.1542,-81.0641 91.0686,-86.7898 92.6935,-79.981"/>
</g>
<!-- Node5&#45;&gt;Node3 -->
<g id="edge8" class="edge"><title>Node5&#45;&gt;Node3</title>
<path fill="none" stroke="midnightblue" d="M453.023,-128.963C469.25,-120.543 492.252,-106.161 505.5,-87 517.352,-69.8577 522.181,-46.1143 524.148,-29.7504"/>
<polygon fill="midnightblue" stroke="midnightblue" points="527.634,-30.0605 525.104,-19.7723 520.666,-29.393 527.634,-30.0605"/>
</g>
<!-- Node5&#45;&gt;Node6 -->
<g id="edge7" class="edge"><title>Node5&#45;&gt;Node6</title>
<path fill="none" stroke="midnightblue" d="M399.162,-128.952C359.712,-119.403 293.703,-103.404 227.479,-87.2357"/>
<polygon fill="midnightblue" stroke="midnightblue" points="228.255,-83.8224 217.71,-84.8498 226.594,-90.6225 228.255,-83.8224"/>
</g>
<!-- Node5&#45;&gt;Node7 -->
<g id="edge9" class="edge"><title>Node5&#45;&gt;Node7</title>
<path fill="none" stroke="midnightblue" d="M409.084,-128.998C380.697,-119.362 333.48,-102.92 293.5,-87 291.901,-86.3633 290.265,-85.6961 288.618,-85.0123"/>
<polygon fill="midnightblue" stroke="midnightblue" points="289.822,-81.7207 279.251,-81.0108 287.072,-88.1579 289.822,-81.7207"/>
</g>
<!-- Node5&#45;&gt;Node8 -->
<g id="edge10" class="edge"><title>Node5&#45;&gt;Node8</title>
<path fill="none" stroke="midnightblue" d="M420.204,-128.734C402.483,-117.867 372.068,-99.2161 351.156,-86.3931"/>
<polygon fill="midnightblue" stroke="midnightblue" points="352.924,-83.3712 342.569,-81.1273 349.264,-89.3386 352.924,-83.3712"/>
</g>
<!-- Node5&#45;&gt;Node9 -->
<g id="edge11" class="edge"><title>Node5&#45;&gt;Node9</title>
<path fill="none" stroke="midnightblue" d="M434.5,-128.734C434.5,-120.541 434.5,-107.923 434.5,-96.7136"/>
<polygon fill="midnightblue" stroke="midnightblue" points="438,-96.589 434.5,-86.589 431,-96.5891 438,-96.589"/>
</g>
<!-- Node5&#45;&gt;Node10 -->
<g id="edge12" class="edge"><title>Node5&#45;&gt;Node10</title>
<path fill="none" stroke="midnightblue" d="M456.942,-128.869C482.521,-119.031 525.007,-102.689 557.668,-90.1277"/>
<polygon fill="midnightblue" stroke="midnightblue" points="558.95,-93.3846 567.027,-86.5281 556.437,-86.8512 558.95,-93.3846"/>
</g>
<!-- Node5&#45;&gt;Node11 -->
<g id="edge13" class="edge"><title>Node5&#45;&gt;Node11</title>
<path fill="none" stroke="midnightblue" d="M485.182,-129.567C531.971,-121.475 603.004,-107.229 662.5,-87 664.163,-86.4346 665.855,-85.8064 667.548,-85.1375"/>
<polygon fill="midnightblue" stroke="midnightblue" points="669.266,-88.2072 677.045,-81.0143 666.478,-81.7863 669.266,-88.2072"/>
</g>
<!-- Node5&#45;&gt;Node12 -->
<g id="edge14" class="edge"><title>Node5&#45;&gt;Node12</title>
<path fill="none" stroke="midnightblue" d="M485.255,-129.743C541.207,-120.95 634.081,-105.646 723.323,-87.1666"/>
<polygon fill="midnightblue" stroke="midnightblue" points="724.268,-90.5449 733.341,-85.0752 722.837,-83.6926 724.268,-90.5449"/>
</g>
<!-- Node5&#45;&gt;Node13 -->
<g id="edge15" class="edge"><title>Node5&#45;&gt;Node13</title>
<path fill="none" stroke="midnightblue" d="M485.089,-132.671C519.787,-129.509 566.895,-125.513 608.5,-123 1111.1,-92.6458 1720.45,-77.6274 1901.41,-73.6208"/>
<polygon fill="midnightblue" stroke="midnightblue" points="1901.54,-77.1189 1911.46,-73.3999 1901.39,-70.1206 1901.54,-77.1189"/>
</g>
<!-- Node5&#45;&gt;Node14 -->
<g id="edge16" class="edge"><title>Node5&#45;&gt;Node14</title>
<path fill="none" stroke="midnightblue" d="M485.072,-132.358C519.762,-129.059 566.869,-125.026 608.5,-123 1333.28,-87.7268 3715.21,-74.7718 4125.16,-72.7804"/>
<polygon fill="midnightblue" stroke="midnightblue" points="4125.34,-76.2797 4135.32,-72.7314 4125.3,-69.2798 4125.34,-76.2797"/>
</g>
</g>
</svg>
