<?xml version="1.0" encoding="UTF-8" standalone="no"?>
<!DOCTYPE svg PUBLIC "-//W3C//DTD SVG 1.1//EN"
 "http://www.w3.org/Graphics/SVG/1.1/DTD/svg11.dtd">
<!-- Generated by graphviz version 2.43.0 (0)
 -->
<!-- Title: boost/ui/choice.hpp Pages: 1 -->
<svg width="5859pt" height="274pt"
 viewBox="0.00 0.00 5858.71 274.00" xmlns="http://www.w3.org/2000/svg" xmlns:xlink="http://www.w3.org/1999/xlink">
<g id="graph0" class="graph" transform="scale(1 1) rotate(0) translate(4 270)">
<title>boost/ui/choice.hpp</title>
<polygon fill="white" stroke="transparent" points="-4,4 -4,-270 5854.71,-270 5854.71,4 -4,4"/>
<!-- Node1 -->
<g id="node1" class="node">
<title>Node1</title>
<g id="a_node1"><a xlink:title="Choice widget.">
<polygon fill="#bfbfbf" stroke="black" points="1249,-246.5 1249,-265.5 1360,-265.5 1360,-246.5 1249,-246.5"/>
<text text-anchor="middle" x="1304.5" y="-253.5" font-family="Helvetica,sans-Serif" font-size="10.00">boost/ui/choice.hpp</text>
</a>
</g>
</g>
<!-- Node2 -->
<g id="node2" class="node">
<title>Node2</title>
<g id="a_node2"><a xlink:href="config_8hpp.html" target="_top" xlink:title="Configuration options.">
<polygon fill="white" stroke="black" points="0,-62 0,-81 109,-81 109,-62 0,-62"/>
<text text-anchor="middle" x="54.5" y="-69" font-family="Helvetica,sans-Serif" font-size="10.00">boost/ui/config.hpp</text>
</a>
</g>
</g>
<!-- Node1&#45;&gt;Node2 -->
<g id="edge1" class="edge">
<title>Node1&#45;&gt;Node2</title>
<path fill="none" stroke="midnightblue" d="M1248.97,-253.94C1022.4,-249.12 175.54,-226.38 82.5,-154 63.34,-139.09 57.22,-110.35 55.31,-91.29"/>
<polygon fill="midnightblue" stroke="midnightblue" points="58.78,-90.85 54.59,-81.13 51.8,-91.35 58.78,-90.85"/>
</g>
<!-- Node4 -->
<g id="node4" class="node">
<title>Node4</title>
<g id="a_node4"><a xlink:href="strings__box_8hpp.html" target="_top" xlink:title="Widget with array of strings.">
<polygon fill="white" stroke="red" points="2489.5,-190.5 2489.5,-209.5 2625.5,-209.5 2625.5,-190.5 2489.5,-190.5"/>
<text text-anchor="middle" x="2557.5" y="-197.5" font-family="Helvetica,sans-Serif" font-size="10.00">boost/ui/strings_box.hpp</text>
</a>
</g>
</g>
<!-- Node1&#45;&gt;Node4 -->
<g id="edge3" class="edge">
<title>Node1&#45;&gt;Node4</title>
<path fill="none" stroke="midnightblue" d="M1360.36,-252.59C1561.12,-243.94 2246.4,-214.41 2479.3,-204.37"/>
<polygon fill="midnightblue" stroke="midnightblue" points="2479.54,-207.86 2489.38,-203.94 2479.24,-200.87 2479.54,-207.86"/>
</g>
<!-- Node3 -->
<g id="node3" class="node">
<title>Node3</title>
<g id="a_node3"><a xlink:title=" ">
<polygon fill="white" stroke="#bfbfbf" points="89,-0.5 89,-19.5 186,-19.5 186,-0.5 89,-0.5"/>
<text text-anchor="middle" x="137.5" y="-7.5" font-family="Helvetica,sans-Serif" font-size="10.00">boost/config.hpp</text>
</a>
</g>
</g>
<!-- Node2&#45;&gt;Node3 -->
<g id="edge2" class="edge">
<title>Node2&#45;&gt;Node3</title>
<path fill="none" stroke="midnightblue" d="M66.39,-61.98C79.7,-52.43 101.5,-36.81 117.46,-25.37"/>
<polygon fill="midnightblue" stroke="midnightblue" points="119.54,-28.18 125.63,-19.51 115.46,-22.49 119.54,-28.18"/>
</g>
<!-- Node4&#45;&gt;Node2 -->
<g id="edge4" class="edge">
<title>Node4&#45;&gt;Node2</title>
<path fill="none" stroke="midnightblue" d="M2489.3,-198.51C2100.39,-195.63 178.4,-180.07 123.5,-154 95.42,-140.66 74.52,-109.84 63.45,-90.15"/>
<polygon fill="midnightblue" stroke="midnightblue" points="66.49,-88.42 58.69,-81.26 60.32,-91.73 66.49,-88.42"/>
</g>
<!-- Node4&#45;&gt;Node3 -->
<g id="edge20" class="edge">
<title>Node4&#45;&gt;Node3</title>
<path fill="none" stroke="midnightblue" d="M2489.48,-199.27C2136.53,-200.47 521.82,-203.18 304.5,-154 234.08,-138.06 202.76,-142.44 156.5,-87 143.05,-70.88 138.91,-46.56 137.75,-29.8"/>
<polygon fill="midnightblue" stroke="midnightblue" points="141.23,-29.44 137.34,-19.59 134.24,-29.73 141.23,-29.44"/>
</g>
<!-- Node5 -->
<g id="node5" class="node">
<title>Node5</title>
<g id="a_node5"><a xlink:href="widget_8hpp.html" target="_top" xlink:title="Widget class.">
<polygon fill="white" stroke="red" points="439,-129 439,-148 552,-148 552,-129 439,-129"/>
<text text-anchor="middle" x="495.5" y="-136" font-family="Helvetica,sans-Serif" font-size="10.00">boost/ui/widget.hpp</text>
</a>
</g>
</g>
<!-- Node4&#45;&gt;Node5 -->
<g id="edge5" class="edge">
<title>Node4&#45;&gt;Node5</title>
<path fill="none" stroke="midnightblue" d="M2489.48,-199.1C2185.68,-199.27 951.1,-197.27 566.5,-154 558.23,-153.07 549.5,-151.65 541.1,-150.06"/>
<polygon fill="midnightblue" stroke="midnightblue" points="541.55,-146.58 531.06,-148.06 540.18,-153.45 541.55,-146.58"/>
</g>
<!-- Node87 -->
<g id="node6" class="node">
<title>Node87</title>
<g id="a_node6"><a xlink:title=" ">
<polygon fill="white" stroke="#bfbfbf" points="165.5,-56.5 165.5,-86.5 275.5,-86.5 275.5,-56.5 165.5,-56.5"/>
<text text-anchor="start" x="173.5" y="-74.5" font-family="Helvetica,sans-Serif" font-size="10.00">boost/preprocessor</text>
<text text-anchor="middle" x="220.5" y="-63.5" font-family="Helvetica,sans-Serif" font-size="10.00">/cat.hpp</text>
</a>
</g>
</g>
<!-- Node4&#45;&gt;Node87 -->
<g id="edge55" class="edge">
<title>Node4&#45;&gt;Node87</title>
<path fill="none" stroke="midnightblue" d="M2489.45,-199.32C2144.41,-200.71 596.54,-204.08 388.5,-154 337.08,-141.62 282.96,-111.92 250.47,-92"/>
<polygon fill="midnightblue" stroke="midnightblue" points="252.24,-88.98 241.9,-86.66 248.54,-94.92 252.24,-88.98"/>
</g>
<!-- Node260 -->
<g id="node7" class="node">
<title>Node260</title>
<g id="a_node7"><a xlink:title=" ">
<polygon fill="white" stroke="#bfbfbf" points="294,-62 294,-81 451,-81 451,-62 294,-62"/>
<text text-anchor="middle" x="372.5" y="-69" font-family="Helvetica,sans-Serif" font-size="10.00">boost/config/workaround.hpp</text>
</a>
</g>
</g>
<!-- Node4&#45;&gt;Node260 -->
<g id="edge21" class="edge">
<title>Node4&#45;&gt;Node260</title>
<path fill="none" stroke="midnightblue" d="M2489.48,-198.48C2129.9,-195.63 465.09,-180.98 419.5,-154 396.36,-140.31 383.55,-110.53 377.35,-91.01"/>
<polygon fill="midnightblue" stroke="midnightblue" points="380.63,-89.78 374.49,-81.15 373.91,-91.72 380.63,-89.78"/>
</g>
<!-- Node9 -->
<g id="node8" class="node">
<title>Node9</title>
<g id="a_node8"><a xlink:title=" ">
<polygon fill="white" stroke="#bfbfbf" points="469,-62 469,-81 522,-81 522,-62 469,-62"/>
<text text-anchor="middle" x="495.5" y="-69" font-family="Helvetica,sans-Serif" font-size="10.00">cstddef</text>
</a>
</g>
</g>
<!-- Node4&#45;&gt;Node9 -->
<g id="edge32" class="edge">
<title>Node4&#45;&gt;Node9</title>
<path fill="none" stroke="midnightblue" d="M2489.21,-198.86C2129.16,-197.94 466.38,-191.67 429.5,-154 407.76,-131.79 444.36,-102.96 471.16,-86.22"/>
<polygon fill="midnightblue" stroke="midnightblue" points="473.01,-89.19 479.78,-81.03 469.4,-83.19 473.01,-89.19"/>
</g>
<!-- Node277 -->
<g id="node9" class="node">
<title>Node277</title>
<g id="a_node9"><a xlink:title=" ">
<polygon fill="white" stroke="#bfbfbf" points="578.5,-62 578.5,-81 632.5,-81 632.5,-62 578.5,-62"/>
<text text-anchor="middle" x="605.5" y="-69" font-family="Helvetica,sans-Serif" font-size="10.00">wchar.h</text>
</a>
</g>
</g>
<!-- Node4&#45;&gt;Node277 -->
<g id="edge35" class="edge">
<title>Node4&#45;&gt;Node277</title>
<path fill="none" stroke="midnightblue" d="M2489.42,-199.21C2159.15,-199.98 736.45,-200.57 655.5,-154 631.71,-140.31 617.79,-110.3 610.92,-90.76"/>
<polygon fill="midnightblue" stroke="midnightblue" points="614.22,-89.59 607.8,-81.16 607.56,-91.75 614.22,-89.59"/>
</g>
<!-- Node53 -->
<g id="node10" class="node">
<title>Node53</title>
<g id="a_node10"><a xlink:title=" ">
<polygon fill="white" stroke="#bfbfbf" points="650.5,-56.5 650.5,-86.5 760.5,-86.5 760.5,-56.5 650.5,-56.5"/>
<text text-anchor="start" x="658.5" y="-74.5" font-family="Helvetica,sans-Serif" font-size="10.00">boost/type_traits/is</text>
<text text-anchor="middle" x="705.5" y="-63.5" font-family="Helvetica,sans-Serif" font-size="10.00">_array.hpp</text>
</a>
</g>
</g>
<!-- Node4&#45;&gt;Node53 -->
<g id="edge26" class="edge">
<title>Node4&#45;&gt;Node53</title>
<path fill="none" stroke="midnightblue" d="M2489.49,-198.67C2154.87,-196.9 698,-187.29 665.5,-154 648.93,-137.03 665.66,-111.84 682.28,-93.97"/>
<polygon fill="midnightblue" stroke="midnightblue" points="684.8,-96.4 689.29,-86.8 679.79,-91.5 684.8,-96.4"/>
</g>
<!-- Node235 -->
<g id="node11" class="node">
<title>Node235</title>
<g id="a_node11"><a xlink:title=" ">
<polygon fill="white" stroke="#bfbfbf" points="779,-62 779,-81 826,-81 826,-62 779,-62"/>
<text text-anchor="middle" x="802.5" y="-69" font-family="Helvetica,sans-Serif" font-size="10.00">vector</text>
</a>
</g>
</g>
<!-- Node4&#45;&gt;Node235 -->
<g id="edge16" class="edge">
<title>Node4&#45;&gt;Node235</title>
<path fill="none" stroke="midnightblue" d="M2489.3,-198.66C2155.4,-196.85 707.81,-187.1 675.5,-154 665.87,-144.14 667.69,-134.35 675.5,-123 700.85,-86.14 728.12,-104 769.5,-87 770.91,-86.42 772.35,-85.82 773.81,-85.21"/>
<polygon fill="midnightblue" stroke="midnightblue" points="775.57,-88.26 783.37,-81.09 772.8,-81.83 775.57,-88.26"/>
</g>
<!-- Node302 -->
<g id="node12" class="node">
<title>Node302</title>
<g id="a_node12"><a xlink:title=" ">
<polygon fill="white" stroke="#bfbfbf" points="3272.5,-56.5 3272.5,-86.5 3382.5,-86.5 3382.5,-56.5 3272.5,-56.5"/>
<text text-anchor="start" x="3280.5" y="-74.5" font-family="Helvetica,sans-Serif" font-size="10.00">boost/type_traits/is</text>
<text text-anchor="middle" x="3327.5" y="-63.5" font-family="Helvetica,sans-Serif" font-size="10.00">_void.hpp</text>
</a>
</g>
</g>
<!-- Node4&#45;&gt;Node302 -->
<g id="edge29" class="edge">
<title>Node4&#45;&gt;Node302</title>
<path fill="none" stroke="midnightblue" d="M2625.51,-198.71C3091.65,-196.67 5797.36,-183.54 5826.5,-154 5836.18,-144.19 5836.14,-132.84 5826.5,-123 5804.56,-100.61 3783.98,-77.47 3392.7,-73.2"/>
<polygon fill="midnightblue" stroke="midnightblue" points="3392.71,-69.7 3382.67,-73.09 3392.64,-76.7 3392.71,-69.7"/>
</g>
<!-- Node114 -->
<g id="node13" class="node">
<title>Node114</title>
<g id="a_node13"><a xlink:title=" ">
<polygon fill="white" stroke="#bfbfbf" points="4614.5,-56.5 4614.5,-86.5 4724.5,-86.5 4724.5,-56.5 4614.5,-56.5"/>
<text text-anchor="start" x="4622.5" y="-74.5" font-family="Helvetica,sans-Serif" font-size="10.00">boost/preprocessor</text>
<text text-anchor="middle" x="4669.5" y="-63.5" font-family="Helvetica,sans-Serif" font-size="10.00">/config/config.hpp</text>
</a>
</g>
</g>
<!-- Node4&#45;&gt;Node114 -->
<g id="edge57" class="edge">
<title>Node4&#45;&gt;Node114</title>
<path fill="none" stroke="midnightblue" d="M2625.86,-198.72C3094.43,-196.7 5814.21,-183.69 5843.5,-154 5853.18,-144.19 5853.03,-132.95 5843.5,-123 5804.94,-82.74 4976.13,-74.41 4734.85,-72.84"/>
<polygon fill="midnightblue" stroke="midnightblue" points="4734.84,-69.34 4724.82,-72.78 4734.8,-76.34 4734.84,-69.34"/>
</g>
<!-- Node158 -->
<g id="node14" class="node">
<title>Node158</title>
<g id="a_node14"><a xlink:title=" ">
<polygon fill="white" stroke="#bfbfbf" points="685,-129 685,-148 810,-148 810,-129 685,-129"/>
<text text-anchor="middle" x="747.5" y="-136" font-family="Helvetica,sans-Serif" font-size="10.00">boost/range/begin.hpp</text>
</a>
</g>
</g>
<!-- Node4&#45;&gt;Node158 -->
<g id="edge17" class="edge">
<title>Node4&#45;&gt;Node158</title>
<path fill="none" stroke="midnightblue" d="M2489.41,-198.81C2210.15,-197.79 1151.68,-191.46 819.5,-154 811.03,-153.04 802.08,-151.6 793.47,-149.99"/>
<polygon fill="midnightblue" stroke="midnightblue" points="794.05,-146.53 783.57,-148.03 792.7,-153.4 794.05,-146.53"/>
</g>
<!-- Node44 -->
<g id="node15" class="node">
<title>Node44</title>
<g id="a_node15"><a xlink:title=" ">
<polygon fill="white" stroke="#bfbfbf" points="828.5,-129 828.5,-148 956.5,-148 956.5,-129 828.5,-129"/>
<text text-anchor="middle" x="892.5" y="-136" font-family="Helvetica,sans-Serif" font-size="10.00">boost/range/config.hpp</text>
</a>
</g>
</g>
<!-- Node4&#45;&gt;Node44 -->
<g id="edge18" class="edge">
<title>Node4&#45;&gt;Node44</title>
<path fill="none" stroke="midnightblue" d="M2489.39,-198.6C2225.15,-196.8 1267.57,-188.03 965.5,-154 956.92,-153.03 947.84,-151.58 939.11,-149.97"/>
<polygon fill="midnightblue" stroke="midnightblue" points="939.56,-146.49 929.07,-148.01 938.22,-153.36 939.56,-146.49"/>
</g>
<!-- Node33 -->
<g id="node16" class="node">
<title>Node33</title>
<g id="a_node16"><a xlink:title=" ">
<polygon fill="white" stroke="#bfbfbf" points="974.5,-129 974.5,-148 1108.5,-148 1108.5,-129 974.5,-129"/>
<text text-anchor="middle" x="1041.5" y="-136" font-family="Helvetica,sans-Serif" font-size="10.00">boost/range/iterator.hpp</text>
</a>
</g>
</g>
<!-- Node4&#45;&gt;Node33 -->
<g id="edge19" class="edge">
<title>Node4&#45;&gt;Node33</title>
<path fill="none" stroke="midnightblue" d="M2489.22,-198.29C2241.2,-195.49 1388.33,-183.88 1117.5,-154 1108.58,-153.02 1099.13,-151.56 1090.04,-149.94"/>
<polygon fill="midnightblue" stroke="midnightblue" points="1090.46,-146.45 1079.99,-148.06 1089.17,-153.34 1090.46,-146.45"/>
</g>
<!-- Node159 -->
<g id="node17" class="node">
<title>Node159</title>
<g id="a_node17"><a xlink:title=" ">
<polygon fill="white" stroke="#bfbfbf" points="1126.5,-129 1126.5,-148 1242.5,-148 1242.5,-129 1126.5,-129"/>
<text text-anchor="middle" x="1184.5" y="-136" font-family="Helvetica,sans-Serif" font-size="10.00">boost/range/end.hpp</text>
</a>
</g>
</g>
<!-- Node4&#45;&gt;Node159 -->
<g id="edge22" class="edge">
<title>Node4&#45;&gt;Node159</title>
<path fill="none" stroke="midnightblue" d="M2489.21,-198.26C2256.36,-195.48 1494.5,-184.24 1251.5,-154 1243.95,-153.06 1235.98,-151.68 1228.29,-150.15"/>
<polygon fill="midnightblue" stroke="midnightblue" points="1228.89,-146.7 1218.38,-148.06 1227.45,-153.55 1228.89,-146.7"/>
</g>
<!-- Node345 -->
<g id="node18" class="node">
<title>Node345</title>
<g id="a_node18"><a xlink:title=" ">
<polygon fill="white" stroke="#bfbfbf" points="1261,-123.5 1261,-153.5 1406,-153.5 1406,-123.5 1261,-123.5"/>
<text text-anchor="start" x="1269" y="-141.5" font-family="Helvetica,sans-Serif" font-size="10.00">boost/range/detail</text>
<text text-anchor="middle" x="1333.5" y="-130.5" font-family="Helvetica,sans-Serif" font-size="10.00">/implementation_help.hpp</text>
</a>
</g>
</g>
<!-- Node4&#45;&gt;Node345 -->
<g id="edge23" class="edge">
<title>Node4&#45;&gt;Node345</title>
<path fill="none" stroke="midnightblue" d="M2489.3,-199.58C2313.13,-200.39 1828.36,-198.15 1416.31,-154.1"/>
<polygon fill="midnightblue" stroke="midnightblue" points="1416.61,-150.61 1406.29,-153.02 1415.86,-157.57 1416.61,-150.61"/>
</g>
<!-- Node346 -->
<g id="node19" class="node">
<title>Node346</title>
<g id="a_node19"><a xlink:title=" ">
<polygon fill="white" stroke="#bfbfbf" points="1424,-123.5 1424,-153.5 1529,-153.5 1529,-123.5 1424,-123.5"/>
<text text-anchor="start" x="1432" y="-141.5" font-family="Helvetica,sans-Serif" font-size="10.00">boost/range/detail</text>
<text text-anchor="middle" x="1476.5" y="-130.5" font-family="Helvetica,sans-Serif" font-size="10.00">/common.hpp</text>
</a>
</g>
</g>
<!-- Node4&#45;&gt;Node346 -->
<g id="edge24" class="edge">
<title>Node4&#45;&gt;Node346</title>
<path fill="none" stroke="midnightblue" d="M2489.45,-197.68C2295.42,-193.65 1740.98,-180.24 1539.2,-154.03"/>
<polygon fill="midnightblue" stroke="midnightblue" points="1539.66,-150.56 1529.28,-152.69 1538.73,-157.5 1539.66,-150.56"/>
</g>
<!-- Node347 -->
<g id="node20" class="node">
<title>Node347</title>
<g id="a_node20"><a xlink:title=" ">
<polygon fill="white" stroke="#bfbfbf" points="1547,-123.5 1547,-153.5 1652,-153.5 1652,-123.5 1547,-123.5"/>
<text text-anchor="start" x="1555" y="-141.5" font-family="Helvetica,sans-Serif" font-size="10.00">boost/range/detail</text>
<text text-anchor="middle" x="1599.5" y="-130.5" font-family="Helvetica,sans-Serif" font-size="10.00">/sfinae.hpp</text>
</a>
</g>
</g>
<!-- Node4&#45;&gt;Node347 -->
<g id="edge25" class="edge">
<title>Node4&#45;&gt;Node347</title>
<path fill="none" stroke="midnightblue" d="M2489.38,-199.73C2340.74,-200.44 1976.17,-197.28 1662.35,-153.92"/>
<polygon fill="midnightblue" stroke="midnightblue" points="1662.53,-150.41 1652.14,-152.49 1661.56,-157.34 1662.53,-150.41"/>
</g>
<!-- Node199 -->
<g id="node21" class="node">
<title>Node199</title>
<g id="a_node21"><a xlink:title=" ">
<polygon fill="white" stroke="#bfbfbf" points="1670.5,-123.5 1670.5,-153.5 1800.5,-153.5 1800.5,-123.5 1670.5,-123.5"/>
<text text-anchor="start" x="1678.5" y="-141.5" font-family="Helvetica,sans-Serif" font-size="10.00">boost/type_traits/detail</text>
<text text-anchor="middle" x="1735.5" y="-130.5" font-family="Helvetica,sans-Serif" font-size="10.00">/yes_no_type.hpp</text>
</a>
</g>
</g>
<!-- Node4&#45;&gt;Node199 -->
<g id="edge27" class="edge">
<title>Node4&#45;&gt;Node199</title>
<path fill="none" stroke="midnightblue" d="M2489.4,-197.94C2359.36,-195.25 2066.58,-186.02 1811.02,-154.08"/>
<polygon fill="midnightblue" stroke="midnightblue" points="1811.15,-150.57 1800.79,-152.78 1810.28,-157.51 1811.15,-150.57"/>
</g>
<!-- Node348 -->
<g id="node22" class="node">
<title>Node348</title>
<g id="a_node22"><a xlink:title=" ">
<polygon fill="white" stroke="#bfbfbf" points="1819,-129 1819,-148 1864,-148 1864,-129 1819,-129"/>
<text text-anchor="middle" x="1841.5" y="-136" font-family="Helvetica,sans-Serif" font-size="10.00">utility</text>
</a>
</g>
</g>
<!-- Node4&#45;&gt;Node348 -->
<g id="edge28" class="edge">
<title>Node4&#45;&gt;Node348</title>
<path fill="none" stroke="midnightblue" d="M2489.24,-197.72C2339.77,-194.4 1987.71,-183.61 1872.5,-154 1870.51,-153.49 1868.5,-152.85 1866.5,-152.14"/>
<polygon fill="midnightblue" stroke="midnightblue" points="1867.42,-148.72 1856.85,-148.05 1864.7,-155.17 1867.42,-148.72"/>
</g>
<!-- Node101 -->
<g id="node23" class="node">
<title>Node101</title>
<g id="a_node23"><a xlink:title=" ">
<polygon fill="white" stroke="#bfbfbf" points="1882,-129 1882,-148 1977,-148 1977,-129 1882,-129"/>
<text text-anchor="middle" x="1929.5" y="-136" font-family="Helvetica,sans-Serif" font-size="10.00">boost/mpl/if.hpp</text>
</a>
</g>
</g>
<!-- Node4&#45;&gt;Node101 -->
<g id="edge30" class="edge">
<title>Node4&#45;&gt;Node101</title>
<path fill="none" stroke="midnightblue" d="M2489.37,-197.38C2381.85,-193.98 2166.53,-183.77 1986.5,-154 1980.9,-153.07 1975.04,-151.86 1969.3,-150.54"/>
<polygon fill="midnightblue" stroke="midnightblue" points="1969.72,-147.04 1959.18,-148.07 1968.06,-153.84 1969.72,-147.04"/>
</g>
<!-- Node10 -->
<g id="node24" class="node">
<title>Node10</title>
<g id="a_node24"><a xlink:title=" ">
<polygon fill="white" stroke="#bfbfbf" points="1995.5,-129 1995.5,-148 2097.5,-148 2097.5,-129 1995.5,-129"/>
<text text-anchor="middle" x="2046.5" y="-136" font-family="Helvetica,sans-Serif" font-size="10.00">boost/mpl/int.hpp</text>
</a>
</g>
</g>
<!-- Node4&#45;&gt;Node10 -->
<g id="edge31" class="edge">
<title>Node4&#45;&gt;Node10</title>
<path fill="none" stroke="midnightblue" d="M2489.49,-195.14C2400.86,-189.44 2241.29,-176.9 2106.5,-154 2100.61,-153 2094.44,-151.75 2088.4,-150.4"/>
<polygon fill="midnightblue" stroke="midnightblue" points="2088.94,-146.93 2078.4,-148.07 2087.35,-153.75 2088.94,-146.93"/>
</g>
<!-- Node78 -->
<g id="node25" class="node">
<title>Node78</title>
<g id="a_node25"><a xlink:title=" ">
<polygon fill="white" stroke="#bfbfbf" points="2115.5,-123.5 2115.5,-153.5 2225.5,-153.5 2225.5,-123.5 2115.5,-123.5"/>
<text text-anchor="start" x="2123.5" y="-141.5" font-family="Helvetica,sans-Serif" font-size="10.00">boost/type_traits/is</text>
<text text-anchor="middle" x="2170.5" y="-130.5" font-family="Helvetica,sans-Serif" font-size="10.00">_same.hpp</text>
</a>
</g>
</g>
<!-- Node4&#45;&gt;Node78 -->
<g id="edge33" class="edge">
<title>Node4&#45;&gt;Node78</title>
<path fill="none" stroke="midnightblue" d="M2489.49,-191.22C2426.18,-183.59 2329,-170.9 2235.51,-154.09"/>
<polygon fill="midnightblue" stroke="midnightblue" points="2236.06,-150.64 2225.6,-152.29 2234.81,-157.52 2236.06,-150.64"/>
</g>
<!-- Node349 -->
<g id="node26" class="node">
<title>Node349</title>
<g id="a_node26"><a xlink:title=" ">
<polygon fill="white" stroke="#bfbfbf" points="2244,-129 2244,-148 2297,-148 2297,-129 2244,-129"/>
<text text-anchor="middle" x="2270.5" y="-136" font-family="Helvetica,sans-Serif" font-size="10.00">string.h</text>
</a>
</g>
</g>
<!-- Node4&#45;&gt;Node349 -->
<g id="edge34" class="edge">
<title>Node4&#45;&gt;Node349</title>
<path fill="none" stroke="midnightblue" d="M2489.47,-190.91C2438.23,-183.84 2366.6,-171.88 2305.5,-154 2303.21,-153.33 2300.87,-152.56 2298.53,-151.73"/>
<polygon fill="midnightblue" stroke="midnightblue" points="2299.71,-148.43 2289.12,-148.09 2297.19,-154.96 2299.71,-148.43"/>
</g>
<!-- Node350 -->
<g id="node27" class="node">
<title>Node350</title>
<g id="a_node27"><a xlink:title=" ">
<polygon fill="white" stroke="#bfbfbf" points="2315,-129 2315,-148 2480,-148 2480,-129 2315,-129"/>
<text text-anchor="middle" x="2397.5" y="-136" font-family="Helvetica,sans-Serif" font-size="10.00">boost/range/const_iterator.hpp</text>
</a>
</g>
</g>
<!-- Node4&#45;&gt;Node350 -->
<g id="edge36" class="edge">
<title>Node4&#45;&gt;Node350</title>
<path fill="none" stroke="midnightblue" d="M2534.58,-190.48C2507.13,-180.27 2460.98,-163.11 2429.9,-151.55"/>
<polygon fill="midnightblue" stroke="midnightblue" points="2430.97,-148.21 2420.38,-148.01 2428.53,-154.78 2430.97,-148.21"/>
</g>
<!-- Node162 -->
<g id="node28" class="node">
<title>Node162</title>
<g id="a_node28"><a xlink:title=" ">
<polygon fill="white" stroke="#bfbfbf" points="2498.5,-129 2498.5,-148 2616.5,-148 2616.5,-129 2498.5,-129"/>
<text text-anchor="middle" x="2557.5" y="-136" font-family="Helvetica,sans-Serif" font-size="10.00">boost/range/size.hpp</text>
</a>
</g>
</g>
<!-- Node4&#45;&gt;Node162 -->
<g id="edge37" class="edge">
<title>Node4&#45;&gt;Node162</title>
<path fill="none" stroke="midnightblue" d="M2557.5,-190.48C2557.5,-182.08 2557.5,-168.98 2557.5,-158.16"/>
<polygon fill="midnightblue" stroke="midnightblue" points="2561,-158.01 2557.5,-148.01 2554,-158.01 2561,-158.01"/>
</g>
<!-- Node41 -->
<g id="node29" class="node">
<title>Node41</title>
<g id="a_node29"><a xlink:title=" ">
<polygon fill="white" stroke="#bfbfbf" points="2635,-129 2635,-148 2780,-148 2780,-129 2635,-129"/>
<text text-anchor="middle" x="2707.5" y="-136" font-family="Helvetica,sans-Serif" font-size="10.00">boost/range/size_type.hpp</text>
</a>
</g>
</g>
<!-- Node4&#45;&gt;Node41 -->
<g id="edge38" class="edge">
<title>Node4&#45;&gt;Node41</title>
<path fill="none" stroke="midnightblue" d="M2578.99,-190.48C2604.61,-180.31 2647.61,-163.26 2676.74,-151.7"/>
<polygon fill="midnightblue" stroke="midnightblue" points="2678.04,-154.95 2686.05,-148.01 2675.46,-148.44 2678.04,-154.95"/>
</g>
<!-- Node42 -->
<g id="node30" class="node">
<title>Node42</title>
<g id="a_node30"><a xlink:title=" ">
<polygon fill="white" stroke="#bfbfbf" points="2798.5,-123.5 2798.5,-153.5 2924.5,-153.5 2924.5,-123.5 2798.5,-123.5"/>
<text text-anchor="start" x="2806.5" y="-141.5" font-family="Helvetica,sans-Serif" font-size="10.00">boost/range/difference</text>
<text text-anchor="middle" x="2861.5" y="-130.5" font-family="Helvetica,sans-Serif" font-size="10.00">_type.hpp</text>
</a>
</g>
</g>
<!-- Node4&#45;&gt;Node42 -->
<g id="edge39" class="edge">
<title>Node4&#45;&gt;Node42</title>
<path fill="none" stroke="midnightblue" d="M2601.79,-190.42C2646.21,-181.81 2716.85,-168.08 2788.13,-154.07"/>
<polygon fill="midnightblue" stroke="midnightblue" points="2789.06,-157.45 2798.19,-152.09 2787.71,-150.58 2789.06,-157.45"/>
</g>
<!-- Node202 -->
<g id="node31" class="node">
<title>Node202</title>
<g id="a_node31"><a xlink:title=" ">
<polygon fill="white" stroke="#bfbfbf" points="2943,-129 2943,-148 3050,-148 3050,-129 2943,-129"/>
<text text-anchor="middle" x="2996.5" y="-136" font-family="Helvetica,sans-Serif" font-size="10.00">boost/mpl/and.hpp</text>
</a>
</g>
</g>
<!-- Node4&#45;&gt;Node202 -->
<g id="edge40" class="edge">
<title>Node4&#45;&gt;Node202</title>
<path fill="none" stroke="midnightblue" d="M2625.75,-193.05C2701.33,-185.94 2826.64,-172.64 2933.5,-154 2939.67,-152.92 2946.14,-151.63 2952.49,-150.26"/>
<polygon fill="midnightblue" stroke="midnightblue" points="2953.31,-153.66 2962.3,-148.07 2951.78,-146.83 2953.31,-153.66"/>
</g>
<!-- Node351 -->
<g id="node32" class="node">
<title>Node351</title>
<g id="a_node32"><a xlink:title=" ">
<polygon fill="white" stroke="#bfbfbf" points="3068.5,-123.5 3068.5,-153.5 3196.5,-153.5 3196.5,-123.5 3068.5,-123.5"/>
<text text-anchor="start" x="3076.5" y="-141.5" font-family="Helvetica,sans-Serif" font-size="10.00">boost/mpl/aux_/config</text>
<text text-anchor="middle" x="3132.5" y="-130.5" font-family="Helvetica,sans-Serif" font-size="10.00">/use_preprocessed.hpp</text>
</a>
</g>
</g>
<!-- Node4&#45;&gt;Node351 -->
<g id="edge41" class="edge">
<title>Node4&#45;&gt;Node351</title>
<path fill="none" stroke="midnightblue" d="M2625.83,-195.12C2722.51,-189.12 2904.61,-175.93 3058.5,-154 3058.6,-153.99 3058.7,-153.97 3058.8,-153.96"/>
<polygon fill="midnightblue" stroke="midnightblue" points="3059.04,-157.46 3068.39,-152.48 3057.98,-150.54 3059.04,-157.46"/>
</g>
<!-- Node192 -->
<g id="node33" class="node">
<title>Node192</title>
<g id="a_node33"><a xlink:title=" ">
<polygon fill="white" stroke="#bfbfbf" points="3214.5,-129 3214.5,-148 3324.5,-148 3324.5,-129 3214.5,-129"/>
<text text-anchor="middle" x="3269.5" y="-136" font-family="Helvetica,sans-Serif" font-size="10.00">boost/mpl/bool.hpp</text>
</a>
</g>
</g>
<!-- Node4&#45;&gt;Node192 -->
<g id="edge42" class="edge">
<title>Node4&#45;&gt;Node192</title>
<path fill="none" stroke="midnightblue" d="M2625.5,-197.71C2743.93,-194.69 2995.47,-184.9 3205.5,-154 3212.32,-153 3219.48,-151.66 3226.45,-150.2"/>
<polygon fill="midnightblue" stroke="midnightblue" points="3227.45,-153.57 3236.46,-148 3225.95,-146.73 3227.45,-153.57"/>
</g>
<!-- Node352 -->
<g id="node34" class="node">
<title>Node352</title>
<g id="a_node34"><a xlink:title=" ">
<polygon fill="white" stroke="#bfbfbf" points="3342.5,-123.5 3342.5,-153.5 3470.5,-153.5 3470.5,-123.5 3342.5,-123.5"/>
<text text-anchor="start" x="3350.5" y="-141.5" font-family="Helvetica,sans-Serif" font-size="10.00">boost/mpl/aux_/nested</text>
<text text-anchor="middle" x="3406.5" y="-130.5" font-family="Helvetica,sans-Serif" font-size="10.00">_type_wknd.hpp</text>
</a>
</g>
</g>
<!-- Node4&#45;&gt;Node352 -->
<g id="edge43" class="edge">
<title>Node4&#45;&gt;Node352</title>
<path fill="none" stroke="midnightblue" d="M2625.52,-198.21C2759.15,-195.97 3065.4,-187.44 3332.22,-154.04"/>
<polygon fill="midnightblue" stroke="midnightblue" points="3333.01,-157.46 3342.49,-152.73 3332.13,-150.52 3333.01,-157.46"/>
</g>
<!-- Node178 -->
<g id="node35" class="node">
<title>Node178</title>
<g id="a_node35"><a xlink:title=" ">
<polygon fill="white" stroke="#bfbfbf" points="3489,-129 3489,-148 3644,-148 3644,-129 3489,-129"/>
<text text-anchor="middle" x="3566.5" y="-136" font-family="Helvetica,sans-Serif" font-size="10.00">boost/mpl/aux_/na_spec.hpp</text>
</a>
</g>
</g>
<!-- Node4&#45;&gt;Node178 -->
<g id="edge44" class="edge">
<title>Node4&#45;&gt;Node178</title>
<path fill="none" stroke="midnightblue" d="M2625.67,-198.38C2778.77,-196.4 3161.41,-188.15 3479.5,-154 3489.88,-152.89 3500.91,-151.34 3511.5,-149.66"/>
<polygon fill="midnightblue" stroke="midnightblue" points="3512.18,-153.1 3521.48,-148.03 3511.05,-146.19 3512.18,-153.1"/>
</g>
<!-- Node104 -->
<g id="node36" class="node">
<title>Node104</title>
<g id="a_node36"><a xlink:title=" ">
<polygon fill="white" stroke="#bfbfbf" points="3662,-123.5 3662,-153.5 3793,-153.5 3793,-123.5 3662,-123.5"/>
<text text-anchor="start" x="3670" y="-141.5" font-family="Helvetica,sans-Serif" font-size="10.00">boost/mpl/aux_/lambda</text>
<text text-anchor="middle" x="3727.5" y="-130.5" font-family="Helvetica,sans-Serif" font-size="10.00">_support.hpp</text>
</a>
</g>
</g>
<!-- Node4&#45;&gt;Node104 -->
<g id="edge45" class="edge">
<title>Node4&#45;&gt;Node104</title>
<path fill="none" stroke="midnightblue" d="M2625.69,-199.74C2796.78,-200.83 3258.05,-199.07 3651.58,-153.97"/>
<polygon fill="midnightblue" stroke="midnightblue" points="3652.21,-157.42 3661.74,-152.79 3651.4,-150.47 3652.21,-157.42"/>
</g>
<!-- Node353 -->
<g id="node37" class="node">
<title>Node353</title>
<g id="a_node37"><a xlink:title=" ">
<polygon fill="white" stroke="#bfbfbf" points="3811.5,-123.5 3811.5,-153.5 3941.5,-153.5 3941.5,-123.5 3811.5,-123.5"/>
<text text-anchor="start" x="3819.5" y="-141.5" font-family="Helvetica,sans-Serif" font-size="10.00">boost/mpl/aux_/include</text>
<text text-anchor="middle" x="3876.5" y="-130.5" font-family="Helvetica,sans-Serif" font-size="10.00">_preprocessed.hpp</text>
</a>
</g>
</g>
<!-- Node4&#45;&gt;Node353 -->
<g id="edge46" class="edge">
<title>Node4&#45;&gt;Node353</title>
<path fill="none" stroke="midnightblue" d="M2625.64,-197.93C2847.88,-194.21 3551.22,-180.69 3801.02,-153.88"/>
<polygon fill="midnightblue" stroke="midnightblue" points="3801.59,-157.33 3811.15,-152.75 3800.82,-150.38 3801.59,-157.33"/>
</g>
<!-- Node354 -->
<g id="node38" class="node">
<title>Node354</title>
<g id="a_node38"><a xlink:title=" ">
<polygon fill="white" stroke="#bfbfbf" points="3959.5,-123.5 3959.5,-153.5 4083.5,-153.5 4083.5,-123.5 3959.5,-123.5"/>
<text text-anchor="start" x="3967.5" y="-141.5" font-family="Helvetica,sans-Serif" font-size="10.00">boost/mpl/aux_/config</text>
<text text-anchor="middle" x="4021.5" y="-130.5" font-family="Helvetica,sans-Serif" font-size="10.00">/compiler.hpp</text>
</a>
</g>
</g>
<!-- Node4&#45;&gt;Node354 -->
<g id="edge47" class="edge">
<title>Node4&#45;&gt;Node354</title>
<path fill="none" stroke="midnightblue" d="M2625.64,-198.33C2865.3,-195.72 3669.49,-184.92 3949.13,-153.99"/>
<polygon fill="midnightblue" stroke="midnightblue" points="3949.72,-157.44 3959.26,-152.83 3948.93,-150.49 3949.72,-157.44"/>
</g>
<!-- Node355 -->
<g id="node39" class="node">
<title>Node355</title>
<g id="a_node39"><a xlink:title=" ">
<polygon fill="white" stroke="#bfbfbf" points="4101.5,-123.5 4101.5,-153.5 4225.5,-153.5 4225.5,-123.5 4101.5,-123.5"/>
<text text-anchor="start" x="4109.5" y="-141.5" font-family="Helvetica,sans-Serif" font-size="10.00">boost/mpl/aux_/config</text>
<text text-anchor="middle" x="4163.5" y="-130.5" font-family="Helvetica,sans-Serif" font-size="10.00">/dtp.hpp</text>
</a>
</g>
</g>
<!-- Node4&#45;&gt;Node355 -->
<g id="edge48" class="edge">
<title>Node4&#45;&gt;Node355</title>
<path fill="none" stroke="midnightblue" d="M2625.81,-198.56C2881.37,-196.68 3781.8,-187.83 4090.96,-154"/>
<polygon fill="midnightblue" stroke="midnightblue" points="4091.71,-157.44 4101.26,-152.84 4090.93,-150.49 4091.71,-157.44"/>
</g>
<!-- Node98 -->
<g id="node40" class="node">
<title>Node98</title>
<g id="a_node40"><a xlink:title=" ">
<polygon fill="white" stroke="#bfbfbf" points="4243.5,-123.5 4243.5,-153.5 4367.5,-153.5 4367.5,-123.5 4243.5,-123.5"/>
<text text-anchor="start" x="4251.5" y="-141.5" font-family="Helvetica,sans-Serif" font-size="10.00">boost/mpl/aux_/config</text>
<text text-anchor="middle" x="4305.5" y="-130.5" font-family="Helvetica,sans-Serif" font-size="10.00">/ttp.hpp</text>
</a>
</g>
</g>
<!-- Node4&#45;&gt;Node98 -->
<g id="edge49" class="edge">
<title>Node4&#45;&gt;Node98</title>
<path fill="none" stroke="midnightblue" d="M2625.5,-198.76C2895.7,-197.56 3894.67,-190.77 4233.2,-153.98"/>
<polygon fill="midnightblue" stroke="midnightblue" points="4233.71,-157.44 4243.26,-152.85 4232.93,-150.48 4233.71,-157.44"/>
</g>
<!-- Node97 -->
<g id="node41" class="node">
<title>Node97</title>
<g id="a_node41"><a xlink:title=" ">
<polygon fill="white" stroke="#bfbfbf" points="4385.5,-123.5 4385.5,-153.5 4509.5,-153.5 4509.5,-123.5 4385.5,-123.5"/>
<text text-anchor="start" x="4393.5" y="-141.5" font-family="Helvetica,sans-Serif" font-size="10.00">boost/mpl/aux_/config</text>
<text text-anchor="middle" x="4447.5" y="-130.5" font-family="Helvetica,sans-Serif" font-size="10.00">/ctps.hpp</text>
</a>
</g>
</g>
<!-- Node4&#45;&gt;Node97 -->
<g id="edge50" class="edge">
<title>Node4&#45;&gt;Node97</title>
<path fill="none" stroke="midnightblue" d="M2625.82,-198.93C2910.87,-198.37 4007.1,-193.7 4375.12,-153.98"/>
<polygon fill="midnightblue" stroke="midnightblue" points="4375.71,-157.44 4385.26,-152.86 4374.94,-150.48 4375.71,-157.44"/>
</g>
<!-- Node356 -->
<g id="node42" class="node">
<title>Node356</title>
<g id="a_node42"><a xlink:title=" ">
<polygon fill="white" stroke="#bfbfbf" points="4527.5,-123.5 4527.5,-153.5 4651.5,-153.5 4651.5,-123.5 4527.5,-123.5"/>
<text text-anchor="start" x="4535.5" y="-141.5" font-family="Helvetica,sans-Serif" font-size="10.00">boost/mpl/aux_/config</text>
<text text-anchor="middle" x="4589.5" y="-130.5" font-family="Helvetica,sans-Serif" font-size="10.00">/msvc.hpp</text>
</a>
</g>
</g>
<!-- Node4&#45;&gt;Node356 -->
<g id="edge51" class="edge">
<title>Node4&#45;&gt;Node356</title>
<path fill="none" stroke="midnightblue" d="M2625.5,-199.07C2923.86,-199.12 4119.45,-196.67 4517.16,-153.98"/>
<polygon fill="midnightblue" stroke="midnightblue" points="4517.71,-157.44 4527.26,-152.86 4516.94,-150.48 4517.71,-157.44"/>
</g>
<!-- Node357 -->
<g id="node43" class="node">
<title>Node357</title>
<g id="a_node43"><a xlink:title=" ">
<polygon fill="white" stroke="#bfbfbf" points="4669.5,-123.5 4669.5,-153.5 4793.5,-153.5 4793.5,-123.5 4669.5,-123.5"/>
<text text-anchor="start" x="4677.5" y="-141.5" font-family="Helvetica,sans-Serif" font-size="10.00">boost/mpl/aux_/config</text>
<text text-anchor="middle" x="4731.5" y="-130.5" font-family="Helvetica,sans-Serif" font-size="10.00">/gcc.hpp</text>
</a>
</g>
</g>
<!-- Node4&#45;&gt;Node357 -->
<g id="edge52" class="edge">
<title>Node4&#45;&gt;Node357</title>
<path fill="none" stroke="midnightblue" d="M2625.63,-199.19C2937.49,-199.82 4231.58,-199.64 4659.02,-153.99"/>
<polygon fill="midnightblue" stroke="midnightblue" points="4659.7,-157.44 4669.26,-152.87 4658.94,-150.48 4659.7,-157.44"/>
</g>
<!-- Node358 -->
<g id="node44" class="node">
<title>Node358</title>
<g id="a_node44"><a xlink:title=" ">
<polygon fill="white" stroke="#bfbfbf" points="4811.5,-123.5 4811.5,-153.5 4935.5,-153.5 4935.5,-123.5 4811.5,-123.5"/>
<text text-anchor="start" x="4819.5" y="-141.5" font-family="Helvetica,sans-Serif" font-size="10.00">boost/mpl/aux_/config</text>
<text text-anchor="middle" x="4873.5" y="-130.5" font-family="Helvetica,sans-Serif" font-size="10.00">/workaround.hpp</text>
</a>
</g>
</g>
<!-- Node4&#45;&gt;Node358 -->
<g id="edge53" class="edge">
<title>Node4&#45;&gt;Node358</title>
<path fill="none" stroke="midnightblue" d="M2625.54,-199.3C2950.18,-200.48 4344.42,-202.61 4801.3,-153.96"/>
<polygon fill="midnightblue" stroke="midnightblue" points="4801.7,-157.44 4811.26,-152.88 4800.94,-150.48 4801.7,-157.44"/>
</g>
<!-- Node359 -->
<g id="node45" class="node">
<title>Node359</title>
<g id="a_node45"><a xlink:title=" ">
<polygon fill="white" stroke="#bfbfbf" points="4953.5,-123.5 4953.5,-153.5 5077.5,-153.5 5077.5,-123.5 4953.5,-123.5"/>
<text text-anchor="start" x="4961.5" y="-141.5" font-family="Helvetica,sans-Serif" font-size="10.00">boost/mpl/aux_/config</text>
<text text-anchor="middle" x="5015.5" y="-130.5" font-family="Helvetica,sans-Serif" font-size="10.00">/preprocessor.hpp</text>
</a>
</g>
</g>
<!-- Node4&#45;&gt;Node359 -->
<g id="edge54" class="edge">
<title>Node4&#45;&gt;Node359</title>
<path fill="none" stroke="midnightblue" d="M2625.77,-198.46C2986.65,-195.49 4665.7,-180.43 4943.26,-153.91"/>
<polygon fill="midnightblue" stroke="midnightblue" points="4943.67,-157.38 4953.26,-152.88 4942.96,-150.42 4943.67,-157.38"/>
</g>
<!-- Node360 -->
<g id="node46" class="node">
<title>Node360</title>
<g id="a_node46"><a xlink:title=" ">
<polygon fill="white" stroke="#bfbfbf" points="5095.5,-123.5 5095.5,-153.5 5205.5,-153.5 5205.5,-123.5 5095.5,-123.5"/>
<text text-anchor="start" x="5103.5" y="-141.5" font-family="Helvetica,sans-Serif" font-size="10.00">boost/preprocessor</text>
<text text-anchor="middle" x="5150.5" y="-130.5" font-family="Helvetica,sans-Serif" font-size="10.00">/stringize.hpp</text>
</a>
</g>
</g>
<!-- Node4&#45;&gt;Node360 -->
<g id="edge56" class="edge">
<title>Node4&#45;&gt;Node360</title>
<path fill="none" stroke="midnightblue" d="M2625.76,-198.62C2999.58,-196.44 4791.99,-184.52 5085.29,-153.87"/>
<polygon fill="midnightblue" stroke="midnightblue" points="5085.92,-157.32 5095.47,-152.72 5085.14,-150.36 5085.92,-157.32"/>
</g>
<!-- Node361 -->
<g id="node47" class="node">
<title>Node361</title>
<g id="a_node47"><a xlink:title=" ">
<polygon fill="white" stroke="#bfbfbf" points="5223.5,-123.5 5223.5,-153.5 5383.5,-153.5 5383.5,-123.5 5223.5,-123.5"/>
<text text-anchor="start" x="5231.5" y="-141.5" font-family="Helvetica,sans-Serif" font-size="10.00">boost/mpl/aux_/preprocessed</text>
<text text-anchor="middle" x="5303.5" y="-130.5" font-family="Helvetica,sans-Serif" font-size="10.00">/plain/and.hpp</text>
</a>
</g>
</g>
<!-- Node4&#45;&gt;Node361 -->
<g id="edge58" class="edge">
<title>Node4&#45;&gt;Node361</title>
<path fill="none" stroke="midnightblue" d="M2625.61,-199.18C2985.39,-199.94 4668.38,-200.91 5212.74,-154.05"/>
<polygon fill="midnightblue" stroke="midnightblue" points="5213.38,-157.51 5223.04,-153.14 5212.77,-150.53 5213.38,-157.51"/>
</g>
<!-- Node34 -->
<g id="node48" class="node">
<title>Node34</title>
<g id="a_node48"><a xlink:title=" ">
<polygon fill="white" stroke="#bfbfbf" points="5401.5,-123.5 5401.5,-153.5 5529.5,-153.5 5529.5,-123.5 5401.5,-123.5"/>
<text text-anchor="start" x="5409.5" y="-141.5" font-family="Helvetica,sans-Serif" font-size="10.00">boost/range/has_range</text>
<text text-anchor="middle" x="5465.5" y="-130.5" font-family="Helvetica,sans-Serif" font-size="10.00">_iterator.hpp</text>
</a>
</g>
</g>
<!-- Node4&#45;&gt;Node34 -->
<g id="edge59" class="edge">
<title>Node4&#45;&gt;Node34</title>
<path fill="none" stroke="midnightblue" d="M2625.57,-198.65C3025.74,-196.53 5065.41,-184.33 5391.11,-153.94"/>
<polygon fill="midnightblue" stroke="midnightblue" points="5391.51,-157.42 5401.11,-152.94 5390.81,-150.45 5391.51,-157.42"/>
</g>
<!-- Node362 -->
<g id="node49" class="node">
<title>Node362</title>
<g id="a_node49"><a xlink:title=" ">
<polygon fill="white" stroke="#bfbfbf" points="5547.5,-129 5547.5,-148 5669.5,-148 5669.5,-129 5547.5,-129"/>
<text text-anchor="middle" x="5608.5" y="-136" font-family="Helvetica,sans-Serif" font-size="10.00">boost/mpl/eval_if.hpp</text>
</a>
</g>
</g>
<!-- Node4&#45;&gt;Node362 -->
<g id="edge60" class="edge">
<title>Node4&#45;&gt;Node362</title>
<path fill="none" stroke="midnightblue" d="M2625.66,-198.74C3042.6,-197.08 5240.66,-186.8 5538.5,-154 5546.74,-153.09 5555.45,-151.67 5563.83,-150.06"/>
<polygon fill="midnightblue" stroke="midnightblue" points="5564.71,-153.46 5573.81,-148.04 5563.32,-146.6 5564.71,-153.46"/>
</g>
<!-- Node363 -->
<g id="node50" class="node">
<title>Node363</title>
<g id="a_node50"><a xlink:title=" ">
<polygon fill="white" stroke="#bfbfbf" points="5687.5,-129 5687.5,-148 5817.5,-148 5817.5,-129 5687.5,-129"/>
<text text-anchor="middle" x="5752.5" y="-136" font-family="Helvetica,sans-Serif" font-size="10.00">boost/mpl/has_xxx.hpp</text>
</a>
</g>
</g>
<!-- Node4&#45;&gt;Node363 -->
<g id="edge61" class="edge">
<title>Node4&#45;&gt;Node363</title>
<path fill="none" stroke="midnightblue" d="M2625.71,-198.75C3054.15,-197.08 5365.73,-186.63 5678.5,-154 5687.39,-153.07 5696.81,-151.61 5705.83,-149.96"/>
<polygon fill="midnightblue" stroke="midnightblue" points="5706.65,-153.37 5715.81,-148.04 5705.33,-146.49 5706.65,-153.37"/>
</g>
<!-- Node5&#45;&gt;Node2 -->
<g id="edge6" class="edge">
<title>Node5&#45;&gt;Node2</title>
<path fill="none" stroke="midnightblue" d="M438.75,-129.14C356.74,-117.05 205.49,-94.75 119.23,-82.04"/>
<polygon fill="midnightblue" stroke="midnightblue" points="119.7,-78.57 109.3,-80.58 118.68,-85.5 119.7,-78.57"/>
</g>
<!-- Node5&#45;&gt;Node3 -->
<g id="edge9" class="edge">
<title>Node5&#45;&gt;Node3</title>
<path fill="none" stroke="midnightblue" d="M504.66,-128.9C520.65,-112.88 550.18,-78.06 530.5,-56 508.66,-31.51 300.35,-18.51 196.2,-13.49"/>
<polygon fill="midnightblue" stroke="midnightblue" points="196.31,-9.99 186.15,-13.01 195.97,-16.98 196.31,-9.99"/>
</g>
<!-- Node5&#45;&gt;Node87 -->
<g id="edge7" class="edge">
<title>Node5&#45;&gt;Node87</title>
<path fill="none" stroke="midnightblue" d="M459.27,-128.94C415.12,-118.5 339.73,-100.68 285.47,-87.86"/>
<polygon fill="midnightblue" stroke="midnightblue" points="286.13,-84.42 275.59,-85.52 284.52,-91.23 286.13,-84.42"/>
</g>
<!-- Node5&#45;&gt;Node260 -->
<g id="edge8" class="edge">
<title>Node5&#45;&gt;Node260</title>
<path fill="none" stroke="midnightblue" d="M479.17,-128.87C458.4,-117.89 422.31,-98.82 397.93,-85.94"/>
<polygon fill="midnightblue" stroke="midnightblue" points="399.38,-82.75 388.9,-81.17 396.11,-88.93 399.38,-82.75"/>
</g>
<!-- Node5&#45;&gt;Node9 -->
<g id="edge10" class="edge">
<title>Node5&#45;&gt;Node9</title>
<path fill="none" stroke="midnightblue" d="M495.5,-128.73C495.5,-119.18 495.5,-103.62 495.5,-91.28"/>
<polygon fill="midnightblue" stroke="midnightblue" points="499,-91.13 495.5,-81.13 492,-91.13 499,-91.13"/>
</g>
<!-- Node5&#45;&gt;Node277 -->
<g id="edge11" class="edge">
<title>Node5&#45;&gt;Node277</title>
<path fill="none" stroke="midnightblue" d="M510.34,-128.73C528.81,-117.82 560.57,-99.05 582.28,-86.22"/>
<polygon fill="midnightblue" stroke="midnightblue" points="584.07,-89.23 590.9,-81.13 580.51,-83.2 584.07,-89.23"/>
</g>
<!-- Node5&#45;&gt;Node53 -->
<g id="edge12" class="edge">
<title>Node5&#45;&gt;Node53</title>
<path fill="none" stroke="midnightblue" d="M523.39,-128.87C555.65,-118.88 609.56,-102.2 650.37,-89.56"/>
<polygon fill="midnightblue" stroke="midnightblue" points="651.66,-92.83 660.18,-86.53 649.59,-86.14 651.66,-92.83"/>
</g>
<!-- Node5&#45;&gt;Node235 -->
<g id="edge13" class="edge">
<title>Node5&#45;&gt;Node235</title>
<path fill="none" stroke="midnightblue" d="M552.04,-130.97C608.09,-123.6 695.98,-109.59 769.5,-87 771.43,-86.41 773.4,-85.73 775.36,-85.01"/>
<polygon fill="midnightblue" stroke="midnightblue" points="777.03,-88.11 784.98,-81.1 774.39,-81.62 777.03,-88.11"/>
</g>
<!-- Node5&#45;&gt;Node302 -->
<g id="edge14" class="edge">
<title>Node5&#45;&gt;Node302</title>
<path fill="none" stroke="midnightblue" d="M552.19,-132.04C587.6,-128.85 634.17,-125.06 675.5,-123 1706.17,-71.72 2964.54,-71.52 3262.21,-72.27"/>
<polygon fill="midnightblue" stroke="midnightblue" points="3262.38,-75.77 3272.39,-72.3 3262.4,-68.77 3262.38,-75.77"/>
</g>
<!-- Node5&#45;&gt;Node114 -->
<g id="edge15" class="edge">
<title>Node5&#45;&gt;Node114</title>
<path fill="none" stroke="midnightblue" d="M552.19,-131.94C587.6,-128.72 634.16,-124.92 675.5,-123 777.81,-118.24 4094.5,-79.24 4604.07,-73.27"/>
<polygon fill="midnightblue" stroke="midnightblue" points="4604.24,-76.76 4614.19,-73.15 4604.15,-69.76 4604.24,-76.76"/>
</g>
</g>
</svg>
