<?xml version="1.0" encoding="UTF-8" standalone="no"?>
<!DOCTYPE svg PUBLIC "-//W3C//DTD SVG 1.1//EN"
 "http://www.w3.org/Graphics/SVG/1.1/DTD/svg11.dtd">
<!-- Generated by graphviz version 2.43.0 (0)
 -->
<!-- Title: boost/ui/choice.hpp Pages: 1 -->
<svg width="1558pt" height="386pt"
 viewBox="0.00 0.00 1557.50 386.00" xmlns="http://www.w3.org/2000/svg" xmlns:xlink="http://www.w3.org/1999/xlink">
<g id="graph0" class="graph" transform="scale(1 1) rotate(0) translate(4 382)">
<title>boost/ui/choice.hpp</title>
<polygon fill="white" stroke="transparent" points="-4,4 -4,-382 1553.5,-382 1553.5,4 -4,4"/>
<!-- Node1 -->
<g id="node1" class="node">
<title>Node1</title>
<g id="a_node1"><a xlink:title="Choice widget.">
<polygon fill="#bfbfbf" stroke="black" points="886,-358.5 886,-377.5 997,-377.5 997,-358.5 886,-358.5"/>
<text text-anchor="middle" x="941.5" y="-365.5" font-family="Helvetica,sans-Serif" font-size="10.00">boost/ui/choice.hpp</text>
</a>
</g>
</g>
<!-- Node2 -->
<g id="node2" class="node">
<title>Node2</title>
<g id="a_node2"><a xlink:href="config_8hpp.html" target="_top" xlink:title="Configuration options.">
<polygon fill="white" stroke="black" points="979.5,-62 979.5,-81 1089.5,-81 1089.5,-62 979.5,-62"/>
<text text-anchor="middle" x="1034.5" y="-69" font-family="Helvetica,sans-Serif" font-size="10.00">boost/ui/config.hpp</text>
</a>
</g>
</g>
<!-- Node1&#45;&gt;Node2 -->
<g id="edge1" class="edge">
<title>Node1&#45;&gt;Node2</title>
<path fill="none" stroke="midnightblue" d="M997.4,-364.42C1114.02,-357.51 1372.5,-333.55 1372.5,-257 1372.5,-257 1372.5,-257 1372.5,-193.5 1372.5,-157.47 1362,-143.68 1332.5,-123 1295.85,-97.31 1175.72,-83.44 1099.64,-77.03"/>
<polygon fill="midnightblue" stroke="midnightblue" points="1099.92,-73.55 1089.67,-76.22 1099.35,-80.52 1099.92,-73.55"/>
</g>
<!-- Node4 -->
<g id="node4" class="node">
<title>Node4</title>
<g id="a_node4"><a xlink:href="strings__box_8hpp.html" target="_top" xlink:title="Widget with array of strings.">
<polygon fill="white" stroke="black" points="442.5,-302.5 442.5,-321.5 578.5,-321.5 578.5,-302.5 442.5,-302.5"/>
<text text-anchor="middle" x="510.5" y="-309.5" font-family="Helvetica,sans-Serif" font-size="10.00">boost/ui/strings_box.hpp</text>
</a>
</g>
</g>
<!-- Node1&#45;&gt;Node4 -->
<g id="edge3" class="edge">
<title>Node1&#45;&gt;Node4</title>
<path fill="none" stroke="midnightblue" d="M885.6,-360C809.79,-350.5 674.04,-333.49 588.31,-322.75"/>
<polygon fill="midnightblue" stroke="midnightblue" points="588.73,-319.27 578.37,-321.5 587.86,-326.22 588.73,-319.27"/>
</g>
<!-- Node3 -->
<g id="node3" class="node">
<title>Node3</title>
<g id="a_node3"><a xlink:title=" ">
<polygon fill="white" stroke="#bfbfbf" points="985.5,-0.5 985.5,-19.5 1083.5,-19.5 1083.5,-0.5 985.5,-0.5"/>
<text text-anchor="middle" x="1034.5" y="-7.5" font-family="Helvetica,sans-Serif" font-size="10.00">boost/config.hpp</text>
</a>
</g>
</g>
<!-- Node2&#45;&gt;Node3 -->
<g id="edge2" class="edge">
<title>Node2&#45;&gt;Node3</title>
<path fill="none" stroke="midnightblue" d="M1034.5,-61.98C1034.5,-53.58 1034.5,-40.48 1034.5,-29.66"/>
<polygon fill="midnightblue" stroke="midnightblue" points="1038,-29.51 1034.5,-19.51 1031,-29.51 1038,-29.51"/>
</g>
<!-- Node4&#45;&gt;Node2 -->
<g id="edge4" class="edge">
<title>Node4&#45;&gt;Node2</title>
<path fill="none" stroke="midnightblue" d="M549.63,-302.45C572.97,-295.74 601.96,-284.37 622.5,-266 676.32,-217.89 640.47,-164.54 699.5,-123 704.99,-119.14 873.08,-95.09 969.02,-81.62"/>
<polygon fill="midnightblue" stroke="midnightblue" points="969.79,-85.05 979.21,-80.19 968.82,-78.12 969.79,-85.05"/>
</g>
<!-- Node5 -->
<g id="node5" class="node">
<title>Node5</title>
<g id="a_node5"><a xlink:href="widget_8hpp.html" target="_top" xlink:title="Widget class.">
<polygon fill="white" stroke="black" points="987,-246.5 987,-265.5 1100,-265.5 1100,-246.5 987,-246.5"/>
<text text-anchor="middle" x="1043.5" y="-253.5" font-family="Helvetica,sans-Serif" font-size="10.00">boost/ui/widget.hpp</text>
</a>
</g>
</g>
<!-- Node4&#45;&gt;Node5 -->
<g id="edge5" class="edge">
<title>Node4&#45;&gt;Node5</title>
<path fill="none" stroke="midnightblue" d="M578.55,-304.11C681.24,-293.7 874.65,-274.11 976.64,-263.77"/>
<polygon fill="midnightblue" stroke="midnightblue" points="977.22,-267.23 986.82,-262.74 976.52,-260.27 977.22,-267.23"/>
</g>
<!-- Node23 -->
<g id="node23" class="node">
<title>Node23</title>
<g id="a_node23"><a xlink:title=" ">
<polygon fill="white" stroke="#bfbfbf" points="0,-246.5 0,-265.5 47,-265.5 47,-246.5 0,-246.5"/>
<text text-anchor="middle" x="23.5" y="-253.5" font-family="Helvetica,sans-Serif" font-size="10.00">vector</text>
</a>
</g>
</g>
<!-- Node4&#45;&gt;Node23 -->
<g id="edge31" class="edge">
<title>Node4&#45;&gt;Node23</title>
<path fill="none" stroke="midnightblue" d="M442.13,-307.98C354.75,-303.3 198.75,-292.13 57.31,-266.06"/>
<polygon fill="midnightblue" stroke="midnightblue" points="57.63,-262.55 47.16,-264.15 56.34,-269.43 57.63,-262.55"/>
</g>
<!-- Node24 -->
<g id="node24" class="node">
<title>Node24</title>
<g id="a_node24"><a xlink:title=" ">
<polygon fill="white" stroke="#bfbfbf" points="65,-246.5 65,-265.5 190,-265.5 190,-246.5 65,-246.5"/>
<text text-anchor="middle" x="127.5" y="-253.5" font-family="Helvetica,sans-Serif" font-size="10.00">boost/range/begin.hpp</text>
</a>
</g>
</g>
<!-- Node4&#45;&gt;Node24 -->
<g id="edge32" class="edge">
<title>Node4&#45;&gt;Node24</title>
<path fill="none" stroke="midnightblue" d="M449.81,-302.44C381.32,-292.79 270.06,-277.1 197.83,-266.92"/>
<polygon fill="midnightblue" stroke="midnightblue" points="198.29,-263.45 187.9,-265.52 197.32,-270.38 198.29,-263.45"/>
</g>
<!-- Node25 -->
<g id="node25" class="node">
<title>Node25</title>
<g id="a_node25"><a xlink:title=" ">
<polygon fill="white" stroke="#bfbfbf" points="208.5,-246.5 208.5,-265.5 324.5,-265.5 324.5,-246.5 208.5,-246.5"/>
<text text-anchor="middle" x="266.5" y="-253.5" font-family="Helvetica,sans-Serif" font-size="10.00">boost/range/end.hpp</text>
</a>
</g>
</g>
<!-- Node4&#45;&gt;Node25 -->
<g id="edge33" class="edge">
<title>Node4&#45;&gt;Node25</title>
<path fill="none" stroke="midnightblue" d="M471.84,-302.44C429.36,-293.04 361.07,-277.93 315.03,-267.74"/>
<polygon fill="midnightblue" stroke="midnightblue" points="315.5,-264.26 304.98,-265.52 313.99,-271.09 315.5,-264.26"/>
</g>
<!-- Node26 -->
<g id="node26" class="node">
<title>Node26</title>
<g id="a_node26"><a xlink:title=" ">
<polygon fill="white" stroke="#bfbfbf" points="342.5,-246.5 342.5,-265.5 460.5,-265.5 460.5,-246.5 342.5,-246.5"/>
<text text-anchor="middle" x="401.5" y="-253.5" font-family="Helvetica,sans-Serif" font-size="10.00">boost/range/size.hpp</text>
</a>
</g>
</g>
<!-- Node4&#45;&gt;Node26 -->
<g id="edge34" class="edge">
<title>Node4&#45;&gt;Node26</title>
<path fill="none" stroke="midnightblue" d="M492.99,-302.32C475.43,-293.62 448.17,-280.12 427.97,-270.11"/>
<polygon fill="midnightblue" stroke="midnightblue" points="429.48,-266.96 418.97,-265.65 426.38,-273.23 429.48,-266.96"/>
</g>
<!-- Node27 -->
<g id="node27" class="node">
<title>Node27</title>
<g id="a_node27"><a xlink:title=" ">
<polygon fill="white" stroke="#bfbfbf" points="478.5,-246.5 478.5,-265.5 542.5,-265.5 542.5,-246.5 478.5,-246.5"/>
<text text-anchor="middle" x="510.5" y="-253.5" font-family="Helvetica,sans-Serif" font-size="10.00">algorithm</text>
</a>
</g>
</g>
<!-- Node4&#45;&gt;Node27 -->
<g id="edge35" class="edge">
<title>Node4&#45;&gt;Node27</title>
<path fill="none" stroke="midnightblue" d="M510.5,-302.08C510.5,-295.01 510.5,-284.86 510.5,-275.99"/>
<polygon fill="midnightblue" stroke="midnightblue" points="514,-275.75 510.5,-265.75 507,-275.75 514,-275.75"/>
</g>
<!-- Node28 -->
<g id="node28" class="node">
<title>Node28</title>
<g id="a_node28"><a xlink:title=" ">
<polygon fill="white" stroke="#bfbfbf" points="561,-246.5 561,-265.5 614,-265.5 614,-246.5 561,-246.5"/>
<text text-anchor="middle" x="587.5" y="-253.5" font-family="Helvetica,sans-Serif" font-size="10.00">iterator</text>
</a>
</g>
</g>
<!-- Node4&#45;&gt;Node28 -->
<g id="edge36" class="edge">
<title>Node4&#45;&gt;Node28</title>
<path fill="none" stroke="midnightblue" d="M522.87,-302.32C534.66,-294.06 552.63,-281.45 566.64,-271.63"/>
<polygon fill="midnightblue" stroke="midnightblue" points="568.98,-274.26 575.16,-265.65 564.96,-268.53 568.98,-274.26"/>
</g>
<!-- Node5&#45;&gt;Node2 -->
<g id="edge6" class="edge">
<title>Node5&#45;&gt;Node2</title>
<path fill="none" stroke="midnightblue" d="M1072.62,-246.44C1090.14,-239.62 1111.02,-228.14 1121.5,-210 1128.39,-198.07 1129.6,-190.14 1121.5,-179 1091,-137.05 1041,-184.95 1010.5,-143 998.68,-126.74 1010.07,-104.22 1020.84,-89.05"/>
<polygon fill="midnightblue" stroke="midnightblue" points="1023.65,-91.14 1026.93,-81.07 1018.08,-86.9 1023.65,-91.14"/>
</g>
<!-- Node6 -->
<g id="node6" class="node">
<title>Node6</title>
<g id="a_node6"><a xlink:href="coord_8hpp.html" target="_top" xlink:title="Coordinates classes.">
<polygon fill="white" stroke="black" points="526,-123.5 526,-142.5 633,-142.5 633,-123.5 526,-123.5"/>
<text text-anchor="middle" x="579.5" y="-130.5" font-family="Helvetica,sans-Serif" font-size="10.00">boost/ui/coord.hpp</text>
</a>
</g>
</g>
<!-- Node5&#45;&gt;Node6 -->
<g id="edge7" class="edge">
<title>Node5&#45;&gt;Node6</title>
<path fill="none" stroke="midnightblue" d="M986.94,-255.01C917.3,-253.36 796.34,-245.06 699.5,-210 659.99,-195.7 619.92,-166.77 597.53,-149.02"/>
<polygon fill="midnightblue" stroke="midnightblue" points="599.57,-146.17 589.59,-142.6 595.17,-151.61 599.57,-146.17"/>
</g>
<!-- Node12 -->
<g id="node12" class="node">
<title>Node12</title>
<g id="a_node12"><a xlink:href="string_8hpp.html" target="_top" xlink:title="String class and operations.">
<polygon fill="white" stroke="black" points="1401,-123.5 1401,-142.5 1508,-142.5 1508,-123.5 1401,-123.5"/>
<text text-anchor="middle" x="1454.5" y="-130.5" font-family="Helvetica,sans-Serif" font-size="10.00">boost/ui/string.hpp</text>
</a>
</g>
</g>
<!-- Node5&#45;&gt;Node12 -->
<g id="edge14" class="edge">
<title>Node5&#45;&gt;Node12</title>
<path fill="none" stroke="midnightblue" d="M1100.07,-251.2C1156.05,-246.17 1243.56,-234.82 1315.5,-210 1360.16,-194.6 1407.46,-165.65 1433.75,-148.27"/>
<polygon fill="midnightblue" stroke="midnightblue" points="1435.79,-151.12 1442.14,-142.65 1431.89,-145.31 1435.79,-151.12"/>
</g>
<!-- Node16 -->
<g id="node16" class="node">
<title>Node16</title>
<g id="a_node16"><a xlink:href="event_8hpp.html" target="_top" xlink:title="Event classes.">
<polygon fill="white" stroke="black" points="709,-185 709,-204 816,-204 816,-185 709,-185"/>
<text text-anchor="middle" x="762.5" y="-192" font-family="Helvetica,sans-Serif" font-size="10.00">boost/ui/event.hpp</text>
</a>
</g>
</g>
<!-- Node5&#45;&gt;Node16 -->
<g id="edge19" class="edge">
<title>Node5&#45;&gt;Node16</title>
<path fill="none" stroke="midnightblue" d="M1000.83,-246.49C956.84,-237.65 886.29,-223.27 825.5,-210 820.15,-208.83 814.56,-207.59 809.01,-206.33"/>
<polygon fill="midnightblue" stroke="midnightblue" points="809.64,-202.88 799.11,-204.07 808.09,-209.71 809.64,-202.88"/>
</g>
<!-- Node18 -->
<g id="node18" class="node">
<title>Node18</title>
<g id="a_node18"><a xlink:href="font_8hpp.html" target="_top" xlink:title="Font class.">
<polygon fill="white" stroke="black" points="1207,-185 1207,-204 1306,-204 1306,-185 1207,-185"/>
<text text-anchor="middle" x="1256.5" y="-192" font-family="Helvetica,sans-Serif" font-size="10.00">boost/ui/font.hpp</text>
</a>
</g>
</g>
<!-- Node5&#45;&gt;Node18 -->
<g id="edge23" class="edge">
<title>Node5&#45;&gt;Node18</title>
<path fill="none" stroke="midnightblue" d="M1074.02,-246.48C1111.42,-236.03 1174.93,-218.29 1216.29,-206.73"/>
<polygon fill="midnightblue" stroke="midnightblue" points="1217.35,-210.07 1226.04,-204.01 1215.47,-203.33 1217.35,-210.07"/>
</g>
<!-- Node20 -->
<g id="node20" class="node">
<title>Node20</title>
<g id="a_node20"><a xlink:href="layout_8hpp.html" target="_top" xlink:title="Layout classes.">
<polygon fill="white" stroke="black" points="1019.5,-123.5 1019.5,-142.5 1129.5,-142.5 1129.5,-123.5 1019.5,-123.5"/>
<text text-anchor="middle" x="1074.5" y="-130.5" font-family="Helvetica,sans-Serif" font-size="10.00">boost/ui/layout.hpp</text>
</a>
</g>
</g>
<!-- Node5&#45;&gt;Node20 -->
<g id="edge27" class="edge">
<title>Node5&#45;&gt;Node20</title>
<path fill="none" stroke="midnightblue" d="M1097.58,-246.47C1119.02,-240.15 1141.6,-229.14 1154.5,-210 1162.2,-198.57 1161.46,-190.89 1154.5,-179 1145.64,-163.85 1129.59,-153.41 1114.19,-146.42"/>
<polygon fill="midnightblue" stroke="midnightblue" points="1115.33,-143.11 1104.75,-142.51 1112.65,-149.57 1115.33,-143.11"/>
</g>
<!-- Node21 -->
<g id="node21" class="node">
<title>Node21</title>
<g id="a_node21"><a xlink:title=" ">
<polygon fill="white" stroke="#bfbfbf" points="834.5,-179.5 834.5,-209.5 956.5,-209.5 956.5,-179.5 834.5,-179.5"/>
<text text-anchor="start" x="842.5" y="-197.5" font-family="Helvetica,sans-Serif" font-size="10.00">boost/ui/detail/shared</text>
<text text-anchor="middle" x="895.5" y="-186.5" font-family="Helvetica,sans-Serif" font-size="10.00">_count.hpp</text>
</a>
</g>
</g>
<!-- Node5&#45;&gt;Node21 -->
<g id="edge29" class="edge">
<title>Node5&#45;&gt;Node21</title>
<path fill="none" stroke="midnightblue" d="M1022.3,-246.48C1000.85,-237.85 967.05,-224.26 939.74,-213.29"/>
<polygon fill="midnightblue" stroke="midnightblue" points="940.96,-210.01 930.38,-209.52 938.35,-216.5 940.96,-210.01"/>
</g>
<!-- Node22 -->
<g id="node22" class="node">
<title>Node22</title>
<g id="a_node22"><a xlink:title=" ">
<polygon fill="white" stroke="#bfbfbf" points="974.5,-185 974.5,-204 1112.5,-204 1112.5,-185 974.5,-185"/>
<text text-anchor="middle" x="1043.5" y="-192" font-family="Helvetica,sans-Serif" font-size="10.00">boost/ui/detail/event.hpp</text>
</a>
</g>
</g>
<!-- Node5&#45;&gt;Node22 -->
<g id="edge30" class="edge">
<title>Node5&#45;&gt;Node22</title>
<path fill="none" stroke="midnightblue" d="M1043.5,-246.48C1043.5,-238.08 1043.5,-224.98 1043.5,-214.16"/>
<polygon fill="midnightblue" stroke="midnightblue" points="1047,-214.01 1043.5,-204.01 1040,-214.01 1047,-214.01"/>
</g>
<!-- Node6&#45;&gt;Node2 -->
<g id="edge8" class="edge">
<title>Node6&#45;&gt;Node2</title>
<path fill="none" stroke="midnightblue" d="M633.32,-124.86C638.11,-124.23 642.89,-123.6 647.5,-123 772.36,-106.74 803.68,-103.53 928.5,-87 941.71,-85.25 955.83,-83.34 969.33,-81.5"/>
<polygon fill="midnightblue" stroke="midnightblue" points="970.06,-84.94 979.5,-80.11 969.11,-78 970.06,-84.94"/>
</g>
<!-- Node7 -->
<g id="node7" class="node">
<title>Node7</title>
<g id="a_node7"><a xlink:title=" ">
<polygon fill="white" stroke="#bfbfbf" points="807,-62 807,-81 920,-81 920,-62 807,-62"/>
<text text-anchor="middle" x="863.5" y="-69" font-family="Helvetica,sans-Serif" font-size="10.00">boost/geometry.hpp</text>
</a>
</g>
</g>
<!-- Node6&#45;&gt;Node7 -->
<g id="edge9" class="edge">
<title>Node6&#45;&gt;Node7</title>
<path fill="none" stroke="midnightblue" d="M621.73,-123.45C665.67,-114.51 736.46,-100.01 797.5,-87 803.23,-85.78 809.24,-84.48 815.2,-83.18"/>
<polygon fill="midnightblue" stroke="midnightblue" points="816.11,-86.57 825.13,-81.02 814.61,-79.73 816.11,-86.57"/>
</g>
<!-- Node8 -->
<g id="node8" class="node">
<title>Node8</title>
<g id="a_node8"><a xlink:title=" ">
<polygon fill="white" stroke="#bfbfbf" points="182.5,-56.5 182.5,-86.5 334.5,-86.5 334.5,-56.5 182.5,-56.5"/>
<text text-anchor="start" x="190.5" y="-74.5" font-family="Helvetica,sans-Serif" font-size="10.00">boost/geometry/geometries</text>
<text text-anchor="middle" x="258.5" y="-63.5" font-family="Helvetica,sans-Serif" font-size="10.00">/point_xy.hpp</text>
</a>
</g>
</g>
<!-- Node6&#45;&gt;Node8 -->
<g id="edge10" class="edge">
<title>Node6&#45;&gt;Node8</title>
<path fill="none" stroke="midnightblue" d="M533.51,-123.48C484.24,-114.34 404.95,-99.64 344.13,-88.37"/>
<polygon fill="midnightblue" stroke="midnightblue" points="344.62,-84.9 334.15,-86.52 343.35,-91.79 344.62,-84.9"/>
</g>
<!-- Node9 -->
<g id="node9" class="node">
<title>Node9</title>
<g id="a_node9"><a xlink:title=" ">
<polygon fill="white" stroke="#bfbfbf" points="352.5,-56.5 352.5,-86.5 504.5,-86.5 504.5,-56.5 352.5,-56.5"/>
<text text-anchor="start" x="360.5" y="-74.5" font-family="Helvetica,sans-Serif" font-size="10.00">boost/geometry/geometries</text>
<text text-anchor="middle" x="428.5" y="-63.5" font-family="Helvetica,sans-Serif" font-size="10.00">/box.hpp</text>
</a>
</g>
</g>
<!-- Node6&#45;&gt;Node9 -->
<g id="edge11" class="edge">
<title>Node6&#45;&gt;Node9</title>
<path fill="none" stroke="midnightblue" d="M557.87,-123.48C535.98,-114.85 501.5,-101.26 473.64,-90.29"/>
<polygon fill="midnightblue" stroke="midnightblue" points="474.67,-86.93 464.09,-86.52 472.11,-93.45 474.67,-86.93"/>
</g>
<!-- Node10 -->
<g id="node10" class="node">
<title>Node10</title>
<g id="a_node10"><a xlink:title=" ">
<polygon fill="white" stroke="#bfbfbf" points="523,-56.5 523,-86.5 636,-86.5 636,-56.5 523,-56.5"/>
<text text-anchor="start" x="531" y="-74.5" font-family="Helvetica,sans-Serif" font-size="10.00">boost/polygon/point</text>
<text text-anchor="middle" x="579.5" y="-63.5" font-family="Helvetica,sans-Serif" font-size="10.00">_data.hpp</text>
</a>
</g>
</g>
<!-- Node6&#45;&gt;Node10 -->
<g id="edge12" class="edge">
<title>Node6&#45;&gt;Node10</title>
<path fill="none" stroke="midnightblue" d="M579.5,-123.48C579.5,-116.47 579.5,-106.19 579.5,-96.7"/>
<polygon fill="midnightblue" stroke="midnightblue" points="583,-96.52 579.5,-86.52 576,-96.52 583,-96.52"/>
</g>
<!-- Node11 -->
<g id="node11" class="node">
<title>Node11</title>
<g id="a_node11"><a xlink:title=" ">
<polygon fill="white" stroke="#bfbfbf" points="654.5,-56.5 654.5,-86.5 788.5,-86.5 788.5,-56.5 654.5,-56.5"/>
<text text-anchor="start" x="662.5" y="-74.5" font-family="Helvetica,sans-Serif" font-size="10.00">boost/polygon/rectangle</text>
<text text-anchor="middle" x="721.5" y="-63.5" font-family="Helvetica,sans-Serif" font-size="10.00">_data.hpp</text>
</a>
</g>
</g>
<!-- Node6&#45;&gt;Node11 -->
<g id="edge13" class="edge">
<title>Node6&#45;&gt;Node11</title>
<path fill="none" stroke="midnightblue" d="M599.85,-123.48C620.34,-114.89 652.57,-101.38 678.71,-90.43"/>
<polygon fill="midnightblue" stroke="midnightblue" points="680.16,-93.62 688.03,-86.52 677.46,-87.16 680.16,-93.62"/>
</g>
<!-- Node12&#45;&gt;Node2 -->
<g id="edge15" class="edge">
<title>Node12&#45;&gt;Node2</title>
<path fill="none" stroke="midnightblue" d="M1400.88,-124.4C1324.03,-113.52 1182.72,-93.5 1099.86,-81.76"/>
<polygon fill="midnightblue" stroke="midnightblue" points="1100.19,-78.27 1089.8,-80.33 1099.21,-85.2 1100.19,-78.27"/>
</g>
<!-- Node13 -->
<g id="node13" class="node">
<title>Node13</title>
<g id="a_node13"><a xlink:title=" ">
<polygon fill="white" stroke="#bfbfbf" points="1505.5,-62 1505.5,-81 1549.5,-81 1549.5,-62 1505.5,-62"/>
<text text-anchor="middle" x="1527.5" y="-69" font-family="Helvetica,sans-Serif" font-size="10.00">string</text>
</a>
</g>
</g>
<!-- Node12&#45;&gt;Node13 -->
<g id="edge16" class="edge">
<title>Node12&#45;&gt;Node13</title>
<path fill="none" stroke="midnightblue" d="M1464.96,-123.48C1476.45,-114.11 1495.13,-98.88 1509.09,-87.51"/>
<polygon fill="midnightblue" stroke="midnightblue" points="1511.52,-90.04 1517.06,-81.01 1507.1,-84.61 1511.52,-90.04"/>
</g>
<!-- Node14 -->
<g id="node14" class="node">
<title>Node14</title>
<g id="a_node14"><a xlink:title=" ">
<polygon fill="white" stroke="#bfbfbf" points="1321,-62 1321,-81 1404,-81 1404,-62 1321,-62"/>
<text text-anchor="middle" x="1362.5" y="-69" font-family="Helvetica,sans-Serif" font-size="10.00">initializer_list</text>
</a>
</g>
</g>
<!-- Node12&#45;&gt;Node14 -->
<g id="edge17" class="edge">
<title>Node12&#45;&gt;Node14</title>
<path fill="none" stroke="midnightblue" d="M1441.32,-123.48C1426.43,-113.84 1401.96,-98.02 1384.23,-86.55"/>
<polygon fill="midnightblue" stroke="midnightblue" points="1385.95,-83.5 1375.66,-81.01 1382.15,-89.38 1385.95,-83.5"/>
</g>
<!-- Node15 -->
<g id="node15" class="node">
<title>Node15</title>
<g id="a_node15"><a xlink:title=" ">
<polygon fill="white" stroke="#bfbfbf" points="1422,-62 1422,-81 1487,-81 1487,-62 1422,-62"/>
<text text-anchor="middle" x="1454.5" y="-69" font-family="Helvetica,sans-Serif" font-size="10.00">functional</text>
</a>
</g>
</g>
<!-- Node12&#45;&gt;Node15 -->
<g id="edge18" class="edge">
<title>Node12&#45;&gt;Node15</title>
<path fill="none" stroke="midnightblue" d="M1454.5,-123.48C1454.5,-115.08 1454.5,-101.98 1454.5,-91.16"/>
<polygon fill="midnightblue" stroke="midnightblue" points="1458,-91.01 1454.5,-81.01 1451,-91.01 1458,-91.01"/>
</g>
<!-- Node16&#45;&gt;Node2 -->
<g id="edge20" class="edge">
<title>Node16&#45;&gt;Node2</title>
<path fill="none" stroke="midnightblue" d="M781.63,-184.99C828.63,-164.08 949.99,-110.1 1005.73,-85.3"/>
<polygon fill="midnightblue" stroke="midnightblue" points="1007.32,-88.42 1015.03,-81.16 1004.47,-82.03 1007.32,-88.42"/>
</g>
<!-- Node16&#45;&gt;Node6 -->
<g id="edge21" class="edge">
<title>Node16&#45;&gt;Node6</title>
<path fill="none" stroke="midnightblue" d="M736.28,-184.98C704.48,-174.64 650.73,-157.16 615.18,-145.6"/>
<polygon fill="midnightblue" stroke="midnightblue" points="616.26,-142.27 605.67,-142.51 614.1,-148.93 616.26,-142.27"/>
</g>
<!-- Node17 -->
<g id="node17" class="node">
<title>Node17</title>
<g id="a_node17"><a xlink:title=" ">
<polygon fill="white" stroke="#bfbfbf" points="709,-123.5 709,-142.5 816,-142.5 816,-123.5 709,-123.5"/>
<text text-anchor="middle" x="762.5" y="-130.5" font-family="Helvetica,sans-Serif" font-size="10.00">boost/function.hpp</text>
</a>
</g>
</g>
<!-- Node16&#45;&gt;Node17 -->
<g id="edge22" class="edge">
<title>Node16&#45;&gt;Node17</title>
<path fill="none" stroke="midnightblue" d="M762.5,-184.98C762.5,-176.58 762.5,-163.48 762.5,-152.66"/>
<polygon fill="midnightblue" stroke="midnightblue" points="766,-152.51 762.5,-142.51 759,-152.51 766,-152.51"/>
</g>
<!-- Node18&#45;&gt;Node2 -->
<g id="edge24" class="edge">
<title>Node18&#45;&gt;Node2</title>
<path fill="none" stroke="midnightblue" d="M1273.35,-184.86C1297.03,-171.6 1335.27,-145.43 1316.5,-123 1289.44,-90.67 1174.56,-79.01 1100.03,-74.83"/>
<polygon fill="midnightblue" stroke="midnightblue" points="1099.97,-71.32 1089.8,-74.28 1099.6,-78.31 1099.97,-71.32"/>
</g>
<!-- Node18&#45;&gt;Node12 -->
<g id="edge25" class="edge">
<title>Node18&#45;&gt;Node12</title>
<path fill="none" stroke="midnightblue" d="M1284.87,-184.98C1319.42,-174.59 1377.92,-157.01 1416.38,-145.45"/>
<polygon fill="midnightblue" stroke="midnightblue" points="1417.61,-148.74 1426.18,-142.51 1415.6,-142.04 1417.61,-148.74"/>
</g>
<!-- Node19 -->
<g id="node19" class="node">
<title>Node19</title>
<g id="a_node19"><a xlink:title=" ">
<polygon fill="white" stroke="#bfbfbf" points="1148,-123.5 1148,-142.5 1307,-142.5 1307,-123.5 1148,-123.5"/>
<text text-anchor="middle" x="1227.5" y="-130.5" font-family="Helvetica,sans-Serif" font-size="10.00">boost/core/scoped_enum.hpp</text>
</a>
</g>
</g>
<!-- Node18&#45;&gt;Node19 -->
<g id="edge26" class="edge">
<title>Node18&#45;&gt;Node19</title>
<path fill="none" stroke="midnightblue" d="M1252.35,-184.98C1248.12,-176.32 1241.46,-162.65 1236.1,-151.65"/>
<polygon fill="midnightblue" stroke="midnightblue" points="1239.17,-149.96 1231.65,-142.51 1232.88,-153.03 1239.17,-149.96"/>
</g>
<!-- Node20&#45;&gt;Node2 -->
<g id="edge28" class="edge">
<title>Node20&#45;&gt;Node2</title>
<path fill="none" stroke="midnightblue" d="M1068.77,-123.48C1062.83,-114.64 1053.38,-100.59 1045.91,-89.48"/>
<polygon fill="midnightblue" stroke="midnightblue" points="1048.7,-87.36 1040.22,-81.01 1042.89,-91.26 1048.7,-87.36"/>
</g>
</g>
</svg>
