<?xml version="1.0" encoding="UTF-8" standalone="no"?>
<!DOCTYPE svg PUBLIC "-//W3C//DTD SVG 1.1//EN"
 "http://www.w3.org/Graphics/SVG/1.1/DTD/svg11.dtd">
<!-- Generated by graphviz version 2.38.0 (20140413.2041)
 -->
<!-- Title: boost/ui/choice.hpp Pages: 1 -->
<svg width="1399pt" height="386pt"
 viewBox="0.00 0.00 1398.50 386.00" xmlns="http://www.w3.org/2000/svg" xmlns:xlink="http://www.w3.org/1999/xlink">
<g id="graph0" class="graph" transform="scale(1 1) rotate(0) translate(4 382)">
<title>boost/ui/choice.hpp</title>
<polygon fill="white" stroke="none" points="-4,4 -4,-382 1394.5,-382 1394.5,4 -4,4"/>
<!-- Node1 -->
<g id="node1" class="node"><title>Node1</title>
<polygon fill="#bfbfbf" stroke="black" points="789.5,-358.5 789.5,-377.5 890.5,-377.5 890.5,-358.5 789.5,-358.5"/>
<text text-anchor="middle" x="840" y="-365.5" font-family="Helvetica,sans-Serif" font-size="10.00">boost/ui/choice.hpp</text>
</g>
<!-- Node2 -->
<g id="node2" class="node"><title>Node2</title>
<g id="a_node2"><a xlink:href="config_8hpp.html" target="_top" xlink:title="Configuration options. ">
<polygon fill="white" stroke="black" points="885.5,-62 885.5,-81 984.5,-81 984.5,-62 885.5,-62"/>
<text text-anchor="middle" x="935" y="-69" font-family="Helvetica,sans-Serif" font-size="10.00">boost/ui/config.hpp</text>
</a>
</g>
</g>
<!-- Node1&#45;&gt;Node2 -->
<g id="edge1" class="edge"><title>Node1&#45;&gt;Node2</title>
<path fill="none" stroke="midnightblue" d="M890.584,-358.622C963.798,-343.477 1096.88,-303.913 1155,-210 1164.03,-195.412 1153.4,-129.014 1148,-123 1127.81,-100.496 1050.45,-86.4585 994.775,-79.056"/>
<polygon fill="midnightblue" stroke="midnightblue" points="995.016,-75.5582 984.65,-77.7505 994.12,-82.5007 995.016,-75.5582"/>
</g>
<!-- Node4 -->
<g id="node4" class="node"><title>Node4</title>
<g id="a_node4"><a xlink:href="strings__box_8hpp.html" target="_top" xlink:title="Widget with array of strings. ">
<polygon fill="white" stroke="black" points="407.5,-302.5 407.5,-321.5 530.5,-321.5 530.5,-302.5 407.5,-302.5"/>
<text text-anchor="middle" x="469" y="-309.5" font-family="Helvetica,sans-Serif" font-size="10.00">boost/ui/strings_box.hpp</text>
</a>
</g>
</g>
<!-- Node1&#45;&gt;Node4 -->
<g id="edge3" class="edge"><title>Node1&#45;&gt;Node4</title>
<path fill="none" stroke="midnightblue" d="M789.192,-359.605C723.896,-350.101 610.293,-333.566 537.435,-322.961"/>
<polygon fill="midnightblue" stroke="midnightblue" points="537.833,-319.482 527.434,-321.505 536.825,-326.409 537.833,-319.482"/>
</g>
<!-- Node3 -->
<g id="node3" class="node"><title>Node3</title>
<polygon fill="white" stroke="#bfbfbf" points="890.5,-0.5 890.5,-19.5 979.5,-19.5 979.5,-0.5 890.5,-0.5"/>
<text text-anchor="middle" x="935" y="-7.5" font-family="Helvetica,sans-Serif" font-size="10.00">boost/config.hpp</text>
</g>
<!-- Node2&#45;&gt;Node3 -->
<g id="edge2" class="edge"><title>Node2&#45;&gt;Node3</title>
<path fill="none" stroke="midnightblue" d="M935,-61.9751C935,-53.5803 935,-40.4806 935,-29.6631"/>
<polygon fill="midnightblue" stroke="midnightblue" points="938.5,-29.5091 935,-19.5091 931.5,-29.5091 938.5,-29.5091"/>
</g>
<!-- Node4&#45;&gt;Node2 -->
<g id="edge4" class="edge"><title>Node4&#45;&gt;Node2</title>
<path fill="none" stroke="midnightblue" d="M502.452,-302.351C524.047,-295.403 551.623,-283.817 571,-266 624.292,-216.999 590.039,-165.009 649,-123 727.549,-67.0347 768.158,-104.523 863,-87 869.74,-85.7548 876.823,-84.3933 883.809,-83.0192"/>
<polygon fill="midnightblue" stroke="midnightblue" points="884.797,-86.3914 893.923,-81.009 883.432,-79.5256 884.797,-86.3914"/>
</g>
<!-- Node5 -->
<g id="node5" class="node"><title>Node5</title>
<g id="a_node5"><a xlink:href="widget_8hpp.html" target="_top" xlink:title="Widget class. ">
<polygon fill="white" stroke="black" points="819.5,-246.5 819.5,-265.5 920.5,-265.5 920.5,-246.5 819.5,-246.5"/>
<text text-anchor="middle" x="870" y="-253.5" font-family="Helvetica,sans-Serif" font-size="10.00">boost/ui/widget.hpp</text>
</a>
</g>
</g>
<!-- Node4&#45;&gt;Node5 -->
<g id="edge5" class="edge"><title>Node4&#45;&gt;Node5</title>
<path fill="none" stroke="midnightblue" d="M530.777,-302.681C606.42,-292.495 733.73,-275.351 809.011,-265.213"/>
<polygon fill="midnightblue" stroke="midnightblue" points="809.834,-268.634 819.277,-263.83 808.9,-261.696 809.834,-268.634"/>
</g>
<!-- Node22 -->
<g id="node22" class="node"><title>Node22</title>
<polygon fill="white" stroke="#bfbfbf" points="0,-246.5 0,-265.5 44,-265.5 44,-246.5 0,-246.5"/>
<text text-anchor="middle" x="22" y="-253.5" font-family="Helvetica,sans-Serif" font-size="10.00">vector</text>
</g>
<!-- Node4&#45;&gt;Node22 -->
<g id="edge30" class="edge"><title>Node4&#45;&gt;Node22</title>
<path fill="none" stroke="midnightblue" d="M407.169,-307.696C327.542,-302.691 184.835,-291.186 54.404,-265.96"/>
<polygon fill="midnightblue" stroke="midnightblue" points="54.7237,-262.456 44.2363,-263.96 53.3729,-269.324 54.7237,-262.456"/>
</g>
<!-- Node23 -->
<g id="node23" class="node"><title>Node23</title>
<polygon fill="white" stroke="#bfbfbf" points="62.5,-246.5 62.5,-265.5 175.5,-265.5 175.5,-246.5 62.5,-246.5"/>
<text text-anchor="middle" x="119" y="-253.5" font-family="Helvetica,sans-Serif" font-size="10.00">boost/range/begin.hpp</text>
</g>
<!-- Node4&#45;&gt;Node23 -->
<g id="edge31" class="edge"><title>Node4&#45;&gt;Node23</title>
<path fill="none" stroke="midnightblue" d="M413.541,-302.444C351.333,-292.846 250.52,-277.292 184.487,-267.104"/>
<polygon fill="midnightblue" stroke="midnightblue" points="184.616,-263.582 174.199,-265.516 183.548,-270.5 184.616,-263.582"/>
</g>
<!-- Node24 -->
<g id="node24" class="node"><title>Node24</title>
<polygon fill="white" stroke="#bfbfbf" points="193.5,-246.5 193.5,-265.5 298.5,-265.5 298.5,-246.5 193.5,-246.5"/>
<text text-anchor="middle" x="246" y="-253.5" font-family="Helvetica,sans-Serif" font-size="10.00">boost/range/end.hpp</text>
</g>
<!-- Node4&#45;&gt;Node24 -->
<g id="edge32" class="edge"><title>Node4&#45;&gt;Node24</title>
<path fill="none" stroke="midnightblue" d="M433.665,-302.444C395.089,-293.102 333.215,-278.119 291.147,-267.933"/>
<polygon fill="midnightblue" stroke="midnightblue" points="291.713,-264.468 281.17,-265.516 290.065,-271.272 291.713,-264.468"/>
</g>
<!-- Node25 -->
<g id="node25" class="node"><title>Node25</title>
<polygon fill="white" stroke="#bfbfbf" points="316.5,-246.5 316.5,-265.5 423.5,-265.5 423.5,-246.5 316.5,-246.5"/>
<text text-anchor="middle" x="370" y="-253.5" font-family="Helvetica,sans-Serif" font-size="10.00">boost/range/size.hpp</text>
</g>
<!-- Node4&#45;&gt;Node25 -->
<g id="edge33" class="edge"><title>Node4&#45;&gt;Node25</title>
<path fill="none" stroke="midnightblue" d="M453.094,-302.324C437.362,-293.743 413.058,-280.486 394.791,-270.522"/>
<polygon fill="midnightblue" stroke="midnightblue" points="396.322,-267.37 385.867,-265.655 392.97,-273.516 396.322,-267.37"/>
</g>
<!-- Node26 -->
<g id="node26" class="node"><title>Node26</title>
<polygon fill="white" stroke="#bfbfbf" points="441,-246.5 441,-265.5 497,-265.5 497,-246.5 441,-246.5"/>
<text text-anchor="middle" x="469" y="-253.5" font-family="Helvetica,sans-Serif" font-size="10.00">algorithm</text>
</g>
<!-- Node4&#45;&gt;Node26 -->
<g id="edge34" class="edge"><title>Node4&#45;&gt;Node26</title>
<path fill="none" stroke="midnightblue" d="M469,-302.083C469,-295.006 469,-284.861 469,-275.986"/>
<polygon fill="midnightblue" stroke="midnightblue" points="472.5,-275.751 469,-265.751 465.5,-275.751 472.5,-275.751"/>
</g>
<!-- Node27 -->
<g id="node27" class="node"><title>Node27</title>
<polygon fill="white" stroke="#bfbfbf" points="515.5,-246.5 515.5,-265.5 562.5,-265.5 562.5,-246.5 515.5,-246.5"/>
<text text-anchor="middle" x="539" y="-253.5" font-family="Helvetica,sans-Serif" font-size="10.00">iterator</text>
</g>
<!-- Node4&#45;&gt;Node27 -->
<g id="edge35" class="edge"><title>Node4&#45;&gt;Node27</title>
<path fill="none" stroke="midnightblue" d="M480.247,-302.324C490.797,-294.185 506.801,-281.839 519.442,-272.087"/>
<polygon fill="midnightblue" stroke="midnightblue" points="521.769,-274.713 527.549,-265.834 517.493,-269.171 521.769,-274.713"/>
</g>
<!-- Node5&#45;&gt;Node2 -->
<g id="edge6" class="edge"><title>Node5&#45;&gt;Node2</title>
<path fill="none" stroke="midnightblue" d="M874.79,-246.215C879.546,-237.273 886.853,-222.927 892,-210 908.596,-168.318 923.046,-117.541 930.209,-90.8786"/>
<polygon fill="midnightblue" stroke="midnightblue" points="933.642,-91.5879 932.818,-81.0252 926.875,-89.7962 933.642,-91.5879"/>
</g>
<!-- Node6 -->
<g id="node6" class="node"><title>Node6</title>
<g id="a_node6"><a xlink:href="coord_8hpp.html" target="_top" xlink:title="Coordinates classes. ">
<polygon fill="white" stroke="black" points="494.5,-123.5 494.5,-142.5 591.5,-142.5 591.5,-123.5 494.5,-123.5"/>
<text text-anchor="middle" x="543" y="-130.5" font-family="Helvetica,sans-Serif" font-size="10.00">boost/ui/coord.hpp</text>
</a>
</g>
</g>
<!-- Node5&#45;&gt;Node6 -->
<g id="edge7" class="edge"><title>Node5&#45;&gt;Node6</title>
<path fill="none" stroke="midnightblue" d="M819.474,-250.798C773.462,-245.576 704.446,-234.194 649,-210 614.133,-194.785 579.378,-166.809 559.605,-149.374"/>
<polygon fill="midnightblue" stroke="midnightblue" points="561.866,-146.7 552.091,-142.615 557.185,-151.905 561.866,-146.7"/>
</g>
<!-- Node12 -->
<g id="node12" class="node"><title>Node12</title>
<g id="a_node12"><a xlink:href="string_8hpp.html" target="_top" xlink:title="String class and operations. ">
<polygon fill="white" stroke="black" points="1228.5,-123.5 1228.5,-142.5 1325.5,-142.5 1325.5,-123.5 1228.5,-123.5"/>
<text text-anchor="middle" x="1277" y="-130.5" font-family="Helvetica,sans-Serif" font-size="10.00">boost/ui/string.hpp</text>
</a>
</g>
</g>
<!-- Node5&#45;&gt;Node12 -->
<g id="edge14" class="edge"><title>Node5&#45;&gt;Node12</title>
<path fill="none" stroke="midnightblue" d="M920.706,-253.077C978.925,-249.5 1076.5,-239.267 1155,-210 1194.63,-195.224 1235.27,-166.697 1258.2,-149.106"/>
<polygon fill="midnightblue" stroke="midnightblue" points="1260.63,-151.651 1266.36,-142.737 1256.32,-146.134 1260.63,-151.651"/>
</g>
<!-- Node16 -->
<g id="node16" class="node"><title>Node16</title>
<g id="a_node16"><a xlink:href="event_8hpp.html" target="_top" xlink:title="Event classes. ">
<polygon fill="white" stroke="black" points="657.5,-185 657.5,-204 754.5,-204 754.5,-185 657.5,-185"/>
<text text-anchor="middle" x="706" y="-192" font-family="Helvetica,sans-Serif" font-size="10.00">boost/ui/event.hpp</text>
</a>
</g>
</g>
<!-- Node5&#45;&gt;Node16 -->
<g id="edge19" class="edge"><title>Node5&#45;&gt;Node16</title>
<path fill="none" stroke="midnightblue" d="M846.503,-246.475C818.371,-236.269 771.071,-219.108 739.211,-207.549"/>
<polygon fill="midnightblue" stroke="midnightblue" points="740.048,-204.13 729.454,-204.009 737.66,-210.71 740.048,-204.13"/>
</g>
<!-- Node18 -->
<g id="node18" class="node"><title>Node18</title>
<g id="a_node18"><a xlink:href="font_8hpp.html" target="_top" xlink:title="Font class. ">
<polygon fill="white" stroke="black" points="1056.5,-185 1056.5,-204 1145.5,-204 1145.5,-185 1056.5,-185"/>
<text text-anchor="middle" x="1101" y="-192" font-family="Helvetica,sans-Serif" font-size="10.00">boost/ui/font.hpp</text>
</a>
</g>
</g>
<!-- Node5&#45;&gt;Node18 -->
<g id="edge23" class="edge"><title>Node5&#45;&gt;Node18</title>
<path fill="none" stroke="midnightblue" d="M904.507,-246.487C940.405,-237.582 998.217,-223.101 1048,-210 1052.05,-208.935 1056.26,-207.809 1060.47,-206.674"/>
<polygon fill="midnightblue" stroke="midnightblue" points="1061.46,-210.032 1070.2,-204.035 1059.63,-203.276 1061.46,-210.032"/>
</g>
<!-- Node20 -->
<g id="node20" class="node"><title>Node20</title>
<g id="a_node20"><a xlink:href="layout_8hpp.html" target="_top" xlink:title="Layout classes. ">
<polygon fill="white" stroke="black" points="939.5,-185 939.5,-204 1038.5,-204 1038.5,-185 939.5,-185"/>
<text text-anchor="middle" x="989" y="-192" font-family="Helvetica,sans-Serif" font-size="10.00">boost/ui/layout.hpp</text>
</a>
</g>
</g>
<!-- Node5&#45;&gt;Node20 -->
<g id="edge27" class="edge"><title>Node5&#45;&gt;Node20</title>
<path fill="none" stroke="midnightblue" d="M887.05,-246.475C906.844,-236.578 939.717,-220.142 962.77,-208.615"/>
<polygon fill="midnightblue" stroke="midnightblue" points="964.603,-211.612 971.982,-204.009 961.472,-205.351 964.603,-211.612"/>
</g>
<!-- Node21 -->
<g id="node21" class="node"><title>Node21</title>
<polygon fill="white" stroke="#bfbfbf" points="773,-179.5 773,-209.5 883,-209.5 883,-179.5 773,-179.5"/>
<text text-anchor="start" x="781" y="-197.5" font-family="Helvetica,sans-Serif" font-size="10.00">boost/ui/detail/shared</text>
<text text-anchor="middle" x="828" y="-186.5" font-family="Helvetica,sans-Serif" font-size="10.00">_count.hpp</text>
</g>
<!-- Node5&#45;&gt;Node21 -->
<g id="edge29" class="edge"><title>Node5&#45;&gt;Node21</title>
<path fill="none" stroke="midnightblue" d="M863.982,-246.475C858.719,-239.019 850.837,-227.852 843.79,-217.869"/>
<polygon fill="midnightblue" stroke="midnightblue" points="846.525,-215.674 837.899,-209.523 840.806,-219.711 846.525,-215.674"/>
</g>
<!-- Node6&#45;&gt;Node2 -->
<g id="edge8" class="edge"><title>Node6&#45;&gt;Node2</title>
<path fill="none" stroke="midnightblue" d="M591.837,-125.01C596.623,-124.329 601.405,-123.65 606,-123 720.2,-106.844 749.305,-106.394 863,-87 870.086,-85.7913 877.543,-84.4118 884.863,-82.9953"/>
<polygon fill="midnightblue" stroke="midnightblue" points="885.58,-86.4215 894.714,-81.0533 884.226,-79.5537 885.58,-86.4215"/>
</g>
<!-- Node7 -->
<g id="node7" class="node"><title>Node7</title>
<polygon fill="white" stroke="#bfbfbf" points="750.5,-62 750.5,-81 853.5,-81 853.5,-62 750.5,-62"/>
<text text-anchor="middle" x="802" y="-69" font-family="Helvetica,sans-Serif" font-size="10.00">boost/geometry.hpp</text>
</g>
<!-- Node6&#45;&gt;Node7 -->
<g id="edge9" class="edge"><title>Node6&#45;&gt;Node7</title>
<path fill="none" stroke="midnightblue" d="M580.984,-123.485C620.862,-114.517 685.376,-99.9317 741,-87 745.975,-85.8434 751.175,-84.6237 756.352,-83.4028"/>
<polygon fill="midnightblue" stroke="midnightblue" points="757.285,-86.7787 766.21,-81.0699 755.673,-79.9668 757.285,-86.7787"/>
</g>
<!-- Node8 -->
<g id="node8" class="node"><title>Node8</title>
<polygon fill="white" stroke="#bfbfbf" points="186.5,-56.5 186.5,-86.5 321.5,-86.5 321.5,-56.5 186.5,-56.5"/>
<text text-anchor="start" x="194.5" y="-74.5" font-family="Helvetica,sans-Serif" font-size="10.00">boost/geometry/geometries</text>
<text text-anchor="middle" x="254" y="-63.5" font-family="Helvetica,sans-Serif" font-size="10.00">/point_xy.hpp</text>
</g>
<!-- Node6&#45;&gt;Node8 -->
<g id="edge10" class="edge"><title>Node6&#45;&gt;Node8</title>
<path fill="none" stroke="midnightblue" d="M501.593,-123.475C457.367,-114.37 386.256,-99.7293 331.566,-88.4695"/>
<polygon fill="midnightblue" stroke="midnightblue" points="332.056,-84.9969 321.555,-86.4084 330.644,-91.8531 332.056,-84.9969"/>
</g>
<!-- Node9 -->
<g id="node9" class="node"><title>Node9</title>
<polygon fill="white" stroke="#bfbfbf" points="339.5,-56.5 339.5,-86.5 474.5,-86.5 474.5,-56.5 339.5,-56.5"/>
<text text-anchor="start" x="347.5" y="-74.5" font-family="Helvetica,sans-Serif" font-size="10.00">boost/geometry/geometries</text>
<text text-anchor="middle" x="407" y="-63.5" font-family="Helvetica,sans-Serif" font-size="10.00">/box.hpp</text>
</g>
<!-- Node6&#45;&gt;Node9 -->
<g id="edge11" class="edge"><title>Node6&#45;&gt;Node9</title>
<path fill="none" stroke="midnightblue" d="M523.515,-123.475C503.976,-114.927 473.288,-101.501 448.311,-90.5734"/>
<polygon fill="midnightblue" stroke="midnightblue" points="449.617,-87.3247 439.053,-86.523 446.811,-93.7378 449.617,-87.3247"/>
</g>
<!-- Node10 -->
<g id="node10" class="node"><title>Node10</title>
<polygon fill="white" stroke="#bfbfbf" points="492.5,-56.5 492.5,-86.5 593.5,-86.5 593.5,-56.5 492.5,-56.5"/>
<text text-anchor="start" x="500.5" y="-74.5" font-family="Helvetica,sans-Serif" font-size="10.00">boost/polygon/point</text>
<text text-anchor="middle" x="543" y="-63.5" font-family="Helvetica,sans-Serif" font-size="10.00">_data.hpp</text>
</g>
<!-- Node6&#45;&gt;Node10 -->
<g id="edge12" class="edge"><title>Node6&#45;&gt;Node10</title>
<path fill="none" stroke="midnightblue" d="M543,-123.475C543,-116.471 543,-106.192 543,-96.6956"/>
<polygon fill="midnightblue" stroke="midnightblue" points="546.5,-96.5229 543,-86.523 539.5,-96.523 546.5,-96.5229"/>
</g>
<!-- Node11 -->
<g id="node11" class="node"><title>Node11</title>
<polygon fill="white" stroke="#bfbfbf" points="612,-56.5 612,-86.5 732,-86.5 732,-56.5 612,-56.5"/>
<text text-anchor="start" x="620" y="-74.5" font-family="Helvetica,sans-Serif" font-size="10.00">boost/polygon/rectangle</text>
<text text-anchor="middle" x="672" y="-63.5" font-family="Helvetica,sans-Serif" font-size="10.00">_data.hpp</text>
</g>
<!-- Node6&#45;&gt;Node11 -->
<g id="edge13" class="edge"><title>Node6&#45;&gt;Node11</title>
<path fill="none" stroke="midnightblue" d="M561.483,-123.475C579.934,-114.965 608.867,-101.619 632.502,-90.718"/>
<polygon fill="midnightblue" stroke="midnightblue" points="633.983,-93.8896 641.597,-86.523 631.051,-87.5332 633.983,-93.8896"/>
</g>
<!-- Node12&#45;&gt;Node2 -->
<g id="edge15" class="edge"><title>Node12&#45;&gt;Node2</title>
<path fill="none" stroke="midnightblue" d="M1228.36,-123.538C1166.62,-112.796 1060.18,-94.278 993.901,-82.7474"/>
<polygon fill="midnightblue" stroke="midnightblue" points="994.475,-79.2948 984.023,-81.0289 993.275,-86.1912 994.475,-79.2948"/>
</g>
<!-- Node13 -->
<g id="node13" class="node"><title>Node13</title>
<polygon fill="white" stroke="#bfbfbf" points="1181.5,-62 1181.5,-81 1222.5,-81 1222.5,-62 1181.5,-62"/>
<text text-anchor="middle" x="1202" y="-69" font-family="Helvetica,sans-Serif" font-size="10.00">string</text>
</g>
<!-- Node12&#45;&gt;Node13 -->
<g id="edge16" class="edge"><title>Node12&#45;&gt;Node13</title>
<path fill="none" stroke="midnightblue" d="M1266.25,-123.475C1254.45,-114.108 1235.26,-98.8839 1220.92,-87.5081"/>
<polygon fill="midnightblue" stroke="midnightblue" points="1222.74,-84.4822 1212.73,-81.0091 1218.38,-89.9661 1222.74,-84.4822"/>
</g>
<!-- Node14 -->
<g id="node14" class="node"><title>Node14</title>
<polygon fill="white" stroke="#bfbfbf" points="1240.5,-62 1240.5,-81 1313.5,-81 1313.5,-62 1240.5,-62"/>
<text text-anchor="middle" x="1277" y="-69" font-family="Helvetica,sans-Serif" font-size="10.00">initializer_list</text>
</g>
<!-- Node12&#45;&gt;Node14 -->
<g id="edge17" class="edge"><title>Node12&#45;&gt;Node14</title>
<path fill="none" stroke="midnightblue" d="M1277,-123.475C1277,-115.08 1277,-101.981 1277,-91.1631"/>
<polygon fill="midnightblue" stroke="midnightblue" points="1280.5,-91.0091 1277,-81.0091 1273.5,-91.0091 1280.5,-91.0091"/>
</g>
<!-- Node15 -->
<g id="node15" class="node"><title>Node15</title>
<polygon fill="white" stroke="#bfbfbf" points="1331.5,-62 1331.5,-81 1390.5,-81 1390.5,-62 1331.5,-62"/>
<text text-anchor="middle" x="1361" y="-69" font-family="Helvetica,sans-Serif" font-size="10.00">functional</text>
</g>
<!-- Node12&#45;&gt;Node15 -->
<g id="edge18" class="edge"><title>Node12&#45;&gt;Node15</title>
<path fill="none" stroke="midnightblue" d="M1289.04,-123.475C1302.51,-113.931 1324.57,-98.3073 1340.72,-86.8683"/>
<polygon fill="midnightblue" stroke="midnightblue" points="1342.85,-89.6454 1348.99,-81.0091 1338.8,-83.9332 1342.85,-89.6454"/>
</g>
<!-- Node16&#45;&gt;Node2 -->
<g id="edge20" class="edge"><title>Node16&#45;&gt;Node2</title>
<path fill="none" stroke="midnightblue" d="M722.103,-184.992C761.344,-164.257 862.16,-110.988 909.601,-85.9205"/>
<polygon fill="midnightblue" stroke="midnightblue" points="911.402,-88.9274 918.608,-81.161 908.132,-82.7383 911.402,-88.9274"/>
</g>
<!-- Node16&#45;&gt;Node6 -->
<g id="edge21" class="edge"><title>Node16&#45;&gt;Node6</title>
<path fill="none" stroke="midnightblue" d="M682.646,-184.975C654.686,-174.769 607.674,-157.608 576.009,-146.049"/>
<polygon fill="midnightblue" stroke="midnightblue" points="576.905,-142.65 566.311,-142.509 574.504,-149.226 576.905,-142.65"/>
</g>
<!-- Node17 -->
<g id="node17" class="node"><title>Node17</title>
<polygon fill="white" stroke="#bfbfbf" points="657.5,-123.5 657.5,-142.5 754.5,-142.5 754.5,-123.5 657.5,-123.5"/>
<text text-anchor="middle" x="706" y="-130.5" font-family="Helvetica,sans-Serif" font-size="10.00">boost/function.hpp</text>
</g>
<!-- Node16&#45;&gt;Node17 -->
<g id="edge22" class="edge"><title>Node16&#45;&gt;Node17</title>
<path fill="none" stroke="midnightblue" d="M706,-184.975C706,-176.58 706,-163.481 706,-152.663"/>
<polygon fill="midnightblue" stroke="midnightblue" points="709.5,-152.509 706,-142.509 702.5,-152.509 709.5,-152.509"/>
</g>
<!-- Node18&#45;&gt;Node2 -->
<g id="edge24" class="edge"><title>Node18&#45;&gt;Node2</title>
<path fill="none" stroke="midnightblue" d="M1110.11,-184.976C1123.97,-170.961 1147.25,-142.648 1132,-123 1115.21,-101.36 1046.41,-87.4011 994.807,-79.7614"/>
<polygon fill="midnightblue" stroke="midnightblue" points="995.132,-76.2723 984.737,-78.3173 994.139,-83.2014 995.132,-76.2723"/>
</g>
<!-- Node18&#45;&gt;Node12 -->
<g id="edge25" class="edge"><title>Node18&#45;&gt;Node12</title>
<path fill="none" stroke="midnightblue" d="M1126.22,-184.975C1156.67,-174.68 1208.05,-157.31 1242.24,-145.75"/>
<polygon fill="midnightblue" stroke="midnightblue" points="1243.48,-149.027 1251.83,-142.509 1241.24,-142.396 1243.48,-149.027"/>
</g>
<!-- Node19 -->
<g id="node19" class="node"><title>Node19</title>
<polygon fill="white" stroke="#bfbfbf" points="977.5,-123.5 977.5,-142.5 1122.5,-142.5 1122.5,-123.5 977.5,-123.5"/>
<text text-anchor="middle" x="1050" y="-130.5" font-family="Helvetica,sans-Serif" font-size="10.00">boost/core/scoped_enum.hpp</text>
</g>
<!-- Node18&#45;&gt;Node19 -->
<g id="edge26" class="edge"><title>Node18&#45;&gt;Node19</title>
<path fill="none" stroke="midnightblue" d="M1093.69,-184.975C1085.97,-175.962 1073.59,-161.525 1063.98,-150.312"/>
<polygon fill="midnightblue" stroke="midnightblue" points="1066.46,-147.824 1057.29,-142.509 1061.14,-152.379 1066.46,-147.824"/>
</g>
<!-- Node20&#45;&gt;Node2 -->
<g id="edge28" class="edge"><title>Node20&#45;&gt;Node2</title>
<path fill="none" stroke="midnightblue" d="M985.116,-184.798C976.321,-165.089 954.73,-116.711 942.963,-90.342"/>
<polygon fill="midnightblue" stroke="midnightblue" points="946.12,-88.8287 938.848,-81.1232 939.728,-91.6815 946.12,-88.8287"/>
</g>
</g>
</svg>
