<?xml version="1.0" encoding="UTF-8" standalone="no"?>
<!DOCTYPE svg PUBLIC "-//W3C//DTD SVG 1.1//EN"
 "http://www.w3.org/Graphics/SVG/1.1/DTD/svg11.dtd">
<!-- Generated by graphviz version 2.43.0 (0)
 -->
<!-- Title: boost::ui::widget Pages: 1 -->
<svg width="457pt" height="788pt"
 viewBox="0.00 0.00 457.00 788.00" xmlns="http://www.w3.org/2000/svg" xmlns:xlink="http://www.w3.org/1999/xlink">
<g id="graph0" class="graph" transform="scale(1 1) rotate(0) translate(4 784)">
<title>boost::ui::widget</title>
<polygon fill="white" stroke="transparent" points="-4,4 -4,-784 453,-784 453,4 -4,4"/>
<!-- Node1 -->
<g id="node1" class="node">
<title>Node1</title>
<g id="a_node1"><a xlink:title="Base class for all widgets.">
<polygon fill="#bfbfbf" stroke="black" points="0,-418.5 0,-437.5 98,-437.5 98,-418.5 0,-418.5"/>
<text text-anchor="middle" x="49" y="-425.5" font-family="Helvetica,sans-Serif" font-size="10.00">boost::ui::widget</text>
</a>
</g>
</g>
<!-- Node2 -->
<g id="node2" class="node">
<title>Node2</title>
<g id="a_node2"><a xlink:href="classboost_1_1ui_1_1button.html" target="_top" xlink:title="Widget with label that generate event when clicked on.">
<polygon fill="white" stroke="black" points="158.5,-760.5 158.5,-779.5 254.5,-779.5 254.5,-760.5 158.5,-760.5"/>
<text text-anchor="middle" x="206.5" y="-767.5" font-family="Helvetica,sans-Serif" font-size="10.00">boost::ui::button</text>
</a>
</g>
</g>
<!-- Node1&#45;&gt;Node2 -->
<g id="edge1" class="edge">
<title>Node1&#45;&gt;Node2</title>
<path fill="none" stroke="midnightblue" d="M52.55,-447.95C61.04,-511.42 90.34,-707.11 134,-751 140.61,-757.65 149.27,-762.05 158.26,-764.94"/>
<polygon fill="midnightblue" stroke="midnightblue" points="55.97,-447.16 51.2,-437.7 49.03,-448.07 55.97,-447.16"/>
</g>
<!-- Node3 -->
<g id="node3" class="node">
<title>Node3</title>
<g id="a_node3"><a xlink:href="classboost_1_1ui_1_1canvas.html" target="_top" xlink:title="Widget for drawing.">
<polygon fill="white" stroke="black" points="157,-722.5 157,-741.5 256,-741.5 256,-722.5 157,-722.5"/>
<text text-anchor="middle" x="206.5" y="-729.5" font-family="Helvetica,sans-Serif" font-size="10.00">boost::ui::canvas</text>
</a>
</g>
</g>
<!-- Node1&#45;&gt;Node3 -->
<g id="edge2" class="edge">
<title>Node1&#45;&gt;Node3</title>
<path fill="none" stroke="midnightblue" d="M49.65,-447.59C49.84,-498.97 57.71,-638.74 134,-713 140.35,-719.18 148.47,-723.41 156.95,-726.29"/>
<polygon fill="midnightblue" stroke="midnightblue" points="53.15,-447.54 49.71,-437.52 46.15,-447.5 53.15,-447.54"/>
</g>
<!-- Node4 -->
<g id="node4" class="node">
<title>Node4</title>
<g id="a_node4"><a xlink:href="classboost_1_1ui_1_1check__box__base.html" target="_top" xlink:title="Check box base class.">
<polygon fill="white" stroke="black" points="134,-684.5 134,-703.5 279,-703.5 279,-684.5 134,-684.5"/>
<text text-anchor="middle" x="206.5" y="-691.5" font-family="Helvetica,sans-Serif" font-size="10.00">boost::ui::check_box_base</text>
</a>
</g>
</g>
<!-- Node1&#45;&gt;Node4 -->
<g id="edge3" class="edge">
<title>Node1&#45;&gt;Node4</title>
<path fill="none" stroke="midnightblue" d="M50.7,-447.78C53.45,-494.49 67.03,-612.45 134,-675 138.13,-678.86 142.95,-681.95 148.11,-684.43"/>
<polygon fill="midnightblue" stroke="midnightblue" points="54.19,-447.56 50.21,-437.74 47.2,-447.9 54.19,-447.56"/>
</g>
<!-- Node7 -->
<g id="node7" class="node">
<title>Node7</title>
<g id="a_node7"><a xlink:href="classboost_1_1ui_1_1date__picker.html" target="_top" xlink:title="Date picker widget.">
<polygon fill="white" stroke="black" points="146,-646.5 146,-665.5 267,-665.5 267,-646.5 146,-646.5"/>
<text text-anchor="middle" x="206.5" y="-653.5" font-family="Helvetica,sans-Serif" font-size="10.00">boost::ui::date_picker</text>
</a>
</g>
</g>
<!-- Node1&#45;&gt;Node7 -->
<g id="edge6" class="edge">
<title>Node1&#45;&gt;Node7</title>
<path fill="none" stroke="midnightblue" d="M52.1,-447.78C57.58,-489.28 76.17,-585.85 134,-637 138.33,-640.83 143.35,-643.9 148.67,-646.36"/>
<polygon fill="midnightblue" stroke="midnightblue" points="55.54,-447.13 50.88,-437.61 48.59,-447.96 55.54,-447.13"/>
</g>
<!-- Node8 -->
<g id="node8" class="node">
<title>Node8</title>
<g id="a_node8"><a xlink:href="classboost_1_1ui_1_1group__box.html" target="_top" xlink:title="Widget that groups other widgets using a frame and a title.">
<polygon fill="white" stroke="black" points="148.5,-608.5 148.5,-627.5 264.5,-627.5 264.5,-608.5 148.5,-608.5"/>
<text text-anchor="middle" x="206.5" y="-615.5" font-family="Helvetica,sans-Serif" font-size="10.00">boost::ui::group_box</text>
</a>
</g>
</g>
<!-- Node1&#45;&gt;Node8 -->
<g id="edge7" class="edge">
<title>Node1&#45;&gt;Node8</title>
<path fill="none" stroke="midnightblue" d="M54.13,-448.07C62.58,-483.94 85.31,-559.06 134,-599 138.77,-602.91 144.26,-606.02 150.04,-608.5"/>
<polygon fill="midnightblue" stroke="midnightblue" points="57.45,-446.9 51.87,-437.89 50.62,-448.41 57.45,-446.9"/>
</g>
<!-- Node9 -->
<g id="node9" class="node">
<title>Node9</title>
<g id="a_node9"><a xlink:href="classboost_1_1ui_1_1hyperlink.html" target="_top" xlink:title="Widget that displays static text which links to an URL.">
<polygon fill="white" stroke="black" points="151.5,-570.5 151.5,-589.5 261.5,-589.5 261.5,-570.5 151.5,-570.5"/>
<text text-anchor="middle" x="206.5" y="-577.5" font-family="Helvetica,sans-Serif" font-size="10.00">boost::ui::hyperlink</text>
</a>
</g>
</g>
<!-- Node1&#45;&gt;Node9 -->
<g id="edge8" class="edge">
<title>Node1&#45;&gt;Node9</title>
<path fill="none" stroke="midnightblue" d="M56.85,-447.26C68.22,-476.42 93.82,-531.48 134,-561 139.28,-564.88 145.29,-567.97 151.54,-570.42"/>
<polygon fill="midnightblue" stroke="midnightblue" points="60.09,-445.92 53.3,-437.79 53.53,-448.38 60.09,-445.92"/>
</g>
<!-- Node10 -->
<g id="node10" class="node">
<title>Node10</title>
<g id="a_node10"><a xlink:href="classboost_1_1ui_1_1image__widget.html" target="_top" xlink:title="Widget that displays image.">
<polygon fill="white" stroke="black" points="139.5,-532.5 139.5,-551.5 273.5,-551.5 273.5,-532.5 139.5,-532.5"/>
<text text-anchor="middle" x="206.5" y="-539.5" font-family="Helvetica,sans-Serif" font-size="10.00">boost::ui::image_widget</text>
</a>
</g>
</g>
<!-- Node1&#45;&gt;Node10 -->
<g id="edge9" class="edge">
<title>Node1&#45;&gt;Node10</title>
<path fill="none" stroke="midnightblue" d="M61.32,-446.35C75.61,-467.95 102.18,-503.35 134,-523 140.23,-526.85 147.23,-529.92 154.35,-532.38"/>
<polygon fill="midnightblue" stroke="midnightblue" points="64.16,-444.29 55.81,-437.77 58.27,-448.08 64.16,-444.29"/>
</g>
<!-- Node11 -->
<g id="node11" class="node">
<title>Node11</title>
<g id="a_node11"><a xlink:href="classboost_1_1ui_1_1label.html" target="_top" xlink:title="Widget that displays static text.">
<polygon fill="white" stroke="black" points="162,-494.5 162,-513.5 251,-513.5 251,-494.5 162,-494.5"/>
<text text-anchor="middle" x="206.5" y="-501.5" font-family="Helvetica,sans-Serif" font-size="10.00">boost::ui::label</text>
</a>
</g>
</g>
<!-- Node1&#45;&gt;Node11 -->
<g id="edge10" class="edge">
<title>Node1&#45;&gt;Node11</title>
<path fill="none" stroke="midnightblue" d="M69.68,-444.18C86.02,-456.9 110.32,-474.2 134,-485 142.76,-489 152.53,-492.28 161.96,-494.93"/>
<polygon fill="midnightblue" stroke="midnightblue" points="71.49,-441.15 61.48,-437.66 67.13,-446.63 71.49,-441.15"/>
</g>
<!-- Node12 -->
<g id="node12" class="node">
<title>Node12</title>
<g id="a_node12"><a xlink:href="classboost_1_1ui_1_1line__widget.html" target="_top" xlink:title="Abstract widget that displays horizontal or vertical line.">
<polygon fill="white" stroke="black" points="146,-456.5 146,-475.5 267,-475.5 267,-456.5 146,-456.5"/>
<text text-anchor="middle" x="206.5" y="-463.5" font-family="Helvetica,sans-Serif" font-size="10.00">boost::ui::line_widget</text>
</a>
</g>
</g>
<!-- Node1&#45;&gt;Node12 -->
<g id="edge11" class="edge">
<title>Node1&#45;&gt;Node12</title>
<path fill="none" stroke="midnightblue" d="M98.97,-439.97C120.77,-445.29 146.07,-451.48 166.54,-456.48"/>
<polygon fill="midnightblue" stroke="midnightblue" points="99.78,-436.56 89.24,-437.59 98.12,-443.36 99.78,-436.56"/>
</g>
<!-- Node15 -->
<g id="node15" class="node">
<title>Node15</title>
<g id="a_node15"><a xlink:href="classboost_1_1ui_1_1native__widget.html" target="_top" xlink:title="Widget that wraps previously created native widget.">
<polygon fill="white" stroke="black" points="139.5,-418.5 139.5,-437.5 273.5,-437.5 273.5,-418.5 139.5,-418.5"/>
<text text-anchor="middle" x="206.5" y="-425.5" font-family="Helvetica,sans-Serif" font-size="10.00">boost::ui::native_widget</text>
</a>
</g>
</g>
<!-- Node1&#45;&gt;Node15 -->
<g id="edge14" class="edge">
<title>Node1&#45;&gt;Node15</title>
<path fill="none" stroke="midnightblue" d="M108.64,-428C118.71,-428 129.23,-428 139.47,-428"/>
<polygon fill="midnightblue" stroke="midnightblue" points="108.35,-424.5 98.35,-428 108.35,-431.5 108.35,-424.5"/>
</g>
<!-- Node16 -->
<g id="node16" class="node">
<title>Node16</title>
<g id="a_node16"><a xlink:href="classboost_1_1ui_1_1notebook.html" target="_top" xlink:title="Widget that is an array of tabbed widgets.">
<polygon fill="white" stroke="black" points="151.5,-380.5 151.5,-399.5 261.5,-399.5 261.5,-380.5 151.5,-380.5"/>
<text text-anchor="middle" x="206.5" y="-387.5" font-family="Helvetica,sans-Serif" font-size="10.00">boost::ui::notebook</text>
</a>
</g>
</g>
<!-- Node1&#45;&gt;Node16 -->
<g id="edge15" class="edge">
<title>Node1&#45;&gt;Node16</title>
<path fill="none" stroke="midnightblue" d="M98.97,-416.03C120.77,-410.71 146.07,-404.52 166.54,-399.52"/>
<polygon fill="midnightblue" stroke="midnightblue" points="98.12,-412.64 89.24,-418.41 99.78,-419.44 98.12,-412.64"/>
</g>
<!-- Node17 -->
<g id="node17" class="node">
<title>Node17</title>
<g id="a_node17"><a xlink:href="classboost_1_1ui_1_1panel.html" target="_top" xlink:title="Widget that hosts other widgets.">
<polygon fill="white" stroke="black" points="160.5,-342.5 160.5,-361.5 252.5,-361.5 252.5,-342.5 160.5,-342.5"/>
<text text-anchor="middle" x="206.5" y="-349.5" font-family="Helvetica,sans-Serif" font-size="10.00">boost::ui::panel</text>
</a>
</g>
</g>
<!-- Node1&#45;&gt;Node17 -->
<g id="edge16" class="edge">
<title>Node1&#45;&gt;Node17</title>
<path fill="none" stroke="midnightblue" d="M69.68,-411.82C86.02,-399.1 110.32,-381.8 134,-371 142.3,-367.22 151.49,-364.07 160.45,-361.5"/>
<polygon fill="midnightblue" stroke="midnightblue" points="67.13,-409.37 61.48,-418.34 71.49,-414.85 67.13,-409.37"/>
</g>
<!-- Node18 -->
<g id="node18" class="node">
<title>Node18</title>
<g id="a_node18"><a xlink:href="classboost_1_1ui_1_1progress__bar.html" target="_top" xlink:title="Progress bar widget base class.">
<polygon fill="white" stroke="black" points="142.5,-304.5 142.5,-323.5 270.5,-323.5 270.5,-304.5 142.5,-304.5"/>
<text text-anchor="middle" x="206.5" y="-311.5" font-family="Helvetica,sans-Serif" font-size="10.00">boost::ui::progress_bar</text>
</a>
</g>
</g>
<!-- Node1&#45;&gt;Node18 -->
<g id="edge17" class="edge">
<title>Node1&#45;&gt;Node18</title>
<path fill="none" stroke="midnightblue" d="M61.32,-409.65C75.61,-388.05 102.18,-352.65 134,-333 140.23,-329.15 147.23,-326.08 154.35,-323.62"/>
<polygon fill="midnightblue" stroke="midnightblue" points="58.27,-407.92 55.81,-418.23 64.16,-411.71 58.27,-407.92"/>
</g>
<!-- Node21 -->
<g id="node21" class="node">
<title>Node21</title>
<g id="a_node21"><a xlink:href="classboost_1_1ui_1_1slider.html" target="_top" xlink:title="Slider widget base class.">
<polygon fill="white" stroke="black" points="160.5,-266.5 160.5,-285.5 252.5,-285.5 252.5,-266.5 160.5,-266.5"/>
<text text-anchor="middle" x="206.5" y="-273.5" font-family="Helvetica,sans-Serif" font-size="10.00">boost::ui::slider</text>
</a>
</g>
</g>
<!-- Node1&#45;&gt;Node21 -->
<g id="edge20" class="edge">
<title>Node1&#45;&gt;Node21</title>
<path fill="none" stroke="midnightblue" d="M56.85,-408.74C68.22,-379.58 93.82,-324.52 134,-295 141.76,-289.3 151.11,-285.3 160.46,-282.51"/>
<polygon fill="midnightblue" stroke="midnightblue" points="53.53,-407.62 53.3,-418.21 60.09,-410.08 53.53,-407.62"/>
</g>
<!-- Node24 -->
<g id="node24" class="node">
<title>Node24</title>
<g id="a_node24"><a xlink:href="classboost_1_1ui_1_1strings__box.html" target="_top" xlink:title="Abstract widget that holds array of strings.">
<polygon fill="white" stroke="black" points="146,-228.5 146,-247.5 267,-247.5 267,-228.5 146,-228.5"/>
<text text-anchor="middle" x="206.5" y="-235.5" font-family="Helvetica,sans-Serif" font-size="10.00">boost::ui::strings_box</text>
</a>
</g>
</g>
<!-- Node1&#45;&gt;Node24 -->
<g id="edge23" class="edge">
<title>Node1&#45;&gt;Node24</title>
<path fill="none" stroke="midnightblue" d="M54.13,-407.93C62.58,-372.06 85.31,-296.94 134,-257 138.77,-253.09 144.26,-249.98 150.04,-247.5"/>
<polygon fill="midnightblue" stroke="midnightblue" points="50.62,-407.59 51.87,-418.11 57.45,-409.1 50.62,-407.59"/>
</g>
<!-- Node28 -->
<g id="node28" class="node">
<title>Node28</title>
<g id="a_node28"><a xlink:href="classboost_1_1ui_1_1text__box__base.html" target="_top" xlink:title="Abstract text editor widget.">
<polygon fill="white" stroke="black" points="138.5,-171.5 138.5,-190.5 274.5,-190.5 274.5,-171.5 138.5,-171.5"/>
<text text-anchor="middle" x="206.5" y="-178.5" font-family="Helvetica,sans-Serif" font-size="10.00">boost::ui::text_box_base</text>
</a>
</g>
</g>
<!-- Node1&#45;&gt;Node28 -->
<g id="edge27" class="edge">
<title>Node1&#45;&gt;Node28</title>
<path fill="none" stroke="midnightblue" d="M53.22,-408.4C60.72,-368.33 82.73,-276.03 134,-219 145.65,-206.04 162.79,-196.72 177.37,-190.55"/>
<polygon fill="midnightblue" stroke="midnightblue" points="49.74,-407.99 51.45,-418.45 56.63,-409.21 49.74,-407.99"/>
</g>
<!-- Node32 -->
<g id="node32" class="node">
<title>Node32</title>
<g id="a_node32"><a xlink:href="classboost_1_1ui_1_1time__picker.html" target="_top" xlink:title="Time picker widget.">
<polygon fill="white" stroke="black" points="145.5,-133.5 145.5,-152.5 267.5,-152.5 267.5,-133.5 145.5,-133.5"/>
<text text-anchor="middle" x="206.5" y="-140.5" font-family="Helvetica,sans-Serif" font-size="10.00">boost::ui::time_picker</text>
</a>
</g>
</g>
<!-- Node1&#45;&gt;Node32 -->
<g id="edge31" class="edge">
<title>Node1&#45;&gt;Node32</title>
<path fill="none" stroke="midnightblue" d="M50.14,-408.08C51.62,-358.8 62.5,-230.27 134,-162 137.99,-158.19 142.66,-155.12 147.67,-152.65"/>
<polygon fill="midnightblue" stroke="midnightblue" points="46.64,-408.26 49.94,-418.33 53.64,-408.4 46.64,-408.26"/>
</g>
<!-- Node33 -->
<g id="node33" class="node">
<title>Node33</title>
<g id="a_node33"><a xlink:href="classboost_1_1ui_1_1web__widget.html" target="_top" xlink:title="Widget that renders HTML.">
<polygon fill="white" stroke="black" points="145,-95.5 145,-114.5 268,-114.5 268,-95.5 145,-95.5"/>
<text text-anchor="middle" x="206.5" y="-102.5" font-family="Helvetica,sans-Serif" font-size="10.00">boost::ui::web_widget</text>
</a>
</g>
</g>
<!-- Node1&#45;&gt;Node33 -->
<g id="edge32" class="edge">
<title>Node1&#45;&gt;Node33</title>
<path fill="none" stroke="midnightblue" d="M49.21,-408.21C48.21,-354.38 53.17,-204.04 134,-124 137.92,-120.11 142.55,-117 147.52,-114.5"/>
<polygon fill="midnightblue" stroke="midnightblue" points="45.72,-408.53 49.5,-418.43 52.72,-408.34 45.72,-408.53"/>
</g>
<!-- Node34 -->
<g id="node34" class="node">
<title>Node34</title>
<g id="a_node34"><a xlink:href="classboost_1_1ui_1_1window.html" target="_top" xlink:title="Abstract top level widget that hosts other widgets.">
<polygon fill="white" stroke="black" points="155.5,-38.5 155.5,-57.5 257.5,-57.5 257.5,-38.5 155.5,-38.5"/>
<text text-anchor="middle" x="206.5" y="-45.5" font-family="Helvetica,sans-Serif" font-size="10.00">boost::ui::window</text>
</a>
</g>
</g>
<!-- Node1&#45;&gt;Node34 -->
<g id="edge33" class="edge">
<title>Node1&#45;&gt;Node34</title>
<path fill="none" stroke="midnightblue" d="M49.52,-408.3C49.15,-351.85 55.29,-187.1 134,-86 144.36,-72.69 160.72,-63.51 175.18,-57.51"/>
<polygon fill="midnightblue" stroke="midnightblue" points="46.02,-408.42 49.67,-418.37 53.02,-408.32 46.02,-408.42"/>
</g>
<!-- Node5 -->
<g id="node5" class="node">
<title>Node5</title>
<g id="a_node5"><a xlink:href="classboost_1_1ui_1_1check__box.html" target="_top" xlink:title="Labelled widget that that permits the user to make a binary choice.">
<polygon fill="white" stroke="black" points="324,-706.5 324,-725.5 440,-725.5 440,-706.5 324,-706.5"/>
<text text-anchor="middle" x="382" y="-713.5" font-family="Helvetica,sans-Serif" font-size="10.00">boost::ui::check_box</text>
</a>
</g>
</g>
<!-- Node4&#45;&gt;Node5 -->
<g id="edge4" class="edge">
<title>Node4&#45;&gt;Node5</title>
<path fill="none" stroke="midnightblue" d="M289.3,-704.37C300.99,-705.85 312.81,-707.35 323.89,-708.76"/>
<polygon fill="midnightblue" stroke="midnightblue" points="289.43,-700.86 279.07,-703.08 288.55,-707.81 289.43,-700.86"/>
</g>
<!-- Node6 -->
<g id="node6" class="node">
<title>Node6</title>
<g id="a_node6"><a xlink:href="classboost_1_1ui_1_1tri__state__check__box.html" target="_top" xlink:title="Labelled widget that that permits the user to make a ternary choice.">
<polygon fill="white" stroke="black" points="329.5,-657 329.5,-687 434.5,-687 434.5,-657 329.5,-657"/>
<text text-anchor="start" x="337.5" y="-675" font-family="Helvetica,sans-Serif" font-size="10.00">boost::ui::tri_state</text>
<text text-anchor="middle" x="382" y="-664" font-family="Helvetica,sans-Serif" font-size="10.00">_check_box</text>
</a>
</g>
</g>
<!-- Node4&#45;&gt;Node6 -->
<g id="edge5" class="edge">
<title>Node4&#45;&gt;Node6</title>
<path fill="none" stroke="midnightblue" d="M289.04,-683.66C302.8,-681.92 316.74,-680.15 329.46,-678.53"/>
<polygon fill="midnightblue" stroke="midnightblue" points="288.55,-680.19 279.07,-684.92 289.43,-687.14 288.55,-680.19"/>
</g>
<!-- Node13 -->
<g id="node13" class="node">
<title>Node13</title>
<g id="a_node13"><a xlink:href="classboost_1_1ui_1_1hline.html" target="_top" xlink:title="Horizontal line widget.">
<polygon fill="white" stroke="black" points="337.5,-494.5 337.5,-513.5 426.5,-513.5 426.5,-494.5 337.5,-494.5"/>
<text text-anchor="middle" x="382" y="-501.5" font-family="Helvetica,sans-Serif" font-size="10.00">boost::ui::hline</text>
</a>
</g>
</g>
<!-- Node12&#45;&gt;Node13 -->
<g id="edge12" class="edge">
<title>Node12&#45;&gt;Node13</title>
<path fill="none" stroke="midnightblue" d="M261.16,-477.75C285.69,-483.13 314.38,-489.41 337.53,-494.48"/>
<polygon fill="midnightblue" stroke="midnightblue" points="261.8,-474.31 251.28,-475.59 260.3,-481.15 261.8,-474.31"/>
</g>
<!-- Node14 -->
<g id="node14" class="node">
<title>Node14</title>
<g id="a_node14"><a xlink:href="classboost_1_1ui_1_1vline.html" target="_top" xlink:title="Vertical line widget.">
<polygon fill="white" stroke="black" points="337.5,-456.5 337.5,-475.5 426.5,-475.5 426.5,-456.5 337.5,-456.5"/>
<text text-anchor="middle" x="382" y="-463.5" font-family="Helvetica,sans-Serif" font-size="10.00">boost::ui::vline</text>
</a>
</g>
</g>
<!-- Node12&#45;&gt;Node14 -->
<g id="edge13" class="edge">
<title>Node12&#45;&gt;Node14</title>
<path fill="none" stroke="midnightblue" d="M277.35,-466C297.62,-466 319.18,-466 337.35,-466"/>
<polygon fill="midnightblue" stroke="midnightblue" points="277.21,-462.5 267.21,-466 277.21,-469.5 277.21,-462.5"/>
</g>
<!-- Node19 -->
<g id="node19" class="node">
<title>Node19</title>
<g id="a_node19"><a xlink:href="classboost_1_1ui_1_1hprogress__bar.html" target="_top" xlink:title="Horizontal progress bar widget.">
<polygon fill="white" stroke="black" points="315,-418.5 315,-437.5 449,-437.5 449,-418.5 315,-418.5"/>
<text text-anchor="middle" x="382" y="-425.5" font-family="Helvetica,sans-Serif" font-size="10.00">boost::ui::hprogress_bar</text>
</a>
</g>
</g>
<!-- Node18&#45;&gt;Node19 -->
<g id="edge18" class="edge">
<title>Node18&#45;&gt;Node19</title>
<path fill="none" stroke="midnightblue" d="M272.54,-328.37C274.8,-329.77 276.97,-331.31 279,-333 307.73,-356.91 286.52,-384.8 315,-409 319.54,-412.86 324.83,-415.94 330.39,-418.39"/>
<polygon fill="midnightblue" stroke="midnightblue" points="273.86,-325.11 263.38,-323.59 270.63,-331.32 273.86,-325.11"/>
</g>
<!-- Node20 -->
<g id="node20" class="node">
<title>Node20</title>
<g id="a_node20"><a xlink:href="classboost_1_1ui_1_1vprogress__bar.html" target="_top" xlink:title="Vertical progress bar widget.">
<polygon fill="white" stroke="black" points="315,-380.5 315,-399.5 449,-399.5 449,-380.5 315,-380.5"/>
<text text-anchor="middle" x="382" y="-387.5" font-family="Helvetica,sans-Serif" font-size="10.00">boost::ui::vprogress_bar</text>
</a>
</g>
</g>
<!-- Node18&#45;&gt;Node20 -->
<g id="edge19" class="edge">
<title>Node18&#45;&gt;Node20</title>
<path fill="none" stroke="midnightblue" d="M267.38,-327.18C271.42,-328.89 275.34,-330.82 279,-333 299,-344.88 295.12,-358.91 315,-371 321.32,-374.84 328.44,-377.94 335.62,-380.42"/>
<polygon fill="midnightblue" stroke="midnightblue" points="268.38,-323.81 257.78,-323.56 265.91,-330.36 268.38,-323.81"/>
</g>
<!-- Node22 -->
<g id="node22" class="node">
<title>Node22</title>
<g id="a_node22"><a xlink:href="classboost_1_1ui_1_1hslider.html" target="_top" xlink:title="Horizontal slider widget.">
<polygon fill="white" stroke="black" points="333,-342.5 333,-361.5 431,-361.5 431,-342.5 333,-342.5"/>
<text text-anchor="middle" x="382" y="-349.5" font-family="Helvetica,sans-Serif" font-size="10.00">boost::ui::hslider</text>
</a>
</g>
</g>
<!-- Node21&#45;&gt;Node22 -->
<g id="edge21" class="edge">
<title>Node21&#45;&gt;Node22</title>
<path fill="none" stroke="midnightblue" d="M262.36,-287.18C268.17,-289.35 273.84,-291.93 279,-295 299,-306.88 295.12,-320.91 315,-333 321.32,-336.84 328.44,-339.94 335.62,-342.42"/>
<polygon fill="midnightblue" stroke="midnightblue" points="263.11,-283.74 252.52,-283.9 260.9,-290.38 263.11,-283.74"/>
</g>
<!-- Node23 -->
<g id="node23" class="node">
<title>Node23</title>
<g id="a_node23"><a xlink:href="classboost_1_1ui_1_1vslider.html" target="_top" xlink:title="Vertical slider widget.">
<polygon fill="white" stroke="black" points="333,-304.5 333,-323.5 431,-323.5 431,-304.5 333,-304.5"/>
<text text-anchor="middle" x="382" y="-311.5" font-family="Helvetica,sans-Serif" font-size="10.00">boost::ui::vslider</text>
</a>
</g>
</g>
<!-- Node21&#45;&gt;Node23 -->
<g id="edge22" class="edge">
<title>Node21&#45;&gt;Node23</title>
<path fill="none" stroke="midnightblue" d="M261.16,-287.75C285.69,-293.13 314.38,-299.41 337.53,-304.48"/>
<polygon fill="midnightblue" stroke="midnightblue" points="261.8,-284.31 251.28,-285.59 260.3,-291.15 261.8,-284.31"/>
</g>
<!-- Node25 -->
<g id="node25" class="node">
<title>Node25</title>
<g id="a_node25"><a xlink:href="classboost_1_1ui_1_1choice.html" target="_top" xlink:title="Widget to select string from popup list of strings.">
<polygon fill="white" stroke="black" points="334,-266.5 334,-285.5 430,-285.5 430,-266.5 334,-266.5"/>
<text text-anchor="middle" x="382" y="-273.5" font-family="Helvetica,sans-Serif" font-size="10.00">boost::ui::choice</text>
</a>
</g>
</g>
<!-- Node24&#45;&gt;Node25 -->
<g id="edge24" class="edge">
<title>Node24&#45;&gt;Node25</title>
<path fill="none" stroke="midnightblue" d="M261.16,-249.75C285.69,-255.13 314.38,-261.41 337.53,-266.48"/>
<polygon fill="midnightblue" stroke="midnightblue" points="261.8,-246.31 251.28,-247.59 260.3,-253.15 261.8,-246.31"/>
</g>
<!-- Node26 -->
<g id="node26" class="node">
<title>Node26</title>
<g id="a_node26"><a xlink:href="classboost_1_1ui_1_1combo__box.html" target="_top" xlink:title="Widget to select one or more strings and edit it.">
<polygon fill="white" stroke="black" points="321.5,-228.5 321.5,-247.5 442.5,-247.5 442.5,-228.5 321.5,-228.5"/>
<text text-anchor="middle" x="382" y="-235.5" font-family="Helvetica,sans-Serif" font-size="10.00">boost::ui::combo_box</text>
</a>
</g>
</g>
<!-- Node24&#45;&gt;Node26 -->
<g id="edge25" class="edge">
<title>Node24&#45;&gt;Node26</title>
<path fill="none" stroke="midnightblue" d="M277.23,-238C291.89,-238 307.23,-238 321.48,-238"/>
<polygon fill="midnightblue" stroke="midnightblue" points="277.21,-234.5 267.21,-238 277.21,-241.5 277.21,-234.5"/>
</g>
<!-- Node27 -->
<g id="node27" class="node">
<title>Node27</title>
<g id="a_node27"><a xlink:href="classboost_1_1ui_1_1list__box.html" target="_top" xlink:title="Widget to select one or more strings.">
<polygon fill="white" stroke="black" points="330.5,-190.5 330.5,-209.5 433.5,-209.5 433.5,-190.5 330.5,-190.5"/>
<text text-anchor="middle" x="382" y="-197.5" font-family="Helvetica,sans-Serif" font-size="10.00">boost::ui::list_box</text>
</a>
</g>
</g>
<!-- Node24&#45;&gt;Node27 -->
<g id="edge26" class="edge">
<title>Node24&#45;&gt;Node27</title>
<path fill="none" stroke="midnightblue" d="M261.16,-226.25C285.69,-220.87 314.38,-214.59 337.53,-209.52"/>
<polygon fill="midnightblue" stroke="midnightblue" points="260.3,-222.85 251.28,-228.41 261.8,-229.69 260.3,-222.85"/>
</g>
<!-- Node29 -->
<g id="node29" class="node">
<title>Node29</title>
<g id="a_node29"><a xlink:href="classboost_1_1ui_1_1password__box.html" target="_top" xlink:title="Password editor widget.">
<polygon fill="white" stroke="black" points="315,-152.5 315,-171.5 449,-171.5 449,-152.5 315,-152.5"/>
<text text-anchor="middle" x="382" y="-159.5" font-family="Helvetica,sans-Serif" font-size="10.00">boost::ui::password_box</text>
</a>
</g>
</g>
<!-- Node28&#45;&gt;Node29 -->
<g id="edge28" class="edge">
<title>Node28&#45;&gt;Node29</title>
<path fill="none" stroke="midnightblue" d="M284.62,-172.55C294.74,-171.45 305.04,-170.32 314.96,-169.23"/>
<polygon fill="midnightblue" stroke="midnightblue" points="284.14,-169.09 274.58,-173.65 284.9,-176.04 284.14,-169.09"/>
</g>
<!-- Node30 -->
<g id="node30" class="node">
<title>Node30</title>
<g id="a_node30"><a xlink:href="classboost_1_1ui_1_1string__box.html" target="_top" xlink:title="Single&#45;line text editor widget.">
<polygon fill="white" stroke="black" points="324,-114.5 324,-133.5 440,-133.5 440,-114.5 324,-114.5"/>
<text text-anchor="middle" x="382" y="-121.5" font-family="Helvetica,sans-Serif" font-size="10.00">boost::ui::string_box</text>
</a>
</g>
</g>
<!-- Node28&#45;&gt;Node30 -->
<g id="edge29" class="edge">
<title>Node28&#45;&gt;Node30</title>
<path fill="none" stroke="midnightblue" d="M259.6,-168.64C266.2,-166.64 272.81,-164.42 279,-162 295.85,-155.41 298.22,-149.76 315,-143 323.85,-139.44 333.61,-136.24 342.85,-133.54"/>
<polygon fill="midnightblue" stroke="midnightblue" points="258.62,-165.28 249.98,-171.4 260.55,-172 258.62,-165.28"/>
</g>
<!-- Node31 -->
<g id="node31" class="node">
<title>Node31</title>
<g id="a_node31"><a xlink:href="classboost_1_1ui_1_1text__box.html" target="_top" xlink:title="Multi&#45;line text editor widget.">
<polygon fill="white" stroke="black" points="328.5,-76.5 328.5,-95.5 435.5,-95.5 435.5,-76.5 328.5,-76.5"/>
<text text-anchor="middle" x="382" y="-83.5" font-family="Helvetica,sans-Serif" font-size="10.00">boost::ui::text_box</text>
</a>
</g>
</g>
<!-- Node28&#45;&gt;Node31 -->
<g id="edge30" class="edge">
<title>Node28&#45;&gt;Node31</title>
<path fill="none" stroke="midnightblue" d="M270.59,-167.24C273.54,-165.68 276.36,-163.94 279,-162 303.15,-144.26 291.04,-122.99 315,-105 320.15,-101.13 326.06,-98.05 332.19,-95.6"/>
<polygon fill="midnightblue" stroke="midnightblue" points="269.1,-164.08 261.46,-171.42 272.01,-170.44 269.1,-164.08"/>
</g>
<!-- Node35 -->
<g id="node35" class="node">
<title>Node35</title>
<g id="a_node35"><a xlink:href="classboost_1_1ui_1_1dialog.html" target="_top" xlink:title="Top level widget that hosts other widgets.">
<polygon fill="white" stroke="black" points="334.5,-38.5 334.5,-57.5 429.5,-57.5 429.5,-38.5 334.5,-38.5"/>
<text text-anchor="middle" x="382" y="-45.5" font-family="Helvetica,sans-Serif" font-size="10.00">boost::ui::dialog</text>
</a>
</g>
</g>
<!-- Node34&#45;&gt;Node35 -->
<g id="edge34" class="edge">
<title>Node34&#45;&gt;Node35</title>
<path fill="none" stroke="midnightblue" d="M267.85,-48C289.7,-48 314.02,-48 334.49,-48"/>
<polygon fill="midnightblue" stroke="midnightblue" points="267.68,-44.5 257.68,-48 267.68,-51.5 267.68,-44.5"/>
</g>
<!-- Node36 -->
<g id="node36" class="node">
<title>Node36</title>
<g id="a_node36"><a xlink:href="classboost_1_1ui_1_1frame.html" target="_top" xlink:title="Top level widget that hosts other widgets and supports menu bar.">
<polygon fill="white" stroke="black" points="335,-0.5 335,-19.5 429,-19.5 429,-0.5 335,-0.5"/>
<text text-anchor="middle" x="382" y="-7.5" font-family="Helvetica,sans-Serif" font-size="10.00">boost::ui::frame</text>
</a>
</g>
</g>
<!-- Node34&#45;&gt;Node36 -->
<g id="edge35" class="edge">
<title>Node34&#45;&gt;Node36</title>
<path fill="none" stroke="midnightblue" d="M261.16,-36.25C285.69,-30.87 314.38,-24.59 337.53,-19.52"/>
<polygon fill="midnightblue" stroke="midnightblue" points="260.3,-32.85 251.28,-38.41 261.8,-39.69 260.3,-32.85"/>
</g>
</g>
</svg>
