<?xml version="1.0" encoding="UTF-8" standalone="no"?>
<!DOCTYPE svg PUBLIC "-//W3C//DTD SVG 1.1//EN"
 "http://www.w3.org/Graphics/SVG/1.1/DTD/svg11.dtd">
<!-- Generated by graphviz version 2.43.0 (0)
 -->
<!-- Title: boost::ui::text_box_base Pages: 1 -->
<svg width="402pt" height="140pt"
 viewBox="0.00 0.00 401.50 140.00" xmlns="http://www.w3.org/2000/svg" xmlns:xlink="http://www.w3.org/1999/xlink">
<g id="graph0" class="graph" transform="scale(1 1) rotate(0) translate(4 136)">
<title>boost::ui::text_box_base</title>
<polygon fill="white" stroke="transparent" points="-4,4 -4,-136 397.5,-136 397.5,4 -4,4"/>
<!-- Node1 -->
<g id="node1" class="node">
<title>Node1</title>
<g id="a_node1"><a xlink:title="Abstract text editor widget.">
<polygon fill="#bfbfbf" stroke="black" points="142,-56.5 142,-75.5 278,-75.5 278,-56.5 142,-56.5"/>
<text text-anchor="middle" x="210" y="-63.5" font-family="Helvetica,sans-Serif" font-size="10.00">boost::ui::text_box_base</text>
</a>
</g>
</g>
<!-- Node3 -->
<g id="node3" class="node">
<title>Node3</title>
<g id="a_node3"><a xlink:href="classboost_1_1ui_1_1password__box.html" target="_top" xlink:title="Password editor widget.">
<polygon fill="white" stroke="black" points="0,-0.5 0,-19.5 134,-19.5 134,-0.5 0,-0.5"/>
<text text-anchor="middle" x="67" y="-7.5" font-family="Helvetica,sans-Serif" font-size="10.00">boost::ui::password_box</text>
</a>
</g>
</g>
<!-- Node1&#45;&gt;Node3 -->
<g id="edge2" class="edge">
<title>Node1&#45;&gt;Node3</title>
<path fill="none" stroke="midnightblue" d="M177.97,-52.91C151.09,-42.75 113.36,-28.51 89.55,-19.52"/>
<polygon fill="midnightblue" stroke="midnightblue" points="176.75,-56.19 187.34,-56.44 179.22,-49.64 176.75,-56.19"/>
</g>
<!-- Node4 -->
<g id="node4" class="node">
<title>Node4</title>
<g id="a_node4"><a xlink:href="classboost_1_1ui_1_1string__box.html" target="_top" xlink:title="Single&#45;line text editor widget.">
<polygon fill="white" stroke="black" points="152,-0.5 152,-19.5 268,-19.5 268,-0.5 152,-0.5"/>
<text text-anchor="middle" x="210" y="-7.5" font-family="Helvetica,sans-Serif" font-size="10.00">boost::ui::string_box</text>
</a>
</g>
</g>
<!-- Node1&#45;&gt;Node4 -->
<g id="edge3" class="edge">
<title>Node1&#45;&gt;Node4</title>
<path fill="none" stroke="midnightblue" d="M210,-45.8C210,-36.91 210,-26.78 210,-19.75"/>
<polygon fill="midnightblue" stroke="midnightblue" points="206.5,-46.08 210,-56.08 213.5,-46.08 206.5,-46.08"/>
</g>
<!-- Node5 -->
<g id="node5" class="node">
<title>Node5</title>
<g id="a_node5"><a xlink:href="classboost_1_1ui_1_1text__box.html" target="_top" xlink:title="Multi&#45;line text editor widget.">
<polygon fill="white" stroke="black" points="286.5,-0.5 286.5,-19.5 393.5,-19.5 393.5,-0.5 286.5,-0.5"/>
<text text-anchor="middle" x="340" y="-7.5" font-family="Helvetica,sans-Serif" font-size="10.00">boost::ui::text_box</text>
</a>
</g>
</g>
<!-- Node1&#45;&gt;Node5 -->
<g id="edge4" class="edge">
<title>Node1&#45;&gt;Node5</title>
<path fill="none" stroke="midnightblue" d="M240.09,-52.5C264.46,-42.38 298.14,-28.39 319.5,-19.52"/>
<polygon fill="midnightblue" stroke="midnightblue" points="238.49,-49.38 230.6,-56.44 241.18,-55.84 238.49,-49.38"/>
</g>
<!-- Node2 -->
<g id="node2" class="node">
<title>Node2</title>
<g id="a_node2"><a xlink:href="classboost_1_1ui_1_1widget.html" target="_top" xlink:title="Base class for all widgets.">
<polygon fill="white" stroke="black" points="161,-112.5 161,-131.5 259,-131.5 259,-112.5 161,-112.5"/>
<text text-anchor="middle" x="210" y="-119.5" font-family="Helvetica,sans-Serif" font-size="10.00">boost::ui::widget</text>
</a>
</g>
</g>
<!-- Node2&#45;&gt;Node1 -->
<g id="edge1" class="edge">
<title>Node2&#45;&gt;Node1</title>
<path fill="none" stroke="midnightblue" d="M210,-101.8C210,-92.91 210,-82.78 210,-75.75"/>
<polygon fill="midnightblue" stroke="midnightblue" points="206.5,-102.08 210,-112.08 213.5,-102.08 206.5,-102.08"/>
</g>
</g>
</svg>
