<?xml version="1.0" encoding="UTF-8" standalone="no"?>
<!DOCTYPE svg PUBLIC "-//W3C//DTD SVG 1.1//EN"
 "http://www.w3.org/Graphics/SVG/1.1/DTD/svg11.dtd">
<!-- Generated by graphviz version 2.43.0 (0)
 -->
<!-- Title: boost::ui::event Pages: 1 -->
<svg width="430pt" height="142pt"
 viewBox="0.00 0.00 430.00 142.00" xmlns="http://www.w3.org/2000/svg" xmlns:xlink="http://www.w3.org/1999/xlink">
<g id="graph0" class="graph" transform="scale(1 1) rotate(0) translate(4 138)">
<title>boost::ui::event</title>
<polygon fill="white" stroke="transparent" points="-4,4 -4,-138 426,-138 426,4 -4,4"/>
<!-- Node1 -->
<g id="node1" class="node">
<title>Node1</title>
<g id="a_node1"><a xlink:title="Base class for all events.">
<polygon fill="#bfbfbf" stroke="black" points="0,-57.5 0,-76.5 92,-76.5 92,-57.5 0,-57.5"/>
<text text-anchor="middle" x="46" y="-64.5" font-family="Helvetica,sans-Serif" font-size="10.00">boost::ui::event</text>
</a>
</g>
</g>
<!-- Node2 -->
<g id="node2" class="node">
<title>Node2</title>
<g id="a_node2"><a xlink:href="classboost_1_1ui_1_1close__event.html" target="_top" xlink:title="Close event class.">
<polygon fill="white" stroke="black" points="132,-114.5 132,-133.5 255,-133.5 255,-114.5 132,-114.5"/>
<text text-anchor="middle" x="193.5" y="-121.5" font-family="Helvetica,sans-Serif" font-size="10.00">boost::ui::close_event</text>
</a>
</g>
</g>
<!-- Node1&#45;&gt;Node2 -->
<g id="edge1" class="edge">
<title>Node1&#45;&gt;Node2</title>
<path fill="none" stroke="midnightblue" d="M74.34,-81.1C89.83,-88.76 109.72,-98.07 128,-105 137.06,-108.44 147.02,-111.64 156.36,-114.4"/>
<polygon fill="midnightblue" stroke="midnightblue" points="75.82,-77.93 65.31,-76.57 72.68,-84.18 75.82,-77.93"/>
</g>
<!-- Node3 -->
<g id="node3" class="node">
<title>Node3</title>
<g id="a_node3"><a xlink:href="classboost_1_1ui_1_1index__event.html" target="_top" xlink:title="Event class that holds some index in container.">
<polygon fill="white" stroke="black" points="131,-76.5 131,-95.5 256,-95.5 256,-76.5 131,-76.5"/>
<text text-anchor="middle" x="193.5" y="-83.5" font-family="Helvetica,sans-Serif" font-size="10.00">boost::ui::index_event</text>
</a>
</g>
</g>
<!-- Node1&#45;&gt;Node3 -->
<g id="edge2" class="edge">
<title>Node1&#45;&gt;Node3</title>
<path fill="none" stroke="midnightblue" d="M102.24,-74.21C111.63,-75.44 121.44,-76.72 130.98,-77.97"/>
<polygon fill="midnightblue" stroke="midnightblue" points="102.61,-70.73 92.24,-72.91 101.7,-77.67 102.61,-70.73"/>
</g>
<!-- Node4 -->
<g id="node4" class="node">
<title>Node4</title>
<g id="a_node4"><a xlink:href="classboost_1_1ui_1_1key__event.html" target="_top" xlink:title="Keyboard event class that holds information about keyboard when event was generated.">
<polygon fill="white" stroke="black" points="136,-38.5 136,-57.5 251,-57.5 251,-38.5 136,-38.5"/>
<text text-anchor="middle" x="193.5" y="-45.5" font-family="Helvetica,sans-Serif" font-size="10.00">boost::ui::key_event</text>
</a>
</g>
</g>
<!-- Node1&#45;&gt;Node4 -->
<g id="edge3" class="edge">
<title>Node1&#45;&gt;Node4</title>
<path fill="none" stroke="midnightblue" d="M102.2,-59.79C113.26,-58.35 124.89,-56.83 136,-55.38"/>
<polygon fill="midnightblue" stroke="midnightblue" points="101.7,-56.33 92.24,-61.09 102.61,-63.27 101.7,-56.33"/>
</g>
<!-- Node5 -->
<g id="node5" class="node">
<title>Node5</title>
<g id="a_node5"><a xlink:href="classboost_1_1ui_1_1mouse__event.html" target="_top" xlink:title="Mouse event class that holds information about mouse when event was generated.">
<polygon fill="white" stroke="black" points="128,-0.5 128,-19.5 259,-19.5 259,-0.5 128,-0.5"/>
<text text-anchor="middle" x="193.5" y="-7.5" font-family="Helvetica,sans-Serif" font-size="10.00">boost::ui::mouse_event</text>
</a>
</g>
</g>
<!-- Node1&#45;&gt;Node5 -->
<g id="edge4" class="edge">
<title>Node1&#45;&gt;Node5</title>
<path fill="none" stroke="midnightblue" d="M74.34,-52.9C89.83,-45.24 109.72,-35.93 128,-29 137.06,-25.56 147.02,-22.36 156.36,-19.6"/>
<polygon fill="midnightblue" stroke="midnightblue" points="72.68,-49.82 65.31,-57.43 75.82,-56.07 72.68,-49.82"/>
</g>
<!-- Node6 -->
<g id="node6" class="node">
<title>Node6</title>
<g id="a_node6"><a xlink:href="classboost_1_1ui_1_1wheel__event.html" target="_top" xlink:title="Mouse wheel event class.">
<polygon fill="white" stroke="black" points="295,-0.5 295,-19.5 422,-19.5 422,-0.5 295,-0.5"/>
<text text-anchor="middle" x="358.5" y="-7.5" font-family="Helvetica,sans-Serif" font-size="10.00">boost::ui::wheel_event</text>
</a>
</g>
</g>
<!-- Node5&#45;&gt;Node6 -->
<g id="edge5" class="edge">
<title>Node5&#45;&gt;Node6</title>
<path fill="none" stroke="midnightblue" d="M269.65,-10C278.12,-10 286.67,-10 294.96,-10"/>
<polygon fill="midnightblue" stroke="midnightblue" points="269.39,-6.5 259.39,-10 269.39,-13.5 269.39,-6.5"/>
</g>
</g>
</svg>
