<?xml version="1.0" encoding="UTF-8" standalone="no"?>
<!DOCTYPE svg PUBLIC "-//W3C//DTD SVG 1.1//EN"
 "http://www.w3.org/Graphics/SVG/1.1/DTD/svg11.dtd">
<!-- Generated by graphviz version 2.43.0 (0)
 -->
<!-- Title: boost::ui::basic_point&lt; T &gt; Pages: 1 -->
<svg width="336pt" height="61pt"
 viewBox="0.00 0.00 336.00 61.00" xmlns="http://www.w3.org/2000/svg" xmlns:xlink="http://www.w3.org/1999/xlink">
<g id="graph0" class="graph" transform="scale(1 1) rotate(0) translate(4 57)">
<title>boost::ui::basic_point&lt; T &gt;</title>
<polygon fill="white" stroke="transparent" points="-4,4 -4,-57 332,-57 332,4 -4,4"/>
<!-- Node1 -->
<g id="node1" class="node">
<title>Node1</title>
<g id="a_node1"><a xlink:title="2D point data structure with custom coordinates type">
<polygon fill="#bfbfbf" stroke="black" points="179,-17 179,-36 328,-36 328,-17 179,-17"/>
<text text-anchor="middle" x="253.5" y="-24" font-family="Helvetica,sans-Serif" font-size="10.00">boost::ui::basic_point&lt; T &gt;</text>
</a>
</g>
</g>
<!-- Node2 -->
<g id="node2" class="node">
<title>Node2</title>
<g id="a_node2"><a xlink:title=" ">
<polygon fill="white" stroke="#bfbfbf" points="0,-0.5 0,-52.5 143,-52.5 143,-0.5 0,-0.5"/>
<text text-anchor="start" x="8" y="-40.5" font-family="Helvetica,sans-Serif" font-size="10.00">boost::geometry::model</text>
<text text-anchor="start" x="8" y="-29.5" font-family="Helvetica,sans-Serif" font-size="10.00">::d2::point_xy&lt; T &gt; public</text>
<text text-anchor="start" x="8" y="-18.5" font-family="Helvetica,sans-Serif" font-size="10.00"> ::boost::polygon::point</text>
<text text-anchor="middle" x="71.5" y="-7.5" font-family="Helvetica,sans-Serif" font-size="10.00">_data&lt; T &gt;</text>
</a>
</g>
</g>
<!-- Node2&#45;&gt;Node1 -->
<g id="edge1" class="edge">
<title>Node2&#45;&gt;Node1</title>
<path fill="none" stroke="midnightblue" d="M153.38,-26.5C161.85,-26.5 170.43,-26.5 178.82,-26.5"/>
<polygon fill="midnightblue" stroke="midnightblue" points="153.12,-23 143.12,-26.5 153.12,-30 153.12,-23"/>
</g>
</g>
</svg>
