<?xml version="1.0" encoding="UTF-8" standalone="no"?>
<!DOCTYPE svg PUBLIC "-//W3C//DTD SVG 1.1//EN"
 "http://www.w3.org/Graphics/SVG/1.1/DTD/svg11.dtd">
<!-- Generated by graphviz version 2.43.0 (0)
 -->
<!-- Title: boost::ui::window Pages: 1 -->
<svg width="216pt" height="140pt"
 viewBox="0.00 0.00 215.50 140.00" xmlns="http://www.w3.org/2000/svg" xmlns:xlink="http://www.w3.org/1999/xlink">
<g id="graph0" class="graph" transform="scale(1 1) rotate(0) translate(4 136)">
<title>boost::ui::window</title>
<polygon fill="white" stroke="transparent" points="-4,4 -4,-136 211.5,-136 211.5,4 -4,4"/>
<!-- Node1 -->
<g id="node1" class="node">
<title>Node1</title>
<g id="a_node1"><a xlink:title="Abstract top level widget that hosts other widgets.">
<polygon fill="#bfbfbf" stroke="black" points="52.5,-56.5 52.5,-75.5 154.5,-75.5 154.5,-56.5 52.5,-56.5"/>
<text text-anchor="middle" x="103.5" y="-63.5" font-family="Helvetica,sans-Serif" font-size="10.00">boost::ui::window</text>
</a>
</g>
</g>
<!-- Node3 -->
<g id="node3" class="node">
<title>Node3</title>
<g id="a_node3"><a xlink:href="classboost_1_1ui_1_1dialog.html" target="_top" xlink:title="Top level widget that hosts other widgets.">
<polygon fill="white" stroke="black" points="0,-0.5 0,-19.5 95,-19.5 95,-0.5 0,-0.5"/>
<text text-anchor="middle" x="47.5" y="-7.5" font-family="Helvetica,sans-Serif" font-size="10.00">boost::ui::dialog</text>
</a>
</g>
</g>
<!-- Node1&#45;&gt;Node3 -->
<g id="edge2" class="edge">
<title>Node1&#45;&gt;Node3</title>
<path fill="none" stroke="midnightblue" d="M87.17,-49.25C77.24,-39.67 64.91,-27.79 56.66,-19.83"/>
<polygon fill="midnightblue" stroke="midnightblue" points="84.87,-51.9 94.5,-56.32 89.73,-46.86 84.87,-51.9"/>
</g>
<!-- Node4 -->
<g id="node4" class="node">
<title>Node4</title>
<g id="a_node4"><a xlink:href="classboost_1_1ui_1_1frame.html" target="_top" xlink:title="Top level widget that hosts other widgets and supports menu bar.">
<polygon fill="white" stroke="black" points="113.5,-0.5 113.5,-19.5 207.5,-19.5 207.5,-0.5 113.5,-0.5"/>
<text text-anchor="middle" x="160.5" y="-7.5" font-family="Helvetica,sans-Serif" font-size="10.00">boost::ui::frame</text>
</a>
</g>
</g>
<!-- Node1&#45;&gt;Node4 -->
<g id="edge3" class="edge">
<title>Node1&#45;&gt;Node4</title>
<path fill="none" stroke="midnightblue" d="M120.12,-49.25C130.23,-39.67 142.78,-27.79 151.18,-19.83"/>
<polygon fill="midnightblue" stroke="midnightblue" points="117.51,-46.91 112.66,-56.32 122.32,-51.99 117.51,-46.91"/>
</g>
<!-- Node2 -->
<g id="node2" class="node">
<title>Node2</title>
<g id="a_node2"><a xlink:href="classboost_1_1ui_1_1widget.html" target="_top" xlink:title="Base class for all widgets.">
<polygon fill="white" stroke="black" points="54.5,-112.5 54.5,-131.5 152.5,-131.5 152.5,-112.5 54.5,-112.5"/>
<text text-anchor="middle" x="103.5" y="-119.5" font-family="Helvetica,sans-Serif" font-size="10.00">boost::ui::widget</text>
</a>
</g>
</g>
<!-- Node2&#45;&gt;Node1 -->
<g id="edge1" class="edge">
<title>Node2&#45;&gt;Node1</title>
<path fill="none" stroke="midnightblue" d="M103.5,-101.8C103.5,-92.91 103.5,-82.78 103.5,-75.75"/>
<polygon fill="midnightblue" stroke="midnightblue" points="100,-102.08 103.5,-112.08 107,-102.08 100,-102.08"/>
</g>
</g>
</svg>
