<?xml version="1.0" encoding="UTF-8" standalone="no"?>
<!DOCTYPE svg PUBLIC "-//W3C//DTD SVG 1.1//EN"
 "http://www.w3.org/Graphics/SVG/1.1/DTD/svg11.dtd">
<!-- Generated by graphviz version 2.38.0 (20140413.2041)
 -->
<!-- Title: boost::ui::textbox_base Pages: 1 -->
<svg width="354pt" height="140pt"
 viewBox="0.00 0.00 354.00 140.00" xmlns="http://www.w3.org/2000/svg" xmlns:xlink="http://www.w3.org/1999/xlink">
<g id="graph0" class="graph" transform="scale(1 1) rotate(0) translate(4 136)">
<title>boost::ui::textbox_base</title>
<polygon fill="white" stroke="none" points="-4,4 -4,-136 350,-136 350,4 -4,4"/>
<!-- Node1 -->
<g id="node1" class="node"><title>Node1</title>
<polygon fill="#bfbfbf" stroke="black" points="126.5,-56.5 126.5,-75.5 245.5,-75.5 245.5,-56.5 126.5,-56.5"/>
<text text-anchor="middle" x="186" y="-63.5" font-family="Helvetica,sans-Serif" font-size="10.00">boost::ui::textbox_base</text>
</g>
<!-- Node3 -->
<g id="node3" class="node"><title>Node3</title>
<g id="a_node3"><a xlink:href="classboost_1_1ui_1_1passwordbox.html" target="_top" xlink:title="Password editor widget. ">
<polygon fill="white" stroke="black" points="0,-0.5 0,-19.5 118,-19.5 118,-0.5 0,-0.5"/>
<text text-anchor="middle" x="59" y="-7.5" font-family="Helvetica,sans-Serif" font-size="10.00">boost::ui::passwordbox</text>
</a>
</g>
</g>
<!-- Node1&#45;&gt;Node3 -->
<g id="edge2" class="edge"><title>Node1&#45;&gt;Node3</title>
<path fill="none" stroke="midnightblue" d="M156.609,-52.503C132.8,-42.3795 99.894,-28.388 79.0294,-19.5164"/>
<polygon fill="midnightblue" stroke="midnightblue" points="155.304,-55.7515 165.876,-56.4435 158.043,-49.3096 155.304,-55.7515"/>
</g>
<!-- Node4 -->
<g id="node4" class="node"><title>Node4</title>
<g id="a_node4"><a xlink:href="classboost_1_1ui_1_1stringbox.html" target="_top" xlink:title="Single&#45;line text editor widget. ">
<polygon fill="white" stroke="black" points="136,-0.5 136,-19.5 236,-19.5 236,-0.5 136,-0.5"/>
<text text-anchor="middle" x="186" y="-7.5" font-family="Helvetica,sans-Serif" font-size="10.00">boost::ui::stringbox</text>
</a>
</g>
</g>
<!-- Node1&#45;&gt;Node4 -->
<g id="edge3" class="edge"><title>Node1&#45;&gt;Node4</title>
<path fill="none" stroke="midnightblue" d="M186,-45.8045C186,-36.9102 186,-26.7798 186,-19.7511"/>
<polygon fill="midnightblue" stroke="midnightblue" points="182.5,-46.083 186,-56.083 189.5,-46.083 182.5,-46.083"/>
</g>
<!-- Node5 -->
<g id="node5" class="node"><title>Node5</title>
<g id="a_node5"><a xlink:href="classboost_1_1ui_1_1textbox.html" target="_top" xlink:title="Multi&#45;line text editor widget. ">
<polygon fill="white" stroke="black" points="254,-0.5 254,-19.5 346,-19.5 346,-0.5 254,-0.5"/>
<text text-anchor="middle" x="300" y="-7.5" font-family="Helvetica,sans-Serif" font-size="10.00">boost::ui::textbox</text>
</a>
</g>
</g>
<!-- Node1&#45;&gt;Node5 -->
<g id="edge4" class="edge"><title>Node1&#45;&gt;Node5</title>
<path fill="none" stroke="midnightblue" d="M213.242,-52.096C234.54,-42.0073 263.542,-28.2697 282.021,-19.5164"/>
<polygon fill="midnightblue" stroke="midnightblue" points="211.603,-48.9995 204.064,-56.4435 214.599,-55.3257 211.603,-48.9995"/>
</g>
<!-- Node2 -->
<g id="node2" class="node"><title>Node2</title>
<g id="a_node2"><a xlink:href="classboost_1_1ui_1_1widget.html" target="_top" xlink:title="Base class for all widgets. ">
<polygon fill="white" stroke="black" points="141.5,-112.5 141.5,-131.5 230.5,-131.5 230.5,-112.5 141.5,-112.5"/>
<text text-anchor="middle" x="186" y="-119.5" font-family="Helvetica,sans-Serif" font-size="10.00">boost::ui::widget</text>
</a>
</g>
</g>
<!-- Node2&#45;&gt;Node1 -->
<g id="edge1" class="edge"><title>Node2&#45;&gt;Node1</title>
<path fill="none" stroke="midnightblue" d="M186,-101.805C186,-92.9102 186,-82.7798 186,-75.7511"/>
<polygon fill="midnightblue" stroke="midnightblue" points="182.5,-102.083 186,-112.083 189.5,-102.083 182.5,-102.083"/>
</g>
</g>
</svg>
