<?xml version="1.0" encoding="UTF-8" standalone="no"?>
<!DOCTYPE svg PUBLIC "-//W3C//DTD SVG 1.1//EN"
 "http://www.w3.org/Graphics/SVG/1.1/DTD/svg11.dtd">
<!-- Generated by graphviz version 2.38.0 (20140413.2041)
 -->
<!-- Title: boost::ui::event Pages: 1 -->
<svg width="398pt" height="142pt"
 viewBox="0.00 0.00 398.00 142.00" xmlns="http://www.w3.org/2000/svg" xmlns:xlink="http://www.w3.org/1999/xlink">
<g id="graph0" class="graph" transform="scale(1 1) rotate(0) translate(4 138)">
<title>boost::ui::event</title>
<polygon fill="white" stroke="none" points="-4,4 -4,-138 394,-138 394,4 -4,4"/>
<!-- Node1 -->
<g id="node1" class="node"><title>Node1</title>
<polygon fill="#bfbfbf" stroke="black" points="0,-57.5 0,-76.5 84,-76.5 84,-57.5 0,-57.5"/>
<text text-anchor="middle" x="42" y="-64.5" font-family="Helvetica,sans-Serif" font-size="10.00">boost::ui::event</text>
</g>
<!-- Node2 -->
<g id="node2" class="node"><title>Node2</title>
<g id="a_node2"><a xlink:href="classboost_1_1ui_1_1close__event.html" target="_top" xlink:title="Close event class. ">
<polygon fill="white" stroke="black" points="123,-114.5 123,-133.5 236,-133.5 236,-114.5 123,-114.5"/>
<text text-anchor="middle" x="179.5" y="-121.5" font-family="Helvetica,sans-Serif" font-size="10.00">boost::ui::close_event</text>
</a>
</g>
</g>
<!-- Node1&#45;&gt;Node2 -->
<g id="edge1" class="edge"><title>Node1&#45;&gt;Node2</title>
<path fill="none" stroke="midnightblue" d="M69.6934,-81.3605C84.3157,-88.923 102.895,-98.044 120,-105 128.408,-108.419 137.682,-111.663 146.32,-114.47"/>
<polygon fill="midnightblue" stroke="midnightblue" points="71.1934,-78.1952 60.7112,-76.6545 67.9447,-84.3957 71.1934,-78.1952"/>
</g>
<!-- Node3 -->
<g id="node3" class="node"><title>Node3</title>
<g id="a_node3"><a xlink:href="classboost_1_1ui_1_1index__event.html" target="_top" xlink:title="Event class that holds some index in container. ">
<polygon fill="white" stroke="black" points="123,-76.5 123,-95.5 236,-95.5 236,-76.5 123,-76.5"/>
<text text-anchor="middle" x="179.5" y="-83.5" font-family="Helvetica,sans-Serif" font-size="10.00">boost::ui::index_event</text>
</a>
</g>
</g>
<!-- Node1&#45;&gt;Node3 -->
<g id="edge2" class="edge"><title>Node1&#45;&gt;Node3</title>
<path fill="none" stroke="midnightblue" d="M93.9577,-74.1454C103.313,-75.4571 113.124,-76.8328 122.614,-78.1636"/>
<polygon fill="midnightblue" stroke="midnightblue" points="94.4113,-70.6748 84.0222,-72.7522 93.4392,-77.607 94.4113,-70.6748"/>
</g>
<!-- Node4 -->
<g id="node4" class="node"><title>Node4</title>
<g id="a_node4"><a xlink:href="classboost_1_1ui_1_1key__event.html" target="_top" xlink:title="Keyboard event class that holds information about keyboard when event was generated. ">
<polygon fill="white" stroke="black" points="127,-38.5 127,-57.5 232,-57.5 232,-38.5 127,-38.5"/>
<text text-anchor="middle" x="179.5" y="-45.5" font-family="Helvetica,sans-Serif" font-size="10.00">boost::ui::key_event</text>
</a>
</g>
</g>
<!-- Node1&#45;&gt;Node4 -->
<g id="edge3" class="edge"><title>Node1&#45;&gt;Node4</title>
<path fill="none" stroke="midnightblue" d="M94.0113,-59.8471C104.657,-58.3544 115.891,-56.7792 126.569,-55.2818"/>
<polygon fill="midnightblue" stroke="midnightblue" points="93.4392,-56.393 84.0222,-61.2478 94.4113,-63.3252 93.4392,-56.393"/>
</g>
<!-- Node5 -->
<g id="node5" class="node"><title>Node5</title>
<g id="a_node5"><a xlink:href="classboost_1_1ui_1_1mouse__event.html" target="_top" xlink:title="Mouse event class that holds information about mouse when event was generated. ">
<polygon fill="white" stroke="black" points="120,-0.5 120,-19.5 239,-19.5 239,-0.5 120,-0.5"/>
<text text-anchor="middle" x="179.5" y="-7.5" font-family="Helvetica,sans-Serif" font-size="10.00">boost::ui::mouse_event</text>
</a>
</g>
</g>
<!-- Node1&#45;&gt;Node5 -->
<g id="edge4" class="edge"><title>Node1&#45;&gt;Node5</title>
<path fill="none" stroke="midnightblue" d="M69.6934,-52.6395C84.3157,-45.077 102.895,-35.956 120,-29 128.408,-25.5807 137.682,-22.3374 146.32,-19.5302"/>
<polygon fill="midnightblue" stroke="midnightblue" points="67.9447,-49.6043 60.7112,-57.3455 71.1934,-55.8048 67.9447,-49.6043"/>
</g>
<!-- Node6 -->
<g id="node6" class="node"><title>Node6</title>
<g id="a_node6"><a xlink:href="classboost_1_1ui_1_1wheel__event.html" target="_top" xlink:title="Mouse wheel event class. ">
<polygon fill="white" stroke="black" points="275,-0.5 275,-19.5 390,-19.5 390,-0.5 275,-0.5"/>
<text text-anchor="middle" x="332.5" y="-7.5" font-family="Helvetica,sans-Serif" font-size="10.00">boost::ui::wheel_event</text>
</a>
</g>
</g>
<!-- Node5&#45;&gt;Node6 -->
<g id="edge5" class="edge"><title>Node5&#45;&gt;Node6</title>
<path fill="none" stroke="midnightblue" d="M249.477,-10C257.877,-10 266.385,-10 274.581,-10"/>
<polygon fill="midnightblue" stroke="midnightblue" points="249.313,-6.5001 239.313,-10 249.313,-13.5001 249.313,-6.5001"/>
</g>
</g>
</svg>
