<?xml version="1.0" encoding="UTF-8" standalone="no"?>
<!DOCTYPE svg PUBLIC "-//W3C//DTD SVG 1.1//EN"
 "http://www.w3.org/Graphics/SVG/1.1/DTD/svg11.dtd">
<!-- Generated by graphviz version 2.38.0 (20140413.2041)
 -->
<!-- Title: boost::ui::log Pages: 1 -->
<svg width="368pt" height="256pt"
 viewBox="0.00 0.00 368.00 256.00" xmlns="http://www.w3.org/2000/svg" xmlns:xlink="http://www.w3.org/1999/xlink">
<g id="graph0" class="graph" transform="scale(1 1) rotate(0) translate(4 252)">
<title>boost::ui::log</title>
<polygon fill="white" stroke="none" points="-4,4 -4,-252 364,-252 364,4 -4,4"/>
<!-- Node1 -->
<g id="node1" class="node"><title>Node1</title>
<polygon fill="#bfbfbf" stroke="black" points="138,-114.5 138,-133.5 211,-133.5 211,-114.5 138,-114.5"/>
<text text-anchor="middle" x="174.5" y="-121.5" font-family="Helvetica,sans-Serif" font-size="10.00">boost::ui::log</text>
</g>
<!-- Node3 -->
<g id="node3" class="node"><title>Node3</title>
<g id="a_node3"><a xlink:href="classboost_1_1ui_1_1log_1_1debug.html" target="_top" xlink:title="Shows information in debug log. ">
<polygon fill="white" stroke="black" points="251,-228.5 251,-247.5 356,-247.5 356,-228.5 251,-228.5"/>
<text text-anchor="middle" x="303.5" y="-235.5" font-family="Helvetica,sans-Serif" font-size="10.00">boost::ui::log::debug</text>
</a>
</g>
</g>
<!-- Node1&#45;&gt;Node3 -->
<g id="edge2" class="edge"><title>Node1&#45;&gt;Node3</title>
<path fill="none" stroke="midnightblue" d="M185.016,-142.61C196.822,-163.945 218.875,-198.592 247,-219 252.275,-222.828 258.382,-225.93 264.574,-228.429"/>
<polygon fill="midnightblue" stroke="midnightblue" points="187.994,-140.756 180.195,-133.584 181.82,-144.054 187.994,-140.756"/>
</g>
<!-- Node4 -->
<g id="node4" class="node"><title>Node4</title>
<g id="a_node4"><a xlink:href="classboost_1_1ui_1_1log_1_1error.html" target="_top" xlink:title="Shows error dialog in idle time. ">
<polygon fill="white" stroke="black" points="254.5,-190.5 254.5,-209.5 352.5,-209.5 352.5,-190.5 254.5,-190.5"/>
<text text-anchor="middle" x="303.5" y="-197.5" font-family="Helvetica,sans-Serif" font-size="10.00">boost::ui::log::error</text>
</a>
</g>
</g>
<!-- Node1&#45;&gt;Node4 -->
<g id="edge3" class="edge"><title>Node1&#45;&gt;Node4</title>
<path fill="none" stroke="midnightblue" d="M193.044,-140.85C206.811,-153.328 226.941,-170.004 247,-181 253.698,-184.672 261.235,-187.823 268.544,-190.443"/>
<polygon fill="midnightblue" stroke="midnightblue" points="195.063,-137.949 185.353,-133.711 190.301,-143.079 195.063,-137.949"/>
</g>
<!-- Node5 -->
<g id="node5" class="node"><title>Node5</title>
<g id="a_node5"><a xlink:href="classboost_1_1ui_1_1log_1_1fatal.html" target="_top" xlink:title="Shows error and abort immediately. ">
<polygon fill="white" stroke="black" points="254.5,-152.5 254.5,-171.5 352.5,-171.5 352.5,-152.5 254.5,-152.5"/>
<text text-anchor="middle" x="303.5" y="-159.5" font-family="Helvetica,sans-Serif" font-size="10.00">boost::ui::log::fatal</text>
</a>
</g>
</g>
<!-- Node1&#45;&gt;Node5 -->
<g id="edge4" class="edge"><title>Node1&#45;&gt;Node5</title>
<path fill="none" stroke="midnightblue" d="M217.394,-136.535C234.671,-141.705 254.371,-147.599 270.463,-152.414"/>
<polygon fill="midnightblue" stroke="midnightblue" points="218.131,-133.103 207.547,-133.589 216.124,-139.809 218.131,-133.103"/>
</g>
<!-- Node6 -->
<g id="node6" class="node"><title>Node6</title>
<g id="a_node6"><a xlink:href="classboost_1_1ui_1_1log_1_1info.html" target="_top" xlink:title="Shows information dialog in idle time. ">
<polygon fill="white" stroke="black" points="256,-114.5 256,-133.5 351,-133.5 351,-114.5 256,-114.5"/>
<text text-anchor="middle" x="303.5" y="-121.5" font-family="Helvetica,sans-Serif" font-size="10.00">boost::ui::log::info</text>
</a>
</g>
</g>
<!-- Node1&#45;&gt;Node6 -->
<g id="edge5" class="edge"><title>Node1&#45;&gt;Node6</title>
<path fill="none" stroke="midnightblue" d="M221.227,-124C232.424,-124 244.422,-124 255.669,-124"/>
<polygon fill="midnightblue" stroke="midnightblue" points="221.215,-120.5 211.215,-124 221.215,-127.5 221.215,-120.5"/>
</g>
<!-- Node7 -->
<g id="node7" class="node"><title>Node7</title>
<g id="a_node7"><a xlink:href="classboost_1_1ui_1_1log_1_1trace.html" target="_top" xlink:title="Shows information in debug log. ">
<polygon fill="white" stroke="black" points="253,-76.5 253,-95.5 354,-95.5 354,-76.5 253,-76.5"/>
<text text-anchor="middle" x="303.5" y="-83.5" font-family="Helvetica,sans-Serif" font-size="10.00">boost::ui::log::trace</text>
</a>
</g>
</g>
<!-- Node1&#45;&gt;Node7 -->
<g id="edge6" class="edge"><title>Node1&#45;&gt;Node7</title>
<path fill="none" stroke="midnightblue" d="M217.394,-111.465C234.671,-106.295 254.371,-100.401 270.463,-95.5859"/>
<polygon fill="midnightblue" stroke="midnightblue" points="216.124,-108.191 207.547,-114.411 218.131,-114.897 216.124,-108.191"/>
</g>
<!-- Node8 -->
<g id="node8" class="node"><title>Node8</title>
<g id="a_node8"><a xlink:href="classboost_1_1ui_1_1log_1_1verbose.html" target="_top" xlink:title="Shows verbose information if application was started with –verbose option. ">
<polygon fill="white" stroke="black" points="247,-38.5 247,-57.5 360,-57.5 360,-38.5 247,-38.5"/>
<text text-anchor="middle" x="303.5" y="-45.5" font-family="Helvetica,sans-Serif" font-size="10.00">boost::ui::log::verbose</text>
</a>
</g>
</g>
<!-- Node1&#45;&gt;Node8 -->
<g id="edge7" class="edge"><title>Node1&#45;&gt;Node8</title>
<path fill="none" stroke="midnightblue" d="M193.044,-107.15C206.811,-94.6717 226.941,-77.9956 247,-67 253.698,-63.3284 261.235,-60.1773 268.544,-57.5569"/>
<polygon fill="midnightblue" stroke="midnightblue" points="190.301,-104.921 185.353,-114.289 195.063,-110.051 190.301,-104.921"/>
</g>
<!-- Node9 -->
<g id="node9" class="node"><title>Node9</title>
<g id="a_node9"><a xlink:href="classboost_1_1ui_1_1log_1_1warning.html" target="_top" xlink:title="Shows warning dialog in idle time. ">
<polygon fill="white" stroke="black" points="247,-0.5 247,-19.5 360,-19.5 360,-0.5 247,-0.5"/>
<text text-anchor="middle" x="303.5" y="-7.5" font-family="Helvetica,sans-Serif" font-size="10.00">boost::ui::log::warning</text>
</a>
</g>
</g>
<!-- Node1&#45;&gt;Node9 -->
<g id="edge8" class="edge"><title>Node1&#45;&gt;Node9</title>
<path fill="none" stroke="midnightblue" d="M185.016,-105.39C196.822,-84.0554 218.875,-49.4085 247,-29 252.275,-25.1719 258.382,-22.0704 264.574,-19.5714"/>
<polygon fill="midnightblue" stroke="midnightblue" points="181.82,-103.946 180.195,-114.416 187.994,-107.244 181.82,-103.946"/>
</g>
<!-- Node2 -->
<g id="node2" class="node"><title>Node2</title>
<g id="a_node2"><a xlink:href="classboost_1_1ui_1_1log__string.html" target="_top" xlink:title="Logging stream class with output into provided uistring. ">
<polygon fill="white" stroke="black" points="0,-114.5 0,-133.5 102,-133.5 102,-114.5 0,-114.5"/>
<text text-anchor="middle" x="51" y="-121.5" font-family="Helvetica,sans-Serif" font-size="10.00">boost::ui::log_string</text>
</a>
</g>
</g>
<!-- Node2&#45;&gt;Node1 -->
<g id="edge1" class="edge"><title>Node2&#45;&gt;Node1</title>
<path fill="none" stroke="midnightblue" d="M112.361,-124C121.126,-124 129.902,-124 137.959,-124"/>
<polygon fill="midnightblue" stroke="midnightblue" points="112.12,-120.5 102.12,-124 112.12,-127.5 112.12,-120.5"/>
</g>
</g>
</svg>
