<?xml version="1.0" encoding="UTF-8" standalone="no"?>
<!DOCTYPE svg PUBLIC "-//W3C//DTD SVG 1.1//EN"
 "http://www.w3.org/Graphics/SVG/1.1/DTD/svg11.dtd">
<!-- Generated by graphviz version 2.43.0 (0)
 -->
<!-- Title: boost::ui::progress_bar Pages: 1 -->
<svg width="294pt" height="140pt"
 viewBox="0.00 0.00 294.00 140.00" xmlns="http://www.w3.org/2000/svg" xmlns:xlink="http://www.w3.org/1999/xlink">
<g id="graph0" class="graph" transform="scale(1 1) rotate(0) translate(4 136)">
<title>boost::ui::progress_bar</title>
<polygon fill="white" stroke="transparent" points="-4,4 -4,-136 290,-136 290,4 -4,4"/>
<!-- Node1 -->
<g id="node1" class="node">
<title>Node1</title>
<g id="a_node1"><a xlink:title="Progress bar widget base class.">
<polygon fill="#bfbfbf" stroke="black" points="79,-56.5 79,-75.5 207,-75.5 207,-56.5 79,-56.5"/>
<text text-anchor="middle" x="143" y="-63.5" font-family="Helvetica,sans-Serif" font-size="10.00">boost::ui::progress_bar</text>
</a>
</g>
</g>
<!-- Node3 -->
<g id="node3" class="node">
<title>Node3</title>
<g id="a_node3"><a xlink:href="classboost_1_1ui_1_1hprogress__bar.html" target="_top" xlink:title="Horizontal progress bar widget.">
<polygon fill="white" stroke="black" points="0,-0.5 0,-19.5 134,-19.5 134,-0.5 0,-0.5"/>
<text text-anchor="middle" x="67" y="-7.5" font-family="Helvetica,sans-Serif" font-size="10.00">boost::ui::hprogress_bar</text>
</a>
</g>
</g>
<!-- Node1&#45;&gt;Node3 -->
<g id="edge2" class="edge">
<title>Node1&#45;&gt;Node3</title>
<path fill="none" stroke="midnightblue" d="M122.42,-50.38C108.69,-40.62 91.07,-28.11 79.43,-19.83"/>
<polygon fill="midnightblue" stroke="midnightblue" points="120.61,-53.38 130.79,-56.32 124.66,-47.68 120.61,-53.38"/>
</g>
<!-- Node4 -->
<g id="node4" class="node">
<title>Node4</title>
<g id="a_node4"><a xlink:href="classboost_1_1ui_1_1vprogress__bar.html" target="_top" xlink:title="Vertical progress bar widget.">
<polygon fill="white" stroke="black" points="152,-0.5 152,-19.5 286,-19.5 286,-0.5 152,-0.5"/>
<text text-anchor="middle" x="219" y="-7.5" font-family="Helvetica,sans-Serif" font-size="10.00">boost::ui::vprogress_bar</text>
</a>
</g>
</g>
<!-- Node1&#45;&gt;Node4 -->
<g id="edge3" class="edge">
<title>Node1&#45;&gt;Node4</title>
<path fill="none" stroke="midnightblue" d="M163.58,-50.38C177.31,-40.62 194.93,-28.11 206.57,-19.83"/>
<polygon fill="midnightblue" stroke="midnightblue" points="161.34,-47.68 155.21,-56.32 165.39,-53.38 161.34,-47.68"/>
</g>
<!-- Node2 -->
<g id="node2" class="node">
<title>Node2</title>
<g id="a_node2"><a xlink:href="classboost_1_1ui_1_1widget.html" target="_top" xlink:title="Base class for all widgets.">
<polygon fill="white" stroke="black" points="94,-112.5 94,-131.5 192,-131.5 192,-112.5 94,-112.5"/>
<text text-anchor="middle" x="143" y="-119.5" font-family="Helvetica,sans-Serif" font-size="10.00">boost::ui::widget</text>
</a>
</g>
</g>
<!-- Node2&#45;&gt;Node1 -->
<g id="edge1" class="edge">
<title>Node2&#45;&gt;Node1</title>
<path fill="none" stroke="midnightblue" d="M143,-101.8C143,-92.91 143,-82.78 143,-75.75"/>
<polygon fill="midnightblue" stroke="midnightblue" points="139.5,-102.08 143,-112.08 146.5,-102.08 139.5,-102.08"/>
</g>
</g>
</svg>
