<?xml version="1.0" encoding="UTF-8" standalone="no"?>
<!DOCTYPE svg PUBLIC "-//W3C//DTD SVG 1.1//EN"
 "http://www.w3.org/Graphics/SVG/1.1/DTD/svg11.dtd">
<!-- Generated by graphviz version 2.38.0 (20140413.2041)
 -->
<!-- Title: boost::ui::check_box_base Pages: 1 -->
<svg width="228pt" height="151pt"
 viewBox="0.00 0.00 228.00 151.00" xmlns="http://www.w3.org/2000/svg" xmlns:xlink="http://www.w3.org/1999/xlink">
<g id="graph0" class="graph" transform="scale(1 1) rotate(0) translate(4 147)">
<title>boost::ui::check_box_base</title>
<polygon fill="white" stroke="none" points="-4,4 -4,-147 224,-147 224,4 -4,4"/>
<!-- Node1 -->
<g id="node1" class="node"><title>Node1</title>
<polygon fill="#bfbfbf" stroke="black" points="45.5,-67.5 45.5,-86.5 179.5,-86.5 179.5,-67.5 45.5,-67.5"/>
<text text-anchor="middle" x="112.5" y="-74.5" font-family="Helvetica,sans-Serif" font-size="10.00">boost::ui::check_box_base</text>
</g>
<!-- Node3 -->
<g id="node3" class="node"><title>Node3</title>
<g id="a_node3"><a xlink:href="classboost_1_1ui_1_1check__box.html" target="_top" xlink:title="Labelled widget that that permits the user to make a binary choice. ">
<polygon fill="white" stroke="black" points="0,-6 0,-25 107,-25 107,-6 0,-6"/>
<text text-anchor="middle" x="53.5" y="-13" font-family="Helvetica,sans-Serif" font-size="10.00">boost::ui::check_box</text>
</a>
</g>
</g>
<!-- Node1&#45;&gt;Node3 -->
<g id="edge2" class="edge"><title>Node1&#45;&gt;Node3</title>
<path fill="none" stroke="midnightblue" d="M96.9563,-60.3245C85.7469,-49.0202 71.0441,-34.1928 61.9376,-25.0091"/>
<polygon fill="midnightblue" stroke="midnightblue" points="94.5202,-62.8387 104.047,-67.4751 99.4908,-57.9098 94.5202,-62.8387"/>
</g>
<!-- Node4 -->
<g id="node4" class="node"><title>Node4</title>
<g id="a_node4"><a xlink:href="classboost_1_1ui_1_1tri__state__check__box.html" target="_top" xlink:title="Labelled widget that that permits the user to make a ternary choice. ">
<polygon fill="white" stroke="black" points="125,-0.5 125,-30.5 220,-30.5 220,-0.5 125,-0.5"/>
<text text-anchor="start" x="133" y="-18.5" font-family="Helvetica,sans-Serif" font-size="10.00">boost::ui::tri_state</text>
<text text-anchor="middle" x="172.5" y="-7.5" font-family="Helvetica,sans-Serif" font-size="10.00">_check_box</text>
</a>
</g>
</g>
<!-- Node1&#45;&gt;Node4 -->
<g id="edge3" class="edge"><title>Node1&#45;&gt;Node4</title>
<path fill="none" stroke="midnightblue" d="M128.262,-60.369C137.596,-51.1127 149.324,-39.4824 158.359,-30.523"/>
<polygon fill="midnightblue" stroke="midnightblue" points="125.733,-57.9484 121.097,-67.4751 130.662,-62.9189 125.733,-57.9484"/>
</g>
<!-- Node2 -->
<g id="node2" class="node"><title>Node2</title>
<g id="a_node2"><a xlink:href="classboost_1_1ui_1_1widget.html" target="_top" xlink:title="Base class for all widgets. ">
<polygon fill="white" stroke="black" points="68,-123.5 68,-142.5 157,-142.5 157,-123.5 68,-123.5"/>
<text text-anchor="middle" x="112.5" y="-130.5" font-family="Helvetica,sans-Serif" font-size="10.00">boost::ui::widget</text>
</a>
</g>
</g>
<!-- Node2&#45;&gt;Node1 -->
<g id="edge1" class="edge"><title>Node2&#45;&gt;Node1</title>
<path fill="none" stroke="midnightblue" d="M112.5,-112.805C112.5,-103.91 112.5,-93.7798 112.5,-86.7511"/>
<polygon fill="midnightblue" stroke="midnightblue" points="109,-113.083 112.5,-123.083 116,-113.083 109,-113.083"/>
</g>
</g>
</svg>
