<?xml version="1.0" encoding="UTF-8" standalone="no"?>
<!DOCTYPE svg PUBLIC "-//W3C//DTD SVG 1.1//EN"
 "http://www.w3.org/Graphics/SVG/1.1/DTD/svg11.dtd">
<!-- Generated by graphviz version 2.38.0 (20140413.2041)
 -->
<!-- Title: boost::ui::text_box_base Pages: 1 -->
<svg width="371pt" height="140pt"
 viewBox="0.00 0.00 370.50 140.00" xmlns="http://www.w3.org/2000/svg" xmlns:xlink="http://www.w3.org/1999/xlink">
<g id="graph0" class="graph" transform="scale(1 1) rotate(0) translate(4 136)">
<title>boost::ui::text_box_base</title>
<polygon fill="white" stroke="none" points="-4,4 -4,-136 366.5,-136 366.5,4 -4,4"/>
<!-- Node1 -->
<g id="node1" class="node"><title>Node1</title>
<polygon fill="#bfbfbf" stroke="black" points="131.5,-56.5 131.5,-75.5 255.5,-75.5 255.5,-56.5 131.5,-56.5"/>
<text text-anchor="middle" x="193.5" y="-63.5" font-family="Helvetica,sans-Serif" font-size="10.00">boost::ui::text_box_base</text>
</g>
<!-- Node3 -->
<g id="node3" class="node"><title>Node3</title>
<g id="a_node3"><a xlink:href="classboost_1_1ui_1_1password__box.html" target="_top" xlink:title="Password editor widget. ">
<polygon fill="white" stroke="black" points="0,-0.5 0,-19.5 123,-19.5 123,-0.5 0,-0.5"/>
<text text-anchor="middle" x="61.5" y="-7.5" font-family="Helvetica,sans-Serif" font-size="10.00">boost::ui::password_box</text>
</a>
</g>
</g>
<!-- Node1&#45;&gt;Node3 -->
<g id="edge2" class="edge"><title>Node1&#45;&gt;Node3</title>
<path fill="none" stroke="midnightblue" d="M163.281,-52.6377C138.51,-42.504 104.1,-28.4274 82.3179,-19.5164"/>
<polygon fill="midnightblue" stroke="midnightblue" points="162.003,-55.8966 172.584,-56.4435 164.654,-49.4177 162.003,-55.8966"/>
</g>
<!-- Node4 -->
<g id="node4" class="node"><title>Node4</title>
<g id="a_node4"><a xlink:href="classboost_1_1ui_1_1string__box.html" target="_top" xlink:title="Single&#45;line text editor widget. ">
<polygon fill="white" stroke="black" points="141,-0.5 141,-19.5 246,-19.5 246,-0.5 141,-0.5"/>
<text text-anchor="middle" x="193.5" y="-7.5" font-family="Helvetica,sans-Serif" font-size="10.00">boost::ui::string_box</text>
</a>
</g>
</g>
<!-- Node1&#45;&gt;Node4 -->
<g id="edge3" class="edge"><title>Node1&#45;&gt;Node4</title>
<path fill="none" stroke="midnightblue" d="M193.5,-45.8045C193.5,-36.9102 193.5,-26.7798 193.5,-19.7511"/>
<polygon fill="midnightblue" stroke="midnightblue" points="190,-46.083 193.5,-56.083 197,-46.083 190,-46.083"/>
</g>
<!-- Node5 -->
<g id="node5" class="node"><title>Node5</title>
<g id="a_node5"><a xlink:href="classboost_1_1ui_1_1text__box.html" target="_top" xlink:title="Multi&#45;line text editor widget. ">
<polygon fill="white" stroke="black" points="264.5,-0.5 264.5,-19.5 362.5,-19.5 362.5,-0.5 264.5,-0.5"/>
<text text-anchor="middle" x="313.5" y="-7.5" font-family="Helvetica,sans-Serif" font-size="10.00">boost::ui::text_box</text>
</a>
</g>
</g>
<!-- Node1&#45;&gt;Node5 -->
<g id="edge4" class="edge"><title>Node1&#45;&gt;Node5</title>
<path fill="none" stroke="midnightblue" d="M221.873,-52.2321C244.32,-42.1312 275.035,-28.3091 294.575,-19.5164"/>
<polygon fill="midnightblue" stroke="midnightblue" points="220.197,-49.1481 212.514,-56.4435 223.07,-55.5316 220.197,-49.1481"/>
</g>
<!-- Node2 -->
<g id="node2" class="node"><title>Node2</title>
<g id="a_node2"><a xlink:href="classboost_1_1ui_1_1widget.html" target="_top" xlink:title="Base class for all widgets. ">
<polygon fill="white" stroke="black" points="149,-112.5 149,-131.5 238,-131.5 238,-112.5 149,-112.5"/>
<text text-anchor="middle" x="193.5" y="-119.5" font-family="Helvetica,sans-Serif" font-size="10.00">boost::ui::widget</text>
</a>
</g>
</g>
<!-- Node2&#45;&gt;Node1 -->
<g id="edge1" class="edge"><title>Node2&#45;&gt;Node1</title>
<path fill="none" stroke="midnightblue" d="M193.5,-101.805C193.5,-92.9102 193.5,-82.7798 193.5,-75.7511"/>
<polygon fill="midnightblue" stroke="midnightblue" points="190,-102.083 193.5,-112.083 197,-102.083 190,-102.083"/>
</g>
</g>
</svg>
