<?xml version="1.0" encoding="UTF-8" standalone="no"?>
<!DOCTYPE svg PUBLIC "-//W3C//DTD SVG 1.1//EN"
 "http://www.w3.org/Graphics/SVG/1.1/DTD/svg11.dtd">
<!-- Generated by graphviz version 2.43.0 (0)
 -->
<!-- Title: boost::ui::basic_rect&lt; T &gt; Pages: 1 -->
<svg width="339pt" height="72pt"
 viewBox="0.00 0.00 339.00 72.00" xmlns="http://www.w3.org/2000/svg" xmlns:xlink="http://www.w3.org/1999/xlink">
<g id="graph0" class="graph" transform="scale(1 1) rotate(0) translate(4 68)">
<title>boost::ui::basic_rect&lt; T &gt;</title>
<polygon fill="white" stroke="transparent" points="-4,4 -4,-68 335,-68 335,4 -4,4"/>
<!-- Node1 -->
<g id="node1" class="node">
<title>Node1</title>
<g id="a_node1"><a xlink:title="2D rectangle plane figure data structure with custom coordinates type">
<polygon fill="#bfbfbf" stroke="black" points="188,-22.5 188,-41.5 331,-41.5 331,-22.5 188,-22.5"/>
<text text-anchor="middle" x="259.5" y="-29.5" font-family="Helvetica,sans-Serif" font-size="10.00">boost::ui::basic_rect&lt; T &gt;</text>
</a>
</g>
</g>
<!-- Node2 -->
<g id="node2" class="node">
<title>Node2</title>
<g id="a_node2"><a xlink:title=" ">
<polygon fill="white" stroke="#bfbfbf" points="0,-0.5 0,-63.5 152,-63.5 152,-0.5 0,-0.5"/>
<text text-anchor="start" x="8" y="-51.5" font-family="Helvetica,sans-Serif" font-size="10.00">boost::geometry::model</text>
<text text-anchor="start" x="8" y="-40.5" font-family="Helvetica,sans-Serif" font-size="10.00">::box&lt; ::boost::geometry</text>
<text text-anchor="start" x="8" y="-29.5" font-family="Helvetica,sans-Serif" font-size="10.00">::model::d2::point_xy&lt; T</text>
<text text-anchor="start" x="8" y="-18.5" font-family="Helvetica,sans-Serif" font-size="10.00"> &gt; &gt; public ::boost::polygon</text>
<text text-anchor="middle" x="76" y="-7.5" font-family="Helvetica,sans-Serif" font-size="10.00">::rectangle_data&lt; T &gt;</text>
</a>
</g>
</g>
<!-- Node2&#45;&gt;Node1 -->
<g id="edge1" class="edge">
<title>Node2&#45;&gt;Node1</title>
<path fill="none" stroke="midnightblue" d="M162.16,-32C170.74,-32 179.39,-32 187.79,-32"/>
<polygon fill="midnightblue" stroke="midnightblue" points="162.13,-28.5 152.13,-32 162.13,-35.5 162.13,-28.5"/>
</g>
</g>
</svg>
