<?xml version="1.0" encoding="UTF-8" standalone="no"?>
<!DOCTYPE svg PUBLIC "-//W3C//DTD SVG 1.1//EN"
 "http://www.w3.org/Graphics/SVG/1.1/DTD/svg11.dtd">
<!-- Generated by graphviz version 2.43.0 (0)
 -->
<!-- Title: boost::ui::strings_box Pages: 1 -->
<svg width="365pt" height="140pt"
 viewBox="0.00 0.00 364.50 140.00" xmlns="http://www.w3.org/2000/svg" xmlns:xlink="http://www.w3.org/1999/xlink">
<g id="graph0" class="graph" transform="scale(1 1) rotate(0) translate(4 136)">
<title>boost::ui::strings_box</title>
<polygon fill="white" stroke="transparent" points="-4,4 -4,-136 360.5,-136 360.5,4 -4,4"/>
<!-- Node1 -->
<g id="node1" class="node">
<title>Node1</title>
<g id="a_node1"><a xlink:title="Abstract widget that holds array of strings.">
<polygon fill="#bfbfbf" stroke="black" points="114.5,-56.5 114.5,-75.5 235.5,-75.5 235.5,-56.5 114.5,-56.5"/>
<text text-anchor="middle" x="175" y="-63.5" font-family="Helvetica,sans-Serif" font-size="10.00">boost::ui::strings_box</text>
</a>
</g>
</g>
<!-- Node3 -->
<g id="node3" class="node">
<title>Node3</title>
<g id="a_node3"><a xlink:href="classboost_1_1ui_1_1choice.html" target="_top" xlink:title="Widget to select string from popup list of strings.">
<polygon fill="white" stroke="black" points="0,-0.5 0,-19.5 96,-19.5 96,-0.5 0,-0.5"/>
<text text-anchor="middle" x="48" y="-7.5" font-family="Helvetica,sans-Serif" font-size="10.00">boost::ui::choice</text>
</a>
</g>
</g>
<!-- Node1&#45;&gt;Node3 -->
<g id="edge2" class="edge">
<title>Node1&#45;&gt;Node3</title>
<path fill="none" stroke="midnightblue" d="M145.61,-52.5C121.8,-42.38 88.89,-28.39 68.03,-19.52"/>
<polygon fill="midnightblue" stroke="midnightblue" points="144.3,-55.75 154.88,-56.44 147.04,-49.31 144.3,-55.75"/>
</g>
<!-- Node4 -->
<g id="node4" class="node">
<title>Node4</title>
<g id="a_node4"><a xlink:href="classboost_1_1ui_1_1combo__box.html" target="_top" xlink:title="Widget to select one or more strings and edit it.">
<polygon fill="white" stroke="black" points="114.5,-0.5 114.5,-19.5 235.5,-19.5 235.5,-0.5 114.5,-0.5"/>
<text text-anchor="middle" x="175" y="-7.5" font-family="Helvetica,sans-Serif" font-size="10.00">boost::ui::combo_box</text>
</a>
</g>
</g>
<!-- Node1&#45;&gt;Node4 -->
<g id="edge3" class="edge">
<title>Node1&#45;&gt;Node4</title>
<path fill="none" stroke="midnightblue" d="M175,-45.8C175,-36.91 175,-26.78 175,-19.75"/>
<polygon fill="midnightblue" stroke="midnightblue" points="171.5,-46.08 175,-56.08 178.5,-46.08 171.5,-46.08"/>
</g>
<!-- Node5 -->
<g id="node5" class="node">
<title>Node5</title>
<g id="a_node5"><a xlink:href="classboost_1_1ui_1_1list__box.html" target="_top" xlink:title="Widget to select one or more strings.">
<polygon fill="white" stroke="black" points="253.5,-0.5 253.5,-19.5 356.5,-19.5 356.5,-0.5 253.5,-0.5"/>
<text text-anchor="middle" x="305" y="-7.5" font-family="Helvetica,sans-Serif" font-size="10.00">boost::ui::list_box</text>
</a>
</g>
</g>
<!-- Node1&#45;&gt;Node5 -->
<g id="edge4" class="edge">
<title>Node1&#45;&gt;Node5</title>
<path fill="none" stroke="midnightblue" d="M205.09,-52.5C229.46,-42.38 263.14,-28.39 284.5,-19.52"/>
<polygon fill="midnightblue" stroke="midnightblue" points="203.49,-49.38 195.6,-56.44 206.18,-55.84 203.49,-49.38"/>
</g>
<!-- Node2 -->
<g id="node2" class="node">
<title>Node2</title>
<g id="a_node2"><a xlink:href="classboost_1_1ui_1_1widget.html" target="_top" xlink:title="Base class for all widgets.">
<polygon fill="white" stroke="black" points="126,-112.5 126,-131.5 224,-131.5 224,-112.5 126,-112.5"/>
<text text-anchor="middle" x="175" y="-119.5" font-family="Helvetica,sans-Serif" font-size="10.00">boost::ui::widget</text>
</a>
</g>
</g>
<!-- Node2&#45;&gt;Node1 -->
<g id="edge1" class="edge">
<title>Node2&#45;&gt;Node1</title>
<path fill="none" stroke="midnightblue" d="M175,-101.8C175,-92.91 175,-82.78 175,-75.75"/>
<polygon fill="midnightblue" stroke="midnightblue" points="171.5,-102.08 175,-112.08 178.5,-102.08 171.5,-102.08"/>
</g>
</g>
</svg>
