<?xml version="1.0" encoding="UTF-8" standalone="no"?>
<!DOCTYPE svg PUBLIC "-//W3C//DTD SVG 1.1//EN"
 "http://www.w3.org/Graphics/SVG/1.1/DTD/svg11.dtd">
<!-- Generated by graphviz version 2.38.0 (20140413.2041)
 -->
<!-- Title: boost::ui::widget Pages: 1 -->
<svg width="426pt" height="788pt"
 viewBox="0.00 0.00 426.00 788.00" xmlns="http://www.w3.org/2000/svg" xmlns:xlink="http://www.w3.org/1999/xlink">
<g id="graph0" class="graph" transform="scale(1 1) rotate(0) translate(4 784)">
<title>boost::ui::widget</title>
<polygon fill="white" stroke="none" points="-4,4 -4,-784 422,-784 422,4 -4,4"/>
<!-- Node1 -->
<g id="node1" class="node"><title>Node1</title>
<polygon fill="#bfbfbf" stroke="black" points="0,-418.5 0,-437.5 89,-437.5 89,-418.5 0,-418.5"/>
<text text-anchor="middle" x="44.5" y="-425.5" font-family="Helvetica,sans-Serif" font-size="10.00">boost::ui::widget</text>
</g>
<!-- Node2 -->
<g id="node2" class="node"><title>Node2</title>
<g id="a_node2"><a xlink:href="classboost_1_1ui_1_1button.html" target="_top" xlink:title="Widget with label that generate event when clicked on. ">
<polygon fill="white" stroke="black" points="148.5,-760.5 148.5,-779.5 235.5,-779.5 235.5,-760.5 148.5,-760.5"/>
<text text-anchor="middle" x="192" y="-767.5" font-family="Helvetica,sans-Serif" font-size="10.00">boost::ui::button</text>
</a>
</g>
</g>
<!-- Node1&#45;&gt;Node2 -->
<g id="edge1" class="edge"><title>Node1&#45;&gt;Node2</title>
<path fill="none" stroke="midnightblue" d="M47.7909,-447.9C55.4664,-511.227 82.2259,-706.526 125,-751 131.282,-757.531 139.651,-761.859 148.314,-764.717"/>
<polygon fill="midnightblue" stroke="midnightblue" points="51.2321,-447.196 46.5802,-437.677 44.2807,-448.019 51.2321,-447.196"/>
</g>
<!-- Node3 -->
<g id="node3" class="node"><title>Node3</title>
<g id="a_node3"><a xlink:href="classboost_1_1ui_1_1canvas.html" target="_top" xlink:title="Widget for drawing. ">
<polygon fill="white" stroke="black" points="146,-722.5 146,-741.5 238,-741.5 238,-722.5 146,-722.5"/>
<text text-anchor="middle" x="192" y="-729.5" font-family="Helvetica,sans-Serif" font-size="10.00">boost::ui::canvas</text>
</a>
</g>
</g>
<!-- Node1&#45;&gt;Node3 -->
<g id="edge2" class="edge"><title>Node1&#45;&gt;Node3</title>
<path fill="none" stroke="midnightblue" d="M44.8853,-447.826C44.419,-499.207 50.5119,-637.894 125,-713 130.71,-718.757 138.043,-722.796 145.734,-725.624"/>
<polygon fill="midnightblue" stroke="midnightblue" points="48.3864,-447.796 45.077,-437.731 41.3877,-447.663 48.3864,-447.796"/>
</g>
<!-- Node4 -->
<g id="node4" class="node"><title>Node4</title>
<g id="a_node4"><a xlink:href="classboost_1_1ui_1_1check__box__base.html" target="_top" xlink:title="Check box base class. ">
<polygon fill="white" stroke="black" points="125,-684.5 125,-703.5 259,-703.5 259,-684.5 125,-684.5"/>
<text text-anchor="middle" x="192" y="-691.5" font-family="Helvetica,sans-Serif" font-size="10.00">boost::ui::check_box_base</text>
</a>
</g>
</g>
<!-- Node1&#45;&gt;Node4 -->
<g id="edge3" class="edge"><title>Node1&#45;&gt;Node4</title>
<path fill="none" stroke="midnightblue" d="M45.9015,-447.955C47.9501,-494.619 59.6977,-611.697 125,-675 129.024,-678.901 133.795,-682.009 138.903,-684.486"/>
<polygon fill="midnightblue" stroke="midnightblue" points="49.3905,-447.563 45.5629,-437.684 42.3943,-447.794 49.3905,-447.563"/>
</g>
<!-- Node7 -->
<g id="node7" class="node"><title>Node7</title>
<g id="a_node7"><a xlink:href="classboost_1_1ui_1_1date__picker.html" target="_top" xlink:title="Date picker widget. ">
<polygon fill="white" stroke="black" points="137,-646.5 137,-665.5 247,-665.5 247,-646.5 137,-646.5"/>
<text text-anchor="middle" x="192" y="-653.5" font-family="Helvetica,sans-Serif" font-size="10.00">boost::ui::date_picker</text>
</a>
</g>
</g>
<!-- Node1&#45;&gt;Node7 -->
<g id="edge6" class="edge"><title>Node1&#45;&gt;Node7</title>
<path fill="none" stroke="midnightblue" d="M47.2224,-447.66C51.9063,-488.94 68.5955,-585.102 125,-637 129.212,-640.875 134.164,-643.965 139.432,-646.428"/>
<polygon fill="midnightblue" stroke="midnightblue" points="50.6887,-447.15 46.1966,-437.555 43.7245,-447.857 50.6887,-447.15"/>
</g>
<!-- Node8 -->
<g id="node8" class="node"><title>Node8</title>
<g id="a_node8"><a xlink:href="classboost_1_1ui_1_1group__box.html" target="_top" xlink:title="Widget that groups other widgets using a frame and a title. ">
<polygon fill="white" stroke="black" points="139.5,-608.5 139.5,-627.5 244.5,-627.5 244.5,-608.5 139.5,-608.5"/>
<text text-anchor="middle" x="192" y="-615.5" font-family="Helvetica,sans-Serif" font-size="10.00">boost::ui::group_box</text>
</a>
</g>
</g>
<!-- Node1&#45;&gt;Node8 -->
<g id="edge7" class="edge"><title>Node1&#45;&gt;Node8</title>
<path fill="none" stroke="midnightblue" d="M49.1575,-447.949C56.7549,-483.639 77.6458,-558.466 125,-599 129.529,-602.877 134.807,-605.964 140.368,-608.422"/>
<polygon fill="midnightblue" stroke="midnightblue" points="52.5279,-446.953 47.1412,-437.83 45.6628,-448.321 52.5279,-446.953"/>
</g>
<!-- Node9 -->
<g id="node9" class="node"><title>Node9</title>
<g id="a_node9"><a xlink:href="classboost_1_1ui_1_1hyperlink.html" target="_top" xlink:title="Widget that displays static text which links to an URL. ">
<polygon fill="white" stroke="black" points="142.5,-570.5 142.5,-589.5 241.5,-589.5 241.5,-570.5 142.5,-570.5"/>
<text text-anchor="middle" x="192" y="-577.5" font-family="Helvetica,sans-Serif" font-size="10.00">boost::ui::hyperlink</text>
</a>
</g>
</g>
<!-- Node1&#45;&gt;Node9 -->
<g id="edge8" class="edge"><title>Node1&#45;&gt;Node9</title>
<path fill="none" stroke="midnightblue" d="M51.9025,-447.534C62.4495,-476.643 86.255,-531.167 125,-561 130.196,-565.001 136.206,-568.16 142.44,-570.654"/>
<polygon fill="midnightblue" stroke="midnightblue" points="55.0859,-446.03 48.506,-437.727 48.4713,-448.321 55.0859,-446.03"/>
</g>
<!-- Node10 -->
<g id="node10" class="node"><title>Node10</title>
<g id="a_node10"><a xlink:href="classboost_1_1ui_1_1image__widget.html" target="_top" xlink:title="Widget that displays image. ">
<polygon fill="white" stroke="black" points="132,-532.5 132,-551.5 252,-551.5 252,-532.5 132,-532.5"/>
<text text-anchor="middle" x="192" y="-539.5" font-family="Helvetica,sans-Serif" font-size="10.00">boost::ui::image_widget</text>
</a>
</g>
</g>
<!-- Node1&#45;&gt;Node10 -->
<g id="edge9" class="edge"><title>Node1&#45;&gt;Node10</title>
<path fill="none" stroke="midnightblue" d="M56.2271,-446.548C69.6213,-468.077 94.5233,-503.157 125,-523 130.895,-526.839 137.579,-529.917 144.375,-532.382"/>
<polygon fill="midnightblue" stroke="midnightblue" points="59.0628,-444.473 50.9041,-437.714 53.067,-448.085 59.0628,-444.473"/>
</g>
<!-- Node11 -->
<g id="node11" class="node"><title>Node11</title>
<g id="a_node11"><a xlink:href="classboost_1_1ui_1_1label.html" target="_top" xlink:title="Widget that displays static text. ">
<polygon fill="white" stroke="black" points="152,-494.5 152,-513.5 232,-513.5 232,-494.5 152,-494.5"/>
<text text-anchor="middle" x="192" y="-501.5" font-family="Helvetica,sans-Serif" font-size="10.00">boost::ui::label</text>
</a>
</g>
</g>
<!-- Node1&#45;&gt;Node11 -->
<g id="edge10" class="edge"><title>Node1&#45;&gt;Node11</title>
<path fill="none" stroke="midnightblue" d="M64.0393,-444.112C79.4503,-456.783 102.433,-474.066 125,-485 133.37,-489.055 142.766,-492.403 151.787,-495.098"/>
<polygon fill="midnightblue" stroke="midnightblue" points="66.2155,-441.369 56.3074,-437.616 61.7129,-446.728 66.2155,-441.369"/>
</g>
<!-- Node12 -->
<g id="node12" class="node"><title>Node12</title>
<g id="a_node12"><a xlink:href="classboost_1_1ui_1_1line__widget.html" target="_top" xlink:title="Abstract widget that displays horizontal or vertical line. ">
<polygon fill="white" stroke="black" points="137.5,-456.5 137.5,-475.5 246.5,-475.5 246.5,-456.5 137.5,-456.5"/>
<text text-anchor="middle" x="192" y="-463.5" font-family="Helvetica,sans-Serif" font-size="10.00">boost::ui::line_widget</text>
</a>
</g>
</g>
<!-- Node1&#45;&gt;Node12 -->
<g id="edge11" class="edge"><title>Node1&#45;&gt;Node12</title>
<path fill="none" stroke="midnightblue" d="M92.1532,-440.184C112.353,-445.46 135.648,-451.544 154.548,-456.48"/>
<polygon fill="midnightblue" stroke="midnightblue" points="92.7757,-436.73 82.2158,-437.589 91.0068,-443.502 92.7757,-436.73"/>
</g>
<!-- Node15 -->
<g id="node15" class="node"><title>Node15</title>
<g id="a_node15"><a xlink:href="classboost_1_1ui_1_1native__widget.html" target="_top" xlink:title="Widget that wraps previously created native widget. ">
<polygon fill="white" stroke="black" points="132,-418.5 132,-437.5 252,-437.5 252,-418.5 132,-418.5"/>
<text text-anchor="middle" x="192" y="-425.5" font-family="Helvetica,sans-Serif" font-size="10.00">boost::ui::native_widget</text>
</a>
</g>
</g>
<!-- Node1&#45;&gt;Node15 -->
<g id="edge14" class="edge"><title>Node1&#45;&gt;Node15</title>
<path fill="none" stroke="midnightblue" d="M99.4591,-428C109.987,-428 121.079,-428 131.767,-428"/>
<polygon fill="midnightblue" stroke="midnightblue" points="99.1548,-424.5 89.1548,-428 99.1548,-431.5 99.1548,-424.5"/>
</g>
<!-- Node16 -->
<g id="node16" class="node"><title>Node16</title>
<g id="a_node16"><a xlink:href="classboost_1_1ui_1_1notebook.html" target="_top" xlink:title="Widget that is an array of tabbed widgets. ">
<polygon fill="white" stroke="black" points="142,-380.5 142,-399.5 242,-399.5 242,-380.5 142,-380.5"/>
<text text-anchor="middle" x="192" y="-387.5" font-family="Helvetica,sans-Serif" font-size="10.00">boost::ui::notebook</text>
</a>
</g>
</g>
<!-- Node1&#45;&gt;Node16 -->
<g id="edge15" class="edge"><title>Node1&#45;&gt;Node16</title>
<path fill="none" stroke="midnightblue" d="M92.1532,-415.816C112.353,-410.54 135.648,-404.456 154.548,-399.52"/>
<polygon fill="midnightblue" stroke="midnightblue" points="91.0068,-412.498 82.2158,-418.411 92.7757,-419.27 91.0068,-412.498"/>
</g>
<!-- Node17 -->
<g id="node17" class="node"><title>Node17</title>
<g id="a_node17"><a xlink:href="classboost_1_1ui_1_1panel.html" target="_top" xlink:title="Widget that hosts other widgets. ">
<polygon fill="white" stroke="black" points="150.5,-342.5 150.5,-361.5 233.5,-361.5 233.5,-342.5 150.5,-342.5"/>
<text text-anchor="middle" x="192" y="-349.5" font-family="Helvetica,sans-Serif" font-size="10.00">boost::ui::panel</text>
</a>
</g>
</g>
<!-- Node1&#45;&gt;Node17 -->
<g id="edge16" class="edge"><title>Node1&#45;&gt;Node17</title>
<path fill="none" stroke="midnightblue" d="M64.0393,-411.888C79.4503,-399.217 102.433,-381.934 125,-371 132.941,-367.153 141.805,-363.942 150.396,-361.322"/>
<polygon fill="midnightblue" stroke="midnightblue" points="61.7129,-409.272 56.3074,-418.384 66.2155,-414.631 61.7129,-409.272"/>
</g>
<!-- Node18 -->
<g id="node18" class="node"><title>Node18</title>
<g id="a_node18"><a xlink:href="classboost_1_1ui_1_1progress__bar.html" target="_top" xlink:title="Progress bar widget base class. ">
<polygon fill="white" stroke="black" points="134,-304.5 134,-323.5 250,-323.5 250,-304.5 134,-304.5"/>
<text text-anchor="middle" x="192" y="-311.5" font-family="Helvetica,sans-Serif" font-size="10.00">boost::ui::progress_bar</text>
</a>
</g>
</g>
<!-- Node1&#45;&gt;Node18 -->
<g id="edge17" class="edge"><title>Node1&#45;&gt;Node18</title>
<path fill="none" stroke="midnightblue" d="M56.2271,-409.452C69.6213,-387.923 94.5233,-352.843 125,-333 130.895,-329.161 137.579,-326.083 144.375,-323.618"/>
<polygon fill="midnightblue" stroke="midnightblue" points="53.067,-407.915 50.9041,-418.286 59.0628,-411.527 53.067,-407.915"/>
</g>
<!-- Node21 -->
<g id="node21" class="node"><title>Node21</title>
<g id="a_node21"><a xlink:href="classboost_1_1ui_1_1slider.html" target="_top" xlink:title="Slider widget base class. ">
<polygon fill="white" stroke="black" points="150.5,-266.5 150.5,-285.5 233.5,-285.5 233.5,-266.5 150.5,-266.5"/>
<text text-anchor="middle" x="192" y="-273.5" font-family="Helvetica,sans-Serif" font-size="10.00">boost::ui::slider</text>
</a>
</g>
</g>
<!-- Node1&#45;&gt;Node21 -->
<g id="edge20" class="edge"><title>Node1&#45;&gt;Node21</title>
<path fill="none" stroke="midnightblue" d="M51.9025,-408.466C62.4495,-379.357 86.255,-324.833 125,-295 132.369,-289.326 141.375,-285.346 150.336,-282.554"/>
<polygon fill="midnightblue" stroke="midnightblue" points="48.4713,-407.679 48.506,-418.273 55.0859,-409.97 48.4713,-407.679"/>
</g>
<!-- Node24 -->
<g id="node24" class="node"><title>Node24</title>
<g id="a_node24"><a xlink:href="classboost_1_1ui_1_1strings__box.html" target="_top" xlink:title="Abstract widget that holds array of strings. ">
<polygon fill="white" stroke="black" points="137,-228.5 137,-247.5 247,-247.5 247,-228.5 137,-228.5"/>
<text text-anchor="middle" x="192" y="-235.5" font-family="Helvetica,sans-Serif" font-size="10.00">boost::ui::strings_box</text>
</a>
</g>
</g>
<!-- Node1&#45;&gt;Node24 -->
<g id="edge23" class="edge"><title>Node1&#45;&gt;Node24</title>
<path fill="none" stroke="midnightblue" d="M49.1575,-408.051C56.7549,-372.361 77.6458,-297.534 125,-257 129.529,-253.123 134.807,-250.036 140.368,-247.578"/>
<polygon fill="midnightblue" stroke="midnightblue" points="45.6628,-407.679 47.1412,-418.17 52.5279,-409.047 45.6628,-407.679"/>
</g>
<!-- Node28 -->
<g id="node28" class="node"><title>Node28</title>
<g id="a_node28"><a xlink:href="classboost_1_1ui_1_1text__box__base.html" target="_top" xlink:title="Abstract text editor widget. ">
<polygon fill="white" stroke="black" points="130,-171.5 130,-190.5 254,-190.5 254,-171.5 130,-171.5"/>
<text text-anchor="middle" x="192" y="-178.5" font-family="Helvetica,sans-Serif" font-size="10.00">boost::ui::text_box_base</text>
</a>
</g>
</g>
<!-- Node1&#45;&gt;Node28 -->
<g id="edge27" class="edge"><title>Node1&#45;&gt;Node28</title>
<path fill="none" stroke="midnightblue" d="M48.5048,-407.986C55.4284,-367.898 75.8409,-276.665 125,-219 135.808,-206.322 151.965,-196.919 165.588,-190.637"/>
<polygon fill="midnightblue" stroke="midnightblue" points="45.0148,-407.642 46.8654,-418.074 51.9241,-408.765 45.0148,-407.642"/>
</g>
<!-- Node32 -->
<g id="node32" class="node"><title>Node32</title>
<g id="a_node32"><a xlink:href="classboost_1_1ui_1_1time__picker.html" target="_top" xlink:title="Time picker widget. ">
<polygon fill="white" stroke="black" points="137,-133.5 137,-152.5 247,-152.5 247,-133.5 137,-133.5"/>
<text text-anchor="middle" x="192" y="-140.5" font-family="Helvetica,sans-Serif" font-size="10.00">boost::ui::time_picker</text>
</a>
</g>
</g>
<!-- Node1&#45;&gt;Node32 -->
<g id="edge31" class="edge"><title>Node1&#45;&gt;Node32</title>
<path fill="none" stroke="midnightblue" d="M45.3569,-408.193C46.117,-359.184 55.0759,-231.22 125,-162 128.898,-158.141 133.526,-155.056 138.496,-152.59"/>
<polygon fill="midnightblue" stroke="midnightblue" points="41.8561,-408.369 45.305,-418.387 48.856,-408.405 41.8561,-408.369"/>
</g>
<!-- Node33 -->
<g id="node33" class="node"><title>Node33</title>
<g id="a_node33"><a xlink:href="classboost_1_1ui_1_1web__widget.html" target="_top" xlink:title="Widget that renders HTML. ">
<polygon fill="white" stroke="black" points="136,-95.5 136,-114.5 248,-114.5 248,-95.5 136,-95.5"/>
<text text-anchor="middle" x="192" y="-102.5" font-family="Helvetica,sans-Serif" font-size="10.00">boost::ui::web_widget</text>
</a>
</g>
</g>
<!-- Node1&#45;&gt;Node33 -->
<g id="edge32" class="edge"><title>Node1&#45;&gt;Node33</title>
<path fill="none" stroke="midnightblue" d="M48.1216,-408.086C56.5137,-347.249 84.555,-165.449 125,-124 128.747,-120.16 133.217,-117.082 138.038,-114.619"/>
<polygon fill="midnightblue" stroke="midnightblue" points="44.6159,-407.893 46.7457,-418.272 51.5529,-408.83 44.6159,-407.893"/>
</g>
<!-- Node34 -->
<g id="node34" class="node"><title>Node34</title>
<g id="a_node34"><a xlink:href="classboost_1_1ui_1_1window.html" target="_top" xlink:title="Abstract top level widget that hosts other widgets. ">
<polygon fill="white" stroke="black" points="145.5,-38.5 145.5,-57.5 238.5,-57.5 238.5,-38.5 145.5,-38.5"/>
<text text-anchor="middle" x="192" y="-45.5" font-family="Helvetica,sans-Serif" font-size="10.00">boost::ui::window</text>
</a>
</g>
</g>
<!-- Node1&#45;&gt;Node34 -->
<g id="edge33" class="edge"><title>Node1&#45;&gt;Node34</title>
<path fill="none" stroke="midnightblue" d="M44.8794,-408.097C44.1289,-351.712 49.0344,-188.372 125,-86 134.691,-72.9401 150.306,-63.6576 163.915,-57.5376"/>
<polygon fill="midnightblue" stroke="midnightblue" points="41.3876,-408.522 45.1018,-418.445 48.386,-408.372 41.3876,-408.522"/>
</g>
<!-- Node5 -->
<g id="node5" class="node"><title>Node5</title>
<g id="a_node5"><a xlink:href="classboost_1_1ui_1_1check__box.html" target="_top" xlink:title="Labelled widget that that permits the user to make a binary choice. ">
<polygon fill="white" stroke="black" points="303,-706.5 303,-725.5 410,-725.5 410,-706.5 303,-706.5"/>
<text text-anchor="middle" x="356.5" y="-713.5" font-family="Helvetica,sans-Serif" font-size="10.00">boost::ui::check_box</text>
</a>
</g>
</g>
<!-- Node4&#45;&gt;Node5 -->
<g id="edge4" class="edge"><title>Node4&#45;&gt;Node5</title>
<path fill="none" stroke="midnightblue" d="M269.09,-704.301C280.53,-705.85 292.107,-707.418 302.909,-708.88"/>
<polygon fill="midnightblue" stroke="midnightblue" points="269.474,-700.822 259.095,-702.948 268.535,-707.758 269.474,-700.822"/>
</g>
<!-- Node6 -->
<g id="node6" class="node"><title>Node6</title>
<g id="a_node6"><a xlink:href="classboost_1_1ui_1_1tri__state__check__box.html" target="_top" xlink:title="Labelled widget that that permits the user to make a ternary choice. ">
<polygon fill="white" stroke="black" points="309,-657 309,-687 404,-687 404,-657 309,-657"/>
<text text-anchor="start" x="317" y="-675" font-family="Helvetica,sans-Serif" font-size="10.00">boost::ui::tri_state</text>
<text text-anchor="middle" x="356.5" y="-664" font-family="Helvetica,sans-Serif" font-size="10.00">_check_box</text>
</a>
</g>
</g>
<!-- Node4&#45;&gt;Node6 -->
<g id="edge5" class="edge"><title>Node4&#45;&gt;Node6</title>
<path fill="none" stroke="midnightblue" d="M269.353,-683.663C282.847,-681.836 296.521,-679.985 308.88,-678.312"/>
<polygon fill="midnightblue" stroke="midnightblue" points="268.535,-680.242 259.095,-685.052 269.474,-687.178 268.535,-680.242"/>
</g>
<!-- Node13 -->
<g id="node13" class="node"><title>Node13</title>
<g id="a_node13"><a xlink:href="classboost_1_1ui_1_1hline.html" target="_top" xlink:title="Horizontal line widget. ">
<polygon fill="white" stroke="black" points="316.5,-494.5 316.5,-513.5 396.5,-513.5 396.5,-494.5 316.5,-494.5"/>
<text text-anchor="middle" x="356.5" y="-501.5" font-family="Helvetica,sans-Serif" font-size="10.00">boost::ui::hline</text>
</a>
</g>
</g>
<!-- Node12&#45;&gt;Node13 -->
<g id="edge12" class="edge"><title>Node12&#45;&gt;Node13</title>
<path fill="none" stroke="midnightblue" d="M243.788,-477.877C267.246,-483.362 294.665,-489.774 316.467,-494.872"/>
<polygon fill="midnightblue" stroke="midnightblue" points="244.54,-474.458 234.006,-475.589 242.946,-481.274 244.54,-474.458"/>
</g>
<!-- Node14 -->
<g id="node14" class="node"><title>Node14</title>
<g id="a_node14"><a xlink:href="classboost_1_1ui_1_1vline.html" target="_top" xlink:title="Vertical line widget. ">
<polygon fill="white" stroke="black" points="316.5,-456.5 316.5,-475.5 396.5,-475.5 396.5,-456.5 316.5,-456.5"/>
<text text-anchor="middle" x="356.5" y="-463.5" font-family="Helvetica,sans-Serif" font-size="10.00">boost::ui::vline</text>
</a>
</g>
</g>
<!-- Node12&#45;&gt;Node14 -->
<g id="edge13" class="edge"><title>Node12&#45;&gt;Node14</title>
<path fill="none" stroke="midnightblue" d="M256.699,-466C276.814,-466 298.435,-466 316.307,-466"/>
<polygon fill="midnightblue" stroke="midnightblue" points="256.659,-462.5 246.659,-466 256.659,-469.5 256.659,-462.5"/>
</g>
<!-- Node19 -->
<g id="node19" class="node"><title>Node19</title>
<g id="a_node19"><a xlink:href="classboost_1_1ui_1_1hprogress__bar.html" target="_top" xlink:title="Horizontal progress bar widget. ">
<polygon fill="white" stroke="black" points="295.5,-418.5 295.5,-437.5 417.5,-437.5 417.5,-418.5 295.5,-418.5"/>
<text text-anchor="middle" x="356.5" y="-425.5" font-family="Helvetica,sans-Serif" font-size="10.00">boost::ui::hprogress_bar</text>
</a>
</g>
</g>
<!-- Node18&#45;&gt;Node19 -->
<g id="edge18" class="edge"><title>Node18&#45;&gt;Node19</title>
<path fill="none" stroke="midnightblue" d="M252.649,-328.369C254.883,-329.772 257.012,-331.311 259,-333 287.481,-357.202 266.811,-384.458 295,-409 299.484,-412.904 304.768,-416.006 310.315,-418.471"/>
<polygon fill="midnightblue" stroke="midnightblue" points="254.084,-325.17 243.605,-323.609 250.824,-331.364 254.084,-325.17"/>
</g>
<!-- Node20 -->
<g id="node20" class="node"><title>Node20</title>
<g id="a_node20"><a xlink:href="classboost_1_1ui_1_1vprogress__bar.html" target="_top" xlink:title="Vertical progress bar widget. ">
<polygon fill="white" stroke="black" points="295.5,-380.5 295.5,-399.5 417.5,-399.5 417.5,-380.5 295.5,-380.5"/>
<text text-anchor="middle" x="356.5" y="-387.5" font-family="Helvetica,sans-Serif" font-size="10.00">boost::ui::vprogress_bar</text>
</a>
</g>
</g>
<!-- Node18&#45;&gt;Node20 -->
<g id="edge19" class="edge"><title>Node18&#45;&gt;Node20</title>
<path fill="none" stroke="midnightblue" d="M247.706,-327.202C251.637,-328.915 255.447,-330.839 259,-333 278.878,-345.088 275.269,-358.675 295,-371 301.163,-374.85 308.169,-377.977 315.174,-380.499"/>
<polygon fill="midnightblue" stroke="midnightblue" points="248.968,-323.937 238.379,-323.579 246.433,-330.462 248.968,-323.937"/>
</g>
<!-- Node22 -->
<g id="node22" class="node"><title>Node22</title>
<g id="a_node22"><a xlink:href="classboost_1_1ui_1_1hslider.html" target="_top" xlink:title="Horizontal slider widget. ">
<polygon fill="white" stroke="black" points="312,-342.5 312,-361.5 401,-361.5 401,-342.5 312,-342.5"/>
<text text-anchor="middle" x="356.5" y="-349.5" font-family="Helvetica,sans-Serif" font-size="10.00">boost::ui::hslider</text>
</a>
</g>
</g>
<!-- Node21&#45;&gt;Node22 -->
<g id="edge21" class="edge"><title>Node21&#45;&gt;Node22</title>
<path fill="none" stroke="midnightblue" d="M242.988,-287.265C248.579,-289.427 254.04,-291.984 259,-295 278.878,-307.088 275.269,-320.675 295,-333 301.163,-336.85 308.169,-339.977 315.174,-342.499"/>
<polygon fill="midnightblue" stroke="midnightblue" points="244.114,-283.952 233.519,-283.987 241.824,-290.566 244.114,-283.952"/>
</g>
<!-- Node23 -->
<g id="node23" class="node"><title>Node23</title>
<g id="a_node23"><a xlink:href="classboost_1_1ui_1_1vslider.html" target="_top" xlink:title="Vertical slider widget. ">
<polygon fill="white" stroke="black" points="312,-304.5 312,-323.5 401,-323.5 401,-304.5 312,-304.5"/>
<text text-anchor="middle" x="356.5" y="-311.5" font-family="Helvetica,sans-Serif" font-size="10.00">boost::ui::vslider</text>
</a>
</g>
</g>
<!-- Node21&#45;&gt;Node23 -->
<g id="edge22" class="edge"><title>Node21&#45;&gt;Node23</title>
<path fill="none" stroke="midnightblue" d="M243.495,-287.808C266.448,-293.175 293.242,-299.441 314.868,-304.498"/>
<polygon fill="midnightblue" stroke="midnightblue" points="244.121,-284.36 233.586,-285.491 242.527,-291.176 244.121,-284.36"/>
</g>
<!-- Node25 -->
<g id="node25" class="node"><title>Node25</title>
<g id="a_node25"><a xlink:href="classboost_1_1ui_1_1choice.html" target="_top" xlink:title="Widget to select string from popup list of strings. ">
<polygon fill="white" stroke="black" points="312,-266.5 312,-285.5 401,-285.5 401,-266.5 312,-266.5"/>
<text text-anchor="middle" x="356.5" y="-273.5" font-family="Helvetica,sans-Serif" font-size="10.00">boost::ui::choice</text>
</a>
</g>
</g>
<!-- Node24&#45;&gt;Node25 -->
<g id="edge24" class="edge"><title>Node24&#45;&gt;Node25</title>
<path fill="none" stroke="midnightblue" d="M243.871,-249.896C266.712,-255.237 293.295,-261.454 314.789,-266.48"/>
<polygon fill="midnightblue" stroke="midnightblue" points="244.54,-246.458 234.006,-247.589 242.946,-253.274 244.54,-246.458"/>
</g>
<!-- Node26 -->
<g id="node26" class="node"><title>Node26</title>
<g id="a_node26"><a xlink:href="classboost_1_1ui_1_1combo__box.html" target="_top" xlink:title="Widget to select one or more strings and edit it. ">
<polygon fill="white" stroke="black" points="301.5,-228.5 301.5,-247.5 411.5,-247.5 411.5,-228.5 301.5,-228.5"/>
<text text-anchor="middle" x="356.5" y="-235.5" font-family="Helvetica,sans-Serif" font-size="10.00">boost::ui::combo_box</text>
</a>
</g>
</g>
<!-- Node24&#45;&gt;Node26 -->
<g id="edge25" class="edge"><title>Node24&#45;&gt;Node26</title>
<path fill="none" stroke="midnightblue" d="M257.522,-238C272.041,-238 287.305,-238 301.349,-238"/>
<polygon fill="midnightblue" stroke="midnightblue" points="257.11,-234.5 247.11,-238 257.11,-241.5 257.11,-234.5"/>
</g>
<!-- Node27 -->
<g id="node27" class="node"><title>Node27</title>
<g id="a_node27"><a xlink:href="classboost_1_1ui_1_1list__box.html" target="_top" xlink:title="Widget to select one or more strings. ">
<polygon fill="white" stroke="black" points="309.5,-190.5 309.5,-209.5 403.5,-209.5 403.5,-190.5 309.5,-190.5"/>
<text text-anchor="middle" x="356.5" y="-197.5" font-family="Helvetica,sans-Serif" font-size="10.00">boost::ui::list_box</text>
</a>
</g>
</g>
<!-- Node24&#45;&gt;Node27 -->
<g id="edge26" class="edge"><title>Node24&#45;&gt;Node27</title>
<path fill="none" stroke="midnightblue" d="M243.871,-226.104C266.712,-220.763 293.295,-214.546 314.789,-209.52"/>
<polygon fill="midnightblue" stroke="midnightblue" points="242.946,-222.726 234.006,-228.411 244.54,-229.542 242.946,-222.726"/>
</g>
<!-- Node29 -->
<g id="node29" class="node"><title>Node29</title>
<g id="a_node29"><a xlink:href="classboost_1_1ui_1_1password__box.html" target="_top" xlink:title="Password editor widget. ">
<polygon fill="white" stroke="black" points="295,-152.5 295,-171.5 418,-171.5 418,-152.5 295,-152.5"/>
<text text-anchor="middle" x="356.5" y="-159.5" font-family="Helvetica,sans-Serif" font-size="10.00">boost::ui::password_box</text>
</a>
</g>
</g>
<!-- Node28&#45;&gt;Node29 -->
<g id="edge28" class="edge"><title>Node28&#45;&gt;Node29</title>
<path fill="none" stroke="midnightblue" d="M264.459,-172.645C274.576,-171.462 284.899,-170.255 294.787,-169.099"/>
<polygon fill="midnightblue" stroke="midnightblue" points="263.96,-169.179 254.434,-173.817 264.773,-176.132 263.96,-169.179"/>
</g>
<!-- Node30 -->
<g id="node30" class="node"><title>Node30</title>
<g id="a_node30"><a xlink:href="classboost_1_1ui_1_1string__box.html" target="_top" xlink:title="Single&#45;line text editor widget. ">
<polygon fill="white" stroke="black" points="304,-114.5 304,-133.5 409,-133.5 409,-114.5 304,-114.5"/>
<text text-anchor="middle" x="356.5" y="-121.5" font-family="Helvetica,sans-Serif" font-size="10.00">boost::ui::string_box</text>
</a>
</g>
</g>
<!-- Node28&#45;&gt;Node30 -->
<g id="edge29" class="edge"><title>Node28&#45;&gt;Node30</title>
<path fill="none" stroke="midnightblue" d="M240.804,-168.504C246.993,-166.518 253.194,-164.339 259,-162 275.781,-155.24 278.301,-149.961 295,-143 303.333,-139.526 312.534,-136.329 321.194,-133.587"/>
<polygon fill="midnightblue" stroke="midnightblue" points="239.683,-165.186 231.146,-171.461 241.733,-171.88 239.683,-165.186"/>
</g>
<!-- Node31 -->
<g id="node31" class="node"><title>Node31</title>
<g id="a_node31"><a xlink:href="classboost_1_1ui_1_1text__box.html" target="_top" xlink:title="Multi&#45;line text editor widget. ">
<polygon fill="white" stroke="black" points="307.5,-76.5 307.5,-95.5 405.5,-95.5 405.5,-76.5 307.5,-76.5"/>
<text text-anchor="middle" x="356.5" y="-83.5" font-family="Helvetica,sans-Serif" font-size="10.00">boost::ui::text_box</text>
</a>
</g>
</g>
<!-- Node28&#45;&gt;Node31 -->
<g id="edge30" class="edge"><title>Node28&#45;&gt;Node31</title>
<path fill="none" stroke="midnightblue" d="M251.042,-167.082C253.832,-165.56 256.506,-163.872 259,-162 282.963,-144.013 271.254,-123.273 295,-105 300.06,-101.106 305.933,-98.0009 311.991,-95.5275"/>
<polygon fill="midnightblue" stroke="midnightblue" points="249.386,-163.993 241.81,-171.399 252.351,-170.333 249.386,-163.993"/>
</g>
<!-- Node35 -->
<g id="node35" class="node"><title>Node35</title>
<g id="a_node35"><a xlink:href="classboost_1_1ui_1_1dialog.html" target="_top" xlink:title="Top level widget that hosts other widgets. ">
<polygon fill="white" stroke="black" points="313.5,-38.5 313.5,-57.5 399.5,-57.5 399.5,-38.5 313.5,-38.5"/>
<text text-anchor="middle" x="356.5" y="-45.5" font-family="Helvetica,sans-Serif" font-size="10.00">boost::ui::dialog</text>
</a>
</g>
</g>
<!-- Node34&#45;&gt;Node35 -->
<g id="edge34" class="edge"><title>Node34&#45;&gt;Node35</title>
<path fill="none" stroke="midnightblue" d="M248.862,-48C270.045,-48 293.787,-48 313.482,-48"/>
<polygon fill="midnightblue" stroke="midnightblue" points="248.698,-44.5001 238.698,-48 248.698,-51.5001 248.698,-44.5001"/>
</g>
<!-- Node36 -->
<g id="node36" class="node"><title>Node36</title>
<g id="a_node36"><a xlink:href="classboost_1_1ui_1_1frame.html" target="_top" xlink:title="Top level widget that hosts other widgets and supports menus. ">
<polygon fill="white" stroke="black" points="314,-0.5 314,-19.5 399,-19.5 399,-0.5 314,-0.5"/>
<text text-anchor="middle" x="356.5" y="-7.5" font-family="Helvetica,sans-Serif" font-size="10.00">boost::ui::frame</text>
</a>
</g>
</g>
<!-- Node34&#45;&gt;Node36 -->
<g id="edge35" class="edge"><title>Node34&#45;&gt;Node36</title>
<path fill="none" stroke="midnightblue" d="M243.871,-36.1039C266.712,-30.7626 293.295,-24.5463 314.789,-19.5201"/>
<polygon fill="midnightblue" stroke="midnightblue" points="242.946,-32.7258 234.006,-38.411 244.54,-39.5419 242.946,-32.7258"/>
</g>
</g>
</svg>
