<?xml version="1.0" encoding="UTF-8" standalone="no"?>
<!DOCTYPE svg PUBLIC "-//W3C//DTD SVG 1.1//EN"
 "http://www.w3.org/Graphics/SVG/1.1/DTD/svg11.dtd">
<!-- Generated by graphviz version 2.38.0 (20140413.2041)
 -->
<!-- Title: boost::ui::checkbox_base Pages: 1 -->
<svg width="218pt" height="151pt"
 viewBox="0.00 0.00 218.00 151.00" xmlns="http://www.w3.org/2000/svg" xmlns:xlink="http://www.w3.org/1999/xlink">
<g id="graph0" class="graph" transform="scale(1 1) rotate(0) translate(4 147)">
<title>boost::ui::checkbox_base</title>
<polygon fill="white" stroke="none" points="-4,4 -4,-147 214,-147 214,4 -4,4"/>
<!-- Node1 -->
<g id="node1" class="node"><title>Node1</title>
<polygon fill="#bfbfbf" stroke="black" points="44,-67.5 44,-86.5 172,-86.5 172,-67.5 44,-67.5"/>
<text text-anchor="middle" x="108" y="-74.5" font-family="Helvetica,sans-Serif" font-size="10.00">boost::ui::checkbox_base</text>
</g>
<!-- Node3 -->
<g id="node3" class="node"><title>Node3</title>
<g id="a_node3"><a xlink:href="classboost_1_1ui_1_1checkbox.html" target="_top" xlink:title="Labelled widget that that permits the user to make a binary choice. ">
<polygon fill="white" stroke="black" points="0,-6 0,-25 102,-25 102,-6 0,-6"/>
<text text-anchor="middle" x="51" y="-13" font-family="Helvetica,sans-Serif" font-size="10.00">boost::ui::checkbox</text>
</a>
</g>
</g>
<!-- Node1&#45;&gt;Node3 -->
<g id="edge2" class="edge"><title>Node1&#45;&gt;Node3</title>
<path fill="none" stroke="midnightblue" d="M92.6698,-59.9975C81.8811,-48.7356 67.8648,-34.1044 59.1516,-25.0091"/>
<polygon fill="midnightblue" stroke="midnightblue" points="90.3881,-62.6751 99.8333,-67.4751 95.4429,-57.8327 90.3881,-62.6751"/>
</g>
<!-- Node4 -->
<g id="node4" class="node"><title>Node4</title>
<g id="a_node4"><a xlink:href="classboost_1_1ui_1_1tristate__checkbox.html" target="_top" xlink:title="Labelled widget that that permits the user to make a ternary choice. ">
<polygon fill="white" stroke="black" points="120,-0.5 120,-30.5 210,-30.5 210,-0.5 120,-0.5"/>
<text text-anchor="start" x="128" y="-18.5" font-family="Helvetica,sans-Serif" font-size="10.00">boost::ui::tristate</text>
<text text-anchor="middle" x="165" y="-7.5" font-family="Helvetica,sans-Serif" font-size="10.00">_checkbox</text>
</a>
</g>
</g>
<!-- Node1&#45;&gt;Node4 -->
<g id="edge3" class="edge"><title>Node1&#45;&gt;Node4</title>
<path fill="none" stroke="midnightblue" d="M123.241,-60.0906C132.064,-50.8804 143.069,-39.3928 151.566,-30.523"/>
<polygon fill="midnightblue" stroke="midnightblue" points="120.557,-57.8327 116.167,-67.4751 125.612,-62.6751 120.557,-57.8327"/>
</g>
<!-- Node2 -->
<g id="node2" class="node"><title>Node2</title>
<g id="a_node2"><a xlink:href="classboost_1_1ui_1_1widget.html" target="_top" xlink:title="Base class for all widgets. ">
<polygon fill="white" stroke="black" points="63.5,-123.5 63.5,-142.5 152.5,-142.5 152.5,-123.5 63.5,-123.5"/>
<text text-anchor="middle" x="108" y="-130.5" font-family="Helvetica,sans-Serif" font-size="10.00">boost::ui::widget</text>
</a>
</g>
</g>
<!-- Node2&#45;&gt;Node1 -->
<g id="edge1" class="edge"><title>Node2&#45;&gt;Node1</title>
<path fill="none" stroke="midnightblue" d="M108,-112.805C108,-103.91 108,-93.7798 108,-86.7511"/>
<polygon fill="midnightblue" stroke="midnightblue" points="104.5,-113.083 108,-123.083 111.5,-113.083 104.5,-113.083"/>
</g>
</g>
</svg>
