<?xml version="1.0" encoding="UTF-8" standalone="no"?>
<!DOCTYPE svg PUBLIC "-//W3C//DTD SVG 1.1//EN"
 "http://www.w3.org/Graphics/SVG/1.1/DTD/svg11.dtd">
<!-- Generated by graphviz version 2.38.0 (20140413.2041)
 -->
<!-- Title: boost::ui::box_layout Pages: 1 -->
<svg width="188pt" height="140pt"
 viewBox="0.00 0.00 188.00 140.00" xmlns="http://www.w3.org/2000/svg" xmlns:xlink="http://www.w3.org/1999/xlink">
<g id="graph0" class="graph" transform="scale(1 1) rotate(0) translate(4 136)">
<title>boost::ui::box_layout</title>
<polygon fill="white" stroke="none" points="-4,4 -4,-136 184,-136 184,4 -4,4"/>
<!-- Node1 -->
<g id="node1" class="node"><title>Node1</title>
<polygon fill="#bfbfbf" stroke="black" points="36,-56.5 36,-75.5 143,-75.5 143,-56.5 36,-56.5"/>
<text text-anchor="middle" x="89.5" y="-63.5" font-family="Helvetica,sans-Serif" font-size="10.00">boost::ui::box_layout</text>
</g>
<!-- Node3 -->
<g id="node3" class="node"><title>Node3</title>
<g id="a_node3"><a xlink:href="classboost_1_1ui_1_1hbox.html" target="_top" xlink:title="Horizontal box layout. ">
<polygon fill="white" stroke="black" points="0,-0.5 0,-19.5 81,-19.5 81,-0.5 0,-0.5"/>
<text text-anchor="middle" x="40.5" y="-7.5" font-family="Helvetica,sans-Serif" font-size="10.00">boost::ui::hbox</text>
</a>
</g>
</g>
<!-- Node1&#45;&gt;Node3 -->
<g id="edge2" class="edge"><title>Node1&#45;&gt;Node3</title>
<path fill="none" stroke="midnightblue" d="M74.4655,-48.4314C65.8778,-38.9673 55.4565,-27.4827 48.4408,-19.7511"/>
<polygon fill="midnightblue" stroke="midnightblue" points="72.0967,-51.0293 81.4086,-56.083 77.2807,-46.3254 72.0967,-51.0293"/>
</g>
<!-- Node4 -->
<g id="node4" class="node"><title>Node4</title>
<g id="a_node4"><a xlink:href="classboost_1_1ui_1_1vbox.html" target="_top" xlink:title="Vertical box layout. ">
<polygon fill="white" stroke="black" points="99,-0.5 99,-19.5 180,-19.5 180,-0.5 99,-0.5"/>
<text text-anchor="middle" x="139.5" y="-7.5" font-family="Helvetica,sans-Serif" font-size="10.00">boost::ui::vbox</text>
</a>
</g>
</g>
<!-- Node1&#45;&gt;Node4 -->
<g id="edge3" class="edge"><title>Node1&#45;&gt;Node4</title>
<path fill="none" stroke="midnightblue" d="M104.576,-48.7175C113.389,-39.1997 124.166,-27.5608 131.397,-19.7511"/>
<polygon fill="midnightblue" stroke="midnightblue" points="101.982,-46.3674 97.7565,-56.083 107.119,-51.1233 101.982,-46.3674"/>
</g>
<!-- Node2 -->
<g id="node2" class="node"><title>Node2</title>
<g id="a_node2"><a xlink:href="classboost_1_1ui_1_1layout.html" target="_top" xlink:title="Base class for all layouts. ">
<polygon fill="white" stroke="black" points="46.5,-112.5 46.5,-131.5 132.5,-131.5 132.5,-112.5 46.5,-112.5"/>
<text text-anchor="middle" x="89.5" y="-119.5" font-family="Helvetica,sans-Serif" font-size="10.00">boost::ui::layout</text>
</a>
</g>
</g>
<!-- Node2&#45;&gt;Node1 -->
<g id="edge1" class="edge"><title>Node2&#45;&gt;Node1</title>
<path fill="none" stroke="midnightblue" d="M89.5,-101.805C89.5,-92.9102 89.5,-82.7798 89.5,-75.7511"/>
<polygon fill="midnightblue" stroke="midnightblue" points="86.0001,-102.083 89.5,-112.083 93.0001,-102.083 86.0001,-102.083"/>
</g>
</g>
</svg>
