<?xml version="1.0" encoding="UTF-8" standalone="no"?>
<!DOCTYPE svg PUBLIC "-//W3C//DTD SVG 1.1//EN"
 "http://www.w3.org/Graphics/SVG/1.1/DTD/svg11.dtd">
<!-- Generated by graphviz version 2.43.0 (0)
 -->
<!-- Title: boost::ui::log Pages: 1 -->
<svg width="398pt" height="256pt"
 viewBox="0.00 0.00 398.00 256.00" xmlns="http://www.w3.org/2000/svg" xmlns:xlink="http://www.w3.org/1999/xlink">
<g id="graph0" class="graph" transform="scale(1 1) rotate(0) translate(4 252)">
<title>boost::ui::log</title>
<polygon fill="white" stroke="transparent" points="-4,4 -4,-252 394,-252 394,4 -4,4"/>
<!-- Node1 -->
<g id="node1" class="node">
<title>Node1</title>
<g id="a_node1"><a xlink:title="Logging stream class.">
<polygon fill="#bfbfbf" stroke="black" points="149,-114.5 149,-133.5 229,-133.5 229,-114.5 149,-114.5"/>
<text text-anchor="middle" x="189" y="-121.5" font-family="Helvetica,sans-Serif" font-size="10.00">boost::ui::log</text>
</a>
</g>
</g>
<!-- Node3 -->
<g id="node3" class="node">
<title>Node3</title>
<g id="a_node3"><a xlink:href="classboost_1_1ui_1_1log_1_1debug.html" target="_top" xlink:title="Shows information in debug log.">
<polygon fill="white" stroke="black" points="269.5,-228.5 269.5,-247.5 385.5,-247.5 385.5,-228.5 269.5,-228.5"/>
<text text-anchor="middle" x="327.5" y="-235.5" font-family="Helvetica,sans-Serif" font-size="10.00">boost::ui::log::debug</text>
</a>
</g>
</g>
<!-- Node1&#45;&gt;Node3 -->
<g id="edge2" class="edge">
<title>Node1&#45;&gt;Node3</title>
<path fill="none" stroke="midnightblue" d="M199.93,-142.46C212.38,-163.91 235.69,-198.9 265,-219 270.62,-222.86 277.06,-225.95 283.6,-228.43"/>
<polygon fill="midnightblue" stroke="midnightblue" points="202.94,-140.67 194.99,-133.66 196.83,-144.1 202.94,-140.67"/>
</g>
<!-- Node4 -->
<g id="node4" class="node">
<title>Node4</title>
<g id="a_node4"><a xlink:href="classboost_1_1ui_1_1log_1_1error.html" target="_top" xlink:title="Shows error dialog in idle time.">
<polygon fill="white" stroke="black" points="273,-190.5 273,-209.5 382,-209.5 382,-190.5 273,-190.5"/>
<text text-anchor="middle" x="327.5" y="-197.5" font-family="Helvetica,sans-Serif" font-size="10.00">boost::ui::log::error</text>
</a>
</g>
</g>
<!-- Node1&#45;&gt;Node4 -->
<g id="edge3" class="edge">
<title>Node1&#45;&gt;Node4</title>
<path fill="none" stroke="midnightblue" d="M208.04,-140.62C222.52,-153.21 243.84,-170.13 265,-181 272.26,-184.73 280.37,-187.88 288.27,-190.47"/>
<polygon fill="midnightblue" stroke="midnightblue" points="210.16,-137.83 200.37,-133.79 205.51,-143.06 210.16,-137.83"/>
</g>
<!-- Node5 -->
<g id="node5" class="node">
<title>Node5</title>
<g id="a_node5"><a xlink:href="classboost_1_1ui_1_1log_1_1fatal.html" target="_top" xlink:title="Shows error and abort immediately.">
<polygon fill="white" stroke="black" points="273.5,-152.5 273.5,-171.5 381.5,-171.5 381.5,-152.5 273.5,-152.5"/>
<text text-anchor="middle" x="327.5" y="-159.5" font-family="Helvetica,sans-Serif" font-size="10.00">boost::ui::log::fatal</text>
</a>
</g>
</g>
<!-- Node1&#45;&gt;Node5 -->
<g id="edge4" class="edge">
<title>Node1&#45;&gt;Node5</title>
<path fill="none" stroke="midnightblue" d="M234.25,-136.32C253,-141.54 274.53,-147.53 292.07,-152.41"/>
<polygon fill="midnightblue" stroke="midnightblue" points="235.02,-132.9 224.44,-133.59 233.14,-139.64 235.02,-132.9"/>
</g>
<!-- Node6 -->
<g id="node6" class="node">
<title>Node6</title>
<g id="a_node6"><a xlink:href="classboost_1_1ui_1_1log_1_1info.html" target="_top" xlink:title="Shows information dialog in idle time.">
<polygon fill="white" stroke="black" points="275.5,-114.5 275.5,-133.5 379.5,-133.5 379.5,-114.5 275.5,-114.5"/>
<text text-anchor="middle" x="327.5" y="-121.5" font-family="Helvetica,sans-Serif" font-size="10.00">boost::ui::log::info</text>
</a>
</g>
</g>
<!-- Node1&#45;&gt;Node6 -->
<g id="edge5" class="edge">
<title>Node1&#45;&gt;Node6</title>
<path fill="none" stroke="midnightblue" d="M239.2,-124C250.97,-124 263.55,-124 275.4,-124"/>
<polygon fill="midnightblue" stroke="midnightblue" points="239.12,-120.5 229.12,-124 239.12,-127.5 239.12,-120.5"/>
</g>
<!-- Node7 -->
<g id="node7" class="node">
<title>Node7</title>
<g id="a_node7"><a xlink:href="classboost_1_1ui_1_1log_1_1trace.html" target="_top" xlink:title="Shows information in debug log.">
<polygon fill="white" stroke="black" points="272.5,-76.5 272.5,-95.5 382.5,-95.5 382.5,-76.5 272.5,-76.5"/>
<text text-anchor="middle" x="327.5" y="-83.5" font-family="Helvetica,sans-Serif" font-size="10.00">boost::ui::log::trace</text>
</a>
</g>
</g>
<!-- Node1&#45;&gt;Node7 -->
<g id="edge6" class="edge">
<title>Node1&#45;&gt;Node7</title>
<path fill="none" stroke="midnightblue" d="M234.25,-111.68C253,-106.46 274.53,-100.47 292.07,-95.59"/>
<polygon fill="midnightblue" stroke="midnightblue" points="233.14,-108.36 224.44,-114.41 235.02,-115.1 233.14,-108.36"/>
</g>
<!-- Node8 -->
<g id="node8" class="node">
<title>Node8</title>
<g id="a_node8"><a xlink:href="classboost_1_1ui_1_1log_1_1verbose.html" target="_top" xlink:title="Shows verbose information if application was started with –verbose option.">
<polygon fill="white" stroke="black" points="265,-38.5 265,-57.5 390,-57.5 390,-38.5 265,-38.5"/>
<text text-anchor="middle" x="327.5" y="-45.5" font-family="Helvetica,sans-Serif" font-size="10.00">boost::ui::log::verbose</text>
</a>
</g>
</g>
<!-- Node1&#45;&gt;Node8 -->
<g id="edge7" class="edge">
<title>Node1&#45;&gt;Node8</title>
<path fill="none" stroke="midnightblue" d="M208.04,-107.38C222.52,-94.79 243.84,-77.87 265,-67 272.26,-63.27 280.37,-60.12 288.27,-57.53"/>
<polygon fill="midnightblue" stroke="midnightblue" points="205.51,-104.94 200.37,-114.21 210.16,-110.17 205.51,-104.94"/>
</g>
<!-- Node9 -->
<g id="node9" class="node">
<title>Node9</title>
<g id="a_node9"><a xlink:href="classboost_1_1ui_1_1log_1_1warning.html" target="_top" xlink:title="Shows warning dialog in idle time.">
<polygon fill="white" stroke="black" points="265,-0.5 265,-19.5 390,-19.5 390,-0.5 265,-0.5"/>
<text text-anchor="middle" x="327.5" y="-7.5" font-family="Helvetica,sans-Serif" font-size="10.00">boost::ui::log::warning</text>
</a>
</g>
</g>
<!-- Node1&#45;&gt;Node9 -->
<g id="edge8" class="edge">
<title>Node1&#45;&gt;Node9</title>
<path fill="none" stroke="midnightblue" d="M199.93,-105.54C212.38,-84.09 235.69,-49.1 265,-29 270.62,-25.14 277.06,-22.05 283.6,-19.57"/>
<polygon fill="midnightblue" stroke="midnightblue" points="196.83,-103.9 194.99,-114.34 202.94,-107.33 196.83,-103.9"/>
</g>
<!-- Node2 -->
<g id="node2" class="node">
<title>Node2</title>
<g id="a_node2"><a xlink:href="classboost_1_1ui_1_1log__string.html" target="_top" xlink:title="Logging stream class with output into provided uistring.">
<polygon fill="white" stroke="black" points="0,-114.5 0,-133.5 113,-133.5 113,-114.5 0,-114.5"/>
<text text-anchor="middle" x="56.5" y="-121.5" font-family="Helvetica,sans-Serif" font-size="10.00">boost::ui::log_string</text>
</a>
</g>
</g>
<!-- Node2&#45;&gt;Node1 -->
<g id="edge1" class="edge">
<title>Node2&#45;&gt;Node1</title>
<path fill="none" stroke="midnightblue" d="M123.34,-124C131.99,-124 140.62,-124 148.63,-124"/>
<polygon fill="midnightblue" stroke="midnightblue" points="123.22,-120.5 113.22,-124 123.22,-127.5 123.22,-120.5"/>
</g>
</g>
</svg>
