<?xml version="1.0" encoding="UTF-8" standalone="no"?>
<!DOCTYPE svg PUBLIC "-//W3C//DTD SVG 1.1//EN"
 "http://www.w3.org/Graphics/SVG/1.1/DTD/svg11.dtd">
<!-- Generated by graphviz version 2.43.0 (0)
 -->
<!-- Title: boost::ui::check_box Pages: 1 -->
<svg width="153pt" height="140pt"
 viewBox="0.00 0.00 153.00 140.00" xmlns="http://www.w3.org/2000/svg" xmlns:xlink="http://www.w3.org/1999/xlink">
<g id="graph0" class="graph" transform="scale(1 1) rotate(0) translate(4 136)">
<title>boost::ui::check_box</title>
<polygon fill="white" stroke="transparent" points="-4,4 -4,-136 149,-136 149,4 -4,4"/>
<!-- Node1 -->
<g id="node1" class="node">
<title>Node1</title>
<g id="a_node1"><a xlink:title="Labelled widget that that permits the user to make a binary choice.">
<polygon fill="#bfbfbf" stroke="black" points="14.5,-0.5 14.5,-19.5 130.5,-19.5 130.5,-0.5 14.5,-0.5"/>
<text text-anchor="middle" x="72.5" y="-7.5" font-family="Helvetica,sans-Serif" font-size="10.00">boost::ui::check_box</text>
</a>
</g>
</g>
<!-- Node2 -->
<g id="node2" class="node">
<title>Node2</title>
<g id="a_node2"><a xlink:href="classboost_1_1ui_1_1check__box__base.html" target="_top" xlink:title="Check box base class.">
<polygon fill="white" stroke="black" points="0,-56.5 0,-75.5 145,-75.5 145,-56.5 0,-56.5"/>
<text text-anchor="middle" x="72.5" y="-63.5" font-family="Helvetica,sans-Serif" font-size="10.00">boost::ui::check_box_base</text>
</a>
</g>
</g>
<!-- Node2&#45;&gt;Node1 -->
<g id="edge1" class="edge">
<title>Node2&#45;&gt;Node1</title>
<path fill="none" stroke="midnightblue" d="M72.5,-45.8C72.5,-36.91 72.5,-26.78 72.5,-19.75"/>
<polygon fill="midnightblue" stroke="midnightblue" points="69,-46.08 72.5,-56.08 76,-46.08 69,-46.08"/>
</g>
<!-- Node3 -->
<g id="node3" class="node">
<title>Node3</title>
<g id="a_node3"><a xlink:href="classboost_1_1ui_1_1widget.html" target="_top" xlink:title="Base class for all widgets.">
<polygon fill="white" stroke="black" points="23.5,-112.5 23.5,-131.5 121.5,-131.5 121.5,-112.5 23.5,-112.5"/>
<text text-anchor="middle" x="72.5" y="-119.5" font-family="Helvetica,sans-Serif" font-size="10.00">boost::ui::widget</text>
</a>
</g>
</g>
<!-- Node3&#45;&gt;Node2 -->
<g id="edge2" class="edge">
<title>Node3&#45;&gt;Node2</title>
<path fill="none" stroke="midnightblue" d="M72.5,-101.8C72.5,-92.91 72.5,-82.78 72.5,-75.75"/>
<polygon fill="midnightblue" stroke="midnightblue" points="69,-102.08 72.5,-112.08 76,-102.08 69,-102.08"/>
</g>
</g>
</svg>
