<?xml version="1.0" encoding="UTF-8" standalone="no"?>
<!DOCTYPE svg PUBLIC "-//W3C//DTD SVG 1.1//EN"
 "http://www.w3.org/Graphics/SVG/1.1/DTD/svg11.dtd">
<!-- Generated by graphviz version 2.43.0 (0)
 -->
<!-- Title: boost::ui::key_event Pages: 1 -->
<svg width="228pt" height="95pt"
 viewBox="0.00 0.00 228.00 95.00" xmlns="http://www.w3.org/2000/svg" xmlns:xlink="http://www.w3.org/1999/xlink">
<g id="graph0" class="graph" transform="scale(1 1) rotate(0) translate(4 91)">
<title>boost::ui::key_event</title>
<polygon fill="white" stroke="transparent" points="-4,4 -4,-91 224,-91 224,4 -4,4"/>
<!-- Node1 -->
<g id="node1" class="node">
<title>Node1</title>
<g id="a_node1"><a xlink:title="Keyboard event class that holds information about keyboard when event was generated.">
<polygon fill="#bfbfbf" stroke="black" points="47.5,-0.5 47.5,-19.5 162.5,-19.5 162.5,-0.5 47.5,-0.5"/>
<text text-anchor="middle" x="105" y="-7.5" font-family="Helvetica,sans-Serif" font-size="10.00">boost::ui::key_event</text>
</a>
</g>
</g>
<!-- Node2 -->
<g id="node2" class="node">
<title>Node2</title>
<g id="a_node2"><a xlink:href="classboost_1_1ui_1_1event.html" target="_top" xlink:title="Base class for all events.">
<polygon fill="white" stroke="black" points="0,-62 0,-81 92,-81 92,-62 0,-62"/>
<text text-anchor="middle" x="46" y="-69" font-family="Helvetica,sans-Serif" font-size="10.00">boost::ui::event</text>
</a>
</g>
</g>
<!-- Node2&#45;&gt;Node1 -->
<g id="edge1" class="edge">
<title>Node2&#45;&gt;Node1</title>
<path fill="none" stroke="midnightblue" d="M61.54,-54.82C72.75,-43.52 87.46,-28.69 96.56,-19.51"/>
<polygon fill="midnightblue" stroke="midnightblue" points="59.01,-52.41 54.45,-61.98 63.98,-57.34 59.01,-52.41"/>
</g>
<!-- Node3 -->
<g id="node3" class="node">
<title>Node3</title>
<g id="a_node3"><a xlink:href="classboost_1_1ui_1_1keyboard__state.html" target="_top" xlink:title="Keyboard state class.">
<polygon fill="white" stroke="black" points="110,-56.5 110,-86.5 220,-86.5 220,-56.5 110,-56.5"/>
<text text-anchor="start" x="118" y="-74.5" font-family="Helvetica,sans-Serif" font-size="10.00">boost::ui::keyboard</text>
<text text-anchor="middle" x="165" y="-63.5" font-family="Helvetica,sans-Serif" font-size="10.00">_state</text>
</a>
</g>
</g>
<!-- Node3&#45;&gt;Node1 -->
<g id="edge2" class="edge">
<title>Node3&#45;&gt;Node1</title>
<path fill="none" stroke="midnightblue" d="M143.62,-49.3C133.32,-39.09 121.55,-27.41 113.73,-19.66"/>
<polygon fill="midnightblue" stroke="midnightblue" points="141.22,-51.84 150.78,-56.4 146.14,-46.87 141.22,-51.84"/>
</g>
</g>
</svg>
