<?xml version="1.0" encoding="UTF-8" standalone="no"?>
<!DOCTYPE svg PUBLIC "-//W3C//DTD SVG 1.1//EN"
 "http://www.w3.org/Graphics/SVG/1.1/DTD/svg11.dtd">
<!-- Generated by graphviz version 2.43.0 (0)
 -->
<!-- Title: boost::ui::tri_state_check_box Pages: 1 -->
<svg width="153pt" height="151pt"
 viewBox="0.00 0.00 153.00 151.00" xmlns="http://www.w3.org/2000/svg" xmlns:xlink="http://www.w3.org/1999/xlink">
<g id="graph0" class="graph" transform="scale(1 1) rotate(0) translate(4 147)">
<title>boost::ui::tri_state_check_box</title>
<polygon fill="white" stroke="transparent" points="-4,4 -4,-147 149,-147 149,4 -4,4"/>
<!-- Node1 -->
<g id="node1" class="node">
<title>Node1</title>
<g id="a_node1"><a xlink:title="Labelled widget that that permits the user to make a ternary choice.">
<polygon fill="#bfbfbf" stroke="black" points="20,-0.5 20,-30.5 125,-30.5 125,-0.5 20,-0.5"/>
<text text-anchor="start" x="28" y="-18.5" font-family="Helvetica,sans-Serif" font-size="10.00">boost::ui::tri_state</text>
<text text-anchor="middle" x="72.5" y="-7.5" font-family="Helvetica,sans-Serif" font-size="10.00">_check_box</text>
</a>
</g>
</g>
<!-- Node2 -->
<g id="node2" class="node">
<title>Node2</title>
<g id="a_node2"><a xlink:href="classboost_1_1ui_1_1check__box__base.html" target="_top" xlink:title="Check box base class.">
<polygon fill="white" stroke="black" points="0,-67.5 0,-86.5 145,-86.5 145,-67.5 0,-67.5"/>
<text text-anchor="middle" x="72.5" y="-74.5" font-family="Helvetica,sans-Serif" font-size="10.00">boost::ui::check_box_base</text>
</a>
</g>
</g>
<!-- Node2&#45;&gt;Node1 -->
<g id="edge1" class="edge">
<title>Node2&#45;&gt;Node1</title>
<path fill="none" stroke="midnightblue" d="M72.5,-57.23C72.5,-48.59 72.5,-38.5 72.5,-30.52"/>
<polygon fill="midnightblue" stroke="midnightblue" points="69,-57.48 72.5,-67.48 76,-57.48 69,-57.48"/>
</g>
<!-- Node3 -->
<g id="node3" class="node">
<title>Node3</title>
<g id="a_node3"><a xlink:href="classboost_1_1ui_1_1widget.html" target="_top" xlink:title="Base class for all widgets.">
<polygon fill="white" stroke="black" points="23.5,-123.5 23.5,-142.5 121.5,-142.5 121.5,-123.5 23.5,-123.5"/>
<text text-anchor="middle" x="72.5" y="-130.5" font-family="Helvetica,sans-Serif" font-size="10.00">boost::ui::widget</text>
</a>
</g>
</g>
<!-- Node3&#45;&gt;Node2 -->
<g id="edge2" class="edge">
<title>Node3&#45;&gt;Node2</title>
<path fill="none" stroke="midnightblue" d="M72.5,-112.8C72.5,-103.91 72.5,-93.78 72.5,-86.75"/>
<polygon fill="midnightblue" stroke="midnightblue" points="69,-113.08 72.5,-123.08 76,-113.08 69,-113.08"/>
</g>
</g>
</svg>
