<?xml version="1.0" encoding="UTF-8" standalone="no"?>
<!DOCTYPE svg PUBLIC "-//W3C//DTD SVG 1.1//EN"
 "http://www.w3.org/Graphics/SVG/1.1/DTD/svg11.dtd">
<!-- Generated by graphviz version 2.38.0 (20140413.2041)
 -->
<!-- Title: boost::ui::basic_rect&lt; T &gt; Pages: 1 -->
<svg width="309pt" height="72pt"
 viewBox="0.00 0.00 309.00 72.00" xmlns="http://www.w3.org/2000/svg" xmlns:xlink="http://www.w3.org/1999/xlink">
<g id="graph0" class="graph" transform="scale(1 1) rotate(0) translate(4 68)">
<title>boost::ui::basic_rect&lt; T &gt;</title>
<polygon fill="white" stroke="none" points="-4,4 -4,-68 305,-68 305,4 -4,4"/>
<!-- Node1 -->
<g id="node1" class="node"><title>Node1</title>
<polygon fill="#bfbfbf" stroke="black" points="172,-22.5 172,-41.5 301,-41.5 301,-22.5 172,-22.5"/>
<text text-anchor="middle" x="236.5" y="-29.5" font-family="Helvetica,sans-Serif" font-size="10.00">boost::ui::basic_rect&lt; T &gt;</text>
</g>
<!-- Node2 -->
<g id="node2" class="node"><title>Node2</title>
<polygon fill="white" stroke="#bfbfbf" points="0,-0.5 0,-63.5 136,-63.5 136,-0.5 0,-0.5"/>
<text text-anchor="start" x="8" y="-51.5" font-family="Helvetica,sans-Serif" font-size="10.00">boost::geometry::model</text>
<text text-anchor="start" x="8" y="-40.5" font-family="Helvetica,sans-Serif" font-size="10.00">::box&lt; ::boost::geometry</text>
<text text-anchor="start" x="8" y="-29.5" font-family="Helvetica,sans-Serif" font-size="10.00">::model::d2::point_xy&lt; T</text>
<text text-anchor="start" x="8" y="-18.5" font-family="Helvetica,sans-Serif" font-size="10.00"> &gt; &gt; public ::boost::polygon</text>
<text text-anchor="middle" x="68" y="-7.5" font-family="Helvetica,sans-Serif" font-size="10.00">::rectangle_data&lt; T &gt;</text>
</g>
<!-- Node2&#45;&gt;Node1 -->
<g id="edge1" class="edge"><title>Node2&#45;&gt;Node1</title>
<path fill="none" stroke="midnightblue" d="M146.504,-32C154.968,-32 163.512,-32 171.783,-32"/>
<polygon fill="midnightblue" stroke="midnightblue" points="146.242,-28.5001 136.242,-32 146.242,-35.5001 146.242,-28.5001"/>
</g>
</g>
</svg>
