<?xml version="1.0" encoding="UTF-8" standalone="no"?>
<!DOCTYPE svg PUBLIC "-//W3C//DTD SVG 1.1//EN"
 "http://www.w3.org/Graphics/SVG/1.1/DTD/svg11.dtd">
<!-- Generated by graphviz version 2.38.0 (20140413.2041)
 -->
<!-- Title: boost::ui::widget Pages: 1 -->
<svg width="415pt" height="788pt"
 viewBox="0.00 0.00 415.00 788.00" xmlns="http://www.w3.org/2000/svg" xmlns:xlink="http://www.w3.org/1999/xlink">
<g id="graph0" class="graph" transform="scale(1 1) rotate(0) translate(4 784)">
<title>boost::ui::widget</title>
<polygon fill="white" stroke="none" points="-4,4 -4,-784 411,-784 411,4 -4,4"/>
<!-- Node1 -->
<g id="node1" class="node"><title>Node1</title>
<polygon fill="#bfbfbf" stroke="black" points="0,-418.5 0,-437.5 89,-437.5 89,-418.5 0,-418.5"/>
<text text-anchor="middle" x="44.5" y="-425.5" font-family="Helvetica,sans-Serif" font-size="10.00">boost::ui::widget</text>
</g>
<!-- Node2 -->
<g id="node2" class="node"><title>Node2</title>
<g id="a_node2"><a xlink:href="classboost_1_1ui_1_1button.html" target="_top" xlink:title="Widget with label that generate event when clicked on. ">
<polygon fill="white" stroke="black" points="145.5,-760.5 145.5,-779.5 232.5,-779.5 232.5,-760.5 145.5,-760.5"/>
<text text-anchor="middle" x="189" y="-767.5" font-family="Helvetica,sans-Serif" font-size="10.00">boost::ui::button</text>
</a>
</g>
</g>
<!-- Node1&#45;&gt;Node2 -->
<g id="edge1" class="edge"><title>Node1&#45;&gt;Node2</title>
<path fill="none" stroke="midnightblue" d="M47.8139,-447.878C55.5593,-511.138 82.5072,-706.257 125,-751 130.507,-756.799 137.713,-760.847 145.276,-763.668"/>
<polygon fill="midnightblue" stroke="midnightblue" points="51.2554,-447.179 46.5917,-437.666 44.305,-448.011 51.2554,-447.179"/>
</g>
<!-- Node3 -->
<g id="node3" class="node"><title>Node3</title>
<g id="a_node3"><a xlink:href="classboost_1_1ui_1_1canvas.html" target="_top" xlink:title="Widget for drawing. ">
<polygon fill="white" stroke="black" points="143,-722.5 143,-741.5 235,-741.5 235,-722.5 143,-722.5"/>
<text text-anchor="middle" x="189" y="-729.5" font-family="Helvetica,sans-Serif" font-size="10.00">boost::ui::canvas</text>
</a>
</g>
</g>
<!-- Node1&#45;&gt;Node3 -->
<g id="edge2" class="edge"><title>Node1&#45;&gt;Node3</title>
<path fill="none" stroke="midnightblue" d="M44.9399,-447.772C44.6049,-499.024 50.987,-637.425 125,-713 129.956,-718.06 136.206,-721.784 142.834,-724.522"/>
<polygon fill="midnightblue" stroke="midnightblue" points="48.4405,-447.76 45.1048,-437.704 41.4414,-447.645 48.4405,-447.76"/>
</g>
<!-- Node4 -->
<g id="node4" class="node"><title>Node4</title>
<g id="a_node4"><a xlink:href="classboost_1_1ui_1_1checkbox__base.html" target="_top" xlink:title="Checkbox base class. ">
<polygon fill="white" stroke="black" points="125,-684.5 125,-703.5 253,-703.5 253,-684.5 125,-684.5"/>
<text text-anchor="middle" x="189" y="-691.5" font-family="Helvetica,sans-Serif" font-size="10.00">boost::ui::checkbox_base</text>
</a>
</g>
</g>
<!-- Node1&#45;&gt;Node4 -->
<g id="edge3" class="edge"><title>Node1&#45;&gt;Node4</title>
<path fill="none" stroke="midnightblue" d="M45.9551,-447.9C48.1194,-494.446 60.0983,-611.287 125,-675 128.913,-678.841 133.574,-681.91 138.564,-684.361"/>
<polygon fill="midnightblue" stroke="midnightblue" points="49.4441,-447.525 45.5901,-437.656 42.4485,-447.775 49.4441,-447.525"/>
</g>
<!-- Node7 -->
<g id="node7" class="node"><title>Node7</title>
<g id="a_node7"><a xlink:href="classboost_1_1ui_1_1date__picker.html" target="_top" xlink:title="Date picker widget. ">
<polygon fill="white" stroke="black" points="134,-646.5 134,-665.5 244,-665.5 244,-646.5 134,-646.5"/>
<text text-anchor="middle" x="189" y="-653.5" font-family="Helvetica,sans-Serif" font-size="10.00">boost::ui::date_picker</text>
</a>
</g>
</g>
<!-- Node1&#45;&gt;Node7 -->
<g id="edge6" class="edge"><title>Node1&#45;&gt;Node7</title>
<path fill="none" stroke="midnightblue" d="M47.274,-447.604C52.0566,-488.778 68.9239,-584.748 125,-637 129.179,-640.894 134.129,-643.992 139.389,-646.456"/>
<polygon fill="midnightblue" stroke="midnightblue" points="50.7414,-447.109 46.2229,-437.526 43.7792,-447.835 50.7414,-447.109"/>
</g>
<!-- Node8 -->
<g id="node8" class="node"><title>Node8</title>
<g id="a_node8"><a xlink:href="classboost_1_1ui_1_1groupbox.html" target="_top" xlink:title="Widget that groups other widgets using a frame and a title. ">
<polygon fill="white" stroke="black" points="139,-608.5 139,-627.5 239,-627.5 239,-608.5 139,-608.5"/>
<text text-anchor="middle" x="189" y="-615.5" font-family="Helvetica,sans-Serif" font-size="10.00">boost::ui::groupbox</text>
</a>
</g>
</g>
<!-- Node1&#45;&gt;Node8 -->
<g id="edge7" class="edge"><title>Node1&#45;&gt;Node8</title>
<path fill="none" stroke="midnightblue" d="M49.208,-447.89C56.8864,-483.486 77.9023,-558.168 125,-599 129.489,-602.891 134.753,-605.986 140.293,-608.447"/>
<polygon fill="midnightblue" stroke="midnightblue" points="52.5801,-446.907 47.1675,-437.799 45.7189,-448.294 52.5801,-446.907"/>
</g>
<!-- Node9 -->
<g id="node9" class="node"><title>Node9</title>
<g id="a_node9"><a xlink:href="classboost_1_1ui_1_1hyperlink.html" target="_top" xlink:title="Widget that displays static text which links to an URL. ">
<polygon fill="white" stroke="black" points="139.5,-570.5 139.5,-589.5 238.5,-589.5 238.5,-570.5 139.5,-570.5"/>
<text text-anchor="middle" x="189" y="-577.5" font-family="Helvetica,sans-Serif" font-size="10.00">boost::ui::hyperlink</text>
</a>
</g>
</g>
<!-- Node1&#45;&gt;Node9 -->
<g id="edge8" class="edge"><title>Node1&#45;&gt;Node9</title>
<path fill="none" stroke="midnightblue" d="M51.9502,-447.472C62.5591,-476.501 86.4439,-530.923 125,-561 129.954,-564.865 135.688,-567.946 141.637,-570.401"/>
<polygon fill="midnightblue" stroke="midnightblue" points="55.1356,-445.978 48.5313,-437.694 48.5279,-448.289 55.1356,-445.978"/>
</g>
<!-- Node10 -->
<g id="node10" class="node"><title>Node10</title>
<g id="a_node10"><a xlink:href="classboost_1_1ui_1_1image__widget.html" target="_top" xlink:title="Widget that displays image. ">
<polygon fill="white" stroke="black" points="129,-532.5 129,-551.5 249,-551.5 249,-532.5 129,-532.5"/>
<text text-anchor="middle" x="189" y="-539.5" font-family="Helvetica,sans-Serif" font-size="10.00">boost::ui::image_widget</text>
</a>
</g>
</g>
<!-- Node1&#45;&gt;Node10 -->
<g id="edge9" class="edge"><title>Node1&#45;&gt;Node10</title>
<path fill="none" stroke="midnightblue" d="M56.2706,-446.482C69.7066,-467.947 94.649,-502.965 125,-523 130.816,-526.839 137.437,-529.927 144.15,-532.405"/>
<polygon fill="midnightblue" stroke="midnightblue" points="59.1077,-444.411 50.9288,-437.676 53.1228,-448.041 59.1077,-444.411"/>
</g>
<!-- Node11 -->
<g id="node11" class="node"><title>Node11</title>
<g id="a_node11"><a xlink:href="classboost_1_1ui_1_1label.html" target="_top" xlink:title="Widget that displays static text. ">
<polygon fill="white" stroke="black" points="149,-494.5 149,-513.5 229,-513.5 229,-494.5 149,-494.5"/>
<text text-anchor="middle" x="189" y="-501.5" font-family="Helvetica,sans-Serif" font-size="10.00">boost::ui::label</text>
</a>
</g>
</g>
<!-- Node1&#45;&gt;Node11 -->
<g id="edge10" class="edge"><title>Node1&#45;&gt;Node11</title>
<path fill="none" stroke="midnightblue" d="M64.0766,-444.035C79.509,-456.662 102.502,-473.924 125,-485 132.482,-488.683 140.82,-491.811 148.917,-494.401"/>
<polygon fill="midnightblue" stroke="midnightblue" points="66.2505,-441.291 56.3321,-437.566 61.7627,-446.663 66.2505,-441.291"/>
</g>
<!-- Node12 -->
<g id="node12" class="node"><title>Node12</title>
<g id="a_node12"><a xlink:href="classboost_1_1ui_1_1line__widget.html" target="_top" xlink:title="Abstract widget that displays horizontal or vertical line. ">
<polygon fill="white" stroke="black" points="134.5,-456.5 134.5,-475.5 243.5,-475.5 243.5,-456.5 134.5,-456.5"/>
<text text-anchor="middle" x="189" y="-463.5" font-family="Helvetica,sans-Serif" font-size="10.00">boost::ui::line_widget</text>
</a>
</g>
</g>
<!-- Node1&#45;&gt;Node12 -->
<g id="edge11" class="edge"><title>Node1&#45;&gt;Node12</title>
<path fill="none" stroke="midnightblue" d="M91.1531,-440.174C110.858,-445.429 133.575,-451.487 152.053,-456.414"/>
<polygon fill="midnightblue" stroke="midnightblue" points="92.023,-436.784 81.4588,-437.589 90.2193,-443.548 92.023,-436.784"/>
</g>
<!-- Node15 -->
<g id="node15" class="node"><title>Node15</title>
<g id="a_node15"><a xlink:href="classboost_1_1ui_1_1native__widget.html" target="_top" xlink:title="Widget that wraps previously created native widget. ">
<polygon fill="white" stroke="black" points="129,-418.5 129,-437.5 249,-437.5 249,-418.5 129,-418.5"/>
<text text-anchor="middle" x="189" y="-425.5" font-family="Helvetica,sans-Serif" font-size="10.00">boost::ui::native_widget</text>
</a>
</g>
</g>
<!-- Node1&#45;&gt;Node15 -->
<g id="edge14" class="edge"><title>Node1&#45;&gt;Node15</title>
<path fill="none" stroke="midnightblue" d="M99.3268,-428C109.017,-428 119.164,-428 128.992,-428"/>
<polygon fill="midnightblue" stroke="midnightblue" points="99.029,-424.5 89.029,-428 99.029,-431.5 99.029,-424.5"/>
</g>
<!-- Node16 -->
<g id="node16" class="node"><title>Node16</title>
<g id="a_node16"><a xlink:href="classboost_1_1ui_1_1notebook.html" target="_top" xlink:title="Widget that is an array of tabbed widgets. ">
<polygon fill="white" stroke="black" points="139,-380.5 139,-399.5 239,-399.5 239,-380.5 139,-380.5"/>
<text text-anchor="middle" x="189" y="-387.5" font-family="Helvetica,sans-Serif" font-size="10.00">boost::ui::notebook</text>
</a>
</g>
</g>
<!-- Node1&#45;&gt;Node16 -->
<g id="edge15" class="edge"><title>Node1&#45;&gt;Node16</title>
<path fill="none" stroke="midnightblue" d="M91.1531,-415.826C110.858,-410.571 133.575,-404.513 152.053,-399.586"/>
<polygon fill="midnightblue" stroke="midnightblue" points="90.2193,-412.452 81.4588,-418.411 92.023,-419.216 90.2193,-412.452"/>
</g>
<!-- Node17 -->
<g id="node17" class="node"><title>Node17</title>
<g id="a_node17"><a xlink:href="classboost_1_1ui_1_1panel.html" target="_top" xlink:title="Widget that hosts other widgets. ">
<polygon fill="white" stroke="black" points="147.5,-342.5 147.5,-361.5 230.5,-361.5 230.5,-342.5 147.5,-342.5"/>
<text text-anchor="middle" x="189" y="-349.5" font-family="Helvetica,sans-Serif" font-size="10.00">boost::ui::panel</text>
</a>
</g>
</g>
<!-- Node1&#45;&gt;Node17 -->
<g id="edge16" class="edge"><title>Node1&#45;&gt;Node17</title>
<path fill="none" stroke="midnightblue" d="M64.0766,-411.965C79.509,-399.338 102.502,-382.076 125,-371 132.482,-367.317 140.82,-364.189 148.917,-361.599"/>
<polygon fill="midnightblue" stroke="midnightblue" points="61.7627,-409.337 56.3321,-418.434 66.2505,-414.709 61.7627,-409.337"/>
</g>
<!-- Node18 -->
<g id="node18" class="node"><title>Node18</title>
<g id="a_node18"><a xlink:href="classboost_1_1ui_1_1progressbar.html" target="_top" xlink:title="Progress bar widget base class. ">
<polygon fill="white" stroke="black" points="133.5,-304.5 133.5,-323.5 244.5,-323.5 244.5,-304.5 133.5,-304.5"/>
<text text-anchor="middle" x="189" y="-311.5" font-family="Helvetica,sans-Serif" font-size="10.00">boost::ui::progressbar</text>
</a>
</g>
</g>
<!-- Node1&#45;&gt;Node18 -->
<g id="edge17" class="edge"><title>Node1&#45;&gt;Node18</title>
<path fill="none" stroke="midnightblue" d="M56.2706,-409.518C69.7066,-388.053 94.649,-353.035 125,-333 130.816,-329.161 137.437,-326.073 144.15,-323.595"/>
<polygon fill="midnightblue" stroke="midnightblue" points="53.1228,-407.959 50.9288,-418.324 59.1077,-411.589 53.1228,-407.959"/>
</g>
<!-- Node21 -->
<g id="node21" class="node"><title>Node21</title>
<g id="a_node21"><a xlink:href="classboost_1_1ui_1_1slider.html" target="_top" xlink:title="Slider widget base class. ">
<polygon fill="white" stroke="black" points="147.5,-266.5 147.5,-285.5 230.5,-285.5 230.5,-266.5 147.5,-266.5"/>
<text text-anchor="middle" x="189" y="-273.5" font-family="Helvetica,sans-Serif" font-size="10.00">boost::ui::slider</text>
</a>
</g>
</g>
<!-- Node1&#45;&gt;Node21 -->
<g id="edge20" class="edge"><title>Node1&#45;&gt;Node21</title>
<path fill="none" stroke="midnightblue" d="M51.9502,-408.528C62.5591,-379.499 86.4439,-325.077 125,-295 131.485,-289.941 139.306,-286.225 147.198,-283.496"/>
<polygon fill="midnightblue" stroke="midnightblue" points="48.5279,-407.711 48.5313,-418.306 55.1356,-410.022 48.5279,-407.711"/>
</g>
<!-- Node24 -->
<g id="node24" class="node"><title>Node24</title>
<g id="a_node24"><a xlink:href="classboost_1_1ui_1_1stringsbox.html" target="_top" xlink:title="Abstract widget that holds array of strings. ">
<polygon fill="white" stroke="black" points="136.5,-228.5 136.5,-247.5 241.5,-247.5 241.5,-228.5 136.5,-228.5"/>
<text text-anchor="middle" x="189" y="-235.5" font-family="Helvetica,sans-Serif" font-size="10.00">boost::ui::stringsbox</text>
</a>
</g>
</g>
<!-- Node1&#45;&gt;Node24 -->
<g id="edge23" class="edge"><title>Node1&#45;&gt;Node24</title>
<path fill="none" stroke="midnightblue" d="M49.208,-408.11C56.8864,-372.514 77.9023,-297.832 125,-257 129.489,-253.109 134.753,-250.014 140.293,-247.553"/>
<polygon fill="midnightblue" stroke="midnightblue" points="45.7189,-407.706 47.1675,-418.201 52.5801,-409.093 45.7189,-407.706"/>
</g>
<!-- Node28 -->
<g id="node28" class="node"><title>Node28</title>
<g id="a_node28"><a xlink:href="classboost_1_1ui_1_1textbox__base.html" target="_top" xlink:title="Abstract text editor widget. ">
<polygon fill="white" stroke="black" points="129.5,-171.5 129.5,-190.5 248.5,-190.5 248.5,-171.5 129.5,-171.5"/>
<text text-anchor="middle" x="189" y="-178.5" font-family="Helvetica,sans-Serif" font-size="10.00">boost::ui::textbox_base</text>
</a>
</g>
</g>
<!-- Node1&#45;&gt;Node28 -->
<g id="edge27" class="edge"><title>Node1&#45;&gt;Node28</title>
<path fill="none" stroke="midnightblue" d="M48.6045,-408.07C55.7083,-368.134 76.4301,-277.163 125,-219 135.48,-206.451 151.23,-196.951 164.36,-190.588"/>
<polygon fill="midnightblue" stroke="midnightblue" points="45.1216,-407.677 46.9175,-418.118 52.025,-408.836 45.1216,-407.677"/>
</g>
<!-- Node32 -->
<g id="node32" class="node"><title>Node32</title>
<g id="a_node32"><a xlink:href="classboost_1_1ui_1_1time__picker.html" target="_top" xlink:title="Time picker widget. ">
<polygon fill="white" stroke="black" points="134,-133.5 134,-152.5 244,-152.5 244,-133.5 134,-133.5"/>
<text text-anchor="middle" x="189" y="-140.5" font-family="Helvetica,sans-Serif" font-size="10.00">boost::ui::time_picker</text>
</a>
</g>
</g>
<!-- Node1&#45;&gt;Node32 -->
<g id="edge31" class="edge"><title>Node1&#45;&gt;Node32</title>
<path fill="none" stroke="midnightblue" d="M45.4109,-408.247C46.2944,-359.362 55.5138,-231.659 125,-162 128.873,-158.118 133.508,-155.023 138.484,-152.558"/>
<polygon fill="midnightblue" stroke="midnightblue" points="41.9098,-408.387 45.3323,-418.414 48.9096,-408.441 41.9098,-408.387"/>
</g>
<!-- Node33 -->
<g id="node33" class="node"><title>Node33</title>
<g id="a_node33"><a xlink:href="classboost_1_1ui_1_1webview.html" target="_top" xlink:title="Widget that renders HTML. ">
<polygon fill="white" stroke="black" points="140,-95.5 140,-114.5 238,-114.5 238,-95.5 140,-95.5"/>
<text text-anchor="middle" x="189" y="-102.5" font-family="Helvetica,sans-Serif" font-size="10.00">boost::ui::webview</text>
</a>
</g>
</g>
<!-- Node1&#45;&gt;Node33 -->
<g id="edge32" class="edge"><title>Node1&#45;&gt;Node33</title>
<path fill="none" stroke="midnightblue" d="M48.1445,-408.108C56.6032,-347.336 84.8172,-165.703 125,-124 129.201,-119.64 134.363,-116.271 139.908,-113.669"/>
<polygon fill="midnightblue" stroke="midnightblue" points="44.6404,-407.902 46.7572,-418.283 51.5762,-408.847 44.6404,-407.902"/>
</g>
<!-- Node34 -->
<g id="node34" class="node"><title>Node34</title>
<g id="a_node34"><a xlink:href="classboost_1_1ui_1_1window.html" target="_top" xlink:title="Abstract top level widget that hosts other widgets. ">
<polygon fill="white" stroke="black" points="142.5,-38.5 142.5,-57.5 235.5,-57.5 235.5,-38.5 142.5,-38.5"/>
<text text-anchor="middle" x="189" y="-45.5" font-family="Helvetica,sans-Serif" font-size="10.00">boost::ui::window</text>
</a>
</g>
</g>
<!-- Node1&#45;&gt;Node34 -->
<g id="edge33" class="edge"><title>Node1&#45;&gt;Node34</title>
<path fill="none" stroke="midnightblue" d="M44.9845,-408.174C44.5117,-351.993 50.0798,-189.14 125,-86 134.384,-73.082 149.624,-63.7194 162.764,-57.5199"/>
<polygon fill="midnightblue" stroke="midnightblue" points="41.49,-408.542 45.1543,-418.483 48.4891,-408.427 41.49,-408.542"/>
</g>
<!-- Node5 -->
<g id="node5" class="node"><title>Node5</title>
<g id="a_node5"><a xlink:href="classboost_1_1ui_1_1checkbox.html" target="_top" xlink:title="Labelled widget that that permits the user to make a binary choice. ">
<polygon fill="white" stroke="black" points="297,-706.5 297,-725.5 399,-725.5 399,-706.5 297,-706.5"/>
<text text-anchor="middle" x="348" y="-713.5" font-family="Helvetica,sans-Serif" font-size="10.00">boost::ui::checkbox</text>
</a>
</g>
</g>
<!-- Node4&#45;&gt;Node5 -->
<g id="edge4" class="edge"><title>Node4&#45;&gt;Node5</title>
<path fill="none" stroke="midnightblue" d="M263.324,-704.275C274.681,-705.866 286.183,-707.478 296.874,-708.976"/>
<polygon fill="midnightblue" stroke="midnightblue" points="263.794,-700.806 253.405,-702.885 262.823,-707.739 263.794,-700.806"/>
</g>
<!-- Node6 -->
<g id="node6" class="node"><title>Node6</title>
<g id="a_node6"><a xlink:href="classboost_1_1ui_1_1tristate__checkbox.html" target="_top" xlink:title="Labelled widget that that permits the user to make a ternary choice. ">
<polygon fill="white" stroke="black" points="303,-657 303,-687 393,-687 393,-657 303,-657"/>
<text text-anchor="start" x="311" y="-675" font-family="Helvetica,sans-Serif" font-size="10.00">boost::ui::tristate</text>
<text text-anchor="middle" x="348" y="-664" font-family="Helvetica,sans-Serif" font-size="10.00">_checkbox</text>
</a>
</g>
</g>
<!-- Node4&#45;&gt;Node6 -->
<g id="edge5" class="edge"><title>Node4&#45;&gt;Node6</title>
<path fill="none" stroke="midnightblue" d="M263.555,-683.693C276.91,-681.821 290.457,-679.923 302.641,-678.216"/>
<polygon fill="midnightblue" stroke="midnightblue" points="262.823,-680.261 253.405,-685.115 263.794,-687.194 262.823,-680.261"/>
</g>
<!-- Node13 -->
<g id="node13" class="node"><title>Node13</title>
<g id="a_node13"><a xlink:href="classboost_1_1ui_1_1hline.html" target="_top" xlink:title="Horizontal line widget. ">
<polygon fill="white" stroke="black" points="308,-494.5 308,-513.5 388,-513.5 388,-494.5 308,-494.5"/>
<text text-anchor="middle" x="348" y="-501.5" font-family="Helvetica,sans-Serif" font-size="10.00">boost::ui::hline</text>
</a>
</g>
</g>
<!-- Node12&#45;&gt;Node13 -->
<g id="edge12" class="edge"><title>Node12&#45;&gt;Node13</title>
<path fill="none" stroke="midnightblue" d="M239.485,-477.977C261.574,-483.324 287.23,-489.533 307.939,-494.546"/>
<polygon fill="midnightblue" stroke="midnightblue" points="240.16,-474.54 229.618,-475.589 238.514,-481.343 240.16,-474.54"/>
</g>
<!-- Node14 -->
<g id="node14" class="node"><title>Node14</title>
<g id="a_node14"><a xlink:href="classboost_1_1ui_1_1vline.html" target="_top" xlink:title="Vertical line widget. ">
<polygon fill="white" stroke="black" points="308,-456.5 308,-475.5 388,-475.5 388,-456.5 308,-456.5"/>
<text text-anchor="middle" x="348" y="-463.5" font-family="Helvetica,sans-Serif" font-size="10.00">boost::ui::vline</text>
</a>
</g>
</g>
<!-- Node12&#45;&gt;Node14 -->
<g id="edge13" class="edge"><title>Node12&#45;&gt;Node14</title>
<path fill="none" stroke="midnightblue" d="M253.839,-466C272.009,-466 291.265,-466 307.525,-466"/>
<polygon fill="midnightblue" stroke="midnightblue" points="253.591,-462.5 243.591,-466 253.591,-469.5 253.591,-462.5"/>
</g>
<!-- Node19 -->
<g id="node19" class="node"><title>Node19</title>
<g id="a_node19"><a xlink:href="classboost_1_1ui_1_1hprogressbar.html" target="_top" xlink:title="Horizontal progress bar widget. ">
<polygon fill="white" stroke="black" points="290,-418.5 290,-437.5 406,-437.5 406,-418.5 290,-418.5"/>
<text text-anchor="middle" x="348" y="-425.5" font-family="Helvetica,sans-Serif" font-size="10.00">boost::ui::hprogressbar</text>
</a>
</g>
</g>
<!-- Node18&#45;&gt;Node19 -->
<g id="edge18" class="edge"><title>Node18&#45;&gt;Node19</title>
<path fill="none" stroke="midnightblue" d="M246.69,-328.354C248.913,-329.76 251.03,-331.305 253,-333 281.328,-357.382 260.962,-384.285 289,-409 293.372,-412.854 298.542,-415.928 303.966,-418.381"/>
<polygon fill="midnightblue" stroke="midnightblue" points="248.156,-325.17 237.681,-323.584 244.881,-331.357 248.156,-325.17"/>
</g>
<!-- Node20 -->
<g id="node20" class="node"><title>Node20</title>
<g id="a_node20"><a xlink:href="classboost_1_1ui_1_1vprogressbar.html" target="_top" xlink:title="Vertical progress bar widget. ">
<polygon fill="white" stroke="black" points="290,-380.5 290,-399.5 406,-399.5 406,-380.5 290,-380.5"/>
<text text-anchor="middle" x="348" y="-387.5" font-family="Helvetica,sans-Serif" font-size="10.00">boost::ui::vprogressbar</text>
</a>
</g>
</g>
<!-- Node18&#45;&gt;Node20 -->
<g id="edge19" class="edge"><title>Node18&#45;&gt;Node20</title>
<path fill="none" stroke="midnightblue" d="M242.181,-327.339C245.947,-329.021 249.597,-330.901 253,-333 272.801,-345.213 269.345,-358.554 289,-371 294.998,-374.798 301.829,-377.909 308.647,-380.434"/>
<polygon fill="midnightblue" stroke="midnightblue" points="243.241,-323.994 232.655,-323.554 240.656,-330.499 243.241,-323.994"/>
</g>
<!-- Node22 -->
<g id="node22" class="node"><title>Node22</title>
<g id="a_node22"><a xlink:href="classboost_1_1ui_1_1hslider.html" target="_top" xlink:title="Horizontal slider widget. ">
<polygon fill="white" stroke="black" points="303.5,-342.5 303.5,-361.5 392.5,-361.5 392.5,-342.5 303.5,-342.5"/>
<text text-anchor="middle" x="348" y="-349.5" font-family="Helvetica,sans-Serif" font-size="10.00">boost::ui::hslider</text>
</a>
</g>
</g>
<!-- Node21&#45;&gt;Node22 -->
<g id="edge21" class="edge"><title>Node21&#45;&gt;Node22</title>
<path fill="none" stroke="midnightblue" d="M240.051,-288.413C244.569,-290.323 248.959,-292.507 253,-295 272.801,-307.213 269.345,-320.554 289,-333 294.998,-336.798 301.829,-339.909 308.647,-342.434"/>
<polygon fill="midnightblue" stroke="midnightblue" points="241.257,-285.128 230.666,-284.867 238.783,-291.676 241.257,-285.128"/>
</g>
<!-- Node23 -->
<g id="node23" class="node"><title>Node23</title>
<g id="a_node23"><a xlink:href="classboost_1_1ui_1_1vslider.html" target="_top" xlink:title="Vertical slider widget. ">
<polygon fill="white" stroke="black" points="303.5,-304.5 303.5,-323.5 392.5,-323.5 392.5,-304.5 303.5,-304.5"/>
<text text-anchor="middle" x="348" y="-311.5" font-family="Helvetica,sans-Serif" font-size="10.00">boost::ui::vslider</text>
</a>
</g>
</g>
<!-- Node21&#45;&gt;Node23 -->
<g id="edge22" class="edge"><title>Node21&#45;&gt;Node23</title>
<path fill="none" stroke="midnightblue" d="M239.447,-287.968C261.448,-293.293 286.994,-299.476 307.667,-304.48"/>
<polygon fill="midnightblue" stroke="midnightblue" points="240.16,-284.54 229.618,-285.589 238.514,-291.343 240.16,-284.54"/>
</g>
<!-- Node25 -->
<g id="node25" class="node"><title>Node25</title>
<g id="a_node25"><a xlink:href="classboost_1_1ui_1_1choice.html" target="_top" xlink:title="Widget to select string from popup list of strings. ">
<polygon fill="white" stroke="black" points="303.5,-266.5 303.5,-285.5 392.5,-285.5 392.5,-266.5 303.5,-266.5"/>
<text text-anchor="middle" x="348" y="-273.5" font-family="Helvetica,sans-Serif" font-size="10.00">boost::ui::choice</text>
</a>
</g>
</g>
<!-- Node24&#45;&gt;Node25 -->
<g id="edge24" class="edge"><title>Node24&#45;&gt;Node25</title>
<path fill="none" stroke="midnightblue" d="M239.447,-249.968C261.448,-255.293 286.994,-261.476 307.667,-266.48"/>
<polygon fill="midnightblue" stroke="midnightblue" points="240.16,-246.54 229.618,-247.589 238.514,-253.343 240.16,-246.54"/>
</g>
<!-- Node26 -->
<g id="node26" class="node"><title>Node26</title>
<g id="a_node26"><a xlink:href="classboost_1_1ui_1_1combobox.html" target="_top" xlink:title="Widget to select one or more strings and edit it. ">
<polygon fill="white" stroke="black" points="295.5,-228.5 295.5,-247.5 400.5,-247.5 400.5,-228.5 295.5,-228.5"/>
<text text-anchor="middle" x="348" y="-235.5" font-family="Helvetica,sans-Serif" font-size="10.00">boost::ui::combobox</text>
</a>
</g>
</g>
<!-- Node24&#45;&gt;Node26 -->
<g id="edge25" class="edge"><title>Node24&#45;&gt;Node26</title>
<path fill="none" stroke="midnightblue" d="M252.137,-238C266.5,-238 281.628,-238 295.479,-238"/>
<polygon fill="midnightblue" stroke="midnightblue" points="251.843,-234.5 241.843,-238 251.843,-241.5 251.843,-234.5"/>
</g>
<!-- Node27 -->
<g id="node27" class="node"><title>Node27</title>
<g id="a_node27"><a xlink:href="classboost_1_1ui_1_1listbox.html" target="_top" xlink:title="Widget to select one or more strings. ">
<polygon fill="white" stroke="black" points="303.5,-190.5 303.5,-209.5 392.5,-209.5 392.5,-190.5 303.5,-190.5"/>
<text text-anchor="middle" x="348" y="-197.5" font-family="Helvetica,sans-Serif" font-size="10.00">boost::ui::listbox</text>
</a>
</g>
</g>
<!-- Node24&#45;&gt;Node27 -->
<g id="edge26" class="edge"><title>Node24&#45;&gt;Node27</title>
<path fill="none" stroke="midnightblue" d="M239.447,-226.032C261.448,-220.707 286.994,-214.524 307.667,-209.52"/>
<polygon fill="midnightblue" stroke="midnightblue" points="238.514,-222.657 229.618,-228.411 240.16,-229.46 238.514,-222.657"/>
</g>
<!-- Node29 -->
<g id="node29" class="node"><title>Node29</title>
<g id="a_node29"><a xlink:href="classboost_1_1ui_1_1passwordbox.html" target="_top" xlink:title="Password editor widget. ">
<polygon fill="white" stroke="black" points="289,-152.5 289,-171.5 407,-171.5 407,-152.5 289,-152.5"/>
<text text-anchor="middle" x="348" y="-159.5" font-family="Helvetica,sans-Serif" font-size="10.00">boost::ui::passwordbox</text>
</a>
</g>
</g>
<!-- Node28&#45;&gt;Node29 -->
<g id="edge28" class="edge"><title>Node28&#45;&gt;Node29</title>
<path fill="none" stroke="midnightblue" d="M259.129,-172.634C269.034,-171.435 279.14,-170.212 288.806,-169.043"/>
<polygon fill="midnightblue" stroke="midnightblue" points="258.415,-169.195 248.908,-173.871 259.256,-176.144 258.415,-169.195"/>
</g>
<!-- Node30 -->
<g id="node30" class="node"><title>Node30</title>
<g id="a_node30"><a xlink:href="classboost_1_1ui_1_1stringbox.html" target="_top" xlink:title="Single&#45;line text editor widget. ">
<polygon fill="white" stroke="black" points="298,-114.5 298,-133.5 398,-133.5 398,-114.5 298,-114.5"/>
<text text-anchor="middle" x="348" y="-121.5" font-family="Helvetica,sans-Serif" font-size="10.00">boost::ui::stringbox</text>
</a>
</g>
</g>
<!-- Node28&#45;&gt;Node30 -->
<g id="edge29" class="edge"><title>Node28&#45;&gt;Node30</title>
<path fill="none" stroke="midnightblue" d="M235.825,-168.316C241.666,-166.368 247.515,-164.25 253,-162 269.738,-155.134 272.344,-150.063 289,-143 297.097,-139.566 306.04,-136.362 314.43,-133.599"/>
<polygon fill="midnightblue" stroke="midnightblue" points="234.533,-165.054 226.068,-171.426 236.659,-171.724 234.533,-165.054"/>
</g>
<!-- Node31 -->
<g id="node31" class="node"><title>Node31</title>
<g id="a_node31"><a xlink:href="classboost_1_1ui_1_1textbox.html" target="_top" xlink:title="Multi&#45;line text editor widget. ">
<polygon fill="white" stroke="black" points="302,-76.5 302,-95.5 394,-95.5 394,-76.5 302,-76.5"/>
<text text-anchor="middle" x="348" y="-83.5" font-family="Helvetica,sans-Serif" font-size="10.00">boost::ui::textbox</text>
</a>
</g>
</g>
<!-- Node28&#45;&gt;Node31 -->
<g id="edge30" class="edge"><title>Node28&#45;&gt;Node31</title>
<path fill="none" stroke="midnightblue" d="M245.113,-167.093C247.882,-165.567 250.533,-163.876 253,-162 276.849,-143.862 265.367,-123.419 289,-105 293.931,-101.157 299.67,-98.0762 305.582,-95.6104"/>
<polygon fill="midnightblue" stroke="midnightblue" points="243.498,-163.985 235.951,-171.421 246.488,-170.314 243.498,-163.985"/>
</g>
<!-- Node35 -->
<g id="node35" class="node"><title>Node35</title>
<g id="a_node35"><a xlink:href="classboost_1_1ui_1_1dialog.html" target="_top" xlink:title="Top level widget that hosts other widgets. ">
<polygon fill="white" stroke="black" points="305,-38.5 305,-57.5 391,-57.5 391,-38.5 305,-38.5"/>
<text text-anchor="middle" x="348" y="-45.5" font-family="Helvetica,sans-Serif" font-size="10.00">boost::ui::dialog</text>
</a>
</g>
</g>
<!-- Node34&#45;&gt;Node35 -->
<g id="edge34" class="edge"><title>Node34&#45;&gt;Node35</title>
<path fill="none" stroke="midnightblue" d="M246.056,-48C265.433,-48 286.801,-48 304.87,-48"/>
<polygon fill="midnightblue" stroke="midnightblue" points="245.833,-44.5001 235.833,-48 245.833,-51.5001 245.833,-44.5001"/>
</g>
<!-- Node36 -->
<g id="node36" class="node"><title>Node36</title>
<g id="a_node36"><a xlink:href="classboost_1_1ui_1_1frame.html" target="_top" xlink:title="Top level widget that hosts other widgets and supports menus. ">
<polygon fill="white" stroke="black" points="305.5,-0.5 305.5,-19.5 390.5,-19.5 390.5,-0.5 305.5,-0.5"/>
<text text-anchor="middle" x="348" y="-7.5" font-family="Helvetica,sans-Serif" font-size="10.00">boost::ui::frame</text>
</a>
</g>
</g>
<!-- Node34&#45;&gt;Node36 -->
<g id="edge35" class="edge"><title>Node34&#45;&gt;Node36</title>
<path fill="none" stroke="midnightblue" d="M239.447,-36.032C261.448,-30.7069 286.994,-24.5238 307.667,-19.5201"/>
<polygon fill="midnightblue" stroke="midnightblue" points="238.514,-32.6567 229.618,-38.411 240.16,-39.4602 238.514,-32.6567"/>
</g>
</g>
</svg>
