<?xml version="1.0" encoding="UTF-8" standalone="no"?>
<!DOCTYPE svg PUBLIC "-//W3C//DTD SVG 1.1//EN"
 "http://www.w3.org/Graphics/SVG/1.1/DTD/svg11.dtd">
<!-- Generated by graphviz version 2.43.0 (0)
 -->
<!-- Title: boost::ui::check_box_base Pages: 1 -->
<svg width="248pt" height="151pt"
 viewBox="0.00 0.00 247.50 151.00" xmlns="http://www.w3.org/2000/svg" xmlns:xlink="http://www.w3.org/1999/xlink">
<g id="graph0" class="graph" transform="scale(1 1) rotate(0) translate(4 147)">
<title>boost::ui::check_box_base</title>
<polygon fill="white" stroke="transparent" points="-4,4 -4,-147 243.5,-147 243.5,4 -4,4"/>
<!-- Node1 -->
<g id="node1" class="node">
<title>Node1</title>
<g id="a_node1"><a xlink:title="Check box base class.">
<polygon fill="#bfbfbf" stroke="black" points="49.5,-67.5 49.5,-86.5 194.5,-86.5 194.5,-67.5 49.5,-67.5"/>
<text text-anchor="middle" x="122" y="-74.5" font-family="Helvetica,sans-Serif" font-size="10.00">boost::ui::check_box_base</text>
</a>
</g>
</g>
<!-- Node3 -->
<g id="node3" class="node">
<title>Node3</title>
<g id="a_node3"><a xlink:href="classboost_1_1ui_1_1check__box.html" target="_top" xlink:title="Labelled widget that that permits the user to make a binary choice.">
<polygon fill="white" stroke="black" points="0,-6 0,-25 116,-25 116,-6 0,-6"/>
<text text-anchor="middle" x="58" y="-13" font-family="Helvetica,sans-Serif" font-size="10.00">boost::ui::check_box</text>
</a>
</g>
</g>
<!-- Node1&#45;&gt;Node3 -->
<g id="edge2" class="edge">
<title>Node1&#45;&gt;Node3</title>
<path fill="none" stroke="midnightblue" d="M105.49,-60.65C93.29,-49.31 77.13,-34.28 67.15,-25.01"/>
<polygon fill="midnightblue" stroke="midnightblue" points="103.12,-63.23 112.83,-67.48 107.89,-58.1 103.12,-63.23"/>
</g>
<!-- Node4 -->
<g id="node4" class="node">
<title>Node4</title>
<g id="a_node4"><a xlink:href="classboost_1_1ui_1_1tri__state__check__box.html" target="_top" xlink:title="Labelled widget that that permits the user to make a ternary choice.">
<polygon fill="white" stroke="black" points="134.5,-0.5 134.5,-30.5 239.5,-30.5 239.5,-0.5 134.5,-0.5"/>
<text text-anchor="start" x="142.5" y="-18.5" font-family="Helvetica,sans-Serif" font-size="10.00">boost::ui::tri_state</text>
<text text-anchor="middle" x="187" y="-7.5" font-family="Helvetica,sans-Serif" font-size="10.00">_check_box</text>
</a>
</g>
</g>
<!-- Node1&#45;&gt;Node4 -->
<g id="edge3" class="edge">
<title>Node1&#45;&gt;Node4</title>
<path fill="none" stroke="midnightblue" d="M138.77,-60.65C148.93,-51.35 161.8,-39.57 171.68,-30.52"/>
<polygon fill="midnightblue" stroke="midnightblue" points="136.33,-58.14 131.31,-67.48 141.05,-63.3 136.33,-58.14"/>
</g>
<!-- Node2 -->
<g id="node2" class="node">
<title>Node2</title>
<g id="a_node2"><a xlink:href="classboost_1_1ui_1_1widget.html" target="_top" xlink:title="Base class for all widgets.">
<polygon fill="white" stroke="black" points="73,-123.5 73,-142.5 171,-142.5 171,-123.5 73,-123.5"/>
<text text-anchor="middle" x="122" y="-130.5" font-family="Helvetica,sans-Serif" font-size="10.00">boost::ui::widget</text>
</a>
</g>
</g>
<!-- Node2&#45;&gt;Node1 -->
<g id="edge1" class="edge">
<title>Node2&#45;&gt;Node1</title>
<path fill="none" stroke="midnightblue" d="M122,-112.8C122,-103.91 122,-93.78 122,-86.75"/>
<polygon fill="midnightblue" stroke="midnightblue" points="118.5,-113.08 122,-123.08 125.5,-113.08 118.5,-113.08"/>
</g>
</g>
</svg>
