<?xml version="1.0" encoding="UTF-8" standalone="no"?>
<!DOCTYPE svg PUBLIC "-//W3C//DTD SVG 1.1//EN"
 "http://www.w3.org/Graphics/SVG/1.1/DTD/svg11.dtd">
<!-- Generated by graphviz version 2.38.0 (20140413.2041)
 -->
<!-- Title: boost::ui::stringsbox Pages: 1 -->
<svg width="327pt" height="140pt"
 viewBox="0.00 0.00 327.00 140.00" xmlns="http://www.w3.org/2000/svg" xmlns:xlink="http://www.w3.org/1999/xlink">
<g id="graph0" class="graph" transform="scale(1 1) rotate(0) translate(4 136)">
<title>boost::ui::stringsbox</title>
<polygon fill="white" stroke="none" points="-4,4 -4,-136 323,-136 323,4 -4,4"/>
<!-- Node1 -->
<g id="node1" class="node"><title>Node1</title>
<polygon fill="#bfbfbf" stroke="black" points="107,-56.5 107,-75.5 212,-75.5 212,-56.5 107,-56.5"/>
<text text-anchor="middle" x="159.5" y="-63.5" font-family="Helvetica,sans-Serif" font-size="10.00">boost::ui::stringsbox</text>
</g>
<!-- Node3 -->
<g id="node3" class="node"><title>Node3</title>
<g id="a_node3"><a xlink:href="classboost_1_1ui_1_1choice.html" target="_top" xlink:title="Widget to select string from popup list of strings. ">
<polygon fill="white" stroke="black" points="0,-0.5 0,-19.5 89,-19.5 89,-0.5 0,-0.5"/>
<text text-anchor="middle" x="44.5" y="-7.5" font-family="Helvetica,sans-Serif" font-size="10.00">boost::ui::choice</text>
</a>
</g>
</g>
<!-- Node1&#45;&gt;Node3 -->
<g id="edge2" class="edge"><title>Node1&#45;&gt;Node3</title>
<path fill="none" stroke="midnightblue" d="M132.019,-52.096C110.534,-42.0073 81.2781,-28.2697 62.6368,-19.5164"/>
<polygon fill="midnightblue" stroke="midnightblue" points="130.738,-55.3612 141.278,-56.4435 133.714,-49.025 130.738,-55.3612"/>
</g>
<!-- Node4 -->
<g id="node4" class="node"><title>Node4</title>
<g id="a_node4"><a xlink:href="classboost_1_1ui_1_1combobox.html" target="_top" xlink:title="Widget to select one or more strings and edit it. ">
<polygon fill="white" stroke="black" points="107,-0.5 107,-19.5 212,-19.5 212,-0.5 107,-0.5"/>
<text text-anchor="middle" x="159.5" y="-7.5" font-family="Helvetica,sans-Serif" font-size="10.00">boost::ui::combobox</text>
</a>
</g>
</g>
<!-- Node1&#45;&gt;Node4 -->
<g id="edge3" class="edge"><title>Node1&#45;&gt;Node4</title>
<path fill="none" stroke="midnightblue" d="M159.5,-45.8045C159.5,-36.9102 159.5,-26.7798 159.5,-19.7511"/>
<polygon fill="midnightblue" stroke="midnightblue" points="156,-46.083 159.5,-56.083 163,-46.083 156,-46.083"/>
</g>
<!-- Node5 -->
<g id="node5" class="node"><title>Node5</title>
<g id="a_node5"><a xlink:href="classboost_1_1ui_1_1listbox.html" target="_top" xlink:title="Widget to select one or more strings. ">
<polygon fill="white" stroke="black" points="230,-0.5 230,-19.5 319,-19.5 319,-0.5 230,-0.5"/>
<text text-anchor="middle" x="274.5" y="-7.5" font-family="Helvetica,sans-Serif" font-size="10.00">boost::ui::listbox</text>
</a>
</g>
</g>
<!-- Node1&#45;&gt;Node5 -->
<g id="edge4" class="edge"><title>Node1&#45;&gt;Node5</title>
<path fill="none" stroke="midnightblue" d="M186.981,-52.096C208.466,-42.0073 237.722,-28.2697 256.363,-19.5164"/>
<polygon fill="midnightblue" stroke="midnightblue" points="185.286,-49.025 177.722,-56.4435 188.262,-55.3612 185.286,-49.025"/>
</g>
<!-- Node2 -->
<g id="node2" class="node"><title>Node2</title>
<g id="a_node2"><a xlink:href="classboost_1_1ui_1_1widget.html" target="_top" xlink:title="Base class for all widgets. ">
<polygon fill="white" stroke="black" points="115,-112.5 115,-131.5 204,-131.5 204,-112.5 115,-112.5"/>
<text text-anchor="middle" x="159.5" y="-119.5" font-family="Helvetica,sans-Serif" font-size="10.00">boost::ui::widget</text>
</a>
</g>
</g>
<!-- Node2&#45;&gt;Node1 -->
<g id="edge1" class="edge"><title>Node2&#45;&gt;Node1</title>
<path fill="none" stroke="midnightblue" d="M159.5,-101.805C159.5,-92.9102 159.5,-82.7798 159.5,-75.7511"/>
<polygon fill="midnightblue" stroke="midnightblue" points="156,-102.083 159.5,-112.083 163,-102.083 156,-102.083"/>
</g>
</g>
</svg>
