<?xml version="1.0" encoding="UTF-8" standalone="no"?>
<!DOCTYPE svg PUBLIC "-//W3C//DTD SVG 1.1//EN"
 "http://www.w3.org/Graphics/SVG/1.1/DTD/svg11.dtd">
<!-- Generated by graphviz version 2.38.0 (20140413.2041)
 -->
<!-- Title: boost::ui::key_event Pages: 1 -->
<svg width="210pt" height="95pt"
 viewBox="0.00 0.00 210.00 95.00" xmlns="http://www.w3.org/2000/svg" xmlns:xlink="http://www.w3.org/1999/xlink">
<g id="graph0" class="graph" transform="scale(1 1) rotate(0) translate(4 91)">
<title>boost::ui::key_event</title>
<polygon fill="white" stroke="none" points="-4,4 -4,-91 206,-91 206,4 -4,4"/>
<!-- Node1 -->
<g id="node1" class="node"><title>Node1</title>
<polygon fill="#bfbfbf" stroke="black" points="44.5,-0.5 44.5,-19.5 149.5,-19.5 149.5,-0.5 44.5,-0.5"/>
<text text-anchor="middle" x="97" y="-7.5" font-family="Helvetica,sans-Serif" font-size="10.00">boost::ui::key_event</text>
</g>
<!-- Node2 -->
<g id="node2" class="node"><title>Node2</title>
<g id="a_node2"><a xlink:href="classboost_1_1ui_1_1event.html" target="_top" xlink:title="Base class for all events. ">
<polygon fill="white" stroke="black" points="0,-62 0,-81 84,-81 84,-62 0,-62"/>
<text text-anchor="middle" x="42" y="-69" font-family="Helvetica,sans-Serif" font-size="10.00">boost::ui::event</text>
</a>
</g>
</g>
<!-- Node2&#45;&gt;Node1 -->
<g id="edge1" class="edge"><title>Node2&#45;&gt;Node1</title>
<path fill="none" stroke="midnightblue" d="M56.7923,-54.4975C67.2024,-43.2356 80.727,-28.6044 89.1345,-19.5091"/>
<polygon fill="midnightblue" stroke="midnightblue" points="54.098,-52.256 49.8802,-61.9751 59.2383,-57.0076 54.098,-52.256"/>
</g>
<!-- Node3 -->
<g id="node3" class="node"><title>Node3</title>
<g id="a_node3"><a xlink:href="classboost_1_1ui_1_1keyboard__state.html" target="_top" xlink:title="Keyboard state class. ">
<polygon fill="white" stroke="black" points="102,-56.5 102,-86.5 202,-86.5 202,-56.5 102,-56.5"/>
<text text-anchor="start" x="110" y="-74.5" font-family="Helvetica,sans-Serif" font-size="10.00">boost::ui::keyboard</text>
<text text-anchor="middle" x="152" y="-63.5" font-family="Helvetica,sans-Serif" font-size="10.00">_state</text>
</a>
</g>
</g>
<!-- Node3&#45;&gt;Node1 -->
<g id="edge2" class="edge"><title>Node3&#45;&gt;Node1</title>
<path fill="none" stroke="midnightblue" d="M132.128,-49.0023C122.754,-38.8617 112.097,-27.3319 105.003,-19.6578"/>
<polygon fill="midnightblue" stroke="midnightblue" points="129.608,-51.4318 138.966,-56.3993 134.748,-46.6802 129.608,-51.4318"/>
</g>
</g>
</svg>
