<?xml version="1.0" encoding="UTF-8" standalone="no"?>
<!DOCTYPE svg PUBLIC "-//W3C//DTD SVG 1.1//EN"
 "http://www.w3.org/Graphics/SVG/1.1/DTD/svg11.dtd">
<!-- Generated by graphviz version 2.43.0 (0)
 -->
<!-- Title: boost/ui/color.hpp Pages: 1 -->
<svg width="364pt" height="84pt"
 viewBox="0.00 0.00 363.50 84.00" xmlns="http://www.w3.org/2000/svg" xmlns:xlink="http://www.w3.org/1999/xlink">
<g id="graph0" class="graph" transform="scale(1 1) rotate(0) translate(4 80)">
<title>boost/ui/color.hpp</title>
<polygon fill="white" stroke="transparent" points="-4,4 -4,-80 359.5,-80 359.5,4 -4,4"/>
<!-- Node1 -->
<g id="node1" class="node">
<title>Node1</title>
<g id="a_node1"><a xlink:title="Color class.">
<polygon fill="#bfbfbf" stroke="black" points="149,-56.5 149,-75.5 253,-75.5 253,-56.5 149,-56.5"/>
<text text-anchor="middle" x="201" y="-63.5" font-family="Helvetica,sans-Serif" font-size="10.00">boost/ui/color.hpp</text>
</a>
</g>
</g>
<!-- Node2 -->
<g id="node2" class="node">
<title>Node2</title>
<g id="a_node2"><a xlink:href="message_8hpp.html" target="_top" xlink:title="Display message file.">
<polygon fill="white" stroke="black" points="0,-0.5 0,-19.5 124,-19.5 124,-0.5 0,-0.5"/>
<text text-anchor="middle" x="62" y="-7.5" font-family="Helvetica,sans-Serif" font-size="10.00">boost/ui/message.hpp</text>
</a>
</g>
</g>
<!-- Node1&#45;&gt;Node2 -->
<g id="edge1" class="edge">
<title>Node1&#45;&gt;Node2</title>
<path fill="none" stroke="midnightblue" d="M169.52,-52.77C143.41,-42.63 106.96,-28.47 83.92,-19.52"/>
<polygon fill="midnightblue" stroke="midnightblue" points="168.39,-56.08 178.98,-56.44 170.92,-49.56 168.39,-56.08"/>
</g>
<!-- Node3 -->
<g id="node3" class="node">
<title>Node3</title>
<g id="a_node3"><a xlink:href="color__io_8hpp.html" target="_top" xlink:title="Color I/O operations.">
<polygon fill="white" stroke="black" points="142,-0.5 142,-19.5 260,-19.5 260,-0.5 142,-0.5"/>
<text text-anchor="middle" x="201" y="-7.5" font-family="Helvetica,sans-Serif" font-size="10.00">boost/ui/color_io.hpp</text>
</a>
</g>
</g>
<!-- Node1&#45;&gt;Node3 -->
<g id="edge2" class="edge">
<title>Node1&#45;&gt;Node3</title>
<path fill="none" stroke="midnightblue" d="M201,-45.8C201,-36.91 201,-26.78 201,-19.75"/>
<polygon fill="midnightblue" stroke="midnightblue" points="197.5,-46.08 201,-56.08 204.5,-46.08 197.5,-46.08"/>
</g>
<!-- Node4 -->
<g id="node4" class="node">
<title>Node4</title>
<g id="a_node4"><a xlink:href="ui_8hpp.html" target="_top" xlink:title="Master Boost.UI file.">
<polygon fill="white" stroke="black" points="278.5,-0.5 278.5,-19.5 355.5,-19.5 355.5,-0.5 278.5,-0.5"/>
<text text-anchor="middle" x="317" y="-7.5" font-family="Helvetica,sans-Serif" font-size="10.00">boost/ui.hpp</text>
</a>
</g>
</g>
<!-- Node1&#45;&gt;Node4 -->
<g id="edge3" class="edge">
<title>Node1&#45;&gt;Node4</title>
<path fill="none" stroke="midnightblue" d="M228.72,-52.1C250.39,-42.01 279.9,-28.27 298.71,-19.52"/>
<polygon fill="midnightblue" stroke="midnightblue" points="226.97,-49.05 219.38,-56.44 229.92,-55.4 226.97,-49.05"/>
</g>
</g>
</svg>
