<?xml version="1.0" encoding="UTF-8" standalone="no"?>
<!DOCTYPE svg PUBLIC "-//W3C//DTD SVG 1.1//EN"
 "http://www.w3.org/Graphics/SVG/1.1/DTD/svg11.dtd">
<!-- Generated by graphviz version 2.38.0 (20140413.2041)
 -->
<!-- Title: boost/ui/color_io.hpp Pages: 1 -->
<svg width="250pt" height="196pt"
 viewBox="0.00 0.00 249.50 196.00" xmlns="http://www.w3.org/2000/svg" xmlns:xlink="http://www.w3.org/1999/xlink">
<g id="graph0" class="graph" transform="scale(1 1) rotate(0) translate(4 192)">
<title>boost/ui/color_io.hpp</title>
<polygon fill="white" stroke="none" points="-4,4 -4,-192 245.5,-192 245.5,4 -4,4"/>
<!-- Node1 -->
<g id="node1" class="node"><title>Node1</title>
<polygon fill="#bfbfbf" stroke="black" points="71,-168.5 71,-187.5 178,-187.5 178,-168.5 71,-168.5"/>
<text text-anchor="middle" x="124.5" y="-175.5" font-family="Helvetica,sans-Serif" font-size="10.00">boost/ui/color_io.hpp</text>
</g>
<!-- Node2 -->
<g id="node2" class="node"><title>Node2</title>
<g id="a_node2"><a xlink:href="config_8hpp.html" target="_top" xlink:title="Configuration options. ">
<polygon fill="white" stroke="black" points="0,-56.5 0,-75.5 99,-75.5 99,-56.5 0,-56.5"/>
<text text-anchor="middle" x="49.5" y="-63.5" font-family="Helvetica,sans-Serif" font-size="10.00">boost/ui/config.hpp</text>
</a>
</g>
</g>
<!-- Node1&#45;&gt;Node2 -->
<g id="edge1" class="edge"><title>Node1&#45;&gt;Node2</title>
<path fill="none" stroke="midnightblue" d="M109.247,-168.402C96.5674,-160.501 78.9644,-147.658 68.5,-132 59.2114,-118.101 54.3796,-99.5898 51.9193,-85.8773"/>
<polygon fill="midnightblue" stroke="midnightblue" points="55.3338,-85.0513 50.3646,-75.6942 48.414,-86.1079 55.3338,-85.0513"/>
</g>
<!-- Node4 -->
<g id="node4" class="node"><title>Node4</title>
<g id="a_node4"><a xlink:href="color_8hpp.html" target="_top" xlink:title="Color class. ">
<polygon fill="white" stroke="black" points="77.5,-112.5 77.5,-131.5 171.5,-131.5 171.5,-112.5 77.5,-112.5"/>
<text text-anchor="middle" x="124.5" y="-119.5" font-family="Helvetica,sans-Serif" font-size="10.00">boost/ui/color.hpp</text>
</a>
</g>
</g>
<!-- Node1&#45;&gt;Node4 -->
<g id="edge3" class="edge"><title>Node1&#45;&gt;Node4</title>
<path fill="none" stroke="midnightblue" d="M124.5,-168.083C124.5,-161.006 124.5,-150.861 124.5,-141.986"/>
<polygon fill="midnightblue" stroke="midnightblue" points="128,-141.751 124.5,-131.751 121,-141.751 128,-141.751"/>
</g>
<!-- Node6 -->
<g id="node6" class="node"><title>Node6</title>
<polygon fill="white" stroke="#bfbfbf" points="189.5,-112.5 189.5,-131.5 241.5,-131.5 241.5,-112.5 189.5,-112.5"/>
<text text-anchor="middle" x="215.5" y="-119.5" font-family="Helvetica,sans-Serif" font-size="10.00">ostream</text>
</g>
<!-- Node1&#45;&gt;Node6 -->
<g id="edge6" class="edge"><title>Node1&#45;&gt;Node6</title>
<path fill="none" stroke="midnightblue" d="M139.121,-168.324C153.449,-159.822 175.513,-146.729 192.249,-136.797"/>
<polygon fill="midnightblue" stroke="midnightblue" points="194.102,-139.768 200.916,-131.655 190.53,-133.748 194.102,-139.768"/>
</g>
<!-- Node3 -->
<g id="node3" class="node"><title>Node3</title>
<polygon fill="white" stroke="#bfbfbf" points="5,-0.5 5,-19.5 94,-19.5 94,-0.5 5,-0.5"/>
<text text-anchor="middle" x="49.5" y="-7.5" font-family="Helvetica,sans-Serif" font-size="10.00">boost/config.hpp</text>
</g>
<!-- Node2&#45;&gt;Node3 -->
<g id="edge2" class="edge"><title>Node2&#45;&gt;Node3</title>
<path fill="none" stroke="midnightblue" d="M49.5,-56.083C49.5,-49.0059 49.5,-38.8611 49.5,-29.9865"/>
<polygon fill="midnightblue" stroke="midnightblue" points="53.0001,-29.751 49.5,-19.7511 46.0001,-29.7511 53.0001,-29.751"/>
</g>
<!-- Node4&#45;&gt;Node2 -->
<g id="edge4" class="edge"><title>Node4&#45;&gt;Node2</title>
<path fill="none" stroke="midnightblue" d="M112.45,-112.324C101.037,-104.107 83.669,-91.6017 70.0651,-81.8069"/>
<polygon fill="midnightblue" stroke="midnightblue" points="71.9297,-78.8366 61.7693,-75.8339 67.8396,-84.5174 71.9297,-78.8366"/>
</g>
<!-- Node5 -->
<g id="node5" class="node"><title>Node5</title>
<polygon fill="white" stroke="#bfbfbf" points="117.5,-56.5 117.5,-75.5 209.5,-75.5 209.5,-56.5 117.5,-56.5"/>
<text text-anchor="middle" x="163.5" y="-63.5" font-family="Helvetica,sans-Serif" font-size="10.00">boost/cstdint.hpp</text>
</g>
<!-- Node4&#45;&gt;Node5 -->
<g id="edge5" class="edge"><title>Node4&#45;&gt;Node5</title>
<path fill="none" stroke="midnightblue" d="M130.94,-112.083C136.449,-104.455 144.531,-93.2645 151.265,-83.9408"/>
<polygon fill="midnightblue" stroke="midnightblue" points="154.162,-85.9071 157.18,-75.7511 148.487,-81.8087 154.162,-85.9071"/>
</g>
</g>
</svg>
