<?xml version="1.0" encoding="UTF-8" standalone="no"?>
<!DOCTYPE svg PUBLIC "-//W3C//DTD SVG 1.1//EN"
 "http://www.w3.org/Graphics/SVG/1.1/DTD/svg11.dtd">
<!-- Generated by graphviz version 2.38.0 (20140413.2041)
 -->
<!-- Title: boost/ui/color.hpp Pages: 1 -->
<svg width="335pt" height="84pt"
 viewBox="0.00 0.00 334.50 84.00" xmlns="http://www.w3.org/2000/svg" xmlns:xlink="http://www.w3.org/1999/xlink">
<g id="graph0" class="graph" transform="scale(1 1) rotate(0) translate(4 80)">
<title>boost/ui/color.hpp</title>
<polygon fill="white" stroke="none" points="-4,4 -4,-80 330.5,-80 330.5,4 -4,4"/>
<!-- Node1 -->
<g id="node1" class="node"><title>Node1</title>
<polygon fill="#bfbfbf" stroke="black" points="137.5,-56.5 137.5,-75.5 231.5,-75.5 231.5,-56.5 137.5,-56.5"/>
<text text-anchor="middle" x="184.5" y="-63.5" font-family="Helvetica,sans-Serif" font-size="10.00">boost/ui/color.hpp</text>
</g>
<!-- Node2 -->
<g id="node2" class="node"><title>Node2</title>
<g id="a_node2"><a xlink:href="message_8hpp.html" target="_top" xlink:title="Display message file. ">
<polygon fill="white" stroke="black" points="0,-0.5 0,-19.5 113,-19.5 113,-0.5 0,-0.5"/>
<text text-anchor="middle" x="56.5" y="-7.5" font-family="Helvetica,sans-Serif" font-size="10.00">boost/ui/message.hpp</text>
</a>
</g>
</g>
<!-- Node1&#45;&gt;Node2 -->
<g id="edge1" class="edge"><title>Node1&#45;&gt;Node2</title>
<path fill="none" stroke="midnightblue" d="M154.877,-52.503C130.881,-42.3795 97.716,-28.388 76.6871,-19.5164"/>
<polygon fill="midnightblue" stroke="midnightblue" points="153.644,-55.7813 164.218,-56.4435 156.365,-49.3317 153.644,-55.7813"/>
</g>
<!-- Node3 -->
<g id="node3" class="node"><title>Node3</title>
<g id="a_node3"><a xlink:href="color__io_8hpp.html" target="_top" xlink:title="Color I/O operations. ">
<polygon fill="white" stroke="black" points="131,-0.5 131,-19.5 238,-19.5 238,-0.5 131,-0.5"/>
<text text-anchor="middle" x="184.5" y="-7.5" font-family="Helvetica,sans-Serif" font-size="10.00">boost/ui/color_io.hpp</text>
</a>
</g>
</g>
<!-- Node1&#45;&gt;Node3 -->
<g id="edge2" class="edge"><title>Node1&#45;&gt;Node3</title>
<path fill="none" stroke="midnightblue" d="M184.5,-45.8045C184.5,-36.9102 184.5,-26.7798 184.5,-19.7511"/>
<polygon fill="midnightblue" stroke="midnightblue" points="181,-46.083 184.5,-56.083 188,-46.083 181,-46.083"/>
</g>
<!-- Node4 -->
<g id="node4" class="node"><title>Node4</title>
<g id="a_node4"><a xlink:href="ui_8hpp.html" target="_top" xlink:title="Master Boost.UI file. ">
<polygon fill="white" stroke="black" points="256.5,-0.5 256.5,-19.5 326.5,-19.5 326.5,-0.5 256.5,-0.5"/>
<text text-anchor="middle" x="291.5" y="-7.5" font-family="Helvetica,sans-Serif" font-size="10.00">boost/ui.hpp</text>
</a>
</g>
</g>
<!-- Node1&#45;&gt;Node4 -->
<g id="edge3" class="edge"><title>Node1&#45;&gt;Node4</title>
<path fill="none" stroke="midnightblue" d="M210.802,-51.7261C230.615,-41.7271 257.207,-28.3065 274.351,-19.6545"/>
<polygon fill="midnightblue" stroke="midnightblue" points="209.042,-48.6938 201.691,-56.324 212.196,-54.9431 209.042,-48.6938"/>
</g>
</g>
</svg>
