<?xml version="1.0" encoding="UTF-8" standalone="no"?>
<!DOCTYPE svg PUBLIC "-//W3C//DTD SVG 1.1//EN"
 "http://www.w3.org/Graphics/SVG/1.1/DTD/svg11.dtd">
<!-- Generated by graphviz version 2.38.0 (20140413.2041)
 -->
<!-- Title: boost/ui/coord.hpp Pages: 1 -->
<svg width="792pt" height="151pt"
 viewBox="0.00 0.00 791.50 151.00" xmlns="http://www.w3.org/2000/svg" xmlns:xlink="http://www.w3.org/1999/xlink">
<g id="graph0" class="graph" transform="scale(1 1) rotate(0) translate(4 147)">
<title>boost/ui/coord.hpp</title>
<polygon fill="white" stroke="none" points="-4,4 -4,-147 787.5,-147 787.5,4 -4,4"/>
<!-- Node1 -->
<g id="node1" class="node"><title>Node1</title>
<polygon fill="#bfbfbf" stroke="black" points="333,-123.5 333,-142.5 430,-142.5 430,-123.5 333,-123.5"/>
<text text-anchor="middle" x="381.5" y="-130.5" font-family="Helvetica,sans-Serif" font-size="10.00">boost/ui/coord.hpp</text>
</g>
<!-- Node2 -->
<g id="node2" class="node"><title>Node2</title>
<g id="a_node2"><a xlink:href="config_8hpp.html" target="_top" xlink:title="Configuration options. ">
<polygon fill="white" stroke="black" points="0,-62 0,-81 99,-81 99,-62 0,-62"/>
<text text-anchor="middle" x="49.5" y="-69" font-family="Helvetica,sans-Serif" font-size="10.00">boost/ui/config.hpp</text>
</a>
</g>
</g>
<!-- Node1&#45;&gt;Node2 -->
<g id="edge1" class="edge"><title>Node1&#45;&gt;Node2</title>
<path fill="none" stroke="midnightblue" d="M332.963,-125.162C278.213,-117.179 186.615,-103.012 108.5,-87 103.14,-85.9013 97.5292,-84.6524 91.99,-83.3594"/>
<polygon fill="midnightblue" stroke="midnightblue" points="92.7058,-79.932 82.1657,-81.0072 91.0759,-86.7396 92.7058,-79.932"/>
</g>
<!-- Node4 -->
<g id="node4" class="node"><title>Node4</title>
<polygon fill="white" stroke="#bfbfbf" points="117,-62 117,-81 220,-81 220,-62 117,-62"/>
<text text-anchor="middle" x="168.5" y="-69" font-family="Helvetica,sans-Serif" font-size="10.00">boost/geometry.hpp</text>
</g>
<!-- Node1&#45;&gt;Node4 -->
<g id="edge3" class="edge"><title>Node1&#45;&gt;Node4</title>
<path fill="none" stroke="midnightblue" d="M350.982,-123.475C313.575,-113.026 250.073,-95.2868 208.713,-83.7332"/>
<polygon fill="midnightblue" stroke="midnightblue" points="209.534,-80.3286 198.961,-81.0091 207.651,-87.0705 209.534,-80.3286"/>
</g>
<!-- Node5 -->
<g id="node5" class="node"><title>Node5</title>
<polygon fill="white" stroke="#bfbfbf" points="238,-56.5 238,-86.5 373,-86.5 373,-56.5 238,-56.5"/>
<text text-anchor="start" x="246" y="-74.5" font-family="Helvetica,sans-Serif" font-size="10.00">boost/geometry/geometries</text>
<text text-anchor="middle" x="305.5" y="-63.5" font-family="Helvetica,sans-Serif" font-size="10.00">/point_xy.hpp</text>
</g>
<!-- Node1&#45;&gt;Node5 -->
<g id="edge4" class="edge"><title>Node1&#45;&gt;Node5</title>
<path fill="none" stroke="midnightblue" d="M370.611,-123.475C360.414,-115.492 344.783,-103.254 331.391,-92.7703"/>
<polygon fill="midnightblue" stroke="midnightblue" points="333.443,-89.9316 323.412,-86.523 329.128,-95.4434 333.443,-89.9316"/>
</g>
<!-- Node6 -->
<g id="node6" class="node"><title>Node6</title>
<polygon fill="white" stroke="#bfbfbf" points="391,-56.5 391,-86.5 526,-86.5 526,-56.5 391,-56.5"/>
<text text-anchor="start" x="399" y="-74.5" font-family="Helvetica,sans-Serif" font-size="10.00">boost/geometry/geometries</text>
<text text-anchor="middle" x="458.5" y="-63.5" font-family="Helvetica,sans-Serif" font-size="10.00">/box.hpp</text>
</g>
<!-- Node1&#45;&gt;Node6 -->
<g id="edge5" class="edge"><title>Node1&#45;&gt;Node6</title>
<path fill="none" stroke="midnightblue" d="M392.532,-123.475C402.863,-115.492 418.7,-103.254 432.268,-92.7703"/>
<polygon fill="midnightblue" stroke="midnightblue" points="434.58,-95.407 440.353,-86.523 430.3,-89.868 434.58,-95.407"/>
</g>
<!-- Node7 -->
<g id="node7" class="node"><title>Node7</title>
<polygon fill="white" stroke="#bfbfbf" points="544,-56.5 544,-86.5 645,-86.5 645,-56.5 544,-56.5"/>
<text text-anchor="start" x="552" y="-74.5" font-family="Helvetica,sans-Serif" font-size="10.00">boost/polygon/point</text>
<text text-anchor="middle" x="594.5" y="-63.5" font-family="Helvetica,sans-Serif" font-size="10.00">_data.hpp</text>
</g>
<!-- Node1&#45;&gt;Node7 -->
<g id="edge6" class="edge"><title>Node1&#45;&gt;Node7</title>
<path fill="none" stroke="midnightblue" d="M412.018,-123.475C443.899,-114.569 494.734,-100.369 534.663,-89.2151"/>
<polygon fill="midnightblue" stroke="midnightblue" points="535.611,-92.5844 544.3,-86.523 533.727,-85.8425 535.611,-92.5844"/>
</g>
<!-- Node8 -->
<g id="node8" class="node"><title>Node8</title>
<polygon fill="white" stroke="#bfbfbf" points="663.5,-56.5 663.5,-86.5 783.5,-86.5 783.5,-56.5 663.5,-56.5"/>
<text text-anchor="start" x="671.5" y="-74.5" font-family="Helvetica,sans-Serif" font-size="10.00">boost/polygon/rectangle</text>
<text text-anchor="middle" x="723.5" y="-63.5" font-family="Helvetica,sans-Serif" font-size="10.00">_data.hpp</text>
</g>
<!-- Node1&#45;&gt;Node8 -->
<g id="edge7" class="edge"><title>Node1&#45;&gt;Node8</title>
<path fill="none" stroke="midnightblue" d="M430.435,-124.595C483.071,-116.482 569.467,-102.74 653.368,-87.1665"/>
<polygon fill="midnightblue" stroke="midnightblue" points="654.132,-90.5844 663.32,-85.3083 652.848,-83.7033 654.132,-90.5844"/>
</g>
<!-- Node3 -->
<g id="node3" class="node"><title>Node3</title>
<polygon fill="white" stroke="#bfbfbf" points="5,-0.5 5,-19.5 94,-19.5 94,-0.5 5,-0.5"/>
<text text-anchor="middle" x="49.5" y="-7.5" font-family="Helvetica,sans-Serif" font-size="10.00">boost/config.hpp</text>
</g>
<!-- Node2&#45;&gt;Node3 -->
<g id="edge2" class="edge"><title>Node2&#45;&gt;Node3</title>
<path fill="none" stroke="midnightblue" d="M49.5,-61.9751C49.5,-53.5803 49.5,-40.4806 49.5,-29.6631"/>
<polygon fill="midnightblue" stroke="midnightblue" points="53.0001,-29.5091 49.5,-19.5091 46.0001,-29.5091 53.0001,-29.5091"/>
</g>
</g>
</svg>
