<?xml version="1.0" encoding="UTF-8" standalone="no"?>
<!DOCTYPE svg PUBLIC "-//W3C//DTD SVG 1.1//EN"
 "http://www.w3.org/Graphics/SVG/1.1/DTD/svg11.dtd">
<!-- Generated by graphviz version 2.38.0 (20140413.2041)
 -->
<!-- Title: boost/ui/coord.hpp Pages: 1 -->
<svg width="2253pt" height="252pt"
 viewBox="0.00 0.00 2253.47 252.00" xmlns="http://www.w3.org/2000/svg" xmlns:xlink="http://www.w3.org/1999/xlink">
<g id="graph0" class="graph" transform="scale(1 1) rotate(0) translate(4 248)">
<title>boost/ui/coord.hpp</title>
<polygon fill="white" stroke="none" points="-4,4 -4,-248 2249.47,-248 2249.47,4 -4,4"/>
<!-- Node1 -->
<g id="node1" class="node"><title>Node1</title>
<polygon fill="#bfbfbf" stroke="black" points="59.4737,-224.5 59.4737,-243.5 156.474,-243.5 156.474,-224.5 59.4737,-224.5"/>
<text text-anchor="middle" x="107.974" y="-231.5" font-family="Helvetica,sans-Serif" font-size="10.00">boost/ui/coord.hpp</text>
</g>
<!-- Node2 -->
<g id="node2" class="node"><title>Node2</title>
<g id="a_node2"><a xlink:href="widget_8hpp.html" target="_top" xlink:title="Widget class. ">
<polygon fill="white" stroke="black" points="1032.47,-112.5 1032.47,-131.5 1133.47,-131.5 1133.47,-112.5 1032.47,-112.5"/>
<text text-anchor="middle" x="1082.97" y="-119.5" font-family="Helvetica,sans-Serif" font-size="10.00">boost/ui/widget.hpp</text>
</a>
</g>
</g>
<!-- Node1&#45;&gt;Node2 -->
<g id="edge1" class="edge"><title>Node1&#45;&gt;Node2</title>
<path fill="none" stroke="midnightblue" d="M166.793,-226.364C343.395,-206.44 867.002,-147.366 1032.34,-128.712"/>
<polygon fill="midnightblue" stroke="midnightblue" points="166.202,-222.908 156.658,-227.507 166.987,-229.864 166.202,-222.908"/>
</g>
<!-- Node8 -->
<g id="node8" class="node"><title>Node8</title>
<g id="a_node8"><a xlink:href="ui_8hpp.html" target="_top" xlink:title="Master Boost.UI file. ">
<polygon fill="white" stroke="black" points="25.9737,-0.5 25.9737,-19.5 95.9737,-19.5 95.9737,-0.5 25.9737,-0.5"/>
<text text-anchor="middle" x="60.9737" y="-7.5" font-family="Helvetica,sans-Serif" font-size="10.00">boost/ui.hpp</text>
</a>
</g>
</g>
<!-- Node1&#45;&gt;Node8 -->
<g id="edge29" class="edge"><title>Node1&#45;&gt;Node8</title>
<path fill="none" stroke="midnightblue" d="M56.9571,-221.125C39.6501,-214.397 22.1382,-203.99 11.9737,-188 -24.2885,-130.954 33.1123,-47.0053 53.915,-19.8333"/>
<polygon fill="midnightblue" stroke="midnightblue" points="55.9083,-224.467 66.5031,-224.497 58.2395,-217.866 55.9083,-224.467"/>
</g>
<!-- Node23 -->
<g id="node23" class="node"><title>Node23</title>
<g id="a_node23"><a xlink:href="image_8hpp.html" target="_top" xlink:title="Image class. ">
<polygon fill="white" stroke="black" points="97.4737,-112.5 97.4737,-131.5 196.474,-131.5 196.474,-112.5 97.4737,-112.5"/>
<text text-anchor="middle" x="146.974" y="-119.5" font-family="Helvetica,sans-Serif" font-size="10.00">boost/ui/image.hpp</text>
</a>
</g>
</g>
<!-- Node1&#45;&gt;Node23 -->
<g id="edge23" class="edge"><title>Node1&#45;&gt;Node23</title>
<path fill="none" stroke="midnightblue" d="M115.983,-215.189C119.545,-206.986 123.67,-197.077 126.974,-188 134.241,-168.029 141.176,-144.007 144.654,-131.504"/>
<polygon fill="midnightblue" stroke="midnightblue" points="112.72,-213.915 111.877,-224.476 119.122,-216.745 112.72,-213.915"/>
</g>
<!-- Node24 -->
<g id="node24" class="node"><title>Node24</title>
<g id="a_node24"><a xlink:href="event_8hpp.html" target="_top" xlink:title="Event classes. ">
<polygon fill="white" stroke="black" points="21.4737,-168.5 21.4737,-187.5 118.474,-187.5 118.474,-168.5 21.4737,-168.5"/>
<text text-anchor="middle" x="69.9737" y="-175.5" font-family="Helvetica,sans-Serif" font-size="10.00">boost/ui/event.hpp</text>
</a>
</g>
</g>
<!-- Node1&#45;&gt;Node24 -->
<g id="edge26" class="edge"><title>Node1&#45;&gt;Node24</title>
<path fill="none" stroke="midnightblue" d="M95.9089,-215.855C89.3289,-206.505 81.4627,-195.327 76.1318,-187.751"/>
<polygon fill="midnightblue" stroke="midnightblue" points="93.0814,-217.919 101.699,-224.083 98.8061,-213.891 93.0814,-217.919"/>
</g>
<!-- Node3 -->
<g id="node3" class="node"><title>Node3</title>
<g id="a_node3"><a xlink:href="webview_8hpp.html" target="_top" xlink:title="WebView widget. ">
<polygon fill="white" stroke="black" points="1335.47,-56.5 1335.47,-75.5 1446.47,-75.5 1446.47,-56.5 1335.47,-56.5"/>
<text text-anchor="middle" x="1390.97" y="-63.5" font-family="Helvetica,sans-Serif" font-size="10.00">boost/ui/webview.hpp</text>
</a>
</g>
</g>
<!-- Node2&#45;&gt;Node3 -->
<g id="edge2" class="edge"><title>Node2&#45;&gt;Node3</title>
<path fill="none" stroke="midnightblue" d="M1141.93,-110.664C1200.13,-100.459 1288.09,-85.0386 1342.4,-75.5164"/>
<polygon fill="midnightblue" stroke="midnightblue" points="1141.02,-107.269 1131.78,-112.444 1142.23,-114.164 1141.02,-107.269"/>
</g>
<!-- Node4 -->
<g id="node4" class="node"><title>Node4</title>
<g id="a_node4"><a xlink:href="textbox_8hpp.html" target="_top" xlink:title="Text editor widgets. ">
<polygon fill="white" stroke="black" points="1464.47,-56.5 1464.47,-75.5 1569.47,-75.5 1569.47,-56.5 1464.47,-56.5"/>
<text text-anchor="middle" x="1516.97" y="-63.5" font-family="Helvetica,sans-Serif" font-size="10.00">boost/ui/textbox.hpp</text>
</a>
</g>
</g>
<!-- Node2&#45;&gt;Node4 -->
<g id="edge3" class="edge"><title>Node2&#45;&gt;Node4</title>
<path fill="none" stroke="midnightblue" d="M1143.76,-114.166C1217.64,-105.744 1346.07,-90.7347 1455.97,-76 1458.73,-75.6302 1461.56,-75.2426 1464.41,-74.8448"/>
<polygon fill="midnightblue" stroke="midnightblue" points="1143.25,-110.702 1133.71,-115.31 1144.04,-117.657 1143.25,-110.702"/>
</g>
<!-- Node5 -->
<g id="node5" class="node"><title>Node5</title>
<g id="a_node5"><a xlink:href="stringsbox_8hpp.html" target="_top" xlink:title="Widget with array of strings. ">
<polygon fill="white" stroke="black" points="1625.97,-56.5 1625.97,-75.5 1743.97,-75.5 1743.97,-56.5 1625.97,-56.5"/>
<text text-anchor="middle" x="1684.97" y="-63.5" font-family="Helvetica,sans-Serif" font-size="10.00">boost/ui/stringsbox.hpp</text>
</a>
</g>
</g>
<!-- Node2&#45;&gt;Node5 -->
<g id="edge4" class="edge"><title>Node2&#45;&gt;Node5</title>
<path fill="none" stroke="midnightblue" d="M1143.8,-116.577C1242.26,-109.249 1442.64,-93.6347 1611.97,-76 1616.42,-75.5371 1621.01,-75.0325 1625.63,-74.5063"/>
<polygon fill="midnightblue" stroke="midnightblue" points="1143.44,-113.094 1133.73,-117.324 1143.96,-120.075 1143.44,-113.094"/>
</g>
<!-- Node2&#45;&gt;Node8 -->
<g id="edge22" class="edge"><title>Node2&#45;&gt;Node8</title>
<path fill="none" stroke="midnightblue" d="M1143.96,-119.971C1270.06,-117.209 1550.15,-107.553 1578.97,-76 1584.97,-69.4368 1585.17,-62.3778 1578.97,-56 1552.29,-28.5104 321.978,-13.8356 96.3256,-11.373"/>
<polygon fill="midnightblue" stroke="midnightblue" points="1143.62,-116.477 1133.7,-120.188 1143.77,-123.475 1143.62,-116.477"/>
</g>
<!-- Node9 -->
<g id="node9" class="node"><title>Node9</title>
<g id="a_node9"><a xlink:href="slider_8hpp.html" target="_top" xlink:title="Slider widget. ">
<polygon fill="white" stroke="black" points="1761.97,-56.5 1761.97,-75.5 1857.97,-75.5 1857.97,-56.5 1761.97,-56.5"/>
<text text-anchor="middle" x="1809.97" y="-63.5" font-family="Helvetica,sans-Serif" font-size="10.00">boost/ui/slider.hpp</text>
</a>
</g>
</g>
<!-- Node2&#45;&gt;Node9 -->
<g id="edge8" class="edge"><title>Node2&#45;&gt;Node9</title>
<path fill="none" stroke="midnightblue" d="M1143.8,-118.74C1261.64,-113.958 1529.18,-101.132 1752.97,-76 1755.86,-75.6758 1758.83,-75.3095 1761.81,-74.9149"/>
<polygon fill="midnightblue" stroke="midnightblue" points="1143.39,-115.254 1133.54,-119.151 1143.67,-122.248 1143.39,-115.254"/>
</g>
<!-- Node10 -->
<g id="node10" class="node"><title>Node10</title>
<g id="a_node10"><a xlink:href="progressbar_8hpp.html" target="_top" xlink:title="Progress bar widget. ">
<polygon fill="white" stroke="black" points="1875.97,-56.5 1875.97,-75.5 1999.97,-75.5 1999.97,-56.5 1875.97,-56.5"/>
<text text-anchor="middle" x="1937.97" y="-63.5" font-family="Helvetica,sans-Serif" font-size="10.00">boost/ui/progressbar.hpp</text>
</a>
</g>
</g>
<!-- Node2&#45;&gt;Node10 -->
<g id="edge9" class="edge"><title>Node2&#45;&gt;Node10</title>
<path fill="none" stroke="midnightblue" d="M1143.81,-118.934C1275.74,-114.14 1597.98,-100.739 1866.97,-76 1869.82,-75.7383 1872.73,-75.4509 1875.66,-75.1447"/>
<polygon fill="midnightblue" stroke="midnightblue" points="1143.38,-115.447 1133.51,-119.304 1143.63,-122.442 1143.38,-115.447"/>
</g>
<!-- Node11 -->
<g id="node11" class="node"><title>Node11</title>
<g id="a_node11"><a xlink:href="panel_8hpp.html" target="_top" xlink:title="Panel widget. ">
<polygon fill="white" stroke="black" points="2017.97,-56.5 2017.97,-75.5 2113.97,-75.5 2113.97,-56.5 2017.97,-56.5"/>
<text text-anchor="middle" x="2065.97" y="-63.5" font-family="Helvetica,sans-Serif" font-size="10.00">boost/ui/panel.hpp</text>
</a>
</g>
</g>
<!-- Node2&#45;&gt;Node11 -->
<g id="edge10" class="edge"><title>Node2&#45;&gt;Node11</title>
<path fill="none" stroke="midnightblue" d="M1143.81,-120.315C1292.12,-118.15 1683.95,-109.458 2008.97,-76 2011.86,-75.7025 2014.83,-75.3569 2017.82,-74.9779"/>
<polygon fill="midnightblue" stroke="midnightblue" points="1143.51,-116.818 1133.56,-120.459 1143.61,-123.818 1143.51,-116.818"/>
</g>
<!-- Node12 -->
<g id="node12" class="node"><title>Node12</title>
<g id="a_node12"><a xlink:href="notebook_8hpp.html" target="_top" xlink:title="Notebook widget. ">
<polygon fill="white" stroke="black" points="2132.47,-56.5 2132.47,-75.5 2245.47,-75.5 2245.47,-56.5 2132.47,-56.5"/>
<text text-anchor="middle" x="2188.97" y="-63.5" font-family="Helvetica,sans-Serif" font-size="10.00">boost/ui/notebook.hpp</text>
</a>
</g>
</g>
<!-- Node2&#45;&gt;Node12 -->
<g id="edge11" class="edge"><title>Node2&#45;&gt;Node12</title>
<path fill="none" stroke="midnightblue" d="M1143.83,-120.327C1304.27,-118.129 1751.99,-109.249 2122.97,-76 2125.97,-75.7316 2129.04,-75.4249 2132.13,-75.0904"/>
<polygon fill="midnightblue" stroke="midnightblue" points="1143.63,-116.829 1133.68,-120.462 1143.72,-123.829 1143.63,-116.829"/>
</g>
<!-- Node13 -->
<g id="node13" class="node"><title>Node13</title>
<g id="a_node13"><a xlink:href="menu_8hpp.html" target="_top" xlink:title="Menu classes. ">
<polygon fill="white" stroke="black" points="240.474,-56.5 240.474,-75.5 337.474,-75.5 337.474,-56.5 240.474,-56.5"/>
<text text-anchor="middle" x="288.974" y="-63.5" font-family="Helvetica,sans-Serif" font-size="10.00">boost/ui/menu.hpp</text>
</a>
</g>
</g>
<!-- Node2&#45;&gt;Node13 -->
<g id="edge12" class="edge"><title>Node2&#45;&gt;Node13</title>
<path fill="none" stroke="midnightblue" d="M1022.11,-119.253C895.78,-115.194 596.037,-103.313 345.974,-76 343.285,-75.7063 340.529,-75.3744 337.75,-75.0157"/>
<polygon fill="midnightblue" stroke="midnightblue" points="1022.24,-122.759 1032.35,-119.577 1022.46,-115.762 1022.24,-122.759"/>
</g>
<!-- Node14 -->
<g id="node14" class="node"><title>Node14</title>
<g id="a_node14"><a xlink:href="line_8hpp.html" target="_top" xlink:title="line widget ">
<polygon fill="white" stroke="black" points="354.974,-56.5 354.974,-75.5 442.974,-75.5 442.974,-56.5 354.974,-56.5"/>
<text text-anchor="middle" x="398.974" y="-63.5" font-family="Helvetica,sans-Serif" font-size="10.00">boost/ui/line.hpp</text>
</a>
</g>
</g>
<!-- Node2&#45;&gt;Node14 -->
<g id="edge13" class="edge"><title>Node2&#45;&gt;Node14</title>
<path fill="none" stroke="midnightblue" d="M1021.94,-118.617C909.079,-113.775 660.281,-101.054 451.974,-76 449.101,-75.6545 446.147,-75.2607 443.173,-74.8354"/>
<polygon fill="midnightblue" stroke="midnightblue" points="1021.96,-122.122 1032.1,-119.048 1022.26,-115.128 1021.96,-122.122"/>
</g>
<!-- Node15 -->
<g id="node15" class="node"><title>Node15</title>
<g id="a_node15"><a xlink:href="label_8hpp.html" target="_top" xlink:title="Label widget. ">
<polygon fill="white" stroke="black" points="460.474,-56.5 460.474,-75.5 553.474,-75.5 553.474,-56.5 460.474,-56.5"/>
<text text-anchor="middle" x="506.974" y="-63.5" font-family="Helvetica,sans-Serif" font-size="10.00">boost/ui/label.hpp</text>
</a>
</g>
</g>
<!-- Node2&#45;&gt;Node15 -->
<g id="edge14" class="edge"><title>Node2&#45;&gt;Node15</title>
<path fill="none" stroke="midnightblue" d="M1021.93,-117.238C924.459,-110.892 727.777,-96.6957 561.974,-76 559.285,-75.6644 556.527,-75.2946 553.747,-74.902"/>
<polygon fill="midnightblue" stroke="midnightblue" points="1021.97,-120.748 1032.18,-117.9 1022.43,-113.763 1021.97,-120.748"/>
</g>
<!-- Node16 -->
<g id="node16" class="node"><title>Node16</title>
<g id="a_node16"><a xlink:href="image__widget_8hpp.html" target="_top" xlink:title="Image widget. ">
<polygon fill="white" stroke="black" points="89.4737,-56.5 89.4737,-75.5 222.474,-75.5 222.474,-56.5 89.4737,-56.5"/>
<text text-anchor="middle" x="155.974" y="-63.5" font-family="Helvetica,sans-Serif" font-size="10.00">boost/ui/image_widget.hpp</text>
</a>
</g>
</g>
<!-- Node2&#45;&gt;Node16 -->
<g id="edge15" class="edge"><title>Node2&#45;&gt;Node16</title>
<path fill="none" stroke="midnightblue" d="M1021.96,-119.136C882.075,-114.566 527.507,-101.286 231.974,-76 228.929,-75.7395 225.818,-75.4531 222.677,-75.1477"/>
<polygon fill="midnightblue" stroke="midnightblue" points="1021.95,-122.638 1032.06,-119.463 1022.17,-115.641 1021.95,-122.638"/>
</g>
<!-- Node17 -->
<g id="node17" class="node"><title>Node17</title>
<g id="a_node17"><a xlink:href="hyperlink_8hpp.html" target="_top" xlink:title="Hyperlink widget. ">
<polygon fill="white" stroke="black" points="570.974,-56.5 570.974,-75.5 682.974,-75.5 682.974,-56.5 570.974,-56.5"/>
<text text-anchor="middle" x="626.974" y="-63.5" font-family="Helvetica,sans-Serif" font-size="10.00">boost/ui/hyperlink.hpp</text>
</a>
</g>
</g>
<!-- Node2&#45;&gt;Node17 -->
<g id="edge16" class="edge"><title>Node2&#45;&gt;Node17</title>
<path fill="none" stroke="midnightblue" d="M1022.48,-114.412C945.777,-105.968 809.467,-90.6619 692.974,-76 689.761,-75.5957 686.462,-75.1721 683.133,-74.7383"/>
<polygon fill="midnightblue" stroke="midnightblue" points="1022.13,-117.894 1032.45,-115.507 1022.89,-110.936 1022.13,-117.894"/>
</g>
<!-- Node18 -->
<g id="node18" class="node"><title>Node18</title>
<g id="a_node18"><a xlink:href="groupbox_8hpp.html" target="_top" xlink:title="Group box widget. ">
<polygon fill="white" stroke="black" points="701.474,-56.5 701.474,-75.5 814.474,-75.5 814.474,-56.5 701.474,-56.5"/>
<text text-anchor="middle" x="757.974" y="-63.5" font-family="Helvetica,sans-Serif" font-size="10.00">boost/ui/groupbox.hpp</text>
</a>
</g>
</g>
<!-- Node2&#45;&gt;Node18 -->
<g id="edge17" class="edge"><title>Node2&#45;&gt;Node18</title>
<path fill="none" stroke="midnightblue" d="M1022.25,-110.911C960.84,-100.707 866.972,-85.1105 809.202,-75.5118"/>
<polygon fill="midnightblue" stroke="midnightblue" points="1021.75,-114.376 1032.19,-112.562 1022.9,-107.471 1021.75,-114.376"/>
</g>
<!-- Node19 -->
<g id="node19" class="node"><title>Node19</title>
<g id="a_node19"><a xlink:href="datetime_8hpp.html" target="_top" xlink:title="Date and time pickers. ">
<polygon fill="white" stroke="black" points="832.974,-56.5 832.974,-75.5 942.974,-75.5 942.974,-56.5 832.974,-56.5"/>
<text text-anchor="middle" x="887.974" y="-63.5" font-family="Helvetica,sans-Serif" font-size="10.00">boost/ui/datetime.hpp</text>
</a>
</g>
</g>
<!-- Node2&#45;&gt;Node19 -->
<g id="edge18" class="edge"><title>Node2&#45;&gt;Node19</title>
<path fill="none" stroke="midnightblue" d="M1042.16,-109.699C1005.36,-99.507 952.045,-84.7429 918.727,-75.5164"/>
<polygon fill="midnightblue" stroke="midnightblue" points="1041.5,-113.148 1052.08,-112.444 1043.37,-106.402 1041.5,-113.148"/>
</g>
<!-- Node20 -->
<g id="node20" class="node"><title>Node20</title>
<g id="a_node20"><a xlink:href="checkbox_8hpp.html" target="_top" xlink:title="Checkbox widget. ">
<polygon fill="white" stroke="black" points="961.474,-56.5 961.474,-75.5 1076.47,-75.5 1076.47,-56.5 961.474,-56.5"/>
<text text-anchor="middle" x="1018.97" y="-63.5" font-family="Helvetica,sans-Serif" font-size="10.00">boost/ui/checkbox.hpp</text>
</a>
</g>
</g>
<!-- Node2&#45;&gt;Node20 -->
<g id="edge19" class="edge"><title>Node2&#45;&gt;Node20</title>
<path fill="none" stroke="midnightblue" d="M1064.98,-105.82C1053.52,-96.1452 1039.06,-83.9481 1029.44,-75.8339"/>
<polygon fill="midnightblue" stroke="midnightblue" points="1062.79,-108.55 1072.69,-112.324 1067.31,-103.2 1062.79,-108.55"/>
</g>
<!-- Node21 -->
<g id="node21" class="node"><title>Node21</title>
<g id="a_node21"><a xlink:href="canvas_8hpp.html" target="_top" xlink:title="Canvas widget. ">
<polygon fill="white" stroke="black" points="1094.97,-56.5 1094.97,-75.5 1198.97,-75.5 1198.97,-56.5 1094.97,-56.5"/>
<text text-anchor="middle" x="1146.97" y="-63.5" font-family="Helvetica,sans-Serif" font-size="10.00">boost/ui/canvas.hpp</text>
</a>
</g>
</g>
<!-- Node2&#45;&gt;Node21 -->
<g id="edge20" class="edge"><title>Node2&#45;&gt;Node21</title>
<path fill="none" stroke="midnightblue" d="M1100.97,-105.82C1112.43,-96.1452 1126.89,-83.9481 1136.5,-75.8339"/>
<polygon fill="midnightblue" stroke="midnightblue" points="1098.64,-103.2 1093.26,-112.324 1103.16,-108.55 1098.64,-103.2"/>
</g>
<!-- Node22 -->
<g id="node22" class="node"><title>Node22</title>
<g id="a_node22"><a xlink:href="button_8hpp.html" target="_top" xlink:title="Button widget. ">
<polygon fill="white" stroke="black" points="1216.97,-56.5 1216.97,-75.5 1316.97,-75.5 1316.97,-56.5 1216.97,-56.5"/>
<text text-anchor="middle" x="1266.97" y="-63.5" font-family="Helvetica,sans-Serif" font-size="10.00">boost/ui/button.hpp</text>
</a>
</g>
</g>
<!-- Node2&#45;&gt;Node22 -->
<g id="edge21" class="edge"><title>Node2&#45;&gt;Node22</title>
<path fill="none" stroke="midnightblue" d="M1121.93,-109.568C1156.64,-99.381 1206.65,-84.7034 1237.95,-75.5164"/>
<polygon fill="midnightblue" stroke="midnightblue" points="1120.74,-106.269 1112.13,-112.444 1122.71,-112.986 1120.74,-106.269"/>
</g>
<!-- Node6 -->
<g id="node6" class="node"><title>Node6</title>
<g id="a_node6"><a xlink:href="combobox_8hpp.html" target="_top" xlink:title="Combobox widget. ">
<polygon fill="white" stroke="black" points="1561.97,-0.5 1561.97,-19.5 1679.97,-19.5 1679.97,-0.5 1561.97,-0.5"/>
<text text-anchor="middle" x="1620.97" y="-7.5" font-family="Helvetica,sans-Serif" font-size="10.00">boost/ui/combobox.hpp</text>
</a>
</g>
</g>
<!-- Node5&#45;&gt;Node6 -->
<g id="edge5" class="edge"><title>Node5&#45;&gt;Node6</title>
<path fill="none" stroke="midnightblue" d="M1666.98,-49.8197C1655.52,-40.1452 1641.06,-27.9481 1631.44,-19.8339"/>
<polygon fill="midnightblue" stroke="midnightblue" points="1664.79,-52.5502 1674.69,-56.324 1669.31,-47.2002 1664.79,-52.5502"/>
</g>
<!-- Node7 -->
<g id="node7" class="node"><title>Node7</title>
<g id="a_node7"><a xlink:href="choice_8hpp.html" target="_top" xlink:title="Choice widget. ">
<polygon fill="white" stroke="black" points="1698.47,-0.5 1698.47,-19.5 1799.47,-19.5 1799.47,-0.5 1698.47,-0.5"/>
<text text-anchor="middle" x="1748.97" y="-7.5" font-family="Helvetica,sans-Serif" font-size="10.00">boost/ui/choice.hpp</text>
</a>
</g>
</g>
<!-- Node5&#45;&gt;Node7 -->
<g id="edge6" class="edge"><title>Node5&#45;&gt;Node7</title>
<path fill="none" stroke="midnightblue" d="M1702.97,-49.8197C1714.43,-40.1452 1728.89,-27.9481 1738.5,-19.8339"/>
<polygon fill="midnightblue" stroke="midnightblue" points="1700.64,-47.2002 1695.26,-56.324 1705.16,-52.5502 1700.64,-47.2002"/>
</g>
<!-- Node5&#45;&gt;Node8 -->
<g id="edge7" class="edge"><title>Node5&#45;&gt;Node8</title>
<path fill="none" stroke="midnightblue" d="M1615.34,-56.2677C1614.21,-56.174 1613.09,-56.0847 1611.97,-56 1006.26,-9.97609 264.202,-10.1173 95.9812,-10.8042"/>
<polygon fill="midnightblue" stroke="midnightblue" points="1615.38,-59.7859 1625.66,-57.2158 1616.02,-52.8152 1615.38,-59.7859"/>
</g>
<!-- Node23&#45;&gt;Node8 -->
<g id="edge25" class="edge"><title>Node23&#45;&gt;Node8</title>
<path fill="none" stroke="midnightblue" d="M118.281,-107.619C104.897,-100.057 89.7914,-89.4125 79.9737,-76 67.335,-58.7337 63.0637,-33.1649 61.6505,-19.8256"/>
<polygon fill="midnightblue" stroke="midnightblue" points="116.714,-110.75 127.186,-112.358 120.003,-104.571 116.714,-110.75"/>
</g>
<!-- Node23&#45;&gt;Node16 -->
<g id="edge24" class="edge"><title>Node23&#45;&gt;Node16</title>
<path fill="none" stroke="midnightblue" d="M150.124,-102.101C151.618,-93.1357 153.331,-82.8579 154.515,-75.7511"/>
<polygon fill="midnightblue" stroke="midnightblue" points="146.652,-101.644 148.46,-112.083 153.556,-102.794 146.652,-101.644"/>
</g>
<!-- Node24&#45;&gt;Node2 -->
<g id="edge27" class="edge"><title>Node24&#45;&gt;Node2</title>
<path fill="none" stroke="midnightblue" d="M128.655,-173.872C310.457,-164.181 862.3,-134.763 1032.47,-125.692"/>
<polygon fill="midnightblue" stroke="midnightblue" points="128.291,-170.386 118.491,-174.414 128.664,-177.376 128.291,-170.386"/>
</g>
<!-- Node24&#45;&gt;Node8 -->
<g id="edge28" class="edge"><title>Node24&#45;&gt;Node8</title>
<path fill="none" stroke="midnightblue" d="M68.9397,-157.93C66.9874,-121.92 62.8296,-45.2312 61.4382,-19.5681"/>
<polygon fill="midnightblue" stroke="midnightblue" points="65.4534,-158.279 69.4898,-168.075 72.4432,-157.9 65.4534,-158.279"/>
</g>
</g>
</svg>
