<?xml version="1.0" encoding="UTF-8" standalone="no"?>
<!DOCTYPE svg PUBLIC "-//W3C//DTD SVG 1.1//EN"
 "http://www.w3.org/Graphics/SVG/1.1/DTD/svg11.dtd">
<!-- Generated by graphviz version 2.38.0 (20140413.2041)
 -->
<!-- Title: boost/ui/coord.hpp Pages: 1 -->
<svg width="2505pt" height="196pt"
 viewBox="0.00 0.00 2505.32 196.00" xmlns="http://www.w3.org/2000/svg" xmlns:xlink="http://www.w3.org/1999/xlink">
<g id="graph0" class="graph" transform="scale(1 1) rotate(0) translate(4 192)">
<title>boost/ui/coord.hpp</title>
<polygon fill="white" stroke="none" points="-4,4 -4,-192 2501.32,-192 2501.32,4 -4,4"/>
<!-- Node1 -->
<g id="node1" class="node"><title>Node1</title>
<polygon fill="#bfbfbf" stroke="black" points="2331,-168.5 2331,-187.5 2428,-187.5 2428,-168.5 2331,-168.5"/>
<text text-anchor="middle" x="2379.5" y="-175.5" font-family="Helvetica,sans-Serif" font-size="10.00">boost/ui/coord.hpp</text>
</g>
<!-- Node2 -->
<g id="node2" class="node"><title>Node2</title>
<g id="a_node2"><a xlink:href="widget_8hpp.html" target="_top" xlink:title="Widget class. ">
<polygon fill="white" stroke="black" points="1257,-112.5 1257,-131.5 1358,-131.5 1358,-112.5 1257,-112.5"/>
<text text-anchor="middle" x="1307.5" y="-119.5" font-family="Helvetica,sans-Serif" font-size="10.00">boost/ui/widget.hpp</text>
</a>
</g>
</g>
<!-- Node1&#45;&gt;Node2 -->
<g id="edge1" class="edge"><title>Node1&#45;&gt;Node2</title>
<path fill="none" stroke="midnightblue" d="M2320.58,-174.032C2130.56,-164.46 1535.95,-134.508 1358.18,-125.553"/>
<polygon fill="midnightblue" stroke="midnightblue" points="2320.49,-177.532 2330.65,-174.539 2320.84,-170.541 2320.49,-177.532"/>
</g>
<!-- Node8 -->
<g id="node8" class="node"><title>Node8</title>
<g id="a_node8"><a xlink:href="ui_8hpp.html" target="_top" xlink:title="Master Boost.UI file. ">
<polygon fill="white" stroke="black" points="2191.5,-0.5 2191.5,-19.5 2261.5,-19.5 2261.5,-0.5 2191.5,-0.5"/>
<text text-anchor="middle" x="2226.5" y="-7.5" font-family="Helvetica,sans-Serif" font-size="10.00">boost/ui.hpp</text>
</a>
</g>
</g>
<!-- Node1&#45;&gt;Node8 -->
<g id="edge31" class="edge"><title>Node1&#45;&gt;Node8</title>
<path fill="none" stroke="midnightblue" d="M2438.4,-166.78C2472.77,-157.62 2507.1,-141.003 2494.5,-112 2456.55,-24.671 2325.41,-11.4774 2261.74,-10.3727"/>
<polygon fill="midnightblue" stroke="midnightblue" points="2437.14,-163.486 2428.27,-169.279 2438.81,-170.283 2437.14,-163.486"/>
</g>
<!-- Node24 -->
<g id="node24" class="node"><title>Node24</title>
<g id="a_node24"><a xlink:href="image_8hpp.html" target="_top" xlink:title="Image class. ">
<polygon fill="white" stroke="black" points="2272,-112.5 2272,-131.5 2371,-131.5 2371,-112.5 2272,-112.5"/>
<text text-anchor="middle" x="2321.5" y="-119.5" font-family="Helvetica,sans-Serif" font-size="10.00">boost/ui/image.hpp</text>
</a>
</g>
</g>
<!-- Node1&#45;&gt;Node24 -->
<g id="edge26" class="edge"><title>Node1&#45;&gt;Node24</title>
<path fill="none" stroke="midnightblue" d="M2362.59,-161.253C2352.3,-151.673 2339.53,-139.791 2330.99,-131.834"/>
<polygon fill="midnightblue" stroke="midnightblue" points="2360.48,-164.071 2370.18,-168.324 2365.25,-158.948 2360.48,-164.071"/>
</g>
<!-- Node25 -->
<g id="node25" class="node"><title>Node25</title>
<g id="a_node25"><a xlink:href="event_8hpp.html" target="_top" xlink:title="Event classes. ">
<polygon fill="white" stroke="black" points="2389,-112.5 2389,-131.5 2486,-131.5 2486,-112.5 2389,-112.5"/>
<text text-anchor="middle" x="2437.5" y="-119.5" font-family="Helvetica,sans-Serif" font-size="10.00">boost/ui/event.hpp</text>
</a>
</g>
</g>
<!-- Node1&#45;&gt;Node25 -->
<g id="edge29" class="edge"><title>Node1&#45;&gt;Node25</title>
<path fill="none" stroke="midnightblue" d="M2396.41,-161.253C2406.7,-151.673 2419.47,-139.791 2428.01,-131.834"/>
<polygon fill="midnightblue" stroke="midnightblue" points="2393.75,-158.948 2388.82,-168.324 2398.52,-164.071 2393.75,-158.948"/>
</g>
<!-- Node3 -->
<g id="node3" class="node"><title>Node3</title>
<g id="a_node3"><a xlink:href="web__widget_8hpp.html" target="_top" xlink:title="Web widget. ">
<polygon fill="white" stroke="black" points="1692,-56.5 1692,-75.5 1817,-75.5 1817,-56.5 1692,-56.5"/>
<text text-anchor="middle" x="1754.5" y="-63.5" font-family="Helvetica,sans-Serif" font-size="10.00">boost/ui/web_widget.hpp</text>
</a>
</g>
</g>
<!-- Node2&#45;&gt;Node3 -->
<g id="edge2" class="edge"><title>Node2&#45;&gt;Node3</title>
<path fill="none" stroke="midnightblue" d="M1368.25,-113.803C1442.43,-104.994 1571.7,-89.5732 1682.5,-76 1685.5,-75.6324 1688.57,-75.2546 1691.67,-74.8718"/>
<polygon fill="midnightblue" stroke="midnightblue" points="1367.67,-110.347 1358.16,-115.001 1368.5,-117.298 1367.67,-110.347"/>
</g>
<!-- Node4 -->
<g id="node4" class="node"><title>Node4</title>
<g id="a_node4"><a xlink:href="text__box_8hpp.html" target="_top" xlink:title="Text editor widgets. ">
<polygon fill="white" stroke="black" points="1835.5,-56.5 1835.5,-75.5 1945.5,-75.5 1945.5,-56.5 1835.5,-56.5"/>
<text text-anchor="middle" x="1890.5" y="-63.5" font-family="Helvetica,sans-Serif" font-size="10.00">boost/ui/text_box.hpp</text>
</a>
</g>
</g>
<!-- Node2&#45;&gt;Node4 -->
<g id="edge3" class="edge"><title>Node2&#45;&gt;Node4</title>
<path fill="none" stroke="midnightblue" d="M1368.52,-116.711C1465.48,-109.668 1660.62,-94.5639 1825.5,-76 1828.67,-75.6431 1831.92,-75.2566 1835.21,-74.8513"/>
<polygon fill="midnightblue" stroke="midnightblue" points="1368.04,-113.236 1358.32,-117.448 1368.54,-120.218 1368.04,-113.236"/>
</g>
<!-- Node5 -->
<g id="node5" class="node"><title>Node5</title>
<g id="a_node5"><a xlink:href="strings__box_8hpp.html" target="_top" xlink:title="Widget with array of strings. ">
<polygon fill="white" stroke="black" points="54,-56.5 54,-75.5 177,-75.5 177,-56.5 54,-56.5"/>
<text text-anchor="middle" x="115.5" y="-63.5" font-family="Helvetica,sans-Serif" font-size="10.00">boost/ui/strings_box.hpp</text>
</a>
</g>
</g>
<!-- Node2&#45;&gt;Node5 -->
<g id="edge4" class="edge"><title>Node2&#45;&gt;Node5</title>
<path fill="none" stroke="midnightblue" d="M1246.68,-120.395C1078.03,-118.32 590.272,-109.633 186.5,-76 183.404,-75.7422 180.236,-75.4488 177.04,-75.1294"/>
<polygon fill="midnightblue" stroke="midnightblue" points="1246.81,-123.896 1256.85,-120.516 1246.89,-116.897 1246.81,-123.896"/>
</g>
<!-- Node2&#45;&gt;Node8 -->
<g id="edge25" class="edge"><title>Node2&#45;&gt;Node8</title>
<path fill="none" stroke="midnightblue" d="M1368.35,-119.859C1565.12,-115.923 2173.44,-101.718 2206.5,-76 2223.83,-62.5155 2226.54,-34.3126 2226.72,-19.8974"/>
<polygon fill="midnightblue" stroke="midnightblue" points="1368.11,-116.363 1358.19,-120.061 1368.25,-123.362 1368.11,-116.363"/>
</g>
<!-- Node9 -->
<g id="node9" class="node"><title>Node9</title>
<g id="a_node9"><a xlink:href="status__bar_8hpp.html" target="_top" xlink:title="Status bar class. ">
<polygon fill="white" stroke="black" points="1964,-56.5 1964,-75.5 2083,-75.5 2083,-56.5 1964,-56.5"/>
<text text-anchor="middle" x="2023.5" y="-63.5" font-family="Helvetica,sans-Serif" font-size="10.00">boost/ui/status_bar.hpp</text>
</a>
</g>
</g>
<!-- Node2&#45;&gt;Node9 -->
<g id="edge8" class="edge"><title>Node2&#45;&gt;Node9</title>
<path fill="none" stroke="midnightblue" d="M1368.34,-117.994C1483.12,-112.051 1739.43,-97.4857 1954.5,-76 1957.51,-75.6998 1960.58,-75.3724 1963.69,-75.0259"/>
<polygon fill="midnightblue" stroke="midnightblue" points="1368.14,-114.499 1358.34,-118.509 1368.5,-121.49 1368.14,-114.499"/>
</g>
<!-- Node10 -->
<g id="node10" class="node"><title>Node10</title>
<g id="a_node10"><a xlink:href="slider_8hpp.html" target="_top" xlink:title="Slider widget. ">
<polygon fill="white" stroke="black" points="195.5,-56.5 195.5,-75.5 291.5,-75.5 291.5,-56.5 195.5,-56.5"/>
<text text-anchor="middle" x="243.5" y="-63.5" font-family="Helvetica,sans-Serif" font-size="10.00">boost/ui/slider.hpp</text>
</a>
</g>
</g>
<!-- Node2&#45;&gt;Node10 -->
<g id="edge10" class="edge"><title>Node2&#45;&gt;Node10</title>
<path fill="none" stroke="midnightblue" d="M1246.4,-120.648C1089.13,-119.227 657.717,-112.068 300.5,-76 297.609,-75.7081 294.642,-75.3669 291.653,-74.9912"/>
<polygon fill="midnightblue" stroke="midnightblue" points="1246.77,-124.151 1256.8,-120.737 1246.83,-117.152 1246.77,-124.151"/>
</g>
<!-- Node11 -->
<g id="node11" class="node"><title>Node11</title>
<g id="a_node11"><a xlink:href="progress__bar_8hpp.html" target="_top" xlink:title="Progress bar widget. ">
<polygon fill="white" stroke="black" points="310,-56.5 310,-75.5 439,-75.5 439,-56.5 310,-56.5"/>
<text text-anchor="middle" x="374.5" y="-63.5" font-family="Helvetica,sans-Serif" font-size="10.00">boost/ui/progress_bar.hpp</text>
</a>
</g>
</g>
<!-- Node2&#45;&gt;Node11 -->
<g id="edge11" class="edge"><title>Node2&#45;&gt;Node11</title>
<path fill="none" stroke="midnightblue" d="M1246.42,-119.242C1105.57,-114.872 747.133,-101.951 448.5,-76 445.406,-75.7311 442.241,-75.4335 439.047,-75.115"/>
<polygon fill="midnightblue" stroke="midnightblue" points="1246.48,-122.745 1256.59,-119.554 1246.7,-115.749 1246.48,-122.745"/>
</g>
<!-- Node12 -->
<g id="node12" class="node"><title>Node12</title>
<g id="a_node12"><a xlink:href="panel_8hpp.html" target="_top" xlink:title="Panel widget. ">
<polygon fill="white" stroke="black" points="457.5,-56.5 457.5,-75.5 553.5,-75.5 553.5,-56.5 457.5,-56.5"/>
<text text-anchor="middle" x="505.5" y="-63.5" font-family="Helvetica,sans-Serif" font-size="10.00">boost/ui/panel.hpp</text>
</a>
</g>
</g>
<!-- Node2&#45;&gt;Node12 -->
<g id="edge12" class="edge"><title>Node2&#45;&gt;Node12</title>
<path fill="none" stroke="midnightblue" d="M1246.45,-119.303C1119.03,-115.323 815.59,-103.56 562.5,-76 559.612,-75.6855 556.646,-75.3267 553.658,-74.9378"/>
<polygon fill="midnightblue" stroke="midnightblue" points="1246.67,-122.811 1256.77,-119.62 1246.88,-115.814 1246.67,-122.811"/>
</g>
<!-- Node13 -->
<g id="node13" class="node"><title>Node13</title>
<g id="a_node13"><a xlink:href="notebook_8hpp.html" target="_top" xlink:title="Notebook widget. ">
<polygon fill="white" stroke="black" points="572,-56.5 572,-75.5 685,-75.5 685,-56.5 572,-56.5"/>
<text text-anchor="middle" x="628.5" y="-63.5" font-family="Helvetica,sans-Serif" font-size="10.00">boost/ui/notebook.hpp</text>
</a>
</g>
</g>
<!-- Node2&#45;&gt;Node13 -->
<g id="edge13" class="edge"><title>Node2&#45;&gt;Node13</title>
<path fill="none" stroke="midnightblue" d="M1246.69,-117.794C1136.44,-111.701 896.269,-97.1422 694.5,-76 691.51,-75.6867 688.446,-75.3441 685.355,-74.9816"/>
<polygon fill="midnightblue" stroke="midnightblue" points="1246.77,-121.303 1256.95,-118.357 1247.15,-114.314 1246.77,-121.303"/>
</g>
<!-- Node14 -->
<g id="node14" class="node"><title>Node14</title>
<g id="a_node14"><a xlink:href="menu_8hpp.html" target="_top" xlink:title="Menu classes. ">
<polygon fill="white" stroke="black" points="2101,-56.5 2101,-75.5 2198,-75.5 2198,-56.5 2101,-56.5"/>
<text text-anchor="middle" x="2149.5" y="-63.5" font-family="Helvetica,sans-Serif" font-size="10.00">boost/ui/menu.hpp</text>
</a>
</g>
</g>
<!-- Node2&#45;&gt;Node14 -->
<g id="edge14" class="edge"><title>Node2&#45;&gt;Node14</title>
<path fill="none" stroke="midnightblue" d="M1368.39,-119.508C1500.43,-115.832 1822.88,-104.483 2091.5,-76 2094.54,-75.6777 2097.66,-75.3073 2100.81,-74.9045"/>
<polygon fill="midnightblue" stroke="midnightblue" points="1367.98,-116.017 1358.08,-119.79 1368.18,-123.015 1367.98,-116.017"/>
</g>
<!-- Node15 -->
<g id="node15" class="node"><title>Node15</title>
<g id="a_node15"><a xlink:href="line_8hpp.html" target="_top" xlink:title="line widget ">
<polygon fill="white" stroke="black" points="703.5,-56.5 703.5,-75.5 791.5,-75.5 791.5,-56.5 703.5,-56.5"/>
<text text-anchor="middle" x="747.5" y="-63.5" font-family="Helvetica,sans-Serif" font-size="10.00">boost/ui/line.hpp</text>
</a>
</g>
</g>
<!-- Node2&#45;&gt;Node15 -->
<g id="edge16" class="edge"><title>Node2&#45;&gt;Node15</title>
<path fill="none" stroke="midnightblue" d="M1246.83,-117.261C1151.38,-111.011 960.445,-97.0195 799.5,-76 796.956,-75.6678 794.347,-75.3006 791.717,-74.91"/>
<polygon fill="midnightblue" stroke="midnightblue" points="1246.67,-120.758 1256.88,-117.913 1247.12,-113.773 1246.67,-120.758"/>
</g>
<!-- Node16 -->
<g id="node16" class="node"><title>Node16</title>
<g id="a_node16"><a xlink:href="label_8hpp.html" target="_top" xlink:title="Label widget. ">
<polygon fill="white" stroke="black" points="809,-56.5 809,-75.5 902,-75.5 902,-56.5 809,-56.5"/>
<text text-anchor="middle" x="855.5" y="-63.5" font-family="Helvetica,sans-Serif" font-size="10.00">boost/ui/label.hpp</text>
</a>
</g>
</g>
<!-- Node2&#45;&gt;Node16 -->
<g id="edge17" class="edge"><title>Node2&#45;&gt;Node16</title>
<path fill="none" stroke="midnightblue" d="M1246.83,-115.062C1168.85,-107.216 1029.36,-92.4507 910.5,-76 907.816,-75.6286 905.062,-75.2307 902.284,-74.8167"/>
<polygon fill="midnightblue" stroke="midnightblue" points="1246.65,-118.562 1256.95,-116.077 1247.35,-111.597 1246.65,-118.562"/>
</g>
<!-- Node17 -->
<g id="node17" class="node"><title>Node17</title>
<g id="a_node17"><a xlink:href="image__widget_8hpp.html" target="_top" xlink:title="Image widget. ">
<polygon fill="white" stroke="black" points="2255,-56.5 2255,-75.5 2388,-75.5 2388,-56.5 2255,-56.5"/>
<text text-anchor="middle" x="2321.5" y="-63.5" font-family="Helvetica,sans-Serif" font-size="10.00">boost/ui/image_widget.hpp</text>
</a>
</g>
</g>
<!-- Node2&#45;&gt;Node17 -->
<g id="edge18" class="edge"><title>Node2&#45;&gt;Node17</title>
<path fill="none" stroke="midnightblue" d="M1368.44,-119.379C1517.46,-115.127 1912.14,-102.136 2240.5,-76 2245.15,-75.6295 2249.95,-75.205 2254.79,-74.7466"/>
<polygon fill="midnightblue" stroke="midnightblue" points="1368.04,-115.889 1358.14,-119.67 1368.23,-122.886 1368.04,-115.889"/>
</g>
<!-- Node18 -->
<g id="node18" class="node"><title>Node18</title>
<g id="a_node18"><a xlink:href="hyperlink_8hpp.html" target="_top" xlink:title="Hyperlink widget. ">
<polygon fill="white" stroke="black" points="919.5,-56.5 919.5,-75.5 1031.5,-75.5 1031.5,-56.5 919.5,-56.5"/>
<text text-anchor="middle" x="975.5" y="-63.5" font-family="Helvetica,sans-Serif" font-size="10.00">boost/ui/hyperlink.hpp</text>
</a>
</g>
</g>
<!-- Node2&#45;&gt;Node18 -->
<g id="edge19" class="edge"><title>Node2&#45;&gt;Node18</title>
<path fill="none" stroke="midnightblue" d="M1246.58,-111.091C1183.9,-100.897 1087.29,-85.1834 1027.92,-75.5268"/>
<polygon fill="midnightblue" stroke="midnightblue" points="1246.28,-114.589 1256.71,-112.74 1247.41,-107.68 1246.28,-114.589"/>
</g>
<!-- Node19 -->
<g id="node19" class="node"><title>Node19</title>
<g id="a_node19"><a xlink:href="group__box_8hpp.html" target="_top" xlink:title="Group box widget. ">
<polygon fill="white" stroke="black" points="1049.5,-56.5 1049.5,-75.5 1167.5,-75.5 1167.5,-56.5 1049.5,-56.5"/>
<text text-anchor="middle" x="1108.5" y="-63.5" font-family="Helvetica,sans-Serif" font-size="10.00">boost/ui/group_box.hpp</text>
</a>
</g>
</g>
<!-- Node2&#45;&gt;Node19 -->
<g id="edge20" class="edge"><title>Node2&#45;&gt;Node19</title>
<path fill="none" stroke="midnightblue" d="M1265.85,-109.699C1228.29,-99.507 1173.89,-84.7429 1139.88,-75.5164"/>
<polygon fill="midnightblue" stroke="midnightblue" points="1265.4,-113.202 1275.97,-112.444 1267.23,-106.447 1265.4,-113.202"/>
</g>
<!-- Node20 -->
<g id="node20" class="node"><title>Node20</title>
<g id="a_node20"><a xlink:href="datetime_8hpp.html" target="_top" xlink:title="Date and time pickers. ">
<polygon fill="white" stroke="black" points="1185.5,-56.5 1185.5,-75.5 1295.5,-75.5 1295.5,-56.5 1185.5,-56.5"/>
<text text-anchor="middle" x="1240.5" y="-63.5" font-family="Helvetica,sans-Serif" font-size="10.00">boost/ui/datetime.hpp</text>
</a>
</g>
</g>
<!-- Node2&#45;&gt;Node20 -->
<g id="edge21" class="edge"><title>Node2&#45;&gt;Node20</title>
<path fill="none" stroke="midnightblue" d="M1288.67,-105.82C1276.66,-96.1452 1261.53,-83.9481 1251.46,-75.8339"/>
<polygon fill="midnightblue" stroke="midnightblue" points="1286.75,-108.774 1296.74,-112.324 1291.15,-103.324 1286.75,-108.774"/>
</g>
<!-- Node21 -->
<g id="node21" class="node"><title>Node21</title>
<g id="a_node21"><a xlink:href="check__box_8hpp.html" target="_top" xlink:title="Check box widget. ">
<polygon fill="white" stroke="black" points="1313.5,-56.5 1313.5,-75.5 1433.5,-75.5 1433.5,-56.5 1313.5,-56.5"/>
<text text-anchor="middle" x="1373.5" y="-63.5" font-family="Helvetica,sans-Serif" font-size="10.00">boost/ui/check_box.hpp</text>
</a>
</g>
</g>
<!-- Node2&#45;&gt;Node21 -->
<g id="edge22" class="edge"><title>Node2&#45;&gt;Node21</title>
<path fill="none" stroke="midnightblue" d="M1326.05,-105.82C1337.88,-96.1452 1352.79,-83.9481 1362.7,-75.8339"/>
<polygon fill="midnightblue" stroke="midnightblue" points="1323.63,-103.283 1318.1,-112.324 1328.06,-108.7 1323.63,-103.283"/>
</g>
<!-- Node22 -->
<g id="node22" class="node"><title>Node22</title>
<g id="a_node22"><a xlink:href="canvas_8hpp.html" target="_top" xlink:title="Canvas widget. ">
<polygon fill="white" stroke="black" points="1451.5,-56.5 1451.5,-75.5 1555.5,-75.5 1555.5,-56.5 1451.5,-56.5"/>
<text text-anchor="middle" x="1503.5" y="-63.5" font-family="Helvetica,sans-Serif" font-size="10.00">boost/ui/canvas.hpp</text>
</a>
</g>
</g>
<!-- Node2&#45;&gt;Node22 -->
<g id="edge23" class="edge"><title>Node2&#45;&gt;Node22</title>
<path fill="none" stroke="midnightblue" d="M1348.52,-109.699C1385.51,-99.507 1439.1,-84.7429 1472.59,-75.5164"/>
<polygon fill="midnightblue" stroke="midnightblue" points="1347.27,-106.413 1338.56,-112.444 1349.13,-113.162 1347.27,-106.413"/>
</g>
<!-- Node23 -->
<g id="node23" class="node"><title>Node23</title>
<g id="a_node23"><a xlink:href="button_8hpp.html" target="_top" xlink:title="Button widget. ">
<polygon fill="white" stroke="black" points="1573.5,-56.5 1573.5,-75.5 1673.5,-75.5 1673.5,-56.5 1573.5,-56.5"/>
<text text-anchor="middle" x="1623.5" y="-63.5" font-family="Helvetica,sans-Serif" font-size="10.00">boost/ui/button.hpp</text>
</a>
</g>
</g>
<!-- Node2&#45;&gt;Node23 -->
<g id="edge24" class="edge"><title>Node2&#45;&gt;Node23</title>
<path fill="none" stroke="midnightblue" d="M1367.61,-110.727C1427.33,-100.523 1517.83,-85.0583 1573.66,-75.5164"/>
<polygon fill="midnightblue" stroke="midnightblue" points="1366.84,-107.309 1357.57,-112.444 1368.02,-114.209 1366.84,-107.309"/>
</g>
<!-- Node6 -->
<g id="node6" class="node"><title>Node6</title>
<g id="a_node6"><a xlink:href="combo__box_8hpp.html" target="_top" xlink:title="Combo box widget. ">
<polygon fill="white" stroke="black" points="119,-0.5 119,-19.5 242,-19.5 242,-0.5 119,-0.5"/>
<text text-anchor="middle" x="180.5" y="-7.5" font-family="Helvetica,sans-Serif" font-size="10.00">boost/ui/combo_box.hpp</text>
</a>
</g>
</g>
<!-- Node5&#45;&gt;Node6 -->
<g id="edge5" class="edge"><title>Node5&#45;&gt;Node6</title>
<path fill="none" stroke="midnightblue" d="M133.773,-49.8197C145.418,-40.1452 160.099,-27.9481 169.867,-19.8339"/>
<polygon fill="midnightblue" stroke="midnightblue" points="131.399,-47.2416 125.943,-56.324 135.872,-52.6259 131.399,-47.2416"/>
</g>
<!-- Node7 -->
<g id="node7" class="node"><title>Node7</title>
<g id="a_node7"><a xlink:href="choice_8hpp.html" target="_top" xlink:title="Choice widget. ">
<polygon fill="white" stroke="black" points="0,-0.5 0,-19.5 101,-19.5 101,-0.5 0,-0.5"/>
<text text-anchor="middle" x="50.5" y="-7.5" font-family="Helvetica,sans-Serif" font-size="10.00">boost/ui/choice.hpp</text>
</a>
</g>
</g>
<!-- Node5&#45;&gt;Node7 -->
<g id="edge6" class="edge"><title>Node5&#45;&gt;Node7</title>
<path fill="none" stroke="midnightblue" d="M97.2274,-49.8197C85.5822,-40.1452 70.9005,-27.9481 61.1334,-19.8339"/>
<polygon fill="midnightblue" stroke="midnightblue" points="95.1281,-52.6259 105.057,-56.324 99.6013,-47.2416 95.1281,-52.6259"/>
</g>
<!-- Node5&#45;&gt;Node8 -->
<g id="edge7" class="edge"><title>Node5&#45;&gt;Node8</title>
<path fill="none" stroke="midnightblue" d="M187.088,-56.07C619.854,-25.2189 1956.56,-13.1804 2191.17,-11.2755"/>
<polygon fill="midnightblue" stroke="midnightblue" points="186.753,-52.585 177.034,-56.8022 187.262,-59.5665 186.753,-52.585"/>
</g>
<!-- Node9&#45;&gt;Node8 -->
<g id="edge9" class="edge"><title>Node9&#45;&gt;Node8</title>
<path fill="none" stroke="midnightblue" d="M2065.49,-53.8291C2103.82,-43.6333 2159.65,-28.7823 2194.48,-19.5164"/>
<polygon fill="midnightblue" stroke="midnightblue" points="2064.43,-50.4904 2055.67,-56.4435 2066.23,-57.2551 2064.43,-50.4904"/>
</g>
<!-- Node14&#45;&gt;Node8 -->
<g id="edge15" class="edge"><title>Node14&#45;&gt;Node8</title>
<path fill="none" stroke="midnightblue" d="M2170.4,-50.3422C2184.41,-40.5169 2202.38,-27.9132 2214.16,-19.6545"/>
<polygon fill="midnightblue" stroke="midnightblue" points="2168.05,-47.7166 2161.87,-56.324 2172.07,-53.4477 2168.05,-47.7166"/>
</g>
<!-- Node24&#45;&gt;Node8 -->
<g id="edge28" class="edge"><title>Node24&#45;&gt;Node8</title>
<path fill="none" stroke="midnightblue" d="M2355.05,-108.456C2381.96,-96.4664 2412.76,-77.13 2396.5,-56 2380.16,-34.7705 2306.33,-21.4998 2261.51,-15.2529"/>
<polygon fill="midnightblue" stroke="midnightblue" points="2353.62,-105.26 2345.77,-112.382 2356.35,-111.706 2353.62,-105.26"/>
</g>
<!-- Node24&#45;&gt;Node17 -->
<g id="edge27" class="edge"><title>Node24&#45;&gt;Node17</title>
<path fill="none" stroke="midnightblue" d="M2321.5,-101.805C2321.5,-92.9102 2321.5,-82.7798 2321.5,-75.7511"/>
<polygon fill="midnightblue" stroke="midnightblue" points="2318,-102.083 2321.5,-112.083 2325,-102.083 2318,-102.083"/>
</g>
<!-- Node25&#45;&gt;Node8 -->
<g id="edge30" class="edge"><title>Node25&#45;&gt;Node8</title>
<path fill="none" stroke="midnightblue" d="M2435.41,-102.435C2432.77,-87.7633 2426.83,-67.8452 2413.5,-56 2391.29,-36.2563 2309.56,-22.213 2261.82,-15.4883"/>
<polygon fill="midnightblue" stroke="midnightblue" points="2431.95,-103.016 2436.85,-112.412 2438.88,-102.014 2431.95,-103.016"/>
</g>
</g>
</svg>
