<?xml version="1.0" encoding="UTF-8" standalone="no"?>
<!DOCTYPE svg PUBLIC "-//W3C//DTD SVG 1.1//EN"
 "http://www.w3.org/Graphics/SVG/1.1/DTD/svg11.dtd">
<!-- Generated by graphviz version 2.38.0 (20140413.2041)
 -->
<!-- Title: boost/ui/coord.hpp Pages: 1 -->
<svg width="2491pt" height="252pt"
 viewBox="0.00 0.00 2490.75 252.00" xmlns="http://www.w3.org/2000/svg" xmlns:xlink="http://www.w3.org/1999/xlink">
<g id="graph0" class="graph" transform="scale(1 1) rotate(0) translate(4 248)">
<title>boost/ui/coord.hpp</title>
<polygon fill="white" stroke="none" points="-4,4 -4,-248 2486.75,-248 2486.75,4 -4,4"/>
<!-- Node1 -->
<g id="node1" class="node"><title>Node1</title>
<polygon fill="#bfbfbf" stroke="black" points="517.746,-224.5 517.746,-243.5 614.746,-243.5 614.746,-224.5 517.746,-224.5"/>
<text text-anchor="middle" x="566.246" y="-231.5" font-family="Helvetica,sans-Serif" font-size="10.00">boost/ui/coord.hpp</text>
</g>
<!-- Node2 -->
<g id="node2" class="node"><title>Node2</title>
<g id="a_node2"><a xlink:href="widget_8hpp.html" target="_top" xlink:title="Widget class. ">
<polygon fill="white" stroke="black" points="1045.75,-112.5 1045.75,-131.5 1146.75,-131.5 1146.75,-112.5 1045.75,-112.5"/>
<text text-anchor="middle" x="1096.25" y="-119.5" font-family="Helvetica,sans-Serif" font-size="10.00">boost/ui/widget.hpp</text>
</a>
</g>
</g>
<!-- Node1&#45;&gt;Node2 -->
<g id="edge1" class="edge"><title>Node1&#45;&gt;Node2</title>
<path fill="none" stroke="midnightblue" d="M617.412,-222.381C722.217,-200.628 959.47,-151.387 1055.12,-131.535"/>
<polygon fill="midnightblue" stroke="midnightblue" points="616.473,-219.001 607.393,-224.46 617.895,-225.855 616.473,-219.001"/>
</g>
<!-- Node8 -->
<g id="node8" class="node"><title>Node8</title>
<g id="a_node8"><a xlink:href="ui_8hpp.html" target="_top" xlink:title="Master Boost.UI file. ">
<polygon fill="white" stroke="black" points="1782.25,-0.5 1782.25,-19.5 1852.25,-19.5 1852.25,-0.5 1782.25,-0.5"/>
<text text-anchor="middle" x="1817.25" y="-7.5" font-family="Helvetica,sans-Serif" font-size="10.00">boost/ui.hpp</text>
</a>
</g>
</g>
<!-- Node1&#45;&gt;Node8 -->
<g id="edge32" class="edge"><title>Node1&#45;&gt;Node8</title>
<path fill="none" stroke="midnightblue" d="M507.532,-232.255C340.494,-228.342 -116.238,-204.163 28.2456,-56 60.0365,-23.3994 1534.71,-12.7653 1782.18,-11.2091"/>
<polygon fill="midnightblue" stroke="midnightblue" points="507.56,-235.756 517.634,-232.475 507.713,-228.758 507.56,-235.756"/>
</g>
<!-- Node24 -->
<g id="node24" class="node"><title>Node24</title>
<g id="a_node24"><a xlink:href="image_8hpp.html" target="_top" xlink:title="Image class. ">
<polygon fill="white" stroke="black" points="63.7456,-112.5 63.7456,-131.5 162.746,-131.5 162.746,-112.5 63.7456,-112.5"/>
<text text-anchor="middle" x="113.246" y="-119.5" font-family="Helvetica,sans-Serif" font-size="10.00">boost/ui/image.hpp</text>
</a>
</g>
</g>
<!-- Node1&#45;&gt;Node24 -->
<g id="edge26" class="edge"><title>Node1&#45;&gt;Node24</title>
<path fill="none" stroke="midnightblue" d="M521.148,-222.049C430.891,-200.132 229.738,-151.287 148.392,-131.535"/>
<polygon fill="midnightblue" stroke="midnightblue" points="520.533,-225.501 531.076,-224.46 522.185,-218.699 520.533,-225.501"/>
</g>
<!-- Node25 -->
<g id="node25" class="node"><title>Node25</title>
<g id="a_node25"><a xlink:href="event_8hpp.html" target="_top" xlink:title="Event classes. ">
<polygon fill="white" stroke="black" points="1047.75,-168.5 1047.75,-187.5 1144.75,-187.5 1144.75,-168.5 1047.75,-168.5"/>
<text text-anchor="middle" x="1096.25" y="-175.5" font-family="Helvetica,sans-Serif" font-size="10.00">boost/ui/event.hpp</text>
</a>
</g>
</g>
<!-- Node1&#45;&gt;Node25 -->
<g id="edge29" class="edge"><title>Node1&#45;&gt;Node25</title>
<path fill="none" stroke="midnightblue" d="M625.313,-226.982C730.843,-216.23 949.837,-193.917 1047.45,-183.971"/>
<polygon fill="midnightblue" stroke="midnightblue" points="624.75,-223.521 615.157,-228.017 625.46,-230.485 624.75,-223.521"/>
</g>
<!-- Node3 -->
<g id="node3" class="node"><title>Node3</title>
<g id="a_node3"><a xlink:href="web__widget_8hpp.html" target="_top" xlink:title="Web widget. ">
<polygon fill="white" stroke="black" points="1224.75,-56.5 1224.75,-75.5 1349.75,-75.5 1349.75,-56.5 1224.75,-56.5"/>
<text text-anchor="middle" x="1287.25" y="-63.5" font-family="Helvetica,sans-Serif" font-size="10.00">boost/ui/web_widget.hpp</text>
</a>
</g>
</g>
<!-- Node2&#45;&gt;Node3 -->
<g id="edge2" class="edge"><title>Node2&#45;&gt;Node3</title>
<path fill="none" stroke="midnightblue" d="M1136.22,-109.699C1172.27,-99.507 1224.49,-84.7429 1257.12,-75.5164"/>
<polygon fill="midnightblue" stroke="midnightblue" points="1135.18,-106.355 1126.51,-112.444 1137.09,-113.091 1135.18,-106.355"/>
</g>
<!-- Node4 -->
<g id="node4" class="node"><title>Node4</title>
<g id="a_node4"><a xlink:href="text__box_8hpp.html" target="_top" xlink:title="Text editor widgets. ">
<polygon fill="white" stroke="black" points="1368.25,-56.5 1368.25,-75.5 1478.25,-75.5 1478.25,-56.5 1368.25,-56.5"/>
<text text-anchor="middle" x="1423.25" y="-63.5" font-family="Helvetica,sans-Serif" font-size="10.00">boost/ui/text_box.hpp</text>
</a>
</g>
</g>
<!-- Node2&#45;&gt;Node4 -->
<g id="edge3" class="edge"><title>Node2&#45;&gt;Node4</title>
<path fill="none" stroke="midnightblue" d="M1156.97,-110.972C1218.71,-100.776 1313.33,-85.1512 1371.58,-75.5317"/>
<polygon fill="midnightblue" stroke="midnightblue" points="1156.28,-107.539 1146.98,-112.622 1157.42,-114.446 1156.28,-107.539"/>
</g>
<!-- Node5 -->
<g id="node5" class="node"><title>Node5</title>
<g id="a_node5"><a xlink:href="strings__box_8hpp.html" target="_top" xlink:title="Widget with array of strings. ">
<polygon fill="white" stroke="black" points="2294.75,-56.5 2294.75,-75.5 2417.75,-75.5 2417.75,-56.5 2294.75,-56.5"/>
<text text-anchor="middle" x="2356.25" y="-63.5" font-family="Helvetica,sans-Serif" font-size="10.00">boost/ui/strings_box.hpp</text>
</a>
</g>
</g>
<!-- Node2&#45;&gt;Node5 -->
<g id="edge4" class="edge"><title>Node2&#45;&gt;Node5</title>
<path fill="none" stroke="midnightblue" d="M1156.85,-119.555C1328.17,-115.272 1830.59,-101.335 2247.25,-76 2262.6,-75.0665 2279.15,-73.8228 2294.6,-72.5585"/>
<polygon fill="midnightblue" stroke="midnightblue" points="1156.68,-116.058 1146.77,-119.806 1156.85,-123.056 1156.68,-116.058"/>
</g>
<!-- Node2&#45;&gt;Node8 -->
<g id="edge25" class="edge"><title>Node2&#45;&gt;Node8</title>
<path fill="none" stroke="midnightblue" d="M1035.5,-120.122C842.615,-117.041 255.048,-105.279 227.246,-76 221.125,-69.5541 221.05,-62.3737 227.246,-56 255.292,-27.149 1550.8,-13.5267 1782.1,-11.3226"/>
<polygon fill="midnightblue" stroke="midnightblue" points="1035.69,-123.625 1045.74,-120.283 1035.8,-116.626 1035.69,-123.625"/>
</g>
<!-- Node9 -->
<g id="node9" class="node"><title>Node9</title>
<g id="a_node9"><a xlink:href="status__bar_8hpp.html" target="_top" xlink:title="Status bar class. ">
<polygon fill="white" stroke="black" points="1757.75,-56.5 1757.75,-75.5 1876.75,-75.5 1876.75,-56.5 1757.75,-56.5"/>
<text text-anchor="middle" x="1817.25" y="-63.5" font-family="Helvetica,sans-Serif" font-size="10.00">boost/ui/status_bar.hpp</text>
</a>
</g>
</g>
<!-- Node2&#45;&gt;Node9 -->
<g id="edge8" class="edge"><title>Node2&#45;&gt;Node9</title>
<path fill="none" stroke="midnightblue" d="M1157.21,-118.079C1272.85,-112.255 1531.93,-97.8471 1749.25,-76 1751.97,-75.726 1754.76,-75.4286 1757.57,-75.1142"/>
<polygon fill="midnightblue" stroke="midnightblue" points="1156.95,-114.588 1147.14,-118.583 1157.3,-121.579 1156.95,-114.588"/>
</g>
<!-- Node10 -->
<g id="node10" class="node"><title>Node10</title>
<g id="a_node10"><a xlink:href="slider_8hpp.html" target="_top" xlink:title="Slider widget. ">
<polygon fill="white" stroke="black" points="1496.25,-56.5 1496.25,-75.5 1592.25,-75.5 1592.25,-56.5 1496.25,-56.5"/>
<text text-anchor="middle" x="1544.25" y="-63.5" font-family="Helvetica,sans-Serif" font-size="10.00">boost/ui/slider.hpp</text>
</a>
</g>
</g>
<!-- Node2&#45;&gt;Node10 -->
<g id="edge10" class="edge"><title>Node2&#45;&gt;Node10</title>
<path fill="none" stroke="midnightblue" d="M1156.94,-114.813C1233.9,-106.786 1370.62,-91.9117 1487.25,-76 1490.12,-75.6073 1493.08,-75.188 1496.06,-74.7533"/>
<polygon fill="midnightblue" stroke="midnightblue" points="1156.53,-111.337 1146.95,-115.853 1157.25,-118.3 1156.53,-111.337"/>
</g>
<!-- Node11 -->
<g id="node11" class="node"><title>Node11</title>
<g id="a_node11"><a xlink:href="progress__bar_8hpp.html" target="_top" xlink:title="Progress bar widget. ">
<polygon fill="white" stroke="black" points="1610.75,-56.5 1610.75,-75.5 1739.75,-75.5 1739.75,-56.5 1610.75,-56.5"/>
<text text-anchor="middle" x="1675.25" y="-63.5" font-family="Helvetica,sans-Serif" font-size="10.00">boost/ui/progress_bar.hpp</text>
</a>
</g>
</g>
<!-- Node2&#45;&gt;Node11 -->
<g id="edge11" class="edge"><title>Node2&#45;&gt;Node11</title>
<path fill="none" stroke="midnightblue" d="M1156.82,-116.236C1251.67,-108.632 1440.98,-92.8816 1601.25,-76 1604.33,-75.6746 1607.49,-75.3311 1610.69,-74.9758"/>
<polygon fill="midnightblue" stroke="midnightblue" points="1156.52,-112.748 1146.83,-117.034 1157.08,-119.726 1156.52,-112.748"/>
</g>
<!-- Node12 -->
<g id="node12" class="node"><title>Node12</title>
<g id="a_node12"><a xlink:href="panel_8hpp.html" target="_top" xlink:title="Panel widget. ">
<polygon fill="white" stroke="black" points="2010.25,-56.5 2010.25,-75.5 2106.25,-75.5 2106.25,-56.5 2010.25,-56.5"/>
<text text-anchor="middle" x="2058.25" y="-63.5" font-family="Helvetica,sans-Serif" font-size="10.00">boost/ui/panel.hpp</text>
</a>
</g>
</g>
<!-- Node2&#45;&gt;Node12 -->
<g id="edge12" class="edge"><title>Node2&#45;&gt;Node12</title>
<path fill="none" stroke="midnightblue" d="M1157.02,-120.219C1302.95,-117.856 1684.55,-108.781 2001.25,-76 2004.14,-75.7009 2007.1,-75.354 2010.09,-74.9741"/>
<polygon fill="midnightblue" stroke="midnightblue" points="1156.87,-116.721 1146.92,-120.378 1156.98,-123.72 1156.87,-116.721"/>
</g>
<!-- Node13 -->
<g id="node13" class="node"><title>Node13</title>
<g id="a_node13"><a xlink:href="notebook_8hpp.html" target="_top" xlink:title="Notebook widget. ">
<polygon fill="white" stroke="black" points="2124.75,-56.5 2124.75,-75.5 2237.75,-75.5 2237.75,-56.5 2124.75,-56.5"/>
<text text-anchor="middle" x="2181.25" y="-63.5" font-family="Helvetica,sans-Serif" font-size="10.00">boost/ui/notebook.hpp</text>
</a>
</g>
</g>
<!-- Node2&#45;&gt;Node13 -->
<g id="edge13" class="edge"><title>Node2&#45;&gt;Node13</title>
<path fill="none" stroke="midnightblue" d="M1156.99,-120.252C1315.16,-117.887 1752.61,-108.663 2115.25,-76 2118.24,-75.7303 2121.31,-75.4225 2124.4,-75.0872"/>
<polygon fill="midnightblue" stroke="midnightblue" points="1156.93,-116.753 1146.98,-120.398 1157.03,-123.752 1156.93,-116.753"/>
</g>
<!-- Node14 -->
<g id="node14" class="node"><title>Node14</title>
<g id="a_node14"><a xlink:href="menu_8hpp.html" target="_top" xlink:title="Menu classes. ">
<polygon fill="white" stroke="black" points="1894.75,-56.5 1894.75,-75.5 1991.75,-75.5 1991.75,-56.5 1894.75,-56.5"/>
<text text-anchor="middle" x="1943.25" y="-63.5" font-family="Helvetica,sans-Serif" font-size="10.00">boost/ui/menu.hpp</text>
</a>
</g>
</g>
<!-- Node2&#45;&gt;Node14 -->
<g id="edge14" class="edge"><title>Node2&#45;&gt;Node14</title>
<path fill="none" stroke="midnightblue" d="M1157.12,-119.6C1289.87,-116.094 1615.28,-105.037 1886.25,-76 1888.94,-75.7118 1891.69,-75.3843 1894.47,-75.0289"/>
<polygon fill="midnightblue" stroke="midnightblue" points="1156.67,-116.11 1146.76,-119.869 1156.85,-123.108 1156.67,-116.11"/>
</g>
<!-- Node15 -->
<g id="node15" class="node"><title>Node15</title>
<g id="a_node15"><a xlink:href="line_8hpp.html" target="_top" xlink:title="line widget ">
<polygon fill="white" stroke="black" points="236.246,-56.5 236.246,-75.5 324.246,-75.5 324.246,-56.5 236.246,-56.5"/>
<text text-anchor="middle" x="280.246" y="-63.5" font-family="Helvetica,sans-Serif" font-size="10.00">boost/ui/line.hpp</text>
</a>
</g>
</g>
<!-- Node2&#45;&gt;Node15 -->
<g id="edge16" class="edge"><title>Node2&#45;&gt;Node15</title>
<path fill="none" stroke="midnightblue" d="M1035.44,-119.741C905.804,-116.548 592.798,-106.124 332.246,-76 329.697,-75.7054 327.084,-75.3675 324.451,-74.9994"/>
<polygon fill="midnightblue" stroke="midnightblue" points="1035.48,-123.243 1045.57,-119.985 1035.65,-116.245 1035.48,-123.243"/>
</g>
<!-- Node16 -->
<g id="node16" class="node"><title>Node16</title>
<g id="a_node16"><a xlink:href="label_8hpp.html" target="_top" xlink:title="Label widget. ">
<polygon fill="white" stroke="black" points="341.746,-56.5 341.746,-75.5 434.746,-75.5 434.746,-56.5 341.746,-56.5"/>
<text text-anchor="middle" x="388.246" y="-63.5" font-family="Helvetica,sans-Serif" font-size="10.00">boost/ui/label.hpp</text>
</a>
</g>
</g>
<!-- Node2&#45;&gt;Node16 -->
<g id="edge17" class="edge"><title>Node2&#45;&gt;Node16</title>
<path fill="none" stroke="midnightblue" d="M1035.65,-118.716C920.115,-113.943 660.474,-101.202 443.246,-76 440.555,-75.6878 437.794,-75.3362 435.012,-74.9576"/>
<polygon fill="midnightblue" stroke="midnightblue" points="1035.58,-122.216 1045.71,-119.127 1035.86,-115.222 1035.58,-122.216"/>
</g>
<!-- Node17 -->
<g id="node17" class="node"><title>Node17</title>
<g id="a_node17"><a xlink:href="image__widget_8hpp.html" target="_top" xlink:title="Image widget. ">
<polygon fill="white" stroke="black" points="46.7456,-56.5 46.7456,-75.5 179.746,-75.5 179.746,-56.5 46.7456,-56.5"/>
<text text-anchor="middle" x="113.246" y="-63.5" font-family="Helvetica,sans-Serif" font-size="10.00">boost/ui/image_widget.hpp</text>
</a>
</g>
</g>
<!-- Node2&#45;&gt;Node17 -->
<g id="edge18" class="edge"><title>Node2&#45;&gt;Node17</title>
<path fill="none" stroke="midnightblue" d="M1035.24,-119.237C889.592,-114.749 510.178,-101.409 194.246,-76 189.591,-75.6257 184.791,-75.1983 179.96,-74.7378"/>
<polygon fill="midnightblue" stroke="midnightblue" points="1035.21,-122.738 1045.32,-119.545 1035.43,-115.741 1035.21,-122.738"/>
</g>
<!-- Node18 -->
<g id="node18" class="node"><title>Node18</title>
<g id="a_node18"><a xlink:href="hyperlink_8hpp.html" target="_top" xlink:title="Hyperlink widget. ">
<polygon fill="white" stroke="black" points="452.246,-56.5 452.246,-75.5 564.246,-75.5 564.246,-56.5 452.246,-56.5"/>
<text text-anchor="middle" x="508.246" y="-63.5" font-family="Helvetica,sans-Serif" font-size="10.00">boost/ui/hyperlink.hpp</text>
</a>
</g>
</g>
<!-- Node2&#45;&gt;Node18 -->
<g id="edge19" class="edge"><title>Node2&#45;&gt;Node18</title>
<path fill="none" stroke="midnightblue" d="M1035.4,-116.792C937.776,-109.809 740.145,-94.7221 573.246,-76 570.415,-75.6825 567.518,-75.3412 564.593,-74.9837"/>
<polygon fill="midnightblue" stroke="midnightblue" points="1035.45,-120.304 1045.67,-117.523 1035.95,-113.322 1035.45,-120.304"/>
</g>
<!-- Node19 -->
<g id="node19" class="node"><title>Node19</title>
<g id="a_node19"><a xlink:href="group__box_8hpp.html" target="_top" xlink:title="Group box widget. ">
<polygon fill="white" stroke="black" points="582.246,-56.5 582.246,-75.5 700.246,-75.5 700.246,-56.5 582.246,-56.5"/>
<text text-anchor="middle" x="641.246" y="-63.5" font-family="Helvetica,sans-Serif" font-size="10.00">boost/ui/group_box.hpp</text>
</a>
</g>
</g>
<!-- Node2&#45;&gt;Node19 -->
<g id="edge20" class="edge"><title>Node2&#45;&gt;Node19</title>
<path fill="none" stroke="midnightblue" d="M1035.13,-114.196C958.825,-105.631 824.32,-90.3047 709.246,-76 706.409,-75.6474 703.507,-75.2819 700.577,-74.9089"/>
<polygon fill="midnightblue" stroke="midnightblue" points="1035.17,-117.723 1045.5,-115.359 1035.95,-110.766 1035.17,-117.723"/>
</g>
<!-- Node20 -->
<g id="node20" class="node"><title>Node20</title>
<g id="a_node20"><a xlink:href="datetime_8hpp.html" target="_top" xlink:title="Date and time pickers. ">
<polygon fill="white" stroke="black" points="718.246,-56.5 718.246,-75.5 828.246,-75.5 828.246,-56.5 718.246,-56.5"/>
<text text-anchor="middle" x="773.246" y="-63.5" font-family="Helvetica,sans-Serif" font-size="10.00">boost/ui/datetime.hpp</text>
</a>
</g>
</g>
<!-- Node2&#45;&gt;Node20 -->
<g id="edge21" class="edge"><title>Node2&#45;&gt;Node20</title>
<path fill="none" stroke="midnightblue" d="M1035.55,-110.852C974.56,-100.656 881.623,-85.1188 824.306,-75.5364"/>
<polygon fill="midnightblue" stroke="midnightblue" points="1034.98,-114.306 1045.42,-112.503 1036.14,-107.402 1034.98,-114.306"/>
</g>
<!-- Node21 -->
<g id="node21" class="node"><title>Node21</title>
<g id="a_node21"><a xlink:href="check__box_8hpp.html" target="_top" xlink:title="Check box widget. ">
<polygon fill="white" stroke="black" points="846.246,-56.5 846.246,-75.5 966.246,-75.5 966.246,-56.5 846.246,-56.5"/>
<text text-anchor="middle" x="906.246" y="-63.5" font-family="Helvetica,sans-Serif" font-size="10.00">boost/ui/check_box.hpp</text>
</a>
</g>
</g>
<!-- Node2&#45;&gt;Node21 -->
<g id="edge22" class="edge"><title>Node2&#45;&gt;Node21</title>
<path fill="none" stroke="midnightblue" d="M1056.48,-109.699C1020.62,-99.507 968.674,-84.7429 936.211,-75.5164"/>
<polygon fill="midnightblue" stroke="midnightblue" points="1055.56,-113.076 1066.14,-112.444 1057.48,-106.343 1055.56,-113.076"/>
</g>
<!-- Node22 -->
<g id="node22" class="node"><title>Node22</title>
<g id="a_node22"><a xlink:href="canvas_8hpp.html" target="_top" xlink:title="Canvas widget. ">
<polygon fill="white" stroke="black" points="984.246,-56.5 984.246,-75.5 1088.25,-75.5 1088.25,-56.5 984.246,-56.5"/>
<text text-anchor="middle" x="1036.25" y="-63.5" font-family="Helvetica,sans-Serif" font-size="10.00">boost/ui/canvas.hpp</text>
</a>
</g>
</g>
<!-- Node2&#45;&gt;Node22 -->
<g id="edge23" class="edge"><title>Node2&#45;&gt;Node22</title>
<path fill="none" stroke="midnightblue" d="M1079.06,-105.537C1068.37,-95.9087 1054.99,-83.8694 1046.06,-75.8339"/>
<polygon fill="midnightblue" stroke="midnightblue" points="1076.83,-108.236 1086.61,-112.324 1081.51,-103.033 1076.83,-108.236"/>
</g>
<!-- Node23 -->
<g id="node23" class="node"><title>Node23</title>
<g id="a_node23"><a xlink:href="button_8hpp.html" target="_top" xlink:title="Button widget. ">
<polygon fill="white" stroke="black" points="1106.25,-56.5 1106.25,-75.5 1206.25,-75.5 1206.25,-56.5 1106.25,-56.5"/>
<text text-anchor="middle" x="1156.25" y="-63.5" font-family="Helvetica,sans-Serif" font-size="10.00">boost/ui/button.hpp</text>
</a>
</g>
</g>
<!-- Node2&#45;&gt;Node23 -->
<g id="edge24" class="edge"><title>Node2&#45;&gt;Node23</title>
<path fill="none" stroke="midnightblue" d="M1113.43,-105.537C1124.12,-95.9087 1137.5,-83.8694 1146.43,-75.8339"/>
<polygon fill="midnightblue" stroke="midnightblue" points="1110.98,-103.033 1105.89,-112.324 1115.66,-108.236 1110.98,-103.033"/>
</g>
<!-- Node6 -->
<g id="node6" class="node"><title>Node6</title>
<g id="a_node6"><a xlink:href="combo__box_8hpp.html" target="_top" xlink:title="Combo box widget. ">
<polygon fill="white" stroke="black" points="2359.75,-0.5 2359.75,-19.5 2482.75,-19.5 2482.75,-0.5 2359.75,-0.5"/>
<text text-anchor="middle" x="2421.25" y="-7.5" font-family="Helvetica,sans-Serif" font-size="10.00">boost/ui/combo_box.hpp</text>
</a>
</g>
</g>
<!-- Node5&#45;&gt;Node6 -->
<g id="edge5" class="edge"><title>Node5&#45;&gt;Node6</title>
<path fill="none" stroke="midnightblue" d="M2374.52,-49.8197C2386.16,-40.1452 2400.85,-27.9481 2410.61,-19.8339"/>
<polygon fill="midnightblue" stroke="midnightblue" points="2372.14,-47.2416 2366.69,-56.324 2376.62,-52.6259 2372.14,-47.2416"/>
</g>
<!-- Node7 -->
<g id="node7" class="node"><title>Node7</title>
<g id="a_node7"><a xlink:href="choice_8hpp.html" target="_top" xlink:title="Choice widget. ">
<polygon fill="white" stroke="black" points="2240.75,-0.5 2240.75,-19.5 2341.75,-19.5 2341.75,-0.5 2240.75,-0.5"/>
<text text-anchor="middle" x="2291.25" y="-7.5" font-family="Helvetica,sans-Serif" font-size="10.00">boost/ui/choice.hpp</text>
</a>
</g>
</g>
<!-- Node5&#45;&gt;Node7 -->
<g id="edge6" class="edge"><title>Node5&#45;&gt;Node7</title>
<path fill="none" stroke="midnightblue" d="M2337.97,-49.8197C2326.33,-40.1452 2311.65,-27.9481 2301.88,-19.8339"/>
<polygon fill="midnightblue" stroke="midnightblue" points="2335.87,-52.6259 2345.8,-56.324 2340.35,-47.2416 2335.87,-52.6259"/>
</g>
<!-- Node5&#45;&gt;Node8 -->
<g id="edge7" class="edge"><title>Node5&#45;&gt;Node8</title>
<path fill="none" stroke="midnightblue" d="M2284.18,-56.4277C2282.86,-56.2829 2281.55,-56.1402 2280.25,-56 2120.66,-38.7973 1929.8,-21.1823 1852.41,-14.164"/>
<polygon fill="midnightblue" stroke="midnightblue" points="2284.13,-59.9436 2294.46,-57.573 2284.91,-52.9867 2284.13,-59.9436"/>
</g>
<!-- Node9&#45;&gt;Node8 -->
<g id="edge9" class="edge"><title>Node9&#45;&gt;Node8</title>
<path fill="none" stroke="midnightblue" d="M1817.25,-45.8045C1817.25,-36.9102 1817.25,-26.7798 1817.25,-19.7511"/>
<polygon fill="midnightblue" stroke="midnightblue" points="1813.75,-46.083 1817.25,-56.083 1820.75,-46.083 1813.75,-46.083"/>
</g>
<!-- Node14&#45;&gt;Node8 -->
<g id="edge15" class="edge"><title>Node14&#45;&gt;Node8</title>
<path fill="none" stroke="midnightblue" d="M1914.09,-52.503C1890.46,-42.3795 1857.82,-28.388 1837.12,-19.5164"/>
<polygon fill="midnightblue" stroke="midnightblue" points="1912.71,-55.7213 1923.28,-56.4435 1915.47,-49.2873 1912.71,-55.7213"/>
</g>
<!-- Node24&#45;&gt;Node8 -->
<g id="edge28" class="edge"><title>Node24&#45;&gt;Node8</title>
<path fill="none" stroke="midnightblue" d="M80.0085,-108.381C51.5863,-95.8293 18.0799,-75.6564 37.2456,-56 68.8578,-23.5786 1534.57,-12.804 1781.96,-11.215"/>
<polygon fill="midnightblue" stroke="midnightblue" points="78.7951,-111.668 89.369,-112.334 81.5183,-105.219 78.7951,-111.668"/>
</g>
<!-- Node24&#45;&gt;Node17 -->
<g id="edge27" class="edge"><title>Node24&#45;&gt;Node17</title>
<path fill="none" stroke="midnightblue" d="M113.246,-101.805C113.246,-92.9102 113.246,-82.7798 113.246,-75.7511"/>
<polygon fill="midnightblue" stroke="midnightblue" points="109.746,-102.083 113.246,-112.083 116.746,-102.083 109.746,-102.083"/>
</g>
<!-- Node25&#45;&gt;Node2 -->
<g id="edge30" class="edge"><title>Node25&#45;&gt;Node2</title>
<path fill="none" stroke="midnightblue" d="M1096.25,-157.805C1096.25,-148.91 1096.25,-138.78 1096.25,-131.751"/>
<polygon fill="midnightblue" stroke="midnightblue" points="1092.75,-158.083 1096.25,-168.083 1099.75,-158.083 1092.75,-158.083"/>
</g>
<!-- Node25&#45;&gt;Node8 -->
<g id="edge31" class="edge"><title>Node25&#45;&gt;Node8</title>
<path fill="none" stroke="midnightblue" d="M1155.19,-176.377C1379.75,-173.4 2172.88,-157.172 2247.25,-76 2301.82,-16.4313 1964.67,-11.0326 1852.58,-10.8645"/>
<polygon fill="midnightblue" stroke="midnightblue" points="1154.88,-172.88 1144.93,-176.508 1154.97,-179.879 1154.88,-172.88"/>
</g>
</g>
</svg>
