<?xml version="1.0" encoding="UTF-8" standalone="no"?>
<!DOCTYPE svg PUBLIC "-//W3C//DTD SVG 1.1//EN"
 "http://www.w3.org/Graphics/SVG/1.1/DTD/svg11.dtd">
<!-- Generated by graphviz version 2.38.0 (20140413.2041)
 -->
<!-- Title: boost/ui/coord.hpp Pages: 1 -->
<svg width="2292pt" height="252pt"
 viewBox="0.00 0.00 2292.47 252.00" xmlns="http://www.w3.org/2000/svg" xmlns:xlink="http://www.w3.org/1999/xlink">
<g id="graph0" class="graph" transform="scale(1 1) rotate(0) translate(4 248)">
<title>boost/ui/coord.hpp</title>
<polygon fill="white" stroke="none" points="-4,4 -4,-248 2288.47,-248 2288.47,4 -4,4"/>
<!-- Node1 -->
<g id="node1" class="node"><title>Node1</title>
<polygon fill="#bfbfbf" stroke="black" points="59.4737,-224.5 59.4737,-243.5 156.474,-243.5 156.474,-224.5 59.4737,-224.5"/>
<text text-anchor="middle" x="107.974" y="-231.5" font-family="Helvetica,sans-Serif" font-size="10.00">boost/ui/coord.hpp</text>
</g>
<!-- Node2 -->
<g id="node2" class="node"><title>Node2</title>
<g id="a_node2"><a xlink:href="widget_8hpp.html" target="_top" xlink:title="Widget class. ">
<polygon fill="white" stroke="black" points="1039.47,-112.5 1039.47,-131.5 1140.47,-131.5 1140.47,-112.5 1039.47,-112.5"/>
<text text-anchor="middle" x="1089.97" y="-119.5" font-family="Helvetica,sans-Serif" font-size="10.00">boost/ui/widget.hpp</text>
</a>
</g>
</g>
<!-- Node1&#45;&gt;Node2 -->
<g id="edge1" class="edge"><title>Node1&#45;&gt;Node2</title>
<path fill="none" stroke="midnightblue" d="M166.862,-226.404C344.472,-206.508 872.851,-147.321 1039.22,-128.685"/>
<polygon fill="midnightblue" stroke="midnightblue" points="166.219,-222.954 156.671,-227.545 166.999,-229.91 166.219,-222.954"/>
</g>
<!-- Node8 -->
<g id="node8" class="node"><title>Node8</title>
<g id="a_node8"><a xlink:href="ui_8hpp.html" target="_top" xlink:title="Master Boost.UI file. ">
<polygon fill="white" stroke="black" points="25.9737,-0.5 25.9737,-19.5 95.9737,-19.5 95.9737,-0.5 25.9737,-0.5"/>
<text text-anchor="middle" x="60.9737" y="-7.5" font-family="Helvetica,sans-Serif" font-size="10.00">boost/ui.hpp</text>
</a>
</g>
</g>
<!-- Node1&#45;&gt;Node8 -->
<g id="edge29" class="edge"><title>Node1&#45;&gt;Node8</title>
<path fill="none" stroke="midnightblue" d="M56.9571,-221.125C39.6501,-214.397 22.1382,-203.99 11.9737,-188 -24.2885,-130.954 33.1123,-47.0053 53.915,-19.8333"/>
<polygon fill="midnightblue" stroke="midnightblue" points="55.9083,-224.467 66.5031,-224.497 58.2395,-217.866 55.9083,-224.467"/>
</g>
<!-- Node23 -->
<g id="node23" class="node"><title>Node23</title>
<g id="a_node23"><a xlink:href="image_8hpp.html" target="_top" xlink:title="Image class. ">
<polygon fill="white" stroke="black" points="97.4737,-112.5 97.4737,-131.5 196.474,-131.5 196.474,-112.5 97.4737,-112.5"/>
<text text-anchor="middle" x="146.974" y="-119.5" font-family="Helvetica,sans-Serif" font-size="10.00">boost/ui/image.hpp</text>
</a>
</g>
</g>
<!-- Node1&#45;&gt;Node23 -->
<g id="edge23" class="edge"><title>Node1&#45;&gt;Node23</title>
<path fill="none" stroke="midnightblue" d="M115.983,-215.189C119.545,-206.986 123.67,-197.077 126.974,-188 134.241,-168.029 141.176,-144.007 144.654,-131.504"/>
<polygon fill="midnightblue" stroke="midnightblue" points="112.72,-213.915 111.877,-224.476 119.122,-216.745 112.72,-213.915"/>
</g>
<!-- Node24 -->
<g id="node24" class="node"><title>Node24</title>
<g id="a_node24"><a xlink:href="event_8hpp.html" target="_top" xlink:title="Event classes. ">
<polygon fill="white" stroke="black" points="21.4737,-168.5 21.4737,-187.5 118.474,-187.5 118.474,-168.5 21.4737,-168.5"/>
<text text-anchor="middle" x="69.9737" y="-175.5" font-family="Helvetica,sans-Serif" font-size="10.00">boost/ui/event.hpp</text>
</a>
</g>
</g>
<!-- Node1&#45;&gt;Node24 -->
<g id="edge26" class="edge"><title>Node1&#45;&gt;Node24</title>
<path fill="none" stroke="midnightblue" d="M95.9089,-215.855C89.3289,-206.505 81.4627,-195.327 76.1318,-187.751"/>
<polygon fill="midnightblue" stroke="midnightblue" points="93.0814,-217.919 101.699,-224.083 98.8061,-213.891 93.0814,-217.919"/>
</g>
<!-- Node3 -->
<g id="node3" class="node"><title>Node3</title>
<g id="a_node3"><a xlink:href="web__widget_8hpp.html" target="_top" xlink:title="Web widget. ">
<polygon fill="white" stroke="black" points="1343.47,-56.5 1343.47,-75.5 1468.47,-75.5 1468.47,-56.5 1343.47,-56.5"/>
<text text-anchor="middle" x="1405.97" y="-63.5" font-family="Helvetica,sans-Serif" font-size="10.00">boost/ui/web_widget.hpp</text>
</a>
</g>
</g>
<!-- Node2&#45;&gt;Node3 -->
<g id="edge2" class="edge"><title>Node2&#45;&gt;Node3</title>
<path fill="none" stroke="midnightblue" d="M1150.09,-110.727C1209.8,-100.523 1300.3,-85.0583 1356.14,-75.5164"/>
<polygon fill="midnightblue" stroke="midnightblue" points="1149.31,-107.309 1140.04,-112.444 1150.49,-114.209 1149.31,-107.309"/>
</g>
<!-- Node4 -->
<g id="node4" class="node"><title>Node4</title>
<g id="a_node4"><a xlink:href="text__box_8hpp.html" target="_top" xlink:title="Text editor widgets. ">
<polygon fill="white" stroke="black" points="1486.97,-56.5 1486.97,-75.5 1596.97,-75.5 1596.97,-56.5 1486.97,-56.5"/>
<text text-anchor="middle" x="1541.97" y="-63.5" font-family="Helvetica,sans-Serif" font-size="10.00">boost/ui/text_box.hpp</text>
</a>
</g>
</g>
<!-- Node2&#45;&gt;Node4 -->
<g id="edge3" class="edge"><title>Node2&#45;&gt;Node4</title>
<path fill="none" stroke="midnightblue" d="M1150.95,-114.391C1227.41,-105.996 1362.5,-90.813 1477.97,-76 1480.87,-75.6288 1483.83,-75.2402 1486.83,-74.8415"/>
<polygon fill="midnightblue" stroke="midnightblue" points="1150.11,-110.961 1140.56,-115.529 1150.88,-117.919 1150.11,-110.961"/>
</g>
<!-- Node5 -->
<g id="node5" class="node"><title>Node5</title>
<g id="a_node5"><a xlink:href="strings__box_8hpp.html" target="_top" xlink:title="Widget with array of strings. ">
<polygon fill="white" stroke="black" points="1653.47,-56.5 1653.47,-75.5 1776.47,-75.5 1776.47,-56.5 1653.47,-56.5"/>
<text text-anchor="middle" x="1714.97" y="-63.5" font-family="Helvetica,sans-Serif" font-size="10.00">boost/ui/strings_box.hpp</text>
</a>
</g>
</g>
<!-- Node2&#45;&gt;Node5 -->
<g id="edge4" class="edge"><title>Node2&#45;&gt;Node5</title>
<path fill="none" stroke="midnightblue" d="M1150.79,-116.735C1252.12,-109.468 1461.88,-93.7379 1638.97,-76 1643.6,-75.5365 1648.38,-75.0316 1653.19,-74.5051"/>
<polygon fill="midnightblue" stroke="midnightblue" points="1150.47,-113.25 1140.74,-117.454 1150.97,-120.232 1150.47,-113.25"/>
</g>
<!-- Node2&#45;&gt;Node8 -->
<g id="edge22" class="edge"><title>Node2&#45;&gt;Node8</title>
<path fill="none" stroke="midnightblue" d="M1151.1,-120.201C1281.11,-117.866 1575.77,-108.957 1605.97,-76 1611.98,-69.4473 1612.17,-62.3762 1605.97,-56 1578.78,-27.9988 323.925,-13.7165 96.2169,-11.3532"/>
<polygon fill="midnightblue" stroke="midnightblue" points="1150.84,-116.705 1140.9,-120.376 1150.96,-123.704 1150.84,-116.705"/>
</g>
<!-- Node9 -->
<g id="node9" class="node"><title>Node9</title>
<g id="a_node9"><a xlink:href="slider_8hpp.html" target="_top" xlink:title="Slider widget. ">
<polygon fill="white" stroke="black" points="1794.97,-56.5 1794.97,-75.5 1890.97,-75.5 1890.97,-56.5 1794.97,-56.5"/>
<text text-anchor="middle" x="1842.97" y="-63.5" font-family="Helvetica,sans-Serif" font-size="10.00">boost/ui/slider.hpp</text>
</a>
</g>
</g>
<!-- Node2&#45;&gt;Node9 -->
<g id="edge8" class="edge"><title>Node2&#45;&gt;Node9</title>
<path fill="none" stroke="midnightblue" d="M1150.96,-118.945C1272.22,-114.443 1552.1,-101.969 1785.97,-76 1788.86,-75.6794 1791.83,-75.3159 1794.81,-74.9234"/>
<polygon fill="midnightblue" stroke="midnightblue" points="1150.63,-115.455 1140.76,-119.319 1150.89,-122.45 1150.63,-115.455"/>
</g>
<!-- Node10 -->
<g id="node10" class="node"><title>Node10</title>
<g id="a_node10"><a xlink:href="progress__bar_8hpp.html" target="_top" xlink:title="Progress bar widget. ">
<polygon fill="white" stroke="black" points="1909.47,-56.5 1909.47,-75.5 2038.47,-75.5 2038.47,-56.5 1909.47,-56.5"/>
<text text-anchor="middle" x="1973.97" y="-63.5" font-family="Helvetica,sans-Serif" font-size="10.00">boost/ui/progress_bar.hpp</text>
</a>
</g>
</g>
<!-- Node2&#45;&gt;Node10 -->
<g id="edge9" class="edge"><title>Node2&#45;&gt;Node10</title>
<path fill="none" stroke="midnightblue" d="M1150.91,-118.98C1285.98,-114.202 1620.7,-100.714 1899.97,-76 1903.07,-75.7262 1906.23,-75.4246 1909.43,-75.1029"/>
<polygon fill="midnightblue" stroke="midnightblue" points="1150.63,-115.487 1140.76,-119.335 1150.88,-122.483 1150.63,-115.487"/>
</g>
<!-- Node11 -->
<g id="node11" class="node"><title>Node11</title>
<g id="a_node11"><a xlink:href="panel_8hpp.html" target="_top" xlink:title="Panel widget. ">
<polygon fill="white" stroke="black" points="2056.97,-56.5 2056.97,-75.5 2152.97,-75.5 2152.97,-56.5 2056.97,-56.5"/>
<text text-anchor="middle" x="2104.97" y="-63.5" font-family="Helvetica,sans-Serif" font-size="10.00">boost/ui/panel.hpp</text>
</a>
</g>
</g>
<!-- Node2&#45;&gt;Node11 -->
<g id="edge10" class="edge"><title>Node2&#45;&gt;Node11</title>
<path fill="none" stroke="midnightblue" d="M1150.53,-120.457C1302.11,-118.599 1709.96,-110.519 2047.97,-76 2050.86,-75.7048 2053.83,-75.361 2056.82,-74.9834"/>
<polygon fill="midnightblue" stroke="midnightblue" points="1150.45,-116.958 1140.5,-120.576 1150.54,-123.957 1150.45,-116.958"/>
</g>
<!-- Node12 -->
<g id="node12" class="node"><title>Node12</title>
<g id="a_node12"><a xlink:href="notebook_8hpp.html" target="_top" xlink:title="Notebook widget. ">
<polygon fill="white" stroke="black" points="2171.47,-56.5 2171.47,-75.5 2284.47,-75.5 2284.47,-56.5 2171.47,-56.5"/>
<text text-anchor="middle" x="2227.97" y="-63.5" font-family="Helvetica,sans-Serif" font-size="10.00">boost/ui/notebook.hpp</text>
</a>
</g>
</g>
<!-- Node2&#45;&gt;Node12 -->
<g id="edge11" class="edge"><title>Node2&#45;&gt;Node12</title>
<path fill="none" stroke="midnightblue" d="M1150.94,-120.436C1314.79,-118.49 1778.21,-110.145 2161.97,-76 2164.97,-75.7335 2168.04,-75.4284 2171.13,-75.0951"/>
<polygon fill="midnightblue" stroke="midnightblue" points="1150.55,-116.941 1140.59,-120.556 1150.63,-123.94 1150.55,-116.941"/>
</g>
<!-- Node13 -->
<g id="node13" class="node"><title>Node13</title>
<g id="a_node13"><a xlink:href="menu_8hpp.html" target="_top" xlink:title="Menu classes. ">
<polygon fill="white" stroke="black" points="240.474,-56.5 240.474,-75.5 337.474,-75.5 337.474,-56.5 240.474,-56.5"/>
<text text-anchor="middle" x="288.974" y="-63.5" font-family="Helvetica,sans-Serif" font-size="10.00">boost/ui/menu.hpp</text>
</a>
</g>
</g>
<!-- Node2&#45;&gt;Node13 -->
<g id="edge12" class="edge"><title>Node2&#45;&gt;Node13</title>
<path fill="none" stroke="midnightblue" d="M1029,-119.298C901.752,-115.31 598.724,-103.533 345.974,-76 343.285,-75.7071 340.529,-75.3758 337.75,-75.0176"/>
<polygon fill="midnightblue" stroke="midnightblue" points="1029.21,-122.806 1039.31,-119.616 1029.43,-115.81 1029.21,-122.806"/>
</g>
<!-- Node14 -->
<g id="node14" class="node"><title>Node14</title>
<g id="a_node14"><a xlink:href="line_8hpp.html" target="_top" xlink:title="line widget ">
<polygon fill="white" stroke="black" points="354.974,-56.5 354.974,-75.5 442.974,-75.5 442.974,-56.5 354.974,-56.5"/>
<text text-anchor="middle" x="398.974" y="-63.5" font-family="Helvetica,sans-Serif" font-size="10.00">boost/ui/line.hpp</text>
</a>
</g>
</g>
<!-- Node2&#45;&gt;Node14 -->
<g id="edge13" class="edge"><title>Node2&#45;&gt;Node14</title>
<path fill="none" stroke="midnightblue" d="M1029.13,-118.691C915.426,-113.938 663.125,-101.313 451.974,-76 449.101,-75.6556 446.147,-75.2627 443.173,-74.838"/>
<polygon fill="midnightblue" stroke="midnightblue" points="1029.23,-122.198 1039.36,-119.114 1029.52,-115.204 1029.23,-122.198"/>
</g>
<!-- Node15 -->
<g id="node15" class="node"><title>Node15</title>
<g id="a_node15"><a xlink:href="label_8hpp.html" target="_top" xlink:title="Label widget. ">
<polygon fill="white" stroke="black" points="460.474,-56.5 460.474,-75.5 553.474,-75.5 553.474,-56.5 460.474,-56.5"/>
<text text-anchor="middle" x="506.974" y="-63.5" font-family="Helvetica,sans-Serif" font-size="10.00">boost/ui/label.hpp</text>
</a>
</g>
</g>
<!-- Node2&#45;&gt;Node15 -->
<g id="edge14" class="edge"><title>Node2&#45;&gt;Node15</title>
<path fill="none" stroke="midnightblue" d="M1029.18,-117.349C930.777,-111.096 730.611,-96.9522 561.974,-76 559.285,-75.666 556.527,-75.2973 553.746,-74.9057"/>
<polygon fill="midnightblue" stroke="midnightblue" points="1029.04,-120.847 1039.24,-117.983 1029.48,-113.861 1029.04,-120.847"/>
</g>
<!-- Node16 -->
<g id="node16" class="node"><title>Node16</title>
<g id="a_node16"><a xlink:href="image__widget_8hpp.html" target="_top" xlink:title="Image widget. ">
<polygon fill="white" stroke="black" points="89.4737,-56.5 89.4737,-75.5 222.474,-75.5 222.474,-56.5 89.4737,-56.5"/>
<text text-anchor="middle" x="155.974" y="-63.5" font-family="Helvetica,sans-Serif" font-size="10.00">boost/ui/image_widget.hpp</text>
</a>
</g>
</g>
<!-- Node2&#45;&gt;Node16 -->
<g id="edge15" class="edge"><title>Node2&#45;&gt;Node16</title>
<path fill="none" stroke="midnightblue" d="M1028.97,-119.173C888.292,-114.66 530.299,-101.46 231.974,-76 228.929,-75.7401 225.818,-75.4543 222.677,-75.1493"/>
<polygon fill="midnightblue" stroke="midnightblue" points="1029.02,-122.676 1039.12,-119.496 1029.24,-115.68 1029.02,-122.676"/>
</g>
<!-- Node17 -->
<g id="node17" class="node"><title>Node17</title>
<g id="a_node17"><a xlink:href="hyperlink_8hpp.html" target="_top" xlink:title="Hyperlink widget. ">
<polygon fill="white" stroke="black" points="570.974,-56.5 570.974,-75.5 682.974,-75.5 682.974,-56.5 570.974,-56.5"/>
<text text-anchor="middle" x="626.974" y="-63.5" font-family="Helvetica,sans-Serif" font-size="10.00">boost/ui/hyperlink.hpp</text>
</a>
</g>
</g>
<!-- Node2&#45;&gt;Node17 -->
<g id="edge16" class="edge"><title>Node2&#45;&gt;Node17</title>
<path fill="none" stroke="midnightblue" d="M1029.21,-114.607C951.103,-106.28 811.322,-91.0073 691.974,-76 689.035,-75.6305 686.022,-75.2431 682.982,-74.8455"/>
<polygon fill="midnightblue" stroke="midnightblue" points="1029.04,-118.108 1039.35,-115.686 1029.78,-111.147 1029.04,-118.108"/>
</g>
<!-- Node18 -->
<g id="node18" class="node"><title>Node18</title>
<g id="a_node18"><a xlink:href="group__box_8hpp.html" target="_top" xlink:title="Group box widget. ">
<polygon fill="white" stroke="black" points="700.974,-56.5 700.974,-75.5 818.974,-75.5 818.974,-56.5 700.974,-56.5"/>
<text text-anchor="middle" x="759.974" y="-63.5" font-family="Helvetica,sans-Serif" font-size="10.00">boost/ui/group_box.hpp</text>
</a>
</g>
</g>
<!-- Node2&#45;&gt;Node18 -->
<g id="edge17" class="edge"><title>Node2&#45;&gt;Node18</title>
<path fill="none" stroke="midnightblue" d="M1029.05,-111.03C966.696,-100.827 870.846,-85.1427 811.96,-75.5069"/>
<polygon fill="midnightblue" stroke="midnightblue" points="1028.7,-114.52 1039.13,-112.681 1029.83,-107.612 1028.7,-114.52"/>
</g>
<!-- Node19 -->
<g id="node19" class="node"><title>Node19</title>
<g id="a_node19"><a xlink:href="datetime_8hpp.html" target="_top" xlink:title="Date and time pickers. ">
<polygon fill="white" stroke="black" points="836.974,-56.5 836.974,-75.5 946.974,-75.5 946.974,-56.5 836.974,-56.5"/>
<text text-anchor="middle" x="891.974" y="-63.5" font-family="Helvetica,sans-Serif" font-size="10.00">boost/ui/datetime.hpp</text>
</a>
</g>
</g>
<!-- Node2&#45;&gt;Node19 -->
<g id="edge18" class="edge"><title>Node2&#45;&gt;Node19</title>
<path fill="none" stroke="midnightblue" d="M1048.54,-109.699C1011.17,-99.507 957.031,-84.7429 923.201,-75.5164"/>
<polygon fill="midnightblue" stroke="midnightblue" points="1048.03,-113.189 1058.6,-112.444 1049.87,-106.436 1048.03,-113.189"/>
</g>
<!-- Node20 -->
<g id="node20" class="node"><title>Node20</title>
<g id="a_node20"><a xlink:href="check__box_8hpp.html" target="_top" xlink:title="Check box widget. ">
<polygon fill="white" stroke="black" points="964.974,-56.5 964.974,-75.5 1084.97,-75.5 1084.97,-56.5 964.974,-56.5"/>
<text text-anchor="middle" x="1024.97" y="-63.5" font-family="Helvetica,sans-Serif" font-size="10.00">boost/ui/check_box.hpp</text>
</a>
</g>
</g>
<!-- Node2&#45;&gt;Node20 -->
<g id="edge19" class="edge"><title>Node2&#45;&gt;Node20</title>
<path fill="none" stroke="midnightblue" d="M1071.7,-105.82C1060.06,-96.1452 1045.37,-83.9481 1035.61,-75.8339"/>
<polygon fill="midnightblue" stroke="midnightblue" points="1069.6,-108.626 1079.53,-112.324 1074.07,-103.242 1069.6,-108.626"/>
</g>
<!-- Node21 -->
<g id="node21" class="node"><title>Node21</title>
<g id="a_node21"><a xlink:href="canvas_8hpp.html" target="_top" xlink:title="Canvas widget. ">
<polygon fill="white" stroke="black" points="1102.97,-56.5 1102.97,-75.5 1206.97,-75.5 1206.97,-56.5 1102.97,-56.5"/>
<text text-anchor="middle" x="1154.97" y="-63.5" font-family="Helvetica,sans-Serif" font-size="10.00">boost/ui/canvas.hpp</text>
</a>
</g>
</g>
<!-- Node2&#45;&gt;Node21 -->
<g id="edge20" class="edge"><title>Node2&#45;&gt;Node21</title>
<path fill="none" stroke="midnightblue" d="M1108.25,-105.82C1119.89,-96.1452 1134.57,-83.9481 1144.34,-75.8339"/>
<polygon fill="midnightblue" stroke="midnightblue" points="1105.87,-103.242 1100.42,-112.324 1110.35,-108.626 1105.87,-103.242"/>
</g>
<!-- Node22 -->
<g id="node22" class="node"><title>Node22</title>
<g id="a_node22"><a xlink:href="button_8hpp.html" target="_top" xlink:title="Button widget. ">
<polygon fill="white" stroke="black" points="1224.97,-56.5 1224.97,-75.5 1324.97,-75.5 1324.97,-56.5 1224.97,-56.5"/>
<text text-anchor="middle" x="1274.97" y="-63.5" font-family="Helvetica,sans-Serif" font-size="10.00">boost/ui/button.hpp</text>
</a>
</g>
</g>
<!-- Node2&#45;&gt;Node22 -->
<g id="edge21" class="edge"><title>Node2&#45;&gt;Node22</title>
<path fill="none" stroke="midnightblue" d="M1129.14,-109.568C1164.04,-99.381 1214.32,-84.7034 1245.8,-75.5164"/>
<polygon fill="midnightblue" stroke="midnightblue" points="1127.91,-106.282 1119.29,-112.444 1129.87,-113.001 1127.91,-106.282"/>
</g>
<!-- Node6 -->
<g id="node6" class="node"><title>Node6</title>
<g id="a_node6"><a xlink:href="combo__box_8hpp.html" target="_top" xlink:title="Combo box widget. ">
<polygon fill="white" stroke="black" points="1588.47,-0.5 1588.47,-19.5 1711.47,-19.5 1711.47,-0.5 1588.47,-0.5"/>
<text text-anchor="middle" x="1649.97" y="-7.5" font-family="Helvetica,sans-Serif" font-size="10.00">boost/ui/combo_box.hpp</text>
</a>
</g>
</g>
<!-- Node5&#45;&gt;Node6 -->
<g id="edge5" class="edge"><title>Node5&#45;&gt;Node6</title>
<path fill="none" stroke="midnightblue" d="M1696.7,-49.8197C1685.06,-40.1452 1670.37,-27.9481 1660.61,-19.8339"/>
<polygon fill="midnightblue" stroke="midnightblue" points="1694.6,-52.6259 1704.53,-56.324 1699.07,-47.2416 1694.6,-52.6259"/>
</g>
<!-- Node7 -->
<g id="node7" class="node"><title>Node7</title>
<g id="a_node7"><a xlink:href="choice_8hpp.html" target="_top" xlink:title="Choice widget. ">
<polygon fill="white" stroke="black" points="1729.47,-0.5 1729.47,-19.5 1830.47,-19.5 1830.47,-0.5 1729.47,-0.5"/>
<text text-anchor="middle" x="1779.97" y="-7.5" font-family="Helvetica,sans-Serif" font-size="10.00">boost/ui/choice.hpp</text>
</a>
</g>
</g>
<!-- Node5&#45;&gt;Node7 -->
<g id="edge6" class="edge"><title>Node5&#45;&gt;Node7</title>
<path fill="none" stroke="midnightblue" d="M1733.25,-49.8197C1744.89,-40.1452 1759.57,-27.9481 1769.34,-19.8339"/>
<polygon fill="midnightblue" stroke="midnightblue" points="1730.87,-47.2416 1725.42,-56.324 1735.35,-52.6259 1730.87,-47.2416"/>
</g>
<!-- Node5&#45;&gt;Node8 -->
<g id="edge7" class="edge"><title>Node5&#45;&gt;Node8</title>
<path fill="none" stroke="midnightblue" d="M1642.92,-56.3042C1641.59,-56.1972 1640.28,-56.0956 1638.97,-56 1021.92,-10.7564 266.039,-10.3141 96.0188,-10.8413"/>
<polygon fill="midnightblue" stroke="midnightblue" points="1642.95,-59.8201 1653.22,-57.219 1643.57,-52.8476 1642.95,-59.8201"/>
</g>
<!-- Node23&#45;&gt;Node8 -->
<g id="edge25" class="edge"><title>Node23&#45;&gt;Node8</title>
<path fill="none" stroke="midnightblue" d="M118.281,-107.619C104.897,-100.057 89.7914,-89.4125 79.9737,-76 67.335,-58.7337 63.0637,-33.1649 61.6505,-19.8256"/>
<polygon fill="midnightblue" stroke="midnightblue" points="116.714,-110.75 127.186,-112.358 120.003,-104.571 116.714,-110.75"/>
</g>
<!-- Node23&#45;&gt;Node16 -->
<g id="edge24" class="edge"><title>Node23&#45;&gt;Node16</title>
<path fill="none" stroke="midnightblue" d="M150.124,-102.101C151.618,-93.1357 153.331,-82.8579 154.515,-75.7511"/>
<polygon fill="midnightblue" stroke="midnightblue" points="146.652,-101.644 148.46,-112.083 153.556,-102.794 146.652,-101.644"/>
</g>
<!-- Node24&#45;&gt;Node2 -->
<g id="edge27" class="edge"><title>Node24&#45;&gt;Node2</title>
<path fill="none" stroke="midnightblue" d="M128.7,-173.891C311.476,-164.215 868.201,-134.741 1039.37,-125.679"/>
<polygon fill="midnightblue" stroke="midnightblue" points="128.285,-170.408 118.484,-174.432 128.655,-177.398 128.285,-170.408"/>
</g>
<!-- Node24&#45;&gt;Node8 -->
<g id="edge28" class="edge"><title>Node24&#45;&gt;Node8</title>
<path fill="none" stroke="midnightblue" d="M68.9397,-157.93C66.9874,-121.92 62.8296,-45.2312 61.4382,-19.5681"/>
<polygon fill="midnightblue" stroke="midnightblue" points="65.4534,-158.279 69.4898,-168.075 72.4432,-157.9 65.4534,-158.279"/>
</g>
</g>
</svg>
