<?xml version="1.0" encoding="UTF-8" standalone="no"?>
<!DOCTYPE svg PUBLIC "-//W3C//DTD SVG 1.1//EN"
 "http://www.w3.org/Graphics/SVG/1.1/DTD/svg11.dtd">
<!-- Generated by graphviz version 2.43.0 (0)
 -->
<!-- Title: boost/ui/coord.hpp Pages: 1 -->
<svg width="2733pt" height="196pt"
 viewBox="0.00 0.00 2732.82 196.00" xmlns="http://www.w3.org/2000/svg" xmlns:xlink="http://www.w3.org/1999/xlink">
<g id="graph0" class="graph" transform="scale(1 1) rotate(0) translate(4 192)">
<title>boost/ui/coord.hpp</title>
<polygon fill="white" stroke="transparent" points="-4,4 -4,-192 2728.82,-192 2728.82,4 -4,4"/>
<!-- Node1 -->
<g id="node1" class="node">
<title>Node1</title>
<g id="a_node1"><a xlink:title="Coordinates classes.">
<polygon fill="#bfbfbf" stroke="black" points="2542,-168.5 2542,-187.5 2649,-187.5 2649,-168.5 2542,-168.5"/>
<text text-anchor="middle" x="2595.5" y="-175.5" font-family="Helvetica,sans-Serif" font-size="10.00">boost/ui/coord.hpp</text>
</a>
</g>
</g>
<!-- Node2 -->
<g id="node2" class="node">
<title>Node2</title>
<g id="a_node2"><a xlink:href="widget_8hpp.html" target="_top" xlink:title="Widget class.">
<polygon fill="white" stroke="black" points="1375,-112.5 1375,-131.5 1488,-131.5 1488,-112.5 1375,-112.5"/>
<text text-anchor="middle" x="1431.5" y="-119.5" font-family="Helvetica,sans-Serif" font-size="10.00">boost/ui/widget.hpp</text>
</a>
</g>
</g>
<!-- Node1&#45;&gt;Node2 -->
<g id="edge1" class="edge">
<title>Node1&#45;&gt;Node2</title>
<path fill="none" stroke="midnightblue" d="M2531.66,-174.04C2326.03,-164.5 1683.11,-134.67 1488.12,-125.63"/>
<polygon fill="midnightblue" stroke="midnightblue" points="2531.54,-177.54 2541.69,-174.5 2531.87,-170.54 2531.54,-177.54"/>
</g>
<!-- Node8 -->
<g id="node8" class="node">
<title>Node8</title>
<g id="a_node8"><a xlink:href="ui_8hpp.html" target="_top" xlink:title="Master Boost.UI file.">
<polygon fill="white" stroke="black" points="2392,-0.5 2392,-19.5 2469,-19.5 2469,-0.5 2392,-0.5"/>
<text text-anchor="middle" x="2430.5" y="-7.5" font-family="Helvetica,sans-Serif" font-size="10.00">boost/ui.hpp</text>
</a>
</g>
</g>
<!-- Node1&#45;&gt;Node8 -->
<g id="edge31" class="edge">
<title>Node1&#45;&gt;Node8</title>
<path fill="none" stroke="midnightblue" d="M2659.42,-168.11C2697.56,-159.51 2736,-143.01 2721.5,-112 2705.06,-76.84 2689.49,-72.78 2654.5,-56 2593.88,-26.92 2515.33,-16.62 2469.18,-12.98"/>
<polygon fill="midnightblue" stroke="midnightblue" points="2658.31,-164.77 2649.24,-170.24 2659.74,-171.62 2658.31,-164.77"/>
</g>
<!-- Node24 -->
<g id="node24" class="node">
<title>Node24</title>
<g id="a_node24"><a xlink:href="image_8hpp.html" target="_top" xlink:title="Image class.">
<polygon fill="white" stroke="black" points="2477.5,-112.5 2477.5,-131.5 2587.5,-131.5 2587.5,-112.5 2477.5,-112.5"/>
<text text-anchor="middle" x="2532.5" y="-119.5" font-family="Helvetica,sans-Serif" font-size="10.00">boost/ui/image.hpp</text>
</a>
</g>
</g>
<!-- Node1&#45;&gt;Node24 -->
<g id="edge26" class="edge">
<title>Node1&#45;&gt;Node24</title>
<path fill="none" stroke="midnightblue" d="M2577.46,-161.54C2566.23,-151.91 2552.18,-139.87 2542.81,-131.83"/>
<polygon fill="midnightblue" stroke="midnightblue" points="2575.51,-164.47 2585.38,-168.32 2580.06,-159.16 2575.51,-164.47"/>
</g>
<!-- Node25 -->
<g id="node25" class="node">
<title>Node25</title>
<g id="a_node25"><a xlink:href="event_8hpp.html" target="_top" xlink:title="Event classes.">
<polygon fill="white" stroke="black" points="2606,-112.5 2606,-131.5 2713,-131.5 2713,-112.5 2606,-112.5"/>
<text text-anchor="middle" x="2659.5" y="-119.5" font-family="Helvetica,sans-Serif" font-size="10.00">boost/ui/event.hpp</text>
</a>
</g>
</g>
<!-- Node1&#45;&gt;Node25 -->
<g id="edge29" class="edge">
<title>Node1&#45;&gt;Node25</title>
<path fill="none" stroke="midnightblue" d="M2613.49,-161.82C2624.96,-152.15 2639.41,-139.95 2649.03,-131.83"/>
<polygon fill="midnightblue" stroke="midnightblue" points="2611.17,-159.2 2605.78,-168.32 2615.68,-164.55 2611.17,-159.2"/>
</g>
<!-- Node3 -->
<g id="node3" class="node">
<title>Node3</title>
<g id="a_node3"><a xlink:href="web__widget_8hpp.html" target="_top" xlink:title="Web widget.">
<polygon fill="white" stroke="black" points="1850.5,-56.5 1850.5,-75.5 1988.5,-75.5 1988.5,-56.5 1850.5,-56.5"/>
<text text-anchor="middle" x="1919.5" y="-63.5" font-family="Helvetica,sans-Serif" font-size="10.00">boost/ui/web_widget.hpp</text>
</a>
</g>
</g>
<!-- Node2&#45;&gt;Node3 -->
<g id="edge2" class="edge">
<title>Node2&#45;&gt;Node3</title>
<path fill="none" stroke="midnightblue" d="M1498.13,-113.75C1579.09,-104.92 1719.83,-89.51 1840.5,-76 1843.66,-75.65 1846.88,-75.28 1850.14,-74.92"/>
<polygon fill="midnightblue" stroke="midnightblue" points="1497.64,-110.28 1488.08,-114.84 1498.4,-117.24 1497.64,-110.28"/>
</g>
<!-- Node4 -->
<g id="node4" class="node">
<title>Node4</title>
<g id="a_node4"><a xlink:href="text__box_8hpp.html" target="_top" xlink:title="Text editor widgets.">
<polygon fill="white" stroke="black" points="2006.5,-56.5 2006.5,-75.5 2128.5,-75.5 2128.5,-56.5 2006.5,-56.5"/>
<text text-anchor="middle" x="2067.5" y="-63.5" font-family="Helvetica,sans-Serif" font-size="10.00">boost/ui/text_box.hpp</text>
</a>
</g>
</g>
<!-- Node2&#45;&gt;Node4 -->
<g id="edge3" class="edge">
<title>Node2&#45;&gt;Node4</title>
<path fill="none" stroke="midnightblue" d="M1498.45,-116.73C1604.47,-109.74 1817.45,-94.72 1997.5,-76 2000.42,-75.7 2003.42,-75.37 2006.44,-75.03"/>
<polygon fill="midnightblue" stroke="midnightblue" points="1497.97,-113.26 1488.22,-117.41 1498.43,-120.24 1497.97,-113.26"/>
</g>
<!-- Node5 -->
<g id="node5" class="node">
<title>Node5</title>
<g id="a_node5"><a xlink:href="strings__box_8hpp.html" target="_top" xlink:title="Widget with array of strings.">
<polygon fill="white" stroke="black" points="58.5,-56.5 58.5,-75.5 194.5,-75.5 194.5,-56.5 58.5,-56.5"/>
<text text-anchor="middle" x="126.5" y="-63.5" font-family="Helvetica,sans-Serif" font-size="10.00">boost/ui/strings_box.hpp</text>
</a>
</g>
</g>
<!-- Node2&#45;&gt;Node5 -->
<g id="edge4" class="edge">
<title>Node2&#45;&gt;Node5</title>
<path fill="none" stroke="midnightblue" d="M1364.69,-120.42C1179.8,-118.42 645.82,-109.9 203.5,-76 200.68,-75.78 197.81,-75.54 194.91,-75.28"/>
<polygon fill="midnightblue" stroke="midnightblue" points="1364.76,-123.92 1374.8,-120.53 1364.83,-116.92 1364.76,-123.92"/>
</g>
<!-- Node2&#45;&gt;Node8 -->
<g id="edge25" class="edge">
<title>Node2&#45;&gt;Node8</title>
<path fill="none" stroke="midnightblue" d="M1498.27,-120.03C1713.09,-116.62 2374.48,-103.9 2410.5,-76 2427.86,-62.55 2430.55,-34.33 2430.73,-19.91"/>
<polygon fill="midnightblue" stroke="midnightblue" points="1498.03,-116.53 1488.08,-120.19 1498.14,-123.53 1498.03,-116.53"/>
</g>
<!-- Node9 -->
<g id="node9" class="node">
<title>Node9</title>
<g id="a_node9"><a xlink:href="status__bar_8hpp.html" target="_top" xlink:title="Status bar class.">
<polygon fill="white" stroke="black" points="2146.5,-56.5 2146.5,-75.5 2276.5,-75.5 2276.5,-56.5 2146.5,-56.5"/>
<text text-anchor="middle" x="2211.5" y="-63.5" font-family="Helvetica,sans-Serif" font-size="10.00">boost/ui/status_bar.hpp</text>
</a>
</g>
</g>
<!-- Node2&#45;&gt;Node9 -->
<g id="edge8" class="edge">
<title>Node2&#45;&gt;Node9</title>
<path fill="none" stroke="midnightblue" d="M1498.54,-118.01C1624.1,-112.13 1903.17,-97.7 2137.5,-76 2140.34,-75.74 2143.23,-75.45 2146.15,-75.15"/>
<polygon fill="midnightblue" stroke="midnightblue" points="1498.15,-114.52 1488.32,-118.49 1498.48,-121.52 1498.15,-114.52"/>
</g>
<!-- Node10 -->
<g id="node10" class="node">
<title>Node10</title>
<g id="a_node10"><a xlink:href="slider_8hpp.html" target="_top" xlink:title="Slider widget.">
<polygon fill="white" stroke="black" points="212.5,-56.5 212.5,-75.5 318.5,-75.5 318.5,-56.5 212.5,-56.5"/>
<text text-anchor="middle" x="265.5" y="-63.5" font-family="Helvetica,sans-Serif" font-size="10.00">boost/ui/slider.hpp</text>
</a>
</g>
</g>
<!-- Node2&#45;&gt;Node10 -->
<g id="edge10" class="edge">
<title>Node2&#45;&gt;Node10</title>
<path fill="none" stroke="midnightblue" d="M1364.59,-120.68C1192.3,-119.33 719.41,-112.33 327.5,-76 324.58,-75.73 321.58,-75.41 318.56,-75.07"/>
<polygon fill="midnightblue" stroke="midnightblue" points="1364.75,-124.18 1374.77,-120.76 1364.8,-117.18 1364.75,-124.18"/>
</g>
<!-- Node11 -->
<g id="node11" class="node">
<title>Node11</title>
<g id="a_node11"><a xlink:href="progress__bar_8hpp.html" target="_top" xlink:title="Progress bar widget.">
<polygon fill="white" stroke="black" points="336.5,-56.5 336.5,-75.5 478.5,-75.5 478.5,-56.5 336.5,-56.5"/>
<text text-anchor="middle" x="407.5" y="-63.5" font-family="Helvetica,sans-Serif" font-size="10.00">boost/ui/progress_bar.hpp</text>
</a>
</g>
</g>
<!-- Node2&#45;&gt;Node11 -->
<g id="edge11" class="edge">
<title>Node2&#45;&gt;Node11</title>
<path fill="none" stroke="midnightblue" d="M1364.48,-119.29C1209.77,-115.01 815.85,-102.27 487.5,-76 484.57,-75.77 481.59,-75.51 478.58,-75.24"/>
<polygon fill="midnightblue" stroke="midnightblue" points="1364.67,-122.79 1374.76,-119.57 1364.86,-115.8 1364.67,-122.79"/>
</g>
<!-- Node12 -->
<g id="node12" class="node">
<title>Node12</title>
<g id="a_node12"><a xlink:href="panel_8hpp.html" target="_top" xlink:title="Panel widget.">
<polygon fill="white" stroke="black" points="497,-56.5 497,-75.5 604,-75.5 604,-56.5 497,-56.5"/>
<text text-anchor="middle" x="550.5" y="-63.5" font-family="Helvetica,sans-Serif" font-size="10.00">boost/ui/panel.hpp</text>
</a>
</g>
</g>
<!-- Node2&#45;&gt;Node12 -->
<g id="edge12" class="edge">
<title>Node2&#45;&gt;Node12</title>
<path fill="none" stroke="midnightblue" d="M1364.63,-119.35C1224.74,-115.45 891.05,-103.81 612.5,-76 609.79,-75.73 607.03,-75.43 604.23,-75.1"/>
<polygon fill="midnightblue" stroke="midnightblue" points="1364.68,-122.85 1374.77,-119.63 1364.87,-115.85 1364.68,-122.85"/>
</g>
<!-- Node13 -->
<g id="node13" class="node">
<title>Node13</title>
<g id="a_node13"><a xlink:href="notebook_8hpp.html" target="_top" xlink:title="Notebook widget.">
<polygon fill="white" stroke="black" points="622,-56.5 622,-75.5 747,-75.5 747,-56.5 622,-56.5"/>
<text text-anchor="middle" x="684.5" y="-63.5" font-family="Helvetica,sans-Serif" font-size="10.00">boost/ui/notebook.hpp</text>
</a>
</g>
</g>
<!-- Node2&#45;&gt;Node13 -->
<g id="edge13" class="edge">
<title>Node2&#45;&gt;Node13</title>
<path fill="none" stroke="midnightblue" d="M1364.73,-117.83C1243.43,-111.79 978.88,-97.29 756.5,-76 753.49,-75.71 750.41,-75.4 747.31,-75.07"/>
<polygon fill="midnightblue" stroke="midnightblue" points="1364.8,-121.34 1374.96,-118.34 1365.15,-114.35 1364.8,-121.34"/>
</g>
<!-- Node14 -->
<g id="node14" class="node">
<title>Node14</title>
<g id="a_node14"><a xlink:href="menu_8hpp.html" target="_top" xlink:title="Menu classes.">
<polygon fill="white" stroke="black" points="2295,-56.5 2295,-75.5 2402,-75.5 2402,-56.5 2295,-56.5"/>
<text text-anchor="middle" x="2348.5" y="-63.5" font-family="Helvetica,sans-Serif" font-size="10.00">boost/ui/menu.hpp</text>
</a>
</g>
</g>
<!-- Node2&#45;&gt;Node14 -->
<g id="edge14" class="edge">
<title>Node2&#45;&gt;Node14</title>
<path fill="none" stroke="midnightblue" d="M1498.09,-119.51C1642.06,-115.86 1992.92,-104.55 2285.5,-76 2288.58,-75.7 2291.74,-75.36 2294.92,-74.99"/>
<polygon fill="midnightblue" stroke="midnightblue" points="1498,-116.01 1488.09,-119.76 1498.17,-123.01 1498,-116.01"/>
</g>
<!-- Node15 -->
<g id="node15" class="node">
<title>Node15</title>
<g id="a_node15"><a xlink:href="line_8hpp.html" target="_top" xlink:title="line widget">
<polygon fill="white" stroke="black" points="765.5,-56.5 765.5,-75.5 863.5,-75.5 863.5,-56.5 765.5,-56.5"/>
<text text-anchor="middle" x="814.5" y="-63.5" font-family="Helvetica,sans-Serif" font-size="10.00">boost/ui/line.hpp</text>
</a>
</g>
</g>
<!-- Node2&#45;&gt;Node15 -->
<g id="edge16" class="edge">
<title>Node2&#45;&gt;Node15</title>
<path fill="none" stroke="midnightblue" d="M1364.49,-117.2C1259.41,-110.89 1049.6,-96.84 872.5,-76 869.57,-75.65 866.55,-75.27 863.51,-74.87"/>
<polygon fill="midnightblue" stroke="midnightblue" points="1364.44,-120.71 1374.63,-117.81 1364.86,-113.72 1364.44,-120.71"/>
</g>
<!-- Node16 -->
<g id="node16" class="node">
<title>Node16</title>
<g id="a_node16"><a xlink:href="label_8hpp.html" target="_top" xlink:title="Label widget.">
<polygon fill="white" stroke="black" points="881.5,-56.5 881.5,-75.5 985.5,-75.5 985.5,-56.5 881.5,-56.5"/>
<text text-anchor="middle" x="933.5" y="-63.5" font-family="Helvetica,sans-Serif" font-size="10.00">boost/ui/label.hpp</text>
</a>
</g>
</g>
<!-- Node2&#45;&gt;Node16 -->
<g id="edge17" class="edge">
<title>Node2&#45;&gt;Node16</title>
<path fill="none" stroke="midnightblue" d="M1364.72,-115.04C1278.91,-107.17 1125.4,-92.39 994.5,-76 991.63,-75.64 988.69,-75.26 985.72,-74.86"/>
<polygon fill="midnightblue" stroke="midnightblue" points="1364.56,-118.54 1374.84,-115.97 1365.2,-111.57 1364.56,-118.54"/>
</g>
<!-- Node17 -->
<g id="node17" class="node">
<title>Node17</title>
<g id="a_node17"><a xlink:href="image__widget_8hpp.html" target="_top" xlink:title="Image widget.">
<polygon fill="white" stroke="black" points="2458,-56.5 2458,-75.5 2607,-75.5 2607,-56.5 2458,-56.5"/>
<text text-anchor="middle" x="2532.5" y="-63.5" font-family="Helvetica,sans-Serif" font-size="10.00">boost/ui/image_widget.hpp</text>
</a>
</g>
</g>
<!-- Node2&#45;&gt;Node17 -->
<g id="edge18" class="edge">
<title>Node2&#45;&gt;Node17</title>
<path fill="none" stroke="midnightblue" d="M1498.44,-119.36C1660.81,-115.09 2088.45,-102.09 2444.5,-76 2448.79,-75.69 2453.19,-75.33 2457.63,-74.95"/>
<polygon fill="midnightblue" stroke="midnightblue" points="1498.03,-115.87 1488.13,-119.63 1498.22,-122.86 1498.03,-115.87"/>
</g>
<!-- Node18 -->
<g id="node18" class="node">
<title>Node18</title>
<g id="a_node18"><a xlink:href="hyperlink_8hpp.html" target="_top" xlink:title="Hyperlink widget.">
<polygon fill="white" stroke="black" points="1004,-56.5 1004,-75.5 1129,-75.5 1129,-56.5 1004,-56.5"/>
<text text-anchor="middle" x="1066.5" y="-63.5" font-family="Helvetica,sans-Serif" font-size="10.00">boost/ui/hyperlink.hpp</text>
</a>
</g>
</g>
<!-- Node2&#45;&gt;Node18 -->
<g id="edge19" class="edge">
<title>Node2&#45;&gt;Node18</title>
<path fill="none" stroke="midnightblue" d="M1364.57,-111.1C1295.68,-100.91 1189.46,-85.19 1124.17,-75.53"/>
<polygon fill="midnightblue" stroke="midnightblue" points="1364.46,-114.62 1374.87,-112.62 1365.49,-107.7 1364.46,-114.62"/>
</g>
<!-- Node19 -->
<g id="node19" class="node">
<title>Node19</title>
<g id="a_node19"><a xlink:href="group__box_8hpp.html" target="_top" xlink:title="Group box widget.">
<polygon fill="white" stroke="black" points="1147,-56.5 1147,-75.5 1278,-75.5 1278,-56.5 1147,-56.5"/>
<text text-anchor="middle" x="1212.5" y="-63.5" font-family="Helvetica,sans-Serif" font-size="10.00">boost/ui/group_box.hpp</text>
</a>
</g>
</g>
<!-- Node2&#45;&gt;Node19 -->
<g id="edge20" class="edge">
<title>Node2&#45;&gt;Node19</title>
<path fill="none" stroke="midnightblue" d="M1386.99,-110.02C1345.62,-99.82 1284.86,-84.84 1247.04,-75.52"/>
<polygon fill="midnightblue" stroke="midnightblue" points="1386.25,-113.45 1396.8,-112.44 1387.93,-106.65 1386.25,-113.45"/>
</g>
<!-- Node20 -->
<g id="node20" class="node">
<title>Node20</title>
<g id="a_node20"><a xlink:href="datetime_8hpp.html" target="_top" xlink:title="Date and time pickers.">
<polygon fill="white" stroke="black" points="1296.5,-56.5 1296.5,-75.5 1420.5,-75.5 1420.5,-56.5 1296.5,-56.5"/>
<text text-anchor="middle" x="1358.5" y="-63.5" font-family="Helvetica,sans-Serif" font-size="10.00">boost/ui/datetime.hpp</text>
</a>
</g>
</g>
<!-- Node2&#45;&gt;Node20 -->
<g id="edge21" class="edge">
<title>Node2&#45;&gt;Node20</title>
<path fill="none" stroke="midnightblue" d="M1411.36,-106.1C1398.22,-96.38 1381.52,-84.03 1370.44,-75.83"/>
<polygon fill="midnightblue" stroke="midnightblue" points="1409.65,-109.19 1419.77,-112.32 1413.81,-103.56 1409.65,-109.19"/>
</g>
<!-- Node21 -->
<g id="node21" class="node">
<title>Node21</title>
<g id="a_node21"><a xlink:href="check__box_8hpp.html" target="_top" xlink:title="Check box widget.">
<polygon fill="white" stroke="black" points="1439,-56.5 1439,-75.5 1570,-75.5 1570,-56.5 1439,-56.5"/>
<text text-anchor="middle" x="1504.5" y="-63.5" font-family="Helvetica,sans-Serif" font-size="10.00">boost/ui/check_box.hpp</text>
</a>
</g>
</g>
<!-- Node2&#45;&gt;Node21 -->
<g id="edge22" class="edge">
<title>Node2&#45;&gt;Node21</title>
<path fill="none" stroke="midnightblue" d="M1451.64,-106.1C1464.78,-96.38 1481.48,-84.03 1492.56,-75.83"/>
<polygon fill="midnightblue" stroke="midnightblue" points="1449.19,-103.56 1443.23,-112.32 1453.35,-109.19 1449.19,-103.56"/>
</g>
<!-- Node22 -->
<g id="node22" class="node">
<title>Node22</title>
<g id="a_node22"><a xlink:href="canvas_8hpp.html" target="_top" xlink:title="Canvas widget.">
<polygon fill="white" stroke="black" points="1588.5,-56.5 1588.5,-75.5 1702.5,-75.5 1702.5,-56.5 1588.5,-56.5"/>
<text text-anchor="middle" x="1645.5" y="-63.5" font-family="Helvetica,sans-Serif" font-size="10.00">boost/ui/canvas.hpp</text>
</a>
</g>
</g>
<!-- Node2&#45;&gt;Node22 -->
<g id="edge23" class="edge">
<title>Node2&#45;&gt;Node22</title>
<path fill="none" stroke="midnightblue" d="M1475.26,-109.96C1515.67,-99.76 1574.87,-84.82 1611.75,-75.52"/>
<polygon fill="midnightblue" stroke="midnightblue" points="1474.25,-106.6 1465.41,-112.44 1475.96,-113.39 1474.25,-106.6"/>
</g>
<!-- Node23 -->
<g id="node23" class="node">
<title>Node23</title>
<g id="a_node23"><a xlink:href="button_8hpp.html" target="_top" xlink:title="Button widget.">
<polygon fill="white" stroke="black" points="1721,-56.5 1721,-75.5 1832,-75.5 1832,-56.5 1721,-56.5"/>
<text text-anchor="middle" x="1776.5" y="-63.5" font-family="Helvetica,sans-Serif" font-size="10.00">boost/ui/button.hpp</text>
</a>
</g>
</g>
<!-- Node2&#45;&gt;Node23 -->
<g id="edge24" class="edge">
<title>Node2&#45;&gt;Node23</title>
<path fill="none" stroke="midnightblue" d="M1496.32,-110.85C1561.51,-100.65 1660.88,-85.1 1722.09,-75.52"/>
<polygon fill="midnightblue" stroke="midnightblue" points="1495.5,-107.44 1486.17,-112.44 1496.59,-114.35 1495.5,-107.44"/>
</g>
<!-- Node6 -->
<g id="node6" class="node">
<title>Node6</title>
<g id="a_node6"><a xlink:href="combo__box_8hpp.html" target="_top" xlink:title="Combo box widget.">
<polygon fill="white" stroke="black" points="129.5,-0.5 129.5,-19.5 265.5,-19.5 265.5,-0.5 129.5,-0.5"/>
<text text-anchor="middle" x="197.5" y="-7.5" font-family="Helvetica,sans-Serif" font-size="10.00">boost/ui/combo_box.hpp</text>
</a>
</g>
</g>
<!-- Node5&#45;&gt;Node6 -->
<g id="edge5" class="edge">
<title>Node5&#45;&gt;Node6</title>
<path fill="none" stroke="midnightblue" d="M146.09,-50.1C158.87,-40.38 175.11,-28.03 185.89,-19.83"/>
<polygon fill="midnightblue" stroke="midnightblue" points="143.75,-47.48 137.91,-56.32 147.99,-53.06 143.75,-47.48"/>
</g>
<!-- Node7 -->
<g id="node7" class="node">
<title>Node7</title>
<g id="a_node7"><a xlink:href="choice_8hpp.html" target="_top" xlink:title="Choice widget.">
<polygon fill="white" stroke="black" points="0,-0.5 0,-19.5 111,-19.5 111,-0.5 0,-0.5"/>
<text text-anchor="middle" x="55.5" y="-7.5" font-family="Helvetica,sans-Serif" font-size="10.00">boost/ui/choice.hpp</text>
</a>
</g>
</g>
<!-- Node5&#45;&gt;Node7 -->
<g id="edge6" class="edge">
<title>Node5&#45;&gt;Node7</title>
<path fill="none" stroke="midnightblue" d="M106.91,-50.1C94.13,-40.38 77.89,-28.03 67.11,-19.83"/>
<polygon fill="midnightblue" stroke="midnightblue" points="105.01,-53.06 115.09,-56.32 109.25,-47.48 105.01,-53.06"/>
</g>
<!-- Node5&#45;&gt;Node8 -->
<g id="edge7" class="edge">
<title>Node5&#45;&gt;Node8</title>
<path fill="none" stroke="midnightblue" d="M205.15,-55.97C675.31,-25.04 2135.72,-13.15 2391.94,-11.27"/>
<polygon fill="midnightblue" stroke="midnightblue" points="204.65,-52.5 194.9,-56.66 205.11,-59.48 204.65,-52.5"/>
</g>
<!-- Node9&#45;&gt;Node8 -->
<g id="edge9" class="edge">
<title>Node9&#45;&gt;Node8</title>
<path fill="none" stroke="midnightblue" d="M2256.01,-54.02C2297.38,-43.82 2358.14,-28.84 2395.96,-19.52"/>
<polygon fill="midnightblue" stroke="midnightblue" points="2255.07,-50.65 2246.2,-56.44 2256.75,-57.45 2255.07,-50.65"/>
</g>
<!-- Node14&#45;&gt;Node8 -->
<g id="edge15" class="edge">
<title>Node14&#45;&gt;Node8</title>
<path fill="none" stroke="midnightblue" d="M2370.33,-50.62C2385.31,-40.76 2404.7,-27.99 2417.36,-19.65"/>
<polygon fill="midnightblue" stroke="midnightblue" points="2368.1,-47.9 2361.67,-56.32 2371.95,-53.75 2368.1,-47.9"/>
</g>
<!-- Node24&#45;&gt;Node8 -->
<g id="edge28" class="edge">
<title>Node24&#45;&gt;Node8</title>
<path fill="none" stroke="midnightblue" d="M2569.39,-108.99C2599.01,-97.37 2633,-78.27 2615.5,-56 2597.68,-33.32 2518.2,-20.65 2469.39,-14.88"/>
<polygon fill="midnightblue" stroke="midnightblue" points="2568.14,-105.72 2560,-112.5 2570.59,-112.28 2568.14,-105.72"/>
</g>
<!-- Node24&#45;&gt;Node17 -->
<g id="edge27" class="edge">
<title>Node24&#45;&gt;Node17</title>
<path fill="none" stroke="midnightblue" d="M2532.5,-101.8C2532.5,-92.91 2532.5,-82.78 2532.5,-75.75"/>
<polygon fill="midnightblue" stroke="midnightblue" points="2529,-102.08 2532.5,-112.08 2536,-102.08 2529,-102.08"/>
</g>
<!-- Node25&#45;&gt;Node8 -->
<g id="edge30" class="edge">
<title>Node25&#45;&gt;Node8</title>
<path fill="none" stroke="midnightblue" d="M2656.55,-102.33C2653.23,-87.59 2646.37,-67.64 2632.5,-56 2608.14,-35.56 2520.9,-21.87 2469.38,-15.37"/>
<polygon fill="midnightblue" stroke="midnightblue" points="2653.15,-103.18 2658.45,-112.36 2660.03,-101.88 2653.15,-103.18"/>
</g>
</g>
</svg>
