<?xml version="1.0" encoding="UTF-8" standalone="no"?>
<!DOCTYPE svg PUBLIC "-//W3C//DTD SVG 1.1//EN"
 "http://www.w3.org/Graphics/SVG/1.1/DTD/svg11.dtd">
<!-- Generated by graphviz version 2.43.0 (0)
 -->
<!-- Title: boost/ui/coord.hpp Pages: 1 -->
<svg width="2697pt" height="252pt"
 viewBox="0.00 0.00 2696.59 252.00" xmlns="http://www.w3.org/2000/svg" xmlns:xlink="http://www.w3.org/1999/xlink">
<g id="graph0" class="graph" transform="scale(1 1) rotate(0) translate(4 248)">
<title>boost/ui/coord.hpp</title>
<polygon fill="white" stroke="transparent" points="-4,4 -4,-248 2692.59,-248 2692.59,4 -4,4"/>
<!-- Node1 -->
<g id="node1" class="node">
<title>Node1</title>
<g id="a_node1"><a xlink:title="Coordinates classes.">
<polygon fill="#bfbfbf" stroke="black" points="662.09,-224.5 662.09,-243.5 769.09,-243.5 769.09,-224.5 662.09,-224.5"/>
<text text-anchor="middle" x="715.59" y="-231.5" font-family="Helvetica,sans-Serif" font-size="10.00">boost/ui/coord.hpp</text>
</a>
</g>
</g>
<!-- Node2 -->
<g id="node2" class="node">
<title>Node2</title>
<g id="a_node2"><a xlink:href="widget_8hpp.html" target="_top" xlink:title="Widget class.">
<polygon fill="white" stroke="black" points="1122.09,-112.5 1122.09,-131.5 1235.09,-131.5 1235.09,-112.5 1122.09,-112.5"/>
<text text-anchor="middle" x="1178.59" y="-119.5" font-family="Helvetica,sans-Serif" font-size="10.00">boost/ui/widget.hpp</text>
</a>
</g>
</g>
<!-- Node1&#45;&gt;Node2 -->
<g id="edge1" class="edge">
<title>Node1&#45;&gt;Node2</title>
<path fill="none" stroke="midnightblue" d="M761.4,-222.12C853.52,-200.23 1059.44,-151.31 1142.67,-131.53"/>
<polygon fill="midnightblue" stroke="midnightblue" points="760.46,-218.74 751.54,-224.46 762.07,-225.55 760.46,-218.74"/>
</g>
<!-- Node8 -->
<g id="node8" class="node">
<title>Node8</title>
<g id="a_node8"><a xlink:href="ui_8hpp.html" target="_top" xlink:title="Master Boost.UI file.">
<polygon fill="white" stroke="black" points="1928.09,-0.5 1928.09,-19.5 2005.09,-19.5 2005.09,-0.5 1928.09,-0.5"/>
<text text-anchor="middle" x="1966.59" y="-7.5" font-family="Helvetica,sans-Serif" font-size="10.00">boost/ui.hpp</text>
</a>
</g>
</g>
<!-- Node1&#45;&gt;Node8 -->
<g id="edge32" class="edge">
<title>Node1&#45;&gt;Node8</title>
<path fill="none" stroke="midnightblue" d="M651.52,-230.93C502.16,-224.95 136.19,-203.21 39.59,-132 10.49,-110.55 -14.68,-81.86 10.59,-56 45.37,-20.41 1655.97,-12.27 1927.82,-11.15"/>
<polygon fill="midnightblue" stroke="midnightblue" points="651.77,-234.44 661.9,-231.34 652.04,-227.45 651.77,-234.44"/>
</g>
<!-- Node24 -->
<g id="node24" class="node">
<title>Node24</title>
<g id="a_node24"><a xlink:href="image_8hpp.html" target="_top" xlink:title="Image class.">
<polygon fill="white" stroke="black" points="48.59,-112.5 48.59,-131.5 158.59,-131.5 158.59,-112.5 48.59,-112.5"/>
<text text-anchor="middle" x="103.59" y="-119.5" font-family="Helvetica,sans-Serif" font-size="10.00">boost/ui/image.hpp</text>
</a>
</g>
</g>
<!-- Node1&#45;&gt;Node24 -->
<g id="edge26" class="edge">
<title>Node1&#45;&gt;Node24</title>
<path fill="none" stroke="midnightblue" d="M657.97,-222.64C537.7,-201.03 261.97,-151.47 151.07,-131.53"/>
<polygon fill="midnightblue" stroke="midnightblue" points="657.62,-226.14 668.08,-224.46 658.85,-219.25 657.62,-226.14"/>
</g>
<!-- Node25 -->
<g id="node25" class="node">
<title>Node25</title>
<g id="a_node25"><a xlink:href="event_8hpp.html" target="_top" xlink:title="Event classes.">
<polygon fill="white" stroke="black" points="1125.09,-168.5 1125.09,-187.5 1232.09,-187.5 1232.09,-168.5 1125.09,-168.5"/>
<text text-anchor="middle" x="1178.59" y="-175.5" font-family="Helvetica,sans-Serif" font-size="10.00">boost/ui/event.hpp</text>
</a>
</g>
</g>
<!-- Node1&#45;&gt;Node25 -->
<g id="edge29" class="edge">
<title>Node1&#45;&gt;Node25</title>
<path fill="none" stroke="midnightblue" d="M779.14,-225.59C870.89,-214.89 1038.84,-195.3 1124.79,-185.27"/>
<polygon fill="midnightblue" stroke="midnightblue" points="778.68,-222.12 769.15,-226.75 779.49,-229.07 778.68,-222.12"/>
</g>
<!-- Node3 -->
<g id="node3" class="node">
<title>Node3</title>
<g id="a_node3"><a xlink:href="web__widget_8hpp.html" target="_top" xlink:title="Web widget.">
<polygon fill="white" stroke="black" points="1318.59,-56.5 1318.59,-75.5 1456.59,-75.5 1456.59,-56.5 1318.59,-56.5"/>
<text text-anchor="middle" x="1387.59" y="-63.5" font-family="Helvetica,sans-Serif" font-size="10.00">boost/ui/web_widget.hpp</text>
</a>
</g>
</g>
<!-- Node2&#45;&gt;Node3 -->
<g id="edge2" class="edge">
<title>Node2&#45;&gt;Node3</title>
<path fill="none" stroke="midnightblue" d="M1221.57,-109.89C1261.04,-99.7 1318.69,-84.8 1354.63,-75.52"/>
<polygon fill="midnightblue" stroke="midnightblue" points="1220.51,-106.55 1211.71,-112.44 1222.26,-113.33 1220.51,-106.55"/>
</g>
<!-- Node4 -->
<g id="node4" class="node">
<title>Node4</title>
<g id="a_node4"><a xlink:href="text__box_8hpp.html" target="_top" xlink:title="Text editor widgets.">
<polygon fill="white" stroke="black" points="1474.59,-56.5 1474.59,-75.5 1596.59,-75.5 1596.59,-56.5 1474.59,-56.5"/>
<text text-anchor="middle" x="1535.59" y="-63.5" font-family="Helvetica,sans-Serif" font-size="10.00">boost/ui/text_box.hpp</text>
</a>
</g>
</g>
<!-- Node2&#45;&gt;Node4 -->
<g id="edge3" class="edge">
<title>Node2&#45;&gt;Node4</title>
<path fill="none" stroke="midnightblue" d="M1245.25,-110.92C1312.7,-100.71 1415.81,-85.12 1479.29,-75.52"/>
<polygon fill="midnightblue" stroke="midnightblue" points="1244.52,-107.49 1235.16,-112.44 1245.57,-114.41 1244.52,-107.49"/>
</g>
<!-- Node5 -->
<g id="node5" class="node">
<title>Node5</title>
<g id="a_node5"><a xlink:href="strings__box_8hpp.html" target="_top" xlink:title="Widget with array of strings.">
<polygon fill="white" stroke="black" points="2481.59,-56.5 2481.59,-75.5 2617.59,-75.5 2617.59,-56.5 2481.59,-56.5"/>
<text text-anchor="middle" x="2549.59" y="-63.5" font-family="Helvetica,sans-Serif" font-size="10.00">boost/ui/strings_box.hpp</text>
</a>
</g>
</g>
<!-- Node2&#45;&gt;Node5 -->
<g id="edge4" class="edge">
<title>Node2&#45;&gt;Node5</title>
<path fill="none" stroke="midnightblue" d="M1245.53,-119.6C1433.24,-115.45 1980.53,-101.89 2434.59,-76 2449.79,-75.13 2466.09,-73.99 2481.52,-72.81"/>
<polygon fill="midnightblue" stroke="midnightblue" points="1245.2,-116.1 1235.28,-119.82 1245.35,-123.1 1245.2,-116.1"/>
</g>
<!-- Node2&#45;&gt;Node8 -->
<g id="edge25" class="edge">
<title>Node2&#45;&gt;Node8</title>
<path fill="none" stroke="midnightblue" d="M1111.71,-120.35C899.77,-117.95 255.17,-108.06 224.59,-76 218.46,-69.57 218.39,-62.37 224.59,-56 255.35,-24.43 1674.68,-13.04 1928.09,-11.26"/>
<polygon fill="midnightblue" stroke="midnightblue" points="1111.73,-123.85 1121.77,-120.46 1111.81,-116.85 1111.73,-123.85"/>
</g>
<!-- Node9 -->
<g id="node9" class="node">
<title>Node9</title>
<g id="a_node9"><a xlink:href="status__bar_8hpp.html" target="_top" xlink:title="Status bar class.">
<polygon fill="white" stroke="black" points="1901.09,-56.5 1901.09,-75.5 2032.09,-75.5 2032.09,-56.5 1901.09,-56.5"/>
<text text-anchor="middle" x="1966.59" y="-63.5" font-family="Helvetica,sans-Serif" font-size="10.00">boost/ui/status_bar.hpp</text>
</a>
</g>
</g>
<!-- Node2&#45;&gt;Node9 -->
<g id="edge8" class="edge">
<title>Node2&#45;&gt;Node9</title>
<path fill="none" stroke="midnightblue" d="M1245.43,-118.08C1371.94,-112.28 1655,-97.92 1892.59,-76 1895.3,-75.75 1898.06,-75.48 1900.84,-75.2"/>
<polygon fill="midnightblue" stroke="midnightblue" points="1244.97,-114.6 1235.14,-118.55 1245.29,-121.6 1244.97,-114.6"/>
</g>
<!-- Node10 -->
<g id="node10" class="node">
<title>Node10</title>
<g id="a_node10"><a xlink:href="slider_8hpp.html" target="_top" xlink:title="Slider widget.">
<polygon fill="white" stroke="black" points="1615.09,-56.5 1615.09,-75.5 1722.09,-75.5 1722.09,-56.5 1615.09,-56.5"/>
<text text-anchor="middle" x="1668.59" y="-63.5" font-family="Helvetica,sans-Serif" font-size="10.00">boost/ui/slider.hpp</text>
</a>
</g>
</g>
<!-- Node2&#45;&gt;Node10 -->
<g id="edge10" class="edge">
<title>Node2&#45;&gt;Node10</title>
<path fill="none" stroke="midnightblue" d="M1245.49,-114.72C1329.63,-106.65 1478.48,-91.77 1605.59,-76 1608.66,-75.62 1611.81,-75.21 1614.99,-74.79"/>
<polygon fill="midnightblue" stroke="midnightblue" points="1244.93,-111.26 1235.3,-115.69 1245.59,-118.23 1244.93,-111.26"/>
</g>
<!-- Node11 -->
<g id="node11" class="node">
<title>Node11</title>
<g id="a_node11"><a xlink:href="progress__bar_8hpp.html" target="_top" xlink:title="Progress bar widget.">
<polygon fill="white" stroke="black" points="1740.09,-56.5 1740.09,-75.5 1883.09,-75.5 1883.09,-56.5 1740.09,-56.5"/>
<text text-anchor="middle" x="1811.59" y="-63.5" font-family="Helvetica,sans-Serif" font-size="10.00">boost/ui/progress_bar.hpp</text>
</a>
</g>
</g>
<!-- Node2&#45;&gt;Node11 -->
<g id="edge11" class="edge">
<title>Node2&#45;&gt;Node11</title>
<path fill="none" stroke="midnightblue" d="M1245.2,-116.25C1349.15,-108.68 1556.23,-93 1731.59,-76 1734.37,-75.73 1737.21,-75.45 1740.07,-75.16"/>
<polygon fill="midnightblue" stroke="midnightblue" points="1244.88,-112.76 1235.16,-116.98 1245.39,-119.74 1244.88,-112.76"/>
</g>
<!-- Node12 -->
<g id="node12" class="node">
<title>Node12</title>
<g id="a_node12"><a xlink:href="panel_8hpp.html" target="_top" xlink:title="Panel widget.">
<polygon fill="white" stroke="black" points="2175.09,-56.5 2175.09,-75.5 2282.09,-75.5 2282.09,-56.5 2175.09,-56.5"/>
<text text-anchor="middle" x="2228.59" y="-63.5" font-family="Helvetica,sans-Serif" font-size="10.00">boost/ui/panel.hpp</text>
</a>
</g>
</g>
<!-- Node2&#45;&gt;Node12 -->
<g id="edge12" class="edge">
<title>Node2&#45;&gt;Node12</title>
<path fill="none" stroke="midnightblue" d="M1245.4,-120.23C1405.01,-117.89 1820.99,-108.87 2166.59,-76 2169.3,-75.74 2172.07,-75.45 2174.86,-75.13"/>
<polygon fill="midnightblue" stroke="midnightblue" points="1245.21,-116.73 1235.26,-120.37 1245.31,-123.73 1245.21,-116.73"/>
</g>
<!-- Node13 -->
<g id="node13" class="node">
<title>Node13</title>
<g id="a_node13"><a xlink:href="notebook_8hpp.html" target="_top" xlink:title="Notebook widget.">
<polygon fill="white" stroke="black" points="2300.09,-56.5 2300.09,-75.5 2425.09,-75.5 2425.09,-56.5 2300.09,-56.5"/>
<text text-anchor="middle" x="2362.59" y="-63.5" font-family="Helvetica,sans-Serif" font-size="10.00">boost/ui/notebook.hpp</text>
</a>
</g>
</g>
<!-- Node2&#45;&gt;Node13 -->
<g id="edge13" class="edge">
<title>Node2&#45;&gt;Node13</title>
<path fill="none" stroke="midnightblue" d="M1245.38,-120.29C1418.48,-118.03 1895.69,-109.03 2291.59,-76 2294.31,-75.77 2297.09,-75.52 2299.9,-75.24"/>
<polygon fill="midnightblue" stroke="midnightblue" points="1245.11,-116.8 1235.16,-120.42 1245.2,-123.8 1245.11,-116.8"/>
</g>
<!-- Node14 -->
<g id="node14" class="node">
<title>Node14</title>
<g id="a_node14"><a xlink:href="menu_8hpp.html" target="_top" xlink:title="Menu classes.">
<polygon fill="white" stroke="black" points="2050.09,-56.5 2050.09,-75.5 2157.09,-75.5 2157.09,-56.5 2050.09,-56.5"/>
<text text-anchor="middle" x="2103.59" y="-63.5" font-family="Helvetica,sans-Serif" font-size="10.00">boost/ui/menu.hpp</text>
</a>
</g>
</g>
<!-- Node2&#45;&gt;Node14 -->
<g id="edge14" class="edge">
<title>Node2&#45;&gt;Node14</title>
<path fill="none" stroke="midnightblue" d="M1245.36,-119.61C1390.51,-116.13 1745.6,-105.14 2041.59,-76 2044.3,-75.73 2047.07,-75.43 2049.86,-75.11"/>
<polygon fill="midnightblue" stroke="midnightblue" points="1245.19,-116.11 1235.27,-119.85 1245.35,-123.11 1245.19,-116.11"/>
</g>
<!-- Node15 -->
<g id="node15" class="node">
<title>Node15</title>
<g id="a_node15"><a xlink:href="line_8hpp.html" target="_top" xlink:title="line widget">
<polygon fill="white" stroke="black" points="233.59,-56.5 233.59,-75.5 331.59,-75.5 331.59,-56.5 233.59,-56.5"/>
<text text-anchor="middle" x="282.59" y="-63.5" font-family="Helvetica,sans-Serif" font-size="10.00">boost/ui/line.hpp</text>
</a>
</g>
</g>
<!-- Node2&#45;&gt;Node15 -->
<g id="edge16" class="edge">
<title>Node2&#45;&gt;Node15</title>
<path fill="none" stroke="midnightblue" d="M1111.74,-119.69C969.51,-116.39 626.52,-105.79 340.59,-76 337.65,-75.69 334.63,-75.34 331.59,-74.96"/>
<polygon fill="midnightblue" stroke="midnightblue" points="1111.96,-123.19 1122.04,-119.92 1112.12,-116.19 1111.96,-123.19"/>
</g>
<!-- Node16 -->
<g id="node16" class="node">
<title>Node16</title>
<g id="a_node16"><a xlink:href="label_8hpp.html" target="_top" xlink:title="Label widget.">
<polygon fill="white" stroke="black" points="349.59,-56.5 349.59,-75.5 453.59,-75.5 453.59,-56.5 349.59,-56.5"/>
<text text-anchor="middle" x="401.59" y="-63.5" font-family="Helvetica,sans-Serif" font-size="10.00">boost/ui/label.hpp</text>
</a>
</g>
</g>
<!-- Node2&#45;&gt;Node16 -->
<g id="edge17" class="edge">
<title>Node2&#45;&gt;Node16</title>
<path fill="none" stroke="midnightblue" d="M1111.51,-118.66C984.55,-113.81 700.54,-100.99 462.59,-76 459.72,-75.7 456.77,-75.36 453.8,-75"/>
<polygon fill="midnightblue" stroke="midnightblue" points="1111.71,-122.17 1121.84,-119.05 1111.98,-115.17 1111.71,-122.17"/>
</g>
<!-- Node17 -->
<g id="node17" class="node">
<title>Node17</title>
<g id="a_node17"><a xlink:href="image__widget_8hpp.html" target="_top" xlink:title="Image widget.">
<polygon fill="white" stroke="black" points="29.09,-56.5 29.09,-75.5 178.09,-75.5 178.09,-56.5 29.09,-56.5"/>
<text text-anchor="middle" x="103.59" y="-63.5" font-family="Helvetica,sans-Serif" font-size="10.00">boost/ui/image_widget.hpp</text>
</a>
</g>
</g>
<!-- Node2&#45;&gt;Node17 -->
<g id="edge18" class="edge">
<title>Node2&#45;&gt;Node17</title>
<path fill="none" stroke="midnightblue" d="M1111.93,-119.26C952.66,-114.81 537.46,-101.55 191.59,-76 187.3,-75.68 182.9,-75.33 178.46,-74.95"/>
<polygon fill="midnightblue" stroke="midnightblue" points="1111.96,-122.76 1122.05,-119.54 1112.15,-115.76 1111.96,-122.76"/>
</g>
<!-- Node18 -->
<g id="node18" class="node">
<title>Node18</title>
<g id="a_node18"><a xlink:href="hyperlink_8hpp.html" target="_top" xlink:title="Hyperlink widget.">
<polygon fill="white" stroke="black" points="472.09,-56.5 472.09,-75.5 597.09,-75.5 597.09,-56.5 472.09,-56.5"/>
<text text-anchor="middle" x="534.59" y="-63.5" font-family="Helvetica,sans-Serif" font-size="10.00">boost/ui/hyperlink.hpp</text>
</a>
</g>
</g>
<!-- Node2&#45;&gt;Node18 -->
<g id="edge19" class="edge">
<title>Node2&#45;&gt;Node18</title>
<path fill="none" stroke="midnightblue" d="M1111.98,-116.8C1005.06,-109.84 788.54,-94.77 605.59,-76 602.87,-75.72 600.1,-75.42 597.29,-75.11"/>
<polygon fill="midnightblue" stroke="midnightblue" points="1111.78,-120.3 1121.99,-117.45 1112.23,-113.31 1111.78,-120.3"/>
</g>
<!-- Node19 -->
<g id="node19" class="node">
<title>Node19</title>
<g id="a_node19"><a xlink:href="group__box_8hpp.html" target="_top" xlink:title="Group box widget.">
<polygon fill="white" stroke="black" points="615.09,-56.5 615.09,-75.5 746.09,-75.5 746.09,-56.5 615.09,-56.5"/>
<text text-anchor="middle" x="680.59" y="-63.5" font-family="Helvetica,sans-Serif" font-size="10.00">boost/ui/group_box.hpp</text>
</a>
</g>
</g>
<!-- Node2&#45;&gt;Node19 -->
<g id="edge20" class="edge">
<title>Node2&#45;&gt;Node19</title>
<path fill="none" stroke="midnightblue" d="M1111.68,-114.16C1028.26,-105.57 881.34,-90.23 755.59,-76 752.59,-75.66 749.53,-75.31 746.43,-74.95"/>
<polygon fill="midnightblue" stroke="midnightblue" points="1111.47,-117.66 1121.78,-115.2 1112.19,-110.7 1111.47,-117.66"/>
</g>
<!-- Node20 -->
<g id="node20" class="node">
<title>Node20</title>
<g id="a_node20"><a xlink:href="datetime_8hpp.html" target="_top" xlink:title="Date and time pickers.">
<polygon fill="white" stroke="black" points="764.59,-56.5 764.59,-75.5 888.59,-75.5 888.59,-56.5 764.59,-56.5"/>
<text text-anchor="middle" x="826.59" y="-63.5" font-family="Helvetica,sans-Serif" font-size="10.00">boost/ui/datetime.hpp</text>
</a>
</g>
</g>
<!-- Node2&#45;&gt;Node20 -->
<g id="edge21" class="edge">
<title>Node2&#45;&gt;Node20</title>
<path fill="none" stroke="midnightblue" d="M1112.86,-110.92C1046.36,-100.71 944.69,-85.12 882.11,-75.52"/>
<polygon fill="midnightblue" stroke="midnightblue" points="1112.4,-114.39 1122.82,-112.44 1113.46,-107.47 1112.4,-114.39"/>
</g>
<!-- Node21 -->
<g id="node21" class="node">
<title>Node21</title>
<g id="a_node21"><a xlink:href="check__box_8hpp.html" target="_top" xlink:title="Check box widget.">
<polygon fill="white" stroke="black" points="907.09,-56.5 907.09,-75.5 1038.09,-75.5 1038.09,-56.5 907.09,-56.5"/>
<text text-anchor="middle" x="972.59" y="-63.5" font-family="Helvetica,sans-Serif" font-size="10.00">boost/ui/check_box.hpp</text>
</a>
</g>
</g>
<!-- Node2&#45;&gt;Node21 -->
<g id="edge22" class="edge">
<title>Node2&#45;&gt;Node21</title>
<path fill="none" stroke="midnightblue" d="M1135.98,-109.83C1097.08,-99.63 1040.43,-84.78 1005.08,-75.52"/>
<polygon fill="midnightblue" stroke="midnightblue" points="1135.39,-113.29 1145.95,-112.44 1137.16,-106.52 1135.39,-113.29"/>
</g>
<!-- Node22 -->
<g id="node22" class="node">
<title>Node22</title>
<g id="a_node22"><a xlink:href="canvas_8hpp.html" target="_top" xlink:title="Canvas widget.">
<polygon fill="white" stroke="black" points="1056.59,-56.5 1056.59,-75.5 1170.59,-75.5 1170.59,-56.5 1056.59,-56.5"/>
<text text-anchor="middle" x="1113.59" y="-63.5" font-family="Helvetica,sans-Serif" font-size="10.00">boost/ui/canvas.hpp</text>
</a>
</g>
</g>
<!-- Node2&#45;&gt;Node22 -->
<g id="edge23" class="edge">
<title>Node2&#45;&gt;Node22</title>
<path fill="none" stroke="midnightblue" d="M1160.32,-105.82C1148.67,-96.15 1133.99,-83.95 1124.22,-75.83"/>
<polygon fill="midnightblue" stroke="midnightblue" points="1158.22,-108.63 1168.15,-112.32 1162.69,-103.24 1158.22,-108.63"/>
</g>
<!-- Node23 -->
<g id="node23" class="node">
<title>Node23</title>
<g id="a_node23"><a xlink:href="button_8hpp.html" target="_top" xlink:title="Button widget.">
<polygon fill="white" stroke="black" points="1189.09,-56.5 1189.09,-75.5 1300.09,-75.5 1300.09,-56.5 1189.09,-56.5"/>
<text text-anchor="middle" x="1244.59" y="-63.5" font-family="Helvetica,sans-Serif" font-size="10.00">boost/ui/button.hpp</text>
</a>
</g>
</g>
<!-- Node2&#45;&gt;Node23 -->
<g id="edge24" class="edge">
<title>Node2&#45;&gt;Node23</title>
<path fill="none" stroke="midnightblue" d="M1197.14,-105.82C1208.97,-96.15 1223.88,-83.95 1233.79,-75.83"/>
<polygon fill="midnightblue" stroke="midnightblue" points="1194.72,-103.28 1189.19,-112.32 1199.15,-108.7 1194.72,-103.28"/>
</g>
<!-- Node6 -->
<g id="node6" class="node">
<title>Node6</title>
<g id="a_node6"><a xlink:href="combo__box_8hpp.html" target="_top" xlink:title="Combo box widget.">
<polygon fill="white" stroke="black" points="2552.59,-0.5 2552.59,-19.5 2688.59,-19.5 2688.59,-0.5 2552.59,-0.5"/>
<text text-anchor="middle" x="2620.59" y="-7.5" font-family="Helvetica,sans-Serif" font-size="10.00">boost/ui/combo_box.hpp</text>
</a>
</g>
</g>
<!-- Node5&#45;&gt;Node6 -->
<g id="edge5" class="edge">
<title>Node5&#45;&gt;Node6</title>
<path fill="none" stroke="midnightblue" d="M2569.18,-50.1C2581.96,-40.38 2598.2,-28.03 2608.98,-19.83"/>
<polygon fill="midnightblue" stroke="midnightblue" points="2566.84,-47.48 2561,-56.32 2571.08,-53.06 2566.84,-47.48"/>
</g>
<!-- Node7 -->
<g id="node7" class="node">
<title>Node7</title>
<g id="a_node7"><a xlink:href="choice_8hpp.html" target="_top" xlink:title="Choice widget.">
<polygon fill="white" stroke="black" points="2423.09,-0.5 2423.09,-19.5 2534.09,-19.5 2534.09,-0.5 2423.09,-0.5"/>
<text text-anchor="middle" x="2478.59" y="-7.5" font-family="Helvetica,sans-Serif" font-size="10.00">boost/ui/choice.hpp</text>
</a>
</g>
</g>
<!-- Node5&#45;&gt;Node7 -->
<g id="edge6" class="edge">
<title>Node5&#45;&gt;Node7</title>
<path fill="none" stroke="midnightblue" d="M2530,-50.1C2517.22,-40.38 2500.98,-28.03 2490.21,-19.83"/>
<polygon fill="midnightblue" stroke="midnightblue" points="2528.11,-53.06 2538.18,-56.32 2532.34,-47.48 2528.11,-53.06"/>
</g>
<!-- Node5&#45;&gt;Node8 -->
<g id="edge7" class="edge">
<title>Node5&#45;&gt;Node8</title>
<path fill="none" stroke="midnightblue" d="M2471.47,-56.39C2470.17,-56.26 2468.87,-56.13 2467.59,-56 2295.32,-38.81 2089.41,-21.26 2005.27,-14.21"/>
<polygon fill="midnightblue" stroke="midnightblue" points="2471.28,-59.89 2481.59,-57.43 2472,-52.93 2471.28,-59.89"/>
</g>
<!-- Node9&#45;&gt;Node8 -->
<g id="edge9" class="edge">
<title>Node9&#45;&gt;Node8</title>
<path fill="none" stroke="midnightblue" d="M1966.59,-45.8C1966.59,-36.91 1966.59,-26.78 1966.59,-19.75"/>
<polygon fill="midnightblue" stroke="midnightblue" points="1963.09,-46.08 1966.59,-56.08 1970.09,-46.08 1963.09,-46.08"/>
</g>
<!-- Node14&#45;&gt;Node8 -->
<g id="edge15" class="edge">
<title>Node14&#45;&gt;Node8</title>
<path fill="none" stroke="midnightblue" d="M2072.57,-52.77C2046.83,-42.63 2010.9,-28.47 1988.2,-19.52"/>
<polygon fill="midnightblue" stroke="midnightblue" points="2071.3,-56.03 2081.88,-56.44 2073.86,-49.52 2071.3,-56.03"/>
</g>
<!-- Node24&#45;&gt;Node8 -->
<g id="edge28" class="edge">
<title>Node24&#45;&gt;Node8</title>
<path fill="none" stroke="midnightblue" d="M67.22,-108.91C36.06,-96.75 -0.79,-76.86 19.59,-56 54.21,-20.58 1657.4,-12.3 1928,-11.15"/>
<polygon fill="midnightblue" stroke="midnightblue" points="66.04,-112.21 76.63,-112.43 68.49,-105.65 66.04,-112.21"/>
</g>
<!-- Node24&#45;&gt;Node17 -->
<g id="edge27" class="edge">
<title>Node24&#45;&gt;Node17</title>
<path fill="none" stroke="midnightblue" d="M103.59,-101.8C103.59,-92.91 103.59,-82.78 103.59,-75.75"/>
<polygon fill="midnightblue" stroke="midnightblue" points="100.09,-102.08 103.59,-112.08 107.09,-102.08 100.09,-102.08"/>
</g>
<!-- Node25&#45;&gt;Node2 -->
<g id="edge30" class="edge">
<title>Node25&#45;&gt;Node2</title>
<path fill="none" stroke="midnightblue" d="M1178.59,-157.8C1178.59,-148.91 1178.59,-138.78 1178.59,-131.75"/>
<polygon fill="midnightblue" stroke="midnightblue" points="1175.09,-158.08 1178.59,-168.08 1182.09,-158.08 1175.09,-158.08"/>
</g>
<!-- Node25&#45;&gt;Node8 -->
<g id="edge31" class="edge">
<title>Node25&#45;&gt;Node8</title>
<path fill="none" stroke="midnightblue" d="M1242.62,-176.81C1487.24,-175.42 2353.14,-164.26 2434.59,-76 2494.05,-11.57 2127.94,-9.42 2005.48,-10.46"/>
<polygon fill="midnightblue" stroke="midnightblue" points="1242.45,-173.31 1232.47,-176.86 1242.49,-180.31 1242.45,-173.31"/>
</g>
</g>
</svg>
