<?xml version="1.0" encoding="UTF-8" standalone="no"?>
<!DOCTYPE svg PUBLIC "-//W3C//DTD SVG 1.1//EN"
 "http://www.w3.org/Graphics/SVG/1.1/DTD/svg11.dtd">
<!-- Generated by graphviz version 2.43.0 (0)
 -->
<!-- Title: boost/ui/coord.hpp Pages: 1 -->
<svg width="874pt" height="151pt"
 viewBox="0.00 0.00 874.00 151.00" xmlns="http://www.w3.org/2000/svg" xmlns:xlink="http://www.w3.org/1999/xlink">
<g id="graph0" class="graph" transform="scale(1 1) rotate(0) translate(4 147)">
<title>boost/ui/coord.hpp</title>
<polygon fill="white" stroke="transparent" points="-4,4 -4,-147 870,-147 870,4 -4,4"/>
<!-- Node1 -->
<g id="node1" class="node">
<title>Node1</title>
<g id="a_node1"><a xlink:title="Coordinates classes.">
<polygon fill="#bfbfbf" stroke="black" points="367.5,-123.5 367.5,-142.5 474.5,-142.5 474.5,-123.5 367.5,-123.5"/>
<text text-anchor="middle" x="421" y="-130.5" font-family="Helvetica,sans-Serif" font-size="10.00">boost/ui/coord.hpp</text>
</a>
</g>
</g>
<!-- Node2 -->
<g id="node2" class="node">
<title>Node2</title>
<g id="a_node2"><a xlink:href="config_8hpp.html" target="_top" xlink:title="Configuration options.">
<polygon fill="white" stroke="black" points="0,-62 0,-81 110,-81 110,-62 0,-62"/>
<text text-anchor="middle" x="55" y="-69" font-family="Helvetica,sans-Serif" font-size="10.00">boost/ui/config.hpp</text>
</a>
</g>
</g>
<!-- Node1&#45;&gt;Node2 -->
<g id="edge1" class="edge">
<title>Node1&#45;&gt;Node2</title>
<path fill="none" stroke="midnightblue" d="M367.25,-125.14C306.89,-117.16 206.1,-103.02 120,-87 113.81,-85.85 107.31,-84.53 100.91,-83.17"/>
<polygon fill="midnightblue" stroke="midnightblue" points="101.52,-79.72 91.01,-81.01 100.03,-86.56 101.52,-79.72"/>
</g>
<!-- Node4 -->
<g id="node4" class="node">
<title>Node4</title>
<g id="a_node4"><a xlink:title=" ">
<polygon fill="white" stroke="#bfbfbf" points="128.5,-62 128.5,-81 241.5,-81 241.5,-62 128.5,-62"/>
<text text-anchor="middle" x="185" y="-69" font-family="Helvetica,sans-Serif" font-size="10.00">boost/geometry.hpp</text>
</a>
</g>
</g>
<!-- Node1&#45;&gt;Node4 -->
<g id="edge3" class="edge">
<title>Node1&#45;&gt;Node4</title>
<path fill="none" stroke="midnightblue" d="M387.19,-123.48C345.48,-112.96 274.49,-95.06 228.69,-83.51"/>
<polygon fill="midnightblue" stroke="midnightblue" points="229.3,-80.06 218.75,-81.01 227.59,-86.85 229.3,-80.06"/>
</g>
<!-- Node5 -->
<g id="node5" class="node">
<title>Node5</title>
<g id="a_node5"><a xlink:title=" ">
<polygon fill="white" stroke="#bfbfbf" points="260,-56.5 260,-86.5 412,-86.5 412,-56.5 260,-56.5"/>
<text text-anchor="start" x="268" y="-74.5" font-family="Helvetica,sans-Serif" font-size="10.00">boost/geometry/geometries</text>
<text text-anchor="middle" x="336" y="-63.5" font-family="Helvetica,sans-Serif" font-size="10.00">/point_xy.hpp</text>
</a>
</g>
</g>
<!-- Node1&#45;&gt;Node5 -->
<g id="edge4" class="edge">
<title>Node1&#45;&gt;Node5</title>
<path fill="none" stroke="midnightblue" d="M408.82,-123.48C397.31,-115.42 379.6,-103.02 364.53,-92.47"/>
<polygon fill="midnightblue" stroke="midnightblue" points="366.23,-89.39 356.03,-86.52 362.22,-95.12 366.23,-89.39"/>
</g>
<!-- Node6 -->
<g id="node6" class="node">
<title>Node6</title>
<g id="a_node6"><a xlink:title=" ">
<polygon fill="white" stroke="#bfbfbf" points="430,-56.5 430,-86.5 582,-86.5 582,-56.5 430,-56.5"/>
<text text-anchor="start" x="438" y="-74.5" font-family="Helvetica,sans-Serif" font-size="10.00">boost/geometry/geometries</text>
<text text-anchor="middle" x="506" y="-63.5" font-family="Helvetica,sans-Serif" font-size="10.00">/box.hpp</text>
</a>
</g>
</g>
<!-- Node1&#45;&gt;Node6 -->
<g id="edge5" class="edge">
<title>Node1&#45;&gt;Node6</title>
<path fill="none" stroke="midnightblue" d="M433.18,-123.48C444.69,-115.42 462.4,-103.02 477.47,-92.47"/>
<polygon fill="midnightblue" stroke="midnightblue" points="479.78,-95.12 485.97,-86.52 475.77,-89.39 479.78,-95.12"/>
</g>
<!-- Node7 -->
<g id="node7" class="node">
<title>Node7</title>
<g id="a_node7"><a xlink:title=" ">
<polygon fill="white" stroke="#bfbfbf" points="600.5,-56.5 600.5,-86.5 713.5,-86.5 713.5,-56.5 600.5,-56.5"/>
<text text-anchor="start" x="608.5" y="-74.5" font-family="Helvetica,sans-Serif" font-size="10.00">boost/polygon/point</text>
<text text-anchor="middle" x="657" y="-63.5" font-family="Helvetica,sans-Serif" font-size="10.00">_data.hpp</text>
</a>
</g>
</g>
<!-- Node1&#45;&gt;Node7 -->
<g id="edge6" class="edge">
<title>Node1&#45;&gt;Node7</title>
<path fill="none" stroke="midnightblue" d="M454.81,-123.48C490.36,-114.51 547.18,-100.19 591.54,-89"/>
<polygon fill="midnightblue" stroke="midnightblue" points="592.54,-92.36 601.38,-86.52 590.83,-85.57 592.54,-92.36"/>
</g>
<!-- Node8 -->
<g id="node8" class="node">
<title>Node8</title>
<g id="a_node8"><a xlink:title=" ">
<polygon fill="white" stroke="#bfbfbf" points="732,-56.5 732,-86.5 866,-86.5 866,-56.5 732,-56.5"/>
<text text-anchor="start" x="740" y="-74.5" font-family="Helvetica,sans-Serif" font-size="10.00">boost/polygon/rectangle</text>
<text text-anchor="middle" x="799" y="-63.5" font-family="Helvetica,sans-Serif" font-size="10.00">_data.hpp</text>
</a>
</g>
</g>
<!-- Node1&#45;&gt;Node8 -->
<g id="edge7" class="edge">
<title>Node1&#45;&gt;Node8</title>
<path fill="none" stroke="midnightblue" d="M474.57,-124.69C532.89,-116.58 629.18,-102.75 721.78,-87.17"/>
<polygon fill="midnightblue" stroke="midnightblue" points="722.61,-90.58 731.89,-85.46 721.45,-83.67 722.61,-90.58"/>
</g>
<!-- Node3 -->
<g id="node3" class="node">
<title>Node3</title>
<g id="a_node3"><a xlink:title=" ">
<polygon fill="white" stroke="#bfbfbf" points="6,-0.5 6,-19.5 104,-19.5 104,-0.5 6,-0.5"/>
<text text-anchor="middle" x="55" y="-7.5" font-family="Helvetica,sans-Serif" font-size="10.00">boost/config.hpp</text>
</a>
</g>
</g>
<!-- Node2&#45;&gt;Node3 -->
<g id="edge2" class="edge">
<title>Node2&#45;&gt;Node3</title>
<path fill="none" stroke="midnightblue" d="M55,-61.98C55,-53.58 55,-40.48 55,-29.66"/>
<polygon fill="midnightblue" stroke="midnightblue" points="58.5,-29.51 55,-19.51 51.5,-29.51 58.5,-29.51"/>
</g>
</g>
</svg>
