<?xml version="1.0" encoding="UTF-8" standalone="no"?>
<!DOCTYPE svg PUBLIC "-//W3C//DTD SVG 1.1//EN"
 "http://www.w3.org/Graphics/SVG/1.1/DTD/svg11.dtd">
<!-- Generated by graphviz version 2.38.0 (20140413.2041)
 -->
<!-- Title: boost/ui/coord.hpp Pages: 1 -->
<svg width="2307pt" height="252pt"
 viewBox="0.00 0.00 2306.61 252.00" xmlns="http://www.w3.org/2000/svg" xmlns:xlink="http://www.w3.org/1999/xlink">
<g id="graph0" class="graph" transform="scale(1 1) rotate(0) translate(4 248)">
<title>boost/ui/coord.hpp</title>
<polygon fill="white" stroke="none" points="-4,4 -4,-248 2302.61,-248 2302.61,4 -4,4"/>
<!-- Node1 -->
<g id="node1" class="node"><title>Node1</title>
<polygon fill="#bfbfbf" stroke="black" points="73.1131,-224.5 73.1131,-243.5 170.113,-243.5 170.113,-224.5 73.1131,-224.5"/>
<text text-anchor="middle" x="121.613" y="-231.5" font-family="Helvetica,sans-Serif" font-size="10.00">boost/ui/coord.hpp</text>
</g>
<!-- Node2 -->
<g id="node2" class="node"><title>Node2</title>
<g id="a_node2"><a xlink:href="widget_8hpp.html" target="_top" xlink:title="Widget class. ">
<polygon fill="white" stroke="black" points="1070.11,-112.5 1070.11,-131.5 1171.11,-131.5 1171.11,-112.5 1070.11,-112.5"/>
<text text-anchor="middle" x="1120.61" y="-119.5" font-family="Helvetica,sans-Serif" font-size="10.00">boost/ui/widget.hpp</text>
</a>
</g>
</g>
<!-- Node1&#45;&gt;Node2 -->
<g id="edge1" class="edge"><title>Node1&#45;&gt;Node2</title>
<path fill="none" stroke="midnightblue" d="M180.187,-226.55C359.91,-206.761 901.518,-147.125 1070.02,-128.571"/>
<polygon fill="midnightblue" stroke="midnightblue" points="179.691,-223.084 170.135,-227.657 180.458,-230.042 179.691,-223.084"/>
</g>
<!-- Node8 -->
<g id="node8" class="node"><title>Node8</title>
<g id="a_node8"><a xlink:href="ui_8hpp.html" target="_top" xlink:title="Master Boost.UI file. ">
<polygon fill="white" stroke="black" points="829.613,-0.5 829.613,-19.5 899.613,-19.5 899.613,-0.5 829.613,-0.5"/>
<text text-anchor="middle" x="864.613" y="-7.5" font-family="Helvetica,sans-Serif" font-size="10.00">boost/ui.hpp</text>
</a>
</g>
</g>
<!-- Node1&#45;&gt;Node8 -->
<g id="edge30" class="edge"><title>Node1&#45;&gt;Node8</title>
<path fill="none" stroke="midnightblue" d="M70.5965,-221.125C53.2894,-214.397 35.7776,-203.99 25.6131,-188 -1.11872,-145.947 -29.3056,-127.595 69.6131,-56 131.766,-11.0154 683.974,-10.2103 829.558,-10.79"/>
<polygon fill="midnightblue" stroke="midnightblue" points="69.5477,-224.467 80.1425,-224.497 71.8789,-217.866 69.5477,-224.467"/>
</g>
<!-- Node23 -->
<g id="node23" class="node"><title>Node23</title>
<g id="a_node23"><a xlink:href="image_8hpp.html" target="_top" xlink:title="Image class. ">
<polygon fill="white" stroke="black" points="111.113,-112.5 111.113,-131.5 210.113,-131.5 210.113,-112.5 111.113,-112.5"/>
<text text-anchor="middle" x="160.613" y="-119.5" font-family="Helvetica,sans-Serif" font-size="10.00">boost/ui/image.hpp</text>
</a>
</g>
</g>
<!-- Node1&#45;&gt;Node23 -->
<g id="edge24" class="edge"><title>Node1&#45;&gt;Node23</title>
<path fill="none" stroke="midnightblue" d="M129.623,-215.189C133.185,-206.986 137.31,-197.077 140.613,-188 147.881,-168.029 154.816,-144.007 158.293,-131.504"/>
<polygon fill="midnightblue" stroke="midnightblue" points="126.359,-213.915 125.517,-224.476 132.761,-216.745 126.359,-213.915"/>
</g>
<!-- Node24 -->
<g id="node24" class="node"><title>Node24</title>
<g id="a_node24"><a xlink:href="event_8hpp.html" target="_top" xlink:title="Event classes. ">
<polygon fill="white" stroke="black" points="35.1131,-168.5 35.1131,-187.5 132.113,-187.5 132.113,-168.5 35.1131,-168.5"/>
<text text-anchor="middle" x="83.6131" y="-175.5" font-family="Helvetica,sans-Serif" font-size="10.00">boost/ui/event.hpp</text>
</a>
</g>
</g>
<!-- Node1&#45;&gt;Node24 -->
<g id="edge27" class="edge"><title>Node1&#45;&gt;Node24</title>
<path fill="none" stroke="midnightblue" d="M109.548,-215.855C102.968,-206.505 95.1021,-195.327 89.7712,-187.751"/>
<polygon fill="midnightblue" stroke="midnightblue" points="106.721,-217.919 115.338,-224.083 112.445,-213.891 106.721,-217.919"/>
</g>
<!-- Node3 -->
<g id="node3" class="node"><title>Node3</title>
<g id="a_node3"><a xlink:href="web__widget_8hpp.html" target="_top" xlink:title="Web widget. ">
<polygon fill="white" stroke="black" points="1374.11,-56.5 1374.11,-75.5 1499.11,-75.5 1499.11,-56.5 1374.11,-56.5"/>
<text text-anchor="middle" x="1436.61" y="-63.5" font-family="Helvetica,sans-Serif" font-size="10.00">boost/ui/web_widget.hpp</text>
</a>
</g>
</g>
<!-- Node2&#45;&gt;Node3 -->
<g id="edge2" class="edge"><title>Node2&#45;&gt;Node3</title>
<path fill="none" stroke="midnightblue" d="M1180.73,-110.727C1240.44,-100.523 1330.94,-85.0583 1386.78,-75.5164"/>
<polygon fill="midnightblue" stroke="midnightblue" points="1179.95,-107.309 1170.68,-112.444 1181.13,-114.209 1179.95,-107.309"/>
</g>
<!-- Node4 -->
<g id="node4" class="node"><title>Node4</title>
<g id="a_node4"><a xlink:href="text__box_8hpp.html" target="_top" xlink:title="Text editor widgets. ">
<polygon fill="white" stroke="black" points="1517.61,-56.5 1517.61,-75.5 1627.61,-75.5 1627.61,-56.5 1517.61,-56.5"/>
<text text-anchor="middle" x="1572.61" y="-63.5" font-family="Helvetica,sans-Serif" font-size="10.00">boost/ui/text_box.hpp</text>
</a>
</g>
</g>
<!-- Node2&#45;&gt;Node4 -->
<g id="edge3" class="edge"><title>Node2&#45;&gt;Node4</title>
<path fill="none" stroke="midnightblue" d="M1181.59,-114.391C1258.05,-105.996 1393.14,-90.813 1508.61,-76 1511.51,-75.6288 1514.47,-75.2402 1517.47,-74.8415"/>
<polygon fill="midnightblue" stroke="midnightblue" points="1180.75,-110.961 1171.2,-115.529 1181.52,-117.919 1180.75,-110.961"/>
</g>
<!-- Node5 -->
<g id="node5" class="node"><title>Node5</title>
<g id="a_node5"><a xlink:href="strings__box_8hpp.html" target="_top" xlink:title="Widget with array of strings. ">
<polygon fill="white" stroke="black" points="1799.11,-56.5 1799.11,-75.5 1922.11,-75.5 1922.11,-56.5 1799.11,-56.5"/>
<text text-anchor="middle" x="1860.61" y="-63.5" font-family="Helvetica,sans-Serif" font-size="10.00">boost/ui/strings_box.hpp</text>
</a>
</g>
</g>
<!-- Node2&#45;&gt;Node5 -->
<g id="edge4" class="edge"><title>Node2&#45;&gt;Node5</title>
<path fill="none" stroke="midnightblue" d="M1181.37,-118.159C1299.11,-112.379 1566.48,-97.9148 1790.61,-76 1793.3,-75.7377 1796.03,-75.454 1798.8,-75.1545"/>
<polygon fill="midnightblue" stroke="midnightblue" points="1180.95,-114.676 1171.13,-118.658 1181.29,-121.667 1180.95,-114.676"/>
</g>
<!-- Node2&#45;&gt;Node8 -->
<g id="edge23" class="edge"><title>Node2&#45;&gt;Node8</title>
<path fill="none" stroke="midnightblue" d="M1181.73,-120.201C1311.75,-117.866 1606.41,-108.957 1636.61,-76 1642.62,-69.4473 1642.71,-62.4657 1636.61,-56 1611.02,-28.87 1048,-14.9297 899.994,-11.7256"/>
<polygon fill="midnightblue" stroke="midnightblue" points="1181.48,-116.705 1171.54,-120.376 1181.6,-123.704 1181.48,-116.705"/>
</g>
<!-- Node9 -->
<g id="node9" class="node"><title>Node9</title>
<g id="a_node9"><a xlink:href="slider_8hpp.html" target="_top" xlink:title="Slider widget. ">
<polygon fill="white" stroke="black" points="1940.61,-56.5 1940.61,-75.5 2036.61,-75.5 2036.61,-56.5 1940.61,-56.5"/>
<text text-anchor="middle" x="1988.61" y="-63.5" font-family="Helvetica,sans-Serif" font-size="10.00">boost/ui/slider.hpp</text>
</a>
</g>
</g>
<!-- Node2&#45;&gt;Node9 -->
<g id="edge8" class="edge"><title>Node2&#45;&gt;Node9</title>
<path fill="none" stroke="midnightblue" d="M1181.69,-119.72C1317.08,-116.422 1652.48,-105.704 1931.61,-76 1934.5,-75.6926 1937.47,-75.3393 1940.46,-74.9545"/>
<polygon fill="midnightblue" stroke="midnightblue" points="1181.44,-116.225 1171.53,-119.963 1181.61,-123.223 1181.44,-116.225"/>
</g>
<!-- Node10 -->
<g id="node10" class="node"><title>Node10</title>
<g id="a_node10"><a xlink:href="progress__bar_8hpp.html" target="_top" xlink:title="Progress bar widget. ">
<polygon fill="white" stroke="black" points="2055.11,-56.5 2055.11,-75.5 2184.11,-75.5 2184.11,-56.5 2055.11,-56.5"/>
<text text-anchor="middle" x="2119.61" y="-63.5" font-family="Helvetica,sans-Serif" font-size="10.00">boost/ui/progress_bar.hpp</text>
</a>
</g>
</g>
<!-- Node2&#45;&gt;Node10 -->
<g id="edge9" class="edge"><title>Node2&#45;&gt;Node10</title>
<path fill="none" stroke="midnightblue" d="M1181.58,-119.561C1329.78,-115.731 1720.59,-103.634 2045.61,-76 2048.71,-75.7369 2051.87,-75.444 2055.07,-75.1292"/>
<polygon fill="midnightblue" stroke="midnightblue" points="1181.24,-116.068 1171.34,-119.823 1181.42,-123.066 1181.24,-116.068"/>
</g>
<!-- Node11 -->
<g id="node11" class="node"><title>Node11</title>
<g id="a_node11"><a xlink:href="panel_8hpp.html" target="_top" xlink:title="Panel widget. ">
<polygon fill="white" stroke="black" points="2202.61,-56.5 2202.61,-75.5 2298.61,-75.5 2298.61,-56.5 2202.61,-56.5"/>
<text text-anchor="middle" x="2250.61" y="-63.5" font-family="Helvetica,sans-Serif" font-size="10.00">boost/ui/panel.hpp</text>
</a>
</g>
</g>
<!-- Node2&#45;&gt;Node11 -->
<g id="edge10" class="edge"><title>Node2&#45;&gt;Node11</title>
<path fill="none" stroke="midnightblue" d="M1181.68,-120.887C1345.79,-120.054 1809.87,-114.215 2193.61,-76 2196.5,-75.7121 2199.47,-75.3739 2202.46,-75.0006"/>
<polygon fill="midnightblue" stroke="midnightblue" points="1181.29,-117.388 1171.31,-120.935 1181.33,-124.388 1181.29,-117.388"/>
</g>
<!-- Node12 -->
<g id="node12" class="node"><title>Node12</title>
<g id="a_node12"><a xlink:href="notebook_8hpp.html" target="_top" xlink:title="Notebook widget. ">
<polygon fill="white" stroke="black" points="254.113,-56.5 254.113,-75.5 367.113,-75.5 367.113,-56.5 254.113,-56.5"/>
<text text-anchor="middle" x="310.613" y="-63.5" font-family="Helvetica,sans-Serif" font-size="10.00">boost/ui/notebook.hpp</text>
</a>
</g>
</g>
<!-- Node2&#45;&gt;Node12 -->
<g id="edge11" class="edge"><title>Node2&#45;&gt;Node12</title>
<path fill="none" stroke="midnightblue" d="M1059.69,-118.866C932.52,-114.071 629.64,-100.868 376.613,-76 373.621,-75.7059 370.555,-75.3787 367.463,-75.0282"/>
<polygon fill="midnightblue" stroke="midnightblue" points="1059.87,-122.375 1069.99,-119.251 1060.13,-115.38 1059.87,-122.375"/>
</g>
<!-- Node13 -->
<g id="node13" class="node"><title>Node13</title>
<g id="a_node13"><a xlink:href="menu_8hpp.html" target="_top" xlink:title="Menu classes. ">
<polygon fill="white" stroke="black" points="1684.11,-56.5 1684.11,-75.5 1781.11,-75.5 1781.11,-56.5 1684.11,-56.5"/>
<text text-anchor="middle" x="1732.61" y="-63.5" font-family="Helvetica,sans-Serif" font-size="10.00">boost/ui/menu.hpp</text>
</a>
</g>
</g>
<!-- Node2&#45;&gt;Node13 -->
<g id="edge12" class="edge"><title>Node2&#45;&gt;Node13</title>
<path fill="none" stroke="midnightblue" d="M1181.48,-117.211C1282.89,-110.629 1492.75,-95.8639 1669.61,-76 1674.22,-75.4821 1679.02,-74.8919 1683.81,-74.267"/>
<polygon fill="midnightblue" stroke="midnightblue" points="1181.18,-113.723 1171.42,-117.86 1181.63,-120.709 1181.18,-113.723"/>
</g>
<!-- Node14 -->
<g id="node14" class="node"><title>Node14</title>
<g id="a_node14"><a xlink:href="line_8hpp.html" target="_top" xlink:title="line widget ">
<polygon fill="white" stroke="black" points="385.613,-56.5 385.613,-75.5 473.613,-75.5 473.613,-56.5 385.613,-56.5"/>
<text text-anchor="middle" x="429.613" y="-63.5" font-family="Helvetica,sans-Serif" font-size="10.00">boost/ui/line.hpp</text>
</a>
</g>
</g>
<!-- Node2&#45;&gt;Node14 -->
<g id="edge14" class="edge"><title>Node2&#45;&gt;Node14</title>
<path fill="none" stroke="midnightblue" d="M1059.76,-118.691C946.065,-113.938 693.764,-101.313 482.613,-76 479.74,-75.6556 476.786,-75.2627 473.812,-74.838"/>
<polygon fill="midnightblue" stroke="midnightblue" points="1059.87,-122.198 1070,-119.114 1060.16,-115.204 1059.87,-122.198"/>
</g>
<!-- Node15 -->
<g id="node15" class="node"><title>Node15</title>
<g id="a_node15"><a xlink:href="label_8hpp.html" target="_top" xlink:title="Label widget. ">
<polygon fill="white" stroke="black" points="491.113,-56.5 491.113,-75.5 584.113,-75.5 584.113,-56.5 491.113,-56.5"/>
<text text-anchor="middle" x="537.613" y="-63.5" font-family="Helvetica,sans-Serif" font-size="10.00">boost/ui/label.hpp</text>
</a>
</g>
</g>
<!-- Node2&#45;&gt;Node15 -->
<g id="edge15" class="edge"><title>Node2&#45;&gt;Node15</title>
<path fill="none" stroke="midnightblue" d="M1059.82,-117.349C961.416,-111.096 761.251,-96.9522 592.613,-76 589.925,-75.666 587.166,-75.2973 584.385,-74.9057"/>
<polygon fill="midnightblue" stroke="midnightblue" points="1059.68,-120.847 1069.88,-117.983 1060.12,-113.861 1059.68,-120.847"/>
</g>
<!-- Node16 -->
<g id="node16" class="node"><title>Node16</title>
<g id="a_node16"><a xlink:href="image__widget_8hpp.html" target="_top" xlink:title="Image widget. ">
<polygon fill="white" stroke="black" points="103.113,-56.5 103.113,-75.5 236.113,-75.5 236.113,-56.5 103.113,-56.5"/>
<text text-anchor="middle" x="169.613" y="-63.5" font-family="Helvetica,sans-Serif" font-size="10.00">boost/ui/image_widget.hpp</text>
</a>
</g>
</g>
<!-- Node2&#45;&gt;Node16 -->
<g id="edge16" class="edge"><title>Node2&#45;&gt;Node16</title>
<path fill="none" stroke="midnightblue" d="M1059.45,-119.254C916.709,-114.873 550.586,-101.871 245.613,-76 242.568,-75.7417 239.457,-75.4572 236.316,-75.1532"/>
<polygon fill="midnightblue" stroke="midnightblue" points="1059.64,-122.761 1069.74,-119.567 1059.85,-115.764 1059.64,-122.761"/>
</g>
<!-- Node17 -->
<g id="node17" class="node"><title>Node17</title>
<g id="a_node17"><a xlink:href="hyperlink_8hpp.html" target="_top" xlink:title="Hyperlink widget. ">
<polygon fill="white" stroke="black" points="601.613,-56.5 601.613,-75.5 713.613,-75.5 713.613,-56.5 601.613,-56.5"/>
<text text-anchor="middle" x="657.613" y="-63.5" font-family="Helvetica,sans-Serif" font-size="10.00">boost/ui/hyperlink.hpp</text>
</a>
</g>
</g>
<!-- Node2&#45;&gt;Node17 -->
<g id="edge17" class="edge"><title>Node2&#45;&gt;Node17</title>
<path fill="none" stroke="midnightblue" d="M1059.85,-114.607C981.742,-106.28 841.962,-91.0073 722.613,-76 719.674,-75.6305 716.662,-75.2431 713.621,-74.8455"/>
<polygon fill="midnightblue" stroke="midnightblue" points="1059.67,-118.108 1069.99,-115.686 1060.42,-111.147 1059.67,-118.108"/>
</g>
<!-- Node18 -->
<g id="node18" class="node"><title>Node18</title>
<g id="a_node18"><a xlink:href="group__box_8hpp.html" target="_top" xlink:title="Group box widget. ">
<polygon fill="white" stroke="black" points="731.613,-56.5 731.613,-75.5 849.613,-75.5 849.613,-56.5 731.613,-56.5"/>
<text text-anchor="middle" x="790.613" y="-63.5" font-family="Helvetica,sans-Serif" font-size="10.00">boost/ui/group_box.hpp</text>
</a>
</g>
</g>
<!-- Node2&#45;&gt;Node18 -->
<g id="edge18" class="edge"><title>Node2&#45;&gt;Node18</title>
<path fill="none" stroke="midnightblue" d="M1059.68,-111.03C997.336,-100.827 901.485,-85.1427 842.6,-75.5069"/>
<polygon fill="midnightblue" stroke="midnightblue" points="1059.34,-114.52 1069.77,-112.681 1060.47,-107.612 1059.34,-114.52"/>
</g>
<!-- Node19 -->
<g id="node19" class="node"><title>Node19</title>
<g id="a_node19"><a xlink:href="datetime_8hpp.html" target="_top" xlink:title="Date and time pickers. ">
<polygon fill="white" stroke="black" points="867.613,-56.5 867.613,-75.5 977.613,-75.5 977.613,-56.5 867.613,-56.5"/>
<text text-anchor="middle" x="922.613" y="-63.5" font-family="Helvetica,sans-Serif" font-size="10.00">boost/ui/datetime.hpp</text>
</a>
</g>
</g>
<!-- Node2&#45;&gt;Node19 -->
<g id="edge19" class="edge"><title>Node2&#45;&gt;Node19</title>
<path fill="none" stroke="midnightblue" d="M1079.17,-109.699C1041.81,-99.507 987.67,-84.7429 953.84,-75.5164"/>
<polygon fill="midnightblue" stroke="midnightblue" points="1078.67,-113.189 1089.24,-112.444 1080.51,-106.436 1078.67,-113.189"/>
</g>
<!-- Node20 -->
<g id="node20" class="node"><title>Node20</title>
<g id="a_node20"><a xlink:href="check__box_8hpp.html" target="_top" xlink:title="Check box widget. ">
<polygon fill="white" stroke="black" points="995.613,-56.5 995.613,-75.5 1115.61,-75.5 1115.61,-56.5 995.613,-56.5"/>
<text text-anchor="middle" x="1055.61" y="-63.5" font-family="Helvetica,sans-Serif" font-size="10.00">boost/ui/check_box.hpp</text>
</a>
</g>
</g>
<!-- Node2&#45;&gt;Node20 -->
<g id="edge20" class="edge"><title>Node2&#45;&gt;Node20</title>
<path fill="none" stroke="midnightblue" d="M1102.34,-105.82C1090.7,-96.1452 1076.01,-83.9481 1066.25,-75.8339"/>
<polygon fill="midnightblue" stroke="midnightblue" points="1100.24,-108.626 1110.17,-112.324 1104.71,-103.242 1100.24,-108.626"/>
</g>
<!-- Node21 -->
<g id="node21" class="node"><title>Node21</title>
<g id="a_node21"><a xlink:href="canvas_8hpp.html" target="_top" xlink:title="Canvas widget. ">
<polygon fill="white" stroke="black" points="1133.61,-56.5 1133.61,-75.5 1237.61,-75.5 1237.61,-56.5 1133.61,-56.5"/>
<text text-anchor="middle" x="1185.61" y="-63.5" font-family="Helvetica,sans-Serif" font-size="10.00">boost/ui/canvas.hpp</text>
</a>
</g>
</g>
<!-- Node2&#45;&gt;Node21 -->
<g id="edge21" class="edge"><title>Node2&#45;&gt;Node21</title>
<path fill="none" stroke="midnightblue" d="M1138.89,-105.82C1150.53,-96.1452 1165.21,-83.9481 1174.98,-75.8339"/>
<polygon fill="midnightblue" stroke="midnightblue" points="1136.51,-103.242 1131.06,-112.324 1140.98,-108.626 1136.51,-103.242"/>
</g>
<!-- Node22 -->
<g id="node22" class="node"><title>Node22</title>
<g id="a_node22"><a xlink:href="button_8hpp.html" target="_top" xlink:title="Button widget. ">
<polygon fill="white" stroke="black" points="1255.61,-56.5 1255.61,-75.5 1355.61,-75.5 1355.61,-56.5 1255.61,-56.5"/>
<text text-anchor="middle" x="1305.61" y="-63.5" font-family="Helvetica,sans-Serif" font-size="10.00">boost/ui/button.hpp</text>
</a>
</g>
</g>
<!-- Node2&#45;&gt;Node22 -->
<g id="edge22" class="edge"><title>Node2&#45;&gt;Node22</title>
<path fill="none" stroke="midnightblue" d="M1159.78,-109.568C1194.68,-99.381 1244.96,-84.7034 1276.44,-75.5164"/>
<polygon fill="midnightblue" stroke="midnightblue" points="1158.55,-106.282 1149.93,-112.444 1160.51,-113.001 1158.55,-106.282"/>
</g>
<!-- Node6 -->
<g id="node6" class="node"><title>Node6</title>
<g id="a_node6"><a xlink:href="combo__box_8hpp.html" target="_top" xlink:title="Combo box widget. ">
<polygon fill="white" stroke="black" points="1734.11,-0.5 1734.11,-19.5 1857.11,-19.5 1857.11,-0.5 1734.11,-0.5"/>
<text text-anchor="middle" x="1795.61" y="-7.5" font-family="Helvetica,sans-Serif" font-size="10.00">boost/ui/combo_box.hpp</text>
</a>
</g>
</g>
<!-- Node5&#45;&gt;Node6 -->
<g id="edge5" class="edge"><title>Node5&#45;&gt;Node6</title>
<path fill="none" stroke="midnightblue" d="M1842.34,-49.8197C1830.7,-40.1452 1816.01,-27.9481 1806.25,-19.8339"/>
<polygon fill="midnightblue" stroke="midnightblue" points="1840.24,-52.6259 1850.17,-56.324 1844.71,-47.2416 1840.24,-52.6259"/>
</g>
<!-- Node7 -->
<g id="node7" class="node"><title>Node7</title>
<g id="a_node7"><a xlink:href="choice_8hpp.html" target="_top" xlink:title="Choice widget. ">
<polygon fill="white" stroke="black" points="1875.11,-0.5 1875.11,-19.5 1976.11,-19.5 1976.11,-0.5 1875.11,-0.5"/>
<text text-anchor="middle" x="1925.61" y="-7.5" font-family="Helvetica,sans-Serif" font-size="10.00">boost/ui/choice.hpp</text>
</a>
</g>
</g>
<!-- Node5&#45;&gt;Node7 -->
<g id="edge6" class="edge"><title>Node5&#45;&gt;Node7</title>
<path fill="none" stroke="midnightblue" d="M1878.89,-49.8197C1890.53,-40.1452 1905.21,-27.9481 1914.98,-19.8339"/>
<polygon fill="midnightblue" stroke="midnightblue" points="1876.51,-47.2416 1871.06,-56.324 1880.98,-52.6259 1876.51,-47.2416"/>
</g>
<!-- Node5&#45;&gt;Node8 -->
<g id="edge7" class="edge"><title>Node5&#45;&gt;Node8</title>
<path fill="none" stroke="midnightblue" d="M1788.66,-55.8915C1436.31,-25.163 1021.99,-14.3669 900.006,-11.7093"/>
<polygon fill="midnightblue" stroke="midnightblue" points="1788.54,-59.394 1798.81,-56.7832 1789.15,-52.4209 1788.54,-59.394"/>
</g>
<!-- Node13&#45;&gt;Node8 -->
<g id="edge13" class="edge"><title>Node13&#45;&gt;Node8</title>
<path fill="none" stroke="midnightblue" d="M1673.55,-56.4074C1672.22,-56.2649 1670.91,-56.1288 1669.61,-56 1372.92,-26.5703 1012.66,-14.961 900.007,-11.8914"/>
<polygon fill="midnightblue" stroke="midnightblue" points="1673.49,-59.9238 1683.82,-57.6075 1674.3,-52.971 1673.49,-59.9238"/>
</g>
<!-- Node23&#45;&gt;Node8 -->
<g id="edge26" class="edge"><title>Node23&#45;&gt;Node8</title>
<path fill="none" stroke="midnightblue" d="M131.205,-108.035C105.882,-95.1577 75.9831,-74.6889 93.6131,-56 119.174,-28.904 681.462,-14.9387 829.278,-11.7273"/>
<polygon fill="midnightblue" stroke="midnightblue" points="129.706,-111.198 140.231,-112.419 132.764,-104.902 129.706,-111.198"/>
</g>
<!-- Node23&#45;&gt;Node16 -->
<g id="edge25" class="edge"><title>Node23&#45;&gt;Node16</title>
<path fill="none" stroke="midnightblue" d="M163.763,-102.101C165.257,-93.1357 166.97,-82.8579 168.155,-75.7511"/>
<polygon fill="midnightblue" stroke="midnightblue" points="160.291,-101.644 162.099,-112.083 167.196,-102.794 160.291,-101.644"/>
</g>
<!-- Node24&#45;&gt;Node2 -->
<g id="edge28" class="edge"><title>Node24&#45;&gt;Node2</title>
<path fill="none" stroke="midnightblue" d="M142.318,-173.943C327.388,-164.306 896.599,-134.665 1069.97,-125.637"/>
<polygon fill="midnightblue" stroke="midnightblue" points="142.043,-170.453 132.239,-174.468 142.407,-177.443 142.043,-170.453"/>
</g>
<!-- Node24&#45;&gt;Node8 -->
<g id="edge29" class="edge"><title>Node24&#45;&gt;Node8</title>
<path fill="none" stroke="midnightblue" d="M76.9563,-158.659C68.6591,-132.179 58.5172,-83.4169 84.6131,-56 110.622,-28.6739 680.636,-14.855 829.374,-11.7063"/>
<polygon fill="midnightblue" stroke="midnightblue" points="73.6689,-159.864 80.1811,-168.221 80.3019,-157.627 73.6689,-159.864"/>
</g>
</g>
</svg>
