<?xml version="1.0" encoding="UTF-8" standalone="no"?>
<!DOCTYPE svg PUBLIC "-//W3C//DTD SVG 1.1//EN"
 "http://www.w3.org/Graphics/SVG/1.1/DTD/svg11.dtd">
<!-- Generated by graphviz version 2.38.0 (20140413.2041)
 -->
<!-- Title: boost/ui/datetime.hpp Pages: 1 -->
<svg width="1751pt" height="341pt"
 viewBox="0.00 0.00 1750.80 341.00" xmlns="http://www.w3.org/2000/svg" xmlns:xlink="http://www.w3.org/1999/xlink">
<g id="graph0" class="graph" transform="scale(1 1) rotate(0) translate(4 337)">
<title>boost/ui/datetime.hpp</title>
<polygon fill="white" stroke="none" points="-4,4 -4,-337 1746.8,-337 1746.8,4 -4,4"/>
<!-- Node1 -->
<g id="node1" class="node"><title>Node1</title>
<polygon fill="#bfbfbf" stroke="black" points="974.304,-313.5 974.304,-332.5 1084.3,-332.5 1084.3,-313.5 974.304,-313.5"/>
<text text-anchor="middle" x="1029.3" y="-320.5" font-family="Helvetica,sans-Serif" font-size="10.00">boost/ui/datetime.hpp</text>
</g>
<!-- Node2 -->
<g id="node2" class="node"><title>Node2</title>
<g id="a_node2"><a xlink:href="config_8hpp.html" target="_top" xlink:title="Configuration options. ">
<polygon fill="white" stroke="black" points="306.804,-62 306.804,-81 405.804,-81 405.804,-62 306.804,-62"/>
<text text-anchor="middle" x="356.304" y="-69" font-family="Helvetica,sans-Serif" font-size="10.00">boost/ui/config.hpp</text>
</a>
</g>
</g>
<!-- Node1&#45;&gt;Node2 -->
<g id="edge1" class="edge"><title>Node1&#45;&gt;Node2</title>
<path fill="none" stroke="midnightblue" d="M974.006,-321.521C890.201,-319.67 736.421,-311.515 695.304,-277 640.292,-230.82 700.851,-169.728 646.304,-123 606.682,-89.0577 465.442,-97.3376 414.304,-87 408.963,-85.9203 403.373,-84.6736 397.862,-83.3738"/>
<polygon fill="midnightblue" stroke="midnightblue" points="398.639,-79.9609 388.095,-81.0015 396.986,-86.7631 398.639,-79.9609"/>
</g>
<!-- Node3 -->
<g id="node3" class="node"><title>Node3</title>
<polygon fill="white" stroke="#bfbfbf" points="133.804,-0.5 133.804,-19.5 222.804,-19.5 222.804,-0.5 133.804,-0.5"/>
<text text-anchor="middle" x="178.304" y="-7.5" font-family="Helvetica,sans-Serif" font-size="10.00">boost/config.hpp</text>
</g>
<!-- Node1&#45;&gt;Node3 -->
<g id="edge34" class="edge"><title>Node1&#45;&gt;Node3</title>
<path fill="none" stroke="midnightblue" d="M974.034,-321.066C760.508,-316.739 1.30412,-294.4 1.30412,-195.5 1.30412,-195.5 1.30412,-195.5 1.30412,-132 1.30412,-97.1827 -3.91235,-81.0162 20.3041,-56 47.001,-28.4215 89.2933,-17.4028 123.406,-13.1545"/>
<polygon fill="midnightblue" stroke="midnightblue" points="124.138,-16.596 133.704,-12.0426 123.386,-9.63641 124.138,-16.596"/>
</g>
<!-- Node4 -->
<g id="node4" class="node"><title>Node4</title>
<g id="a_node4"><a xlink:href="widget_8hpp.html" target="_top" xlink:title="Widget class. ">
<polygon fill="white" stroke="black" points="343.804,-252 343.804,-271 444.804,-271 444.804,-252 343.804,-252"/>
<text text-anchor="middle" x="394.304" y="-259" font-family="Helvetica,sans-Serif" font-size="10.00">boost/ui/widget.hpp</text>
</a>
</g>
</g>
<!-- Node1&#45;&gt;Node4 -->
<g id="edge3" class="edge"><title>Node1&#45;&gt;Node4</title>
<path fill="none" stroke="midnightblue" d="M974.063,-316.824C855.639,-305.727 578.114,-279.723 454.985,-268.186"/>
<polygon fill="midnightblue" stroke="midnightblue" points="455.256,-264.696 444.973,-267.248 454.603,-271.665 455.256,-264.696"/>
</g>
<!-- Node22 -->
<g id="node22" class="node"><title>Node22</title>
<polygon fill="white" stroke="#bfbfbf" points="704.304,-252 704.304,-271 796.304,-271 796.304,-252 704.304,-252"/>
<text text-anchor="middle" x="750.304" y="-259" font-family="Helvetica,sans-Serif" font-size="10.00">boost/cstdint.hpp</text>
</g>
<!-- Node1&#45;&gt;Node22 -->
<g id="edge29" class="edge"><title>Node1&#45;&gt;Node22</title>
<path fill="none" stroke="midnightblue" d="M983.021,-313.419C937.809,-304.859 867.117,-290.998 806.304,-277 801.597,-275.917 796.682,-274.728 791.804,-273.513"/>
<polygon fill="midnightblue" stroke="midnightblue" points="792.473,-270.072 781.919,-271.006 790.752,-276.857 792.473,-270.072"/>
</g>
<!-- Node23 -->
<g id="node23" class="node"><title>Node23</title>
<polygon fill="white" stroke="#bfbfbf" points="814.804,-246.5 814.804,-276.5 943.804,-276.5 943.804,-246.5 814.804,-246.5"/>
<text text-anchor="start" x="822.804" y="-264.5" font-family="Helvetica,sans-Serif" font-size="10.00">boost/date_time/gregorian</text>
<text text-anchor="middle" x="879.304" y="-253.5" font-family="Helvetica,sans-Serif" font-size="10.00">/greg_date.hpp</text>
</g>
<!-- Node1&#45;&gt;Node23 -->
<g id="edge30" class="edge"><title>Node1&#45;&gt;Node23</title>
<path fill="none" stroke="midnightblue" d="M1007.81,-313.475C986.073,-304.852 951.819,-291.264 924.141,-280.285"/>
<polygon fill="midnightblue" stroke="midnightblue" points="925.242,-276.957 914.656,-276.523 922.661,-283.464 925.242,-276.957"/>
</g>
<!-- Node24 -->
<g id="node24" class="node"><title>Node24</title>
<polygon fill="white" stroke="#bfbfbf" points="962.304,-252 962.304,-271 1096.3,-271 1096.3,-252 962.304,-252"/>
<text text-anchor="middle" x="1029.3" y="-259" font-family="Helvetica,sans-Serif" font-size="10.00">boost/throw_exception.hpp</text>
</g>
<!-- Node1&#45;&gt;Node24 -->
<g id="edge31" class="edge"><title>Node1&#45;&gt;Node24</title>
<path fill="none" stroke="midnightblue" d="M1029.3,-313.475C1029.3,-305.08 1029.3,-291.981 1029.3,-281.163"/>
<polygon fill="midnightblue" stroke="midnightblue" points="1032.8,-281.009 1029.3,-271.009 1025.8,-281.009 1032.8,-281.009"/>
</g>
<!-- Node25 -->
<g id="node25" class="node"><title>Node25</title>
<polygon fill="white" stroke="#bfbfbf" points="1114.3,-246.5 1114.3,-276.5 1240.3,-276.5 1240.3,-246.5 1114.3,-246.5"/>
<text text-anchor="start" x="1122.3" y="-264.5" font-family="Helvetica,sans-Serif" font-size="10.00">boost/date_time/compiler</text>
<text text-anchor="middle" x="1177.3" y="-253.5" font-family="Helvetica,sans-Serif" font-size="10.00">_config.hpp</text>
</g>
<!-- Node1&#45;&gt;Node25 -->
<g id="edge32" class="edge"><title>Node1&#45;&gt;Node25</title>
<path fill="none" stroke="midnightblue" d="M1050.51,-313.475C1071.96,-304.852 1105.76,-291.264 1133.07,-280.285"/>
<polygon fill="midnightblue" stroke="midnightblue" points="1134.45,-283.501 1142.42,-276.523 1131.84,-277.006 1134.45,-283.501"/>
</g>
<!-- Node26 -->
<g id="node26" class="node"><title>Node26</title>
<polygon fill="white" stroke="#bfbfbf" points="1258.8,-252 1258.8,-271 1303.8,-271 1303.8,-252 1258.8,-252"/>
<text text-anchor="middle" x="1281.3" y="-259" font-family="Helvetica,sans-Serif" font-size="10.00">cstdlib</text>
</g>
<!-- Node1&#45;&gt;Node26 -->
<g id="edge33" class="edge"><title>Node1&#45;&gt;Node26</title>
<path fill="none" stroke="midnightblue" d="M1084.43,-314.234C1129.47,-307.058 1194.42,-294.799 1249.3,-277 1251.18,-276.393 1253.08,-275.709 1254.99,-274.977"/>
<polygon fill="midnightblue" stroke="midnightblue" points="1256.46,-278.157 1264.31,-271.05 1253.74,-271.706 1256.46,-278.157"/>
</g>
<!-- Node27 -->
<g id="node27" class="node"><title>Node27</title>
<polygon fill="white" stroke="#bfbfbf" points="1321.8,-252 1321.8,-271 1460.8,-271 1460.8,-252 1321.8,-252"/>
<text text-anchor="middle" x="1391.3" y="-259" font-family="Helvetica,sans-Serif" font-size="10.00">boost/detail/workaround.hpp</text>
</g>
<!-- Node1&#45;&gt;Node27 -->
<g id="edge35" class="edge"><title>Node1&#45;&gt;Node27</title>
<path fill="none" stroke="midnightblue" d="M1084.35,-313.723C1141.62,-305.007 1233.85,-290.677 1313.3,-277 1320.76,-275.716 1328.61,-274.316 1336.34,-272.908"/>
<polygon fill="midnightblue" stroke="midnightblue" points="1337.18,-276.312 1346.38,-271.062 1335.91,-269.427 1337.18,-276.312"/>
</g>
<!-- Node28 -->
<g id="node28" class="node"><title>Node28</title>
<polygon fill="white" stroke="#bfbfbf" points="1478.8,-246.5 1478.8,-276.5 1593.8,-276.5 1593.8,-246.5 1478.8,-246.5"/>
<text text-anchor="start" x="1486.8" y="-264.5" font-family="Helvetica,sans-Serif" font-size="10.00">boost/date_time/locale</text>
<text text-anchor="middle" x="1536.3" y="-253.5" font-family="Helvetica,sans-Serif" font-size="10.00">_config.hpp</text>
</g>
<!-- Node1&#45;&gt;Node28 -->
<g id="edge36" class="edge"><title>Node1&#45;&gt;Node28</title>
<path fill="none" stroke="midnightblue" d="M1084.57,-318.403C1166.48,-312.623 1325.06,-299.71 1468.89,-277.116"/>
<polygon fill="midnightblue" stroke="midnightblue" points="1469.46,-280.57 1478.79,-275.543 1468.36,-273.657 1469.46,-280.57"/>
</g>
<!-- Node29 -->
<g id="node29" class="node"><title>Node29</title>
<polygon fill="white" stroke="#bfbfbf" points="1611.8,-252 1611.8,-271 1742.8,-271 1742.8,-252 1611.8,-252"/>
<text text-anchor="middle" x="1677.3" y="-259" font-family="Helvetica,sans-Serif" font-size="10.00">boost/config/auto_link.hpp</text>
</g>
<!-- Node1&#45;&gt;Node29 -->
<g id="edge37" class="edge"><title>Node1&#45;&gt;Node29</title>
<path fill="none" stroke="midnightblue" d="M1084.54,-319.789C1187.13,-315.214 1413.9,-302.894 1603.3,-277 1611.42,-275.891 1619.99,-274.457 1628.3,-272.925"/>
<polygon fill="midnightblue" stroke="midnightblue" points="1629.11,-276.335 1638.27,-271.022 1627.79,-269.459 1629.11,-276.335"/>
</g>
<!-- Node2&#45;&gt;Node3 -->
<g id="edge2" class="edge"><title>Node2&#45;&gt;Node3</title>
<path fill="none" stroke="midnightblue" d="M330.801,-61.9751C300.003,-51.6804 248.039,-34.3103 213.456,-22.7502"/>
<polygon fill="midnightblue" stroke="midnightblue" points="214.354,-19.36 203.76,-19.5091 212.134,-25.9989 214.354,-19.36"/>
</g>
<!-- Node4&#45;&gt;Node2 -->
<g id="edge4" class="edge"><title>Node4&#45;&gt;Node2</title>
<path fill="none" stroke="midnightblue" d="M392.573,-251.934C386.799,-223.367 368.114,-130.926 360.058,-91.0696"/>
<polygon fill="midnightblue" stroke="midnightblue" points="363.458,-90.2251 358.046,-81.1168 356.596,-91.612 363.458,-90.2251"/>
</g>
<!-- Node5 -->
<g id="node5" class="node"><title>Node5</title>
<g id="a_node5"><a xlink:href="coord_8hpp.html" target="_top" xlink:title="Coordinates classes. ">
<polygon fill="white" stroke="black" points="704.804,-123.5 704.804,-142.5 801.804,-142.5 801.804,-123.5 704.804,-123.5"/>
<text text-anchor="middle" x="753.304" y="-130.5" font-family="Helvetica,sans-Serif" font-size="10.00">boost/ui/coord.hpp</text>
</a>
</g>
</g>
<!-- Node4&#45;&gt;Node5 -->
<g id="edge5" class="edge"><title>Node4&#45;&gt;Node5</title>
<path fill="none" stroke="midnightblue" d="M444.933,-257.928C499.546,-253.555 587.985,-241.764 657.304,-210 689.48,-195.256 720.411,-167.542 738.106,-149.966"/>
<polygon fill="midnightblue" stroke="midnightblue" points="740.747,-152.272 745.261,-142.687 735.755,-147.365 740.747,-152.272"/>
</g>
<!-- Node11 -->
<g id="node11" class="node"><title>Node11</title>
<g id="a_node11"><a xlink:href="string_8hpp.html" target="_top" xlink:title="String class and operations. ">
<polygon fill="white" stroke="black" points="29.8041,-123.5 29.8041,-142.5 126.804,-142.5 126.804,-123.5 29.8041,-123.5"/>
<text text-anchor="middle" x="78.3041" y="-130.5" font-family="Helvetica,sans-Serif" font-size="10.00">boost/ui/string.hpp</text>
</a>
</g>
</g>
<!-- Node4&#45;&gt;Node11 -->
<g id="edge12" class="edge"><title>Node4&#45;&gt;Node11</title>
<path fill="none" stroke="midnightblue" d="M343.796,-259.223C266.151,-256.14 122.8,-245.644 88.3041,-210 73.8033,-195.017 73.3066,-169.906 75.1038,-152.676"/>
<polygon fill="midnightblue" stroke="midnightblue" points="78.5834,-153.064 76.4919,-142.678 71.6499,-152.102 78.5834,-153.064"/>
</g>
<!-- Node15 -->
<g id="node15" class="node"><title>Node15</title>
<g id="a_node15"><a xlink:href="event_8hpp.html" target="_top" xlink:title="Event classes. ">
<polygon fill="white" stroke="black" points="422.804,-185 422.804,-204 519.804,-204 519.804,-185 422.804,-185"/>
<text text-anchor="middle" x="471.304" y="-192" font-family="Helvetica,sans-Serif" font-size="10.00">boost/ui/event.hpp</text>
</a>
</g>
</g>
<!-- Node4&#45;&gt;Node15 -->
<g id="edge17" class="edge"><title>Node4&#45;&gt;Node15</title>
<path fill="none" stroke="midnightblue" d="M404.689,-251.734C417.158,-241.208 438.278,-223.379 453.396,-210.617"/>
<polygon fill="midnightblue" stroke="midnightblue" points="455.7,-213.252 461.084,-204.127 451.185,-207.903 455.7,-213.252"/>
</g>
<!-- Node17 -->
<g id="node17" class="node"><title>Node17</title>
<g id="a_node17"><a xlink:href="font_8hpp.html" target="_top" xlink:title="Font class. ">
<polygon fill="white" stroke="black" points="238.804,-185 238.804,-204 327.804,-204 327.804,-185 238.804,-185"/>
<text text-anchor="middle" x="283.304" y="-192" font-family="Helvetica,sans-Serif" font-size="10.00">boost/ui/font.hpp</text>
</a>
</g>
</g>
<!-- Node4&#45;&gt;Node17 -->
<g id="edge21" class="edge"><title>Node4&#45;&gt;Node17</title>
<path fill="none" stroke="midnightblue" d="M379.334,-251.734C360.694,-240.818 328.641,-222.049 306.735,-209.221"/>
<polygon fill="midnightblue" stroke="midnightblue" points="308.435,-206.16 298.037,-204.127 304.898,-212.201 308.435,-206.16"/>
</g>
<!-- Node19 -->
<g id="node19" class="node"><title>Node19</title>
<g id="a_node19"><a xlink:href="layout_8hpp.html" target="_top" xlink:title="Layout classes. ">
<polygon fill="white" stroke="black" points="384.804,-123.5 384.804,-142.5 483.804,-142.5 483.804,-123.5 384.804,-123.5"/>
<text text-anchor="middle" x="434.304" y="-130.5" font-family="Helvetica,sans-Serif" font-size="10.00">boost/ui/layout.hpp</text>
</a>
</g>
</g>
<!-- Node4&#45;&gt;Node19 -->
<g id="edge25" class="edge"><title>Node4&#45;&gt;Node19</title>
<path fill="none" stroke="midnightblue" d="M395.725,-251.768C398.316,-236.668 404.38,-204.815 413.304,-179 416.508,-169.731 421.011,-159.815 425.026,-151.656"/>
<polygon fill="midnightblue" stroke="midnightblue" points="428.148,-153.238 429.561,-142.738 421.908,-150.065 428.148,-153.238"/>
</g>
<!-- Node20 -->
<g id="node20" class="node"><title>Node20</title>
<polygon fill="white" stroke="#bfbfbf" points="538.304,-179.5 538.304,-209.5 648.304,-209.5 648.304,-179.5 538.304,-179.5"/>
<text text-anchor="start" x="546.304" y="-197.5" font-family="Helvetica,sans-Serif" font-size="10.00">boost/ui/detail/shared</text>
<text text-anchor="middle" x="593.304" y="-186.5" font-family="Helvetica,sans-Serif" font-size="10.00">_count.hpp</text>
</g>
<!-- Node4&#45;&gt;Node20 -->
<g id="edge27" class="edge"><title>Node4&#45;&gt;Node20</title>
<path fill="none" stroke="midnightblue" d="M420.73,-251.869C451.237,-241.904 502.169,-225.268 540.816,-212.644"/>
<polygon fill="midnightblue" stroke="midnightblue" points="541.938,-215.96 550.357,-209.528 539.764,-209.306 541.938,-215.96"/>
</g>
<!-- Node21 -->
<g id="node21" class="node"><title>Node21</title>
<polygon fill="white" stroke="#bfbfbf" points="97.8041,-185 97.8041,-204 220.804,-204 220.804,-185 97.8041,-185"/>
<text text-anchor="middle" x="159.304" y="-192" font-family="Helvetica,sans-Serif" font-size="10.00">boost/ui/detail/event.hpp</text>
</g>
<!-- Node4&#45;&gt;Node21 -->
<g id="edge28" class="edge"><title>Node4&#45;&gt;Node21</title>
<path fill="none" stroke="midnightblue" d="M363.098,-251.869C321.107,-240.254 246.347,-219.576 199.987,-206.753"/>
<polygon fill="midnightblue" stroke="midnightblue" points="200.836,-203.356 190.265,-204.064 198.97,-210.103 200.836,-203.356"/>
</g>
<!-- Node5&#45;&gt;Node2 -->
<g id="edge6" class="edge"><title>Node5&#45;&gt;Node2</title>
<path fill="none" stroke="midnightblue" d="M704.473,-124.964C699.687,-124.293 694.902,-123.628 690.304,-123 567.737,-106.252 535.845,-110.04 414.304,-87 408.887,-85.973 403.22,-84.7479 397.641,-83.451"/>
<polygon fill="midnightblue" stroke="midnightblue" points="398.307,-80.0114 387.765,-81.0665 396.664,-86.8159 398.307,-80.0114"/>
</g>
<!-- Node6 -->
<g id="node6" class="node"><title>Node6</title>
<polygon fill="white" stroke="#bfbfbf" points="423.804,-62 423.804,-81 526.804,-81 526.804,-62 423.804,-62"/>
<text text-anchor="middle" x="475.304" y="-69" font-family="Helvetica,sans-Serif" font-size="10.00">boost/geometry.hpp</text>
</g>
<!-- Node5&#45;&gt;Node6 -->
<g id="edge7" class="edge"><title>Node5&#45;&gt;Node6</title>
<path fill="none" stroke="midnightblue" d="M709.782,-123.463C665.713,-114.714 595.641,-100.514 535.304,-87 530.27,-85.8724 525.007,-84.6562 519.78,-83.4245"/>
<polygon fill="midnightblue" stroke="midnightblue" points="520.38,-79.9696 509.841,-81.0561 518.758,-86.7789 520.38,-79.9696"/>
</g>
<!-- Node7 -->
<g id="node7" class="node"><title>Node7</title>
<polygon fill="white" stroke="#bfbfbf" points="544.804,-56.5 544.804,-86.5 679.804,-86.5 679.804,-56.5 544.804,-56.5"/>
<text text-anchor="start" x="552.804" y="-74.5" font-family="Helvetica,sans-Serif" font-size="10.00">boost/geometry/geometries</text>
<text text-anchor="middle" x="612.304" y="-63.5" font-family="Helvetica,sans-Serif" font-size="10.00">/point_xy.hpp</text>
</g>
<!-- Node5&#45;&gt;Node7 -->
<g id="edge8" class="edge"><title>Node5&#45;&gt;Node7</title>
<path fill="none" stroke="midnightblue" d="M733.102,-123.475C712.756,-114.889 680.749,-101.383 654.792,-90.4291"/>
<polygon fill="midnightblue" stroke="midnightblue" points="656.109,-87.1863 645.535,-86.523 653.388,-93.6356 656.109,-87.1863"/>
</g>
<!-- Node8 -->
<g id="node8" class="node"><title>Node8</title>
<polygon fill="white" stroke="#bfbfbf" points="697.804,-56.5 697.804,-86.5 832.804,-86.5 832.804,-56.5 697.804,-56.5"/>
<text text-anchor="start" x="705.804" y="-74.5" font-family="Helvetica,sans-Serif" font-size="10.00">boost/geometry/geometries</text>
<text text-anchor="middle" x="765.304" y="-63.5" font-family="Helvetica,sans-Serif" font-size="10.00">/box.hpp</text>
</g>
<!-- Node5&#45;&gt;Node8 -->
<g id="edge9" class="edge"><title>Node5&#45;&gt;Node8</title>
<path fill="none" stroke="midnightblue" d="M755.023,-123.475C756.451,-116.396 758.554,-105.97 760.486,-96.3896"/>
<polygon fill="midnightblue" stroke="midnightblue" points="763.93,-97.0176 762.476,-86.523 757.068,-95.6336 763.93,-97.0176"/>
</g>
<!-- Node9 -->
<g id="node9" class="node"><title>Node9</title>
<polygon fill="white" stroke="#bfbfbf" points="850.804,-56.5 850.804,-86.5 951.804,-86.5 951.804,-56.5 850.804,-56.5"/>
<text text-anchor="start" x="858.804" y="-74.5" font-family="Helvetica,sans-Serif" font-size="10.00">boost/polygon/point</text>
<text text-anchor="middle" x="901.304" y="-63.5" font-family="Helvetica,sans-Serif" font-size="10.00">_data.hpp</text>
</g>
<!-- Node5&#45;&gt;Node9 -->
<g id="edge10" class="edge"><title>Node5&#45;&gt;Node9</title>
<path fill="none" stroke="midnightblue" d="M774.509,-123.475C795.958,-114.852 829.756,-101.264 857.065,-90.2852"/>
<polygon fill="midnightblue" stroke="midnightblue" points="858.451,-93.5005 866.423,-86.523 855.84,-87.0058 858.451,-93.5005"/>
</g>
<!-- Node10 -->
<g id="node10" class="node"><title>Node10</title>
<polygon fill="white" stroke="#bfbfbf" points="970.304,-56.5 970.304,-86.5 1090.3,-86.5 1090.3,-56.5 970.304,-56.5"/>
<text text-anchor="start" x="978.304" y="-74.5" font-family="Helvetica,sans-Serif" font-size="10.00">boost/polygon/rectangle</text>
<text text-anchor="middle" x="1030.3" y="-63.5" font-family="Helvetica,sans-Serif" font-size="10.00">_data.hpp</text>
</g>
<!-- Node5&#45;&gt;Node10 -->
<g id="edge11" class="edge"><title>Node5&#45;&gt;Node10</title>
<path fill="none" stroke="midnightblue" d="M792.991,-123.475C836.558,-114.117 907.344,-98.9121 960.288,-87.5396"/>
<polygon fill="midnightblue" stroke="midnightblue" points="961.248,-90.9133 970.29,-85.3911 959.778,-84.0694 961.248,-90.9133"/>
</g>
<!-- Node11&#45;&gt;Node2 -->
<g id="edge13" class="edge"><title>Node11&#45;&gt;Node2</title>
<path fill="none" stroke="midnightblue" d="M118.135,-123.475C167.783,-112.849 252.651,-94.6847 306.533,-83.1524"/>
<polygon fill="midnightblue" stroke="midnightblue" points="307.501,-86.5245 316.547,-81.0091 306.036,-79.6796 307.501,-86.5245"/>
</g>
<!-- Node12 -->
<g id="node12" class="node"><title>Node12</title>
<polygon fill="white" stroke="#bfbfbf" points="106.804,-62 106.804,-81 147.804,-81 147.804,-62 106.804,-62"/>
<text text-anchor="middle" x="127.304" y="-69" font-family="Helvetica,sans-Serif" font-size="10.00">string</text>
</g>
<!-- Node11&#45;&gt;Node12 -->
<g id="edge14" class="edge"><title>Node11&#45;&gt;Node12</title>
<path fill="none" stroke="midnightblue" d="M85.3246,-123.475C92.7474,-114.462 104.637,-100.025 113.871,-88.8118"/>
<polygon fill="midnightblue" stroke="midnightblue" points="116.641,-90.9534 120.297,-81.0091 111.238,-86.5034 116.641,-90.9534"/>
</g>
<!-- Node13 -->
<g id="node13" class="node"><title>Node13</title>
<polygon fill="white" stroke="#bfbfbf" points="165.804,-62 165.804,-81 238.804,-81 238.804,-62 165.804,-62"/>
<text text-anchor="middle" x="202.304" y="-69" font-family="Helvetica,sans-Serif" font-size="10.00">initializer_list</text>
</g>
<!-- Node11&#45;&gt;Node13 -->
<g id="edge15" class="edge"><title>Node11&#45;&gt;Node13</title>
<path fill="none" stroke="midnightblue" d="M96.0703,-123.475C116.788,-113.534 151.256,-96.9947 175.293,-85.461"/>
<polygon fill="midnightblue" stroke="midnightblue" points="177.069,-88.4908 184.571,-81.0091 174.041,-82.1797 177.069,-88.4908"/>
</g>
<!-- Node14 -->
<g id="node14" class="node"><title>Node14</title>
<polygon fill="white" stroke="#bfbfbf" points="29.8041,-62 29.8041,-81 88.8041,-81 88.8041,-62 29.8041,-62"/>
<text text-anchor="middle" x="59.3041" y="-69" font-family="Helvetica,sans-Serif" font-size="10.00">functional</text>
</g>
<!-- Node11&#45;&gt;Node14 -->
<g id="edge16" class="edge"><title>Node11&#45;&gt;Node14</title>
<path fill="none" stroke="midnightblue" d="M75.5819,-123.475C72.873,-114.992 68.6299,-101.704 65.1549,-90.8222"/>
<polygon fill="midnightblue" stroke="midnightblue" points="68.3975,-89.4705 62.0213,-81.0091 61.7292,-91.5999 68.3975,-89.4705"/>
</g>
<!-- Node15&#45;&gt;Node2 -->
<g id="edge18" class="edge"><title>Node15&#45;&gt;Node2</title>
<path fill="none" stroke="midnightblue" d="M478.198,-184.944C488.635,-170.882 505.866,-142.502 492.304,-123 486.414,-114.529 432.346,-96.2131 394.188,-84.1252"/>
<polygon fill="midnightblue" stroke="midnightblue" points="394.975,-80.7038 384.386,-81.0454 392.877,-87.3819 394.975,-80.7038"/>
</g>
<!-- Node15&#45;&gt;Node5 -->
<g id="edge19" class="edge"><title>Node15&#45;&gt;Node5</title>
<path fill="none" stroke="midnightblue" d="M504.366,-184.951C512.502,-182.926 521.204,-180.825 529.304,-179 586.504,-166.112 652.333,-153.104 697.753,-144.411"/>
<polygon fill="midnightblue" stroke="midnightblue" points="698.529,-147.827 707.696,-142.515 697.217,-140.951 698.529,-147.827"/>
</g>
<!-- Node16 -->
<g id="node16" class="node"><title>Node16</title>
<polygon fill="white" stroke="#bfbfbf" points="540.804,-123.5 540.804,-142.5 637.804,-142.5 637.804,-123.5 540.804,-123.5"/>
<text text-anchor="middle" x="589.304" y="-130.5" font-family="Helvetica,sans-Serif" font-size="10.00">boost/function.hpp</text>
</g>
<!-- Node15&#45;&gt;Node16 -->
<g id="edge20" class="edge"><title>Node15&#45;&gt;Node16</title>
<path fill="none" stroke="midnightblue" d="M488.211,-184.975C507.838,-175.078 540.435,-158.642 563.294,-147.115"/>
<polygon fill="midnightblue" stroke="midnightblue" points="565.076,-150.137 572.429,-142.509 561.924,-143.886 565.076,-150.137"/>
</g>
<!-- Node17&#45;&gt;Node2 -->
<g id="edge22" class="edge"><title>Node17&#45;&gt;Node2</title>
<path fill="none" stroke="midnightblue" d="M288.554,-184.798C300.497,-165.002 329.89,-116.282 345.75,-89.9932"/>
<polygon fill="midnightblue" stroke="midnightblue" points="348.933,-91.4936 351.102,-81.1232 342.939,-87.8776 348.933,-91.4936"/>
</g>
<!-- Node17&#45;&gt;Node11 -->
<g id="edge23" class="edge"><title>Node17&#45;&gt;Node11</title>
<path fill="none" stroke="midnightblue" d="M253.933,-184.975C218.007,-174.548 157.072,-156.862 117.26,-145.307"/>
<polygon fill="midnightblue" stroke="midnightblue" points="118.2,-141.935 107.621,-142.509 116.249,-148.658 118.2,-141.935"/>
</g>
<!-- Node18 -->
<g id="node18" class="node"><title>Node18</title>
<polygon fill="white" stroke="#bfbfbf" points="144.804,-123.5 144.804,-142.5 289.804,-142.5 289.804,-123.5 144.804,-123.5"/>
<text text-anchor="middle" x="217.304" y="-130.5" font-family="Helvetica,sans-Serif" font-size="10.00">boost/core/scoped_enum.hpp</text>
</g>
<!-- Node17&#45;&gt;Node18 -->
<g id="edge24" class="edge"><title>Node17&#45;&gt;Node18</title>
<path fill="none" stroke="midnightblue" d="M273.848,-184.975C263.556,-175.697 246.888,-160.671 234.31,-149.331"/>
<polygon fill="midnightblue" stroke="midnightblue" points="236.514,-146.605 226.743,-142.509 231.827,-151.805 236.514,-146.605"/>
</g>
<!-- Node19&#45;&gt;Node2 -->
<g id="edge26" class="edge"><title>Node19&#45;&gt;Node2</title>
<path fill="none" stroke="midnightblue" d="M423.129,-123.475C410.734,-114.02 390.514,-98.5961 375.558,-87.1871"/>
<polygon fill="midnightblue" stroke="midnightblue" points="377.532,-84.2914 367.459,-81.0091 373.287,-89.857 377.532,-84.2914"/>
</g>
</g>
</svg>
