<?xml version="1.0" encoding="UTF-8" standalone="no"?>
<!DOCTYPE svg PUBLIC "-//W3C//DTD SVG 1.1//EN"
 "http://www.w3.org/Graphics/SVG/1.1/DTD/svg11.dtd">
<!-- Generated by graphviz version 2.38.0 (20140413.2041)
 -->
<!-- Title: boost/ui/datetime.hpp Pages: 1 -->
<svg width="1754pt" height="341pt"
 viewBox="0.00 0.00 1754.27 341.00" xmlns="http://www.w3.org/2000/svg" xmlns:xlink="http://www.w3.org/1999/xlink">
<g id="graph0" class="graph" transform="scale(1 1) rotate(0) translate(4 337)">
<title>boost/ui/datetime.hpp</title>
<polygon fill="white" stroke="none" points="-4,4 -4,-337 1750.27,-337 1750.27,4 -4,4"/>
<!-- Node1 -->
<g id="node1" class="node"><title>Node1</title>
<polygon fill="#bfbfbf" stroke="black" points="977.767,-313.5 977.767,-332.5 1087.77,-332.5 1087.77,-313.5 977.767,-313.5"/>
<text text-anchor="middle" x="1032.77" y="-320.5" font-family="Helvetica,sans-Serif" font-size="10.00">boost/ui/datetime.hpp</text>
</g>
<!-- Node2 -->
<g id="node2" class="node"><title>Node2</title>
<g id="a_node2"><a xlink:href="config_8hpp.html" target="_top" xlink:title="Configuration options. ">
<polygon fill="white" stroke="black" points="715.267,-62 715.267,-81 814.267,-81 814.267,-62 715.267,-62"/>
<text text-anchor="middle" x="764.767" y="-69" font-family="Helvetica,sans-Serif" font-size="10.00">boost/ui/config.hpp</text>
</a>
</g>
</g>
<!-- Node1&#45;&gt;Node2 -->
<g id="edge1" class="edge"><title>Node1&#45;&gt;Node2</title>
<path fill="none" stroke="midnightblue" d="M977.469,-319.344C873.276,-313.874 651.79,-299.91 578.767,-277 520.484,-258.715 491.244,-261.733 458.767,-210 438.186,-177.217 429.414,-152.249 454.767,-123 491.674,-80.421 650.451,-97.7371 705.767,-87 711.203,-85.9448 716.891,-84.7126 722.498,-83.4203"/>
<polygon fill="midnightblue" stroke="midnightblue" points="723.517,-86.7758 732.434,-81.0547 721.895,-79.9662 723.517,-86.7758"/>
</g>
<!-- Node3 -->
<g id="node3" class="node"><title>Node3</title>
<polygon fill="white" stroke="#bfbfbf" points="338.267,-0.5 338.267,-19.5 427.267,-19.5 427.267,-0.5 338.267,-0.5"/>
<text text-anchor="middle" x="382.767" y="-7.5" font-family="Helvetica,sans-Serif" font-size="10.00">boost/config.hpp</text>
</g>
<!-- Node1&#45;&gt;Node3 -->
<g id="edge33" class="edge"><title>Node1&#45;&gt;Node3</title>
<path fill="none" stroke="midnightblue" d="M977.7,-321.09C764.052,-316.844 1.76665,-294.741 1.76665,-195.5 1.76665,-195.5 1.76665,-195.5 1.76665,-132 1.76665,-97.1827 -5.29996,-79.082 20.7667,-56 65.1205,-16.7247 237.992,-10.8215 327.843,-10.4891"/>
<polygon fill="midnightblue" stroke="midnightblue" points="328.117,-13.9888 338.112,-10.4741 328.107,-6.98882 328.117,-13.9888"/>
</g>
<!-- Node4 -->
<g id="node4" class="node"><title>Node4</title>
<g id="a_node4"><a xlink:href="widget_8hpp.html" target="_top" xlink:title="Widget class. ">
<polygon fill="white" stroke="black" points="588.267,-252 588.267,-271 689.267,-271 689.267,-252 588.267,-252"/>
<text text-anchor="middle" x="638.767" y="-259" font-family="Helvetica,sans-Serif" font-size="10.00">boost/ui/widget.hpp</text>
</a>
</g>
</g>
<!-- Node1&#45;&gt;Node4 -->
<g id="edge3" class="edge"><title>Node1&#45;&gt;Node4</title>
<path fill="none" stroke="midnightblue" d="M977.523,-316.325C911.059,-309.09 796.239,-295.294 698.767,-277 693.031,-275.924 687.021,-274.649 681.113,-273.309"/>
<polygon fill="midnightblue" stroke="midnightblue" points="681.866,-269.891 671.331,-271.017 680.269,-276.707 681.866,-269.891"/>
</g>
<!-- Node21 -->
<g id="node21" class="node"><title>Node21</title>
<polygon fill="white" stroke="#bfbfbf" points="707.767,-252 707.767,-271 799.767,-271 799.767,-252 707.767,-252"/>
<text text-anchor="middle" x="753.767" y="-259" font-family="Helvetica,sans-Serif" font-size="10.00">boost/cstdint.hpp</text>
</g>
<!-- Node1&#45;&gt;Node21 -->
<g id="edge28" class="edge"><title>Node1&#45;&gt;Node21</title>
<path fill="none" stroke="midnightblue" d="M986.26,-313.493C940.834,-304.988 869.817,-291.167 808.767,-277 804.14,-275.926 799.311,-274.745 794.519,-273.533"/>
<polygon fill="midnightblue" stroke="midnightblue" points="795.367,-270.137 784.809,-271.029 793.619,-276.915 795.367,-270.137"/>
</g>
<!-- Node22 -->
<g id="node22" class="node"><title>Node22</title>
<polygon fill="white" stroke="#bfbfbf" points="818.267,-246.5 818.267,-276.5 947.267,-276.5 947.267,-246.5 818.267,-246.5"/>
<text text-anchor="start" x="826.267" y="-264.5" font-family="Helvetica,sans-Serif" font-size="10.00">boost/date_time/gregorian</text>
<text text-anchor="middle" x="882.767" y="-253.5" font-family="Helvetica,sans-Serif" font-size="10.00">/greg_date.hpp</text>
</g>
<!-- Node1&#45;&gt;Node22 -->
<g id="edge29" class="edge"><title>Node1&#45;&gt;Node22</title>
<path fill="none" stroke="midnightblue" d="M1011.28,-313.475C989.536,-304.852 955.281,-291.264 927.603,-280.285"/>
<polygon fill="midnightblue" stroke="midnightblue" points="928.705,-276.957 918.119,-276.523 926.124,-283.464 928.705,-276.957"/>
</g>
<!-- Node23 -->
<g id="node23" class="node"><title>Node23</title>
<polygon fill="white" stroke="#bfbfbf" points="965.767,-252 965.767,-271 1099.77,-271 1099.77,-252 965.767,-252"/>
<text text-anchor="middle" x="1032.77" y="-259" font-family="Helvetica,sans-Serif" font-size="10.00">boost/throw_exception.hpp</text>
</g>
<!-- Node1&#45;&gt;Node23 -->
<g id="edge30" class="edge"><title>Node1&#45;&gt;Node23</title>
<path fill="none" stroke="midnightblue" d="M1032.77,-313.475C1032.77,-305.08 1032.77,-291.981 1032.77,-281.163"/>
<polygon fill="midnightblue" stroke="midnightblue" points="1036.27,-281.009 1032.77,-271.009 1029.27,-281.009 1036.27,-281.009"/>
</g>
<!-- Node24 -->
<g id="node24" class="node"><title>Node24</title>
<polygon fill="white" stroke="#bfbfbf" points="1117.77,-246.5 1117.77,-276.5 1243.77,-276.5 1243.77,-246.5 1117.77,-246.5"/>
<text text-anchor="start" x="1125.77" y="-264.5" font-family="Helvetica,sans-Serif" font-size="10.00">boost/date_time/compiler</text>
<text text-anchor="middle" x="1180.77" y="-253.5" font-family="Helvetica,sans-Serif" font-size="10.00">_config.hpp</text>
</g>
<!-- Node1&#45;&gt;Node24 -->
<g id="edge31" class="edge"><title>Node1&#45;&gt;Node24</title>
<path fill="none" stroke="midnightblue" d="M1053.97,-313.475C1075.42,-304.852 1109.22,-291.264 1136.53,-280.285"/>
<polygon fill="midnightblue" stroke="midnightblue" points="1137.91,-283.501 1145.89,-276.523 1135.3,-277.006 1137.91,-283.501"/>
</g>
<!-- Node25 -->
<g id="node25" class="node"><title>Node25</title>
<polygon fill="white" stroke="#bfbfbf" points="1262.27,-252 1262.27,-271 1307.27,-271 1307.27,-252 1262.27,-252"/>
<text text-anchor="middle" x="1284.77" y="-259" font-family="Helvetica,sans-Serif" font-size="10.00">cstdlib</text>
</g>
<!-- Node1&#45;&gt;Node25 -->
<g id="edge32" class="edge"><title>Node1&#45;&gt;Node25</title>
<path fill="none" stroke="midnightblue" d="M1087.89,-314.234C1132.93,-307.058 1197.88,-294.799 1252.77,-277 1254.64,-276.393 1256.55,-275.709 1258.45,-274.977"/>
<polygon fill="midnightblue" stroke="midnightblue" points="1259.92,-278.157 1267.78,-271.05 1257.2,-271.706 1259.92,-278.157"/>
</g>
<!-- Node26 -->
<g id="node26" class="node"><title>Node26</title>
<polygon fill="white" stroke="#bfbfbf" points="1325.27,-252 1325.27,-271 1464.27,-271 1464.27,-252 1325.27,-252"/>
<text text-anchor="middle" x="1394.77" y="-259" font-family="Helvetica,sans-Serif" font-size="10.00">boost/detail/workaround.hpp</text>
</g>
<!-- Node1&#45;&gt;Node26 -->
<g id="edge34" class="edge"><title>Node1&#45;&gt;Node26</title>
<path fill="none" stroke="midnightblue" d="M1087.81,-313.723C1145.08,-305.007 1237.31,-290.677 1316.77,-277 1324.22,-275.716 1332.07,-274.316 1339.8,-272.908"/>
<polygon fill="midnightblue" stroke="midnightblue" points="1340.64,-276.312 1349.84,-271.062 1339.38,-269.427 1340.64,-276.312"/>
</g>
<!-- Node27 -->
<g id="node27" class="node"><title>Node27</title>
<polygon fill="white" stroke="#bfbfbf" points="1482.27,-246.5 1482.27,-276.5 1597.27,-276.5 1597.27,-246.5 1482.27,-246.5"/>
<text text-anchor="start" x="1490.27" y="-264.5" font-family="Helvetica,sans-Serif" font-size="10.00">boost/date_time/locale</text>
<text text-anchor="middle" x="1539.77" y="-253.5" font-family="Helvetica,sans-Serif" font-size="10.00">_config.hpp</text>
</g>
<!-- Node1&#45;&gt;Node27 -->
<g id="edge35" class="edge"><title>Node1&#45;&gt;Node27</title>
<path fill="none" stroke="midnightblue" d="M1088.03,-318.403C1169.94,-312.623 1328.52,-299.71 1472.36,-277.116"/>
<polygon fill="midnightblue" stroke="midnightblue" points="1472.92,-280.57 1482.25,-275.543 1471.82,-273.657 1472.92,-280.57"/>
</g>
<!-- Node28 -->
<g id="node28" class="node"><title>Node28</title>
<polygon fill="white" stroke="#bfbfbf" points="1615.27,-252 1615.27,-271 1746.27,-271 1746.27,-252 1615.27,-252"/>
<text text-anchor="middle" x="1680.77" y="-259" font-family="Helvetica,sans-Serif" font-size="10.00">boost/config/auto_link.hpp</text>
</g>
<!-- Node1&#45;&gt;Node28 -->
<g id="edge36" class="edge"><title>Node1&#45;&gt;Node28</title>
<path fill="none" stroke="midnightblue" d="M1088,-319.789C1190.59,-315.214 1417.36,-302.894 1606.77,-277 1614.88,-275.891 1623.45,-274.457 1631.76,-272.925"/>
<polygon fill="midnightblue" stroke="midnightblue" points="1632.57,-276.335 1641.73,-271.022 1631.26,-269.459 1632.57,-276.335"/>
</g>
<!-- Node2&#45;&gt;Node3 -->
<g id="edge2" class="edge"><title>Node2&#45;&gt;Node3</title>
<path fill="none" stroke="midnightblue" d="M732.746,-61.9972C724.034,-59.8572 714.571,-57.6907 705.767,-56 612.084,-38.0115 501.805,-24.209 437.355,-16.8744"/>
<polygon fill="midnightblue" stroke="midnightblue" points="437.743,-13.3961 427.414,-15.7531 436.959,-20.352 437.743,-13.3961"/>
</g>
<!-- Node4&#45;&gt;Node2 -->
<g id="edge4" class="edge"><title>Node4&#45;&gt;Node2</title>
<path fill="none" stroke="midnightblue" d="M671.517,-251.906C719.968,-239.04 805.528,-215.672 809.767,-210 832.915,-179.028 823.53,-159.134 809.767,-123 804.542,-109.282 793.69,-96.9208 783.953,-87.8615"/>
<polygon fill="midnightblue" stroke="midnightblue" points="786.016,-85.0165 776.183,-81.0711 781.41,-90.2872 786.016,-85.0165"/>
</g>
<!-- Node5 -->
<g id="node5" class="node"><title>Node5</title>
<g id="a_node5"><a xlink:href="coord_8hpp.html" target="_top" xlink:title="Coordinates classes. ">
<polygon fill="white" stroke="black" points="291.267,-123.5 291.267,-142.5 388.267,-142.5 388.267,-123.5 291.267,-123.5"/>
<text text-anchor="middle" x="339.767" y="-130.5" font-family="Helvetica,sans-Serif" font-size="10.00">boost/ui/coord.hpp</text>
</a>
</g>
</g>
<!-- Node4&#45;&gt;Node5 -->
<g id="edge5" class="edge"><title>Node4&#45;&gt;Node5</title>
<path fill="none" stroke="midnightblue" d="M594.596,-251.928C557.362,-243.812 503.202,-229.894 458.767,-210 421.041,-193.11 381.386,-165.498 358.71,-148.616"/>
<polygon fill="midnightblue" stroke="midnightblue" points="360.711,-145.742 350.621,-142.51 356.494,-151.329 360.711,-145.742"/>
</g>
<!-- Node11 -->
<g id="node11" class="node"><title>Node11</title>
<g id="a_node11"><a xlink:href="string_8hpp.html" target="_top" xlink:title="String class and operations. ">
<polygon fill="white" stroke="black" points="896.267,-123.5 896.267,-142.5 993.267,-142.5 993.267,-123.5 896.267,-123.5"/>
<text text-anchor="middle" x="944.767" y="-130.5" font-family="Helvetica,sans-Serif" font-size="10.00">boost/ui/string.hpp</text>
</a>
</g>
</g>
<!-- Node4&#45;&gt;Node11 -->
<g id="edge12" class="edge"><title>Node4&#45;&gt;Node11</title>
<path fill="none" stroke="midnightblue" d="M671.331,-251.981C680.191,-249.841 689.814,-247.678 698.767,-246 757.828,-234.927 927.206,-255.23 966.767,-210 981.264,-193.425 968.977,-167.806 957.766,-150.969"/>
<polygon fill="midnightblue" stroke="midnightblue" points="960.479,-148.745 951.826,-142.633 954.779,-152.808 960.479,-148.745"/>
</g>
<!-- Node15 -->
<g id="node15" class="node"><title>Node15</title>
<g id="a_node15"><a xlink:href="event_8hpp.html" target="_top" xlink:title="Event classes. ">
<polygon fill="white" stroke="black" points="468.267,-185 468.267,-204 565.267,-204 565.267,-185 468.267,-185"/>
<text text-anchor="middle" x="516.767" y="-192" font-family="Helvetica,sans-Serif" font-size="10.00">boost/ui/event.hpp</text>
</a>
</g>
</g>
<!-- Node4&#45;&gt;Node15 -->
<g id="edge17" class="edge"><title>Node4&#45;&gt;Node15</title>
<path fill="none" stroke="midnightblue" d="M622.566,-251.869C601.966,-240.893 566.175,-221.824 541.99,-208.938"/>
<polygon fill="midnightblue" stroke="midnightblue" points="543.506,-205.78 533.034,-204.167 540.214,-211.958 543.506,-205.78"/>
</g>
<!-- Node17 -->
<g id="node17" class="node"><title>Node17</title>
<g id="a_node17"><a xlink:href="font_8hpp.html" target="_top" xlink:title="Font class. ">
<polygon fill="white" stroke="black" points="712.267,-185 712.267,-204 801.267,-204 801.267,-185 712.267,-185"/>
<text text-anchor="middle" x="756.767" y="-192" font-family="Helvetica,sans-Serif" font-size="10.00">boost/ui/font.hpp</text>
</a>
</g>
</g>
<!-- Node4&#45;&gt;Node17 -->
<g id="edge21" class="edge"><title>Node4&#45;&gt;Node17</title>
<path fill="none" stroke="midnightblue" d="M654.681,-251.734C674.585,-240.769 708.875,-221.881 732.169,-209.049"/>
<polygon fill="midnightblue" stroke="midnightblue" points="734.034,-212.018 741.105,-204.127 730.657,-205.887 734.034,-212.018"/>
</g>
<!-- Node19 -->
<g id="node19" class="node"><title>Node19</title>
<g id="a_node19"><a xlink:href="layout_8hpp.html" target="_top" xlink:title="Layout classes. ">
<polygon fill="white" stroke="black" points="858.267,-185 858.267,-204 957.267,-204 957.267,-185 858.267,-185"/>
<text text-anchor="middle" x="907.767" y="-192" font-family="Helvetica,sans-Serif" font-size="10.00">boost/ui/layout.hpp</text>
</a>
</g>
</g>
<!-- Node4&#45;&gt;Node19 -->
<g id="edge25" class="edge"><title>Node4&#45;&gt;Node19</title>
<path fill="none" stroke="midnightblue" d="M674.21,-251.936C722.595,-240.244 809.355,-219.28 862.423,-206.457"/>
<polygon fill="midnightblue" stroke="midnightblue" points="863.346,-209.834 872.244,-204.083 861.702,-203.03 863.346,-209.834"/>
</g>
<!-- Node20 -->
<g id="node20" class="node"><title>Node20</title>
<polygon fill="white" stroke="#bfbfbf" points="583.767,-179.5 583.767,-209.5 693.767,-209.5 693.767,-179.5 583.767,-179.5"/>
<text text-anchor="start" x="591.767" y="-197.5" font-family="Helvetica,sans-Serif" font-size="10.00">boost/ui/detail/shared</text>
<text text-anchor="middle" x="638.767" y="-186.5" font-family="Helvetica,sans-Serif" font-size="10.00">_count.hpp</text>
</g>
<!-- Node4&#45;&gt;Node20 -->
<g id="edge27" class="edge"><title>Node4&#45;&gt;Node20</title>
<path fill="none" stroke="midnightblue" d="M638.767,-251.734C638.767,-243.541 638.767,-230.923 638.767,-219.714"/>
<polygon fill="midnightblue" stroke="midnightblue" points="642.267,-219.589 638.767,-209.589 635.267,-219.589 642.267,-219.589"/>
</g>
<!-- Node5&#45;&gt;Node2 -->
<g id="edge6" class="edge"><title>Node5&#45;&gt;Node2</title>
<path fill="none" stroke="midnightblue" d="M388.59,-124.909C393.378,-124.249 398.165,-123.602 402.767,-123 537.235,-105.409 572.335,-111.228 705.767,-87 711.345,-85.9871 717.182,-84.7603 722.922,-83.4542"/>
<polygon fill="midnightblue" stroke="midnightblue" points="724.153,-86.7594 733.076,-81.0463 722.538,-79.9483 724.153,-86.7594"/>
</g>
<!-- Node6 -->
<g id="node6" class="node"><title>Node6</title>
<polygon fill="white" stroke="#bfbfbf" points="288.267,-62 288.267,-81 391.267,-81 391.267,-62 288.267,-62"/>
<text text-anchor="middle" x="339.767" y="-69" font-family="Helvetica,sans-Serif" font-size="10.00">boost/geometry.hpp</text>
</g>
<!-- Node5&#45;&gt;Node6 -->
<g id="edge7" class="edge"><title>Node5&#45;&gt;Node6</title>
<path fill="none" stroke="midnightblue" d="M339.767,-123.475C339.767,-115.08 339.767,-101.981 339.767,-91.1631"/>
<polygon fill="midnightblue" stroke="midnightblue" points="343.267,-91.0091 339.767,-81.0091 336.267,-91.0091 343.267,-91.0091"/>
</g>
<!-- Node7 -->
<g id="node7" class="node"><title>Node7</title>
<polygon fill="white" stroke="#bfbfbf" points="409.267,-56.5 409.267,-86.5 544.267,-86.5 544.267,-56.5 409.267,-56.5"/>
<text text-anchor="start" x="417.267" y="-74.5" font-family="Helvetica,sans-Serif" font-size="10.00">boost/geometry/geometries</text>
<text text-anchor="middle" x="476.767" y="-63.5" font-family="Helvetica,sans-Serif" font-size="10.00">/point_xy.hpp</text>
</g>
<!-- Node5&#45;&gt;Node7 -->
<g id="edge8" class="edge"><title>Node5&#45;&gt;Node7</title>
<path fill="none" stroke="midnightblue" d="M359.395,-123.475C379.077,-114.927 409.991,-101.501 435.152,-90.5734"/>
<polygon fill="midnightblue" stroke="midnightblue" points="436.7,-93.7169 444.478,-86.523 433.912,-87.2963 436.7,-93.7169"/>
</g>
<!-- Node8 -->
<g id="node8" class="node"><title>Node8</title>
<polygon fill="white" stroke="#bfbfbf" points="562.267,-56.5 562.267,-86.5 697.267,-86.5 697.267,-56.5 562.267,-56.5"/>
<text text-anchor="start" x="570.267" y="-74.5" font-family="Helvetica,sans-Serif" font-size="10.00">boost/geometry/geometries</text>
<text text-anchor="middle" x="629.767" y="-63.5" font-family="Helvetica,sans-Serif" font-size="10.00">/box.hpp</text>
</g>
<!-- Node5&#45;&gt;Node8 -->
<g id="edge9" class="edge"><title>Node5&#45;&gt;Node8</title>
<path fill="none" stroke="midnightblue" d="M381.317,-123.475C425.77,-114.355 497.29,-99.6806 552.206,-88.4134"/>
<polygon fill="midnightblue" stroke="midnightblue" points="553.164,-91.7898 562.256,-86.3513 551.757,-84.9326 553.164,-91.7898"/>
</g>
<!-- Node9 -->
<g id="node9" class="node"><title>Node9</title>
<polygon fill="white" stroke="#bfbfbf" points="30.2667,-56.5 30.2667,-86.5 131.267,-86.5 131.267,-56.5 30.2667,-56.5"/>
<text text-anchor="start" x="38.2667" y="-74.5" font-family="Helvetica,sans-Serif" font-size="10.00">boost/polygon/point</text>
<text text-anchor="middle" x="80.7667" y="-63.5" font-family="Helvetica,sans-Serif" font-size="10.00">_data.hpp</text>
</g>
<!-- Node5&#45;&gt;Node9 -->
<g id="edge10" class="edge"><title>Node5&#45;&gt;Node9</title>
<path fill="none" stroke="midnightblue" d="M301.207,-123.457C263.126,-114.981 202.968,-101.486 141.386,-87.1259"/>
<polygon fill="midnightblue" stroke="midnightblue" points="142.027,-83.6816 131.493,-84.8144 140.434,-90.498 142.027,-83.6816"/>
</g>
<!-- Node10 -->
<g id="node10" class="node"><title>Node10</title>
<polygon fill="white" stroke="#bfbfbf" points="149.767,-56.5 149.767,-86.5 269.767,-86.5 269.767,-56.5 149.767,-56.5"/>
<text text-anchor="start" x="157.767" y="-74.5" font-family="Helvetica,sans-Serif" font-size="10.00">boost/polygon/rectangle</text>
<text text-anchor="middle" x="209.767" y="-63.5" font-family="Helvetica,sans-Serif" font-size="10.00">_data.hpp</text>
</g>
<!-- Node5&#45;&gt;Node10 -->
<g id="edge11" class="edge"><title>Node5&#45;&gt;Node10</title>
<path fill="none" stroke="midnightblue" d="M321.141,-123.475C302.547,-114.965 273.389,-101.619 249.571,-90.718"/>
<polygon fill="midnightblue" stroke="midnightblue" points="250.955,-87.5023 240.405,-86.523 248.041,-93.8673 250.955,-87.5023"/>
</g>
<!-- Node11&#45;&gt;Node2 -->
<g id="edge13" class="edge"><title>Node11&#45;&gt;Node2</title>
<path fill="none" stroke="midnightblue" d="M918.977,-123.475C887.833,-113.18 835.285,-95.8103 800.314,-84.2502"/>
<polygon fill="midnightblue" stroke="midnightblue" points="801.102,-80.8245 790.508,-81.0091 798.905,-87.4708 801.102,-80.8245"/>
</g>
<!-- Node12 -->
<g id="node12" class="node"><title>Node12</title>
<polygon fill="white" stroke="#bfbfbf" points="924.267,-62 924.267,-81 965.267,-81 965.267,-62 924.267,-62"/>
<text text-anchor="middle" x="944.767" y="-69" font-family="Helvetica,sans-Serif" font-size="10.00">string</text>
</g>
<!-- Node11&#45;&gt;Node12 -->
<g id="edge14" class="edge"><title>Node11&#45;&gt;Node12</title>
<path fill="none" stroke="midnightblue" d="M944.767,-123.475C944.767,-115.08 944.767,-101.981 944.767,-91.1631"/>
<polygon fill="midnightblue" stroke="midnightblue" points="948.267,-91.0091 944.767,-81.0091 941.267,-91.0091 948.267,-91.0091"/>
</g>
<!-- Node13 -->
<g id="node13" class="node"><title>Node13</title>
<polygon fill="white" stroke="#bfbfbf" points="983.267,-62 983.267,-81 1056.27,-81 1056.27,-62 983.267,-62"/>
<text text-anchor="middle" x="1019.77" y="-69" font-family="Helvetica,sans-Serif" font-size="10.00">initializer_list</text>
</g>
<!-- Node11&#45;&gt;Node13 -->
<g id="edge15" class="edge"><title>Node11&#45;&gt;Node13</title>
<path fill="none" stroke="midnightblue" d="M955.512,-123.475C967.319,-114.108 986.51,-98.8839 1000.85,-87.5081"/>
<polygon fill="midnightblue" stroke="midnightblue" points="1003.38,-89.9661 1009.04,-81.0091 999.032,-84.4822 1003.38,-89.9661"/>
</g>
<!-- Node14 -->
<g id="node14" class="node"><title>Node14</title>
<polygon fill="white" stroke="#bfbfbf" points="847.267,-62 847.267,-81 906.267,-81 906.267,-62 847.267,-62"/>
<text text-anchor="middle" x="876.767" y="-69" font-family="Helvetica,sans-Serif" font-size="10.00">functional</text>
</g>
<!-- Node11&#45;&gt;Node14 -->
<g id="edge16" class="edge"><title>Node11&#45;&gt;Node14</title>
<path fill="none" stroke="midnightblue" d="M935.024,-123.475C924.42,-114.197 907.247,-99.1706 894.288,-87.831"/>
<polygon fill="midnightblue" stroke="midnightblue" points="896.322,-84.9601 886.491,-81.0091 891.712,-90.2282 896.322,-84.9601"/>
</g>
<!-- Node15&#45;&gt;Node2 -->
<g id="edge18" class="edge"><title>Node15&#45;&gt;Node2</title>
<path fill="none" stroke="midnightblue" d="M530.451,-184.831C552.813,-170.854 598.809,-142.896 639.767,-123 670.061,-108.283 705.794,-94.1554 731.279,-84.604"/>
<polygon fill="midnightblue" stroke="midnightblue" points="732.692,-87.8128 740.849,-81.0517 730.256,-81.2503 732.692,-87.8128"/>
</g>
<!-- Node15&#45;&gt;Node5 -->
<g id="edge19" class="edge"><title>Node15&#45;&gt;Node5</title>
<path fill="none" stroke="midnightblue" d="M491.407,-184.975C460.782,-174.68 409.11,-157.31 374.721,-145.75"/>
<polygon fill="midnightblue" stroke="midnightblue" points="375.673,-142.378 365.079,-142.509 373.443,-149.013 375.673,-142.378"/>
</g>
<!-- Node16 -->
<g id="node16" class="node"><title>Node16</title>
<polygon fill="white" stroke="#bfbfbf" points="464.267,-123.5 464.267,-142.5 561.267,-142.5 561.267,-123.5 464.267,-123.5"/>
<text text-anchor="middle" x="512.767" y="-130.5" font-family="Helvetica,sans-Serif" font-size="10.00">boost/function.hpp</text>
</g>
<!-- Node15&#45;&gt;Node16 -->
<g id="edge20" class="edge"><title>Node15&#45;&gt;Node16</title>
<path fill="none" stroke="midnightblue" d="M516.194,-184.975C515.629,-176.58 514.749,-163.481 514.021,-152.663"/>
<polygon fill="midnightblue" stroke="midnightblue" points="517.502,-152.252 513.339,-142.509 510.517,-152.721 517.502,-152.252"/>
</g>
<!-- Node17&#45;&gt;Node2 -->
<g id="edge22" class="edge"><title>Node17&#45;&gt;Node2</title>
<path fill="none" stroke="midnightblue" d="M730.086,-184.968C700.69,-174.964 656.295,-157.859 646.767,-143 641.968,-135.517 641.872,-130.42 646.767,-123 655.985,-109.028 695.025,-94.0621 725.709,-84.0814"/>
<polygon fill="midnightblue" stroke="midnightblue" points="726.859,-87.3884 735.329,-81.0236 724.739,-80.7173 726.859,-87.3884"/>
</g>
<!-- Node17&#45;&gt;Node11 -->
<g id="edge23" class="edge"><title>Node17&#45;&gt;Node11</title>
<path fill="none" stroke="midnightblue" d="M783.702,-184.975C816.37,-174.636 871.585,-157.161 908.109,-145.602"/>
<polygon fill="midnightblue" stroke="midnightblue" points="909.403,-148.863 917.881,-142.509 907.291,-142.19 909.403,-148.863"/>
</g>
<!-- Node18 -->
<g id="node18" class="node"><title>Node18</title>
<polygon fill="white" stroke="#bfbfbf" points="656.267,-123.5 656.267,-142.5 801.267,-142.5 801.267,-123.5 656.267,-123.5"/>
<text text-anchor="middle" x="728.767" y="-130.5" font-family="Helvetica,sans-Serif" font-size="10.00">boost/core/scoped_enum.hpp</text>
</g>
<!-- Node17&#45;&gt;Node18 -->
<g id="edge24" class="edge"><title>Node17&#45;&gt;Node18</title>
<path fill="none" stroke="midnightblue" d="M752.755,-184.975C748.68,-176.315 742.248,-162.649 737.07,-151.645"/>
<polygon fill="midnightblue" stroke="midnightblue" points="740.196,-150.067 732.771,-142.509 733.862,-153.048 740.196,-150.067"/>
</g>
<!-- Node19&#45;&gt;Node2 -->
<g id="edge26" class="edge"><title>Node19&#45;&gt;Node2</title>
<path fill="none" stroke="midnightblue" d="M900.942,-184.564C889.901,-170.459 867.006,-142.623 843.767,-123 826.924,-108.778 805.794,-95.4712 789.625,-86.091"/>
<polygon fill="midnightblue" stroke="midnightblue" points="791.172,-82.9443 780.749,-81.0446 787.712,-89.0296 791.172,-82.9443"/>
</g>
</g>
</svg>
