<?xml version="1.0" encoding="UTF-8" standalone="no"?>
<!DOCTYPE svg PUBLIC "-//W3C//DTD SVG 1.1//EN"
 "http://www.w3.org/Graphics/SVG/1.1/DTD/svg11.dtd">
<!-- Generated by graphviz version 2.43.0 (0)
 -->
<!-- Title: boost/ui/def.hpp Pages: 1 -->
<svg width="234pt" height="84pt"
 viewBox="0.00 0.00 234.00 84.00" xmlns="http://www.w3.org/2000/svg" xmlns:xlink="http://www.w3.org/1999/xlink">
<g id="graph0" class="graph" transform="scale(1 1) rotate(0) translate(4 80)">
<title>boost/ui/def.hpp</title>
<polygon fill="white" stroke="transparent" points="-4,4 -4,-80 230,-80 230,4 -4,4"/>
<!-- Node1 -->
<g id="node1" class="node">
<title>Node1</title>
<g id="a_node1"><a xlink:title="Definitions.">
<polygon fill="#bfbfbf" stroke="black" points="79,-56.5 79,-75.5 174,-75.5 174,-56.5 79,-56.5"/>
<text text-anchor="middle" x="126.5" y="-63.5" font-family="Helvetica,sans-Serif" font-size="10.00">boost/ui/def.hpp</text>
</a>
</g>
</g>
<!-- Node2 -->
<g id="node2" class="node">
<title>Node2</title>
<g id="a_node2"><a xlink:href="check__box_8hpp.html" target="_top" xlink:title="Check box widget.">
<polygon fill="white" stroke="black" points="0,-0.5 0,-19.5 131,-19.5 131,-0.5 0,-0.5"/>
<text text-anchor="middle" x="65.5" y="-7.5" font-family="Helvetica,sans-Serif" font-size="10.00">boost/ui/check_box.hpp</text>
</a>
</g>
</g>
<!-- Node1&#45;&gt;Node2 -->
<g id="edge1" class="edge">
<title>Node1&#45;&gt;Node2</title>
<path fill="none" stroke="midnightblue" d="M109.03,-49.54C98.16,-39.91 84.56,-27.87 75.48,-19.83"/>
<polygon fill="midnightblue" stroke="midnightblue" points="106.89,-52.32 116.7,-56.32 111.53,-47.07 106.89,-52.32"/>
</g>
<!-- Node3 -->
<g id="node3" class="node">
<title>Node3</title>
<g id="a_node3"><a xlink:href="ui_8hpp.html" target="_top" xlink:title="Master Boost.UI file.">
<polygon fill="white" stroke="black" points="149,-0.5 149,-19.5 226,-19.5 226,-0.5 149,-0.5"/>
<text text-anchor="middle" x="187.5" y="-7.5" font-family="Helvetica,sans-Serif" font-size="10.00">boost/ui.hpp</text>
</a>
</g>
</g>
<!-- Node1&#45;&gt;Node3 -->
<g id="edge2" class="edge">
<title>Node1&#45;&gt;Node3</title>
<path fill="none" stroke="midnightblue" d="M143.97,-49.54C154.84,-39.91 168.44,-27.87 177.52,-19.83"/>
<polygon fill="midnightblue" stroke="midnightblue" points="141.47,-47.07 136.3,-56.32 146.11,-52.32 141.47,-47.07"/>
</g>
</g>
</svg>
