<?xml version="1.0" encoding="UTF-8" standalone="no"?>
<!DOCTYPE svg PUBLIC "-//W3C//DTD SVG 1.1//EN"
 "http://www.w3.org/Graphics/SVG/1.1/DTD/svg11.dtd">
<!-- Generated by graphviz version 2.38.0 (20140413.2041)
 -->
<!-- Title: boost/ui/dialog.hpp Pages: 1 -->
<svg width="5437pt" height="274pt"
 viewBox="0.00 0.00 5437.17 274.00" xmlns="http://www.w3.org/2000/svg" xmlns:xlink="http://www.w3.org/1999/xlink">
<g id="graph0" class="graph" transform="scale(1 1) rotate(0) translate(4 270)">
<title>boost/ui/dialog.hpp</title>
<polygon fill="white" stroke="none" points="-4,4 -4,-270 5433.17,-270 5433.17,4 -4,4"/>
<!-- Node1 -->
<g id="node1" class="node"><title>Node1</title>
<polygon fill="#bfbfbf" stroke="black" points="1244.95,-246.5 1244.95,-265.5 1342.95,-265.5 1342.95,-246.5 1244.95,-246.5"/>
<text text-anchor="middle" x="1293.95" y="-253.5" font-family="Helvetica,sans-Serif" font-size="10.00">boost/ui/dialog.hpp</text>
</g>
<!-- Node2 -->
<g id="node2" class="node"><title>Node2</title>
<g id="a_node2"><a xlink:href="config_8hpp.html" target="_top" xlink:title="Configuration options. ">
<polygon fill="white" stroke="black" points="373.447,-62 373.447,-81 472.447,-81 472.447,-62 373.447,-62"/>
<text text-anchor="middle" x="422.947" y="-69" font-family="Helvetica,sans-Serif" font-size="10.00">boost/ui/config.hpp</text>
</a>
</g>
</g>
<!-- Node1&#45;&gt;Node2 -->
<g id="edge1" class="edge"><title>Node1&#45;&gt;Node2</title>
<path fill="none" stroke="midnightblue" d="M1244.92,-254.986C1019.79,-254.421 92.439,-246.464 6.94731,-154 -2.40619,-143.884 -2.18919,-133.313 6.94731,-123 30.1697,-96.7881 253.777,-81.4384 363.211,-75.439"/>
<polygon fill="midnightblue" stroke="midnightblue" points="363.638,-78.9212 373.435,-74.8876 363.261,-71.9314 363.638,-78.9212"/>
</g>
<!-- Node4 -->
<g id="node4" class="node"><title>Node4</title>
<g id="a_node4"><a xlink:href="window_8hpp.html" target="_top" xlink:title="Window class. ">
<polygon fill="white" stroke="red" points="2546.95,-190.5 2546.95,-209.5 2652.95,-209.5 2652.95,-190.5 2546.95,-190.5"/>
<text text-anchor="middle" x="2599.95" y="-197.5" font-family="Helvetica,sans-Serif" font-size="10.00">boost/ui/window.hpp</text>
</a>
</g>
</g>
<!-- Node1&#45;&gt;Node4 -->
<g id="edge3" class="edge"><title>Node1&#45;&gt;Node4</title>
<path fill="none" stroke="midnightblue" d="M1343.15,-252.965C1545.13,-244.614 2310.48,-212.969 2536.65,-203.617"/>
<polygon fill="midnightblue" stroke="midnightblue" points="2536.84,-207.112 2546.69,-203.202 2536.55,-200.118 2536.84,-207.112"/>
</g>
<!-- Node3 -->
<g id="node3" class="node"><title>Node3</title>
<polygon fill="white" stroke="#bfbfbf" points="806.447,-0.5 806.447,-19.5 895.447,-19.5 895.447,-0.5 806.447,-0.5"/>
<text text-anchor="middle" x="850.947" y="-7.5" font-family="Helvetica,sans-Serif" font-size="10.00">boost/config.hpp</text>
</g>
<!-- Node2&#45;&gt;Node3 -->
<g id="edge2" class="edge"><title>Node2&#45;&gt;Node3</title>
<path fill="none" stroke="midnightblue" d="M454.097,-61.9587C462.745,-59.7938 472.17,-57.6244 480.947,-56 591.93,-35.46 723.44,-22.0195 795.986,-15.5392"/>
<polygon fill="midnightblue" stroke="midnightblue" points="796.598,-18.9988 806.252,-14.6336 795.983,-12.0259 796.598,-18.9988"/>
</g>
<!-- Node4&#45;&gt;Node2 -->
<g id="edge4" class="edge"><title>Node4&#45;&gt;Node2</title>
<path fill="none" stroke="midnightblue" d="M2546.8,-198.692C2239.3,-196.796 698.582,-185.738 603.947,-154 581.61,-146.509 581.76,-134.04 560.947,-123 529.634,-106.39 491.662,-92.9341 463.482,-84.1017"/>
<polygon fill="midnightblue" stroke="midnightblue" points="464.16,-80.6488 453.574,-81.0596 462.106,-87.3405 464.16,-80.6488"/>
</g>
<!-- Node4&#45;&gt;Node3 -->
<g id="edge5" class="edge"><title>Node4&#45;&gt;Node3</title>
<path fill="none" stroke="midnightblue" d="M2653.09,-199.178C3036.9,-200.338 5371.48,-205.279 5421.95,-154 5431.61,-144.18 5431.53,-132.904 5421.95,-123 5339.42,-37.6591 1417.41,-14.003 905.773,-11.2784"/>
<polygon fill="midnightblue" stroke="midnightblue" points="905.714,-7.77818 895.695,-11.2251 905.676,-14.7781 905.714,-7.77818"/>
</g>
<!-- Node5 -->
<g id="node5" class="node"><title>Node5</title>
<polygon fill="white" stroke="#bfbfbf" points="15.9473,-129 15.9473,-148 125.947,-148 125.947,-129 15.9473,-129"/>
<text text-anchor="middle" x="70.9473" y="-136" font-family="Helvetica,sans-Serif" font-size="10.00">boost/config/user.hpp</text>
</g>
<!-- Node4&#45;&gt;Node5 -->
<g id="edge6" class="edge"><title>Node4&#45;&gt;Node5</title>
<path fill="none" stroke="midnightblue" d="M2546.88,-198.683C2210.55,-196.589 381.731,-183.889 134.947,-154 127.638,-153.115 119.941,-151.752 112.517,-150.21"/>
<polygon fill="midnightblue" stroke="midnightblue" points="113.145,-146.765 102.625,-148.024 111.634,-153.6 113.145,-146.765"/>
</g>
<!-- Node6 -->
<g id="node6" class="node"><title>Node6</title>
<polygon fill="white" stroke="#bfbfbf" points="143.947,-123.5 143.947,-153.5 281.947,-153.5 281.947,-123.5 143.947,-123.5"/>
<text text-anchor="start" x="151.947" y="-141.5" font-family="Helvetica,sans-Serif" font-size="10.00">boost/config/detail</text>
<text text-anchor="middle" x="212.947" y="-130.5" font-family="Helvetica,sans-Serif" font-size="10.00">/select_compiler_config.hpp</text>
</g>
<!-- Node4&#45;&gt;Node6 -->
<g id="edge7" class="edge"><title>Node4&#45;&gt;Node6</title>
<path fill="none" stroke="midnightblue" d="M2546.55,-199.152C2246.8,-199.824 770.272,-200.722 292.257,-153.988"/>
<polygon fill="midnightblue" stroke="midnightblue" points="292.483,-150.494 282.184,-152.981 291.787,-157.459 292.483,-150.494"/>
</g>
<!-- Node7 -->
<g id="node7" class="node"><title>Node7</title>
<polygon fill="white" stroke="#bfbfbf" points="300.447,-123.5 300.447,-153.5 437.447,-153.5 437.447,-123.5 300.447,-123.5"/>
<text text-anchor="start" x="308.447" y="-141.5" font-family="Helvetica,sans-Serif" font-size="10.00">boost/config/detail</text>
<text text-anchor="middle" x="368.947" y="-130.5" font-family="Helvetica,sans-Serif" font-size="10.00">/select_platform_config.hpp</text>
</g>
<!-- Node4&#45;&gt;Node7 -->
<g id="edge8" class="edge"><title>Node4&#45;&gt;Node7</title>
<path fill="none" stroke="midnightblue" d="M2546.89,-199.064C2260.25,-199.231 893.461,-197.736 447.797,-153.931"/>
<polygon fill="midnightblue" stroke="midnightblue" points="448.063,-150.44 437.763,-152.921 447.362,-157.405 448.063,-150.44"/>
</g>
<!-- Node8 -->
<g id="node8" class="node"><title>Node8</title>
<polygon fill="white" stroke="#bfbfbf" points="455.947,-123.5 455.947,-153.5 551.947,-153.5 551.947,-123.5 455.947,-123.5"/>
<text text-anchor="start" x="463.947" y="-141.5" font-family="Helvetica,sans-Serif" font-size="10.00">boost/config/detail</text>
<text text-anchor="middle" x="503.947" y="-130.5" font-family="Helvetica,sans-Serif" font-size="10.00">/suffix.hpp</text>
</g>
<!-- Node4&#45;&gt;Node8 -->
<g id="edge9" class="edge"><title>Node4&#45;&gt;Node8</title>
<path fill="none" stroke="midnightblue" d="M2546.52,-198.481C2245.48,-195.47 767.217,-179.481 565.947,-154 564.683,-153.84 563.406,-153.665 562.122,-153.476"/>
<polygon fill="midnightblue" stroke="midnightblue" points="562.614,-150.01 552.171,-151.799 561.45,-156.913 562.614,-150.01"/>
</g>
<!-- Node9 -->
<g id="node9" class="node"><title>Node9</title>
<polygon fill="white" stroke="#bfbfbf" points="3363.95,-62 3363.95,-81 3411.95,-81 3411.95,-62 3363.95,-62"/>
<text text-anchor="middle" x="3387.95" y="-69" font-family="Helvetica,sans-Serif" font-size="10.00">limits.h</text>
</g>
<!-- Node4&#45;&gt;Node9 -->
<g id="edge10" class="edge"><title>Node4&#45;&gt;Node9</title>
<path fill="none" stroke="midnightblue" d="M2653.07,-199.172C3035.5,-200.29 5354.8,-204.959 5404.95,-154 5414.61,-144.18 5414.57,-132.864 5404.95,-123 5368.88,-86.015 3685.46,-74.3051 3422.37,-72.6997"/>
<polygon fill="midnightblue" stroke="midnightblue" points="3422.27,-69.1992 3412.25,-72.6387 3422.23,-76.199 3422.27,-69.1992"/>
</g>
<!-- Node10 -->
<g id="node10" class="node"><title>Node10</title>
<polygon fill="white" stroke="#bfbfbf" points="880.447,-123.5 880.447,-153.5 979.447,-153.5 979.447,-123.5 880.447,-123.5"/>
<text text-anchor="start" x="888.447" y="-141.5" font-family="Helvetica,sans-Serif" font-size="10.00">boost/config/helper</text>
<text text-anchor="middle" x="929.947" y="-130.5" font-family="Helvetica,sans-Serif" font-size="10.00">_macros.hpp</text>
</g>
<!-- Node4&#45;&gt;Node10 -->
<g id="edge11" class="edge"><title>Node4&#45;&gt;Node10</title>
<path fill="none" stroke="midnightblue" d="M2546.88,-199.065C2306.76,-199.126 1319.82,-196.795 989.535,-153.979"/>
<polygon fill="midnightblue" stroke="midnightblue" points="989.859,-150.491 979.483,-152.635 988.931,-157.429 989.859,-150.491"/>
</g>
<!-- Node11 -->
<g id="node11" class="node"><title>Node11</title>
<g id="a_node11"><a xlink:href="widget_8hpp.html" target="_top" xlink:title="Widget class. ">
<polygon fill="white" stroke="red" points="722.447,-129 722.447,-148 823.447,-148 823.447,-129 722.447,-129"/>
<text text-anchor="middle" x="772.947" y="-136" font-family="Helvetica,sans-Serif" font-size="10.00">boost/ui/widget.hpp</text>
</a>
</g>
</g>
<!-- Node4&#45;&gt;Node11 -->
<g id="edge12" class="edge"><title>Node4&#45;&gt;Node11</title>
<path fill="none" stroke="midnightblue" d="M2546.74,-199.032C2290.38,-198.972 1180.95,-196.232 837.947,-154 830.61,-153.097 822.883,-151.74 815.419,-150.213"/>
<polygon fill="midnightblue" stroke="midnightblue" points="815.98,-146.753 805.465,-148.051 814.495,-153.594 815.98,-146.753"/>
</g>
<!-- Node12 -->
<g id="node12" class="node"><title>Node12</title>
<polygon fill="white" stroke="#bfbfbf" points="490.447,-62 490.447,-81 589.447,-81 589.447,-62 490.447,-62"/>
<text text-anchor="middle" x="539.947" y="-69" font-family="Helvetica,sans-Serif" font-size="10.00">boost/ui/config.hpp</text>
</g>
<!-- Node4&#45;&gt;Node12 -->
<g id="edge22" class="edge"><title>Node4&#45;&gt;Node12</title>
<path fill="none" stroke="midnightblue" d="M2546.69,-198.544C2245.34,-195.866 764.185,-181.348 671.947,-154 626.642,-140.567 581.435,-107.265 557.472,-87.6381"/>
<polygon fill="midnightblue" stroke="midnightblue" points="559.559,-84.8211 549.644,-81.0881 555.067,-90.1897 559.559,-84.8211"/>
</g>
<!-- Node13 -->
<g id="node13" class="node"><title>Node13</title>
<polygon fill="white" stroke="#bfbfbf" points="607.447,-62 607.447,-81 704.447,-81 704.447,-62 607.447,-62"/>
<text text-anchor="middle" x="655.947" y="-69" font-family="Helvetica,sans-Serif" font-size="10.00">boost/ui/coord.hpp</text>
</g>
<!-- Node4&#45;&gt;Node13 -->
<g id="edge23" class="edge"><title>Node4&#45;&gt;Node13</title>
<path fill="none" stroke="midnightblue" d="M2546.77,-199.201C2247.54,-200.148 784.302,-202.293 702.947,-154 679.827,-140.276 667.007,-110.504 660.801,-90.9971"/>
<polygon fill="midnightblue" stroke="midnightblue" points="664.09,-89.7709 657.946,-81.1393 657.366,-91.7182 664.09,-89.7709"/>
</g>
<!-- Node14 -->
<g id="node14" class="node"><title>Node14</title>
<polygon fill="white" stroke="#bfbfbf" points="722.947,-56.5 722.947,-86.5 822.947,-86.5 822.947,-56.5 722.947,-56.5"/>
<text text-anchor="start" x="730.947" y="-74.5" font-family="Helvetica,sans-Serif" font-size="10.00">boost/preprocessor</text>
<text text-anchor="middle" x="772.947" y="-63.5" font-family="Helvetica,sans-Serif" font-size="10.00">/cat.hpp</text>
</g>
<!-- Node4&#45;&gt;Node14 -->
<g id="edge56" class="edge"><title>Node4&#45;&gt;Node14</title>
<path fill="none" stroke="midnightblue" d="M2546.53,-198.745C2242.8,-197.17 745.857,-187.704 712.947,-154 694.362,-134.966 718.748,-109.939 741.777,-92.6654"/>
<polygon fill="midnightblue" stroke="midnightblue" points="744.036,-95.3527 750.118,-86.6777 739.953,-89.6662 744.036,-95.3527"/>
</g>
<!-- Node15 -->
<g id="node15" class="node"><title>Node15</title>
<polygon fill="white" stroke="#bfbfbf" points="879.447,-62 879.447,-81 1018.45,-81 1018.45,-62 879.447,-62"/>
<text text-anchor="middle" x="948.947" y="-69" font-family="Helvetica,sans-Serif" font-size="10.00">boost/detail/workaround.hpp</text>
</g>
<!-- Node4&#45;&gt;Node15 -->
<g id="edge37" class="edge"><title>Node4&#45;&gt;Node15</title>
<path fill="none" stroke="midnightblue" d="M2546.84,-198.628C2259.31,-196.489 900.922,-184.765 870.947,-154 847.661,-130.1 889.919,-101.914 920.791,-85.7324"/>
<polygon fill="midnightblue" stroke="midnightblue" points="922.578,-88.7508 929.922,-81.114 919.419,-82.5044 922.578,-88.7508"/>
</g>
<!-- Node16 -->
<g id="node16" class="node"><title>Node16</title>
<polygon fill="white" stroke="#bfbfbf" points="1548.95,-62 1548.95,-81 1690.95,-81 1690.95,-62 1548.95,-62"/>
<text text-anchor="middle" x="1619.95" y="-69" font-family="Helvetica,sans-Serif" font-size="10.00">boost/config/workaround.hpp</text>
</g>
<!-- Node4&#45;&gt;Node16 -->
<g id="edge38" class="edge"><title>Node4&#45;&gt;Node16</title>
<path fill="none" stroke="midnightblue" d="M2653.03,-199.156C3031.38,-200.147 5305.74,-204.018 5354.95,-154 5364.61,-144.178 5364.62,-132.808 5354.95,-123 5354.95,-123 2247.42,-80.9839 1701.37,-73.6009"/>
<polygon fill="midnightblue" stroke="midnightblue" points="1701.27,-70.0993 1691.22,-73.4637 1701.18,-77.0987 1701.27,-70.0993"/>
</g>
<!-- Node17 -->
<g id="node17" class="node"><title>Node17</title>
<polygon fill="white" stroke="#bfbfbf" points="2732.95,-56.5 2732.95,-86.5 2832.95,-86.5 2832.95,-56.5 2732.95,-56.5"/>
<text text-anchor="start" x="2740.95" y="-74.5" font-family="Helvetica,sans-Serif" font-size="10.00">boost/preprocessor</text>
<text text-anchor="middle" x="2782.95" y="-63.5" font-family="Helvetica,sans-Serif" font-size="10.00">/config/config.hpp</text>
</g>
<!-- Node4&#45;&gt;Node17 -->
<g id="edge57" class="edge"><title>Node4&#45;&gt;Node17</title>
<path fill="none" stroke="midnightblue" d="M2653.05,-199.167C3034.09,-200.242 5338.12,-204.64 5387.95,-154 5397.61,-144.179 5397.6,-132.828 5387.95,-123 5348.36,-82.7098 3411.42,-88.2157 3354.95,-87 3168.25,-82.9806 2947.3,-77.0453 2843.08,-74.1753"/>
<polygon fill="midnightblue" stroke="midnightblue" points="2843.15,-70.6762 2833.06,-73.899 2842.96,-77.6735 2843.15,-70.6762"/>
</g>
<!-- Node18 -->
<g id="node18" class="node"><title>Node18</title>
<polygon fill="white" stroke="#bfbfbf" points="997.447,-129 997.447,-148 1100.45,-148 1100.45,-129 997.447,-129"/>
<text text-anchor="middle" x="1048.95" y="-136" font-family="Helvetica,sans-Serif" font-size="10.00">boost/geometry.hpp</text>
</g>
<!-- Node4&#45;&gt;Node18 -->
<g id="edge24" class="edge"><title>Node4&#45;&gt;Node18</title>
<path fill="none" stroke="midnightblue" d="M2546.7,-198.841C2315.34,-197.928 1396.17,-191.939 1109.95,-154 1103.2,-153.106 1096.12,-151.785 1089.26,-150.298"/>
<polygon fill="midnightblue" stroke="midnightblue" points="1089.97,-146.87 1079.44,-148.032 1088.4,-153.691 1089.97,-146.87"/>
</g>
<!-- Node19 -->
<g id="node19" class="node"><title>Node19</title>
<polygon fill="white" stroke="#bfbfbf" points="1118.95,-129 1118.95,-148 1264.95,-148 1264.95,-129 1118.95,-129"/>
<text text-anchor="middle" x="1191.95" y="-136" font-family="Helvetica,sans-Serif" font-size="10.00">boost/geometry/geometry.hpp</text>
</g>
<!-- Node4&#45;&gt;Node19 -->
<g id="edge25" class="edge"><title>Node4&#45;&gt;Node19</title>
<path fill="none" stroke="midnightblue" d="M2546.93,-198.201C2332.28,-194.81 1527.23,-180.558 1273.95,-154 1264.03,-152.96 1253.5,-151.427 1243.41,-149.743"/>
<polygon fill="midnightblue" stroke="midnightblue" points="1243.95,-146.285 1233.5,-148.02 1242.75,-153.182 1243.95,-146.285"/>
</g>
<!-- Node20 -->
<g id="node20" class="node"><title>Node20</title>
<polygon fill="white" stroke="#bfbfbf" points="1282.95,-123.5 1282.95,-153.5 1388.95,-153.5 1388.95,-123.5 1282.95,-123.5"/>
<text text-anchor="start" x="1290.95" y="-141.5" font-family="Helvetica,sans-Serif" font-size="10.00">boost/geometry/core</text>
<text text-anchor="middle" x="1335.95" y="-130.5" font-family="Helvetica,sans-Serif" font-size="10.00">/closure.hpp</text>
</g>
<!-- Node4&#45;&gt;Node20 -->
<g id="edge26" class="edge"><title>Node4&#45;&gt;Node20</title>
<path fill="none" stroke="midnightblue" d="M2546.77,-198.369C2347.52,-195.797 1644.42,-184.796 1399.19,-153.949"/>
<polygon fill="midnightblue" stroke="midnightblue" points="1399.63,-150.476 1389.26,-152.655 1398.72,-157.418 1399.63,-150.476"/>
</g>
<!-- Node21 -->
<g id="node21" class="node"><title>Node21</title>
<polygon fill="white" stroke="#bfbfbf" points="1406.95,-129 1406.95,-148 1514.95,-148 1514.95,-129 1406.95,-129"/>
<text text-anchor="middle" x="1460.95" y="-136" font-family="Helvetica,sans-Serif" font-size="10.00">boost/mpl/assert.hpp</text>
</g>
<!-- Node4&#45;&gt;Node21 -->
<g id="edge27" class="edge"><title>Node4&#45;&gt;Node21</title>
<path fill="none" stroke="midnightblue" d="M2546.64,-198.072C2358.33,-194.592 1724.99,-181.104 1523.95,-154 1517.07,-153.073 1509.84,-151.748 1502.83,-150.272"/>
<polygon fill="midnightblue" stroke="midnightblue" points="1503.31,-146.792 1492.79,-148.029 1501.78,-153.624 1503.31,-146.792"/>
</g>
<!-- Node22 -->
<g id="node22" class="node"><title>Node22</title>
<polygon fill="white" stroke="#bfbfbf" points="1533.45,-129 1533.45,-148 1628.45,-148 1628.45,-129 1533.45,-129"/>
<text text-anchor="middle" x="1580.95" y="-136" font-family="Helvetica,sans-Serif" font-size="10.00">boost/mpl/not.hpp</text>
</g>
<!-- Node4&#45;&gt;Node22 -->
<g id="edge28" class="edge"><title>Node4&#45;&gt;Node22</title>
<path fill="none" stroke="midnightblue" d="M2546.84,-197.964C2371.87,-194.323 1814.64,-180.861 1636.95,-154 1631.09,-153.115 1624.97,-151.869 1619.01,-150.476"/>
<polygon fill="midnightblue" stroke="midnightblue" points="1619.75,-147.054 1609.2,-148.028 1618.05,-153.846 1619.75,-147.054"/>
</g>
<!-- Node23 -->
<g id="node23" class="node"><title>Node23</title>
<polygon fill="white" stroke="#bfbfbf" points="1646.45,-129 1646.45,-148 1745.45,-148 1745.45,-129 1646.45,-129"/>
<text text-anchor="middle" x="1695.95" y="-136" font-family="Helvetica,sans-Serif" font-size="10.00">boost/mpl/bool.hpp</text>
</g>
<!-- Node4&#45;&gt;Node23 -->
<g id="edge29" class="edge"><title>Node4&#45;&gt;Node23</title>
<path fill="none" stroke="midnightblue" d="M2546.71,-199.618C2412.85,-200.426 2051.77,-197.979 1754.95,-154 1748.72,-153.077 1742.18,-151.795 1735.82,-150.373"/>
<polygon fill="midnightblue" stroke="midnightblue" points="1736.59,-146.957 1726.05,-148.053 1734.97,-153.767 1736.59,-146.957"/>
</g>
<!-- Node24 -->
<g id="node24" class="node"><title>Node24</title>
<polygon fill="white" stroke="#bfbfbf" points="1763.95,-129 1763.95,-148 1883.95,-148 1883.95,-129 1763.95,-129"/>
<text text-anchor="middle" x="1823.95" y="-136" font-family="Helvetica,sans-Serif" font-size="10.00">boost/mpl/bool_fwd.hpp</text>
</g>
<!-- Node4&#45;&gt;Node24 -->
<g id="edge30" class="edge"><title>Node4&#45;&gt;Node24</title>
<path fill="none" stroke="midnightblue" d="M2546.92,-198.221C2428.89,-195.921 2135.77,-187.067 1892.95,-154 1885.36,-152.966 1877.35,-151.572 1869.6,-150.054"/>
<polygon fill="midnightblue" stroke="midnightblue" points="1870.09,-146.583 1859.59,-148.009 1868.69,-153.441 1870.09,-146.583"/>
</g>
<!-- Node25 -->
<g id="node25" class="node"><title>Node25</title>
<polygon fill="white" stroke="#bfbfbf" points="1902.45,-123.5 1902.45,-153.5 2001.45,-153.5 2001.45,-123.5 1902.45,-123.5"/>
<text text-anchor="start" x="1910.45" y="-141.5" font-family="Helvetica,sans-Serif" font-size="10.00">boost/mpl/aux_/adl</text>
<text text-anchor="middle" x="1951.95" y="-130.5" font-family="Helvetica,sans-Serif" font-size="10.00">_barrier.hpp</text>
</g>
<!-- Node4&#45;&gt;Node25 -->
<g id="edge31" class="edge"><title>Node4&#45;&gt;Node25</title>
<path fill="none" stroke="midnightblue" d="M2546.71,-197.945C2444.51,-195.27 2213.76,-186.08 2011.42,-154.066"/>
<polygon fill="midnightblue" stroke="midnightblue" points="2011.94,-150.603 2001.51,-152.475 2010.83,-157.515 2011.94,-150.603"/>
</g>
<!-- Node26 -->
<g id="node26" class="node"><title>Node26</title>
<polygon fill="white" stroke="#bfbfbf" points="2019.45,-123.5 2019.45,-153.5 2132.45,-153.5 2132.45,-123.5 2019.45,-123.5"/>
<text text-anchor="start" x="2027.45" y="-141.5" font-family="Helvetica,sans-Serif" font-size="10.00">boost/mpl/aux_/config</text>
<text text-anchor="middle" x="2075.95" y="-130.5" font-family="Helvetica,sans-Serif" font-size="10.00">/adl.hpp</text>
</g>
<!-- Node4&#45;&gt;Node26 -->
<g id="edge32" class="edge"><title>Node4&#45;&gt;Node26</title>
<path fill="none" stroke="midnightblue" d="M2546.67,-195.89C2462.69,-190.525 2294.26,-177.891 2142.56,-154.142"/>
<polygon fill="midnightblue" stroke="midnightblue" points="2143.01,-150.671 2132.59,-152.562 2141.92,-157.585 2143.01,-150.671"/>
</g>
<!-- Node27 -->
<g id="node27" class="node"><title>Node27</title>
<polygon fill="white" stroke="#bfbfbf" points="2150.45,-123.5 2150.45,-153.5 2263.45,-153.5 2263.45,-123.5 2150.45,-123.5"/>
<text text-anchor="start" x="2158.45" y="-141.5" font-family="Helvetica,sans-Serif" font-size="10.00">boost/mpl/aux_/config</text>
<text text-anchor="middle" x="2206.95" y="-130.5" font-family="Helvetica,sans-Serif" font-size="10.00">/msvc.hpp</text>
</g>
<!-- Node4&#45;&gt;Node27 -->
<g id="edge33" class="edge"><title>Node4&#45;&gt;Node27</title>
<path fill="none" stroke="midnightblue" d="M2546.9,-193.098C2483.9,-185.782 2375.44,-172.225 2273.46,-154.191"/>
<polygon fill="midnightblue" stroke="midnightblue" points="2274.07,-150.745 2263.61,-152.432 2272.84,-157.636 2274.07,-150.745"/>
</g>
<!-- Node28 -->
<g id="node28" class="node"><title>Node28</title>
<polygon fill="white" stroke="#bfbfbf" points="2281.45,-123.5 2281.45,-153.5 2394.45,-153.5 2394.45,-123.5 2281.45,-123.5"/>
<text text-anchor="start" x="2289.45" y="-141.5" font-family="Helvetica,sans-Serif" font-size="10.00">boost/mpl/aux_/config</text>
<text text-anchor="middle" x="2337.95" y="-130.5" font-family="Helvetica,sans-Serif" font-size="10.00">/intel.hpp</text>
</g>
<!-- Node4&#45;&gt;Node28 -->
<g id="edge34" class="edge"><title>Node4&#45;&gt;Node28</title>
<path fill="none" stroke="midnightblue" d="M2562.41,-190.475C2521.29,-181.136 2454.53,-165.975 2404.48,-154.611"/>
<polygon fill="midnightblue" stroke="midnightblue" points="2405.24,-151.193 2394.71,-152.391 2403.69,-158.019 2405.24,-151.193"/>
</g>
<!-- Node29 -->
<g id="node29" class="node"><title>Node29</title>
<polygon fill="white" stroke="#bfbfbf" points="2412.45,-123.5 2412.45,-153.5 2525.45,-153.5 2525.45,-123.5 2412.45,-123.5"/>
<text text-anchor="start" x="2420.45" y="-141.5" font-family="Helvetica,sans-Serif" font-size="10.00">boost/mpl/aux_/config</text>
<text text-anchor="middle" x="2468.95" y="-130.5" font-family="Helvetica,sans-Serif" font-size="10.00">/gcc.hpp</text>
</g>
<!-- Node4&#45;&gt;Node29 -->
<g id="edge35" class="edge"><title>Node4&#45;&gt;Node29</title>
<path fill="none" stroke="midnightblue" d="M2581.18,-190.475C2562.44,-181.965 2533.06,-168.619 2509.06,-157.718"/>
<polygon fill="midnightblue" stroke="midnightblue" points="2510.37,-154.472 2499.82,-153.523 2507.48,-160.845 2510.37,-154.472"/>
</g>
<!-- Node30 -->
<g id="node30" class="node"><title>Node30</title>
<polygon fill="white" stroke="#bfbfbf" points="2543.45,-123.5 2543.45,-153.5 2656.45,-153.5 2656.45,-123.5 2543.45,-123.5"/>
<text text-anchor="start" x="2551.45" y="-141.5" font-family="Helvetica,sans-Serif" font-size="10.00">boost/mpl/aux_/config</text>
<text text-anchor="middle" x="2599.95" y="-130.5" font-family="Helvetica,sans-Serif" font-size="10.00">/workaround.hpp</text>
</g>
<!-- Node4&#45;&gt;Node30 -->
<g id="edge36" class="edge"><title>Node4&#45;&gt;Node30</title>
<path fill="none" stroke="midnightblue" d="M2599.95,-190.475C2599.95,-183.471 2599.95,-173.192 2599.95,-163.696"/>
<polygon fill="midnightblue" stroke="midnightblue" points="2603.45,-163.523 2599.95,-153.523 2596.45,-163.523 2603.45,-163.523"/>
</g>
<!-- Node31 -->
<g id="node31" class="node"><title>Node31</title>
<polygon fill="white" stroke="#bfbfbf" points="2674.95,-123.5 2674.95,-153.5 2768.95,-153.5 2768.95,-123.5 2674.95,-123.5"/>
<text text-anchor="start" x="2682.95" y="-141.5" font-family="Helvetica,sans-Serif" font-size="10.00">boost/mpl/integral</text>
<text text-anchor="middle" x="2721.95" y="-130.5" font-family="Helvetica,sans-Serif" font-size="10.00">_c_tag.hpp</text>
</g>
<!-- Node4&#45;&gt;Node31 -->
<g id="edge39" class="edge"><title>Node4&#45;&gt;Node31</title>
<path fill="none" stroke="midnightblue" d="M2617.43,-190.475C2634.72,-182.04 2661.76,-168.855 2684,-158.008"/>
<polygon fill="midnightblue" stroke="midnightblue" points="2685.74,-161.052 2693.19,-153.523 2682.67,-154.761 2685.74,-161.052"/>
</g>
<!-- Node32 -->
<g id="node32" class="node"><title>Node32</title>
<polygon fill="white" stroke="#bfbfbf" points="2787.45,-123.5 2787.45,-153.5 2900.45,-153.5 2900.45,-123.5 2787.45,-123.5"/>
<text text-anchor="start" x="2795.45" y="-141.5" font-family="Helvetica,sans-Serif" font-size="10.00">boost/mpl/aux_/config</text>
<text text-anchor="middle" x="2843.95" y="-130.5" font-family="Helvetica,sans-Serif" font-size="10.00">/static_constant.hpp</text>
</g>
<!-- Node4&#45;&gt;Node32 -->
<g id="edge40" class="edge"><title>Node4&#45;&gt;Node32</title>
<path fill="none" stroke="midnightblue" d="M2634.91,-190.475C2671.98,-181.434 2731.43,-166.936 2777.48,-155.709"/>
<polygon fill="midnightblue" stroke="midnightblue" points="2778.49,-159.064 2787.38,-153.294 2776.83,-152.263 2778.49,-159.064"/>
</g>
<!-- Node33 -->
<g id="node33" class="node"><title>Node33</title>
<polygon fill="white" stroke="#bfbfbf" points="2918.45,-123.5 2918.45,-153.5 3021.45,-153.5 3021.45,-123.5 2918.45,-123.5"/>
<text text-anchor="start" x="2926.45" y="-141.5" font-family="Helvetica,sans-Serif" font-size="10.00">boost/mpl/aux_/nttp</text>
<text text-anchor="middle" x="2969.95" y="-130.5" font-family="Helvetica,sans-Serif" font-size="10.00">_decl.hpp</text>
</g>
<!-- Node4&#45;&gt;Node33 -->
<g id="edge41" class="edge"><title>Node4&#45;&gt;Node33</title>
<path fill="none" stroke="midnightblue" d="M2652.95,-192.735C2712.64,-185.355 2812.71,-172.009 2908.57,-153.961"/>
<polygon fill="midnightblue" stroke="midnightblue" points="2909.26,-157.392 2918.43,-152.085 2907.95,-150.516 2909.26,-157.392"/>
</g>
<!-- Node34 -->
<g id="node34" class="node"><title>Node34</title>
<polygon fill="white" stroke="#bfbfbf" points="3039.45,-123.5 3039.45,-153.5 3152.45,-153.5 3152.45,-123.5 3039.45,-123.5"/>
<text text-anchor="start" x="3047.45" y="-141.5" font-family="Helvetica,sans-Serif" font-size="10.00">boost/mpl/aux_/config</text>
<text text-anchor="middle" x="3095.95" y="-130.5" font-family="Helvetica,sans-Serif" font-size="10.00">/nttp.hpp</text>
</g>
<!-- Node4&#45;&gt;Node34 -->
<g id="edge42" class="edge"><title>Node4&#45;&gt;Node34</title>
<path fill="none" stroke="midnightblue" d="M2652.96,-195.446C2732.63,-189.669 2888.12,-176.709 3029.17,-154.179"/>
<polygon fill="midnightblue" stroke="midnightblue" points="3029.99,-157.593 3039.3,-152.54 3028.87,-150.682 3029.99,-157.593"/>
</g>
<!-- Node35 -->
<g id="node35" class="node"><title>Node35</title>
<polygon fill="white" stroke="#bfbfbf" points="3170.95,-123.5 3170.95,-153.5 3286.95,-153.5 3286.95,-123.5 3170.95,-123.5"/>
<text text-anchor="start" x="3178.95" y="-141.5" font-family="Helvetica,sans-Serif" font-size="10.00">boost/mpl/aux_/nested</text>
<text text-anchor="middle" x="3228.95" y="-130.5" font-family="Helvetica,sans-Serif" font-size="10.00">_type_wknd.hpp</text>
</g>
<!-- Node4&#45;&gt;Node35 -->
<g id="edge43" class="edge"><title>Node4&#45;&gt;Node35</title>
<path fill="none" stroke="midnightblue" d="M2653.29,-197.097C2751.73,-193.071 2968.69,-181.795 3160.93,-154.015"/>
<polygon fill="midnightblue" stroke="midnightblue" points="3161.54,-157.462 3170.93,-152.551 3160.53,-150.536 3161.54,-157.462"/>
</g>
<!-- Node36 -->
<g id="node36" class="node"><title>Node36</title>
<polygon fill="white" stroke="#bfbfbf" points="3304.95,-129 3304.95,-148 3446.95,-148 3446.95,-129 3304.95,-129"/>
<text text-anchor="middle" x="3375.95" y="-136" font-family="Helvetica,sans-Serif" font-size="10.00">boost/mpl/aux_/na_spec.hpp</text>
</g>
<!-- Node4&#45;&gt;Node36 -->
<g id="edge44" class="edge"><title>Node4&#45;&gt;Node36</title>
<path fill="none" stroke="midnightblue" d="M2652.96,-197.647C2769.6,-194.216 3057.08,-183.272 3295.95,-154 3305.1,-152.878 3314.8,-151.384 3324.16,-149.78"/>
<polygon fill="midnightblue" stroke="midnightblue" points="3324.91,-153.202 3334.15,-148.01 3323.69,-146.309 3324.91,-153.202"/>
</g>
<!-- Node37 -->
<g id="node37" class="node"><title>Node37</title>
<polygon fill="white" stroke="#bfbfbf" points="3464.95,-129 3464.95,-148 3598.95,-148 3598.95,-129 3464.95,-129"/>
<text text-anchor="middle" x="3531.95" y="-136" font-family="Helvetica,sans-Serif" font-size="10.00">boost/mpl/lambda_fwd.hpp</text>
</g>
<!-- Node4&#45;&gt;Node37 -->
<g id="edge45" class="edge"><title>Node4&#45;&gt;Node37</title>
<path fill="none" stroke="midnightblue" d="M2653.26,-198.712C2788.15,-197.437 3153.83,-190.59 3455.95,-154 3464.67,-152.944 3473.89,-151.481 3482.79,-149.889"/>
<polygon fill="midnightblue" stroke="midnightblue" points="3483.47,-153.323 3492.66,-148.05 3482.19,-146.441 3483.47,-153.323"/>
</g>
<!-- Node38 -->
<g id="node38" class="node"><title>Node38</title>
<polygon fill="white" stroke="#bfbfbf" points="3616.95,-129 3616.95,-148 3736.95,-148 3736.95,-129 3616.95,-129"/>
<text text-anchor="middle" x="3676.95" y="-136" font-family="Helvetica,sans-Serif" font-size="10.00">boost/mpl/void_fwd.hpp</text>
</g>
<!-- Node4&#45;&gt;Node38 -->
<g id="edge46" class="edge"><title>Node4&#45;&gt;Node38</title>
<path fill="none" stroke="midnightblue" d="M2653.21,-199.659C2803.78,-200.868 3245.16,-199.907 3607.95,-154 3615.72,-153.017 3623.91,-151.619 3631.84,-150.076"/>
<polygon fill="midnightblue" stroke="midnightblue" points="3632.58,-153.496 3641.68,-148.063 3631.18,-146.638 3632.58,-153.496"/>
</g>
<!-- Node39 -->
<g id="node39" class="node"><title>Node39</title>
<polygon fill="white" stroke="#bfbfbf" points="3754.95,-129 3754.95,-148 3870.95,-148 3870.95,-129 3754.95,-129"/>
<text text-anchor="middle" x="3812.95" y="-136" font-family="Helvetica,sans-Serif" font-size="10.00">boost/mpl/aux_/na.hpp</text>
</g>
<!-- Node4&#45;&gt;Node39 -->
<g id="edge47" class="edge"><title>Node4&#45;&gt;Node39</title>
<path fill="none" stroke="midnightblue" d="M2652.96,-198.143C2848.66,-194.787 3530.27,-181.361 3745.95,-154 3753.5,-153.042 3761.46,-151.657 3769.16,-150.119"/>
<polygon fill="midnightblue" stroke="midnightblue" points="3770,-153.519 3779.06,-148.031 3768.55,-146.669 3770,-153.519"/>
</g>
<!-- Node40 -->
<g id="node40" class="node"><title>Node40</title>
<polygon fill="white" stroke="#bfbfbf" points="3889.45,-129 3889.45,-148 4026.45,-148 4026.45,-129 3889.45,-129"/>
<text text-anchor="middle" x="3957.95" y="-136" font-family="Helvetica,sans-Serif" font-size="10.00">boost/mpl/aux_/na_fwd.hpp</text>
</g>
<!-- Node4&#45;&gt;Node40 -->
<g id="edge48" class="edge"><title>Node4&#45;&gt;Node40</title>
<path fill="none" stroke="midnightblue" d="M2653.26,-198.183C2863.63,-194.797 3636.4,-180.768 3879.95,-154 3889.2,-152.983 3899,-151.493 3908.41,-149.851"/>
<polygon fill="midnightblue" stroke="midnightblue" points="3909.23,-153.26 3918.44,-148.023 3907.97,-146.374 3909.23,-153.26"/>
</g>
<!-- Node41 -->
<g id="node41" class="node"><title>Node41</title>
<polygon fill="white" stroke="#bfbfbf" points="4044.45,-123.5 4044.45,-153.5 4157.45,-153.5 4157.45,-123.5 4044.45,-123.5"/>
<text text-anchor="start" x="4052.45" y="-141.5" font-family="Helvetica,sans-Serif" font-size="10.00">boost/mpl/aux_/config</text>
<text text-anchor="middle" x="4100.95" y="-130.5" font-family="Helvetica,sans-Serif" font-size="10.00">/ctps.hpp</text>
</g>
<!-- Node4&#45;&gt;Node41 -->
<g id="edge49" class="edge"><title>Node4&#45;&gt;Node41</title>
<path fill="none" stroke="midnightblue" d="M2653.14,-198.673C2876.48,-197.096 3740.07,-188.903 4034.12,-154.038"/>
<polygon fill="midnightblue" stroke="midnightblue" points="4034.84,-157.476 4044.34,-152.786 4033.99,-150.528 4034.84,-157.476"/>
</g>
<!-- Node42 -->
<g id="node42" class="node"><title>Node42</title>
<polygon fill="white" stroke="#bfbfbf" points="4175.45,-123.5 4175.45,-153.5 4288.45,-153.5 4288.45,-123.5 4175.45,-123.5"/>
<text text-anchor="start" x="4183.45" y="-141.5" font-family="Helvetica,sans-Serif" font-size="10.00">boost/mpl/aux_/config</text>
<text text-anchor="middle" x="4231.95" y="-130.5" font-family="Helvetica,sans-Serif" font-size="10.00">/lambda.hpp</text>
</g>
<!-- Node4&#45;&gt;Node42 -->
<g id="edge50" class="edge"><title>Node4&#45;&gt;Node42</title>
<path fill="none" stroke="midnightblue" d="M2653.1,-198.835C2889.03,-197.896 3843.65,-191.862 4165.09,-154.039"/>
<polygon fill="midnightblue" stroke="midnightblue" points="4165.83,-157.475 4175.34,-152.795 4164.99,-150.526 4165.83,-157.475"/>
</g>
<!-- Node43 -->
<g id="node43" class="node"><title>Node43</title>
<polygon fill="white" stroke="#bfbfbf" points="4306.45,-123.5 4306.45,-153.5 4419.45,-153.5 4419.45,-123.5 4306.45,-123.5"/>
<text text-anchor="start" x="4314.45" y="-141.5" font-family="Helvetica,sans-Serif" font-size="10.00">boost/mpl/aux_/config</text>
<text text-anchor="middle" x="4362.95" y="-130.5" font-family="Helvetica,sans-Serif" font-size="10.00">/ttp.hpp</text>
</g>
<!-- Node4&#45;&gt;Node43 -->
<g id="edge51" class="edge"><title>Node4&#45;&gt;Node43</title>
<path fill="none" stroke="midnightblue" d="M2653.29,-198.972C2901.73,-198.63 3947.62,-194.821 4296.23,-154.021"/>
<polygon fill="midnightblue" stroke="midnightblue" points="4296.83,-157.474 4306.34,-152.803 4295.99,-150.524 4296.83,-157.474"/>
</g>
<!-- Node44 -->
<g id="node44" class="node"><title>Node44</title>
<polygon fill="white" stroke="#bfbfbf" points="4437.95,-129 4437.95,-148 4529.95,-148 4529.95,-129 4437.95,-129"/>
<text text-anchor="middle" x="4483.95" y="-136" font-family="Helvetica,sans-Serif" font-size="10.00">boost/mpl/int.hpp</text>
</g>
<!-- Node4&#45;&gt;Node44 -->
<g id="edge52" class="edge"><title>Node4&#45;&gt;Node44</title>
<path fill="none" stroke="midnightblue" d="M2652.97,-198.433C2934.64,-195.32 4249.4,-179.519 4428.95,-154 4434.83,-153.163 4441,-151.918 4446.98,-150.502"/>
<polygon fill="midnightblue" stroke="midnightblue" points="4447.96,-153.863 4456.79,-148.002 4446.23,-147.079 4447.96,-153.863"/>
</g>
<!-- Node45 -->
<g id="node45" class="node"><title>Node45</title>
<polygon fill="white" stroke="#bfbfbf" points="4548.45,-129 4548.45,-148 4661.45,-148 4661.45,-129 4548.45,-129"/>
<text text-anchor="middle" x="4604.95" y="-136" font-family="Helvetica,sans-Serif" font-size="10.00">boost/mpl/int_fwd.hpp</text>
</g>
<!-- Node4&#45;&gt;Node45 -->
<g id="edge53" class="edge"><title>Node4&#45;&gt;Node45</title>
<path fill="none" stroke="midnightblue" d="M2653,-199.153C2924.33,-199.725 4158.88,-199.726 4538.95,-154 4546.48,-153.094 4554.42,-151.72 4562.08,-150.173"/>
<polygon fill="midnightblue" stroke="midnightblue" points="4562.88,-153.581 4571.92,-148.065 4561.41,-146.736 4562.88,-153.581"/>
</g>
<!-- Node46 -->
<g id="node46" class="node"><title>Node46</title>
<polygon fill="white" stroke="#bfbfbf" points="4679.95,-123.5 4679.95,-153.5 4797.95,-153.5 4797.95,-123.5 4679.95,-123.5"/>
<text text-anchor="start" x="4687.95" y="-141.5" font-family="Helvetica,sans-Serif" font-size="10.00">boost/mpl/aux_/integral</text>
<text text-anchor="middle" x="4738.95" y="-130.5" font-family="Helvetica,sans-Serif" font-size="10.00">_wrapper.hpp</text>
</g>
<!-- Node4&#45;&gt;Node46 -->
<g id="edge54" class="edge"><title>Node4&#45;&gt;Node46</title>
<path fill="none" stroke="midnightblue" d="M2653.3,-199.202C2933.94,-200.056 4241.95,-201.443 4669.48,-153.982"/>
<polygon fill="midnightblue" stroke="midnightblue" points="4670.18,-157.425 4679.72,-152.816 4669.39,-150.47 4670.18,-157.425"/>
</g>
<!-- Node47 -->
<g id="node47" class="node"><title>Node47</title>
<polygon fill="white" stroke="#bfbfbf" points="4815.95,-123.5 4815.95,-153.5 4925.95,-153.5 4925.95,-123.5 4815.95,-123.5"/>
<text text-anchor="start" x="4823.95" y="-141.5" font-family="Helvetica,sans-Serif" font-size="10.00">boost/mpl/aux_/static</text>
<text text-anchor="middle" x="4870.95" y="-130.5" font-family="Helvetica,sans-Serif" font-size="10.00">_cast.hpp</text>
</g>
<!-- Node4&#45;&gt;Node47 -->
<g id="edge55" class="edge"><title>Node4&#45;&gt;Node47</title>
<path fill="none" stroke="midnightblue" d="M2652.95,-198.562C2963.62,-195.912 4543.28,-181.247 4805.76,-153.858"/>
<polygon fill="midnightblue" stroke="midnightblue" points="4806.37,-157.312 4815.91,-152.712 4805.58,-150.356 4806.37,-157.312"/>
</g>
<!-- Node48 -->
<g id="node48" class="node"><title>Node48</title>
<polygon fill="white" stroke="#bfbfbf" points="4943.95,-123.5 4943.95,-153.5 5061.95,-153.5 5061.95,-123.5 4943.95,-123.5"/>
<text text-anchor="start" x="4951.95" y="-141.5" font-family="Helvetica,sans-Serif" font-size="10.00">boost/mpl/aux_/lambda</text>
<text text-anchor="middle" x="5002.95" y="-130.5" font-family="Helvetica,sans-Serif" font-size="10.00">_arity_param.hpp</text>
</g>
<!-- Node4&#45;&gt;Node48 -->
<g id="edge58" class="edge"><title>Node4&#45;&gt;Node48</title>
<path fill="none" stroke="midnightblue" d="M2653.08,-198.584C2974.72,-195.989 4656.52,-181.262 4933.38,-153.927"/>
<polygon fill="midnightblue" stroke="midnightblue" points="4934.15,-157.365 4943.72,-152.825 4933.4,-150.405 4934.15,-157.365"/>
</g>
<!-- Node49 -->
<g id="node49" class="node"><title>Node49</title>
<polygon fill="white" stroke="#bfbfbf" points="5079.95,-123.5 5079.95,-153.5 5203.95,-153.5 5203.95,-123.5 5079.95,-123.5"/>
<text text-anchor="start" x="5087.95" y="-141.5" font-family="Helvetica,sans-Serif" font-size="10.00">boost/mpl/aux_/template</text>
<text text-anchor="middle" x="5141.95" y="-130.5" font-family="Helvetica,sans-Serif" font-size="10.00">_arity_fwd.hpp</text>
</g>
<!-- Node4&#45;&gt;Node49 -->
<g id="edge59" class="edge"><title>Node4&#45;&gt;Node49</title>
<path fill="none" stroke="midnightblue" d="M2653.14,-198.617C2986.12,-196.143 4778.73,-181.674 5069.62,-153.917"/>
<polygon fill="midnightblue" stroke="midnightblue" points="5070.12,-157.384 5079.71,-152.882 5069.41,-150.421 5070.12,-157.384"/>
</g>
<!-- Node50 -->
<g id="node50" class="node"><title>Node50</title>
<polygon fill="white" stroke="#bfbfbf" points="5221.95,-129 5221.95,-148 5345.95,-148 5345.95,-129 5221.95,-129"/>
<text text-anchor="middle" x="5283.95" y="-136" font-family="Helvetica,sans-Serif" font-size="10.00">boost/mpl/aux_/arity.hpp</text>
</g>
<!-- Node4&#45;&gt;Node50 -->
<g id="edge60" class="edge"><title>Node4&#45;&gt;Node50</title>
<path fill="none" stroke="midnightblue" d="M2653.07,-198.674C3001.17,-196.459 4950.24,-182.839 5212.95,-154 5221.4,-153.072 5230.33,-151.625 5238.91,-149.996"/>
<polygon fill="midnightblue" stroke="midnightblue" points="5239.64,-153.418 5248.76,-148.02 5238.26,-146.555 5239.64,-153.418"/>
</g>
<!-- Node11&#45;&gt;Node2 -->
<g id="edge13" class="edge"><title>Node11&#45;&gt;Node2</title>
<path fill="none" stroke="midnightblue" d="M722.352,-129.91C663.954,-120.882 565.136,-104.778 480.947,-87 475.873,-85.9284 470.57,-84.7227 465.32,-83.4761"/>
<polygon fill="midnightblue" stroke="midnightblue" points="465.91,-80.0175 455.366,-81.0528 464.254,-86.8189 465.91,-80.0175"/>
</g>
<!-- Node11&#45;&gt;Node3 -->
<g id="edge18" class="edge"><title>Node11&#45;&gt;Node3</title>
<path fill="none" stroke="midnightblue" d="M787.34,-128.929C800.893,-120.108 820.741,-105.117 831.947,-87 842.77,-69.5016 847.437,-46.1441 849.444,-29.963"/>
<polygon fill="midnightblue" stroke="midnightblue" points="852.964,-29.936 850.485,-19.6353 845.999,-29.2338 852.964,-29.936"/>
</g>
<!-- Node11&#45;&gt;Node9 -->
<g id="edge19" class="edge"><title>Node11&#45;&gt;Node9</title>
<path fill="none" stroke="midnightblue" d="M821.906,-128.993C837.529,-126.618 854.921,-124.326 870.947,-123 1307.53,-86.8658 2403.98,-96.8149 2841.95,-87 3035.36,-82.6654 3267.28,-76.0301 3353.48,-73.5144"/>
<polygon fill="midnightblue" stroke="midnightblue" points="3353.84,-77.0057 3363.73,-73.2147 3353.63,-70.0087 3353.84,-77.0057"/>
</g>
<!-- Node11&#45;&gt;Node12 -->
<g id="edge14" class="edge"><title>Node11&#45;&gt;Node12</title>
<path fill="none" stroke="midnightblue" d="M742.007,-128.869C700.373,-117.254 626.249,-96.5757 580.284,-83.7528"/>
<polygon fill="midnightblue" stroke="midnightblue" points="581.218,-80.3796 570.645,-81.0637 579.336,-87.1221 581.218,-80.3796"/>
</g>
<!-- Node11&#45;&gt;Node13 -->
<g id="edge15" class="edge"><title>Node11&#45;&gt;Node13</title>
<path fill="none" stroke="midnightblue" d="M757.168,-128.734C737.432,-117.769 703.433,-98.8809 680.336,-86.0495"/>
<polygon fill="midnightblue" stroke="midnightblue" points="681.918,-82.9242 671.476,-81.1273 678.518,-89.0433 681.918,-82.9242"/>
</g>
<!-- Node11&#45;&gt;Node14 -->
<g id="edge16" class="edge"><title>Node11&#45;&gt;Node14</title>
<path fill="none" stroke="midnightblue" d="M772.947,-128.734C772.947,-120.541 772.947,-107.923 772.947,-96.7136"/>
<polygon fill="midnightblue" stroke="midnightblue" points="776.447,-96.589 772.947,-86.589 769.447,-96.5891 776.447,-96.589"/>
</g>
<!-- Node11&#45;&gt;Node15 -->
<g id="edge17" class="edge"><title>Node11&#45;&gt;Node15</title>
<path fill="none" stroke="midnightblue" d="M796.319,-128.869C827.042,-117.522 881.188,-97.5246 916.043,-84.6522"/>
<polygon fill="midnightblue" stroke="midnightblue" points="917.591,-87.8114 925.76,-81.0637 915.166,-81.2449 917.591,-87.8114"/>
</g>
<!-- Node11&#45;&gt;Node16 -->
<g id="edge20" class="edge"><title>Node11&#45;&gt;Node16</title>
<path fill="none" stroke="midnightblue" d="M823.46,-129.241C838.69,-126.964 855.471,-124.664 870.947,-123 1113.2,-96.9534 1401.06,-82.0178 1538.73,-75.8554"/>
<polygon fill="midnightblue" stroke="midnightblue" points="1538.95,-79.3494 1548.79,-75.4092 1538.64,-72.3563 1538.95,-79.3494"/>
</g>
<!-- Node11&#45;&gt;Node17 -->
<g id="edge21" class="edge"><title>Node11&#45;&gt;Node17</title>
<path fill="none" stroke="midnightblue" d="M822.414,-128.996C837.907,-126.652 855.098,-124.377 870.947,-123 1243.47,-90.6398 2440.36,-76.1323 2722.82,-73.1113"/>
<polygon fill="midnightblue" stroke="midnightblue" points="2722.9,-76.6106 2732.87,-73.0045 2722.83,-69.611 2722.9,-76.6106"/>
</g>
</g>
</svg>
