<?xml version="1.0" encoding="UTF-8" standalone="no"?>
<!DOCTYPE svg PUBLIC "-//W3C//DTD SVG 1.1//EN"
 "http://www.w3.org/Graphics/SVG/1.1/DTD/svg11.dtd">
<!-- Generated by graphviz version 2.43.0 (0)
 -->
<!-- Title: boost/ui/dialog.hpp Pages: 1 -->
<svg width="5890pt" height="274pt"
 viewBox="0.00 0.00 5890.04 274.00" xmlns="http://www.w3.org/2000/svg" xmlns:xlink="http://www.w3.org/1999/xlink">
<g id="graph0" class="graph" transform="scale(1 1) rotate(0) translate(4 270)">
<title>boost/ui/dialog.hpp</title>
<polygon fill="white" stroke="transparent" points="-4,4 -4,-270 5886.04,-270 5886.04,4 -4,4"/>
<!-- Node1 -->
<g id="node1" class="node">
<title>Node1</title>
<g id="a_node1"><a xlink:title="Dialog widget.">
<polygon fill="#bfbfbf" stroke="black" points="1347.97,-246.5 1347.97,-265.5 1457.97,-265.5 1457.97,-246.5 1347.97,-246.5"/>
<text text-anchor="middle" x="1402.97" y="-253.5" font-family="Helvetica,sans-Serif" font-size="10.00">boost/ui/dialog.hpp</text>
</a>
</g>
</g>
<!-- Node2 -->
<g id="node2" class="node">
<title>Node2</title>
<g id="a_node2"><a xlink:href="config_8hpp.html" target="_top" xlink:title="Configuration options.">
<polygon fill="white" stroke="black" points="398.47,-62 398.47,-81 507.47,-81 507.47,-62 398.47,-62"/>
<text text-anchor="middle" x="452.97" y="-69" font-family="Helvetica,sans-Serif" font-size="10.00">boost/ui/config.hpp</text>
</a>
</g>
</g>
<!-- Node1&#45;&gt;Node2 -->
<g id="edge1" class="edge">
<title>Node1&#45;&gt;Node2</title>
<path fill="none" stroke="midnightblue" d="M1347.75,-255.33C1100.07,-256.24 99.71,-253.69 6.97,-154 -2.41,-143.91 -2.2,-133.28 6.97,-123 31.88,-95.11 270.2,-80.65 387.88,-75.16"/>
<polygon fill="midnightblue" stroke="midnightblue" points="388.37,-78.65 398.19,-74.69 388.04,-71.65 388.37,-78.65"/>
</g>
<!-- Node4 -->
<g id="node4" class="node">
<title>Node4</title>
<g id="a_node4"><a xlink:href="window_8hpp.html" target="_top" xlink:title="Window class.">
<polygon fill="white" stroke="red" points="2760.97,-190.5 2760.97,-209.5 2876.97,-209.5 2876.97,-190.5 2760.97,-190.5"/>
<text text-anchor="middle" x="2818.97" y="-197.5" font-family="Helvetica,sans-Serif" font-size="10.00">boost/ui/window.hpp</text>
</a>
</g>
</g>
<!-- Node1&#45;&gt;Node4 -->
<g id="edge3" class="edge">
<title>Node1&#45;&gt;Node4</title>
<path fill="none" stroke="midnightblue" d="M1458.05,-252.9C1679.68,-244.45 2506.18,-212.93 2750.53,-203.61"/>
<polygon fill="midnightblue" stroke="midnightblue" points="2750.83,-207.1 2760.69,-203.22 2750.56,-200.11 2750.83,-207.1"/>
</g>
<!-- Node3 -->
<g id="node3" class="node">
<title>Node3</title>
<g id="a_node3"><a xlink:title=" ">
<polygon fill="white" stroke="#bfbfbf" points="867.47,-0.5 867.47,-19.5 964.47,-19.5 964.47,-0.5 867.47,-0.5"/>
<text text-anchor="middle" x="915.97" y="-7.5" font-family="Helvetica,sans-Serif" font-size="10.00">boost/config.hpp</text>
</a>
</g>
</g>
<!-- Node2&#45;&gt;Node3 -->
<g id="edge2" class="edge">
<title>Node2&#45;&gt;Node3</title>
<path fill="none" stroke="midnightblue" d="M486.83,-61.96C496.23,-59.79 506.46,-57.62 515.97,-56 636.45,-35.43 779.01,-21.96 857.25,-15.49"/>
<polygon fill="midnightblue" stroke="midnightblue" points="857.71,-18.97 867.39,-14.66 857.14,-11.99 857.71,-18.97"/>
</g>
<!-- Node4&#45;&gt;Node2 -->
<g id="edge4" class="edge">
<title>Node4&#45;&gt;Node2</title>
<path fill="none" stroke="midnightblue" d="M2760.89,-198.84C2425.82,-197.81 751.02,-190.81 648.97,-154 628.15,-146.49 629.5,-133.45 609.97,-123 576.03,-104.84 534.44,-91.82 502.59,-83.56"/>
<polygon fill="midnightblue" stroke="midnightblue" points="503.17,-80.09 492.62,-81.04 501.46,-86.88 503.17,-80.09"/>
</g>
<!-- Node4&#45;&gt;Node3 -->
<g id="edge5" class="edge">
<title>Node4&#45;&gt;Node3</title>
<path fill="none" stroke="midnightblue" d="M2877.07,-198.7C3296.65,-196.47 5847.63,-181.75 5874.97,-154 5884.64,-144.19 5884.04,-133.38 5874.97,-123 5729.21,43.87 5601.96,-72.04 5380.97,-56 4921.67,-22.67 1468.2,-12.44 974.63,-11.15"/>
<polygon fill="midnightblue" stroke="midnightblue" points="974.53,-7.65 964.52,-11.12 974.51,-14.65 974.53,-7.65"/>
</g>
<!-- Node5 -->
<g id="node5" class="node">
<title>Node5</title>
<g id="a_node5"><a xlink:title=" ">
<polygon fill="white" stroke="#bfbfbf" points="15.97,-129 15.97,-148 135.97,-148 135.97,-129 15.97,-129"/>
<text text-anchor="middle" x="75.97" y="-136" font-family="Helvetica,sans-Serif" font-size="10.00">boost/config/user.hpp</text>
</a>
</g>
</g>
<!-- Node4&#45;&gt;Node5 -->
<g id="edge6" class="edge">
<title>Node4&#45;&gt;Node5</title>
<path fill="none" stroke="midnightblue" d="M2760.82,-198.69C2394.48,-196.62 412.8,-184.12 144.97,-154 136.84,-153.09 128.26,-151.66 120.01,-150.05"/>
<polygon fill="midnightblue" stroke="midnightblue" points="120.66,-146.62 110.16,-148.03 119.25,-153.47 120.66,-146.62"/>
</g>
<!-- Node6 -->
<g id="node6" class="node">
<title>Node6</title>
<g id="a_node6"><a xlink:title=" ">
<polygon fill="white" stroke="#bfbfbf" points="153.97,-123.5 153.97,-153.5 305.97,-153.5 305.97,-123.5 153.97,-123.5"/>
<text text-anchor="start" x="161.97" y="-141.5" font-family="Helvetica,sans-Serif" font-size="10.00">boost/config/detail</text>
<text text-anchor="middle" x="229.97" y="-130.5" font-family="Helvetica,sans-Serif" font-size="10.00">/select_compiler_config.hpp</text>
</a>
</g>
</g>
<!-- Node4&#45;&gt;Node6 -->
<g id="edge7" class="edge">
<title>Node4&#45;&gt;Node6</title>
<path fill="none" stroke="midnightblue" d="M2760.81,-199.15C2435.05,-199.8 833.44,-200.59 316.5,-154.02"/>
<polygon fill="midnightblue" stroke="midnightblue" points="316.64,-150.52 306.36,-153.09 315.99,-157.49 316.64,-150.52"/>
</g>
<!-- Node7 -->
<g id="node7" class="node">
<title>Node7</title>
<g id="a_node7"><a xlink:title=" ">
<polygon fill="white" stroke="#bfbfbf" points="323.97,-123.5 323.97,-153.5 475.97,-153.5 475.97,-123.5 323.97,-123.5"/>
<text text-anchor="start" x="331.97" y="-141.5" font-family="Helvetica,sans-Serif" font-size="10.00">boost/config/detail</text>
<text text-anchor="middle" x="399.97" y="-130.5" font-family="Helvetica,sans-Serif" font-size="10.00">/select_platform_config.hpp</text>
</a>
</g>
</g>
<!-- Node4&#45;&gt;Node7 -->
<g id="edge8" class="edge">
<title>Node4&#45;&gt;Node7</title>
<path fill="none" stroke="midnightblue" d="M2760.95,-199.06C2449,-199.2 967.65,-197.59 486.5,-154.02"/>
<polygon fill="midnightblue" stroke="midnightblue" points="486.64,-150.52 476.36,-153.08 485.99,-157.49 486.64,-150.52"/>
</g>
<!-- Node8 -->
<g id="node8" class="node">
<title>Node8</title>
<g id="a_node8"><a xlink:title=" ">
<polygon fill="white" stroke="#bfbfbf" points="494.47,-123.5 494.47,-153.5 601.47,-153.5 601.47,-123.5 494.47,-123.5"/>
<text text-anchor="start" x="502.47" y="-141.5" font-family="Helvetica,sans-Serif" font-size="10.00">boost/config/detail</text>
<text text-anchor="middle" x="547.97" y="-130.5" font-family="Helvetica,sans-Serif" font-size="10.00">/suffix.hpp</text>
</a>
</g>
</g>
<!-- Node4&#45;&gt;Node8 -->
<g id="edge9" class="edge">
<title>Node4&#45;&gt;Node8</title>
<path fill="none" stroke="midnightblue" d="M2760.72,-199.3C2456.64,-200.67 1048.94,-204.12 615.97,-154 614.51,-153.83 613.04,-153.64 611.55,-153.44"/>
<polygon fill="midnightblue" stroke="midnightblue" points="612.05,-149.98 601.64,-151.93 610.99,-156.9 612.05,-149.98"/>
</g>
<!-- Node9 -->
<g id="node9" class="node">
<title>Node9</title>
<g id="a_node9"><a xlink:title=" ">
<polygon fill="white" stroke="#bfbfbf" points="5318.47,-62 5318.47,-81 5371.47,-81 5371.47,-62 5318.47,-62"/>
<text text-anchor="middle" x="5344.97" y="-69" font-family="Helvetica,sans-Serif" font-size="10.00">limits.h</text>
</a>
</g>
</g>
<!-- Node4&#45;&gt;Node9 -->
<g id="edge10" class="edge">
<title>Node4&#45;&gt;Node9</title>
<path fill="none" stroke="midnightblue" d="M2877.09,-198.69C3295.35,-196.43 5830.79,-181.59 5857.97,-154 5867.64,-144.19 5867.23,-133.21 5857.97,-123 5826.06,-87.79 5493.97,-76.24 5381.77,-73.33"/>
<polygon fill="midnightblue" stroke="midnightblue" points="5381.7,-69.83 5371.62,-73.08 5381.53,-76.83 5381.7,-69.83"/>
</g>
<!-- Node10 -->
<g id="node10" class="node">
<title>Node10</title>
<g id="a_node10"><a xlink:title=" ">
<polygon fill="white" stroke="#bfbfbf" points="941.97,-123.5 941.97,-153.5 1051.97,-153.5 1051.97,-123.5 941.97,-123.5"/>
<text text-anchor="start" x="949.97" y="-141.5" font-family="Helvetica,sans-Serif" font-size="10.00">boost/config/helper</text>
<text text-anchor="middle" x="996.97" y="-130.5" font-family="Helvetica,sans-Serif" font-size="10.00">_macros.hpp</text>
</a>
</g>
</g>
<!-- Node4&#45;&gt;Node10 -->
<g id="edge11" class="edge">
<title>Node4&#45;&gt;Node10</title>
<path fill="none" stroke="midnightblue" d="M2760.68,-199.05C2497.95,-199.05 1421.62,-196.48 1062.18,-153.93"/>
<polygon fill="midnightblue" stroke="midnightblue" points="1062.36,-150.43 1052.01,-152.69 1061.51,-157.38 1062.36,-150.43"/>
</g>
<!-- Node11 -->
<g id="node11" class="node">
<title>Node11</title>
<g id="a_node11"><a xlink:href="widget_8hpp.html" target="_top" xlink:title="Widget class.">
<polygon fill="white" stroke="red" points="772.47,-129 772.47,-148 885.47,-148 885.47,-129 772.47,-129"/>
<text text-anchor="middle" x="828.97" y="-136" font-family="Helvetica,sans-Serif" font-size="10.00">boost/ui/widget.hpp</text>
</a>
</g>
</g>
<!-- Node4&#45;&gt;Node11 -->
<g id="edge12" class="edge">
<title>Node4&#45;&gt;Node11</title>
<path fill="none" stroke="midnightblue" d="M2760.58,-199.03C2480.59,-198.97 1273.76,-196.21 899.97,-154 891.71,-153.07 882.98,-151.65 874.57,-150.06"/>
<polygon fill="midnightblue" stroke="midnightblue" points="875.02,-146.58 864.53,-148.05 873.65,-153.44 875.02,-146.58"/>
</g>
<!-- Node252 -->
<g id="node12" class="node">
<title>Node252</title>
<g id="a_node12"><a xlink:title=" ">
<polygon fill="white" stroke="#bfbfbf" points="525.47,-62 525.47,-81 634.47,-81 634.47,-62 525.47,-62"/>
<text text-anchor="middle" x="579.97" y="-69" font-family="Helvetica,sans-Serif" font-size="10.00">boost/ui/config.hpp</text>
</a>
</g>
</g>
<!-- Node4&#45;&gt;Node252 -->
<g id="edge22" class="edge">
<title>Node4&#45;&gt;Node252</title>
<path fill="none" stroke="midnightblue" d="M2760.8,-198.56C2432.51,-196 822.76,-182.03 721.97,-154 673.71,-140.58 624.61,-107.02 598.69,-87.4"/>
<polygon fill="midnightblue" stroke="midnightblue" points="600.58,-84.44 590.53,-81.1 596.3,-89.98 600.58,-84.44"/>
</g>
<!-- Node255 -->
<g id="node13" class="node">
<title>Node255</title>
<g id="a_node13"><a xlink:title=" ">
<polygon fill="white" stroke="#bfbfbf" points="652.47,-62 652.47,-81 759.47,-81 759.47,-62 652.47,-62"/>
<text text-anchor="middle" x="705.97" y="-69" font-family="Helvetica,sans-Serif" font-size="10.00">boost/ui/coord.hpp</text>
</a>
</g>
</g>
<!-- Node4&#45;&gt;Node255 -->
<g id="edge23" class="edge">
<title>Node4&#45;&gt;Node255</title>
<path fill="none" stroke="midnightblue" d="M2760.74,-198.52C2429.64,-195.66 797.35,-180.28 752.97,-154 729.84,-140.3 717.02,-110.52 710.82,-91.01"/>
<polygon fill="midnightblue" stroke="midnightblue" points="714.11,-89.78 707.97,-81.14 707.39,-91.72 714.11,-89.78"/>
</g>
<!-- Node93 -->
<g id="node14" class="node">
<title>Node93</title>
<g id="a_node14"><a xlink:title=" ">
<polygon fill="white" stroke="#bfbfbf" points="777.97,-56.5 777.97,-86.5 887.97,-86.5 887.97,-56.5 777.97,-56.5"/>
<text text-anchor="start" x="785.97" y="-74.5" font-family="Helvetica,sans-Serif" font-size="10.00">boost/preprocessor</text>
<text text-anchor="middle" x="832.97" y="-63.5" font-family="Helvetica,sans-Serif" font-size="10.00">/cat.hpp</text>
</a>
</g>
</g>
<!-- Node4&#45;&gt;Node93 -->
<g id="edge56" class="edge">
<title>Node4&#45;&gt;Node93</title>
<path fill="none" stroke="midnightblue" d="M2760.77,-198.84C2429.85,-197.78 798.87,-190.69 762.97,-154 743.17,-133.76 771.48,-108.86 797.8,-91.94"/>
<polygon fill="midnightblue" stroke="midnightblue" points="799.9,-94.76 806.58,-86.53 796.23,-88.8 799.9,-94.76"/>
</g>
<!-- Node264 -->
<g id="node15" class="node">
<title>Node264</title>
<g id="a_node15"><a xlink:title=" ">
<polygon fill="white" stroke="#bfbfbf" points="944.47,-62 944.47,-81 1101.47,-81 1101.47,-62 944.47,-62"/>
<text text-anchor="middle" x="1022.97" y="-69" font-family="Helvetica,sans-Serif" font-size="10.00">boost/config/workaround.hpp</text>
</a>
</g>
</g>
<!-- Node4&#45;&gt;Node264 -->
<g id="edge38" class="edge">
<title>Node4&#45;&gt;Node264</title>
<path fill="none" stroke="midnightblue" d="M2760.78,-198.72C2446.6,-197.07 965.7,-187.51 932.97,-154 907.87,-128.29 956.11,-100.68 991.14,-85.1"/>
<polygon fill="midnightblue" stroke="midnightblue" points="992.8,-88.2 1000.6,-81.04 990.03,-81.77 992.8,-88.2"/>
</g>
<!-- Node56 -->
<g id="node16" class="node">
<title>Node56</title>
<g id="a_node16"><a xlink:title=" ">
<polygon fill="white" stroke="#bfbfbf" points="1676.47,-62 1676.47,-81 1831.47,-81 1831.47,-62 1676.47,-62"/>
<text text-anchor="middle" x="1753.97" y="-69" font-family="Helvetica,sans-Serif" font-size="10.00">boost/detail/workaround.hpp</text>
</a>
</g>
</g>
<!-- Node4&#45;&gt;Node56 -->
<g id="edge37" class="edge">
<title>Node4&#45;&gt;Node56</title>
<path fill="none" stroke="midnightblue" d="M2877.1,-198.68C3292.69,-196.37 5797.11,-181.27 5823.97,-154 5833.64,-144.18 5833.66,-132.8 5823.97,-123 5805.85,-104.65 2433.02,-77.75 1841.88,-73.17"/>
<polygon fill="midnightblue" stroke="midnightblue" points="1841.75,-69.67 1831.72,-73.09 1841.7,-76.67 1841.75,-69.67"/>
</g>
<!-- Node120 -->
<g id="node17" class="node">
<title>Node120</title>
<g id="a_node17"><a xlink:title=" ">
<polygon fill="white" stroke="#bfbfbf" points="4076.97,-56.5 4076.97,-86.5 4186.97,-86.5 4186.97,-56.5 4076.97,-56.5"/>
<text text-anchor="start" x="4084.97" y="-74.5" font-family="Helvetica,sans-Serif" font-size="10.00">boost/preprocessor</text>
<text text-anchor="middle" x="4131.97" y="-63.5" font-family="Helvetica,sans-Serif" font-size="10.00">/config/config.hpp</text>
</a>
</g>
</g>
<!-- Node4&#45;&gt;Node120 -->
<g id="edge57" class="edge">
<title>Node4&#45;&gt;Node120</title>
<path fill="none" stroke="midnightblue" d="M2877.09,-198.69C3294.02,-196.4 5813.95,-181.43 5840.97,-154 5850.64,-144.19 5850.57,-132.89 5840.97,-123 5811.82,-92.98 4507.26,-76.66 4197.47,-73.2"/>
<polygon fill="midnightblue" stroke="midnightblue" points="4197.34,-69.7 4187.3,-73.09 4197.26,-76.7 4197.34,-69.7"/>
</g>
<!-- Node13 -->
<g id="node18" class="node">
<title>Node13</title>
<g id="a_node18"><a xlink:title=" ">
<polygon fill="white" stroke="#bfbfbf" points="1070.47,-129 1070.47,-148 1183.47,-148 1183.47,-129 1070.47,-129"/>
<text text-anchor="middle" x="1126.97" y="-136" font-family="Helvetica,sans-Serif" font-size="10.00">boost/geometry.hpp</text>
</a>
</g>
</g>
<!-- Node4&#45;&gt;Node13 -->
<g id="edge24" class="edge">
<title>Node4&#45;&gt;Node13</title>
<path fill="none" stroke="midnightblue" d="M2760.89,-198.86C2508.49,-198.03 1505.69,-192.33 1192.97,-154 1185.44,-153.08 1177.51,-151.7 1169.85,-150.15"/>
<polygon fill="midnightblue" stroke="midnightblue" points="1170.51,-146.71 1160,-148.04 1169.05,-153.55 1170.51,-146.71"/>
</g>
<!-- Node349 -->
<g id="node19" class="node">
<title>Node349</title>
<g id="a_node19"><a xlink:title=" ">
<polygon fill="white" stroke="#bfbfbf" points="1201.97,-129 1201.97,-148 1365.97,-148 1365.97,-129 1201.97,-129"/>
<text text-anchor="middle" x="1283.97" y="-136" font-family="Helvetica,sans-Serif" font-size="10.00">boost/geometry/geometry.hpp</text>
</a>
</g>
</g>
<!-- Node4&#45;&gt;Node349 -->
<g id="edge25" class="edge">
<title>Node4&#45;&gt;Node349</title>
<path fill="none" stroke="midnightblue" d="M2760.85,-198.17C2526.57,-194.69 1650.89,-180.17 1374.97,-154 1363.64,-152.92 1351.58,-151.33 1340.07,-149.58"/>
<polygon fill="midnightblue" stroke="midnightblue" points="1340.55,-146.11 1330.12,-148.02 1339.46,-153.03 1340.55,-146.11"/>
</g>
<!-- Node159 -->
<g id="node20" class="node">
<title>Node159</title>
<g id="a_node20"><a xlink:title=" ">
<polygon fill="white" stroke="#bfbfbf" points="1383.97,-123.5 1383.97,-153.5 1501.97,-153.5 1501.97,-123.5 1383.97,-123.5"/>
<text text-anchor="start" x="1391.97" y="-141.5" font-family="Helvetica,sans-Serif" font-size="10.00">boost/geometry/core</text>
<text text-anchor="middle" x="1442.97" y="-130.5" font-family="Helvetica,sans-Serif" font-size="10.00">/closure.hpp</text>
</a>
</g>
</g>
<!-- Node4&#45;&gt;Node159 -->
<g id="edge26" class="edge">
<title>Node4&#45;&gt;Node159</title>
<path fill="none" stroke="midnightblue" d="M2760.76,-198.36C2543.28,-195.75 1777.84,-184.64 1512.2,-153.96"/>
<polygon fill="midnightblue" stroke="midnightblue" points="1512.55,-150.48 1502.21,-152.77 1511.72,-157.43 1512.55,-150.48"/>
</g>
<!-- Node19 -->
<g id="node21" class="node">
<title>Node19</title>
<g id="a_node21"><a xlink:title=" ">
<polygon fill="white" stroke="#bfbfbf" points="1520.47,-129 1520.47,-148 1639.47,-148 1639.47,-129 1520.47,-129"/>
<text text-anchor="middle" x="1579.97" y="-136" font-family="Helvetica,sans-Serif" font-size="10.00">boost/mpl/assert.hpp</text>
</a>
</g>
</g>
<!-- Node4&#45;&gt;Node19 -->
<g id="edge27" class="edge">
<title>Node4&#45;&gt;Node19</title>
<path fill="none" stroke="midnightblue" d="M2760.97,-198.09C2556.1,-194.67 1867.01,-181.36 1647.97,-154 1640.31,-153.04 1632.23,-151.66 1624.42,-150.12"/>
<polygon fill="midnightblue" stroke="midnightblue" points="1624.87,-146.64 1614.37,-148.03 1623.45,-153.49 1624.87,-146.64"/>
</g>
<!-- Node350 -->
<g id="node22" class="node">
<title>Node350</title>
<g id="a_node22"><a xlink:title=" ">
<polygon fill="white" stroke="#bfbfbf" points="1657.47,-129 1657.47,-148 1762.47,-148 1762.47,-129 1657.47,-129"/>
<text text-anchor="middle" x="1709.97" y="-136" font-family="Helvetica,sans-Serif" font-size="10.00">boost/mpl/not.hpp</text>
</a>
</g>
</g>
<!-- Node4&#45;&gt;Node350 -->
<g id="edge28" class="edge">
<title>Node4&#45;&gt;Node350</title>
<path fill="none" stroke="midnightblue" d="M2760.92,-197.93C2570.41,-194.21 1965.4,-180.54 1771.97,-154 1765.2,-153.07 1758.09,-151.75 1751.19,-150.27"/>
<polygon fill="midnightblue" stroke="midnightblue" points="1751.83,-146.82 1741.3,-148.03 1750.28,-153.65 1751.83,-146.82"/>
</g>
<!-- Node197 -->
<g id="node23" class="node">
<title>Node197</title>
<g id="a_node23"><a xlink:title=" ">
<polygon fill="white" stroke="#bfbfbf" points="1780.97,-129 1780.97,-148 1890.97,-148 1890.97,-129 1780.97,-129"/>
<text text-anchor="middle" x="1835.97" y="-136" font-family="Helvetica,sans-Serif" font-size="10.00">boost/mpl/bool.hpp</text>
</a>
</g>
</g>
<!-- Node4&#45;&gt;Node197 -->
<g id="edge29" class="edge">
<title>Node4&#45;&gt;Node197</title>
<path fill="none" stroke="midnightblue" d="M2760.86,-199.65C2615.19,-200.51 2223.04,-198.16 1899.97,-154 1893.07,-153.06 1885.82,-151.74 1878.77,-150.27"/>
<polygon fill="midnightblue" stroke="midnightblue" points="1879.18,-146.78 1868.66,-148.06 1877.68,-153.62 1879.18,-146.78"/>
</g>
<!-- Node351 -->
<g id="node24" class="node">
<title>Node351</title>
<g id="a_node24"><a xlink:title=" ">
<polygon fill="white" stroke="#bfbfbf" points="1909.47,-129 1909.47,-148 2042.47,-148 2042.47,-129 1909.47,-129"/>
<text text-anchor="middle" x="1975.97" y="-136" font-family="Helvetica,sans-Serif" font-size="10.00">boost/mpl/bool_fwd.hpp</text>
</a>
</g>
</g>
<!-- Node4&#45;&gt;Node351 -->
<g id="edge30" class="edge">
<title>Node4&#45;&gt;Node351</title>
<path fill="none" stroke="midnightblue" d="M2760.53,-198.16C2631.95,-195.74 2315.06,-186.67 2051.97,-154 2043.26,-152.92 2034.03,-151.44 2025.13,-149.84"/>
<polygon fill="midnightblue" stroke="midnightblue" points="2025.74,-146.4 2015.27,-148 2024.45,-153.28 2025.74,-146.4"/>
</g>
<!-- Node352 -->
<g id="node25" class="node">
<title>Node352</title>
<g id="a_node25"><a xlink:title=" ">
<polygon fill="white" stroke="#bfbfbf" points="2060.97,-123.5 2060.97,-153.5 2170.97,-153.5 2170.97,-123.5 2060.97,-123.5"/>
<text text-anchor="start" x="2068.97" y="-141.5" font-family="Helvetica,sans-Serif" font-size="10.00">boost/mpl/aux_/adl</text>
<text text-anchor="middle" x="2115.97" y="-130.5" font-family="Helvetica,sans-Serif" font-size="10.00">_barrier.hpp</text>
</a>
</g>
</g>
<!-- Node4&#45;&gt;Node352 -->
<g id="edge31" class="edge">
<title>Node4&#45;&gt;Node352</title>
<path fill="none" stroke="midnightblue" d="M2760.94,-197.87C2650.04,-195.07 2400.3,-185.67 2181.12,-154.01"/>
<polygon fill="midnightblue" stroke="midnightblue" points="2181.43,-150.52 2171.03,-152.53 2180.42,-157.45 2181.43,-150.52"/>
</g>
<!-- Node353 -->
<g id="node26" class="node">
<title>Node353</title>
<g id="a_node26"><a xlink:title=" ">
<polygon fill="white" stroke="#bfbfbf" points="2188.97,-123.5 2188.97,-153.5 2312.97,-153.5 2312.97,-123.5 2188.97,-123.5"/>
<text text-anchor="start" x="2196.97" y="-141.5" font-family="Helvetica,sans-Serif" font-size="10.00">boost/mpl/aux_/config</text>
<text text-anchor="middle" x="2250.97" y="-130.5" font-family="Helvetica,sans-Serif" font-size="10.00">/adl.hpp</text>
</a>
</g>
</g>
<!-- Node4&#45;&gt;Node353 -->
<g id="edge32" class="edge">
<title>Node4&#45;&gt;Node353</title>
<path fill="none" stroke="midnightblue" d="M2760.95,-195.84C2669.86,-190.43 2487.58,-177.74 2323.52,-154.12"/>
<polygon fill="midnightblue" stroke="midnightblue" points="2323.64,-150.6 2313.24,-152.62 2322.63,-157.53 2323.64,-150.6"/>
</g>
<!-- Node354 -->
<g id="node27" class="node">
<title>Node354</title>
<g id="a_node27"><a xlink:title=" ">
<polygon fill="white" stroke="#bfbfbf" points="2330.97,-123.5 2330.97,-153.5 2454.97,-153.5 2454.97,-123.5 2330.97,-123.5"/>
<text text-anchor="start" x="2338.97" y="-141.5" font-family="Helvetica,sans-Serif" font-size="10.00">boost/mpl/aux_/config</text>
<text text-anchor="middle" x="2392.97" y="-130.5" font-family="Helvetica,sans-Serif" font-size="10.00">/msvc.hpp</text>
</a>
</g>
</g>
<!-- Node4&#45;&gt;Node354 -->
<g id="edge33" class="edge">
<title>Node4&#45;&gt;Node354</title>
<path fill="none" stroke="midnightblue" d="M2760.67,-192.97C2692.24,-185.59 2575.13,-172.02 2465.2,-154.13"/>
<polygon fill="midnightblue" stroke="midnightblue" points="2465.7,-150.66 2455.26,-152.5 2464.56,-157.57 2465.7,-150.66"/>
</g>
<!-- Node355 -->
<g id="node28" class="node">
<title>Node355</title>
<g id="a_node28"><a xlink:title=" ">
<polygon fill="white" stroke="#bfbfbf" points="2472.97,-123.5 2472.97,-153.5 2596.97,-153.5 2596.97,-123.5 2472.97,-123.5"/>
<text text-anchor="start" x="2480.97" y="-141.5" font-family="Helvetica,sans-Serif" font-size="10.00">boost/mpl/aux_/config</text>
<text text-anchor="middle" x="2534.97" y="-130.5" font-family="Helvetica,sans-Serif" font-size="10.00">/intel.hpp</text>
</a>
</g>
</g>
<!-- Node4&#45;&gt;Node355 -->
<g id="edge34" class="edge">
<title>Node4&#45;&gt;Node355</title>
<path fill="none" stroke="midnightblue" d="M2778.28,-190.48C2733.67,-181.13 2661.21,-165.95 2606.95,-154.58"/>
<polygon fill="midnightblue" stroke="midnightblue" points="2607.54,-151.13 2597.04,-152.5 2606.11,-157.98 2607.54,-151.13"/>
</g>
<!-- Node356 -->
<g id="node29" class="node">
<title>Node356</title>
<g id="a_node29"><a xlink:title=" ">
<polygon fill="white" stroke="#bfbfbf" points="2614.97,-123.5 2614.97,-153.5 2738.97,-153.5 2738.97,-123.5 2614.97,-123.5"/>
<text text-anchor="start" x="2622.97" y="-141.5" font-family="Helvetica,sans-Serif" font-size="10.00">boost/mpl/aux_/config</text>
<text text-anchor="middle" x="2676.97" y="-130.5" font-family="Helvetica,sans-Serif" font-size="10.00">/gcc.hpp</text>
</a>
</g>
</g>
<!-- Node4&#45;&gt;Node356 -->
<g id="edge35" class="edge">
<title>Node4&#45;&gt;Node356</title>
<path fill="none" stroke="midnightblue" d="M2798.63,-190.48C2778.14,-181.89 2745.9,-168.38 2719.76,-157.43"/>
<polygon fill="midnightblue" stroke="midnightblue" points="2721.02,-154.16 2710.44,-153.52 2718.31,-160.62 2721.02,-154.16"/>
</g>
<!-- Node357 -->
<g id="node30" class="node">
<title>Node357</title>
<g id="a_node30"><a xlink:title=" ">
<polygon fill="white" stroke="#bfbfbf" points="2756.97,-123.5 2756.97,-153.5 2880.97,-153.5 2880.97,-123.5 2756.97,-123.5"/>
<text text-anchor="start" x="2764.97" y="-141.5" font-family="Helvetica,sans-Serif" font-size="10.00">boost/mpl/aux_/config</text>
<text text-anchor="middle" x="2818.97" y="-130.5" font-family="Helvetica,sans-Serif" font-size="10.00">/workaround.hpp</text>
</a>
</g>
</g>
<!-- Node4&#45;&gt;Node357 -->
<g id="edge36" class="edge">
<title>Node4&#45;&gt;Node357</title>
<path fill="none" stroke="midnightblue" d="M2818.97,-190.48C2818.97,-183.47 2818.97,-173.19 2818.97,-163.7"/>
<polygon fill="midnightblue" stroke="midnightblue" points="2822.47,-163.52 2818.97,-153.52 2815.47,-163.52 2822.47,-163.52"/>
</g>
<!-- Node358 -->
<g id="node31" class="node">
<title>Node358</title>
<g id="a_node31"><a xlink:title=" ">
<polygon fill="white" stroke="#bfbfbf" points="2898.97,-123.5 2898.97,-153.5 3004.97,-153.5 3004.97,-123.5 2898.97,-123.5"/>
<text text-anchor="start" x="2906.97" y="-141.5" font-family="Helvetica,sans-Serif" font-size="10.00">boost/mpl/integral</text>
<text text-anchor="middle" x="2951.97" y="-130.5" font-family="Helvetica,sans-Serif" font-size="10.00">_c_tag.hpp</text>
</a>
</g>
</g>
<!-- Node4&#45;&gt;Node358 -->
<g id="edge39" class="edge">
<title>Node4&#45;&gt;Node358</title>
<path fill="none" stroke="midnightblue" d="M2838.03,-190.48C2857.05,-181.96 2886.88,-168.62 2911.25,-157.72"/>
<polygon fill="midnightblue" stroke="midnightblue" points="2912.93,-160.8 2920.63,-153.52 2910.07,-154.41 2912.93,-160.8"/>
</g>
<!-- Node359 -->
<g id="node32" class="node">
<title>Node359</title>
<g id="a_node32"><a xlink:title=" ">
<polygon fill="white" stroke="#bfbfbf" points="3022.97,-123.5 3022.97,-153.5 3146.97,-153.5 3146.97,-123.5 3022.97,-123.5"/>
<text text-anchor="start" x="3030.97" y="-141.5" font-family="Helvetica,sans-Serif" font-size="10.00">boost/mpl/aux_/config</text>
<text text-anchor="middle" x="3084.97" y="-130.5" font-family="Helvetica,sans-Serif" font-size="10.00">/static_constant.hpp</text>
</a>
</g>
</g>
<!-- Node4&#45;&gt;Node359 -->
<g id="edge40" class="edge">
<title>Node4&#45;&gt;Node359</title>
<path fill="none" stroke="midnightblue" d="M2857.09,-190.48C2897.62,-181.41 2962.7,-166.85 3012.95,-155.61"/>
<polygon fill="midnightblue" stroke="midnightblue" points="3013.8,-159.01 3022.79,-153.41 3012.27,-152.18 3013.8,-159.01"/>
</g>
<!-- Node360 -->
<g id="node33" class="node">
<title>Node360</title>
<g id="a_node33"><a xlink:title=" ">
<polygon fill="white" stroke="#bfbfbf" points="3164.97,-123.5 3164.97,-153.5 3278.97,-153.5 3278.97,-123.5 3164.97,-123.5"/>
<text text-anchor="start" x="3172.97" y="-141.5" font-family="Helvetica,sans-Serif" font-size="10.00">boost/mpl/aux_/nttp</text>
<text text-anchor="middle" x="3221.97" y="-130.5" font-family="Helvetica,sans-Serif" font-size="10.00">_decl.hpp</text>
</a>
</g>
</g>
<!-- Node4&#45;&gt;Node360 -->
<g id="edge41" class="edge">
<title>Node4&#45;&gt;Node360</title>
<path fill="none" stroke="midnightblue" d="M2877.04,-192.74C2942.28,-185.37 3051.51,-172.03 3154.82,-154.12"/>
<polygon fill="midnightblue" stroke="midnightblue" points="3155.55,-157.54 3164.79,-152.37 3154.34,-150.65 3155.55,-157.54"/>
</g>
<!-- Node361 -->
<g id="node34" class="node">
<title>Node361</title>
<g id="a_node34"><a xlink:title=" ">
<polygon fill="white" stroke="#bfbfbf" points="3296.97,-123.5 3296.97,-153.5 3420.97,-153.5 3420.97,-123.5 3296.97,-123.5"/>
<text text-anchor="start" x="3304.97" y="-141.5" font-family="Helvetica,sans-Serif" font-size="10.00">boost/mpl/aux_/config</text>
<text text-anchor="middle" x="3358.97" y="-130.5" font-family="Helvetica,sans-Serif" font-size="10.00">/nttp.hpp</text>
</a>
</g>
</g>
<!-- Node4&#45;&gt;Node361 -->
<g id="edge42" class="edge">
<title>Node4&#45;&gt;Node361</title>
<path fill="none" stroke="midnightblue" d="M2876.98,-195.42C2963.9,-189.61 3133.26,-176.61 3286.62,-154.1"/>
<polygon fill="midnightblue" stroke="midnightblue" points="3287.32,-157.54 3296.7,-152.61 3286.3,-150.61 3287.32,-157.54"/>
</g>
<!-- Node362 -->
<g id="node35" class="node">
<title>Node362</title>
<g id="a_node35"><a xlink:title=" ">
<polygon fill="white" stroke="#bfbfbf" points="3438.97,-123.5 3438.97,-153.5 3566.97,-153.5 3566.97,-123.5 3438.97,-123.5"/>
<text text-anchor="start" x="3446.97" y="-141.5" font-family="Helvetica,sans-Serif" font-size="10.00">boost/mpl/aux_/nested</text>
<text text-anchor="middle" x="3502.97" y="-130.5" font-family="Helvetica,sans-Serif" font-size="10.00">_type_wknd.hpp</text>
</a>
</g>
</g>
<!-- Node4&#45;&gt;Node362 -->
<g id="edge43" class="edge">
<title>Node4&#45;&gt;Node362</title>
<path fill="none" stroke="midnightblue" d="M2877.35,-197.08C2984.61,-193.04 3220.38,-181.75 3428.74,-154.05"/>
<polygon fill="midnightblue" stroke="midnightblue" points="3429.51,-157.48 3438.95,-152.68 3428.58,-150.54 3429.51,-157.48"/>
</g>
<!-- Node184 -->
<g id="node36" class="node">
<title>Node184</title>
<g id="a_node36"><a xlink:title=" ">
<polygon fill="white" stroke="#bfbfbf" points="3585.47,-129 3585.47,-148 3740.47,-148 3740.47,-129 3585.47,-129"/>
<text text-anchor="middle" x="3662.97" y="-136" font-family="Helvetica,sans-Serif" font-size="10.00">boost/mpl/aux_/na_spec.hpp</text>
</a>
</g>
</g>
<!-- Node4&#45;&gt;Node184 -->
<g id="edge44" class="edge">
<title>Node4&#45;&gt;Node184</title>
<path fill="none" stroke="midnightblue" d="M2877.08,-197.64C3004.18,-194.21 3316.28,-183.28 3575.97,-154 3586.24,-152.84 3597.13,-151.29 3607.61,-149.63"/>
<polygon fill="midnightblue" stroke="midnightblue" points="3608.19,-153.08 3617.5,-148.01 3607.06,-146.17 3608.19,-153.08"/>
</g>
<!-- Node363 -->
<g id="node37" class="node">
<title>Node363</title>
<g id="a_node37"><a xlink:title=" ">
<polygon fill="white" stroke="#bfbfbf" points="3758.47,-129 3758.47,-148 3907.47,-148 3907.47,-129 3758.47,-129"/>
<text text-anchor="middle" x="3832.97" y="-136" font-family="Helvetica,sans-Serif" font-size="10.00">boost/mpl/lambda_fwd.hpp</text>
</a>
</g>
</g>
<!-- Node4&#45;&gt;Node363 -->
<g id="edge45" class="edge">
<title>Node4&#45;&gt;Node363</title>
<path fill="none" stroke="midnightblue" d="M2877.12,-198.66C3023.8,-197.26 3420.59,-190.15 3748.97,-154 3758.9,-152.91 3769.44,-151.38 3779.56,-149.73"/>
<polygon fill="midnightblue" stroke="midnightblue" points="3780.24,-153.16 3789.52,-148.05 3779.08,-146.26 3780.24,-153.16"/>
</g>
<!-- Node364 -->
<g id="node38" class="node">
<title>Node364</title>
<g id="a_node38"><a xlink:title=" ">
<polygon fill="white" stroke="#bfbfbf" points="3925.47,-129 3925.47,-148 4058.47,-148 4058.47,-129 3925.47,-129"/>
<text text-anchor="middle" x="3991.97" y="-136" font-family="Helvetica,sans-Serif" font-size="10.00">boost/mpl/void_fwd.hpp</text>
</a>
</g>
</g>
<!-- Node4&#45;&gt;Node364 -->
<g id="edge46" class="edge">
<title>Node4&#45;&gt;Node364</title>
<path fill="none" stroke="midnightblue" d="M2877.19,-199.63C3041.21,-200.74 3520.93,-199.54 3915.97,-154 3924.8,-152.98 3934.13,-151.52 3943.13,-149.92"/>
<polygon fill="midnightblue" stroke="midnightblue" points="3943.9,-153.34 3953.09,-148.06 3942.62,-146.45 3943.9,-153.34"/>
</g>
<!-- Node92 -->
<g id="node39" class="node">
<title>Node92</title>
<g id="a_node39"><a xlink:title=" ">
<polygon fill="white" stroke="#bfbfbf" points="4076.97,-129 4076.97,-148 4204.97,-148 4204.97,-129 4076.97,-129"/>
<text text-anchor="middle" x="4140.97" y="-136" font-family="Helvetica,sans-Serif" font-size="10.00">boost/mpl/aux_/na.hpp</text>
</a>
</g>
</g>
<!-- Node4&#45;&gt;Node92 -->
<g id="edge47" class="edge">
<title>Node4&#45;&gt;Node92</title>
<path fill="none" stroke="midnightblue" d="M2877.1,-198.14C3090.81,-194.79 3832.79,-181.42 4067.97,-154 4076.46,-153.01 4085.43,-151.57 4094.08,-149.96"/>
<polygon fill="midnightblue" stroke="midnightblue" points="4094.87,-153.38 4104.02,-148.03 4093.53,-146.5 4094.87,-153.38"/>
</g>
<!-- Node365 -->
<g id="node40" class="node">
<title>Node365</title>
<g id="a_node40"><a xlink:title=" ">
<polygon fill="white" stroke="#bfbfbf" points="4222.97,-129 4222.97,-148 4372.97,-148 4372.97,-129 4222.97,-129"/>
<text text-anchor="middle" x="4297.97" y="-136" font-family="Helvetica,sans-Serif" font-size="10.00">boost/mpl/aux_/na_fwd.hpp</text>
</a>
</g>
</g>
<!-- Node4&#45;&gt;Node365 -->
<g id="edge48" class="edge">
<title>Node4&#45;&gt;Node365</title>
<path fill="none" stroke="midnightblue" d="M2877.07,-198.2C3106.29,-194.88 3948.35,-181.08 4213.97,-154 4224.13,-152.96 4234.92,-151.43 4245.25,-149.75"/>
<polygon fill="midnightblue" stroke="midnightblue" points="4246.13,-153.15 4255.4,-148.03 4244.95,-146.25 4246.13,-153.15"/>
</g>
<!-- Node103 -->
<g id="node41" class="node">
<title>Node103</title>
<g id="a_node41"><a xlink:title=" ">
<polygon fill="white" stroke="#bfbfbf" points="4390.97,-123.5 4390.97,-153.5 4514.97,-153.5 4514.97,-123.5 4390.97,-123.5"/>
<text text-anchor="start" x="4398.97" y="-141.5" font-family="Helvetica,sans-Serif" font-size="10.00">boost/mpl/aux_/config</text>
<text text-anchor="middle" x="4452.97" y="-130.5" font-family="Helvetica,sans-Serif" font-size="10.00">/ctps.hpp</text>
</a>
</g>
</g>
<!-- Node4&#45;&gt;Node103 -->
<g id="edge49" class="edge">
<title>Node4&#45;&gt;Node103</title>
<path fill="none" stroke="midnightblue" d="M2877.27,-198.67C3121.19,-197.08 4061.63,-188.85 4380.57,-153.99"/>
<polygon fill="midnightblue" stroke="midnightblue" points="4381.19,-157.44 4390.73,-152.84 4380.4,-150.49 4381.19,-157.44"/>
</g>
<!-- Node366 -->
<g id="node42" class="node">
<title>Node366</title>
<g id="a_node42"><a xlink:title=" ">
<polygon fill="white" stroke="#bfbfbf" points="4532.97,-123.5 4532.97,-153.5 4656.97,-153.5 4656.97,-123.5 4532.97,-123.5"/>
<text text-anchor="start" x="4540.97" y="-141.5" font-family="Helvetica,sans-Serif" font-size="10.00">boost/mpl/aux_/config</text>
<text text-anchor="middle" x="4594.97" y="-130.5" font-family="Helvetica,sans-Serif" font-size="10.00">/lambda.hpp</text>
</a>
</g>
</g>
<!-- Node4&#45;&gt;Node366 -->
<g id="edge50" class="edge">
<title>Node4&#45;&gt;Node366</title>
<path fill="none" stroke="midnightblue" d="M2877.23,-198.83C3134.85,-197.88 4174.09,-191.8 4522.63,-153.98"/>
<polygon fill="midnightblue" stroke="midnightblue" points="4523.18,-157.44 4532.73,-152.85 4522.41,-150.48 4523.18,-157.44"/>
</g>
<!-- Node104 -->
<g id="node43" class="node">
<title>Node104</title>
<g id="a_node43"><a xlink:title=" ">
<polygon fill="white" stroke="#bfbfbf" points="4674.97,-123.5 4674.97,-153.5 4798.97,-153.5 4798.97,-123.5 4674.97,-123.5"/>
<text text-anchor="start" x="4682.97" y="-141.5" font-family="Helvetica,sans-Serif" font-size="10.00">boost/mpl/aux_/config</text>
<text text-anchor="middle" x="4736.97" y="-130.5" font-family="Helvetica,sans-Serif" font-size="10.00">/ttp.hpp</text>
</a>
</g>
</g>
<!-- Node4&#45;&gt;Node104 -->
<g id="edge51" class="edge">
<title>Node4&#45;&gt;Node104</title>
<path fill="none" stroke="midnightblue" d="M2876.98,-198.97C3147.34,-198.62 4286.19,-194.77 4664.58,-153.98"/>
<polygon fill="midnightblue" stroke="midnightblue" points="4665.18,-157.44 4674.74,-152.86 4664.41,-150.48 4665.18,-157.44"/>
</g>
<!-- Node16 -->
<g id="node44" class="node">
<title>Node16</title>
<g id="a_node44"><a xlink:title=" ">
<polygon fill="white" stroke="#bfbfbf" points="4816.97,-129 4816.97,-148 4918.97,-148 4918.97,-129 4816.97,-129"/>
<text text-anchor="middle" x="4867.97" y="-136" font-family="Helvetica,sans-Serif" font-size="10.00">boost/mpl/int.hpp</text>
</a>
</g>
</g>
<!-- Node4&#45;&gt;Node16 -->
<g id="edge52" class="edge">
<title>Node4&#45;&gt;Node16</title>
<path fill="none" stroke="midnightblue" d="M2877.13,-198.43C3184.44,-195.31 4612.54,-179.52 4807.97,-154 4814.68,-153.12 4821.74,-151.8 4828.55,-150.3"/>
<polygon fill="midnightblue" stroke="midnightblue" points="4829.37,-153.7 4838.3,-148 4827.77,-146.89 4829.37,-153.7"/>
</g>
<!-- Node102 -->
<g id="node45" class="node">
<title>Node102</title>
<g id="a_node45"><a xlink:title=" ">
<polygon fill="white" stroke="#bfbfbf" points="4937.47,-129 4937.47,-148 5062.47,-148 5062.47,-129 4937.47,-129"/>
<text text-anchor="middle" x="4999.97" y="-136" font-family="Helvetica,sans-Serif" font-size="10.00">boost/mpl/int_fwd.hpp</text>
</a>
</g>
</g>
<!-- Node4&#45;&gt;Node102 -->
<g id="edge53" class="edge">
<title>Node4&#45;&gt;Node102</title>
<path fill="none" stroke="midnightblue" d="M2877.15,-199.15C3173.17,-199.72 4514.36,-199.7 4927.97,-154 4936.45,-153.06 4945.4,-151.63 4954.01,-150.02"/>
<polygon fill="midnightblue" stroke="midnightblue" points="4954.78,-153.43 4963.91,-148.07 4953.42,-146.57 4954.78,-153.43"/>
</g>
<!-- Node367 -->
<g id="node46" class="node">
<title>Node367</title>
<g id="a_node46"><a xlink:title=" ">
<polygon fill="white" stroke="#bfbfbf" points="5080.97,-123.5 5080.97,-153.5 5212.97,-153.5 5212.97,-123.5 5080.97,-123.5"/>
<text text-anchor="start" x="5088.97" y="-141.5" font-family="Helvetica,sans-Serif" font-size="10.00">boost/mpl/aux_/integral</text>
<text text-anchor="middle" x="5146.97" y="-130.5" font-family="Helvetica,sans-Serif" font-size="10.00">_wrapper.hpp</text>
</a>
</g>
</g>
<!-- Node4&#45;&gt;Node367 -->
<g id="edge54" class="edge">
<title>Node4&#45;&gt;Node367</title>
<path fill="none" stroke="midnightblue" d="M2877,-199.19C3182.43,-199.96 4606.89,-200.99 5070.7,-153.98"/>
<polygon fill="midnightblue" stroke="midnightblue" points="5071.23,-157.44 5080.81,-152.93 5070.5,-150.48 5071.23,-157.44"/>
</g>
<!-- Node368 -->
<g id="node47" class="node">
<title>Node368</title>
<g id="a_node47"><a xlink:title=" ">
<polygon fill="white" stroke="#bfbfbf" points="5230.97,-123.5 5230.97,-153.5 5352.97,-153.5 5352.97,-123.5 5230.97,-123.5"/>
<text text-anchor="start" x="5238.97" y="-141.5" font-family="Helvetica,sans-Serif" font-size="10.00">boost/mpl/aux_/static</text>
<text text-anchor="middle" x="5291.97" y="-130.5" font-family="Helvetica,sans-Serif" font-size="10.00">_cast.hpp</text>
</a>
</g>
</g>
<!-- Node4&#45;&gt;Node368 -->
<g id="edge55" class="edge">
<title>Node4&#45;&gt;Node368</title>
<path fill="none" stroke="midnightblue" d="M2877.23,-198.56C3217.11,-195.89 4938.21,-181.17 5220.45,-153.94"/>
<polygon fill="midnightblue" stroke="midnightblue" points="5221.03,-157.4 5230.62,-152.88 5220.31,-150.43 5221.03,-157.4"/>
</g>
<!-- Node100 -->
<g id="node48" class="node">
<title>Node100</title>
<g id="a_node48"><a xlink:title=" ">
<polygon fill="white" stroke="#bfbfbf" points="5371.47,-123.5 5371.47,-153.5 5502.47,-153.5 5502.47,-123.5 5371.47,-123.5"/>
<text text-anchor="start" x="5379.47" y="-141.5" font-family="Helvetica,sans-Serif" font-size="10.00">boost/mpl/aux_/lambda</text>
<text text-anchor="middle" x="5436.97" y="-130.5" font-family="Helvetica,sans-Serif" font-size="10.00">_arity_param.hpp</text>
</a>
</g>
</g>
<!-- Node4&#45;&gt;Node100 -->
<g id="edge58" class="edge">
<title>Node4&#45;&gt;Node100</title>
<path fill="none" stroke="midnightblue" d="M2877.12,-198.58C3228.43,-195.93 5062.19,-180.99 5360.86,-153.89"/>
<polygon fill="midnightblue" stroke="midnightblue" points="5361.61,-157.33 5371.22,-152.88 5360.93,-150.37 5361.61,-157.33"/>
</g>
<!-- Node369 -->
<g id="node49" class="node">
<title>Node369</title>
<g id="a_node49"><a xlink:title=" ">
<polygon fill="white" stroke="#bfbfbf" points="5520.47,-123.5 5520.47,-153.5 5659.47,-153.5 5659.47,-123.5 5520.47,-123.5"/>
<text text-anchor="start" x="5528.47" y="-141.5" font-family="Helvetica,sans-Serif" font-size="10.00">boost/mpl/aux_/template</text>
<text text-anchor="middle" x="5589.97" y="-130.5" font-family="Helvetica,sans-Serif" font-size="10.00">_arity_fwd.hpp</text>
</a>
</g>
</g>
<!-- Node4&#45;&gt;Node369 -->
<g id="edge59" class="edge">
<title>Node4&#45;&gt;Node369</title>
<path fill="none" stroke="midnightblue" d="M2877.23,-198.61C3241.22,-196.11 5197.2,-181.51 5510.29,-153.99"/>
<polygon fill="midnightblue" stroke="midnightblue" points="5510.69,-157.47 5520.32,-153.05 5510.03,-150.5 5510.69,-157.47"/>
</g>
<!-- Node370 -->
<g id="node50" class="node">
<title>Node370</title>
<g id="a_node50"><a xlink:title=" ">
<polygon fill="white" stroke="#bfbfbf" points="5677.47,-129 5677.47,-148 5814.47,-148 5814.47,-129 5677.47,-129"/>
<text text-anchor="middle" x="5745.97" y="-136" font-family="Helvetica,sans-Serif" font-size="10.00">boost/mpl/aux_/arity.hpp</text>
</a>
</g>
</g>
<!-- Node4&#45;&gt;Node370 -->
<g id="edge60" class="edge">
<title>Node4&#45;&gt;Node370</title>
<path fill="none" stroke="midnightblue" d="M2877.22,-198.68C3257.69,-196.49 5382.27,-183.04 5668.97,-154 5678.32,-153.05 5688.22,-151.56 5697.7,-149.89"/>
<polygon fill="midnightblue" stroke="midnightblue" points="5698.58,-153.29 5707.78,-148.02 5697.31,-146.4 5698.58,-153.29"/>
</g>
<!-- Node11&#45;&gt;Node2 -->
<g id="edge13" class="edge">
<title>Node11&#45;&gt;Node2</title>
<path fill="none" stroke="midnightblue" d="M772.23,-129.5C709.37,-120.37 605.11,-104.43 515.97,-87 510.19,-85.87 504.12,-84.59 498.14,-83.27"/>
<polygon fill="midnightblue" stroke="midnightblue" points="498.73,-79.82 488.21,-81.04 497.19,-86.65 498.73,-79.82"/>
</g>
<!-- Node11&#45;&gt;Node3 -->
<g id="edge18" class="edge">
<title>Node11&#45;&gt;Node3</title>
<path fill="none" stroke="midnightblue" d="M846.47,-128.97C862.06,-120.47 884.32,-105.96 896.97,-87 908.4,-69.89 912.95,-46.46 914.77,-30.16"/>
<polygon fill="midnightblue" stroke="midnightblue" points="918.3,-30 915.67,-19.74 911.32,-29.4 918.3,-30"/>
</g>
<!-- Node11&#45;&gt;Node9 -->
<g id="edge19" class="edge">
<title>Node11&#45;&gt;Node9</title>
<path fill="none" stroke="midnightblue" d="M880.68,-128.97C897.32,-126.58 915.89,-124.28 932.97,-123 1656.1,-68.82 3470.87,-95.58 4195.97,-87 4633.41,-81.83 5164.51,-74.88 5307.85,-72.99"/>
<polygon fill="midnightblue" stroke="midnightblue" points="5308.3,-76.48 5318.25,-72.85 5308.21,-69.48 5308.3,-76.48"/>
</g>
<!-- Node11&#45;&gt;Node252 -->
<g id="edge14" class="edge">
<title>Node11&#45;&gt;Node252</title>
<path fill="none" stroke="midnightblue" d="M796.17,-128.94C751.56,-117.29 671.74,-96.45 622.56,-83.62"/>
<polygon fill="midnightblue" stroke="midnightblue" points="623.41,-80.22 612.85,-81.08 621.65,-87 623.41,-80.22"/>
</g>
<!-- Node11&#45;&gt;Node255 -->
<g id="edge15" class="edge">
<title>Node11&#45;&gt;Node255</title>
<path fill="none" stroke="midnightblue" d="M812.64,-128.87C791.87,-117.89 755.79,-98.82 731.4,-85.94"/>
<polygon fill="midnightblue" stroke="midnightblue" points="732.85,-82.75 722.37,-81.17 729.58,-88.93 732.85,-82.75"/>
</g>
<!-- Node11&#45;&gt;Node93 -->
<g id="edge16" class="edge">
<title>Node11&#45;&gt;Node93</title>
<path fill="none" stroke="midnightblue" d="M829.51,-128.73C830.02,-120.54 830.79,-107.92 831.48,-96.71"/>
<polygon fill="midnightblue" stroke="midnightblue" points="834.99,-96.79 832.11,-86.59 828,-96.36 834.99,-96.79"/>
</g>
<!-- Node11&#45;&gt;Node264 -->
<g id="edge17" class="edge">
<title>Node11&#45;&gt;Node264</title>
<path fill="none" stroke="midnightblue" d="M854.74,-128.87C888.89,-117.42 949.31,-97.18 987.69,-84.32"/>
<polygon fill="midnightblue" stroke="midnightblue" points="989.04,-87.56 997.41,-81.06 986.82,-80.92 989.04,-87.56"/>
</g>
<!-- Node11&#45;&gt;Node56 -->
<g id="edge20" class="edge">
<title>Node11&#45;&gt;Node56</title>
<path fill="none" stroke="midnightblue" d="M884.2,-128.99C899.93,-126.79 917.1,-124.59 932.97,-123 1199.31,-96.28 1515.78,-81.62 1666.17,-75.68"/>
<polygon fill="midnightblue" stroke="midnightblue" points="1666.42,-79.17 1676.28,-75.28 1666.15,-72.18 1666.42,-79.17"/>
</g>
<!-- Node11&#45;&gt;Node120 -->
<g id="edge21" class="edge">
<title>Node11&#45;&gt;Node120</title>
<path fill="none" stroke="midnightblue" d="M880.95,-128.98C897.53,-126.6 915.98,-124.31 932.97,-123 1573.68,-73.47 3669.59,-72.22 4066.71,-72.44"/>
<polygon fill="midnightblue" stroke="midnightblue" points="4066.87,-75.94 4076.87,-72.44 4066.87,-68.94 4066.87,-75.94"/>
</g>
</g>
</svg>
