<?xml version="1.0" encoding="UTF-8" standalone="no"?>
<!DOCTYPE svg PUBLIC "-//W3C//DTD SVG 1.1//EN"
 "http://www.w3.org/Graphics/SVG/1.1/DTD/svg11.dtd">
<!-- Generated by graphviz version 2.43.0 (0)
 -->
<!-- Title: boost/ui/dialog.hpp Pages: 1 -->
<svg width="6714pt" height="263pt"
 viewBox="0.00 0.00 6714.20 263.00" xmlns="http://www.w3.org/2000/svg" xmlns:xlink="http://www.w3.org/1999/xlink">
<g id="graph0" class="graph" transform="scale(1 1) rotate(0) translate(4 259)">
<title>boost/ui/dialog.hpp</title>
<polygon fill="white" stroke="transparent" points="-4,4 -4,-259 6710.2,-259 6710.2,4 -4,4"/>
<!-- Node1 -->
<g id="node1" class="node">
<title>Node1</title>
<g id="a_node1"><a xlink:title="Dialog widget.">
<polygon fill="#bfbfbf" stroke="black" points="4963,-235.5 4963,-254.5 5073,-254.5 5073,-235.5 4963,-235.5"/>
<text text-anchor="middle" x="5018" y="-242.5" font-family="Helvetica,sans-Serif" font-size="10.00">boost/ui/dialog.hpp</text>
</a>
</g>
</g>
<!-- Node2 -->
<g id="node2" class="node">
<title>Node2</title>
<g id="a_node2"><a xlink:href="config_8hpp.html" target="_top" xlink:title="Configuration options.">
<polygon fill="white" stroke="black" points="549,-56.5 549,-75.5 659,-75.5 659,-56.5 549,-56.5"/>
<text text-anchor="middle" x="604" y="-63.5" font-family="Helvetica,sans-Serif" font-size="10.00">boost/ui/config.hpp</text>
</a>
</g>
</g>
<!-- Node1&#45;&gt;Node2 -->
<g id="edge1" class="edge">
<title>Node1&#45;&gt;Node2</title>
<path fill="none" stroke="midnightblue" d="M5073.28,-242.78C5357.35,-236.28 6641.97,-203.56 6699,-143 6708.45,-132.97 6708.71,-121.78 6699,-112 6671.01,-83.8 1324.02,-68.89 669.42,-67.17"/>
<polygon fill="midnightblue" stroke="midnightblue" points="669.24,-63.67 659.23,-67.14 669.22,-70.67 669.24,-63.67"/>
</g>
<!-- Node4 -->
<g id="node4" class="node">
<title>Node4</title>
<g id="a_node4"><a xlink:href="window_8hpp.html" target="_top" xlink:title="Window class.">
<polygon fill="white" stroke="red" points="3260,-179.5 3260,-198.5 3376,-198.5 3376,-179.5 3260,-179.5"/>
<text text-anchor="middle" x="3318" y="-186.5" font-family="Helvetica,sans-Serif" font-size="10.00">boost/ui/window.hpp</text>
</a>
</g>
</g>
<!-- Node1&#45;&gt;Node4 -->
<g id="edge3" class="edge">
<title>Node1&#45;&gt;Node4</title>
<path fill="none" stroke="midnightblue" d="M4962.88,-242.25C4710.5,-234.23 3665.46,-201.04 3386.64,-192.18"/>
<polygon fill="midnightblue" stroke="midnightblue" points="3386.37,-188.67 3376.26,-191.85 3386.15,-195.67 3386.37,-188.67"/>
</g>
<!-- Node3 -->
<g id="node3" class="node">
<title>Node3</title>
<g id="a_node3"><a xlink:title=" ">
<polygon fill="white" stroke="#bfbfbf" points="0,-0.5 0,-19.5 98,-19.5 98,-0.5 0,-0.5"/>
<text text-anchor="middle" x="49" y="-7.5" font-family="Helvetica,sans-Serif" font-size="10.00">boost/config.hpp</text>
</a>
</g>
</g>
<!-- Node2&#45;&gt;Node3 -->
<g id="edge2" class="edge">
<title>Node2&#45;&gt;Node3</title>
<path fill="none" stroke="midnightblue" d="M548.76,-59.62C443.71,-49.4 216.02,-27.25 108.07,-16.75"/>
<polygon fill="midnightblue" stroke="midnightblue" points="108.3,-13.25 98.01,-15.77 107.62,-20.22 108.3,-13.25"/>
</g>
<!-- Node4&#45;&gt;Node2 -->
<g id="edge4" class="edge">
<title>Node4&#45;&gt;Node2</title>
<path fill="none" stroke="midnightblue" d="M3259.84,-187.87C2923.36,-186.99 1237.45,-180.68 1135,-143 1114.54,-135.48 1117.18,-120.24 1097,-112 1021.21,-81.05 785.22,-71.25 669.42,-68.25"/>
<polygon fill="midnightblue" stroke="midnightblue" points="669.36,-64.75 659.27,-68 669.18,-71.75 669.36,-64.75"/>
</g>
<!-- Node4&#45;&gt;Node3 -->
<g id="edge5" class="edge">
<title>Node4&#45;&gt;Node3</title>
<path fill="none" stroke="midnightblue" d="M3259.67,-187.76C2821,-185.9 55.56,-172.97 26,-143 -4.39,-112.19 21.54,-56.44 37.98,-28.27"/>
<polygon fill="midnightblue" stroke="midnightblue" points="41.08,-29.91 43.29,-19.55 35.1,-26.27 41.08,-29.91"/>
</g>
<!-- Node5 -->
<g id="node5" class="node">
<title>Node5</title>
<g id="a_node5"><a xlink:title=" ">
<polygon fill="white" stroke="#bfbfbf" points="167,-118 167,-137 289,-137 289,-118 167,-118"/>
<text text-anchor="middle" x="228" y="-125" font-family="Helvetica,sans-Serif" font-size="10.00">boost/config/user.hpp</text>
</a>
</g>
</g>
<!-- Node4&#45;&gt;Node5 -->
<g id="edge6" class="edge">
<title>Node4&#45;&gt;Node5</title>
<path fill="none" stroke="midnightblue" d="M3259.82,-187.79C2866.53,-186.26 603.37,-176.06 299,-143 290.55,-142.08 281.61,-140.64 273.04,-139.01"/>
<polygon fill="midnightblue" stroke="midnightblue" points="273.68,-135.57 263.19,-137.04 272.3,-142.43 273.68,-135.57"/>
</g>
<!-- Node6 -->
<g id="node6" class="node">
<title>Node6</title>
<g id="a_node6"><a xlink:title=" ">
<polygon fill="white" stroke="#bfbfbf" points="307.5,-112.5 307.5,-142.5 460.5,-142.5 460.5,-112.5 307.5,-112.5"/>
<text text-anchor="start" x="315.5" y="-130.5" font-family="Helvetica,sans-Serif" font-size="10.00">boost/config/detail</text>
<text text-anchor="middle" x="384" y="-119.5" font-family="Helvetica,sans-Serif" font-size="10.00">/select_compiler_config.hpp</text>
</a>
</g>
</g>
<!-- Node4&#45;&gt;Node6 -->
<g id="edge7" class="edge">
<title>Node4&#45;&gt;Node6</title>
<path fill="none" stroke="midnightblue" d="M3259.81,-187.61C2883.73,-185.02 802.18,-169.62 470.98,-142.92"/>
<polygon fill="midnightblue" stroke="midnightblue" points="471.08,-139.41 460.82,-142.04 470.48,-146.39 471.08,-139.41"/>
</g>
<!-- Node7 -->
<g id="node7" class="node">
<title>Node7</title>
<g id="a_node7"><a xlink:title=" ">
<polygon fill="white" stroke="#bfbfbf" points="479,-112.5 479,-142.5 631,-142.5 631,-112.5 479,-112.5"/>
<text text-anchor="start" x="487" y="-130.5" font-family="Helvetica,sans-Serif" font-size="10.00">boost/config/detail</text>
<text text-anchor="middle" x="555" y="-119.5" font-family="Helvetica,sans-Serif" font-size="10.00">/select_platform_config.hpp</text>
</a>
</g>
</g>
<!-- Node4&#45;&gt;Node7 -->
<g id="edge8" class="edge">
<title>Node4&#45;&gt;Node7</title>
<path fill="none" stroke="midnightblue" d="M3259.76,-188.21C2920.55,-189.27 1195.83,-192.15 641.44,-142.9"/>
<polygon fill="midnightblue" stroke="midnightblue" points="641.63,-139.4 631.35,-141.99 641,-146.37 641.63,-139.4"/>
</g>
<!-- Node8 -->
<g id="node8" class="node">
<title>Node8</title>
<g id="a_node8"><a xlink:title=" ">
<polygon fill="white" stroke="#bfbfbf" points="649.5,-112.5 649.5,-142.5 756.5,-142.5 756.5,-112.5 649.5,-112.5"/>
<text text-anchor="start" x="657.5" y="-130.5" font-family="Helvetica,sans-Serif" font-size="10.00">boost/config/detail</text>
<text text-anchor="middle" x="703" y="-119.5" font-family="Helvetica,sans-Serif" font-size="10.00">/suffix.hpp</text>
</a>
</g>
</g>
<!-- Node4&#45;&gt;Node8 -->
<g id="edge9" class="edge">
<title>Node4&#45;&gt;Node8</title>
<path fill="none" stroke="midnightblue" d="M3259.92,-187.7C2907.84,-185.8 1064.61,-174.48 766.76,-142.8"/>
<polygon fill="midnightblue" stroke="midnightblue" points="767.16,-139.32 756.82,-141.67 766.36,-146.28 767.16,-139.32"/>
</g>
<!-- Node9 -->
<g id="node9" class="node">
<title>Node9</title>
<g id="a_node9"><a xlink:title=" ">
<polygon fill="white" stroke="#bfbfbf" points="774.5,-118 774.5,-137 827.5,-137 827.5,-118 774.5,-118"/>
<text text-anchor="middle" x="801" y="-125" font-family="Helvetica,sans-Serif" font-size="10.00">limits.h</text>
</a>
</g>
</g>
<!-- Node4&#45;&gt;Node9 -->
<g id="edge10" class="edge">
<title>Node4&#45;&gt;Node9</title>
<path fill="none" stroke="midnightblue" d="M3259.76,-188.21C2908.66,-189.31 1081.07,-192.61 837,-143 834.09,-142.41 831.12,-141.59 828.19,-140.64"/>
<polygon fill="midnightblue" stroke="midnightblue" points="829.14,-137.26 818.55,-137.06 826.7,-143.82 829.14,-137.26"/>
</g>
<!-- Node10 -->
<g id="node10" class="node">
<title>Node10</title>
<g id="a_node10"><a xlink:title=" ">
<polygon fill="white" stroke="#bfbfbf" points="846,-112.5 846,-142.5 956,-142.5 956,-112.5 846,-112.5"/>
<text text-anchor="start" x="854" y="-130.5" font-family="Helvetica,sans-Serif" font-size="10.00">boost/config/helper</text>
<text text-anchor="middle" x="901" y="-119.5" font-family="Helvetica,sans-Serif" font-size="10.00">_macros.hpp</text>
</a>
</g>
</g>
<!-- Node4&#45;&gt;Node10 -->
<g id="edge11" class="edge">
<title>Node4&#45;&gt;Node10</title>
<path fill="none" stroke="midnightblue" d="M3259.85,-187.6C2924.39,-185.18 1242.27,-171.76 965.99,-142.84"/>
<polygon fill="midnightblue" stroke="midnightblue" points="966.36,-139.36 956.03,-141.72 965.58,-146.32 966.36,-139.36"/>
</g>
<!-- Node11 -->
<g id="node11" class="node">
<title>Node11</title>
<g id="a_node11"><a xlink:title=" ">
<polygon fill="white" stroke="#bfbfbf" points="974,-112.5 974,-142.5 1088,-142.5 1088,-112.5 974,-112.5"/>
<text text-anchor="start" x="982" y="-130.5" font-family="Helvetica,sans-Serif" font-size="10.00">boost/config/detail</text>
<text text-anchor="middle" x="1031" y="-119.5" font-family="Helvetica,sans-Serif" font-size="10.00">/cxx_composite.hpp</text>
</a>
</g>
</g>
<!-- Node4&#45;&gt;Node11 -->
<g id="edge12" class="edge">
<title>Node4&#45;&gt;Node11</title>
<path fill="none" stroke="midnightblue" d="M3259.92,-188.24C2955.13,-189.31 1537.98,-191.54 1102,-143 1100.73,-142.86 1099.46,-142.71 1098.17,-142.54"/>
<polygon fill="midnightblue" stroke="midnightblue" points="1098.61,-139.07 1088.21,-141.11 1097.61,-146 1098.61,-139.07"/>
</g>
<!-- Node12 -->
<g id="node12" class="node">
<title>Node12</title>
<g id="a_node12"><a xlink:href="widget_8hpp.html" target="_top" xlink:title="Widget class.">
<polygon fill="white" stroke="red" points="35.5,-118 35.5,-137 148.5,-137 148.5,-118 35.5,-118"/>
<text text-anchor="middle" x="92" y="-125" font-family="Helvetica,sans-Serif" font-size="10.00">boost/ui/widget.hpp</text>
</a>
</g>
</g>
<!-- Node4&#45;&gt;Node12 -->
<g id="edge13" class="edge">
<title>Node4&#45;&gt;Node12</title>
<path fill="none" stroke="midnightblue" d="M3259.71,-187.88C2855.55,-186.95 477.01,-179.93 158,-143 150.38,-142.12 142.35,-140.74 134.62,-139.18"/>
<polygon fill="midnightblue" stroke="midnightblue" points="135.19,-135.72 124.68,-137.05 133.72,-142.57 135.19,-135.72"/>
</g>
<!-- Node30 -->
<g id="node13" class="node">
<title>Node30</title>
<g id="a_node13"><a xlink:title=" ">
<polygon fill="white" stroke="#bfbfbf" points="1144,-118 1144,-137 1254,-137 1254,-118 1144,-118"/>
<text text-anchor="middle" x="1199" y="-125" font-family="Helvetica,sans-Serif" font-size="10.00">boost/ui/config.hpp</text>
</a>
</g>
</g>
<!-- Node4&#45;&gt;Node30 -->
<g id="edge15" class="edge">
<title>Node4&#45;&gt;Node30</title>
<path fill="none" stroke="midnightblue" d="M3259.89,-188.28C2968.62,-189.43 1665.67,-191.72 1264,-143 1256.66,-142.11 1248.93,-140.76 1241.47,-139.24"/>
<polygon fill="midnightblue" stroke="midnightblue" points="1242.03,-135.78 1231.52,-137.07 1240.55,-142.62 1242.03,-135.78"/>
</g>
<!-- Node31 -->
<g id="node14" class="node">
<title>Node31</title>
<g id="a_node14"><a xlink:title=" ">
<polygon fill="white" stroke="#bfbfbf" points="1272.5,-118 1272.5,-137 1379.5,-137 1379.5,-118 1272.5,-118"/>
<text text-anchor="middle" x="1326" y="-125" font-family="Helvetica,sans-Serif" font-size="10.00">boost/ui/coord.hpp</text>
</a>
</g>
</g>
<!-- Node4&#45;&gt;Node31 -->
<g id="edge16" class="edge">
<title>Node4&#45;&gt;Node31</title>
<path fill="none" stroke="midnightblue" d="M3259.75,-188.23C2979.07,-189.11 1764.38,-190.08 1389,-143 1382.04,-142.13 1374.73,-140.82 1367.64,-139.33"/>
<polygon fill="midnightblue" stroke="midnightblue" points="1368.02,-135.83 1357.5,-137.07 1366.5,-142.66 1368.02,-135.83"/>
</g>
<!-- Node14 -->
<g id="node15" class="node">
<title>Node14</title>
<g id="a_node15"><a xlink:title=" ">
<polygon fill="white" stroke="#bfbfbf" points="1397.5,-118 1397.5,-137 1510.5,-137 1510.5,-118 1397.5,-118"/>
<text text-anchor="middle" x="1454" y="-125" font-family="Helvetica,sans-Serif" font-size="10.00">boost/geometry.hpp</text>
</a>
</g>
</g>
<!-- Node4&#45;&gt;Node14 -->
<g id="edge17" class="edge">
<title>Node4&#45;&gt;Node14</title>
<path fill="none" stroke="midnightblue" d="M3259.74,-188.04C2990.87,-187.99 1868.34,-185.23 1520,-143 1512.47,-142.09 1504.53,-140.71 1496.87,-139.16"/>
<polygon fill="midnightblue" stroke="midnightblue" points="1497.54,-135.72 1487.02,-137.05 1496.07,-142.57 1497.54,-135.72"/>
</g>
<!-- Node32 -->
<g id="node16" class="node">
<title>Node32</title>
<g id="a_node16"><a xlink:title=" ">
<polygon fill="white" stroke="#bfbfbf" points="1529,-118 1529,-137 1693,-137 1693,-118 1529,-118"/>
<text text-anchor="middle" x="1611" y="-125" font-family="Helvetica,sans-Serif" font-size="10.00">boost/geometry/geometry.hpp</text>
</a>
</g>
</g>
<!-- Node4&#45;&gt;Node32 -->
<g id="edge18" class="edge">
<title>Node4&#45;&gt;Node32</title>
<path fill="none" stroke="midnightblue" d="M3259.9,-187.4C3008.56,-184.63 2013.59,-172.04 1702,-143 1690.67,-141.94 1678.6,-140.35 1667.09,-138.61"/>
<polygon fill="midnightblue" stroke="midnightblue" points="1667.57,-135.14 1657.15,-137.05 1666.48,-142.06 1667.57,-135.14"/>
</g>
<!-- Node33 -->
<g id="node17" class="node">
<title>Node33</title>
<g id="a_node17"><a xlink:title=" ">
<polygon fill="white" stroke="#bfbfbf" points="1711,-112.5 1711,-142.5 1829,-142.5 1829,-112.5 1711,-112.5"/>
<text text-anchor="start" x="1719" y="-130.5" font-family="Helvetica,sans-Serif" font-size="10.00">boost/geometry/core</text>
<text text-anchor="middle" x="1770" y="-119.5" font-family="Helvetica,sans-Serif" font-size="10.00">/closure.hpp</text>
</a>
</g>
</g>
<!-- Node4&#45;&gt;Node33 -->
<g id="edge19" class="edge">
<title>Node4&#45;&gt;Node33</title>
<path fill="none" stroke="midnightblue" d="M3259.6,-187.63C3023.81,-185.9 2140.63,-177.33 1839.27,-142.97"/>
<polygon fill="midnightblue" stroke="midnightblue" points="1839.57,-139.48 1829.23,-141.79 1838.76,-146.43 1839.57,-139.48"/>
</g>
<!-- Node34 -->
<g id="node18" class="node">
<title>Node34</title>
<g id="a_node18"><a xlink:title=" ">
<polygon fill="white" stroke="#bfbfbf" points="1847,-118 1847,-137 1999,-137 1999,-118 1847,-118"/>
<text text-anchor="middle" x="1923" y="-125" font-family="Helvetica,sans-Serif" font-size="10.00">boost/range/value_type.hpp</text>
</a>
</g>
</g>
<!-- Node4&#45;&gt;Node34 -->
<g id="edge20" class="edge">
<title>Node4&#45;&gt;Node34</title>
<path fill="none" stroke="midnightblue" d="M3259.73,-187.04C3039.24,-183.26 2256.04,-168.3 2008,-143 1997.62,-141.94 1986.58,-140.38 1976.03,-138.68"/>
<polygon fill="midnightblue" stroke="midnightblue" points="1976.53,-135.21 1966.09,-137.01 1975.37,-142.12 1976.53,-135.21"/>
</g>
<!-- Node35 -->
<g id="node19" class="node">
<title>Node35</title>
<g id="a_node19"><a xlink:title=" ">
<polygon fill="white" stroke="#bfbfbf" points="2017,-118 2017,-137 2145,-137 2145,-118 2017,-118"/>
<text text-anchor="middle" x="2081" y="-125" font-family="Helvetica,sans-Serif" font-size="10.00">boost/range/config.hpp</text>
</a>
</g>
</g>
<!-- Node4&#45;&gt;Node35 -->
<g id="edge21" class="edge">
<title>Node4&#45;&gt;Node35</title>
<path fill="none" stroke="midnightblue" d="M3259.65,-186.96C3055.18,-183.13 2371.66,-168.66 2154,-143 2145.51,-142 2136.54,-140.55 2127.9,-138.95"/>
<polygon fill="midnightblue" stroke="midnightblue" points="2128.44,-135.49 2117.96,-137.01 2127.11,-142.36 2128.44,-135.49"/>
</g>
<!-- Node36 -->
<g id="node20" class="node">
<title>Node36</title>
<g id="a_node20"><a xlink:title=" ">
<polygon fill="white" stroke="#bfbfbf" points="2163,-118 2163,-137 2319,-137 2319,-118 2163,-118"/>
<text text-anchor="middle" x="2241" y="-125" font-family="Helvetica,sans-Serif" font-size="10.00">boost/detail/workaround.hpp</text>
</a>
</g>
</g>
<!-- Node4&#45;&gt;Node36 -->
<g id="edge22" class="edge">
<title>Node4&#45;&gt;Node36</title>
<path fill="none" stroke="midnightblue" d="M3259.79,-187.78C3106.73,-186.69 2680.47,-180.25 2328,-143 2317.61,-141.9 2306.59,-140.36 2296,-138.69"/>
<polygon fill="midnightblue" stroke="midnightblue" points="2296.45,-135.22 2286.01,-137.06 2295.32,-142.12 2296.45,-135.22"/>
</g>
<!-- Node37 -->
<g id="node21" class="node">
<title>Node37</title>
<g id="a_node21"><a xlink:title=" ">
<polygon fill="white" stroke="#bfbfbf" points="2337,-118 2337,-137 2495,-137 2495,-118 2337,-118"/>
<text text-anchor="middle" x="2416" y="-125" font-family="Helvetica,sans-Serif" font-size="10.00">boost/config/workaround.hpp</text>
</a>
</g>
</g>
<!-- Node4&#45;&gt;Node37 -->
<g id="edge23" class="edge">
<title>Node4&#45;&gt;Node37</title>
<path fill="none" stroke="midnightblue" d="M3259.84,-186.94C3126.05,-184.03 2786.26,-173.96 2504,-143 2493.62,-141.86 2482.6,-140.32 2472,-138.66"/>
<polygon fill="midnightblue" stroke="midnightblue" points="2472.43,-135.18 2462,-137.04 2471.31,-142.09 2472.43,-135.18"/>
</g>
<!-- Node38 -->
<g id="node22" class="node">
<title>Node38</title>
<g id="a_node22"><a xlink:title=" ">
<polygon fill="white" stroke="#bfbfbf" points="2513,-118 2513,-137 2647,-137 2647,-118 2513,-118"/>
<text text-anchor="middle" x="2580" y="-125" font-family="Helvetica,sans-Serif" font-size="10.00">boost/range/iterator.hpp</text>
</a>
</g>
</g>
<!-- Node4&#45;&gt;Node38 -->
<g id="edge24" class="edge">
<title>Node4&#45;&gt;Node38</title>
<path fill="none" stroke="midnightblue" d="M3259.86,-186.35C3144.5,-182.57 2878.63,-171.31 2657,-143 2648.27,-141.89 2639.04,-140.41 2630.12,-138.82"/>
<polygon fill="midnightblue" stroke="midnightblue" points="2630.69,-135.37 2620.22,-137 2629.42,-142.25 2630.69,-135.37"/>
</g>
<!-- Node39 -->
<g id="node23" class="node">
<title>Node39</title>
<g id="a_node23"><a xlink:title=" ">
<polygon fill="white" stroke="#bfbfbf" points="2665.5,-118 2665.5,-137 2814.5,-137 2814.5,-118 2665.5,-118"/>
<text text-anchor="middle" x="2740" y="-125" font-family="Helvetica,sans-Serif" font-size="10.00">boost/range/range_fwd.hpp</text>
</a>
</g>
</g>
<!-- Node4&#45;&gt;Node39 -->
<g id="edge25" class="edge">
<title>Node4&#45;&gt;Node39</title>
<path fill="none" stroke="midnightblue" d="M3259.66,-184.21C3167.07,-177.84 2980.89,-163.65 2824,-143 2814.84,-141.79 2805.15,-140.31 2795.74,-138.77"/>
<polygon fill="midnightblue" stroke="midnightblue" points="2796.12,-135.28 2785.67,-137.07 2794.95,-142.18 2796.12,-135.28"/>
</g>
<!-- Node40 -->
<g id="node24" class="node">
<title>Node40</title>
<g id="a_node24"><a xlink:title=" ">
<polygon fill="white" stroke="#bfbfbf" points="2833,-112.5 2833,-142.5 2951,-142.5 2951,-112.5 2833,-112.5"/>
<text text-anchor="start" x="2841" y="-130.5" font-family="Helvetica,sans-Serif" font-size="10.00">boost/range/mutable</text>
<text text-anchor="middle" x="2892" y="-119.5" font-family="Helvetica,sans-Serif" font-size="10.00">_iterator.hpp</text>
</a>
</g>
</g>
<!-- Node4&#45;&gt;Node40 -->
<g id="edge26" class="edge">
<title>Node4&#45;&gt;Node40</title>
<path fill="none" stroke="midnightblue" d="M3259.97,-182.16C3189.16,-174.69 3065.89,-160.6 2961,-143 2960.9,-142.98 2960.8,-142.97 2960.69,-142.95"/>
<polygon fill="midnightblue" stroke="midnightblue" points="2961.49,-139.54 2951.03,-141.24 2960.27,-146.43 2961.49,-139.54"/>
</g>
<!-- Node41 -->
<g id="node25" class="node">
<title>Node41</title>
<g id="a_node25"><a xlink:title=" ">
<polygon fill="white" stroke="#bfbfbf" points="2969.5,-112.5 2969.5,-142.5 3116.5,-142.5 3116.5,-112.5 2969.5,-112.5"/>
<text text-anchor="start" x="2977.5" y="-130.5" font-family="Helvetica,sans-Serif" font-size="10.00">boost/range/detail</text>
<text text-anchor="middle" x="3043" y="-119.5" font-family="Helvetica,sans-Serif" font-size="10.00">/extract_optional_type.hpp</text>
</a>
</g>
</g>
<!-- Node4&#45;&gt;Node41 -->
<g id="edge27" class="edge">
<title>Node4&#45;&gt;Node41</title>
<path fill="none" stroke="midnightblue" d="M3278.6,-179.48C3236.74,-170.42 3169.58,-155.89 3117.65,-144.65"/>
<polygon fill="midnightblue" stroke="midnightblue" points="3118.33,-141.22 3107.81,-142.52 3116.85,-148.06 3118.33,-141.22"/>
</g>
<!-- Node42 -->
<g id="node26" class="node">
<title>Node42</title>
<g id="a_node26"><a xlink:title=" ">
<polygon fill="white" stroke="#bfbfbf" points="3135,-112.5 3135,-142.5 3245,-142.5 3245,-112.5 3135,-112.5"/>
<text text-anchor="start" x="3143" y="-130.5" font-family="Helvetica,sans-Serif" font-size="10.00">boost/preprocessor</text>
<text text-anchor="middle" x="3190" y="-119.5" font-family="Helvetica,sans-Serif" font-size="10.00">/cat.hpp</text>
</a>
</g>
</g>
<!-- Node4&#45;&gt;Node42 -->
<g id="edge28" class="edge">
<title>Node4&#45;&gt;Node42</title>
<path fill="none" stroke="midnightblue" d="M3299.66,-179.48C3281.43,-171 3252.9,-157.74 3229.5,-146.86"/>
<polygon fill="midnightblue" stroke="midnightblue" points="3230.71,-143.56 3220.17,-142.52 3227.76,-149.91 3230.71,-143.56"/>
</g>
<!-- Node43 -->
<g id="node27" class="node">
<title>Node43</title>
<g id="a_node27"><a xlink:title=" ">
<polygon fill="white" stroke="#bfbfbf" points="3263,-112.5 3263,-142.5 3373,-142.5 3373,-112.5 3263,-112.5"/>
<text text-anchor="start" x="3271" y="-130.5" font-family="Helvetica,sans-Serif" font-size="10.00">boost/preprocessor</text>
<text text-anchor="middle" x="3318" y="-119.5" font-family="Helvetica,sans-Serif" font-size="10.00">/config/config.hpp</text>
</a>
</g>
</g>
<!-- Node4&#45;&gt;Node43 -->
<g id="edge29" class="edge">
<title>Node4&#45;&gt;Node43</title>
<path fill="none" stroke="midnightblue" d="M3318,-179.48C3318,-172.47 3318,-162.19 3318,-152.7"/>
<polygon fill="midnightblue" stroke="midnightblue" points="3321.5,-152.52 3318,-142.52 3314.5,-152.52 3321.5,-152.52"/>
</g>
<!-- Node44 -->
<g id="node28" class="node">
<title>Node44</title>
<g id="a_node28"><a xlink:title=" ">
<polygon fill="white" stroke="#bfbfbf" points="3391,-118 3391,-137 3521,-137 3521,-118 3391,-118"/>
<text text-anchor="middle" x="3456" y="-125" font-family="Helvetica,sans-Serif" font-size="10.00">boost/mpl/has_xxx.hpp</text>
</a>
</g>
</g>
<!-- Node4&#45;&gt;Node44 -->
<g id="edge30" class="edge">
<title>Node4&#45;&gt;Node44</title>
<path fill="none" stroke="midnightblue" d="M3337.77,-179.48C3361.14,-169.4 3400.21,-152.55 3427,-141"/>
<polygon fill="midnightblue" stroke="midnightblue" points="3428.47,-144.18 3436.26,-137.01 3425.7,-137.75 3428.47,-144.18"/>
</g>
<!-- Node45 -->
<g id="node29" class="node">
<title>Node45</title>
<g id="a_node29"><a xlink:title=" ">
<polygon fill="white" stroke="#bfbfbf" points="3539,-118 3539,-137 3649,-137 3649,-118 3539,-118"/>
<text text-anchor="middle" x="3594" y="-125" font-family="Helvetica,sans-Serif" font-size="10.00">boost/mpl/bool.hpp</text>
</a>
</g>
</g>
<!-- Node4&#45;&gt;Node45 -->
<g id="edge31" class="edge">
<title>Node4&#45;&gt;Node45</title>
<path fill="none" stroke="midnightblue" d="M3359.07,-179.45C3401.81,-170.52 3470.65,-156.02 3530,-143 3535.42,-141.81 3541.1,-140.55 3546.75,-139.28"/>
<polygon fill="midnightblue" stroke="midnightblue" points="3547.81,-142.63 3556.79,-137.02 3546.27,-135.8 3547.81,-142.63"/>
</g>
<!-- Node46 -->
<g id="node30" class="node">
<title>Node46</title>
<g id="a_node30"><a xlink:title=" ">
<polygon fill="white" stroke="#bfbfbf" points="3667,-118 3667,-137 3801,-137 3801,-118 3667,-118"/>
<text text-anchor="middle" x="3734" y="-125" font-family="Helvetica,sans-Serif" font-size="10.00">boost/mpl/bool_fwd.hpp</text>
</a>
</g>
</g>
<!-- Node4&#45;&gt;Node46 -->
<g id="edge32" class="edge">
<title>Node4&#45;&gt;Node46</title>
<path fill="none" stroke="midnightblue" d="M3376.2,-181.32C3444.03,-173.3 3559.39,-158.92 3658,-143 3665.65,-141.77 3673.7,-140.35 3681.6,-138.9"/>
<polygon fill="midnightblue" stroke="midnightblue" points="3682.28,-142.33 3691.47,-137.06 3680.99,-135.45 3682.28,-142.33"/>
</g>
<!-- Node47 -->
<g id="node31" class="node">
<title>Node47</title>
<g id="a_node31"><a xlink:title=" ">
<polygon fill="white" stroke="#bfbfbf" points="3819,-112.5 3819,-142.5 3929,-142.5 3929,-112.5 3819,-112.5"/>
<text text-anchor="start" x="3827" y="-130.5" font-family="Helvetica,sans-Serif" font-size="10.00">boost/mpl/aux_/adl</text>
<text text-anchor="middle" x="3874" y="-119.5" font-family="Helvetica,sans-Serif" font-size="10.00">_barrier.hpp</text>
</a>
</g>
</g>
<!-- Node4&#45;&gt;Node47 -->
<g id="edge33" class="edge">
<title>Node4&#45;&gt;Node47</title>
<path fill="none" stroke="midnightblue" d="M3376.25,-185.16C3466.76,-180.2 3646.75,-168.15 3808.78,-143.05"/>
<polygon fill="midnightblue" stroke="midnightblue" points="3809.59,-146.47 3818.93,-141.46 3808.51,-139.55 3809.59,-146.47"/>
</g>
<!-- Node48 -->
<g id="node32" class="node">
<title>Node48</title>
<g id="a_node32"><a xlink:title=" ">
<polygon fill="white" stroke="#bfbfbf" points="3947.5,-112.5 3947.5,-142.5 4072.5,-142.5 4072.5,-112.5 3947.5,-112.5"/>
<text text-anchor="start" x="3955.5" y="-130.5" font-family="Helvetica,sans-Serif" font-size="10.00">boost/mpl/aux_/config</text>
<text text-anchor="middle" x="4010" y="-119.5" font-family="Helvetica,sans-Serif" font-size="10.00">/adl.hpp</text>
</a>
</g>
</g>
<!-- Node4&#45;&gt;Node48 -->
<g id="edge34" class="edge">
<title>Node4&#45;&gt;Node48</title>
<path fill="none" stroke="midnightblue" d="M3376.38,-186.22C3484.87,-182.38 3725.03,-171.36 3937.17,-142.99"/>
<polygon fill="midnightblue" stroke="midnightblue" points="3937.81,-146.43 3947.25,-141.62 3936.87,-139.5 3937.81,-146.43"/>
</g>
<!-- Node49 -->
<g id="node33" class="node">
<title>Node49</title>
<g id="a_node33"><a xlink:title=" ">
<polygon fill="white" stroke="#bfbfbf" points="4090.5,-112.5 4090.5,-142.5 4215.5,-142.5 4215.5,-112.5 4090.5,-112.5"/>
<text text-anchor="start" x="4098.5" y="-130.5" font-family="Helvetica,sans-Serif" font-size="10.00">boost/mpl/aux_/config</text>
<text text-anchor="middle" x="4153" y="-119.5" font-family="Helvetica,sans-Serif" font-size="10.00">/msvc.hpp</text>
</a>
</g>
</g>
<!-- Node4&#45;&gt;Node49 -->
<g id="edge35" class="edge">
<title>Node4&#45;&gt;Node49</title>
<path fill="none" stroke="midnightblue" d="M3376.25,-187.4C3502.76,-185.48 3812.17,-177.48 4080.05,-143.13"/>
<polygon fill="midnightblue" stroke="midnightblue" points="4080.9,-146.55 4090.36,-141.8 4079.99,-139.61 4080.9,-146.55"/>
</g>
<!-- Node50 -->
<g id="node34" class="node">
<title>Node50</title>
<g id="a_node34"><a xlink:title=" ">
<polygon fill="white" stroke="#bfbfbf" points="4233.5,-112.5 4233.5,-142.5 4358.5,-142.5 4358.5,-112.5 4233.5,-112.5"/>
<text text-anchor="start" x="4241.5" y="-130.5" font-family="Helvetica,sans-Serif" font-size="10.00">boost/mpl/aux_/config</text>
<text text-anchor="middle" x="4296" y="-119.5" font-family="Helvetica,sans-Serif" font-size="10.00">/intel.hpp</text>
</a>
</g>
</g>
<!-- Node4&#45;&gt;Node50 -->
<g id="edge36" class="edge">
<title>Node4&#45;&gt;Node50</title>
<path fill="none" stroke="midnightblue" d="M3376.1,-188.17C3518.88,-187.92 3898.41,-183.31 4223.29,-143.09"/>
<polygon fill="midnightblue" stroke="midnightblue" points="4223.88,-146.54 4233.37,-141.83 4223.01,-139.6 4223.88,-146.54"/>
</g>
<!-- Node51 -->
<g id="node35" class="node">
<title>Node51</title>
<g id="a_node35"><a xlink:title=" ">
<polygon fill="white" stroke="#bfbfbf" points="4376.5,-112.5 4376.5,-142.5 4501.5,-142.5 4501.5,-112.5 4376.5,-112.5"/>
<text text-anchor="start" x="4384.5" y="-130.5" font-family="Helvetica,sans-Serif" font-size="10.00">boost/mpl/aux_/config</text>
<text text-anchor="middle" x="4439" y="-119.5" font-family="Helvetica,sans-Serif" font-size="10.00">/gcc.hpp</text>
</a>
</g>
</g>
<!-- Node4&#45;&gt;Node51 -->
<g id="edge37" class="edge">
<title>Node4&#45;&gt;Node51</title>
<path fill="none" stroke="midnightblue" d="M3376.19,-186.72C3564.08,-182.41 4154.22,-167.35 4366.26,-143.05"/>
<polygon fill="midnightblue" stroke="midnightblue" points="4366.85,-146.51 4376.37,-141.85 4366.03,-139.56 4366.85,-146.51"/>
</g>
<!-- Node52 -->
<g id="node36" class="node">
<title>Node52</title>
<g id="a_node36"><a xlink:title=" ">
<polygon fill="white" stroke="#bfbfbf" points="4519.5,-112.5 4519.5,-142.5 4644.5,-142.5 4644.5,-112.5 4519.5,-112.5"/>
<text text-anchor="start" x="4527.5" y="-130.5" font-family="Helvetica,sans-Serif" font-size="10.00">boost/mpl/aux_/config</text>
<text text-anchor="middle" x="4582" y="-119.5" font-family="Helvetica,sans-Serif" font-size="10.00">/workaround.hpp</text>
</a>
</g>
</g>
<!-- Node4&#45;&gt;Node52 -->
<g id="edge38" class="edge">
<title>Node4&#45;&gt;Node52</title>
<path fill="none" stroke="midnightblue" d="M3376,-187.07C3580.41,-183.6 4267.5,-170.26 4509.23,-143.05"/>
<polygon fill="midnightblue" stroke="midnightblue" points="4509.84,-146.5 4519.37,-141.87 4509.03,-139.55 4509.84,-146.5"/>
</g>
<!-- Node53 -->
<g id="node37" class="node">
<title>Node53</title>
<g id="a_node37"><a xlink:title=" ">
<polygon fill="white" stroke="#bfbfbf" points="4663,-112.5 4663,-142.5 4769,-142.5 4769,-112.5 4663,-112.5"/>
<text text-anchor="start" x="4671" y="-130.5" font-family="Helvetica,sans-Serif" font-size="10.00">boost/mpl/integral</text>
<text text-anchor="middle" x="4716" y="-119.5" font-family="Helvetica,sans-Serif" font-size="10.00">_c_tag.hpp</text>
</a>
</g>
</g>
<!-- Node4&#45;&gt;Node53 -->
<g id="edge39" class="edge">
<title>Node4&#45;&gt;Node53</title>
<path fill="none" stroke="midnightblue" d="M3376.33,-187.56C3596.97,-185.65 4381.24,-176.68 4652.48,-142.98"/>
<polygon fill="midnightblue" stroke="midnightblue" points="4653.22,-146.41 4662.69,-141.67 4652.32,-139.47 4653.22,-146.41"/>
</g>
<!-- Node54 -->
<g id="node38" class="node">
<title>Node54</title>
<g id="a_node38"><a xlink:title=" ">
<polygon fill="white" stroke="#bfbfbf" points="4787.5,-112.5 4787.5,-142.5 4912.5,-142.5 4912.5,-112.5 4787.5,-112.5"/>
<text text-anchor="start" x="4795.5" y="-130.5" font-family="Helvetica,sans-Serif" font-size="10.00">boost/mpl/aux_/config</text>
<text text-anchor="middle" x="4850" y="-119.5" font-family="Helvetica,sans-Serif" font-size="10.00">/static_constant.hpp</text>
</a>
</g>
</g>
<!-- Node4&#45;&gt;Node54 -->
<g id="edge40" class="edge">
<title>Node4&#45;&gt;Node54</title>
<path fill="none" stroke="midnightblue" d="M3376.4,-187.51C3610.04,-185.35 4478.77,-175.35 4776.91,-142.94"/>
<polygon fill="midnightblue" stroke="midnightblue" points="4777.72,-146.37 4787.27,-141.78 4776.94,-139.41 4777.72,-146.37"/>
</g>
<!-- Node55 -->
<g id="node39" class="node">
<title>Node55</title>
<g id="a_node39"><a xlink:title=" ">
<polygon fill="white" stroke="#bfbfbf" points="4930.5,-118 4930.5,-137 5085.5,-137 5085.5,-118 4930.5,-118"/>
<text text-anchor="middle" x="5008" y="-125" font-family="Helvetica,sans-Serif" font-size="10.00">boost/mpl/aux_/na_spec.hpp</text>
</a>
</g>
</g>
<!-- Node4&#45;&gt;Node55 -->
<g id="edge41" class="edge">
<title>Node4&#45;&gt;Node55</title>
<path fill="none" stroke="midnightblue" d="M3376.1,-187.45C3626.28,-184.93 4613.03,-173.23 4922,-143 4932.51,-141.97 4943.67,-140.43 4954.35,-138.73"/>
<polygon fill="midnightblue" stroke="midnightblue" points="4955.11,-142.15 4964.41,-137.06 4953.97,-135.24 4955.11,-142.15"/>
</g>
<!-- Node56 -->
<g id="node40" class="node">
<title>Node56</title>
<g id="a_node40"><a xlink:title=" ">
<polygon fill="white" stroke="#bfbfbf" points="5103.5,-118 5103.5,-137 5252.5,-137 5252.5,-118 5103.5,-118"/>
<text text-anchor="middle" x="5178" y="-125" font-family="Helvetica,sans-Serif" font-size="10.00">boost/mpl/lambda_fwd.hpp</text>
</a>
</g>
</g>
<!-- Node4&#45;&gt;Node56 -->
<g id="edge42" class="edge">
<title>Node4&#45;&gt;Node56</title>
<path fill="none" stroke="midnightblue" d="M3376.44,-187.68C3643.57,-186.04 4750.29,-177.29 5095,-143 5105.15,-141.99 5115.93,-140.45 5126.25,-138.75"/>
<polygon fill="midnightblue" stroke="midnightblue" points="5127.11,-142.16 5136.37,-137.01 5125.92,-135.26 5127.11,-142.16"/>
</g>
<!-- Node57 -->
<g id="node41" class="node">
<title>Node57</title>
<g id="a_node41"><a xlink:title=" ">
<polygon fill="white" stroke="#bfbfbf" points="5271,-118 5271,-137 5405,-137 5405,-118 5271,-118"/>
<text text-anchor="middle" x="5338" y="-125" font-family="Helvetica,sans-Serif" font-size="10.00">boost/mpl/void_fwd.hpp</text>
</a>
</g>
</g>
<!-- Node4&#45;&gt;Node57 -->
<g id="edge43" class="edge">
<title>Node4&#45;&gt;Node57</title>
<path fill="none" stroke="midnightblue" d="M3376.2,-187.95C3658.02,-187.52 4882.66,-183.3 5262,-143 5271.12,-142.03 5280.79,-140.55 5290.05,-138.89"/>
<polygon fill="midnightblue" stroke="midnightblue" points="5290.73,-142.33 5299.91,-137.04 5289.44,-135.45 5290.73,-142.33"/>
</g>
<!-- Node58 -->
<g id="node42" class="node">
<title>Node58</title>
<g id="a_node42"><a xlink:title=" ">
<polygon fill="white" stroke="#bfbfbf" points="5423,-118 5423,-137 5551,-137 5551,-118 5423,-118"/>
<text text-anchor="middle" x="5487" y="-125" font-family="Helvetica,sans-Serif" font-size="10.00">boost/mpl/aux_/na.hpp</text>
</a>
</g>
</g>
<!-- Node4&#45;&gt;Node58 -->
<g id="edge44" class="edge">
<title>Node4&#45;&gt;Node58</title>
<path fill="none" stroke="midnightblue" d="M3376.3,-188.12C3671.47,-188.54 5003.11,-187.87 5414,-143 5422.59,-142.06 5431.67,-140.63 5440.39,-139.01"/>
<polygon fill="midnightblue" stroke="midnightblue" points="5441.28,-142.41 5450.43,-137.06 5439.95,-135.54 5441.28,-142.41"/>
</g>
<!-- Node59 -->
<g id="node43" class="node">
<title>Node59</title>
<g id="a_node43"><a xlink:title=" ">
<polygon fill="white" stroke="#bfbfbf" points="5569.5,-118 5569.5,-137 5720.5,-137 5720.5,-118 5569.5,-118"/>
<text text-anchor="middle" x="5645" y="-125" font-family="Helvetica,sans-Serif" font-size="10.00">boost/mpl/aux_/na_fwd.hpp</text>
</a>
</g>
</g>
<!-- Node4&#45;&gt;Node59 -->
<g id="edge45" class="edge">
<title>Node4&#45;&gt;Node59</title>
<path fill="none" stroke="midnightblue" d="M3376.23,-188.01C3683.39,-187.86 5117.92,-184.91 5560,-143 5570.5,-142 5581.67,-140.46 5592.33,-138.74"/>
<polygon fill="midnightblue" stroke="midnightblue" points="5593.08,-142.16 5602.36,-137.05 5591.92,-135.26 5593.08,-142.16"/>
</g>
<!-- Node60 -->
<g id="node44" class="node">
<title>Node60</title>
<g id="a_node44"><a xlink:title=" ">
<polygon fill="white" stroke="#bfbfbf" points="5738.5,-112.5 5738.5,-142.5 5863.5,-142.5 5863.5,-112.5 5738.5,-112.5"/>
<text text-anchor="start" x="5746.5" y="-130.5" font-family="Helvetica,sans-Serif" font-size="10.00">boost/mpl/aux_/config</text>
<text text-anchor="middle" x="5801" y="-119.5" font-family="Helvetica,sans-Serif" font-size="10.00">/ctps.hpp</text>
</a>
</g>
</g>
<!-- Node4&#45;&gt;Node60 -->
<g id="edge46" class="edge">
<title>Node4&#45;&gt;Node60</title>
<path fill="none" stroke="midnightblue" d="M3376.2,-187.55C3716.67,-184.85 5445.04,-169.94 5728.18,-142.98"/>
<polygon fill="midnightblue" stroke="midnightblue" points="5728.79,-146.44 5738.38,-141.94 5728.07,-139.47 5728.79,-146.44"/>
</g>
<!-- Node61 -->
<g id="node45" class="node">
<title>Node61</title>
<g id="a_node45"><a xlink:title=" ">
<polygon fill="white" stroke="#bfbfbf" points="5881.5,-112.5 5881.5,-142.5 6006.5,-142.5 6006.5,-112.5 5881.5,-112.5"/>
<text text-anchor="start" x="5889.5" y="-130.5" font-family="Helvetica,sans-Serif" font-size="10.00">boost/mpl/aux_/config</text>
<text text-anchor="middle" x="5944" y="-119.5" font-family="Helvetica,sans-Serif" font-size="10.00">/lambda.hpp</text>
</a>
</g>
</g>
<!-- Node4&#45;&gt;Node61 -->
<g id="edge47" class="edge">
<title>Node4&#45;&gt;Node61</title>
<path fill="none" stroke="midnightblue" d="M3376.13,-187.62C3728.4,-185.22 5571.85,-171.43 5871,-143"/>
<polygon fill="midnightblue" stroke="midnightblue" points="5871.79,-146.44 5881.38,-141.94 5871.07,-139.47 5871.79,-146.44"/>
</g>
<!-- Node62 -->
<g id="node46" class="node">
<title>Node62</title>
<g id="a_node46"><a xlink:title=" ">
<polygon fill="white" stroke="#bfbfbf" points="6024.5,-112.5 6024.5,-142.5 6149.5,-142.5 6149.5,-112.5 6024.5,-112.5"/>
<text text-anchor="start" x="6032.5" y="-130.5" font-family="Helvetica,sans-Serif" font-size="10.00">boost/mpl/aux_/config</text>
<text text-anchor="middle" x="6087" y="-119.5" font-family="Helvetica,sans-Serif" font-size="10.00">/ttp.hpp</text>
</a>
</g>
</g>
<!-- Node4&#45;&gt;Node62 -->
<g id="edge48" class="edge">
<title>Node4&#45;&gt;Node62</title>
<path fill="none" stroke="midnightblue" d="M3376.08,-187.68C3740,-185.56 5700.79,-172.9 6014.34,-142.97"/>
<polygon fill="midnightblue" stroke="midnightblue" points="6014.79,-146.44 6024.38,-141.94 6014.08,-139.48 6014.79,-146.44"/>
</g>
<!-- Node63 -->
<g id="node47" class="node">
<title>Node63</title>
<g id="a_node47"><a xlink:title=" ">
<polygon fill="white" stroke="#bfbfbf" points="6168,-118 6168,-137 6270,-137 6270,-118 6168,-118"/>
<text text-anchor="middle" x="6219" y="-125" font-family="Helvetica,sans-Serif" font-size="10.00">boost/mpl/int.hpp</text>
</a>
</g>
</g>
<!-- Node4&#45;&gt;Node63 -->
<g id="edge49" class="edge">
<title>Node4&#45;&gt;Node63</title>
<path fill="none" stroke="midnightblue" d="M3376.08,-187.85C3755.48,-186.79 5874.03,-179.24 6159,-143 6165.71,-142.15 6172.77,-140.83 6179.58,-139.33"/>
<polygon fill="midnightblue" stroke="midnightblue" points="6180.4,-142.74 6189.33,-137.04 6178.8,-135.92 6180.4,-142.74"/>
</g>
<!-- Node64 -->
<g id="node48" class="node">
<title>Node64</title>
<g id="a_node48"><a xlink:title=" ">
<polygon fill="white" stroke="#bfbfbf" points="6288.5,-118 6288.5,-137 6413.5,-137 6413.5,-118 6288.5,-118"/>
<text text-anchor="middle" x="6351" y="-125" font-family="Helvetica,sans-Serif" font-size="10.00">boost/mpl/int_fwd.hpp</text>
</a>
</g>
</g>
<!-- Node4&#45;&gt;Node64 -->
<g id="edge50" class="edge">
<title>Node4&#45;&gt;Node64</title>
<path fill="none" stroke="midnightblue" d="M3376.31,-187.76C3765.54,-186.06 5980.76,-175.02 6279,-143 6287.57,-142.08 6296.62,-140.64 6305.32,-139.01"/>
<polygon fill="midnightblue" stroke="midnightblue" points="6306.18,-142.41 6315.31,-137.03 6304.82,-135.54 6306.18,-142.41"/>
</g>
<!-- Node65 -->
<g id="node49" class="node">
<title>Node65</title>
<g id="a_node49"><a xlink:title=" ">
<polygon fill="white" stroke="#bfbfbf" points="6432,-112.5 6432,-142.5 6546,-142.5 6546,-112.5 6432,-112.5"/>
<text text-anchor="start" x="6440" y="-130.5" font-family="Helvetica,sans-Serif" font-size="10.00">boost/mpl/aux_/nttp</text>
<text text-anchor="middle" x="6489" y="-119.5" font-family="Helvetica,sans-Serif" font-size="10.00">_decl.hpp</text>
</a>
</g>
</g>
<!-- Node4&#45;&gt;Node65 -->
<g id="edge51" class="edge">
<title>Node4&#45;&gt;Node65</title>
<path fill="none" stroke="midnightblue" d="M3376.23,-187.86C3772.24,-186.84 6064.4,-179.44 6421.87,-142.88"/>
<polygon fill="midnightblue" stroke="midnightblue" points="6422.32,-146.35 6431.88,-141.79 6421.56,-139.39 6422.32,-146.35"/>
</g>
<!-- Node66 -->
<g id="node50" class="node">
<title>Node66</title>
<g id="a_node50"><a xlink:title=" ">
<polygon fill="white" stroke="#bfbfbf" points="6564.5,-112.5 6564.5,-142.5 6689.5,-142.5 6689.5,-112.5 6564.5,-112.5"/>
<text text-anchor="start" x="6572.5" y="-130.5" font-family="Helvetica,sans-Serif" font-size="10.00">boost/mpl/aux_/config</text>
<text text-anchor="middle" x="6627" y="-119.5" font-family="Helvetica,sans-Serif" font-size="10.00">/nttp.hpp</text>
</a>
</g>
</g>
<!-- Node4&#45;&gt;Node66 -->
<g id="edge52" class="edge">
<title>Node4&#45;&gt;Node66</title>
<path fill="none" stroke="midnightblue" d="M3376.05,-187.84C3781.26,-186.64 6181.13,-178.12 6554.09,-142.87"/>
<polygon fill="midnightblue" stroke="midnightblue" points="6554.68,-146.32 6564.28,-141.84 6553.98,-139.36 6554.68,-146.32"/>
</g>
<!-- Node12&#45;&gt;Node2 -->
<g id="edge14" class="edge">
<title>Node12&#45;&gt;Node2</title>
<path fill="none" stroke="midnightblue" d="M127.14,-117.99C137.07,-115.8 147.92,-113.61 158,-112 292.54,-90.51 451.64,-77.37 538.8,-71.2"/>
<polygon fill="midnightblue" stroke="midnightblue" points="539.07,-74.69 548.81,-70.51 538.59,-67.71 539.07,-74.69"/>
</g>
</g>
</svg>
