<?xml version="1.0" encoding="UTF-8" standalone="no"?>
<!DOCTYPE svg PUBLIC "-//W3C//DTD SVG 1.1//EN"
 "http://www.w3.org/Graphics/SVG/1.1/DTD/svg11.dtd">
<!-- Generated by graphviz version 2.38.0 (20140413.2041)
 -->
<!-- Title: boost/ui/dialog.hpp Pages: 1 -->
<svg width="6090pt" height="263pt"
 viewBox="0.00 0.00 6090.09 263.00" xmlns="http://www.w3.org/2000/svg" xmlns:xlink="http://www.w3.org/1999/xlink">
<g id="graph0" class="graph" transform="scale(1 1) rotate(0) translate(4 259)">
<title>boost/ui/dialog.hpp</title>
<polygon fill="white" stroke="none" points="-4,4 -4,-259 6086.09,-259 6086.09,4 -4,4"/>
<!-- Node1 -->
<g id="node1" class="node"><title>Node1</title>
<polygon fill="#bfbfbf" stroke="black" points="4466.9,-235.5 4466.9,-254.5 4564.9,-254.5 4564.9,-235.5 4466.9,-235.5"/>
<text text-anchor="middle" x="4515.9" y="-242.5" font-family="Helvetica,sans-Serif" font-size="10.00">boost/ui/dialog.hpp</text>
</g>
<!-- Node2 -->
<g id="node2" class="node"><title>Node2</title>
<g id="a_node2"><a xlink:href="config_8hpp.html" target="_top" xlink:title="Configuration options. ">
<polygon fill="white" stroke="black" points="372.401,-56.5 372.401,-75.5 471.401,-75.5 471.401,-56.5 372.401,-56.5"/>
<text text-anchor="middle" x="421.901" y="-63.5" font-family="Helvetica,sans-Serif" font-size="10.00">boost/ui/config.hpp</text>
</a>
</g>
</g>
<!-- Node1&#45;&gt;Node2 -->
<g id="edge1" class="edge"><title>Node1&#45;&gt;Node2</title>
<path fill="none" stroke="midnightblue" d="M4565.02,-242.687C4824.1,-235.531 6021.98,-199.46 6074.9,-143 6084.32,-132.948 6084.6,-121.781 6074.9,-112 6022.97,-59.6576 1083.72,-65.9377 481.772,-66.8978"/>
<polygon fill="midnightblue" stroke="midnightblue" points="481.577,-63.398 471.582,-66.9142 481.588,-70.398 481.577,-63.398"/>
</g>
<!-- Node4 -->
<g id="node4" class="node"><title>Node4</title>
<g id="a_node4"><a xlink:href="window_8hpp.html" target="_top" xlink:title="Window class. ">
<polygon fill="white" stroke="red" points="2884.9,-179.5 2884.9,-198.5 2990.9,-198.5 2990.9,-179.5 2884.9,-179.5"/>
<text text-anchor="middle" x="2937.9" y="-186.5" font-family="Helvetica,sans-Serif" font-size="10.00">boost/ui/window.hpp</text>
</a>
</g>
</g>
<!-- Node1&#45;&gt;Node4 -->
<g id="edge3" class="edge"><title>Node1&#45;&gt;Node4</title>
<path fill="none" stroke="midnightblue" d="M4466.51,-242.31C4235.31,-234.398 3260.42,-201.037 3001.35,-192.171"/>
<polygon fill="midnightblue" stroke="midnightblue" points="3001.1,-188.661 2990.99,-191.817 3000.86,-195.657 3001.1,-188.661"/>
</g>
<!-- Node3 -->
<g id="node3" class="node"><title>Node3</title>
<polygon fill="white" stroke="#bfbfbf" points="163.401,-0.5 163.401,-19.5 252.401,-19.5 252.401,-0.5 163.401,-0.5"/>
<text text-anchor="middle" x="207.901" y="-7.5" font-family="Helvetica,sans-Serif" font-size="10.00">boost/config.hpp</text>
</g>
<!-- Node2&#45;&gt;Node3 -->
<g id="edge2" class="edge"><title>Node2&#45;&gt;Node3</title>
<path fill="none" stroke="midnightblue" d="M387.992,-56.4435C351.051,-47.1221 291.847,-32.1828 251.483,-21.9972"/>
<polygon fill="midnightblue" stroke="midnightblue" points="252.204,-18.5695 241.651,-19.5164 250.491,-25.3568 252.204,-18.5695"/>
</g>
<!-- Node4&#45;&gt;Node2 -->
<g id="edge4" class="edge"><title>Node4&#45;&gt;Node2</title>
<path fill="none" stroke="midnightblue" d="M2884.71,-187.846C2563.5,-186.793 893.254,-179.571 791.901,-143 771.073,-135.485 773.266,-120.691 752.901,-112 705.33,-91.6983 563.357,-77.841 481.628,-71.3037"/>
<polygon fill="midnightblue" stroke="midnightblue" points="481.728,-67.8009 471.485,-70.5052 481.179,-74.7793 481.728,-67.8009"/>
</g>
<!-- Node4&#45;&gt;Node3 -->
<g id="edge5" class="edge"><title>Node4&#45;&gt;Node3</title>
<path fill="none" stroke="midnightblue" d="M2884.83,-187.691C2491.1,-185.338 39.1189,-169.624 12.9009,-143 -41.2056,-88.0547 90.2907,-42.4151 163.25,-22.1984"/>
<polygon fill="midnightblue" stroke="midnightblue" points="164.398,-25.5137 173.131,-19.5161 162.564,-18.7582 164.398,-25.5137"/>
</g>
<!-- Node5 -->
<g id="node5" class="node"><title>Node5</title>
<polygon fill="white" stroke="#bfbfbf" points="141.901,-118 141.901,-137 251.901,-137 251.901,-118 141.901,-118"/>
<text text-anchor="middle" x="196.901" y="-125" font-family="Helvetica,sans-Serif" font-size="10.00">boost/config/user.hpp</text>
</g>
<!-- Node4&#45;&gt;Node5 -->
<g id="edge6" class="edge"><title>Node4&#45;&gt;Node5</title>
<path fill="none" stroke="midnightblue" d="M2884.89,-187.766C2532.15,-186.121 530.08,-175.404 260.901,-143 253.591,-142.12 245.893,-140.76 238.469,-139.219"/>
<polygon fill="midnightblue" stroke="midnightblue" points="239.097,-135.774 228.578,-137.033 237.587,-142.609 239.097,-135.774"/>
</g>
<!-- Node6 -->
<g id="node6" class="node"><title>Node6</title>
<polygon fill="white" stroke="#bfbfbf" points="269.901,-112.5 269.901,-142.5 407.901,-142.5 407.901,-112.5 269.901,-112.5"/>
<text text-anchor="start" x="277.901" y="-130.5" font-family="Helvetica,sans-Serif" font-size="10.00">boost/config/detail</text>
<text text-anchor="middle" x="338.901" y="-119.5" font-family="Helvetica,sans-Serif" font-size="10.00">/select_compiler_config.hpp</text>
</g>
<!-- Node4&#45;&gt;Node6 -->
<g id="edge7" class="edge"><title>Node4&#45;&gt;Node6</title>
<path fill="none" stroke="midnightblue" d="M2884.88,-188.235C2570.05,-189.456 942.443,-193.249 418.456,-142.886"/>
<polygon fill="midnightblue" stroke="midnightblue" points="418.466,-139.371 408.172,-141.877 417.782,-146.337 418.466,-139.371"/>
</g>
<!-- Node7 -->
<g id="node7" class="node"><title>Node7</title>
<polygon fill="white" stroke="#bfbfbf" points="426.401,-112.5 426.401,-142.5 563.401,-142.5 563.401,-112.5 426.401,-112.5"/>
<text text-anchor="start" x="434.401" y="-130.5" font-family="Helvetica,sans-Serif" font-size="10.00">boost/config/detail</text>
<text text-anchor="middle" x="494.901" y="-119.5" font-family="Helvetica,sans-Serif" font-size="10.00">/select_platform_config.hpp</text>
</g>
<!-- Node4&#45;&gt;Node7 -->
<g id="edge8" class="edge"><title>Node4&#45;&gt;Node7</title>
<path fill="none" stroke="midnightblue" d="M2884.71,-188.18C2581.1,-189.027 1063.94,-190.813 573.692,-142.924"/>
<polygon fill="midnightblue" stroke="midnightblue" points="574.014,-139.439 563.715,-141.928 573.318,-146.404 574.014,-139.439"/>
</g>
<!-- Node8 -->
<g id="node8" class="node"><title>Node8</title>
<polygon fill="white" stroke="#bfbfbf" points="581.901,-112.5 581.901,-142.5 677.901,-142.5 677.901,-112.5 581.901,-112.5"/>
<text text-anchor="start" x="589.901" y="-130.5" font-family="Helvetica,sans-Serif" font-size="10.00">boost/config/detail</text>
<text text-anchor="middle" x="629.901" y="-119.5" font-family="Helvetica,sans-Serif" font-size="10.00">/suffix.hpp</text>
</g>
<!-- Node4&#45;&gt;Node8 -->
<g id="edge9" class="edge"><title>Node4&#45;&gt;Node8</title>
<path fill="none" stroke="midnightblue" d="M2884.87,-187.668C2570.3,-185.602 954.187,-173.626 687.894,-142.793"/>
<polygon fill="midnightblue" stroke="midnightblue" points="688.308,-139.317 677.95,-141.547 687.438,-146.263 688.308,-139.317"/>
</g>
<!-- Node9 -->
<g id="node9" class="node"><title>Node9</title>
<polygon fill="white" stroke="#bfbfbf" points="695.901,-118 695.901,-137 743.901,-137 743.901,-118 695.901,-118"/>
<text text-anchor="middle" x="719.901" y="-125" font-family="Helvetica,sans-Serif" font-size="10.00">limits.h</text>
</g>
<!-- Node4&#45;&gt;Node9 -->
<g id="edge10" class="edge"><title>Node4&#45;&gt;Node9</title>
<path fill="none" stroke="midnightblue" d="M2884.72,-187.993C2571.35,-187.806 972.241,-184.796 757.901,-143 754.643,-142.365 751.301,-141.474 748.015,-140.443"/>
<polygon fill="midnightblue" stroke="midnightblue" points="749.061,-137.1 738.467,-137.045 746.714,-143.695 749.061,-137.1"/>
</g>
<!-- Node10 -->
<g id="node10" class="node"><title>Node10</title>
<g id="a_node10"><a xlink:href="widget_8hpp.html" target="_top" xlink:title="Widget class. ">
<polygon fill="white" stroke="red" points="22.4009,-118 22.4009,-137 123.401,-137 123.401,-118 22.4009,-118"/>
<text text-anchor="middle" x="72.9009" y="-125" font-family="Helvetica,sans-Serif" font-size="10.00">boost/ui/widget.hpp</text>
</a>
</g>
</g>
<!-- Node4&#45;&gt;Node10 -->
<g id="edge11" class="edge"><title>Node4&#45;&gt;Node10</title>
<path fill="none" stroke="midnightblue" d="M2884.71,-187.854C2521.71,-186.768 415.314,-178.94 132.901,-143 126.187,-142.146 119.134,-140.83 112.318,-139.333"/>
<polygon fill="midnightblue" stroke="midnightblue" points="113.103,-135.923 102.568,-137.043 111.502,-142.737 113.103,-135.923"/>
</g>
<!-- Node11 -->
<g id="node11" class="node"><title>Node11</title>
<polygon fill="white" stroke="#bfbfbf" points="800.401,-118 800.401,-137 899.401,-137 899.401,-118 800.401,-118"/>
<text text-anchor="middle" x="849.901" y="-125" font-family="Helvetica,sans-Serif" font-size="10.00">boost/ui/config.hpp</text>
</g>
<!-- Node4&#45;&gt;Node11 -->
<g id="edge13" class="edge"><title>Node4&#45;&gt;Node11</title>
<path fill="none" stroke="midnightblue" d="M2884.6,-187.515C2584.28,-184.69 1109.53,-169.552 908.901,-143 902.45,-142.146 895.683,-140.862 889.125,-139.404"/>
<polygon fill="midnightblue" stroke="midnightblue" points="889.609,-135.922 879.07,-137.008 887.986,-142.731 889.609,-135.922"/>
</g>
<!-- Node12 -->
<g id="node12" class="node"><title>Node12</title>
<polygon fill="white" stroke="#bfbfbf" points="917.401,-118 917.401,-137 1014.4,-137 1014.4,-118 917.401,-118"/>
<text text-anchor="middle" x="965.901" y="-125" font-family="Helvetica,sans-Serif" font-size="10.00">boost/ui/coord.hpp</text>
</g>
<!-- Node4&#45;&gt;Node12 -->
<g id="edge14" class="edge"><title>Node4&#45;&gt;Node12</title>
<path fill="none" stroke="midnightblue" d="M2884.81,-187.454C2595.24,-184.381 1212.48,-168.468 1023.9,-143 1017.56,-142.143 1010.9,-140.857 1004.45,-139.399"/>
<polygon fill="midnightblue" stroke="midnightblue" points="1005.11,-135.957 994.568,-137.002 1003.46,-142.76 1005.11,-135.957"/>
</g>
<!-- Node13 -->
<g id="node13" class="node"><title>Node13</title>
<polygon fill="white" stroke="#bfbfbf" points="1032.4,-118 1032.4,-137 1135.4,-137 1135.4,-118 1032.4,-118"/>
<text text-anchor="middle" x="1083.9" y="-125" font-family="Helvetica,sans-Serif" font-size="10.00">boost/geometry.hpp</text>
</g>
<!-- Node4&#45;&gt;Node13 -->
<g id="edge15" class="edge"><title>Node4&#45;&gt;Node13</title>
<path fill="none" stroke="midnightblue" d="M2884.61,-188.158C2625.32,-188.699 1494.02,-188.371 1144.9,-143 1138.16,-142.123 1131.07,-140.811 1124.21,-139.328"/>
<polygon fill="midnightblue" stroke="midnightblue" points="1124.92,-135.899 1114.39,-137.063 1123.35,-142.72 1124.92,-135.899"/>
</g>
<!-- Node14 -->
<g id="node14" class="node"><title>Node14</title>
<polygon fill="white" stroke="#bfbfbf" points="1153.9,-118 1153.9,-137 1299.9,-137 1299.9,-118 1153.9,-118"/>
<text text-anchor="middle" x="1226.9" y="-125" font-family="Helvetica,sans-Serif" font-size="10.00">boost/geometry/geometry.hpp</text>
</g>
<!-- Node4&#45;&gt;Node14 -->
<g id="edge16" class="edge"><title>Node4&#45;&gt;Node14</title>
<path fill="none" stroke="midnightblue" d="M2884.74,-187.586C2640.56,-185.524 1625.03,-175.139 1308.9,-143 1298.98,-141.991 1288.45,-140.473 1278.35,-138.793"/>
<polygon fill="midnightblue" stroke="midnightblue" points="1278.9,-135.335 1268.45,-137.072 1277.7,-142.232 1278.9,-135.335"/>
</g>
<!-- Node15 -->
<g id="node15" class="node"><title>Node15</title>
<polygon fill="white" stroke="#bfbfbf" points="1317.9,-112.5 1317.9,-142.5 1423.9,-142.5 1423.9,-112.5 1317.9,-112.5"/>
<text text-anchor="start" x="1325.9" y="-130.5" font-family="Helvetica,sans-Serif" font-size="10.00">boost/geometry/core</text>
<text text-anchor="middle" x="1370.9" y="-119.5" font-family="Helvetica,sans-Serif" font-size="10.00">/closure.hpp</text>
</g>
<!-- Node4&#45;&gt;Node15 -->
<g id="edge17" class="edge"><title>Node4&#45;&gt;Node15</title>
<path fill="none" stroke="midnightblue" d="M2884.52,-187.834C2654.11,-186.898 1743.02,-180.909 1434.49,-142.985"/>
<polygon fill="midnightblue" stroke="midnightblue" points="1434.57,-139.468 1424.21,-141.681 1433.69,-146.412 1434.57,-139.468"/>
</g>
<!-- Node16 -->
<g id="node16" class="node"><title>Node16</title>
<polygon fill="white" stroke="#bfbfbf" points="1441.9,-118 1441.9,-137 1549.9,-137 1549.9,-118 1441.9,-118"/>
<text text-anchor="middle" x="1495.9" y="-125" font-family="Helvetica,sans-Serif" font-size="10.00">boost/mpl/assert.hpp</text>
</g>
<!-- Node4&#45;&gt;Node16 -->
<g id="edge18" class="edge"><title>Node4&#45;&gt;Node16</title>
<path fill="none" stroke="midnightblue" d="M2884.64,-187.614C2664.28,-185.81 1823.13,-176.805 1559.9,-143 1552.68,-142.072 1545.07,-140.703 1537.72,-139.172"/>
<polygon fill="midnightblue" stroke="midnightblue" points="1538.44,-135.746 1527.92,-137.008 1536.93,-142.581 1538.44,-135.746"/>
</g>
<!-- Node17 -->
<g id="node17" class="node"><title>Node17</title>
<polygon fill="white" stroke="#bfbfbf" points="1568.4,-118 1568.4,-137 1663.4,-137 1663.4,-118 1568.4,-118"/>
<text text-anchor="middle" x="1615.9" y="-125" font-family="Helvetica,sans-Serif" font-size="10.00">boost/mpl/not.hpp</text>
</g>
<!-- Node4&#45;&gt;Node17 -->
<g id="edge19" class="edge"><title>Node4&#45;&gt;Node17</title>
<path fill="none" stroke="midnightblue" d="M2884.8,-187.621C2676.17,-185.897 1912.46,-177.329 1672.9,-143 1666.88,-142.137 1660.57,-140.89 1654.44,-139.485"/>
<polygon fill="midnightblue" stroke="midnightblue" points="1654.91,-135.997 1644.37,-137.011 1653.24,-142.795 1654.91,-135.997"/>
</g>
<!-- Node18 -->
<g id="node18" class="node"><title>Node18</title>
<polygon fill="white" stroke="#bfbfbf" points="1681.4,-118 1681.4,-137 1780.4,-137 1780.4,-118 1681.4,-118"/>
<text text-anchor="middle" x="1730.9" y="-125" font-family="Helvetica,sans-Serif" font-size="10.00">boost/mpl/bool.hpp</text>
</g>
<!-- Node4&#45;&gt;Node18 -->
<g id="edge20" class="edge"><title>Node4&#45;&gt;Node18</title>
<path fill="none" stroke="midnightblue" d="M2884.77,-187.34C2688.64,-184.683 2005.55,-173.408 1789.9,-143 1783.59,-142.111 1776.98,-140.835 1770.56,-139.403"/>
<polygon fill="midnightblue" stroke="midnightblue" points="1771.23,-135.965 1760.69,-137.06 1769.61,-142.775 1771.23,-135.965"/>
</g>
<!-- Node19 -->
<g id="node19" class="node"><title>Node19</title>
<polygon fill="white" stroke="#bfbfbf" points="1798.9,-118 1798.9,-137 1918.9,-137 1918.9,-118 1798.9,-118"/>
<text text-anchor="middle" x="1858.9" y="-125" font-family="Helvetica,sans-Serif" font-size="10.00">boost/mpl/bool_fwd.hpp</text>
</g>
<!-- Node4&#45;&gt;Node19 -->
<g id="edge21" class="edge"><title>Node4&#45;&gt;Node19</title>
<path fill="none" stroke="midnightblue" d="M2884.86,-188.607C2734.42,-189.69 2292.33,-188.449 1928.9,-143 1921.02,-142.015 1912.71,-140.616 1904.67,-139.072"/>
<polygon fill="midnightblue" stroke="midnightblue" points="1905.18,-135.605 1894.69,-137.059 1903.8,-142.467 1905.18,-135.605"/>
</g>
<!-- Node20 -->
<g id="node20" class="node"><title>Node20</title>
<polygon fill="white" stroke="#bfbfbf" points="1937.4,-112.5 1937.4,-142.5 2036.4,-142.5 2036.4,-112.5 1937.4,-112.5"/>
<text text-anchor="start" x="1945.4" y="-130.5" font-family="Helvetica,sans-Serif" font-size="10.00">boost/mpl/aux_/adl</text>
<text text-anchor="middle" x="1986.9" y="-119.5" font-family="Helvetica,sans-Serif" font-size="10.00">_barrier.hpp</text>
</g>
<!-- Node4&#45;&gt;Node20 -->
<g id="edge22" class="edge"><title>Node4&#45;&gt;Node20</title>
<path fill="none" stroke="midnightblue" d="M2884.69,-186.647C2721.39,-182.289 2228.06,-167.536 2046.61,-142.847"/>
<polygon fill="midnightblue" stroke="midnightblue" points="2047.05,-139.375 2036.66,-141.436 2046.07,-146.306 2047.05,-139.375"/>
</g>
<!-- Node21 -->
<g id="node21" class="node"><title>Node21</title>
<polygon fill="white" stroke="#bfbfbf" points="2054.4,-112.5 2054.4,-142.5 2167.4,-142.5 2167.4,-112.5 2054.4,-112.5"/>
<text text-anchor="start" x="2062.4" y="-130.5" font-family="Helvetica,sans-Serif" font-size="10.00">boost/mpl/aux_/config</text>
<text text-anchor="middle" x="2110.9" y="-119.5" font-family="Helvetica,sans-Serif" font-size="10.00">/adl.hpp</text>
</g>
<!-- Node4&#45;&gt;Node21 -->
<g id="edge23" class="edge"><title>Node4&#45;&gt;Node21</title>
<path fill="none" stroke="midnightblue" d="M2884.57,-187.721C2761.57,-186.46 2448.5,-179.718 2177.7,-142.945"/>
<polygon fill="midnightblue" stroke="midnightblue" points="2178.06,-139.462 2167.68,-141.568 2177.11,-146.397 2178.06,-139.462"/>
</g>
<!-- Node22 -->
<g id="node22" class="node"><title>Node22</title>
<polygon fill="white" stroke="#bfbfbf" points="2185.4,-112.5 2185.4,-142.5 2298.4,-142.5 2298.4,-112.5 2185.4,-112.5"/>
<text text-anchor="start" x="2193.4" y="-130.5" font-family="Helvetica,sans-Serif" font-size="10.00">boost/mpl/aux_/config</text>
<text text-anchor="middle" x="2241.9" y="-119.5" font-family="Helvetica,sans-Serif" font-size="10.00">/msvc.hpp</text>
</g>
<!-- Node4&#45;&gt;Node22 -->
<g id="edge24" class="edge"><title>Node4&#45;&gt;Node22</title>
<path fill="none" stroke="midnightblue" d="M2884.52,-186.795C2777.24,-183.808 2527.76,-174.02 2308.76,-142.97"/>
<polygon fill="midnightblue" stroke="midnightblue" points="2309.08,-139.48 2298.69,-141.523 2308.09,-146.409 2309.08,-139.48"/>
</g>
<!-- Node23 -->
<g id="node23" class="node"><title>Node23</title>
<polygon fill="white" stroke="#bfbfbf" points="2316.4,-112.5 2316.4,-142.5 2429.4,-142.5 2429.4,-112.5 2316.4,-112.5"/>
<text text-anchor="start" x="2324.4" y="-130.5" font-family="Helvetica,sans-Serif" font-size="10.00">boost/mpl/aux_/config</text>
<text text-anchor="middle" x="2372.9" y="-119.5" font-family="Helvetica,sans-Serif" font-size="10.00">/intel.hpp</text>
</g>
<!-- Node4&#45;&gt;Node23 -->
<g id="edge25" class="edge"><title>Node4&#45;&gt;Node23</title>
<path fill="none" stroke="midnightblue" d="M2884.83,-185.421C2795.15,-180.58 2607.8,-168.394 2439.72,-142.989"/>
<polygon fill="midnightblue" stroke="midnightblue" points="2440.11,-139.509 2429.7,-141.455 2439.05,-146.428 2440.11,-139.509"/>
</g>
<!-- Node24 -->
<g id="node24" class="node"><title>Node24</title>
<polygon fill="white" stroke="#bfbfbf" points="2447.4,-112.5 2447.4,-142.5 2560.4,-142.5 2560.4,-112.5 2447.4,-112.5"/>
<text text-anchor="start" x="2455.4" y="-130.5" font-family="Helvetica,sans-Serif" font-size="10.00">boost/mpl/aux_/config</text>
<text text-anchor="middle" x="2503.9" y="-119.5" font-family="Helvetica,sans-Serif" font-size="10.00">/gcc.hpp</text>
</g>
<!-- Node4&#45;&gt;Node24 -->
<g id="edge26" class="edge"><title>Node4&#45;&gt;Node24</title>
<path fill="none" stroke="midnightblue" d="M2884.65,-183.085C2814.84,-176.287 2688.41,-162.762 2570.63,-143.019"/>
<polygon fill="midnightblue" stroke="midnightblue" points="2571.16,-139.56 2560.72,-141.34 2569.99,-146.461 2571.16,-139.56"/>
</g>
<!-- Node25 -->
<g id="node25" class="node"><title>Node25</title>
<polygon fill="white" stroke="#bfbfbf" points="2578.4,-112.5 2578.4,-142.5 2691.4,-142.5 2691.4,-112.5 2578.4,-112.5"/>
<text text-anchor="start" x="2586.4" y="-130.5" font-family="Helvetica,sans-Serif" font-size="10.00">boost/mpl/aux_/config</text>
<text text-anchor="middle" x="2634.9" y="-119.5" font-family="Helvetica,sans-Serif" font-size="10.00">/workaround.hpp</text>
</g>
<!-- Node4&#45;&gt;Node25 -->
<g id="edge27" class="edge"><title>Node4&#45;&gt;Node25</title>
<path fill="none" stroke="midnightblue" d="M2890.61,-179.432C2844.87,-171.053 2773.33,-157.707 2701.53,-143.095"/>
<polygon fill="midnightblue" stroke="midnightblue" points="2701.9,-139.598 2691.4,-141.025 2700.5,-146.456 2701.9,-139.598"/>
</g>
<!-- Node26 -->
<g id="node26" class="node"><title>Node26</title>
<polygon fill="white" stroke="#bfbfbf" points="2709.4,-118 2709.4,-137 2848.4,-137 2848.4,-118 2709.4,-118"/>
<text text-anchor="middle" x="2778.9" y="-125" font-family="Helvetica,sans-Serif" font-size="10.00">boost/detail/workaround.hpp</text>
</g>
<!-- Node4&#45;&gt;Node26 -->
<g id="edge28" class="edge"><title>Node4&#45;&gt;Node26</title>
<path fill="none" stroke="midnightblue" d="M2915.12,-179.475C2887.85,-169.269 2841.99,-152.108 2811.1,-140.549"/>
<polygon fill="midnightblue" stroke="midnightblue" points="2812.23,-137.236 2801.64,-137.009 2809.78,-143.792 2812.23,-137.236"/>
</g>
<!-- Node27 -->
<g id="node27" class="node"><title>Node27</title>
<polygon fill="white" stroke="#bfbfbf" points="2866.9,-118 2866.9,-137 3008.9,-137 3008.9,-118 2866.9,-118"/>
<text text-anchor="middle" x="2937.9" y="-125" font-family="Helvetica,sans-Serif" font-size="10.00">boost/config/workaround.hpp</text>
</g>
<!-- Node4&#45;&gt;Node27 -->
<g id="edge29" class="edge"><title>Node4&#45;&gt;Node27</title>
<path fill="none" stroke="midnightblue" d="M2937.9,-179.475C2937.9,-171.08 2937.9,-157.981 2937.9,-147.163"/>
<polygon fill="midnightblue" stroke="midnightblue" points="2941.4,-147.009 2937.9,-137.009 2934.4,-147.009 2941.4,-147.009"/>
</g>
<!-- Node28 -->
<g id="node28" class="node"><title>Node28</title>
<polygon fill="white" stroke="#bfbfbf" points="3026.9,-112.5 3026.9,-142.5 3120.9,-142.5 3120.9,-112.5 3026.9,-112.5"/>
<text text-anchor="start" x="3034.9" y="-130.5" font-family="Helvetica,sans-Serif" font-size="10.00">boost/mpl/integral</text>
<text text-anchor="middle" x="3073.9" y="-119.5" font-family="Helvetica,sans-Serif" font-size="10.00">_c_tag.hpp</text>
</g>
<!-- Node4&#45;&gt;Node28 -->
<g id="edge30" class="edge"><title>Node4&#45;&gt;Node28</title>
<path fill="none" stroke="midnightblue" d="M2957.39,-179.475C2976.92,-170.927 3007.61,-157.501 3032.59,-146.573"/>
<polygon fill="midnightblue" stroke="midnightblue" points="3034.09,-149.738 3041.85,-142.523 3031.28,-143.325 3034.09,-149.738"/>
</g>
<!-- Node29 -->
<g id="node29" class="node"><title>Node29</title>
<polygon fill="white" stroke="#bfbfbf" points="3139.4,-112.5 3139.4,-142.5 3252.4,-142.5 3252.4,-112.5 3139.4,-112.5"/>
<text text-anchor="start" x="3147.4" y="-130.5" font-family="Helvetica,sans-Serif" font-size="10.00">boost/mpl/aux_/config</text>
<text text-anchor="middle" x="3195.9" y="-119.5" font-family="Helvetica,sans-Serif" font-size="10.00">/static_constant.hpp</text>
</g>
<!-- Node4&#45;&gt;Node29 -->
<g id="edge31" class="edge"><title>Node4&#45;&gt;Node29</title>
<path fill="none" stroke="midnightblue" d="M2974.87,-179.475C3015.02,-170.216 3079.98,-155.233 3129.12,-143.902"/>
<polygon fill="midnightblue" stroke="midnightblue" points="3130.07,-147.273 3139.03,-141.615 3128.5,-140.452 3130.07,-147.273"/>
</g>
<!-- Node30 -->
<g id="node30" class="node"><title>Node30</title>
<polygon fill="white" stroke="#bfbfbf" points="3270.4,-112.5 3270.4,-142.5 3373.4,-142.5 3373.4,-112.5 3270.4,-112.5"/>
<text text-anchor="start" x="3278.4" y="-130.5" font-family="Helvetica,sans-Serif" font-size="10.00">boost/mpl/aux_/nttp</text>
<text text-anchor="middle" x="3321.9" y="-119.5" font-family="Helvetica,sans-Serif" font-size="10.00">_decl.hpp</text>
</g>
<!-- Node4&#45;&gt;Node30 -->
<g id="edge32" class="edge"><title>Node4&#45;&gt;Node30</title>
<path fill="none" stroke="midnightblue" d="M2990.92,-182.272C3053.22,-175.175 3159.9,-161.893 3260.26,-143.208"/>
<polygon fill="midnightblue" stroke="midnightblue" points="3261.08,-146.615 3270.26,-141.324 3259.79,-139.736 3261.08,-146.615"/>
</g>
<!-- Node31 -->
<g id="node31" class="node"><title>Node31</title>
<polygon fill="white" stroke="#bfbfbf" points="3391.4,-112.5 3391.4,-142.5 3504.4,-142.5 3504.4,-112.5 3391.4,-112.5"/>
<text text-anchor="start" x="3399.4" y="-130.5" font-family="Helvetica,sans-Serif" font-size="10.00">boost/mpl/aux_/config</text>
<text text-anchor="middle" x="3447.9" y="-119.5" font-family="Helvetica,sans-Serif" font-size="10.00">/nttp.hpp</text>
</g>
<!-- Node4&#45;&gt;Node31 -->
<g id="edge33" class="edge"><title>Node4&#45;&gt;Node31</title>
<path fill="none" stroke="midnightblue" d="M2990.91,-184.683C3072.71,-179.117 3234.75,-166.312 3381.19,-143.163"/>
<polygon fill="midnightblue" stroke="midnightblue" points="3381.94,-146.588 3391.26,-141.551 3380.83,-139.676 3381.94,-146.588"/>
</g>
<!-- Node32 -->
<g id="node32" class="node"><title>Node32</title>
<polygon fill="white" stroke="#bfbfbf" points="3522.9,-112.5 3522.9,-142.5 3638.9,-142.5 3638.9,-112.5 3522.9,-112.5"/>
<text text-anchor="start" x="3530.9" y="-130.5" font-family="Helvetica,sans-Serif" font-size="10.00">boost/mpl/aux_/nested</text>
<text text-anchor="middle" x="3580.9" y="-119.5" font-family="Helvetica,sans-Serif" font-size="10.00">_type_wknd.hpp</text>
</g>
<!-- Node4&#45;&gt;Node32 -->
<g id="edge34" class="edge"><title>Node4&#45;&gt;Node32</title>
<path fill="none" stroke="midnightblue" d="M2990.98,-186.252C3091.15,-182.431 3315.01,-171.415 3512.89,-143.011"/>
<polygon fill="midnightblue" stroke="midnightblue" points="3513.49,-146.46 3522.88,-141.558 3512.48,-139.533 3513.49,-146.46"/>
</g>
<!-- Node33 -->
<g id="node33" class="node"><title>Node33</title>
<polygon fill="white" stroke="#bfbfbf" points="3656.9,-118 3656.9,-137 3798.9,-137 3798.9,-118 3656.9,-118"/>
<text text-anchor="middle" x="3727.9" y="-125" font-family="Helvetica,sans-Serif" font-size="10.00">boost/mpl/aux_/na_spec.hpp</text>
</g>
<!-- Node4&#45;&gt;Node33 -->
<g id="edge35" class="edge"><title>Node4&#45;&gt;Node33</title>
<path fill="none" stroke="midnightblue" d="M2991.09,-186.736C3109.49,-183.463 3403.61,-172.778 3647.9,-143 3657.06,-141.884 3666.75,-140.392 3676.12,-138.79"/>
<polygon fill="midnightblue" stroke="midnightblue" points="3676.87,-142.211 3686.11,-137.02 3675.65,-135.319 3676.87,-142.211"/>
</g>
<!-- Node34 -->
<g id="node34" class="node"><title>Node34</title>
<polygon fill="white" stroke="#bfbfbf" points="3816.9,-118 3816.9,-137 3950.9,-137 3950.9,-118 3816.9,-118"/>
<text text-anchor="middle" x="3883.9" y="-125" font-family="Helvetica,sans-Serif" font-size="10.00">boost/mpl/lambda_fwd.hpp</text>
</g>
<!-- Node4&#45;&gt;Node34 -->
<g id="edge36" class="edge"><title>Node4&#45;&gt;Node34</title>
<path fill="none" stroke="midnightblue" d="M2991.08,-187.777C3127.37,-186.657 3500.08,-180.148 3807.9,-143 3816.62,-141.948 3825.85,-140.487 3834.75,-138.895"/>
<polygon fill="midnightblue" stroke="midnightblue" points="3835.43,-142.329 3844.62,-137.057 3834.14,-135.447 3835.43,-142.329"/>
</g>
<!-- Node35 -->
<g id="node35" class="node"><title>Node35</title>
<polygon fill="white" stroke="#bfbfbf" points="3968.9,-118 3968.9,-137 4088.9,-137 4088.9,-118 3968.9,-118"/>
<text text-anchor="middle" x="4028.9" y="-125" font-family="Helvetica,sans-Serif" font-size="10.00">boost/mpl/void_fwd.hpp</text>
</g>
<!-- Node4&#45;&gt;Node35 -->
<g id="edge37" class="edge"><title>Node4&#45;&gt;Node35</title>
<path fill="none" stroke="midnightblue" d="M2991.02,-186.807C3172.86,-182.543 3769.6,-167.022 3959.9,-143 3967.67,-142.019 3975.87,-140.623 3983.79,-139.08"/>
<polygon fill="midnightblue" stroke="midnightblue" points="3984.54,-142.5 3993.63,-137.067 3983.13,-135.642 3984.54,-142.5"/>
</g>
<!-- Node36 -->
<g id="node36" class="node"><title>Node36</title>
<polygon fill="white" stroke="#bfbfbf" points="4106.9,-118 4106.9,-137 4222.9,-137 4222.9,-118 4106.9,-118"/>
<text text-anchor="middle" x="4164.9" y="-125" font-family="Helvetica,sans-Serif" font-size="10.00">boost/mpl/aux_/na.hpp</text>
</g>
<!-- Node4&#45;&gt;Node36 -->
<g id="edge38" class="edge"><title>Node4&#45;&gt;Node36</title>
<path fill="none" stroke="midnightblue" d="M2991.22,-187.167C3188.86,-183.885 3879.46,-170.659 4097.9,-143 4105.45,-142.044 4113.42,-140.66 4121.11,-139.122"/>
<polygon fill="midnightblue" stroke="midnightblue" points="4121.95,-142.522 4131.01,-137.035 4120.51,-135.672 4121.95,-142.522"/>
</g>
<!-- Node37 -->
<g id="node37" class="node"><title>Node37</title>
<polygon fill="white" stroke="#bfbfbf" points="4241.4,-118 4241.4,-137 4378.4,-137 4378.4,-118 4241.4,-118"/>
<text text-anchor="middle" x="4309.9" y="-125" font-family="Helvetica,sans-Serif" font-size="10.00">boost/mpl/aux_/na_fwd.hpp</text>
</g>
<!-- Node4&#45;&gt;Node37 -->
<g id="edge39" class="edge"><title>Node4&#45;&gt;Node37</title>
<path fill="none" stroke="midnightblue" d="M2991.08,-187.209C3202.69,-183.897 3985.41,-170.044 4231.9,-143 4241.15,-141.985 4250.95,-140.496 4260.37,-138.854"/>
<polygon fill="midnightblue" stroke="midnightblue" points="4261.18,-142.263 4270.39,-137.026 4259.92,-135.377 4261.18,-142.263"/>
</g>
<!-- Node38 -->
<g id="node38" class="node"><title>Node38</title>
<polygon fill="white" stroke="#bfbfbf" points="4396.4,-112.5 4396.4,-142.5 4509.4,-142.5 4509.4,-112.5 4396.4,-112.5"/>
<text text-anchor="start" x="4404.4" y="-130.5" font-family="Helvetica,sans-Serif" font-size="10.00">boost/mpl/aux_/config</text>
<text text-anchor="middle" x="4452.9" y="-119.5" font-family="Helvetica,sans-Serif" font-size="10.00">/ctps.hpp</text>
</g>
<!-- Node4&#45;&gt;Node38 -->
<g id="edge40" class="edge"><title>Node4&#45;&gt;Node38</title>
<path fill="none" stroke="midnightblue" d="M2991.23,-187.691C3216.14,-186.181 4088.96,-178.213 4385.97,-143.05"/>
<polygon fill="midnightblue" stroke="midnightblue" points="4386.79,-146.476 4396.29,-141.787 4385.94,-139.528 4386.79,-146.476"/>
</g>
<!-- Node39 -->
<g id="node39" class="node"><title>Node39</title>
<polygon fill="white" stroke="#bfbfbf" points="4527.4,-112.5 4527.4,-142.5 4640.4,-142.5 4640.4,-112.5 4527.4,-112.5"/>
<text text-anchor="start" x="4535.4" y="-130.5" font-family="Helvetica,sans-Serif" font-size="10.00">boost/mpl/aux_/config</text>
<text text-anchor="middle" x="4583.9" y="-119.5" font-family="Helvetica,sans-Serif" font-size="10.00">/lambda.hpp</text>
</g>
<!-- Node4&#45;&gt;Node39 -->
<g id="edge41" class="edge"><title>Node4&#45;&gt;Node39</title>
<path fill="none" stroke="midnightblue" d="M2991.13,-187.85C3228.48,-186.976 4192.53,-181.176 4516.95,-143.05"/>
<polygon fill="midnightblue" stroke="midnightblue" points="4517.79,-146.474 4527.29,-141.796 4516.94,-139.525 4517.79,-146.474"/>
</g>
<!-- Node40 -->
<g id="node40" class="node"><title>Node40</title>
<polygon fill="white" stroke="#bfbfbf" points="4658.4,-112.5 4658.4,-142.5 4771.4,-142.5 4771.4,-112.5 4658.4,-112.5"/>
<text text-anchor="start" x="4666.4" y="-130.5" font-family="Helvetica,sans-Serif" font-size="10.00">boost/mpl/aux_/config</text>
<text text-anchor="middle" x="4714.9" y="-119.5" font-family="Helvetica,sans-Serif" font-size="10.00">/ttp.hpp</text>
</g>
<!-- Node4&#45;&gt;Node40 -->
<g id="edge42" class="edge"><title>Node4&#45;&gt;Node40</title>
<path fill="none" stroke="midnightblue" d="M2991.26,-187.985C3241.05,-187.706 4297,-184.136 4648.36,-143"/>
<polygon fill="midnightblue" stroke="midnightblue" points="4648.78,-146.474 4658.29,-141.804 4647.95,-139.525 4648.78,-146.474"/>
</g>
<!-- Node41 -->
<g id="node41" class="node"><title>Node41</title>
<polygon fill="white" stroke="#bfbfbf" points="4789.9,-118 4789.9,-137 4881.9,-137 4881.9,-118 4789.9,-118"/>
<text text-anchor="middle" x="4835.9" y="-125" font-family="Helvetica,sans-Serif" font-size="10.00">boost/mpl/int.hpp</text>
</g>
<!-- Node4&#45;&gt;Node41 -->
<g id="edge43" class="edge"><title>Node4&#45;&gt;Node41</title>
<path fill="none" stroke="midnightblue" d="M2991.33,-187.439C3275.15,-184.358 4599.98,-168.697 4780.9,-143 4786.79,-142.164 4792.95,-140.919 4798.93,-139.503"/>
<polygon fill="midnightblue" stroke="midnightblue" points="4799.92,-142.864 4808.74,-137.003 4798.19,-136.08 4799.92,-142.864"/>
</g>
<!-- Node42 -->
<g id="node42" class="node"><title>Node42</title>
<polygon fill="white" stroke="#bfbfbf" points="4900.4,-118 4900.4,-137 5013.4,-137 5013.4,-118 4900.4,-118"/>
<text text-anchor="middle" x="4956.9" y="-125" font-family="Helvetica,sans-Serif" font-size="10.00">boost/mpl/int_fwd.hpp</text>
</g>
<!-- Node4&#45;&gt;Node42 -->
<g id="edge44" class="edge"><title>Node4&#45;&gt;Node42</title>
<path fill="none" stroke="midnightblue" d="M2991.34,-188.164C3264.63,-188.792 4508.08,-189.024 4890.9,-143 4898.43,-142.094 4906.37,-140.721 4914.03,-139.174"/>
<polygon fill="midnightblue" stroke="midnightblue" points="4914.83,-142.582 4923.88,-137.066 4913.37,-135.737 4914.83,-142.582"/>
</g>
<!-- Node43 -->
<g id="node43" class="node"><title>Node43</title>
<polygon fill="white" stroke="#bfbfbf" points="5031.9,-112.5 5031.9,-142.5 5149.9,-142.5 5149.9,-112.5 5031.9,-112.5"/>
<text text-anchor="start" x="5039.9" y="-130.5" font-family="Helvetica,sans-Serif" font-size="10.00">boost/mpl/aux_/integral</text>
<text text-anchor="middle" x="5090.9" y="-119.5" font-family="Helvetica,sans-Serif" font-size="10.00">_wrapper.hpp</text>
</g>
<!-- Node4&#45;&gt;Node43 -->
<g id="edge45" class="edge"><title>Node4&#45;&gt;Node43</title>
<path fill="none" stroke="midnightblue" d="M2991.15,-188.21C3272.76,-189.117 4591.41,-190.757 5021.67,-142.955"/>
<polygon fill="midnightblue" stroke="midnightblue" points="5022.13,-146.426 5031.67,-141.817 5021.34,-139.471 5022.13,-146.426"/>
</g>
<!-- Node44 -->
<g id="node44" class="node"><title>Node44</title>
<polygon fill="white" stroke="#bfbfbf" points="5167.9,-112.5 5167.9,-142.5 5277.9,-142.5 5277.9,-112.5 5167.9,-112.5"/>
<text text-anchor="start" x="5175.9" y="-130.5" font-family="Helvetica,sans-Serif" font-size="10.00">boost/mpl/aux_/static</text>
<text text-anchor="middle" x="5222.9" y="-119.5" font-family="Helvetica,sans-Serif" font-size="10.00">_cast.hpp</text>
</g>
<!-- Node4&#45;&gt;Node44 -->
<g id="edge46" class="edge"><title>Node4&#45;&gt;Node44</title>
<path fill="none" stroke="midnightblue" d="M2990.98,-187.569C3303,-184.95 4893.48,-170.407 5157.65,-142.865"/>
<polygon fill="midnightblue" stroke="midnightblue" points="5158.32,-146.312 5167.87,-141.712 5157.54,-139.356 5158.32,-146.312"/>
</g>
<!-- Node45 -->
<g id="node45" class="node"><title>Node45</title>
<polygon fill="white" stroke="#bfbfbf" points="5295.9,-112.5 5295.9,-142.5 5395.9,-142.5 5395.9,-112.5 5295.9,-112.5"/>
<text text-anchor="start" x="5303.9" y="-130.5" font-family="Helvetica,sans-Serif" font-size="10.00">boost/preprocessor</text>
<text text-anchor="middle" x="5345.9" y="-119.5" font-family="Helvetica,sans-Serif" font-size="10.00">/cat.hpp</text>
</g>
<!-- Node4&#45;&gt;Node45 -->
<g id="edge47" class="edge"><title>Node4&#45;&gt;Node45</title>
<path fill="none" stroke="midnightblue" d="M2991.1,-187.689C3314.24,-185.704 5008.83,-173.947 5285.86,-142.817"/>
<polygon fill="midnightblue" stroke="midnightblue" points="5286.33,-146.285 5295.83,-141.606 5285.48,-139.336 5286.33,-146.285"/>
</g>
<!-- Node46 -->
<g id="node46" class="node"><title>Node46</title>
<polygon fill="white" stroke="#bfbfbf" points="5413.9,-112.5 5413.9,-142.5 5513.9,-142.5 5513.9,-112.5 5413.9,-112.5"/>
<text text-anchor="start" x="5421.9" y="-130.5" font-family="Helvetica,sans-Serif" font-size="10.00">boost/preprocessor</text>
<text text-anchor="middle" x="5463.9" y="-119.5" font-family="Helvetica,sans-Serif" font-size="10.00">/config/config.hpp</text>
</g>
<!-- Node4&#45;&gt;Node46 -->
<g id="edge48" class="edge"><title>Node4&#45;&gt;Node46</title>
<path fill="none" stroke="midnightblue" d="M2991.02,-187.741C3323.55,-186.03 5113.73,-175.42 5403.77,-142.828"/>
<polygon fill="midnightblue" stroke="midnightblue" points="5404.33,-146.286 5413.83,-141.609 5403.48,-139.337 5404.33,-146.286"/>
</g>
<!-- Node47 -->
<g id="node47" class="node"><title>Node47</title>
<polygon fill="white" stroke="#bfbfbf" points="5531.9,-112.5 5531.9,-142.5 5649.9,-142.5 5649.9,-112.5 5531.9,-112.5"/>
<text text-anchor="start" x="5539.9" y="-130.5" font-family="Helvetica,sans-Serif" font-size="10.00">boost/mpl/aux_/lambda</text>
<text text-anchor="middle" x="5590.9" y="-119.5" font-family="Helvetica,sans-Serif" font-size="10.00">_arity_param.hpp</text>
</g>
<!-- Node4&#45;&gt;Node47 -->
<g id="edge49" class="edge"><title>Node4&#45;&gt;Node47</title>
<path fill="none" stroke="midnightblue" d="M2991.01,-187.691C3332.87,-185.62 5218.34,-172.962 5521.56,-142.908"/>
<polygon fill="midnightblue" stroke="midnightblue" points="5522.1,-146.37 5531.67,-141.831 5521.36,-139.41 5522.1,-146.37"/>
</g>
<!-- Node48 -->
<g id="node48" class="node"><title>Node48</title>
<polygon fill="white" stroke="#bfbfbf" points="5667.9,-112.5 5667.9,-142.5 5791.9,-142.5 5791.9,-112.5 5667.9,-112.5"/>
<text text-anchor="start" x="5675.9" y="-130.5" font-family="Helvetica,sans-Serif" font-size="10.00">boost/mpl/aux_/template</text>
<text text-anchor="middle" x="5729.9" y="-119.5" font-family="Helvetica,sans-Serif" font-size="10.00">_arity_fwd.hpp</text>
</g>
<!-- Node4&#45;&gt;Node48 -->
<g id="edge50" class="edge"><title>Node4&#45;&gt;Node48</title>
<path fill="none" stroke="midnightblue" d="M2990.91,-187.714C3342.99,-185.734 5339.18,-173.286 5657.47,-142.929"/>
<polygon fill="midnightblue" stroke="midnightblue" points="5658.07,-146.386 5667.67,-141.888 5657.36,-139.422 5658.07,-146.386"/>
</g>
<!-- Node49 -->
<g id="node49" class="node"><title>Node49</title>
<polygon fill="white" stroke="#bfbfbf" points="5809.9,-118 5809.9,-137 5933.9,-137 5933.9,-118 5809.9,-118"/>
<text text-anchor="middle" x="5871.9" y="-125" font-family="Helvetica,sans-Serif" font-size="10.00">boost/mpl/aux_/arity.hpp</text>
</g>
<!-- Node4&#45;&gt;Node49 -->
<g id="edge51" class="edge"><title>Node4&#45;&gt;Node49</title>
<path fill="none" stroke="midnightblue" d="M2991,-187.76C3358,-186.021 5511.73,-174.524 5800.9,-143 5809.35,-142.079 5818.29,-140.634 5826.86,-139.006"/>
<polygon fill="midnightblue" stroke="midnightblue" points="5827.6,-142.428 5836.71,-137.031 5826.22,-135.565 5827.6,-142.428"/>
</g>
<!-- Node50 -->
<g id="node50" class="node"><title>Node50</title>
<polygon fill="white" stroke="#bfbfbf" points="5952.4,-112.5 5952.4,-142.5 6065.4,-142.5 6065.4,-112.5 5952.4,-112.5"/>
<text text-anchor="start" x="5960.4" y="-130.5" font-family="Helvetica,sans-Serif" font-size="10.00">boost/mpl/aux_/config</text>
<text text-anchor="middle" x="6008.9" y="-119.5" font-family="Helvetica,sans-Serif" font-size="10.00">/dtp.hpp</text>
</g>
<!-- Node4&#45;&gt;Node50 -->
<g id="edge52" class="edge"><title>Node4&#45;&gt;Node50</title>
<path fill="none" stroke="midnightblue" d="M2991.2,-187.849C3365.42,-186.702 5593.73,-178.463 5942.15,-142.819"/>
<polygon fill="midnightblue" stroke="midnightblue" points="5942.58,-146.294 5952.14,-141.73 5941.82,-139.335 5942.58,-146.294"/>
</g>
<!-- Node10&#45;&gt;Node2 -->
<g id="edge12" class="edge"><title>Node10&#45;&gt;Node2</title>
<path fill="none" stroke="midnightblue" d="M106.116,-117.955C114.802,-115.863 124.176,-113.73 132.901,-112 211.721,-96.3671 303.527,-82.866 362.146,-74.8348"/>
<polygon fill="midnightblue" stroke="midnightblue" points="362.899,-78.2647 372.335,-73.4481 361.955,-71.3286 362.899,-78.2647"/>
</g>
</g>
</svg>
