<?xml version="1.0" encoding="UTF-8" standalone="no"?>
<!DOCTYPE svg PUBLIC "-//W3C//DTD SVG 1.1//EN"
 "http://www.w3.org/Graphics/SVG/1.1/DTD/svg11.dtd">
<!-- Generated by graphviz version 2.38.0 (20140413.2041)
 -->
<!-- Title: boost/ui/event.hpp Pages: 1 -->
<svg width="6184pt" height="207pt"
 viewBox="0.00 0.00 6183.50 207.00" xmlns="http://www.w3.org/2000/svg" xmlns:xlink="http://www.w3.org/1999/xlink">
<g id="graph0" class="graph" transform="scale(1 1) rotate(0) translate(4 203)">
<title>boost/ui/event.hpp</title>
<polygon fill="white" stroke="none" points="-4,4 -4,-203 6179.5,-203 6179.5,4 -4,4"/>
<!-- Node1 -->
<g id="node1" class="node"><title>Node1</title>
<polygon fill="#bfbfbf" stroke="black" points="2816,-179.5 2816,-198.5 2913,-198.5 2913,-179.5 2816,-179.5"/>
<text text-anchor="middle" x="2864.5" y="-186.5" font-family="Helvetica,sans-Serif" font-size="10.00">boost/ui/event.hpp</text>
</g>
<!-- Node2 -->
<g id="node2" class="node"><title>Node2</title>
<g id="a_node2"><a xlink:href="config_8hpp.html" target="_top" xlink:title="Configuration options. ">
<polygon fill="white" stroke="black" points="0,-62 0,-81 99,-81 99,-62 0,-62"/>
<text text-anchor="middle" x="49.5" y="-69" font-family="Helvetica,sans-Serif" font-size="10.00">boost/ui/config.hpp</text>
</a>
</g>
</g>
<!-- Node1&#45;&gt;Node2 -->
<g id="edge1" class="edge"><title>Node1&#45;&gt;Node2</title>
<path fill="none" stroke="midnightblue" d="M2815.94,-187.551C2493.9,-184.373 662.321,-163.148 109.5,-87 103.09,-86.1171 96.3669,-84.8442 89.834,-83.4143"/>
<polygon fill="midnightblue" stroke="midnightblue" points="90.3312,-79.9363 79.7974,-81.0716 88.74,-86.7531 90.3312,-79.9363"/>
</g>
<!-- Node4 -->
<g id="node4" class="node"><title>Node4</title>
<g id="a_node4"><a xlink:href="coord_8hpp.html" target="_top" xlink:title="Coordinates classes. ">
<polygon fill="white" stroke="red" points="2816,-123.5 2816,-142.5 2913,-142.5 2913,-123.5 2816,-123.5"/>
<text text-anchor="middle" x="2864.5" y="-130.5" font-family="Helvetica,sans-Serif" font-size="10.00">boost/ui/coord.hpp</text>
</a>
</g>
</g>
<!-- Node1&#45;&gt;Node4 -->
<g id="edge3" class="edge"><title>Node1&#45;&gt;Node4</title>
<path fill="none" stroke="midnightblue" d="M2864.5,-179.083C2864.5,-172.006 2864.5,-161.861 2864.5,-152.986"/>
<polygon fill="midnightblue" stroke="midnightblue" points="2868,-152.751 2864.5,-142.751 2861,-152.751 2868,-152.751"/>
</g>
<!-- Node50 -->
<g id="node50" class="node"><title>Node50</title>
<polygon fill="white" stroke="#bfbfbf" points="2931,-123.5 2931,-142.5 3028,-142.5 3028,-123.5 2931,-123.5"/>
<text text-anchor="middle" x="2979.5" y="-130.5" font-family="Helvetica,sans-Serif" font-size="10.00">boost/function.hpp</text>
</g>
<!-- Node1&#45;&gt;Node50 -->
<g id="edge51" class="edge"><title>Node1&#45;&gt;Node50</title>
<path fill="none" stroke="midnightblue" d="M2882.72,-179.444C2901.4,-170.675 2930.66,-156.935 2952.12,-146.858"/>
<polygon fill="midnightblue" stroke="midnightblue" points="2953.8,-149.935 2961.36,-142.516 2950.82,-143.599 2953.8,-149.935"/>
</g>
<!-- Node3 -->
<g id="node3" class="node"><title>Node3</title>
<polygon fill="white" stroke="#bfbfbf" points="44,-0.5 44,-19.5 133,-19.5 133,-0.5 44,-0.5"/>
<text text-anchor="middle" x="88.5" y="-7.5" font-family="Helvetica,sans-Serif" font-size="10.00">boost/config.hpp</text>
</g>
<!-- Node2&#45;&gt;Node3 -->
<g id="edge2" class="edge"><title>Node2&#45;&gt;Node3</title>
<path fill="none" stroke="midnightblue" d="M55.0877,-61.9751C60.8799,-53.1384 70.089,-39.0886 77.3735,-27.975"/>
<polygon fill="midnightblue" stroke="midnightblue" points="80.3678,-29.7913 82.9226,-19.5091 74.5134,-25.9539 80.3678,-29.7913"/>
</g>
<!-- Node4&#45;&gt;Node2 -->
<g id="edge4" class="edge"><title>Node4&#45;&gt;Node2</title>
<path fill="none" stroke="midnightblue" d="M2815.98,-131.81C2470.74,-130.381 391.681,-120.424 113.5,-87 106.19,-86.1217 98.4922,-84.7628 91.0683,-83.2219"/>
<polygon fill="midnightblue" stroke="midnightblue" points="91.6962,-79.7763 81.1765,-81.036 90.1857,-86.6114 91.6962,-79.7763"/>
</g>
<!-- Node4&#45;&gt;Node3 -->
<g id="edge8" class="edge"><title>Node4&#45;&gt;Node3</title>
<path fill="none" stroke="midnightblue" d="M2815.91,-131.782C2455.36,-130.091 208.486,-118.311 146.5,-87 122.25,-74.7505 105.298,-47.0941 96.2263,-28.7413"/>
<polygon fill="midnightblue" stroke="midnightblue" points="99.3926,-27.2496 92.0007,-19.6594 93.046,-30.2026 99.3926,-27.2496"/>
</g>
<!-- Node5 -->
<g id="node5" class="node"><title>Node5</title>
<polygon fill="white" stroke="#bfbfbf" points="156,-62 156,-81 259,-81 259,-62 156,-62"/>
<text text-anchor="middle" x="207.5" y="-69" font-family="Helvetica,sans-Serif" font-size="10.00">boost/geometry.hpp</text>
</g>
<!-- Node4&#45;&gt;Node5 -->
<g id="edge5" class="edge"><title>Node4&#45;&gt;Node5</title>
<path fill="none" stroke="midnightblue" d="M2815.79,-131.801C2481.25,-130.345 529.096,-120.462 267.5,-87 260.787,-86.1413 253.734,-84.8237 246.918,-83.326"/>
<polygon fill="midnightblue" stroke="midnightblue" points="247.703,-79.9154 237.168,-81.0352 246.102,-86.7298 247.703,-79.9154"/>
</g>
<!-- Node6 -->
<g id="node6" class="node"><title>Node6</title>
<polygon fill="white" stroke="#bfbfbf" points="277,-56.5 277,-86.5 412,-86.5 412,-56.5 277,-56.5"/>
<text text-anchor="start" x="285" y="-74.5" font-family="Helvetica,sans-Serif" font-size="10.00">boost/geometry/geometries</text>
<text text-anchor="middle" x="344.5" y="-63.5" font-family="Helvetica,sans-Serif" font-size="10.00">/point_xy.hpp</text>
</g>
<!-- Node4&#45;&gt;Node6 -->
<g id="edge6" class="edge"><title>Node4&#45;&gt;Node6</title>
<path fill="none" stroke="midnightblue" d="M2815.86,-131.603C2497.11,-128.933 711.01,-112.956 422.377,-87.0075"/>
<polygon fill="midnightblue" stroke="midnightblue" points="422.658,-83.5184 412.368,-86.0409 421.985,-90.486 422.658,-83.5184"/>
</g>
<!-- Node7 -->
<g id="node7" class="node"><title>Node7</title>
<polygon fill="white" stroke="#bfbfbf" points="430,-62 430,-81 479,-81 479,-62 430,-62"/>
<text text-anchor="middle" x="454.5" y="-69" font-family="Helvetica,sans-Serif" font-size="10.00">cstddef</text>
</g>
<!-- Node4&#45;&gt;Node7 -->
<g id="edge7" class="edge"><title>Node4&#45;&gt;Node7</title>
<path fill="none" stroke="midnightblue" d="M2815.92,-131.607C2487.91,-128.889 606.312,-112.237 488.5,-87 485.827,-86.4275 483.103,-85.6441 480.418,-84.7358"/>
<polygon fill="midnightblue" stroke="midnightblue" points="481.616,-81.4461 471.028,-81.0528 479.06,-87.9628 481.616,-81.4461"/>
</g>
<!-- Node8 -->
<g id="node8" class="node"><title>Node8</title>
<polygon fill="white" stroke="#bfbfbf" points="497.5,-62 497.5,-81 589.5,-81 589.5,-62 497.5,-62"/>
<text text-anchor="middle" x="543.5" y="-69" font-family="Helvetica,sans-Serif" font-size="10.00">boost/mpl/int.hpp</text>
</g>
<!-- Node4&#45;&gt;Node8 -->
<g id="edge9" class="edge"><title>Node4&#45;&gt;Node8</title>
<path fill="none" stroke="midnightblue" d="M2815.95,-131.729C2507.35,-129.915 824.889,-118.629 598.5,-87 592.611,-86.1772 586.449,-84.9392 580.468,-83.5268"/>
<polygon fill="midnightblue" stroke="midnightblue" points="581.21,-80.1039 570.655,-81.0277 579.482,-86.8874 581.21,-80.1039"/>
</g>
<!-- Node9 -->
<g id="node9" class="node"><title>Node9</title>
<polygon fill="white" stroke="#bfbfbf" points="607.5,-56.5 607.5,-86.5 713.5,-86.5 713.5,-56.5 607.5,-56.5"/>
<text text-anchor="start" x="615.5" y="-74.5" font-family="Helvetica,sans-Serif" font-size="10.00">boost/geometry/core</text>
<text text-anchor="middle" x="660.5" y="-63.5" font-family="Helvetica,sans-Serif" font-size="10.00">/cs.hpp</text>
</g>
<!-- Node4&#45;&gt;Node9 -->
<g id="edge10" class="edge"><title>Node4&#45;&gt;Node9</title>
<path fill="none" stroke="midnightblue" d="M2815.75,-131.586C2520.95,-129.005 980.7,-114.356 724.063,-86.9023"/>
<polygon fill="midnightblue" stroke="midnightblue" points="724.143,-83.3882 713.806,-85.7114 723.336,-90.3415 724.143,-83.3882"/>
</g>
<!-- Node10 -->
<g id="node10" class="node"><title>Node10</title>
<polygon fill="white" stroke="#bfbfbf" points="732,-56.5 732,-86.5 867,-86.5 867,-56.5 732,-56.5"/>
<text text-anchor="start" x="740" y="-74.5" font-family="Helvetica,sans-Serif" font-size="10.00">boost/geometry/geometries</text>
<text text-anchor="middle" x="799.5" y="-63.5" font-family="Helvetica,sans-Serif" font-size="10.00">/point.hpp</text>
</g>
<!-- Node4&#45;&gt;Node10 -->
<g id="edge11" class="edge"><title>Node4&#45;&gt;Node10</title>
<path fill="none" stroke="midnightblue" d="M2815.94,-131.978C2552.4,-131.698 1290.82,-128.244 877.221,-86.9058"/>
<polygon fill="midnightblue" stroke="midnightblue" points="877.319,-83.3976 867.014,-85.8598 876.605,-90.3611 877.319,-83.3976"/>
</g>
<!-- Node11 -->
<g id="node11" class="node"><title>Node11</title>
<polygon fill="white" stroke="#bfbfbf" points="885.5,-62 885.5,-81 993.5,-81 993.5,-62 885.5,-62"/>
<text text-anchor="middle" x="939.5" y="-69" font-family="Helvetica,sans-Serif" font-size="10.00">boost/mpl/assert.hpp</text>
</g>
<!-- Node4&#45;&gt;Node11 -->
<g id="edge12" class="edge"><title>Node4&#45;&gt;Node11</title>
<path fill="none" stroke="midnightblue" d="M2815.67,-132.155C2559.47,-132.763 1368.24,-133.029 1002.5,-87 995.542,-86.1243 988.227,-84.8123 981.145,-83.3291"/>
<polygon fill="midnightblue" stroke="midnightblue" points="981.525,-79.8278 971.002,-81.0644 979.999,-86.6596 981.525,-79.8278"/>
</g>
<!-- Node12 -->
<g id="node12" class="node"><title>Node12</title>
<polygon fill="white" stroke="#bfbfbf" points="1011.5,-56.5 1011.5,-86.5 1117.5,-86.5 1117.5,-56.5 1011.5,-56.5"/>
<text text-anchor="start" x="1019.5" y="-74.5" font-family="Helvetica,sans-Serif" font-size="10.00">boost/geometry/core</text>
<text text-anchor="middle" x="1064.5" y="-63.5" font-family="Helvetica,sans-Serif" font-size="10.00">/access.hpp</text>
</g>
<!-- Node4&#45;&gt;Node12 -->
<g id="edge13" class="edge"><title>Node4&#45;&gt;Node12</title>
<path fill="none" stroke="midnightblue" d="M2815.72,-132.08C2572.36,-132.274 1487.23,-130.698 1127.97,-86.9674"/>
<polygon fill="midnightblue" stroke="midnightblue" points="1128.17,-83.4651 1117.81,-85.6945 1127.3,-90.4108 1128.17,-83.4651"/>
</g>
<!-- Node13 -->
<g id="node13" class="node"><title>Node13</title>
<polygon fill="white" stroke="#bfbfbf" points="1136,-62 1136,-81 1283,-81 1283,-62 1136,-62"/>
<text text-anchor="middle" x="1209.5" y="-69" font-family="Helvetica,sans-Serif" font-size="10.00">boost/core/ignore_unused.hpp</text>
</g>
<!-- Node4&#45;&gt;Node13 -->
<g id="edge14" class="edge"><title>Node4&#45;&gt;Node13</title>
<path fill="none" stroke="midnightblue" d="M2815.92,-131.555C2585.22,-129.296 1598.78,-117.973 1292.5,-87 1282.46,-85.9845 1271.8,-84.463 1261.59,-82.7821"/>
<polygon fill="midnightblue" stroke="midnightblue" points="1262.01,-79.3035 1251.56,-81.0608 1260.82,-86.2026 1262.01,-79.3035"/>
</g>
<!-- Node14 -->
<g id="node14" class="node"><title>Node14</title>
<polygon fill="white" stroke="#bfbfbf" points="1301.5,-56.5 1301.5,-86.5 1401.5,-86.5 1401.5,-56.5 1301.5,-56.5"/>
<text text-anchor="start" x="1309.5" y="-74.5" font-family="Helvetica,sans-Serif" font-size="10.00">boost/type_traits/is</text>
<text text-anchor="middle" x="1351.5" y="-63.5" font-family="Helvetica,sans-Serif" font-size="10.00">_pointer.hpp</text>
</g>
<!-- Node4&#45;&gt;Node14 -->
<g id="edge15" class="edge"><title>Node4&#45;&gt;Node14</title>
<path fill="none" stroke="midnightblue" d="M2815.9,-131.866C2598.27,-131.06 1711.29,-125.509 1411.56,-86.8936"/>
<polygon fill="midnightblue" stroke="midnightblue" points="1411.95,-83.4147 1401.57,-85.5649 1411.02,-90.3536 1411.95,-83.4147"/>
</g>
<!-- Node15 -->
<g id="node15" class="node"><title>Node15</title>
<polygon fill="white" stroke="#bfbfbf" points="1420,-56.5 1420,-86.5 1545,-86.5 1545,-56.5 1420,-56.5"/>
<text text-anchor="start" x="1428" y="-74.5" font-family="Helvetica,sans-Serif" font-size="10.00">boost/type_traits/remove</text>
<text text-anchor="middle" x="1482.5" y="-63.5" font-family="Helvetica,sans-Serif" font-size="10.00">_pointer.hpp</text>
</g>
<!-- Node4&#45;&gt;Node15 -->
<g id="edge16" class="edge"><title>Node4&#45;&gt;Node15</title>
<path fill="none" stroke="midnightblue" d="M2815.95,-131.421C2612.3,-128.825 1825.43,-117.101 1555.29,-87.0496"/>
<polygon fill="midnightblue" stroke="midnightblue" points="1555.46,-83.5464 1545.13,-85.8812 1554.66,-90.5006 1555.46,-83.5464"/>
</g>
<!-- Node16 -->
<g id="node16" class="node"><title>Node16</title>
<polygon fill="white" stroke="#bfbfbf" points="1563,-56.5 1563,-86.5 1670,-86.5 1670,-56.5 1563,-56.5"/>
<text text-anchor="start" x="1571" y="-74.5" font-family="Helvetica,sans-Serif" font-size="10.00">boost/geometry/core</text>
<text text-anchor="middle" x="1616.5" y="-63.5" font-family="Helvetica,sans-Serif" font-size="10.00">/coordinate_type.hpp</text>
</g>
<!-- Node4&#45;&gt;Node16 -->
<g id="edge17" class="edge"><title>Node4&#45;&gt;Node16</title>
<path fill="none" stroke="midnightblue" d="M2815.72,-131.397C2624.38,-128.842 1923.99,-117.653 1680.36,-87.0425"/>
<polygon fill="midnightblue" stroke="midnightblue" points="1680.52,-83.5333 1670.15,-85.7114 1679.62,-90.4746 1680.52,-83.5333"/>
</g>
<!-- Node17 -->
<g id="node17" class="node"><title>Node17</title>
<polygon fill="white" stroke="#bfbfbf" points="1687.5,-56.5 1687.5,-86.5 1793.5,-86.5 1793.5,-56.5 1687.5,-56.5"/>
<text text-anchor="start" x="1695.5" y="-74.5" font-family="Helvetica,sans-Serif" font-size="10.00">boost/geometry/core</text>
<text text-anchor="middle" x="1740.5" y="-63.5" font-family="Helvetica,sans-Serif" font-size="10.00">/point_type.hpp</text>
</g>
<!-- Node4&#45;&gt;Node17 -->
<g id="edge18" class="edge"><title>Node4&#45;&gt;Node17</title>
<path fill="none" stroke="midnightblue" d="M2815.98,-131.152C2638.22,-127.86 2022.03,-114.777 1803.9,-86.9729"/>
<polygon fill="midnightblue" stroke="midnightblue" points="1804.19,-83.4808 1793.82,-85.6377 1803.27,-90.4202 1804.19,-83.4808"/>
</g>
<!-- Node18 -->
<g id="node18" class="node"><title>Node18</title>
<polygon fill="white" stroke="#bfbfbf" points="1811.5,-56.5 1811.5,-86.5 1917.5,-86.5 1917.5,-56.5 1811.5,-56.5"/>
<text text-anchor="start" x="1819.5" y="-74.5" font-family="Helvetica,sans-Serif" font-size="10.00">boost/geometry/core</text>
<text text-anchor="middle" x="1864.5" y="-63.5" font-family="Helvetica,sans-Serif" font-size="10.00">/tag.hpp</text>
</g>
<!-- Node4&#45;&gt;Node18 -->
<g id="edge19" class="edge"><title>Node4&#45;&gt;Node18</title>
<path fill="none" stroke="midnightblue" d="M2815.73,-130.832C2651.7,-126.725 2120.03,-111.902 1927.81,-86.9667"/>
<polygon fill="midnightblue" stroke="midnightblue" points="1928.2,-83.4877 1917.82,-85.6185 1927.26,-90.4248 1928.2,-83.4877"/>
</g>
<!-- Node19 -->
<g id="node19" class="node"><title>Node19</title>
<polygon fill="white" stroke="#bfbfbf" points="1935.5,-56.5 1935.5,-86.5 2035.5,-86.5 2035.5,-56.5 1935.5,-56.5"/>
<text text-anchor="start" x="1943.5" y="-74.5" font-family="Helvetica,sans-Serif" font-size="10.00">boost/geometry/util</text>
<text text-anchor="middle" x="1985.5" y="-63.5" font-family="Helvetica,sans-Serif" font-size="10.00">/bare_type.hpp</text>
</g>
<!-- Node4&#45;&gt;Node19 -->
<g id="edge20" class="edge"><title>Node4&#45;&gt;Node19</title>
<path fill="none" stroke="midnightblue" d="M2815.66,-132.476C2689.52,-133.033 2342.56,-130.292 2045.68,-86.9737"/>
<polygon fill="midnightblue" stroke="midnightblue" points="2045.99,-83.4813 2035.59,-85.4819 2044.97,-90.4061 2045.99,-83.4813"/>
</g>
<!-- Node20 -->
<g id="node20" class="node"><title>Node20</title>
<polygon fill="white" stroke="#bfbfbf" points="2053.5,-56.5 2053.5,-86.5 2159.5,-86.5 2159.5,-56.5 2053.5,-56.5"/>
<text text-anchor="start" x="2061.5" y="-74.5" font-family="Helvetica,sans-Serif" font-size="10.00">boost/geometry/core</text>
<text text-anchor="middle" x="2106.5" y="-63.5" font-family="Helvetica,sans-Serif" font-size="10.00">/assert.hpp</text>
</g>
<!-- Node4&#45;&gt;Node20 -->
<g id="edge21" class="edge"><title>Node4&#45;&gt;Node20</title>
<path fill="none" stroke="midnightblue" d="M2815.61,-131.674C2703.04,-130.316 2416.8,-123.401 2169.87,-87.2085"/>
<polygon fill="midnightblue" stroke="midnightblue" points="2170.03,-83.694 2159.63,-85.6865 2169,-90.618 2170.03,-83.694"/>
</g>
<!-- Node21 -->
<g id="node21" class="node"><title>Node21</title>
<polygon fill="white" stroke="#bfbfbf" points="2177,-62 2177,-81 2266,-81 2266,-62 2177,-62"/>
<text text-anchor="middle" x="2221.5" y="-69" font-family="Helvetica,sans-Serif" font-size="10.00">boost/assert.hpp</text>
</g>
<!-- Node4&#45;&gt;Node21 -->
<g id="edge22" class="edge"><title>Node4&#45;&gt;Node21</title>
<path fill="none" stroke="midnightblue" d="M2815.93,-131.423C2714.57,-129.535 2473.4,-121.467 2274.5,-87 2269.34,-86.1067 2263.97,-84.9306 2258.7,-83.634"/>
<polygon fill="midnightblue" stroke="midnightblue" points="2259.34,-80.1856 2248.78,-81.0345 2257.57,-86.9566 2259.34,-80.1856"/>
</g>
<!-- Node22 -->
<g id="node22" class="node"><title>Node22</title>
<polygon fill="white" stroke="#bfbfbf" points="2284,-56.5 2284,-86.5 2405,-86.5 2405,-56.5 2284,-56.5"/>
<text text-anchor="start" x="2292" y="-74.5" font-family="Helvetica,sans-Serif" font-size="10.00">boost/geometry/core</text>
<text text-anchor="middle" x="2344.5" y="-63.5" font-family="Helvetica,sans-Serif" font-size="10.00">/coordinate_system.hpp</text>
</g>
<!-- Node4&#45;&gt;Node22 -->
<g id="edge23" class="edge"><title>Node4&#45;&gt;Node22</title>
<path fill="none" stroke="midnightblue" d="M2815.9,-128.874C2734.78,-123.282 2566.54,-110.081 2414.97,-87.1276"/>
<polygon fill="midnightblue" stroke="midnightblue" points="2415.43,-83.6568 2405.01,-85.6016 2414.37,-90.576 2415.43,-83.6568"/>
</g>
<!-- Node23 -->
<g id="node23" class="node"><title>Node23</title>
<polygon fill="white" stroke="#bfbfbf" points="2423,-56.5 2423,-86.5 2556,-86.5 2556,-56.5 2423,-56.5"/>
<text text-anchor="start" x="2431" y="-74.5" font-family="Helvetica,sans-Serif" font-size="10.00">boost/geometry/core</text>
<text text-anchor="middle" x="2489.5" y="-63.5" font-family="Helvetica,sans-Serif" font-size="10.00">/coordinate_dimension.hpp</text>
</g>
<!-- Node4&#45;&gt;Node23 -->
<g id="edge24" class="edge"><title>Node4&#45;&gt;Node23</title>
<path fill="none" stroke="midnightblue" d="M2815.82,-125.34C2758.42,-117.344 2659.9,-103.174 2566.07,-87.2317"/>
<polygon fill="midnightblue" stroke="midnightblue" points="2566.58,-83.7673 2556.13,-85.5326 2565.4,-90.6673 2566.58,-83.7673"/>
</g>
<!-- Node24 -->
<g id="node24" class="node"><title>Node24</title>
<polygon fill="white" stroke="#bfbfbf" points="2574,-56.5 2574,-86.5 2709,-86.5 2709,-56.5 2574,-56.5"/>
<text text-anchor="start" x="2582" y="-74.5" font-family="Helvetica,sans-Serif" font-size="10.00">boost/geometry/geometries</text>
<text text-anchor="middle" x="2641.5" y="-63.5" font-family="Helvetica,sans-Serif" font-size="10.00">/box.hpp</text>
</g>
<!-- Node4&#45;&gt;Node24 -->
<g id="edge25" class="edge"><title>Node4&#45;&gt;Node24</title>
<path fill="none" stroke="midnightblue" d="M2832.55,-123.475C2799.1,-114.551 2745.72,-100.309 2703.88,-89.1444"/>
<polygon fill="midnightblue" stroke="midnightblue" points="2704.62,-85.7193 2694.06,-86.523 2702.82,-92.4827 2704.62,-85.7193"/>
</g>
<!-- Node25 -->
<g id="node25" class="node"><title>Node25</title>
<polygon fill="white" stroke="#bfbfbf" points="2727,-62 2727,-81 2854,-81 2854,-62 2727,-62"/>
<text text-anchor="middle" x="2790.5" y="-69" font-family="Helvetica,sans-Serif" font-size="10.00">boost/concept/assert.hpp</text>
</g>
<!-- Node4&#45;&gt;Node25 -->
<g id="edge26" class="edge"><title>Node4&#45;&gt;Node25</title>
<path fill="none" stroke="midnightblue" d="M2853.9,-123.475C2842.25,-114.108 2823.31,-98.8839 2809.17,-87.5081"/>
<polygon fill="midnightblue" stroke="midnightblue" points="2811.07,-84.5477 2801.08,-81.0091 2806.68,-90.003 2811.07,-84.5477"/>
</g>
<!-- Node26 -->
<g id="node26" class="node"><title>Node26</title>
<polygon fill="white" stroke="#bfbfbf" points="2872.5,-56.5 2872.5,-86.5 3004.5,-86.5 3004.5,-56.5 2872.5,-56.5"/>
<text text-anchor="start" x="2880.5" y="-74.5" font-family="Helvetica,sans-Serif" font-size="10.00">boost/geometry/algorithms</text>
<text text-anchor="middle" x="2938.5" y="-63.5" font-family="Helvetica,sans-Serif" font-size="10.00">/convert.hpp</text>
</g>
<!-- Node4&#45;&gt;Node26 -->
<g id="edge27" class="edge"><title>Node4&#45;&gt;Node26</title>
<path fill="none" stroke="midnightblue" d="M2875.1,-123.475C2884.94,-115.567 2899.96,-103.485 2912.92,-93.0675"/>
<polygon fill="midnightblue" stroke="midnightblue" points="2915.46,-95.5169 2921.06,-86.523 2911.07,-90.0616 2915.46,-95.5169"/>
</g>
<!-- Node27 -->
<g id="node27" class="node"><title>Node27</title>
<polygon fill="white" stroke="#bfbfbf" points="3022.5,-56.5 3022.5,-86.5 3150.5,-86.5 3150.5,-56.5 3022.5,-56.5"/>
<text text-anchor="start" x="3030.5" y="-74.5" font-family="Helvetica,sans-Serif" font-size="10.00">boost/numeric/conversion</text>
<text text-anchor="middle" x="3086.5" y="-63.5" font-family="Helvetica,sans-Serif" font-size="10.00">/cast.hpp</text>
</g>
<!-- Node4&#45;&gt;Node27 -->
<g id="edge28" class="edge"><title>Node4&#45;&gt;Node27</title>
<path fill="none" stroke="midnightblue" d="M2896.31,-123.475C2929.61,-114.551 2982.74,-100.309 3024.4,-89.1444"/>
<polygon fill="midnightblue" stroke="midnightblue" points="3025.43,-92.4925 3034.18,-86.523 3023.61,-85.7312 3025.43,-92.4925"/>
</g>
<!-- Node28 -->
<g id="node28" class="node"><title>Node28</title>
<polygon fill="white" stroke="#bfbfbf" points="3168.5,-62 3168.5,-81 3254.5,-81 3254.5,-62 3168.5,-62"/>
<text text-anchor="middle" x="3211.5" y="-69" font-family="Helvetica,sans-Serif" font-size="10.00">boost/range.hpp</text>
</g>
<!-- Node4&#45;&gt;Node28 -->
<g id="edge29" class="edge"><title>Node4&#45;&gt;Node28</title>
<path fill="none" stroke="midnightblue" d="M2913.23,-124.426C2916.37,-123.943 2919.48,-123.464 2922.5,-123 3027.81,-106.832 3055.33,-109.35 3159.5,-87 3164,-86.0339 3168.69,-84.9044 3173.33,-83.7098"/>
<polygon fill="midnightblue" stroke="midnightblue" points="3174.57,-87.0026 3183.32,-81.029 3172.75,-80.242 3174.57,-87.0026"/>
</g>
<!-- Node29 -->
<g id="node29" class="node"><title>Node29</title>
<polygon fill="white" stroke="#bfbfbf" points="3273,-62 3273,-81 3402,-81 3402,-62 3273,-62"/>
<text text-anchor="middle" x="3337.5" y="-69" font-family="Helvetica,sans-Serif" font-size="10.00">boost/range/functions.hpp</text>
</g>
<!-- Node4&#45;&gt;Node29 -->
<g id="edge30" class="edge"><title>Node4&#45;&gt;Node29</title>
<path fill="none" stroke="midnightblue" d="M2913.21,-124.265C2916.35,-123.821 2919.47,-123.395 2922.5,-123 3073.62,-103.31 3112.8,-109.674 3263.5,-87 3271.24,-85.8359 3279.39,-84.425 3287.36,-82.9461"/>
<polygon fill="midnightblue" stroke="midnightblue" points="3288.12,-86.3633 3297.29,-81.0497 3286.81,-79.4876 3288.12,-86.3633"/>
</g>
<!-- Node30 -->
<g id="node30" class="node"><title>Node30</title>
<polygon fill="white" stroke="#bfbfbf" points="3420,-62 3420,-81 3571,-81 3571,-62 3420,-62"/>
<text text-anchor="middle" x="3495.5" y="-69" font-family="Helvetica,sans-Serif" font-size="10.00">boost/range/metafunctions.hpp</text>
</g>
<!-- Node4&#45;&gt;Node30 -->
<g id="edge31" class="edge"><title>Node4&#45;&gt;Node30</title>
<path fill="none" stroke="midnightblue" d="M2913.2,-124.153C2916.34,-123.736 2919.46,-123.347 2922.5,-123 3139.01,-98.2722 3195.2,-113.566 3411.5,-87 3420.98,-85.8351 3431.03,-84.3353 3440.75,-82.7438"/>
<polygon fill="midnightblue" stroke="midnightblue" points="3441.44,-86.1764 3450.72,-81.0622 3440.28,-79.2739 3441.44,-86.1764"/>
</g>
<!-- Node31 -->
<g id="node31" class="node"><title>Node31</title>
<polygon fill="white" stroke="#bfbfbf" points="3589,-62 3589,-81 3708,-81 3708,-62 3589,-62"/>
<text text-anchor="middle" x="3648.5" y="-69" font-family="Helvetica,sans-Serif" font-size="10.00">boost/range/iterator.hpp</text>
</g>
<!-- Node4&#45;&gt;Node31 -->
<g id="edge32" class="edge"><title>Node4&#45;&gt;Node31</title>
<path fill="none" stroke="midnightblue" d="M2913.19,-124.086C2916.34,-123.686 2919.46,-123.318 2922.5,-123 3213.79,-92.5076 3290.18,-125.656 3580.5,-87 3587.99,-86.003 3595.88,-84.627 3603.53,-83.1169"/>
<polygon fill="midnightblue" stroke="midnightblue" points="3604.31,-86.5299 3613.39,-81.0749 3602.89,-79.6753 3604.31,-86.5299"/>
</g>
<!-- Node32 -->
<g id="node32" class="node"><title>Node32</title>
<polygon fill="white" stroke="#bfbfbf" points="3726.5,-56.5 3726.5,-86.5 3842.5,-86.5 3842.5,-56.5 3726.5,-56.5"/>
<text text-anchor="start" x="3734.5" y="-74.5" font-family="Helvetica,sans-Serif" font-size="10.00">boost/range/has_range</text>
<text text-anchor="middle" x="3784.5" y="-63.5" font-family="Helvetica,sans-Serif" font-size="10.00">_iterator.hpp</text>
</g>
<!-- Node4&#45;&gt;Node32 -->
<g id="edge33" class="edge"><title>Node4&#45;&gt;Node32</title>
<path fill="none" stroke="midnightblue" d="M2913.19,-124.053C2916.33,-123.66 2919.46,-123.304 2922.5,-123 3271.18,-88.157 3365.02,-131.744 3716.56,-86.9574"/>
<polygon fill="midnightblue" stroke="midnightblue" points="3717.03,-90.4255 3726.5,-85.6758 3716.13,-83.4829 3717.03,-90.4255"/>
</g>
<!-- Node33 -->
<g id="node33" class="node"><title>Node33</title>
<polygon fill="white" stroke="#bfbfbf" points="3861,-56.5 3861,-86.5 3956,-86.5 3956,-56.5 3861,-56.5"/>
<text text-anchor="start" x="3869" y="-74.5" font-family="Helvetica,sans-Serif" font-size="10.00">boost/range/result</text>
<text text-anchor="middle" x="3908.5" y="-63.5" font-family="Helvetica,sans-Serif" font-size="10.00">_iterator.hpp</text>
</g>
<!-- Node4&#45;&gt;Node33 -->
<g id="edge34" class="edge"><title>Node4&#45;&gt;Node33</title>
<path fill="none" stroke="midnightblue" d="M2913.18,-124.029C2916.33,-123.643 2919.46,-123.294 2922.5,-123 3330.47,-83.5749 3440.8,-145.253 3850.71,-86.8686"/>
<polygon fill="midnightblue" stroke="midnightblue" points="3851.35,-90.3114 3860.75,-85.4221 3850.36,-83.3828 3851.35,-90.3114"/>
</g>
<!-- Node34 -->
<g id="node34" class="node"><title>Node34</title>
<polygon fill="white" stroke="#bfbfbf" points="3974,-56.5 3974,-86.5 4077,-86.5 4077,-56.5 3974,-56.5"/>
<text text-anchor="start" x="3982" y="-74.5" font-family="Helvetica,sans-Serif" font-size="10.00">boost/range/reverse</text>
<text text-anchor="middle" x="4025.5" y="-63.5" font-family="Helvetica,sans-Serif" font-size="10.00">_iterator.hpp</text>
</g>
<!-- Node4&#45;&gt;Node34 -->
<g id="edge35" class="edge"><title>Node4&#45;&gt;Node34</title>
<path fill="none" stroke="midnightblue" d="M2913.18,-124.014C2916.33,-123.631 2919.46,-123.288 2922.5,-123 3380.89,-79.6805 3504.14,-148.774 3963.69,-87.0557"/>
<polygon fill="midnightblue" stroke="midnightblue" points="3964.48,-90.4809 3973.92,-85.6681 3963.54,-83.5444 3964.48,-90.4809"/>
</g>
<!-- Node35 -->
<g id="node35" class="node"><title>Node35</title>
<polygon fill="white" stroke="#bfbfbf" points="4095.5,-56.5 4095.5,-86.5 4227.5,-86.5 4227.5,-56.5 4095.5,-56.5"/>
<text text-anchor="start" x="4103.5" y="-74.5" font-family="Helvetica,sans-Serif" font-size="10.00">boost/range/const_reverse</text>
<text text-anchor="middle" x="4161.5" y="-63.5" font-family="Helvetica,sans-Serif" font-size="10.00">_iterator.hpp</text>
</g>
<!-- Node4&#45;&gt;Node35 -->
<g id="edge36" class="edge"><title>Node4&#45;&gt;Node35</title>
<path fill="none" stroke="midnightblue" d="M2913.18,-124.002C2916.33,-123.622 2919.46,-123.282 2922.5,-123 3434.47,-75.5423 3570.32,-143.401 4085.04,-87.0261"/>
<polygon fill="midnightblue" stroke="midnightblue" points="4085.78,-90.4655 4095.33,-85.8874 4085.01,-83.5079 4085.78,-90.4655"/>
</g>
<!-- Node36 -->
<g id="node36" class="node"><title>Node36</title>
<polygon fill="white" stroke="#bfbfbf" points="4246,-56.5 4246,-86.5 4371,-86.5 4371,-56.5 4246,-56.5"/>
<text text-anchor="start" x="4254" y="-74.5" font-family="Helvetica,sans-Serif" font-size="10.00">boost/type_traits/remove</text>
<text text-anchor="middle" x="4308.5" y="-63.5" font-family="Helvetica,sans-Serif" font-size="10.00">_reference.hpp</text>
</g>
<!-- Node4&#45;&gt;Node36 -->
<g id="edge37" class="edge"><title>Node4&#45;&gt;Node36</title>
<path fill="none" stroke="midnightblue" d="M2913.18,-123.989C2916.33,-123.612 2919.46,-123.277 2922.5,-123 3500.91,-70.4128 3654.22,-151.946 4235.45,-86.9554"/>
<polygon fill="midnightblue" stroke="midnightblue" points="4236.23,-90.39 4245.77,-85.7909 4235.44,-83.4341 4236.23,-90.39"/>
</g>
<!-- Node37 -->
<g id="node37" class="node"><title>Node37</title>
<polygon fill="white" stroke="#bfbfbf" points="4389,-56.5 4389,-86.5 4492,-86.5 4492,-56.5 4389,-56.5"/>
<text text-anchor="start" x="4397" y="-74.5" font-family="Helvetica,sans-Serif" font-size="10.00">boost/range/reverse</text>
<text text-anchor="middle" x="4440.5" y="-63.5" font-family="Helvetica,sans-Serif" font-size="10.00">_result_iterator.hpp</text>
</g>
<!-- Node4&#45;&gt;Node37 -->
<g id="edge38" class="edge"><title>Node4&#45;&gt;Node37</title>
<path fill="none" stroke="midnightblue" d="M2913.18,-123.979C2916.33,-123.605 2919.46,-123.273 2922.5,-123 3564.8,-65.4793 3736.1,-170.522 4378.94,-87.0072"/>
<polygon fill="midnightblue" stroke="midnightblue" points="4379.46,-90.4697 4388.92,-85.701 4378.55,-83.5289 4379.46,-90.4697"/>
</g>
<!-- Node38 -->
<g id="node38" class="node"><title>Node38</title>
<polygon fill="white" stroke="#bfbfbf" points="4510,-62 4510,-81 4647,-81 4647,-62 4510,-62"/>
<text text-anchor="middle" x="4578.5" y="-69" font-family="Helvetica,sans-Serif" font-size="10.00">boost/range/value_type.hpp</text>
</g>
<!-- Node4&#45;&gt;Node38 -->
<g id="edge39" class="edge"><title>Node4&#45;&gt;Node38</title>
<path fill="none" stroke="midnightblue" d="M2913.18,-123.973C2916.33,-123.6 2919.45,-123.27 2922.5,-123 3621.72,-61.0485 3803.37,-160.196 4501.5,-87 4510.74,-86.0313 4520.53,-84.5474 4529.92,-82.8922"/>
<polygon fill="midnightblue" stroke="midnightblue" points="4530.71,-86.3056 4539.9,-81.0451 4529.44,-79.4224 4530.71,-86.3056"/>
</g>
<!-- Node39 -->
<g id="node39" class="node"><title>Node39</title>
<polygon fill="white" stroke="#bfbfbf" points="4665,-62 4665,-81 4796,-81 4796,-62 4665,-62"/>
<text text-anchor="middle" x="4730.5" y="-69" font-family="Helvetica,sans-Serif" font-size="10.00">boost/range/size_type.hpp</text>
</g>
<!-- Node4&#45;&gt;Node39 -->
<g id="edge40" class="edge"><title>Node4&#45;&gt;Node39</title>
<path fill="none" stroke="midnightblue" d="M2913.18,-123.965C2916.33,-123.594 2919.45,-123.267 2922.5,-123 3690.39,-55.7522 3890.09,-169.419 4656.5,-87 4665.3,-86.0542 4674.6,-84.5975 4683.54,-82.9654"/>
<polygon fill="midnightblue" stroke="midnightblue" points="4684.27,-86.3902 4693.43,-81.0663 4682.94,-79.5159 4684.27,-86.3902"/>
</g>
<!-- Node40 -->
<g id="node40" class="node"><title>Node40</title>
<polygon fill="white" stroke="#bfbfbf" points="4814,-56.5 4814,-86.5 4927,-86.5 4927,-56.5 4814,-56.5"/>
<text text-anchor="start" x="4822" y="-74.5" font-family="Helvetica,sans-Serif" font-size="10.00">boost/range/difference</text>
<text text-anchor="middle" x="4870.5" y="-63.5" font-family="Helvetica,sans-Serif" font-size="10.00">_type.hpp</text>
</g>
<!-- Node4&#45;&gt;Node40 -->
<g id="edge41" class="edge"><title>Node4&#45;&gt;Node40</title>
<path fill="none" stroke="midnightblue" d="M2913.18,-123.96C2916.33,-123.59 2919.45,-123.264 2922.5,-123 3336.2,-87.113 4373.58,-136.035 4803.84,-87.0044"/>
<polygon fill="midnightblue" stroke="midnightblue" points="4804.37,-90.4669 4813.9,-85.8279 4803.56,-83.5144 4804.37,-90.4669"/>
</g>
<!-- Node41 -->
<g id="node41" class="node"><title>Node41</title>
<polygon fill="white" stroke="#bfbfbf" points="4945,-62 4945,-81 5072,-81 5072,-62 4945,-62"/>
<text text-anchor="middle" x="5008.5" y="-69" font-family="Helvetica,sans-Serif" font-size="10.00">boost/range/category.hpp</text>
</g>
<!-- Node4&#45;&gt;Node41 -->
<g id="edge42" class="edge"><title>Node4&#45;&gt;Node41</title>
<path fill="none" stroke="midnightblue" d="M2913.18,-123.955C2916.33,-123.587 2919.45,-123.262 2922.5,-123 3368.48,-84.5922 4491.5,-135.384 4936.5,-87 4945.06,-86.0688 4954.12,-84.6192 4962.82,-82.9896"/>
<polygon fill="midnightblue" stroke="midnightblue" points="4963.68,-86.3877 4972.81,-81.0143 4962.32,-79.5207 4963.68,-86.3877"/>
</g>
<!-- Node42 -->
<g id="node42" class="node"><title>Node42</title>
<polygon fill="white" stroke="#bfbfbf" points="5090.5,-62 5090.5,-81 5206.5,-81 5206.5,-62 5090.5,-62"/>
<text text-anchor="middle" x="5148.5" y="-69" font-family="Helvetica,sans-Serif" font-size="10.00">boost/range/config.hpp</text>
</g>
<!-- Node4&#45;&gt;Node42 -->
<g id="edge43" class="edge"><title>Node4&#45;&gt;Node42</title>
<path fill="none" stroke="midnightblue" d="M2913.18,-123.951C2916.33,-123.583 2919.45,-123.26 2922.5,-123 3400.6,-82.1147 4604.82,-142.014 5081.5,-87 5089.31,-86.0982 5097.56,-84.6955 5105.49,-83.1107"/>
<polygon fill="midnightblue" stroke="midnightblue" points="5106.26,-86.5259 5115.32,-81.0299 5104.81,-79.6778 5106.26,-86.5259"/>
</g>
<!-- Node43 -->
<g id="node43" class="node"><title>Node43</title>
<polygon fill="white" stroke="#bfbfbf" points="5225,-56.5 5225,-86.5 5332,-86.5 5332,-56.5 5225,-56.5"/>
<text text-anchor="start" x="5233" y="-74.5" font-family="Helvetica,sans-Serif" font-size="10.00">boost/iterator/iterator</text>
<text text-anchor="middle" x="5278.5" y="-63.5" font-family="Helvetica,sans-Serif" font-size="10.00">_traits.hpp</text>
</g>
<!-- Node4&#45;&gt;Node43 -->
<g id="edge44" class="edge"><title>Node4&#45;&gt;Node43</title>
<path fill="none" stroke="midnightblue" d="M2913.18,-123.947C2916.33,-123.581 2919.45,-123.259 2922.5,-123 3426.94,-80.1097 4692.77,-147.592 5214.39,-86.8976"/>
<polygon fill="midnightblue" stroke="midnightblue" points="5215.16,-90.3308 5224.68,-85.6724 5214.33,-83.38 5215.16,-90.3308"/>
</g>
<!-- Node44 -->
<g id="node44" class="node"><title>Node44</title>
<polygon fill="white" stroke="#bfbfbf" points="5350.5,-62 5350.5,-81 5480.5,-81 5480.5,-62 5350.5,-62"/>
<text text-anchor="middle" x="5415.5" y="-69" font-family="Helvetica,sans-Serif" font-size="10.00">boost/range/reference.hpp</text>
</g>
<!-- Node4&#45;&gt;Node44 -->
<g id="edge45" class="edge"><title>Node4&#45;&gt;Node44</title>
<path fill="none" stroke="midnightblue" d="M2913.18,-123.944C2916.33,-123.579 2919.45,-123.258 2922.5,-123 3458.2,-77.6722 4806.8,-142.912 5341.5,-87 5350.39,-86.0701 5359.81,-84.6044 5368.83,-82.9549"/>
<polygon fill="midnightblue" stroke="midnightblue" points="5369.65,-86.3617 5378.81,-81.0332 5368.33,-79.488 5369.65,-86.3617"/>
</g>
<!-- Node45 -->
<g id="node45" class="node"><title>Node45</title>
<polygon fill="white" stroke="#bfbfbf" points="5499,-62 5499,-81 5618,-81 5618,-62 5499,-62"/>
<text text-anchor="middle" x="5558.5" y="-69" font-family="Helvetica,sans-Serif" font-size="10.00">boost/range/pointer.hpp</text>
</g>
<!-- Node4&#45;&gt;Node45 -->
<g id="edge46" class="edge"><title>Node4&#45;&gt;Node45</title>
<path fill="none" stroke="midnightblue" d="M2913.17,-123.941C2916.33,-123.576 2919.45,-123.256 2922.5,-123 3490.99,-75.1434 4922.48,-149.956 5489.5,-87 5497.63,-86.0973 5506.22,-84.6778 5514.47,-83.0728"/>
<polygon fill="midnightblue" stroke="midnightblue" points="5515.23,-86.4903 5524.32,-81.0453 5513.82,-79.6342 5515.23,-86.4903"/>
</g>
<!-- Node46 -->
<g id="node46" class="node"><title>Node46</title>
<polygon fill="white" stroke="#bfbfbf" points="5636,-56.5 5636,-86.5 5737,-86.5 5737,-56.5 5636,-56.5"/>
<text text-anchor="start" x="5644" y="-74.5" font-family="Helvetica,sans-Serif" font-size="10.00">boost/range/iterator</text>
<text text-anchor="middle" x="5686.5" y="-63.5" font-family="Helvetica,sans-Serif" font-size="10.00">_range.hpp</text>
</g>
<!-- Node4&#45;&gt;Node46 -->
<g id="edge47" class="edge"><title>Node4&#45;&gt;Node46</title>
<path fill="none" stroke="midnightblue" d="M2913.17,-123.939C2916.32,-123.574 2919.45,-123.255 2922.5,-123 3518.2,-73.0674 5014.26,-162.219 5625.52,-87.0291"/>
<polygon fill="midnightblue" stroke="midnightblue" points="5626.3,-90.4582 5635.79,-85.7396 5625.43,-83.5128 5626.3,-90.4582"/>
</g>
<!-- Node47 -->
<g id="node47" class="node"><title>Node47</title>
<polygon fill="white" stroke="#bfbfbf" points="5755.5,-62 5755.5,-81 5889.5,-81 5889.5,-62 5755.5,-62"/>
<text text-anchor="middle" x="5822.5" y="-69" font-family="Helvetica,sans-Serif" font-size="10.00">boost/range/sub_range.hpp</text>
</g>
<!-- Node4&#45;&gt;Node47 -->
<g id="edge48" class="edge"><title>Node4&#45;&gt;Node47</title>
<path fill="none" stroke="midnightblue" d="M2913.17,-123.937C2916.32,-123.573 2919.45,-123.254 2922.5,-123 3547.93,-70.7521 5122.07,-150.053 5746.5,-87 5755.73,-86.0684 5765.5,-84.5849 5774.86,-82.9149"/>
<polygon fill="midnightblue" stroke="midnightblue" points="5775.63,-86.3326 5784.81,-81.0468 5774.33,-79.4529 5775.63,-86.3326"/>
</g>
<!-- Node48 -->
<g id="node48" class="node"><title>Node48</title>
<polygon fill="white" stroke="#bfbfbf" points="5908,-62 5908,-81 6047,-81 6047,-62 5908,-62"/>
<text text-anchor="middle" x="5977.5" y="-69" font-family="Helvetica,sans-Serif" font-size="10.00">boost/detail/workaround.hpp</text>
</g>
<!-- Node4&#45;&gt;Node48 -->
<g id="edge49" class="edge"><title>Node4&#45;&gt;Node48</title>
<path fill="none" stroke="midnightblue" d="M2913.17,-123.935C2916.32,-123.571 2919.45,-123.254 2922.5,-123 3581.6,-68.1549 5240.22,-150.928 5898.5,-87 5908.18,-86.0597 5918.46,-84.555 5928.28,-82.8633"/>
<polygon fill="midnightblue" stroke="midnightblue" points="5929.09,-86.2734 5938.31,-81.0486 5927.84,-79.3853 5929.09,-86.2734"/>
</g>
<!-- Node49 -->
<g id="node49" class="node"><title>Node49</title>
<polygon fill="white" stroke="#bfbfbf" points="6065.5,-56.5 6065.5,-86.5 6175.5,-86.5 6175.5,-56.5 6065.5,-56.5"/>
<text text-anchor="start" x="6073.5" y="-74.5" font-family="Helvetica,sans-Serif" font-size="10.00">boost/range/algorithm</text>
<text text-anchor="middle" x="6120.5" y="-63.5" font-family="Helvetica,sans-Serif" font-size="10.00">/equal.hpp</text>
</g>
<!-- Node4&#45;&gt;Node49 -->
<g id="edge50" class="edge"><title>Node4&#45;&gt;Node49</title>
<path fill="none" stroke="midnightblue" d="M2913.17,-123.932C2916.32,-123.57 2919.45,-123.253 2922.5,-123 3613.3,-65.7291 5348.16,-167.426 6055.39,-86.9113"/>
<polygon fill="midnightblue" stroke="midnightblue" points="6055.94,-90.3713 6065.47,-85.7433 6055.13,-83.4179 6055.94,-90.3713"/>
</g>
</g>
</svg>
