<?xml version="1.0" encoding="UTF-8" standalone="no"?>
<!DOCTYPE svg PUBLIC "-//W3C//DTD SVG 1.1//EN"
 "http://www.w3.org/Graphics/SVG/1.1/DTD/svg11.dtd">
<!-- Generated by graphviz version 2.43.0 (0)
 -->
<!-- Title: boost/ui/event.hpp Pages: 1 -->
<svg width="2578pt" height="196pt"
 viewBox="0.00 0.00 2578.23 196.00" xmlns="http://www.w3.org/2000/svg" xmlns:xlink="http://www.w3.org/1999/xlink">
<g id="graph0" class="graph" transform="scale(1 1) rotate(0) translate(4 192)">
<title>boost/ui/event.hpp</title>
<polygon fill="white" stroke="transparent" points="-4,4 -4,-192 2574.23,-192 2574.23,4 -4,4"/>
<!-- Node1 -->
<g id="node1" class="node">
<title>Node1</title>
<g id="a_node1"><a xlink:title="Event classes.">
<polygon fill="#bfbfbf" stroke="black" points="1858.5,-168.5 1858.5,-187.5 1965.5,-187.5 1965.5,-168.5 1858.5,-168.5"/>
<text text-anchor="middle" x="1912" y="-175.5" font-family="Helvetica,sans-Serif" font-size="10.00">boost/ui/event.hpp</text>
</a>
</g>
</g>
<!-- Node2 -->
<g id="node2" class="node">
<title>Node2</title>
<g id="a_node2"><a xlink:href="widget_8hpp.html" target="_top" xlink:title="Widget class.">
<polygon fill="white" stroke="black" points="1249.5,-112.5 1249.5,-131.5 1362.5,-131.5 1362.5,-112.5 1249.5,-112.5"/>
<text text-anchor="middle" x="1306" y="-119.5" font-family="Helvetica,sans-Serif" font-size="10.00">boost/ui/widget.hpp</text>
</a>
</g>
</g>
<!-- Node1&#45;&gt;Node2 -->
<g id="edge1" class="edge">
<title>Node1&#45;&gt;Node2</title>
<path fill="none" stroke="midnightblue" d="M1848.46,-171.34C1729.77,-160.76 1476.16,-138.16 1362.8,-128.06"/>
<polygon fill="midnightblue" stroke="midnightblue" points="1848.22,-174.83 1858.49,-172.23 1848.84,-167.86 1848.22,-174.83"/>
</g>
<!-- Node8 -->
<g id="node8" class="node">
<title>Node8</title>
<g id="a_node8"><a xlink:href="ui_8hpp.html" target="_top" xlink:title="Master Boost.UI file.">
<polygon fill="white" stroke="black" points="515.5,-0.5 515.5,-19.5 592.5,-19.5 592.5,-0.5 515.5,-0.5"/>
<text text-anchor="middle" x="554" y="-7.5" font-family="Helvetica,sans-Serif" font-size="10.00">boost/ui.hpp</text>
</a>
</g>
</g>
<!-- Node1&#45;&gt;Node8 -->
<g id="edge26" class="edge">
<title>Node1&#45;&gt;Node8</title>
<path fill="none" stroke="midnightblue" d="M1975.58,-175C2154.5,-168.28 2643.98,-141.89 2560,-56 2524.29,-19.48 869.04,-12.1 592.87,-11.12"/>
<polygon fill="midnightblue" stroke="midnightblue" points="1975.38,-171.5 1965.52,-175.37 1975.64,-178.5 1975.38,-171.5"/>
</g>
<!-- Node3 -->
<g id="node3" class="node">
<title>Node3</title>
<g id="a_node3"><a xlink:href="web__widget_8hpp.html" target="_top" xlink:title="Web widget.">
<polygon fill="white" stroke="black" points="0,-56.5 0,-75.5 138,-75.5 138,-56.5 0,-56.5"/>
<text text-anchor="middle" x="69" y="-63.5" font-family="Helvetica,sans-Serif" font-size="10.00">boost/ui/web_widget.hpp</text>
</a>
</g>
</g>
<!-- Node2&#45;&gt;Node3 -->
<g id="edge2" class="edge">
<title>Node2&#45;&gt;Node3</title>
<path fill="none" stroke="midnightblue" d="M1238.97,-120.18C1060.92,-117.61 561.37,-107.9 147,-76 144.15,-75.78 141.24,-75.54 138.3,-75.27"/>
<polygon fill="midnightblue" stroke="midnightblue" points="1239.18,-123.68 1249.23,-120.32 1239.28,-116.68 1239.18,-123.68"/>
</g>
<!-- Node4 -->
<g id="node4" class="node">
<title>Node4</title>
<g id="a_node4"><a xlink:href="text__box_8hpp.html" target="_top" xlink:title="Text editor widgets.">
<polygon fill="white" stroke="black" points="156,-56.5 156,-75.5 278,-75.5 278,-56.5 156,-56.5"/>
<text text-anchor="middle" x="217" y="-63.5" font-family="Helvetica,sans-Serif" font-size="10.00">boost/ui/text_box.hpp</text>
</a>
</g>
</g>
<!-- Node2&#45;&gt;Node4 -->
<g id="edge3" class="edge">
<title>Node2&#45;&gt;Node4</title>
<path fill="none" stroke="midnightblue" d="M1238.91,-119.98C1075.7,-117.07 645.01,-106.87 287,-76 284.07,-75.75 281.07,-75.46 278.05,-75.16"/>
<polygon fill="midnightblue" stroke="midnightblue" points="1239.22,-123.48 1249.28,-120.16 1239.34,-116.49 1239.22,-123.48"/>
</g>
<!-- Node5 -->
<g id="node5" class="node">
<title>Node5</title>
<g id="a_node5"><a xlink:href="strings__box_8hpp.html" target="_top" xlink:title="Widget with array of strings.">
<polygon fill="white" stroke="black" points="296,-56.5 296,-75.5 432,-75.5 432,-56.5 296,-56.5"/>
<text text-anchor="middle" x="364" y="-63.5" font-family="Helvetica,sans-Serif" font-size="10.00">boost/ui/strings_box.hpp</text>
</a>
</g>
</g>
<!-- Node2&#45;&gt;Node5 -->
<g id="edge4" class="edge">
<title>Node2&#45;&gt;Node5</title>
<path fill="none" stroke="midnightblue" d="M1239.27,-118.81C1094.59,-113.76 741.24,-99.91 446,-76 441.57,-75.64 437.02,-75.24 432.43,-74.81"/>
<polygon fill="midnightblue" stroke="midnightblue" points="1239.21,-122.31 1249.32,-119.15 1239.45,-115.31 1239.21,-122.31"/>
</g>
<!-- Node2&#45;&gt;Node8 -->
<g id="edge25" class="edge">
<title>Node2&#45;&gt;Node8</title>
<path fill="none" stroke="midnightblue" d="M1239.05,-119.84C1046.78,-116.18 505,-103.45 479,-76 458.15,-53.98 501.42,-31.52 530.5,-19.63"/>
<polygon fill="midnightblue" stroke="midnightblue" points="1239.24,-123.34 1249.3,-120.03 1239.37,-116.34 1239.24,-123.34"/>
</g>
<!-- Node9 -->
<g id="node9" class="node">
<title>Node9</title>
<g id="a_node9"><a xlink:href="status__bar_8hpp.html" target="_top" xlink:title="Status bar class.">
<polygon fill="white" stroke="black" points="488.5,-56.5 488.5,-75.5 619.5,-75.5 619.5,-56.5 488.5,-56.5"/>
<text text-anchor="middle" x="554" y="-63.5" font-family="Helvetica,sans-Serif" font-size="10.00">boost/ui/status_bar.hpp</text>
</a>
</g>
</g>
<!-- Node2&#45;&gt;Node9 -->
<g id="edge8" class="edge">
<title>Node2&#45;&gt;Node9</title>
<path fill="none" stroke="midnightblue" d="M1239.04,-117.73C1117.4,-111.53 852.09,-96.78 629,-76 626,-75.72 622.93,-75.42 619.83,-75.1"/>
<polygon fill="midnightblue" stroke="midnightblue" points="1239.14,-121.24 1249.3,-118.25 1239.49,-114.25 1239.14,-121.24"/>
</g>
<!-- Node10 -->
<g id="node10" class="node">
<title>Node10</title>
<g id="a_node10"><a xlink:href="slider_8hpp.html" target="_top" xlink:title="Slider widget.">
<polygon fill="white" stroke="black" points="637.5,-56.5 637.5,-75.5 744.5,-75.5 744.5,-56.5 637.5,-56.5"/>
<text text-anchor="middle" x="691" y="-63.5" font-family="Helvetica,sans-Serif" font-size="10.00">boost/ui/slider.hpp</text>
</a>
</g>
</g>
<!-- Node2&#45;&gt;Node10 -->
<g id="edge10" class="edge">
<title>Node2&#45;&gt;Node10</title>
<path fill="none" stroke="midnightblue" d="M1239.44,-116.88C1135.59,-110.16 928.78,-95.59 754,-76 750.93,-75.66 747.77,-75.28 744.59,-74.88"/>
<polygon fill="midnightblue" stroke="midnightblue" points="1239.27,-120.38 1249.47,-117.53 1239.72,-113.39 1239.27,-120.38"/>
</g>
<!-- Node11 -->
<g id="node11" class="node">
<title>Node11</title>
<g id="a_node11"><a xlink:href="progress__bar_8hpp.html" target="_top" xlink:title="Progress bar widget.">
<polygon fill="white" stroke="black" points="762.5,-56.5 762.5,-75.5 905.5,-75.5 905.5,-56.5 762.5,-56.5"/>
<text text-anchor="middle" x="834" y="-63.5" font-family="Helvetica,sans-Serif" font-size="10.00">boost/ui/progress_bar.hpp</text>
</a>
</g>
</g>
<!-- Node2&#45;&gt;Node11 -->
<g id="edge11" class="edge">
<title>Node2&#45;&gt;Node11</title>
<path fill="none" stroke="midnightblue" d="M1238.91,-113.32C1150.68,-103.23 996.29,-85.57 905.78,-75.21"/>
<polygon fill="midnightblue" stroke="midnightblue" points="1238.73,-116.83 1249.07,-114.49 1239.53,-109.87 1238.73,-116.83"/>
</g>
<!-- Node12 -->
<g id="node12" class="node">
<title>Node12</title>
<g id="a_node12"><a xlink:href="panel_8hpp.html" target="_top" xlink:title="Panel widget.">
<polygon fill="white" stroke="black" points="923.5,-56.5 923.5,-75.5 1030.5,-75.5 1030.5,-56.5 923.5,-56.5"/>
<text text-anchor="middle" x="977" y="-63.5" font-family="Helvetica,sans-Serif" font-size="10.00">boost/ui/panel.hpp</text>
</a>
</g>
</g>
<!-- Node2&#45;&gt;Node12 -->
<g id="edge12" class="edge">
<title>Node2&#45;&gt;Node12</title>
<path fill="none" stroke="midnightblue" d="M1243.8,-110.79C1181.63,-100.59 1087.14,-85.08 1028.89,-75.52"/>
<polygon fill="midnightblue" stroke="midnightblue" points="1243.43,-114.28 1253.87,-112.44 1244.57,-107.37 1243.43,-114.28"/>
</g>
<!-- Node13 -->
<g id="node13" class="node">
<title>Node13</title>
<g id="a_node13"><a xlink:href="notebook_8hpp.html" target="_top" xlink:title="Notebook widget.">
<polygon fill="white" stroke="black" points="1048.5,-56.5 1048.5,-75.5 1173.5,-75.5 1173.5,-56.5 1048.5,-56.5"/>
<text text-anchor="middle" x="1111" y="-63.5" font-family="Helvetica,sans-Serif" font-size="10.00">boost/ui/notebook.hpp</text>
</a>
</g>
</g>
<!-- Node2&#45;&gt;Node13 -->
<g id="edge13" class="edge">
<title>Node2&#45;&gt;Node13</title>
<path fill="none" stroke="midnightblue" d="M1265.19,-109.7C1228.39,-99.51 1175.07,-84.74 1141.75,-75.52"/>
<polygon fill="midnightblue" stroke="midnightblue" points="1264.53,-113.15 1275.1,-112.44 1266.4,-106.4 1264.53,-113.15"/>
</g>
<!-- Node14 -->
<g id="node14" class="node">
<title>Node14</title>
<g id="a_node14"><a xlink:href="menu_8hpp.html" target="_top" xlink:title="Menu classes.">
<polygon fill="white" stroke="black" points="1191.5,-56.5 1191.5,-75.5 1298.5,-75.5 1298.5,-56.5 1191.5,-56.5"/>
<text text-anchor="middle" x="1245" y="-63.5" font-family="Helvetica,sans-Serif" font-size="10.00">boost/ui/menu.hpp</text>
</a>
</g>
</g>
<!-- Node2&#45;&gt;Node14 -->
<g id="edge14" class="edge">
<title>Node2&#45;&gt;Node14</title>
<path fill="none" stroke="midnightblue" d="M1288.53,-105.54C1277.66,-95.91 1264.06,-83.87 1254.98,-75.83"/>
<polygon fill="midnightblue" stroke="midnightblue" points="1286.39,-108.32 1296.2,-112.32 1291.03,-103.07 1286.39,-108.32"/>
</g>
<!-- Node15 -->
<g id="node15" class="node">
<title>Node15</title>
<g id="a_node15"><a xlink:href="line_8hpp.html" target="_top" xlink:title="line widget">
<polygon fill="white" stroke="black" points="1317,-56.5 1317,-75.5 1415,-75.5 1415,-56.5 1317,-56.5"/>
<text text-anchor="middle" x="1366" y="-63.5" font-family="Helvetica,sans-Serif" font-size="10.00">boost/ui/line.hpp</text>
</a>
</g>
</g>
<!-- Node2&#45;&gt;Node15 -->
<g id="edge16" class="edge">
<title>Node2&#45;&gt;Node15</title>
<path fill="none" stroke="midnightblue" d="M1323.18,-105.54C1333.88,-95.91 1347.26,-83.87 1356.18,-75.83"/>
<polygon fill="midnightblue" stroke="midnightblue" points="1320.73,-103.03 1315.64,-112.32 1325.41,-108.24 1320.73,-103.03"/>
</g>
<!-- Node16 -->
<g id="node16" class="node">
<title>Node16</title>
<g id="a_node16"><a xlink:href="label_8hpp.html" target="_top" xlink:title="Label widget.">
<polygon fill="white" stroke="black" points="1433,-56.5 1433,-75.5 1537,-75.5 1537,-56.5 1433,-56.5"/>
<text text-anchor="middle" x="1485" y="-63.5" font-family="Helvetica,sans-Serif" font-size="10.00">boost/ui/label.hpp</text>
</a>
</g>
</g>
<!-- Node2&#45;&gt;Node16 -->
<g id="edge17" class="edge">
<title>Node2&#45;&gt;Node16</title>
<path fill="none" stroke="midnightblue" d="M1344.33,-109.44C1378.08,-99.26 1426.45,-84.66 1456.77,-75.52"/>
<polygon fill="midnightblue" stroke="midnightblue" points="1342.93,-106.2 1334.36,-112.44 1344.95,-112.91 1342.93,-106.2"/>
</g>
<!-- Node17 -->
<g id="node17" class="node">
<title>Node17</title>
<g id="a_node17"><a xlink:href="image__widget_8hpp.html" target="_top" xlink:title="Image widget.">
<polygon fill="white" stroke="black" points="1555.5,-56.5 1555.5,-75.5 1704.5,-75.5 1704.5,-56.5 1555.5,-56.5"/>
<text text-anchor="middle" x="1630" y="-63.5" font-family="Helvetica,sans-Serif" font-size="10.00">boost/ui/image_widget.hpp</text>
</a>
</g>
</g>
<!-- Node2&#45;&gt;Node17 -->
<g id="edge18" class="edge">
<title>Node2&#45;&gt;Node17</title>
<path fill="none" stroke="midnightblue" d="M1367.26,-110.79C1428.48,-100.59 1521.53,-85.08 1578.9,-75.52"/>
<polygon fill="midnightblue" stroke="midnightblue" points="1366.63,-107.35 1357.34,-112.44 1367.78,-114.25 1366.63,-107.35"/>
</g>
<!-- Node18 -->
<g id="node18" class="node">
<title>Node18</title>
<g id="a_node18"><a xlink:href="hyperlink_8hpp.html" target="_top" xlink:title="Hyperlink widget.">
<polygon fill="white" stroke="black" points="1722.5,-56.5 1722.5,-75.5 1847.5,-75.5 1847.5,-56.5 1722.5,-56.5"/>
<text text-anchor="middle" x="1785" y="-63.5" font-family="Helvetica,sans-Serif" font-size="10.00">boost/ui/hyperlink.hpp</text>
</a>
</g>
</g>
<!-- Node2&#45;&gt;Node18 -->
<g id="edge19" class="edge">
<title>Node2&#45;&gt;Node18</title>
<path fill="none" stroke="midnightblue" d="M1372.84,-113.96C1453.68,-105.38 1593.88,-90.24 1714,-76 1716.71,-75.68 1719.49,-75.35 1722.29,-75.01"/>
<polygon fill="midnightblue" stroke="midnightblue" points="1372.37,-110.49 1362.8,-115.03 1373.11,-117.46 1372.37,-110.49"/>
</g>
<!-- Node19 -->
<g id="node19" class="node">
<title>Node19</title>
<g id="a_node19"><a xlink:href="group__box_8hpp.html" target="_top" xlink:title="Group box widget.">
<polygon fill="white" stroke="black" points="1865.5,-56.5 1865.5,-75.5 1996.5,-75.5 1996.5,-56.5 1865.5,-56.5"/>
<text text-anchor="middle" x="1931" y="-63.5" font-family="Helvetica,sans-Serif" font-size="10.00">boost/ui/group_box.hpp</text>
</a>
</g>
</g>
<!-- Node2&#45;&gt;Node19 -->
<g id="edge20" class="edge">
<title>Node2&#45;&gt;Node19</title>
<path fill="none" stroke="midnightblue" d="M1372.8,-116.4C1476.53,-109.06 1682.58,-93.72 1857,-76 1859.7,-75.73 1862.46,-75.44 1865.25,-75.13"/>
<polygon fill="midnightblue" stroke="midnightblue" points="1372.51,-112.91 1362.78,-117.11 1373,-119.89 1372.51,-112.91"/>
</g>
<!-- Node20 -->
<g id="node20" class="node">
<title>Node20</title>
<g id="a_node20"><a xlink:href="datetime_8hpp.html" target="_top" xlink:title="Date and time pickers.">
<polygon fill="white" stroke="black" points="2015,-56.5 2015,-75.5 2139,-75.5 2139,-56.5 2015,-56.5"/>
<text text-anchor="middle" x="2077" y="-63.5" font-family="Helvetica,sans-Serif" font-size="10.00">boost/ui/datetime.hpp</text>
</a>
</g>
</g>
<!-- Node2&#45;&gt;Node20 -->
<g id="edge21" class="edge">
<title>Node2&#45;&gt;Node20</title>
<path fill="none" stroke="midnightblue" d="M1372.96,-118.08C1497.69,-112.33 1774.01,-98.14 2006,-76 2008.84,-75.73 2011.75,-75.43 2014.69,-75.12"/>
<polygon fill="midnightblue" stroke="midnightblue" points="1372.63,-114.59 1362.8,-118.54 1372.95,-121.58 1372.63,-114.59"/>
</g>
<!-- Node21 -->
<g id="node21" class="node">
<title>Node21</title>
<g id="a_node21"><a xlink:href="check__box_8hpp.html" target="_top" xlink:title="Check box widget.">
<polygon fill="white" stroke="black" points="2157.5,-56.5 2157.5,-75.5 2288.5,-75.5 2288.5,-56.5 2157.5,-56.5"/>
<text text-anchor="middle" x="2223" y="-63.5" font-family="Helvetica,sans-Serif" font-size="10.00">boost/ui/check_box.hpp</text>
</a>
</g>
</g>
<!-- Node2&#45;&gt;Node21 -->
<g id="edge22" class="edge">
<title>Node2&#45;&gt;Node21</title>
<path fill="none" stroke="midnightblue" d="M1372.83,-118.93C1515.44,-114.18 1860.06,-100.94 2148,-76 2151.01,-75.74 2154.08,-75.45 2157.18,-75.15"/>
<polygon fill="midnightblue" stroke="midnightblue" points="1372.39,-115.44 1362.51,-119.27 1372.62,-122.44 1372.39,-115.44"/>
</g>
<!-- Node22 -->
<g id="node22" class="node">
<title>Node22</title>
<g id="a_node22"><a xlink:href="canvas_8hpp.html" target="_top" xlink:title="Canvas widget.">
<polygon fill="white" stroke="black" points="2307,-56.5 2307,-75.5 2421,-75.5 2421,-56.5 2307,-56.5"/>
<text text-anchor="middle" x="2364" y="-63.5" font-family="Helvetica,sans-Serif" font-size="10.00">boost/ui/canvas.hpp</text>
</a>
</g>
</g>
<!-- Node2&#45;&gt;Node22 -->
<g id="edge23" class="edge">
<title>Node2&#45;&gt;Node22</title>
<path fill="none" stroke="midnightblue" d="M1372.77,-120.05C1532.77,-117.32 1950.65,-107.5 2298,-76 2300.88,-75.74 2303.83,-75.44 2306.8,-75.12"/>
<polygon fill="midnightblue" stroke="midnightblue" points="1372.54,-116.55 1362.6,-120.22 1372.66,-123.55 1372.54,-116.55"/>
</g>
<!-- Node23 -->
<g id="node23" class="node">
<title>Node23</title>
<g id="a_node23"><a xlink:href="button_8hpp.html" target="_top" xlink:title="Button widget.">
<polygon fill="white" stroke="black" points="2439.5,-56.5 2439.5,-75.5 2550.5,-75.5 2550.5,-56.5 2439.5,-56.5"/>
<text text-anchor="middle" x="2495" y="-63.5" font-family="Helvetica,sans-Serif" font-size="10.00">boost/ui/button.hpp</text>
</a>
</g>
</g>
<!-- Node2&#45;&gt;Node23 -->
<g id="edge24" class="edge">
<title>Node2&#45;&gt;Node23</title>
<path fill="none" stroke="midnightblue" d="M1372.59,-120.6C1546.71,-119.06 2029.71,-111.64 2430,-76 2433.06,-75.73 2436.2,-75.41 2439.37,-75.07"/>
<polygon fill="midnightblue" stroke="midnightblue" points="1372.53,-117.1 1362.56,-120.68 1372.59,-124.1 1372.53,-117.1"/>
</g>
<!-- Node6 -->
<g id="node6" class="node">
<title>Node6</title>
<g id="a_node6"><a xlink:href="combo__box_8hpp.html" target="_top" xlink:title="Combo box widget.">
<polygon fill="white" stroke="black" points="193,-0.5 193,-19.5 329,-19.5 329,-0.5 193,-0.5"/>
<text text-anchor="middle" x="261" y="-7.5" font-family="Helvetica,sans-Serif" font-size="10.00">boost/ui/combo_box.hpp</text>
</a>
</g>
</g>
<!-- Node5&#45;&gt;Node6 -->
<g id="edge5" class="edge">
<title>Node5&#45;&gt;Node6</title>
<path fill="none" stroke="midnightblue" d="M338.42,-51.59C319.38,-41.61 293.94,-28.27 277.51,-19.65"/>
<polygon fill="midnightblue" stroke="midnightblue" points="336.97,-54.78 347.45,-56.32 340.22,-48.58 336.97,-54.78"/>
</g>
<!-- Node7 -->
<g id="node7" class="node">
<title>Node7</title>
<g id="a_node7"><a xlink:href="choice_8hpp.html" target="_top" xlink:title="Choice widget.">
<polygon fill="white" stroke="black" points="347.5,-0.5 347.5,-19.5 458.5,-19.5 458.5,-0.5 347.5,-0.5"/>
<text text-anchor="middle" x="403" y="-7.5" font-family="Helvetica,sans-Serif" font-size="10.00">boost/ui/choice.hpp</text>
</a>
</g>
</g>
<!-- Node5&#45;&gt;Node7 -->
<g id="edge6" class="edge">
<title>Node5&#45;&gt;Node7</title>
<path fill="none" stroke="midnightblue" d="M376.38,-47.86C383.14,-38.5 391.21,-27.33 396.68,-19.75"/>
<polygon fill="midnightblue" stroke="midnightblue" points="373.46,-45.93 370.44,-56.08 379.13,-50.03 373.46,-45.93"/>
</g>
<!-- Node5&#45;&gt;Node8 -->
<g id="edge7" class="edge">
<title>Node5&#45;&gt;Node8</title>
<path fill="none" stroke="midnightblue" d="M403.76,-53.7C439.62,-43.51 491.57,-28.74 524.03,-19.52"/>
<polygon fill="midnightblue" stroke="midnightblue" points="402.77,-50.34 394.11,-56.44 404.68,-57.08 402.77,-50.34"/>
</g>
<!-- Node9&#45;&gt;Node8 -->
<g id="edge9" class="edge">
<title>Node9&#45;&gt;Node8</title>
<path fill="none" stroke="midnightblue" d="M554,-45.8C554,-36.91 554,-26.78 554,-19.75"/>
<polygon fill="midnightblue" stroke="midnightblue" points="550.5,-46.08 554,-56.08 557.5,-46.08 550.5,-46.08"/>
</g>
<!-- Node14&#45;&gt;Node8 -->
<g id="edge15" class="edge">
<title>Node14&#45;&gt;Node8</title>
<path fill="none" stroke="midnightblue" d="M1181.08,-55.86C952.3,-31.47 689.96,-17.49 592.74,-12.79"/>
<polygon fill="midnightblue" stroke="midnightblue" points="1180.94,-59.37 1191.26,-56.96 1181.69,-52.41 1180.94,-59.37"/>
</g>
</g>
</svg>
