<?xml version="1.0" encoding="UTF-8" standalone="no"?>
<!DOCTYPE svg PUBLIC "-//W3C//DTD SVG 1.1//EN"
 "http://www.w3.org/Graphics/SVG/1.1/DTD/svg11.dtd">
<!-- Generated by graphviz version 2.38.0 (20140413.2041)
 -->
<!-- Title: boost/ui/event_loop.hpp Pages: 1 -->
<svg width="242pt" height="140pt"
 viewBox="0.00 0.00 242.00 140.00" xmlns="http://www.w3.org/2000/svg" xmlns:xlink="http://www.w3.org/1999/xlink">
<g id="graph0" class="graph" transform="scale(1 1) rotate(0) translate(4 136)">
<title>boost/ui/event_loop.hpp</title>
<polygon fill="white" stroke="none" points="-4,4 -4,-136 238,-136 238,4 -4,4"/>
<!-- Node1 -->
<g id="node1" class="node"><title>Node1</title>
<polygon fill="#bfbfbf" stroke="black" points="52.5,-112.5 52.5,-131.5 172.5,-131.5 172.5,-112.5 52.5,-112.5"/>
<text text-anchor="middle" x="112.5" y="-119.5" font-family="Helvetica,sans-Serif" font-size="10.00">boost/ui/event_loop.hpp</text>
</g>
<!-- Node2 -->
<g id="node2" class="node"><title>Node2</title>
<g id="a_node2"><a xlink:href="config_8hpp.html" target="_top" xlink:title="Configuration options. ">
<polygon fill="white" stroke="black" points="0,-56.5 0,-75.5 99,-75.5 99,-56.5 0,-56.5"/>
<text text-anchor="middle" x="49.5" y="-63.5" font-family="Helvetica,sans-Serif" font-size="10.00">boost/ui/config.hpp</text>
</a>
</g>
</g>
<!-- Node1&#45;&gt;Node2 -->
<g id="edge1" class="edge"><title>Node1&#45;&gt;Node2</title>
<path fill="none" stroke="midnightblue" d="M102.378,-112.324C92.9736,-104.263 78.7559,-92.0765 67.431,-82.3695"/>
<polygon fill="midnightblue" stroke="midnightblue" points="69.6766,-79.6844 59.8062,-75.8339 65.121,-84.9993 69.6766,-79.6844"/>
</g>
<!-- Node4 -->
<g id="node4" class="node"><title>Node4</title>
<polygon fill="white" stroke="#bfbfbf" points="117,-56.5 117,-75.5 234,-75.5 234,-56.5 117,-56.5"/>
<text text-anchor="middle" x="175.5" y="-63.5" font-family="Helvetica,sans-Serif" font-size="10.00">boost/noncopyable.hpp</text>
</g>
<!-- Node1&#45;&gt;Node4 -->
<g id="edge3" class="edge"><title>Node1&#45;&gt;Node4</title>
<path fill="none" stroke="midnightblue" d="M122.622,-112.324C132.026,-104.263 146.244,-92.0765 157.569,-82.3695"/>
<polygon fill="midnightblue" stroke="midnightblue" points="159.879,-84.9993 165.194,-75.8339 155.323,-79.6844 159.879,-84.9993"/>
</g>
<!-- Node3 -->
<g id="node3" class="node"><title>Node3</title>
<polygon fill="white" stroke="#bfbfbf" points="5,-0.5 5,-19.5 94,-19.5 94,-0.5 5,-0.5"/>
<text text-anchor="middle" x="49.5" y="-7.5" font-family="Helvetica,sans-Serif" font-size="10.00">boost/config.hpp</text>
</g>
<!-- Node2&#45;&gt;Node3 -->
<g id="edge2" class="edge"><title>Node2&#45;&gt;Node3</title>
<path fill="none" stroke="midnightblue" d="M49.5,-56.083C49.5,-49.0059 49.5,-38.8611 49.5,-29.9865"/>
<polygon fill="midnightblue" stroke="midnightblue" points="53.0001,-29.751 49.5,-19.7511 46.0001,-29.7511 53.0001,-29.751"/>
</g>
</g>
</svg>
