<?xml version="1.0" encoding="UTF-8" standalone="no"?>
<!DOCTYPE svg PUBLIC "-//W3C//DTD SVG 1.1//EN"
 "http://www.w3.org/Graphics/SVG/1.1/DTD/svg11.dtd">
<!-- Generated by graphviz version 2.43.0 (0)
 -->
<!-- Title: boost/ui/event.hpp Pages: 1 -->
<svg width="6787pt" height="207pt"
 viewBox="0.00 0.00 6787.00 207.00" xmlns="http://www.w3.org/2000/svg" xmlns:xlink="http://www.w3.org/1999/xlink">
<g id="graph0" class="graph" transform="scale(1 1) rotate(0) translate(4 203)">
<title>boost/ui/event.hpp</title>
<polygon fill="white" stroke="transparent" points="-4,4 -4,-203 6783,-203 6783,4 -4,4"/>
<!-- Node1 -->
<g id="node1" class="node">
<title>Node1</title>
<g id="a_node1"><a xlink:title="Event classes.">
<polygon fill="#bfbfbf" stroke="black" points="3089,-179.5 3089,-198.5 3196,-198.5 3196,-179.5 3089,-179.5"/>
<text text-anchor="middle" x="3142.5" y="-186.5" font-family="Helvetica,sans-Serif" font-size="10.00">boost/ui/event.hpp</text>
</a>
</g>
</g>
<!-- Node2 -->
<g id="node2" class="node">
<title>Node2</title>
<g id="a_node2"><a xlink:href="config_8hpp.html" target="_top" xlink:title="Configuration options.">
<polygon fill="white" stroke="black" points="0,-62 0,-81 109,-81 109,-62 0,-62"/>
<text text-anchor="middle" x="54.5" y="-69" font-family="Helvetica,sans-Serif" font-size="10.00">boost/ui/config.hpp</text>
</a>
</g>
</g>
<!-- Node1&#45;&gt;Node2 -->
<g id="edge1" class="edge">
<title>Node1&#45;&gt;Node2</title>
<path fill="none" stroke="midnightblue" d="M3088.91,-187.62C2734.59,-184.92 724.84,-166.28 117.5,-87 110.55,-86.09 103.23,-84.76 96.15,-83.27"/>
<polygon fill="midnightblue" stroke="midnightblue" points="96.53,-79.77 86.01,-81.01 95.01,-86.6 96.53,-79.77"/>
</g>
<!-- Node4 -->
<g id="node4" class="node">
<title>Node4</title>
<g id="a_node4"><a xlink:href="coord_8hpp.html" target="_top" xlink:title="Coordinates classes.">
<polygon fill="white" stroke="red" points="3089,-123.5 3089,-142.5 3196,-142.5 3196,-123.5 3089,-123.5"/>
<text text-anchor="middle" x="3142.5" y="-130.5" font-family="Helvetica,sans-Serif" font-size="10.00">boost/ui/coord.hpp</text>
</a>
</g>
</g>
<!-- Node1&#45;&gt;Node4 -->
<g id="edge3" class="edge">
<title>Node1&#45;&gt;Node4</title>
<path fill="none" stroke="midnightblue" d="M3142.5,-179.08C3142.5,-172.01 3142.5,-161.86 3142.5,-152.99"/>
<polygon fill="midnightblue" stroke="midnightblue" points="3146,-152.75 3142.5,-142.75 3139,-152.75 3146,-152.75"/>
</g>
<!-- Node244 -->
<g id="node50" class="node">
<title>Node244</title>
<g id="a_node50"><a xlink:title=" ">
<polygon fill="white" stroke="#bfbfbf" points="3214,-123.5 3214,-142.5 3321,-142.5 3321,-123.5 3214,-123.5"/>
<text text-anchor="middle" x="3267.5" y="-130.5" font-family="Helvetica,sans-Serif" font-size="10.00">boost/function.hpp</text>
</a>
</g>
</g>
<!-- Node1&#45;&gt;Node244 -->
<g id="edge51" class="edge">
<title>Node1&#45;&gt;Node244</title>
<path fill="none" stroke="midnightblue" d="M3162.31,-179.44C3182.79,-170.6 3214.98,-156.69 3238.36,-146.59"/>
<polygon fill="midnightblue" stroke="midnightblue" points="3239.99,-149.7 3247.79,-142.52 3237.22,-143.27 3239.99,-149.7"/>
</g>
<!-- Node3 -->
<g id="node3" class="node">
<title>Node3</title>
<g id="a_node3"><a xlink:title=" ">
<polygon fill="white" stroke="#bfbfbf" points="47,-0.5 47,-19.5 144,-19.5 144,-0.5 47,-0.5"/>
<text text-anchor="middle" x="95.5" y="-7.5" font-family="Helvetica,sans-Serif" font-size="10.00">boost/config.hpp</text>
</a>
</g>
</g>
<!-- Node2&#45;&gt;Node3 -->
<g id="edge2" class="edge">
<title>Node2&#45;&gt;Node3</title>
<path fill="none" stroke="midnightblue" d="M60.37,-61.98C66.46,-53.14 76.14,-39.09 83.8,-27.98"/>
<polygon fill="midnightblue" stroke="midnightblue" points="86.84,-29.73 89.64,-19.51 81.08,-25.76 86.84,-29.73"/>
</g>
<!-- Node4&#45;&gt;Node2 -->
<g id="edge4" class="edge">
<title>Node4&#45;&gt;Node2</title>
<path fill="none" stroke="midnightblue" d="M3088.96,-131.82C2709.21,-130.48 429,-121.06 123.5,-87 115.37,-86.09 106.78,-84.67 98.53,-83.07"/>
<polygon fill="midnightblue" stroke="midnightblue" points="99.19,-79.63 88.68,-81.04 97.77,-86.48 99.19,-79.63"/>
</g>
<!-- Node4&#45;&gt;Node3 -->
<g id="edge8" class="edge">
<title>Node4&#45;&gt;Node3</title>
<path fill="none" stroke="midnightblue" d="M3088.81,-131.82C2691.78,-130.44 225.02,-120.5 156.5,-87 131.62,-74.84 113.62,-47.16 103.87,-28.77"/>
<polygon fill="midnightblue" stroke="midnightblue" points="106.92,-27.05 99.31,-19.68 100.66,-30.19 106.92,-27.05"/>
</g>
<!-- Node5 -->
<g id="node5" class="node">
<title>Node5</title>
<g id="a_node5"><a xlink:title=" ">
<polygon fill="white" stroke="#bfbfbf" points="166,-62 166,-81 279,-81 279,-62 166,-62"/>
<text text-anchor="middle" x="222.5" y="-69" font-family="Helvetica,sans-Serif" font-size="10.00">boost/geometry.hpp</text>
</a>
</g>
</g>
<!-- Node4&#45;&gt;Node5 -->
<g id="edge5" class="edge">
<title>Node4&#45;&gt;Node5</title>
<path fill="none" stroke="midnightblue" d="M3088.98,-131.8C2721.39,-130.36 576.37,-120.55 288.5,-87 280.88,-86.11 272.85,-84.73 265.12,-83.17"/>
<polygon fill="midnightblue" stroke="midnightblue" points="265.69,-79.71 255.18,-81.04 264.22,-86.56 265.69,-79.71"/>
</g>
<!-- Node6 -->
<g id="node6" class="node">
<title>Node6</title>
<g id="a_node6"><a xlink:title=" ">
<polygon fill="white" stroke="#bfbfbf" points="297.5,-56.5 297.5,-86.5 449.5,-86.5 449.5,-56.5 297.5,-56.5"/>
<text text-anchor="start" x="305.5" y="-74.5" font-family="Helvetica,sans-Serif" font-size="10.00">boost/geometry/geometries</text>
<text text-anchor="middle" x="373.5" y="-63.5" font-family="Helvetica,sans-Serif" font-size="10.00">/point_xy.hpp</text>
</a>
</g>
</g>
<!-- Node4&#45;&gt;Node6 -->
<g id="edge6" class="edge">
<title>Node4&#45;&gt;Node6</title>
<path fill="none" stroke="midnightblue" d="M3088.8,-131.59C2737.66,-128.86 773.83,-112.57 459.94,-86.97"/>
<polygon fill="midnightblue" stroke="midnightblue" points="460.15,-83.48 449.88,-86.09 459.54,-90.45 460.15,-83.48"/>
</g>
<!-- Node7 -->
<g id="node7" class="node">
<title>Node7</title>
<g id="a_node7"><a xlink:title=" ">
<polygon fill="white" stroke="#bfbfbf" points="468,-62 468,-81 521,-81 521,-62 468,-62"/>
<text text-anchor="middle" x="494.5" y="-69" font-family="Helvetica,sans-Serif" font-size="10.00">cstddef</text>
</a>
</g>
</g>
<!-- Node4&#45;&gt;Node7 -->
<g id="edge7" class="edge">
<title>Node4&#45;&gt;Node7</title>
<path fill="none" stroke="midnightblue" d="M3088.81,-131.63C2727.45,-129.07 660.27,-113.31 530.5,-87 527.59,-86.41 524.62,-85.59 521.68,-84.65"/>
<polygon fill="midnightblue" stroke="midnightblue" points="522.64,-81.27 512.05,-81.06 520.2,-87.83 522.64,-81.27"/>
</g>
<!-- Node8 -->
<g id="node8" class="node">
<title>Node8</title>
<g id="a_node8"><a xlink:title=" ">
<polygon fill="white" stroke="#bfbfbf" points="539.5,-62 539.5,-81 641.5,-81 641.5,-62 539.5,-62"/>
<text text-anchor="middle" x="590.5" y="-69" font-family="Helvetica,sans-Serif" font-size="10.00">boost/mpl/int.hpp</text>
</a>
</g>
</g>
<!-- Node4&#45;&gt;Node8 -->
<g id="edge9" class="edge">
<title>Node4&#45;&gt;Node8</title>
<path fill="none" stroke="midnightblue" d="M3088.84,-131.74C2748.8,-129.98 899.77,-118.98 650.5,-87 643.79,-86.14 636.73,-84.82 629.92,-83.32"/>
<polygon fill="midnightblue" stroke="midnightblue" points="630.7,-79.91 620.17,-81.03 629.1,-86.73 630.7,-79.91"/>
</g>
<!-- Node9 -->
<g id="node9" class="node">
<title>Node9</title>
<g id="a_node9"><a xlink:title=" ">
<polygon fill="white" stroke="#bfbfbf" points="659.5,-56.5 659.5,-86.5 777.5,-86.5 777.5,-56.5 659.5,-56.5"/>
<text text-anchor="start" x="667.5" y="-74.5" font-family="Helvetica,sans-Serif" font-size="10.00">boost/geometry/core</text>
<text text-anchor="middle" x="718.5" y="-63.5" font-family="Helvetica,sans-Serif" font-size="10.00">/cs.hpp</text>
</a>
</g>
</g>
<!-- Node4&#45;&gt;Node9 -->
<g id="edge10" class="edge">
<title>Node4&#45;&gt;Node9</title>
<path fill="none" stroke="midnightblue" d="M3088.89,-131.59C2764.2,-129.03 1065.75,-114.46 787.74,-86.9"/>
<polygon fill="midnightblue" stroke="midnightblue" points="788.04,-83.41 777.73,-85.83 787.3,-90.37 788.04,-83.41"/>
</g>
<!-- Node10 -->
<g id="node10" class="node">
<title>Node10</title>
<g id="a_node10"><a xlink:title=" ">
<polygon fill="white" stroke="#bfbfbf" points="795.5,-56.5 795.5,-86.5 947.5,-86.5 947.5,-56.5 795.5,-56.5"/>
<text text-anchor="start" x="803.5" y="-74.5" font-family="Helvetica,sans-Serif" font-size="10.00">boost/geometry/geometries</text>
<text text-anchor="middle" x="871.5" y="-63.5" font-family="Helvetica,sans-Serif" font-size="10.00">/point.hpp</text>
</a>
</g>
</g>
<!-- Node4&#45;&gt;Node10 -->
<g id="edge11" class="edge">
<title>Node4&#45;&gt;Node10</title>
<path fill="none" stroke="midnightblue" d="M3088.64,-131.98C2797.66,-131.68 1410.17,-128.16 958.06,-87.03"/>
<polygon fill="midnightblue" stroke="midnightblue" points="958.17,-83.52 947.88,-86.08 957.52,-90.49 958.17,-83.52"/>
</g>
<!-- Node11 -->
<g id="node11" class="node">
<title>Node11</title>
<g id="a_node11"><a xlink:title=" ">
<polygon fill="white" stroke="#bfbfbf" points="966,-62 966,-81 1085,-81 1085,-62 966,-62"/>
<text text-anchor="middle" x="1025.5" y="-69" font-family="Helvetica,sans-Serif" font-size="10.00">boost/mpl/assert.hpp</text>
</a>
</g>
</g>
<!-- Node4&#45;&gt;Node11 -->
<g id="edge12" class="edge">
<title>Node4&#45;&gt;Node11</title>
<path fill="none" stroke="midnightblue" d="M3088.81,-132.17C2807.11,-132.83 1497.27,-133.34 1094.5,-87 1086.55,-86.09 1078.16,-84.69 1070.07,-83.12"/>
<polygon fill="midnightblue" stroke="midnightblue" points="1070.54,-79.65 1060.04,-81.07 1069.14,-86.51 1070.54,-79.65"/>
</g>
<!-- Node12 -->
<g id="node12" class="node">
<title>Node12</title>
<g id="a_node12"><a xlink:title=" ">
<polygon fill="white" stroke="#bfbfbf" points="1103.5,-56.5 1103.5,-86.5 1221.5,-86.5 1221.5,-56.5 1103.5,-56.5"/>
<text text-anchor="start" x="1111.5" y="-74.5" font-family="Helvetica,sans-Serif" font-size="10.00">boost/geometry/core</text>
<text text-anchor="middle" x="1162.5" y="-63.5" font-family="Helvetica,sans-Serif" font-size="10.00">/access.hpp</text>
</a>
</g>
</g>
<!-- Node4&#45;&gt;Node12 -->
<g id="edge13" class="edge">
<title>Node4&#45;&gt;Node12</title>
<path fill="none" stroke="midnightblue" d="M3088.86,-132.09C2820.96,-132.33 1625.47,-130.95 1231.73,-86.96"/>
<polygon fill="midnightblue" stroke="midnightblue" points="1232.06,-83.47 1221.73,-85.81 1231.27,-90.43 1232.06,-83.47"/>
</g>
<!-- Node13 -->
<g id="node13" class="node">
<title>Node13</title>
<g id="a_node13"><a xlink:title=" ">
<polygon fill="white" stroke="#bfbfbf" points="1240,-62 1240,-81 1403,-81 1403,-62 1240,-62"/>
<text text-anchor="middle" x="1321.5" y="-69" font-family="Helvetica,sans-Serif" font-size="10.00">boost/core/ignore_unused.hpp</text>
</a>
</g>
</g>
<!-- Node4&#45;&gt;Node13 -->
<g id="edge14" class="edge">
<title>Node4&#45;&gt;Node13</title>
<path fill="none" stroke="midnightblue" d="M3088.62,-131.56C2834,-129.32 1749.64,-118.11 1412.5,-87 1401.16,-85.95 1389.1,-84.37 1377.59,-82.63"/>
<polygon fill="midnightblue" stroke="midnightblue" points="1378.07,-79.16 1367.64,-81.06 1376.98,-86.07 1378.07,-79.16"/>
</g>
<!-- Node14 -->
<g id="node14" class="node">
<title>Node14</title>
<g id="a_node14"><a xlink:title=" ">
<polygon fill="white" stroke="#bfbfbf" points="1421.5,-56.5 1421.5,-86.5 1531.5,-86.5 1531.5,-56.5 1421.5,-56.5"/>
<text text-anchor="start" x="1429.5" y="-74.5" font-family="Helvetica,sans-Serif" font-size="10.00">boost/type_traits/is</text>
<text text-anchor="middle" x="1476.5" y="-63.5" font-family="Helvetica,sans-Serif" font-size="10.00">_pointer.hpp</text>
</a>
</g>
</g>
<!-- Node4&#45;&gt;Node14 -->
<g id="edge15" class="edge">
<title>Node4&#45;&gt;Node14</title>
<path fill="none" stroke="midnightblue" d="M3088.97,-131.9C2849.03,-131.22 1870.38,-126.14 1541.55,-86.91"/>
<polygon fill="midnightblue" stroke="midnightblue" points="1541.89,-83.43 1531.54,-85.68 1541.04,-90.38 1541.89,-83.43"/>
</g>
<!-- Node15 -->
<g id="node15" class="node">
<title>Node15</title>
<g id="a_node15"><a xlink:title=" ">
<polygon fill="white" stroke="#bfbfbf" points="1549.5,-56.5 1549.5,-86.5 1689.5,-86.5 1689.5,-56.5 1549.5,-56.5"/>
<text text-anchor="start" x="1557.5" y="-74.5" font-family="Helvetica,sans-Serif" font-size="10.00">boost/type_traits/remove</text>
<text text-anchor="middle" x="1619.5" y="-63.5" font-family="Helvetica,sans-Serif" font-size="10.00">_pointer.hpp</text>
</a>
</g>
</g>
<!-- Node4&#45;&gt;Node15 -->
<g id="edge16" class="edge">
<title>Node4&#45;&gt;Node15</title>
<path fill="none" stroke="midnightblue" d="M3088.66,-131.41C2863.59,-128.76 1996.46,-116.88 1699.94,-87.01"/>
<polygon fill="midnightblue" stroke="midnightblue" points="1699.94,-83.49 1689.63,-85.94 1699.22,-90.45 1699.94,-83.49"/>
</g>
<!-- Node16 -->
<g id="node16" class="node">
<title>Node16</title>
<g id="a_node16"><a xlink:title=" ">
<polygon fill="white" stroke="#bfbfbf" points="1708,-56.5 1708,-86.5 1827,-86.5 1827,-56.5 1708,-56.5"/>
<text text-anchor="start" x="1716" y="-74.5" font-family="Helvetica,sans-Serif" font-size="10.00">boost/geometry/core</text>
<text text-anchor="middle" x="1767.5" y="-63.5" font-family="Helvetica,sans-Serif" font-size="10.00">/coordinate_type.hpp</text>
</a>
</g>
</g>
<!-- Node4&#45;&gt;Node16 -->
<g id="edge17" class="edge">
<title>Node4&#45;&gt;Node16</title>
<path fill="none" stroke="midnightblue" d="M3088.81,-131.39C2877.88,-128.79 2104.91,-117.45 1837.3,-86.9"/>
<polygon fill="midnightblue" stroke="midnightblue" points="1837.58,-83.41 1827.23,-85.71 1836.75,-90.36 1837.58,-83.41"/>
</g>
<!-- Node17 -->
<g id="node17" class="node">
<title>Node17</title>
<g id="a_node17"><a xlink:title=" ">
<polygon fill="white" stroke="#bfbfbf" points="1845.5,-56.5 1845.5,-86.5 1963.5,-86.5 1963.5,-56.5 1845.5,-56.5"/>
<text text-anchor="start" x="1853.5" y="-74.5" font-family="Helvetica,sans-Serif" font-size="10.00">boost/geometry/core</text>
<text text-anchor="middle" x="1904.5" y="-63.5" font-family="Helvetica,sans-Serif" font-size="10.00">/point_type.hpp</text>
</a>
</g>
</g>
<!-- Node4&#45;&gt;Node17 -->
<g id="edge18" class="edge">
<title>Node4&#45;&gt;Node17</title>
<path fill="none" stroke="midnightblue" d="M3088.72,-131.16C2892.21,-127.89 2212.49,-114.9 1973.75,-86.97"/>
<polygon fill="midnightblue" stroke="midnightblue" points="1974.08,-83.48 1963.74,-85.76 1973.24,-90.43 1974.08,-83.48"/>
</g>
<!-- Node18 -->
<g id="node18" class="node">
<title>Node18</title>
<g id="a_node18"><a xlink:title=" ">
<polygon fill="white" stroke="#bfbfbf" points="1981.5,-56.5 1981.5,-86.5 2099.5,-86.5 2099.5,-56.5 1981.5,-56.5"/>
<text text-anchor="start" x="1989.5" y="-74.5" font-family="Helvetica,sans-Serif" font-size="10.00">boost/geometry/core</text>
<text text-anchor="middle" x="2040.5" y="-63.5" font-family="Helvetica,sans-Serif" font-size="10.00">/tag.hpp</text>
</a>
</g>
</g>
<!-- Node4&#45;&gt;Node18 -->
<g id="edge19" class="edge">
<title>Node4&#45;&gt;Node18</title>
<path fill="none" stroke="midnightblue" d="M3088.76,-130.84C2907.74,-126.77 2320.35,-112.02 2109.78,-86.98"/>
<polygon fill="midnightblue" stroke="midnightblue" points="2110.09,-83.49 2099.74,-85.74 2109.23,-90.44 2110.09,-83.49"/>
</g>
<!-- Node19 -->
<g id="node19" class="node">
<title>Node19</title>
<g id="a_node19"><a xlink:title=" ">
<polygon fill="white" stroke="#bfbfbf" points="2118,-56.5 2118,-86.5 2231,-86.5 2231,-56.5 2118,-56.5"/>
<text text-anchor="start" x="2126" y="-74.5" font-family="Helvetica,sans-Serif" font-size="10.00">boost/geometry/util</text>
<text text-anchor="middle" x="2174.5" y="-63.5" font-family="Helvetica,sans-Serif" font-size="10.00">/bare_type.hpp</text>
</a>
</g>
</g>
<!-- Node4&#45;&gt;Node19 -->
<g id="edge20" class="edge">
<title>Node4&#45;&gt;Node19</title>
<path fill="none" stroke="midnightblue" d="M3088.84,-132.43C2950.11,-132.86 2568.19,-129.86 2241.41,-86.95"/>
<polygon fill="midnightblue" stroke="midnightblue" points="2241.65,-83.45 2231.27,-85.6 2240.73,-90.39 2241.65,-83.45"/>
</g>
<!-- Node20 -->
<g id="node20" class="node">
<title>Node20</title>
<g id="a_node20"><a xlink:title=" ">
<polygon fill="white" stroke="#bfbfbf" points="2249.5,-56.5 2249.5,-86.5 2367.5,-86.5 2367.5,-56.5 2249.5,-56.5"/>
<text text-anchor="start" x="2257.5" y="-74.5" font-family="Helvetica,sans-Serif" font-size="10.00">boost/geometry/core</text>
<text text-anchor="middle" x="2308.5" y="-63.5" font-family="Helvetica,sans-Serif" font-size="10.00">/assert.hpp</text>
</a>
</g>
</g>
<!-- Node4&#45;&gt;Node20 -->
<g id="edge21" class="edge">
<title>Node4&#45;&gt;Node20</title>
<path fill="none" stroke="midnightblue" d="M3088.83,-131.63C2965.06,-130.19 2650,-123.1 2377.82,-87.04"/>
<polygon fill="midnightblue" stroke="midnightblue" points="2378.12,-83.55 2367.75,-85.69 2377.19,-90.48 2378.12,-83.55"/>
</g>
<!-- Node21 -->
<g id="node21" class="node">
<title>Node21</title>
<g id="a_node21"><a xlink:title=" ">
<polygon fill="white" stroke="#bfbfbf" points="2385.5,-62 2385.5,-81 2483.5,-81 2483.5,-62 2385.5,-62"/>
<text text-anchor="middle" x="2434.5" y="-69" font-family="Helvetica,sans-Serif" font-size="10.00">boost/assert.hpp</text>
</a>
</g>
</g>
<!-- Node4&#45;&gt;Node21 -->
<g id="edge22" class="edge">
<title>Node4&#45;&gt;Node21</title>
<path fill="none" stroke="midnightblue" d="M3088.64,-131.46C2976.84,-129.65 2711.76,-121.72 2492.5,-87 2486.59,-86.06 2480.4,-84.81 2474.35,-83.44"/>
<polygon fill="midnightblue" stroke="midnightblue" points="2474.94,-79.98 2464.4,-81.04 2473.3,-86.79 2474.94,-79.98"/>
</g>
<!-- Node22 -->
<g id="node22" class="node">
<title>Node22</title>
<g id="a_node22"><a xlink:title=" ">
<polygon fill="white" stroke="#bfbfbf" points="2501.5,-56.5 2501.5,-86.5 2635.5,-86.5 2635.5,-56.5 2501.5,-56.5"/>
<text text-anchor="start" x="2509.5" y="-74.5" font-family="Helvetica,sans-Serif" font-size="10.00">boost/geometry/core</text>
<text text-anchor="middle" x="2568.5" y="-63.5" font-family="Helvetica,sans-Serif" font-size="10.00">/coordinate_system.hpp</text>
</a>
</g>
</g>
<!-- Node4&#45;&gt;Node22 -->
<g id="edge23" class="edge">
<title>Node4&#45;&gt;Node22</title>
<path fill="none" stroke="midnightblue" d="M3088.87,-128.89C2999.19,-123.31 2812.94,-110.1 2645.56,-87.06"/>
<polygon fill="midnightblue" stroke="midnightblue" points="2645.96,-83.58 2635.58,-85.67 2645,-90.51 2645.96,-83.58"/>
</g>
<!-- Node23 -->
<g id="node23" class="node">
<title>Node23</title>
<g id="a_node23"><a xlink:title=" ">
<polygon fill="white" stroke="#bfbfbf" points="2654,-56.5 2654,-86.5 2803,-86.5 2803,-56.5 2654,-56.5"/>
<text text-anchor="start" x="2662" y="-74.5" font-family="Helvetica,sans-Serif" font-size="10.00">boost/geometry/core</text>
<text text-anchor="middle" x="2728.5" y="-63.5" font-family="Helvetica,sans-Serif" font-size="10.00">/coordinate_dimension.hpp</text>
</a>
</g>
</g>
<!-- Node4&#45;&gt;Node23 -->
<g id="edge24" class="edge">
<title>Node4&#45;&gt;Node23</title>
<path fill="none" stroke="midnightblue" d="M3088.97,-125.29C3025.67,-117.23 2916.86,-102.95 2813.15,-87.07"/>
<polygon fill="midnightblue" stroke="midnightblue" points="2813.55,-83.59 2803.13,-85.52 2812.48,-90.5 2813.55,-83.59"/>
</g>
<!-- Node24 -->
<g id="node24" class="node">
<title>Node24</title>
<g id="a_node24"><a xlink:title=" ">
<polygon fill="white" stroke="#bfbfbf" points="2821.5,-56.5 2821.5,-86.5 2973.5,-86.5 2973.5,-56.5 2821.5,-56.5"/>
<text text-anchor="start" x="2829.5" y="-74.5" font-family="Helvetica,sans-Serif" font-size="10.00">boost/geometry/geometries</text>
<text text-anchor="middle" x="2897.5" y="-63.5" font-family="Helvetica,sans-Serif" font-size="10.00">/box.hpp</text>
</a>
</g>
</g>
<!-- Node4&#45;&gt;Node24 -->
<g id="edge25" class="edge">
<title>Node4&#45;&gt;Node24</title>
<path fill="none" stroke="midnightblue" d="M3107.4,-123.48C3070.42,-114.49 3011.26,-100.13 2965.16,-88.93"/>
<polygon fill="midnightblue" stroke="midnightblue" points="2965.79,-85.48 2955.24,-86.52 2964.13,-92.28 2965.79,-85.48"/>
</g>
<!-- Node25 -->
<g id="node25" class="node">
<title>Node25</title>
<g id="a_node25"><a xlink:title=" ">
<polygon fill="white" stroke="#bfbfbf" points="2992,-62 2992,-81 3131,-81 3131,-62 2992,-62"/>
<text text-anchor="middle" x="3061.5" y="-69" font-family="Helvetica,sans-Serif" font-size="10.00">boost/concept/assert.hpp</text>
</a>
</g>
</g>
<!-- Node4&#45;&gt;Node25 -->
<g id="edge26" class="edge">
<title>Node4&#45;&gt;Node25</title>
<path fill="none" stroke="midnightblue" d="M3130.89,-123.48C3118.02,-114.02 3097.03,-98.6 3081.49,-87.19"/>
<polygon fill="midnightblue" stroke="midnightblue" points="3083.22,-84.11 3073.08,-81.01 3079.07,-89.75 3083.22,-84.11"/>
</g>
<!-- Node26 -->
<g id="node26" class="node">
<title>Node26</title>
<g id="a_node26"><a xlink:title=" ">
<polygon fill="white" stroke="#bfbfbf" points="3149,-56.5 3149,-86.5 3298,-86.5 3298,-56.5 3149,-56.5"/>
<text text-anchor="start" x="3157" y="-74.5" font-family="Helvetica,sans-Serif" font-size="10.00">boost/geometry/algorithms</text>
<text text-anchor="middle" x="3223.5" y="-63.5" font-family="Helvetica,sans-Serif" font-size="10.00">/convert.hpp</text>
</a>
</g>
</g>
<!-- Node4&#45;&gt;Node26 -->
<g id="edge27" class="edge">
<title>Node4&#45;&gt;Node26</title>
<path fill="none" stroke="midnightblue" d="M3154.11,-123.48C3165.08,-115.42 3181.95,-103.02 3196.31,-92.47"/>
<polygon fill="midnightblue" stroke="midnightblue" points="3198.42,-95.26 3204.41,-86.52 3194.28,-89.62 3198.42,-95.26"/>
</g>
<!-- Node27 -->
<g id="node27" class="node">
<title>Node27</title>
<g id="a_node27"><a xlink:title=" ">
<polygon fill="white" stroke="#bfbfbf" points="3316,-56.5 3316,-86.5 3459,-86.5 3459,-56.5 3316,-56.5"/>
<text text-anchor="start" x="3324" y="-74.5" font-family="Helvetica,sans-Serif" font-size="10.00">boost/numeric/conversion</text>
<text text-anchor="middle" x="3387.5" y="-63.5" font-family="Helvetica,sans-Serif" font-size="10.00">/cast.hpp</text>
</a>
</g>
</g>
<!-- Node4&#45;&gt;Node27 -->
<g id="edge28" class="edge">
<title>Node4&#45;&gt;Node27</title>
<path fill="none" stroke="midnightblue" d="M3177.6,-123.48C3214.58,-114.49 3273.74,-100.13 3319.84,-88.93"/>
<polygon fill="midnightblue" stroke="midnightblue" points="3320.87,-92.28 3329.76,-86.52 3319.21,-85.48 3320.87,-92.28"/>
</g>
<!-- Node28 -->
<g id="node28" class="node">
<title>Node28</title>
<g id="a_node28"><a xlink:title=" ">
<polygon fill="white" stroke="#bfbfbf" points="3477,-62 3477,-81 3572,-81 3572,-62 3477,-62"/>
<text text-anchor="middle" x="3524.5" y="-69" font-family="Helvetica,sans-Serif" font-size="10.00">boost/range.hpp</text>
</a>
</g>
</g>
<!-- Node4&#45;&gt;Node28 -->
<g id="edge29" class="edge">
<title>Node4&#45;&gt;Node28</title>
<path fill="none" stroke="midnightblue" d="M3196.11,-124.32C3199.29,-123.87 3202.44,-123.43 3205.5,-123 3322.34,-106.66 3352.75,-109.83 3468.5,-87 3473.6,-85.99 3478.93,-84.8 3484.19,-83.54"/>
<polygon fill="midnightblue" stroke="midnightblue" points="3485.28,-86.87 3494.13,-81.06 3483.58,-80.08 3485.28,-86.87"/>
</g>
<!-- Node29 -->
<g id="node29" class="node">
<title>Node29</title>
<g id="a_node29"><a xlink:title=" ">
<polygon fill="white" stroke="#bfbfbf" points="3590,-62 3590,-81 3733,-81 3733,-62 3590,-62"/>
<text text-anchor="middle" x="3661.5" y="-69" font-family="Helvetica,sans-Serif" font-size="10.00">boost/range/functions.hpp</text>
</a>
</g>
</g>
<!-- Node4&#45;&gt;Node29 -->
<g id="edge30" class="edge">
<title>Node4&#45;&gt;Node29</title>
<path fill="none" stroke="midnightblue" d="M3196.09,-124.17C3199.27,-123.76 3202.43,-123.37 3205.5,-123 3372.19,-103.12 3415.21,-109.99 3581.5,-87 3590.14,-85.81 3599.26,-84.34 3608.14,-82.81"/>
<polygon fill="midnightblue" stroke="midnightblue" points="3608.77,-86.26 3618.01,-81.07 3607.55,-79.36 3608.77,-86.26"/>
</g>
<!-- Node30 -->
<g id="node30" class="node">
<title>Node30</title>
<g id="a_node30"><a xlink:title=" ">
<polygon fill="white" stroke="#bfbfbf" points="3751,-62 3751,-81 3920,-81 3920,-62 3751,-62"/>
<text text-anchor="middle" x="3835.5" y="-69" font-family="Helvetica,sans-Serif" font-size="10.00">boost/range/metafunctions.hpp</text>
</a>
</g>
</g>
<!-- Node4&#45;&gt;Node30 -->
<g id="edge31" class="edge">
<title>Node4&#45;&gt;Node30</title>
<path fill="none" stroke="midnightblue" d="M3196.08,-124.07C3199.27,-123.68 3202.42,-123.32 3205.5,-123 3443.4,-98.07 3504.76,-113.45 3742.5,-87 3753.32,-85.8 3764.8,-84.24 3775.87,-82.59"/>
<polygon fill="midnightblue" stroke="midnightblue" points="3776.54,-86.03 3785.9,-81.06 3775.48,-79.11 3776.54,-86.03"/>
</g>
<!-- Node31 -->
<g id="node31" class="node">
<title>Node31</title>
<g id="a_node31"><a xlink:title=" ">
<polygon fill="white" stroke="#bfbfbf" points="3938.5,-62 3938.5,-81 4072.5,-81 4072.5,-62 3938.5,-62"/>
<text text-anchor="middle" x="4005.5" y="-69" font-family="Helvetica,sans-Serif" font-size="10.00">boost/range/iterator.hpp</text>
</a>
</g>
</g>
<!-- Node4&#45;&gt;Node31 -->
<g id="edge32" class="edge">
<title>Node4&#45;&gt;Node31</title>
<path fill="none" stroke="midnightblue" d="M3196.08,-124C3199.26,-123.63 3202.42,-123.3 3205.5,-123 3526.2,-92.19 3609.61,-125.28 3929.5,-87 3938.22,-85.96 3947.45,-84.5 3956.35,-82.91"/>
<polygon fill="midnightblue" stroke="midnightblue" points="3957.03,-86.34 3966.22,-81.07 3955.74,-79.46 3957.03,-86.34"/>
</g>
<!-- Node32 -->
<g id="node32" class="node">
<title>Node32</title>
<g id="a_node32"><a xlink:title=" ">
<polygon fill="white" stroke="#bfbfbf" points="4090.5,-56.5 4090.5,-86.5 4218.5,-86.5 4218.5,-56.5 4090.5,-56.5"/>
<text text-anchor="start" x="4098.5" y="-74.5" font-family="Helvetica,sans-Serif" font-size="10.00">boost/range/has_range</text>
<text text-anchor="middle" x="4154.5" y="-63.5" font-family="Helvetica,sans-Serif" font-size="10.00">_iterator.hpp</text>
</a>
</g>
</g>
<!-- Node4&#45;&gt;Node32 -->
<g id="edge33" class="edge">
<title>Node4&#45;&gt;Node32</title>
<path fill="none" stroke="midnightblue" d="M3196.07,-123.97C3199.26,-123.61 3202.42,-123.28 3205.5,-123 3590.22,-87.71 3692.83,-132.32 4080.41,-86.99"/>
<polygon fill="midnightblue" stroke="midnightblue" points="4080.98,-90.45 4090.5,-85.8 4080.15,-83.49 4080.98,-90.45"/>
</g>
<!-- Node33 -->
<g id="node33" class="node">
<title>Node33</title>
<g id="a_node33"><a xlink:title=" ">
<polygon fill="white" stroke="#bfbfbf" points="4237,-56.5 4237,-86.5 4342,-86.5 4342,-56.5 4237,-56.5"/>
<text text-anchor="start" x="4245" y="-74.5" font-family="Helvetica,sans-Serif" font-size="10.00">boost/range/result</text>
<text text-anchor="middle" x="4289.5" y="-63.5" font-family="Helvetica,sans-Serif" font-size="10.00">_iterator.hpp</text>
</a>
</g>
</g>
<!-- Node4&#45;&gt;Node33 -->
<g id="edge34" class="edge">
<title>Node4&#45;&gt;Node33</title>
<path fill="none" stroke="midnightblue" d="M3196.07,-123.95C3199.26,-123.6 3202.42,-123.27 3205.5,-123 3654.91,-83.1 3775.22,-146.1 4226.81,-86.88"/>
<polygon fill="midnightblue" stroke="midnightblue" points="4227.41,-90.33 4236.86,-85.54 4226.49,-83.39 4227.41,-90.33"/>
</g>
<!-- Node34 -->
<g id="node34" class="node">
<title>Node34</title>
<g id="a_node34"><a xlink:title=" ">
<polygon fill="white" stroke="#bfbfbf" points="4360.5,-56.5 4360.5,-86.5 4474.5,-86.5 4474.5,-56.5 4360.5,-56.5"/>
<text text-anchor="start" x="4368.5" y="-74.5" font-family="Helvetica,sans-Serif" font-size="10.00">boost/range/reverse</text>
<text text-anchor="middle" x="4417.5" y="-63.5" font-family="Helvetica,sans-Serif" font-size="10.00">_iterator.hpp</text>
</a>
</g>
</g>
<!-- Node4&#45;&gt;Node34 -->
<g id="edge35" class="edge">
<title>Node4&#45;&gt;Node34</title>
<path fill="none" stroke="midnightblue" d="M3196.07,-123.94C3199.26,-123.58 3202.42,-123.27 3205.5,-123 3709.83,-79.19 3844.05,-149.01 4350.25,-86.98"/>
<polygon fill="midnightblue" stroke="midnightblue" points="4350.88,-90.43 4360.37,-85.73 4350.02,-83.48 4350.88,-90.43"/>
</g>
<!-- Node35 -->
<g id="node35" class="node">
<title>Node35</title>
<g id="a_node35"><a xlink:title=" ">
<polygon fill="white" stroke="#bfbfbf" points="4492.5,-56.5 4492.5,-86.5 4638.5,-86.5 4638.5,-56.5 4492.5,-56.5"/>
<text text-anchor="start" x="4500.5" y="-74.5" font-family="Helvetica,sans-Serif" font-size="10.00">boost/range/const_reverse</text>
<text text-anchor="middle" x="4565.5" y="-63.5" font-family="Helvetica,sans-Serif" font-size="10.00">_iterator.hpp</text>
</a>
</g>
</g>
<!-- Node4&#45;&gt;Node35 -->
<g id="edge36" class="edge">
<title>Node4&#45;&gt;Node35</title>
<path fill="none" stroke="midnightblue" d="M3196.07,-123.92C3199.26,-123.58 3202.42,-123.26 3205.5,-123 3768.35,-75.03 3916.47,-143.81 4482.21,-87.02"/>
<polygon fill="midnightblue" stroke="midnightblue" points="4482.66,-90.49 4492.26,-86 4481.96,-83.53 4482.66,-90.49"/>
</g>
<!-- Node36 -->
<g id="node36" class="node">
<title>Node36</title>
<g id="a_node36"><a xlink:title=" ">
<polygon fill="white" stroke="#bfbfbf" points="4656.5,-56.5 4656.5,-86.5 4796.5,-86.5 4796.5,-56.5 4656.5,-56.5"/>
<text text-anchor="start" x="4664.5" y="-74.5" font-family="Helvetica,sans-Serif" font-size="10.00">boost/type_traits/remove</text>
<text text-anchor="middle" x="4726.5" y="-63.5" font-family="Helvetica,sans-Serif" font-size="10.00">_reference.hpp</text>
</a>
</g>
</g>
<!-- Node4&#45;&gt;Node36 -->
<g id="edge37" class="edge">
<title>Node4&#45;&gt;Node36</title>
<path fill="none" stroke="midnightblue" d="M3196.07,-123.91C3199.26,-123.57 3202.42,-123.26 3205.5,-123 3840.93,-69.86 4008.03,-152.18 4645.99,-87.03"/>
<polygon fill="midnightblue" stroke="midnightblue" points="4646.78,-90.47 4656.37,-85.96 4646.07,-83.5 4646.78,-90.47"/>
</g>
<!-- Node37 -->
<g id="node37" class="node">
<title>Node37</title>
<g id="a_node37"><a xlink:title=" ">
<polygon fill="white" stroke="#bfbfbf" points="4814.5,-56.5 4814.5,-86.5 4928.5,-86.5 4928.5,-56.5 4814.5,-56.5"/>
<text text-anchor="start" x="4822.5" y="-74.5" font-family="Helvetica,sans-Serif" font-size="10.00">boost/range/reverse</text>
<text text-anchor="middle" x="4871.5" y="-63.5" font-family="Helvetica,sans-Serif" font-size="10.00">_result_iterator.hpp</text>
</a>
</g>
</g>
<!-- Node4&#45;&gt;Node37 -->
<g id="edge38" class="edge">
<title>Node4&#45;&gt;Node37</title>
<path fill="none" stroke="midnightblue" d="M3196.07,-123.9C3199.25,-123.56 3202.42,-123.25 3205.5,-123 3911.01,-64.88 4097.5,-170.7 4804.2,-86.97"/>
<polygon fill="midnightblue" stroke="midnightblue" points="4804.86,-90.42 4814.38,-85.76 4804.03,-83.47 4804.86,-90.42"/>
</g>
<!-- Node38 -->
<g id="node38" class="node">
<title>Node38</title>
<g id="a_node38"><a xlink:title=" ">
<polygon fill="white" stroke="#bfbfbf" points="4946.5,-62 4946.5,-81 5098.5,-81 5098.5,-62 4946.5,-62"/>
<text text-anchor="middle" x="5022.5" y="-69" font-family="Helvetica,sans-Serif" font-size="10.00">boost/range/value_type.hpp</text>
</a>
</g>
</g>
<!-- Node4&#45;&gt;Node38 -->
<g id="edge39" class="edge">
<title>Node4&#45;&gt;Node38</title>
<path fill="none" stroke="midnightblue" d="M3196.07,-123.9C3199.25,-123.56 3202.42,-123.25 3205.5,-123 3972.9,-60.44 4171.02,-159.94 4937.5,-87 4948,-86 4959.17,-84.45 4969.83,-82.73"/>
<polygon fill="midnightblue" stroke="midnightblue" points="4970.58,-86.16 4979.86,-81.05 4969.42,-79.25 4970.58,-86.16"/>
</g>
<!-- Node39 -->
<g id="node39" class="node">
<title>Node39</title>
<g id="a_node39"><a xlink:title=" ">
<polygon fill="white" stroke="#bfbfbf" points="5117,-62 5117,-81 5262,-81 5262,-62 5117,-62"/>
<text text-anchor="middle" x="5189.5" y="-69" font-family="Helvetica,sans-Serif" font-size="10.00">boost/range/size_type.hpp</text>
</a>
</g>
</g>
<!-- Node4&#45;&gt;Node39 -->
<g id="edge40" class="edge">
<title>Node4&#45;&gt;Node39</title>
<path fill="none" stroke="midnightblue" d="M3196.07,-123.89C3199.25,-123.55 3202.42,-123.25 3205.5,-123 4048.25,-55.09 4265.99,-168.86 5107.5,-87 5117.54,-86.02 5128.19,-84.5 5138.38,-82.81"/>
<polygon fill="midnightblue" stroke="midnightblue" points="5139.13,-86.23 5148.38,-81.07 5137.93,-79.33 5139.13,-86.23"/>
</g>
<!-- Node40 -->
<g id="node40" class="node">
<title>Node40</title>
<g id="a_node40"><a xlink:title=" ">
<polygon fill="white" stroke="#bfbfbf" points="5280.5,-56.5 5280.5,-86.5 5406.5,-86.5 5406.5,-56.5 5280.5,-56.5"/>
<text text-anchor="start" x="5288.5" y="-74.5" font-family="Helvetica,sans-Serif" font-size="10.00">boost/range/difference</text>
<text text-anchor="middle" x="5343.5" y="-63.5" font-family="Helvetica,sans-Serif" font-size="10.00">_type.hpp</text>
</a>
</g>
</g>
<!-- Node4&#45;&gt;Node40 -->
<g id="edge41" class="edge">
<title>Node4&#45;&gt;Node40</title>
<path fill="none" stroke="midnightblue" d="M3196.07,-123.89C3199.25,-123.55 3202.42,-123.25 3205.5,-123 3659.98,-86.72 4798.72,-135.83 5270.4,-86.94"/>
<polygon fill="midnightblue" stroke="midnightblue" points="5270.81,-90.42 5280.38,-85.88 5270.07,-83.46 5270.81,-90.42"/>
</g>
<!-- Node41 -->
<g id="node41" class="node">
<title>Node41</title>
<g id="a_node41"><a xlink:title=" ">
<polygon fill="white" stroke="#bfbfbf" points="5424.5,-62 5424.5,-81 5564.5,-81 5564.5,-62 5424.5,-62"/>
<text text-anchor="middle" x="5494.5" y="-69" font-family="Helvetica,sans-Serif" font-size="10.00">boost/range/category.hpp</text>
</a>
</g>
</g>
<!-- Node4&#45;&gt;Node41 -->
<g id="edge42" class="edge">
<title>Node4&#45;&gt;Node41</title>
<path fill="none" stroke="midnightblue" d="M3196.07,-123.88C3199.25,-123.54 3202.42,-123.24 3205.5,-123 4184.78,-45.38 4437.95,-184 5415.5,-87 5425.18,-86.04 5435.45,-84.53 5445.27,-82.83"/>
<polygon fill="midnightblue" stroke="midnightblue" points="5446.09,-86.24 5455.3,-81.02 5444.84,-79.35 5446.09,-86.24"/>
</g>
<!-- Node42 -->
<g id="node42" class="node">
<title>Node42</title>
<g id="a_node42"><a xlink:title=" ">
<polygon fill="white" stroke="#bfbfbf" points="5582.5,-62 5582.5,-81 5710.5,-81 5710.5,-62 5582.5,-62"/>
<text text-anchor="middle" x="5646.5" y="-69" font-family="Helvetica,sans-Serif" font-size="10.00">boost/range/config.hpp</text>
</a>
</g>
</g>
<!-- Node4&#45;&gt;Node42 -->
<g id="edge43" class="edge">
<title>Node4&#45;&gt;Node42</title>
<path fill="none" stroke="midnightblue" d="M3196.06,-123.88C3199.25,-123.54 3202.42,-123.24 3205.5,-123 3730.16,-81.7 5050.15,-142.49 5573.5,-87 5582.28,-86.07 5591.56,-84.6 5600.47,-82.95"/>
<polygon fill="midnightblue" stroke="midnightblue" points="5601.17,-86.38 5610.31,-81.03 5599.82,-79.51 5601.17,-86.38"/>
</g>
<!-- Node43 -->
<g id="node43" class="node">
<title>Node43</title>
<g id="a_node43"><a xlink:title=" ">
<polygon fill="white" stroke="#bfbfbf" points="5728.5,-56.5 5728.5,-86.5 5850.5,-86.5 5850.5,-56.5 5728.5,-56.5"/>
<text text-anchor="start" x="5736.5" y="-74.5" font-family="Helvetica,sans-Serif" font-size="10.00">boost/iterator/iterator</text>
<text text-anchor="middle" x="5789.5" y="-63.5" font-family="Helvetica,sans-Serif" font-size="10.00">_traits.hpp</text>
</a>
</g>
</g>
<!-- Node4&#45;&gt;Node43 -->
<g id="edge44" class="edge">
<title>Node4&#45;&gt;Node43</title>
<path fill="none" stroke="midnightblue" d="M3196.06,-123.87C3199.25,-123.54 3202.42,-123.24 3205.5,-123 3759.26,-79.66 5147.71,-147.14 5718.14,-86.97"/>
<polygon fill="midnightblue" stroke="midnightblue" points="5718.58,-90.45 5728.15,-85.9 5717.83,-83.49 5718.58,-90.45"/>
</g>
<!-- Node44 -->
<g id="node44" class="node">
<title>Node44</title>
<g id="a_node44"><a xlink:title=" ">
<polygon fill="white" stroke="#bfbfbf" points="5869,-62 5869,-81 6014,-81 6014,-62 5869,-62"/>
<text text-anchor="middle" x="5941.5" y="-69" font-family="Helvetica,sans-Serif" font-size="10.00">boost/range/reference.hpp</text>
</a>
</g>
</g>
<!-- Node4&#45;&gt;Node44 -->
<g id="edge45" class="edge">
<title>Node4&#45;&gt;Node44</title>
<path fill="none" stroke="midnightblue" d="M3196.06,-123.87C3199.25,-123.54 3202.42,-123.24 3205.5,-123 3793.55,-77.2 5272.29,-142.53 5859.5,-87 5869.65,-86.04 5880.42,-84.51 5890.71,-82.8"/>
<polygon fill="midnightblue" stroke="midnightblue" points="5891.55,-86.2 5900.8,-81.03 5890.35,-79.31 5891.55,-86.2"/>
</g>
<!-- Node45 -->
<g id="node45" class="node">
<title>Node45</title>
<g id="a_node45"><a xlink:title=" ">
<polygon fill="white" stroke="#bfbfbf" points="6032.5,-62 6032.5,-81 6164.5,-81 6164.5,-62 6032.5,-62"/>
<text text-anchor="middle" x="6098.5" y="-69" font-family="Helvetica,sans-Serif" font-size="10.00">boost/range/pointer.hpp</text>
</a>
</g>
</g>
<!-- Node4&#45;&gt;Node45 -->
<g id="edge46" class="edge">
<title>Node4&#45;&gt;Node45</title>
<path fill="none" stroke="midnightblue" d="M3196.06,-123.87C3199.25,-123.53 3202.42,-123.24 3205.5,-123 3829.9,-74.61 5400.47,-150.69 6023.5,-87 6032.51,-86.08 6042.05,-84.62 6051.2,-82.97"/>
<polygon fill="midnightblue" stroke="midnightblue" points="6052.14,-86.35 6061.31,-81.05 6050.83,-79.48 6052.14,-86.35"/>
</g>
<!-- Node46 -->
<g id="node46" class="node">
<title>Node46</title>
<g id="a_node46"><a xlink:title=" ">
<polygon fill="white" stroke="#bfbfbf" points="6183,-56.5 6183,-86.5 6296,-86.5 6296,-56.5 6183,-56.5"/>
<text text-anchor="start" x="6191" y="-74.5" font-family="Helvetica,sans-Serif" font-size="10.00">boost/range/iterator</text>
<text text-anchor="middle" x="6239.5" y="-63.5" font-family="Helvetica,sans-Serif" font-size="10.00">_range.hpp</text>
</a>
</g>
</g>
<!-- Node4&#45;&gt;Node46 -->
<g id="edge47" class="edge">
<title>Node4&#45;&gt;Node46</title>
<path fill="none" stroke="midnightblue" d="M3196.06,-123.87C3199.25,-123.53 3202.42,-123.24 3205.5,-123 3859.78,-72.51 5501.25,-161.24 6172.44,-86.9"/>
<polygon fill="midnightblue" stroke="midnightblue" points="6173.2,-90.34 6182.74,-85.74 6172.41,-83.38 6173.2,-90.34"/>
</g>
<!-- Node47 -->
<g id="node47" class="node">
<title>Node47</title>
<g id="a_node47"><a xlink:title=" ">
<polygon fill="white" stroke="#bfbfbf" points="6314,-62 6314,-81 6463,-81 6463,-62 6314,-62"/>
<text text-anchor="middle" x="6388.5" y="-69" font-family="Helvetica,sans-Serif" font-size="10.00">boost/range/sub_range.hpp</text>
</a>
</g>
</g>
<!-- Node4&#45;&gt;Node47 -->
<g id="edge48" class="edge">
<title>Node4&#45;&gt;Node47</title>
<path fill="none" stroke="midnightblue" d="M3196.06,-123.86C3199.25,-123.53 3202.42,-123.24 3205.5,-123 3892.41,-70.17 5619.5,-150.49 6305.5,-87 6315.88,-86.04 6326.9,-84.49 6337.42,-82.76"/>
<polygon fill="midnightblue" stroke="midnightblue" points="6338.04,-86.2 6347.3,-81.05 6336.85,-79.3 6338.04,-86.2"/>
</g>
<!-- Node48 -->
<g id="node48" class="node">
<title>Node48</title>
<g id="a_node48"><a xlink:title=" ">
<polygon fill="white" stroke="#bfbfbf" points="6481,-62 6481,-81 6636,-81 6636,-62 6481,-62"/>
<text text-anchor="middle" x="6558.5" y="-69" font-family="Helvetica,sans-Serif" font-size="10.00">boost/detail/workaround.hpp</text>
</a>
</g>
</g>
<!-- Node4&#45;&gt;Node48 -->
<g id="edge49" class="edge">
<title>Node4&#45;&gt;Node48</title>
<path fill="none" stroke="midnightblue" d="M3196.06,-123.86C3199.25,-123.53 3202.42,-123.24 3205.5,-123 3929.42,-67.54 5749.33,-151.55 6472.5,-87 6483.35,-86.03 6494.9,-84.46 6505.9,-82.7"/>
<polygon fill="midnightblue" stroke="midnightblue" points="6506.51,-86.15 6515.8,-81.05 6505.36,-79.25 6506.51,-86.15"/>
</g>
<!-- Node49 -->
<g id="node49" class="node">
<title>Node49</title>
<g id="a_node49"><a xlink:title=" ">
<polygon fill="white" stroke="#bfbfbf" points="6654,-56.5 6654,-86.5 6779,-86.5 6779,-56.5 6654,-56.5"/>
<text text-anchor="start" x="6662" y="-74.5" font-family="Helvetica,sans-Serif" font-size="10.00">boost/range/algorithm</text>
<text text-anchor="middle" x="6716.5" y="-63.5" font-family="Helvetica,sans-Serif" font-size="10.00">/equal.hpp</text>
</a>
</g>
</g>
<!-- Node4&#45;&gt;Node49 -->
<g id="edge50" class="edge">
<title>Node4&#45;&gt;Node49</title>
<path fill="none" stroke="midnightblue" d="M3196.06,-123.86C3199.25,-123.53 3202.42,-123.24 3205.5,-123 3964.42,-65.07 5868.47,-166.95 6643.68,-87.03"/>
<polygon fill="midnightblue" stroke="midnightblue" points="6644.3,-90.49 6653.88,-85.96 6643.57,-83.52 6644.3,-90.49"/>
</g>
</g>
</svg>
