<?xml version="1.0" encoding="UTF-8" standalone="no"?>
<!DOCTYPE svg PUBLIC "-//W3C//DTD SVG 1.1//EN"
 "http://www.w3.org/Graphics/SVG/1.1/DTD/svg11.dtd">
<!-- Generated by graphviz version 2.43.0 (0)
 -->
<!-- Title: boost/ui/font.hpp Pages: 1 -->
<svg width="2729pt" height="196pt"
 viewBox="0.00 0.00 2729.00 196.00" xmlns="http://www.w3.org/2000/svg" xmlns:xlink="http://www.w3.org/1999/xlink">
<g id="graph0" class="graph" transform="scale(1 1) rotate(0) translate(4 192)">
<title>boost/ui/font.hpp</title>
<polygon fill="white" stroke="transparent" points="-4,4 -4,-192 2725,-192 2725,4 -4,4"/>
<!-- Node1 -->
<g id="node1" class="node">
<title>Node1</title>
<g id="a_node1"><a xlink:title="Font class.">
<polygon fill="#bfbfbf" stroke="black" points="2529.5,-168.5 2529.5,-187.5 2628.5,-187.5 2628.5,-168.5 2529.5,-168.5"/>
<text text-anchor="middle" x="2579" y="-175.5" font-family="Helvetica,sans-Serif" font-size="10.00">boost/ui/font.hpp</text>
</a>
</g>
</g>
<!-- Node2 -->
<g id="node2" class="node">
<title>Node2</title>
<g id="a_node2"><a xlink:href="widget_8hpp.html" target="_top" xlink:title="Widget class.">
<polygon fill="white" stroke="black" points="1249.5,-112.5 1249.5,-131.5 1362.5,-131.5 1362.5,-112.5 1249.5,-112.5"/>
<text text-anchor="middle" x="1306" y="-119.5" font-family="Helvetica,sans-Serif" font-size="10.00">boost/ui/widget.hpp</text>
</a>
</g>
</g>
<!-- Node1&#45;&gt;Node2 -->
<g id="edge1" class="edge">
<title>Node1&#45;&gt;Node2</title>
<path fill="none" stroke="midnightblue" d="M2519.36,-174.47C2304.63,-165.36 1572.64,-134.31 1362.71,-125.41"/>
<polygon fill="midnightblue" stroke="midnightblue" points="2519.35,-177.97 2529.49,-174.9 2519.64,-170.98 2519.35,-177.97"/>
</g>
<!-- Node8 -->
<g id="node8" class="node">
<title>Node8</title>
<g id="a_node8"><a xlink:href="ui_8hpp.html" target="_top" xlink:title="Master Boost.UI file.">
<polygon fill="white" stroke="black" points="860.5,-0.5 860.5,-19.5 937.5,-19.5 937.5,-0.5 860.5,-0.5"/>
<text text-anchor="middle" x="899" y="-7.5" font-family="Helvetica,sans-Serif" font-size="10.00">boost/ui.hpp</text>
</a>
</g>
</g>
<!-- Node1&#45;&gt;Node8 -->
<g id="edge28" class="edge">
<title>Node1&#45;&gt;Node8</title>
<path fill="none" stroke="midnightblue" d="M2582.38,-158.11C2586.03,-130.91 2587.93,-81.22 2559,-56 2527.42,-28.47 1183.98,-13.83 937.6,-11.37"/>
<polygon fill="midnightblue" stroke="midnightblue" points="2578.88,-157.83 2580.79,-168.25 2585.8,-158.92 2578.88,-157.83"/>
</g>
<!-- Node24 -->
<g id="node24" class="node">
<title>Node24</title>
<g id="a_node24"><a xlink:href="painter_8hpp.html" target="_top" xlink:title="Painter class.">
<polygon fill="white" stroke="black" points="2607,-112.5 2607,-131.5 2721,-131.5 2721,-112.5 2607,-112.5"/>
<text text-anchor="middle" x="2664" y="-119.5" font-family="Helvetica,sans-Serif" font-size="10.00">boost/ui/painter.hpp</text>
</a>
</g>
</g>
<!-- Node1&#45;&gt;Node24 -->
<g id="edge26" class="edge">
<title>Node1&#45;&gt;Node24</title>
<path fill="none" stroke="midnightblue" d="M2601.19,-162.9C2616.78,-153 2637.13,-140.07 2650.38,-131.65"/>
<polygon fill="midnightblue" stroke="midnightblue" points="2599.22,-160.01 2592.66,-168.32 2602.97,-165.92 2599.22,-160.01"/>
</g>
<!-- Node3 -->
<g id="node3" class="node">
<title>Node3</title>
<g id="a_node3"><a xlink:href="web__widget_8hpp.html" target="_top" xlink:title="Web widget.">
<polygon fill="white" stroke="black" points="0,-56.5 0,-75.5 138,-75.5 138,-56.5 0,-56.5"/>
<text text-anchor="middle" x="69" y="-63.5" font-family="Helvetica,sans-Serif" font-size="10.00">boost/ui/web_widget.hpp</text>
</a>
</g>
</g>
<!-- Node2&#45;&gt;Node3 -->
<g id="edge2" class="edge">
<title>Node2&#45;&gt;Node3</title>
<path fill="none" stroke="midnightblue" d="M1238.97,-120.18C1060.92,-117.61 561.37,-107.9 147,-76 144.15,-75.78 141.24,-75.54 138.3,-75.27"/>
<polygon fill="midnightblue" stroke="midnightblue" points="1239.18,-123.68 1249.23,-120.32 1239.28,-116.68 1239.18,-123.68"/>
</g>
<!-- Node4 -->
<g id="node4" class="node">
<title>Node4</title>
<g id="a_node4"><a xlink:href="text__box_8hpp.html" target="_top" xlink:title="Text editor widgets.">
<polygon fill="white" stroke="black" points="156,-56.5 156,-75.5 278,-75.5 278,-56.5 156,-56.5"/>
<text text-anchor="middle" x="217" y="-63.5" font-family="Helvetica,sans-Serif" font-size="10.00">boost/ui/text_box.hpp</text>
</a>
</g>
</g>
<!-- Node2&#45;&gt;Node4 -->
<g id="edge3" class="edge">
<title>Node2&#45;&gt;Node4</title>
<path fill="none" stroke="midnightblue" d="M1238.91,-119.98C1075.7,-117.07 645.01,-106.87 287,-76 284.07,-75.75 281.07,-75.46 278.05,-75.16"/>
<polygon fill="midnightblue" stroke="midnightblue" points="1239.22,-123.48 1249.28,-120.16 1239.34,-116.49 1239.22,-123.48"/>
</g>
<!-- Node5 -->
<g id="node5" class="node">
<title>Node5</title>
<g id="a_node5"><a xlink:href="strings__box_8hpp.html" target="_top" xlink:title="Widget with array of strings.">
<polygon fill="white" stroke="black" points="296,-56.5 296,-75.5 432,-75.5 432,-56.5 296,-56.5"/>
<text text-anchor="middle" x="364" y="-63.5" font-family="Helvetica,sans-Serif" font-size="10.00">boost/ui/strings_box.hpp</text>
</a>
</g>
</g>
<!-- Node2&#45;&gt;Node5 -->
<g id="edge4" class="edge">
<title>Node2&#45;&gt;Node5</title>
<path fill="none" stroke="midnightblue" d="M1239.27,-118.81C1094.59,-113.76 741.24,-99.91 446,-76 441.57,-75.64 437.02,-75.24 432.43,-74.81"/>
<polygon fill="midnightblue" stroke="midnightblue" points="1239.21,-122.31 1249.32,-119.15 1239.45,-115.31 1239.21,-122.31"/>
</g>
<!-- Node2&#45;&gt;Node8 -->
<g id="edge25" class="edge">
<title>Node2&#45;&gt;Node8</title>
<path fill="none" stroke="midnightblue" d="M1239.05,-119.84C1046.78,-116.18 505,-103.45 479,-76 425.35,-19.35 747.02,-11.94 860.48,-11.07"/>
<polygon fill="midnightblue" stroke="midnightblue" points="1239.24,-123.34 1249.3,-120.03 1239.37,-116.34 1239.24,-123.34"/>
</g>
<!-- Node9 -->
<g id="node9" class="node">
<title>Node9</title>
<g id="a_node9"><a xlink:href="status__bar_8hpp.html" target="_top" xlink:title="Status bar class.">
<polygon fill="white" stroke="black" points="488.5,-56.5 488.5,-75.5 619.5,-75.5 619.5,-56.5 488.5,-56.5"/>
<text text-anchor="middle" x="554" y="-63.5" font-family="Helvetica,sans-Serif" font-size="10.00">boost/ui/status_bar.hpp</text>
</a>
</g>
</g>
<!-- Node2&#45;&gt;Node9 -->
<g id="edge8" class="edge">
<title>Node2&#45;&gt;Node9</title>
<path fill="none" stroke="midnightblue" d="M1238.94,-117.77C1117.11,-111.63 851.4,-96.98 628,-76 625.29,-75.75 622.53,-75.47 619.75,-75.19"/>
<polygon fill="midnightblue" stroke="midnightblue" points="1239.05,-121.28 1249.22,-118.28 1239.41,-114.29 1239.05,-121.28"/>
</g>
<!-- Node10 -->
<g id="node10" class="node">
<title>Node10</title>
<g id="a_node10"><a xlink:href="slider_8hpp.html" target="_top" xlink:title="Slider widget.">
<polygon fill="white" stroke="black" points="637.5,-56.5 637.5,-75.5 744.5,-75.5 744.5,-56.5 637.5,-56.5"/>
<text text-anchor="middle" x="691" y="-63.5" font-family="Helvetica,sans-Serif" font-size="10.00">boost/ui/slider.hpp</text>
</a>
</g>
</g>
<!-- Node2&#45;&gt;Node10 -->
<g id="edge10" class="edge">
<title>Node2&#45;&gt;Node10</title>
<path fill="none" stroke="midnightblue" d="M1239.32,-116.93C1135.27,-110.28 928.07,-95.81 753,-76 750.3,-75.69 747.53,-75.36 744.74,-75.01"/>
<polygon fill="midnightblue" stroke="midnightblue" points="1239.16,-120.43 1249.36,-117.57 1239.61,-113.45 1239.16,-120.43"/>
</g>
<!-- Node11 -->
<g id="node11" class="node">
<title>Node11</title>
<g id="a_node11"><a xlink:href="progress__bar_8hpp.html" target="_top" xlink:title="Progress bar widget.">
<polygon fill="white" stroke="black" points="762.5,-56.5 762.5,-75.5 905.5,-75.5 905.5,-56.5 762.5,-56.5"/>
<text text-anchor="middle" x="834" y="-63.5" font-family="Helvetica,sans-Serif" font-size="10.00">boost/ui/progress_bar.hpp</text>
</a>
</g>
</g>
<!-- Node2&#45;&gt;Node11 -->
<g id="edge11" class="edge">
<title>Node2&#45;&gt;Node11</title>
<path fill="none" stroke="midnightblue" d="M1238.91,-113.32C1150.68,-103.23 996.29,-85.57 905.78,-75.21"/>
<polygon fill="midnightblue" stroke="midnightblue" points="1238.73,-116.83 1249.07,-114.49 1239.53,-109.87 1238.73,-116.83"/>
</g>
<!-- Node12 -->
<g id="node12" class="node">
<title>Node12</title>
<g id="a_node12"><a xlink:href="panel_8hpp.html" target="_top" xlink:title="Panel widget.">
<polygon fill="white" stroke="black" points="923.5,-56.5 923.5,-75.5 1030.5,-75.5 1030.5,-56.5 923.5,-56.5"/>
<text text-anchor="middle" x="977" y="-63.5" font-family="Helvetica,sans-Serif" font-size="10.00">boost/ui/panel.hpp</text>
</a>
</g>
</g>
<!-- Node2&#45;&gt;Node12 -->
<g id="edge12" class="edge">
<title>Node2&#45;&gt;Node12</title>
<path fill="none" stroke="midnightblue" d="M1243.8,-110.79C1181.63,-100.59 1087.14,-85.08 1028.89,-75.52"/>
<polygon fill="midnightblue" stroke="midnightblue" points="1243.43,-114.28 1253.87,-112.44 1244.57,-107.37 1243.43,-114.28"/>
</g>
<!-- Node13 -->
<g id="node13" class="node">
<title>Node13</title>
<g id="a_node13"><a xlink:href="notebook_8hpp.html" target="_top" xlink:title="Notebook widget.">
<polygon fill="white" stroke="black" points="1048.5,-56.5 1048.5,-75.5 1173.5,-75.5 1173.5,-56.5 1048.5,-56.5"/>
<text text-anchor="middle" x="1111" y="-63.5" font-family="Helvetica,sans-Serif" font-size="10.00">boost/ui/notebook.hpp</text>
</a>
</g>
</g>
<!-- Node2&#45;&gt;Node13 -->
<g id="edge13" class="edge">
<title>Node2&#45;&gt;Node13</title>
<path fill="none" stroke="midnightblue" d="M1265.19,-109.7C1228.39,-99.51 1175.07,-84.74 1141.75,-75.52"/>
<polygon fill="midnightblue" stroke="midnightblue" points="1264.53,-113.15 1275.1,-112.44 1266.4,-106.4 1264.53,-113.15"/>
</g>
<!-- Node14 -->
<g id="node14" class="node">
<title>Node14</title>
<g id="a_node14"><a xlink:href="menu_8hpp.html" target="_top" xlink:title="Menu classes.">
<polygon fill="white" stroke="black" points="1191.5,-56.5 1191.5,-75.5 1298.5,-75.5 1298.5,-56.5 1191.5,-56.5"/>
<text text-anchor="middle" x="1245" y="-63.5" font-family="Helvetica,sans-Serif" font-size="10.00">boost/ui/menu.hpp</text>
</a>
</g>
</g>
<!-- Node2&#45;&gt;Node14 -->
<g id="edge14" class="edge">
<title>Node2&#45;&gt;Node14</title>
<path fill="none" stroke="midnightblue" d="M1288.53,-105.54C1277.66,-95.91 1264.06,-83.87 1254.98,-75.83"/>
<polygon fill="midnightblue" stroke="midnightblue" points="1286.39,-108.32 1296.2,-112.32 1291.03,-103.07 1286.39,-108.32"/>
</g>
<!-- Node15 -->
<g id="node15" class="node">
<title>Node15</title>
<g id="a_node15"><a xlink:href="line_8hpp.html" target="_top" xlink:title="line widget">
<polygon fill="white" stroke="black" points="1317,-56.5 1317,-75.5 1415,-75.5 1415,-56.5 1317,-56.5"/>
<text text-anchor="middle" x="1366" y="-63.5" font-family="Helvetica,sans-Serif" font-size="10.00">boost/ui/line.hpp</text>
</a>
</g>
</g>
<!-- Node2&#45;&gt;Node15 -->
<g id="edge16" class="edge">
<title>Node2&#45;&gt;Node15</title>
<path fill="none" stroke="midnightblue" d="M1323.18,-105.54C1333.88,-95.91 1347.26,-83.87 1356.18,-75.83"/>
<polygon fill="midnightblue" stroke="midnightblue" points="1320.73,-103.03 1315.64,-112.32 1325.41,-108.24 1320.73,-103.03"/>
</g>
<!-- Node16 -->
<g id="node16" class="node">
<title>Node16</title>
<g id="a_node16"><a xlink:href="label_8hpp.html" target="_top" xlink:title="Label widget.">
<polygon fill="white" stroke="black" points="1433,-56.5 1433,-75.5 1537,-75.5 1537,-56.5 1433,-56.5"/>
<text text-anchor="middle" x="1485" y="-63.5" font-family="Helvetica,sans-Serif" font-size="10.00">boost/ui/label.hpp</text>
</a>
</g>
</g>
<!-- Node2&#45;&gt;Node16 -->
<g id="edge17" class="edge">
<title>Node2&#45;&gt;Node16</title>
<path fill="none" stroke="midnightblue" d="M1344.33,-109.44C1378.08,-99.26 1426.45,-84.66 1456.77,-75.52"/>
<polygon fill="midnightblue" stroke="midnightblue" points="1342.93,-106.2 1334.36,-112.44 1344.95,-112.91 1342.93,-106.2"/>
</g>
<!-- Node17 -->
<g id="node17" class="node">
<title>Node17</title>
<g id="a_node17"><a xlink:href="image__widget_8hpp.html" target="_top" xlink:title="Image widget.">
<polygon fill="white" stroke="black" points="1555.5,-56.5 1555.5,-75.5 1704.5,-75.5 1704.5,-56.5 1555.5,-56.5"/>
<text text-anchor="middle" x="1630" y="-63.5" font-family="Helvetica,sans-Serif" font-size="10.00">boost/ui/image_widget.hpp</text>
</a>
</g>
</g>
<!-- Node2&#45;&gt;Node17 -->
<g id="edge18" class="edge">
<title>Node2&#45;&gt;Node17</title>
<path fill="none" stroke="midnightblue" d="M1367.26,-110.79C1428.48,-100.59 1521.53,-85.08 1578.9,-75.52"/>
<polygon fill="midnightblue" stroke="midnightblue" points="1366.63,-107.35 1357.34,-112.44 1367.78,-114.25 1366.63,-107.35"/>
</g>
<!-- Node18 -->
<g id="node18" class="node">
<title>Node18</title>
<g id="a_node18"><a xlink:href="hyperlink_8hpp.html" target="_top" xlink:title="Hyperlink widget.">
<polygon fill="white" stroke="black" points="1722.5,-56.5 1722.5,-75.5 1847.5,-75.5 1847.5,-56.5 1722.5,-56.5"/>
<text text-anchor="middle" x="1785" y="-63.5" font-family="Helvetica,sans-Serif" font-size="10.00">boost/ui/hyperlink.hpp</text>
</a>
</g>
</g>
<!-- Node2&#45;&gt;Node18 -->
<g id="edge19" class="edge">
<title>Node2&#45;&gt;Node18</title>
<path fill="none" stroke="midnightblue" d="M1372.67,-113.92C1453.31,-105.3 1593.16,-90.11 1713,-76 1716,-75.65 1719.08,-75.28 1722.18,-74.91"/>
<polygon fill="midnightblue" stroke="midnightblue" points="1372.22,-110.45 1362.65,-114.99 1372.97,-117.41 1372.22,-110.45"/>
</g>
<!-- Node19 -->
<g id="node19" class="node">
<title>Node19</title>
<g id="a_node19"><a xlink:href="group__box_8hpp.html" target="_top" xlink:title="Group box widget.">
<polygon fill="white" stroke="black" points="1865.5,-56.5 1865.5,-75.5 1996.5,-75.5 1996.5,-56.5 1865.5,-56.5"/>
<text text-anchor="middle" x="1931" y="-63.5" font-family="Helvetica,sans-Serif" font-size="10.00">boost/ui/group_box.hpp</text>
</a>
</g>
</g>
<!-- Node2&#45;&gt;Node19 -->
<g id="edge20" class="edge">
<title>Node2&#45;&gt;Node19</title>
<path fill="none" stroke="midnightblue" d="M1372.67,-116.36C1476.21,-108.97 1681.88,-93.56 1856,-76 1859,-75.7 1862.07,-75.38 1865.17,-75.04"/>
<polygon fill="midnightblue" stroke="midnightblue" points="1372.4,-112.87 1362.68,-117.07 1372.9,-119.85 1372.4,-112.87"/>
</g>
<!-- Node20 -->
<g id="node20" class="node">
<title>Node20</title>
<g id="a_node20"><a xlink:href="datetime_8hpp.html" target="_top" xlink:title="Date and time pickers.">
<polygon fill="white" stroke="black" points="2015,-56.5 2015,-75.5 2139,-75.5 2139,-56.5 2015,-56.5"/>
<text text-anchor="middle" x="2077" y="-63.5" font-family="Helvetica,sans-Serif" font-size="10.00">boost/ui/datetime.hpp</text>
</a>
</g>
</g>
<!-- Node2&#45;&gt;Node20 -->
<g id="edge21" class="edge">
<title>Node2&#45;&gt;Node20</title>
<path fill="none" stroke="midnightblue" d="M1372.86,-118.03C1497.41,-112.21 1773.32,-97.92 2005,-76 2008.26,-75.69 2011.6,-75.35 2014.97,-74.99"/>
<polygon fill="midnightblue" stroke="midnightblue" points="1372.55,-114.55 1362.72,-118.51 1372.87,-121.54 1372.55,-114.55"/>
</g>
<!-- Node21 -->
<g id="node21" class="node">
<title>Node21</title>
<g id="a_node21"><a xlink:href="check__box_8hpp.html" target="_top" xlink:title="Check box widget.">
<polygon fill="white" stroke="black" points="2157.5,-56.5 2157.5,-75.5 2288.5,-75.5 2288.5,-56.5 2157.5,-56.5"/>
<text text-anchor="middle" x="2223" y="-63.5" font-family="Helvetica,sans-Serif" font-size="10.00">boost/ui/check_box.hpp</text>
</a>
</g>
</g>
<!-- Node2&#45;&gt;Node21 -->
<g id="edge22" class="edge">
<title>Node2&#45;&gt;Node21</title>
<path fill="none" stroke="midnightblue" d="M1372.83,-118.93C1515.44,-114.18 1860.06,-100.94 2148,-76 2151.01,-75.74 2154.08,-75.45 2157.18,-75.15"/>
<polygon fill="midnightblue" stroke="midnightblue" points="1372.39,-115.44 1362.51,-119.27 1372.62,-122.44 1372.39,-115.44"/>
</g>
<!-- Node22 -->
<g id="node22" class="node">
<title>Node22</title>
<g id="a_node22"><a xlink:href="canvas_8hpp.html" target="_top" xlink:title="Canvas widget.">
<polygon fill="white" stroke="black" points="2307,-56.5 2307,-75.5 2421,-75.5 2421,-56.5 2307,-56.5"/>
<text text-anchor="middle" x="2364" y="-63.5" font-family="Helvetica,sans-Serif" font-size="10.00">boost/ui/canvas.hpp</text>
</a>
</g>
</g>
<!-- Node2&#45;&gt;Node22 -->
<g id="edge23" class="edge">
<title>Node2&#45;&gt;Node22</title>
<path fill="none" stroke="midnightblue" d="M1372.7,-120C1532.53,-117.16 1949.97,-107.13 2297,-76 2300.16,-75.72 2303.39,-75.39 2306.66,-75.04"/>
<polygon fill="midnightblue" stroke="midnightblue" points="1372.48,-116.5 1362.54,-120.18 1372.6,-123.5 1372.48,-116.5"/>
</g>
<!-- Node23 -->
<g id="node23" class="node">
<title>Node23</title>
<g id="a_node23"><a xlink:href="button_8hpp.html" target="_top" xlink:title="Button widget.">
<polygon fill="white" stroke="black" points="2439.5,-56.5 2439.5,-75.5 2550.5,-75.5 2550.5,-56.5 2439.5,-56.5"/>
<text text-anchor="middle" x="2495" y="-63.5" font-family="Helvetica,sans-Serif" font-size="10.00">boost/ui/button.hpp</text>
</a>
</g>
</g>
<!-- Node2&#45;&gt;Node23 -->
<g id="edge24" class="edge">
<title>Node2&#45;&gt;Node23</title>
<path fill="none" stroke="midnightblue" d="M1372.59,-120.6C1546.71,-119.06 2029.71,-111.64 2430,-76 2433.06,-75.73 2436.2,-75.41 2439.37,-75.07"/>
<polygon fill="midnightblue" stroke="midnightblue" points="1372.53,-117.1 1362.56,-120.68 1372.59,-124.1 1372.53,-117.1"/>
</g>
<!-- Node6 -->
<g id="node6" class="node">
<title>Node6</title>
<g id="a_node6"><a xlink:href="combo__box_8hpp.html" target="_top" xlink:title="Combo box widget.">
<polygon fill="white" stroke="black" points="193,-0.5 193,-19.5 329,-19.5 329,-0.5 193,-0.5"/>
<text text-anchor="middle" x="261" y="-7.5" font-family="Helvetica,sans-Serif" font-size="10.00">boost/ui/combo_box.hpp</text>
</a>
</g>
</g>
<!-- Node5&#45;&gt;Node6 -->
<g id="edge5" class="edge">
<title>Node5&#45;&gt;Node6</title>
<path fill="none" stroke="midnightblue" d="M338.42,-51.59C319.38,-41.61 293.94,-28.27 277.51,-19.65"/>
<polygon fill="midnightblue" stroke="midnightblue" points="336.97,-54.78 347.45,-56.32 340.22,-48.58 336.97,-54.78"/>
</g>
<!-- Node7 -->
<g id="node7" class="node">
<title>Node7</title>
<g id="a_node7"><a xlink:href="choice_8hpp.html" target="_top" xlink:title="Choice widget.">
<polygon fill="white" stroke="black" points="347.5,-0.5 347.5,-19.5 458.5,-19.5 458.5,-0.5 347.5,-0.5"/>
<text text-anchor="middle" x="403" y="-7.5" font-family="Helvetica,sans-Serif" font-size="10.00">boost/ui/choice.hpp</text>
</a>
</g>
</g>
<!-- Node5&#45;&gt;Node7 -->
<g id="edge6" class="edge">
<title>Node5&#45;&gt;Node7</title>
<path fill="none" stroke="midnightblue" d="M376.38,-47.86C383.14,-38.5 391.21,-27.33 396.68,-19.75"/>
<polygon fill="midnightblue" stroke="midnightblue" points="373.46,-45.93 370.44,-56.08 379.13,-50.03 373.46,-45.93"/>
</g>
<!-- Node5&#45;&gt;Node8 -->
<g id="edge7" class="edge">
<title>Node5&#45;&gt;Node8</title>
<path fill="none" stroke="midnightblue" d="M442.12,-56.41C443.42,-56.27 444.72,-56.13 446,-56 599.28,-39.98 781.88,-22.25 860.2,-14.72"/>
<polygon fill="midnightblue" stroke="midnightblue" points="441.58,-52.94 432.01,-57.48 442.32,-59.91 441.58,-52.94"/>
</g>
<!-- Node9&#45;&gt;Node8 -->
<g id="edge9" class="edge">
<title>Node9&#45;&gt;Node8</title>
<path fill="none" stroke="midnightblue" d="M618.84,-54.85C689.88,-43.73 801.51,-26.26 860.11,-17.09"/>
<polygon fill="midnightblue" stroke="midnightblue" points="618,-51.44 608.67,-56.44 619.09,-58.35 618,-51.44"/>
</g>
<!-- Node14&#45;&gt;Node8 -->
<g id="edge15" class="edge">
<title>Node14&#45;&gt;Node8</title>
<path fill="none" stroke="midnightblue" d="M1181.1,-55.03C1109.72,-43.89 996.48,-26.21 937.53,-17.01"/>
<polygon fill="midnightblue" stroke="midnightblue" points="1180.9,-58.54 1191.32,-56.62 1181.98,-51.62 1180.9,-58.54"/>
</g>
<!-- Node24&#45;&gt;Node8 -->
<g id="edge27" class="edge">
<title>Node24&#45;&gt;Node8</title>
<path fill="none" stroke="midnightblue" d="M2651.67,-104.25C2638.96,-88.51 2617.58,-65.93 2593,-56 2513.77,-23.99 1182.61,-13.01 937.59,-11.26"/>
<polygon fill="midnightblue" stroke="midnightblue" points="2648.91,-106.41 2657.8,-112.17 2654.44,-102.12 2648.91,-106.41"/>
</g>
</g>
</svg>
