<?xml version="1.0" encoding="UTF-8" standalone="no"?>
<!DOCTYPE svg PUBLIC "-//W3C//DTD SVG 1.1//EN"
 "http://www.w3.org/Graphics/SVG/1.1/DTD/svg11.dtd">
<!-- Generated by graphviz version 2.43.0 (0)
 -->
<!-- Title: boost/ui/font.hpp Pages: 1 -->
<svg width="389pt" height="196pt"
 viewBox="0.00 0.00 388.50 196.00" xmlns="http://www.w3.org/2000/svg" xmlns:xlink="http://www.w3.org/1999/xlink">
<g id="graph0" class="graph" transform="scale(1 1) rotate(0) translate(4 192)">
<title>boost/ui/font.hpp</title>
<polygon fill="white" stroke="transparent" points="-4,4 -4,-192 384.5,-192 384.5,4 -4,4"/>
<!-- Node1 -->
<g id="node1" class="node">
<title>Node1</title>
<g id="a_node1"><a xlink:title="Font class.">
<polygon fill="#bfbfbf" stroke="black" points="100.5,-168.5 100.5,-187.5 199.5,-187.5 199.5,-168.5 100.5,-168.5"/>
<text text-anchor="middle" x="150" y="-175.5" font-family="Helvetica,sans-Serif" font-size="10.00">boost/ui/font.hpp</text>
</a>
</g>
</g>
<!-- Node2 -->
<g id="node2" class="node">
<title>Node2</title>
<g id="a_node2"><a xlink:href="config_8hpp.html" target="_top" xlink:title="Configuration options.">
<polygon fill="white" stroke="black" points="0,-56.5 0,-75.5 110,-75.5 110,-56.5 0,-56.5"/>
<text text-anchor="middle" x="55" y="-63.5" font-family="Helvetica,sans-Serif" font-size="10.00">boost/ui/config.hpp</text>
</a>
</g>
</g>
<!-- Node1&#45;&gt;Node2 -->
<g id="edge1" class="edge">
<title>Node1&#45;&gt;Node2</title>
<path fill="none" stroke="midnightblue" d="M134.11,-168.37C120.52,-160.36 101.12,-147.38 88,-132 76.09,-118.04 67.08,-99.03 61.51,-85.18"/>
<polygon fill="midnightblue" stroke="midnightblue" points="64.75,-83.87 57.93,-75.76 58.21,-86.35 64.75,-83.87"/>
</g>
<!-- Node4 -->
<g id="node4" class="node">
<title>Node4</title>
<g id="a_node4"><a xlink:href="string_8hpp.html" target="_top" xlink:title="String class and operations.">
<polygon fill="white" stroke="black" points="96.5,-112.5 96.5,-131.5 203.5,-131.5 203.5,-112.5 96.5,-112.5"/>
<text text-anchor="middle" x="150" y="-119.5" font-family="Helvetica,sans-Serif" font-size="10.00">boost/ui/string.hpp</text>
</a>
</g>
</g>
<!-- Node1&#45;&gt;Node4 -->
<g id="edge3" class="edge">
<title>Node1&#45;&gt;Node4</title>
<path fill="none" stroke="midnightblue" d="M150,-168.08C150,-161.01 150,-150.86 150,-141.99"/>
<polygon fill="midnightblue" stroke="midnightblue" points="153.5,-141.75 150,-131.75 146.5,-141.75 153.5,-141.75"/>
</g>
<!-- Node8 -->
<g id="node8" class="node">
<title>Node8</title>
<g id="a_node8"><a xlink:title=" ">
<polygon fill="white" stroke="#bfbfbf" points="221.5,-112.5 221.5,-131.5 380.5,-131.5 380.5,-112.5 221.5,-112.5"/>
<text text-anchor="middle" x="301" y="-119.5" font-family="Helvetica,sans-Serif" font-size="10.00">boost/core/scoped_enum.hpp</text>
</a>
</g>
</g>
<!-- Node1&#45;&gt;Node8 -->
<g id="edge8" class="edge">
<title>Node1&#45;&gt;Node8</title>
<path fill="none" stroke="midnightblue" d="M173.93,-168.44C199.22,-159.4 239.3,-145.06 267.68,-134.92"/>
<polygon fill="midnightblue" stroke="midnightblue" points="268.95,-138.18 277.19,-131.52 266.59,-131.59 268.95,-138.18"/>
</g>
<!-- Node3 -->
<g id="node3" class="node">
<title>Node3</title>
<g id="a_node3"><a xlink:title=" ">
<polygon fill="white" stroke="#bfbfbf" points="6,-0.5 6,-19.5 104,-19.5 104,-0.5 6,-0.5"/>
<text text-anchor="middle" x="55" y="-7.5" font-family="Helvetica,sans-Serif" font-size="10.00">boost/config.hpp</text>
</a>
</g>
</g>
<!-- Node2&#45;&gt;Node3 -->
<g id="edge2" class="edge">
<title>Node2&#45;&gt;Node3</title>
<path fill="none" stroke="midnightblue" d="M55,-56.08C55,-49.01 55,-38.86 55,-29.99"/>
<polygon fill="midnightblue" stroke="midnightblue" points="58.5,-29.75 55,-19.75 51.5,-29.75 58.5,-29.75"/>
</g>
<!-- Node4&#45;&gt;Node2 -->
<g id="edge4" class="edge">
<title>Node4&#45;&gt;Node2</title>
<path fill="none" stroke="midnightblue" d="M134.74,-112.32C119.78,-103.82 96.75,-90.73 79.27,-80.8"/>
<polygon fill="midnightblue" stroke="midnightblue" points="80.65,-77.55 70.23,-75.65 77.19,-83.64 80.65,-77.55"/>
</g>
<!-- Node5 -->
<g id="node5" class="node">
<title>Node5</title>
<g id="a_node5"><a xlink:title=" ">
<polygon fill="white" stroke="#bfbfbf" points="128,-56.5 128,-75.5 172,-75.5 172,-56.5 128,-56.5"/>
<text text-anchor="middle" x="150" y="-63.5" font-family="Helvetica,sans-Serif" font-size="10.00">string</text>
</a>
</g>
</g>
<!-- Node4&#45;&gt;Node5 -->
<g id="edge5" class="edge">
<title>Node4&#45;&gt;Node5</title>
<path fill="none" stroke="midnightblue" d="M150,-112.08C150,-105.01 150,-94.86 150,-85.99"/>
<polygon fill="midnightblue" stroke="midnightblue" points="153.5,-85.75 150,-75.75 146.5,-85.75 153.5,-85.75"/>
</g>
<!-- Node6 -->
<g id="node6" class="node">
<title>Node6</title>
<g id="a_node6"><a xlink:title=" ">
<polygon fill="white" stroke="#bfbfbf" points="190.5,-56.5 190.5,-75.5 273.5,-75.5 273.5,-56.5 190.5,-56.5"/>
<text text-anchor="middle" x="232" y="-63.5" font-family="Helvetica,sans-Serif" font-size="10.00">initializer_list</text>
</a>
</g>
</g>
<!-- Node4&#45;&gt;Node6 -->
<g id="edge6" class="edge">
<title>Node4&#45;&gt;Node6</title>
<path fill="none" stroke="midnightblue" d="M163.17,-112.32C175.85,-103.98 195.23,-91.21 210.21,-81.35"/>
<polygon fill="midnightblue" stroke="midnightblue" points="212.43,-84.08 218.86,-75.65 208.58,-78.23 212.43,-84.08"/>
</g>
<!-- Node7 -->
<g id="node7" class="node">
<title>Node7</title>
<g id="a_node7"><a xlink:title=" ">
<polygon fill="white" stroke="#bfbfbf" points="291.5,-56.5 291.5,-75.5 356.5,-75.5 356.5,-56.5 291.5,-56.5"/>
<text text-anchor="middle" x="324" y="-63.5" font-family="Helvetica,sans-Serif" font-size="10.00">functional</text>
</a>
</g>
</g>
<!-- Node4&#45;&gt;Node7 -->
<g id="edge7" class="edge">
<title>Node4&#45;&gt;Node7</title>
<path fill="none" stroke="midnightblue" d="M177.57,-112.44C207.1,-103.28 254.12,-88.69 286.88,-78.52"/>
<polygon fill="midnightblue" stroke="midnightblue" points="288.04,-81.82 296.56,-75.52 285.97,-75.14 288.04,-81.82"/>
</g>
</g>
</svg>
