<?xml version="1.0" encoding="UTF-8" standalone="no"?>
<!DOCTYPE svg PUBLIC "-//W3C//DTD SVG 1.1//EN"
 "http://www.w3.org/Graphics/SVG/1.1/DTD/svg11.dtd">
<!-- Generated by graphviz version 2.38.0 (20140413.2041)
 -->
<!-- Title: boost/ui/font.hpp Pages: 1 -->
<svg width="2362pt" height="196pt"
 viewBox="0.00 0.00 2361.50 196.00" xmlns="http://www.w3.org/2000/svg" xmlns:xlink="http://www.w3.org/1999/xlink">
<g id="graph0" class="graph" transform="scale(1 1) rotate(0) translate(4 192)">
<title>boost/ui/font.hpp</title>
<polygon fill="white" stroke="none" points="-4,4 -4,-192 2357.5,-192 2357.5,4 -4,4"/>
<!-- Node1 -->
<g id="node1" class="node"><title>Node1</title>
<polygon fill="#bfbfbf" stroke="black" points="2179,-168.5 2179,-187.5 2268,-187.5 2268,-168.5 2179,-168.5"/>
<text text-anchor="middle" x="2223.5" y="-175.5" font-family="Helvetica,sans-Serif" font-size="10.00">boost/ui/font.hpp</text>
</g>
<!-- Node2 -->
<g id="node2" class="node"><title>Node2</title>
<g id="a_node2"><a xlink:href="widget_8hpp.html" target="_top" xlink:title="Widget class. ">
<polygon fill="white" stroke="black" points="1067,-112.5 1067,-131.5 1168,-131.5 1168,-112.5 1067,-112.5"/>
<text text-anchor="middle" x="1117.5" y="-119.5" font-family="Helvetica,sans-Serif" font-size="10.00">boost/ui/widget.hpp</text>
</a>
</g>
</g>
<!-- Node1&#45;&gt;Node2 -->
<g id="edge1" class="edge"><title>Node1&#45;&gt;Node2</title>
<path fill="none" stroke="midnightblue" d="M2168.75,-174.327C1979.02,-165.063 1351.28,-134.414 1168.1,-125.47"/>
<polygon fill="midnightblue" stroke="midnightblue" points="2168.61,-177.824 2178.77,-174.816 2168.96,-170.833 2168.61,-177.824"/>
</g>
<!-- Node8 -->
<g id="node8" class="node"><title>Node8</title>
<g id="a_node8"><a xlink:href="ui_8hpp.html" target="_top" xlink:title="Master Boost.UI file. ">
<polygon fill="white" stroke="black" points="972.5,-0.5 972.5,-19.5 1042.5,-19.5 1042.5,-0.5 972.5,-0.5"/>
<text text-anchor="middle" x="1007.5" y="-7.5" font-family="Helvetica,sans-Serif" font-size="10.00">boost/ui.hpp</text>
</a>
</g>
</g>
<!-- Node1&#45;&gt;Node8 -->
<g id="edge26" class="edge"><title>Node1&#45;&gt;Node8</title>
<path fill="none" stroke="midnightblue" d="M2227.02,-158.173C2230.88,-131.051 2233.16,-81.4549 2204.5,-56 2159.95,-16.4232 1235.27,-11.642 1042.52,-11.075"/>
<polygon fill="midnightblue" stroke="midnightblue" points="2223.53,-157.849 2225.36,-168.285 2230.43,-158.986 2223.53,-157.849"/>
</g>
<!-- Node23 -->
<g id="node23" class="node"><title>Node23</title>
<g id="a_node23"><a xlink:href="painter_8hpp.html" target="_top" xlink:title="Painter class. ">
<polygon fill="white" stroke="black" points="2251.5,-112.5 2251.5,-131.5 2353.5,-131.5 2353.5,-112.5 2251.5,-112.5"/>
<text text-anchor="middle" x="2302.5" y="-119.5" font-family="Helvetica,sans-Serif" font-size="10.00">boost/ui/painter.hpp</text>
</a>
</g>
</g>
<!-- Node1&#45;&gt;Node23 -->
<g id="edge24" class="edge"><title>Node1&#45;&gt;Node23</title>
<path fill="none" stroke="midnightblue" d="M2244.53,-162.622C2258.97,-152.757 2277.64,-139.992 2289.84,-131.655"/>
<polygon fill="midnightblue" stroke="midnightblue" points="2242.47,-159.791 2236.19,-168.324 2246.42,-165.57 2242.47,-159.791"/>
</g>
<!-- Node3 -->
<g id="node3" class="node"><title>Node3</title>
<g id="a_node3"><a xlink:href="web__widget_8hpp.html" target="_top" xlink:title="Web widget. ">
<polygon fill="white" stroke="black" points="0,-56.5 0,-75.5 125,-75.5 125,-56.5 0,-56.5"/>
<text text-anchor="middle" x="62.5" y="-63.5" font-family="Helvetica,sans-Serif" font-size="10.00">boost/ui/web_widget.hpp</text>
</a>
</g>
</g>
<!-- Node2&#45;&gt;Node3 -->
<g id="edge2" class="edge"><title>Node2&#45;&gt;Node3</title>
<path fill="none" stroke="midnightblue" d="M1056.54,-119.875C902.04,-116.662 482.687,-105.685 134.5,-76 131.488,-75.7432 128.407,-75.4554 125.298,-75.1447"/>
<polygon fill="midnightblue" stroke="midnightblue" points="1056.69,-123.379 1066.76,-120.084 1056.84,-116.38 1056.69,-123.379"/>
</g>
<!-- Node4 -->
<g id="node4" class="node"><title>Node4</title>
<g id="a_node4"><a xlink:href="text__box_8hpp.html" target="_top" xlink:title="Text editor widgets. ">
<polygon fill="white" stroke="black" points="143.5,-56.5 143.5,-75.5 253.5,-75.5 253.5,-56.5 143.5,-56.5"/>
<text text-anchor="middle" x="198.5" y="-63.5" font-family="Helvetica,sans-Serif" font-size="10.00">boost/ui/text_box.hpp</text>
</a>
</g>
</g>
<!-- Node2&#45;&gt;Node4 -->
<g id="edge3" class="edge"><title>Node2&#45;&gt;Node4</title>
<path fill="none" stroke="midnightblue" d="M1056.67,-119.618C916.396,-116.034 559.488,-104.643 262.5,-76 259.596,-75.7199 256.622,-75.4039 253.622,-75.0622"/>
<polygon fill="midnightblue" stroke="midnightblue" points="1056.71,-123.12 1066.79,-119.873 1056.88,-116.122 1056.71,-123.12"/>
</g>
<!-- Node5 -->
<g id="node5" class="node"><title>Node5</title>
<g id="a_node5"><a xlink:href="strings__box_8hpp.html" target="_top" xlink:title="Widget with array of strings. ">
<polygon fill="white" stroke="black" points="272,-56.5 272,-75.5 395,-75.5 395,-56.5 272,-56.5"/>
<text text-anchor="middle" x="333.5" y="-63.5" font-family="Helvetica,sans-Serif" font-size="10.00">boost/ui/strings_box.hpp</text>
</a>
</g>
</g>
<!-- Node2&#45;&gt;Node5 -->
<g id="edge4" class="edge"><title>Node2&#45;&gt;Node5</title>
<path fill="none" stroke="midnightblue" d="M1056.47,-118.241C933.757,-112.447 648.466,-97.7273 409.5,-76 404.869,-75.5789 400.083,-75.1047 395.272,-74.5999"/>
<polygon fill="midnightblue" stroke="midnightblue" points="1056.62,-121.752 1066.78,-118.725 1056.95,-114.76 1056.62,-121.752"/>
</g>
<!-- Node2&#45;&gt;Node8 -->
<g id="edge23" class="edge"><title>Node2&#45;&gt;Node8</title>
<path fill="none" stroke="midnightblue" d="M1056.96,-121.565C899.059,-122.409 483.99,-120.348 442.5,-76 436.427,-69.5089 436.469,-62.5301 442.5,-56 478.467,-17.0541 854.252,-11.7893 972.252,-11.0982"/>
<polygon fill="midnightblue" stroke="midnightblue" points="1057,-125.065 1066.98,-121.506 1056.96,-118.065 1057,-125.065"/>
</g>
<!-- Node9 -->
<g id="node9" class="node"><title>Node9</title>
<g id="a_node9"><a xlink:href="slider_8hpp.html" target="_top" xlink:title="Slider widget. ">
<polygon fill="white" stroke="black" points="451.5,-56.5 451.5,-75.5 547.5,-75.5 547.5,-56.5 451.5,-56.5"/>
<text text-anchor="middle" x="499.5" y="-63.5" font-family="Helvetica,sans-Serif" font-size="10.00">boost/ui/slider.hpp</text>
</a>
</g>
</g>
<!-- Node2&#45;&gt;Node9 -->
<g id="edge8" class="edge"><title>Node2&#45;&gt;Node9</title>
<path fill="none" stroke="midnightblue" d="M1056.47,-117.64C953.263,-111.613 737.776,-97.5497 556.5,-76 553.615,-75.657 550.652,-75.2763 547.666,-74.8707"/>
<polygon fill="midnightblue" stroke="midnightblue" points="1056.52,-121.148 1066.7,-118.232 1056.92,-114.16 1056.52,-121.148"/>
</g>
<!-- Node10 -->
<g id="node10" class="node"><title>Node10</title>
<g id="a_node10"><a xlink:href="progress__bar_8hpp.html" target="_top" xlink:title="Progress bar widget. ">
<polygon fill="white" stroke="black" points="566,-56.5 566,-75.5 695,-75.5 695,-56.5 566,-56.5"/>
<text text-anchor="middle" x="630.5" y="-63.5" font-family="Helvetica,sans-Serif" font-size="10.00">boost/ui/progress_bar.hpp</text>
</a>
</g>
</g>
<!-- Node2&#45;&gt;Node10 -->
<g id="edge9" class="edge"><title>Node2&#45;&gt;Node10</title>
<path fill="none" stroke="midnightblue" d="M1056.97,-114.644C976.465,-106.136 829.728,-90.437 704.5,-76 701.414,-75.6443 698.257,-75.2761 695.068,-74.9011"/>
<polygon fill="midnightblue" stroke="midnightblue" points="1056.62,-118.127 1066.93,-115.696 1057.36,-111.165 1056.62,-118.127"/>
</g>
<!-- Node11 -->
<g id="node11" class="node"><title>Node11</title>
<g id="a_node11"><a xlink:href="panel_8hpp.html" target="_top" xlink:title="Panel widget. ">
<polygon fill="white" stroke="black" points="713.5,-56.5 713.5,-75.5 809.5,-75.5 809.5,-56.5 713.5,-56.5"/>
<text text-anchor="middle" x="761.5" y="-63.5" font-family="Helvetica,sans-Serif" font-size="10.00">boost/ui/panel.hpp</text>
</a>
</g>
</g>
<!-- Node2&#45;&gt;Node11 -->
<g id="edge10" class="edge"><title>Node2&#45;&gt;Node11</title>
<path fill="none" stroke="midnightblue" d="M1056.83,-112.001C996.413,-103.007 901.016,-88.7237 818.5,-76 815.629,-75.5572 812.676,-75.0993 809.698,-74.6353"/>
<polygon fill="midnightblue" stroke="midnightblue" points="1056.55,-115.498 1066.96,-113.507 1057.58,-108.574 1056.55,-115.498"/>
</g>
<!-- Node12 -->
<g id="node12" class="node"><title>Node12</title>
<g id="a_node12"><a xlink:href="notebook_8hpp.html" target="_top" xlink:title="Notebook widget. ">
<polygon fill="white" stroke="black" points="828,-56.5 828,-75.5 941,-75.5 941,-56.5 828,-56.5"/>
<text text-anchor="middle" x="884.5" y="-63.5" font-family="Helvetica,sans-Serif" font-size="10.00">boost/ui/notebook.hpp</text>
</a>
</g>
</g>
<!-- Node2&#45;&gt;Node12 -->
<g id="edge11" class="edge"><title>Node2&#45;&gt;Node12</title>
<path fill="none" stroke="midnightblue" d="M1070.7,-110.153C1026.67,-99.95 961.653,-84.8809 921.247,-75.5164"/>
<polygon fill="midnightblue" stroke="midnightblue" points="1070.05,-113.595 1080.58,-112.444 1071.63,-106.776 1070.05,-113.595"/>
</g>
<!-- Node13 -->
<g id="node13" class="node"><title>Node13</title>
<g id="a_node13"><a xlink:href="menu_8hpp.html" target="_top" xlink:title="Menu classes. ">
<polygon fill="white" stroke="black" points="959,-56.5 959,-75.5 1056,-75.5 1056,-56.5 959,-56.5"/>
<text text-anchor="middle" x="1007.5" y="-63.5" font-family="Helvetica,sans-Serif" font-size="10.00">boost/ui/menu.hpp</text>
</a>
</g>
</g>
<!-- Node2&#45;&gt;Node13 -->
<g id="edge12" class="edge"><title>Node2&#45;&gt;Node13</title>
<path fill="none" stroke="midnightblue" d="M1090.74,-107.862C1070.34,-97.8492 1042.83,-84.3458 1025.13,-75.6545"/>
<polygon fill="midnightblue" stroke="midnightblue" points="1089.31,-111.059 1099.83,-112.324 1092.39,-104.775 1089.31,-111.059"/>
</g>
<!-- Node14 -->
<g id="node14" class="node"><title>Node14</title>
<g id="a_node14"><a xlink:href="line_8hpp.html" target="_top" xlink:title="line widget ">
<polygon fill="white" stroke="black" points="1073.5,-56.5 1073.5,-75.5 1161.5,-75.5 1161.5,-56.5 1073.5,-56.5"/>
<text text-anchor="middle" x="1117.5" y="-63.5" font-family="Helvetica,sans-Serif" font-size="10.00">boost/ui/line.hpp</text>
</a>
</g>
</g>
<!-- Node2&#45;&gt;Node14 -->
<g id="edge14" class="edge"><title>Node2&#45;&gt;Node14</title>
<path fill="none" stroke="midnightblue" d="M1117.5,-101.805C1117.5,-92.9102 1117.5,-82.7798 1117.5,-75.7511"/>
<polygon fill="midnightblue" stroke="midnightblue" points="1114,-102.083 1117.5,-112.083 1121,-102.083 1114,-102.083"/>
</g>
<!-- Node15 -->
<g id="node15" class="node"><title>Node15</title>
<g id="a_node15"><a xlink:href="label_8hpp.html" target="_top" xlink:title="Label widget. ">
<polygon fill="white" stroke="black" points="1179,-56.5 1179,-75.5 1272,-75.5 1272,-56.5 1179,-56.5"/>
<text text-anchor="middle" x="1225.5" y="-63.5" font-family="Helvetica,sans-Serif" font-size="10.00">boost/ui/label.hpp</text>
</a>
</g>
</g>
<!-- Node2&#45;&gt;Node15 -->
<g id="edge15" class="edge"><title>Node2&#45;&gt;Node15</title>
<path fill="none" stroke="midnightblue" d="M1144.05,-107.726C1164.05,-97.7271 1190.89,-84.3065 1208.19,-75.6545"/>
<polygon fill="midnightblue" stroke="midnightblue" points="1142.23,-104.721 1134.85,-112.324 1145.36,-110.982 1142.23,-104.721"/>
</g>
<!-- Node16 -->
<g id="node16" class="node"><title>Node16</title>
<g id="a_node16"><a xlink:href="image__widget_8hpp.html" target="_top" xlink:title="Image widget. ">
<polygon fill="white" stroke="black" points="1290,-56.5 1290,-75.5 1423,-75.5 1423,-56.5 1290,-56.5"/>
<text text-anchor="middle" x="1356.5" y="-63.5" font-family="Helvetica,sans-Serif" font-size="10.00">boost/ui/image_widget.hpp</text>
</a>
</g>
</g>
<!-- Node2&#45;&gt;Node16 -->
<g id="edge16" class="edge"><title>Node2&#45;&gt;Node16</title>
<path fill="none" stroke="midnightblue" d="M1165.22,-110.217C1210.39,-100.013 1277.27,-84.9006 1318.81,-75.5164"/>
<polygon fill="midnightblue" stroke="midnightblue" points="1164.35,-106.826 1155.37,-112.444 1165.9,-113.654 1164.35,-106.826"/>
</g>
<!-- Node17 -->
<g id="node17" class="node"><title>Node17</title>
<g id="a_node17"><a xlink:href="hyperlink_8hpp.html" target="_top" xlink:title="Hyperlink widget. ">
<polygon fill="white" stroke="black" points="1441.5,-56.5 1441.5,-75.5 1553.5,-75.5 1553.5,-56.5 1441.5,-56.5"/>
<text text-anchor="middle" x="1497.5" y="-63.5" font-family="Helvetica,sans-Serif" font-size="10.00">boost/ui/hyperlink.hpp</text>
</a>
</g>
</g>
<!-- Node2&#45;&gt;Node17 -->
<g id="edge17" class="edge"><title>Node2&#45;&gt;Node17</title>
<path fill="none" stroke="midnightblue" d="M1178.26,-112.366C1250.76,-102.063 1371,-84.9765 1441.39,-74.9739"/>
<polygon fill="midnightblue" stroke="midnightblue" points="1177.76,-108.901 1168.35,-113.773 1178.75,-115.832 1177.76,-108.901"/>
</g>
<!-- Node18 -->
<g id="node18" class="node"><title>Node18</title>
<g id="a_node18"><a xlink:href="group__box_8hpp.html" target="_top" xlink:title="Group box widget. ">
<polygon fill="white" stroke="black" points="1571.5,-56.5 1571.5,-75.5 1689.5,-75.5 1689.5,-56.5 1571.5,-56.5"/>
<text text-anchor="middle" x="1630.5" y="-63.5" font-family="Helvetica,sans-Serif" font-size="10.00">boost/ui/group_box.hpp</text>
</a>
</g>
</g>
<!-- Node2&#45;&gt;Node18 -->
<g id="edge18" class="edge"><title>Node2&#45;&gt;Node18</title>
<path fill="none" stroke="midnightblue" d="M1178.35,-115.445C1264.11,-107.48 1425.39,-92.0024 1562.5,-76 1565.34,-75.6687 1568.24,-75.3204 1571.18,-74.9612"/>
<polygon fill="midnightblue" stroke="midnightblue" points="1177.91,-111.971 1168.28,-116.379 1178.56,-118.941 1177.91,-111.971"/>
</g>
<!-- Node19 -->
<g id="node19" class="node"><title>Node19</title>
<g id="a_node19"><a xlink:href="datetime_8hpp.html" target="_top" xlink:title="Date and time pickers. ">
<polygon fill="white" stroke="black" points="1707.5,-56.5 1707.5,-75.5 1817.5,-75.5 1817.5,-56.5 1707.5,-56.5"/>
<text text-anchor="middle" x="1762.5" y="-63.5" font-family="Helvetica,sans-Serif" font-size="10.00">boost/ui/datetime.hpp</text>
</a>
</g>
</g>
<!-- Node2&#45;&gt;Node19 -->
<g id="edge19" class="edge"><title>Node2&#45;&gt;Node19</title>
<path fill="none" stroke="midnightblue" d="M1178.29,-117.545C1284.16,-111.247 1509.19,-96.6223 1698.5,-76 1701.4,-75.6841 1704.37,-75.3395 1707.37,-74.9753"/>
<polygon fill="midnightblue" stroke="midnightblue" points="1177.89,-114.062 1168.11,-118.146 1178.3,-121.05 1177.89,-114.062"/>
</g>
<!-- Node20 -->
<g id="node20" class="node"><title>Node20</title>
<g id="a_node20"><a xlink:href="check__box_8hpp.html" target="_top" xlink:title="Check box widget. ">
<polygon fill="white" stroke="black" points="1835.5,-56.5 1835.5,-75.5 1955.5,-75.5 1955.5,-56.5 1835.5,-56.5"/>
<text text-anchor="middle" x="1895.5" y="-63.5" font-family="Helvetica,sans-Serif" font-size="10.00">boost/ui/check_box.hpp</text>
</a>
</g>
</g>
<!-- Node2&#45;&gt;Node20 -->
<g id="edge20" class="edge"><title>Node2&#45;&gt;Node20</title>
<path fill="none" stroke="midnightblue" d="M1178.64,-118.487C1301.57,-113.133 1587.33,-99.1624 1826.5,-76 1829.39,-75.7205 1832.34,-75.4143 1835.32,-75.0889"/>
<polygon fill="midnightblue" stroke="midnightblue" points="1178.15,-115.005 1168.32,-118.933 1178.46,-121.998 1178.15,-115.005"/>
</g>
<!-- Node21 -->
<g id="node21" class="node"><title>Node21</title>
<g id="a_node21"><a xlink:href="canvas_8hpp.html" target="_top" xlink:title="Canvas widget. ">
<polygon fill="white" stroke="black" points="1973.5,-56.5 1973.5,-75.5 2077.5,-75.5 2077.5,-56.5 1973.5,-56.5"/>
<text text-anchor="middle" x="2025.5" y="-63.5" font-family="Helvetica,sans-Serif" font-size="10.00">boost/ui/canvas.hpp</text>
</a>
</g>
</g>
<!-- Node2&#45;&gt;Node21 -->
<g id="edge21" class="edge"><title>Node2&#45;&gt;Node21</title>
<path fill="none" stroke="midnightblue" d="M1178.28,-119.718C1317.62,-116.354 1670.75,-105.409 1964.5,-76 1967.38,-75.7121 1970.32,-75.3848 1973.3,-75.0296"/>
<polygon fill="midnightblue" stroke="midnightblue" points="1178.14,-116.22 1168.22,-119.957 1178.3,-123.218 1178.14,-116.22"/>
</g>
<!-- Node22 -->
<g id="node22" class="node"><title>Node22</title>
<g id="a_node22"><a xlink:href="button_8hpp.html" target="_top" xlink:title="Button widget. ">
<polygon fill="white" stroke="black" points="2095.5,-56.5 2095.5,-75.5 2195.5,-75.5 2195.5,-56.5 2095.5,-56.5"/>
<text text-anchor="middle" x="2145.5" y="-63.5" font-family="Helvetica,sans-Serif" font-size="10.00">boost/ui/button.hpp</text>
</a>
</g>
</g>
<!-- Node2&#45;&gt;Node22 -->
<g id="edge22" class="edge"><title>Node2&#45;&gt;Node22</title>
<path fill="none" stroke="midnightblue" d="M1178.19,-120.392C1331.05,-118.38 1744.11,-109.97 2086.5,-76 2089.39,-75.7136 2092.35,-75.3821 2095.33,-75.0189"/>
<polygon fill="midnightblue" stroke="midnightblue" points="1178.03,-116.894 1168.07,-120.521 1178.12,-123.893 1178.03,-116.894"/>
</g>
<!-- Node6 -->
<g id="node6" class="node"><title>Node6</title>
<g id="a_node6"><a xlink:href="combo__box_8hpp.html" target="_top" xlink:title="Combo box widget. ">
<polygon fill="white" stroke="black" points="207,-0.5 207,-19.5 330,-19.5 330,-0.5 207,-0.5"/>
<text text-anchor="middle" x="268.5" y="-7.5" font-family="Helvetica,sans-Serif" font-size="10.00">boost/ui/combo_box.hpp</text>
</a>
</g>
</g>
<!-- Node5&#45;&gt;Node6 -->
<g id="edge5" class="edge"><title>Node5&#45;&gt;Node6</title>
<path fill="none" stroke="midnightblue" d="M315.227,-49.8197C303.582,-40.1452 288.901,-27.9481 279.133,-19.8339"/>
<polygon fill="midnightblue" stroke="midnightblue" points="313.128,-52.6259 323.057,-56.324 317.601,-47.2416 313.128,-52.6259"/>
</g>
<!-- Node7 -->
<g id="node7" class="node"><title>Node7</title>
<g id="a_node7"><a xlink:href="choice_8hpp.html" target="_top" xlink:title="Choice widget. ">
<polygon fill="white" stroke="black" points="348,-0.5 348,-19.5 449,-19.5 449,-0.5 348,-0.5"/>
<text text-anchor="middle" x="398.5" y="-7.5" font-family="Helvetica,sans-Serif" font-size="10.00">boost/ui/choice.hpp</text>
</a>
</g>
</g>
<!-- Node5&#45;&gt;Node7 -->
<g id="edge6" class="edge"><title>Node5&#45;&gt;Node7</title>
<path fill="none" stroke="midnightblue" d="M351.773,-49.8197C363.418,-40.1452 378.099,-27.9481 387.867,-19.8339"/>
<polygon fill="midnightblue" stroke="midnightblue" points="349.399,-47.2416 343.943,-56.324 353.872,-52.6259 349.399,-47.2416"/>
</g>
<!-- Node5&#45;&gt;Node8 -->
<g id="edge7" class="edge"><title>Node5&#45;&gt;Node8</title>
<path fill="none" stroke="midnightblue" d="M405.561,-56.3884C406.884,-56.2556 408.198,-56.126 409.5,-56 622.975,-35.3375 880.107,-18.7902 972.406,-13.1147"/>
<polygon fill="midnightblue" stroke="midnightblue" points="404.861,-52.9423 395.278,-57.4603 405.587,-59.9045 404.861,-52.9423"/>
</g>
<!-- Node13&#45;&gt;Node8 -->
<g id="edge13" class="edge"><title>Node13&#45;&gt;Node8</title>
<path fill="none" stroke="midnightblue" d="M1007.5,-45.8045C1007.5,-36.9102 1007.5,-26.7798 1007.5,-19.7511"/>
<polygon fill="midnightblue" stroke="midnightblue" points="1004,-46.083 1007.5,-56.083 1011,-46.083 1004,-46.083"/>
</g>
<!-- Node23&#45;&gt;Node8 -->
<g id="edge25" class="edge"><title>Node23&#45;&gt;Node8</title>
<path fill="none" stroke="midnightblue" d="M2291.2,-103.894C2279.75,-88.2337 2260.49,-66.02 2237.5,-56 2125.48,-7.17939 1231.57,-9.67675 1042.54,-10.7616"/>
<polygon fill="midnightblue" stroke="midnightblue" points="2288.41,-106.016 2297,-112.215 2294.15,-102.011 2288.41,-106.016"/>
</g>
</g>
</svg>
