<?xml version="1.0" encoding="UTF-8" standalone="no"?>
<!DOCTYPE svg PUBLIC "-//W3C//DTD SVG 1.1//EN"
 "http://www.w3.org/Graphics/SVG/1.1/DTD/svg11.dtd">
<!-- Generated by graphviz version 2.38.0 (20140413.2041)
 -->
<!-- Title: boost/ui/font.hpp Pages: 1 -->
<svg width="2323pt" height="196pt"
 viewBox="0.00 0.00 2322.50 196.00" xmlns="http://www.w3.org/2000/svg" xmlns:xlink="http://www.w3.org/1999/xlink">
<g id="graph0" class="graph" transform="scale(1 1) rotate(0) translate(4 192)">
<title>boost/ui/font.hpp</title>
<polygon fill="white" stroke="none" points="-4,4 -4,-192 2318.5,-192 2318.5,4 -4,4"/>
<!-- Node1 -->
<g id="node1" class="node"><title>Node1</title>
<polygon fill="#bfbfbf" stroke="black" points="2140,-168.5 2140,-187.5 2229,-187.5 2229,-168.5 2140,-168.5"/>
<text text-anchor="middle" x="2184.5" y="-175.5" font-family="Helvetica,sans-Serif" font-size="10.00">boost/ui/font.hpp</text>
</g>
<!-- Node2 -->
<g id="node2" class="node"><title>Node2</title>
<g id="a_node2"><a xlink:href="widget_8hpp.html" target="_top" xlink:title="Widget class. ">
<polygon fill="white" stroke="black" points="1036,-112.5 1036,-131.5 1137,-131.5 1137,-112.5 1036,-112.5"/>
<text text-anchor="middle" x="1086.5" y="-119.5" font-family="Helvetica,sans-Serif" font-size="10.00">boost/ui/widget.hpp</text>
</a>
</g>
</g>
<!-- Node1&#45;&gt;Node2 -->
<g id="edge1" class="edge"><title>Node1&#45;&gt;Node2</title>
<path fill="none" stroke="midnightblue" d="M2129.51,-174.295C1940.58,-165.004 1319.71,-134.469 1137.32,-125.499"/>
<polygon fill="midnightblue" stroke="midnightblue" points="2129.59,-177.804 2139.75,-174.799 2129.94,-170.812 2129.59,-177.804"/>
</g>
<!-- Node8 -->
<g id="node8" class="node"><title>Node8</title>
<g id="a_node8"><a xlink:href="ui_8hpp.html" target="_top" xlink:title="Master Boost.UI file. ">
<polygon fill="white" stroke="black" points="1328.5,-0.5 1328.5,-19.5 1398.5,-19.5 1398.5,-0.5 1328.5,-0.5"/>
<text text-anchor="middle" x="1363.5" y="-7.5" font-family="Helvetica,sans-Serif" font-size="10.00">boost/ui.hpp</text>
</a>
</g>
</g>
<!-- Node1&#45;&gt;Node8 -->
<g id="edge25" class="edge"><title>Node1&#45;&gt;Node8</title>
<path fill="none" stroke="midnightblue" d="M2187.96,-158.242C2191.74,-131.207 2193.92,-81.7185 2165.5,-56 2136.68,-29.9164 1549.51,-15.1291 1398.61,-11.7502"/>
<polygon fill="midnightblue" stroke="midnightblue" points="2184.47,-157.888 2186.33,-168.319 2191.38,-159.008 2184.47,-157.888"/>
</g>
<!-- Node23 -->
<g id="node23" class="node"><title>Node23</title>
<g id="a_node23"><a xlink:href="painter_8hpp.html" target="_top" xlink:title="Painter class. ">
<polygon fill="white" stroke="black" points="2212.5,-112.5 2212.5,-131.5 2314.5,-131.5 2314.5,-112.5 2212.5,-112.5"/>
<text text-anchor="middle" x="2263.5" y="-119.5" font-family="Helvetica,sans-Serif" font-size="10.00">boost/ui/painter.hpp</text>
</a>
</g>
</g>
<!-- Node1&#45;&gt;Node23 -->
<g id="edge23" class="edge"><title>Node1&#45;&gt;Node23</title>
<path fill="none" stroke="midnightblue" d="M2205.53,-162.622C2219.97,-152.757 2238.64,-139.992 2250.84,-131.655"/>
<polygon fill="midnightblue" stroke="midnightblue" points="2203.47,-159.791 2197.19,-168.324 2207.42,-165.57 2203.47,-159.791"/>
</g>
<!-- Node3 -->
<g id="node3" class="node"><title>Node3</title>
<g id="a_node3"><a xlink:href="webview_8hpp.html" target="_top" xlink:title="WebView widget. ">
<polygon fill="white" stroke="black" points="0,-56.5 0,-75.5 111,-75.5 111,-56.5 0,-56.5"/>
<text text-anchor="middle" x="55.5" y="-63.5" font-family="Helvetica,sans-Serif" font-size="10.00">boost/ui/webview.hpp</text>
</a>
</g>
</g>
<!-- Node2&#45;&gt;Node3 -->
<g id="edge2" class="edge"><title>Node2&#45;&gt;Node3</title>
<path fill="none" stroke="midnightblue" d="M1025.68,-120.137C872.974,-117.542 461.172,-107.904 119.5,-76 116.819,-75.7496 114.078,-75.4671 111.312,-75.1607"/>
<polygon fill="midnightblue" stroke="midnightblue" points="1025.74,-123.638 1035.79,-120.305 1025.85,-116.639 1025.74,-123.638"/>
</g>
<!-- Node4 -->
<g id="node4" class="node"><title>Node4</title>
<g id="a_node4"><a xlink:href="textbox_8hpp.html" target="_top" xlink:title="Text editor widgets. ">
<polygon fill="white" stroke="black" points="129,-56.5 129,-75.5 234,-75.5 234,-56.5 129,-56.5"/>
<text text-anchor="middle" x="181.5" y="-63.5" font-family="Helvetica,sans-Serif" font-size="10.00">boost/ui/textbox.hpp</text>
</a>
</g>
</g>
<!-- Node2&#45;&gt;Node4 -->
<g id="edge3" class="edge"><title>Node2&#45;&gt;Node4</title>
<path fill="none" stroke="midnightblue" d="M1025.5,-119.643C886.482,-116.135 535.546,-104.931 243.5,-76 240.469,-75.6998 237.36,-75.3576 234.225,-74.9861"/>
<polygon fill="midnightblue" stroke="midnightblue" points="1025.46,-123.143 1035.54,-119.892 1025.63,-116.145 1025.46,-123.143"/>
</g>
<!-- Node5 -->
<g id="node5" class="node"><title>Node5</title>
<g id="a_node5"><a xlink:href="stringsbox_8hpp.html" target="_top" xlink:title="Widget with array of strings. ">
<polygon fill="white" stroke="black" points="252.5,-56.5 252.5,-75.5 370.5,-75.5 370.5,-56.5 252.5,-56.5"/>
<text text-anchor="middle" x="311.5" y="-63.5" font-family="Helvetica,sans-Serif" font-size="10.00">boost/ui/stringsbox.hpp</text>
</a>
</g>
</g>
<!-- Node2&#45;&gt;Node5 -->
<g id="edge4" class="edge"><title>Node2&#45;&gt;Node5</title>
<path fill="none" stroke="midnightblue" d="M1025.52,-118.297C903.585,-112.625 621.095,-98.1486 384.5,-76 380.05,-75.5834 375.452,-75.1125 370.831,-74.61"/>
<polygon fill="midnightblue" stroke="midnightblue" points="1025.61,-121.805 1035.77,-118.77 1025.94,-114.812 1025.61,-121.805"/>
</g>
<!-- Node2&#45;&gt;Node8 -->
<g id="edge22" class="edge"><title>Node2&#45;&gt;Node8</title>
<path fill="none" stroke="midnightblue" d="M1025.47,-121.528C868.205,-122.253 458.52,-119.872 417.5,-76 411.429,-69.5071 411.366,-62.433 417.5,-56 449.519,-22.4214 1160.71,-13.0709 1328.34,-11.3299"/>
<polygon fill="midnightblue" stroke="midnightblue" points="1025.92,-125.026 1035.9,-121.474 1025.89,-118.026 1025.92,-125.026"/>
</g>
<!-- Node9 -->
<g id="node9" class="node"><title>Node9</title>
<g id="a_node9"><a xlink:href="slider_8hpp.html" target="_top" xlink:title="Slider widget. ">
<polygon fill="white" stroke="black" points="426.5,-56.5 426.5,-75.5 522.5,-75.5 522.5,-56.5 426.5,-56.5"/>
<text text-anchor="middle" x="474.5" y="-63.5" font-family="Helvetica,sans-Serif" font-size="10.00">boost/ui/slider.hpp</text>
</a>
</g>
</g>
<!-- Node2&#45;&gt;Node9 -->
<g id="edge8" class="edge"><title>Node2&#45;&gt;Node9</title>
<path fill="none" stroke="midnightblue" d="M1025.73,-117.583C923.47,-111.495 710.609,-97.3702 531.5,-76 528.615,-75.6558 525.652,-75.2741 522.666,-74.8678"/>
<polygon fill="midnightblue" stroke="midnightblue" points="1025.68,-121.086 1035.87,-118.181 1026.09,-114.098 1025.68,-121.086"/>
</g>
<!-- Node10 -->
<g id="node10" class="node"><title>Node10</title>
<g id="a_node10"><a xlink:href="progressbar_8hpp.html" target="_top" xlink:title="Progress bar widget. ">
<polygon fill="white" stroke="black" points="540.5,-56.5 540.5,-75.5 664.5,-75.5 664.5,-56.5 540.5,-56.5"/>
<text text-anchor="middle" x="602.5" y="-63.5" font-family="Helvetica,sans-Serif" font-size="10.00">boost/ui/progressbar.hpp</text>
</a>
</g>
</g>
<!-- Node2&#45;&gt;Node10 -->
<g id="edge9" class="edge"><title>Node2&#45;&gt;Node10</title>
<path fill="none" stroke="midnightblue" d="M1025.96,-114.74C945.442,-106.337 798.691,-90.7539 673.5,-76 670.662,-75.6655 667.761,-75.3185 664.831,-74.9639"/>
<polygon fill="midnightblue" stroke="midnightblue" points="1025.61,-118.223 1035.92,-115.778 1026.34,-111.26 1025.61,-118.223"/>
</g>
<!-- Node11 -->
<g id="node11" class="node"><title>Node11</title>
<g id="a_node11"><a xlink:href="panel_8hpp.html" target="_top" xlink:title="Panel widget. ">
<polygon fill="white" stroke="black" points="682.5,-56.5 682.5,-75.5 778.5,-75.5 778.5,-56.5 682.5,-56.5"/>
<text text-anchor="middle" x="730.5" y="-63.5" font-family="Helvetica,sans-Serif" font-size="10.00">boost/ui/panel.hpp</text>
</a>
</g>
</g>
<!-- Node2&#45;&gt;Node11 -->
<g id="edge10" class="edge"><title>Node2&#45;&gt;Node11</title>
<path fill="none" stroke="midnightblue" d="M1025.83,-112.001C965.413,-103.007 870.016,-88.7237 787.5,-76 784.629,-75.5572 781.676,-75.0993 778.698,-74.6353"/>
<polygon fill="midnightblue" stroke="midnightblue" points="1025.55,-115.498 1035.96,-113.507 1026.58,-108.574 1025.55,-115.498"/>
</g>
<!-- Node12 -->
<g id="node12" class="node"><title>Node12</title>
<g id="a_node12"><a xlink:href="notebook_8hpp.html" target="_top" xlink:title="Notebook widget. ">
<polygon fill="white" stroke="black" points="797,-56.5 797,-75.5 910,-75.5 910,-56.5 797,-56.5"/>
<text text-anchor="middle" x="853.5" y="-63.5" font-family="Helvetica,sans-Serif" font-size="10.00">boost/ui/notebook.hpp</text>
</a>
</g>
</g>
<!-- Node2&#45;&gt;Node12 -->
<g id="edge11" class="edge"><title>Node2&#45;&gt;Node12</title>
<path fill="none" stroke="midnightblue" d="M1039.7,-110.153C995.673,-99.95 930.653,-84.8809 890.247,-75.5164"/>
<polygon fill="midnightblue" stroke="midnightblue" points="1039.05,-113.595 1049.58,-112.444 1040.63,-106.776 1039.05,-113.595"/>
</g>
<!-- Node13 -->
<g id="node13" class="node"><title>Node13</title>
<g id="a_node13"><a xlink:href="menu_8hpp.html" target="_top" xlink:title="Menu classes. ">
<polygon fill="white" stroke="black" points="928,-56.5 928,-75.5 1025,-75.5 1025,-56.5 928,-56.5"/>
<text text-anchor="middle" x="976.5" y="-63.5" font-family="Helvetica,sans-Serif" font-size="10.00">boost/ui/menu.hpp</text>
</a>
</g>
</g>
<!-- Node2&#45;&gt;Node13 -->
<g id="edge12" class="edge"><title>Node2&#45;&gt;Node13</title>
<path fill="none" stroke="midnightblue" d="M1059.74,-107.862C1039.34,-97.8492 1011.83,-84.3458 994.13,-75.6545"/>
<polygon fill="midnightblue" stroke="midnightblue" points="1058.31,-111.059 1068.83,-112.324 1061.39,-104.775 1058.31,-111.059"/>
</g>
<!-- Node14 -->
<g id="node14" class="node"><title>Node14</title>
<g id="a_node14"><a xlink:href="line_8hpp.html" target="_top" xlink:title="line widget ">
<polygon fill="white" stroke="black" points="1042.5,-56.5 1042.5,-75.5 1130.5,-75.5 1130.5,-56.5 1042.5,-56.5"/>
<text text-anchor="middle" x="1086.5" y="-63.5" font-family="Helvetica,sans-Serif" font-size="10.00">boost/ui/line.hpp</text>
</a>
</g>
</g>
<!-- Node2&#45;&gt;Node14 -->
<g id="edge13" class="edge"><title>Node2&#45;&gt;Node14</title>
<path fill="none" stroke="midnightblue" d="M1086.5,-101.805C1086.5,-92.9102 1086.5,-82.7798 1086.5,-75.7511"/>
<polygon fill="midnightblue" stroke="midnightblue" points="1083,-102.083 1086.5,-112.083 1090,-102.083 1083,-102.083"/>
</g>
<!-- Node15 -->
<g id="node15" class="node"><title>Node15</title>
<g id="a_node15"><a xlink:href="label_8hpp.html" target="_top" xlink:title="Label widget. ">
<polygon fill="white" stroke="black" points="1148,-56.5 1148,-75.5 1241,-75.5 1241,-56.5 1148,-56.5"/>
<text text-anchor="middle" x="1194.5" y="-63.5" font-family="Helvetica,sans-Serif" font-size="10.00">boost/ui/label.hpp</text>
</a>
</g>
</g>
<!-- Node2&#45;&gt;Node15 -->
<g id="edge14" class="edge"><title>Node2&#45;&gt;Node15</title>
<path fill="none" stroke="midnightblue" d="M1113.05,-107.726C1133.05,-97.7271 1159.89,-84.3065 1177.19,-75.6545"/>
<polygon fill="midnightblue" stroke="midnightblue" points="1111.23,-104.721 1103.85,-112.324 1114.36,-110.982 1111.23,-104.721"/>
</g>
<!-- Node16 -->
<g id="node16" class="node"><title>Node16</title>
<g id="a_node16"><a xlink:href="image__widget_8hpp.html" target="_top" xlink:title="Image widget. ">
<polygon fill="white" stroke="black" points="1259,-56.5 1259,-75.5 1392,-75.5 1392,-56.5 1259,-56.5"/>
<text text-anchor="middle" x="1325.5" y="-63.5" font-family="Helvetica,sans-Serif" font-size="10.00">boost/ui/image_widget.hpp</text>
</a>
</g>
</g>
<!-- Node2&#45;&gt;Node16 -->
<g id="edge15" class="edge"><title>Node2&#45;&gt;Node16</title>
<path fill="none" stroke="midnightblue" d="M1134.22,-110.217C1179.39,-100.013 1246.27,-84.9006 1287.81,-75.5164"/>
<polygon fill="midnightblue" stroke="midnightblue" points="1133.35,-106.826 1124.37,-112.444 1134.9,-113.654 1133.35,-106.826"/>
</g>
<!-- Node17 -->
<g id="node17" class="node"><title>Node17</title>
<g id="a_node17"><a xlink:href="hyperlink_8hpp.html" target="_top" xlink:title="Hyperlink widget. ">
<polygon fill="white" stroke="black" points="1410.5,-56.5 1410.5,-75.5 1522.5,-75.5 1522.5,-56.5 1410.5,-56.5"/>
<text text-anchor="middle" x="1466.5" y="-63.5" font-family="Helvetica,sans-Serif" font-size="10.00">boost/ui/hyperlink.hpp</text>
</a>
</g>
</g>
<!-- Node2&#45;&gt;Node17 -->
<g id="edge16" class="edge"><title>Node2&#45;&gt;Node17</title>
<path fill="none" stroke="midnightblue" d="M1147.26,-112.366C1219.76,-102.063 1340,-84.9765 1410.39,-74.9739"/>
<polygon fill="midnightblue" stroke="midnightblue" points="1146.76,-108.901 1137.35,-113.773 1147.75,-115.832 1146.76,-108.901"/>
</g>
<!-- Node18 -->
<g id="node18" class="node"><title>Node18</title>
<g id="a_node18"><a xlink:href="groupbox_8hpp.html" target="_top" xlink:title="Group box widget. ">
<polygon fill="white" stroke="black" points="1541,-56.5 1541,-75.5 1654,-75.5 1654,-56.5 1541,-56.5"/>
<text text-anchor="middle" x="1597.5" y="-63.5" font-family="Helvetica,sans-Serif" font-size="10.00">boost/ui/groupbox.hpp</text>
</a>
</g>
</g>
<!-- Node2&#45;&gt;Node18 -->
<g id="edge17" class="edge"><title>Node2&#45;&gt;Node18</title>
<path fill="none" stroke="midnightblue" d="M1147.36,-115.521C1233.13,-107.645 1394.42,-92.2724 1531.5,-76 1534.6,-75.6319 1537.78,-75.2414 1540.99,-74.8372"/>
<polygon fill="midnightblue" stroke="midnightblue" points="1146.92,-112.046 1137.28,-116.443 1147.56,-119.017 1146.92,-112.046"/>
</g>
<!-- Node19 -->
<g id="node19" class="node"><title>Node19</title>
<g id="a_node19"><a xlink:href="datetime_8hpp.html" target="_top" xlink:title="Date and time pickers. ">
<polygon fill="white" stroke="black" points="1672.5,-56.5 1672.5,-75.5 1782.5,-75.5 1782.5,-56.5 1672.5,-56.5"/>
<text text-anchor="middle" x="1727.5" y="-63.5" font-family="Helvetica,sans-Serif" font-size="10.00">boost/ui/datetime.hpp</text>
</a>
</g>
</g>
<!-- Node2&#45;&gt;Node19 -->
<g id="edge18" class="edge"><title>Node2&#45;&gt;Node19</title>
<path fill="none" stroke="midnightblue" d="M1147.16,-117.454C1252.29,-111.043 1475.03,-96.2834 1662.5,-76 1665.67,-75.6569 1668.93,-75.2811 1672.21,-74.884"/>
<polygon fill="midnightblue" stroke="midnightblue" points="1146.83,-113.968 1137.06,-118.067 1147.25,-120.955 1146.83,-113.968"/>
</g>
<!-- Node20 -->
<g id="node20" class="node"><title>Node20</title>
<g id="a_node20"><a xlink:href="checkbox_8hpp.html" target="_top" xlink:title="Checkbox widget. ">
<polygon fill="white" stroke="black" points="1801,-56.5 1801,-75.5 1916,-75.5 1916,-56.5 1801,-56.5"/>
<text text-anchor="middle" x="1858.5" y="-63.5" font-family="Helvetica,sans-Serif" font-size="10.00">boost/ui/checkbox.hpp</text>
</a>
</g>
</g>
<!-- Node2&#45;&gt;Node20 -->
<g id="edge19" class="edge"><title>Node2&#45;&gt;Node20</title>
<path fill="none" stroke="midnightblue" d="M1147.31,-118.55C1269.55,-113.308 1553.72,-99.5298 1791.5,-76 1794.54,-75.6995 1797.65,-75.3672 1800.79,-75.0127"/>
<polygon fill="midnightblue" stroke="midnightblue" points="1146.88,-115.065 1137.04,-118.986 1147.17,-122.058 1146.88,-115.065"/>
</g>
<!-- Node21 -->
<g id="node21" class="node"><title>Node21</title>
<g id="a_node21"><a xlink:href="canvas_8hpp.html" target="_top" xlink:title="Canvas widget. ">
<polygon fill="white" stroke="black" points="1934.5,-56.5 1934.5,-75.5 2038.5,-75.5 2038.5,-56.5 1934.5,-56.5"/>
<text text-anchor="middle" x="1986.5" y="-63.5" font-family="Helvetica,sans-Serif" font-size="10.00">boost/ui/canvas.hpp</text>
</a>
</g>
</g>
<!-- Node2&#45;&gt;Node21 -->
<g id="edge20" class="edge"><title>Node2&#45;&gt;Node21</title>
<path fill="none" stroke="midnightblue" d="M1147.55,-119.615C1286.03,-116.058 1634.48,-104.778 1924.5,-76 1927.75,-75.6778 1931.08,-75.3075 1934.45,-74.9049"/>
<polygon fill="midnightblue" stroke="midnightblue" points="1147.07,-116.126 1137.16,-119.877 1147.24,-123.123 1147.07,-116.126"/>
</g>
<!-- Node22 -->
<g id="node22" class="node"><title>Node22</title>
<g id="a_node22"><a xlink:href="button_8hpp.html" target="_top" xlink:title="Button widget. ">
<polygon fill="white" stroke="black" points="2056.5,-56.5 2056.5,-75.5 2156.5,-75.5 2156.5,-56.5 2056.5,-56.5"/>
<text text-anchor="middle" x="2106.5" y="-63.5" font-family="Helvetica,sans-Serif" font-size="10.00">boost/ui/button.hpp</text>
</a>
</g>
</g>
<!-- Node2&#45;&gt;Node22 -->
<g id="edge21" class="edge"><title>Node2&#45;&gt;Node22</title>
<path fill="none" stroke="midnightblue" d="M1147.24,-120.358C1299.27,-118.273 1708.34,-109.715 2047.5,-76 2050.39,-75.713 2053.35,-75.3811 2056.33,-75.0176"/>
<polygon fill="midnightblue" stroke="midnightblue" points="1147.12,-116.859 1137.17,-120.492 1147.22,-123.859 1147.12,-116.859"/>
</g>
<!-- Node6 -->
<g id="node6" class="node"><title>Node6</title>
<g id="a_node6"><a xlink:href="combobox_8hpp.html" target="_top" xlink:title="Combobox widget. ">
<polygon fill="white" stroke="black" points="188.5,-0.5 188.5,-19.5 306.5,-19.5 306.5,-0.5 188.5,-0.5"/>
<text text-anchor="middle" x="247.5" y="-7.5" font-family="Helvetica,sans-Serif" font-size="10.00">boost/ui/combobox.hpp</text>
</a>
</g>
</g>
<!-- Node5&#45;&gt;Node6 -->
<g id="edge5" class="edge"><title>Node5&#45;&gt;Node6</title>
<path fill="none" stroke="midnightblue" d="M293.509,-49.8197C282.042,-40.1452 267.587,-27.9481 257.97,-19.8339"/>
<polygon fill="midnightblue" stroke="midnightblue" points="291.317,-52.5502 301.217,-56.324 295.831,-47.2002 291.317,-52.5502"/>
</g>
<!-- Node7 -->
<g id="node7" class="node"><title>Node7</title>
<g id="a_node7"><a xlink:href="choice_8hpp.html" target="_top" xlink:title="Choice widget. ">
<polygon fill="white" stroke="black" points="325,-0.5 325,-19.5 426,-19.5 426,-0.5 325,-0.5"/>
<text text-anchor="middle" x="375.5" y="-7.5" font-family="Helvetica,sans-Serif" font-size="10.00">boost/ui/choice.hpp</text>
</a>
</g>
</g>
<!-- Node5&#45;&gt;Node7 -->
<g id="edge6" class="edge"><title>Node5&#45;&gt;Node7</title>
<path fill="none" stroke="midnightblue" d="M329.491,-49.8197C340.958,-40.1452 355.413,-27.9481 365.03,-19.8339"/>
<polygon fill="midnightblue" stroke="midnightblue" points="327.169,-47.2002 321.783,-56.324 331.683,-52.5502 327.169,-47.2002"/>
</g>
<!-- Node5&#45;&gt;Node8 -->
<g id="edge7" class="edge"><title>Node5&#45;&gt;Node8</title>
<path fill="none" stroke="midnightblue" d="M381.134,-56.2941C382.264,-56.1922 383.387,-56.0941 384.5,-56 752.827,-24.876 1201.06,-14.1697 1328.32,-11.6416"/>
<polygon fill="midnightblue" stroke="midnightblue" points="380.436,-52.8456 370.823,-57.3001 381.115,-59.8125 380.436,-52.8456"/>
</g>
<!-- Node23&#45;&gt;Node8 -->
<g id="edge24" class="edge"><title>Node23&#45;&gt;Node8</title>
<path fill="none" stroke="midnightblue" d="M2252.16,-103.982C2240.68,-88.3867 2221.4,-66.2181 2198.5,-56 2124.71,-23.0813 1547.79,-13.3853 1398.61,-11.4166"/>
<polygon fill="midnightblue" stroke="midnightblue" points="2249.36,-106.096 2257.98,-112.265 2255.09,-102.071 2249.36,-106.096"/>
</g>
</g>
</svg>
