<?xml version="1.0" encoding="UTF-8" standalone="no"?>
<!DOCTYPE svg PUBLIC "-//W3C//DTD SVG 1.1//EN"
 "http://www.w3.org/Graphics/SVG/1.1/DTD/svg11.dtd">
<!-- Generated by graphviz version 2.43.0 (0)
 -->
<!-- Title: boost/ui/frame.hpp Pages: 1 -->
<svg width="6445pt" height="274pt"
 viewBox="0.00 0.00 6444.70 274.00" xmlns="http://www.w3.org/2000/svg" xmlns:xlink="http://www.w3.org/1999/xlink">
<g id="graph0" class="graph" transform="scale(1 1) rotate(0) translate(4 270)">
<title>boost/ui/frame.hpp</title>
<polygon fill="white" stroke="transparent" points="-4,4 -4,-270 6440.7,-270 6440.7,4 -4,4"/>
<!-- Node1 -->
<g id="node1" class="node">
<title>Node1</title>
<g id="a_node1"><a xlink:title="Frame widget.">
<polygon fill="#bfbfbf" stroke="black" points="418.7,-246.5 418.7,-265.5 527.7,-265.5 527.7,-246.5 418.7,-246.5"/>
<text text-anchor="middle" x="473.2" y="-253.5" font-family="Helvetica,sans-Serif" font-size="10.00">boost/ui/frame.hpp</text>
</a>
</g>
</g>
<!-- Node2 -->
<g id="node2" class="node">
<title>Node2</title>
<g id="a_node2"><a xlink:href="config_8hpp.html" target="_top" xlink:title="Configuration options.">
<polygon fill="white" stroke="black" points="41.2,-62 41.2,-81 151.2,-81 151.2,-62 41.2,-62"/>
<text text-anchor="middle" x="96.2" y="-69" font-family="Helvetica,sans-Serif" font-size="10.00">boost/ui/config.hpp</text>
</a>
</g>
</g>
<!-- Node1&#45;&gt;Node2 -->
<g id="edge1" class="edge">
<title>Node1&#45;&gt;Node2</title>
<path fill="none" stroke="midnightblue" d="M418.63,-252.73C306.89,-247.61 60.02,-233.75 30.2,-210 -0.76,-185.35 -8.38,-157.4 11.2,-123 21.37,-105.13 40.64,-92.92 58.26,-84.99"/>
<polygon fill="midnightblue" stroke="midnightblue" points="59.93,-88.09 67.81,-81.02 57.24,-81.63 59.93,-88.09"/>
</g>
<!-- Node4 -->
<g id="node4" class="node">
<title>Node4</title>
<g id="a_node4"><a xlink:href="window_8hpp.html" target="_top" xlink:title="Window class.">
<polygon fill="white" stroke="red" points="3058.2,-190.5 3058.2,-209.5 3174.2,-209.5 3174.2,-190.5 3058.2,-190.5"/>
<text text-anchor="middle" x="3116.2" y="-197.5" font-family="Helvetica,sans-Serif" font-size="10.00">boost/ui/window.hpp</text>
</a>
</g>
</g>
<!-- Node1&#45;&gt;Node4 -->
<g id="edge3" class="edge">
<title>Node1&#45;&gt;Node4</title>
<path fill="none" stroke="midnightblue" d="M527.79,-253.88C865.99,-246.97 2672.91,-210.06 3047.99,-202.39"/>
<polygon fill="midnightblue" stroke="midnightblue" points="3048.22,-205.89 3058.15,-202.19 3048.08,-198.89 3048.22,-205.89"/>
</g>
<!-- Node28 -->
<g id="node13" class="node">
<title>Node28</title>
<g id="a_node13"><a xlink:title=" ">
<polygon fill="white" stroke="#bfbfbf" points="351.2,-56.5 351.2,-86.5 473.2,-86.5 473.2,-56.5 351.2,-56.5"/>
<text text-anchor="start" x="359.2" y="-74.5" font-family="Helvetica,sans-Serif" font-size="10.00">boost/ui/detail/shared</text>
<text text-anchor="middle" x="412.2" y="-63.5" font-family="Helvetica,sans-Serif" font-size="10.00">_count.hpp</text>
</a>
</g>
</g>
<!-- Node1&#45;&gt;Node28 -->
<g id="edge60" class="edge">
<title>Node1&#45;&gt;Node28</title>
<path fill="none" stroke="midnightblue" d="M528.07,-254.13C809,-249.66 2114.62,-228.79 3183.2,-210 3518.51,-204.1 6436.3,-361.17 6200.2,-123 6186.98,-109.67 1147.48,-77.17 483.98,-72.95"/>
<polygon fill="midnightblue" stroke="midnightblue" points="483.64,-69.45 473.62,-72.89 483.6,-76.45 483.64,-69.45"/>
</g>
<!-- Node29 -->
<g id="node14" class="node">
<title>Node29</title>
<g id="a_node14"><a xlink:title=" ">
<polygon fill="white" stroke="#bfbfbf" points="2684.2,-62 2684.2,-81 2822.2,-81 2822.2,-62 2684.2,-62"/>
<text text-anchor="middle" x="2753.2" y="-69" font-family="Helvetica,sans-Serif" font-size="10.00">boost/ui/detail/event.hpp</text>
</a>
</g>
</g>
<!-- Node1&#45;&gt;Node29 -->
<g id="edge61" class="edge">
<title>Node1&#45;&gt;Node29</title>
<path fill="none" stroke="midnightblue" d="M528.1,-255.11C1109.53,-256.19 6115.82,-262.26 6220.2,-154 6229.76,-144.08 6229.87,-132.81 6220.2,-123 6189.46,-91.81 3348.21,-75.59 2832.88,-72.9"/>
<polygon fill="midnightblue" stroke="midnightblue" points="2832.59,-69.4 2822.57,-72.85 2832.56,-76.4 2832.59,-69.4"/>
</g>
<!-- Node30 -->
<g id="node15" class="node">
<title>Node30</title>
<g id="a_node15"><a xlink:title=" ">
<polygon fill="white" stroke="#bfbfbf" points="418.2,-129 418.2,-148 528.2,-148 528.2,-129 418.2,-129"/>
<text text-anchor="middle" x="473.2" y="-136" font-family="Helvetica,sans-Serif" font-size="10.00">boost/ui/config.hpp</text>
</a>
</g>
</g>
<!-- Node1&#45;&gt;Node30 -->
<g id="edge52" class="edge">
<title>Node1&#45;&gt;Node30</title>
<path fill="none" stroke="midnightblue" d="M473.2,-246.32C473.2,-227.76 473.2,-183.84 473.2,-158.47"/>
<polygon fill="midnightblue" stroke="midnightblue" points="476.7,-158.28 473.2,-148.28 469.7,-158.28 476.7,-158.28"/>
</g>
<!-- Node350 -->
<g id="node47" class="node">
<title>Node350</title>
<g id="a_node47"><a xlink:title=" ">
<polygon fill="white" stroke="#bfbfbf" points="270.2,-129 270.2,-148 400.2,-148 400.2,-129 270.2,-129"/>
<text text-anchor="middle" x="335.2" y="-136" font-family="Helvetica,sans-Serif" font-size="10.00">boost/noncopyable.hpp</text>
</a>
</g>
</g>
<!-- Node1&#45;&gt;Node350 -->
<g id="edge62" class="edge">
<title>Node1&#45;&gt;Node350</title>
<path fill="none" stroke="midnightblue" d="M462.83,-246.32C439.55,-226.84 382.9,-179.42 353.53,-154.84"/>
<polygon fill="midnightblue" stroke="midnightblue" points="355.61,-152.02 345.69,-148.28 351.11,-157.38 355.61,-152.02"/>
</g>
<!-- Node1737 -->
<g id="node48" class="node">
<title>Node1737</title>
<g id="a_node48"><a xlink:title=" ">
<polygon fill="white" stroke="#bfbfbf" points="6323.7,-190.5 6323.7,-209.5 6436.7,-209.5 6436.7,-190.5 6323.7,-190.5"/>
<text text-anchor="middle" x="6380.2" y="-197.5" font-family="Helvetica,sans-Serif" font-size="10.00">boost/ui/widget.hpp</text>
</a>
</g>
</g>
<!-- Node1&#45;&gt;Node1737 -->
<g id="edge53" class="edge">
<title>Node1&#45;&gt;Node1737</title>
<path fill="none" stroke="midnightblue" d="M528.11,-254.97C1084.9,-254.65 5701.36,-250.72 6309.2,-210 6310.67,-209.9 6312.16,-209.79 6313.66,-209.67"/>
<polygon fill="midnightblue" stroke="midnightblue" points="6314.03,-213.16 6323.68,-208.78 6313.4,-206.18 6314.03,-213.16"/>
</g>
<!-- Node1738 -->
<g id="node49" class="node">
<title>Node1738</title>
<g id="a_node49"><a xlink:href="menu_8hpp.html" target="_top" xlink:title="Menu classes.">
<polygon fill="white" stroke="black" points="188.7,-190.5 188.7,-209.5 295.7,-209.5 295.7,-190.5 188.7,-190.5"/>
<text text-anchor="middle" x="242.2" y="-197.5" font-family="Helvetica,sans-Serif" font-size="10.00">boost/ui/menu.hpp</text>
</a>
</g>
</g>
<!-- Node1&#45;&gt;Node1738 -->
<g id="edge54" class="edge">
<title>Node1&#45;&gt;Node1738</title>
<path fill="none" stroke="midnightblue" d="M436.6,-246.44C396.47,-237.06 332,-221.99 288.41,-211.8"/>
<polygon fill="midnightblue" stroke="midnightblue" points="289.16,-208.38 278.63,-209.52 287.57,-215.2 289.16,-208.38"/>
</g>
<!-- Node1739 -->
<g id="node50" class="node">
<title>Node1739</title>
<g id="a_node50"><a xlink:href="status__bar_8hpp.html" target="_top" xlink:title="Status bar class.">
<polygon fill="white" stroke="black" points="39.7,-190.5 39.7,-209.5 170.7,-209.5 170.7,-190.5 39.7,-190.5"/>
<text text-anchor="middle" x="105.2" y="-197.5" font-family="Helvetica,sans-Serif" font-size="10.00">boost/ui/status_bar.hpp</text>
</a>
</g>
</g>
<!-- Node1&#45;&gt;Node1739 -->
<g id="edge63" class="edge">
<title>Node1&#45;&gt;Node1739</title>
<path fill="none" stroke="midnightblue" d="M418.5,-246.97C353.24,-237.4 244.08,-221.38 173.38,-211"/>
<polygon fill="midnightblue" stroke="midnightblue" points="173.64,-207.51 163.23,-209.52 172.62,-214.43 173.64,-207.51"/>
</g>
<!-- Node3 -->
<g id="node3" class="node">
<title>Node3</title>
<g id="a_node3"><a xlink:title=" ">
<polygon fill="white" stroke="#bfbfbf" points="3097.2,-0.5 3097.2,-19.5 3195.2,-19.5 3195.2,-0.5 3097.2,-0.5"/>
<text text-anchor="middle" x="3146.2" y="-7.5" font-family="Helvetica,sans-Serif" font-size="10.00">boost/config.hpp</text>
</a>
</g>
</g>
<!-- Node2&#45;&gt;Node3 -->
<g id="edge2" class="edge">
<title>Node2&#45;&gt;Node3</title>
<path fill="none" stroke="midnightblue" d="M151.37,-66.57C201.2,-63.18 276.57,-58.46 342.2,-56 1443.89,-14.71 2790.46,-11.26 3086.74,-11.01"/>
<polygon fill="midnightblue" stroke="midnightblue" points="3086.84,-14.51 3096.84,-11 3086.83,-7.51 3086.84,-14.51"/>
</g>
<!-- Node4&#45;&gt;Node2 -->
<g id="edge4" class="edge">
<title>Node4&#45;&gt;Node2</title>
<path fill="none" stroke="midnightblue" d="M3058.19,-199.16C2689.92,-200 689.17,-202.33 570.2,-154 551.56,-146.43 555.46,-131.46 537.2,-123 471.99,-92.77 267.66,-79.78 161.58,-74.96"/>
<polygon fill="midnightblue" stroke="midnightblue" points="161.46,-71.45 151.32,-74.5 161.15,-78.44 161.46,-71.45"/>
</g>
<!-- Node4&#45;&gt;Node3 -->
<g id="edge5" class="edge">
<title>Node4&#45;&gt;Node3</title>
<path fill="none" stroke="midnightblue" d="M3174.49,-198.71C3596.89,-196.52 6172.6,-182.01 6200.2,-154 6209.87,-144.19 6209.76,-132.92 6200.2,-123 6092.3,-11.07 3621.34,-10.22 3205.38,-10.87"/>
<polygon fill="midnightblue" stroke="midnightblue" points="3205.37,-7.37 3195.37,-10.88 3205.38,-14.37 3205.37,-7.37"/>
</g>
<!-- Node5 -->
<g id="node5" class="node">
<title>Node5</title>
<g id="a_node5"><a xlink:title=" ">
<polygon fill="white" stroke="#bfbfbf" points="6069.2,-129 6069.2,-148 6191.2,-148 6191.2,-129 6069.2,-129"/>
<text text-anchor="middle" x="6130.2" y="-136" font-family="Helvetica,sans-Serif" font-size="10.00">boost/config/user.hpp</text>
</a>
</g>
</g>
<!-- Node4&#45;&gt;Node5 -->
<g id="edge6" class="edge">
<title>Node4&#45;&gt;Node5</title>
<path fill="none" stroke="midnightblue" d="M3174.48,-198.77C3562.36,-197.17 5763.84,-186.66 6060.2,-154 6068.44,-153.09 6077.15,-151.67 6085.52,-150.06"/>
<polygon fill="midnightblue" stroke="midnightblue" points="6086.41,-153.46 6095.51,-148.04 6085.02,-146.59 6086.41,-153.46"/>
</g>
<!-- Node6 -->
<g id="node6" class="node">
<title>Node6</title>
<g id="a_node6"><a xlink:title=" ">
<polygon fill="white" stroke="#bfbfbf" points="622.7,-123.5 622.7,-153.5 775.7,-153.5 775.7,-123.5 622.7,-123.5"/>
<text text-anchor="start" x="630.7" y="-141.5" font-family="Helvetica,sans-Serif" font-size="10.00">boost/config/detail</text>
<text text-anchor="middle" x="699.2" y="-130.5" font-family="Helvetica,sans-Serif" font-size="10.00">/select_compiler_config.hpp</text>
</a>
</g>
</g>
<!-- Node4&#45;&gt;Node6 -->
<g id="edge7" class="edge">
<title>Node4&#45;&gt;Node6</title>
<path fill="none" stroke="midnightblue" d="M3058,-199.04C2745.9,-199.1 1267.16,-197.09 786.16,-153.96"/>
<polygon fill="midnightblue" stroke="midnightblue" points="786.3,-150.46 776.02,-153.03 785.66,-157.43 786.3,-150.46"/>
</g>
<!-- Node7 -->
<g id="node7" class="node">
<title>Node7</title>
<g id="a_node7"><a xlink:title=" ">
<polygon fill="white" stroke="#bfbfbf" points="794.2,-123.5 794.2,-153.5 946.2,-153.5 946.2,-123.5 794.2,-123.5"/>
<text text-anchor="start" x="802.2" y="-141.5" font-family="Helvetica,sans-Serif" font-size="10.00">boost/config/detail</text>
<text text-anchor="middle" x="870.2" y="-130.5" font-family="Helvetica,sans-Serif" font-size="10.00">/select_platform_config.hpp</text>
</a>
</g>
</g>
<!-- Node4&#45;&gt;Node7 -->
<g id="edge8" class="edge">
<title>Node4&#45;&gt;Node7</title>
<path fill="none" stroke="midnightblue" d="M3058.14,-198.94C2760.39,-198.46 1401.99,-194.11 956.58,-153.9"/>
<polygon fill="midnightblue" stroke="midnightblue" points="956.83,-150.4 946.55,-152.97 956.19,-157.37 956.83,-150.4"/>
</g>
<!-- Node8 -->
<g id="node8" class="node">
<title>Node8</title>
<g id="a_node8"><a xlink:title=" ">
<polygon fill="white" stroke="#bfbfbf" points="964.7,-123.5 964.7,-153.5 1071.7,-153.5 1071.7,-123.5 964.7,-123.5"/>
<text text-anchor="start" x="972.7" y="-141.5" font-family="Helvetica,sans-Serif" font-size="10.00">boost/config/detail</text>
<text text-anchor="middle" x="1018.2" y="-130.5" font-family="Helvetica,sans-Serif" font-size="10.00">/suffix.hpp</text>
</a>
</g>
</g>
<!-- Node4&#45;&gt;Node8 -->
<g id="edge9" class="edge">
<title>Node4&#45;&gt;Node8</title>
<path fill="none" stroke="midnightblue" d="M3058.14,-199.32C2770.92,-200.63 1499.48,-203.57 1082.03,-153.87"/>
<polygon fill="midnightblue" stroke="midnightblue" points="1082.38,-150.39 1072.03,-152.65 1081.53,-157.34 1082.38,-150.39"/>
</g>
<!-- Node9 -->
<g id="node9" class="node">
<title>Node9</title>
<g id="a_node9"><a xlink:title=" ">
<polygon fill="white" stroke="#bfbfbf" points="1089.7,-129 1089.7,-148 1142.7,-148 1142.7,-129 1089.7,-129"/>
<text text-anchor="middle" x="1116.2" y="-136" font-family="Helvetica,sans-Serif" font-size="10.00">limits.h</text>
</a>
</g>
</g>
<!-- Node4&#45;&gt;Node9 -->
<g id="edge10" class="edge">
<title>Node4&#45;&gt;Node9</title>
<path fill="none" stroke="midnightblue" d="M3058.19,-198.91C2753.27,-198.27 1342.72,-193.2 1152.2,-154 1149.29,-153.4 1146.32,-152.58 1143.39,-151.63"/>
<polygon fill="midnightblue" stroke="midnightblue" points="1144.34,-148.25 1133.75,-148.04 1141.9,-154.81 1144.34,-148.25"/>
</g>
<!-- Node10 -->
<g id="node10" class="node">
<title>Node10</title>
<g id="a_node10"><a xlink:title=" ">
<polygon fill="white" stroke="#bfbfbf" points="1161.2,-123.5 1161.2,-153.5 1271.2,-153.5 1271.2,-123.5 1161.2,-123.5"/>
<text text-anchor="start" x="1169.2" y="-141.5" font-family="Helvetica,sans-Serif" font-size="10.00">boost/config/helper</text>
<text text-anchor="middle" x="1216.2" y="-130.5" font-family="Helvetica,sans-Serif" font-size="10.00">_macros.hpp</text>
</a>
</g>
</g>
<!-- Node4&#45;&gt;Node10 -->
<g id="edge11" class="edge">
<title>Node4&#45;&gt;Node10</title>
<path fill="none" stroke="midnightblue" d="M3058.06,-199.13C2788.41,-199.47 1657.06,-198.29 1281.32,-153.92"/>
<polygon fill="midnightblue" stroke="midnightblue" points="1281.58,-150.43 1271.23,-152.7 1280.74,-157.38 1281.58,-150.43"/>
</g>
<!-- Node11 -->
<g id="node11" class="node">
<title>Node11</title>
<g id="a_node11"><a xlink:title=" ">
<polygon fill="white" stroke="#bfbfbf" points="1289.2,-123.5 1289.2,-153.5 1403.2,-153.5 1403.2,-123.5 1289.2,-123.5"/>
<text text-anchor="start" x="1297.2" y="-141.5" font-family="Helvetica,sans-Serif" font-size="10.00">boost/config/detail</text>
<text text-anchor="middle" x="1346.2" y="-130.5" font-family="Helvetica,sans-Serif" font-size="10.00">/cxx_composite.hpp</text>
</a>
</g>
</g>
<!-- Node4&#45;&gt;Node11 -->
<g id="edge12" class="edge">
<title>Node4&#45;&gt;Node11</title>
<path fill="none" stroke="midnightblue" d="M3058,-198.92C2800.64,-198.35 1762.45,-193.65 1413.58,-153.82"/>
<polygon fill="midnightblue" stroke="midnightblue" points="1413.8,-150.32 1403.46,-152.63 1412.98,-157.27 1413.8,-150.32"/>
</g>
<!-- Node12 -->
<g id="node12" class="node">
<title>Node12</title>
<g id="a_node12"><a xlink:href="widget_8hpp.html" target="_top" xlink:title="Widget class.">
<polygon fill="white" stroke="red" points="100.7,-129 100.7,-148 213.7,-148 213.7,-129 100.7,-129"/>
<text text-anchor="middle" x="157.2" y="-136" font-family="Helvetica,sans-Serif" font-size="10.00">boost/ui/widget.hpp</text>
</a>
</g>
</g>
<!-- Node4&#45;&gt;Node12 -->
<g id="edge13" class="edge">
<title>Node4&#45;&gt;Node12</title>
<path fill="none" stroke="midnightblue" d="M3058.19,-199.06C2704.37,-199.26 833.13,-198.21 261.2,-154 247.66,-152.95 233.19,-151.29 219.48,-149.45"/>
<polygon fill="midnightblue" stroke="midnightblue" points="219.56,-145.93 209.17,-148.02 218.59,-152.86 219.56,-145.93"/>
</g>
<!-- Node4&#45;&gt;Node28 -->
<g id="edge50" class="edge">
<title>Node4&#45;&gt;Node28</title>
<path fill="none" stroke="midnightblue" d="M3058.1,-198.92C2693.63,-198.3 734.02,-193.16 614.2,-154 591.46,-146.57 591.62,-133.65 570.2,-123 541.94,-108.95 508.93,-97.67 480.41,-89.37"/>
<polygon fill="midnightblue" stroke="midnightblue" points="481.09,-85.93 470.52,-86.56 479.18,-92.66 481.09,-85.93"/>
</g>
<!-- Node4&#45;&gt;Node29 -->
<g id="edge51" class="edge">
<title>Node4&#45;&gt;Node29</title>
<path fill="none" stroke="midnightblue" d="M3174.32,-198.66C3480.75,-196.74 4895.87,-186.12 4927.2,-154 4936.82,-144.14 4936.83,-132.85 4927.2,-123 4889.88,-84.8 3219.54,-74.67 2832.62,-72.84"/>
<polygon fill="midnightblue" stroke="midnightblue" points="2832.38,-69.34 2822.37,-72.79 2832.35,-76.34 2832.38,-69.34"/>
</g>
<!-- Node4&#45;&gt;Node30 -->
<g id="edge17" class="edge">
<title>Node4&#45;&gt;Node30</title>
<path fill="none" stroke="midnightblue" d="M3057.92,-198.64C2699.37,-196.37 799.45,-183.01 542.2,-154 534.07,-153.08 525.48,-151.66 517.23,-150.05"/>
<polygon fill="midnightblue" stroke="midnightblue" points="517.89,-146.61 507.39,-148.02 516.47,-153.47 517.89,-146.61"/>
</g>
<!-- Node31 -->
<g id="node16" class="node">
<title>Node31</title>
<g id="a_node16"><a xlink:title=" ">
<polygon fill="white" stroke="#bfbfbf" points="1421.7,-129 1421.7,-148 1528.7,-148 1528.7,-129 1421.7,-129"/>
<text text-anchor="middle" x="1475.2" y="-136" font-family="Helvetica,sans-Serif" font-size="10.00">boost/ui/coord.hpp</text>
</a>
</g>
</g>
<!-- Node4&#45;&gt;Node31 -->
<g id="edge18" class="edge">
<title>Node4&#45;&gt;Node31</title>
<path fill="none" stroke="midnightblue" d="M3058.16,-198.88C2810.47,-198.14 1840.8,-192.75 1538.2,-154 1531.24,-153.11 1523.93,-151.79 1516.85,-150.3"/>
<polygon fill="midnightblue" stroke="midnightblue" points="1517.23,-146.8 1506.7,-148.04 1515.7,-153.63 1517.23,-146.8"/>
</g>
<!-- Node14 -->
<g id="node17" class="node">
<title>Node14</title>
<g id="a_node17"><a xlink:title=" ">
<polygon fill="white" stroke="#bfbfbf" points="1546.7,-129 1546.7,-148 1659.7,-148 1659.7,-129 1546.7,-129"/>
<text text-anchor="middle" x="1603.2" y="-136" font-family="Helvetica,sans-Serif" font-size="10.00">boost/geometry.hpp</text>
</a>
</g>
</g>
<!-- Node4&#45;&gt;Node14 -->
<g id="edge19" class="edge">
<title>Node4&#45;&gt;Node14</title>
<path fill="none" stroke="midnightblue" d="M3057.91,-198.63C2822.94,-196.9 1944.8,-188.26 1669.2,-154 1661.67,-153.06 1653.73,-151.68 1646.08,-150.12"/>
<polygon fill="midnightblue" stroke="midnightblue" points="1646.74,-146.69 1636.23,-148.01 1645.27,-153.53 1646.74,-146.69"/>
</g>
<!-- Node32 -->
<g id="node18" class="node">
<title>Node32</title>
<g id="a_node18"><a xlink:title=" ">
<polygon fill="white" stroke="#bfbfbf" points="1678.2,-129 1678.2,-148 1842.2,-148 1842.2,-129 1678.2,-129"/>
<text text-anchor="middle" x="1760.2" y="-136" font-family="Helvetica,sans-Serif" font-size="10.00">boost/geometry/geometry.hpp</text>
</a>
</g>
</g>
<!-- Node4&#45;&gt;Node32 -->
<g id="edge20" class="edge">
<title>Node4&#45;&gt;Node32</title>
<path fill="none" stroke="midnightblue" d="M3058.03,-199.46C2878.12,-200.34 2314.9,-199.02 1851.2,-154 1840.1,-152.92 1828.31,-151.36 1817.02,-149.65"/>
<polygon fill="midnightblue" stroke="midnightblue" points="1817.24,-146.14 1806.82,-148.05 1816.16,-153.06 1817.24,-146.14"/>
</g>
<!-- Node33 -->
<g id="node19" class="node">
<title>Node33</title>
<g id="a_node19"><a xlink:title=" ">
<polygon fill="white" stroke="#bfbfbf" points="1860.2,-123.5 1860.2,-153.5 1978.2,-153.5 1978.2,-123.5 1860.2,-123.5"/>
<text text-anchor="start" x="1868.2" y="-141.5" font-family="Helvetica,sans-Serif" font-size="10.00">boost/geometry/core</text>
<text text-anchor="middle" x="1919.2" y="-130.5" font-family="Helvetica,sans-Serif" font-size="10.00">/closure.hpp</text>
</a>
</g>
</g>
<!-- Node4&#45;&gt;Node33 -->
<g id="edge21" class="edge">
<title>Node4&#45;&gt;Node33</title>
<path fill="none" stroke="midnightblue" d="M3057.87,-197.99C2860.44,-194.36 2217.4,-180.84 1988.68,-154"/>
<polygon fill="midnightblue" stroke="midnightblue" points="1988.78,-150.49 1978.44,-152.75 1987.94,-157.43 1988.78,-150.49"/>
</g>
<!-- Node34 -->
<g id="node20" class="node">
<title>Node34</title>
<g id="a_node20"><a xlink:title=" ">
<polygon fill="white" stroke="#bfbfbf" points="1996.2,-129 1996.2,-148 2148.2,-148 2148.2,-129 1996.2,-129"/>
<text text-anchor="middle" x="2072.2" y="-136" font-family="Helvetica,sans-Serif" font-size="10.00">boost/range/value_type.hpp</text>
</a>
</g>
</g>
<!-- Node4&#45;&gt;Node34 -->
<g id="edge22" class="edge">
<title>Node4&#45;&gt;Node34</title>
<path fill="none" stroke="midnightblue" d="M3058.17,-198.74C2908.51,-197.54 2497.31,-190.85 2157.2,-154 2147.15,-152.91 2136.49,-151.39 2126.25,-149.74"/>
<polygon fill="midnightblue" stroke="midnightblue" points="2126.61,-146.25 2116.17,-148.05 2125.46,-153.15 2126.61,-146.25"/>
</g>
<!-- Node35 -->
<g id="node21" class="node">
<title>Node35</title>
<g id="a_node21"><a xlink:title=" ">
<polygon fill="white" stroke="#bfbfbf" points="2166.2,-129 2166.2,-148 2294.2,-148 2294.2,-129 2166.2,-129"/>
<text text-anchor="middle" x="2230.2" y="-136" font-family="Helvetica,sans-Serif" font-size="10.00">boost/range/config.hpp</text>
</a>
</g>
</g>
<!-- Node4&#45;&gt;Node35 -->
<g id="edge23" class="edge">
<title>Node4&#45;&gt;Node35</title>
<path fill="none" stroke="midnightblue" d="M3058.03,-198.58C2924.25,-197.02 2584.57,-189.55 2303.2,-154 2295,-152.96 2286.33,-151.54 2277.95,-149.99"/>
<polygon fill="midnightblue" stroke="midnightblue" points="2278.4,-146.51 2267.92,-148.04 2277.07,-153.38 2278.4,-146.51"/>
</g>
<!-- Node36 -->
<g id="node22" class="node">
<title>Node36</title>
<g id="a_node22"><a xlink:title=" ">
<polygon fill="white" stroke="#bfbfbf" points="2312.2,-129 2312.2,-148 2468.2,-148 2468.2,-129 2312.2,-129"/>
<text text-anchor="middle" x="2390.2" y="-136" font-family="Helvetica,sans-Serif" font-size="10.00">boost/detail/workaround.hpp</text>
</a>
</g>
</g>
<!-- Node4&#45;&gt;Node36 -->
<g id="edge24" class="edge">
<title>Node4&#45;&gt;Node36</title>
<path fill="none" stroke="midnightblue" d="M3057.88,-196.75C2945.3,-191.99 2690.35,-179.21 2477.2,-154 2467.28,-152.83 2456.76,-151.31 2446.6,-149.7"/>
<polygon fill="midnightblue" stroke="midnightblue" points="2447.02,-146.22 2436.59,-148.07 2445.89,-153.13 2447.02,-146.22"/>
</g>
<!-- Node37 -->
<g id="node23" class="node">
<title>Node37</title>
<g id="a_node23"><a xlink:title=" ">
<polygon fill="white" stroke="#bfbfbf" points="2486.2,-129 2486.2,-148 2644.2,-148 2644.2,-129 2486.2,-129"/>
<text text-anchor="middle" x="2565.2" y="-136" font-family="Helvetica,sans-Serif" font-size="10.00">boost/config/workaround.hpp</text>
</a>
</g>
</g>
<!-- Node4&#45;&gt;Node37 -->
<g id="edge25" class="edge">
<title>Node4&#45;&gt;Node37</title>
<path fill="none" stroke="midnightblue" d="M3057.95,-194.59C2970.05,-187.65 2798.34,-172.99 2653.2,-154 2643.63,-152.75 2633.5,-151.25 2623.65,-149.69"/>
<polygon fill="midnightblue" stroke="midnightblue" points="2623.96,-146.19 2613.53,-148.06 2622.84,-153.1 2623.96,-146.19"/>
</g>
<!-- Node38 -->
<g id="node24" class="node">
<title>Node38</title>
<g id="a_node24"><a xlink:title=" ">
<polygon fill="white" stroke="#bfbfbf" points="2662.2,-129 2662.2,-148 2796.2,-148 2796.2,-129 2662.2,-129"/>
<text text-anchor="middle" x="2729.2" y="-136" font-family="Helvetica,sans-Serif" font-size="10.00">boost/range/iterator.hpp</text>
</a>
</g>
</g>
<!-- Node4&#45;&gt;Node38 -->
<g id="edge26" class="edge">
<title>Node4&#45;&gt;Node38</title>
<path fill="none" stroke="midnightblue" d="M3058.09,-191.31C2995.72,-182.88 2893.77,-168.6 2806.2,-154 2798.56,-152.73 2790.5,-151.3 2782.6,-149.86"/>
<polygon fill="midnightblue" stroke="midnightblue" points="2783.18,-146.4 2772.71,-148.02 2781.91,-153.29 2783.18,-146.4"/>
</g>
<!-- Node39 -->
<g id="node25" class="node">
<title>Node39</title>
<g id="a_node25"><a xlink:title=" ">
<polygon fill="white" stroke="#bfbfbf" points="2814.7,-129 2814.7,-148 2963.7,-148 2963.7,-129 2814.7,-129"/>
<text text-anchor="middle" x="2889.2" y="-136" font-family="Helvetica,sans-Serif" font-size="10.00">boost/range/range_fwd.hpp</text>
</a>
</g>
</g>
<!-- Node4&#45;&gt;Node39 -->
<g id="edge27" class="edge">
<title>Node4&#45;&gt;Node39</title>
<path fill="none" stroke="midnightblue" d="M3083.67,-190.48C3043.64,-179.98 2975.56,-162.14 2931.5,-150.59"/>
<polygon fill="midnightblue" stroke="midnightblue" points="2932.22,-147.16 2921.66,-148.01 2930.45,-153.93 2932.22,-147.16"/>
</g>
<!-- Node40 -->
<g id="node26" class="node">
<title>Node40</title>
<g id="a_node26"><a xlink:title=" ">
<polygon fill="white" stroke="#bfbfbf" points="2982.2,-123.5 2982.2,-153.5 3100.2,-153.5 3100.2,-123.5 2982.2,-123.5"/>
<text text-anchor="start" x="2990.2" y="-141.5" font-family="Helvetica,sans-Serif" font-size="10.00">boost/range/mutable</text>
<text text-anchor="middle" x="3041.2" y="-130.5" font-family="Helvetica,sans-Serif" font-size="10.00">_iterator.hpp</text>
</a>
</g>
</g>
<!-- Node4&#45;&gt;Node40 -->
<g id="edge28" class="edge">
<title>Node4&#45;&gt;Node40</title>
<path fill="none" stroke="midnightblue" d="M3105.45,-190.48C3095.39,-182.49 3079.96,-170.25 3066.75,-159.77"/>
<polygon fill="midnightblue" stroke="midnightblue" points="3068.88,-157 3058.87,-153.52 3064.53,-162.48 3068.88,-157"/>
</g>
<!-- Node41 -->
<g id="node27" class="node">
<title>Node41</title>
<g id="a_node27"><a xlink:title=" ">
<polygon fill="white" stroke="#bfbfbf" points="3118.7,-123.5 3118.7,-153.5 3265.7,-153.5 3265.7,-123.5 3118.7,-123.5"/>
<text text-anchor="start" x="3126.7" y="-141.5" font-family="Helvetica,sans-Serif" font-size="10.00">boost/range/detail</text>
<text text-anchor="middle" x="3192.2" y="-130.5" font-family="Helvetica,sans-Serif" font-size="10.00">/extract_optional_type.hpp</text>
</a>
</g>
</g>
<!-- Node4&#45;&gt;Node41 -->
<g id="edge29" class="edge">
<title>Node4&#45;&gt;Node41</title>
<path fill="none" stroke="midnightblue" d="M3127.09,-190.48C3137.28,-182.49 3152.92,-170.25 3166.31,-159.77"/>
<polygon fill="midnightblue" stroke="midnightblue" points="3168.57,-162.44 3174.29,-153.52 3164.26,-156.93 3168.57,-162.44"/>
</g>
<!-- Node42 -->
<g id="node28" class="node">
<title>Node42</title>
<g id="a_node28"><a xlink:title=" ">
<polygon fill="white" stroke="#bfbfbf" points="3284.2,-123.5 3284.2,-153.5 3394.2,-153.5 3394.2,-123.5 3284.2,-123.5"/>
<text text-anchor="start" x="3292.2" y="-141.5" font-family="Helvetica,sans-Serif" font-size="10.00">boost/preprocessor</text>
<text text-anchor="middle" x="3339.2" y="-130.5" font-family="Helvetica,sans-Serif" font-size="10.00">/cat.hpp</text>
</a>
</g>
</g>
<!-- Node4&#45;&gt;Node42 -->
<g id="edge30" class="edge">
<title>Node4&#45;&gt;Node42</title>
<path fill="none" stroke="midnightblue" d="M3148.15,-190.48C3181.6,-181.55 3234.97,-167.31 3276.82,-156.14"/>
<polygon fill="midnightblue" stroke="midnightblue" points="3277.88,-159.48 3286.64,-153.52 3276.08,-152.72 3277.88,-159.48"/>
</g>
<!-- Node43 -->
<g id="node29" class="node">
<title>Node43</title>
<g id="a_node29"><a xlink:title=" ">
<polygon fill="white" stroke="#bfbfbf" points="3412.2,-123.5 3412.2,-153.5 3522.2,-153.5 3522.2,-123.5 3412.2,-123.5"/>
<text text-anchor="start" x="3420.2" y="-141.5" font-family="Helvetica,sans-Serif" font-size="10.00">boost/preprocessor</text>
<text text-anchor="middle" x="3467.2" y="-130.5" font-family="Helvetica,sans-Serif" font-size="10.00">/config/config.hpp</text>
</a>
</g>
</g>
<!-- Node4&#45;&gt;Node43 -->
<g id="edge31" class="edge">
<title>Node4&#45;&gt;Node43</title>
<path fill="none" stroke="midnightblue" d="M3174.39,-191.05C3230.3,-183.14 3317.37,-170.14 3402.05,-154.15"/>
<polygon fill="midnightblue" stroke="midnightblue" points="3402.92,-157.54 3412.09,-152.23 3401.61,-150.67 3402.92,-157.54"/>
</g>
<!-- Node44 -->
<g id="node30" class="node">
<title>Node44</title>
<g id="a_node30"><a xlink:title=" ">
<polygon fill="white" stroke="#bfbfbf" points="3540.2,-129 3540.2,-148 3670.2,-148 3670.2,-129 3540.2,-129"/>
<text text-anchor="middle" x="3605.2" y="-136" font-family="Helvetica,sans-Serif" font-size="10.00">boost/mpl/has_xxx.hpp</text>
</a>
</g>
</g>
<!-- Node4&#45;&gt;Node44 -->
<g id="edge32" class="edge">
<title>Node4&#45;&gt;Node44</title>
<path fill="none" stroke="midnightblue" d="M3174.48,-194.26C3254.96,-187.36 3404.56,-173.24 3531.2,-154 3538.93,-152.82 3547.09,-151.41 3555.05,-149.93"/>
<polygon fill="midnightblue" stroke="midnightblue" points="3555.82,-153.34 3564.98,-148.03 3554.5,-146.47 3555.82,-153.34"/>
</g>
<!-- Node45 -->
<g id="node31" class="node">
<title>Node45</title>
<g id="a_node31"><a xlink:title=" ">
<polygon fill="white" stroke="#bfbfbf" points="3688.2,-129 3688.2,-148 3798.2,-148 3798.2,-129 3688.2,-129"/>
<text text-anchor="middle" x="3743.2" y="-136" font-family="Helvetica,sans-Serif" font-size="10.00">boost/mpl/bool.hpp</text>
</a>
</g>
</g>
<!-- Node4&#45;&gt;Node45 -->
<g id="edge33" class="edge">
<title>Node4&#45;&gt;Node45</title>
<path fill="none" stroke="midnightblue" d="M3174.46,-197.09C3277.01,-193.12 3496.23,-181.89 3679.2,-154 3685.93,-152.97 3693.01,-151.64 3699.91,-150.19"/>
<polygon fill="midnightblue" stroke="midnightblue" points="3700.81,-153.57 3709.82,-148.01 3699.3,-146.74 3700.81,-153.57"/>
</g>
<!-- Node46 -->
<g id="node32" class="node">
<title>Node46</title>
<g id="a_node32"><a xlink:title=" ">
<polygon fill="white" stroke="#bfbfbf" points="3816.2,-129 3816.2,-148 3950.2,-148 3950.2,-129 3816.2,-129"/>
<text text-anchor="middle" x="3883.2" y="-136" font-family="Helvetica,sans-Serif" font-size="10.00">boost/mpl/bool_fwd.hpp</text>
</a>
</g>
</g>
<!-- Node4&#45;&gt;Node46 -->
<g id="edge34" class="edge">
<title>Node4&#45;&gt;Node46</title>
<path fill="none" stroke="midnightblue" d="M3174.22,-197.64C3293.3,-194.32 3573.76,-183.75 3807.2,-154 3815.72,-152.91 3824.73,-151.46 3833.45,-149.9"/>
<polygon fill="midnightblue" stroke="midnightblue" points="3834.32,-153.3 3843.51,-148.03 3833.04,-146.42 3834.32,-153.3"/>
</g>
<!-- Node47 -->
<g id="node33" class="node">
<title>Node47</title>
<g id="a_node33"><a xlink:title=" ">
<polygon fill="white" stroke="#bfbfbf" points="3968.2,-123.5 3968.2,-153.5 4078.2,-153.5 4078.2,-123.5 3968.2,-123.5"/>
<text text-anchor="start" x="3976.2" y="-141.5" font-family="Helvetica,sans-Serif" font-size="10.00">boost/mpl/aux_/adl</text>
<text text-anchor="middle" x="4023.2" y="-130.5" font-family="Helvetica,sans-Serif" font-size="10.00">_barrier.hpp</text>
</a>
</g>
</g>
<!-- Node4&#45;&gt;Node47 -->
<g id="edge35" class="edge">
<title>Node4&#45;&gt;Node47</title>
<path fill="none" stroke="midnightblue" d="M3174.27,-199.28C3309.96,-199.2 3658.38,-194.8 3957.96,-154"/>
<polygon fill="midnightblue" stroke="midnightblue" points="3958.72,-157.43 3968.15,-152.59 3957.77,-150.49 3958.72,-157.43"/>
</g>
<!-- Node48 -->
<g id="node34" class="node">
<title>Node48</title>
<g id="a_node34"><a xlink:title=" ">
<polygon fill="white" stroke="#bfbfbf" points="4096.7,-123.5 4096.7,-153.5 4221.7,-153.5 4221.7,-123.5 4096.7,-123.5"/>
<text text-anchor="start" x="4104.7" y="-141.5" font-family="Helvetica,sans-Serif" font-size="10.00">boost/mpl/aux_/config</text>
<text text-anchor="middle" x="4159.2" y="-130.5" font-family="Helvetica,sans-Serif" font-size="10.00">/adl.hpp</text>
</a>
</g>
</g>
<!-- Node4&#45;&gt;Node48 -->
<g id="edge36" class="edge">
<title>Node4&#45;&gt;Node48</title>
<path fill="none" stroke="midnightblue" d="M3174.46,-199.39C3324.27,-199.72 3735.08,-196.45 4086.35,-153.96"/>
<polygon fill="midnightblue" stroke="midnightblue" points="4086.96,-157.41 4096.46,-152.72 4086.11,-150.46 4086.96,-157.41"/>
</g>
<!-- Node49 -->
<g id="node35" class="node">
<title>Node49</title>
<g id="a_node35"><a xlink:title=" ">
<polygon fill="white" stroke="#bfbfbf" points="4239.7,-123.5 4239.7,-153.5 4364.7,-153.5 4364.7,-123.5 4239.7,-123.5"/>
<text text-anchor="start" x="4247.7" y="-141.5" font-family="Helvetica,sans-Serif" font-size="10.00">boost/mpl/aux_/config</text>
<text text-anchor="middle" x="4302.2" y="-130.5" font-family="Helvetica,sans-Serif" font-size="10.00">/msvc.hpp</text>
</a>
</g>
</g>
<!-- Node4&#45;&gt;Node49 -->
<g id="edge37" class="edge">
<title>Node4&#45;&gt;Node49</title>
<path fill="none" stroke="midnightblue" d="M3174.49,-197.89C3370.25,-193.97 4004.03,-179.66 4229.47,-154.05"/>
<polygon fill="midnightblue" stroke="midnightblue" points="4230.05,-157.51 4239.57,-152.86 4229.23,-150.55 4230.05,-157.51"/>
</g>
<!-- Node50 -->
<g id="node36" class="node">
<title>Node50</title>
<g id="a_node36"><a xlink:title=" ">
<polygon fill="white" stroke="#bfbfbf" points="4382.7,-123.5 4382.7,-153.5 4507.7,-153.5 4507.7,-123.5 4382.7,-123.5"/>
<text text-anchor="start" x="4390.7" y="-141.5" font-family="Helvetica,sans-Serif" font-size="10.00">boost/mpl/aux_/config</text>
<text text-anchor="middle" x="4445.2" y="-130.5" font-family="Helvetica,sans-Serif" font-size="10.00">/intel.hpp</text>
</a>
</g>
</g>
<!-- Node4&#45;&gt;Node50 -->
<g id="edge38" class="edge">
<title>Node4&#45;&gt;Node50</title>
<path fill="none" stroke="midnightblue" d="M3174.38,-198.2C3386.33,-195.09 4117.62,-182.57 4372.61,-154.03"/>
<polygon fill="midnightblue" stroke="midnightblue" points="4373.04,-157.5 4382.57,-152.88 4372.23,-150.55 4373.04,-157.5"/>
</g>
<!-- Node51 -->
<g id="node37" class="node">
<title>Node51</title>
<g id="a_node37"><a xlink:title=" ">
<polygon fill="white" stroke="#bfbfbf" points="4525.7,-123.5 4525.7,-153.5 4650.7,-153.5 4650.7,-123.5 4525.7,-123.5"/>
<text text-anchor="start" x="4533.7" y="-141.5" font-family="Helvetica,sans-Serif" font-size="10.00">boost/mpl/aux_/config</text>
<text text-anchor="middle" x="4588.2" y="-130.5" font-family="Helvetica,sans-Serif" font-size="10.00">/gcc.hpp</text>
</a>
</g>
</g>
<!-- Node4&#45;&gt;Node51 -->
<g id="edge39" class="edge">
<title>Node4&#45;&gt;Node51</title>
<path fill="none" stroke="midnightblue" d="M3174.57,-198.44C3402.06,-196.07 4230.32,-185.51 4515.26,-154.06"/>
<polygon fill="midnightblue" stroke="midnightblue" points="4516.03,-157.5 4525.57,-152.89 4515.24,-150.54 4516.03,-157.5"/>
</g>
<!-- Node52 -->
<g id="node38" class="node">
<title>Node52</title>
<g id="a_node38"><a xlink:title=" ">
<polygon fill="white" stroke="#bfbfbf" points="4668.7,-123.5 4668.7,-153.5 4793.7,-153.5 4793.7,-123.5 4668.7,-123.5"/>
<text text-anchor="start" x="4676.7" y="-141.5" font-family="Helvetica,sans-Serif" font-size="10.00">boost/mpl/aux_/config</text>
<text text-anchor="middle" x="4731.2" y="-130.5" font-family="Helvetica,sans-Serif" font-size="10.00">/workaround.hpp</text>
</a>
</g>
</g>
<!-- Node4&#45;&gt;Node52 -->
<g id="edge40" class="edge">
<title>Node4&#45;&gt;Node52</title>
<path fill="none" stroke="midnightblue" d="M3174.61,-198.64C3416.85,-196.96 4344.12,-188.45 4658.55,-154.03"/>
<polygon fill="midnightblue" stroke="midnightblue" points="4659.03,-157.5 4668.57,-152.9 4658.24,-150.54 4659.03,-157.5"/>
</g>
<!-- Node53 -->
<g id="node39" class="node">
<title>Node53</title>
<g id="a_node39"><a xlink:title=" ">
<polygon fill="white" stroke="#bfbfbf" points="4812.2,-123.5 4812.2,-153.5 4918.2,-153.5 4918.2,-123.5 4812.2,-123.5"/>
<text text-anchor="start" x="4820.2" y="-141.5" font-family="Helvetica,sans-Serif" font-size="10.00">boost/mpl/integral</text>
<text text-anchor="middle" x="4865.2" y="-130.5" font-family="Helvetica,sans-Serif" font-size="10.00">_c_tag.hpp</text>
</a>
</g>
</g>
<!-- Node4&#45;&gt;Node53 -->
<g id="edge41" class="edge">
<title>Node4&#45;&gt;Node53</title>
<path fill="none" stroke="midnightblue" d="M3174.29,-199.03C3430.04,-198.94 4457.76,-195.97 4801.91,-153.95"/>
<polygon fill="midnightblue" stroke="midnightblue" points="4802.4,-157.41 4811.89,-152.69 4801.53,-150.47 4802.4,-157.41"/>
</g>
<!-- Node54 -->
<g id="node40" class="node">
<title>Node54</title>
<g id="a_node40"><a xlink:title=" ">
<polygon fill="white" stroke="#bfbfbf" points="4974.7,-123.5 4974.7,-153.5 5099.7,-153.5 5099.7,-123.5 4974.7,-123.5"/>
<text text-anchor="start" x="4982.7" y="-141.5" font-family="Helvetica,sans-Serif" font-size="10.00">boost/mpl/aux_/config</text>
<text text-anchor="middle" x="5037.2" y="-130.5" font-family="Helvetica,sans-Serif" font-size="10.00">/static_constant.hpp</text>
</a>
</g>
</g>
<!-- Node4&#45;&gt;Node54 -->
<g id="edge42" class="edge">
<title>Node4&#45;&gt;Node54</title>
<path fill="none" stroke="midnightblue" d="M3174.55,-198.85C3447.7,-197.94 4601.73,-191.87 4960.2,-154 4961.49,-153.86 4962.8,-153.72 4964.11,-153.56"/>
<polygon fill="midnightblue" stroke="midnightblue" points="4964.84,-156.99 4974.29,-152.2 4963.91,-150.06 4964.84,-156.99"/>
</g>
<!-- Node55 -->
<g id="node41" class="node">
<title>Node55</title>
<g id="a_node41"><a xlink:title=" ">
<polygon fill="white" stroke="#bfbfbf" points="5117.7,-129 5117.7,-148 5272.7,-148 5272.7,-129 5117.7,-129"/>
<text text-anchor="middle" x="5195.2" y="-136" font-family="Helvetica,sans-Serif" font-size="10.00">boost/mpl/aux_/na_spec.hpp</text>
</a>
</g>
</g>
<!-- Node4&#45;&gt;Node55 -->
<g id="edge43" class="edge">
<title>Node4&#45;&gt;Node55</title>
<path fill="none" stroke="midnightblue" d="M3174.42,-198.82C3460.52,-197.77 4719.22,-191.08 5109.2,-154 5119.82,-152.99 5131.11,-151.44 5141.9,-149.72"/>
<polygon fill="midnightblue" stroke="midnightblue" points="5142.76,-153.12 5152.05,-148.03 5141.61,-146.22 5142.76,-153.12"/>
</g>
<!-- Node56 -->
<g id="node42" class="node">
<title>Node56</title>
<g id="a_node42"><a xlink:title=" ">
<polygon fill="white" stroke="#bfbfbf" points="5290.7,-129 5290.7,-148 5439.7,-148 5439.7,-129 5290.7,-129"/>
<text text-anchor="middle" x="5365.2" y="-136" font-family="Helvetica,sans-Serif" font-size="10.00">boost/mpl/lambda_fwd.hpp</text>
</a>
</g>
</g>
<!-- Node4&#45;&gt;Node56 -->
<g id="edge44" class="edge">
<title>Node4&#45;&gt;Node56</title>
<path fill="none" stroke="midnightblue" d="M3174.43,-198.99C3475.3,-198.75 4856.13,-195.4 5282.2,-154 5292.35,-153.01 5303.14,-151.49 5313.45,-149.79"/>
<polygon fill="midnightblue" stroke="midnightblue" points="5314.31,-153.19 5323.57,-148.05 5313.12,-146.3 5314.31,-153.19"/>
</g>
<!-- Node57 -->
<g id="node43" class="node">
<title>Node57</title>
<g id="a_node43"><a xlink:title=" ">
<polygon fill="white" stroke="#bfbfbf" points="5458.2,-129 5458.2,-148 5592.2,-148 5592.2,-129 5458.2,-129"/>
<text text-anchor="middle" x="5525.2" y="-136" font-family="Helvetica,sans-Serif" font-size="10.00">boost/mpl/void_fwd.hpp</text>
</a>
</g>
</g>
<!-- Node4&#45;&gt;Node57 -->
<g id="edge45" class="edge">
<title>Node4&#45;&gt;Node57</title>
<path fill="none" stroke="midnightblue" d="M3174.21,-199.21C3488.33,-200.16 4988.35,-202.06 5449.2,-154 5458.32,-153.05 5467.99,-151.57 5477.26,-149.92"/>
<polygon fill="midnightblue" stroke="midnightblue" points="5477.93,-153.36 5487.11,-148.07 5476.64,-146.47 5477.93,-153.36"/>
</g>
<!-- Node58 -->
<g id="node44" class="node">
<title>Node58</title>
<g id="a_node44"><a xlink:title=" ">
<polygon fill="white" stroke="#bfbfbf" points="5610.2,-129 5610.2,-148 5738.2,-148 5738.2,-129 5610.2,-129"/>
<text text-anchor="middle" x="5674.2" y="-136" font-family="Helvetica,sans-Serif" font-size="10.00">boost/mpl/aux_/na.hpp</text>
</a>
</g>
</g>
<!-- Node4&#45;&gt;Node58 -->
<g id="edge46" class="edge">
<title>Node4&#45;&gt;Node58</title>
<path fill="none" stroke="midnightblue" d="M3174.43,-198.57C3525.51,-195.88 5353.17,-180.66 5601.2,-154 5609.97,-153.06 5619.26,-151.58 5628.16,-149.93"/>
<polygon fill="midnightblue" stroke="midnightblue" points="5628.86,-153.36 5638.01,-148.01 5627.52,-146.49 5628.86,-153.36"/>
</g>
<!-- Node59 -->
<g id="node45" class="node">
<title>Node59</title>
<g id="a_node45"><a xlink:title=" ">
<polygon fill="white" stroke="#bfbfbf" points="5756.7,-129 5756.7,-148 5907.7,-148 5907.7,-129 5756.7,-129"/>
<text text-anchor="middle" x="5832.2" y="-136" font-family="Helvetica,sans-Serif" font-size="10.00">boost/mpl/aux_/na_fwd.hpp</text>
</a>
</g>
</g>
<!-- Node4&#45;&gt;Node59 -->
<g id="edge47" class="edge">
<title>Node4&#45;&gt;Node59</title>
<path fill="none" stroke="midnightblue" d="M3174.26,-199.21C3511.66,-200.23 5223.25,-202.88 5747.2,-154 5757.82,-153.01 5769.11,-151.45 5779.87,-149.71"/>
<polygon fill="midnightblue" stroke="midnightblue" points="5780.72,-153.12 5790,-148 5779.55,-146.21 5780.72,-153.12"/>
</g>
<!-- Node60 -->
<g id="node46" class="node">
<title>Node60</title>
<g id="a_node46"><a xlink:title=" ">
<polygon fill="white" stroke="#bfbfbf" points="5925.7,-123.5 5925.7,-153.5 6050.7,-153.5 6050.7,-123.5 5925.7,-123.5"/>
<text text-anchor="start" x="5933.7" y="-141.5" font-family="Helvetica,sans-Serif" font-size="10.00">boost/mpl/aux_/config</text>
<text text-anchor="middle" x="5988.2" y="-130.5" font-family="Helvetica,sans-Serif" font-size="10.00">/ctps.hpp</text>
</a>
</g>
</g>
<!-- Node4&#45;&gt;Node60 -->
<g id="edge48" class="edge">
<title>Node4&#45;&gt;Node60</title>
<path fill="none" stroke="midnightblue" d="M3174.35,-198.71C3546.73,-196.8 5591.28,-184.98 5915.62,-153.96"/>
<polygon fill="midnightblue" stroke="midnightblue" points="5915.99,-157.44 5925.58,-152.94 5915.27,-150.48 5915.99,-157.44"/>
</g>
<!-- Node4&#45;&gt;Node350 -->
<g id="edge49" class="edge">
<title>Node4&#45;&gt;Node350</title>
<path fill="none" stroke="midnightblue" d="M3057.93,-198.65C2688.66,-196.36 680.68,-182.63 409.2,-154 400.31,-153.06 390.89,-151.59 381.87,-149.94"/>
<polygon fill="midnightblue" stroke="midnightblue" points="382.37,-146.48 371.89,-148.02 381.05,-153.35 382.37,-146.48"/>
</g>
<!-- Node12&#45;&gt;Node2 -->
<g id="edge14" class="edge">
<title>Node12&#45;&gt;Node2</title>
<path fill="none" stroke="midnightblue" d="M148.97,-128.73C139.37,-118.5 123.29,-101.36 111.39,-88.69"/>
<polygon fill="midnightblue" stroke="midnightblue" points="113.69,-86.02 104.29,-81.13 108.59,-90.81 113.69,-86.02"/>
</g>
<!-- Node12&#45;&gt;Node28 -->
<g id="edge15" class="edge">
<title>Node12&#45;&gt;Node28</title>
<path fill="none" stroke="midnightblue" d="M190.8,-128.94C230.48,-118.82 297.4,-101.76 347.3,-89.04"/>
<polygon fill="midnightblue" stroke="midnightblue" points="348.22,-92.42 357.04,-86.56 346.49,-85.64 348.22,-92.42"/>
</g>
<!-- Node12&#45;&gt;Node29 -->
<g id="edge16" class="edge">
<title>Node12&#45;&gt;Node29</title>
<path fill="none" stroke="midnightblue" d="M192.39,-129C203.75,-126.61 216.44,-124.31 228.2,-123 719.02,-68.43 2301.16,-70.79 2673.98,-72.15"/>
<polygon fill="midnightblue" stroke="midnightblue" points="2674.12,-75.65 2684.13,-72.19 2674.14,-68.65 2674.12,-75.65"/>
</g>
<!-- Node1738&#45;&gt;Node2 -->
<g id="edge55" class="edge">
<title>Node1738&#45;&gt;Node2</title>
<path fill="none" stroke="midnightblue" d="M194.48,-190.47C142.85,-180.75 66.7,-164.83 58.2,-154 42.23,-133.66 62.83,-105.52 79.37,-88.19"/>
<polygon fill="midnightblue" stroke="midnightblue" points="81.92,-90.59 86.53,-81.06 76.98,-85.63 81.92,-90.59"/>
</g>
<!-- Node1738&#45;&gt;Node12 -->
<g id="edge56" class="edge">
<title>Node1738&#45;&gt;Node12</title>
<path fill="none" stroke="midnightblue" d="M230.02,-190.48C216.39,-180.93 194.07,-165.31 177.72,-153.87"/>
<polygon fill="midnightblue" stroke="midnightblue" points="179.55,-150.88 169.35,-148.01 175.54,-156.61 179.55,-150.88"/>
</g>
<!-- Node1738&#45;&gt;Node28 -->
<g id="edge57" class="edge">
<title>Node1738&#45;&gt;Node28</title>
<path fill="none" stroke="midnightblue" d="M188.59,-191.34C133.31,-181.24 59.35,-160.25 91.2,-123 122.68,-86.17 256.43,-76.03 341.04,-73.34"/>
<polygon fill="midnightblue" stroke="midnightblue" points="341.21,-76.84 351.1,-73.05 341,-69.84 341.21,-76.84"/>
</g>
<!-- Node1738&#45;&gt;Node29 -->
<g id="edge58" class="edge">
<title>Node1738&#45;&gt;Node29</title>
<path fill="none" stroke="midnightblue" d="M241.34,-190.18C240.3,-173.89 240.78,-139.28 261.2,-123 309.49,-84.5 2254.2,-74.5 2673.89,-72.79"/>
<polygon fill="midnightblue" stroke="midnightblue" points="2674.12,-76.29 2684.11,-72.75 2674.1,-69.29 2674.12,-76.29"/>
</g>
<!-- Node1738&#45;&gt;Node350 -->
<g id="edge59" class="edge">
<title>Node1738&#45;&gt;Node350</title>
<path fill="none" stroke="midnightblue" d="M255.52,-190.48C270.58,-180.84 295.31,-165.02 313.24,-153.55"/>
<polygon fill="midnightblue" stroke="midnightblue" points="315.36,-156.35 321.9,-148.01 311.59,-150.45 315.36,-156.35"/>
</g>
<!-- Node1739&#45;&gt;Node2 -->
<g id="edge64" class="edge">
<title>Node1739&#45;&gt;Node2</title>
<path fill="none" stroke="midnightblue" d="M71.4,-190.39C52.81,-183.74 31.31,-172.45 20.2,-154 13.09,-142.2 13.69,-135.14 20.2,-123 29.4,-105.84 47.28,-93.52 63.38,-85.35"/>
<polygon fill="midnightblue" stroke="midnightblue" points="65.03,-88.44 72.58,-81.01 62.04,-82.11 65.03,-88.44"/>
</g>
<!-- Node1739&#45;&gt;Node12 -->
<g id="edge65" class="edge">
<title>Node1739&#45;&gt;Node12</title>
<path fill="none" stroke="midnightblue" d="M112.65,-190.48C120.53,-181.46 133.14,-167.02 142.94,-155.81"/>
<polygon fill="midnightblue" stroke="midnightblue" points="145.82,-157.84 149.76,-148.01 140.55,-153.24 145.82,-157.84"/>
</g>
</g>
</svg>
