<?xml version="1.0" encoding="UTF-8" standalone="no"?>
<!DOCTYPE svg PUBLIC "-//W3C//DTD SVG 1.1//EN"
 "http://www.w3.org/Graphics/SVG/1.1/DTD/svg11.dtd">
<!-- Generated by graphviz version 2.38.0 (20140413.2041)
 -->
<!-- Title: boost/ui/frame.hpp Pages: 1 -->
<svg width="5905pt" height="274pt"
 viewBox="0.00 0.00 5905.00 274.00" xmlns="http://www.w3.org/2000/svg" xmlns:xlink="http://www.w3.org/1999/xlink">
<g id="graph0" class="graph" transform="scale(1 1) rotate(0) translate(4 270)">
<title>boost/ui/frame.hpp</title>
<polygon fill="white" stroke="none" points="-4,4 -4,-270 5901,-270 5901,4 -4,4"/>
<!-- Node1 -->
<g id="node1" class="node"><title>Node1</title>
<polygon fill="#bfbfbf" stroke="black" points="346.5,-246.5 346.5,-265.5 444.5,-265.5 444.5,-246.5 346.5,-246.5"/>
<text text-anchor="middle" x="395.5" y="-253.5" font-family="Helvetica,sans-Serif" font-size="10.00">boost/ui/frame.hpp</text>
</g>
<!-- Node2 -->
<g id="node2" class="node"><title>Node2</title>
<g id="a_node2"><a xlink:href="config_8hpp.html" target="_top" xlink:title="Configuration options. ">
<polygon fill="white" stroke="black" points="0,-62 0,-81 99,-81 99,-62 0,-62"/>
<text text-anchor="middle" x="49.5" y="-69" font-family="Helvetica,sans-Serif" font-size="10.00">boost/ui/config.hpp</text>
</a>
</g>
</g>
<!-- Node1&#45;&gt;Node2 -->
<g id="edge1" class="edge"><title>Node1&#45;&gt;Node2</title>
<path fill="none" stroke="midnightblue" d="M346.29,-252.637C275.451,-248.336 149.308,-237.035 113.5,-210 74.5562,-180.597 58.4569,-121.706 52.5358,-91.4304"/>
<polygon fill="midnightblue" stroke="midnightblue" points="55.9394,-90.5795 50.7385,-81.3491 49.0481,-91.8082 55.9394,-90.5795"/>
</g>
<!-- Node4 -->
<g id="node4" class="node"><title>Node4</title>
<g id="a_node4"><a xlink:href="window_8hpp.html" target="_top" xlink:title="Window class. ">
<polygon fill="white" stroke="red" points="2828.5,-190.5 2828.5,-209.5 2934.5,-209.5 2934.5,-190.5 2828.5,-190.5"/>
<text text-anchor="middle" x="2881.5" y="-197.5" font-family="Helvetica,sans-Serif" font-size="10.00">boost/ui/window.hpp</text>
</a>
</g>
</g>
<!-- Node1&#45;&gt;Node4 -->
<g id="edge3" class="edge"><title>Node1&#45;&gt;Node4</title>
<path fill="none" stroke="midnightblue" d="M444.6,-253.933C757.112,-247.145 2466.7,-210.01 2818.27,-202.373"/>
<polygon fill="midnightblue" stroke="midnightblue" points="2818.35,-205.873 2828.28,-202.156 2818.2,-198.874 2818.35,-205.873"/>
</g>
<!-- Node11 -->
<g id="node11" class="node"><title>Node11</title>
<polygon fill="white" stroke="#bfbfbf" points="117.5,-56.5 117.5,-86.5 227.5,-86.5 227.5,-56.5 117.5,-56.5"/>
<text text-anchor="start" x="125.5" y="-74.5" font-family="Helvetica,sans-Serif" font-size="10.00">boost/ui/detail/shared</text>
<text text-anchor="middle" x="172.5" y="-63.5" font-family="Helvetica,sans-Serif" font-size="10.00">_count.hpp</text>
</g>
<!-- Node1&#45;&gt;Node11 -->
<g id="edge61" class="edge"><title>Node1&#45;&gt;Node11</title>
<path fill="none" stroke="midnightblue" d="M346.21,-255.318C293.765,-253.628 209.916,-244.972 147.5,-210 108.593,-188.2 76.5468,-162.369 97.5,-123 104.444,-109.954 116.424,-99.6733 128.797,-91.8887"/>
<polygon fill="midnightblue" stroke="midnightblue" points="130.918,-94.7046 137.81,-86.6576 127.404,-88.6505 130.918,-94.7046"/>
</g>
<!-- Node12 -->
<g id="node12" class="node"><title>Node12</title>
<polygon fill="white" stroke="#bfbfbf" points="2950,-62 2950,-81 3073,-81 3073,-62 2950,-62"/>
<text text-anchor="middle" x="3011.5" y="-69" font-family="Helvetica,sans-Serif" font-size="10.00">boost/ui/detail/event.hpp</text>
</g>
<!-- Node1&#45;&gt;Node12 -->
<g id="edge62" class="edge"><title>Node1&#45;&gt;Node12</title>
<path fill="none" stroke="midnightblue" d="M444.761,-255.025C976.15,-255.187 5629.73,-253.753 5727.5,-154 5737.14,-144.16 5737.15,-132.832 5727.5,-123 5679.82,-74.4219 3507.94,-72.3923 3083.13,-72.4605"/>
<polygon fill="midnightblue" stroke="midnightblue" points="3083.13,-68.9604 3073.13,-72.4625 3083.13,-75.9604 3083.13,-68.9604"/>
</g>
<!-- Node13 -->
<g id="node13" class="node"><title>Node13</title>
<polygon fill="white" stroke="#bfbfbf" points="409,-129 409,-148 508,-148 508,-129 409,-129"/>
<text text-anchor="middle" x="458.5" y="-136" font-family="Helvetica,sans-Serif" font-size="10.00">boost/ui/config.hpp</text>
</g>
<!-- Node1&#45;&gt;Node13 -->
<g id="edge53" class="edge"><title>Node1&#45;&gt;Node13</title>
<path fill="none" stroke="midnightblue" d="M400.235,-246.319C410.542,-227.422 435.183,-182.248 448.889,-157.121"/>
<polygon fill="midnightblue" stroke="midnightblue" points="451.994,-158.737 453.71,-148.282 445.849,-155.385 451.994,-158.737"/>
</g>
<!-- Node48 -->
<g id="node48" class="node"><title>Node48</title>
<polygon fill="white" stroke="#bfbfbf" points="274,-129 274,-148 391,-148 391,-129 274,-129"/>
<text text-anchor="middle" x="332.5" y="-136" font-family="Helvetica,sans-Serif" font-size="10.00">boost/noncopyable.hpp</text>
</g>
<!-- Node1&#45;&gt;Node48 -->
<g id="edge63" class="edge"><title>Node1&#45;&gt;Node48</title>
<path fill="none" stroke="midnightblue" d="M390.765,-246.319C380.458,-227.422 355.817,-182.248 342.111,-157.121"/>
<polygon fill="midnightblue" stroke="midnightblue" points="345.151,-155.385 337.29,-148.282 339.006,-158.737 345.151,-155.385"/>
</g>
<!-- Node49 -->
<g id="node49" class="node"><title>Node49</title>
<polygon fill="white" stroke="#bfbfbf" points="5796,-190.5 5796,-209.5 5897,-209.5 5897,-190.5 5796,-190.5"/>
<text text-anchor="middle" x="5846.5" y="-197.5" font-family="Helvetica,sans-Serif" font-size="10.00">boost/ui/widget.hpp</text>
</g>
<!-- Node1&#45;&gt;Node49 -->
<g id="edge54" class="edge"><title>Node1&#45;&gt;Node49</title>
<path fill="none" stroke="midnightblue" d="M444.586,-254.977C951.203,-254.687 5220.18,-251.033 5781.5,-210 5782.81,-209.904 5784.13,-209.799 5785.47,-209.685"/>
<polygon fill="midnightblue" stroke="midnightblue" points="5786.22,-213.128 5795.83,-208.661 5785.53,-206.162 5786.22,-213.128"/>
</g>
<!-- Node50 -->
<g id="node50" class="node"><title>Node50</title>
<g id="a_node50"><a xlink:href="menu_8hpp.html" target="_top" xlink:title="Menu classes. ">
<polygon fill="white" stroke="black" points="157,-190.5 157,-209.5 254,-209.5 254,-190.5 157,-190.5"/>
<text text-anchor="middle" x="205.5" y="-197.5" font-family="Helvetica,sans-Serif" font-size="10.00">boost/ui/menu.hpp</text>
</a>
</g>
</g>
<!-- Node1&#45;&gt;Node50 -->
<g id="edge55" class="edge"><title>Node1&#45;&gt;Node50</title>
<path fill="none" stroke="midnightblue" d="M365.394,-246.444C332.874,-237.201 280.921,-222.436 245.109,-212.257"/>
<polygon fill="midnightblue" stroke="midnightblue" points="246.041,-208.884 235.465,-209.516 244.127,-215.617 246.041,-208.884"/>
</g>
<!-- Node3 -->
<g id="node3" class="node"><title>Node3</title>
<polygon fill="white" stroke="#bfbfbf" points="2883,-0.5 2883,-19.5 2972,-19.5 2972,-0.5 2883,-0.5"/>
<text text-anchor="middle" x="2927.5" y="-7.5" font-family="Helvetica,sans-Serif" font-size="10.00">boost/config.hpp</text>
</g>
<!-- Node2&#45;&gt;Node3 -->
<g id="edge2" class="edge"><title>Node2&#45;&gt;Node3</title>
<path fill="none" stroke="midnightblue" d="M78.6642,-61.9554C88.1,-59.5627 98.6667,-57.2703 108.5,-56 391.881,-19.3912 2503.66,-12.1272 2872.59,-11.1333"/>
<polygon fill="midnightblue" stroke="midnightblue" points="2872.75,-14.633 2882.75,-11.1064 2872.74,-7.63301 2872.75,-14.633"/>
</g>
<!-- Node4&#45;&gt;Node2 -->
<g id="edge4" class="edge"><title>Node4&#45;&gt;Node2</title>
<path fill="none" stroke="midnightblue" d="M2828.4,-199.033C2491.28,-199.112 659.715,-197.532 550.5,-154 531.504,-146.428 535.225,-131.22 516.5,-123 349.815,-49.8304 288.08,-116.81 108.5,-87 102.634,-86.0262 96.4902,-84.7782 90.4757,-83.4239"/>
<polygon fill="midnightblue" stroke="midnightblue" points="91.0848,-79.9714 80.5475,-81.074 89.4724,-86.7832 91.0848,-79.9714"/>
</g>
<!-- Node4&#45;&gt;Node3 -->
<g id="edge5" class="edge"><title>Node4&#45;&gt;Node3</title>
<path fill="none" stroke="midnightblue" d="M2934.78,-199.185C3320.92,-200.406 5676.59,-205.726 5727.5,-154 5737.17,-144.181 5737.05,-132.935 5727.5,-123 5628.78,-20.2526 3365.22,-11.7639 2982.29,-11.063"/>
<polygon fill="midnightblue" stroke="midnightblue" points="2982.03,-7.56267 2972.03,-11.0453 2982.02,-14.5627 2982.03,-7.56267"/>
</g>
<!-- Node5 -->
<g id="node5" class="node"><title>Node5</title>
<polygon fill="white" stroke="#bfbfbf" points="5099.5,-129 5099.5,-148 5209.5,-148 5209.5,-129 5099.5,-129"/>
<text text-anchor="middle" x="5154.5" y="-136" font-family="Helvetica,sans-Serif" font-size="10.00">boost/config/user.hpp</text>
</g>
<!-- Node4&#45;&gt;Node5 -->
<g id="edge6" class="edge"><title>Node4&#45;&gt;Node5</title>
<path fill="none" stroke="midnightblue" d="M2934.55,-198.563C3249.81,-195.879 4870.67,-180.86 5090.5,-154 5097.81,-153.107 5105.51,-151.741 5112.93,-150.197"/>
<polygon fill="midnightblue" stroke="midnightblue" points="5113.81,-153.587 5122.82,-148.01 5112.3,-146.752 5113.81,-153.587"/>
</g>
<!-- Node6 -->
<g id="node6" class="node"><title>Node6</title>
<polygon fill="white" stroke="#bfbfbf" points="5227.5,-123.5 5227.5,-153.5 5365.5,-153.5 5365.5,-123.5 5227.5,-123.5"/>
<text text-anchor="start" x="5235.5" y="-141.5" font-family="Helvetica,sans-Serif" font-size="10.00">boost/config/detail</text>
<text text-anchor="middle" x="5296.5" y="-130.5" font-family="Helvetica,sans-Serif" font-size="10.00">/select_compiler_config.hpp</text>
</g>
<!-- Node4&#45;&gt;Node6 -->
<g id="edge7" class="edge"><title>Node4&#45;&gt;Node6</title>
<path fill="none" stroke="midnightblue" d="M2934.55,-199.165C3235.64,-199.926 4732.82,-201.279 5217.06,-154.001"/>
<polygon fill="midnightblue" stroke="midnightblue" points="5217.66,-157.458 5227.26,-152.982 5216.96,-150.493 5217.66,-157.458"/>
</g>
<!-- Node7 -->
<g id="node7" class="node"><title>Node7</title>
<polygon fill="white" stroke="#bfbfbf" points="5384,-123.5 5384,-153.5 5521,-153.5 5521,-123.5 5384,-123.5"/>
<text text-anchor="start" x="5392" y="-141.5" font-family="Helvetica,sans-Serif" font-size="10.00">boost/config/detail</text>
<text text-anchor="middle" x="5452.5" y="-130.5" font-family="Helvetica,sans-Serif" font-size="10.00">/select_platform_config.hpp</text>
</g>
<!-- Node4&#45;&gt;Node7 -->
<g id="edge8" class="edge"><title>Node4&#45;&gt;Node7</title>
<path fill="none" stroke="midnightblue" d="M2934.72,-199.241C3248.05,-200.477 4856.07,-204.283 5373.53,-153.941"/>
<polygon fill="midnightblue" stroke="midnightblue" points="5374.08,-157.404 5383.69,-152.932 5373.39,-150.438 5374.08,-157.404"/>
</g>
<!-- Node8 -->
<g id="node8" class="node"><title>Node8</title>
<polygon fill="white" stroke="#bfbfbf" points="5539.5,-123.5 5539.5,-153.5 5635.5,-153.5 5635.5,-123.5 5539.5,-123.5"/>
<text text-anchor="start" x="5547.5" y="-141.5" font-family="Helvetica,sans-Serif" font-size="10.00">boost/config/detail</text>
<text text-anchor="middle" x="5587.5" y="-130.5" font-family="Helvetica,sans-Serif" font-size="10.00">/suffix.hpp</text>
</g>
<!-- Node4&#45;&gt;Node8 -->
<g id="edge9" class="edge"><title>Node4&#45;&gt;Node8</title>
<path fill="none" stroke="midnightblue" d="M2934.53,-198.839C3281.1,-197.69 5218.55,-189.759 5529.1,-153.847"/>
<polygon fill="midnightblue" stroke="midnightblue" points="5529.96,-157.266 5539.45,-152.557 5529.1,-150.32 5529.96,-157.266"/>
</g>
<!-- Node9 -->
<g id="node9" class="node"><title>Node9</title>
<polygon fill="white" stroke="#bfbfbf" points="5653.5,-129 5653.5,-148 5701.5,-148 5701.5,-129 5653.5,-129"/>
<text text-anchor="middle" x="5677.5" y="-136" font-family="Helvetica,sans-Serif" font-size="10.00">limits.h</text>
</g>
<!-- Node4&#45;&gt;Node9 -->
<g id="edge10" class="edge"><title>Node4&#45;&gt;Node9</title>
<path fill="none" stroke="midnightblue" d="M2934.67,-198.732C3306.56,-196.781 5507.22,-183.998 5644.5,-154 5647.01,-153.451 5649.57,-152.703 5652.1,-151.836"/>
<polygon fill="midnightblue" stroke="midnightblue" points="5653.51,-155.039 5661.48,-148.062 5650.9,-148.545 5653.51,-155.039"/>
</g>
<!-- Node10 -->
<g id="node10" class="node"><title>Node10</title>
<g id="a_node10"><a xlink:href="widget_8hpp.html" target="_top" xlink:title="Widget class. ">
<polygon fill="white" stroke="red" points="116,-129 116,-148 217,-148 217,-129 116,-129"/>
<text text-anchor="middle" x="166.5" y="-136" font-family="Helvetica,sans-Serif" font-size="10.00">boost/ui/widget.hpp</text>
</a>
</g>
</g>
<!-- Node4&#45;&gt;Node10 -->
<g id="edge11" class="edge"><title>Node4&#45;&gt;Node10</title>
<path fill="none" stroke="midnightblue" d="M2828.32,-199.027C2503.97,-199.048 788.566,-197.093 264.5,-154 251.854,-152.96 238.357,-151.315 225.551,-149.501"/>
<polygon fill="midnightblue" stroke="midnightblue" points="225.86,-146.009 215.458,-148.017 224.842,-152.934 225.86,-146.009"/>
</g>
<!-- Node4&#45;&gt;Node11 -->
<g id="edge51" class="edge"><title>Node4&#45;&gt;Node11</title>
<path fill="none" stroke="midnightblue" d="M2828.39,-198.835C2495.24,-197.692 703.997,-189.888 594.5,-154 571.768,-146.55 572.774,-131.724 550.5,-123 446.366,-82.2155 315.082,-73.2662 237.814,-71.897"/>
<polygon fill="midnightblue" stroke="midnightblue" points="237.788,-68.3964 227.74,-71.7562 237.69,-75.3957 237.788,-68.3964"/>
</g>
<!-- Node4&#45;&gt;Node12 -->
<g id="edge52" class="edge"><title>Node4&#45;&gt;Node12</title>
<path fill="none" stroke="midnightblue" d="M2934.77,-199.18C3319.54,-200.359 5659.91,-205.405 5710.5,-154 5720.16,-144.18 5720.15,-132.833 5710.5,-123 5663.14,-74.7479 3507.05,-72.4536 3083.33,-72.4691"/>
<polygon fill="midnightblue" stroke="midnightblue" points="3083.06,-68.969 3073.06,-72.47 3083.06,-75.969 3083.06,-68.969"/>
</g>
<!-- Node4&#45;&gt;Node13 -->
<g id="edge15" class="edge"><title>Node4&#45;&gt;Node13</title>
<path fill="none" stroke="midnightblue" d="M2828.35,-198.636C2500.38,-196.303 758.092,-182.632 522.5,-154 515.191,-153.112 507.494,-151.748 500.07,-150.205"/>
<polygon fill="midnightblue" stroke="midnightblue" points="500.698,-146.76 490.179,-148.019 499.187,-153.595 500.698,-146.76"/>
</g>
<!-- Node14 -->
<g id="node14" class="node"><title>Node14</title>
<polygon fill="white" stroke="#bfbfbf" points="603,-129 603,-148 700,-148 700,-129 603,-129"/>
<text text-anchor="middle" x="651.5" y="-136" font-family="Helvetica,sans-Serif" font-size="10.00">boost/ui/coord.hpp</text>
</g>
<!-- Node4&#45;&gt;Node14 -->
<g id="edge16" class="edge"><title>Node4&#45;&gt;Node14</title>
<path fill="none" stroke="midnightblue" d="M2828.32,-198.612C2515.85,-196.239 925.101,-182.812 709.5,-154 703.154,-153.152 696.498,-151.871 690.051,-150.414"/>
<polygon fill="midnightblue" stroke="midnightblue" points="690.708,-146.972 680.165,-148.018 689.059,-153.775 690.708,-146.972"/>
</g>
<!-- Node15 -->
<g id="node15" class="node"><title>Node15</title>
<polygon fill="white" stroke="#bfbfbf" points="718,-129 718,-148 821,-148 821,-129 718,-129"/>
<text text-anchor="middle" x="769.5" y="-136" font-family="Helvetica,sans-Serif" font-size="10.00">boost/geometry.hpp</text>
</g>
<!-- Node4&#45;&gt;Node15 -->
<g id="edge17" class="edge"><title>Node4&#45;&gt;Node15</title>
<path fill="none" stroke="midnightblue" d="M2828.12,-198.504C2525.68,-195.603 1033.52,-180.058 830.5,-154 823.681,-153.125 816.514,-151.799 809.586,-150.298"/>
<polygon fill="midnightblue" stroke="midnightblue" points="810.205,-146.849 799.674,-148.006 808.628,-153.669 810.205,-146.849"/>
</g>
<!-- Node16 -->
<g id="node16" class="node"><title>Node16</title>
<polygon fill="white" stroke="#bfbfbf" points="839.5,-129 839.5,-148 985.5,-148 985.5,-129 839.5,-129"/>
<text text-anchor="middle" x="912.5" y="-136" font-family="Helvetica,sans-Serif" font-size="10.00">boost/geometry/geometry.hpp</text>
</g>
<!-- Node4&#45;&gt;Node16 -->
<g id="edge18" class="edge"><title>Node4&#45;&gt;Node16</title>
<path fill="none" stroke="midnightblue" d="M2828.15,-198.818C2560.72,-197.74 1364.4,-190.901 994.5,-154 984.466,-152.999 973.813,-151.467 963.622,-149.768"/>
<polygon fill="midnightblue" stroke="midnightblue" points="964.078,-146.295 953.626,-148.026 962.877,-153.191 964.078,-146.295"/>
</g>
<!-- Node17 -->
<g id="node17" class="node"><title>Node17</title>
<polygon fill="white" stroke="#bfbfbf" points="1003.5,-123.5 1003.5,-153.5 1109.5,-153.5 1109.5,-123.5 1003.5,-123.5"/>
<text text-anchor="start" x="1011.5" y="-141.5" font-family="Helvetica,sans-Serif" font-size="10.00">boost/geometry/core</text>
<text text-anchor="middle" x="1056.5" y="-130.5" font-family="Helvetica,sans-Serif" font-size="10.00">/closure.hpp</text>
</g>
<!-- Node4&#45;&gt;Node17 -->
<g id="edge19" class="edge"><title>Node4&#45;&gt;Node17</title>
<path fill="none" stroke="midnightblue" d="M2828.25,-199.106C2574.09,-199.388 1482,-198.039 1119.79,-153.946"/>
<polygon fill="midnightblue" stroke="midnightblue" points="1120.17,-150.465 1109.81,-152.696 1119.3,-157.411 1120.17,-150.465"/>
</g>
<!-- Node18 -->
<g id="node18" class="node"><title>Node18</title>
<polygon fill="white" stroke="#bfbfbf" points="1127.5,-129 1127.5,-148 1235.5,-148 1235.5,-129 1127.5,-129"/>
<text text-anchor="middle" x="1181.5" y="-136" font-family="Helvetica,sans-Serif" font-size="10.00">boost/mpl/assert.hpp</text>
</g>
<!-- Node4&#45;&gt;Node18 -->
<g id="edge20" class="edge"><title>Node4&#45;&gt;Node18</title>
<path fill="none" stroke="midnightblue" d="M2828.48,-198.934C2583.81,-198.415 1562.3,-193.856 1245.5,-154 1238.27,-153.091 1230.66,-151.731 1223.31,-150.203"/>
<polygon fill="midnightblue" stroke="midnightblue" points="1224.03,-146.777 1213.51,-148.041 1222.52,-153.613 1224.03,-146.777"/>
</g>
<!-- Node19 -->
<g id="node19" class="node"><title>Node19</title>
<polygon fill="white" stroke="#bfbfbf" points="1254,-129 1254,-148 1349,-148 1349,-129 1254,-129"/>
<text text-anchor="middle" x="1301.5" y="-136" font-family="Helvetica,sans-Serif" font-size="10.00">boost/mpl/not.hpp</text>
</g>
<!-- Node4&#45;&gt;Node19 -->
<g id="edge21" class="edge"><title>Node4&#45;&gt;Node19</title>
<path fill="none" stroke="midnightblue" d="M2828.25,-198.993C2593.68,-198.723 1651.24,-195.051 1358.5,-154 1352.48,-153.155 1346.17,-151.918 1340.04,-150.517"/>
<polygon fill="midnightblue" stroke="midnightblue" points="1340.51,-147.029 1329.96,-148.046 1338.84,-153.828 1340.51,-147.029"/>
</g>
<!-- Node20 -->
<g id="node20" class="node"><title>Node20</title>
<polygon fill="white" stroke="#bfbfbf" points="1367,-129 1367,-148 1466,-148 1466,-129 1367,-129"/>
<text text-anchor="middle" x="1416.5" y="-136" font-family="Helvetica,sans-Serif" font-size="10.00">boost/mpl/bool.hpp</text>
</g>
<!-- Node4&#45;&gt;Node20 -->
<g id="edge22" class="edge"><title>Node4&#45;&gt;Node20</title>
<path fill="none" stroke="midnightblue" d="M2828.27,-198.783C2605.14,-197.646 1744.22,-190.907 1475.5,-154 1469.12,-153.124 1462.43,-151.842 1455.94,-150.396"/>
<polygon fill="midnightblue" stroke="midnightblue" points="1456.52,-146.936 1445.98,-148.026 1454.9,-153.746 1456.52,-146.936"/>
</g>
<!-- Node21 -->
<g id="node21" class="node"><title>Node21</title>
<polygon fill="white" stroke="#bfbfbf" points="1484.5,-129 1484.5,-148 1604.5,-148 1604.5,-129 1484.5,-129"/>
<text text-anchor="middle" x="1544.5" y="-136" font-family="Helvetica,sans-Serif" font-size="10.00">boost/mpl/bool_fwd.hpp</text>
</g>
<!-- Node4&#45;&gt;Node21 -->
<g id="edge23" class="edge"><title>Node4&#45;&gt;Node21</title>
<path fill="none" stroke="midnightblue" d="M2828.35,-198.308C2619.55,-195.405 1855.15,-182.988 1614.5,-154 1606.44,-153.029 1597.93,-151.608 1589.73,-150.03"/>
<polygon fill="midnightblue" stroke="midnightblue" points="1590.41,-146.598 1579.92,-148.047 1589.03,-153.46 1590.41,-146.598"/>
</g>
<!-- Node22 -->
<g id="node22" class="node"><title>Node22</title>
<polygon fill="white" stroke="#bfbfbf" points="1623,-123.5 1623,-153.5 1722,-153.5 1722,-123.5 1623,-123.5"/>
<text text-anchor="start" x="1631" y="-141.5" font-family="Helvetica,sans-Serif" font-size="10.00">boost/mpl/aux_/adl</text>
<text text-anchor="middle" x="1672.5" y="-130.5" font-family="Helvetica,sans-Serif" font-size="10.00">_barrier.hpp</text>
</g>
<!-- Node4&#45;&gt;Node22 -->
<g id="edge24" class="edge"><title>Node4&#45;&gt;Node22</title>
<path fill="none" stroke="midnightblue" d="M2828.28,-198.343C2634.68,-195.735 1967.47,-184.781 1732.45,-153.869"/>
<polygon fill="midnightblue" stroke="midnightblue" points="1732.64,-150.362 1722.26,-152.477 1731.69,-157.298 1732.64,-150.362"/>
</g>
<!-- Node23 -->
<g id="node23" class="node"><title>Node23</title>
<polygon fill="white" stroke="#bfbfbf" points="1740,-123.5 1740,-153.5 1853,-153.5 1853,-123.5 1740,-123.5"/>
<text text-anchor="start" x="1748" y="-141.5" font-family="Helvetica,sans-Serif" font-size="10.00">boost/mpl/aux_/config</text>
<text text-anchor="middle" x="1796.5" y="-130.5" font-family="Helvetica,sans-Serif" font-size="10.00">/adl.hpp</text>
</g>
<!-- Node4&#45;&gt;Node23 -->
<g id="edge25" class="edge"><title>Node4&#45;&gt;Node23</title>
<path fill="none" stroke="midnightblue" d="M2828.21,-197.859C2649.53,-193.846 2071.65,-179.309 1863.49,-153.918"/>
<polygon fill="midnightblue" stroke="midnightblue" points="1863.63,-150.408 1853.27,-152.623 1862.75,-157.352 1863.63,-150.408"/>
</g>
<!-- Node24 -->
<g id="node24" class="node"><title>Node24</title>
<polygon fill="white" stroke="#bfbfbf" points="1871,-123.5 1871,-153.5 1984,-153.5 1984,-123.5 1871,-123.5"/>
<text text-anchor="start" x="1879" y="-141.5" font-family="Helvetica,sans-Serif" font-size="10.00">boost/mpl/aux_/config</text>
<text text-anchor="middle" x="1927.5" y="-130.5" font-family="Helvetica,sans-Serif" font-size="10.00">/msvc.hpp</text>
</g>
<!-- Node4&#45;&gt;Node24 -->
<g id="edge26" class="edge"><title>Node4&#45;&gt;Node24</title>
<path fill="none" stroke="midnightblue" d="M2828.42,-199.364C2691.63,-199.65 2315.9,-196.302 1994.25,-153.929"/>
<polygon fill="midnightblue" stroke="midnightblue" points="1994.65,-150.45 1984.28,-152.599 1993.73,-157.389 1994.65,-150.45"/>
</g>
<!-- Node25 -->
<g id="node25" class="node"><title>Node25</title>
<polygon fill="white" stroke="#bfbfbf" points="2002,-123.5 2002,-153.5 2115,-153.5 2115,-123.5 2002,-123.5"/>
<text text-anchor="start" x="2010" y="-141.5" font-family="Helvetica,sans-Serif" font-size="10.00">boost/mpl/aux_/config</text>
<text text-anchor="middle" x="2058.5" y="-130.5" font-family="Helvetica,sans-Serif" font-size="10.00">/intel.hpp</text>
</g>
<!-- Node4&#45;&gt;Node25 -->
<g id="edge27" class="edge"><title>Node4&#45;&gt;Node25</title>
<path fill="none" stroke="midnightblue" d="M2828.45,-198.7C2706.1,-197.396 2394.67,-190.57 2125.25,-153.939"/>
<polygon fill="midnightblue" stroke="midnightblue" points="2125.66,-150.463 2115.28,-152.567 2124.71,-157.398 2125.66,-150.463"/>
</g>
<!-- Node26 -->
<g id="node26" class="node"><title>Node26</title>
<polygon fill="white" stroke="#bfbfbf" points="2133,-123.5 2133,-153.5 2246,-153.5 2246,-123.5 2133,-123.5"/>
<text text-anchor="start" x="2141" y="-141.5" font-family="Helvetica,sans-Serif" font-size="10.00">boost/mpl/aux_/config</text>
<text text-anchor="middle" x="2189.5" y="-130.5" font-family="Helvetica,sans-Serif" font-size="10.00">/gcc.hpp</text>
</g>
<!-- Node4&#45;&gt;Node26 -->
<g id="edge28" class="edge"><title>Node4&#45;&gt;Node26</title>
<path fill="none" stroke="midnightblue" d="M2828.46,-197.77C2721.86,-194.74 2473.97,-184.876 2256.3,-153.962"/>
<polygon fill="midnightblue" stroke="midnightblue" points="2256.68,-150.481 2246.29,-152.522 2255.69,-157.41 2256.68,-150.481"/>
</g>
<!-- Node27 -->
<g id="node27" class="node"><title>Node27</title>
<polygon fill="white" stroke="#bfbfbf" points="2264,-123.5 2264,-153.5 2377,-153.5 2377,-123.5 2264,-123.5"/>
<text text-anchor="start" x="2272" y="-141.5" font-family="Helvetica,sans-Serif" font-size="10.00">boost/mpl/aux_/config</text>
<text text-anchor="middle" x="2320.5" y="-130.5" font-family="Helvetica,sans-Serif" font-size="10.00">/workaround.hpp</text>
</g>
<!-- Node4&#45;&gt;Node27 -->
<g id="edge29" class="edge"><title>Node4&#45;&gt;Node27</title>
<path fill="none" stroke="midnightblue" d="M2828.49,-196.371C2739.38,-191.473 2553.83,-179.223 2387.23,-153.977"/>
<polygon fill="midnightblue" stroke="midnightblue" points="2387.71,-150.51 2377.3,-152.453 2386.65,-157.429 2387.71,-150.51"/>
</g>
<!-- Node28 -->
<g id="node28" class="node"><title>Node28</title>
<polygon fill="white" stroke="#bfbfbf" points="2395,-129 2395,-148 2534,-148 2534,-129 2395,-129"/>
<text text-anchor="middle" x="2464.5" y="-136" font-family="Helvetica,sans-Serif" font-size="10.00">boost/detail/workaround.hpp</text>
</g>
<!-- Node4&#45;&gt;Node28 -->
<g id="edge30" class="edge"><title>Node4&#45;&gt;Node28</title>
<path fill="none" stroke="midnightblue" d="M2828.4,-192.75C2761.73,-184.714 2643.92,-169.891 2543.5,-154 2535.47,-152.729 2527,-151.286 2518.71,-149.813"/>
<polygon fill="midnightblue" stroke="midnightblue" points="2519.19,-146.343 2508.72,-148.013 2517.94,-153.232 2519.19,-146.343"/>
</g>
<!-- Node29 -->
<g id="node29" class="node"><title>Node29</title>
<polygon fill="white" stroke="#bfbfbf" points="2552.5,-129 2552.5,-148 2694.5,-148 2694.5,-129 2552.5,-129"/>
<text text-anchor="middle" x="2623.5" y="-136" font-family="Helvetica,sans-Serif" font-size="10.00">boost/config/workaround.hpp</text>
</g>
<!-- Node4&#45;&gt;Node29 -->
<g id="edge31" class="edge"><title>Node4&#45;&gt;Node29</title>
<path fill="none" stroke="midnightblue" d="M2844.53,-190.475C2798.65,-179.893 2720.35,-161.836 2670.32,-150.297"/>
<polygon fill="midnightblue" stroke="midnightblue" points="2670.93,-146.846 2660.4,-148.009 2669.35,-153.667 2670.93,-146.846"/>
</g>
<!-- Node30 -->
<g id="node30" class="node"><title>Node30</title>
<polygon fill="white" stroke="#bfbfbf" points="2712.5,-123.5 2712.5,-153.5 2806.5,-153.5 2806.5,-123.5 2712.5,-123.5"/>
<text text-anchor="start" x="2720.5" y="-141.5" font-family="Helvetica,sans-Serif" font-size="10.00">boost/mpl/integral</text>
<text text-anchor="middle" x="2759.5" y="-130.5" font-family="Helvetica,sans-Serif" font-size="10.00">_c_tag.hpp</text>
</g>
<!-- Node4&#45;&gt;Node30 -->
<g id="edge32" class="edge"><title>Node4&#45;&gt;Node30</title>
<path fill="none" stroke="midnightblue" d="M2864.02,-190.475C2846.73,-182.04 2819.69,-168.855 2797.45,-158.008"/>
<polygon fill="midnightblue" stroke="midnightblue" points="2798.78,-154.761 2788.25,-153.523 2795.71,-161.052 2798.78,-154.761"/>
</g>
<!-- Node31 -->
<g id="node31" class="node"><title>Node31</title>
<polygon fill="white" stroke="#bfbfbf" points="2825,-123.5 2825,-153.5 2938,-153.5 2938,-123.5 2825,-123.5"/>
<text text-anchor="start" x="2833" y="-141.5" font-family="Helvetica,sans-Serif" font-size="10.00">boost/mpl/aux_/config</text>
<text text-anchor="middle" x="2881.5" y="-130.5" font-family="Helvetica,sans-Serif" font-size="10.00">/static_constant.hpp</text>
</g>
<!-- Node4&#45;&gt;Node31 -->
<g id="edge33" class="edge"><title>Node4&#45;&gt;Node31</title>
<path fill="none" stroke="midnightblue" d="M2881.5,-190.475C2881.5,-183.471 2881.5,-173.192 2881.5,-163.696"/>
<polygon fill="midnightblue" stroke="midnightblue" points="2885,-163.523 2881.5,-153.523 2878,-163.523 2885,-163.523"/>
</g>
<!-- Node32 -->
<g id="node32" class="node"><title>Node32</title>
<polygon fill="white" stroke="#bfbfbf" points="2956,-123.5 2956,-153.5 3059,-153.5 3059,-123.5 2956,-123.5"/>
<text text-anchor="start" x="2964" y="-141.5" font-family="Helvetica,sans-Serif" font-size="10.00">boost/mpl/aux_/nttp</text>
<text text-anchor="middle" x="3007.5" y="-130.5" font-family="Helvetica,sans-Serif" font-size="10.00">_decl.hpp</text>
</g>
<!-- Node4&#45;&gt;Node32 -->
<g id="edge34" class="edge"><title>Node4&#45;&gt;Node32</title>
<path fill="none" stroke="midnightblue" d="M2899.55,-190.475C2917.49,-182.002 2945.59,-168.737 2968.61,-157.863"/>
<polygon fill="midnightblue" stroke="midnightblue" points="2970.26,-160.958 2977.8,-153.523 2967.27,-154.628 2970.26,-160.958"/>
</g>
<!-- Node33 -->
<g id="node33" class="node"><title>Node33</title>
<polygon fill="white" stroke="#bfbfbf" points="3077,-123.5 3077,-153.5 3190,-153.5 3190,-123.5 3077,-123.5"/>
<text text-anchor="start" x="3085" y="-141.5" font-family="Helvetica,sans-Serif" font-size="10.00">boost/mpl/aux_/config</text>
<text text-anchor="middle" x="3133.5" y="-130.5" font-family="Helvetica,sans-Serif" font-size="10.00">/nttp.hpp</text>
</g>
<!-- Node4&#45;&gt;Node33 -->
<g id="edge35" class="edge"><title>Node4&#45;&gt;Node33</title>
<path fill="none" stroke="midnightblue" d="M2917.61,-190.475C2956.36,-181.325 3018.78,-166.586 3066.56,-155.305"/>
<polygon fill="midnightblue" stroke="midnightblue" points="3067.59,-158.658 3076.52,-152.953 3065.98,-151.845 3067.59,-158.658"/>
</g>
<!-- Node34 -->
<g id="node34" class="node"><title>Node34</title>
<polygon fill="white" stroke="#bfbfbf" points="3208.5,-123.5 3208.5,-153.5 3324.5,-153.5 3324.5,-123.5 3208.5,-123.5"/>
<text text-anchor="start" x="3216.5" y="-141.5" font-family="Helvetica,sans-Serif" font-size="10.00">boost/mpl/aux_/nested</text>
<text text-anchor="middle" x="3266.5" y="-130.5" font-family="Helvetica,sans-Serif" font-size="10.00">_type_wknd.hpp</text>
</g>
<!-- Node4&#45;&gt;Node34 -->
<g id="edge36" class="edge"><title>Node4&#45;&gt;Node34</title>
<path fill="none" stroke="midnightblue" d="M2934.58,-192.685C2995.83,-185.131 3099.77,-171.493 3198.59,-154.085"/>
<polygon fill="midnightblue" stroke="midnightblue" points="3199.21,-157.53 3208.45,-152.334 3197.99,-150.638 3199.21,-157.53"/>
</g>
<!-- Node35 -->
<g id="node35" class="node"><title>Node35</title>
<polygon fill="white" stroke="#bfbfbf" points="3342.5,-129 3342.5,-148 3484.5,-148 3484.5,-129 3342.5,-129"/>
<text text-anchor="middle" x="3413.5" y="-136" font-family="Helvetica,sans-Serif" font-size="10.00">boost/mpl/aux_/na_spec.hpp</text>
</g>
<!-- Node4&#45;&gt;Node35 -->
<g id="edge37" class="edge"><title>Node4&#45;&gt;Node35</title>
<path fill="none" stroke="midnightblue" d="M2934.55,-195.104C3019.17,-188.577 3189.8,-174.143 3333.5,-154 3342.13,-152.79 3351.26,-151.32 3360.13,-149.786"/>
<polygon fill="midnightblue" stroke="midnightblue" points="3360.77,-153.227 3370.01,-148.037 3359.55,-146.334 3360.77,-153.227"/>
</g>
<!-- Node36 -->
<g id="node36" class="node"><title>Node36</title>
<polygon fill="white" stroke="#bfbfbf" points="3502.5,-129 3502.5,-148 3636.5,-148 3636.5,-129 3502.5,-129"/>
<text text-anchor="middle" x="3569.5" y="-136" font-family="Helvetica,sans-Serif" font-size="10.00">boost/mpl/lambda_fwd.hpp</text>
</g>
<!-- Node4&#45;&gt;Node36 -->
<g id="edge38" class="edge"><title>Node4&#45;&gt;Node36</title>
<path fill="none" stroke="midnightblue" d="M2934.51,-197.158C3040.89,-193.008 3287.8,-181.094 3493.5,-154 3501.92,-152.891 3510.82,-151.444 3519.45,-149.895"/>
<polygon fill="midnightblue" stroke="midnightblue" points="3520.22,-153.313 3529.41,-148.043 3518.94,-146.431 3520.22,-153.313"/>
</g>
<!-- Node37 -->
<g id="node37" class="node"><title>Node37</title>
<polygon fill="white" stroke="#bfbfbf" points="3654.5,-129 3654.5,-148 3774.5,-148 3774.5,-129 3654.5,-129"/>
<text text-anchor="middle" x="3714.5" y="-136" font-family="Helvetica,sans-Serif" font-size="10.00">boost/mpl/void_fwd.hpp</text>
</g>
<!-- Node4&#45;&gt;Node37 -->
<g id="edge39" class="edge"><title>Node4&#45;&gt;Node37</title>
<path fill="none" stroke="midnightblue" d="M2934.55,-198.576C3059.18,-196.994 3380.13,-189.498 3645.5,-154 3653.09,-152.984 3661.1,-151.599 3668.86,-150.085"/>
<polygon fill="midnightblue" stroke="midnightblue" points="3669.76,-153.472 3678.86,-148.041 3668.36,-146.613 3669.76,-153.472"/>
</g>
<!-- Node38 -->
<g id="node38" class="node"><title>Node38</title>
<polygon fill="white" stroke="#bfbfbf" points="3792.5,-129 3792.5,-148 3908.5,-148 3908.5,-129 3792.5,-129"/>
<text text-anchor="middle" x="3850.5" y="-136" font-family="Helvetica,sans-Serif" font-size="10.00">boost/mpl/aux_/na.hpp</text>
</g>
<!-- Node4&#45;&gt;Node38 -->
<g id="edge40" class="edge"><title>Node4&#45;&gt;Node38</title>
<path fill="none" stroke="midnightblue" d="M2934.64,-199.367C3074.36,-199.681 3463.3,-196.348 3783.5,-154 3790.97,-153.013 3798.83,-151.628 3806.45,-150.102"/>
<polygon fill="midnightblue" stroke="midnightblue" points="3807.2,-153.521 3816.26,-148.036 3805.75,-146.672 3807.2,-153.521"/>
</g>
<!-- Node39 -->
<g id="node39" class="node"><title>Node39</title>
<polygon fill="white" stroke="#bfbfbf" points="3927,-129 3927,-148 4064,-148 4064,-129 3927,-129"/>
<text text-anchor="middle" x="3995.5" y="-136" font-family="Helvetica,sans-Serif" font-size="10.00">boost/mpl/aux_/na_fwd.hpp</text>
</g>
<!-- Node4&#45;&gt;Node39 -->
<g id="edge41" class="edge"><title>Node4&#45;&gt;Node39</title>
<path fill="none" stroke="midnightblue" d="M2934.53,-199.317C3087.54,-199.669 3542.77,-196.755 3917.5,-154 3926.65,-152.957 3936.33,-151.47 3945.65,-149.842"/>
<polygon fill="midnightblue" stroke="midnightblue" points="3946.37,-153.269 3955.58,-148.035 3945.12,-146.383 3946.37,-153.269"/>
</g>
<!-- Node40 -->
<g id="node40" class="node"><title>Node40</title>
<polygon fill="white" stroke="#bfbfbf" points="4082,-123.5 4082,-153.5 4195,-153.5 4195,-123.5 4082,-123.5"/>
<text text-anchor="start" x="4090" y="-141.5" font-family="Helvetica,sans-Serif" font-size="10.00">boost/mpl/aux_/config</text>
<text text-anchor="middle" x="4138.5" y="-130.5" font-family="Helvetica,sans-Serif" font-size="10.00">/ctps.hpp</text>
</g>
<!-- Node4&#45;&gt;Node40 -->
<g id="edge42" class="edge"><title>Node4&#45;&gt;Node40</title>
<path fill="none" stroke="midnightblue" d="M2934.56,-198.279C3132.5,-195.395 3828.39,-183.445 4071.69,-154.043"/>
<polygon fill="midnightblue" stroke="midnightblue" points="4072.4,-157.481 4081.89,-152.765 4071.53,-150.535 4072.4,-157.481"/>
</g>
<!-- Node41 -->
<g id="node41" class="node"><title>Node41</title>
<polygon fill="white" stroke="#bfbfbf" points="4213,-123.5 4213,-153.5 4326,-153.5 4326,-123.5 4213,-123.5"/>
<text text-anchor="start" x="4221" y="-141.5" font-family="Helvetica,sans-Serif" font-size="10.00">boost/mpl/aux_/config</text>
<text text-anchor="middle" x="4269.5" y="-130.5" font-family="Helvetica,sans-Serif" font-size="10.00">/lambda.hpp</text>
</g>
<!-- Node4&#45;&gt;Node41 -->
<g id="edge43" class="edge"><title>Node4&#45;&gt;Node41</title>
<path fill="none" stroke="midnightblue" d="M2934.8,-198.507C3146.92,-196.342 3932.29,-186.358 4202.71,-154.035"/>
<polygon fill="midnightblue" stroke="midnightblue" points="4203.39,-157.478 4212.89,-152.777 4202.53,-150.531 4203.39,-157.478"/>
</g>
<!-- Node42 -->
<g id="node42" class="node"><title>Node42</title>
<polygon fill="white" stroke="#bfbfbf" points="4344,-123.5 4344,-153.5 4457,-153.5 4457,-123.5 4344,-123.5"/>
<text text-anchor="start" x="4352" y="-141.5" font-family="Helvetica,sans-Serif" font-size="10.00">boost/mpl/aux_/config</text>
<text text-anchor="middle" x="4400.5" y="-130.5" font-family="Helvetica,sans-Serif" font-size="10.00">/ttp.hpp</text>
</g>
<!-- Node4&#45;&gt;Node42 -->
<g id="edge44" class="edge"><title>Node4&#45;&gt;Node42</title>
<path fill="none" stroke="midnightblue" d="M2934.59,-198.698C3159.51,-197.212 4035.56,-189.316 4333.54,-154.054"/>
<polygon fill="midnightblue" stroke="midnightblue" points="4334.39,-157.476 4343.89,-152.788 4333.54,-150.527 4334.39,-157.476"/>
</g>
<!-- Node43 -->
<g id="node43" class="node"><title>Node43</title>
<polygon fill="white" stroke="#bfbfbf" points="4475.5,-129 4475.5,-148 4567.5,-148 4567.5,-129 4475.5,-129"/>
<text text-anchor="middle" x="4521.5" y="-136" font-family="Helvetica,sans-Serif" font-size="10.00">boost/mpl/int.hpp</text>
</g>
<!-- Node4&#45;&gt;Node43 -->
<g id="edge45" class="edge"><title>Node4&#45;&gt;Node43</title>
<path fill="none" stroke="midnightblue" d="M2934.9,-199.127C3175.59,-199.446 4161.16,-197.988 4466.5,-154 4472.32,-153.161 4478.41,-151.927 4484.33,-150.528"/>
<polygon fill="midnightblue" stroke="midnightblue" points="4485.23,-153.912 4494.06,-148.057 4483.5,-147.128 4485.23,-153.912"/>
</g>
<!-- Node44 -->
<g id="node44" class="node"><title>Node44</title>
<polygon fill="white" stroke="#bfbfbf" points="4586,-129 4586,-148 4699,-148 4699,-129 4586,-129"/>
<text text-anchor="middle" x="4642.5" y="-136" font-family="Helvetica,sans-Serif" font-size="10.00">boost/mpl/int_fwd.hpp</text>
</g>
<!-- Node4&#45;&gt;Node44 -->
<g id="edge46" class="edge"><title>Node4&#45;&gt;Node44</title>
<path fill="none" stroke="midnightblue" d="M2934.75,-198.946C3185.18,-198.484 4247.4,-194.151 4576.5,-154 4584.03,-153.081 4591.97,-151.702 4599.63,-150.152"/>
<polygon fill="midnightblue" stroke="midnightblue" points="4600.43,-153.56 4609.47,-148.043 4598.96,-146.715 4600.43,-153.56"/>
</g>
<!-- Node45 -->
<g id="node45" class="node"><title>Node45</title>
<polygon fill="white" stroke="#bfbfbf" points="4717.5,-123.5 4717.5,-153.5 4835.5,-153.5 4835.5,-123.5 4717.5,-123.5"/>
<text text-anchor="start" x="4725.5" y="-141.5" font-family="Helvetica,sans-Serif" font-size="10.00">boost/mpl/aux_/integral</text>
<text text-anchor="middle" x="4776.5" y="-130.5" font-family="Helvetica,sans-Serif" font-size="10.00">_wrapper.hpp</text>
</g>
<!-- Node4&#45;&gt;Node45 -->
<g id="edge47" class="edge"><title>Node4&#45;&gt;Node45</title>
<path fill="none" stroke="midnightblue" d="M2934.91,-199.021C3194.97,-198.921 4331.06,-196.101 4707.17,-153.968"/>
<polygon fill="midnightblue" stroke="midnightblue" points="4707.74,-157.426 4717.27,-152.806 4706.94,-150.472 4707.74,-157.426"/>
</g>
<!-- Node46 -->
<g id="node46" class="node"><title>Node46</title>
<polygon fill="white" stroke="#bfbfbf" points="4853.5,-123.5 4853.5,-153.5 4963.5,-153.5 4963.5,-123.5 4853.5,-123.5"/>
<text text-anchor="start" x="4861.5" y="-141.5" font-family="Helvetica,sans-Serif" font-size="10.00">boost/mpl/aux_/static</text>
<text text-anchor="middle" x="4908.5" y="-130.5" font-family="Helvetica,sans-Serif" font-size="10.00">_cast.hpp</text>
</g>
<!-- Node4&#45;&gt;Node46 -->
<g id="edge48" class="edge"><title>Node4&#45;&gt;Node46</title>
<path fill="none" stroke="midnightblue" d="M2934.76,-199.218C3206.29,-200.111 4438.96,-201.497 4843.48,-153.908"/>
<polygon fill="midnightblue" stroke="midnightblue" points="4843.96,-157.376 4853.47,-152.703 4843.12,-150.427 4843.96,-157.376"/>
</g>
<!-- Node47 -->
<g id="node47" class="node"><title>Node47</title>
<polygon fill="white" stroke="#bfbfbf" points="4981.5,-123.5 4981.5,-153.5 5081.5,-153.5 5081.5,-123.5 4981.5,-123.5"/>
<text text-anchor="start" x="4989.5" y="-141.5" font-family="Helvetica,sans-Serif" font-size="10.00">boost/preprocessor</text>
<text text-anchor="middle" x="5031.5" y="-130.5" font-family="Helvetica,sans-Serif" font-size="10.00">/cat.hpp</text>
</g>
<!-- Node4&#45;&gt;Node47 -->
<g id="edge49" class="edge"><title>Node4&#45;&gt;Node47</title>
<path fill="none" stroke="midnightblue" d="M2934.92,-198.552C3236.63,-195.927 4722.47,-181.749 4971.47,-153.81"/>
<polygon fill="midnightblue" stroke="midnightblue" points="4971.93,-157.281 4981.43,-152.598 4971.08,-150.332 4971.93,-157.281"/>
</g>
<!-- Node4&#45;&gt;Node48 -->
<g id="edge50" class="edge"><title>Node4&#45;&gt;Node48</title>
<path fill="none" stroke="midnightblue" d="M2828.34,-198.659C2490.44,-196.409 648.197,-182.886 399.5,-154 391.687,-153.092 383.442,-151.687 375.509,-150.101"/>
<polygon fill="midnightblue" stroke="midnightblue" points="376.192,-146.668 365.684,-148.02 374.741,-153.516 376.192,-146.668"/>
</g>
<!-- Node10&#45;&gt;Node2 -->
<g id="edge12" class="edge"><title>Node10&#45;&gt;Node2</title>
<path fill="none" stroke="midnightblue" d="M150.721,-128.734C130.985,-117.769 96.9856,-98.8809 73.889,-86.0495"/>
<polygon fill="midnightblue" stroke="midnightblue" points="75.4705,-82.9242 65.0291,-81.1273 72.071,-89.0433 75.4705,-82.9242"/>
</g>
<!-- Node10&#45;&gt;Node11 -->
<g id="edge13" class="edge"><title>Node10&#45;&gt;Node11</title>
<path fill="none" stroke="midnightblue" d="M167.309,-128.734C168.065,-120.541 169.23,-107.923 170.265,-96.7136"/>
<polygon fill="midnightblue" stroke="midnightblue" points="173.765,-96.8684 171.199,-86.589 166.795,-96.2249 173.765,-96.8684"/>
</g>
<!-- Node10&#45;&gt;Node12 -->
<g id="edge14" class="edge"><title>Node10&#45;&gt;Node12</title>
<path fill="none" stroke="midnightblue" d="M198.68,-128.977C209.078,-126.586 220.708,-124.288 231.5,-123 507.053,-90.1029 2530.69,-75.559 2939.59,-72.9402"/>
<polygon fill="midnightblue" stroke="midnightblue" points="2939.82,-76.4389 2949.8,-72.8752 2939.78,-69.4391 2939.82,-76.4389"/>
</g>
<!-- Node50&#45;&gt;Node2 -->
<g id="edge56" class="edge"><title>Node50&#45;&gt;Node2</title>
<path fill="none" stroke="midnightblue" d="M170.035,-190.492C147.293,-183.627 118.253,-172.079 97.5,-154 77.6278,-136.688 63.8061,-109.048 56.2593,-90.8358"/>
<polygon fill="midnightblue" stroke="midnightblue" points="59.45,-89.3849 52.5427,-81.3512 52.9325,-91.9389 59.45,-89.3849"/>
</g>
<!-- Node50&#45;&gt;Node10 -->
<g id="edge57" class="edge"><title>Node50&#45;&gt;Node10</title>
<path fill="none" stroke="midnightblue" d="M199.912,-190.475C194.12,-181.638 184.911,-167.589 177.626,-156.475"/>
<polygon fill="midnightblue" stroke="midnightblue" points="180.487,-154.454 172.077,-148.009 174.632,-158.291 180.487,-154.454"/>
</g>
<!-- Node50&#45;&gt;Node11 -->
<g id="edge58" class="edge"><title>Node50&#45;&gt;Node11</title>
<path fill="none" stroke="midnightblue" d="M161.494,-190.441C141.098,-184.034 118.714,-172.969 106.5,-154 99.0409,-142.416 100.398,-135.353 106.5,-123 112.712,-110.424 123.725,-100.117 134.995,-92.169"/>
<polygon fill="midnightblue" stroke="midnightblue" points="137.133,-94.9531 143.589,-86.5525 133.304,-89.0935 137.133,-94.9531"/>
</g>
<!-- Node50&#45;&gt;Node12 -->
<g id="edge59" class="edge"><title>Node50&#45;&gt;Node12</title>
<path fill="none" stroke="midnightblue" d="M209.108,-190.34C216.584,-173.677 235.529,-137.517 264.5,-123 326.068,-92.1487 2513.18,-75.8562 2939.78,-72.9681"/>
<polygon fill="midnightblue" stroke="midnightblue" points="2939.85,-76.4678 2949.82,-72.9004 2939.8,-69.468 2939.85,-76.4678"/>
</g>
<!-- Node50&#45;&gt;Node48 -->
<g id="edge60" class="edge"><title>Node50&#45;&gt;Node48</title>
<path fill="none" stroke="midnightblue" d="M223.696,-190.475C245.009,-180.49 280.531,-163.848 305.163,-152.307"/>
<polygon fill="midnightblue" stroke="midnightblue" points="306.767,-155.421 314.338,-148.009 303.797,-149.082 306.767,-155.421"/>
</g>
</g>
</svg>
