<?xml version="1.0" encoding="UTF-8" standalone="no"?>
<!DOCTYPE svg PUBLIC "-//W3C//DTD SVG 1.1//EN"
 "http://www.w3.org/Graphics/SVG/1.1/DTD/svg11.dtd">
<!-- Generated by graphviz version 2.38.0 (20140413.2041)
 -->
<!-- Title: boost/ui/frame.hpp Pages: 1 -->
<svg width="5807pt" height="274pt"
 viewBox="0.00 0.00 5806.72 274.00" xmlns="http://www.w3.org/2000/svg" xmlns:xlink="http://www.w3.org/1999/xlink">
<g id="graph0" class="graph" transform="scale(1 1) rotate(0) translate(4 270)">
<title>boost/ui/frame.hpp</title>
<polygon fill="white" stroke="none" points="-4,4 -4,-270 5802.72,-270 5802.72,4 -4,4"/>
<!-- Node1 -->
<g id="node1" class="node"><title>Node1</title>
<polygon fill="#bfbfbf" stroke="black" points="391.218,-246.5 391.218,-265.5 489.218,-265.5 489.218,-246.5 391.218,-246.5"/>
<text text-anchor="middle" x="440.218" y="-253.5" font-family="Helvetica,sans-Serif" font-size="10.00">boost/ui/frame.hpp</text>
</g>
<!-- Node2 -->
<g id="node2" class="node"><title>Node2</title>
<g id="a_node2"><a xlink:href="config_8hpp.html" target="_top" xlink:title="Configuration options. ">
<polygon fill="white" stroke="black" points="20.7182,-62 20.7182,-81 119.718,-81 119.718,-62 20.7182,-62"/>
<text text-anchor="middle" x="70.2182" y="-69" font-family="Helvetica,sans-Serif" font-size="10.00">boost/ui/config.hpp</text>
</a>
</g>
</g>
<!-- Node1&#45;&gt;Node2 -->
<g id="edge1" class="edge"><title>Node1&#45;&gt;Node2</title>
<path fill="none" stroke="midnightblue" d="M391.216,-255.672C295.397,-256.029 87.7211,-251.798 32.2182,-210 0.269398,-185.94 -7.80449,-159.192 9.21816,-123 16.54,-107.433 31.2771,-95.0193 44.4316,-86.3951"/>
<polygon fill="midnightblue" stroke="midnightblue" points="46.477,-89.2466 53.1751,-81.0377 42.8198,-83.2779 46.477,-89.2466"/>
</g>
<!-- Node4 -->
<g id="node4" class="node"><title>Node4</title>
<g id="a_node4"><a xlink:href="window_8hpp.html" target="_top" xlink:title="Window class. ">
<polygon fill="white" stroke="red" points="2722.22,-190.5 2722.22,-209.5 2828.22,-209.5 2828.22,-190.5 2722.22,-190.5"/>
<text text-anchor="middle" x="2775.22" y="-197.5" font-family="Helvetica,sans-Serif" font-size="10.00">boost/ui/window.hpp</text>
</a>
</g>
</g>
<!-- Node1&#45;&gt;Node4 -->
<g id="edge3" class="edge"><title>Node1&#45;&gt;Node4</title>
<path fill="none" stroke="midnightblue" d="M489.257,-253.866C789.169,-246.93 2374.17,-210.275 2711.89,-202.464"/>
<polygon fill="midnightblue" stroke="midnightblue" points="2712.07,-205.961 2721.99,-202.231 2711.91,-198.963 2712.07,-205.961"/>
</g>
<!-- Node11 -->
<g id="node11" class="node"><title>Node11</title>
<polygon fill="white" stroke="#bfbfbf" points="317.218,-56.5 317.218,-86.5 427.218,-86.5 427.218,-56.5 317.218,-56.5"/>
<text text-anchor="start" x="325.218" y="-74.5" font-family="Helvetica,sans-Serif" font-size="10.00">boost/ui/detail/shared</text>
<text text-anchor="middle" x="372.218" y="-63.5" font-family="Helvetica,sans-Serif" font-size="10.00">_count.hpp</text>
</g>
<!-- Node1&#45;&gt;Node11 -->
<g id="edge60" class="edge"><title>Node1&#45;&gt;Node11</title>
<path fill="none" stroke="midnightblue" d="M489.575,-254.099C739.78,-249.527 1893.1,-228.388 2837.22,-210 3145.64,-203.993 5829.3,-342.18 5612.22,-123 5600.26,-110.926 1040,-77.3559 437.625,-72.9738"/>
<polygon fill="midnightblue" stroke="midnightblue" points="437.413,-69.4723 427.388,-72.8994 437.362,-76.4721 437.413,-69.4723"/>
</g>
<!-- Node12 -->
<g id="node12" class="node"><title>Node12</title>
<polygon fill="white" stroke="#bfbfbf" points="2346.72,-62 2346.72,-81 2469.72,-81 2469.72,-62 2346.72,-62"/>
<text text-anchor="middle" x="2408.22" y="-69" font-family="Helvetica,sans-Serif" font-size="10.00">boost/ui/detail/event.hpp</text>
</g>
<!-- Node1&#45;&gt;Node12 -->
<g id="edge61" class="edge"><title>Node1&#45;&gt;Node12</title>
<path fill="none" stroke="midnightblue" d="M489.408,-255.009C1012.77,-254.988 5538.04,-251.976 5632.22,-154 5641.77,-144.067 5641.88,-132.818 5632.22,-123 5603.6,-93.9344 2952.85,-75.9234 2479.98,-72.9403"/>
<polygon fill="midnightblue" stroke="midnightblue" points="2479.89,-69.4398 2469.87,-72.8767 2479.85,-76.4397 2479.89,-69.4398"/>
</g>
<!-- Node13 -->
<g id="node13" class="node"><title>Node13</title>
<polygon fill="white" stroke="#bfbfbf" points="390.718,-129 390.718,-148 489.718,-148 489.718,-129 390.718,-129"/>
<text text-anchor="middle" x="440.218" y="-136" font-family="Helvetica,sans-Serif" font-size="10.00">boost/ui/config.hpp</text>
</g>
<!-- Node1&#45;&gt;Node13 -->
<g id="edge52" class="edge"><title>Node1&#45;&gt;Node13</title>
<path fill="none" stroke="midnightblue" d="M440.218,-246.319C440.218,-227.757 440.218,-183.839 440.218,-158.473"/>
<polygon fill="midnightblue" stroke="midnightblue" points="443.718,-158.282 440.218,-148.282 436.718,-158.282 443.718,-158.282"/>
</g>
<!-- Node47 -->
<g id="node47" class="node"><title>Node47</title>
<polygon fill="white" stroke="#bfbfbf" points="255.718,-129 255.718,-148 372.718,-148 372.718,-129 255.718,-129"/>
<text text-anchor="middle" x="314.218" y="-136" font-family="Helvetica,sans-Serif" font-size="10.00">boost/noncopyable.hpp</text>
</g>
<!-- Node1&#45;&gt;Node47 -->
<g id="edge62" class="edge"><title>Node1&#45;&gt;Node47</title>
<path fill="none" stroke="midnightblue" d="M430.748,-246.319C409.586,-226.921 358.216,-179.831 331.305,-155.162"/>
<polygon fill="midnightblue" stroke="midnightblue" points="333.535,-152.459 323.799,-148.282 328.805,-157.619 333.535,-152.459"/>
</g>
<!-- Node48 -->
<g id="node48" class="node"><title>Node48</title>
<polygon fill="white" stroke="#bfbfbf" points="5697.72,-190.5 5697.72,-209.5 5798.72,-209.5 5798.72,-190.5 5697.72,-190.5"/>
<text text-anchor="middle" x="5748.22" y="-197.5" font-family="Helvetica,sans-Serif" font-size="10.00">boost/ui/widget.hpp</text>
</g>
<!-- Node1&#45;&gt;Node48 -->
<g id="edge53" class="edge"><title>Node1&#45;&gt;Node48</title>
<path fill="none" stroke="midnightblue" d="M489.549,-254.965C989.794,-254.555 5137.38,-249.964 5683.22,-210 5684.53,-209.904 5685.85,-209.799 5687.19,-209.684"/>
<polygon fill="midnightblue" stroke="midnightblue" points="5687.94,-213.127 5697.54,-208.66 5687.25,-206.161 5687.94,-213.127"/>
</g>
<!-- Node49 -->
<g id="node49" class="node"><title>Node49</title>
<g id="a_node49"><a xlink:href="menu_8hpp.html" target="_top" xlink:title="Menu classes. ">
<polygon fill="white" stroke="black" points="178.718,-190.5 178.718,-209.5 275.718,-209.5 275.718,-190.5 178.718,-190.5"/>
<text text-anchor="middle" x="227.218" y="-197.5" font-family="Helvetica,sans-Serif" font-size="10.00">boost/ui/menu.hpp</text>
</a>
</g>
</g>
<!-- Node1&#45;&gt;Node49 -->
<g id="edge54" class="edge"><title>Node1&#45;&gt;Node49</title>
<path fill="none" stroke="midnightblue" d="M406.468,-246.444C369.7,-237.122 310.772,-222.183 270.596,-211.997"/>
<polygon fill="midnightblue" stroke="midnightblue" points="271.364,-208.581 260.811,-209.516 269.644,-215.367 271.364,-208.581"/>
</g>
<!-- Node50 -->
<g id="node50" class="node"><title>Node50</title>
<g id="a_node50"><a xlink:href="status__bar_8hpp.html" target="_top" xlink:title="Status bar class. ">
<polygon fill="white" stroke="black" points="41.7182,-190.5 41.7182,-209.5 160.718,-209.5 160.718,-190.5 41.7182,-190.5"/>
<text text-anchor="middle" x="101.218" y="-197.5" font-family="Helvetica,sans-Serif" font-size="10.00">boost/ui/status_bar.hpp</text>
</a>
</g>
</g>
<!-- Node1&#45;&gt;Node50 -->
<g id="edge63" class="edge"><title>Node1&#45;&gt;Node50</title>
<path fill="none" stroke="midnightblue" d="M390.925,-247.148C331.224,-237.638 230.532,-221.599 164.977,-211.156"/>
<polygon fill="midnightblue" stroke="midnightblue" points="165.195,-207.647 154.769,-209.53 164.094,-214.56 165.195,-207.647"/>
</g>
<!-- Node3 -->
<g id="node3" class="node"><title>Node3</title>
<polygon fill="white" stroke="#bfbfbf" points="2863.72,-0.5 2863.72,-19.5 2952.72,-19.5 2952.72,-0.5 2863.72,-0.5"/>
<text text-anchor="middle" x="2908.22" y="-7.5" font-family="Helvetica,sans-Serif" font-size="10.00">boost/config.hpp</text>
</g>
<!-- Node2&#45;&gt;Node3 -->
<g id="edge2" class="edge"><title>Node2&#45;&gt;Node3</title>
<path fill="none" stroke="midnightblue" d="M119.873,-66.8433C167.998,-63.4486 243.069,-58.5472 308.218,-56 1330.38,-16.0362 2579.96,-11.5632 2853.62,-11.0629"/>
<polygon fill="midnightblue" stroke="midnightblue" points="2853.69,-14.5629 2863.69,-11.0455 2853.68,-7.56293 2853.69,-14.5629"/>
</g>
<!-- Node4&#45;&gt;Node2 -->
<g id="edge4" class="edge"><title>Node4&#45;&gt;Node2</title>
<path fill="none" stroke="midnightblue" d="M2722.01,-198.991C2392.15,-198.804 637.07,-195.839 532.218,-154 513.225,-146.421 516.82,-131.494 498.218,-123 433.98,-93.6663 231.766,-80.1346 129.982,-75.0502"/>
<polygon fill="midnightblue" stroke="midnightblue" points="130.019,-71.5479 119.86,-74.5559 129.678,-78.5396 130.019,-71.5479"/>
</g>
<!-- Node4&#45;&gt;Node3 -->
<g id="edge5" class="edge"><title>Node4&#45;&gt;Node3</title>
<path fill="none" stroke="midnightblue" d="M2828.33,-199.182C3213.25,-200.38 5561.47,-205.563 5612.22,-154 5621.88,-144.181 5621.76,-132.942 5612.22,-123 5517.1,-23.8595 3337.87,-12.3847 2962.9,-11.1432"/>
<polygon fill="midnightblue" stroke="midnightblue" points="2962.86,-7.64311 2952.85,-11.1109 2962.83,-14.6431 2962.86,-7.64311"/>
</g>
<!-- Node5 -->
<g id="node5" class="node"><title>Node5</title>
<polygon fill="white" stroke="#bfbfbf" points="1639.22,-129 1639.22,-148 1749.22,-148 1749.22,-129 1639.22,-129"/>
<text text-anchor="middle" x="1694.22" y="-136" font-family="Helvetica,sans-Serif" font-size="10.00">boost/config/user.hpp</text>
</g>
<!-- Node4&#45;&gt;Node5 -->
<g id="edge6" class="edge"><title>Node4&#45;&gt;Node5</title>
<path fill="none" stroke="midnightblue" d="M2722.03,-197.902C2540.66,-193.959 1947.28,-179.393 1758.22,-154 1751.24,-153.063 1743.9,-151.733 1736.78,-150.254"/>
<polygon fill="midnightblue" stroke="midnightblue" points="1737.09,-146.739 1726.57,-148.01 1735.59,-153.576 1737.09,-146.739"/>
</g>
<!-- Node6 -->
<g id="node6" class="node"><title>Node6</title>
<polygon fill="white" stroke="#bfbfbf" points="1767.22,-123.5 1767.22,-153.5 1905.22,-153.5 1905.22,-123.5 1767.22,-123.5"/>
<text text-anchor="start" x="1775.22" y="-141.5" font-family="Helvetica,sans-Serif" font-size="10.00">boost/config/detail</text>
<text text-anchor="middle" x="1836.22" y="-130.5" font-family="Helvetica,sans-Serif" font-size="10.00">/select_compiler_config.hpp</text>
</g>
<!-- Node4&#45;&gt;Node6 -->
<g id="edge7" class="edge"><title>Node4&#45;&gt;Node6</title>
<path fill="none" stroke="midnightblue" d="M2722.17,-198.604C2588.53,-197.098 2227.13,-189.862 1915.63,-153.921"/>
<polygon fill="midnightblue" stroke="midnightblue" points="1915.84,-150.422 1905.5,-152.74 1915.03,-157.375 1915.84,-150.422"/>
</g>
<!-- Node7 -->
<g id="node7" class="node"><title>Node7</title>
<polygon fill="white" stroke="#bfbfbf" points="1923.72,-123.5 1923.72,-153.5 2060.72,-153.5 2060.72,-123.5 1923.72,-123.5"/>
<text text-anchor="start" x="1931.72" y="-141.5" font-family="Helvetica,sans-Serif" font-size="10.00">boost/config/detail</text>
<text text-anchor="middle" x="1992.22" y="-130.5" font-family="Helvetica,sans-Serif" font-size="10.00">/select_platform_config.hpp</text>
</g>
<!-- Node4&#45;&gt;Node7 -->
<g id="edge8" class="edge"><title>Node4&#45;&gt;Node7</title>
<path fill="none" stroke="midnightblue" d="M2721.95,-197.782C2605.63,-194.651 2320.07,-184.406 2071.01,-153.989"/>
<polygon fill="midnightblue" stroke="midnightblue" points="2071.41,-150.511 2061.05,-152.759 2070.55,-157.458 2071.41,-150.511"/>
</g>
<!-- Node8 -->
<g id="node8" class="node"><title>Node8</title>
<polygon fill="white" stroke="#bfbfbf" points="2079.22,-123.5 2079.22,-153.5 2175.22,-153.5 2175.22,-123.5 2079.22,-123.5"/>
<text text-anchor="start" x="2087.22" y="-141.5" font-family="Helvetica,sans-Serif" font-size="10.00">boost/config/detail</text>
<text text-anchor="middle" x="2127.22" y="-130.5" font-family="Helvetica,sans-Serif" font-size="10.00">/suffix.hpp</text>
</g>
<!-- Node4&#45;&gt;Node8 -->
<g id="edge9" class="edge"><title>Node4&#45;&gt;Node8</title>
<path fill="none" stroke="midnightblue" d="M2721.87,-198.025C2619.49,-195.485 2388.31,-186.519 2185.25,-153.972"/>
<polygon fill="midnightblue" stroke="midnightblue" points="2185.73,-150.504 2175.3,-152.354 2184.61,-157.413 2185.73,-150.504"/>
</g>
<!-- Node9 -->
<g id="node9" class="node"><title>Node9</title>
<polygon fill="white" stroke="#bfbfbf" points="2193.22,-129 2193.22,-148 2241.22,-148 2241.22,-129 2193.22,-129"/>
<text text-anchor="middle" x="2217.22" y="-136" font-family="Helvetica,sans-Serif" font-size="10.00">limits.h</text>
</g>
<!-- Node4&#45;&gt;Node9 -->
<g id="edge10" class="edge"><title>Node4&#45;&gt;Node9</title>
<path fill="none" stroke="midnightblue" d="M2721.88,-199.941C2626.11,-200.421 2419.32,-195.922 2251.22,-154 2248.85,-153.41 2246.44,-152.677 2244.05,-151.855"/>
<polygon fill="midnightblue" stroke="midnightblue" points="2245.09,-148.501 2234.5,-148.121 2242.54,-155.021 2245.09,-148.501"/>
</g>
<!-- Node10 -->
<g id="node10" class="node"><title>Node10</title>
<g id="a_node10"><a xlink:href="widget_8hpp.html" target="_top" xlink:title="Widget class. ">
<polygon fill="white" stroke="red" points="59.7182,-129 59.7182,-148 160.718,-148 160.718,-129 59.7182,-129"/>
<text text-anchor="middle" x="110.218" y="-136" font-family="Helvetica,sans-Serif" font-size="10.00">boost/ui/widget.hpp</text>
</a>
</g>
</g>
<!-- Node4&#45;&gt;Node10 -->
<g id="edge11" class="edge"><title>Node4&#45;&gt;Node10</title>
<path fill="none" stroke="midnightblue" d="M2722.06,-198.696C2404.26,-196.778 752.441,-185.428 246.218,-154 221.548,-152.468 194.454,-149.785 170.987,-147.14"/>
<polygon fill="midnightblue" stroke="midnightblue" points="171.161,-143.637 160.826,-145.971 170.361,-150.591 171.161,-143.637"/>
</g>
<!-- Node4&#45;&gt;Node11 -->
<g id="edge50" class="edge"><title>Node4&#45;&gt;Node11</title>
<path fill="none" stroke="midnightblue" d="M2722.03,-198.807C2396.19,-197.515 680.122,-189.061 575.218,-154 552.873,-146.532 553.274,-133.569 532.218,-123 502.28,-107.973 466.952,-96.2564 437.117,-87.908"/>
<polygon fill="midnightblue" stroke="midnightblue" points="437.795,-84.4649 427.226,-85.206 435.95,-91.2175 437.795,-84.4649"/>
</g>
<!-- Node4&#45;&gt;Node12 -->
<g id="edge51" class="edge"><title>Node4&#45;&gt;Node12</title>
<path fill="none" stroke="midnightblue" d="M2828.27,-198.601C3112.46,-196.343 4442.84,-184.17 4472.22,-154 4481.83,-144.129 4481.84,-132.861 4472.22,-123 4436.69,-86.5931 2840.37,-75.0405 2479.99,-72.8942"/>
<polygon fill="midnightblue" stroke="midnightblue" points="2479.96,-69.3941 2469.94,-72.8349 2479.92,-76.394 2479.96,-69.3941"/>
</g>
<!-- Node4&#45;&gt;Node13 -->
<g id="edge15" class="edge"><title>Node4&#45;&gt;Node13</title>
<path fill="none" stroke="midnightblue" d="M2721.99,-198.593C2401.08,-196.054 730.525,-181.588 504.218,-154 496.91,-153.109 489.213,-151.744 481.789,-150.201"/>
<polygon fill="midnightblue" stroke="midnightblue" points="482.417,-146.755 471.897,-148.014 480.906,-153.59 482.417,-146.755"/>
</g>
<!-- Node14 -->
<g id="node14" class="node"><title>Node14</title>
<polygon fill="white" stroke="#bfbfbf" points="2259.72,-129 2259.72,-148 2356.72,-148 2356.72,-129 2259.72,-129"/>
<text text-anchor="middle" x="2308.22" y="-136" font-family="Helvetica,sans-Serif" font-size="10.00">boost/ui/coord.hpp</text>
</g>
<!-- Node4&#45;&gt;Node14 -->
<g id="edge16" class="edge"><title>Node4&#45;&gt;Node14</title>
<path fill="none" stroke="midnightblue" d="M2721.95,-195.452C2643.57,-189.711 2492.79,-176.676 2366.22,-154 2360.66,-153.005 2354.85,-151.778 2349.14,-150.463"/>
<polygon fill="midnightblue" stroke="midnightblue" points="2349.6,-146.973 2339.05,-148.032 2347.96,-153.778 2349.6,-146.973"/>
</g>
<!-- Node15 -->
<g id="node15" class="node"><title>Node15</title>
<polygon fill="white" stroke="#bfbfbf" points="2374.72,-129 2374.72,-148 2477.72,-148 2477.72,-129 2374.72,-129"/>
<text text-anchor="middle" x="2426.22" y="-136" font-family="Helvetica,sans-Serif" font-size="10.00">boost/geometry.hpp</text>
</g>
<!-- Node4&#45;&gt;Node15 -->
<g id="edge17" class="edge"><title>Node4&#45;&gt;Node15</title>
<path fill="none" stroke="midnightblue" d="M2722.18,-191.983C2664.24,-184.022 2568.78,-170.04 2487.22,-154 2481.68,-152.91 2475.88,-151.667 2470.15,-150.377"/>
<polygon fill="midnightblue" stroke="midnightblue" points="2470.53,-146.871 2459.99,-148.027 2468.95,-153.691 2470.53,-146.871"/>
</g>
<!-- Node16 -->
<g id="node16" class="node"><title>Node16</title>
<polygon fill="white" stroke="#bfbfbf" points="2496.22,-129 2496.22,-148 2642.22,-148 2642.22,-129 2496.22,-129"/>
<text text-anchor="middle" x="2569.22" y="-136" font-family="Helvetica,sans-Serif" font-size="10.00">boost/geometry/geometry.hpp</text>
</g>
<!-- Node4&#45;&gt;Node16 -->
<g id="edge18" class="edge"><title>Node4&#45;&gt;Node16</title>
<path fill="none" stroke="midnightblue" d="M2745.7,-190.475C2709.6,-180.048 2648.37,-162.362 2608.36,-150.807"/>
<polygon fill="midnightblue" stroke="midnightblue" points="2609.26,-147.422 2598.68,-148.009 2607.31,-154.147 2609.26,-147.422"/>
</g>
<!-- Node17 -->
<g id="node17" class="node"><title>Node17</title>
<polygon fill="white" stroke="#bfbfbf" points="2660.22,-123.5 2660.22,-153.5 2766.22,-153.5 2766.22,-123.5 2660.22,-123.5"/>
<text text-anchor="start" x="2668.22" y="-141.5" font-family="Helvetica,sans-Serif" font-size="10.00">boost/geometry/core</text>
<text text-anchor="middle" x="2713.22" y="-130.5" font-family="Helvetica,sans-Serif" font-size="10.00">/closure.hpp</text>
</g>
<!-- Node4&#45;&gt;Node17 -->
<g id="edge19" class="edge"><title>Node4&#45;&gt;Node17</title>
<path fill="none" stroke="midnightblue" d="M2766.34,-190.475C2758.25,-182.718 2745.98,-170.943 2735.27,-160.665"/>
<polygon fill="midnightblue" stroke="midnightblue" points="2737.47,-157.922 2727.83,-153.523 2732.62,-162.972 2737.47,-157.922"/>
</g>
<!-- Node18 -->
<g id="node18" class="node"><title>Node18</title>
<polygon fill="white" stroke="#bfbfbf" points="2784.22,-129 2784.22,-148 2892.22,-148 2892.22,-129 2784.22,-129"/>
<text text-anchor="middle" x="2838.22" y="-136" font-family="Helvetica,sans-Serif" font-size="10.00">boost/mpl/assert.hpp</text>
</g>
<!-- Node4&#45;&gt;Node18 -->
<g id="edge20" class="edge"><title>Node4&#45;&gt;Node18</title>
<path fill="none" stroke="midnightblue" d="M2784.24,-190.475C2793.98,-181.285 2809.68,-166.456 2821.64,-155.156"/>
<polygon fill="midnightblue" stroke="midnightblue" points="2824.34,-157.42 2829.21,-148.009 2819.54,-152.331 2824.34,-157.42"/>
</g>
<!-- Node19 -->
<g id="node19" class="node"><title>Node19</title>
<polygon fill="white" stroke="#bfbfbf" points="2910.72,-129 2910.72,-148 3005.72,-148 3005.72,-129 2910.72,-129"/>
<text text-anchor="middle" x="2958.22" y="-136" font-family="Helvetica,sans-Serif" font-size="10.00">boost/mpl/not.hpp</text>
</g>
<!-- Node4&#45;&gt;Node19 -->
<g id="edge21" class="edge"><title>Node4&#45;&gt;Node19</title>
<path fill="none" stroke="midnightblue" d="M2801.44,-190.475C2833.24,-180.136 2886.98,-162.661 2922.54,-151.102"/>
<polygon fill="midnightblue" stroke="midnightblue" points="2923.62,-154.43 2932.05,-148.009 2921.46,-147.773 2923.62,-154.43"/>
</g>
<!-- Node20 -->
<g id="node20" class="node"><title>Node20</title>
<polygon fill="white" stroke="#bfbfbf" points="3023.72,-129 3023.72,-148 3122.72,-148 3122.72,-129 3023.72,-129"/>
<text text-anchor="middle" x="3073.22" y="-136" font-family="Helvetica,sans-Serif" font-size="10.00">boost/mpl/bool.hpp</text>
</g>
<!-- Node4&#45;&gt;Node20 -->
<g id="edge22" class="edge"><title>Node4&#45;&gt;Node20</title>
<path fill="none" stroke="midnightblue" d="M2825.5,-190.472C2874.18,-182.003 2949.99,-168.256 3015.22,-154 3020.22,-152.906 3025.45,-151.695 3030.64,-150.453"/>
<polygon fill="midnightblue" stroke="midnightblue" points="3031.59,-153.822 3040.48,-148.047 3029.93,-147.022 3031.59,-153.822"/>
</g>
<!-- Node21 -->
<g id="node21" class="node"><title>Node21</title>
<polygon fill="white" stroke="#bfbfbf" points="3141.22,-129 3141.22,-148 3261.22,-148 3261.22,-129 3141.22,-129"/>
<text text-anchor="middle" x="3201.22" y="-136" font-family="Helvetica,sans-Serif" font-size="10.00">boost/mpl/bool_fwd.hpp</text>
</g>
<!-- Node4&#45;&gt;Node21 -->
<g id="edge23" class="edge"><title>Node4&#45;&gt;Node21</title>
<path fill="none" stroke="midnightblue" d="M2828.34,-193.675C2898.26,-186.354 3024.87,-172.015 3132.22,-154 3139.03,-152.857 3146.19,-151.513 3153.22,-150.112"/>
<polygon fill="midnightblue" stroke="midnightblue" points="3154.27,-153.471 3163.36,-148.037 3152.86,-146.613 3154.27,-153.471"/>
</g>
<!-- Node22 -->
<g id="node22" class="node"><title>Node22</title>
<polygon fill="white" stroke="#bfbfbf" points="3279.72,-123.5 3279.72,-153.5 3378.72,-153.5 3378.72,-123.5 3279.72,-123.5"/>
<text text-anchor="start" x="3287.72" y="-141.5" font-family="Helvetica,sans-Serif" font-size="10.00">boost/mpl/aux_/adl</text>
<text text-anchor="middle" x="3329.22" y="-130.5" font-family="Helvetica,sans-Serif" font-size="10.00">_barrier.hpp</text>
</g>
<!-- Node4&#45;&gt;Node22 -->
<g id="edge24" class="edge"><title>Node4&#45;&gt;Node22</title>
<path fill="none" stroke="midnightblue" d="M2828.3,-196.795C2917.5,-192.517 3103.2,-181.162 3269.52,-153.939"/>
<polygon fill="midnightblue" stroke="midnightblue" points="3270.14,-157.383 3279.43,-152.293 3269,-150.478 3270.14,-157.383"/>
</g>
<!-- Node23 -->
<g id="node23" class="node"><title>Node23</title>
<polygon fill="white" stroke="#bfbfbf" points="3396.72,-123.5 3396.72,-153.5 3509.72,-153.5 3509.72,-123.5 3396.72,-123.5"/>
<text text-anchor="start" x="3404.72" y="-141.5" font-family="Helvetica,sans-Serif" font-size="10.00">boost/mpl/aux_/config</text>
<text text-anchor="middle" x="3453.22" y="-130.5" font-family="Helvetica,sans-Serif" font-size="10.00">/adl.hpp</text>
</g>
<!-- Node4&#45;&gt;Node23 -->
<g id="edge25" class="edge"><title>Node4&#45;&gt;Node23</title>
<path fill="none" stroke="midnightblue" d="M2828.39,-197.71C2933.41,-194.597 3174.92,-184.63 3386.54,-154.113"/>
<polygon fill="midnightblue" stroke="midnightblue" points="3387.2,-157.553 3396.59,-152.644 3386.19,-150.627 3387.2,-157.553"/>
</g>
<!-- Node24 -->
<g id="node24" class="node"><title>Node24</title>
<polygon fill="white" stroke="#bfbfbf" points="3527.72,-123.5 3527.72,-153.5 3640.72,-153.5 3640.72,-123.5 3527.72,-123.5"/>
<text text-anchor="start" x="3535.72" y="-141.5" font-family="Helvetica,sans-Serif" font-size="10.00">boost/mpl/aux_/config</text>
<text text-anchor="middle" x="3584.22" y="-130.5" font-family="Helvetica,sans-Serif" font-size="10.00">/msvc.hpp</text>
</g>
<!-- Node4&#45;&gt;Node24 -->
<g id="edge26" class="edge"><title>Node4&#45;&gt;Node24</title>
<path fill="none" stroke="midnightblue" d="M2828.28,-198.68C2949.12,-197.331 3254.11,-190.415 3517.46,-154.103"/>
<polygon fill="midnightblue" stroke="midnightblue" points="3518.18,-157.537 3527.6,-152.688 3517.21,-150.604 3518.18,-157.537"/>
</g>
<!-- Node25 -->
<g id="node25" class="node"><title>Node25</title>
<polygon fill="white" stroke="#bfbfbf" points="3658.72,-123.5 3658.72,-153.5 3771.72,-153.5 3771.72,-123.5 3658.72,-123.5"/>
<text text-anchor="start" x="3666.72" y="-141.5" font-family="Helvetica,sans-Serif" font-size="10.00">boost/mpl/aux_/config</text>
<text text-anchor="middle" x="3715.22" y="-130.5" font-family="Helvetica,sans-Serif" font-size="10.00">/intel.hpp</text>
</g>
<!-- Node4&#45;&gt;Node25 -->
<g id="edge27" class="edge"><title>Node4&#45;&gt;Node25</title>
<path fill="none" stroke="midnightblue" d="M2828.27,-199.366C2963.63,-199.637 3332.82,-196.229 3648.34,-154.104"/>
<polygon fill="midnightblue" stroke="midnightblue" points="3649.16,-157.526 3658.6,-152.718 3648.22,-150.589 3649.16,-157.526"/>
</g>
<!-- Node26 -->
<g id="node26" class="node"><title>Node26</title>
<polygon fill="white" stroke="#bfbfbf" points="3789.72,-123.5 3789.72,-153.5 3902.72,-153.5 3902.72,-123.5 3789.72,-123.5"/>
<text text-anchor="start" x="3797.72" y="-141.5" font-family="Helvetica,sans-Serif" font-size="10.00">boost/mpl/aux_/config</text>
<text text-anchor="middle" x="3846.22" y="-130.5" font-family="Helvetica,sans-Serif" font-size="10.00">/gcc.hpp</text>
</g>
<!-- Node4&#45;&gt;Node26 -->
<g id="edge28" class="edge"><title>Node4&#45;&gt;Node26</title>
<path fill="none" stroke="midnightblue" d="M2828.45,-197.848C3005.59,-193.824 3575.04,-179.318 3779.56,-154.031"/>
<polygon fill="midnightblue" stroke="midnightblue" points="3780.13,-157.487 3789.6,-152.741 3779.24,-150.544 3780.13,-157.487"/>
</g>
<!-- Node27 -->
<g id="node27" class="node"><title>Node27</title>
<polygon fill="white" stroke="#bfbfbf" points="3920.72,-123.5 3920.72,-153.5 4033.72,-153.5 4033.72,-123.5 3920.72,-123.5"/>
<text text-anchor="start" x="3928.72" y="-141.5" font-family="Helvetica,sans-Serif" font-size="10.00">boost/mpl/aux_/config</text>
<text text-anchor="middle" x="3977.22" y="-130.5" font-family="Helvetica,sans-Serif" font-size="10.00">/workaround.hpp</text>
</g>
<!-- Node4&#45;&gt;Node27 -->
<g id="edge29" class="edge"><title>Node4&#45;&gt;Node27</title>
<path fill="none" stroke="midnightblue" d="M2828.49,-198.164C3020.69,-194.951 3678.9,-182.209 3910.56,-154.026"/>
<polygon fill="midnightblue" stroke="midnightblue" points="3911.12,-157.483 3920.6,-152.759 3910.25,-150.538 3911.12,-157.483"/>
</g>
<!-- Node28 -->
<g id="node28" class="node"><title>Node28</title>
<polygon fill="white" stroke="#bfbfbf" points="4051.72,-129 4051.72,-148 4190.72,-148 4190.72,-129 4051.72,-129"/>
<text text-anchor="middle" x="4121.22" y="-136" font-family="Helvetica,sans-Serif" font-size="10.00">boost/detail/workaround.hpp</text>
</g>
<!-- Node4&#45;&gt;Node28 -->
<g id="edge30" class="edge"><title>Node4&#45;&gt;Node28</title>
<path fill="none" stroke="midnightblue" d="M2828.39,-198.165C3037.29,-194.722 3802.09,-180.542 4043.22,-154 4052.47,-152.982 4062.27,-151.491 4071.68,-149.848"/>
<polygon fill="midnightblue" stroke="midnightblue" points="4072.5,-153.258 4081.71,-148.021 4071.24,-146.371 4072.5,-153.258"/>
</g>
<!-- Node29 -->
<g id="node29" class="node"><title>Node29</title>
<polygon fill="white" stroke="#bfbfbf" points="4209.22,-129 4209.22,-148 4351.22,-148 4351.22,-129 4209.22,-129"/>
<text text-anchor="middle" x="4280.22" y="-136" font-family="Helvetica,sans-Serif" font-size="10.00">boost/config/workaround.hpp</text>
</g>
<!-- Node4&#45;&gt;Node29 -->
<g id="edge31" class="edge"><title>Node4&#45;&gt;Node29</title>
<path fill="none" stroke="midnightblue" d="M2828.35,-198.374C3053.08,-195.564 3926.54,-182.963 4200.22,-154 4209.8,-152.986 4219.97,-151.481 4229.72,-149.819"/>
<polygon fill="midnightblue" stroke="midnightblue" points="4230.46,-153.243 4239.69,-148.045 4229.23,-146.351 4230.46,-153.243"/>
</g>
<!-- Node30 -->
<g id="node30" class="node"><title>Node30</title>
<polygon fill="white" stroke="#bfbfbf" points="4369.22,-123.5 4369.22,-153.5 4463.22,-153.5 4463.22,-123.5 4369.22,-123.5"/>
<text text-anchor="start" x="4377.22" y="-141.5" font-family="Helvetica,sans-Serif" font-size="10.00">boost/mpl/integral</text>
<text text-anchor="middle" x="4416.22" y="-130.5" font-family="Helvetica,sans-Serif" font-size="10.00">_c_tag.hpp</text>
</g>
<!-- Node4&#45;&gt;Node30 -->
<g id="edge32" class="edge"><title>Node4&#45;&gt;Node30</title>
<path fill="none" stroke="midnightblue" d="M2828.61,-199.095C3066.7,-199.276 4033.7,-197.357 4358.66,-153.948"/>
<polygon fill="midnightblue" stroke="midnightblue" points="4359.59,-157.353 4369.01,-152.519 4358.63,-150.419 4359.59,-157.353"/>
</g>
<!-- Node31 -->
<g id="node31" class="node"><title>Node31</title>
<polygon fill="white" stroke="#bfbfbf" points="4519.72,-123.5 4519.72,-153.5 4632.72,-153.5 4632.72,-123.5 4519.72,-123.5"/>
<text text-anchor="start" x="4527.72" y="-141.5" font-family="Helvetica,sans-Serif" font-size="10.00">boost/mpl/aux_/config</text>
<text text-anchor="middle" x="4576.22" y="-130.5" font-family="Helvetica,sans-Serif" font-size="10.00">/static_constant.hpp</text>
</g>
<!-- Node4&#45;&gt;Node31 -->
<g id="edge33" class="edge"><title>Node4&#45;&gt;Node31</title>
<path fill="none" stroke="midnightblue" d="M2828.28,-198.874C3081.49,-198.083 4168.46,-192.465 4505.22,-154 4506.52,-153.851 4507.83,-153.691 4509.15,-153.52"/>
<polygon fill="midnightblue" stroke="midnightblue" points="4510.01,-156.932 4519.39,-152.019 4508.99,-150.006 4510.01,-156.932"/>
</g>
<!-- Node32 -->
<g id="node32" class="node"><title>Node32</title>
<polygon fill="white" stroke="#bfbfbf" points="4650.72,-123.5 4650.72,-153.5 4753.72,-153.5 4753.72,-123.5 4650.72,-123.5"/>
<text text-anchor="start" x="4658.72" y="-141.5" font-family="Helvetica,sans-Serif" font-size="10.00">boost/mpl/aux_/nttp</text>
<text text-anchor="middle" x="4702.22" y="-130.5" font-family="Helvetica,sans-Serif" font-size="10.00">_decl.hpp</text>
</g>
<!-- Node4&#45;&gt;Node32 -->
<g id="edge34" class="edge"><title>Node4&#45;&gt;Node32</title>
<path fill="none" stroke="midnightblue" d="M2828.49,-199.247C3091.86,-200.236 4257.02,-201.846 4640.62,-153.988"/>
<polygon fill="midnightblue" stroke="midnightblue" points="4641.17,-157.447 4650.64,-152.703 4640.27,-150.503 4641.17,-157.447"/>
</g>
<!-- Node33 -->
<g id="node33" class="node"><title>Node33</title>
<polygon fill="white" stroke="#bfbfbf" points="4771.72,-123.5 4771.72,-153.5 4884.72,-153.5 4884.72,-123.5 4771.72,-123.5"/>
<text text-anchor="start" x="4779.72" y="-141.5" font-family="Helvetica,sans-Serif" font-size="10.00">boost/mpl/aux_/config</text>
<text text-anchor="middle" x="4828.22" y="-130.5" font-family="Helvetica,sans-Serif" font-size="10.00">/nttp.hpp</text>
</g>
<!-- Node4&#45;&gt;Node33 -->
<g id="edge35" class="edge"><title>Node4&#45;&gt;Node33</title>
<path fill="none" stroke="midnightblue" d="M2828.24,-199.211C3101.35,-200.087 4351.96,-201.452 4761.51,-154.017"/>
<polygon fill="midnightblue" stroke="midnightblue" points="4762.09,-157.472 4771.61,-152.816 4761.27,-150.521 4762.09,-157.472"/>
</g>
<!-- Node34 -->
<g id="node34" class="node"><title>Node34</title>
<polygon fill="white" stroke="#bfbfbf" points="4903.22,-123.5 4903.22,-153.5 5019.22,-153.5 5019.22,-123.5 4903.22,-123.5"/>
<text text-anchor="start" x="4911.22" y="-141.5" font-family="Helvetica,sans-Serif" font-size="10.00">boost/mpl/aux_/nested</text>
<text text-anchor="middle" x="4961.22" y="-130.5" font-family="Helvetica,sans-Serif" font-size="10.00">_type_wknd.hpp</text>
</g>
<!-- Node4&#45;&gt;Node34 -->
<g id="edge36" class="edge"><title>Node4&#45;&gt;Node34</title>
<path fill="none" stroke="midnightblue" d="M2828.4,-199.253C3112.59,-200.399 4455.26,-203.134 4892.7,-153.989"/>
<polygon fill="midnightblue" stroke="midnightblue" points="4893.33,-157.44 4902.86,-152.819 4892.53,-150.486 4893.33,-157.44"/>
</g>
<!-- Node35 -->
<g id="node35" class="node"><title>Node35</title>
<polygon fill="white" stroke="#bfbfbf" points="5037.22,-129 5037.22,-148 5179.22,-148 5179.22,-129 5037.22,-129"/>
<text text-anchor="middle" x="5108.22" y="-136" font-family="Helvetica,sans-Serif" font-size="10.00">boost/mpl/aux_/na_spec.hpp</text>
</g>
<!-- Node4&#45;&gt;Node35 -->
<g id="edge37" class="edge"><title>Node4&#45;&gt;Node35</title>
<path fill="none" stroke="midnightblue" d="M2828.29,-199.089C3125.04,-199.411 4581.52,-198.656 5028.22,-154 5037.91,-153.031 5048.2,-151.53 5058.04,-149.855"/>
<polygon fill="midnightblue" stroke="midnightblue" points="5058.88,-153.262 5068.11,-148.061 5057.65,-146.371 5058.88,-153.262"/>
</g>
<!-- Node36 -->
<g id="node36" class="node"><title>Node36</title>
<polygon fill="white" stroke="#bfbfbf" points="5197.22,-129 5197.22,-148 5331.22,-148 5331.22,-129 5197.22,-129"/>
<text text-anchor="middle" x="5264.22" y="-136" font-family="Helvetica,sans-Serif" font-size="10.00">boost/mpl/lambda_fwd.hpp</text>
</g>
<!-- Node4&#45;&gt;Node36 -->
<g id="edge38" class="edge"><title>Node4&#45;&gt;Node36</title>
<path fill="none" stroke="midnightblue" d="M2828.23,-199.237C3137.16,-200.431 4708.04,-203.918 5188.22,-154 5197.44,-153.041 5207.22,-151.545 5216.58,-149.871"/>
<polygon fill="midnightblue" stroke="midnightblue" points="5217.34,-153.289 5226.52,-148.002 5216.05,-146.409 5217.34,-153.289"/>
</g>
<!-- Node37 -->
<g id="node37" class="node"><title>Node37</title>
<polygon fill="white" stroke="#bfbfbf" points="5349.22,-129 5349.22,-148 5469.22,-148 5469.22,-129 5349.22,-129"/>
<text text-anchor="middle" x="5409.22" y="-136" font-family="Helvetica,sans-Serif" font-size="10.00">boost/mpl/void_fwd.hpp</text>
</g>
<!-- Node4&#45;&gt;Node37 -->
<g id="edge39" class="edge"><title>Node4&#45;&gt;Node37</title>
<path fill="none" stroke="midnightblue" d="M2828.47,-198.673C3173.19,-196.474 5082.7,-183.052 5340.22,-154 5348.35,-153.083 5356.93,-151.657 5365.19,-150.049"/>
<polygon fill="midnightblue" stroke="midnightblue" points="5365.94,-153.467 5375.03,-148.021 5364.53,-146.611 5365.94,-153.467"/>
</g>
<!-- Node38 -->
<g id="node38" class="node"><title>Node38</title>
<polygon fill="white" stroke="#bfbfbf" points="5487.22,-129 5487.22,-148 5603.22,-148 5603.22,-129 5487.22,-129"/>
<text text-anchor="middle" x="5545.22" y="-136" font-family="Helvetica,sans-Serif" font-size="10.00">boost/mpl/aux_/na.hpp</text>
</g>
<!-- Node4&#45;&gt;Node38 -->
<g id="edge40" class="edge"><title>Node4&#45;&gt;Node38</title>
<path fill="none" stroke="midnightblue" d="M2828.45,-198.743C3183.8,-196.946 5206.2,-185.391 5478.22,-154 5486.03,-153.098 5494.28,-151.696 5502.21,-150.111"/>
<polygon fill="midnightblue" stroke="midnightblue" points="5502.98,-153.526 5512.04,-148.03 5501.53,-146.678 5502.98,-153.526"/>
</g>
<!-- Node39 -->
<g id="node39" class="node"><title>Node39</title>
<polygon fill="white" stroke="#bfbfbf" points="584.718,-129 584.718,-148 721.718,-148 721.718,-129 584.718,-129"/>
<text text-anchor="middle" x="653.218" y="-136" font-family="Helvetica,sans-Serif" font-size="10.00">boost/mpl/aux_/na_fwd.hpp</text>
</g>
<!-- Node4&#45;&gt;Node39 -->
<g id="edge41" class="edge"><title>Node4&#45;&gt;Node39</title>
<path fill="none" stroke="midnightblue" d="M2722.12,-198.995C2442.03,-198.791 1133.94,-195.589 731.218,-154 721.861,-153.034 711.945,-151.551 702.434,-149.896"/>
<polygon fill="midnightblue" stroke="midnightblue" points="702.785,-146.402 692.319,-148.049 701.527,-153.288 702.785,-146.402"/>
</g>
<!-- Node40 -->
<g id="node40" class="node"><title>Node40</title>
<polygon fill="white" stroke="#bfbfbf" points="739.718,-123.5 739.718,-153.5 852.718,-153.5 852.718,-123.5 739.718,-123.5"/>
<text text-anchor="start" x="747.718" y="-141.5" font-family="Helvetica,sans-Serif" font-size="10.00">boost/mpl/aux_/config</text>
<text text-anchor="middle" x="796.218" y="-130.5" font-family="Helvetica,sans-Serif" font-size="10.00">/ctps.hpp</text>
</g>
<!-- Node4&#45;&gt;Node40 -->
<g id="edge42" class="edge"><title>Node4&#45;&gt;Node40</title>
<path fill="none" stroke="midnightblue" d="M2721.99,-199.134C2454.81,-199.596 1257.48,-199.13 863,-153.878"/>
<polygon fill="midnightblue" stroke="midnightblue" points="863.322,-150.392 852.981,-152.698 862.503,-157.344 863.322,-150.392"/>
</g>
<!-- Node41 -->
<g id="node41" class="node"><title>Node41</title>
<polygon fill="white" stroke="#bfbfbf" points="870.718,-123.5 870.718,-153.5 983.718,-153.5 983.718,-123.5 870.718,-123.5"/>
<text text-anchor="start" x="878.718" y="-141.5" font-family="Helvetica,sans-Serif" font-size="10.00">boost/mpl/aux_/config</text>
<text text-anchor="middle" x="927.218" y="-130.5" font-family="Helvetica,sans-Serif" font-size="10.00">/lambda.hpp</text>
</g>
<!-- Node4&#45;&gt;Node41 -->
<g id="edge43" class="edge"><title>Node4&#45;&gt;Node41</title>
<path fill="none" stroke="midnightblue" d="M2721.84,-199.026C2465.8,-198.945 1361.14,-196.178 994.097,-153.89"/>
<polygon fill="midnightblue" stroke="midnightblue" points="994.324,-150.393 983.982,-152.692 993.5,-157.344 994.324,-150.393"/>
</g>
<!-- Node42 -->
<g id="node42" class="node"><title>Node42</title>
<polygon fill="white" stroke="#bfbfbf" points="1001.72,-123.5 1001.72,-153.5 1114.72,-153.5 1114.72,-123.5 1001.72,-123.5"/>
<text text-anchor="start" x="1009.72" y="-141.5" font-family="Helvetica,sans-Serif" font-size="10.00">boost/mpl/aux_/config</text>
<text text-anchor="middle" x="1058.22" y="-130.5" font-family="Helvetica,sans-Serif" font-size="10.00">/ttp.hpp</text>
</g>
<!-- Node4&#45;&gt;Node42 -->
<g id="edge44" class="edge"><title>Node4&#45;&gt;Node42</title>
<path fill="none" stroke="midnightblue" d="M2722.13,-198.903C2478.44,-198.251 1464.81,-193.259 1125.08,-153.889"/>
<polygon fill="midnightblue" stroke="midnightblue" points="1125.33,-150.394 1114.98,-152.685 1124.5,-157.345 1125.33,-150.394"/>
</g>
<!-- Node43 -->
<g id="node43" class="node"><title>Node43</title>
<polygon fill="white" stroke="#bfbfbf" points="1133.22,-129 1133.22,-148 1225.22,-148 1225.22,-129 1133.22,-129"/>
<text text-anchor="middle" x="1179.22" y="-136" font-family="Helvetica,sans-Serif" font-size="10.00">boost/mpl/int.hpp</text>
</g>
<!-- Node4&#45;&gt;Node43 -->
<g id="edge45" class="edge"><title>Node4&#45;&gt;Node43</title>
<path fill="none" stroke="midnightblue" d="M2722.16,-199.044C2486.29,-198.993 1531.47,-196.138 1235.22,-154 1229.29,-153.157 1223.09,-151.922 1217.07,-150.521"/>
<polygon fill="midnightblue" stroke="midnightblue" points="1217.72,-147.077 1207.17,-148.05 1216.02,-153.868 1217.72,-147.077"/>
</g>
<!-- Node44 -->
<g id="node44" class="node"><title>Node44</title>
<polygon fill="white" stroke="#bfbfbf" points="1243.72,-129 1243.72,-148 1356.72,-148 1356.72,-129 1243.72,-129"/>
<text text-anchor="middle" x="1300.22" y="-136" font-family="Helvetica,sans-Serif" font-size="10.00">boost/mpl/int_fwd.hpp</text>
</g>
<!-- Node4&#45;&gt;Node44 -->
<g id="edge46" class="edge"><title>Node4&#45;&gt;Node44</title>
<path fill="none" stroke="midnightblue" d="M2721.9,-198.612C2498.38,-196.783 1635.95,-187.644 1366.22,-154 1358.69,-153.061 1350.75,-151.671 1343.1,-150.118"/>
<polygon fill="midnightblue" stroke="midnightblue" points="1343.76,-146.681 1333.25,-148.007 1342.29,-153.526 1343.76,-146.681"/>
</g>
<!-- Node45 -->
<g id="node45" class="node"><title>Node45</title>
<polygon fill="white" stroke="#bfbfbf" points="1375.22,-123.5 1375.22,-153.5 1493.22,-153.5 1493.22,-123.5 1375.22,-123.5"/>
<text text-anchor="start" x="1383.22" y="-141.5" font-family="Helvetica,sans-Serif" font-size="10.00">boost/mpl/aux_/integral</text>
<text text-anchor="middle" x="1434.22" y="-130.5" font-family="Helvetica,sans-Serif" font-size="10.00">_wrapper.hpp</text>
</g>
<!-- Node4&#45;&gt;Node45 -->
<g id="edge47" class="edge"><title>Node4&#45;&gt;Node45</title>
<path fill="none" stroke="midnightblue" d="M2722.17,-198.361C2515.64,-195.684 1764.23,-184.137 1503.63,-153.986"/>
<polygon fill="midnightblue" stroke="midnightblue" points="1503.8,-150.481 1493.45,-152.768 1502.97,-157.432 1503.8,-150.481"/>
</g>
<!-- Node46 -->
<g id="node46" class="node"><title>Node46</title>
<polygon fill="white" stroke="#bfbfbf" points="1511.22,-123.5 1511.22,-153.5 1621.22,-153.5 1621.22,-123.5 1511.22,-123.5"/>
<text text-anchor="start" x="1519.22" y="-141.5" font-family="Helvetica,sans-Serif" font-size="10.00">boost/mpl/aux_/static</text>
<text text-anchor="middle" x="1566.22" y="-130.5" font-family="Helvetica,sans-Serif" font-size="10.00">_cast.hpp</text>
</g>
<!-- Node4&#45;&gt;Node46 -->
<g id="edge48" class="edge"><title>Node4&#45;&gt;Node46</title>
<path fill="none" stroke="midnightblue" d="M2721.91,-198.204C2528.78,-195.119 1865.28,-182.737 1631.4,-153.94"/>
<polygon fill="midnightblue" stroke="midnightblue" points="1631.62,-150.439 1621.26,-152.644 1630.74,-157.383 1631.62,-150.439"/>
</g>
<!-- Node4&#45;&gt;Node47 -->
<g id="edge49" class="edge"><title>Node4&#45;&gt;Node47</title>
<path fill="none" stroke="midnightblue" d="M2722.09,-198.621C2391.33,-196.181 620.639,-181.889 381.218,-154 373.405,-153.09 365.16,-151.683 357.228,-150.097"/>
<polygon fill="midnightblue" stroke="midnightblue" points="357.911,-146.664 347.402,-148.016 356.46,-153.512 357.911,-146.664"/>
</g>
<!-- Node10&#45;&gt;Node2 -->
<g id="edge12" class="edge"><title>Node10&#45;&gt;Node2</title>
<path fill="none" stroke="midnightblue" d="M104.824,-128.734C98.706,-118.793 88.5799,-102.338 80.8577,-89.7892"/>
<polygon fill="midnightblue" stroke="midnightblue" points="83.7491,-87.8095 75.5273,-81.1273 77.7875,-91.4783 83.7491,-87.8095"/>
</g>
<!-- Node10&#45;&gt;Node11 -->
<g id="edge13" class="edge"><title>Node10&#45;&gt;Node11</title>
<path fill="none" stroke="midnightblue" d="M144.74,-128.936C185.905,-118.723 255.591,-101.434 307.011,-88.6774"/>
<polygon fill="midnightblue" stroke="midnightblue" points="308.174,-91.9949 317.037,-86.1899 306.489,-85.2009 308.174,-91.9949"/>
</g>
<!-- Node10&#45;&gt;Node12 -->
<g id="edge14" class="edge"><title>Node10&#45;&gt;Node12</title>
<path fill="none" stroke="midnightblue" d="M160.904,-129.164C177.527,-126.752 196.12,-124.395 213.218,-123 639.789,-88.1873 2006.97,-75.5914 2336.34,-73.0227"/>
<polygon fill="midnightblue" stroke="midnightblue" points="2336.72,-76.5199 2346.7,-72.9426 2336.67,-69.5201 2336.72,-76.5199"/>
</g>
<!-- Node49&#45;&gt;Node2 -->
<g id="edge55" class="edge"><title>Node49&#45;&gt;Node2</title>
<path fill="none" stroke="midnightblue" d="M181.75,-190.43C132.066,-180.607 58.3926,-164.513 50.2182,-154 35.7303,-135.368 47.5877,-107.68 58.2488,-89.8592"/>
<polygon fill="midnightblue" stroke="midnightblue" points="61.4185,-91.4004 63.8736,-81.0939 55.5272,-87.6198 61.4185,-91.4004"/>
</g>
<!-- Node49&#45;&gt;Node10 -->
<g id="edge56" class="edge"><title>Node49&#45;&gt;Node10</title>
<path fill="none" stroke="midnightblue" d="M210.455,-190.475C190.993,-180.578 158.673,-164.142 136.007,-152.615"/>
<polygon fill="midnightblue" stroke="midnightblue" points="137.45,-149.422 126.95,-148.009 134.277,-155.662 137.45,-149.422"/>
</g>
<!-- Node49&#45;&gt;Node11 -->
<g id="edge57" class="edge"><title>Node49&#45;&gt;Node11</title>
<path fill="none" stroke="midnightblue" d="M221.627,-190.071C212.856,-174.802 198.325,-143.357 213.218,-123 234.606,-93.7666 273.043,-81.0435 306.767,-75.6761"/>
<polygon fill="midnightblue" stroke="midnightblue" points="307.64,-79.0883 317.058,-74.2364 306.67,-72.1558 307.64,-79.0883"/>
</g>
<!-- Node49&#45;&gt;Node12 -->
<g id="edge58" class="edge"><title>Node49&#45;&gt;Node12</title>
<path fill="none" stroke="midnightblue" d="M226.363,-190.183C225.334,-173.905 225.825,-139.309 246.218,-123 287.954,-89.6221 1966.48,-75.6646 2336.53,-72.99"/>
<polygon fill="midnightblue" stroke="midnightblue" points="2336.61,-76.4897 2346.58,-72.9178 2336.56,-69.4898 2336.61,-76.4897"/>
</g>
<!-- Node49&#45;&gt;Node47 -->
<g id="edge59" class="edge"><title>Node49&#45;&gt;Node47</title>
<path fill="none" stroke="midnightblue" d="M239.683,-190.475C253.638,-180.931 276.483,-165.307 293.209,-153.868"/>
<polygon fill="midnightblue" stroke="midnightblue" points="295.498,-156.543 301.776,-148.009 291.546,-150.765 295.498,-156.543"/>
</g>
<!-- Node50&#45;&gt;Node2 -->
<g id="edge64" class="edge"><title>Node50&#45;&gt;Node2</title>
<path fill="none" stroke="midnightblue" d="M68.2318,-190.438C49.7553,-183.769 28.2665,-172.453 17.2182,-154 10.1405,-142.179 11.7923,-135.664 17.2182,-123 23.4402,-108.477 36.117,-96.1508 47.5126,-87.3121"/>
<polygon fill="midnightblue" stroke="midnightblue" points="49.8167,-89.9643 55.849,-81.2544 45.7018,-84.3015 49.8167,-89.9643"/>
</g>
<!-- Node50&#45;&gt;Node10 -->
<g id="edge65" class="edge"><title>Node50&#45;&gt;Node10</title>
<path fill="none" stroke="midnightblue" d="M102.508,-190.475C103.777,-182.08 105.759,-168.981 107.395,-158.163"/>
<polygon fill="midnightblue" stroke="midnightblue" points="110.896,-158.42 108.931,-148.009 103.975,-157.373 110.896,-158.42"/>
</g>
</g>
</svg>
