<?xml version="1.0" encoding="UTF-8" standalone="no"?>
<!DOCTYPE svg PUBLIC "-//W3C//DTD SVG 1.1//EN"
 "http://www.w3.org/Graphics/SVG/1.1/DTD/svg11.dtd">
<!-- Generated by graphviz version 2.38.0 (20140413.2041)
 -->
<!-- Title: boost/ui/frame.hpp Pages: 1 -->
<svg width="5975pt" height="274pt"
 viewBox="0.00 0.00 5974.61 274.00" xmlns="http://www.w3.org/2000/svg" xmlns:xlink="http://www.w3.org/1999/xlink">
<g id="graph0" class="graph" transform="scale(1 1) rotate(0) translate(4 270)">
<title>boost/ui/frame.hpp</title>
<polygon fill="white" stroke="none" points="-4,4 -4,-270 5970.61,-270 5970.61,4 -4,4"/>
<!-- Node1 -->
<g id="node1" class="node"><title>Node1</title>
<polygon fill="#bfbfbf" stroke="black" points="356.108,-246.5 356.108,-265.5 454.108,-265.5 454.108,-246.5 356.108,-246.5"/>
<text text-anchor="middle" x="405.108" y="-253.5" font-family="Helvetica,sans-Serif" font-size="10.00">boost/ui/frame.hpp</text>
</g>
<!-- Node2 -->
<g id="node2" class="node"><title>Node2</title>
<g id="a_node2"><a xlink:href="config_8hpp.html" target="_top" xlink:title="Configuration options. ">
<polygon fill="white" stroke="black" points="4904.61,-62 4904.61,-81 5003.61,-81 5003.61,-62 4904.61,-62"/>
<text text-anchor="middle" x="4954.11" y="-69" font-family="Helvetica,sans-Serif" font-size="10.00">boost/ui/config.hpp</text>
</a>
</g>
</g>
<!-- Node1&#45;&gt;Node2 -->
<g id="edge1" class="edge"><title>Node1&#45;&gt;Node2</title>
<path fill="none" stroke="midnightblue" d="M454.282,-255.04C989.69,-255.366 5718.86,-255.37 5818.11,-154 5827.75,-144.155 5827.56,-133.023 5818.11,-123 5790.52,-93.7531 5204.97,-78.1082 5013.85,-73.7671"/>
<polygon fill="midnightblue" stroke="midnightblue" points="5013.79,-70.2648 5003.71,-73.5389 5013.63,-77.263 5013.79,-70.2648"/>
</g>
<!-- Node4 -->
<g id="node4" class="node"><title>Node4</title>
<g id="a_node4"><a xlink:href="window_8hpp.html" target="_top" xlink:title="Window class. ">
<polygon fill="white" stroke="red" points="3051.11,-190.5 3051.11,-209.5 3157.11,-209.5 3157.11,-190.5 3051.11,-190.5"/>
<text text-anchor="middle" x="3104.11" y="-197.5" font-family="Helvetica,sans-Serif" font-size="10.00">boost/ui/window.hpp</text>
</a>
</g>
</g>
<!-- Node1&#45;&gt;Node4 -->
<g id="edge3" class="edge"><title>Node1&#45;&gt;Node4</title>
<path fill="none" stroke="midnightblue" d="M454.258,-254.017C783.843,-247.422 2670.61,-209.673 3041.01,-202.262"/>
<polygon fill="midnightblue" stroke="midnightblue" points="3041.09,-205.762 3051.02,-202.062 3040.95,-198.763 3041.09,-205.762"/>
</g>
<!-- Node11 -->
<g id="node11" class="node"><title>Node11</title>
<polygon fill="white" stroke="#bfbfbf" points="230.108,-56.5 230.108,-86.5 340.108,-86.5 340.108,-56.5 230.108,-56.5"/>
<text text-anchor="start" x="238.108" y="-74.5" font-family="Helvetica,sans-Serif" font-size="10.00">boost/ui/detail/shared</text>
<text text-anchor="middle" x="285.108" y="-63.5" font-family="Helvetica,sans-Serif" font-size="10.00">_count.hpp</text>
</g>
<!-- Node1&#45;&gt;Node11 -->
<g id="edge60" class="edge"><title>Node1&#45;&gt;Node11</title>
<path fill="none" stroke="midnightblue" d="M356.018,-250.843C257.646,-241.291 42.6426,-213.845 6.10759,-154 -1.07155,-142.24 -2.72466,-133.574 6.10759,-123 32.8173,-91.0217 146.206,-79.2534 219.956,-74.95"/>
<polygon fill="midnightblue" stroke="midnightblue" points="220.294,-78.4368 230.086,-74.391 219.908,-71.4474 220.294,-78.4368"/>
</g>
<!-- Node12 -->
<g id="node12" class="node"><title>Node12</title>
<polygon fill="white" stroke="#bfbfbf" points="477.608,-129 477.608,-148 576.608,-148 576.608,-129 477.608,-129"/>
<text text-anchor="middle" x="527.108" y="-136" font-family="Helvetica,sans-Serif" font-size="10.00">boost/ui/config.hpp</text>
</g>
<!-- Node1&#45;&gt;Node12 -->
<g id="edge52" class="edge"><title>Node1&#45;&gt;Node12</title>
<path fill="none" stroke="midnightblue" d="M414.277,-246.319C434.767,-226.921 484.507,-179.831 510.564,-155.162"/>
<polygon fill="midnightblue" stroke="midnightblue" points="512.976,-157.699 517.831,-148.282 508.163,-152.615 512.976,-157.699"/>
</g>
<!-- Node47 -->
<g id="node47" class="node"><title>Node47</title>
<polygon fill="white" stroke="#bfbfbf" points="15.6076,-129 15.6076,-148 132.608,-148 132.608,-129 15.6076,-129"/>
<text text-anchor="middle" x="74.1076" y="-136" font-family="Helvetica,sans-Serif" font-size="10.00">boost/noncopyable.hpp</text>
</g>
<!-- Node1&#45;&gt;Node47 -->
<g id="edge61" class="edge"><title>Node1&#45;&gt;Node47</title>
<path fill="none" stroke="midnightblue" d="M355.859,-255.146C301.402,-253.4 212.473,-244.783 145.108,-210 120.364,-197.224 98.7671,-172.802 86.0796,-156.331"/>
<polygon fill="midnightblue" stroke="midnightblue" points="88.7559,-154.064 79.9841,-148.122 83.1359,-158.237 88.7559,-154.064"/>
</g>
<!-- Node48 -->
<g id="node48" class="node"><title>Node48</title>
<polygon fill="white" stroke="#bfbfbf" points="227.608,-129 227.608,-148 340.608,-148 340.608,-129 227.608,-129"/>
<text text-anchor="middle" x="284.108" y="-136" font-family="Helvetica,sans-Serif" font-size="10.00">boost/move/utility.hpp</text>
</g>
<!-- Node1&#45;&gt;Node48 -->
<g id="edge62" class="edge"><title>Node1&#45;&gt;Node48</title>
<path fill="none" stroke="midnightblue" d="M396.013,-246.319C375.779,-227.004 326.784,-180.237 300.851,-155.483"/>
<polygon fill="midnightblue" stroke="midnightblue" points="302.958,-152.655 293.308,-148.282 298.125,-157.719 302.958,-152.655"/>
</g>
<!-- Node49 -->
<g id="node49" class="node"><title>Node49</title>
<polygon fill="white" stroke="#bfbfbf" points="5865.61,-190.5 5865.61,-209.5 5966.61,-209.5 5966.61,-190.5 5865.61,-190.5"/>
<text text-anchor="middle" x="5916.11" y="-197.5" font-family="Helvetica,sans-Serif" font-size="10.00">boost/ui/widget.hpp</text>
</g>
<!-- Node1&#45;&gt;Node49 -->
<g id="edge53" class="edge"><title>Node1&#45;&gt;Node49</title>
<path fill="none" stroke="midnightblue" d="M454.342,-254.982C964.759,-254.74 5283.39,-251.474 5851.11,-210 5852.42,-209.904 5853.74,-209.799 5855.08,-209.685"/>
<polygon fill="midnightblue" stroke="midnightblue" points="5855.83,-213.128 5865.43,-208.661 5855.14,-206.162 5855.83,-213.128"/>
</g>
<!-- Node50 -->
<g id="node50" class="node"><title>Node50</title>
<g id="a_node50"><a xlink:href="menu_8hpp.html" target="_top" xlink:title="Menu classes. ">
<polygon fill="white" stroke="black" points="154.608,-190.5 154.608,-209.5 251.608,-209.5 251.608,-190.5 154.608,-190.5"/>
<text text-anchor="middle" x="203.108" y="-197.5" font-family="Helvetica,sans-Serif" font-size="10.00">boost/ui/menu.hpp</text>
</a>
</g>
</g>
<!-- Node1&#45;&gt;Node50 -->
<g id="edge54" class="edge"><title>Node1&#45;&gt;Node50</title>
<path fill="none" stroke="midnightblue" d="M373.1,-246.444C338.379,-237.162 282.82,-222.309 244.731,-212.127"/>
<polygon fill="midnightblue" stroke="midnightblue" points="245.53,-208.718 234.965,-209.516 243.722,-215.48 245.53,-208.718"/>
</g>
<!-- Node3 -->
<g id="node3" class="node"><title>Node3</title>
<polygon fill="white" stroke="#bfbfbf" points="4948.61,-0.5 4948.61,-19.5 5037.61,-19.5 5037.61,-0.5 4948.61,-0.5"/>
<text text-anchor="middle" x="4993.11" y="-7.5" font-family="Helvetica,sans-Serif" font-size="10.00">boost/config.hpp</text>
</g>
<!-- Node2&#45;&gt;Node3 -->
<g id="edge2" class="edge"><title>Node2&#45;&gt;Node3</title>
<path fill="none" stroke="midnightblue" d="M4959.7,-61.9751C4965.49,-53.1384 4974.7,-39.0886 4981.98,-27.975"/>
<polygon fill="midnightblue" stroke="midnightblue" points="4984.98,-29.7913 4987.53,-19.5091 4979.12,-25.9539 4984.98,-29.7913"/>
</g>
<!-- Node4&#45;&gt;Node2 -->
<g id="edge4" class="edge"><title>Node4&#45;&gt;Node2</title>
<path fill="none" stroke="midnightblue" d="M3157.42,-198.731C3458.89,-197.084 4937.59,-187.315 4970.11,-154 4986.67,-137.032 4975.35,-108.234 4965.14,-89.8055"/>
<polygon fill="midnightblue" stroke="midnightblue" points="4968.02,-87.8111 4959.91,-81.0033 4962.01,-91.3877 4968.02,-87.8111"/>
</g>
<!-- Node4&#45;&gt;Node3 -->
<g id="edge5" class="edge"><title>Node4&#45;&gt;Node3</title>
<path fill="none" stroke="midnightblue" d="M3157.27,-198.546C3459.58,-195.865 4949.8,-181.28 4988.11,-154 5024.72,-127.927 5022.44,-99.9712 5013.11,-56 5011.11,-46.5915 5007.01,-36.7618 5003.03,-28.6981"/>
<polygon fill="midnightblue" stroke="midnightblue" points="5005.99,-26.8101 4998.24,-19.5932 4999.8,-30.0721 5005.99,-26.8101"/>
</g>
<!-- Node5 -->
<g id="node5" class="node"><title>Node5</title>
<polygon fill="white" stroke="#bfbfbf" points="3561.11,-129 3561.11,-148 3671.11,-148 3671.11,-129 3561.11,-129"/>
<text text-anchor="middle" x="3616.11" y="-136" font-family="Helvetica,sans-Serif" font-size="10.00">boost/config/user.hpp</text>
</g>
<!-- Node4&#45;&gt;Node5 -->
<g id="edge6" class="edge"><title>Node4&#45;&gt;Node5</title>
<path fill="none" stroke="midnightblue" d="M3157.14,-195.788C3241.28,-190.217 3410.34,-177.09 3552.11,-154 3558.53,-152.954 3565.27,-151.654 3571.86,-150.264"/>
<polygon fill="midnightblue" stroke="midnightblue" points="3573.03,-153.592 3582.05,-148.031 3571.53,-146.754 3573.03,-153.592"/>
</g>
<!-- Node6 -->
<g id="node6" class="node"><title>Node6</title>
<polygon fill="white" stroke="#bfbfbf" points="3689.11,-123.5 3689.11,-153.5 3827.11,-153.5 3827.11,-123.5 3689.11,-123.5"/>
<text text-anchor="start" x="3697.11" y="-141.5" font-family="Helvetica,sans-Serif" font-size="10.00">boost/config/detail</text>
<text text-anchor="middle" x="3758.11" y="-130.5" font-family="Helvetica,sans-Serif" font-size="10.00">/select_compiler_config.hpp</text>
</g>
<!-- Node4&#45;&gt;Node6 -->
<g id="edge7" class="edge"><title>Node4&#45;&gt;Node6</title>
<path fill="none" stroke="midnightblue" d="M3157.11,-196.737C3257.16,-192.058 3480.84,-179.653 3678.84,-154.076"/>
<polygon fill="midnightblue" stroke="midnightblue" points="3679.38,-157.535 3688.85,-152.769 3678.48,-150.594 3679.38,-157.535"/>
</g>
<!-- Node7 -->
<g id="node7" class="node"><title>Node7</title>
<polygon fill="white" stroke="#bfbfbf" points="3845.61,-123.5 3845.61,-153.5 3982.61,-153.5 3982.61,-123.5 3845.61,-123.5"/>
<text text-anchor="start" x="3853.61" y="-141.5" font-family="Helvetica,sans-Serif" font-size="10.00">boost/config/detail</text>
<text text-anchor="middle" x="3914.11" y="-130.5" font-family="Helvetica,sans-Serif" font-size="10.00">/select_platform_config.hpp</text>
</g>
<!-- Node4&#45;&gt;Node7 -->
<g id="edge8" class="edge"><title>Node4&#45;&gt;Node7</title>
<path fill="none" stroke="midnightblue" d="M3157.13,-197.963C3276.46,-195.151 3575.34,-185.431 3835.27,-153.992"/>
<polygon fill="midnightblue" stroke="midnightblue" points="3835.77,-157.456 3845.28,-152.768 3834.92,-150.508 3835.77,-157.456"/>
</g>
<!-- Node8 -->
<g id="node8" class="node"><title>Node8</title>
<polygon fill="white" stroke="#bfbfbf" points="4001.11,-123.5 4001.11,-153.5 4097.11,-153.5 4097.11,-123.5 4001.11,-123.5"/>
<text text-anchor="start" x="4009.11" y="-141.5" font-family="Helvetica,sans-Serif" font-size="10.00">boost/config/detail</text>
<text text-anchor="middle" x="4049.11" y="-130.5" font-family="Helvetica,sans-Serif" font-size="10.00">/suffix.hpp</text>
</g>
<!-- Node4&#45;&gt;Node8 -->
<g id="edge9" class="edge"><title>Node4&#45;&gt;Node8</title>
<path fill="none" stroke="midnightblue" d="M3157.39,-197.688C3320.19,-193.463 3810.49,-179.093 3990.89,-153.919"/>
<polygon fill="midnightblue" stroke="midnightblue" points="3991.65,-157.346 4001.04,-152.441 3990.64,-150.419 3991.65,-157.346"/>
</g>
<!-- Node9 -->
<g id="node9" class="node"><title>Node9</title>
<polygon fill="white" stroke="#bfbfbf" points="4115.11,-129 4115.11,-148 4163.11,-148 4163.11,-129 4115.11,-129"/>
<text text-anchor="middle" x="4139.11" y="-136" font-family="Helvetica,sans-Serif" font-size="10.00">limits.h</text>
</g>
<!-- Node4&#45;&gt;Node9 -->
<g id="edge10" class="edge"><title>Node4&#45;&gt;Node9</title>
<path fill="none" stroke="midnightblue" d="M3157.37,-199.181C3337.58,-199.393 3923.29,-196.698 4106.11,-154 4108.47,-153.448 4110.88,-152.729 4113.26,-151.908"/>
<polygon fill="midnightblue" stroke="midnightblue" points="4114.75,-155.082 4122.73,-148.116 4112.15,-148.584 4114.75,-155.082"/>
</g>
<!-- Node10 -->
<g id="node10" class="node"><title>Node10</title>
<g id="a_node10"><a xlink:href="widget_8hpp.html" target="_top" xlink:title="Widget class. ">
<polygon fill="white" stroke="red" points="358.608,-129 358.608,-148 459.608,-148 459.608,-129 358.608,-129"/>
<text text-anchor="middle" x="409.108" y="-136" font-family="Helvetica,sans-Serif" font-size="10.00">boost/ui/widget.hpp</text>
</a>
</g>
</g>
<!-- Node4&#45;&gt;Node10 -->
<g id="edge11" class="edge"><title>Node4&#45;&gt;Node10</title>
<path fill="none" stroke="midnightblue" d="M3051.06,-198.808C2701.35,-197.451 732.647,-188.324 468.108,-154 461.655,-153.163 454.886,-151.887 448.328,-150.433"/>
<polygon fill="midnightblue" stroke="midnightblue" points="448.811,-146.95 438.273,-148.038 447.19,-153.76 448.811,-146.95"/>
</g>
<!-- Node4&#45;&gt;Node11 -->
<g id="edge51" class="edge"><title>Node4&#45;&gt;Node11</title>
<path fill="none" stroke="midnightblue" d="M3157.45,-198.707C3455.78,-196.943 4905.2,-186.698 4937.11,-154 4946.73,-144.139 4946.8,-132.795 4937.11,-123 4894.88,-80.3078 913.113,-73.351 350.826,-72.5813"/>
<polygon fill="midnightblue" stroke="midnightblue" points="350.475,-69.0809 340.47,-72.5673 350.466,-76.0809 350.475,-69.0809"/>
</g>
<!-- Node4&#45;&gt;Node12 -->
<g id="edge14" class="edge"><title>Node4&#45;&gt;Node12</title>
<path fill="none" stroke="midnightblue" d="M3050.97,-198.775C2710.14,-197.239 837.22,-187.325 585.108,-154 578.76,-153.161 572.104,-151.884 565.656,-150.43"/>
<polygon fill="midnightblue" stroke="midnightblue" points="566.313,-146.988 555.77,-148.035 564.665,-153.791 566.313,-146.988"/>
</g>
<!-- Node13 -->
<g id="node13" class="node"><title>Node13</title>
<polygon fill="white" stroke="#bfbfbf" points="4181.61,-129 4181.61,-148 4278.61,-148 4278.61,-129 4181.61,-129"/>
<text text-anchor="middle" x="4230.11" y="-136" font-family="Helvetica,sans-Serif" font-size="10.00">boost/ui/coord.hpp</text>
</g>
<!-- Node4&#45;&gt;Node13 -->
<g id="edge15" class="edge"><title>Node4&#45;&gt;Node13</title>
<path fill="none" stroke="midnightblue" d="M3157.36,-198.185C3344.73,-195.096 3972.94,-182.788 4172.11,-154 4178.16,-153.125 4184.5,-151.884 4190.68,-150.493"/>
<polygon fill="midnightblue" stroke="midnightblue" points="4191.93,-153.791 4200.83,-148.046 4190.29,-146.986 4191.93,-153.791"/>
</g>
<!-- Node14 -->
<g id="node14" class="node"><title>Node14</title>
<polygon fill="white" stroke="#bfbfbf" points="4296.61,-129 4296.61,-148 4399.61,-148 4399.61,-129 4296.61,-129"/>
<text text-anchor="middle" x="4348.11" y="-136" font-family="Helvetica,sans-Serif" font-size="10.00">boost/geometry.hpp</text>
</g>
<!-- Node4&#45;&gt;Node14 -->
<g id="edge16" class="edge"><title>Node4&#45;&gt;Node14</title>
<path fill="none" stroke="midnightblue" d="M3157.17,-198.387C3357.13,-195.86 4064.99,-184.886 4288.11,-154 4294.52,-153.113 4301.24,-151.838 4307.77,-150.407"/>
<polygon fill="midnightblue" stroke="midnightblue" points="4308.87,-153.745 4317.81,-148.063 4307.28,-146.929 4308.87,-153.745"/>
</g>
<!-- Node15 -->
<g id="node15" class="node"><title>Node15</title>
<polygon fill="white" stroke="#bfbfbf" points="4418.11,-129 4418.11,-148 4564.11,-148 4564.11,-129 4418.11,-129"/>
<text text-anchor="middle" x="4491.11" y="-136" font-family="Helvetica,sans-Serif" font-size="10.00">boost/geometry/geometry.hpp</text>
</g>
<!-- Node4&#45;&gt;Node15 -->
<g id="edge17" class="edge"><title>Node4&#45;&gt;Node15</title>
<path fill="none" stroke="midnightblue" d="M3157.37,-198.163C3370.22,-194.665 4160.26,-180.161 4409.11,-154 4419.03,-152.957 4429.56,-151.423 4439.65,-149.738"/>
<polygon fill="midnightblue" stroke="midnightblue" points="4440.3,-153.177 4449.55,-148.016 4439.1,-146.281 4440.3,-153.177"/>
</g>
<!-- Node16 -->
<g id="node16" class="node"><title>Node16</title>
<polygon fill="white" stroke="#bfbfbf" points="4582.11,-123.5 4582.11,-153.5 4688.11,-153.5 4688.11,-123.5 4582.11,-123.5"/>
<text text-anchor="start" x="4590.11" y="-141.5" font-family="Helvetica,sans-Serif" font-size="10.00">boost/geometry/core</text>
<text text-anchor="middle" x="4635.11" y="-130.5" font-family="Helvetica,sans-Serif" font-size="10.00">/closure.hpp</text>
</g>
<!-- Node4&#45;&gt;Node16 -->
<g id="edge18" class="edge"><title>Node4&#45;&gt;Node16</title>
<path fill="none" stroke="midnightblue" d="M3157.37,-198.789C3384.14,-197.673 4270.95,-191.062 4571.78,-153.954"/>
<polygon fill="midnightblue" stroke="midnightblue" points="4572.32,-157.413 4581.8,-152.678 4571.44,-150.47 4572.32,-157.413"/>
</g>
<!-- Node17 -->
<g id="node17" class="node"><title>Node17</title>
<polygon fill="white" stroke="#bfbfbf" points="4706.11,-129 4706.11,-148 4814.11,-148 4814.11,-129 4706.11,-129"/>
<text text-anchor="middle" x="4760.11" y="-136" font-family="Helvetica,sans-Serif" font-size="10.00">boost/mpl/assert.hpp</text>
</g>
<!-- Node4&#45;&gt;Node17 -->
<g id="edge19" class="edge"><title>Node4&#45;&gt;Node17</title>
<path fill="none" stroke="midnightblue" d="M3157.34,-198.912C3398.42,-198.294 4389.4,-193.363 4697.11,-154 4704.06,-153.11 4711.38,-151.791 4718.46,-150.305"/>
<polygon fill="midnightblue" stroke="midnightblue" points="4719.61,-153.635 4728.6,-148.039 4718.08,-146.804 4719.61,-153.635"/>
</g>
<!-- Node18 -->
<g id="node18" class="node"><title>Node18</title>
<polygon fill="white" stroke="#bfbfbf" points="4832.61,-129 4832.61,-148 4927.61,-148 4927.61,-129 4832.61,-129"/>
<text text-anchor="middle" x="4880.11" y="-136" font-family="Helvetica,sans-Serif" font-size="10.00">boost/mpl/not.hpp</text>
</g>
<!-- Node4&#45;&gt;Node18 -->
<g id="edge20" class="edge"><title>Node4&#45;&gt;Node18</title>
<path fill="none" stroke="midnightblue" d="M3157.3,-199.203C3409.86,-199.921 4489.69,-200.183 4823.11,-154 4829.13,-153.165 4835.44,-151.934 4841.57,-150.535"/>
<polygon fill="midnightblue" stroke="midnightblue" points="4842.77,-153.846 4851.65,-148.065 4841.1,-147.047 4842.77,-153.846"/>
</g>
<!-- Node19 -->
<g id="node19" class="node"><title>Node19</title>
<polygon fill="white" stroke="#bfbfbf" points="5060.61,-129 5060.61,-148 5159.61,-148 5159.61,-129 5060.61,-129"/>
<text text-anchor="middle" x="5110.11" y="-136" font-family="Helvetica,sans-Serif" font-size="10.00">boost/mpl/bool.hpp</text>
</g>
<!-- Node4&#45;&gt;Node19 -->
<g id="edge21" class="edge"><title>Node4&#45;&gt;Node19</title>
<path fill="none" stroke="midnightblue" d="M3157.25,-199.202C3429.03,-200.017 4665.6,-201.034 5046.11,-154 5053.34,-153.106 5060.95,-151.755 5068.3,-150.229"/>
<polygon fill="midnightblue" stroke="midnightblue" points="5069.09,-153.64 5078.1,-148.069 5067.58,-146.804 5069.09,-153.64"/>
</g>
<!-- Node20 -->
<g id="node20" class="node"><title>Node20</title>
<polygon fill="white" stroke="#bfbfbf" points="5178.11,-129 5178.11,-148 5298.11,-148 5298.11,-129 5178.11,-129"/>
<text text-anchor="middle" x="5238.11" y="-136" font-family="Helvetica,sans-Serif" font-size="10.00">boost/mpl/bool_fwd.hpp</text>
</g>
<!-- Node4&#45;&gt;Node20 -->
<g id="edge22" class="edge"><title>Node4&#45;&gt;Node20</title>
<path fill="none" stroke="midnightblue" d="M3157.31,-199.176C3439.39,-199.906 4762.54,-200.74 5169.11,-154 5177.06,-153.086 5185.45,-151.693 5193.54,-150.125"/>
<polygon fill="midnightblue" stroke="midnightblue" points="5194.47,-153.506 5203.56,-148.068 5193.07,-146.649 5194.47,-153.506"/>
</g>
<!-- Node21 -->
<g id="node21" class="node"><title>Node21</title>
<polygon fill="white" stroke="#bfbfbf" points="5316.61,-123.5 5316.61,-153.5 5415.61,-153.5 5415.61,-123.5 5316.61,-123.5"/>
<text text-anchor="start" x="5324.61" y="-141.5" font-family="Helvetica,sans-Serif" font-size="10.00">boost/mpl/aux_/adl</text>
<text text-anchor="middle" x="5366.11" y="-130.5" font-family="Helvetica,sans-Serif" font-size="10.00">_barrier.hpp</text>
</g>
<!-- Node4&#45;&gt;Node21 -->
<g id="edge23" class="edge"><title>Node4&#45;&gt;Node21</title>
<path fill="none" stroke="midnightblue" d="M3157.28,-198.616C3468.03,-196.282 5044.25,-183.144 5306.23,-153.774"/>
<polygon fill="midnightblue" stroke="midnightblue" points="5306.86,-157.224 5316.36,-152.544 5306.01,-150.275 5306.86,-157.224"/>
</g>
<!-- Node22 -->
<g id="node22" class="node"><title>Node22</title>
<polygon fill="white" stroke="#bfbfbf" points="5433.61,-123.5 5433.61,-153.5 5546.61,-153.5 5546.61,-123.5 5433.61,-123.5"/>
<text text-anchor="start" x="5441.61" y="-141.5" font-family="Helvetica,sans-Serif" font-size="10.00">boost/mpl/aux_/config</text>
<text text-anchor="middle" x="5490.11" y="-130.5" font-family="Helvetica,sans-Serif" font-size="10.00">/adl.hpp</text>
</g>
<!-- Node4&#45;&gt;Node22 -->
<g id="edge24" class="edge"><title>Node4&#45;&gt;Node22</title>
<path fill="none" stroke="midnightblue" d="M3157.19,-198.608C3477.57,-196.159 5148.57,-182.175 5423.25,-153.965"/>
<polygon fill="midnightblue" stroke="midnightblue" points="5423.95,-157.409 5433.5,-152.827 5423.18,-150.452 5423.95,-157.409"/>
</g>
<!-- Node23 -->
<g id="node23" class="node"><title>Node23</title>
<polygon fill="white" stroke="#bfbfbf" points="5564.61,-123.5 5564.61,-153.5 5677.61,-153.5 5677.61,-123.5 5564.61,-123.5"/>
<text text-anchor="start" x="5572.61" y="-141.5" font-family="Helvetica,sans-Serif" font-size="10.00">boost/mpl/aux_/config</text>
<text text-anchor="middle" x="5621.11" y="-130.5" font-family="Helvetica,sans-Serif" font-size="10.00">/msvc.hpp</text>
</g>
<!-- Node4&#45;&gt;Node23 -->
<g id="edge25" class="edge"><title>Node4&#45;&gt;Node23</title>
<path fill="none" stroke="midnightblue" d="M3157.17,-198.667C3488.33,-196.506 5266.47,-183.648 5554.51,-153.94"/>
<polygon fill="midnightblue" stroke="midnightblue" points="5554.95,-157.413 5564.5,-152.83 5554.18,-150.455 5554.95,-157.413"/>
</g>
<!-- Node24 -->
<g id="node24" class="node"><title>Node24</title>
<polygon fill="white" stroke="#bfbfbf" points="5695.61,-123.5 5695.61,-153.5 5808.61,-153.5 5808.61,-123.5 5695.61,-123.5"/>
<text text-anchor="start" x="5703.61" y="-141.5" font-family="Helvetica,sans-Serif" font-size="10.00">boost/mpl/aux_/config</text>
<text text-anchor="middle" x="5752.11" y="-130.5" font-family="Helvetica,sans-Serif" font-size="10.00">/intel.hpp</text>
</g>
<!-- Node4&#45;&gt;Node24 -->
<g id="edge26" class="edge"><title>Node4&#45;&gt;Node24</title>
<path fill="none" stroke="midnightblue" d="M3157.18,-198.72C3498.79,-196.834 5382.92,-185.136 5685.42,-153.951"/>
<polygon fill="midnightblue" stroke="midnightblue" points="5685.95,-157.413 5695.5,-152.834 5685.18,-150.456 5685.95,-157.413"/>
</g>
<!-- Node25 -->
<g id="node25" class="node"><title>Node25</title>
<polygon fill="white" stroke="#bfbfbf" points="594.608,-123.5 594.608,-153.5 707.608,-153.5 707.608,-123.5 594.608,-123.5"/>
<text text-anchor="start" x="602.608" y="-141.5" font-family="Helvetica,sans-Serif" font-size="10.00">boost/mpl/aux_/config</text>
<text text-anchor="middle" x="651.108" y="-130.5" font-family="Helvetica,sans-Serif" font-size="10.00">/gcc.hpp</text>
</g>
<!-- Node4&#45;&gt;Node25 -->
<g id="edge27" class="edge"><title>Node4&#45;&gt;Node25</title>
<path fill="none" stroke="midnightblue" d="M3050.86,-198.627C2724.58,-196.26 1000.29,-182.535 718.035,-153.83"/>
<polygon fill="midnightblue" stroke="midnightblue" points="718.19,-150.326 707.868,-152.715 717.427,-157.285 718.19,-150.326"/>
</g>
<!-- Node26 -->
<g id="node26" class="node"><title>Node26</title>
<polygon fill="white" stroke="#bfbfbf" points="725.608,-123.5 725.608,-153.5 838.608,-153.5 838.608,-123.5 725.608,-123.5"/>
<text text-anchor="start" x="733.608" y="-141.5" font-family="Helvetica,sans-Serif" font-size="10.00">boost/mpl/aux_/config</text>
<text text-anchor="middle" x="782.108" y="-130.5" font-family="Helvetica,sans-Serif" font-size="10.00">/workaround.hpp</text>
</g>
<!-- Node4&#45;&gt;Node26 -->
<g id="edge28" class="edge"><title>Node4&#45;&gt;Node26</title>
<path fill="none" stroke="midnightblue" d="M3050.97,-198.566C2735.78,-195.907 1116.45,-181.077 848.863,-153.811"/>
<polygon fill="midnightblue" stroke="midnightblue" points="849.191,-150.326 838.869,-152.711 848.426,-157.284 849.191,-150.326"/>
</g>
<!-- Node27 -->
<g id="node27" class="node"><title>Node27</title>
<polygon fill="white" stroke="#bfbfbf" points="856.608,-129 856.608,-148 995.608,-148 995.608,-129 856.608,-129"/>
<text text-anchor="middle" x="926.108" y="-136" font-family="Helvetica,sans-Serif" font-size="10.00">boost/detail/workaround.hpp</text>
</g>
<!-- Node4&#45;&gt;Node27 -->
<g id="edge29" class="edge"><title>Node4&#45;&gt;Node27</title>
<path fill="none" stroke="midnightblue" d="M3050.99,-199.014C2766.38,-198.915 1419.4,-196.187 1005.11,-154 995.532,-153.025 985.377,-151.522 975.651,-149.846"/>
<polygon fill="midnightblue" stroke="midnightblue" points="976.176,-146.384 965.714,-148.052 974.933,-153.273 976.176,-146.384"/>
</g>
<!-- Node28 -->
<g id="node28" class="node"><title>Node28</title>
<polygon fill="white" stroke="#bfbfbf" points="1014.11,-129 1014.11,-148 1156.11,-148 1156.11,-129 1014.11,-129"/>
<text text-anchor="middle" x="1085.11" y="-136" font-family="Helvetica,sans-Serif" font-size="10.00">boost/config/workaround.hpp</text>
</g>
<!-- Node4&#45;&gt;Node28 -->
<g id="edge30" class="edge"><title>Node4&#45;&gt;Node28</title>
<path fill="none" stroke="midnightblue" d="M3051.08,-198.889C2779.9,-198.153 1545.96,-192.695 1165.11,-154 1155.41,-153.015 1145.13,-151.507 1135.28,-149.83"/>
<polygon fill="midnightblue" stroke="midnightblue" points="1135.68,-146.346 1125.22,-148.036 1134.45,-153.237 1135.68,-146.346"/>
</g>
<!-- Node29 -->
<g id="node29" class="node"><title>Node29</title>
<polygon fill="white" stroke="#bfbfbf" points="1174.11,-123.5 1174.11,-153.5 1268.11,-153.5 1268.11,-123.5 1174.11,-123.5"/>
<text text-anchor="start" x="1182.11" y="-141.5" font-family="Helvetica,sans-Serif" font-size="10.00">boost/mpl/integral</text>
<text text-anchor="middle" x="1221.11" y="-130.5" font-family="Helvetica,sans-Serif" font-size="10.00">_c_tag.hpp</text>
</g>
<!-- Node4&#45;&gt;Node29 -->
<g id="edge31" class="edge"><title>Node4&#45;&gt;Node29</title>
<path fill="none" stroke="midnightblue" d="M3050.69,-199.299C2788.24,-200.522 1633.68,-202.974 1278.11,-154 1278.01,-153.986 1277.91,-153.972 1277.8,-153.958"/>
<polygon fill="midnightblue" stroke="midnightblue" points="1278.66,-150.553 1268.22,-152.353 1277.51,-157.457 1278.66,-150.553"/>
</g>
<!-- Node30 -->
<g id="node30" class="node"><title>Node30</title>
<polygon fill="white" stroke="#bfbfbf" points="1286.61,-123.5 1286.61,-153.5 1399.61,-153.5 1399.61,-123.5 1286.61,-123.5"/>
<text text-anchor="start" x="1294.61" y="-141.5" font-family="Helvetica,sans-Serif" font-size="10.00">boost/mpl/aux_/config</text>
<text text-anchor="middle" x="1343.11" y="-130.5" font-family="Helvetica,sans-Serif" font-size="10.00">/static_constant.hpp</text>
</g>
<!-- Node4&#45;&gt;Node30 -->
<g id="edge32" class="edge"><title>Node4&#45;&gt;Node30</title>
<path fill="none" stroke="midnightblue" d="M3050.86,-198.946C2802.87,-198.489 1758.88,-194.235 1409.99,-153.891"/>
<polygon fill="midnightblue" stroke="midnightblue" points="1410.22,-150.394 1399.87,-152.687 1409.39,-157.345 1410.22,-150.394"/>
</g>
<!-- Node31 -->
<g id="node31" class="node"><title>Node31</title>
<polygon fill="white" stroke="#bfbfbf" points="1417.61,-123.5 1417.61,-153.5 1520.61,-153.5 1520.61,-123.5 1417.61,-123.5"/>
<text text-anchor="start" x="1425.61" y="-141.5" font-family="Helvetica,sans-Serif" font-size="10.00">boost/mpl/aux_/nttp</text>
<text text-anchor="middle" x="1469.11" y="-130.5" font-family="Helvetica,sans-Serif" font-size="10.00">_decl.hpp</text>
</g>
<!-- Node4&#45;&gt;Node31 -->
<g id="edge33" class="edge"><title>Node4&#45;&gt;Node31</title>
<path fill="none" stroke="midnightblue" d="M3051.1,-198.942C2814.75,-198.46 1854.77,-194.106 1531.2,-153.893"/>
<polygon fill="midnightblue" stroke="midnightblue" points="1531.25,-150.371 1520.89,-152.57 1530.36,-157.314 1531.25,-150.371"/>
</g>
<!-- Node32 -->
<g id="node32" class="node"><title>Node32</title>
<polygon fill="white" stroke="#bfbfbf" points="1538.61,-123.5 1538.61,-153.5 1651.61,-153.5 1651.61,-123.5 1538.61,-123.5"/>
<text text-anchor="start" x="1546.61" y="-141.5" font-family="Helvetica,sans-Serif" font-size="10.00">boost/mpl/aux_/config</text>
<text text-anchor="middle" x="1595.11" y="-130.5" font-family="Helvetica,sans-Serif" font-size="10.00">/nttp.hpp</text>
</g>
<!-- Node4&#45;&gt;Node32 -->
<g id="edge34" class="edge"><title>Node4&#45;&gt;Node32</title>
<path fill="none" stroke="midnightblue" d="M3051.04,-198.66C2827.23,-197.028 1958.66,-188.629 1662.18,-153.916"/>
<polygon fill="midnightblue" stroke="midnightblue" points="1662.22,-150.396 1651.87,-152.67 1661.38,-157.345 1662.22,-150.396"/>
</g>
<!-- Node33 -->
<g id="node33" class="node"><title>Node33</title>
<polygon fill="white" stroke="#bfbfbf" points="1670.11,-123.5 1670.11,-153.5 1786.11,-153.5 1786.11,-123.5 1670.11,-123.5"/>
<text text-anchor="start" x="1678.11" y="-141.5" font-family="Helvetica,sans-Serif" font-size="10.00">boost/mpl/aux_/nested</text>
<text text-anchor="middle" x="1728.11" y="-130.5" font-family="Helvetica,sans-Serif" font-size="10.00">_type_wknd.hpp</text>
</g>
<!-- Node4&#45;&gt;Node33 -->
<g id="edge35" class="edge"><title>Node4&#45;&gt;Node33</title>
<path fill="none" stroke="midnightblue" d="M3051.02,-198.442C2840.63,-196.035 2064.37,-185.275 1796.54,-153.99"/>
<polygon fill="midnightblue" stroke="midnightblue" points="1796.82,-150.497 1786.47,-152.773 1795.98,-157.447 1796.82,-150.497"/>
</g>
<!-- Node34 -->
<g id="node34" class="node"><title>Node34</title>
<polygon fill="white" stroke="#bfbfbf" points="1804.11,-129 1804.11,-148 1946.11,-148 1946.11,-129 1804.11,-129"/>
<text text-anchor="middle" x="1875.11" y="-136" font-family="Helvetica,sans-Serif" font-size="10.00">boost/mpl/aux_/na_spec.hpp</text>
</g>
<!-- Node4&#45;&gt;Node34 -->
<g id="edge36" class="edge"><title>Node4&#45;&gt;Node34</title>
<path fill="none" stroke="midnightblue" d="M3050.94,-199.56C2887.09,-200.718 2375.56,-200.107 1955.11,-154 1945.63,-152.961 1935.59,-151.461 1925.93,-149.815"/>
<polygon fill="midnightblue" stroke="midnightblue" points="1926.51,-146.364 1916.06,-148.061 1925.29,-153.256 1926.51,-146.364"/>
</g>
<!-- Node35 -->
<g id="node35" class="node"><title>Node35</title>
<polygon fill="white" stroke="#bfbfbf" points="1964.11,-129 1964.11,-148 2098.11,-148 2098.11,-129 1964.11,-129"/>
<text text-anchor="middle" x="2031.11" y="-136" font-family="Helvetica,sans-Serif" font-size="10.00">boost/mpl/lambda_fwd.hpp</text>
</g>
<!-- Node4&#45;&gt;Node35 -->
<g id="edge37" class="edge"><title>Node4&#45;&gt;Node35</title>
<path fill="none" stroke="midnightblue" d="M3050.93,-199.276C2901.6,-199.475 2465.91,-196.104 2107.11,-154 2098.29,-152.965 2088.95,-151.497 2079.96,-149.89"/>
<polygon fill="midnightblue" stroke="midnightblue" points="2080.47,-146.424 2070,-148.031 2079.18,-153.305 2080.47,-146.424"/>
</g>
<!-- Node36 -->
<g id="node36" class="node"><title>Node36</title>
<polygon fill="white" stroke="#bfbfbf" points="2116.11,-129 2116.11,-148 2236.11,-148 2236.11,-129 2116.11,-129"/>
<text text-anchor="middle" x="2176.11" y="-136" font-family="Helvetica,sans-Serif" font-size="10.00">boost/mpl/void_fwd.hpp</text>
</g>
<!-- Node4&#45;&gt;Node36 -->
<g id="edge38" class="edge"><title>Node4&#45;&gt;Node36</title>
<path fill="none" stroke="midnightblue" d="M3051.07,-199.068C2916,-198.624 2548.3,-193.557 2245.11,-154 2237.34,-152.987 2229.15,-151.574 2221.22,-150.025"/>
<polygon fill="midnightblue" stroke="midnightblue" points="2221.88,-146.588 2211.38,-148.01 2220.48,-153.445 2221.88,-146.588"/>
</g>
<!-- Node37 -->
<g id="node37" class="node"><title>Node37</title>
<polygon fill="white" stroke="#bfbfbf" points="2254.11,-129 2254.11,-148 2370.11,-148 2370.11,-129 2254.11,-129"/>
<text text-anchor="middle" x="2312.11" y="-136" font-family="Helvetica,sans-Serif" font-size="10.00">boost/mpl/aux_/na.hpp</text>
</g>
<!-- Node4&#45;&gt;Node37 -->
<g id="edge39" class="edge"><title>Node4&#45;&gt;Node37</title>
<path fill="none" stroke="midnightblue" d="M3050.7,-198.38C2930.42,-196.394 2629.34,-188.127 2380.11,-154 2372.62,-152.975 2364.74,-151.585 2357.09,-150.069"/>
<polygon fill="midnightblue" stroke="midnightblue" points="2357.73,-146.628 2347.23,-148.025 2356.31,-153.482 2357.73,-146.628"/>
</g>
<!-- Node38 -->
<g id="node38" class="node"><title>Node38</title>
<polygon fill="white" stroke="#bfbfbf" points="2388.61,-129 2388.61,-148 2525.61,-148 2525.61,-129 2388.61,-129"/>
<text text-anchor="middle" x="2457.11" y="-136" font-family="Helvetica,sans-Serif" font-size="10.00">boost/mpl/aux_/na_fwd.hpp</text>
</g>
<!-- Node4&#45;&gt;Node38 -->
<g id="edge40" class="edge"><title>Node4&#45;&gt;Node38</title>
<path fill="none" stroke="midnightblue" d="M3050.96,-196.66C2950.07,-191.806 2723.97,-178.953 2535.11,-154 2526.57,-152.872 2517.55,-151.43 2508.79,-149.894"/>
<polygon fill="midnightblue" stroke="midnightblue" points="2509.14,-146.4 2498.67,-148.062 2507.89,-153.288 2509.14,-146.4"/>
</g>
<!-- Node39 -->
<g id="node39" class="node"><title>Node39</title>
<polygon fill="white" stroke="#bfbfbf" points="2543.61,-123.5 2543.61,-153.5 2656.61,-153.5 2656.61,-123.5 2543.61,-123.5"/>
<text text-anchor="start" x="2551.61" y="-141.5" font-family="Helvetica,sans-Serif" font-size="10.00">boost/mpl/aux_/config</text>
<text text-anchor="middle" x="2600.11" y="-130.5" font-family="Helvetica,sans-Serif" font-size="10.00">/ctps.hpp</text>
</g>
<!-- Node4&#45;&gt;Node39 -->
<g id="edge41" class="edge"><title>Node4&#45;&gt;Node39</title>
<path fill="none" stroke="midnightblue" d="M3050.93,-195.499C2970.1,-189.747 2811.37,-176.763 2666.85,-153.995"/>
<polygon fill="midnightblue" stroke="midnightblue" points="2667.34,-150.529 2656.91,-152.41 2666.23,-157.441 2667.34,-150.529"/>
</g>
<!-- Node40 -->
<g id="node40" class="node"><title>Node40</title>
<polygon fill="white" stroke="#bfbfbf" points="2674.61,-123.5 2674.61,-153.5 2787.61,-153.5 2787.61,-123.5 2674.61,-123.5"/>
<text text-anchor="start" x="2682.61" y="-141.5" font-family="Helvetica,sans-Serif" font-size="10.00">boost/mpl/aux_/config</text>
<text text-anchor="middle" x="2731.11" y="-130.5" font-family="Helvetica,sans-Serif" font-size="10.00">/lambda.hpp</text>
</g>
<!-- Node4&#45;&gt;Node40 -->
<g id="edge42" class="edge"><title>Node4&#45;&gt;Node40</title>
<path fill="none" stroke="midnightblue" d="M3050.95,-192.369C2991.69,-184.717 2892.78,-171.175 2797.98,-154.081"/>
<polygon fill="midnightblue" stroke="midnightblue" points="2798.4,-150.6 2787.94,-152.253 2797.15,-157.486 2798.4,-150.6"/>
</g>
<!-- Node41 -->
<g id="node41" class="node"><title>Node41</title>
<polygon fill="white" stroke="#bfbfbf" points="2805.61,-123.5 2805.61,-153.5 2918.61,-153.5 2918.61,-123.5 2805.61,-123.5"/>
<text text-anchor="start" x="2813.61" y="-141.5" font-family="Helvetica,sans-Serif" font-size="10.00">boost/mpl/aux_/config</text>
<text text-anchor="middle" x="2862.11" y="-130.5" font-family="Helvetica,sans-Serif" font-size="10.00">/ttp.hpp</text>
</g>
<!-- Node4&#45;&gt;Node41 -->
<g id="edge43" class="edge"><title>Node4&#45;&gt;Node41</title>
<path fill="none" stroke="midnightblue" d="M3069.43,-190.475C3032.79,-181.464 2974.09,-167.032 2928.49,-155.821"/>
<polygon fill="midnightblue" stroke="midnightblue" points="2929.22,-152.397 2918.68,-153.408 2927.55,-159.195 2929.22,-152.397"/>
</g>
<!-- Node42 -->
<g id="node42" class="node"><title>Node42</title>
<polygon fill="white" stroke="#bfbfbf" points="2937.11,-129 2937.11,-148 3029.11,-148 3029.11,-129 2937.11,-129"/>
<text text-anchor="middle" x="2983.11" y="-136" font-family="Helvetica,sans-Serif" font-size="10.00">boost/mpl/int.hpp</text>
</g>
<!-- Node4&#45;&gt;Node42 -->
<g id="edge44" class="edge"><title>Node4&#45;&gt;Node42</title>
<path fill="none" stroke="midnightblue" d="M3086.77,-190.475C3066.55,-180.534 3032.92,-163.995 3009.47,-152.461"/>
<polygon fill="midnightblue" stroke="midnightblue" points="3010.93,-149.281 3000.41,-148.009 3007.84,-155.563 3010.93,-149.281"/>
</g>
<!-- Node43 -->
<g id="node43" class="node"><title>Node43</title>
<polygon fill="white" stroke="#bfbfbf" points="3047.61,-129 3047.61,-148 3160.61,-148 3160.61,-129 3047.61,-129"/>
<text text-anchor="middle" x="3104.11" y="-136" font-family="Helvetica,sans-Serif" font-size="10.00">boost/mpl/int_fwd.hpp</text>
</g>
<!-- Node4&#45;&gt;Node43 -->
<g id="edge45" class="edge"><title>Node4&#45;&gt;Node43</title>
<path fill="none" stroke="midnightblue" d="M3104.11,-190.475C3104.11,-182.08 3104.11,-168.981 3104.11,-158.163"/>
<polygon fill="midnightblue" stroke="midnightblue" points="3107.61,-158.009 3104.11,-148.009 3100.61,-158.009 3107.61,-158.009"/>
</g>
<!-- Node44 -->
<g id="node44" class="node"><title>Node44</title>
<polygon fill="white" stroke="#bfbfbf" points="3179.11,-123.5 3179.11,-153.5 3297.11,-153.5 3297.11,-123.5 3179.11,-123.5"/>
<text text-anchor="start" x="3187.11" y="-141.5" font-family="Helvetica,sans-Serif" font-size="10.00">boost/mpl/aux_/integral</text>
<text text-anchor="middle" x="3238.11" y="-130.5" font-family="Helvetica,sans-Serif" font-size="10.00">_wrapper.hpp</text>
</g>
<!-- Node4&#45;&gt;Node44 -->
<g id="edge46" class="edge"><title>Node4&#45;&gt;Node44</title>
<path fill="none" stroke="midnightblue" d="M3123.31,-190.475C3142.47,-181.965 3172.53,-168.619 3197.08,-157.718"/>
<polygon fill="midnightblue" stroke="midnightblue" points="3198.81,-160.78 3206.53,-153.523 3195.97,-154.382 3198.81,-160.78"/>
</g>
<!-- Node45 -->
<g id="node45" class="node"><title>Node45</title>
<polygon fill="white" stroke="#bfbfbf" points="3315.11,-123.5 3315.11,-153.5 3425.11,-153.5 3425.11,-123.5 3315.11,-123.5"/>
<text text-anchor="start" x="3323.11" y="-141.5" font-family="Helvetica,sans-Serif" font-size="10.00">boost/mpl/aux_/static</text>
<text text-anchor="middle" x="3370.11" y="-130.5" font-family="Helvetica,sans-Serif" font-size="10.00">_cast.hpp</text>
</g>
<!-- Node4&#45;&gt;Node45 -->
<g id="edge47" class="edge"><title>Node4&#45;&gt;Node45</title>
<path fill="none" stroke="midnightblue" d="M3142.47,-190.498C3181.04,-181.938 3242.5,-168.275 3304.93,-154.261"/>
<polygon fill="midnightblue" stroke="midnightblue" points="3305.96,-157.616 3314.95,-152.009 3304.43,-150.786 3305.96,-157.616"/>
</g>
<!-- Node46 -->
<g id="node46" class="node"><title>Node46</title>
<polygon fill="white" stroke="#bfbfbf" points="3443.11,-123.5 3443.11,-153.5 3543.11,-153.5 3543.11,-123.5 3443.11,-123.5"/>
<text text-anchor="start" x="3451.11" y="-141.5" font-family="Helvetica,sans-Serif" font-size="10.00">boost/preprocessor</text>
<text text-anchor="middle" x="3493.11" y="-130.5" font-family="Helvetica,sans-Serif" font-size="10.00">/cat.hpp</text>
</g>
<!-- Node4&#45;&gt;Node46 -->
<g id="edge48" class="edge"><title>Node4&#45;&gt;Node46</title>
<path fill="none" stroke="midnightblue" d="M3157.25,-193.5C3220.66,-186.55 3330.02,-173.336 3433.03,-154.084"/>
<polygon fill="midnightblue" stroke="midnightblue" points="3433.8,-157.5 3442.97,-152.202 3432.5,-150.622 3433.8,-157.5"/>
</g>
<!-- Node4&#45;&gt;Node47 -->
<g id="edge49" class="edge"><title>Node4&#45;&gt;Node47</title>
<path fill="none" stroke="midnightblue" d="M3050.87,-198.788C2707.39,-197.325 799.973,-187.771 218.108,-154 193.525,-152.573 166.661,-150.114 142.865,-147.622"/>
<polygon fill="midnightblue" stroke="midnightblue" points="143.185,-144.136 132.87,-146.555 142.441,-151.097 143.185,-144.136"/>
</g>
<!-- Node4&#45;&gt;Node48 -->
<g id="edge50" class="edge"><title>Node4&#45;&gt;Node48</title>
<path fill="none" stroke="midnightblue" d="M3051.01,-198.782C2692.07,-197.223 626.561,-186.866 349.108,-154 341.603,-153.111 333.694,-151.731 326.075,-150.168"/>
<polygon fill="midnightblue" stroke="midnightblue" points="326.802,-146.745 316.286,-148.035 325.311,-153.584 326.802,-146.745"/>
</g>
<!-- Node10&#45;&gt;Node2 -->
<g id="edge12" class="edge"><title>Node10&#45;&gt;Node2</title>
<path fill="none" stroke="midnightblue" d="M438.268,-128.928C447.704,-126.533 458.271,-124.247 468.108,-123 926.876,-64.8306 4395.3,-71.1273 4894.36,-72.3416"/>
<polygon fill="midnightblue" stroke="midnightblue" points="4894.57,-75.842 4904.58,-72.3668 4894.59,-68.8421 4894.57,-75.842"/>
</g>
<!-- Node10&#45;&gt;Node11 -->
<g id="edge13" class="edge"><title>Node10&#45;&gt;Node11</title>
<path fill="none" stroke="midnightblue" d="M392.641,-128.869C374.496,-119.357 344.753,-103.765 321.142,-91.3888"/>
<polygon fill="midnightblue" stroke="midnightblue" points="322.586,-88.1945 312.105,-86.6516 319.336,-94.3943 322.586,-88.1945"/>
</g>
<!-- Node50&#45;&gt;Node2 -->
<g id="edge55" class="edge"><title>Node50&#45;&gt;Node2</title>
<path fill="none" stroke="midnightblue" d="M201.727,-190.219C199.74,-174.001 198.247,-139.502 218.108,-123 265.326,-83.7668 4349.23,-73.7792 4894.25,-72.6206"/>
<polygon fill="midnightblue" stroke="midnightblue" points="4894.26,-76.1206 4904.26,-72.5994 4894.25,-69.1207 4894.26,-76.1206"/>
</g>
<!-- Node50&#45;&gt;Node10 -->
<g id="edge56" class="edge"><title>Node50&#45;&gt;Node10</title>
<path fill="none" stroke="midnightblue" d="M232.622,-190.475C268.724,-180.048 329.956,-162.362 369.962,-150.807"/>
<polygon fill="midnightblue" stroke="midnightblue" points="371.012,-154.147 379.648,-148.009 369.069,-147.422 371.012,-154.147"/>
</g>
<!-- Node50&#45;&gt;Node11 -->
<g id="edge57" class="edge"><title>Node50&#45;&gt;Node11</title>
<path fill="none" stroke="midnightblue" d="M197.145,-190.357C187.718,-175.521 171.749,-144.711 185.108,-123 193.885,-108.733 208.075,-98.3505 223.042,-90.8527"/>
<polygon fill="midnightblue" stroke="midnightblue" points="224.792,-93.9007 232.42,-86.5482 221.872,-87.5389 224.792,-93.9007"/>
</g>
<!-- Node50&#45;&gt;Node47 -->
<g id="edge58" class="edge"><title>Node50&#45;&gt;Node47</title>
<path fill="none" stroke="midnightblue" d="M184.625,-190.475C162.976,-180.49 126.895,-163.848 101.875,-152.307"/>
<polygon fill="midnightblue" stroke="midnightblue" points="103.102,-149.019 92.5559,-148.009 100.171,-155.376 103.102,-149.019"/>
</g>
<!-- Node50&#45;&gt;Node48 -->
<g id="edge59" class="edge"><title>Node50&#45;&gt;Node48</title>
<path fill="none" stroke="midnightblue" d="M214.713,-190.475C227.585,-181.02 248.582,-165.596 264.113,-154.187"/>
<polygon fill="midnightblue" stroke="midnightblue" points="266.537,-156.75 272.524,-148.009 262.392,-151.108 266.537,-156.75"/>
</g>
</g>
</svg>
