<?xml version="1.0" encoding="UTF-8" standalone="no"?>
<!DOCTYPE svg PUBLIC "-//W3C//DTD SVG 1.1//EN"
 "http://www.w3.org/Graphics/SVG/1.1/DTD/svg11.dtd">
<!-- Generated by graphviz version 2.38.0 (20140413.2041)
 -->
<!-- Title: boost/ui/frame.hpp Pages: 1 -->
<svg width="5931pt" height="263pt"
 viewBox="0.00 0.00 5931.26 263.00" xmlns="http://www.w3.org/2000/svg" xmlns:xlink="http://www.w3.org/1999/xlink">
<g id="graph0" class="graph" transform="scale(1 1) rotate(0) translate(4 259)">
<title>boost/ui/frame.hpp</title>
<polygon fill="white" stroke="none" points="-4,4 -4,-259 5927.26,-259 5927.26,4 -4,4"/>
<!-- Node1 -->
<g id="node1" class="node"><title>Node1</title>
<polygon fill="#bfbfbf" stroke="black" points="2117.1,-235.5 2117.1,-254.5 2215.1,-254.5 2215.1,-235.5 2117.1,-235.5"/>
<text text-anchor="middle" x="2166.1" y="-242.5" font-family="Helvetica,sans-Serif" font-size="10.00">boost/ui/frame.hpp</text>
</g>
<!-- Node2 -->
<g id="node2" class="node"><title>Node2</title>
<g id="a_node2"><a xlink:href="config_8hpp.html" target="_top" xlink:title="Configuration options. ">
<polygon fill="white" stroke="black" points="2043.6,-56.5 2043.6,-75.5 2142.6,-75.5 2142.6,-56.5 2043.6,-56.5"/>
<text text-anchor="middle" x="2093.1" y="-63.5" font-family="Helvetica,sans-Serif" font-size="10.00">boost/ui/config.hpp</text>
</a>
</g>
</g>
<!-- Node1&#45;&gt;Node2 -->
<g id="edge1" class="edge"><title>Node1&#45;&gt;Node2</title>
<path fill="none" stroke="midnightblue" d="M2116.96,-243.651C1802.26,-241.178 80.201,-223.965 7.10136,-143 -2.13158,-132.774 -2.53537,-121.847 7.10136,-112 43.5015,-74.8062 1696.41,-68.1248 2033.47,-67.1483"/>
<polygon fill="midnightblue" stroke="midnightblue" points="2033.53,-70.6482 2043.52,-67.1197 2033.51,-63.6483 2033.53,-70.6482"/>
</g>
<!-- Node4 -->
<g id="node4" class="node"><title>Node4</title>
<g id="a_node4"><a xlink:href="window_8hpp.html" target="_top" xlink:title="Window class. ">
<polygon fill="white" stroke="red" points="2841.1,-179.5 2841.1,-198.5 2947.1,-198.5 2947.1,-179.5 2841.1,-179.5"/>
<text text-anchor="middle" x="2894.1" y="-186.5" font-family="Helvetica,sans-Serif" font-size="10.00">boost/ui/window.hpp</text>
</a>
</g>
</g>
<!-- Node1&#45;&gt;Node4 -->
<g id="edge3" class="edge"><title>Node1&#45;&gt;Node4</title>
<path fill="none" stroke="midnightblue" d="M2215.28,-240.352C2343.51,-230.84 2687.99,-205.288 2830.77,-194.698"/>
<polygon fill="midnightblue" stroke="midnightblue" points="2831.38,-198.162 2841.1,-193.932 2830.87,-191.181 2831.38,-198.162"/>
</g>
<!-- Node11 -->
<g id="node11" class="node"><title>Node11</title>
<polygon fill="white" stroke="#bfbfbf" points="16.6014,-118 16.6014,-137 115.601,-137 115.601,-118 16.6014,-118"/>
<text text-anchor="middle" x="66.1014" y="-125" font-family="Helvetica,sans-Serif" font-size="10.00">boost/ui/config.hpp</text>
</g>
<!-- Node1&#45;&gt;Node11 -->
<g id="edge52" class="edge"><title>Node1&#45;&gt;Node11</title>
<path fill="none" stroke="midnightblue" d="M2117.08,-242.85C1845.94,-236.293 527.481,-201.846 125.101,-143 118.869,-142.088 112.333,-140.813 105.975,-139.393"/>
<polygon fill="midnightblue" stroke="midnightblue" points="106.738,-135.977 96.1997,-137.075 105.122,-142.788 106.738,-135.977"/>
</g>
<!-- Node50 -->
<g id="node50" class="node"><title>Node50</title>
<polygon fill="white" stroke="#bfbfbf" points="2965.6,-179.5 2965.6,-198.5 3066.6,-198.5 3066.6,-179.5 2965.6,-179.5"/>
<text text-anchor="middle" x="3016.1" y="-186.5" font-family="Helvetica,sans-Serif" font-size="10.00">boost/ui/widget.hpp</text>
</g>
<!-- Node1&#45;&gt;Node50 -->
<g id="edge53" class="edge"><title>Node1&#45;&gt;Node50</title>
<path fill="none" stroke="midnightblue" d="M2215.22,-242.773C2338.09,-239.366 2668.78,-228.123 2955.23,-198.984"/>
<polygon fill="midnightblue" stroke="midnightblue" points="2955.81,-202.443 2965.4,-197.94 2955.1,-195.479 2955.81,-202.443"/>
</g>
<!-- Node3 -->
<g id="node3" class="node"><title>Node3</title>
<polygon fill="white" stroke="#bfbfbf" points="4623.6,-0.5 4623.6,-19.5 4712.6,-19.5 4712.6,-0.5 4623.6,-0.5"/>
<text text-anchor="middle" x="4668.1" y="-7.5" font-family="Helvetica,sans-Serif" font-size="10.00">boost/config.hpp</text>
</g>
<!-- Node2&#45;&gt;Node3 -->
<g id="edge2" class="edge"><title>Node2&#45;&gt;Node3</title>
<path fill="none" stroke="midnightblue" d="M2142.81,-63.9576C2466.62,-57.167 4273.29,-19.2795 4613.02,-12.1551"/>
<polygon fill="midnightblue" stroke="midnightblue" points="4613.18,-15.6526 4623.1,-11.9437 4613.03,-8.65418 4613.18,-15.6526"/>
</g>
<!-- Node4&#45;&gt;Node2 -->
<g id="edge4" class="edge"><title>Node4&#45;&gt;Node2</title>
<path fill="none" stroke="midnightblue" d="M2947.32,-179.902C2950.63,-179.553 2953.91,-179.247 2957.1,-179 2997.84,-175.854 5870.38,-172.072 5899.1,-143 5908.78,-133.198 5908.79,-121.8 5899.1,-112 5864.72,-77.2074 2635.33,-68.2739 2153.06,-67.1334"/>
<polygon fill="midnightblue" stroke="midnightblue" points="2152.85,-63.6329 2142.84,-67.1094 2152.83,-70.6329 2152.85,-63.6329"/>
</g>
<!-- Node4&#45;&gt;Node3 -->
<g id="edge5" class="edge"><title>Node4&#45;&gt;Node3</title>
<path fill="none" stroke="midnightblue" d="M2947.32,-179.902C2950.63,-179.553 2953.91,-179.247 2957.1,-179 2998.08,-175.837 5887.22,-172.239 5916.1,-143 5925.78,-133.199 5925.44,-122.128 5916.1,-112 5834.18,-23.1855 4953.22,-12.4582 4722.93,-11.1728"/>
<polygon fill="midnightblue" stroke="midnightblue" points="4722.79,-7.67215 4712.78,-11.12 4722.76,-14.6721 4722.79,-7.67215"/>
</g>
<!-- Node5 -->
<g id="node5" class="node"><title>Node5</title>
<polygon fill="white" stroke="#bfbfbf" points="134.101,-118 134.101,-137 244.101,-137 244.101,-118 134.101,-118"/>
<text text-anchor="middle" x="189.101" y="-125" font-family="Helvetica,sans-Serif" font-size="10.00">boost/config/user.hpp</text>
</g>
<!-- Node4&#45;&gt;Node5 -->
<g id="edge6" class="edge"><title>Node4&#45;&gt;Node5</title>
<path fill="none" stroke="midnightblue" d="M2840.97,-187.752C2490.63,-186.031 518.444,-174.973 253.101,-143 245.792,-142.119 238.094,-140.759 230.67,-139.218"/>
<polygon fill="midnightblue" stroke="midnightblue" points="231.298,-135.772 220.778,-137.032 229.787,-142.607 231.298,-135.772"/>
</g>
<!-- Node6 -->
<g id="node6" class="node"><title>Node6</title>
<polygon fill="white" stroke="#bfbfbf" points="262.101,-112.5 262.101,-142.5 400.101,-142.5 400.101,-112.5 262.101,-112.5"/>
<text text-anchor="start" x="270.101" y="-130.5" font-family="Helvetica,sans-Serif" font-size="10.00">boost/config/detail</text>
<text text-anchor="middle" x="331.101" y="-119.5" font-family="Helvetica,sans-Serif" font-size="10.00">/select_compiler_config.hpp</text>
</g>
<!-- Node4&#45;&gt;Node6 -->
<g id="edge7" class="edge"><title>Node4&#45;&gt;Node6</title>
<path fill="none" stroke="midnightblue" d="M2840.91,-187.559C2506.93,-184.721 704.205,-168.376 410.562,-142.827"/>
<polygon fill="midnightblue" stroke="midnightblue" points="410.654,-139.321 400.372,-141.876 410.003,-146.29 410.654,-139.321"/>
</g>
<!-- Node7 -->
<g id="node7" class="node"><title>Node7</title>
<polygon fill="white" stroke="#bfbfbf" points="418.601,-112.5 418.601,-142.5 555.601,-142.5 555.601,-112.5 418.601,-112.5"/>
<text text-anchor="start" x="426.601" y="-130.5" font-family="Helvetica,sans-Serif" font-size="10.00">boost/config/detail</text>
<text text-anchor="middle" x="487.101" y="-119.5" font-family="Helvetica,sans-Serif" font-size="10.00">/select_platform_config.hpp</text>
</g>
<!-- Node4&#45;&gt;Node7 -->
<g id="edge8" class="edge"><title>Node4&#45;&gt;Node7</title>
<path fill="none" stroke="midnightblue" d="M2840.85,-187.497C2519.44,-184.392 843.048,-167.198 566.254,-142.905"/>
<polygon fill="midnightblue" stroke="midnightblue" points="566.201,-139.384 555.916,-141.927 565.542,-146.353 566.201,-139.384"/>
</g>
<!-- Node8 -->
<g id="node8" class="node"><title>Node8</title>
<polygon fill="white" stroke="#bfbfbf" points="574.101,-112.5 574.101,-142.5 670.101,-142.5 670.101,-112.5 574.101,-112.5"/>
<text text-anchor="start" x="582.101" y="-130.5" font-family="Helvetica,sans-Serif" font-size="10.00">boost/config/detail</text>
<text text-anchor="middle" x="622.101" y="-119.5" font-family="Helvetica,sans-Serif" font-size="10.00">/suffix.hpp</text>
</g>
<!-- Node4&#45;&gt;Node8 -->
<g id="edge9" class="edge"><title>Node4&#45;&gt;Node8</title>
<path fill="none" stroke="midnightblue" d="M2840.9,-187.648C2529.04,-185.49 943.356,-173.167 680.32,-142.818"/>
<polygon fill="midnightblue" stroke="midnightblue" points="680.508,-139.315 670.151,-141.546 679.639,-146.26 680.508,-139.315"/>
</g>
<!-- Node9 -->
<g id="node9" class="node"><title>Node9</title>
<polygon fill="white" stroke="#bfbfbf" points="688.101,-118 688.101,-137 736.101,-137 736.101,-118 688.101,-118"/>
<text text-anchor="middle" x="712.101" y="-125" font-family="Helvetica,sans-Serif" font-size="10.00">limits.h</text>
</g>
<!-- Node4&#45;&gt;Node9 -->
<g id="edge10" class="edge"><title>Node4&#45;&gt;Node9</title>
<path fill="none" stroke="midnightblue" d="M2840.92,-188.096C2530.21,-188.493 956.285,-188.246 746.101,-143 743.429,-142.425 740.705,-141.64 738.02,-140.73"/>
<polygon fill="midnightblue" stroke="midnightblue" points="739.219,-137.441 728.631,-137.046 736.661,-143.957 739.219,-137.441"/>
</g>
<!-- Node10 -->
<g id="node10" class="node"><title>Node10</title>
<g id="a_node10"><a xlink:href="widget_8hpp.html" target="_top" xlink:title="Widget class. ">
<polygon fill="white" stroke="red" points="754.601,-118 754.601,-137 855.601,-137 855.601,-118 754.601,-118"/>
<text text-anchor="middle" x="805.101" y="-125" font-family="Helvetica,sans-Serif" font-size="10.00">boost/ui/widget.hpp</text>
</a>
</g>
</g>
<!-- Node4&#45;&gt;Node10 -->
<g id="edge11" class="edge"><title>Node4&#45;&gt;Node10</title>
<path fill="none" stroke="midnightblue" d="M2840.81,-187.503C2540.49,-184.61 1065.78,-169.164 865.101,-143 858.39,-142.125 851.338,-140.799 844.523,-139.298"/>
<polygon fill="midnightblue" stroke="midnightblue" points="845.309,-135.888 834.773,-137.006 843.707,-142.702 845.309,-135.888"/>
</g>
<!-- Node4&#45;&gt;Node11 -->
<g id="edge13" class="edge"><title>Node4&#45;&gt;Node11</title>
<path fill="none" stroke="midnightblue" d="M2841.01,-187.855C2481.01,-186.778 403.669,-179.028 125.101,-143 118.648,-142.165 111.879,-140.891 105.322,-139.437"/>
<polygon fill="midnightblue" stroke="midnightblue" points="105.805,-135.955 95.2658,-137.043 104.183,-142.764 105.805,-135.955"/>
</g>
<!-- Node12 -->
<g id="node12" class="node"><title>Node12</title>
<polygon fill="white" stroke="#bfbfbf" points="873.601,-118 873.601,-137 970.601,-137 970.601,-118 873.601,-118"/>
<text text-anchor="middle" x="922.101" y="-125" font-family="Helvetica,sans-Serif" font-size="10.00">boost/ui/coord.hpp</text>
</g>
<!-- Node4&#45;&gt;Node12 -->
<g id="edge14" class="edge"><title>Node4&#45;&gt;Node12</title>
<path fill="none" stroke="midnightblue" d="M2841.01,-187.454C2551.44,-184.381 1168.68,-168.468 980.101,-143 973.756,-142.143 967.101,-140.857 960.654,-139.399"/>
<polygon fill="midnightblue" stroke="midnightblue" points="961.312,-135.957 950.769,-137.002 959.662,-142.76 961.312,-135.957"/>
</g>
<!-- Node13 -->
<g id="node13" class="node"><title>Node13</title>
<polygon fill="white" stroke="#bfbfbf" points="988.601,-118 988.601,-137 1091.6,-137 1091.6,-118 988.601,-118"/>
<text text-anchor="middle" x="1040.1" y="-125" font-family="Helvetica,sans-Serif" font-size="10.00">boost/geometry.hpp</text>
</g>
<!-- Node4&#45;&gt;Node13 -->
<g id="edge15" class="edge"><title>Node4&#45;&gt;Node13</title>
<path fill="none" stroke="midnightblue" d="M2840.81,-188.158C2581.52,-188.699 1450.22,-188.371 1101.1,-143 1094.36,-142.123 1087.27,-140.811 1080.41,-139.328"/>
<polygon fill="midnightblue" stroke="midnightblue" points="1081.12,-135.899 1070.59,-137.063 1079.55,-142.72 1081.12,-135.899"/>
</g>
<!-- Node14 -->
<g id="node14" class="node"><title>Node14</title>
<polygon fill="white" stroke="#bfbfbf" points="1110.1,-118 1110.1,-137 1256.1,-137 1256.1,-118 1110.1,-118"/>
<text text-anchor="middle" x="1183.1" y="-125" font-family="Helvetica,sans-Serif" font-size="10.00">boost/geometry/geometry.hpp</text>
</g>
<!-- Node4&#45;&gt;Node14 -->
<g id="edge16" class="edge"><title>Node4&#45;&gt;Node14</title>
<path fill="none" stroke="midnightblue" d="M2840.94,-187.586C2596.76,-185.524 1581.23,-175.139 1265.1,-143 1255.18,-141.991 1244.65,-140.473 1234.56,-138.793"/>
<polygon fill="midnightblue" stroke="midnightblue" points="1235.1,-135.335 1224.65,-137.072 1233.9,-142.232 1235.1,-135.335"/>
</g>
<!-- Node15 -->
<g id="node15" class="node"><title>Node15</title>
<polygon fill="white" stroke="#bfbfbf" points="1274.1,-112.5 1274.1,-142.5 1380.1,-142.5 1380.1,-112.5 1274.1,-112.5"/>
<text text-anchor="start" x="1282.1" y="-130.5" font-family="Helvetica,sans-Serif" font-size="10.00">boost/geometry/core</text>
<text text-anchor="middle" x="1327.1" y="-119.5" font-family="Helvetica,sans-Serif" font-size="10.00">/closure.hpp</text>
</g>
<!-- Node4&#45;&gt;Node15 -->
<g id="edge17" class="edge"><title>Node4&#45;&gt;Node15</title>
<path fill="none" stroke="midnightblue" d="M2840.72,-187.834C2610.31,-186.898 1699.22,-180.909 1390.69,-142.985"/>
<polygon fill="midnightblue" stroke="midnightblue" points="1390.77,-139.468 1380.41,-141.681 1389.89,-146.412 1390.77,-139.468"/>
</g>
<!-- Node16 -->
<g id="node16" class="node"><title>Node16</title>
<polygon fill="white" stroke="#bfbfbf" points="1398.1,-118 1398.1,-137 1506.1,-137 1506.1,-118 1398.1,-118"/>
<text text-anchor="middle" x="1452.1" y="-125" font-family="Helvetica,sans-Serif" font-size="10.00">boost/mpl/assert.hpp</text>
</g>
<!-- Node4&#45;&gt;Node16 -->
<g id="edge18" class="edge"><title>Node4&#45;&gt;Node16</title>
<path fill="none" stroke="midnightblue" d="M2840.84,-187.614C2620.48,-185.81 1779.33,-176.805 1516.1,-143 1508.88,-142.072 1501.27,-140.703 1493.92,-139.172"/>
<polygon fill="midnightblue" stroke="midnightblue" points="1494.64,-135.746 1484.12,-137.008 1493.13,-142.581 1494.64,-135.746"/>
</g>
<!-- Node17 -->
<g id="node17" class="node"><title>Node17</title>
<polygon fill="white" stroke="#bfbfbf" points="1524.6,-118 1524.6,-137 1619.6,-137 1619.6,-118 1524.6,-118"/>
<text text-anchor="middle" x="1572.1" y="-125" font-family="Helvetica,sans-Serif" font-size="10.00">boost/mpl/not.hpp</text>
</g>
<!-- Node4&#45;&gt;Node17 -->
<g id="edge19" class="edge"><title>Node4&#45;&gt;Node17</title>
<path fill="none" stroke="midnightblue" d="M2841,-187.621C2632.37,-185.897 1868.66,-177.329 1629.1,-143 1623.08,-142.137 1616.77,-140.89 1610.64,-139.485"/>
<polygon fill="midnightblue" stroke="midnightblue" points="1611.11,-135.997 1600.57,-137.011 1609.44,-142.795 1611.11,-135.997"/>
</g>
<!-- Node18 -->
<g id="node18" class="node"><title>Node18</title>
<polygon fill="white" stroke="#bfbfbf" points="1637.6,-118 1637.6,-137 1736.6,-137 1736.6,-118 1637.6,-118"/>
<text text-anchor="middle" x="1687.1" y="-125" font-family="Helvetica,sans-Serif" font-size="10.00">boost/mpl/bool.hpp</text>
</g>
<!-- Node4&#45;&gt;Node18 -->
<g id="edge20" class="edge"><title>Node4&#45;&gt;Node18</title>
<path fill="none" stroke="midnightblue" d="M2840.97,-187.34C2644.84,-184.683 1961.75,-173.408 1746.1,-143 1739.8,-142.111 1733.18,-140.835 1726.76,-139.403"/>
<polygon fill="midnightblue" stroke="midnightblue" points="1727.43,-135.965 1716.89,-137.06 1725.81,-142.775 1727.43,-135.965"/>
</g>
<!-- Node19 -->
<g id="node19" class="node"><title>Node19</title>
<polygon fill="white" stroke="#bfbfbf" points="1755.1,-118 1755.1,-137 1875.1,-137 1875.1,-118 1755.1,-118"/>
<text text-anchor="middle" x="1815.1" y="-125" font-family="Helvetica,sans-Serif" font-size="10.00">boost/mpl/bool_fwd.hpp</text>
</g>
<!-- Node4&#45;&gt;Node19 -->
<g id="edge21" class="edge"><title>Node4&#45;&gt;Node19</title>
<path fill="none" stroke="midnightblue" d="M2841.06,-188.607C2690.62,-189.69 2248.53,-188.449 1885.1,-143 1877.22,-142.015 1868.91,-140.616 1860.87,-139.072"/>
<polygon fill="midnightblue" stroke="midnightblue" points="1861.38,-135.605 1850.89,-137.059 1860,-142.467 1861.38,-135.605"/>
</g>
<!-- Node20 -->
<g id="node20" class="node"><title>Node20</title>
<polygon fill="white" stroke="#bfbfbf" points="1893.6,-112.5 1893.6,-142.5 1992.6,-142.5 1992.6,-112.5 1893.6,-112.5"/>
<text text-anchor="start" x="1901.6" y="-130.5" font-family="Helvetica,sans-Serif" font-size="10.00">boost/mpl/aux_/adl</text>
<text text-anchor="middle" x="1943.1" y="-119.5" font-family="Helvetica,sans-Serif" font-size="10.00">_barrier.hpp</text>
</g>
<!-- Node4&#45;&gt;Node20 -->
<g id="edge22" class="edge"><title>Node4&#45;&gt;Node20</title>
<path fill="none" stroke="midnightblue" d="M2840.89,-186.647C2677.59,-182.289 2184.26,-167.536 2002.81,-142.847"/>
<polygon fill="midnightblue" stroke="midnightblue" points="2003.25,-139.375 1992.86,-141.436 2002.27,-146.306 2003.25,-139.375"/>
</g>
<!-- Node21 -->
<g id="node21" class="node"><title>Node21</title>
<polygon fill="white" stroke="#bfbfbf" points="2010.6,-112.5 2010.6,-142.5 2123.6,-142.5 2123.6,-112.5 2010.6,-112.5"/>
<text text-anchor="start" x="2018.6" y="-130.5" font-family="Helvetica,sans-Serif" font-size="10.00">boost/mpl/aux_/config</text>
<text text-anchor="middle" x="2067.1" y="-119.5" font-family="Helvetica,sans-Serif" font-size="10.00">/adl.hpp</text>
</g>
<!-- Node4&#45;&gt;Node21 -->
<g id="edge23" class="edge"><title>Node4&#45;&gt;Node21</title>
<path fill="none" stroke="midnightblue" d="M2840.77,-187.721C2717.77,-186.46 2404.7,-179.718 2133.9,-142.945"/>
<polygon fill="midnightblue" stroke="midnightblue" points="2134.26,-139.462 2123.88,-141.568 2133.31,-146.397 2134.26,-139.462"/>
</g>
<!-- Node22 -->
<g id="node22" class="node"><title>Node22</title>
<polygon fill="white" stroke="#bfbfbf" points="2141.6,-112.5 2141.6,-142.5 2254.6,-142.5 2254.6,-112.5 2141.6,-112.5"/>
<text text-anchor="start" x="2149.6" y="-130.5" font-family="Helvetica,sans-Serif" font-size="10.00">boost/mpl/aux_/config</text>
<text text-anchor="middle" x="2198.1" y="-119.5" font-family="Helvetica,sans-Serif" font-size="10.00">/msvc.hpp</text>
</g>
<!-- Node4&#45;&gt;Node22 -->
<g id="edge24" class="edge"><title>Node4&#45;&gt;Node22</title>
<path fill="none" stroke="midnightblue" d="M2840.72,-186.795C2733.44,-183.808 2483.96,-174.02 2264.96,-142.97"/>
<polygon fill="midnightblue" stroke="midnightblue" points="2265.28,-139.48 2254.89,-141.523 2264.29,-146.409 2265.28,-139.48"/>
</g>
<!-- Node23 -->
<g id="node23" class="node"><title>Node23</title>
<polygon fill="white" stroke="#bfbfbf" points="2272.6,-112.5 2272.6,-142.5 2385.6,-142.5 2385.6,-112.5 2272.6,-112.5"/>
<text text-anchor="start" x="2280.6" y="-130.5" font-family="Helvetica,sans-Serif" font-size="10.00">boost/mpl/aux_/config</text>
<text text-anchor="middle" x="2329.1" y="-119.5" font-family="Helvetica,sans-Serif" font-size="10.00">/intel.hpp</text>
</g>
<!-- Node4&#45;&gt;Node23 -->
<g id="edge25" class="edge"><title>Node4&#45;&gt;Node23</title>
<path fill="none" stroke="midnightblue" d="M2841.03,-185.421C2751.35,-180.58 2564.01,-168.394 2395.92,-142.989"/>
<polygon fill="midnightblue" stroke="midnightblue" points="2396.31,-139.509 2385.9,-141.455 2395.25,-146.428 2396.31,-139.509"/>
</g>
<!-- Node24 -->
<g id="node24" class="node"><title>Node24</title>
<polygon fill="white" stroke="#bfbfbf" points="2403.6,-112.5 2403.6,-142.5 2516.6,-142.5 2516.6,-112.5 2403.6,-112.5"/>
<text text-anchor="start" x="2411.6" y="-130.5" font-family="Helvetica,sans-Serif" font-size="10.00">boost/mpl/aux_/config</text>
<text text-anchor="middle" x="2460.1" y="-119.5" font-family="Helvetica,sans-Serif" font-size="10.00">/gcc.hpp</text>
</g>
<!-- Node4&#45;&gt;Node24 -->
<g id="edge26" class="edge"><title>Node4&#45;&gt;Node24</title>
<path fill="none" stroke="midnightblue" d="M2840.85,-183.085C2771.04,-176.287 2644.61,-162.762 2526.83,-143.019"/>
<polygon fill="midnightblue" stroke="midnightblue" points="2527.36,-139.56 2516.92,-141.34 2526.19,-146.461 2527.36,-139.56"/>
</g>
<!-- Node25 -->
<g id="node25" class="node"><title>Node25</title>
<polygon fill="white" stroke="#bfbfbf" points="2534.6,-112.5 2534.6,-142.5 2647.6,-142.5 2647.6,-112.5 2534.6,-112.5"/>
<text text-anchor="start" x="2542.6" y="-130.5" font-family="Helvetica,sans-Serif" font-size="10.00">boost/mpl/aux_/config</text>
<text text-anchor="middle" x="2591.1" y="-119.5" font-family="Helvetica,sans-Serif" font-size="10.00">/workaround.hpp</text>
</g>
<!-- Node4&#45;&gt;Node25 -->
<g id="edge27" class="edge"><title>Node4&#45;&gt;Node25</title>
<path fill="none" stroke="midnightblue" d="M2846.81,-179.432C2801.07,-171.053 2729.54,-157.707 2657.73,-143.095"/>
<polygon fill="midnightblue" stroke="midnightblue" points="2658.1,-139.598 2647.6,-141.025 2656.7,-146.456 2658.1,-139.598"/>
</g>
<!-- Node26 -->
<g id="node26" class="node"><title>Node26</title>
<polygon fill="white" stroke="#bfbfbf" points="2665.6,-118 2665.6,-137 2804.6,-137 2804.6,-118 2665.6,-118"/>
<text text-anchor="middle" x="2735.1" y="-125" font-family="Helvetica,sans-Serif" font-size="10.00">boost/detail/workaround.hpp</text>
</g>
<!-- Node4&#45;&gt;Node26 -->
<g id="edge28" class="edge"><title>Node4&#45;&gt;Node26</title>
<path fill="none" stroke="midnightblue" d="M2871.32,-179.475C2844.05,-169.269 2798.19,-152.108 2767.3,-140.549"/>
<polygon fill="midnightblue" stroke="midnightblue" points="2768.43,-137.236 2757.84,-137.009 2765.98,-143.792 2768.43,-137.236"/>
</g>
<!-- Node27 -->
<g id="node27" class="node"><title>Node27</title>
<polygon fill="white" stroke="#bfbfbf" points="2823.1,-118 2823.1,-137 2965.1,-137 2965.1,-118 2823.1,-118"/>
<text text-anchor="middle" x="2894.1" y="-125" font-family="Helvetica,sans-Serif" font-size="10.00">boost/config/workaround.hpp</text>
</g>
<!-- Node4&#45;&gt;Node27 -->
<g id="edge29" class="edge"><title>Node4&#45;&gt;Node27</title>
<path fill="none" stroke="midnightblue" d="M2894.1,-179.475C2894.1,-171.08 2894.1,-157.981 2894.1,-147.163"/>
<polygon fill="midnightblue" stroke="midnightblue" points="2897.6,-147.009 2894.1,-137.009 2890.6,-147.009 2897.6,-147.009"/>
</g>
<!-- Node28 -->
<g id="node28" class="node"><title>Node28</title>
<polygon fill="white" stroke="#bfbfbf" points="2983.1,-112.5 2983.1,-142.5 3077.1,-142.5 3077.1,-112.5 2983.1,-112.5"/>
<text text-anchor="start" x="2991.1" y="-130.5" font-family="Helvetica,sans-Serif" font-size="10.00">boost/mpl/integral</text>
<text text-anchor="middle" x="3030.1" y="-119.5" font-family="Helvetica,sans-Serif" font-size="10.00">_c_tag.hpp</text>
</g>
<!-- Node4&#45;&gt;Node28 -->
<g id="edge30" class="edge"><title>Node4&#45;&gt;Node28</title>
<path fill="none" stroke="midnightblue" d="M2913.59,-179.475C2933.13,-170.927 2963.81,-157.501 2988.79,-146.573"/>
<polygon fill="midnightblue" stroke="midnightblue" points="2990.29,-149.738 2998.05,-142.523 2987.48,-143.325 2990.29,-149.738"/>
</g>
<!-- Node29 -->
<g id="node29" class="node"><title>Node29</title>
<polygon fill="white" stroke="#bfbfbf" points="3095.6,-112.5 3095.6,-142.5 3208.6,-142.5 3208.6,-112.5 3095.6,-112.5"/>
<text text-anchor="start" x="3103.6" y="-130.5" font-family="Helvetica,sans-Serif" font-size="10.00">boost/mpl/aux_/config</text>
<text text-anchor="middle" x="3152.1" y="-119.5" font-family="Helvetica,sans-Serif" font-size="10.00">/static_constant.hpp</text>
</g>
<!-- Node4&#45;&gt;Node29 -->
<g id="edge31" class="edge"><title>Node4&#45;&gt;Node29</title>
<path fill="none" stroke="midnightblue" d="M2931.07,-179.475C2971.22,-170.216 3036.18,-155.233 3085.32,-143.902"/>
<polygon fill="midnightblue" stroke="midnightblue" points="3086.28,-147.273 3095.23,-141.615 3084.7,-140.452 3086.28,-147.273"/>
</g>
<!-- Node30 -->
<g id="node30" class="node"><title>Node30</title>
<polygon fill="white" stroke="#bfbfbf" points="3226.6,-112.5 3226.6,-142.5 3329.6,-142.5 3329.6,-112.5 3226.6,-112.5"/>
<text text-anchor="start" x="3234.6" y="-130.5" font-family="Helvetica,sans-Serif" font-size="10.00">boost/mpl/aux_/nttp</text>
<text text-anchor="middle" x="3278.1" y="-119.5" font-family="Helvetica,sans-Serif" font-size="10.00">_decl.hpp</text>
</g>
<!-- Node4&#45;&gt;Node30 -->
<g id="edge32" class="edge"><title>Node4&#45;&gt;Node30</title>
<path fill="none" stroke="midnightblue" d="M2947.37,-180.371C2950.67,-179.905 2953.93,-179.445 2957.1,-179 3069.89,-163.165 3101.34,-164.682 3216.54,-143.194"/>
<polygon fill="midnightblue" stroke="midnightblue" points="3217.28,-146.617 3226.46,-141.327 3215.99,-139.738 3217.28,-146.617"/>
</g>
<!-- Node31 -->
<g id="node31" class="node"><title>Node31</title>
<polygon fill="white" stroke="#bfbfbf" points="3347.6,-112.5 3347.6,-142.5 3460.6,-142.5 3460.6,-112.5 3347.6,-112.5"/>
<text text-anchor="start" x="3355.6" y="-130.5" font-family="Helvetica,sans-Serif" font-size="10.00">boost/mpl/aux_/config</text>
<text text-anchor="middle" x="3404.1" y="-119.5" font-family="Helvetica,sans-Serif" font-size="10.00">/nttp.hpp</text>
</g>
<!-- Node4&#45;&gt;Node31 -->
<g id="edge33" class="edge"><title>Node4&#45;&gt;Node31</title>
<path fill="none" stroke="midnightblue" d="M2947.35,-180.21C2950.65,-179.784 2953.92,-179.377 2957.1,-179 3123.22,-159.318 3168.93,-169.221 3337.5,-143.135"/>
<polygon fill="midnightblue" stroke="midnightblue" points="3338.12,-146.58 3347.46,-141.574 3337.04,-139.665 3338.12,-146.58"/>
</g>
<!-- Node32 -->
<g id="node32" class="node"><title>Node32</title>
<polygon fill="white" stroke="#bfbfbf" points="3479.1,-112.5 3479.1,-142.5 3595.1,-142.5 3595.1,-112.5 3479.1,-112.5"/>
<text text-anchor="start" x="3487.1" y="-130.5" font-family="Helvetica,sans-Serif" font-size="10.00">boost/mpl/aux_/nested</text>
<text text-anchor="middle" x="3537.1" y="-119.5" font-family="Helvetica,sans-Serif" font-size="10.00">_type_wknd.hpp</text>
</g>
<!-- Node4&#45;&gt;Node32 -->
<g id="edge34" class="edge"><title>Node4&#45;&gt;Node32</title>
<path fill="none" stroke="midnightblue" d="M2947.34,-180.12C2950.64,-179.717 2953.92,-179.339 2957.1,-179 3181.05,-155.177 3242.05,-174.666 3468.86,-143.032"/>
<polygon fill="midnightblue" stroke="midnightblue" points="3469.68,-146.451 3479.09,-141.587 3468.7,-139.52 3469.68,-146.451"/>
</g>
<!-- Node33 -->
<g id="node33" class="node"><title>Node33</title>
<polygon fill="white" stroke="#bfbfbf" points="3613.1,-118 3613.1,-137 3755.1,-137 3755.1,-118 3613.1,-118"/>
<text text-anchor="middle" x="3684.1" y="-125" font-family="Helvetica,sans-Serif" font-size="10.00">boost/mpl/aux_/na_spec.hpp</text>
</g>
<!-- Node4&#45;&gt;Node33 -->
<g id="edge35" class="edge"><title>Node4&#45;&gt;Node33</title>
<path fill="none" stroke="midnightblue" d="M2947.34,-180.065C2950.64,-179.676 2953.91,-179.316 2957.1,-179 3243.7,-150.609 3318.08,-176.746 3604.1,-143 3613.37,-141.907 3623.18,-140.412 3632.64,-138.795"/>
<polygon fill="midnightblue" stroke="midnightblue" points="3633.49,-142.199 3642.73,-137.006 3632.27,-135.306 3633.49,-142.199"/>
</g>
<!-- Node34 -->
<g id="node34" class="node"><title>Node34</title>
<polygon fill="white" stroke="#bfbfbf" points="3773.1,-118 3773.1,-137 3907.1,-137 3907.1,-118 3773.1,-118"/>
<text text-anchor="middle" x="3840.1" y="-125" font-family="Helvetica,sans-Serif" font-size="10.00">boost/mpl/lambda_fwd.hpp</text>
</g>
<!-- Node4&#45;&gt;Node34 -->
<g id="edge36" class="edge"><title>Node4&#45;&gt;Node34</title>
<path fill="none" stroke="midnightblue" d="M2947.33,-180.024C2950.64,-179.645 2953.91,-179.298 2957.1,-179 3314.57,-145.574 3407.51,-184.75 3764.1,-143 3772.92,-141.967 3782.26,-140.501 3791.25,-138.893"/>
<polygon fill="midnightblue" stroke="midnightblue" points="3792.03,-142.309 3801.21,-137.034 3790.74,-135.428 3792.03,-142.309"/>
</g>
<!-- Node35 -->
<g id="node35" class="node"><title>Node35</title>
<polygon fill="white" stroke="#bfbfbf" points="3925.1,-118 3925.1,-137 4045.1,-137 4045.1,-118 3925.1,-118"/>
<text text-anchor="middle" x="3985.1" y="-125" font-family="Helvetica,sans-Serif" font-size="10.00">boost/mpl/void_fwd.hpp</text>
</g>
<!-- Node4&#45;&gt;Node35 -->
<g id="edge37" class="edge"><title>Node4&#45;&gt;Node35</title>
<path fill="none" stroke="midnightblue" d="M2947.33,-179.997C2950.63,-179.625 2953.91,-179.287 2957.1,-179 3381.91,-140.788 3492.77,-195.045 3916.1,-143 3923.96,-142.034 3932.25,-140.63 3940.26,-139.072"/>
<polygon fill="midnightblue" stroke="midnightblue" points="3941.1,-142.472 3950.19,-137.036 3939.69,-135.615 3941.1,-142.472"/>
</g>
<!-- Node36 -->
<g id="node36" class="node"><title>Node36</title>
<polygon fill="white" stroke="#bfbfbf" points="4063.1,-118 4063.1,-137 4179.1,-137 4179.1,-118 4063.1,-118"/>
<text text-anchor="middle" x="4121.1" y="-125" font-family="Helvetica,sans-Serif" font-size="10.00">boost/mpl/aux_/na.hpp</text>
</g>
<!-- Node4&#45;&gt;Node36 -->
<g id="edge38" class="edge"><title>Node4&#45;&gt;Node36</title>
<path fill="none" stroke="midnightblue" d="M2947.33,-179.98C2950.63,-179.611 2953.91,-179.28 2957.1,-179 3443.06,-136.443 3569.97,-202.835 4054.1,-143 4061.66,-142.066 4069.62,-140.694 4077.32,-139.16"/>
<polygon fill="midnightblue" stroke="midnightblue" points="4078.16,-142.56 4087.22,-137.074 4076.71,-135.71 4078.16,-142.56"/>
</g>
<!-- Node37 -->
<g id="node37" class="node"><title>Node37</title>
<polygon fill="white" stroke="#bfbfbf" points="4197.6,-118 4197.6,-137 4334.6,-137 4334.6,-118 4197.6,-118"/>
<text text-anchor="middle" x="4266.1" y="-125" font-family="Helvetica,sans-Serif" font-size="10.00">boost/mpl/aux_/na_fwd.hpp</text>
</g>
<!-- Node4&#45;&gt;Node37 -->
<g id="edge39" class="edge"><title>Node4&#45;&gt;Node37</title>
<path fill="none" stroke="midnightblue" d="M2947.33,-179.966C2950.63,-179.601 2953.91,-179.274 2957.1,-179 3502.44,-132.223 3643.86,-201.192 4188.1,-143 4197.35,-142.011 4207.16,-140.534 4216.57,-138.895"/>
<polygon fill="midnightblue" stroke="midnightblue" points="4217.38,-142.305 4226.6,-137.069 4216.13,-135.418 4217.38,-142.305"/>
</g>
<!-- Node38 -->
<g id="node38" class="node"><title>Node38</title>
<polygon fill="white" stroke="#bfbfbf" points="4352.6,-112.5 4352.6,-142.5 4465.6,-142.5 4465.6,-112.5 4352.6,-112.5"/>
<text text-anchor="start" x="4360.6" y="-130.5" font-family="Helvetica,sans-Serif" font-size="10.00">boost/mpl/aux_/config</text>
<text text-anchor="middle" x="4409.1" y="-119.5" font-family="Helvetica,sans-Serif" font-size="10.00">/ctps.hpp</text>
</g>
<!-- Node4&#45;&gt;Node38 -->
<g id="edge40" class="edge"><title>Node4&#45;&gt;Node38</title>
<path fill="none" stroke="midnightblue" d="M2947.33,-179.954C2950.63,-179.592 2953.91,-179.269 2957.1,-179 3568.28,-127.587 3730.35,-217.508 4342.54,-143.026"/>
<polygon fill="midnightblue" stroke="midnightblue" points="4342.99,-146.496 4352.49,-141.805 4342.14,-139.548 4342.99,-146.496"/>
</g>
<!-- Node39 -->
<g id="node39" class="node"><title>Node39</title>
<polygon fill="white" stroke="#bfbfbf" points="4483.6,-112.5 4483.6,-142.5 4596.6,-142.5 4596.6,-112.5 4483.6,-112.5"/>
<text text-anchor="start" x="4491.6" y="-130.5" font-family="Helvetica,sans-Serif" font-size="10.00">boost/mpl/aux_/config</text>
<text text-anchor="middle" x="4540.1" y="-119.5" font-family="Helvetica,sans-Serif" font-size="10.00">/lambda.hpp</text>
</g>
<!-- Node4&#45;&gt;Node39 -->
<g id="edge41" class="edge"><title>Node4&#45;&gt;Node39</title>
<path fill="none" stroke="midnightblue" d="M2947.33,-179.945C2950.63,-179.585 2953.91,-179.265 2957.1,-179 3626.2,-123.469 3803.41,-223.82 4473.1,-143.075"/>
<polygon fill="midnightblue" stroke="midnightblue" points="4473.99,-146.493 4483.49,-141.812 4473.15,-139.544 4473.99,-146.493"/>
</g>
<!-- Node40 -->
<g id="node40" class="node"><title>Node40</title>
<polygon fill="white" stroke="#bfbfbf" points="4614.6,-112.5 4614.6,-142.5 4727.6,-142.5 4727.6,-112.5 4614.6,-112.5"/>
<text text-anchor="start" x="4622.6" y="-130.5" font-family="Helvetica,sans-Serif" font-size="10.00">boost/mpl/aux_/config</text>
<text text-anchor="middle" x="4671.1" y="-119.5" font-family="Helvetica,sans-Serif" font-size="10.00">/ttp.hpp</text>
</g>
<!-- Node4&#45;&gt;Node40 -->
<g id="edge42" class="edge"><title>Node4&#45;&gt;Node40</title>
<path fill="none" stroke="midnightblue" d="M2947.33,-179.938C2950.63,-179.58 2953.91,-179.262 2957.1,-179 3684.41,-119.327 3876.63,-230.224 4604.55,-143.018"/>
<polygon fill="midnightblue" stroke="midnightblue" points="4604.99,-146.491 4614.5,-141.819 4604.15,-139.542 4604.99,-146.491"/>
</g>
<!-- Node41 -->
<g id="node41" class="node"><title>Node41</title>
<polygon fill="white" stroke="#bfbfbf" points="4746.1,-118 4746.1,-137 4838.1,-137 4838.1,-118 4746.1,-118"/>
<text text-anchor="middle" x="4792.1" y="-125" font-family="Helvetica,sans-Serif" font-size="10.00">boost/mpl/int.hpp</text>
</g>
<!-- Node4&#45;&gt;Node41 -->
<g id="edge43" class="edge"><title>Node4&#45;&gt;Node41</title>
<path fill="none" stroke="midnightblue" d="M2947.33,-179.932C2950.63,-179.576 2953.91,-179.259 2957.1,-179 3351.44,-146.965 4345.28,-197.815 4737.1,-143 4742.99,-142.176 4749.15,-140.938 4755.13,-139.525"/>
<polygon fill="midnightblue" stroke="midnightblue" points="4756.12,-142.885 4764.95,-137.026 4754.39,-136.102 4756.12,-142.885"/>
</g>
<!-- Node42 -->
<g id="node42" class="node"><title>Node42</title>
<polygon fill="white" stroke="#bfbfbf" points="4856.6,-118 4856.6,-137 4969.6,-137 4969.6,-118 4856.6,-118"/>
<text text-anchor="middle" x="4913.1" y="-125" font-family="Helvetica,sans-Serif" font-size="10.00">boost/mpl/int_fwd.hpp</text>
</g>
<!-- Node4&#45;&gt;Node42 -->
<g id="edge44" class="edge"><title>Node4&#45;&gt;Node42</title>
<path fill="none" stroke="midnightblue" d="M2947.33,-179.928C2950.63,-179.572 2953.91,-179.258 2957.1,-179 3375.82,-145.232 4429.93,-192.309 4847.1,-143 4854.72,-142.1 4862.74,-140.714 4870.48,-139.15"/>
<polygon fill="midnightblue" stroke="midnightblue" points="4871.38,-142.537 4880.42,-137.016 4869.91,-135.693 4871.38,-142.537"/>
</g>
<!-- Node43 -->
<g id="node43" class="node"><title>Node43</title>
<polygon fill="white" stroke="#bfbfbf" points="4988.1,-112.5 4988.1,-142.5 5106.1,-142.5 5106.1,-112.5 4988.1,-112.5"/>
<text text-anchor="start" x="4996.1" y="-130.5" font-family="Helvetica,sans-Serif" font-size="10.00">boost/mpl/aux_/integral</text>
<text text-anchor="middle" x="5047.1" y="-119.5" font-family="Helvetica,sans-Serif" font-size="10.00">_wrapper.hpp</text>
</g>
<!-- Node4&#45;&gt;Node43 -->
<g id="edge45" class="edge"><title>Node4&#45;&gt;Node43</title>
<path fill="none" stroke="midnightblue" d="M2947.33,-179.923C2950.63,-179.569 2953.91,-179.256 2957.1,-179 3401.79,-143.416 4516.13,-193.355 4977.76,-142.962"/>
<polygon fill="midnightblue" stroke="midnightblue" points="4978.33,-146.421 4987.87,-141.83 4977.55,-139.464 4978.33,-146.421"/>
</g>
<!-- Node44 -->
<g id="node44" class="node"><title>Node44</title>
<polygon fill="white" stroke="#bfbfbf" points="5124.1,-112.5 5124.1,-142.5 5234.1,-142.5 5234.1,-112.5 5124.1,-112.5"/>
<text text-anchor="start" x="5132.1" y="-130.5" font-family="Helvetica,sans-Serif" font-size="10.00">boost/mpl/aux_/static</text>
<text text-anchor="middle" x="5179.1" y="-119.5" font-family="Helvetica,sans-Serif" font-size="10.00">_cast.hpp</text>
</g>
<!-- Node4&#45;&gt;Node44 -->
<g id="edge46" class="edge"><title>Node4&#45;&gt;Node44</title>
<path fill="none" stroke="midnightblue" d="M2947.33,-179.919C2950.63,-179.566 2953.91,-179.254 2957.1,-179 3431.95,-141.271 4622.49,-199.487 5114.02,-142.909"/>
<polygon fill="midnightblue" stroke="midnightblue" points="5114.55,-146.372 5124.07,-141.725 5113.73,-139.42 5114.55,-146.372"/>
</g>
<!-- Node45 -->
<g id="node45" class="node"><title>Node45</title>
<polygon fill="white" stroke="#bfbfbf" points="5252.1,-112.5 5252.1,-142.5 5352.1,-142.5 5352.1,-112.5 5252.1,-112.5"/>
<text text-anchor="start" x="5260.1" y="-130.5" font-family="Helvetica,sans-Serif" font-size="10.00">boost/preprocessor</text>
<text text-anchor="middle" x="5302.1" y="-119.5" font-family="Helvetica,sans-Serif" font-size="10.00">/cat.hpp</text>
</g>
<!-- Node4&#45;&gt;Node45 -->
<g id="edge47" class="edge"><title>Node4&#45;&gt;Node45</title>
<path fill="none" stroke="midnightblue" d="M2947.32,-179.915C2950.63,-179.563 2953.91,-179.252 2957.1,-179 3460.25,-139.259 4722.43,-207.134 5241.79,-142.914"/>
<polygon fill="midnightblue" stroke="midnightblue" points="5242.55,-146.346 5252.03,-141.618 5241.67,-139.401 5242.55,-146.346"/>
</g>
<!-- Node46 -->
<g id="node46" class="node"><title>Node46</title>
<polygon fill="white" stroke="#bfbfbf" points="5370.1,-112.5 5370.1,-142.5 5470.1,-142.5 5470.1,-112.5 5370.1,-112.5"/>
<text text-anchor="start" x="5378.1" y="-130.5" font-family="Helvetica,sans-Serif" font-size="10.00">boost/preprocessor</text>
<text text-anchor="middle" x="5420.1" y="-119.5" font-family="Helvetica,sans-Serif" font-size="10.00">/config/config.hpp</text>
</g>
<!-- Node4&#45;&gt;Node46 -->
<g id="edge48" class="edge"><title>Node4&#45;&gt;Node46</title>
<path fill="none" stroke="midnightblue" d="M2947.32,-179.913C2950.63,-179.561 2953.91,-179.251 2957.1,-179 3486.49,-137.392 4814.84,-210.291 5360.08,-142.878"/>
<polygon fill="midnightblue" stroke="midnightblue" points="5360.55,-146.347 5370.03,-141.621 5359.68,-139.402 5360.55,-146.347"/>
</g>
<!-- Node47 -->
<g id="node47" class="node"><title>Node47</title>
<polygon fill="white" stroke="#bfbfbf" points="5488.1,-112.5 5488.1,-142.5 5606.1,-142.5 5606.1,-112.5 5488.1,-112.5"/>
<text text-anchor="start" x="5496.1" y="-130.5" font-family="Helvetica,sans-Serif" font-size="10.00">boost/mpl/aux_/lambda</text>
<text text-anchor="middle" x="5547.1" y="-119.5" font-family="Helvetica,sans-Serif" font-size="10.00">_arity_param.hpp</text>
</g>
<!-- Node4&#45;&gt;Node47 -->
<g id="edge49" class="edge"><title>Node4&#45;&gt;Node47</title>
<path fill="none" stroke="midnightblue" d="M2947.32,-179.91C2950.63,-179.559 2953.91,-179.25 2957.1,-179 3512.62,-135.534 4905.67,-204.924 5477.84,-142.952"/>
<polygon fill="midnightblue" stroke="midnightblue" points="5478.32,-146.421 5487.88,-141.843 5477.55,-139.463 5478.32,-146.421"/>
</g>
<!-- Node48 -->
<g id="node48" class="node"><title>Node48</title>
<polygon fill="white" stroke="#bfbfbf" points="5624.1,-112.5 5624.1,-142.5 5748.1,-142.5 5748.1,-112.5 5624.1,-112.5"/>
<text text-anchor="start" x="5632.1" y="-130.5" font-family="Helvetica,sans-Serif" font-size="10.00">boost/mpl/aux_/template</text>
<text text-anchor="middle" x="5686.1" y="-119.5" font-family="Helvetica,sans-Serif" font-size="10.00">_arity_fwd.hpp</text>
</g>
<!-- Node4&#45;&gt;Node48 -->
<g id="edge50" class="edge"><title>Node4&#45;&gt;Node48</title>
<path fill="none" stroke="midnightblue" d="M2947.32,-179.907C2950.63,-179.557 2953.91,-179.249 2957.1,-179 3542.73,-133.393 5011.18,-205.561 5613.74,-142.972"/>
<polygon fill="midnightblue" stroke="midnightblue" points="5614.29,-146.433 5623.87,-141.898 5613.55,-139.472 5614.29,-146.433"/>
</g>
<!-- Node49 -->
<g id="node49" class="node"><title>Node49</title>
<polygon fill="white" stroke="#bfbfbf" points="5766.1,-118 5766.1,-137 5890.1,-137 5890.1,-118 5766.1,-118"/>
<text text-anchor="middle" x="5828.1" y="-125" font-family="Helvetica,sans-Serif" font-size="10.00">boost/mpl/aux_/arity.hpp</text>
</g>
<!-- Node4&#45;&gt;Node49 -->
<g id="edge51" class="edge"><title>Node4&#45;&gt;Node49</title>
<path fill="none" stroke="midnightblue" d="M2947.32,-179.905C2950.63,-179.555 2953.91,-179.248 2957.1,-179 3577.51,-130.899 5138.4,-209.553 5757.1,-143 5765.55,-142.091 5774.49,-140.652 5783.06,-139.026"/>
<polygon fill="midnightblue" stroke="midnightblue" points="5783.8,-142.448 5792.92,-137.051 5782.42,-135.585 5783.8,-142.448"/>
</g>
<!-- Node10&#45;&gt;Node2 -->
<g id="edge12" class="edge"><title>Node10&#45;&gt;Node2</title>
<path fill="none" stroke="midnightblue" d="M835.399,-117.928C844.838,-115.596 855.334,-113.345 865.101,-112 1094.74,-80.3704 1819.42,-70.0132 2033.19,-67.6054"/>
<polygon fill="midnightblue" stroke="midnightblue" points="2033.31,-71.1043 2043.27,-67.4934 2033.23,-64.1047 2033.31,-71.1043"/>
</g>
</g>
</svg>
