<?xml version="1.0" encoding="UTF-8" standalone="no"?>
<!DOCTYPE svg PUBLIC "-//W3C//DTD SVG 1.1//EN"
 "http://www.w3.org/Graphics/SVG/1.1/DTD/svg11.dtd">
<!-- Generated by graphviz version 2.38.0 (20140413.2041)
 -->
<!-- Title: boost/ui/frame.hpp Pages: 1 -->
<svg width="5319pt" height="274pt"
 viewBox="0.00 0.00 5318.72 274.00" xmlns="http://www.w3.org/2000/svg" xmlns:xlink="http://www.w3.org/1999/xlink">
<g id="graph0" class="graph" transform="scale(1 1) rotate(0) translate(4 270)">
<title>boost/ui/frame.hpp</title>
<polygon fill="white" stroke="none" points="-4,4 -4,-270 5314.72,-270 5314.72,4 -4,4"/>
<!-- Node1 -->
<g id="node1" class="node"><title>Node1</title>
<polygon fill="#bfbfbf" stroke="black" points="4953,-246.5 4953,-265.5 5051,-265.5 5051,-246.5 4953,-246.5"/>
<text text-anchor="middle" x="5002" y="-253.5" font-family="Helvetica,sans-Serif" font-size="10.00">boost/ui/frame.hpp</text>
</g>
<!-- Node2 -->
<g id="node2" class="node"><title>Node2</title>
<g id="a_node2"><a xlink:href="config_8hpp.html" target="_top" xlink:title="Configuration options. ">
<polygon fill="white" stroke="black" points="4837.5,-62 4837.5,-81 4936.5,-81 4936.5,-62 4837.5,-62"/>
<text text-anchor="middle" x="4887" y="-69" font-family="Helvetica,sans-Serif" font-size="10.00">boost/ui/config.hpp</text>
</a>
</g>
</g>
<!-- Node1&#45;&gt;Node2 -->
<g id="edge1" class="edge"><title>Node1&#45;&gt;Node2</title>
<path fill="none" stroke="midnightblue" d="M4996.45,-246.198C4978.5,-217.71 4921.77,-127.679 4897.83,-89.6835"/>
<polygon fill="midnightblue" stroke="midnightblue" points="4900.78,-87.8085 4892.49,-81.214 4894.86,-91.5404 4900.78,-87.8085"/>
</g>
<!-- Node4 -->
<g id="node4" class="node"><title>Node4</title>
<g id="a_node4"><a xlink:href="window_8hpp.html" target="_top" xlink:title="Window class. ">
<polygon fill="white" stroke="red" points="2468,-190.5 2468,-209.5 2574,-209.5 2574,-190.5 2468,-190.5"/>
<text text-anchor="middle" x="2521" y="-197.5" font-family="Helvetica,sans-Serif" font-size="10.00">boost/ui/window.hpp</text>
</a>
</g>
</g>
<!-- Node1&#45;&gt;Node4 -->
<g id="edge3" class="edge"><title>Node1&#45;&gt;Node4</title>
<path fill="none" stroke="midnightblue" d="M4953,-253.933C4641.19,-247.147 2935.81,-210.028 2584.36,-202.379"/>
<polygon fill="midnightblue" stroke="midnightblue" points="2584.19,-198.875 2574.12,-202.156 2584.04,-205.873 2584.19,-198.875"/>
</g>
<!-- Node12 -->
<g id="node12" class="node"><title>Node12</title>
<polygon fill="white" stroke="#bfbfbf" points="4680.5,-62 4680.5,-81 4779.5,-81 4779.5,-62 4680.5,-62"/>
<text text-anchor="middle" x="4730" y="-69" font-family="Helvetica,sans-Serif" font-size="10.00">boost/ui/config.hpp</text>
</g>
<!-- Node1&#45;&gt;Node12 -->
<g id="edge55" class="edge"><title>Node1&#45;&gt;Node12</title>
<path fill="none" stroke="midnightblue" d="M4952.79,-250.933C4911.95,-245.886 4853.41,-234.685 4808,-210 4776.52,-192.887 4767.86,-185.064 4750,-154 4738.68,-134.314 4733.73,-108.389 4731.59,-91.1194"/>
<polygon fill="midnightblue" stroke="midnightblue" points="4735.07,-90.7548 4730.55,-81.1729 4728.11,-91.4826 4735.07,-90.7548"/>
</g>
<!-- Node16 -->
<g id="node16" class="node"><title>Node16</title>
<polygon fill="white" stroke="#bfbfbf" points="5096,-56.5 5096,-86.5 5206,-86.5 5206,-56.5 5096,-56.5"/>
<text text-anchor="start" x="5104" y="-74.5" font-family="Helvetica,sans-Serif" font-size="10.00">boost/ui/detail/shared</text>
<text text-anchor="middle" x="5151" y="-63.5" font-family="Helvetica,sans-Serif" font-size="10.00">_count.hpp</text>
</g>
<!-- Node1&#45;&gt;Node16 -->
<g id="edge63" class="edge"><title>Node1&#45;&gt;Node16</title>
<path fill="none" stroke="midnightblue" d="M5051.02,-252.114C5119.08,-247.235 5237.74,-235.304 5272,-210 5304.67,-185.868 5323.67,-156.012 5300,-123 5280.91,-96.3756 5247,-83.614 5216.35,-77.5696"/>
<polygon fill="midnightblue" stroke="midnightblue" points="5216.56,-74.0531 5206.11,-75.7669 5215.35,-80.9471 5216.56,-74.0531"/>
</g>
<!-- Node17 -->
<g id="node17" class="node"><title>Node17</title>
<polygon fill="white" stroke="#bfbfbf" points="4954.5,-62 4954.5,-81 5077.5,-81 5077.5,-62 4954.5,-62"/>
<text text-anchor="middle" x="5016" y="-69" font-family="Helvetica,sans-Serif" font-size="10.00">boost/ui/detail/event.hpp</text>
</g>
<!-- Node1&#45;&gt;Node17 -->
<g id="edge64" class="edge"><title>Node1&#45;&gt;Node17</title>
<path fill="none" stroke="midnightblue" d="M5002.68,-246.198C5004.82,-218.193 5011.53,-130.713 5014.53,-91.6598"/>
<polygon fill="midnightblue" stroke="midnightblue" points="5018.06,-91.4525 5015.33,-81.214 5011.08,-90.917 5018.06,-91.4525"/>
</g>
<!-- Node47 -->
<g id="node47" class="node"><title>Node47</title>
<polygon fill="white" stroke="#bfbfbf" points="5030.5,-190.5 5030.5,-209.5 5131.5,-209.5 5131.5,-190.5 5030.5,-190.5"/>
<text text-anchor="middle" x="5081" y="-197.5" font-family="Helvetica,sans-Serif" font-size="10.00">boost/ui/widget.hpp</text>
</g>
<!-- Node1&#45;&gt;Node47 -->
<g id="edge56" class="edge"><title>Node1&#45;&gt;Node47</title>
<path fill="none" stroke="midnightblue" d="M5014.69,-246.324C5026.9,-237.979 5045.58,-225.212 5060,-215.352"/>
<polygon fill="midnightblue" stroke="midnightblue" points="5062.06,-218.187 5068.34,-209.655 5058.11,-212.408 5062.06,-218.187"/>
</g>
<!-- Node48 -->
<g id="node48" class="node"><title>Node48</title>
<g id="a_node48"><a xlink:href="menu_8hpp.html" target="_top" xlink:title="Menu classes. ">
<polygon fill="white" stroke="black" points="5149.5,-190.5 5149.5,-209.5 5246.5,-209.5 5246.5,-190.5 5149.5,-190.5"/>
<text text-anchor="middle" x="5198" y="-197.5" font-family="Helvetica,sans-Serif" font-size="10.00">boost/ui/menu.hpp</text>
</a>
</g>
</g>
<!-- Node1&#45;&gt;Node48 -->
<g id="edge57" class="edge"><title>Node1&#45;&gt;Node48</title>
<path fill="none" stroke="midnightblue" d="M5033.06,-246.444C5066.6,-237.201 5120.2,-222.436 5157.14,-212.257"/>
<polygon fill="midnightblue" stroke="midnightblue" points="5158.38,-215.547 5167.09,-209.516 5156.52,-208.798 5158.38,-215.547"/>
</g>
<!-- Node49 -->
<g id="node49" class="node"><title>Node49</title>
<polygon fill="white" stroke="#bfbfbf" points="5173.5,-129 5173.5,-148 5290.5,-148 5290.5,-129 5173.5,-129"/>
<text text-anchor="middle" x="5232" y="-136" font-family="Helvetica,sans-Serif" font-size="10.00">boost/noncopyable.hpp</text>
</g>
<!-- Node1&#45;&gt;Node49 -->
<g id="edge65" class="edge"><title>Node1&#45;&gt;Node49</title>
<path fill="none" stroke="midnightblue" d="M5051.24,-253.519C5117.6,-250.368 5230.39,-240.543 5256,-210 5268.92,-194.595 5257.29,-171.896 5246.17,-156.446"/>
<polygon fill="midnightblue" stroke="midnightblue" points="5248.75,-154.068 5239.87,-148.297 5243.22,-158.349 5248.75,-154.068"/>
</g>
<!-- Node50 -->
<g id="node50" class="node"><title>Node50</title>
<g id="a_node50"><a xlink:href="status__bar_8hpp.html" target="_top" xlink:title="Status bar class. ">
<polygon fill="white" stroke="black" points="4816.5,-190.5 4816.5,-209.5 4935.5,-209.5 4935.5,-190.5 4816.5,-190.5"/>
<text text-anchor="middle" x="4876" y="-197.5" font-family="Helvetica,sans-Serif" font-size="10.00">boost/ui/status_bar.hpp</text>
</a>
</g>
</g>
<!-- Node1&#45;&gt;Node50 -->
<g id="edge66" class="edge"><title>Node1&#45;&gt;Node50</title>
<path fill="none" stroke="midnightblue" d="M4982.03,-246.444C4961.39,-237.596 4928.94,-223.687 4905.37,-213.586"/>
<polygon fill="midnightblue" stroke="midnightblue" points="4906.44,-210.239 4895.87,-209.516 4903.68,-216.673 4906.44,-210.239"/>
</g>
<!-- Node3 -->
<g id="node3" class="node"><title>Node3</title>
<polygon fill="white" stroke="#bfbfbf" points="4764.5,-0.5 4764.5,-19.5 4853.5,-19.5 4853.5,-0.5 4764.5,-0.5"/>
<text text-anchor="middle" x="4809" y="-7.5" font-family="Helvetica,sans-Serif" font-size="10.00">boost/config.hpp</text>
</g>
<!-- Node2&#45;&gt;Node3 -->
<g id="edge2" class="edge"><title>Node2&#45;&gt;Node3</title>
<path fill="none" stroke="midnightblue" d="M4875.82,-61.9751C4863.43,-52.5199 4843.21,-37.0961 4828.25,-25.6871"/>
<polygon fill="midnightblue" stroke="midnightblue" points="4830.23,-22.7914 4820.15,-19.5091 4825.98,-28.357 4830.23,-22.7914"/>
</g>
<!-- Node4&#45;&gt;Node2 -->
<g id="edge4" class="edge"><title>Node4&#45;&gt;Node2</title>
<path fill="none" stroke="midnightblue" d="M2574.17,-198.885C2918.77,-198.027 4823.11,-191.593 4869,-154 4887.19,-139.102 4889.55,-110.352 4888.84,-91.2921"/>
<polygon fill="midnightblue" stroke="midnightblue" points="4892.32,-90.8633 4888.14,-81.1271 4885.34,-91.3438 4892.32,-90.8633"/>
</g>
<!-- Node4&#45;&gt;Node3 -->
<g id="edge5" class="edge"><title>Node4&#45;&gt;Node3</title>
<path fill="none" stroke="midnightblue" d="M2472.95,-190.458C2452.06,-184.101 2429.53,-173.074 2417,-154 2409.44,-142.485 2409.03,-134.24 2417,-123 2469.03,-49.6118 2519.48,-72.0089 2608,-56 2824.62,-16.8267 4433.9,-11.7155 4753.8,-11.0849"/>
<polygon fill="midnightblue" stroke="midnightblue" points="4754.21,-14.5842 4764.2,-11.0651 4754.19,-7.5842 4754.21,-14.5842"/>
</g>
<!-- Node5 -->
<g id="node5" class="node"><title>Node5</title>
<polygon fill="white" stroke="#bfbfbf" points="1683,-129 1683,-148 1793,-148 1793,-129 1683,-129"/>
<text text-anchor="middle" x="1738" y="-136" font-family="Helvetica,sans-Serif" font-size="10.00">boost/config/user.hpp</text>
</g>
<!-- Node4&#45;&gt;Node5 -->
<g id="edge6" class="edge"><title>Node4&#45;&gt;Node5</title>
<path fill="none" stroke="midnightblue" d="M2467.93,-198.581C2348.42,-197.006 2049.29,-189.518 1802,-154 1795.18,-153.021 1788.01,-151.695 1781.04,-150.241"/>
<polygon fill="midnightblue" stroke="midnightblue" points="1781.55,-146.769 1771.03,-148.045 1780.05,-153.606 1781.55,-146.769"/>
</g>
<!-- Node6 -->
<g id="node6" class="node"><title>Node6</title>
<polygon fill="white" stroke="#bfbfbf" points="1811,-123.5 1811,-153.5 1949,-153.5 1949,-123.5 1811,-123.5"/>
<text text-anchor="start" x="1819" y="-141.5" font-family="Helvetica,sans-Serif" font-size="10.00">boost/config/detail</text>
<text text-anchor="middle" x="1880" y="-130.5" font-family="Helvetica,sans-Serif" font-size="10.00">/select_compiler_config.hpp</text>
</g>
<!-- Node4&#45;&gt;Node6 -->
<g id="edge7" class="edge"><title>Node4&#45;&gt;Node6</title>
<path fill="none" stroke="midnightblue" d="M2467.63,-196.588C2369.13,-191.732 2151.98,-179.146 1959.29,-154.081"/>
<polygon fill="midnightblue" stroke="midnightblue" points="1959.63,-150.596 1949.26,-152.762 1958.72,-157.537 1959.63,-150.596"/>
</g>
<!-- Node7 -->
<g id="node7" class="node"><title>Node7</title>
<polygon fill="white" stroke="#bfbfbf" points="1967.5,-123.5 1967.5,-153.5 2104.5,-153.5 2104.5,-123.5 1967.5,-123.5"/>
<text text-anchor="start" x="1975.5" y="-141.5" font-family="Helvetica,sans-Serif" font-size="10.00">boost/config/detail</text>
<text text-anchor="middle" x="2036" y="-130.5" font-family="Helvetica,sans-Serif" font-size="10.00">/select_platform_config.hpp</text>
</g>
<!-- Node4&#45;&gt;Node7 -->
<g id="edge8" class="edge"><title>Node4&#45;&gt;Node7</title>
<path fill="none" stroke="midnightblue" d="M2467.83,-194.382C2391.86,-187.504 2247.67,-173.421 2114.81,-154.049"/>
<polygon fill="midnightblue" stroke="midnightblue" points="2115.26,-150.578 2104.86,-152.585 2114.24,-157.503 2115.26,-150.578"/>
</g>
<!-- Node8 -->
<g id="node8" class="node"><title>Node8</title>
<polygon fill="white" stroke="#bfbfbf" points="2123,-123.5 2123,-153.5 2219,-153.5 2219,-123.5 2123,-123.5"/>
<text text-anchor="start" x="2131" y="-141.5" font-family="Helvetica,sans-Serif" font-size="10.00">boost/config/detail</text>
<text text-anchor="middle" x="2171" y="-130.5" font-family="Helvetica,sans-Serif" font-size="10.00">/suffix.hpp</text>
</g>
<!-- Node4&#45;&gt;Node8 -->
<g id="edge9" class="edge"><title>Node4&#45;&gt;Node8</title>
<path fill="none" stroke="midnightblue" d="M2467.8,-192.403C2411.01,-185.009 2318.22,-171.922 2229.13,-154.114"/>
<polygon fill="midnightblue" stroke="midnightblue" points="2229.62,-150.643 2219.13,-152.091 2228.23,-157.504 2229.62,-150.643"/>
</g>
<!-- Node9 -->
<g id="node9" class="node"><title>Node9</title>
<polygon fill="white" stroke="#bfbfbf" points="1960,-62 1960,-81 2008,-81 2008,-62 1960,-62"/>
<text text-anchor="middle" x="1984" y="-69" font-family="Helvetica,sans-Serif" font-size="10.00">limits.h</text>
</g>
<!-- Node4&#45;&gt;Node9 -->
<g id="edge10" class="edge"><title>Node4&#45;&gt;Node9</title>
<path fill="none" stroke="midnightblue" d="M2467.75,-198.166C2286.22,-195.066 1701.37,-182.867 1674,-154 1664.52,-144.003 1665.08,-133.496 1674,-123 1709.1,-81.7225 1876.51,-74.0989 1949.66,-72.7538"/>
<polygon fill="midnightblue" stroke="midnightblue" points="1949.8,-76.2522 1959.75,-72.5977 1949.69,-69.2531 1949.8,-76.2522"/>
</g>
<!-- Node10 -->
<g id="node10" class="node"><title>Node10</title>
<polygon fill="white" stroke="#bfbfbf" points="2237.5,-123.5 2237.5,-153.5 2336.5,-153.5 2336.5,-123.5 2237.5,-123.5"/>
<text text-anchor="start" x="2245.5" y="-141.5" font-family="Helvetica,sans-Serif" font-size="10.00">boost/config/helper</text>
<text text-anchor="middle" x="2287" y="-130.5" font-family="Helvetica,sans-Serif" font-size="10.00">_macros.hpp</text>
</g>
<!-- Node4&#45;&gt;Node10 -->
<g id="edge11" class="edge"><title>Node4&#45;&gt;Node10</title>
<path fill="none" stroke="midnightblue" d="M2487.47,-190.475C2450.82,-181.154 2391.35,-166.034 2346.69,-154.677"/>
<polygon fill="midnightblue" stroke="midnightblue" points="2347.38,-151.241 2336.82,-152.168 2345.65,-158.025 2347.38,-151.241"/>
</g>
<!-- Node11 -->
<g id="node11" class="node"><title>Node11</title>
<g id="a_node11"><a xlink:href="widget_8hpp.html" target="_top" xlink:title="Widget class. ">
<polygon fill="white" stroke="red" points="4758.5,-129 4758.5,-148 4859.5,-148 4859.5,-129 4758.5,-129"/>
<text text-anchor="middle" x="4809" y="-136" font-family="Helvetica,sans-Serif" font-size="10.00">boost/ui/widget.hpp</text>
</a>
</g>
</g>
<!-- Node4&#45;&gt;Node11 -->
<g id="edge12" class="edge"><title>Node4&#45;&gt;Node11</title>
<path fill="none" stroke="midnightblue" d="M2574.34,-198.766C2866.25,-197.352 4272.96,-188.815 4706,-154 4719.76,-152.894 4734.49,-151.155 4748.38,-149.261"/>
<polygon fill="midnightblue" stroke="midnightblue" points="4748.9,-152.721 4758.32,-147.86 4747.93,-145.79 4748.9,-152.721"/>
</g>
<!-- Node4&#45;&gt;Node12 -->
<g id="edge22" class="edge"><title>Node4&#45;&gt;Node12</title>
<path fill="none" stroke="midnightblue" d="M2574.26,-199.245C2896.76,-200.557 4577.67,-204.931 4673,-154 4698.3,-140.482 4714.77,-110.183 4723.21,-90.5787"/>
<polygon fill="midnightblue" stroke="midnightblue" points="4726.5,-91.7875 4726.99,-81.2041 4720.01,-89.1699 4726.5,-91.7875"/>
</g>
<!-- Node13 -->
<g id="node13" class="node"><title>Node13</title>
<polygon fill="white" stroke="#bfbfbf" points="2617.5,-62 2617.5,-81 2714.5,-81 2714.5,-62 2617.5,-62"/>
<text text-anchor="middle" x="2666" y="-69" font-family="Helvetica,sans-Serif" font-size="10.00">boost/ui/coord.hpp</text>
</g>
<!-- Node4&#45;&gt;Node13 -->
<g id="edge23" class="edge"><title>Node4&#45;&gt;Node13</title>
<path fill="none" stroke="midnightblue" d="M2480.85,-190.429C2461.03,-183.953 2438.86,-172.83 2427,-154 2419.66,-142.343 2418.32,-133.702 2427,-123 2449.26,-95.5397 2543.89,-82.4281 2607.19,-76.6226"/>
<polygon fill="midnightblue" stroke="midnightblue" points="2607.8,-80.0828 2617.45,-75.7198 2607.19,-73.1097 2607.8,-80.0828"/>
</g>
<!-- Node14 -->
<g id="node14" class="node"><title>Node14</title>
<polygon fill="white" stroke="#bfbfbf" points="3180.5,-62 3180.5,-81 3319.5,-81 3319.5,-62 3180.5,-62"/>
<text text-anchor="middle" x="3250" y="-69" font-family="Helvetica,sans-Serif" font-size="10.00">boost/detail/workaround.hpp</text>
</g>
<!-- Node4&#45;&gt;Node14 -->
<g id="edge37" class="edge"><title>Node4&#45;&gt;Node14</title>
<path fill="none" stroke="midnightblue" d="M2501.09,-190.41C2486.78,-183.04 2468.54,-170.916 2460,-154 2453.79,-141.701 2450.57,-133.048 2460,-123 2484.05,-97.3671 2974.22,-80.4511 3170.12,-74.6906"/>
<polygon fill="midnightblue" stroke="midnightblue" points="3170.46,-78.1825 3180.35,-74.3922 3170.26,-71.1854 3170.46,-78.1825"/>
</g>
<!-- Node15 -->
<g id="node15" class="node"><title>Node15</title>
<polygon fill="white" stroke="#bfbfbf" points="4041,-62 4041,-81 4183,-81 4183,-62 4041,-62"/>
<text text-anchor="middle" x="4112" y="-69" font-family="Helvetica,sans-Serif" font-size="10.00">boost/config/workaround.hpp</text>
</g>
<!-- Node4&#45;&gt;Node15 -->
<g id="edge38" class="edge"><title>Node4&#45;&gt;Node15</title>
<path fill="none" stroke="midnightblue" d="M2574.31,-198.74C2780.1,-197.475 3516.16,-190.422 3614,-154 3634.75,-146.275 3632.53,-131.43 3653,-123 3719.38,-95.6674 3917.53,-81.862 4030.59,-76.0341"/>
<polygon fill="midnightblue" stroke="midnightblue" points="4030.78,-79.5292 4040.59,-75.5281 4030.42,-72.5381 4030.78,-79.5292"/>
</g>
<!-- Node18 -->
<g id="node18" class="node"><title>Node18</title>
<polygon fill="white" stroke="#bfbfbf" points="2469.5,-129 2469.5,-148 2572.5,-148 2572.5,-129 2469.5,-129"/>
<text text-anchor="middle" x="2521" y="-136" font-family="Helvetica,sans-Serif" font-size="10.00">boost/geometry.hpp</text>
</g>
<!-- Node4&#45;&gt;Node18 -->
<g id="edge24" class="edge"><title>Node4&#45;&gt;Node18</title>
<path fill="none" stroke="midnightblue" d="M2521,-190.475C2521,-182.08 2521,-168.981 2521,-158.163"/>
<polygon fill="midnightblue" stroke="midnightblue" points="2524.5,-158.009 2521,-148.009 2517.5,-158.009 2524.5,-158.009"/>
</g>
<!-- Node19 -->
<g id="node19" class="node"><title>Node19</title>
<polygon fill="white" stroke="#bfbfbf" points="2591,-129 2591,-148 2737,-148 2737,-129 2591,-129"/>
<text text-anchor="middle" x="2664" y="-136" font-family="Helvetica,sans-Serif" font-size="10.00">boost/geometry/geometry.hpp</text>
</g>
<!-- Node4&#45;&gt;Node19 -->
<g id="edge25" class="edge"><title>Node4&#45;&gt;Node19</title>
<path fill="none" stroke="midnightblue" d="M2541.49,-190.475C2565.81,-180.357 2606.55,-163.405 2634.32,-151.851"/>
<polygon fill="midnightblue" stroke="midnightblue" points="2635.66,-155.082 2643.55,-148.009 2632.97,-148.619 2635.66,-155.082"/>
</g>
<!-- Node20 -->
<g id="node20" class="node"><title>Node20</title>
<polygon fill="white" stroke="#bfbfbf" points="2755,-123.5 2755,-153.5 2861,-153.5 2861,-123.5 2755,-123.5"/>
<text text-anchor="start" x="2763" y="-141.5" font-family="Helvetica,sans-Serif" font-size="10.00">boost/geometry/core</text>
<text text-anchor="middle" x="2808" y="-130.5" font-family="Helvetica,sans-Serif" font-size="10.00">/closure.hpp</text>
</g>
<!-- Node4&#45;&gt;Node20 -->
<g id="edge26" class="edge"><title>Node4&#45;&gt;Node20</title>
<path fill="none" stroke="midnightblue" d="M2565.91,-190.461C2609.26,-182.12 2676.99,-168.828 2744.91,-154.199"/>
<polygon fill="midnightblue" stroke="midnightblue" points="2745.89,-157.567 2754.93,-152.032 2744.41,-150.725 2745.89,-157.567"/>
</g>
<!-- Node21 -->
<g id="node21" class="node"><title>Node21</title>
<polygon fill="white" stroke="#bfbfbf" points="2879,-129 2879,-148 2987,-148 2987,-129 2879,-129"/>
<text text-anchor="middle" x="2933" y="-136" font-family="Helvetica,sans-Serif" font-size="10.00">boost/mpl/assert.hpp</text>
</g>
<!-- Node4&#45;&gt;Node21 -->
<g id="edge27" class="edge"><title>Node4&#45;&gt;Node21</title>
<path fill="none" stroke="midnightblue" d="M2574.16,-193.783C2642.8,-186.673 2765.82,-172.66 2870,-154 2876.16,-152.896 2882.63,-151.585 2888.98,-150.209"/>
<polygon fill="midnightblue" stroke="midnightblue" points="2889.8,-153.612 2898.79,-148.015 2888.27,-146.781 2889.8,-153.612"/>
</g>
<!-- Node22 -->
<g id="node22" class="node"><title>Node22</title>
<polygon fill="white" stroke="#bfbfbf" points="3005.5,-129 3005.5,-148 3100.5,-148 3100.5,-129 3005.5,-129"/>
<text text-anchor="middle" x="3053" y="-136" font-family="Helvetica,sans-Serif" font-size="10.00">boost/mpl/not.hpp</text>
</g>
<!-- Node4&#45;&gt;Node22 -->
<g id="edge28" class="edge"><title>Node4&#45;&gt;Node22</title>
<path fill="none" stroke="midnightblue" d="M2574.07,-196.654C2662.23,-192.158 2844.2,-180.336 2996,-154 3001.53,-153.04 3007.32,-151.823 3013,-150.504"/>
<polygon fill="midnightblue" stroke="midnightblue" points="3014.13,-153.83 3023.01,-148.053 3012.47,-147.03 3014.13,-153.83"/>
</g>
<!-- Node23 -->
<g id="node23" class="node"><title>Node23</title>
<polygon fill="white" stroke="#bfbfbf" points="3118.5,-129 3118.5,-148 3217.5,-148 3217.5,-129 3118.5,-129"/>
<text text-anchor="middle" x="3168" y="-136" font-family="Helvetica,sans-Serif" font-size="10.00">boost/mpl/bool.hpp</text>
</g>
<!-- Node4&#45;&gt;Node23 -->
<g id="edge29" class="edge"><title>Node4&#45;&gt;Node23</title>
<path fill="none" stroke="midnightblue" d="M2574.05,-197.861C2677.54,-194.995 2913.38,-185.305 3109,-154 3114.94,-153.05 3121.16,-151.803 3127.24,-150.44"/>
<polygon fill="midnightblue" stroke="midnightblue" points="3128.34,-153.776 3137.27,-148.067 3126.73,-146.964 3128.34,-153.776"/>
</g>
<!-- Node24 -->
<g id="node24" class="node"><title>Node24</title>
<polygon fill="white" stroke="#bfbfbf" points="3236,-129 3236,-148 3356,-148 3356,-129 3236,-129"/>
<text text-anchor="middle" x="3296" y="-136" font-family="Helvetica,sans-Serif" font-size="10.00">boost/mpl/bool_fwd.hpp</text>
</g>
<!-- Node4&#45;&gt;Node24 -->
<g id="edge30" class="edge"><title>Node4&#45;&gt;Node24</title>
<path fill="none" stroke="midnightblue" d="M2574.4,-198.207C2692.55,-195.883 2984.83,-186.99 3227,-154 3234.59,-152.966 3242.59,-151.571 3250.35,-150.054"/>
<polygon fill="midnightblue" stroke="midnightblue" points="3251.26,-153.44 3260.36,-148.008 3249.86,-146.582 3251.26,-153.44"/>
</g>
<!-- Node25 -->
<g id="node25" class="node"><title>Node25</title>
<polygon fill="white" stroke="#bfbfbf" points="3374.5,-123.5 3374.5,-153.5 3473.5,-153.5 3473.5,-123.5 3374.5,-123.5"/>
<text text-anchor="start" x="3382.5" y="-141.5" font-family="Helvetica,sans-Serif" font-size="10.00">boost/mpl/aux_/adl</text>
<text text-anchor="middle" x="3424" y="-130.5" font-family="Helvetica,sans-Serif" font-size="10.00">_barrier.hpp</text>
</g>
<!-- Node4&#45;&gt;Node25 -->
<g id="edge31" class="edge"><title>Node4&#45;&gt;Node25</title>
<path fill="none" stroke="midnightblue" d="M2574.18,-199.613C2706.37,-200.4 3060.46,-197.991 3363.92,-153.943"/>
<polygon fill="midnightblue" stroke="midnightblue" points="3364.85,-157.343 3374.24,-152.426 3363.83,-150.418 3364.85,-157.343"/>
</g>
<!-- Node26 -->
<g id="node26" class="node"><title>Node26</title>
<polygon fill="white" stroke="#bfbfbf" points="3491.5,-123.5 3491.5,-153.5 3604.5,-153.5 3604.5,-123.5 3491.5,-123.5"/>
<text text-anchor="start" x="3499.5" y="-141.5" font-family="Helvetica,sans-Serif" font-size="10.00">boost/mpl/aux_/config</text>
<text text-anchor="middle" x="3548" y="-130.5" font-family="Helvetica,sans-Serif" font-size="10.00">/adl.hpp</text>
</g>
<!-- Node4&#45;&gt;Node26 -->
<g id="edge32" class="edge"><title>Node4&#45;&gt;Node26</title>
<path fill="none" stroke="midnightblue" d="M2574.02,-197.727C2745.63,-193.422 3285.62,-178.369 3481.22,-154.049"/>
<polygon fill="midnightblue" stroke="midnightblue" points="3481.91,-157.488 3491.38,-152.734 3481.02,-150.546 3481.91,-157.488"/>
</g>
<!-- Node27 -->
<g id="node27" class="node"><title>Node27</title>
<polygon fill="white" stroke="#bfbfbf" points="3661.5,-123.5 3661.5,-153.5 3774.5,-153.5 3774.5,-123.5 3661.5,-123.5"/>
<text text-anchor="start" x="3669.5" y="-141.5" font-family="Helvetica,sans-Serif" font-size="10.00">boost/mpl/aux_/config</text>
<text text-anchor="middle" x="3718" y="-130.5" font-family="Helvetica,sans-Serif" font-size="10.00">/msvc.hpp</text>
</g>
<!-- Node4&#45;&gt;Node27 -->
<g id="edge33" class="edge"><title>Node4&#45;&gt;Node27</title>
<path fill="none" stroke="midnightblue" d="M2574.07,-198.017C2767.62,-194.255 3435.3,-179.677 3647,-154 3648.3,-153.842 3649.61,-153.674 3650.93,-153.495"/>
<polygon fill="midnightblue" stroke="midnightblue" points="3651.8,-156.903 3661.17,-151.948 3650.76,-149.982 3651.8,-156.903"/>
</g>
<!-- Node28 -->
<g id="node28" class="node"><title>Node28</title>
<polygon fill="white" stroke="#bfbfbf" points="3792.5,-123.5 3792.5,-153.5 3905.5,-153.5 3905.5,-123.5 3792.5,-123.5"/>
<text text-anchor="start" x="3800.5" y="-141.5" font-family="Helvetica,sans-Serif" font-size="10.00">boost/mpl/aux_/config</text>
<text text-anchor="middle" x="3849" y="-130.5" font-family="Helvetica,sans-Serif" font-size="10.00">/intel.hpp</text>
</g>
<!-- Node4&#45;&gt;Node28 -->
<g id="edge34" class="edge"><title>Node4&#45;&gt;Node28</title>
<path fill="none" stroke="midnightblue" d="M2574.35,-198.406C2780.3,-195.914 3524.49,-185.011 3782.32,-154.025"/>
<polygon fill="midnightblue" stroke="midnightblue" points="3782.9,-157.48 3792.39,-152.772 3782.03,-150.533 3782.9,-157.48"/>
</g>
<!-- Node29 -->
<g id="node29" class="node"><title>Node29</title>
<polygon fill="white" stroke="#bfbfbf" points="3923.5,-123.5 3923.5,-153.5 4036.5,-153.5 4036.5,-123.5 3923.5,-123.5"/>
<text text-anchor="start" x="3931.5" y="-141.5" font-family="Helvetica,sans-Serif" font-size="10.00">boost/mpl/aux_/config</text>
<text text-anchor="middle" x="3980" y="-130.5" font-family="Helvetica,sans-Serif" font-size="10.00">/gcc.hpp</text>
</g>
<!-- Node4&#45;&gt;Node29 -->
<g id="edge35" class="edge"><title>Node4&#45;&gt;Node29</title>
<path fill="none" stroke="midnightblue" d="M2574.13,-198.615C2793.16,-196.826 3627.63,-187.963 3913.06,-154.052"/>
<polygon fill="midnightblue" stroke="midnightblue" points="3913.89,-157.476 3923.39,-152.783 3913.04,-150.529 3913.89,-157.476"/>
</g>
<!-- Node30 -->
<g id="node30" class="node"><title>Node30</title>
<polygon fill="white" stroke="#bfbfbf" points="4054.5,-123.5 4054.5,-153.5 4167.5,-153.5 4167.5,-123.5 4054.5,-123.5"/>
<text text-anchor="start" x="4062.5" y="-141.5" font-family="Helvetica,sans-Serif" font-size="10.00">boost/mpl/aux_/config</text>
<text text-anchor="middle" x="4111" y="-130.5" font-family="Helvetica,sans-Serif" font-size="10.00">/workaround.hpp</text>
</g>
<!-- Node4&#45;&gt;Node30 -->
<g id="edge36" class="edge"><title>Node4&#45;&gt;Node30</title>
<path fill="none" stroke="midnightblue" d="M2574.29,-198.785C2806.53,-197.644 3732.11,-190.901 4044.44,-154.005"/>
<polygon fill="midnightblue" stroke="midnightblue" points="4044.89,-157.476 4054.39,-152.793 4044.04,-150.527 4044.89,-157.476"/>
</g>
<!-- Node31 -->
<g id="node31" class="node"><title>Node31</title>
<polygon fill="white" stroke="#bfbfbf" points="4186,-123.5 4186,-153.5 4280,-153.5 4280,-123.5 4186,-123.5"/>
<text text-anchor="start" x="4194" y="-141.5" font-family="Helvetica,sans-Serif" font-size="10.00">boost/mpl/integral</text>
<text text-anchor="middle" x="4233" y="-130.5" font-family="Helvetica,sans-Serif" font-size="10.00">_c_tag.hpp</text>
</g>
<!-- Node4&#45;&gt;Node31 -->
<g id="edge39" class="edge"><title>Node4&#45;&gt;Node31</title>
<path fill="none" stroke="midnightblue" d="M2574.29,-199.171C2818.87,-199.711 3836.15,-199.22 4175.71,-153.912"/>
<polygon fill="midnightblue" stroke="midnightblue" points="4176.37,-157.354 4185.8,-152.523 4175.41,-150.419 4176.37,-157.354"/>
</g>
<!-- Node32 -->
<g id="node32" class="node"><title>Node32</title>
<polygon fill="white" stroke="#bfbfbf" points="4298.5,-123.5 4298.5,-153.5 4411.5,-153.5 4411.5,-123.5 4298.5,-123.5"/>
<text text-anchor="start" x="4306.5" y="-141.5" font-family="Helvetica,sans-Serif" font-size="10.00">boost/mpl/aux_/config</text>
<text text-anchor="middle" x="4355" y="-130.5" font-family="Helvetica,sans-Serif" font-size="10.00">/static_constant.hpp</text>
</g>
<!-- Node4&#45;&gt;Node32 -->
<g id="edge40" class="edge"><title>Node4&#45;&gt;Node32</title>
<path fill="none" stroke="midnightblue" d="M2574.38,-199.014C2829.22,-198.873 3924.18,-195.863 4288.2,-153.881"/>
<polygon fill="midnightblue" stroke="midnightblue" points="4288.72,-157.344 4298.24,-152.691 4287.89,-150.393 4288.72,-157.344"/>
</g>
<!-- Node33 -->
<g id="node33" class="node"><title>Node33</title>
<polygon fill="white" stroke="#bfbfbf" points="4429.5,-123.5 4429.5,-153.5 4532.5,-153.5 4532.5,-123.5 4429.5,-123.5"/>
<text text-anchor="start" x="4437.5" y="-141.5" font-family="Helvetica,sans-Serif" font-size="10.00">boost/mpl/aux_/nttp</text>
<text text-anchor="middle" x="4481" y="-130.5" font-family="Helvetica,sans-Serif" font-size="10.00">_decl.hpp</text>
</g>
<!-- Node4&#45;&gt;Node33 -->
<g id="edge41" class="edge"><title>Node4&#45;&gt;Node33</title>
<path fill="none" stroke="midnightblue" d="M2574.33,-199.273C2840.6,-200.405 4028.54,-202.656 4419.22,-154.01"/>
<polygon fill="midnightblue" stroke="midnightblue" points="4419.95,-157.446 4429.42,-152.704 4419.06,-150.502 4419.95,-157.446"/>
</g>
<!-- Node34 -->
<g id="node34" class="node"><title>Node34</title>
<polygon fill="white" stroke="#bfbfbf" points="4550.5,-123.5 4550.5,-153.5 4663.5,-153.5 4663.5,-123.5 4550.5,-123.5"/>
<text text-anchor="start" x="4558.5" y="-141.5" font-family="Helvetica,sans-Serif" font-size="10.00">boost/mpl/aux_/config</text>
<text text-anchor="middle" x="4607" y="-130.5" font-family="Helvetica,sans-Serif" font-size="10.00">/nttp.hpp</text>
</g>
<!-- Node4&#45;&gt;Node34 -->
<g id="edge42" class="edge"><title>Node4&#45;&gt;Node34</title>
<path fill="none" stroke="midnightblue" d="M2574.45,-199.236C2851.21,-200.242 4124.3,-202.184 4540.43,-154.001"/>
<polygon fill="midnightblue" stroke="midnightblue" points="4540.88,-157.472 4550.39,-152.817 4540.05,-150.521 4540.88,-157.472"/>
</g>
<!-- Node35 -->
<g id="node35" class="node"><title>Node35</title>
<polygon fill="white" stroke="#bfbfbf" points="0,-123.5 0,-153.5 116,-153.5 116,-123.5 0,-123.5"/>
<text text-anchor="start" x="8" y="-141.5" font-family="Helvetica,sans-Serif" font-size="10.00">boost/mpl/aux_/nested</text>
<text text-anchor="middle" x="58" y="-130.5" font-family="Helvetica,sans-Serif" font-size="10.00">_type_wknd.hpp</text>
</g>
<!-- Node4&#45;&gt;Node35 -->
<g id="edge43" class="edge"><title>Node4&#45;&gt;Node35</title>
<path fill="none" stroke="midnightblue" d="M2467.83,-198.622C2141,-196.216 409.386,-182.271 126.54,-153.928"/>
<polygon fill="midnightblue" stroke="midnightblue" points="126.672,-150.422 116.354,-152.827 125.92,-157.381 126.672,-150.422"/>
</g>
<!-- Node36 -->
<g id="node36" class="node"><title>Node36</title>
<polygon fill="white" stroke="#bfbfbf" points="134,-129 134,-148 276,-148 276,-129 134,-129"/>
<text text-anchor="middle" x="205" y="-136" font-family="Helvetica,sans-Serif" font-size="10.00">boost/mpl/aux_/na_spec.hpp</text>
</g>
<!-- Node4&#45;&gt;Node36 -->
<g id="edge44" class="edge"><title>Node4&#45;&gt;Node36</title>
<path fill="none" stroke="midnightblue" d="M2467.85,-199.079C2172.25,-199.347 728.089,-198.329 285,-154 275.306,-153.03 265.023,-151.529 255.175,-149.854"/>
<polygon fill="midnightblue" stroke="midnightblue" points="255.57,-146.369 245.111,-148.06 254.342,-153.261 255.57,-146.369"/>
</g>
<!-- Node37 -->
<g id="node37" class="node"><title>Node37</title>
<polygon fill="white" stroke="#bfbfbf" points="294,-129 294,-148 428,-148 428,-129 294,-129"/>
<text text-anchor="middle" x="361" y="-136" font-family="Helvetica,sans-Serif" font-size="10.00">boost/mpl/lambda_fwd.hpp</text>
</g>
<!-- Node4&#45;&gt;Node37 -->
<g id="edge45" class="edge"><title>Node4&#45;&gt;Node37</title>
<path fill="none" stroke="midnightblue" d="M2467.79,-199.055C2184.19,-199.164 847.955,-197.333 437,-154 427.877,-153.038 418.212,-151.557 408.944,-149.903"/>
<polygon fill="midnightblue" stroke="midnightblue" points="409.561,-146.458 399.088,-148.056 408.272,-153.338 409.561,-146.458"/>
</g>
<!-- Node38 -->
<g id="node38" class="node"><title>Node38</title>
<polygon fill="white" stroke="#bfbfbf" points="446,-129 446,-148 566,-148 566,-129 446,-129"/>
<text text-anchor="middle" x="506" y="-136" font-family="Helvetica,sans-Serif" font-size="10.00">boost/mpl/void_fwd.hpp</text>
</g>
<!-- Node4&#45;&gt;Node38 -->
<g id="edge46" class="edge"><title>Node4&#45;&gt;Node38</title>
<path fill="none" stroke="midnightblue" d="M2467.76,-199.093C2195.49,-199.369 956.65,-198.133 575,-154 567.049,-153.081 558.657,-151.685 550.57,-150.116"/>
<polygon fill="midnightblue" stroke="midnightblue" points="551.043,-146.64 540.544,-148.059 549.636,-153.497 551.043,-146.64"/>
</g>
<!-- Node39 -->
<g id="node39" class="node"><title>Node39</title>
<polygon fill="white" stroke="#bfbfbf" points="584,-129 584,-148 700,-148 700,-129 584,-129"/>
<text text-anchor="middle" x="642" y="-136" font-family="Helvetica,sans-Serif" font-size="10.00">boost/mpl/aux_/na.hpp</text>
</g>
<!-- Node4&#45;&gt;Node39 -->
<g id="edge47" class="edge"><title>Node4&#45;&gt;Node39</title>
<path fill="none" stroke="midnightblue" d="M2467.6,-199.03C2206.48,-198.97 1062.47,-196.255 709,-154 701.359,-153.087 693.303,-151.709 685.529,-150.161"/>
<polygon fill="midnightblue" stroke="midnightblue" points="686.039,-146.692 675.532,-148.052 684.594,-153.541 686.039,-146.692"/>
</g>
<!-- Node40 -->
<g id="node40" class="node"><title>Node40</title>
<polygon fill="white" stroke="#bfbfbf" points="718.5,-129 718.5,-148 855.5,-148 855.5,-129 718.5,-129"/>
<text text-anchor="middle" x="787" y="-136" font-family="Helvetica,sans-Serif" font-size="10.00">boost/mpl/aux_/na_fwd.hpp</text>
</g>
<!-- Node4&#45;&gt;Node40 -->
<g id="edge48" class="edge"><title>Node4&#45;&gt;Node40</title>
<path fill="none" stroke="midnightblue" d="M2467.74,-198.693C2220.81,-197.098 1185.73,-188.441 864,-154 854.762,-153.011 844.973,-151.518 835.584,-149.86"/>
<polygon fill="midnightblue" stroke="midnightblue" points="836.069,-146.39 825.599,-148.012 834.795,-153.273 836.069,-146.39"/>
</g>
<!-- Node41 -->
<g id="node41" class="node"><title>Node41</title>
<polygon fill="white" stroke="#bfbfbf" points="873.5,-123.5 873.5,-153.5 986.5,-153.5 986.5,-123.5 873.5,-123.5"/>
<text text-anchor="start" x="881.5" y="-141.5" font-family="Helvetica,sans-Serif" font-size="10.00">boost/mpl/aux_/config</text>
<text text-anchor="middle" x="930" y="-130.5" font-family="Helvetica,sans-Serif" font-size="10.00">/ctps.hpp</text>
</g>
<!-- Node4&#45;&gt;Node41 -->
<g id="edge49" class="edge"><title>Node4&#45;&gt;Node41</title>
<path fill="none" stroke="midnightblue" d="M2467.67,-198.786C2235.28,-197.649 1309.09,-190.922 996.571,-154.006"/>
<polygon fill="midnightblue" stroke="midnightblue" points="996.959,-150.527 986.609,-152.793 996.113,-157.476 996.959,-150.527"/>
</g>
<!-- Node42 -->
<g id="node42" class="node"><title>Node42</title>
<polygon fill="white" stroke="#bfbfbf" points="1004.5,-123.5 1004.5,-153.5 1117.5,-153.5 1117.5,-123.5 1004.5,-123.5"/>
<text text-anchor="start" x="1012.5" y="-141.5" font-family="Helvetica,sans-Serif" font-size="10.00">boost/mpl/aux_/config</text>
<text text-anchor="middle" x="1061" y="-130.5" font-family="Helvetica,sans-Serif" font-size="10.00">/lambda.hpp</text>
</g>
<!-- Node4&#45;&gt;Node42 -->
<g id="edge50" class="edge"><title>Node4&#45;&gt;Node42</title>
<path fill="none" stroke="midnightblue" d="M2467.84,-198.616C2248.65,-196.831 1413.57,-187.984 1127.95,-154.053"/>
<polygon fill="midnightblue" stroke="midnightblue" points="1127.96,-150.529 1117.61,-152.783 1127.11,-157.476 1127.96,-150.529"/>
</g>
<!-- Node43 -->
<g id="node43" class="node"><title>Node43</title>
<polygon fill="white" stroke="#bfbfbf" points="1135.5,-123.5 1135.5,-153.5 1248.5,-153.5 1248.5,-123.5 1135.5,-123.5"/>
<text text-anchor="start" x="1143.5" y="-141.5" font-family="Helvetica,sans-Serif" font-size="10.00">boost/mpl/aux_/config</text>
<text text-anchor="middle" x="1192" y="-130.5" font-family="Helvetica,sans-Serif" font-size="10.00">/ttp.hpp</text>
</g>
<!-- Node4&#45;&gt;Node43 -->
<g id="edge51" class="edge"><title>Node4&#45;&gt;Node43</title>
<path fill="none" stroke="midnightblue" d="M2467.66,-198.384C2261.72,-195.807 1517.56,-184.632 1258.87,-153.896"/>
<polygon fill="midnightblue" stroke="midnightblue" points="1259.12,-150.4 1248.77,-152.654 1258.27,-157.348 1259.12,-150.4"/>
</g>
<!-- Node44 -->
<g id="node44" class="node"><title>Node44</title>
<polygon fill="white" stroke="#bfbfbf" points="1267,-129 1267,-148 1359,-148 1359,-129 1267,-129"/>
<text text-anchor="middle" x="1313" y="-136" font-family="Helvetica,sans-Serif" font-size="10.00">boost/mpl/int.hpp</text>
</g>
<!-- Node4&#45;&gt;Node44 -->
<g id="edge52" class="edge"><title>Node4&#45;&gt;Node44</title>
<path fill="none" stroke="midnightblue" d="M2467.96,-198.469C2271.36,-196.262 1584.45,-186.357 1368,-154 1362.38,-153.161 1356.52,-151.967 1350.79,-150.62"/>
<polygon fill="midnightblue" stroke="midnightblue" points="1351.29,-147.134 1340.73,-148.074 1349.57,-153.92 1351.29,-147.134"/>
</g>
<!-- Node45 -->
<g id="node45" class="node"><title>Node45</title>
<polygon fill="white" stroke="#bfbfbf" points="1377.5,-129 1377.5,-148 1490.5,-148 1490.5,-129 1377.5,-129"/>
<text text-anchor="middle" x="1434" y="-136" font-family="Helvetica,sans-Serif" font-size="10.00">boost/mpl/int_fwd.hpp</text>
</g>
<!-- Node4&#45;&gt;Node45 -->
<g id="edge53" class="edge"><title>Node4&#45;&gt;Node45</title>
<path fill="none" stroke="midnightblue" d="M2467.93,-197.869C2286.24,-193.808 1690,-178.87 1500,-154 1492.64,-153.037 1484.89,-151.665 1477.39,-150.144"/>
<polygon fill="midnightblue" stroke="midnightblue" points="1477.89,-146.672 1467.38,-148.003 1476.43,-153.517 1477.89,-146.672"/>
</g>
<!-- Node46 -->
<g id="node46" class="node"><title>Node46</title>
<polygon fill="white" stroke="#bfbfbf" points="1509,-123.5 1509,-153.5 1627,-153.5 1627,-123.5 1509,-123.5"/>
<text text-anchor="start" x="1517" y="-141.5" font-family="Helvetica,sans-Serif" font-size="10.00">boost/mpl/aux_/integral</text>
<text text-anchor="middle" x="1568" y="-130.5" font-family="Helvetica,sans-Serif" font-size="10.00">_wrapper.hpp</text>
</g>
<!-- Node4&#45;&gt;Node46 -->
<g id="edge54" class="edge"><title>Node4&#45;&gt;Node46</title>
<path fill="none" stroke="midnightblue" d="M2467.95,-198.96C2330.68,-198.279 1952.78,-192.729 1641,-154 1639.74,-153.843 1638.46,-153.677 1637.18,-153.502"/>
<polygon fill="midnightblue" stroke="midnightblue" points="1637.65,-150.034 1627.25,-152.015 1636.62,-156.957 1637.65,-150.034"/>
</g>
<!-- Node11&#45;&gt;Node2 -->
<g id="edge13" class="edge"><title>Node11&#45;&gt;Node2</title>
<path fill="none" stroke="midnightblue" d="M4819.52,-128.734C4832.15,-118.208 4853.54,-100.379 4868.86,-87.6174"/>
<polygon fill="midnightblue" stroke="midnightblue" points="4871.21,-90.218 4876.65,-81.1273 4866.72,-84.8404 4871.21,-90.218"/>
</g>
<!-- Node11&#45;&gt;Node3 -->
<g id="edge17" class="edge"><title>Node11&#45;&gt;Node3</title>
<path fill="none" stroke="midnightblue" d="M4809,-128.805C4809,-108.494 4809,-57.5532 4809,-29.7768"/>
<polygon fill="midnightblue" stroke="midnightblue" points="4812.5,-29.7557 4809,-19.7557 4805.5,-29.7557 4812.5,-29.7557"/>
</g>
<!-- Node11&#45;&gt;Node9 -->
<g id="edge18" class="edge"><title>Node11&#45;&gt;Node9</title>
<path fill="none" stroke="midnightblue" d="M4758.39,-131.024C4732.84,-128.029 4701.32,-124.753 4673,-123 3756.84,-66.2868 3525.73,-105.662 2608,-87 2382.93,-82.4232 2112.23,-75.7258 2018.17,-73.3636"/>
<polygon fill="midnightblue" stroke="midnightblue" points="2018.18,-69.8628 2008.09,-73.1101 2018,-76.8606 2018.18,-69.8628"/>
</g>
<!-- Node11&#45;&gt;Node12 -->
<g id="edge14" class="edge"><title>Node11&#45;&gt;Node12</title>
<path fill="none" stroke="midnightblue" d="M4798.35,-128.734C4785.55,-118.208 4763.88,-100.379 4748.37,-87.6174"/>
<polygon fill="midnightblue" stroke="midnightblue" points="4750.43,-84.7782 4740.49,-81.1273 4745.98,-90.1837 4750.43,-84.7782"/>
</g>
<!-- Node11&#45;&gt;Node13 -->
<g id="edge15" class="edge"><title>Node11&#45;&gt;Node13</title>
<path fill="none" stroke="midnightblue" d="M4758.39,-131.103C4732.83,-128.128 4701.32,-124.846 4673,-123 4006.67,-79.5671 3838.52,-104.583 3171,-87 3009.58,-82.7482 2819.16,-77.1129 2724.93,-74.2828"/>
<polygon fill="midnightblue" stroke="midnightblue" points="2724.85,-70.7787 2714.75,-73.9765 2724.64,-77.7756 2724.85,-70.7787"/>
</g>
<!-- Node11&#45;&gt;Node14 -->
<g id="edge16" class="edge"><title>Node11&#45;&gt;Node14</title>
<path fill="none" stroke="midnightblue" d="M4758.38,-131.242C4732.82,-128.301 4701.3,-125.009 4673,-123 4162.3,-86.7591 3546.57,-76.1046 3330,-73.3567"/>
<polygon fill="midnightblue" stroke="midnightblue" points="3329.73,-69.8531 3319.69,-73.228 3329.64,-76.8526 3329.73,-69.8531"/>
</g>
<!-- Node11&#45;&gt;Node15 -->
<g id="edge19" class="edge"><title>Node11&#45;&gt;Node15</title>
<path fill="none" stroke="midnightblue" d="M4758.32,-131.897C4732.75,-129.12 4701.24,-125.776 4673,-123 4502.59,-106.247 4302.84,-88.7856 4193.61,-79.4228"/>
<polygon fill="midnightblue" stroke="midnightblue" points="4193.59,-75.9082 4183.32,-78.5423 4192.99,-82.8827 4193.59,-75.9082"/>
</g>
<!-- Node11&#45;&gt;Node16 -->
<g id="edge20" class="edge"><title>Node11&#45;&gt;Node16</title>
<path fill="none" stroke="midnightblue" d="M4859.6,-128.983C4913.34,-119.786 5001.01,-104.353 5086.06,-87.1451"/>
<polygon fill="midnightblue" stroke="midnightblue" points="5086.77,-90.5709 5095.87,-85.1479 5085.38,-83.7113 5086.77,-90.5709"/>
</g>
<!-- Node11&#45;&gt;Node17 -->
<g id="edge21" class="edge"><title>Node11&#45;&gt;Node17</title>
<path fill="none" stroke="midnightblue" d="M4836.49,-128.869C4873.17,-117.351 4938.23,-96.9219 4979.13,-84.077"/>
<polygon fill="midnightblue" stroke="midnightblue" points="4980.24,-87.3989 4988.73,-81.0637 4978.14,-80.7204 4980.24,-87.3989"/>
</g>
<!-- Node48&#45;&gt;Node2 -->
<g id="edge58" class="edge"><title>Node48&#45;&gt;Node2</title>
<path fill="none" stroke="midnightblue" d="M5176.51,-190.416C5153.95,-181.392 5117.46,-166.761 5086,-154 5026.17,-129.729 4956.36,-101.055 4917.35,-85.0048"/>
<polygon fill="midnightblue" stroke="midnightblue" points="4918.48,-81.6817 4907.9,-81.1115 4915.81,-88.1547 4918.48,-81.6817"/>
</g>
<!-- Node48&#45;&gt;Node11 -->
<g id="edge59" class="edge"><title>Node48&#45;&gt;Node11</title>
<path fill="none" stroke="midnightblue" d="M5149.49,-191.322C5146.62,-190.873 5143.77,-190.43 5141,-190 5046.19,-175.305 4936.1,-158.636 4869.53,-148.603"/>
<polygon fill="midnightblue" stroke="midnightblue" points="4870.05,-145.14 4859.64,-147.111 4869,-152.062 4870.05,-145.14"/>
</g>
<!-- Node48&#45;&gt;Node16 -->
<g id="edge60" class="edge"><title>Node48&#45;&gt;Node16</title>
<path fill="none" stroke="midnightblue" d="M5189.82,-190.46C5182.15,-181.929 5170.98,-168.09 5165,-154 5157.22,-135.679 5153.76,-113.301 5152.23,-96.6316"/>
<polygon fill="midnightblue" stroke="midnightblue" points="5155.71,-96.3096 5151.47,-86.6023 5148.73,-96.8379 5155.71,-96.3096"/>
</g>
<!-- Node48&#45;&gt;Node17 -->
<g id="edge61" class="edge"><title>Node48&#45;&gt;Node17</title>
<path fill="none" stroke="midnightblue" d="M5185.49,-190.305C5154.71,-168.911 5075.03,-113.532 5036.92,-87.0384"/>
<polygon fill="midnightblue" stroke="midnightblue" points="5038.81,-84.0891 5028.6,-81.2557 5034.81,-89.8371 5038.81,-84.0891"/>
</g>
<!-- Node48&#45;&gt;Node49 -->
<g id="edge62" class="edge"><title>Node48&#45;&gt;Node49</title>
<path fill="none" stroke="midnightblue" d="M5202.87,-190.475C5207.87,-181.727 5215.79,-167.869 5222.11,-156.809"/>
<polygon fill="midnightblue" stroke="midnightblue" points="5225.22,-158.428 5227.14,-148.009 5219.14,-154.955 5225.22,-158.428"/>
</g>
<!-- Node50&#45;&gt;Node2 -->
<g id="edge67" class="edge"><title>Node50&#45;&gt;Node2</title>
<path fill="none" stroke="midnightblue" d="M4882.89,-190.319C4889.27,-181.684 4898.31,-167.77 4902,-154 4907.75,-132.57 4901.13,-107.382 4894.95,-90.742"/>
<polygon fill="midnightblue" stroke="midnightblue" points="4898.08,-89.1344 4891.1,-81.1664 4891.59,-91.7499 4898.08,-89.1344"/>
</g>
<!-- Node50&#45;&gt;Node11 -->
<g id="edge68" class="edge"><title>Node50&#45;&gt;Node11</title>
<path fill="none" stroke="midnightblue" d="M4866.4,-190.475C4855.95,-181.197 4839.03,-166.171 4826.26,-154.831"/>
<polygon fill="midnightblue" stroke="midnightblue" points="4828.38,-152.032 4818.58,-148.009 4823.73,-157.266 4828.38,-152.032"/>
</g>
</g>
</svg>
