<?xml version="1.0" encoding="UTF-8" standalone="no"?>
<!DOCTYPE svg PUBLIC "-//W3C//DTD SVG 1.1//EN"
 "http://www.w3.org/Graphics/SVG/1.1/DTD/svg11.dtd">
<!-- Generated by graphviz version 2.43.0 (0)
 -->
<!-- Title: boost/ui/frame.hpp Pages: 1 -->
<svg width="5762pt" height="274pt"
 viewBox="0.00 0.00 5761.90 274.00" xmlns="http://www.w3.org/2000/svg" xmlns:xlink="http://www.w3.org/1999/xlink">
<g id="graph0" class="graph" transform="scale(1 1) rotate(0) translate(4 270)">
<title>boost/ui/frame.hpp</title>
<polygon fill="white" stroke="transparent" points="-4,4 -4,-270 5757.9,-270 5757.9,4 -4,4"/>
<!-- Node1 -->
<g id="node1" class="node">
<title>Node1</title>
<g id="a_node1"><a xlink:title="Frame widget.">
<polygon fill="#bfbfbf" stroke="black" points="5360.5,-246.5 5360.5,-265.5 5469.5,-265.5 5469.5,-246.5 5360.5,-246.5"/>
<text text-anchor="middle" x="5415" y="-253.5" font-family="Helvetica,sans-Serif" font-size="10.00">boost/ui/frame.hpp</text>
</a>
</g>
</g>
<!-- Node2 -->
<g id="node2" class="node">
<title>Node2</title>
<g id="a_node2"><a xlink:href="config_8hpp.html" target="_top" xlink:title="Configuration options.">
<polygon fill="white" stroke="black" points="5245.5,-62 5245.5,-81 5354.5,-81 5354.5,-62 5245.5,-62"/>
<text text-anchor="middle" x="5300" y="-69" font-family="Helvetica,sans-Serif" font-size="10.00">boost/ui/config.hpp</text>
</a>
</g>
</g>
<!-- Node1&#45;&gt;Node2 -->
<g id="edge1" class="edge">
<title>Node1&#45;&gt;Node2</title>
<path fill="none" stroke="midnightblue" d="M5409.45,-246.2C5391.5,-217.71 5334.77,-127.68 5310.83,-89.68"/>
<polygon fill="midnightblue" stroke="midnightblue" points="5313.78,-87.81 5305.49,-81.21 5307.86,-91.54 5313.78,-87.81"/>
</g>
<!-- Node4 -->
<g id="node4" class="node">
<title>Node4</title>
<g id="a_node4"><a xlink:href="window_8hpp.html" target="_top" xlink:title="Window class.">
<polygon fill="white" stroke="red" points="2675,-190.5 2675,-209.5 2791,-209.5 2791,-190.5 2675,-190.5"/>
<text text-anchor="middle" x="2733" y="-197.5" font-family="Helvetica,sans-Serif" font-size="10.00">boost/ui/window.hpp</text>
</a>
</g>
</g>
<!-- Node1&#45;&gt;Node4 -->
<g id="edge3" class="edge">
<title>Node1&#45;&gt;Node4</title>
<path fill="none" stroke="midnightblue" d="M5360.21,-253.9C5018.35,-247.01 3180.31,-210.01 2801.36,-202.38"/>
<polygon fill="midnightblue" stroke="midnightblue" points="2801.17,-198.87 2791.1,-202.17 2801.03,-205.87 2801.17,-198.87"/>
</g>
<!-- Node252 -->
<g id="node12" class="node">
<title>Node252</title>
<g id="a_node12"><a xlink:title=" ">
<polygon fill="white" stroke="#bfbfbf" points="5076.5,-62 5076.5,-81 5185.5,-81 5185.5,-62 5076.5,-62"/>
<text text-anchor="middle" x="5131" y="-69" font-family="Helvetica,sans-Serif" font-size="10.00">boost/ui/config.hpp</text>
</a>
</g>
</g>
<!-- Node1&#45;&gt;Node252 -->
<g id="edge55" class="edge">
<title>Node1&#45;&gt;Node252</title>
<path fill="none" stroke="midnightblue" d="M5360.45,-251.07C5317.48,-246.14 5257.16,-235.01 5210,-210 5178.06,-193.06 5169.15,-185.27 5151,-154 5139.6,-134.36 5134.67,-108.43 5132.55,-91.14"/>
<polygon fill="midnightblue" stroke="midnightblue" points="5136.03,-90.78 5131.53,-81.18 5129.07,-91.49 5136.03,-90.78"/>
</g>
<!-- Node339 -->
<g id="node16" class="node">
<title>Node339</title>
<g id="a_node16"><a xlink:title=" ">
<polygon fill="white" stroke="#bfbfbf" points="5529,-56.5 5529,-86.5 5651,-86.5 5651,-56.5 5529,-56.5"/>
<text text-anchor="start" x="5537" y="-74.5" font-family="Helvetica,sans-Serif" font-size="10.00">boost/ui/detail/shared</text>
<text text-anchor="middle" x="5590" y="-63.5" font-family="Helvetica,sans-Serif" font-size="10.00">_count.hpp</text>
</a>
</g>
</g>
<!-- Node1&#45;&gt;Node339 -->
<g id="edge63" class="edge">
<title>Node1&#45;&gt;Node339</title>
<path fill="none" stroke="midnightblue" d="M5469.74,-251.59C5543.2,-246.17 5668.96,-233.7 5708,-210 5734.37,-193.99 5739.41,-183.32 5749,-154 5753.28,-140.9 5757.14,-134.12 5749,-123 5728.77,-95.36 5693.3,-82.48 5660.99,-76.62"/>
<polygon fill="midnightblue" stroke="midnightblue" points="5661.51,-73.16 5651.08,-75.02 5660.39,-80.07 5661.51,-73.16"/>
</g>
<!-- Node340 -->
<g id="node17" class="node">
<title>Node340</title>
<g id="a_node17"><a xlink:title=" ">
<polygon fill="white" stroke="#bfbfbf" points="5373,-62 5373,-81 5511,-81 5511,-62 5373,-62"/>
<text text-anchor="middle" x="5442" y="-69" font-family="Helvetica,sans-Serif" font-size="10.00">boost/ui/detail/event.hpp</text>
</a>
</g>
</g>
<!-- Node1&#45;&gt;Node340 -->
<g id="edge64" class="edge">
<title>Node1&#45;&gt;Node340</title>
<path fill="none" stroke="midnightblue" d="M5416.3,-246.2C5420.46,-218.07 5433.5,-129.96 5439.24,-91.16"/>
<polygon fill="midnightblue" stroke="midnightblue" points="5442.71,-91.62 5440.71,-81.21 5435.78,-90.59 5442.71,-91.62"/>
</g>
<!-- Node433 -->
<g id="node47" class="node">
<title>Node433</title>
<g id="a_node47"><a xlink:title=" ">
<polygon fill="white" stroke="#bfbfbf" points="5443.5,-190.5 5443.5,-209.5 5556.5,-209.5 5556.5,-190.5 5443.5,-190.5"/>
<text text-anchor="middle" x="5500" y="-197.5" font-family="Helvetica,sans-Serif" font-size="10.00">boost/ui/widget.hpp</text>
</a>
</g>
</g>
<!-- Node1&#45;&gt;Node433 -->
<g id="edge56" class="edge">
<title>Node1&#45;&gt;Node433</title>
<path fill="none" stroke="midnightblue" d="M5428.66,-246.32C5441.92,-237.9 5462.27,-224.97 5477.85,-215.07"/>
<polygon fill="midnightblue" stroke="midnightblue" points="5479.81,-217.97 5486.38,-209.65 5476.06,-212.06 5479.81,-217.97"/>
</g>
<!-- Node434 -->
<g id="node48" class="node">
<title>Node434</title>
<g id="a_node48"><a xlink:href="menu_8hpp.html" target="_top" xlink:title="Menu classes.">
<polygon fill="white" stroke="black" points="5574.5,-190.5 5574.5,-209.5 5681.5,-209.5 5681.5,-190.5 5574.5,-190.5"/>
<text text-anchor="middle" x="5628" y="-197.5" font-family="Helvetica,sans-Serif" font-size="10.00">boost/ui/menu.hpp</text>
</a>
</g>
</g>
<!-- Node1&#45;&gt;Node434 -->
<g id="edge57" class="edge">
<title>Node1&#45;&gt;Node434</title>
<path fill="none" stroke="midnightblue" d="M5448.75,-246.44C5485.52,-237.12 5544.45,-222.18 5584.62,-212"/>
<polygon fill="midnightblue" stroke="midnightblue" points="5585.57,-215.37 5594.41,-209.52 5583.85,-208.58 5585.57,-215.37"/>
</g>
<!-- Node435 -->
<g id="node49" class="node">
<title>Node435</title>
<g id="a_node49"><a xlink:title=" ">
<polygon fill="white" stroke="#bfbfbf" points="5610,-129 5610,-148 5740,-148 5740,-129 5610,-129"/>
<text text-anchor="middle" x="5675" y="-136" font-family="Helvetica,sans-Serif" font-size="10.00">boost/noncopyable.hpp</text>
</a>
</g>
</g>
<!-- Node1&#45;&gt;Node435 -->
<g id="edge65" class="edge">
<title>Node1&#45;&gt;Node435</title>
<path fill="none" stroke="midnightblue" d="M5469.68,-254.14C5541.88,-251.72 5663.17,-242.74 5691,-210 5703.52,-195.27 5695.18,-172.74 5686.55,-157.13"/>
<polygon fill="midnightblue" stroke="midnightblue" points="5689.48,-155.21 5681.33,-148.44 5683.48,-158.82 5689.48,-155.21"/>
</g>
<!-- Node436 -->
<g id="node50" class="node">
<title>Node436</title>
<g id="a_node50"><a xlink:href="status__bar_8hpp.html" target="_top" xlink:title="Status bar class.">
<polygon fill="white" stroke="black" points="5219,-190.5 5219,-209.5 5349,-209.5 5349,-190.5 5219,-190.5"/>
<text text-anchor="middle" x="5284" y="-197.5" font-family="Helvetica,sans-Serif" font-size="10.00">boost/ui/status_bar.hpp</text>
</a>
</g>
</g>
<!-- Node1&#45;&gt;Node436 -->
<g id="edge66" class="edge">
<title>Node1&#45;&gt;Node436</title>
<path fill="none" stroke="midnightblue" d="M5394.24,-246.44C5372.68,-237.56 5338.74,-223.56 5314.21,-213.45"/>
<polygon fill="midnightblue" stroke="midnightblue" points="5315.24,-210.09 5304.66,-209.52 5312.57,-216.56 5315.24,-210.09"/>
</g>
<!-- Node3 -->
<g id="node3" class="node">
<title>Node3</title>
<g id="a_node3"><a xlink:title=" ">
<polygon fill="white" stroke="#bfbfbf" points="5167.5,-0.5 5167.5,-19.5 5264.5,-19.5 5264.5,-0.5 5167.5,-0.5"/>
<text text-anchor="middle" x="5216" y="-7.5" font-family="Helvetica,sans-Serif" font-size="10.00">boost/config.hpp</text>
</a>
</g>
</g>
<!-- Node2&#45;&gt;Node3 -->
<g id="edge2" class="edge">
<title>Node2&#45;&gt;Node3</title>
<path fill="none" stroke="midnightblue" d="M5287.96,-61.98C5274.49,-52.43 5252.43,-36.81 5236.28,-25.37"/>
<polygon fill="midnightblue" stroke="midnightblue" points="5238.2,-22.43 5228.01,-19.51 5234.15,-28.15 5238.2,-22.43"/>
</g>
<!-- Node4&#45;&gt;Node2 -->
<g id="edge4" class="edge">
<title>Node4&#45;&gt;Node2</title>
<path fill="none" stroke="midnightblue" d="M2791.02,-198.96C3165.92,-198.6 5232.16,-194.76 5282,-154 5300.2,-139.12 5302.56,-110.36 5301.85,-91.3"/>
<polygon fill="midnightblue" stroke="midnightblue" points="5305.33,-90.87 5301.15,-81.13 5298.34,-91.35 5305.33,-90.87"/>
</g>
<!-- Node4&#45;&gt;Node3 -->
<g id="edge5" class="edge">
<title>Node4&#45;&gt;Node3</title>
<path fill="none" stroke="midnightblue" d="M2680.72,-190.48C2659.41,-184.15 2636.81,-173.14 2624,-154 2616.34,-142.55 2614.71,-133.18 2624,-123 2712.25,-26.26 4779.45,-12.85 5157.07,-11.21"/>
<polygon fill="midnightblue" stroke="midnightblue" points="5157.24,-14.71 5167.23,-11.17 5157.21,-7.71 5157.24,-14.71"/>
</g>
<!-- Node5 -->
<g id="node5" class="node">
<title>Node5</title>
<g id="a_node5"><a xlink:title=" ">
<polygon fill="white" stroke="#bfbfbf" points="1830,-129 1830,-148 1950,-148 1950,-129 1830,-129"/>
<text text-anchor="middle" x="1890" y="-136" font-family="Helvetica,sans-Serif" font-size="10.00">boost/config/user.hpp</text>
</a>
</g>
</g>
<!-- Node4&#45;&gt;Node5 -->
<g id="edge6" class="edge">
<title>Node4&#45;&gt;Node5</title>
<path fill="none" stroke="midnightblue" d="M2674.95,-198.57C2545.74,-196.98 2224.84,-189.46 1959,-154 1951.41,-152.99 1943.4,-151.6 1935.64,-150.09"/>
<polygon fill="midnightblue" stroke="midnightblue" points="1936.14,-146.62 1925.64,-148.05 1934.73,-153.48 1936.14,-146.62"/>
</g>
<!-- Node6 -->
<g id="node6" class="node">
<title>Node6</title>
<g id="a_node6"><a xlink:title=" ">
<polygon fill="white" stroke="#bfbfbf" points="1968,-123.5 1968,-153.5 2120,-153.5 2120,-123.5 1968,-123.5"/>
<text text-anchor="start" x="1976" y="-141.5" font-family="Helvetica,sans-Serif" font-size="10.00">boost/config/detail</text>
<text text-anchor="middle" x="2044" y="-130.5" font-family="Helvetica,sans-Serif" font-size="10.00">/select_compiler_config.hpp</text>
</a>
</g>
</g>
<!-- Node4&#45;&gt;Node6 -->
<g id="edge7" class="edge">
<title>Node4&#45;&gt;Node6</title>
<path fill="none" stroke="midnightblue" d="M2674.94,-196.5C2568.82,-191.54 2336.27,-178.83 2130.49,-154.11"/>
<polygon fill="midnightblue" stroke="midnightblue" points="2130.75,-150.61 2120.41,-152.88 2129.91,-157.56 2130.75,-150.61"/>
</g>
<!-- Node7 -->
<g id="node7" class="node">
<title>Node7</title>
<g id="a_node7"><a xlink:title=" ">
<polygon fill="white" stroke="#bfbfbf" points="2138,-123.5 2138,-153.5 2290,-153.5 2290,-123.5 2138,-123.5"/>
<text text-anchor="start" x="2146" y="-141.5" font-family="Helvetica,sans-Serif" font-size="10.00">boost/config/detail</text>
<text text-anchor="middle" x="2214" y="-130.5" font-family="Helvetica,sans-Serif" font-size="10.00">/select_platform_config.hpp</text>
</a>
</g>
</g>
<!-- Node4&#45;&gt;Node7 -->
<g id="edge8" class="edge">
<title>Node4&#45;&gt;Node7</title>
<path fill="none" stroke="midnightblue" d="M2674.94,-194.2C2593.51,-187.2 2440.54,-173.06 2300.48,-154.15"/>
<polygon fill="midnightblue" stroke="midnightblue" points="2300.8,-150.66 2290.42,-152.78 2299.86,-157.6 2300.8,-150.66"/>
</g>
<!-- Node8 -->
<g id="node8" class="node">
<title>Node8</title>
<g id="a_node8"><a xlink:title=" ">
<polygon fill="white" stroke="#bfbfbf" points="2308.5,-123.5 2308.5,-153.5 2415.5,-153.5 2415.5,-123.5 2308.5,-123.5"/>
<text text-anchor="start" x="2316.5" y="-141.5" font-family="Helvetica,sans-Serif" font-size="10.00">boost/config/detail</text>
<text text-anchor="middle" x="2362" y="-130.5" font-family="Helvetica,sans-Serif" font-size="10.00">/suffix.hpp</text>
</a>
</g>
</g>
<!-- Node4&#45;&gt;Node8 -->
<g id="edge9" class="edge">
<title>Node4&#45;&gt;Node8</title>
<path fill="none" stroke="midnightblue" d="M2674.87,-191.94C2614.89,-184.33 2518.44,-171.2 2425.42,-153.98"/>
<polygon fill="midnightblue" stroke="midnightblue" points="2426.03,-150.53 2415.55,-152.14 2424.74,-157.41 2426.03,-150.53"/>
</g>
<!-- Node9 -->
<g id="node9" class="node">
<title>Node9</title>
<g id="a_node9"><a xlink:title=" ">
<polygon fill="white" stroke="#bfbfbf" points="2133.5,-62 2133.5,-81 2186.5,-81 2186.5,-62 2133.5,-62"/>
<text text-anchor="middle" x="2160" y="-69" font-family="Helvetica,sans-Serif" font-size="10.00">limits.h</text>
</a>
</g>
</g>
<!-- Node4&#45;&gt;Node9 -->
<g id="edge10" class="edge">
<title>Node4&#45;&gt;Node9</title>
<path fill="none" stroke="midnightblue" d="M2674.98,-198.31C2478.76,-195.71 1850.49,-184.98 1821,-154 1811.5,-144.02 1812,-133.44 1821,-123 1859.72,-78.09 2043.62,-72.5 2123.18,-72.23"/>
<polygon fill="midnightblue" stroke="midnightblue" points="2123.24,-75.73 2133.24,-72.22 2123.24,-68.73 2123.24,-75.73"/>
</g>
<!-- Node10 -->
<g id="node10" class="node">
<title>Node10</title>
<g id="a_node10"><a xlink:title=" ">
<polygon fill="white" stroke="#bfbfbf" points="2434,-123.5 2434,-153.5 2544,-153.5 2544,-123.5 2434,-123.5"/>
<text text-anchor="start" x="2442" y="-141.5" font-family="Helvetica,sans-Serif" font-size="10.00">boost/config/helper</text>
<text text-anchor="middle" x="2489" y="-130.5" font-family="Helvetica,sans-Serif" font-size="10.00">_macros.hpp</text>
</a>
</g>
</g>
<!-- Node4&#45;&gt;Node10 -->
<g id="edge11" class="edge">
<title>Node4&#45;&gt;Node10</title>
<path fill="none" stroke="midnightblue" d="M2698.04,-190.48C2660.6,-181.34 2600.33,-166.65 2554.1,-155.38"/>
<polygon fill="midnightblue" stroke="midnightblue" points="2554.71,-151.92 2544.17,-152.95 2553.06,-158.72 2554.71,-151.92"/>
</g>
<!-- Node11 -->
<g id="node11" class="node">
<title>Node11</title>
<g id="a_node11"><a xlink:href="widget_8hpp.html" target="_top" xlink:title="Widget class.">
<polygon fill="white" stroke="red" points="5159.5,-129 5159.5,-148 5272.5,-148 5272.5,-129 5159.5,-129"/>
<text text-anchor="middle" x="5216" y="-136" font-family="Helvetica,sans-Serif" font-size="10.00">boost/ui/widget.hpp</text>
</a>
</g>
</g>
<!-- Node4&#45;&gt;Node11 -->
<g id="edge12" class="edge">
<title>Node4&#45;&gt;Node11</title>
<path fill="none" stroke="midnightblue" d="M2791.21,-198.79C3108.91,-197.52 4636.48,-189.64 5107,-154 5121.38,-152.91 5136.77,-151.2 5151.32,-149.33"/>
<polygon fill="midnightblue" stroke="midnightblue" points="5151.78,-152.8 5161.23,-148.02 5150.86,-145.86 5151.78,-152.8"/>
</g>
<!-- Node4&#45;&gt;Node252 -->
<g id="edge22" class="edge">
<title>Node4&#45;&gt;Node252</title>
<path fill="none" stroke="midnightblue" d="M2791.22,-198.61C3147.68,-196.11 5022.07,-181.69 5074,-154 5099.31,-140.5 5115.78,-110.2 5124.22,-90.59"/>
<polygon fill="midnightblue" stroke="midnightblue" points="5127.51,-91.79 5128,-81.21 5121.01,-89.18 5127.51,-91.79"/>
</g>
<!-- Node255 -->
<g id="node13" class="node">
<title>Node255</title>
<g id="a_node13"><a xlink:title=" ">
<polygon fill="white" stroke="#bfbfbf" points="3360.5,-62 3360.5,-81 3467.5,-81 3467.5,-62 3360.5,-62"/>
<text text-anchor="middle" x="3414" y="-69" font-family="Helvetica,sans-Serif" font-size="10.00">boost/ui/coord.hpp</text>
</a>
</g>
</g>
<!-- Node4&#45;&gt;Node255 -->
<g id="edge23" class="edge">
<title>Node4&#45;&gt;Node255</title>
<path fill="none" stroke="midnightblue" d="M2688.99,-190.44C2668.6,-184.03 2646.21,-172.97 2634,-154 2626.54,-142.42 2624.58,-133.05 2634,-123 2658.37,-97.01 3167.86,-79.67 3349.98,-74.28"/>
<polygon fill="midnightblue" stroke="midnightblue" points="3350.32,-77.78 3360.21,-73.98 3350.11,-70.78 3350.32,-77.78"/>
</g>
<!-- Node264 -->
<g id="node14" class="node">
<title>Node264</title>
<g id="a_node14"><a xlink:title=" ">
<polygon fill="white" stroke="#bfbfbf" points="3969.5,-62 3969.5,-81 4126.5,-81 4126.5,-62 3969.5,-62"/>
<text text-anchor="middle" x="4048" y="-69" font-family="Helvetica,sans-Serif" font-size="10.00">boost/config/workaround.hpp</text>
</a>
</g>
</g>
<!-- Node4&#45;&gt;Node264 -->
<g id="edge38" class="edge">
<title>Node4&#45;&gt;Node264</title>
<path fill="none" stroke="midnightblue" d="M2710.54,-190.38C2695.23,-183.18 2676.14,-171.29 2667,-154 2660.56,-141.82 2657.44,-132.92 2667,-123 2678.25,-111.33 3655.2,-83.36 3958.93,-74.94"/>
<polygon fill="midnightblue" stroke="midnightblue" points="3959.12,-78.44 3969.02,-74.66 3958.92,-71.44 3959.12,-78.44"/>
</g>
<!-- Node56 -->
<g id="node15" class="node">
<title>Node56</title>
<g id="a_node15"><a xlink:title=" ">
<polygon fill="white" stroke="#bfbfbf" points="4386.5,-62 4386.5,-81 4541.5,-81 4541.5,-62 4386.5,-62"/>
<text text-anchor="middle" x="4464" y="-69" font-family="Helvetica,sans-Serif" font-size="10.00">boost/detail/workaround.hpp</text>
</a>
</g>
</g>
<!-- Node4&#45;&gt;Node56 -->
<g id="edge37" class="edge">
<title>Node4&#45;&gt;Node56</title>
<path fill="none" stroke="midnightblue" d="M2791.29,-198.97C3016.33,-198.57 3821.23,-194.31 3928,-154 3948.39,-146.3 3945.86,-131.34 3966,-123 4038.04,-93.16 4253.8,-80.34 4376.38,-75.34"/>
<polygon fill="midnightblue" stroke="midnightblue" points="4376.64,-78.83 4386.49,-74.94 4376.36,-71.84 4376.64,-78.83"/>
</g>
<!-- Node13 -->
<g id="node18" class="node">
<title>Node13</title>
<g id="a_node18"><a xlink:title=" ">
<polygon fill="white" stroke="#bfbfbf" points="2676.5,-129 2676.5,-148 2789.5,-148 2789.5,-129 2676.5,-129"/>
<text text-anchor="middle" x="2733" y="-136" font-family="Helvetica,sans-Serif" font-size="10.00">boost/geometry.hpp</text>
</a>
</g>
</g>
<!-- Node4&#45;&gt;Node13 -->
<g id="edge24" class="edge">
<title>Node4&#45;&gt;Node13</title>
<path fill="none" stroke="midnightblue" d="M2733,-190.48C2733,-182.08 2733,-168.98 2733,-158.16"/>
<polygon fill="midnightblue" stroke="midnightblue" points="2736.5,-158.01 2733,-148.01 2729.5,-158.01 2736.5,-158.01"/>
</g>
<!-- Node349 -->
<g id="node19" class="node">
<title>Node349</title>
<g id="a_node19"><a xlink:title=" ">
<polygon fill="white" stroke="#bfbfbf" points="2808,-129 2808,-148 2972,-148 2972,-129 2808,-129"/>
<text text-anchor="middle" x="2890" y="-136" font-family="Helvetica,sans-Serif" font-size="10.00">boost/geometry/geometry.hpp</text>
</a>
</g>
</g>
<!-- Node4&#45;&gt;Node349 -->
<g id="edge25" class="edge">
<title>Node4&#45;&gt;Node349</title>
<path fill="none" stroke="midnightblue" d="M2755.49,-190.48C2782.31,-180.31 2827.32,-163.26 2857.81,-151.7"/>
<polygon fill="midnightblue" stroke="midnightblue" points="2859.44,-154.83 2867.55,-148.01 2856.96,-148.28 2859.44,-154.83"/>
</g>
<!-- Node159 -->
<g id="node20" class="node">
<title>Node159</title>
<g id="a_node20"><a xlink:title=" ">
<polygon fill="white" stroke="#bfbfbf" points="2990,-123.5 2990,-153.5 3108,-153.5 3108,-123.5 2990,-123.5"/>
<text text-anchor="start" x="2998" y="-141.5" font-family="Helvetica,sans-Serif" font-size="10.00">boost/geometry/core</text>
<text text-anchor="middle" x="3049" y="-130.5" font-family="Helvetica,sans-Serif" font-size="10.00">/closure.hpp</text>
</a>
</g>
</g>
<!-- Node4&#45;&gt;Node159 -->
<g id="edge26" class="edge">
<title>Node4&#45;&gt;Node159</title>
<path fill="none" stroke="midnightblue" d="M2782.49,-190.48C2830.45,-182.12 2905.52,-168.76 2979.7,-154.22"/>
<polygon fill="midnightblue" stroke="midnightblue" points="2980.55,-157.63 2989.68,-152.26 2979.2,-150.76 2980.55,-157.63"/>
</g>
<!-- Node19 -->
<g id="node21" class="node">
<title>Node19</title>
<g id="a_node21"><a xlink:title=" ">
<polygon fill="white" stroke="#bfbfbf" points="3126.5,-129 3126.5,-148 3245.5,-148 3245.5,-129 3126.5,-129"/>
<text text-anchor="middle" x="3186" y="-136" font-family="Helvetica,sans-Serif" font-size="10.00">boost/mpl/assert.hpp</text>
</a>
</g>
</g>
<!-- Node4&#45;&gt;Node19 -->
<g id="edge27" class="edge">
<title>Node4&#45;&gt;Node19</title>
<path fill="none" stroke="midnightblue" d="M2791.13,-193.84C2866.54,-186.77 3002.06,-172.77 3117,-154 3123.9,-152.87 3131.15,-151.53 3138.26,-150.12"/>
<polygon fill="midnightblue" stroke="midnightblue" points="3139.42,-153.45 3148.51,-148.02 3138.02,-146.59 3139.42,-153.45"/>
</g>
<!-- Node350 -->
<g id="node22" class="node">
<title>Node350</title>
<g id="a_node22"><a xlink:title=" ">
<polygon fill="white" stroke="#bfbfbf" points="3263.5,-129 3263.5,-148 3368.5,-148 3368.5,-129 3263.5,-129"/>
<text text-anchor="middle" x="3316" y="-136" font-family="Helvetica,sans-Serif" font-size="10.00">boost/mpl/not.hpp</text>
</a>
</g>
</g>
<!-- Node4&#45;&gt;Node350 -->
<g id="edge28" class="edge">
<title>Node4&#45;&gt;Node350</title>
<path fill="none" stroke="midnightblue" d="M2791.28,-196.78C2888.09,-192.47 3087.96,-180.9 3255,-154 3261.21,-153 3267.72,-151.71 3274.08,-150.32"/>
<polygon fill="midnightblue" stroke="midnightblue" points="3274.92,-153.72 3283.89,-148.07 3273.36,-146.9 3274.92,-153.72"/>
</g>
<!-- Node197 -->
<g id="node23" class="node">
<title>Node197</title>
<g id="a_node23"><a xlink:title=" ">
<polygon fill="white" stroke="#bfbfbf" points="3387,-129 3387,-148 3497,-148 3497,-129 3387,-129"/>
<text text-anchor="middle" x="3442" y="-136" font-family="Helvetica,sans-Serif" font-size="10.00">boost/mpl/bool.hpp</text>
</a>
</g>
</g>
<!-- Node4&#45;&gt;Node197 -->
<g id="edge29" class="edge">
<title>Node4&#45;&gt;Node197</title>
<path fill="none" stroke="midnightblue" d="M2791.14,-197.92C2904.57,-195.16 3163.11,-185.65 3378,-154 3384.74,-153.01 3391.82,-151.69 3398.72,-150.25"/>
<polygon fill="midnightblue" stroke="midnightblue" points="3399.62,-153.63 3408.63,-148.07 3398.12,-146.8 3399.62,-153.63"/>
</g>
<!-- Node351 -->
<g id="node24" class="node">
<title>Node351</title>
<g id="a_node24"><a xlink:title=" ">
<polygon fill="white" stroke="#bfbfbf" points="3515.5,-129 3515.5,-148 3648.5,-148 3648.5,-129 3515.5,-129"/>
<text text-anchor="middle" x="3582" y="-136" font-family="Helvetica,sans-Serif" font-size="10.00">boost/mpl/bool_fwd.hpp</text>
</a>
</g>
</g>
<!-- Node4&#45;&gt;Node351 -->
<g id="edge30" class="edge">
<title>Node4&#45;&gt;Node351</title>
<path fill="none" stroke="midnightblue" d="M2791.42,-198.2C2920.68,-195.85 3240.52,-186.91 3506,-154 3514.72,-152.92 3523.94,-151.44 3532.84,-149.85"/>
<polygon fill="midnightblue" stroke="midnightblue" points="3533.52,-153.28 3542.71,-148.01 3532.24,-146.4 3533.52,-153.28"/>
</g>
<!-- Node352 -->
<g id="node25" class="node">
<title>Node352</title>
<g id="a_node25"><a xlink:title=" ">
<polygon fill="white" stroke="#bfbfbf" points="3667,-123.5 3667,-153.5 3777,-153.5 3777,-123.5 3667,-123.5"/>
<text text-anchor="start" x="3675" y="-141.5" font-family="Helvetica,sans-Serif" font-size="10.00">boost/mpl/aux_/adl</text>
<text text-anchor="middle" x="3722" y="-130.5" font-family="Helvetica,sans-Serif" font-size="10.00">_barrier.hpp</text>
</a>
</g>
</g>
<!-- Node4&#45;&gt;Node352 -->
<g id="edge31" class="edge">
<title>Node4&#45;&gt;Node352</title>
<path fill="none" stroke="midnightblue" d="M2791.23,-199.67C2936.13,-200.6 3324.55,-198.47 3656.65,-154.01"/>
<polygon fill="midnightblue" stroke="midnightblue" points="3657.51,-157.42 3666.95,-152.61 3656.57,-150.49 3657.51,-157.42"/>
</g>
<!-- Node353 -->
<g id="node26" class="node">
<title>Node353</title>
<g id="a_node26"><a xlink:title=" ">
<polygon fill="white" stroke="#bfbfbf" points="3795,-123.5 3795,-153.5 3919,-153.5 3919,-123.5 3795,-123.5"/>
<text text-anchor="start" x="3803" y="-141.5" font-family="Helvetica,sans-Serif" font-size="10.00">boost/mpl/aux_/config</text>
<text text-anchor="middle" x="3857" y="-130.5" font-family="Helvetica,sans-Serif" font-size="10.00">/adl.hpp</text>
</a>
</g>
</g>
<!-- Node4&#45;&gt;Node353 -->
<g id="edge32" class="edge">
<title>Node4&#45;&gt;Node353</title>
<path fill="none" stroke="midnightblue" d="M2791.02,-197.74C2979.08,-193.45 3571.48,-178.42 3784.59,-154"/>
<polygon fill="midnightblue" stroke="midnightblue" points="3785.24,-157.45 3794.75,-152.79 3784.41,-150.5 3785.24,-157.45"/>
</g>
<!-- Node354 -->
<g id="node27" class="node">
<title>Node354</title>
<g id="a_node27"><a xlink:title=" ">
<polygon fill="white" stroke="#bfbfbf" points="3975,-123.5 3975,-153.5 4099,-153.5 4099,-123.5 3975,-123.5"/>
<text text-anchor="start" x="3983" y="-141.5" font-family="Helvetica,sans-Serif" font-size="10.00">boost/mpl/aux_/config</text>
<text text-anchor="middle" x="4037" y="-130.5" font-family="Helvetica,sans-Serif" font-size="10.00">/msvc.hpp</text>
</a>
</g>
</g>
<!-- Node4&#45;&gt;Node354 -->
<g id="edge33" class="edge">
<title>Node4&#45;&gt;Node354</title>
<path fill="none" stroke="midnightblue" d="M2791.23,-198.04C3002.74,-194.37 3730.07,-180.11 3961,-154 3962.28,-153.86 3963.56,-153.7 3964.86,-153.54"/>
<polygon fill="midnightblue" stroke="midnightblue" points="3965.48,-156.99 3974.9,-152.14 3964.52,-150.05 3965.48,-156.99"/>
</g>
<!-- Node355 -->
<g id="node28" class="node">
<title>Node355</title>
<g id="a_node28"><a xlink:title=" ">
<polygon fill="white" stroke="#bfbfbf" points="4117,-123.5 4117,-153.5 4241,-153.5 4241,-123.5 4117,-123.5"/>
<text text-anchor="start" x="4125" y="-141.5" font-family="Helvetica,sans-Serif" font-size="10.00">boost/mpl/aux_/config</text>
<text text-anchor="middle" x="4179" y="-130.5" font-family="Helvetica,sans-Serif" font-size="10.00">/intel.hpp</text>
</a>
</g>
</g>
<!-- Node4&#45;&gt;Node355 -->
<g id="edge34" class="edge">
<title>Node4&#45;&gt;Node355</title>
<path fill="none" stroke="midnightblue" d="M2791.06,-198.41C3015.43,-195.91 3826.78,-184.98 4106.63,-153.99"/>
<polygon fill="midnightblue" stroke="midnightblue" points="4107.22,-157.44 4116.76,-152.83 4106.43,-150.49 4107.22,-157.44"/>
</g>
<!-- Node356 -->
<g id="node29" class="node">
<title>Node356</title>
<g id="a_node29"><a xlink:title=" ">
<polygon fill="white" stroke="#bfbfbf" points="4259,-123.5 4259,-153.5 4383,-153.5 4383,-123.5 4259,-123.5"/>
<text text-anchor="start" x="4267" y="-141.5" font-family="Helvetica,sans-Serif" font-size="10.00">boost/mpl/aux_/config</text>
<text text-anchor="middle" x="4321" y="-130.5" font-family="Helvetica,sans-Serif" font-size="10.00">/gcc.hpp</text>
</a>
</g>
</g>
<!-- Node4&#45;&gt;Node356 -->
<g id="edge35" class="edge">
<title>Node4&#45;&gt;Node356</title>
<path fill="none" stroke="midnightblue" d="M2791.2,-198.61C3030.35,-196.81 3938.92,-187.91 4248.45,-154.01"/>
<polygon fill="midnightblue" stroke="midnightblue" points="4249.22,-157.44 4258.76,-152.84 4248.43,-150.49 4249.22,-157.44"/>
</g>
<!-- Node357 -->
<g id="node30" class="node">
<title>Node357</title>
<g id="a_node30"><a xlink:title=" ">
<polygon fill="white" stroke="#bfbfbf" points="4401,-123.5 4401,-153.5 4525,-153.5 4525,-123.5 4401,-123.5"/>
<text text-anchor="start" x="4409" y="-141.5" font-family="Helvetica,sans-Serif" font-size="10.00">boost/mpl/aux_/config</text>
<text text-anchor="middle" x="4463" y="-130.5" font-family="Helvetica,sans-Serif" font-size="10.00">/workaround.hpp</text>
</a>
</g>
</g>
<!-- Node4&#45;&gt;Node357 -->
<g id="edge36" class="edge">
<title>Node4&#45;&gt;Node357</title>
<path fill="none" stroke="midnightblue" d="M2791.39,-198.78C3044.86,-197.63 4051.86,-190.84 4390.69,-153.98"/>
<polygon fill="midnightblue" stroke="midnightblue" points="4391.21,-157.44 4400.76,-152.85 4390.43,-150.48 4391.21,-157.44"/>
</g>
<!-- Node358 -->
<g id="node31" class="node">
<title>Node358</title>
<g id="a_node31"><a xlink:title=" ">
<polygon fill="white" stroke="#bfbfbf" points="4543,-123.5 4543,-153.5 4649,-153.5 4649,-123.5 4543,-123.5"/>
<text text-anchor="start" x="4551" y="-141.5" font-family="Helvetica,sans-Serif" font-size="10.00">boost/mpl/integral</text>
<text text-anchor="middle" x="4596" y="-130.5" font-family="Helvetica,sans-Serif" font-size="10.00">_c_tag.hpp</text>
</a>
</g>
</g>
<!-- Node4&#45;&gt;Node358 -->
<g id="edge39" class="edge">
<title>Node4&#45;&gt;Node358</title>
<path fill="none" stroke="midnightblue" d="M2791.37,-199.15C3058.25,-199.58 4164.58,-198.66 4532.55,-153.96"/>
<polygon fill="midnightblue" stroke="midnightblue" points="4533.2,-157.41 4542.69,-152.7 4532.34,-150.46 4533.2,-157.41"/>
</g>
<!-- Node359 -->
<g id="node32" class="node">
<title>Node359</title>
<g id="a_node32"><a xlink:title=" ">
<polygon fill="white" stroke="#bfbfbf" points="4667,-123.5 4667,-153.5 4791,-153.5 4791,-123.5 4667,-123.5"/>
<text text-anchor="start" x="4675" y="-141.5" font-family="Helvetica,sans-Serif" font-size="10.00">boost/mpl/aux_/config</text>
<text text-anchor="middle" x="4729" y="-130.5" font-family="Helvetica,sans-Serif" font-size="10.00">/static_constant.hpp</text>
</a>
</g>
</g>
<!-- Node4&#45;&gt;Node359 -->
<g id="edge40" class="edge">
<title>Node4&#45;&gt;Node359</title>
<path fill="none" stroke="midnightblue" d="M2791.11,-199.04C3068.71,-199 4262.2,-196.4 4656.74,-153.97"/>
<polygon fill="midnightblue" stroke="midnightblue" points="4657.21,-157.44 4666.76,-152.86 4656.44,-150.48 4657.21,-157.44"/>
</g>
<!-- Node360 -->
<g id="node33" class="node">
<title>Node360</title>
<g id="a_node33"><a xlink:title=" ">
<polygon fill="white" stroke="#bfbfbf" points="4809,-123.5 4809,-153.5 4923,-153.5 4923,-123.5 4809,-123.5"/>
<text text-anchor="start" x="4817" y="-141.5" font-family="Helvetica,sans-Serif" font-size="10.00">boost/mpl/aux_/nttp</text>
<text text-anchor="middle" x="4866" y="-130.5" font-family="Helvetica,sans-Serif" font-size="10.00">_decl.hpp</text>
</a>
</g>
</g>
<!-- Node4&#45;&gt;Node360 -->
<g id="edge41" class="edge">
<title>Node4&#45;&gt;Node360</title>
<path fill="none" stroke="midnightblue" d="M2791.48,-199.26C3082.22,-200.33 4374.65,-202.31 4798.72,-153.95"/>
<polygon fill="midnightblue" stroke="midnightblue" points="4799.35,-157.4 4808.88,-152.76 4798.54,-150.45 4799.35,-157.4"/>
</g>
<!-- Node361 -->
<g id="node34" class="node">
<title>Node361</title>
<g id="a_node34"><a xlink:title=" ">
<polygon fill="white" stroke="#bfbfbf" points="4941,-123.5 4941,-153.5 5065,-153.5 5065,-123.5 4941,-123.5"/>
<text text-anchor="start" x="4949" y="-141.5" font-family="Helvetica,sans-Serif" font-size="10.00">boost/mpl/aux_/config</text>
<text text-anchor="middle" x="5003" y="-130.5" font-family="Helvetica,sans-Serif" font-size="10.00">/nttp.hpp</text>
</a>
</g>
</g>
<!-- Node4&#45;&gt;Node361 -->
<g id="edge42" class="edge">
<title>Node4&#45;&gt;Node361</title>
<path fill="none" stroke="midnightblue" d="M2791.14,-199.23C3092.33,-200.23 4478.4,-202.15 4930.58,-153.98"/>
<polygon fill="midnightblue" stroke="midnightblue" points="4931.2,-157.44 4940.76,-152.87 4930.44,-150.48 4931.2,-157.44"/>
</g>
<!-- Node362 -->
<g id="node35" class="node">
<title>Node362</title>
<g id="a_node35"><a xlink:title=" ">
<polygon fill="white" stroke="#bfbfbf" points="0,-123.5 0,-153.5 128,-153.5 128,-123.5 0,-123.5"/>
<text text-anchor="start" x="8" y="-141.5" font-family="Helvetica,sans-Serif" font-size="10.00">boost/mpl/aux_/nested</text>
<text text-anchor="middle" x="64" y="-130.5" font-family="Helvetica,sans-Serif" font-size="10.00">_type_wknd.hpp</text>
</a>
</g>
</g>
<!-- Node4&#45;&gt;Node362 -->
<g id="edge43" class="edge">
<title>Node4&#45;&gt;Node362</title>
<path fill="none" stroke="midnightblue" d="M2674.81,-198.62C2318.92,-196.18 441.48,-182.16 138.5,-153.95"/>
<polygon fill="midnightblue" stroke="midnightblue" points="138.69,-150.45 128.39,-152.94 137.99,-157.41 138.69,-150.45"/>
</g>
<!-- Node184 -->
<g id="node36" class="node">
<title>Node184</title>
<g id="a_node36"><a xlink:title=" ">
<polygon fill="white" stroke="#bfbfbf" points="146.5,-129 146.5,-148 301.5,-148 301.5,-129 146.5,-129"/>
<text text-anchor="middle" x="224" y="-136" font-family="Helvetica,sans-Serif" font-size="10.00">boost/mpl/aux_/na_spec.hpp</text>
</a>
</g>
</g>
<!-- Node4&#45;&gt;Node184 -->
<g id="edge44" class="edge">
<title>Node4&#45;&gt;Node184</title>
<path fill="none" stroke="midnightblue" d="M2674.89,-199.09C2353.44,-199.43 790.19,-198.69 310,-154 299.37,-153.01 288.08,-151.47 277.29,-149.75"/>
<polygon fill="midnightblue" stroke="midnightblue" points="277.58,-146.25 267.14,-148.06 276.44,-153.16 277.58,-146.25"/>
</g>
<!-- Node363 -->
<g id="node37" class="node">
<title>Node363</title>
<g id="a_node37"><a xlink:title=" ">
<polygon fill="white" stroke="#bfbfbf" points="319.5,-129 319.5,-148 468.5,-148 468.5,-129 319.5,-129"/>
<text text-anchor="middle" x="394" y="-136" font-family="Helvetica,sans-Serif" font-size="10.00">boost/mpl/lambda_fwd.hpp</text>
</a>
</g>
</g>
<!-- Node4&#45;&gt;Node363 -->
<g id="edge45" class="edge">
<title>Node4&#45;&gt;Node363</title>
<path fill="none" stroke="midnightblue" d="M2674.91,-199.05C2366.89,-199.11 922,-197.05 477,-154 466.84,-153.02 456.06,-151.49 445.75,-149.8"/>
<polygon fill="midnightblue" stroke="midnightblue" points="446.08,-146.3 435.63,-148.06 444.89,-153.2 446.08,-146.3"/>
</g>
<!-- Node364 -->
<g id="node38" class="node">
<title>Node364</title>
<g id="a_node38"><a xlink:title=" ">
<polygon fill="white" stroke="#bfbfbf" points="486.5,-129 486.5,-148 619.5,-148 619.5,-129 486.5,-129"/>
<text text-anchor="middle" x="553" y="-136" font-family="Helvetica,sans-Serif" font-size="10.00">boost/mpl/void_fwd.hpp</text>
</a>
</g>
</g>
<!-- Node4&#45;&gt;Node364 -->
<g id="edge46" class="edge">
<title>Node4&#45;&gt;Node364</title>
<path fill="none" stroke="midnightblue" d="M2674.97,-199.07C2379.69,-199.23 1041.86,-197.49 629,-154 619.88,-153.04 610.21,-151.56 600.94,-149.9"/>
<polygon fill="midnightblue" stroke="midnightblue" points="601.56,-146.46 591.09,-148.06 600.27,-153.34 601.56,-146.46"/>
</g>
<!-- Node92 -->
<g id="node39" class="node">
<title>Node92</title>
<g id="a_node39"><a xlink:title=" ">
<polygon fill="white" stroke="#bfbfbf" points="638,-129 638,-148 766,-148 766,-129 638,-129"/>
<text text-anchor="middle" x="702" y="-136" font-family="Helvetica,sans-Serif" font-size="10.00">boost/mpl/aux_/na.hpp</text>
</a>
</g>
</g>
<!-- Node4&#45;&gt;Node92 -->
<g id="edge47" class="edge">
<title>Node4&#45;&gt;Node92</title>
<path fill="none" stroke="midnightblue" d="M2674.84,-199.02C2391.86,-198.92 1157.13,-196.02 775,-154 766.41,-153.06 757.34,-151.62 748.61,-150"/>
<polygon fill="midnightblue" stroke="midnightblue" points="749.05,-146.53 738.57,-148.05 747.72,-153.4 749.05,-146.53"/>
</g>
<!-- Node365 -->
<g id="node40" class="node">
<title>Node365</title>
<g id="a_node40"><a xlink:title=" ">
<polygon fill="white" stroke="#bfbfbf" points="784,-129 784,-148 934,-148 934,-129 784,-129"/>
<text text-anchor="middle" x="859" y="-136" font-family="Helvetica,sans-Serif" font-size="10.00">boost/mpl/aux_/na_fwd.hpp</text>
</a>
</g>
</g>
<!-- Node4&#45;&gt;Node365 -->
<g id="edge48" class="edge">
<title>Node4&#45;&gt;Node365</title>
<path fill="none" stroke="midnightblue" d="M2674.59,-198.68C2406.3,-197.02 1290.46,-188.17 943,-154 932.62,-152.98 921.59,-151.42 911.05,-149.7"/>
<polygon fill="midnightblue" stroke="midnightblue" points="911.58,-146.24 901.14,-148.01 910.41,-153.14 911.58,-146.24"/>
</g>
<!-- Node103 -->
<g id="node41" class="node">
<title>Node103</title>
<g id="a_node41"><a xlink:title=" ">
<polygon fill="white" stroke="#bfbfbf" points="952,-123.5 952,-153.5 1076,-153.5 1076,-123.5 952,-123.5"/>
<text text-anchor="start" x="960" y="-141.5" font-family="Helvetica,sans-Serif" font-size="10.00">boost/mpl/aux_/config</text>
<text text-anchor="middle" x="1014" y="-130.5" font-family="Helvetica,sans-Serif" font-size="10.00">/ctps.hpp</text>
</a>
</g>
</g>
<!-- Node4&#45;&gt;Node103 -->
<g id="edge49" class="edge">
<title>Node4&#45;&gt;Node103</title>
<path fill="none" stroke="midnightblue" d="M2675,-198.77C2423.27,-197.57 1423.38,-190.63 1086.5,-154"/>
<polygon fill="midnightblue" stroke="midnightblue" points="1086.57,-150.48 1076.24,-152.85 1085.79,-157.44 1086.57,-150.48"/>
</g>
<!-- Node366 -->
<g id="node42" class="node">
<title>Node366</title>
<g id="a_node42"><a xlink:title=" ">
<polygon fill="white" stroke="#bfbfbf" points="1094,-123.5 1094,-153.5 1218,-153.5 1218,-123.5 1094,-123.5"/>
<text text-anchor="start" x="1102" y="-141.5" font-family="Helvetica,sans-Serif" font-size="10.00">boost/mpl/aux_/config</text>
<text text-anchor="middle" x="1156" y="-130.5" font-family="Helvetica,sans-Serif" font-size="10.00">/lambda.hpp</text>
</a>
</g>
</g>
<!-- Node4&#45;&gt;Node366 -->
<g id="edge50" class="edge">
<title>Node4&#45;&gt;Node366</title>
<path fill="none" stroke="midnightblue" d="M2674.81,-198.6C2436.77,-196.74 1535.64,-187.68 1228.48,-154"/>
<polygon fill="midnightblue" stroke="midnightblue" points="1228.57,-150.49 1218.24,-152.84 1227.78,-157.44 1228.57,-150.49"/>
</g>
<!-- Node104 -->
<g id="node43" class="node">
<title>Node104</title>
<g id="a_node43"><a xlink:title=" ">
<polygon fill="white" stroke="#bfbfbf" points="1236,-123.5 1236,-153.5 1360,-153.5 1360,-123.5 1236,-123.5"/>
<text text-anchor="start" x="1244" y="-141.5" font-family="Helvetica,sans-Serif" font-size="10.00">boost/mpl/aux_/config</text>
<text text-anchor="middle" x="1298" y="-130.5" font-family="Helvetica,sans-Serif" font-size="10.00">/ttp.hpp</text>
</a>
</g>
</g>
<!-- Node4&#45;&gt;Node104 -->
<g id="edge51" class="edge">
<title>Node4&#45;&gt;Node104</title>
<path fill="none" stroke="midnightblue" d="M2674.64,-198.38C2450.98,-195.82 1647.64,-184.74 1370.28,-153.98"/>
<polygon fill="midnightblue" stroke="midnightblue" points="1370.58,-150.49 1360.24,-152.83 1369.78,-157.44 1370.58,-150.49"/>
</g>
<!-- Node16 -->
<g id="node44" class="node">
<title>Node16</title>
<g id="a_node44"><a xlink:title=" ">
<polygon fill="white" stroke="#bfbfbf" points="1378,-129 1378,-148 1480,-148 1480,-129 1378,-129"/>
<text text-anchor="middle" x="1429" y="-136" font-family="Helvetica,sans-Serif" font-size="10.00">boost/mpl/int.hpp</text>
</a>
</g>
</g>
<!-- Node4&#45;&gt;Node16 -->
<g id="edge52" class="edge">
<title>Node4&#45;&gt;Node16</title>
<path fill="none" stroke="midnightblue" d="M2674.7,-198.44C2461.23,-196.17 1722.5,-186.11 1489,-154 1482.59,-153.12 1475.87,-151.85 1469.33,-150.42"/>
<polygon fill="midnightblue" stroke="midnightblue" points="1469.83,-146.94 1459.3,-148.07 1468.24,-153.76 1469.83,-146.94"/>
</g>
<!-- Node102 -->
<g id="node45" class="node">
<title>Node102</title>
<g id="a_node45"><a xlink:title=" ">
<polygon fill="white" stroke="#bfbfbf" points="1498.5,-129 1498.5,-148 1623.5,-148 1623.5,-129 1498.5,-129"/>
<text text-anchor="middle" x="1561" y="-136" font-family="Helvetica,sans-Serif" font-size="10.00">boost/mpl/int_fwd.hpp</text>
</a>
</g>
</g>
<!-- Node4&#45;&gt;Node102 -->
<g id="edge53" class="edge">
<title>Node4&#45;&gt;Node102</title>
<path fill="none" stroke="midnightblue" d="M2674.81,-197.83C2477.92,-193.69 1837.59,-178.63 1633,-154 1624.72,-153 1615.97,-151.57 1607.53,-149.99"/>
<polygon fill="midnightblue" stroke="midnightblue" points="1607.94,-146.5 1597.45,-148 1606.58,-153.37 1607.94,-146.5"/>
</g>
<!-- Node367 -->
<g id="node46" class="node">
<title>Node367</title>
<g id="a_node46"><a xlink:title=" ">
<polygon fill="white" stroke="#bfbfbf" points="1642,-123.5 1642,-153.5 1774,-153.5 1774,-123.5 1642,-123.5"/>
<text text-anchor="start" x="1650" y="-141.5" font-family="Helvetica,sans-Serif" font-size="10.00">boost/mpl/aux_/integral</text>
<text text-anchor="middle" x="1708" y="-130.5" font-family="Helvetica,sans-Serif" font-size="10.00">_wrapper.hpp</text>
</a>
</g>
</g>
<!-- Node4&#45;&gt;Node367 -->
<g id="edge54" class="edge">
<title>Node4&#45;&gt;Node367</title>
<path fill="none" stroke="midnightblue" d="M2674.99,-198.89C2526.78,-198.04 2122.34,-192.09 1788,-154 1786.74,-153.86 1785.47,-153.7 1784.19,-153.55"/>
<polygon fill="midnightblue" stroke="midnightblue" points="1784.63,-150.07 1774.25,-152.2 1783.7,-157.01 1784.63,-150.07"/>
</g>
<!-- Node11&#45;&gt;Node2 -->
<g id="edge13" class="edge">
<title>Node11&#45;&gt;Node2</title>
<path fill="none" stroke="midnightblue" d="M5227.33,-128.73C5241.06,-118.11 5264.4,-100.05 5280.92,-87.26"/>
<polygon fill="midnightblue" stroke="midnightblue" points="5283.08,-90.02 5288.85,-81.13 5278.8,-84.48 5283.08,-90.02"/>
</g>
<!-- Node11&#45;&gt;Node3 -->
<g id="edge17" class="edge">
<title>Node11&#45;&gt;Node3</title>
<path fill="none" stroke="midnightblue" d="M5216,-128.81C5216,-108.49 5216,-57.55 5216,-29.78"/>
<polygon fill="midnightblue" stroke="midnightblue" points="5219.5,-29.76 5216,-19.76 5212.5,-29.76 5219.5,-29.76"/>
</g>
<!-- Node11&#45;&gt;Node9 -->
<g id="edge18" class="edge">
<title>Node11&#45;&gt;Node9</title>
<path fill="none" stroke="midnightblue" d="M5159.43,-130.62C5133.44,-127.74 5102.2,-124.68 5074,-123 4773.57,-105.09 2514.47,-76.85 2197.02,-72.95"/>
<polygon fill="midnightblue" stroke="midnightblue" points="2196.6,-69.45 2186.55,-72.82 2196.51,-76.45 2196.6,-69.45"/>
</g>
<!-- Node11&#45;&gt;Node252 -->
<g id="edge14" class="edge">
<title>Node11&#45;&gt;Node252</title>
<path fill="none" stroke="midnightblue" d="M5204.54,-128.73C5190.64,-118.11 5167.02,-100.05 5150.31,-87.26"/>
<polygon fill="midnightblue" stroke="midnightblue" points="5152.35,-84.42 5142.28,-81.13 5148.1,-89.98 5152.35,-84.42"/>
</g>
<!-- Node11&#45;&gt;Node255 -->
<g id="edge15" class="edge">
<title>Node11&#45;&gt;Node255</title>
<path fill="none" stroke="midnightblue" d="M5159.42,-130.79C5133.43,-127.95 5102.19,-124.87 5074,-123 4912.9,-112.34 3762.97,-81.68 3477.84,-74.17"/>
<polygon fill="midnightblue" stroke="midnightblue" points="3477.76,-70.67 3467.67,-73.9 3477.58,-77.67 3477.76,-70.67"/>
</g>
<!-- Node11&#45;&gt;Node264 -->
<g id="edge16" class="edge">
<title>Node11&#45;&gt;Node264</title>
<path fill="none" stroke="midnightblue" d="M5159.4,-131.03C5133.41,-128.24 5102.17,-125.13 5074,-123 4982.06,-116.05 4369.13,-87.37 4136.93,-76.61"/>
<polygon fill="midnightblue" stroke="midnightblue" points="4136.98,-73.11 4126.83,-76.14 4136.66,-80.1 4136.98,-73.11"/>
</g>
<!-- Node11&#45;&gt;Node56 -->
<g id="edge19" class="edge">
<title>Node11&#45;&gt;Node56</title>
<path fill="none" stroke="midnightblue" d="M5159.36,-131.47C5133.37,-128.76 5102.13,-125.6 5074,-123 4888.16,-105.82 4670.2,-88.44 4551.66,-79.23"/>
<polygon fill="midnightblue" stroke="midnightblue" points="4551.8,-75.73 4541.56,-78.44 4551.26,-82.71 4551.8,-75.73"/>
</g>
<!-- Node11&#45;&gt;Node339 -->
<g id="edge20" class="edge">
<title>Node11&#45;&gt;Node339</title>
<path fill="none" stroke="midnightblue" d="M5271.31,-128.99C5330.18,-119.77 5426.3,-104.3 5518.84,-87.17"/>
<polygon fill="midnightblue" stroke="midnightblue" points="5519.75,-90.57 5528.94,-85.3 5518.47,-83.68 5519.75,-90.57"/>
</g>
<!-- Node11&#45;&gt;Node340 -->
<g id="edge21" class="edge">
<title>Node11&#45;&gt;Node340</title>
<path fill="none" stroke="midnightblue" d="M5246.01,-128.87C5286.31,-117.28 5357.99,-96.66 5402.59,-83.83"/>
<polygon fill="midnightblue" stroke="midnightblue" points="5403.58,-87.19 5412.22,-81.06 5401.65,-80.46 5403.58,-87.19"/>
</g>
<!-- Node434&#45;&gt;Node2 -->
<g id="edge58" class="edge">
<title>Node434&#45;&gt;Node2</title>
<path fill="none" stroke="midnightblue" d="M5605.71,-190.4C5548.8,-168.45 5397.93,-110.27 5331.81,-84.77"/>
<polygon fill="midnightblue" stroke="midnightblue" points="5332.91,-81.44 5322.32,-81.11 5330.39,-87.97 5332.91,-81.44"/>
</g>
<!-- Node434&#45;&gt;Node11 -->
<g id="edge59" class="edge">
<title>Node434&#45;&gt;Node11</title>
<path fill="none" stroke="midnightblue" d="M5574.23,-191.19C5571.45,-190.79 5568.69,-190.39 5566,-190 5467.4,-175.73 5353.18,-159.26 5282.75,-149.11"/>
<polygon fill="midnightblue" stroke="midnightblue" points="5283.08,-145.63 5272.68,-147.66 5282.08,-152.55 5283.08,-145.63"/>
</g>
<!-- Node434&#45;&gt;Node339 -->
<g id="edge60" class="edge">
<title>Node434&#45;&gt;Node339</title>
<path fill="none" stroke="midnightblue" d="M5621.25,-190.24C5614.93,-181.54 5605.76,-167.58 5601,-154 5594.55,-135.61 5591.85,-113.66 5590.74,-97.17"/>
<polygon fill="midnightblue" stroke="midnightblue" points="5594.21,-96.55 5590.19,-86.75 5587.22,-96.92 5594.21,-96.55"/>
</g>
<!-- Node434&#45;&gt;Node340 -->
<g id="edge61" class="edge">
<title>Node434&#45;&gt;Node340</title>
<path fill="none" stroke="midnightblue" d="M5615.22,-190.31C5583.76,-168.91 5502.33,-113.53 5463.38,-87.04"/>
<polygon fill="midnightblue" stroke="midnightblue" points="5465.11,-83.99 5454.87,-81.26 5461.17,-89.77 5465.11,-83.99"/>
</g>
<!-- Node434&#45;&gt;Node435 -->
<g id="edge62" class="edge">
<title>Node434&#45;&gt;Node435</title>
<path fill="none" stroke="midnightblue" d="M5634.73,-190.48C5641.78,-181.55 5653.03,-167.31 5661.85,-156.14"/>
<polygon fill="midnightblue" stroke="midnightblue" points="5664.83,-158.03 5668.28,-148.01 5659.33,-153.69 5664.83,-158.03"/>
</g>
<!-- Node436&#45;&gt;Node2 -->
<g id="edge67" class="edge">
<title>Node436&#45;&gt;Node2</title>
<path fill="none" stroke="midnightblue" d="M5292.48,-190.23C5300.05,-181.75 5310.6,-168.13 5315,-154 5321.59,-132.81 5314.8,-107.58 5308.35,-90.86"/>
<polygon fill="midnightblue" stroke="midnightblue" points="5311.41,-89.1 5304.31,-81.23 5304.96,-91.8 5311.41,-89.1"/>
</g>
<!-- Node436&#45;&gt;Node11 -->
<g id="edge68" class="edge">
<title>Node436&#45;&gt;Node11</title>
<path fill="none" stroke="midnightblue" d="M5274.26,-190.48C5263.65,-181.2 5246.48,-166.17 5233.52,-154.83"/>
<polygon fill="midnightblue" stroke="midnightblue" points="5235.56,-151.96 5225.72,-148.01 5230.95,-157.23 5235.56,-151.96"/>
</g>
</g>
</svg>
