<?xml version="1.0" encoding="UTF-8" standalone="no"?>
<!DOCTYPE svg PUBLIC "-//W3C//DTD SVG 1.1//EN"
 "http://www.w3.org/Graphics/SVG/1.1/DTD/svg11.dtd">
<!-- Generated by graphviz version 2.43.0 (0)
 -->
<!-- Title: Containers Pages: 1 -->
<svg width="306pt" height="138pt"
 viewBox="0.00 0.00 306.00 138.00" xmlns="http://www.w3.org/2000/svg" xmlns:xlink="http://www.w3.org/1999/xlink">
<g id="graph0" class="graph" transform="scale(1 1) rotate(0) translate(4 134)">
<title>Containers</title>
<polygon fill="white" stroke="transparent" points="-4,4 -4,-134 302,-134 302,4 -4,4"/>
<!-- Node1 -->
<g id="node1" class="node">
<title>Node1</title>
<g id="a_node1"><a xlink:title="Widgets that holds other widgets.">
<polygon fill="#bfbfbf" stroke="black" points="161,-74 92,-74 92,-55 161,-55 161,-74"/>
<text text-anchor="middle" x="126.5" y="-62" font-family="Helvetica,sans-Serif" font-size="10.00">Containers</text>
</a>
</g>
</g>
<!-- Node3 -->
<g id="node3" class="node">
<title>Node3</title>
<g id="a_node3"><a xlink:href="group__alert.html" target="_top" xlink:title="Predefined dialog boxes.">
<polygon fill="white" stroke="black" points="270,-130 225,-130 225,-111 270,-111 270,-130"/>
<text text-anchor="middle" x="247.5" y="-118" font-family="Helvetica,sans-Serif" font-size="10.00">Alerts</text>
</a>
</g>
</g>
<!-- Node1&#45;&gt;Node3 -->
<g id="edge2" class="edge">
<title>Node1&#45;&gt;Node3</title>
<path fill="none" stroke="black" d="M152.28,-79.25C165.34,-86.71 181.77,-95.62 197,-102.5 205.83,-106.49 215.84,-110.27 224.53,-113.31"/>
<polygon fill="black" stroke="black" points="153.84,-76.1 143.44,-74.12 150.33,-82.16 153.84,-76.1"/>
</g>
<!-- Node6 -->
<g id="node4" class="node">
<title>Node6</title>
<g id="a_node4"><a xlink:href="group__tlw.html" target="_top" xlink:title="Custom dialog windows.">
<polygon fill="white" stroke="black" points="298,-93 197,-93 197,-74 298,-74 298,-93"/>
<text text-anchor="middle" x="247.5" y="-81" font-family="Helvetica,sans-Serif" font-size="10.00">Top level widgets</text>
</a>
</g>
</g>
<!-- Node1&#45;&gt;Node6 -->
<g id="edge5" class="edge">
<title>Node1&#45;&gt;Node6</title>
<path fill="none" stroke="black" d="M171.41,-71.51C179.62,-72.82 188.26,-74.2 196.64,-75.54"/>
<polygon fill="black" stroke="black" points="171.71,-68.01 161.28,-69.89 170.61,-74.93 171.71,-68.01"/>
</g>
<!-- Node4 -->
<g id="node5" class="node">
<title>Node4</title>
<g id="a_node5"><a xlink:href="group__notify.html" target="_top" xlink:title="User notifications.">
<polygon fill="white" stroke="black" points="286.5,-56 208.5,-56 208.5,-37 286.5,-37 286.5,-56"/>
<text text-anchor="middle" x="247.5" y="-44" font-family="Helvetica,sans-Serif" font-size="10.00">Notifications</text>
</a>
</g>
</g>
<!-- Node1&#45;&gt;Node4 -->
<g id="edge3" class="edge">
<title>Node1&#45;&gt;Node4</title>
<path fill="none" stroke="black" d="M171.26,-57.88C183.45,-56.04 196.6,-54.05 208.44,-52.26"/>
<polygon fill="black" stroke="black" points="170.65,-54.43 161.28,-59.39 171.69,-61.36 170.65,-54.43"/>
</g>
<!-- Node5 -->
<g id="node6" class="node">
<title>Node5</title>
<g id="a_node6"><a xlink:href="group__prompt.html" target="_top" xlink:title="Data value requests.">
<polygon fill="white" stroke="black" points="276,-19 219,-19 219,0 276,0 276,-19"/>
<text text-anchor="middle" x="247.5" y="-7" font-family="Helvetica,sans-Serif" font-size="10.00">Prompts</text>
</a>
</g>
</g>
<!-- Node1&#45;&gt;Node5 -->
<g id="edge4" class="edge">
<title>Node1&#45;&gt;Node5</title>
<path fill="none" stroke="black" d="M152.85,-49.9C165.84,-42.71 182.03,-34.17 197,-27.5 204.02,-24.37 211.76,-21.36 218.99,-18.73"/>
<polygon fill="black" stroke="black" points="151.03,-46.91 144.02,-54.85 154.46,-53.01 151.03,-46.91"/>
</g>
<!-- Node2 -->
<g id="node2" class="node">
<title>Node2</title>
<g id="a_node2"><a xlink:href="group__widget.html" target="_top" xlink:title="Graphical widgets.">
<polygon fill="white" stroke="black" points="56,-74 0,-74 0,-55 56,-55 56,-74"/>
<text text-anchor="middle" x="28" y="-62" font-family="Helvetica,sans-Serif" font-size="10.00">Widgets</text>
</a>
</g>
</g>
<!-- Node2&#45;&gt;Node1 -->
<g id="edge1" class="edge">
<title>Node2&#45;&gt;Node1</title>
<path fill="none" stroke="black" d="M66.37,-64.5C74.71,-64.5 83.5,-64.5 91.69,-64.5"/>
<polygon fill="black" stroke="black" points="66.14,-61 56.14,-64.5 66.14,-68 66.14,-61"/>
</g>
</g>
</svg>
