<?xml version="1.0" encoding="UTF-8" standalone="no"?>
<!DOCTYPE svg PUBLIC "-//W3C//DTD SVG 1.1//EN"
 "http://www.w3.org/Graphics/SVG/1.1/DTD/svg11.dtd">
<!-- Generated by graphviz version 2.38.0 (20140413.2041)
 -->
<!-- Title: Containers Pages: 1 -->
<svg width="290pt" height="142pt"
 viewBox="0.00 0.00 290.00 142.00" xmlns="http://www.w3.org/2000/svg" xmlns:xlink="http://www.w3.org/1999/xlink">
<g id="graph0" class="graph" transform="scale(1 1) rotate(0) translate(4 138)">
<title>Containers</title>
<polygon fill="white" stroke="none" points="-4,4 -4,-138 286,-138 286,4 -4,4"/>
<!-- Node0 -->
<g id="node1" class="node"><title>Node0</title>
<polygon fill="#bfbfbf" stroke="black" points="89,-57.5 89,-76.5 153,-76.5 153,-57.5 89,-57.5"/>
<text text-anchor="middle" x="121" y="-64.5" font-family="Helvetica,sans-Serif" font-size="10.00">Containers</text>
</g>
<!-- Node2 -->
<g id="node3" class="node"><title>Node2</title>
<g id="a_node3"><a xlink:href="group__alert.html" target="_top" xlink:title="Alerts">
<polygon fill="white" stroke="black" points="214.5,-114.5 214.5,-133.5 256.5,-133.5 256.5,-114.5 214.5,-114.5"/>
<text text-anchor="middle" x="235.5" y="-121.5" font-family="Helvetica,sans-Serif" font-size="10.00">Alerts</text>
</a>
</g>
</g>
<!-- Node0&#45;&gt;Node2 -->
<g id="edge2" class="edge"><title>Node0&#45;&gt;Node2</title>
<path fill="none" stroke="black" d="M146.584,-81.8851C159.091,-89.2147 174.647,-97.9647 189,-105 197.148,-108.994 206.349,-112.938 214.335,-116.188"/>
<polygon fill="black" stroke="black" points="148.071,-78.6981 137.684,-76.6089 144.501,-84.7194 148.071,-78.6981"/>
</g>
<!-- Node5 -->
<g id="node4" class="node"><title>Node5</title>
<g id="a_node4"><a xlink:href="group__tlw.html" target="_top" xlink:title="Top level widgets">
<polygon fill="white" stroke="black" points="189,-76.5 189,-95.5 282,-95.5 282,-76.5 189,-76.5"/>
<text text-anchor="middle" x="235.5" y="-83.5" font-family="Helvetica,sans-Serif" font-size="10.00">Top level widgets</text>
</a>
</g>
</g>
<!-- Node0&#45;&gt;Node5 -->
<g id="edge5" class="edge"><title>Node0&#45;&gt;Node5</title>
<path fill="none" stroke="black" d="M162.982,-73.9214C171.379,-75.3395 180.267,-76.8406 188.817,-78.2846"/>
<polygon fill="black" stroke="black" points="163.482,-70.4564 153.039,-72.2421 162.316,-77.3586 163.482,-70.4564"/>
</g>
<!-- Node3 -->
<g id="node5" class="node"><title>Node3</title>
<g id="a_node5"><a xlink:href="group__notify.html" target="_top" xlink:title="Notifications">
<polygon fill="white" stroke="black" points="200,-38.5 200,-57.5 271,-57.5 271,-38.5 200,-38.5"/>
<text text-anchor="middle" x="235.5" y="-45.5" font-family="Helvetica,sans-Serif" font-size="10.00">Notifications</text>
</a>
</g>
</g>
<!-- Node0&#45;&gt;Node3 -->
<g id="edge3" class="edge"><title>Node0&#45;&gt;Node3</title>
<path fill="none" stroke="black" d="M163.223,-60.0379C175.166,-58.0209 188.083,-55.8393 199.599,-53.8944"/>
<polygon fill="black" stroke="black" points="162.316,-56.6414 153.039,-61.7579 163.482,-63.5436 162.316,-56.6414"/>
</g>
<!-- Node4 -->
<g id="node6" class="node"><title>Node4</title>
<g id="a_node6"><a xlink:href="group__prompt.html" target="_top" xlink:title="Prompts">
<polygon fill="white" stroke="black" points="209,-0.5 209,-19.5 262,-19.5 262,-0.5 209,-0.5"/>
<text text-anchor="middle" x="235.5" y="-7.5" font-family="Helvetica,sans-Serif" font-size="10.00">Prompts</text>
</a>
</g>
</g>
<!-- Node0&#45;&gt;Node4 -->
<g id="edge4" class="edge"><title>Node0&#45;&gt;Node4</title>
<path fill="none" stroke="black" d="M146.584,-52.1149C159.091,-44.7853 174.647,-36.0353 189,-29 195.764,-25.6844 203.255,-22.4032 210.172,-19.5245"/>
<polygon fill="black" stroke="black" points="144.501,-49.2806 137.684,-57.3911 148.071,-55.3019 144.501,-49.2806"/>
</g>
<!-- Node1 -->
<g id="node2" class="node"><title>Node1</title>
<g id="a_node2"><a xlink:href="group__widget.html" target="_top" xlink:title="Widgets">
<polygon fill="white" stroke="black" points="0,-57.5 0,-76.5 53,-76.5 53,-57.5 0,-57.5"/>
<text text-anchor="middle" x="26.5" y="-64.5" font-family="Helvetica,sans-Serif" font-size="10.00">Widgets</text>
</a>
</g>
</g>
<!-- Node1&#45;&gt;Node0 -->
<g id="edge1" class="edge"><title>Node1&#45;&gt;Node0</title>
<path fill="none" stroke="black" d="M63.4999,-67C71.8461,-67 80.6612,-67 88.7825,-67"/>
<polygon fill="black" stroke="black" points="63.2664,-63.5001 53.2664,-67 63.2664,-70.5001 63.2664,-63.5001"/>
</g>
</g>
</svg>
