<?xml version="1.0" encoding="UTF-8" standalone="no"?>
<!DOCTYPE svg PUBLIC "-//W3C//DTD SVG 1.1//EN"
 "http://www.w3.org/Graphics/SVG/1.1/DTD/svg11.dtd">
<!-- Generated by graphviz version 2.43.0 (0)
 -->
<!-- Title: Data input&#45;output widgets Pages: 1 -->
<svg width="420pt" height="101pt"
 viewBox="0.00 0.00 420.00 101.00" xmlns="http://www.w3.org/2000/svg" xmlns:xlink="http://www.w3.org/1999/xlink">
<g id="graph0" class="graph" transform="scale(1 1) rotate(0) translate(4 97)">
<title>Data input&#45;output widgets</title>
<polygon fill="white" stroke="transparent" points="-4,4 -4,-97 416,-97 416,4 -4,4"/>
<!-- Node2 -->
<g id="node1" class="node">
<title>Node2</title>
<g id="a_node1"><a xlink:href="group__widget.html" target="_top" xlink:title="Graphical widgets.">
<polygon fill="white" stroke="black" points="56,-56 0,-56 0,-37 56,-37 56,-56"/>
<text text-anchor="middle" x="28" y="-44" font-family="Helvetica,sans-Serif" font-size="10.00">Widgets</text>
</a>
</g>
</g>
<!-- Node1 -->
<g id="node4" class="node">
<title>Node1</title>
<g id="a_node4"><a xlink:title="Data input and output widgets.">
<polygon fill="#bfbfbf" stroke="black" points="236,-56 92,-56 92,-37 236,-37 236,-56"/>
<text text-anchor="middle" x="164" y="-44" font-family="Helvetica,sans-Serif" font-size="10.00">Data input&#45;output widgets</text>
</a>
</g>
</g>
<!-- Node2&#45;&gt;Node1 -->
<g id="edge1" class="edge">
<title>Node2&#45;&gt;Node1</title>
<path fill="none" stroke="black" d="M66.21,-46.5C74.24,-46.5 82.99,-46.5 91.84,-46.5"/>
<polygon fill="black" stroke="black" points="66.12,-43 56.12,-46.5 66.12,-50 66.12,-43"/>
</g>
<!-- Node3 -->
<g id="node2" class="node">
<title>Node3</title>
<g id="a_node2"><a xlink:href="group__datetime.html" target="_top" xlink:title="Date and time modifiers.">
<polygon fill="white" stroke="black" points="404,-93 280,-93 280,-74 404,-74 404,-93"/>
<text text-anchor="middle" x="342" y="-81" font-family="Helvetica,sans-Serif" font-size="10.00">Date and time pickers</text>
</a>
</g>
</g>
<!-- Node5 -->
<g id="node3" class="node">
<title>Node5</title>
<g id="a_node3"><a xlink:href="group__text.html" target="_top" xlink:title="Text editor widgets.">
<polygon fill="white" stroke="black" points="381,-56 303,-56 303,-37 381,-37 381,-56"/>
<text text-anchor="middle" x="342" y="-44" font-family="Helvetica,sans-Serif" font-size="10.00">Text widgets</text>
</a>
</g>
</g>
<!-- Node1&#45;&gt;Node3 -->
<g id="edge2" class="edge">
<title>Node1&#45;&gt;Node3</title>
<path fill="none" stroke="black" d="M220.43,-58.15C244.6,-63.23 272.6,-69.12 295.52,-73.94"/>
<polygon fill="black" stroke="black" points="220.83,-54.66 210.32,-56.03 219.39,-61.51 220.83,-54.66"/>
</g>
<!-- Node1&#45;&gt;Node5 -->
<g id="edge4" class="edge">
<title>Node1&#45;&gt;Node5</title>
<path fill="none" stroke="black" d="M246.27,-46.5C265.88,-46.5 285.94,-46.5 302.52,-46.5"/>
<polygon fill="black" stroke="black" points="246.08,-43 236.08,-46.5 246.08,-50 246.08,-43"/>
</g>
<!-- Node4 -->
<g id="node5" class="node">
<title>Node4</title>
<g id="a_node5"><a xlink:href="group__strings.html" target="_top" xlink:title="String list widgets.">
<polygon fill="white" stroke="black" points="412,-19 272,-19 272,0 412,0 412,-19"/>
<text text-anchor="middle" x="342" y="-7" font-family="Helvetica,sans-Serif" font-size="10.00">Strings container widgets</text>
</a>
</g>
</g>
<!-- Node1&#45;&gt;Node4 -->
<g id="edge3" class="edge">
<title>Node1&#45;&gt;Node4</title>
<path fill="none" stroke="black" d="M220.43,-34.85C244.6,-29.77 272.6,-23.88 295.52,-19.06"/>
<polygon fill="black" stroke="black" points="219.39,-31.49 210.32,-36.97 220.83,-38.34 219.39,-31.49"/>
</g>
</g>
</svg>
