<?xml version="1.0" encoding="UTF-8" standalone="no"?>
<!DOCTYPE svg PUBLIC "-//W3C//DTD SVG 1.1//EN"
 "http://www.w3.org/Graphics/SVG/1.1/DTD/svg11.dtd">
<!-- Generated by graphviz version 2.38.0 (20140413.2041)
 -->
<!-- Title: Widgets Pages: 1 -->
<svg width="225pt" height="142pt"
 viewBox="0.00 0.00 225.00 142.00" xmlns="http://www.w3.org/2000/svg" xmlns:xlink="http://www.w3.org/1999/xlink">
<g id="graph0" class="graph" transform="scale(1 1) rotate(0) translate(4 138)">
<title>Widgets</title>
<polygon fill="white" stroke="none" points="-4,4 -4,-138 221,-138 221,4 -4,4"/>
<!-- Node4 -->
<g id="node1" class="node"><title>Node4</title>
<g id="a_node1"><a xlink:href="group__container.html" target="_top" xlink:title="Containers">
<polygon fill="white" stroke="black" points="121,-114.5 121,-133.5 185,-133.5 185,-114.5 121,-114.5"/>
<text text-anchor="middle" x="153" y="-121.5" font-family="Helvetica,sans-Serif" font-size="10.00">Containers</text>
</a>
</g>
</g>
<!-- Node1 -->
<g id="node2" class="node"><title>Node1</title>
<g id="a_node2"><a xlink:href="group__command.html" target="_top" xlink:title="Command widgets">
<polygon fill="white" stroke="black" points="104,-76.5 104,-95.5 202,-95.5 202,-76.5 104,-76.5"/>
<text text-anchor="middle" x="153" y="-83.5" font-family="Helvetica,sans-Serif" font-size="10.00">Command widgets</text>
</a>
</g>
</g>
<!-- Node0 -->
<g id="node3" class="node"><title>Node0</title>
<polygon fill="#bfbfbf" stroke="black" points="0,-57.5 0,-76.5 53,-76.5 53,-57.5 0,-57.5"/>
<text text-anchor="middle" x="26.5" y="-64.5" font-family="Helvetica,sans-Serif" font-size="10.00">Widgets</text>
</g>
<!-- Node0&#45;&gt;Node4 -->
<g id="edge4" class="edge"><title>Node0&#45;&gt;Node4</title>
<path fill="none" stroke="black" d="M49.0718,-82.2571C60.533,-89.8576 75.0942,-98.7368 89,-105 99.1038,-109.551 110.596,-113.381 120.973,-116.383"/>
<polygon fill="black" stroke="black" points="50.8545,-79.2369 40.6165,-76.5102 46.9196,-85.0262 50.8545,-79.2369"/>
</g>
<!-- Node0&#45;&gt;Node1 -->
<g id="edge1" class="edge"><title>Node0&#45;&gt;Node1</title>
<path fill="none" stroke="black" d="M63.4123,-72.4806C76.0202,-74.4047 90.3953,-76.5985 103.844,-78.6509"/>
<polygon fill="black" stroke="black" points="63.7101,-68.9856 53.2965,-70.9368 62.654,-75.9055 63.7101,-68.9856"/>
</g>
<!-- Node2 -->
<g id="node4" class="node"><title>Node2</title>
<g id="a_node4"><a xlink:href="group__io.html" target="_top" xlink:title="Data input&#45;output widgets">
<polygon fill="white" stroke="black" points="89,-38.5 89,-57.5 217,-57.5 217,-38.5 89,-38.5"/>
<text text-anchor="middle" x="153" y="-45.5" font-family="Helvetica,sans-Serif" font-size="10.00">Data input&#45;output widgets</text>
</a>
</g>
</g>
<!-- Node0&#45;&gt;Node2 -->
<g id="edge2" class="edge"><title>Node0&#45;&gt;Node2</title>
<path fill="none" stroke="black" d="M63.2685,-61.5414C71.507,-60.2841 80.5062,-58.9107 89.5121,-57.5363"/>
<polygon fill="black" stroke="black" points="62.654,-58.0945 53.2965,-63.0632 63.7101,-65.0144 62.654,-58.0945"/>
</g>
<!-- Node3 -->
<g id="node5" class="node"><title>Node3</title>
<g id="a_node5"><a xlink:href="group__info.html" target="_top" xlink:title="Informational widgets">
<polygon fill="white" stroke="black" points="98,-0.5 98,-19.5 208,-19.5 208,-0.5 98,-0.5"/>
<text text-anchor="middle" x="153" y="-7.5" font-family="Helvetica,sans-Serif" font-size="10.00">Informational widgets</text>
</a>
</g>
</g>
<!-- Node0&#45;&gt;Node3 -->
<g id="edge3" class="edge"><title>Node0&#45;&gt;Node3</title>
<path fill="none" stroke="black" d="M49.0718,-51.7429C60.533,-44.1424 75.0942,-35.2632 89,-29 97.0205,-25.3875 105.916,-22.2292 114.434,-19.5788"/>
<polygon fill="black" stroke="black" points="46.9196,-48.9738 40.6165,-57.4898 50.8545,-54.7631 46.9196,-48.9738"/>
</g>
</g>
</svg>
