<?xml version="1.0" encoding="UTF-8" standalone="no"?>
<!DOCTYPE svg PUBLIC "-//W3C//DTD SVG 1.1//EN"
 "http://www.w3.org/Graphics/SVG/1.1/DTD/svg11.dtd">
<!-- Generated by graphviz version 2.43.0 (0)
 -->
<!-- Title: Informational widgets Pages: 1 -->
<svg width="403pt" height="64pt"
 viewBox="0.00 0.00 403.00 64.00" xmlns="http://www.w3.org/2000/svg" xmlns:xlink="http://www.w3.org/1999/xlink">
<g id="graph0" class="graph" transform="scale(1 1) rotate(0) translate(4 60)">
<title>Informational widgets</title>
<polygon fill="white" stroke="transparent" points="-4,4 -4,-60 399,-60 399,4 -4,4"/>
<!-- Node4 -->
<g id="node1" class="node">
<title>Node4</title>
<g id="a_node1"><a xlink:href="group__graphics.html" target="_top" xlink:title="Canvas graphics.">
<polygon fill="white" stroke="black" points="395,-56 336,-56 336,-37 395,-37 395,-56"/>
<text text-anchor="middle" x="365.5" y="-44" font-family="Helvetica,sans-Serif" font-size="10.00">Graphics</text>
</a>
</g>
</g>
<!-- Node2 -->
<g id="node2" class="node">
<title>Node2</title>
<g id="a_node2"><a xlink:href="group__widget.html" target="_top" xlink:title="Graphical widgets.">
<polygon fill="white" stroke="black" points="56,-37 0,-37 0,-18 56,-18 56,-37"/>
<text text-anchor="middle" x="28" y="-25" font-family="Helvetica,sans-Serif" font-size="10.00">Widgets</text>
</a>
</g>
</g>
<!-- Node1 -->
<g id="node4" class="node">
<title>Node1</title>
<g id="a_node4"><a xlink:title="Data output widgets.">
<polygon fill="#bfbfbf" stroke="black" points="217,-37 93,-37 93,-18 217,-18 217,-37"/>
<text text-anchor="middle" x="155" y="-25" font-family="Helvetica,sans-Serif" font-size="10.00">Informational widgets</text>
</a>
</g>
</g>
<!-- Node2&#45;&gt;Node1 -->
<g id="edge1" class="edge">
<title>Node2&#45;&gt;Node1</title>
<path fill="none" stroke="black" d="M66.28,-27.5C74.65,-27.5 83.75,-27.5 92.81,-27.5"/>
<polygon fill="black" stroke="black" points="66.12,-24 56.12,-27.5 66.12,-31 66.12,-24"/>
</g>
<!-- Node3 -->
<g id="node3" class="node">
<title>Node3</title>
<g id="a_node3"><a xlink:href="group__log.html" target="_top" xlink:title="Debug output and async user notifications.">
<polygon fill="white" stroke="black" points="393,-19 338,-19 338,0 393,0 393,-19"/>
<text text-anchor="middle" x="365.5" y="-7" font-family="Helvetica,sans-Serif" font-size="10.00">Logging</text>
</a>
</g>
</g>
<!-- Node1&#45;&gt;Node4 -->
<g id="edge3" class="edge">
<title>Node1&#45;&gt;Node4</title>
<path fill="none" stroke="orange" stroke-dasharray="5,2" d="M217.15,-33.07C256.32,-36.64 305.35,-41.11 335.8,-43.88"/>
<text text-anchor="middle" x="276.5" y="-44.5" font-family="Helvetica,sans-Serif" font-size="10.00">boost::ui::canvas</text>
</g>
<!-- Node1&#45;&gt;Node3 -->
<g id="edge2" class="edge">
<title>Node1&#45;&gt;Node3</title>
<path fill="none" stroke="black" d="M227.19,-21.35C265.28,-18.07 309.94,-14.21 337.73,-11.81"/>
<polygon fill="black" stroke="black" points="226.81,-17.87 217.15,-22.22 227.41,-24.85 226.81,-17.87"/>
</g>
</g>
</svg>
