<?xml version="1.0" encoding="UTF-8" standalone="no"?>
<!DOCTYPE svg PUBLIC "-//W3C//DTD SVG 1.1//EN"
 "http://www.w3.org/Graphics/SVG/1.1/DTD/svg11.dtd">
<!-- Generated by graphviz version 2.38.0 (20140413.2041)
 -->
<!-- Title: Containers Pages: 1 -->
<svg width="268pt" height="104pt"
 viewBox="0.00 0.00 268.00 104.00" xmlns="http://www.w3.org/2000/svg" xmlns:xlink="http://www.w3.org/1999/xlink">
<g id="graph0" class="graph" transform="scale(1 1) rotate(0) translate(4 100)">
<title>Containers</title>
<polygon fill="white" stroke="none" points="-4,4 -4,-100 264,-100 264,4 -4,4"/>
<!-- Node0 -->
<g id="node1" class="node"><title>Node0</title>
<polygon fill="#bfbfbf" stroke="black" points="89,-38.5 89,-57.5 153,-57.5 153,-38.5 89,-38.5"/>
<text text-anchor="middle" x="121" y="-45.5" font-family="Helvetica,sans-Serif" font-size="10.00">Containers</text>
</g>
<!-- Node2 -->
<g id="node3" class="node"><title>Node2</title>
<g id="a_node3"><a xlink:href="group__alert.html" target="_top" xlink:title="Alerts">
<polygon fill="white" stroke="black" points="203.5,-76.5 203.5,-95.5 245.5,-95.5 245.5,-76.5 203.5,-76.5"/>
<text text-anchor="middle" x="224.5" y="-83.5" font-family="Helvetica,sans-Serif" font-size="10.00">Alerts</text>
</a>
</g>
</g>
<!-- Node0&#45;&gt;Node2 -->
<g id="edge2" class="edge"><title>Node0&#45;&gt;Node2</title>
<path fill="none" stroke="black" d="M157.356,-61.2366C172.741,-66.9967 190.212,-73.5375 203.333,-78.4498"/>
<polygon fill="black" stroke="black" points="158.205,-57.8174 147.613,-57.589 155.751,-64.3731 158.205,-57.8174"/>
</g>
<!-- Node3 -->
<g id="node4" class="node"><title>Node3</title>
<g id="a_node4"><a xlink:href="group__notify.html" target="_top" xlink:title="Notifications">
<polygon fill="white" stroke="black" points="189,-38.5 189,-57.5 260,-57.5 260,-38.5 189,-38.5"/>
<text text-anchor="middle" x="224.5" y="-45.5" font-family="Helvetica,sans-Serif" font-size="10.00">Notifications</text>
</a>
</g>
</g>
<!-- Node0&#45;&gt;Node3 -->
<g id="edge3" class="edge"><title>Node0&#45;&gt;Node3</title>
<path fill="none" stroke="black" d="M163.134,-48C171.645,-48 180.532,-48 188.787,-48"/>
<polygon fill="black" stroke="black" points="163.005,-44.5001 153.005,-48 163.005,-51.5001 163.005,-44.5001"/>
</g>
<!-- Node4 -->
<g id="node5" class="node"><title>Node4</title>
<g id="a_node5"><a xlink:href="group__prompt.html" target="_top" xlink:title="Prompts">
<polygon fill="white" stroke="black" points="198,-0.5 198,-19.5 251,-19.5 251,-0.5 198,-0.5"/>
<text text-anchor="middle" x="224.5" y="-7.5" font-family="Helvetica,sans-Serif" font-size="10.00">Prompts</text>
</a>
</g>
</g>
<!-- Node0&#45;&gt;Node4 -->
<g id="edge4" class="edge"><title>Node0&#45;&gt;Node4</title>
<path fill="none" stroke="black" d="M157.039,-34.882C170.463,-29.8561 185.515,-24.2209 197.895,-19.5859"/>
<polygon fill="black" stroke="black" points="155.751,-31.6269 147.613,-38.411 158.205,-38.1826 155.751,-31.6269"/>
</g>
<!-- Node1 -->
<g id="node2" class="node"><title>Node1</title>
<g id="a_node2"><a xlink:href="group__widget.html" target="_top" xlink:title="Widgets">
<polygon fill="white" stroke="black" points="0,-38.5 0,-57.5 53,-57.5 53,-38.5 0,-38.5"/>
<text text-anchor="middle" x="26.5" y="-45.5" font-family="Helvetica,sans-Serif" font-size="10.00">Widgets</text>
</a>
</g>
</g>
<!-- Node1&#45;&gt;Node0 -->
<g id="edge1" class="edge"><title>Node1&#45;&gt;Node0</title>
<path fill="none" stroke="black" d="M63.4999,-48C71.8461,-48 80.6612,-48 88.7825,-48"/>
<polygon fill="black" stroke="black" points="63.2664,-44.5001 53.2664,-48 63.2664,-51.5001 63.2664,-44.5001"/>
</g>
</g>
</svg>
