<?xml version="1.0" encoding="UTF-8" standalone="no"?>
<!DOCTYPE svg PUBLIC "-//W3C//DTD SVG 1.1//EN"
 "http://www.w3.org/Graphics/SVG/1.1/DTD/svg11.dtd">
<!-- Generated by graphviz version 2.43.0 (0)
 -->
<!-- Title: Widgets Pages: 1 -->
<svg width="244pt" height="138pt"
 viewBox="0.00 0.00 244.00 138.00" xmlns="http://www.w3.org/2000/svg" xmlns:xlink="http://www.w3.org/1999/xlink">
<g id="graph0" class="graph" transform="scale(1 1) rotate(0) translate(4 134)">
<title>Widgets</title>
<polygon fill="white" stroke="transparent" points="-4,4 -4,-134 240,-134 240,4 -4,4"/>
<!-- Node5 -->
<g id="node1" class="node">
<title>Node5</title>
<g id="a_node1"><a xlink:href="group__container.html" target="_top" xlink:title="Widgets that holds other widgets.">
<polygon fill="white" stroke="black" points="198.5,-130 129.5,-130 129.5,-111 198.5,-111 198.5,-130"/>
<text text-anchor="middle" x="164" y="-118" font-family="Helvetica,sans-Serif" font-size="10.00">Containers</text>
</a>
</g>
</g>
<!-- Node2 -->
<g id="node2" class="node">
<title>Node2</title>
<g id="a_node2"><a xlink:href="group__command.html" target="_top" xlink:title="Widgets with action handlers.">
<polygon fill="white" stroke="black" points="218,-93 110,-93 110,-74 218,-74 218,-93"/>
<text text-anchor="middle" x="164" y="-81" font-family="Helvetica,sans-Serif" font-size="10.00">Command widgets</text>
</a>
</g>
</g>
<!-- Node1 -->
<g id="node3" class="node">
<title>Node1</title>
<g id="a_node3"><a xlink:title="Graphical widgets.">
<polygon fill="#bfbfbf" stroke="black" points="56,-74 0,-74 0,-55 56,-55 56,-74"/>
<text text-anchor="middle" x="28" y="-62" font-family="Helvetica,sans-Serif" font-size="10.00">Widgets</text>
</a>
</g>
</g>
<!-- Node1&#45;&gt;Node5 -->
<g id="edge4" class="edge">
<title>Node1&#45;&gt;Node5</title>
<path fill="none" stroke="black" d="M50.69,-79.76C62.46,-87.48 77.54,-96.46 92,-102.5 103.85,-107.45 117.4,-111.29 129.47,-114.14"/>
<polygon fill="black" stroke="black" points="52.64,-76.86 42.39,-74.18 48.73,-82.67 52.64,-76.86"/>
</g>
<!-- Node1&#45;&gt;Node2 -->
<g id="edge1" class="edge">
<title>Node1&#45;&gt;Node2</title>
<path fill="none" stroke="black" d="M66.03,-69.75C79.59,-71.67 95.2,-73.89 109.89,-75.97"/>
<polygon fill="black" stroke="black" points="66.51,-66.28 56.12,-68.34 65.53,-73.21 66.51,-66.28"/>
</g>
<!-- Node3 -->
<g id="node4" class="node">
<title>Node3</title>
<g id="a_node4"><a xlink:href="group__io.html" target="_top" xlink:title="Data input and output widgets.">
<polygon fill="white" stroke="black" points="236,-56 92,-56 92,-37 236,-37 236,-56"/>
<text text-anchor="middle" x="164" y="-44" font-family="Helvetica,sans-Serif" font-size="10.00">Data input&#45;output widgets</text>
</a>
</g>
</g>
<!-- Node1&#45;&gt;Node3 -->
<g id="edge2" class="edge">
<title>Node1&#45;&gt;Node3</title>
<path fill="none" stroke="black" d="M66.29,-59.49C74.38,-58.4 83.21,-57.22 92.12,-56.02"/>
<polygon fill="black" stroke="black" points="65.56,-56.06 56.12,-60.86 66.49,-62.99 65.56,-56.06"/>
</g>
<!-- Node4 -->
<g id="node5" class="node">
<title>Node4</title>
<g id="a_node5"><a xlink:href="group__info.html" target="_top" xlink:title="Data output widgets.">
<polygon fill="white" stroke="black" points="226,-19 102,-19 102,0 226,0 226,-19"/>
<text text-anchor="middle" x="164" y="-7" font-family="Helvetica,sans-Serif" font-size="10.00">Informational widgets</text>
</a>
</g>
</g>
<!-- Node1&#45;&gt;Node4 -->
<g id="edge3" class="edge">
<title>Node1&#45;&gt;Node4</title>
<path fill="none" stroke="black" d="M51.86,-49.53C63.51,-42.4 78.12,-34.21 92,-28.5 100.85,-24.86 110.61,-21.72 119.98,-19.1"/>
<polygon fill="black" stroke="black" points="49.83,-46.67 43.22,-54.95 53.55,-52.6 49.83,-46.67"/>
</g>
</g>
</svg>
