<?xml version="1.0" encoding="UTF-8" standalone="no"?>
<!DOCTYPE svg PUBLIC "-//W3C//DTD SVG 1.1//EN"
 "http://www.w3.org/Graphics/SVG/1.1/DTD/svg11.dtd">
<!-- Generated by graphviz version 2.38.0 (20140413.2041)
 -->
<!-- Title: Data input&#45;output widgets Pages: 1 -->
<svg width="388pt" height="104pt"
 viewBox="0.00 0.00 388.00 104.00" xmlns="http://www.w3.org/2000/svg" xmlns:xlink="http://www.w3.org/1999/xlink">
<g id="graph0" class="graph" transform="scale(1 1) rotate(0) translate(4 100)">
<title>Data input&#45;output widgets</title>
<polygon fill="white" stroke="none" points="-4,4 -4,-100 384,-100 384,4 -4,4"/>
<!-- Node1 -->
<g id="node1" class="node"><title>Node1</title>
<g id="a_node1"><a xlink:href="group__widget.html" target="_top" xlink:title="Widgets">
<polygon fill="white" stroke="black" points="0,-38.5 0,-57.5 53,-57.5 53,-38.5 0,-38.5"/>
<text text-anchor="middle" x="26.5" y="-45.5" font-family="Helvetica,sans-Serif" font-size="10.00">Widgets</text>
</a>
</g>
</g>
<!-- Node0 -->
<g id="node4" class="node"><title>Node0</title>
<polygon fill="#bfbfbf" stroke="black" points="89,-38.5 89,-57.5 217,-57.5 217,-38.5 89,-38.5"/>
<text text-anchor="middle" x="153" y="-45.5" font-family="Helvetica,sans-Serif" font-size="10.00">Data input&#45;output widgets</text>
</g>
<!-- Node1&#45;&gt;Node0 -->
<g id="edge1" class="edge"><title>Node1&#45;&gt;Node0</title>
<path fill="none" stroke="black" d="M63.3994,-48C71.4449,-48 80.2106,-48 88.9963,-48"/>
<polygon fill="black" stroke="black" points="63.2965,-44.5001 53.2965,-48 63.2964,-51.5001 63.2965,-44.5001"/>
</g>
<!-- Node2 -->
<g id="node2" class="node"><title>Node2</title>
<g id="a_node2"><a xlink:href="group__datetime.html" target="_top" xlink:title="Date and time pickers">
<polygon fill="white" stroke="black" points="260,-76.5 260,-95.5 373,-95.5 373,-76.5 260,-76.5"/>
<text text-anchor="middle" x="316.5" y="-83.5" font-family="Helvetica,sans-Serif" font-size="10.00">Date and time pickers</text>
</a>
</g>
</g>
<!-- Node4 -->
<g id="node3" class="node"><title>Node4</title>
<g id="a_node3"><a xlink:href="group__text.html" target="_top" xlink:title="Text widgets">
<polygon fill="white" stroke="black" points="280,-38.5 280,-57.5 353,-57.5 353,-38.5 280,-38.5"/>
<text text-anchor="middle" x="316.5" y="-45.5" font-family="Helvetica,sans-Serif" font-size="10.00">Text widgets</text>
</a>
</g>
</g>
<!-- Node0&#45;&gt;Node2 -->
<g id="edge2" class="edge"><title>Node0&#45;&gt;Node2</title>
<path fill="none" stroke="black" d="M204.558,-59.8961C227.259,-65.2374 253.678,-71.4537 275.04,-76.4799"/>
<polygon fill="black" stroke="black" points="205.289,-56.4725 194.753,-57.589 203.686,-63.2864 205.289,-56.4725"/>
</g>
<!-- Node0&#45;&gt;Node4 -->
<g id="edge4" class="edge"><title>Node0&#45;&gt;Node4</title>
<path fill="none" stroke="black" d="M227.406,-48C245.616,-48 264.327,-48 279.796,-48"/>
<polygon fill="black" stroke="black" points="227.366,-44.5001 217.366,-48 227.366,-51.5001 227.366,-44.5001"/>
</g>
<!-- Node3 -->
<g id="node5" class="node"><title>Node3</title>
<g id="a_node5"><a xlink:href="group__strings.html" target="_top" xlink:title="Strings container widgets">
<polygon fill="white" stroke="black" points="253,-0.5 253,-19.5 380,-19.5 380,-0.5 253,-0.5"/>
<text text-anchor="middle" x="316.5" y="-7.5" font-family="Helvetica,sans-Serif" font-size="10.00">Strings container widgets</text>
</a>
</g>
</g>
<!-- Node0&#45;&gt;Node3 -->
<g id="edge3" class="edge"><title>Node0&#45;&gt;Node3</title>
<path fill="none" stroke="black" d="M204.558,-36.1039C227.259,-30.7626 253.678,-24.5463 275.04,-19.5201"/>
<polygon fill="black" stroke="black" points="203.686,-32.7136 194.753,-38.411 205.289,-39.5275 203.686,-32.7136"/>
</g>
</g>
</svg>
