<?xml version="1.0" encoding="UTF-8" standalone="no"?>
<!DOCTYPE svg PUBLIC "-//W3C//DTD SVG 1.1//EN"
 "http://www.w3.org/Graphics/SVG/1.1/DTD/svg11.dtd">
<!-- Generated by graphviz version 2.43.0 (0)
 -->
<!-- Title: boost/ui/image_widget.hpp Pages: 1 -->
<svg width="1324pt" height="330pt"
 viewBox="0.00 0.00 1323.50 330.00" xmlns="http://www.w3.org/2000/svg" xmlns:xlink="http://www.w3.org/1999/xlink">
<g id="graph0" class="graph" transform="scale(1 1) rotate(0) translate(4 326)">
<title>boost/ui/image_widget.hpp</title>
<polygon fill="white" stroke="transparent" points="-4,4 -4,-326 1319.5,-326 1319.5,4 -4,4"/>
<!-- Node1 -->
<g id="node1" class="node">
<title>Node1</title>
<g id="a_node1"><a xlink:title="Image widget.">
<polygon fill="#bfbfbf" stroke="black" points="380.5,-302.5 380.5,-321.5 529.5,-321.5 529.5,-302.5 380.5,-302.5"/>
<text text-anchor="middle" x="455" y="-309.5" font-family="Helvetica,sans-Serif" font-size="10.00">boost/ui/image_widget.hpp</text>
</a>
</g>
</g>
<!-- Node2 -->
<g id="node2" class="node">
<title>Node2</title>
<g id="a_node2"><a xlink:href="config_8hpp.html" target="_top" xlink:title="Configuration options.">
<polygon fill="white" stroke="black" points="756,-62 756,-81 866,-81 866,-62 756,-62"/>
<text text-anchor="middle" x="811" y="-69" font-family="Helvetica,sans-Serif" font-size="10.00">boost/ui/config.hpp</text>
</a>
</g>
</g>
<!-- Node1&#45;&gt;Node2 -->
<g id="edge1" class="edge">
<title>Node1&#45;&gt;Node2</title>
<path fill="none" stroke="midnightblue" d="M457.17,-302.2C463.02,-279.81 480.82,-219.57 512,-179 536.49,-147.13 546.67,-140.19 583,-123 650.45,-91.08 674.17,-103.24 747,-87 752.35,-85.81 757.95,-84.55 763.52,-83.29"/>
<polygon fill="midnightblue" stroke="midnightblue" points="764.46,-86.67 773.45,-81.05 762.92,-79.84 764.46,-86.67"/>
</g>
<!-- Node4 -->
<g id="node4" class="node">
<title>Node4</title>
<g id="a_node4"><a xlink:href="widget_8hpp.html" target="_top" xlink:title="Widget class.">
<polygon fill="white" stroke="black" points="814.5,-246.5 814.5,-265.5 927.5,-265.5 927.5,-246.5 814.5,-246.5"/>
<text text-anchor="middle" x="871" y="-253.5" font-family="Helvetica,sans-Serif" font-size="10.00">boost/ui/widget.hpp</text>
</a>
</g>
</g>
<!-- Node1&#45;&gt;Node4 -->
<g id="edge3" class="edge">
<title>Node1&#45;&gt;Node4</title>
<path fill="none" stroke="midnightblue" d="M520.92,-302.44C598.42,-292.38 726.35,-275.78 804.23,-265.67"/>
<polygon fill="midnightblue" stroke="midnightblue" points="804.94,-269.1 814.41,-264.35 804.04,-262.16 804.94,-269.1"/>
</g>
<!-- Node22 -->
<g id="node22" class="node">
<title>Node22</title>
<g id="a_node22"><a xlink:href="image_8hpp.html" target="_top" xlink:title="Image class.">
<polygon fill="white" stroke="black" points="317,-185 317,-204 427,-204 427,-185 317,-185"/>
<text text-anchor="middle" x="372" y="-192" font-family="Helvetica,sans-Serif" font-size="10.00">boost/ui/image.hpp</text>
</a>
</g>
</g>
<!-- Node1&#45;&gt;Node22 -->
<g id="edge29" class="edge">
<title>Node1&#45;&gt;Node22</title>
<path fill="none" stroke="midnightblue" d="M448.76,-302.32C435.06,-283.26 402.14,-237.45 384.19,-212.46"/>
<polygon fill="midnightblue" stroke="midnightblue" points="386.99,-210.36 378.31,-204.28 381.3,-214.45 386.99,-210.36"/>
</g>
<!-- Node3 -->
<g id="node3" class="node">
<title>Node3</title>
<g id="a_node3"><a xlink:title=" ">
<polygon fill="white" stroke="#bfbfbf" points="762,-0.5 762,-19.5 860,-19.5 860,-0.5 762,-0.5"/>
<text text-anchor="middle" x="811" y="-7.5" font-family="Helvetica,sans-Serif" font-size="10.00">boost/config.hpp</text>
</a>
</g>
</g>
<!-- Node2&#45;&gt;Node3 -->
<g id="edge2" class="edge">
<title>Node2&#45;&gt;Node3</title>
<path fill="none" stroke="midnightblue" d="M811,-61.98C811,-53.58 811,-40.48 811,-29.66"/>
<polygon fill="midnightblue" stroke="midnightblue" points="814.5,-29.51 811,-19.51 807.5,-29.51 814.5,-29.51"/>
</g>
<!-- Node4&#45;&gt;Node2 -->
<g id="edge4" class="edge">
<title>Node4&#45;&gt;Node2</title>
<path fill="none" stroke="midnightblue" d="M927.73,-251.3C985.67,-246.2 1069.89,-234.67 1090,-210 1098.71,-199.32 1092.46,-192.56 1090,-179 1085.26,-152.85 1089.28,-140.18 1069,-123 1040.47,-98.84 942.78,-84.92 876.14,-78.03"/>
<polygon fill="midnightblue" stroke="midnightblue" points="876.44,-74.54 866.14,-77.02 875.74,-81.5 876.44,-74.54"/>
</g>
<!-- Node5 -->
<g id="node5" class="node">
<title>Node5</title>
<g id="a_node5"><a xlink:href="coord_8hpp.html" target="_top" xlink:title="Coordinates classes.">
<polygon fill="white" stroke="black" points="318.5,-123.5 318.5,-142.5 425.5,-142.5 425.5,-123.5 318.5,-123.5"/>
<text text-anchor="middle" x="372" y="-130.5" font-family="Helvetica,sans-Serif" font-size="10.00">boost/ui/coord.hpp</text>
</a>
</g>
</g>
<!-- Node4&#45;&gt;Node5 -->
<g id="edge5" class="edge">
<title>Node4&#45;&gt;Node5</title>
<path fill="none" stroke="midnightblue" d="M814.26,-254.34C742.29,-252.06 615.16,-243.16 512,-210 466.54,-195.39 418.73,-165.92 392.4,-148.28"/>
<polygon fill="midnightblue" stroke="midnightblue" points="394.27,-145.31 384.03,-142.57 390.33,-151.1 394.27,-145.31"/>
</g>
<!-- Node11 -->
<g id="node11" class="node">
<title>Node11</title>
<g id="a_node11"><a xlink:href="string_8hpp.html" target="_top" xlink:title="String class and operations.">
<polygon fill="white" stroke="black" points="1137.5,-123.5 1137.5,-142.5 1244.5,-142.5 1244.5,-123.5 1137.5,-123.5"/>
<text text-anchor="middle" x="1191" y="-130.5" font-family="Helvetica,sans-Serif" font-size="10.00">boost/ui/string.hpp</text>
</a>
</g>
</g>
<!-- Node4&#45;&gt;Node11 -->
<g id="edge12" class="edge">
<title>Node4&#45;&gt;Node11</title>
<path fill="none" stroke="midnightblue" d="M927.57,-255.27C981.09,-253.21 1062.06,-243.99 1123,-210 1148.05,-196.03 1168.63,-169.31 1180.36,-151.56"/>
<polygon fill="midnightblue" stroke="midnightblue" points="1183.54,-153.09 1185.94,-142.77 1177.63,-149.34 1183.54,-153.09"/>
</g>
<!-- Node15 -->
<g id="node15" class="node">
<title>Node15</title>
<g id="a_node15"><a xlink:href="event_8hpp.html" target="_top" xlink:title="Event classes.">
<polygon fill="white" stroke="black" points="817.5,-185 817.5,-204 924.5,-204 924.5,-185 817.5,-185"/>
<text text-anchor="middle" x="871" y="-192" font-family="Helvetica,sans-Serif" font-size="10.00">boost/ui/event.hpp</text>
</a>
</g>
</g>
<!-- Node4&#45;&gt;Node15 -->
<g id="edge17" class="edge">
<title>Node4&#45;&gt;Node15</title>
<path fill="none" stroke="midnightblue" d="M871,-246.48C871,-238.08 871,-224.98 871,-214.16"/>
<polygon fill="midnightblue" stroke="midnightblue" points="874.5,-214.01 871,-204.01 867.5,-214.01 874.5,-214.01"/>
</g>
<!-- Node17 -->
<g id="node17" class="node">
<title>Node17</title>
<g id="a_node17"><a xlink:href="font_8hpp.html" target="_top" xlink:title="Font class.">
<polygon fill="white" stroke="black" points="981.5,-185 981.5,-204 1080.5,-204 1080.5,-185 981.5,-185"/>
<text text-anchor="middle" x="1031" y="-192" font-family="Helvetica,sans-Serif" font-size="10.00">boost/ui/font.hpp</text>
</a>
</g>
</g>
<!-- Node4&#45;&gt;Node17 -->
<g id="edge21" class="edge">
<title>Node4&#45;&gt;Node17</title>
<path fill="none" stroke="midnightblue" d="M893.92,-246.48C921.37,-236.27 967.52,-219.11 998.6,-207.55"/>
<polygon fill="midnightblue" stroke="midnightblue" points="999.97,-210.78 1008.12,-204.01 997.53,-204.21 999.97,-210.78"/>
</g>
<!-- Node19 -->
<g id="node19" class="node">
<title>Node19</title>
<g id="a_node19"><a xlink:href="layout_8hpp.html" target="_top" xlink:title="Layout classes.">
<polygon fill="white" stroke="black" points="756,-123.5 756,-142.5 866,-142.5 866,-123.5 756,-123.5"/>
<text text-anchor="middle" x="811" y="-130.5" font-family="Helvetica,sans-Serif" font-size="10.00">boost/ui/layout.hpp</text>
</a>
</g>
</g>
<!-- Node4&#45;&gt;Node19 -->
<g id="edge25" class="edge">
<title>Node4&#45;&gt;Node19</title>
<path fill="none" stroke="midnightblue" d="M891.85,-246.43C906.58,-239.13 925.2,-227.09 934,-210 940.3,-197.75 941.89,-190.29 934,-179 924.8,-165.84 888.32,-153.51 857.46,-145.09"/>
<polygon fill="midnightblue" stroke="midnightblue" points="858.24,-141.68 847.68,-142.5 856.45,-148.44 858.24,-141.68"/>
</g>
<!-- Node20 -->
<g id="node20" class="node">
<title>Node20</title>
<g id="a_node20"><a xlink:title=" ">
<polygon fill="white" stroke="#bfbfbf" points="521,-179.5 521,-209.5 643,-209.5 643,-179.5 521,-179.5"/>
<text text-anchor="start" x="529" y="-197.5" font-family="Helvetica,sans-Serif" font-size="10.00">boost/ui/detail/shared</text>
<text text-anchor="middle" x="582" y="-186.5" font-family="Helvetica,sans-Serif" font-size="10.00">_count.hpp</text>
</a>
</g>
</g>
<!-- Node4&#45;&gt;Node20 -->
<g id="edge27" class="edge">
<title>Node4&#45;&gt;Node20</title>
<path fill="none" stroke="midnightblue" d="M829.42,-246.48C787.43,-237.86 720.42,-224.11 653.03,-210.21"/>
<polygon fill="midnightblue" stroke="midnightblue" points="653.58,-206.75 643.08,-208.16 652.17,-213.61 653.58,-206.75"/>
</g>
<!-- Node21 -->
<g id="node21" class="node">
<title>Node21</title>
<g id="a_node21"><a xlink:title=" ">
<polygon fill="white" stroke="#bfbfbf" points="661,-185 661,-204 799,-204 799,-185 661,-185"/>
<text text-anchor="middle" x="730" y="-192" font-family="Helvetica,sans-Serif" font-size="10.00">boost/ui/detail/event.hpp</text>
</a>
</g>
</g>
<!-- Node4&#45;&gt;Node21 -->
<g id="edge28" class="edge">
<title>Node4&#45;&gt;Node21</title>
<path fill="none" stroke="midnightblue" d="M850.8,-246.48C826.93,-236.4 787,-219.55 759.63,-208"/>
<polygon fill="midnightblue" stroke="midnightblue" points="760.74,-204.67 750.16,-204.01 758.02,-211.12 760.74,-204.67"/>
</g>
<!-- Node5&#45;&gt;Node2 -->
<g id="edge6" class="edge">
<title>Node5&#45;&gt;Node2</title>
<path fill="none" stroke="midnightblue" d="M425.81,-124.8C430.61,-124.18 435.39,-123.58 440,-123 576.32,-105.99 611.6,-110.21 747,-87 753.34,-85.91 759.99,-84.6 766.51,-83.22"/>
<polygon fill="midnightblue" stroke="midnightblue" points="767.58,-86.57 776.59,-81 766.07,-79.73 767.58,-86.57"/>
</g>
<!-- Node6 -->
<g id="node6" class="node">
<title>Node6</title>
<g id="a_node6"><a xlink:title=" ">
<polygon fill="white" stroke="#bfbfbf" points="454.5,-62 454.5,-81 567.5,-81 567.5,-62 454.5,-62"/>
<text text-anchor="middle" x="511" y="-69" font-family="Helvetica,sans-Serif" font-size="10.00">boost/geometry.hpp</text>
</a>
</g>
</g>
<!-- Node5&#45;&gt;Node6 -->
<g id="edge7" class="edge">
<title>Node5&#45;&gt;Node6</title>
<path fill="none" stroke="midnightblue" d="M391.92,-123.48C415.45,-113.4 454.81,-96.55 481.79,-85"/>
<polygon fill="midnightblue" stroke="midnightblue" points="483.31,-88.16 491.12,-81.01 480.55,-81.73 483.31,-88.16"/>
</g>
<!-- Node7 -->
<g id="node7" class="node">
<title>Node7</title>
<g id="a_node7"><a xlink:title=" ">
<polygon fill="white" stroke="#bfbfbf" points="586,-56.5 586,-86.5 738,-86.5 738,-56.5 586,-56.5"/>
<text text-anchor="start" x="594" y="-74.5" font-family="Helvetica,sans-Serif" font-size="10.00">boost/geometry/geometries</text>
<text text-anchor="middle" x="662" y="-63.5" font-family="Helvetica,sans-Serif" font-size="10.00">/point_xy.hpp</text>
</a>
</g>
</g>
<!-- Node5&#45;&gt;Node7 -->
<g id="edge8" class="edge">
<title>Node5&#45;&gt;Node7</title>
<path fill="none" stroke="midnightblue" d="M413.55,-123.48C457.78,-114.4 528.81,-99.83 583.62,-88.58"/>
<polygon fill="midnightblue" stroke="midnightblue" points="584.56,-91.96 593.65,-86.52 583.15,-85.1 584.56,-91.96"/>
</g>
<!-- Node8 -->
<g id="node8" class="node">
<title>Node8</title>
<g id="a_node8"><a xlink:title=" ">
<polygon fill="white" stroke="#bfbfbf" points="0,-56.5 0,-86.5 152,-86.5 152,-56.5 0,-56.5"/>
<text text-anchor="start" x="8" y="-74.5" font-family="Helvetica,sans-Serif" font-size="10.00">boost/geometry/geometries</text>
<text text-anchor="middle" x="76" y="-63.5" font-family="Helvetica,sans-Serif" font-size="10.00">/box.hpp</text>
</a>
</g>
</g>
<!-- Node5&#45;&gt;Node8 -->
<g id="edge9" class="edge">
<title>Node5&#45;&gt;Node8</title>
<path fill="none" stroke="midnightblue" d="M329.59,-123.48C284.35,-114.38 211.64,-99.77 155.66,-88.51"/>
<polygon fill="midnightblue" stroke="midnightblue" points="156.26,-85.06 145.76,-86.52 154.88,-91.93 156.26,-85.06"/>
</g>
<!-- Node9 -->
<g id="node9" class="node">
<title>Node9</title>
<g id="a_node9"><a xlink:title=" ">
<polygon fill="white" stroke="#bfbfbf" points="170.5,-56.5 170.5,-86.5 283.5,-86.5 283.5,-56.5 170.5,-56.5"/>
<text text-anchor="start" x="178.5" y="-74.5" font-family="Helvetica,sans-Serif" font-size="10.00">boost/polygon/point</text>
<text text-anchor="middle" x="227" y="-63.5" font-family="Helvetica,sans-Serif" font-size="10.00">_data.hpp</text>
</a>
</g>
</g>
<!-- Node5&#45;&gt;Node9 -->
<g id="edge10" class="edge">
<title>Node5&#45;&gt;Node9</title>
<path fill="none" stroke="midnightblue" d="M351.23,-123.48C330.3,-114.89 297.39,-101.38 270.69,-90.43"/>
<polygon fill="midnightblue" stroke="midnightblue" points="271.75,-87.08 261.17,-86.52 269.1,-93.56 271.75,-87.08"/>
</g>
<!-- Node10 -->
<g id="node10" class="node">
<title>Node10</title>
<g id="a_node10"><a xlink:title=" ">
<polygon fill="white" stroke="#bfbfbf" points="302,-56.5 302,-86.5 436,-86.5 436,-56.5 302,-56.5"/>
<text text-anchor="start" x="310" y="-74.5" font-family="Helvetica,sans-Serif" font-size="10.00">boost/polygon/rectangle</text>
<text text-anchor="middle" x="369" y="-63.5" font-family="Helvetica,sans-Serif" font-size="10.00">_data.hpp</text>
</a>
</g>
</g>
<!-- Node5&#45;&gt;Node10 -->
<g id="edge11" class="edge">
<title>Node5&#45;&gt;Node10</title>
<path fill="none" stroke="midnightblue" d="M371.57,-123.48C371.22,-116.47 370.7,-106.19 370.22,-96.7"/>
<polygon fill="midnightblue" stroke="midnightblue" points="373.71,-96.33 369.71,-86.52 366.72,-96.69 373.71,-96.33"/>
</g>
<!-- Node11&#45;&gt;Node2 -->
<g id="edge13" class="edge">
<title>Node11&#45;&gt;Node2</title>
<path fill="none" stroke="midnightblue" d="M1137.36,-123.6C1068.48,-112.82 949.08,-94.12 875.37,-82.58"/>
<polygon fill="midnightblue" stroke="midnightblue" points="875.71,-79.09 865.29,-81 874.63,-86.01 875.71,-79.09"/>
</g>
<!-- Node12 -->
<g id="node12" class="node">
<title>Node12</title>
<g id="a_node12"><a xlink:title=" ">
<polygon fill="white" stroke="#bfbfbf" points="1087,-62 1087,-81 1131,-81 1131,-62 1087,-62"/>
<text text-anchor="middle" x="1109" y="-69" font-family="Helvetica,sans-Serif" font-size="10.00">string</text>
</a>
</g>
</g>
<!-- Node11&#45;&gt;Node12 -->
<g id="edge14" class="edge">
<title>Node11&#45;&gt;Node12</title>
<path fill="none" stroke="midnightblue" d="M1179.25,-123.48C1166.22,-114.02 1144.96,-98.6 1129.24,-87.19"/>
<polygon fill="midnightblue" stroke="midnightblue" points="1130.88,-84.05 1120.73,-81.01 1126.77,-89.71 1130.88,-84.05"/>
</g>
<!-- Node13 -->
<g id="node13" class="node">
<title>Node13</title>
<g id="a_node13"><a xlink:title=" ">
<polygon fill="white" stroke="#bfbfbf" points="1149.5,-62 1149.5,-81 1232.5,-81 1232.5,-62 1149.5,-62"/>
<text text-anchor="middle" x="1191" y="-69" font-family="Helvetica,sans-Serif" font-size="10.00">initializer_list</text>
</a>
</g>
</g>
<!-- Node11&#45;&gt;Node13 -->
<g id="edge15" class="edge">
<title>Node11&#45;&gt;Node13</title>
<path fill="none" stroke="midnightblue" d="M1191,-123.48C1191,-115.08 1191,-101.98 1191,-91.16"/>
<polygon fill="midnightblue" stroke="midnightblue" points="1194.5,-91.01 1191,-81.01 1187.5,-91.01 1194.5,-91.01"/>
</g>
<!-- Node14 -->
<g id="node14" class="node">
<title>Node14</title>
<g id="a_node14"><a xlink:title=" ">
<polygon fill="white" stroke="#bfbfbf" points="1250.5,-62 1250.5,-81 1315.5,-81 1315.5,-62 1250.5,-62"/>
<text text-anchor="middle" x="1283" y="-69" font-family="Helvetica,sans-Serif" font-size="10.00">functional</text>
</a>
</g>
</g>
<!-- Node11&#45;&gt;Node14 -->
<g id="edge16" class="edge">
<title>Node11&#45;&gt;Node14</title>
<path fill="none" stroke="midnightblue" d="M1204.18,-123.48C1219.07,-113.84 1243.54,-98.02 1261.27,-86.55"/>
<polygon fill="midnightblue" stroke="midnightblue" points="1263.35,-89.38 1269.84,-81.01 1259.55,-83.5 1263.35,-89.38"/>
</g>
<!-- Node15&#45;&gt;Node2 -->
<g id="edge18" class="edge">
<title>Node15&#45;&gt;Node2</title>
<path fill="none" stroke="midnightblue" d="M839.19,-184.93C806.12,-175.29 757.7,-158.91 747,-143 732.42,-121.32 760.23,-99.54 783.65,-86.05"/>
<polygon fill="midnightblue" stroke="midnightblue" points="785.54,-89 792.63,-81.13 782.18,-82.86 785.54,-89"/>
</g>
<!-- Node15&#45;&gt;Node5 -->
<g id="edge19" class="edge">
<title>Node15&#45;&gt;Node5</title>
<path fill="none" stroke="midnightblue" d="M837.48,-184.98C827.99,-182.79 817.63,-180.6 808,-179 676.53,-157.17 520.89,-144.15 435.68,-138.1"/>
<polygon fill="midnightblue" stroke="midnightblue" points="435.86,-134.6 425.64,-137.4 435.37,-141.59 435.86,-134.6"/>
</g>
<!-- Node16 -->
<g id="node16" class="node">
<title>Node16</title>
<g id="a_node16"><a xlink:title=" ">
<polygon fill="white" stroke="#bfbfbf" points="592.5,-123.5 592.5,-142.5 699.5,-142.5 699.5,-123.5 592.5,-123.5"/>
<text text-anchor="middle" x="646" y="-130.5" font-family="Helvetica,sans-Serif" font-size="10.00">boost/function.hpp</text>
</a>
</g>
</g>
<!-- Node15&#45;&gt;Node16 -->
<g id="edge20" class="edge">
<title>Node15&#45;&gt;Node16</title>
<path fill="none" stroke="midnightblue" d="M838.76,-184.98C799.08,-174.48 731.6,-156.64 687.93,-145.09"/>
<polygon fill="midnightblue" stroke="midnightblue" points="688.74,-141.68 678.18,-142.51 686.95,-148.45 688.74,-141.68"/>
</g>
<!-- Node17&#45;&gt;Node2 -->
<g id="edge22" class="edge">
<title>Node17&#45;&gt;Node2</title>
<path fill="none" stroke="midnightblue" d="M1038.41,-184.72C1049.61,-170.34 1068.04,-141.51 1053,-123 1031.09,-96.05 940.17,-82.99 876.24,-77.03"/>
<polygon fill="midnightblue" stroke="midnightblue" points="876.5,-73.54 866.23,-76.14 875.88,-80.51 876.5,-73.54"/>
</g>
<!-- Node17&#45;&gt;Node11 -->
<g id="edge23" class="edge">
<title>Node17&#45;&gt;Node11</title>
<path fill="none" stroke="midnightblue" d="M1053.92,-184.98C1081.37,-174.77 1127.52,-157.61 1158.6,-146.05"/>
<polygon fill="midnightblue" stroke="midnightblue" points="1159.97,-149.28 1168.12,-142.51 1157.53,-142.71 1159.97,-149.28"/>
</g>
<!-- Node18 -->
<g id="node18" class="node">
<title>Node18</title>
<g id="a_node18"><a xlink:title=" ">
<polygon fill="white" stroke="#bfbfbf" points="884.5,-123.5 884.5,-142.5 1043.5,-142.5 1043.5,-123.5 884.5,-123.5"/>
<text text-anchor="middle" x="964" y="-130.5" font-family="Helvetica,sans-Serif" font-size="10.00">boost/core/scoped_enum.hpp</text>
</a>
</g>
</g>
<!-- Node17&#45;&gt;Node18 -->
<g id="edge24" class="edge">
<title>Node17&#45;&gt;Node18</title>
<path fill="none" stroke="midnightblue" d="M1021.4,-184.98C1010.95,-175.7 994.03,-160.67 981.26,-149.33"/>
<polygon fill="midnightblue" stroke="midnightblue" points="983.38,-146.53 973.58,-142.51 978.73,-151.77 983.38,-146.53"/>
</g>
<!-- Node19&#45;&gt;Node2 -->
<g id="edge26" class="edge">
<title>Node19&#45;&gt;Node2</title>
<path fill="none" stroke="midnightblue" d="M811,-123.48C811,-115.08 811,-101.98 811,-91.16"/>
<polygon fill="midnightblue" stroke="midnightblue" points="814.5,-91.01 811,-81.01 807.5,-91.01 814.5,-91.01"/>
</g>
<!-- Node22&#45;&gt;Node2 -->
<g id="edge30" class="edge">
<title>Node22&#45;&gt;Node2</title>
<path fill="none" stroke="midnightblue" d="M381.67,-184.81C399.35,-169.46 438.7,-137.79 478,-123 590.89,-80.51 628.28,-108.35 747,-87 753.18,-85.89 759.67,-84.58 766.04,-83.22"/>
<polygon fill="midnightblue" stroke="midnightblue" points="766.89,-86.62 775.91,-81.05 765.39,-79.78 766.89,-86.62"/>
</g>
<!-- Node22&#45;&gt;Node5 -->
<g id="edge31" class="edge">
<title>Node22&#45;&gt;Node5</title>
<path fill="none" stroke="midnightblue" d="M372,-184.98C372,-176.58 372,-163.48 372,-152.66"/>
<polygon fill="midnightblue" stroke="midnightblue" points="375.5,-152.51 372,-142.51 368.5,-152.51 375.5,-152.51"/>
</g>
<!-- Node23 -->
<g id="node23" class="node">
<title>Node23</title>
<g id="a_node23"><a xlink:title=" ">
<polygon fill="white" stroke="#bfbfbf" points="246,-123.5 246,-142.5 300,-142.5 300,-123.5 246,-123.5"/>
<text text-anchor="middle" x="273" y="-130.5" font-family="Helvetica,sans-Serif" font-size="10.00">istream</text>
</a>
</g>
</g>
<!-- Node22&#45;&gt;Node23 -->
<g id="edge32" class="edge">
<title>Node22&#45;&gt;Node23</title>
<path fill="none" stroke="midnightblue" d="M357.82,-184.98C341.64,-175.25 314.97,-159.23 295.86,-147.74"/>
<polygon fill="midnightblue" stroke="midnightblue" points="297.53,-144.66 287.16,-142.51 293.93,-150.66 297.53,-144.66"/>
</g>
</g>
</svg>
