<?xml version="1.0" encoding="UTF-8" standalone="no"?>
<!DOCTYPE svg PUBLIC "-//W3C//DTD SVG 1.1//EN"
 "http://www.w3.org/Graphics/SVG/1.1/DTD/svg11.dtd">
<!-- Generated by graphviz version 2.38.0 (20140413.2041)
 -->
<!-- Title: boost/ui/image.hpp Pages: 1 -->
<svg width="792pt" height="207pt"
 viewBox="0.00 0.00 791.50 207.00" xmlns="http://www.w3.org/2000/svg" xmlns:xlink="http://www.w3.org/1999/xlink">
<g id="graph0" class="graph" transform="scale(1 1) rotate(0) translate(4 203)">
<title>boost/ui/image.hpp</title>
<polygon fill="white" stroke="none" points="-4,4 -4,-203 787.5,-203 787.5,4 -4,4"/>
<!-- Node1 -->
<g id="node1" class="node"><title>Node1</title>
<polygon fill="#bfbfbf" stroke="black" points="256,-179.5 256,-198.5 355,-198.5 355,-179.5 256,-179.5"/>
<text text-anchor="middle" x="305.5" y="-186.5" font-family="Helvetica,sans-Serif" font-size="10.00">boost/ui/image.hpp</text>
</g>
<!-- Node2 -->
<g id="node2" class="node"><title>Node2</title>
<g id="a_node2"><a xlink:href="config_8hpp.html" target="_top" xlink:title="Configuration options. ">
<polygon fill="white" stroke="black" points="0,-62 0,-81 99,-81 99,-62 0,-62"/>
<text text-anchor="middle" x="49.5" y="-69" font-family="Helvetica,sans-Serif" font-size="10.00">boost/ui/config.hpp</text>
</a>
</g>
</g>
<!-- Node1&#45;&gt;Node2 -->
<g id="edge1" class="edge"><title>Node1&#45;&gt;Node2</title>
<path fill="none" stroke="midnightblue" d="M286.258,-179.319C241.579,-159.161 130.619,-109.099 78.0242,-85.3693"/>
<polygon fill="midnightblue" stroke="midnightblue" points="79.1703,-82.0467 68.6157,-81.1245 76.2915,-88.4274 79.1703,-82.0467"/>
</g>
<!-- Node4 -->
<g id="node4" class="node"><title>Node4</title>
<g id="a_node4"><a xlink:href="coord_8hpp.html" target="_top" xlink:title="Coordinates classes. ">
<polygon fill="white" stroke="black" points="257,-123.5 257,-142.5 354,-142.5 354,-123.5 257,-123.5"/>
<text text-anchor="middle" x="305.5" y="-130.5" font-family="Helvetica,sans-Serif" font-size="10.00">boost/ui/coord.hpp</text>
</a>
</g>
</g>
<!-- Node1&#45;&gt;Node4 -->
<g id="edge3" class="edge"><title>Node1&#45;&gt;Node4</title>
<path fill="none" stroke="midnightblue" d="M305.5,-179.083C305.5,-172.006 305.5,-161.861 305.5,-152.986"/>
<polygon fill="midnightblue" stroke="midnightblue" points="309,-152.751 305.5,-142.751 302,-152.751 309,-152.751"/>
</g>
<!-- Node10 -->
<g id="node10" class="node"><title>Node10</title>
<polygon fill="white" stroke="#bfbfbf" points="372,-123.5 372,-142.5 421,-142.5 421,-123.5 372,-123.5"/>
<text text-anchor="middle" x="396.5" y="-130.5" font-family="Helvetica,sans-Serif" font-size="10.00">istream</text>
</g>
<!-- Node1&#45;&gt;Node10 -->
<g id="edge10" class="edge"><title>Node1&#45;&gt;Node10</title>
<path fill="none" stroke="midnightblue" d="M320.121,-179.324C334.449,-170.822 356.513,-157.729 373.249,-147.797"/>
<polygon fill="midnightblue" stroke="midnightblue" points="375.102,-150.768 381.916,-142.655 371.53,-144.748 375.102,-150.768"/>
</g>
<!-- Node3 -->
<g id="node3" class="node"><title>Node3</title>
<polygon fill="white" stroke="#bfbfbf" points="5,-0.5 5,-19.5 94,-19.5 94,-0.5 5,-0.5"/>
<text text-anchor="middle" x="49.5" y="-7.5" font-family="Helvetica,sans-Serif" font-size="10.00">boost/config.hpp</text>
</g>
<!-- Node2&#45;&gt;Node3 -->
<g id="edge2" class="edge"><title>Node2&#45;&gt;Node3</title>
<path fill="none" stroke="midnightblue" d="M49.5,-61.9751C49.5,-53.5803 49.5,-40.4806 49.5,-29.6631"/>
<polygon fill="midnightblue" stroke="midnightblue" points="53.0001,-29.5091 49.5,-19.5091 46.0001,-29.5091 53.0001,-29.5091"/>
</g>
<!-- Node4&#45;&gt;Node2 -->
<g id="edge4" class="edge"><title>Node4&#45;&gt;Node2</title>
<path fill="none" stroke="midnightblue" d="M266.744,-123.45C226.786,-114.575 162.705,-100.172 107.5,-87 102.824,-85.8844 97.9422,-84.6978 93.0813,-83.5025"/>
<polygon fill="midnightblue" stroke="midnightblue" points="93.7546,-80.0636 83.2064,-81.0567 92.0717,-86.8583 93.7546,-80.0636"/>
</g>
<!-- Node5 -->
<g id="node5" class="node"><title>Node5</title>
<polygon fill="white" stroke="#bfbfbf" points="117,-62 117,-81 220,-81 220,-62 117,-62"/>
<text text-anchor="middle" x="168.5" y="-69" font-family="Helvetica,sans-Serif" font-size="10.00">boost/geometry.hpp</text>
</g>
<!-- Node4&#45;&gt;Node5 -->
<g id="edge5" class="edge"><title>Node4&#45;&gt;Node5</title>
<path fill="none" stroke="midnightblue" d="M285.871,-123.475C262.676,-113.401 223.881,-96.5525 197.287,-85.0023"/>
<polygon fill="midnightblue" stroke="midnightblue" points="198.659,-81.7824 188.092,-81.0091 195.87,-88.203 198.659,-81.7824"/>
</g>
<!-- Node6 -->
<g id="node6" class="node"><title>Node6</title>
<polygon fill="white" stroke="#bfbfbf" points="238,-56.5 238,-86.5 373,-86.5 373,-56.5 238,-56.5"/>
<text text-anchor="start" x="246" y="-74.5" font-family="Helvetica,sans-Serif" font-size="10.00">boost/geometry/geometries</text>
<text text-anchor="middle" x="305.5" y="-63.5" font-family="Helvetica,sans-Serif" font-size="10.00">/point_xy.hpp</text>
</g>
<!-- Node4&#45;&gt;Node6 -->
<g id="edge6" class="edge"><title>Node4&#45;&gt;Node6</title>
<path fill="none" stroke="midnightblue" d="M305.5,-123.475C305.5,-116.471 305.5,-106.192 305.5,-96.6956"/>
<polygon fill="midnightblue" stroke="midnightblue" points="309,-96.5229 305.5,-86.523 302,-96.523 309,-96.5229"/>
</g>
<!-- Node7 -->
<g id="node7" class="node"><title>Node7</title>
<polygon fill="white" stroke="#bfbfbf" points="391,-56.5 391,-86.5 526,-86.5 526,-56.5 391,-56.5"/>
<text text-anchor="start" x="399" y="-74.5" font-family="Helvetica,sans-Serif" font-size="10.00">boost/geometry/geometries</text>
<text text-anchor="middle" x="458.5" y="-63.5" font-family="Helvetica,sans-Serif" font-size="10.00">/box.hpp</text>
</g>
<!-- Node4&#45;&gt;Node7 -->
<g id="edge7" class="edge"><title>Node4&#45;&gt;Node7</title>
<path fill="none" stroke="midnightblue" d="M327.421,-123.475C349.595,-114.852 384.535,-101.264 412.767,-90.2852"/>
<polygon fill="midnightblue" stroke="midnightblue" points="414.389,-93.4095 422.441,-86.523 411.852,-86.8855 414.389,-93.4095"/>
</g>
<!-- Node8 -->
<g id="node8" class="node"><title>Node8</title>
<polygon fill="white" stroke="#bfbfbf" points="544,-56.5 544,-86.5 645,-86.5 645,-56.5 544,-56.5"/>
<text text-anchor="start" x="552" y="-74.5" font-family="Helvetica,sans-Serif" font-size="10.00">boost/polygon/point</text>
<text text-anchor="middle" x="594.5" y="-63.5" font-family="Helvetica,sans-Serif" font-size="10.00">_data.hpp</text>
</g>
<!-- Node4&#45;&gt;Node8 -->
<g id="edge8" class="edge"><title>Node4&#45;&gt;Node8</title>
<path fill="none" stroke="midnightblue" d="M352.77,-123.435C397.179,-115.234 465.723,-102.186 533.67,-87.3524"/>
<polygon fill="midnightblue" stroke="midnightblue" points="534.671,-90.7159 543.687,-85.1512 533.169,-83.879 534.671,-90.7159"/>
</g>
<!-- Node9 -->
<g id="node9" class="node"><title>Node9</title>
<polygon fill="white" stroke="#bfbfbf" points="663.5,-56.5 663.5,-86.5 783.5,-86.5 783.5,-56.5 663.5,-56.5"/>
<text text-anchor="start" x="671.5" y="-74.5" font-family="Helvetica,sans-Serif" font-size="10.00">boost/polygon/rectangle</text>
<text text-anchor="middle" x="723.5" y="-63.5" font-family="Helvetica,sans-Serif" font-size="10.00">_data.hpp</text>
</g>
<!-- Node4&#45;&gt;Node9 -->
<g id="edge9" class="edge"><title>Node4&#45;&gt;Node9</title>
<path fill="none" stroke="midnightblue" d="M354.218,-124.329C357.358,-123.869 360.472,-123.422 363.5,-123 489.42,-105.446 524.266,-108.265 653.466,-87.0876"/>
<polygon fill="midnightblue" stroke="midnightblue" points="654.052,-90.5383 663.346,-85.4519 652.908,-83.6323 654.052,-90.5383"/>
</g>
</g>
</svg>
