<?xml version="1.0" encoding="UTF-8" standalone="no"?>
<!DOCTYPE svg PUBLIC "-//W3C//DTD SVG 1.1//EN"
 "http://www.w3.org/Graphics/SVG/1.1/DTD/svg11.dtd">
<!-- Generated by graphviz version 2.38.0 (20140413.2041)
 -->
<!-- Title: boost/ui/image_widget.hpp Pages: 1 -->
<svg width="4288pt" height="341pt"
 viewBox="0.00 0.00 4287.84 341.00" xmlns="http://www.w3.org/2000/svg" xmlns:xlink="http://www.w3.org/1999/xlink">
<g id="graph0" class="graph" transform="scale(1 1) rotate(0) translate(4 337)">
<title>boost/ui/image_widget.hpp</title>
<polygon fill="white" stroke="none" points="-4,4 -4,-337 4283.84,-337 4283.84,4 -4,4"/>
<!-- Node1 -->
<g id="node1" class="node"><title>Node1</title>
<polygon fill="#bfbfbf" stroke="black" points="1755,-313.5 1755,-332.5 1888,-332.5 1888,-313.5 1755,-313.5"/>
<text text-anchor="middle" x="1821.5" y="-320.5" font-family="Helvetica,sans-Serif" font-size="10.00">boost/ui/image_widget.hpp</text>
</g>
<!-- Node2 -->
<g id="node2" class="node"><title>Node2</title>
<g id="a_node2"><a xlink:href="config_8hpp.html" target="_top" xlink:title="Configuration options. ">
<polygon fill="white" stroke="black" points="1702,-62 1702,-81 1801,-81 1801,-62 1702,-62"/>
<text text-anchor="middle" x="1751.5" y="-69" font-family="Helvetica,sans-Serif" font-size="10.00">boost/ui/config.hpp</text>
</a>
</g>
</g>
<!-- Node1&#45;&gt;Node2 -->
<g id="edge1" class="edge"><title>Node1&#45;&gt;Node2</title>
<path fill="none" stroke="midnightblue" d="M1888.28,-321.822C2272.33,-320.481 4185.7,-309.369 4270.5,-221 4283.42,-207.531 4282.31,-193.456 4270.5,-179 4191.59,-82.4025 4119.45,-136.903 3995.5,-123 3554.44,-73.53 2121.63,-72.1137 1811.18,-72.4023"/>
<polygon fill="midnightblue" stroke="midnightblue" points="1811.04,-68.9024 1801.04,-72.4128 1811.05,-75.9024 1811.04,-68.9024"/>
</g>
<!-- Node4 -->
<g id="node4" class="node"><title>Node4</title>
<g id="a_node4"><a xlink:href="widget_8hpp.html" target="_top" xlink:title="Widget class. ">
<polygon fill="white" stroke="red" points="1771,-257.5 1771,-276.5 1872,-276.5 1872,-257.5 1771,-257.5"/>
<text text-anchor="middle" x="1821.5" y="-264.5" font-family="Helvetica,sans-Serif" font-size="10.00">boost/ui/widget.hpp</text>
</a>
</g>
</g>
<!-- Node1&#45;&gt;Node4 -->
<g id="edge3" class="edge"><title>Node1&#45;&gt;Node4</title>
<path fill="none" stroke="midnightblue" d="M1821.5,-313.083C1821.5,-306.006 1821.5,-295.861 1821.5,-286.986"/>
<polygon fill="midnightblue" stroke="midnightblue" points="1825,-286.751 1821.5,-276.751 1818,-286.751 1825,-286.751"/>
</g>
<!-- Node50 -->
<g id="node50" class="node"><title>Node50</title>
<g id="a_node50"><a xlink:href="image_8hpp.html" target="_top" xlink:title="Image class. ">
<polygon fill="white" stroke="red" points="884,-190.5 884,-209.5 983,-209.5 983,-190.5 884,-190.5"/>
<text text-anchor="middle" x="933.5" y="-197.5" font-family="Helvetica,sans-Serif" font-size="10.00">boost/ui/image.hpp</text>
</a>
</g>
</g>
<!-- Node1&#45;&gt;Node50 -->
<g id="edge76" class="edge"><title>Node1&#45;&gt;Node50</title>
<path fill="none" stroke="midnightblue" d="M1754.88,-319.223C1612.27,-312.131 1267.64,-288.845 987.5,-221 979.302,-219.014 970.642,-216.165 962.715,-213.237"/>
<polygon fill="midnightblue" stroke="midnightblue" points="963.745,-209.883 953.156,-209.545 961.223,-216.413 963.745,-209.883"/>
</g>
<!-- Node3 -->
<g id="node3" class="node"><title>Node3</title>
<polygon fill="white" stroke="#bfbfbf" points="1479,-0.5 1479,-19.5 1568,-19.5 1568,-0.5 1479,-0.5"/>
<text text-anchor="middle" x="1523.5" y="-7.5" font-family="Helvetica,sans-Serif" font-size="10.00">boost/config.hpp</text>
</g>
<!-- Node2&#45;&gt;Node3 -->
<g id="edge2" class="edge"><title>Node2&#45;&gt;Node3</title>
<path fill="none" stroke="midnightblue" d="M1718.83,-61.9751C1678.62,-51.4815 1610.24,-33.6367 1565.98,-22.087"/>
<polygon fill="midnightblue" stroke="midnightblue" points="1566.67,-18.6477 1556.11,-19.5091 1564.9,-25.4208 1566.67,-18.6477"/>
</g>
<!-- Node4&#45;&gt;Node2 -->
<g id="edge4" class="edge"><title>Node4&#45;&gt;Node2</title>
<path fill="none" stroke="midnightblue" d="M1872.14,-266.037C2217.14,-266.168 4209.29,-265.02 4252.5,-221 4265.58,-207.679 4265.4,-192.49 4252.5,-179 4165.41,-87.9354 2182.93,-74.4601 1811.25,-72.732"/>
<polygon fill="midnightblue" stroke="midnightblue" points="1811.25,-69.2321 1801.24,-72.6865 1811.22,-76.232 1811.25,-69.2321"/>
</g>
<!-- Node4&#45;&gt;Node3 -->
<g id="edge56" class="edge"><title>Node4&#45;&gt;Node3</title>
<path fill="none" stroke="midnightblue" d="M1770.88,-265.004C1653.76,-262.175 1371.87,-252.167 1343.5,-221 1234.93,-101.725 1483.67,-106.791 1503.5,-87 1518.49,-72.0443 1522.65,-47.2924 1523.61,-30.1172"/>
<polygon fill="midnightblue" stroke="midnightblue" points="1527.12,-29.7294 1523.85,-19.6507 1520.12,-29.5666 1527.12,-29.7294"/>
</g>
<!-- Node5 -->
<g id="node5" class="node"><title>Node5</title>
<g id="a_node5"><a xlink:href="coord_8hpp.html" target="_top" xlink:title="Coordinates classes. ">
<polygon fill="white" stroke="red" points="885,-123.5 885,-142.5 982,-142.5 982,-123.5 885,-123.5"/>
<text text-anchor="middle" x="933.5" y="-130.5" font-family="Helvetica,sans-Serif" font-size="10.00">boost/ui/coord.hpp</text>
</a>
</g>
</g>
<!-- Node4&#45;&gt;Node5 -->
<g id="edge5" class="edge"><title>Node4&#45;&gt;Node5</title>
<path fill="none" stroke="midnightblue" d="M1770.96,-265.126C1607.94,-262.03 1102.65,-250.16 1035.5,-221 1010.7,-210.232 1011.98,-196.642 991.5,-179 979.188,-168.396 964.752,-157.192 953.363,-148.616"/>
<polygon fill="midnightblue" stroke="midnightblue" points="955.441,-145.8 945.333,-142.624 951.255,-151.41 955.441,-145.8"/>
</g>
<!-- Node6 -->
<g id="node6" class="node"><title>Node6</title>
<polygon fill="white" stroke="#bfbfbf" points="0,-62 0,-81 49,-81 49,-62 0,-62"/>
<text text-anchor="middle" x="24.5" y="-69" font-family="Helvetica,sans-Serif" font-size="10.00">cstddef</text>
</g>
<!-- Node4&#45;&gt;Node6 -->
<g id="edge69" class="edge"><title>Node4&#45;&gt;Node6</title>
<path fill="none" stroke="midnightblue" d="M1770.78,-265.842C1523.7,-264.889 452.305,-258.603 308.5,-221 201.234,-192.951 88.8812,-118.591 44.3547,-87.0124"/>
<polygon fill="midnightblue" stroke="midnightblue" points="46.3081,-84.1062 36.1416,-81.124 42.2294,-89.7952 46.3081,-84.1062"/>
</g>
<!-- Node7 -->
<g id="node7" class="node"><title>Node7</title>
<polygon fill="white" stroke="#bfbfbf" points="67,-62 67,-81 156,-81 156,-62 67,-62"/>
<text text-anchor="middle" x="111.5" y="-69" font-family="Helvetica,sans-Serif" font-size="10.00">boost/assert.hpp</text>
</g>
<!-- Node4&#45;&gt;Node7 -->
<g id="edge64" class="edge"><title>Node4&#45;&gt;Node7</title>
<path fill="none" stroke="midnightblue" d="M1770.99,-265.575C1536.62,-263.443 560.859,-252.717 428.5,-221 310.237,-192.661 183.174,-117.893 133.325,-86.5943"/>
<polygon fill="midnightblue" stroke="midnightblue" points="134.991,-83.5069 124.672,-81.1084 131.243,-89.4189 134.991,-83.5069"/>
</g>
<!-- Node8 -->
<g id="node8" class="node"><title>Node8</title>
<polygon fill="white" stroke="#bfbfbf" points="174,-62 174,-81 313,-81 313,-62 174,-62"/>
<text text-anchor="middle" x="243.5" y="-69" font-family="Helvetica,sans-Serif" font-size="10.00">boost/detail/workaround.hpp</text>
</g>
<!-- Node4&#45;&gt;Node8 -->
<g id="edge50" class="edge"><title>Node4&#45;&gt;Node8</title>
<path fill="none" stroke="midnightblue" d="M1770.65,-265.593C1545.55,-263.61 644.423,-253.679 522.5,-221 468.39,-206.497 323.103,-120.657 266.51,-86.5043"/>
<polygon fill="midnightblue" stroke="midnightblue" points="267.981,-83.3034 257.614,-81.1198 264.356,-89.292 267.981,-83.3034"/>
</g>
<!-- Node9 -->
<g id="node9" class="node"><title>Node9</title>
<polygon fill="white" stroke="#bfbfbf" points="331.5,-62 331.5,-81 387.5,-81 387.5,-62 331.5,-62"/>
<text text-anchor="middle" x="359.5" y="-69" font-family="Helvetica,sans-Serif" font-size="10.00">algorithm</text>
</g>
<!-- Node4&#45;&gt;Node9 -->
<g id="edge53" class="edge"><title>Node4&#45;&gt;Node9</title>
<path fill="none" stroke="midnightblue" d="M1770.7,-265.777C1553.87,-264.601 711.885,-257.692 599.5,-221 525.558,-196.859 521.156,-163.089 454.5,-123 431.906,-109.412 405.346,-95.455 386.063,-85.6674"/>
<polygon fill="midnightblue" stroke="midnightblue" points="387.472,-82.4582 376.966,-81.0854 384.323,-88.7099 387.472,-82.4582"/>
</g>
<!-- Node10 -->
<g id="node10" class="node"><title>Node10</title>
<polygon fill="white" stroke="#bfbfbf" points="405.5,-62 405.5,-81 457.5,-81 457.5,-62 405.5,-62"/>
<text text-anchor="middle" x="431.5" y="-69" font-family="Helvetica,sans-Serif" font-size="10.00">memory</text>
</g>
<!-- Node4&#45;&gt;Node10 -->
<g id="edge62" class="edge"><title>Node4&#45;&gt;Node10</title>
<path fill="none" stroke="midnightblue" d="M1770.83,-265.898C1561.22,-265.222 768.032,-260.083 663.5,-221 598.355,-196.643 600.663,-159.564 541.5,-123 527.349,-114.254 488.625,-97.0094 461.137,-85.1239"/>
<polygon fill="midnightblue" stroke="midnightblue" points="462.51,-81.9047 451.941,-81.1661 459.743,-88.3344 462.51,-81.9047"/>
</g>
<!-- Node11 -->
<g id="node11" class="node"><title>Node11</title>
<polygon fill="white" stroke="#bfbfbf" points="475.5,-56.5 475.5,-86.5 575.5,-86.5 575.5,-56.5 475.5,-56.5"/>
<text text-anchor="start" x="483.5" y="-74.5" font-family="Helvetica,sans-Serif" font-size="10.00">boost/preprocessor</text>
<text text-anchor="middle" x="525.5" y="-63.5" font-family="Helvetica,sans-Serif" font-size="10.00">/cat.hpp</text>
</g>
<!-- Node4&#45;&gt;Node11 -->
<g id="edge46" class="edge"><title>Node4&#45;&gt;Node11</title>
<path fill="none" stroke="midnightblue" d="M1770.93,-265.663C1569.8,-264.083 832.706,-255.941 734.5,-221 665.996,-196.627 663.163,-164.56 603.5,-123 588.372,-112.462 571.207,-101.269 556.838,-92.1058"/>
<polygon fill="midnightblue" stroke="midnightblue" points="558.615,-89.0881 548.296,-86.6865 554.865,-94.999 558.615,-89.0881"/>
</g>
<!-- Node12 -->
<g id="node12" class="node"><title>Node12</title>
<polygon fill="white" stroke="#bfbfbf" points="1436,-62 1436,-81 1495,-81 1495,-62 1436,-62"/>
<text text-anchor="middle" x="1465.5" y="-69" font-family="Helvetica,sans-Serif" font-size="10.00">functional</text>
</g>
<!-- Node4&#45;&gt;Node12 -->
<g id="edge32" class="edge"><title>Node4&#45;&gt;Node12</title>
<path fill="none" stroke="midnightblue" d="M1770.8,-265.74C1639.73,-264.541 1297.52,-257.877 1263.5,-221 1233.97,-188.988 1236.22,-156.957 1263.5,-123 1309.96,-65.1587 1355.34,-107.978 1426.5,-87 1429.14,-86.2226 1431.85,-85.3558 1434.56,-84.4434"/>
<polygon fill="midnightblue" stroke="midnightblue" points="1435.97,-87.659 1444.22,-81.0175 1433.63,-81.0616 1435.97,-87.659"/>
</g>
<!-- Node13 -->
<g id="node13" class="node"><title>Node13</title>
<polygon fill="white" stroke="#bfbfbf" points="593.5,-56.5 593.5,-86.5 693.5,-86.5 693.5,-56.5 593.5,-56.5"/>
<text text-anchor="start" x="601.5" y="-74.5" font-family="Helvetica,sans-Serif" font-size="10.00">boost/preprocessor</text>
<text text-anchor="middle" x="643.5" y="-63.5" font-family="Helvetica,sans-Serif" font-size="10.00">/arithmetic/dec.hpp</text>
</g>
<!-- Node4&#45;&gt;Node13 -->
<g id="edge42" class="edge"><title>Node4&#45;&gt;Node13</title>
<path fill="none" stroke="midnightblue" d="M1770.67,-265.822C1576.93,-264.865 891.119,-258.811 801.5,-221 737.823,-194.134 684.216,-129.426 658.987,-94.971"/>
<polygon fill="midnightblue" stroke="midnightblue" points="661.589,-92.5933 652.916,-86.5076 655.9,-96.6734 661.589,-92.5933"/>
</g>
<!-- Node14 -->
<g id="node14" class="node"><title>Node14</title>
<polygon fill="white" stroke="#bfbfbf" points="711.5,-56.5 711.5,-86.5 811.5,-86.5 811.5,-56.5 711.5,-56.5"/>
<text text-anchor="start" x="719.5" y="-74.5" font-family="Helvetica,sans-Serif" font-size="10.00">boost/preprocessor</text>
<text text-anchor="middle" x="761.5" y="-63.5" font-family="Helvetica,sans-Serif" font-size="10.00">/tuple/elem.hpp</text>
</g>
<!-- Node4&#45;&gt;Node14 -->
<g id="edge49" class="edge"><title>Node4&#45;&gt;Node14</title>
<path fill="none" stroke="midnightblue" d="M1770.92,-266.486C1582.16,-267.917 925.619,-269.348 846.5,-221 800.787,-193.066 777.297,-130.792 767.406,-96.4243"/>
<polygon fill="midnightblue" stroke="midnightblue" points="770.769,-95.4517 764.763,-86.7232 764.015,-97.2916 770.769,-95.4517"/>
</g>
<!-- Node15 -->
<g id="node15" class="node"><title>Node15</title>
<polygon fill="white" stroke="#bfbfbf" points="829.5,-62 829.5,-81 869.5,-81 869.5,-62 829.5,-62"/>
<text text-anchor="middle" x="849.5" y="-69" font-family="Helvetica,sans-Serif" font-size="10.00">limits</text>
</g>
<!-- Node4&#45;&gt;Node15 -->
<g id="edge71" class="edge"><title>Node4&#45;&gt;Node15</title>
<path fill="none" stroke="midnightblue" d="M1770.97,-265.34C1579.58,-262.616 908.261,-250.956 874.5,-221 837.75,-188.392 841.483,-123.637 846.067,-91.5019"/>
<polygon fill="midnightblue" stroke="midnightblue" points="849.582,-91.6886 847.721,-81.2586 842.672,-90.5727 849.582,-91.6886"/>
</g>
<!-- Node16 -->
<g id="node16" class="node"><title>Node16</title>
<polygon fill="white" stroke="#bfbfbf" points="925.5,-62 925.5,-81 1011.5,-81 1011.5,-62 925.5,-62"/>
<text text-anchor="middle" x="968.5" y="-69" font-family="Helvetica,sans-Serif" font-size="10.00">boost/limits.hpp</text>
</g>
<!-- Node4&#45;&gt;Node16 -->
<g id="edge70" class="edge"><title>Node4&#45;&gt;Node16</title>
<path fill="none" stroke="midnightblue" d="M1770.93,-264.876C1618.91,-261.208 1172.79,-248.22 1113.5,-221 1050.31,-191.991 1000,-122.349 979.055,-89.8059"/>
<polygon fill="midnightblue" stroke="midnightblue" points="982.011,-87.9314 973.725,-81.3279 976.084,-91.6568 982.011,-87.9314"/>
</g>
<!-- Node17 -->
<g id="node17" class="node"><title>Node17</title>
<polygon fill="white" stroke="#bfbfbf" points="1029.5,-62 1029.5,-81 1077.5,-81 1077.5,-62 1029.5,-62"/>
<text text-anchor="middle" x="1053.5" y="-69" font-family="Helvetica,sans-Serif" font-size="10.00">limits.h</text>
</g>
<!-- Node4&#45;&gt;Node17 -->
<g id="edge73" class="edge"><title>Node4&#45;&gt;Node17</title>
<path fill="none" stroke="midnightblue" d="M1770.76,-264.914C1626.19,-261.487 1219.17,-249.398 1166.5,-221 1111.95,-191.59 1075.83,-123.213 1061.05,-90.5274"/>
<polygon fill="midnightblue" stroke="midnightblue" points="1064.22,-89.029 1057.01,-81.2641 1057.8,-91.8292 1064.22,-89.029"/>
</g>
<!-- Node18 -->
<g id="node18" class="node"><title>Node18</title>
<polygon fill="white" stroke="#bfbfbf" points="1096,-62 1096,-81 1155,-81 1155,-62 1096,-62"/>
<text text-anchor="middle" x="1125.5" y="-69" font-family="Helvetica,sans-Serif" font-size="10.00">stdexcept</text>
</g>
<!-- Node4&#45;&gt;Node18 -->
<g id="edge61" class="edge"><title>Node4&#45;&gt;Node18</title>
<path fill="none" stroke="midnightblue" d="M1770.64,-264.951C1632.64,-261.729 1258.35,-250.355 1211.5,-221 1163.62,-191.001 1139.49,-123.956 1130.19,-91.2142"/>
<polygon fill="midnightblue" stroke="midnightblue" points="1133.47,-89.9363 1127.51,-81.1804 1126.71,-91.7453 1133.47,-89.9363"/>
</g>
<!-- Node19 -->
<g id="node19" class="node"><title>Node19</title>
<polygon fill="white" stroke="#bfbfbf" points="1552,-62 1552,-81 1593,-81 1593,-62 1552,-62"/>
<text text-anchor="middle" x="1572.5" y="-69" font-family="Helvetica,sans-Serif" font-size="10.00">string</text>
</g>
<!-- Node4&#45;&gt;Node19 -->
<g id="edge30" class="edge"><title>Node4&#45;&gt;Node19</title>
<path fill="none" stroke="midnightblue" d="M1770.99,-264.817C1657.03,-261.628 1387.68,-250.966 1360.5,-221 1329.9,-187.262 1354.5,-150.913 1390.5,-123 1443.66,-81.7817 1473.58,-107.933 1537.5,-87 1539.63,-86.3015 1541.82,-85.5316 1544.01,-84.7217"/>
<polygon fill="midnightblue" stroke="midnightblue" points="1545.42,-87.9284 1553.44,-81.0126 1542.86,-81.4137 1545.42,-87.9284"/>
</g>
<!-- Node20 -->
<g id="node20" class="node"><title>Node20</title>
<polygon fill="white" stroke="#bfbfbf" points="1173.5,-62 1173.5,-81 1307.5,-81 1307.5,-62 1173.5,-62"/>
<text text-anchor="middle" x="1240.5" y="-69" font-family="Helvetica,sans-Serif" font-size="10.00">boost/throw_exception.hpp</text>
</g>
<!-- Node4&#45;&gt;Node20 -->
<g id="edge55" class="edge"><title>Node4&#45;&gt;Node20</title>
<path fill="none" stroke="midnightblue" d="M1770.97,-265.973C1634.92,-265.377 1268.74,-260.119 1232.5,-221 1199.39,-185.267 1219.43,-121.544 1232.26,-90.4972"/>
<polygon fill="midnightblue" stroke="midnightblue" points="1235.48,-91.8754 1236.25,-81.3086 1229.06,-89.0887 1235.48,-91.8754"/>
</g>
<!-- Node21 -->
<g id="node21" class="node"><title>Node21</title>
<polygon fill="white" stroke="#bfbfbf" points="1325.5,-62 1325.5,-81 1417.5,-81 1417.5,-62 1325.5,-62"/>
<text text-anchor="middle" x="1371.5" y="-69" font-family="Helvetica,sans-Serif" font-size="10.00">boost/cstdint.hpp</text>
</g>
<!-- Node4&#45;&gt;Node21 -->
<g id="edge72" class="edge"><title>Node4&#45;&gt;Node21</title>
<path fill="none" stroke="midnightblue" d="M1770.59,-265.921C1635.4,-265.183 1275.21,-259.58 1239.5,-221 1229.06,-209.727 1246.75,-123.958 1247.5,-123 1258.33,-109.136 1299.69,-94.015 1331.7,-83.9682"/>
<polygon fill="midnightblue" stroke="midnightblue" points="1332.76,-87.3041 1341.29,-81.0202 1330.7,-80.6131 1332.76,-87.3041"/>
</g>
<!-- Node22 -->
<g id="node22" class="node"><title>Node22</title>
<g id="a_node22"><a xlink:href="string_8hpp.html" target="_top" xlink:title="String class and operations. ">
<polygon fill="white" stroke="black" points="1400,-123.5 1400,-142.5 1497,-142.5 1497,-123.5 1400,-123.5"/>
<text text-anchor="middle" x="1448.5" y="-130.5" font-family="Helvetica,sans-Serif" font-size="10.00">boost/ui/string.hpp</text>
</a>
</g>
</g>
<!-- Node4&#45;&gt;Node22 -->
<g id="edge24" class="edge"><title>Node4&#45;&gt;Node22</title>
<path fill="none" stroke="midnightblue" d="M1770.64,-264.665C1658.69,-261.201 1398.81,-250.083 1372.5,-221 1359.98,-207.158 1363.26,-195.217 1372.5,-179 1380.91,-164.247 1396.27,-153.838 1410.98,-146.774"/>
<polygon fill="midnightblue" stroke="midnightblue" points="1412.74,-149.827 1420.48,-142.603 1409.92,-143.418 1412.74,-149.827"/>
</g>
<!-- Node23 -->
<g id="node23" class="node"><title>Node23</title>
<polygon fill="white" stroke="#bfbfbf" points="1611,-62 1611,-81 1684,-81 1684,-62 1611,-62"/>
<text text-anchor="middle" x="1647.5" y="-69" font-family="Helvetica,sans-Serif" font-size="10.00">initializer_list</text>
</g>
<!-- Node4&#45;&gt;Node23 -->
<g id="edge31" class="edge"><title>Node4&#45;&gt;Node23</title>
<path fill="none" stroke="midnightblue" d="M1770.78,-265.821C1695.34,-264.355 1559.12,-256.687 1528.5,-221 1486.83,-172.446 1576.31,-112.372 1622.35,-85.9923"/>
<polygon fill="midnightblue" stroke="midnightblue" points="1624.18,-88.9783 1631.19,-81.0347 1620.76,-82.8726 1624.18,-88.9783"/>
</g>
<!-- Node24 -->
<g id="node24" class="node"><title>Node24</title>
<polygon fill="white" stroke="#bfbfbf" points="1382,-190.5 1382,-209.5 1481,-209.5 1481,-190.5 1382,-190.5"/>
<text text-anchor="middle" x="1431.5" y="-197.5" font-family="Helvetica,sans-Serif" font-size="10.00">boost/ui/config.hpp</text>
</g>
<!-- Node4&#45;&gt;Node24 -->
<g id="edge29" class="edge"><title>Node4&#45;&gt;Node24</title>
<path fill="none" stroke="midnightblue" d="M1770.77,-261.626C1706.26,-255.464 1591.68,-242.51 1495.5,-221 1485.55,-218.775 1474.92,-215.732 1465.24,-212.69"/>
<polygon fill="midnightblue" stroke="midnightblue" points="1466.15,-209.307 1455.56,-209.556 1463.99,-215.966 1466.15,-209.307"/>
</g>
<!-- Node25 -->
<g id="node25" class="node"><title>Node25</title>
<g id="a_node25"><a xlink:href="event_8hpp.html" target="_top" xlink:title="Event classes. ">
<polygon fill="white" stroke="black" points="1538,-190.5 1538,-209.5 1635,-209.5 1635,-190.5 1538,-190.5"/>
<text text-anchor="middle" x="1586.5" y="-197.5" font-family="Helvetica,sans-Serif" font-size="10.00">boost/ui/event.hpp</text>
</a>
</g>
</g>
<!-- Node4&#45;&gt;Node25 -->
<g id="edge33" class="edge"><title>Node4&#45;&gt;Node25</title>
<path fill="none" stroke="midnightblue" d="M1783.73,-257.491C1747.51,-249.087 1691.42,-235.432 1643.5,-221 1635.52,-218.597 1627,-215.759 1619.05,-212.988"/>
<polygon fill="midnightblue" stroke="midnightblue" points="1619.96,-209.596 1609.36,-209.551 1617.62,-216.193 1619.96,-209.596"/>
</g>
<!-- Node26 -->
<g id="node26" class="node"><title>Node26</title>
<polygon fill="white" stroke="#bfbfbf" points="2891,-123.5 2891,-142.5 2988,-142.5 2988,-123.5 2891,-123.5"/>
<text text-anchor="middle" x="2939.5" y="-130.5" font-family="Helvetica,sans-Serif" font-size="10.00">boost/function.hpp</text>
</g>
<!-- Node4&#45;&gt;Node26 -->
<g id="edge38" class="edge"><title>Node4&#45;&gt;Node26</title>
<path fill="none" stroke="midnightblue" d="M1872.04,-266.029C2215.27,-266.111 4191.62,-264.686 4234.5,-221 4247.58,-207.678 4247.47,-192.427 4234.5,-179 4191.05,-134.011 3245.47,-133.229 2998.22,-133.798"/>
<polygon fill="midnightblue" stroke="midnightblue" points="2998,-130.298 2988.01,-133.823 2998.02,-137.298 2998,-130.298"/>
</g>
<!-- Node27 -->
<g id="node27" class="node"><title>Node27</title>
<polygon fill="white" stroke="#bfbfbf" points="1653,-190.5 1653,-209.5 1750,-209.5 1750,-190.5 1653,-190.5"/>
<text text-anchor="middle" x="1701.5" y="-197.5" font-family="Helvetica,sans-Serif" font-size="10.00">boost/ui/coord.hpp</text>
</g>
<!-- Node4&#45;&gt;Node27 -->
<g id="edge37" class="edge"><title>Node4&#45;&gt;Node27</title>
<path fill="none" stroke="midnightblue" d="M1805.32,-257.234C1785.07,-246.269 1750.2,-227.381 1726.51,-214.549"/>
<polygon fill="midnightblue" stroke="midnightblue" points="1727.89,-211.313 1717.43,-209.627 1724.55,-217.468 1727.89,-211.313"/>
</g>
<!-- Node28 -->
<g id="node28" class="node"><title>Node28</title>
<polygon fill="white" stroke="#bfbfbf" points="1768,-179.5 1768,-220.5 1875,-220.5 1875,-179.5 1768,-179.5"/>
<text text-anchor="start" x="1776" y="-208.5" font-family="Helvetica,sans-Serif" font-size="10.00">/media/disk4_1/work</text>
<text text-anchor="start" x="1776" y="-197.5" font-family="Helvetica,sans-Serif" font-size="10.00">/code/ui/boost/boost</text>
<text text-anchor="middle" x="1821.5" y="-186.5" font-family="Helvetica,sans-Serif" font-size="10.00">/functional</text>
</g>
<!-- Node4&#45;&gt;Node28 -->
<g id="edge39" class="edge"><title>Node4&#45;&gt;Node28</title>
<path fill="none" stroke="midnightblue" d="M1821.5,-257.234C1821.5,-250.363 1821.5,-240.38 1821.5,-230.726"/>
<polygon fill="midnightblue" stroke="midnightblue" points="1825,-230.542 1821.5,-220.542 1818,-230.542 1825,-230.542"/>
</g>
<!-- Node29 -->
<g id="node29" class="node"><title>Node29</title>
<polygon fill="white" stroke="#bfbfbf" points="1893.5,-185 1893.5,-215 1993.5,-215 1993.5,-185 1893.5,-185"/>
<text text-anchor="start" x="1901.5" y="-203" font-family="Helvetica,sans-Serif" font-size="10.00">boost/preprocessor</text>
<text text-anchor="middle" x="1943.5" y="-192" font-family="Helvetica,sans-Serif" font-size="10.00">/iterate.hpp</text>
</g>
<!-- Node4&#45;&gt;Node29 -->
<g id="edge40" class="edge"><title>Node4&#45;&gt;Node29</title>
<path fill="none" stroke="midnightblue" d="M1837.7,-257.369C1855.55,-247.857 1884.82,-232.265 1908.05,-219.889"/>
<polygon fill="midnightblue" stroke="midnightblue" points="1909.76,-222.943 1916.94,-215.152 1906.47,-216.765 1909.76,-222.943"/>
</g>
<!-- Node30 -->
<g id="node30" class="node"><title>Node30</title>
<polygon fill="white" stroke="#bfbfbf" points="2012,-185 2012,-215 2115,-215 2115,-185 2012,-185"/>
<text text-anchor="start" x="2020" y="-203" font-family="Helvetica,sans-Serif" font-size="10.00">boost/preprocessor</text>
<text text-anchor="middle" x="2063.5" y="-192" font-family="Helvetica,sans-Serif" font-size="10.00">/iteration/iterate.hpp</text>
</g>
<!-- Node4&#45;&gt;Node30 -->
<g id="edge41" class="edge"><title>Node4&#45;&gt;Node30</title>
<path fill="none" stroke="midnightblue" d="M1859.15,-257.487C1895.91,-248.976 1953.34,-235.151 2002.5,-221 2005.66,-220.091 2008.9,-219.125 2012.16,-218.129"/>
<polygon fill="midnightblue" stroke="midnightblue" points="2013.45,-221.394 2021.95,-215.072 2011.36,-214.712 2013.45,-221.394"/>
</g>
<!-- Node31 -->
<g id="node31" class="node"><title>Node31</title>
<polygon fill="white" stroke="#bfbfbf" points="2133.5,-185 2133.5,-215 2233.5,-215 2233.5,-185 2133.5,-185"/>
<text text-anchor="start" x="2141.5" y="-203" font-family="Helvetica,sans-Serif" font-size="10.00">boost/preprocessor</text>
<text text-anchor="middle" x="2183.5" y="-192" font-family="Helvetica,sans-Serif" font-size="10.00">/arithmetic/inc.hpp</text>
</g>
<!-- Node4&#45;&gt;Node31 -->
<g id="edge43" class="edge"><title>Node4&#45;&gt;Node31</title>
<path fill="none" stroke="midnightblue" d="M1872.24,-261.163C1932.67,-254.779 2036.37,-241.845 2123.5,-221 2127.3,-220.092 2131.19,-219.05 2135.09,-217.93"/>
<polygon fill="midnightblue" stroke="midnightblue" points="2136.17,-221.26 2144.73,-215.013 2134.15,-214.56 2136.17,-221.26"/>
</g>
<!-- Node32 -->
<g id="node32" class="node"><title>Node32</title>
<polygon fill="white" stroke="#bfbfbf" points="2251.5,-185 2251.5,-215 2351.5,-215 2351.5,-185 2251.5,-185"/>
<text text-anchor="start" x="2259.5" y="-203" font-family="Helvetica,sans-Serif" font-size="10.00">boost/preprocessor</text>
<text text-anchor="middle" x="2301.5" y="-192" font-family="Helvetica,sans-Serif" font-size="10.00">/array/elem.hpp</text>
</g>
<!-- Node4&#45;&gt;Node32 -->
<g id="edge44" class="edge"><title>Node4&#45;&gt;Node32</title>
<path fill="none" stroke="midnightblue" d="M1872.3,-264.178C1952.01,-260.515 2110.95,-249.956 2242.5,-221 2246.37,-220.148 2250.34,-219.13 2254.3,-218.012"/>
<polygon fill="midnightblue" stroke="midnightblue" points="2255.52,-221.301 2264.08,-215.06 2253.5,-214.6 2255.52,-221.301"/>
</g>
<!-- Node33 -->
<g id="node33" class="node"><title>Node33</title>
<polygon fill="white" stroke="#bfbfbf" points="2369.5,-185 2369.5,-215 2469.5,-215 2469.5,-185 2369.5,-185"/>
<text text-anchor="start" x="2377.5" y="-203" font-family="Helvetica,sans-Serif" font-size="10.00">boost/preprocessor</text>
<text text-anchor="middle" x="2419.5" y="-192" font-family="Helvetica,sans-Serif" font-size="10.00">/array/size.hpp</text>
</g>
<!-- Node4&#45;&gt;Node33 -->
<g id="edge45" class="edge"><title>Node4&#45;&gt;Node33</title>
<path fill="none" stroke="midnightblue" d="M1872.25,-265.857C1968.5,-264.687 2183.76,-257.76 2360.5,-221 2364.44,-220.181 2368.48,-219.178 2372.5,-218.062"/>
<polygon fill="midnightblue" stroke="midnightblue" points="2373.85,-221.312 2382.43,-215.093 2371.84,-214.606 2373.85,-221.312"/>
</g>
<!-- Node34 -->
<g id="node34" class="node"><title>Node34</title>
<polygon fill="white" stroke="#bfbfbf" points="2487.5,-185 2487.5,-215 2587.5,-215 2587.5,-185 2487.5,-185"/>
<text text-anchor="start" x="2495.5" y="-203" font-family="Helvetica,sans-Serif" font-size="10.00">boost/preprocessor</text>
<text text-anchor="middle" x="2537.5" y="-192" font-family="Helvetica,sans-Serif" font-size="10.00">/slot/slot.hpp</text>
</g>
<!-- Node4&#45;&gt;Node34 -->
<g id="edge47" class="edge"><title>Node4&#45;&gt;Node34</title>
<path fill="none" stroke="midnightblue" d="M1872.23,-264.221C2005.38,-259.279 2362.61,-244.203 2478.5,-221 2482.62,-220.176 2486.84,-219.142 2491.05,-217.981"/>
<polygon fill="midnightblue" stroke="midnightblue" points="2492.18,-221.294 2500.76,-215.079 2490.18,-214.587 2492.18,-221.294"/>
</g>
<!-- Node35 -->
<g id="node35" class="node"><title>Node35</title>
<polygon fill="white" stroke="#bfbfbf" points="2605.5,-185 2605.5,-215 2705.5,-215 2705.5,-185 2605.5,-185"/>
<text text-anchor="start" x="2613.5" y="-203" font-family="Helvetica,sans-Serif" font-size="10.00">boost/preprocessor</text>
<text text-anchor="middle" x="2655.5" y="-192" font-family="Helvetica,sans-Serif" font-size="10.00">/slot/detail/def.hpp</text>
</g>
<!-- Node4&#45;&gt;Node35 -->
<g id="edge48" class="edge"><title>Node4&#45;&gt;Node35</title>
<path fill="none" stroke="midnightblue" d="M1872.25,-264.831C2021.47,-261.114 2457.02,-248.174 2596.5,-221 2600.68,-220.186 2604.97,-219.149 2609.24,-217.977"/>
<polygon fill="midnightblue" stroke="midnightblue" points="2610.51,-221.25 2619.09,-215.039 2608.51,-214.542 2610.51,-221.25"/>
</g>
<!-- Node36 -->
<g id="node36" class="node"><title>Node36</title>
<polygon fill="white" stroke="#bfbfbf" points="2723.5,-185 2723.5,-215 2827.5,-215 2827.5,-185 2723.5,-185"/>
<text text-anchor="start" x="2731.5" y="-203" font-family="Helvetica,sans-Serif" font-size="10.00">boost/function/detail</text>
<text text-anchor="middle" x="2775.5" y="-192" font-family="Helvetica,sans-Serif" font-size="10.00">/prologue.hpp</text>
</g>
<!-- Node4&#45;&gt;Node36 -->
<g id="edge51" class="edge"><title>Node4&#45;&gt;Node36</title>
<path fill="none" stroke="midnightblue" d="M1872.25,-265.217C2036.29,-262.408 2551.1,-251.34 2714.5,-221 2718.93,-220.177 2723.49,-219.114 2728.02,-217.908"/>
<polygon fill="midnightblue" stroke="midnightblue" points="2729.2,-221.211 2737.84,-215.076 2727.26,-214.485 2729.2,-221.211"/>
</g>
<!-- Node37 -->
<g id="node37" class="node"><title>Node37</title>
<polygon fill="white" stroke="#bfbfbf" points="2846,-190.5 2846,-209.5 2895,-209.5 2895,-190.5 2846,-190.5"/>
<text text-anchor="middle" x="2870.5" y="-197.5" font-family="Helvetica,sans-Serif" font-size="10.00">cassert</text>
</g>
<!-- Node4&#45;&gt;Node37 -->
<g id="edge52" class="edge"><title>Node4&#45;&gt;Node37</title>
<path fill="none" stroke="midnightblue" d="M1872.19,-265.188C2064.61,-261.908 2743.75,-248.478 2836.5,-221 2841.33,-219.568 2846.2,-217.305 2850.68,-214.808"/>
<polygon fill="midnightblue" stroke="midnightblue" points="2852.53,-217.779 2859.2,-209.545 2848.85,-211.824 2852.53,-217.779"/>
</g>
<!-- Node38 -->
<g id="node38" class="node"><title>Node38</title>
<polygon fill="white" stroke="#bfbfbf" points="2913.5,-185 2913.5,-215 3013.5,-215 3013.5,-185 2913.5,-185"/>
<text text-anchor="start" x="2921.5" y="-203" font-family="Helvetica,sans-Serif" font-size="10.00">boost/config/no_tr1</text>
<text text-anchor="middle" x="2963.5" y="-192" font-family="Helvetica,sans-Serif" font-size="10.00">/functional.hpp</text>
</g>
<!-- Node4&#45;&gt;Node38 -->
<g id="edge54" class="edge"><title>Node4&#45;&gt;Node38</title>
<path fill="none" stroke="midnightblue" d="M1872.03,-265.806C2057.81,-264.798 2702.62,-258.608 2904.5,-221 2908.86,-220.187 2913.35,-219.12 2917.8,-217.903"/>
<polygon fill="midnightblue" stroke="midnightblue" points="2918.84,-221.244 2927.42,-215.035 2916.84,-214.535 2918.84,-221.244"/>
</g>
<!-- Node39 -->
<g id="node39" class="node"><title>Node39</title>
<polygon fill="white" stroke="#bfbfbf" points="3032,-179.5 3032,-220.5 3139,-220.5 3139,-179.5 3032,-179.5"/>
<text text-anchor="start" x="3040" y="-208.5" font-family="Helvetica,sans-Serif" font-size="10.00">/media/disk4_1/work</text>
<text text-anchor="start" x="3040" y="-197.5" font-family="Helvetica,sans-Serif" font-size="10.00">/code/ui/boost/boost</text>
<text text-anchor="middle" x="3085.5" y="-186.5" font-family="Helvetica,sans-Serif" font-size="10.00">/exception</text>
</g>
<!-- Node4&#45;&gt;Node39 -->
<g id="edge57" class="edge"><title>Node4&#45;&gt;Node39</title>
<path fill="none" stroke="midnightblue" d="M1872.32,-265.918C2068.39,-265.323 2776.53,-260.535 3021.85,-220.777"/>
<polygon fill="midnightblue" stroke="midnightblue" points="3022.5,-224.216 3031.78,-219.103 3021.34,-217.314 3022.5,-224.216"/>
</g>
<!-- Node40 -->
<g id="node40" class="node"><title>Node40</title>
<polygon fill="white" stroke="#bfbfbf" points="3157,-190.5 3157,-209.5 3306,-209.5 3306,-190.5 3157,-190.5"/>
<text text-anchor="middle" x="3231.5" y="-197.5" font-family="Helvetica,sans-Serif" font-size="10.00">boost/exception/exception.hpp</text>
</g>
<!-- Node4&#45;&gt;Node40 -->
<g id="edge58" class="edge"><title>Node4&#45;&gt;Node40</title>
<path fill="none" stroke="midnightblue" d="M1872.09,-265.654C2083.23,-264 2894.96,-255.483 3148.5,-221 3162.9,-219.042 3178.43,-215.652 3192.13,-212.213"/>
<polygon fill="midnightblue" stroke="midnightblue" points="3193.4,-215.499 3202.2,-209.596 3191.64,-208.725 3193.4,-215.499"/>
</g>
<!-- Node41 -->
<g id="node41" class="node"><title>Node41</title>
<polygon fill="white" stroke="#bfbfbf" points="3324.5,-190.5 3324.5,-209.5 3456.5,-209.5 3456.5,-190.5 3324.5,-190.5"/>
<text text-anchor="middle" x="3390.5" y="-197.5" font-family="Helvetica,sans-Serif" font-size="10.00">boost/current_function.hpp</text>
</g>
<!-- Node4&#45;&gt;Node41 -->
<g id="edge59" class="edge"><title>Node4&#45;&gt;Node41</title>
<path fill="none" stroke="midnightblue" d="M1872.22,-266.04C2099.76,-265.977 3027.93,-263.097 3315.5,-221 3328.42,-219.109 3342.3,-215.785 3354.56,-212.384"/>
<polygon fill="midnightblue" stroke="midnightblue" points="3355.79,-215.672 3364.43,-209.538 3353.85,-208.946 3355.79,-215.672"/>
</g>
<!-- Node42 -->
<g id="node42" class="node"><title>Node42</title>
<polygon fill="white" stroke="#bfbfbf" points="3474.5,-185 3474.5,-215 3590.5,-215 3590.5,-185 3474.5,-185"/>
<text text-anchor="start" x="3482.5" y="-203" font-family="Helvetica,sans-Serif" font-size="10.00">boost/function/function</text>
<text text-anchor="middle" x="3532.5" y="-192" font-family="Helvetica,sans-Serif" font-size="10.00">_base.hpp</text>
</g>
<!-- Node4&#45;&gt;Node42 -->
<g id="edge60" class="edge"><title>Node4&#45;&gt;Node42</title>
<path fill="none" stroke="midnightblue" d="M1872.13,-265.405C2131.47,-262.253 3305.15,-246.668 3465.5,-221 3470.89,-220.137 3476.46,-218.959 3481.98,-217.604"/>
<polygon fill="midnightblue" stroke="midnightblue" points="3483.02,-220.947 3491.79,-215.003 3481.23,-214.18 3483.02,-220.947"/>
</g>
<!-- Node43 -->
<g id="node43" class="node"><title>Node43</title>
<polygon fill="white" stroke="#bfbfbf" points="3609,-190.5 3609,-209.5 3644,-209.5 3644,-190.5 3609,-190.5"/>
<text text-anchor="middle" x="3626.5" y="-197.5" font-family="Helvetica,sans-Serif" font-size="10.00">new</text>
</g>
<!-- Node4&#45;&gt;Node43 -->
<g id="edge63" class="edge"><title>Node4&#45;&gt;Node43</title>
<path fill="none" stroke="midnightblue" d="M1872.02,-265.58C2153.21,-263.133 3515.74,-249.824 3599.5,-221 3603.03,-219.786 3606.48,-217.931 3609.67,-215.831"/>
<polygon fill="midnightblue" stroke="midnightblue" points="3612.01,-218.447 3617.82,-209.591 3607.75,-212.888 3612.01,-218.447"/>
</g>
<!-- Node44 -->
<g id="node44" class="node"><title>Node44</title>
<polygon fill="white" stroke="#bfbfbf" points="3662.5,-190.5 3662.5,-209.5 3714.5,-209.5 3714.5,-190.5 3662.5,-190.5"/>
<text text-anchor="middle" x="3688.5" y="-197.5" font-family="Helvetica,sans-Serif" font-size="10.00">assert.h</text>
</g>
<!-- Node4&#45;&gt;Node44 -->
<g id="edge65" class="edge"><title>Node4&#45;&gt;Node44</title>
<path fill="none" stroke="midnightblue" d="M1872.03,-266.234C2149.1,-267.322 3477.95,-269.935 3653.5,-221 3658.46,-219.616 3663.47,-217.374 3668.08,-214.882"/>
<polygon fill="midnightblue" stroke="midnightblue" points="3670.08,-217.762 3676.85,-209.61 3666.47,-211.762 3670.08,-217.762"/>
</g>
<!-- Node45 -->
<g id="node45" class="node"><title>Node45</title>
<polygon fill="white" stroke="#bfbfbf" points="3732.5,-190.5 3732.5,-209.5 3824.5,-209.5 3824.5,-190.5 3732.5,-190.5"/>
<text text-anchor="middle" x="3778.5" y="-197.5" font-family="Helvetica,sans-Serif" font-size="10.00">boost/integer.hpp</text>
</g>
<!-- Node4&#45;&gt;Node45 -->
<g id="edge66" class="edge"><title>Node4&#45;&gt;Node45</title>
<path fill="none" stroke="midnightblue" d="M1872.44,-265.781C2156.34,-264.43 3537.27,-256.086 3723.5,-221 3732.47,-219.31 3741.92,-216.343 3750.4,-213.203"/>
<polygon fill="midnightblue" stroke="midnightblue" points="3751.81,-216.413 3759.84,-209.504 3749.25,-209.896 3751.81,-216.413"/>
</g>
<!-- Node46 -->
<g id="node46" class="node"><title>Node46</title>
<polygon fill="white" stroke="#bfbfbf" points="3843,-190.5 3843,-209.5 3956,-209.5 3956,-190.5 3843,-190.5"/>
<text text-anchor="middle" x="3899.5" y="-197.5" font-family="Helvetica,sans-Serif" font-size="10.00">boost/integer_fwd.hpp</text>
</g>
<!-- Node4&#45;&gt;Node46 -->
<g id="edge67" class="edge"><title>Node4&#45;&gt;Node46</title>
<path fill="none" stroke="midnightblue" d="M1872.45,-265.688C2165.95,-263.781 3634.9,-252.704 3833.5,-221 3844.61,-219.226 3856.46,-216.06 3867,-212.763"/>
<polygon fill="midnightblue" stroke="midnightblue" points="3868.23,-216.042 3876.65,-209.602 3866.05,-209.39 3868.23,-216.042"/>
</g>
<!-- Node47 -->
<g id="node47" class="node"><title>Node47</title>
<polygon fill="white" stroke="#bfbfbf" points="3974,-190.5 3974,-209.5 4019,-209.5 4019,-190.5 3974,-190.5"/>
<text text-anchor="middle" x="3996.5" y="-197.5" font-family="Helvetica,sans-Serif" font-size="10.00">climits</text>
</g>
<!-- Node4&#45;&gt;Node47 -->
<g id="edge68" class="edge"><title>Node4&#45;&gt;Node47</title>
<path fill="none" stroke="midnightblue" d="M1872.03,-265.719C2186.2,-263.876 3862.29,-252.586 3965.5,-221 3969.77,-219.693 3974.02,-217.613 3977.93,-215.279"/>
<polygon fill="midnightblue" stroke="midnightblue" points="3980,-218.108 3986.33,-209.615 3976.08,-212.305 3980,-218.108"/>
</g>
<!-- Node48 -->
<g id="node48" class="node"><title>Node48</title>
<polygon fill="white" stroke="#bfbfbf" points="4037,-190.5 4037,-209.5 4156,-209.5 4156,-190.5 4037,-190.5"/>
<text text-anchor="middle" x="4096.5" y="-197.5" font-family="Helvetica,sans-Serif" font-size="10.00">boost/integer_traits.hpp</text>
</g>
<!-- Node4&#45;&gt;Node48 -->
<g id="edge74" class="edge"><title>Node4&#45;&gt;Node48</title>
<path fill="none" stroke="midnightblue" d="M1872.25,-265.773C2181.76,-264.278 3809.3,-254.851 4028.5,-221 4040.14,-219.203 4052.58,-215.954 4063.59,-212.59"/>
<polygon fill="midnightblue" stroke="midnightblue" points="4064.79,-215.884 4073.25,-209.507 4062.66,-209.216 4064.79,-215.884"/>
</g>
<!-- Node49 -->
<g id="node49" class="node"><title>Node49</title>
<polygon fill="white" stroke="#bfbfbf" points="4174,-190.5 4174,-209.5 4225,-209.5 4225,-190.5 4174,-190.5"/>
<text text-anchor="middle" x="4199.5" y="-197.5" font-family="Helvetica,sans-Serif" font-size="10.00">wchar.h</text>
</g>
<!-- Node4&#45;&gt;Node49 -->
<g id="edge75" class="edge"><title>Node4&#45;&gt;Node49</title>
<path fill="none" stroke="midnightblue" d="M1872.1,-265.756C2203.27,-264.071 4051.42,-253.243 4165.5,-221 4170.35,-219.629 4175.23,-217.392 4179.71,-214.901"/>
<polygon fill="midnightblue" stroke="midnightblue" points="4181.56,-217.868 4188.22,-209.626 4177.88,-211.917 4181.56,-217.868"/>
</g>
<!-- Node5&#45;&gt;Node2 -->
<g id="edge6" class="edge"><title>Node5&#45;&gt;Node2</title>
<path fill="none" stroke="midnightblue" d="M982.214,-132.168C1103.15,-131.923 1426.57,-127.219 1692.5,-87 1698.73,-86.058 1705.26,-84.7665 1711.62,-83.3397"/>
<polygon fill="midnightblue" stroke="midnightblue" points="1712.47,-86.7341 1721.39,-81.0172 1710.85,-79.9237 1712.47,-86.7341"/>
</g>
<!-- Node5&#45;&gt;Node3 -->
<g id="edge8" class="edge"><title>Node5&#45;&gt;Node3</title>
<path fill="none" stroke="midnightblue" d="M927.207,-123.204C916.851,-107.57 899.02,-74.8243 916.5,-56 953.636,-16.0093 1326.1,-11.2571 1468.52,-10.9126"/>
<polygon fill="midnightblue" stroke="midnightblue" points="1468.78,-14.4122 1478.77,-10.8945 1468.77,-7.41223 1468.78,-14.4122"/>
</g>
<!-- Node5&#45;&gt;Node6 -->
<g id="edge7" class="edge"><title>Node5&#45;&gt;Node6</title>
<path fill="none" stroke="midnightblue" d="M884.99,-131.808C725.215,-130.816 216.609,-124.701 57.5,-87 55.1366,-86.44 52.7313,-85.7165 50.3512,-84.8919"/>
<polygon fill="midnightblue" stroke="midnightblue" points="51.4643,-81.5675 40.8801,-81.0936 48.8587,-88.0644 51.4643,-81.5675"/>
</g>
<!-- Node5&#45;&gt;Node7 -->
<g id="edge9" class="edge"><title>Node5&#45;&gt;Node7</title>
<path fill="none" stroke="midnightblue" d="M884.976,-132.653C762.996,-133.54 434.045,-131.26 164.5,-87 159.28,-86.1429 153.835,-84.9767 148.506,-83.6756"/>
<polygon fill="midnightblue" stroke="midnightblue" points="149.055,-80.2013 138.494,-81.053 147.281,-86.9728 149.055,-80.2013"/>
</g>
<!-- Node5&#45;&gt;Node8 -->
<g id="edge10" class="edge"><title>Node5&#45;&gt;Node8</title>
<path fill="none" stroke="midnightblue" d="M884.611,-130.193C780.754,-125.962 530.599,-113.682 322.5,-87 313.657,-85.8661 304.303,-84.3942 295.245,-82.8237"/>
<polygon fill="midnightblue" stroke="midnightblue" points="295.648,-79.3403 285.188,-81.0216 294.413,-86.2305 295.648,-79.3403"/>
</g>
<!-- Node5&#45;&gt;Node9 -->
<g id="edge11" class="edge"><title>Node5&#45;&gt;Node9</title>
<path fill="none" stroke="midnightblue" d="M884.635,-132.597C789.396,-132.737 572.823,-128.015 396.5,-87 393.665,-86.3406 390.76,-85.5047 387.884,-84.5684"/>
<polygon fill="midnightblue" stroke="midnightblue" points="388.961,-81.2361 378.367,-81.1091 386.57,-87.8149 388.961,-81.2361"/>
</g>
<!-- Node5&#45;&gt;Node10 -->
<g id="edge12" class="edge"><title>Node5&#45;&gt;Node10</title>
<path fill="none" stroke="midnightblue" d="M884.974,-132.021C799.228,-131.027 615.869,-124.252 466.5,-87 463.987,-86.3733 461.419,-85.5964 458.873,-84.7302"/>
<polygon fill="midnightblue" stroke="midnightblue" points="459.91,-81.3795 449.319,-81.0768 457.409,-87.9178 459.91,-81.3795"/>
</g>
<!-- Node5&#45;&gt;Node11 -->
<g id="edge13" class="edge"><title>Node5&#45;&gt;Node11</title>
<path fill="none" stroke="midnightblue" d="M884.961,-127.488C819.28,-120.998 698.298,-107.687 585.79,-87.1104"/>
<polygon fill="midnightblue" stroke="midnightblue" points="586.099,-83.608 575.628,-85.2275 584.823,-90.4909 586.099,-83.608"/>
</g>
<!-- Node5&#45;&gt;Node12 -->
<g id="edge14" class="edge"><title>Node5&#45;&gt;Node12</title>
<path fill="none" stroke="midnightblue" d="M982.1,-131.802C1071.29,-130.507 1266.64,-123.335 1426.5,-87 1429.57,-86.3021 1432.73,-85.4213 1435.85,-84.4403"/>
<polygon fill="midnightblue" stroke="midnightblue" points="1437.27,-87.6524 1445.57,-81.0661 1434.97,-81.0396 1437.27,-87.6524"/>
</g>
<!-- Node5&#45;&gt;Node13 -->
<g id="edge15" class="edge"><title>Node5&#45;&gt;Node13</title>
<path fill="none" stroke="midnightblue" d="M886.023,-123.449C841.419,-115.259 772.576,-102.218 703.815,-87.2314"/>
<polygon fill="midnightblue" stroke="midnightblue" points="704.191,-83.7308 693.673,-85.0065 702.691,-90.5682 704.191,-83.7308"/>
</g>
<!-- Node5&#45;&gt;Node14 -->
<g id="edge16" class="edge"><title>Node5&#45;&gt;Node14</title>
<path fill="none" stroke="midnightblue" d="M908.857,-123.475C883.602,-114.739 843.619,-100.907 811.669,-89.855"/>
<polygon fill="midnightblue" stroke="midnightblue" points="812.632,-86.4846 802.037,-86.523 810.343,-93.0999 812.632,-86.4846"/>
</g>
<!-- Node5&#45;&gt;Node15 -->
<g id="edge17" class="edge"><title>Node5&#45;&gt;Node15</title>
<path fill="none" stroke="midnightblue" d="M921.465,-123.475C907.992,-113.931 885.934,-98.3073 869.785,-86.8683"/>
<polygon fill="midnightblue" stroke="midnightblue" points="871.696,-83.9332 861.513,-81.0091 867.65,-89.6454 871.696,-83.9332"/>
</g>
<!-- Node5&#45;&gt;Node16 -->
<g id="edge18" class="edge"><title>Node5&#45;&gt;Node16</title>
<path fill="none" stroke="midnightblue" d="M938.515,-123.475C943.661,-114.727 951.812,-100.869 958.318,-89.8093"/>
<polygon fill="midnightblue" stroke="midnightblue" points="961.441,-91.403 963.495,-81.0091 955.408,-87.8539 961.441,-91.403"/>
</g>
<!-- Node5&#45;&gt;Node17 -->
<g id="edge19" class="edge"><title>Node5&#45;&gt;Node17</title>
<path fill="none" stroke="midnightblue" d="M950.693,-123.475C970.743,-113.534 1004.1,-96.9947 1027.36,-85.461"/>
<polygon fill="midnightblue" stroke="midnightblue" points="1028.93,-88.5871 1036.34,-81.0091 1025.82,-82.3157 1028.93,-88.5871"/>
</g>
<!-- Node5&#45;&gt;Node18 -->
<g id="edge20" class="edge"><title>Node5&#45;&gt;Node18</title>
<path fill="none" stroke="midnightblue" d="M964.76,-123.497C995.822,-114.885 1044.73,-100.89 1086.5,-87 1088.9,-86.2023 1091.37,-85.3516 1093.85,-84.4775"/>
<polygon fill="midnightblue" stroke="midnightblue" points="1095.11,-87.7449 1103.32,-81.0515 1092.73,-81.1624 1095.11,-87.7449"/>
</g>
<!-- Node5&#45;&gt;Node19 -->
<g id="edge21" class="edge"><title>Node5&#45;&gt;Node19</title>
<path fill="none" stroke="midnightblue" d="M982.152,-130.265C1080.88,-126.282 1311.66,-114.613 1503.5,-87 1516.15,-85.1791 1529.96,-82.4314 1541.88,-79.8158"/>
<polygon fill="midnightblue" stroke="midnightblue" points="1542.81,-83.1947 1551.79,-77.578 1541.26,-76.3666 1542.81,-83.1947"/>
</g>
<!-- Node5&#45;&gt;Node20 -->
<g id="edge22" class="edge"><title>Node5&#45;&gt;Node20</title>
<path fill="none" stroke="midnightblue" d="M977.486,-123.475C1032.65,-112.783 1127.2,-94.4578 1186.65,-82.9374"/>
<polygon fill="midnightblue" stroke="midnightblue" points="1187.44,-86.3479 1196.6,-81.0091 1186.11,-79.4758 1187.44,-86.3479"/>
</g>
<!-- Node5&#45;&gt;Node21 -->
<g id="edge23" class="edge"><title>Node5&#45;&gt;Node21</title>
<path fill="none" stroke="midnightblue" d="M982.201,-128.488C1055.28,-122.721 1197.44,-109.572 1316.5,-87 1321.64,-86.0248 1327.02,-84.8317 1332.3,-83.5527"/>
<polygon fill="midnightblue" stroke="midnightblue" points="1333.44,-86.874 1342.27,-81.022 1331.72,-80.089 1333.44,-86.874"/>
</g>
<!-- Node22&#45;&gt;Node2 -->
<g id="edge25" class="edge"><title>Node22&#45;&gt;Node2</title>
<path fill="none" stroke="midnightblue" d="M1497.28,-123.871C1546.65,-115.439 1625.12,-101.481 1692.5,-87 1697.59,-85.9061 1702.91,-84.695 1708.18,-83.4526"/>
<polygon fill="midnightblue" stroke="midnightblue" points="1709.29,-86.7871 1718.19,-81.0472 1707.65,-79.9809 1709.29,-86.7871"/>
</g>
<!-- Node22&#45;&gt;Node12 -->
<g id="edge28" class="edge"><title>Node22&#45;&gt;Node12</title>
<path fill="none" stroke="midnightblue" d="M1450.94,-123.475C1453.36,-114.992 1457.16,-101.704 1460.27,-90.8222"/>
<polygon fill="midnightblue" stroke="midnightblue" points="1463.69,-91.5859 1463.07,-81.0091 1456.96,-89.6628 1463.69,-91.5859"/>
</g>
<!-- Node22&#45;&gt;Node19 -->
<g id="edge26" class="edge"><title>Node22&#45;&gt;Node19</title>
<path fill="none" stroke="midnightblue" d="M1466.27,-123.475C1486.98,-113.534 1521.45,-96.9947 1545.49,-85.461"/>
<polygon fill="midnightblue" stroke="midnightblue" points="1547.27,-88.4908 1554.77,-81.0091 1544.24,-82.1797 1547.27,-88.4908"/>
</g>
<!-- Node22&#45;&gt;Node23 -->
<g id="edge27" class="edge"><title>Node22&#45;&gt;Node23</title>
<path fill="none" stroke="midnightblue" d="M1478.17,-123.458C1509.03,-114.53 1558.73,-100.031 1601.5,-87 1604.62,-86.0483 1607.86,-85.0501 1611.11,-84.0416"/>
<polygon fill="midnightblue" stroke="midnightblue" points="1612.27,-87.3462 1620.77,-81.0214 1610.18,-80.6652 1612.27,-87.3462"/>
</g>
<!-- Node25&#45;&gt;Node2 -->
<g id="edge34" class="edge"><title>Node25&#45;&gt;Node2</title>
<path fill="none" stroke="midnightblue" d="M1597.84,-190.305C1625.63,-169.001 1697.37,-113.999 1732.1,-87.3753"/>
<polygon fill="midnightblue" stroke="midnightblue" points="1734.27,-90.1177 1740.08,-81.2557 1730.01,-84.5624 1734.27,-90.1177"/>
</g>
<!-- Node25&#45;&gt;Node5 -->
<g id="edge35" class="edge"><title>Node25&#45;&gt;Node5</title>
<path fill="none" stroke="midnightblue" d="M1550.3,-190.436C1532.14,-186.422 1509.76,-181.897 1489.5,-179 1309.23,-153.219 1093.8,-141.033 992.13,-136.379"/>
<polygon fill="midnightblue" stroke="midnightblue" points="992.211,-132.88 982.063,-135.926 991.896,-139.873 992.211,-132.88"/>
</g>
<!-- Node25&#45;&gt;Node26 -->
<g id="edge36" class="edge"><title>Node25&#45;&gt;Node26</title>
<path fill="none" stroke="midnightblue" d="M1606.14,-190.45C1616.95,-186.173 1630.72,-181.406 1643.5,-179 1885.52,-133.437 2660.4,-132.885 2880.62,-133.688"/>
<polygon fill="midnightblue" stroke="midnightblue" points="2880.67,-137.188 2890.68,-133.727 2880.7,-130.188 2880.67,-137.188"/>
</g>
<!-- Node50&#45;&gt;Node2 -->
<g id="edge77" class="edge"><title>Node50&#45;&gt;Node2</title>
<path fill="none" stroke="midnightblue" d="M983.281,-197.165C1083.13,-192.819 1314.61,-179.384 1505.5,-143 1582.55,-128.314 1670.32,-100.355 1717.38,-84.4139"/>
<polygon fill="midnightblue" stroke="midnightblue" points="1718.73,-87.6519 1727.07,-81.109 1716.47,-81.0272 1718.73,-87.6519"/>
</g>
<!-- Node50&#45;&gt;Node5 -->
<g id="edge78" class="edge"><title>Node50&#45;&gt;Node5</title>
<path fill="none" stroke="midnightblue" d="M933.5,-190.234C933.5,-180.683 933.5,-165.118 933.5,-152.783"/>
<polygon fill="midnightblue" stroke="midnightblue" points="937,-152.627 933.5,-142.627 930,-152.627 937,-152.627"/>
</g>
</g>
</svg>
