<?xml version="1.0" encoding="UTF-8" standalone="no"?>
<!DOCTYPE svg PUBLIC "-//W3C//DTD SVG 1.1//EN"
 "http://www.w3.org/Graphics/SVG/1.1/DTD/svg11.dtd">
<!-- Generated by graphviz version 2.38.0 (20140413.2041)
 -->
<!-- Title: boost/ui/image_widget.hpp Pages: 1 -->
<svg width="1173pt" height="330pt"
 viewBox="0.00 0.00 1173.00 330.00" xmlns="http://www.w3.org/2000/svg" xmlns:xlink="http://www.w3.org/1999/xlink">
<g id="graph0" class="graph" transform="scale(1 1) rotate(0) translate(4 326)">
<title>boost/ui/image_widget.hpp</title>
<polygon fill="white" stroke="none" points="-4,4 -4,-326 1169,-326 1169,4 -4,4"/>
<!-- Node1 -->
<g id="node1" class="node"><title>Node1</title>
<polygon fill="#bfbfbf" stroke="black" points="364,-302.5 364,-321.5 497,-321.5 497,-302.5 364,-302.5"/>
<text text-anchor="middle" x="430.5" y="-309.5" font-family="Helvetica,sans-Serif" font-size="10.00">boost/ui/image_widget.hpp</text>
</g>
<!-- Node2 -->
<g id="node2" class="node"><title>Node2</title>
<g id="a_node2"><a xlink:href="config_8hpp.html" target="_top" xlink:title="Configuration options. ">
<polygon fill="white" stroke="black" points="685,-62 685,-81 784,-81 784,-62 685,-62"/>
<text text-anchor="middle" x="734.5" y="-69" font-family="Helvetica,sans-Serif" font-size="10.00">boost/ui/config.hpp</text>
</a>
</g>
</g>
<!-- Node1&#45;&gt;Node2 -->
<g id="edge1" class="edge"><title>Node1&#45;&gt;Node2</title>
<path fill="none" stroke="midnightblue" d="M432.541,-302.49C438.192,-280.276 455.757,-219.455 487.5,-179 512.96,-146.552 524.651,-141.529 561.5,-123 583.997,-111.688 646.597,-94.6363 689.976,-83.535"/>
<polygon fill="midnightblue" stroke="midnightblue" points="690.905,-86.9101 699.735,-81.0546 689.181,-80.1258 690.905,-86.9101"/>
</g>
<!-- Node4 -->
<g id="node4" class="node"><title>Node4</title>
<g id="a_node4"><a xlink:href="widget_8hpp.html" target="_top" xlink:title="Widget class. ">
<polygon fill="white" stroke="black" points="681,-246.5 681,-265.5 782,-265.5 782,-246.5 681,-246.5"/>
<text text-anchor="middle" x="731.5" y="-253.5" font-family="Helvetica,sans-Serif" font-size="10.00">boost/ui/widget.hpp</text>
</a>
</g>
</g>
<!-- Node1&#45;&gt;Node4 -->
<g id="edge3" class="edge"><title>Node1&#45;&gt;Node4</title>
<path fill="none" stroke="midnightblue" d="M478.194,-302.444C531.364,-292.905 617.324,-277.483 674.126,-267.293"/>
<polygon fill="midnightblue" stroke="midnightblue" points="674.804,-270.727 684.029,-265.516 673.568,-263.837 674.804,-270.727"/>
</g>
<!-- Node21 -->
<g id="node21" class="node"><title>Node21</title>
<g id="a_node21"><a xlink:href="image_8hpp.html" target="_top" xlink:title="Image class. ">
<polygon fill="white" stroke="black" points="303,-185 303,-204 402,-204 402,-185 303,-185"/>
<text text-anchor="middle" x="352.5" y="-192" font-family="Helvetica,sans-Serif" font-size="10.00">boost/ui/image.hpp</text>
</a>
</g>
</g>
<!-- Node1&#45;&gt;Node21 -->
<g id="edge28" class="edge"><title>Node1&#45;&gt;Node21</title>
<path fill="none" stroke="midnightblue" d="M424.637,-302.319C411.82,-283.339 381.099,-237.848 364.175,-212.788"/>
<polygon fill="midnightblue" stroke="midnightblue" points="366.928,-210.61 358.431,-204.282 361.127,-214.528 366.928,-210.61"/>
</g>
<!-- Node3 -->
<g id="node3" class="node"><title>Node3</title>
<polygon fill="white" stroke="#bfbfbf" points="690,-0.5 690,-19.5 779,-19.5 779,-0.5 690,-0.5"/>
<text text-anchor="middle" x="734.5" y="-7.5" font-family="Helvetica,sans-Serif" font-size="10.00">boost/config.hpp</text>
</g>
<!-- Node2&#45;&gt;Node3 -->
<g id="edge2" class="edge"><title>Node2&#45;&gt;Node3</title>
<path fill="none" stroke="midnightblue" d="M734.5,-61.9751C734.5,-53.5803 734.5,-40.4806 734.5,-29.6631"/>
<polygon fill="midnightblue" stroke="midnightblue" points="738,-29.5091 734.5,-19.5091 731,-29.5091 738,-29.5091"/>
</g>
<!-- Node4&#45;&gt;Node2 -->
<g id="edge4" class="edge"><title>Node4&#45;&gt;Node2</title>
<path fill="none" stroke="midnightblue" d="M782.114,-252.034C841.069,-247.399 933.145,-236.095 954.5,-210 972.337,-188.204 935.075,-124.41 933.5,-123 895.519,-88.991 837.857,-77.2206 794.364,-73.455"/>
<polygon fill="midnightblue" stroke="midnightblue" points="794.427,-69.95 784.194,-72.6963 793.906,-76.9306 794.427,-69.95"/>
</g>
<!-- Node5 -->
<g id="node5" class="node"><title>Node5</title>
<g id="a_node5"><a xlink:href="coord_8hpp.html" target="_top" xlink:title="Coordinates classes. ">
<polygon fill="white" stroke="black" points="304,-123.5 304,-142.5 401,-142.5 401,-123.5 304,-123.5"/>
<text text-anchor="middle" x="352.5" y="-130.5" font-family="Helvetica,sans-Serif" font-size="10.00">boost/ui/coord.hpp</text>
</a>
</g>
</g>
<!-- Node4&#45;&gt;Node5 -->
<g id="edge5" class="edge"><title>Node4&#45;&gt;Node5</title>
<path fill="none" stroke="midnightblue" d="M680.689,-250.562C630.424,-245.037 551.895,-233.328 487.5,-210 444.257,-194.335 398.55,-165.687 372.964,-148.391"/>
<polygon fill="midnightblue" stroke="midnightblue" points="374.716,-145.348 364.49,-142.577 370.756,-151.12 374.716,-145.348"/>
</g>
<!-- Node11 -->
<g id="node11" class="node"><title>Node11</title>
<g id="a_node11"><a xlink:href="string_8hpp.html" target="_top" xlink:title="String class and operations. ">
<polygon fill="white" stroke="black" points="1003,-123.5 1003,-142.5 1100,-142.5 1100,-123.5 1003,-123.5"/>
<text text-anchor="middle" x="1051.5" y="-130.5" font-family="Helvetica,sans-Serif" font-size="10.00">boost/ui/string.hpp</text>
</a>
</g>
</g>
<!-- Node4&#45;&gt;Node11 -->
<g id="edge12" class="edge"><title>Node4&#45;&gt;Node11</title>
<path fill="none" stroke="midnightblue" d="M782.111,-250.312C846.713,-243.621 954.223,-229.9 988.5,-210 1012.51,-196.06 1031.36,-169.329 1041.97,-151.577"/>
<polygon fill="midnightblue" stroke="midnightblue" points="1045.07,-153.197 1046.99,-142.777 1038.99,-149.726 1045.07,-153.197"/>
</g>
<!-- Node15 -->
<g id="node15" class="node"><title>Node15</title>
<g id="a_node15"><a xlink:href="event_8hpp.html" target="_top" xlink:title="Event classes. ">
<polygon fill="white" stroke="black" points="625,-185 625,-204 722,-204 722,-185 625,-185"/>
<text text-anchor="middle" x="673.5" y="-192" font-family="Helvetica,sans-Serif" font-size="10.00">boost/ui/event.hpp</text>
</a>
</g>
</g>
<!-- Node4&#45;&gt;Node15 -->
<g id="edge17" class="edge"><title>Node4&#45;&gt;Node15</title>
<path fill="none" stroke="midnightblue" d="M723.19,-246.475C714.318,-237.373 700.054,-222.741 689.08,-211.483"/>
<polygon fill="midnightblue" stroke="midnightblue" points="691.281,-208.727 681.795,-204.009 686.269,-213.613 691.281,-208.727"/>
</g>
<!-- Node17 -->
<g id="node17" class="node"><title>Node17</title>
<g id="a_node17"><a xlink:href="font_8hpp.html" target="_top" xlink:title="Font class. ">
<polygon fill="white" stroke="black" points="857,-185 857,-204 946,-204 946,-185 857,-185"/>
<text text-anchor="middle" x="901.5" y="-192" font-family="Helvetica,sans-Serif" font-size="10.00">boost/ui/font.hpp</text>
</a>
</g>
</g>
<!-- Node4&#45;&gt;Node17 -->
<g id="edge21" class="edge"><title>Node4&#45;&gt;Node17</title>
<path fill="none" stroke="midnightblue" d="M755.857,-246.475C785.144,-236.225 834.474,-218.959 867.502,-207.399"/>
<polygon fill="midnightblue" stroke="midnightblue" points="868.906,-210.616 877.188,-204.009 866.593,-204.009 868.906,-210.616"/>
</g>
<!-- Node19 -->
<g id="node19" class="node"><title>Node19</title>
<g id="a_node19"><a xlink:href="layout_8hpp.html" target="_top" xlink:title="Layout classes. ">
<polygon fill="white" stroke="black" points="740,-185 740,-204 839,-204 839,-185 740,-185"/>
<text text-anchor="middle" x="789.5" y="-192" font-family="Helvetica,sans-Serif" font-size="10.00">boost/ui/layout.hpp</text>
</a>
</g>
</g>
<!-- Node4&#45;&gt;Node19 -->
<g id="edge25" class="edge"><title>Node4&#45;&gt;Node19</title>
<path fill="none" stroke="midnightblue" d="M739.81,-246.475C748.682,-237.373 762.946,-222.741 773.92,-211.483"/>
<polygon fill="midnightblue" stroke="midnightblue" points="776.731,-213.613 781.205,-204.009 771.719,-208.727 776.731,-213.613"/>
</g>
<!-- Node20 -->
<g id="node20" class="node"><title>Node20</title>
<polygon fill="white" stroke="#bfbfbf" points="496.5,-179.5 496.5,-209.5 606.5,-209.5 606.5,-179.5 496.5,-179.5"/>
<text text-anchor="start" x="504.5" y="-197.5" font-family="Helvetica,sans-Serif" font-size="10.00">boost/ui/detail/shared</text>
<text text-anchor="middle" x="551.5" y="-186.5" font-family="Helvetica,sans-Serif" font-size="10.00">_count.hpp</text>
</g>
<!-- Node4&#45;&gt;Node20 -->
<g id="edge27" class="edge"><title>Node4&#45;&gt;Node20</title>
<path fill="none" stroke="midnightblue" d="M705.71,-246.475C679.167,-237.701 637.077,-223.788 603.571,-212.712"/>
<polygon fill="midnightblue" stroke="midnightblue" points="604.516,-209.338 593.922,-209.523 602.319,-215.985 604.516,-209.338"/>
</g>
<!-- Node5&#45;&gt;Node2 -->
<g id="edge6" class="edge"><title>Node5&#45;&gt;Node2</title>
<path fill="none" stroke="midnightblue" d="M401.336,-125.002C406.122,-124.323 410.905,-123.646 415.5,-123 531.021,-106.751 560.926,-108.95 675.5,-87 681.003,-85.9456 686.764,-84.7045 692.437,-83.3994"/>
<polygon fill="midnightblue" stroke="midnightblue" points="693.563,-86.7291 702.481,-81.0078 691.942,-79.9195 693.563,-86.7291"/>
</g>
<!-- Node6 -->
<g id="node6" class="node"><title>Node6</title>
<polygon fill="white" stroke="#bfbfbf" points="411,-62 411,-81 514,-81 514,-62 411,-62"/>
<text text-anchor="middle" x="462.5" y="-69" font-family="Helvetica,sans-Serif" font-size="10.00">boost/geometry.hpp</text>
</g>
<!-- Node5&#45;&gt;Node6 -->
<g id="edge7" class="edge"><title>Node5&#45;&gt;Node6</title>
<path fill="none" stroke="midnightblue" d="M368.26,-123.475C386.476,-113.622 416.673,-97.2883 437.968,-85.7697"/>
<polygon fill="midnightblue" stroke="midnightblue" points="439.638,-88.8453 446.769,-81.0091 436.308,-82.6883 439.638,-88.8453"/>
</g>
<!-- Node7 -->
<g id="node7" class="node"><title>Node7</title>
<polygon fill="white" stroke="#bfbfbf" points="532,-56.5 532,-86.5 667,-86.5 667,-56.5 532,-56.5"/>
<text text-anchor="start" x="540" y="-74.5" font-family="Helvetica,sans-Serif" font-size="10.00">boost/geometry/geometries</text>
<text text-anchor="middle" x="599.5" y="-63.5" font-family="Helvetica,sans-Serif" font-size="10.00">/point_xy.hpp</text>
</g>
<!-- Node5&#45;&gt;Node7 -->
<g id="edge8" class="edge"><title>Node5&#45;&gt;Node7</title>
<path fill="none" stroke="midnightblue" d="M387.889,-123.475C425.172,-114.494 484.808,-100.128 531.283,-88.9328"/>
<polygon fill="midnightblue" stroke="midnightblue" points="532.385,-92.2676 541.287,-86.523 530.745,-85.4623 532.385,-92.2676"/>
</g>
<!-- Node8 -->
<g id="node8" class="node"><title>Node8</title>
<polygon fill="white" stroke="#bfbfbf" points="0,-56.5 0,-86.5 135,-86.5 135,-56.5 0,-56.5"/>
<text text-anchor="start" x="8" y="-74.5" font-family="Helvetica,sans-Serif" font-size="10.00">boost/geometry/geometries</text>
<text text-anchor="middle" x="67.5" y="-63.5" font-family="Helvetica,sans-Serif" font-size="10.00">/box.hpp</text>
</g>
<!-- Node5&#45;&gt;Node8 -->
<g id="edge9" class="edge"><title>Node5&#45;&gt;Node8</title>
<path fill="none" stroke="midnightblue" d="M311.666,-123.475C268.197,-114.4 198.392,-99.8265 144.53,-88.5818"/>
<polygon fill="midnightblue" stroke="midnightblue" points="145.173,-85.1406 134.669,-86.523 143.743,-91.9928 145.173,-85.1406"/>
</g>
<!-- Node9 -->
<g id="node9" class="node"><title>Node9</title>
<polygon fill="white" stroke="#bfbfbf" points="153,-56.5 153,-86.5 254,-86.5 254,-56.5 153,-56.5"/>
<text text-anchor="start" x="161" y="-74.5" font-family="Helvetica,sans-Serif" font-size="10.00">boost/polygon/point</text>
<text text-anchor="middle" x="203.5" y="-63.5" font-family="Helvetica,sans-Serif" font-size="10.00">_data.hpp</text>
</g>
<!-- Node5&#45;&gt;Node9 -->
<g id="edge10" class="edge"><title>Node5&#45;&gt;Node9</title>
<path fill="none" stroke="midnightblue" d="M331.152,-123.475C309.557,-114.852 275.531,-101.264 248.038,-90.2852"/>
<polygon fill="midnightblue" stroke="midnightblue" points="249.201,-86.9811 238.616,-86.523 246.605,-93.482 249.201,-86.9811"/>
</g>
<!-- Node10 -->
<g id="node10" class="node"><title>Node10</title>
<polygon fill="white" stroke="#bfbfbf" points="272.5,-56.5 272.5,-86.5 392.5,-86.5 392.5,-56.5 272.5,-56.5"/>
<text text-anchor="start" x="280.5" y="-74.5" font-family="Helvetica,sans-Serif" font-size="10.00">boost/polygon/rectangle</text>
<text text-anchor="middle" x="332.5" y="-63.5" font-family="Helvetica,sans-Serif" font-size="10.00">_data.hpp</text>
</g>
<!-- Node5&#45;&gt;Node10 -->
<g id="edge11" class="edge"><title>Node5&#45;&gt;Node10</title>
<path fill="none" stroke="midnightblue" d="M349.634,-123.475C347.23,-116.32 343.676,-105.748 340.427,-96.0841"/>
<polygon fill="midnightblue" stroke="midnightblue" points="343.717,-94.8866 337.214,-86.523 337.082,-97.117 343.717,-94.8866"/>
</g>
<!-- Node11&#45;&gt;Node2 -->
<g id="edge13" class="edge"><title>Node11&#45;&gt;Node2</title>
<path fill="none" stroke="midnightblue" d="M1006.08,-123.475C948.998,-112.761 851.082,-94.3821 789.728,-82.8661"/>
<polygon fill="midnightblue" stroke="midnightblue" points="790.308,-79.414 779.834,-81.0091 789.017,-86.2939 790.308,-79.414"/>
</g>
<!-- Node12 -->
<g id="node12" class="node"><title>Node12</title>
<polygon fill="white" stroke="#bfbfbf" points="956,-62 956,-81 997,-81 997,-62 956,-62"/>
<text text-anchor="middle" x="976.5" y="-69" font-family="Helvetica,sans-Serif" font-size="10.00">string</text>
</g>
<!-- Node11&#45;&gt;Node12 -->
<g id="edge14" class="edge"><title>Node11&#45;&gt;Node12</title>
<path fill="none" stroke="midnightblue" d="M1040.75,-123.475C1028.95,-114.108 1009.76,-98.8839 995.418,-87.5081"/>
<polygon fill="midnightblue" stroke="midnightblue" points="997.235,-84.4822 987.226,-81.0091 992.885,-89.9661 997.235,-84.4822"/>
</g>
<!-- Node13 -->
<g id="node13" class="node"><title>Node13</title>
<polygon fill="white" stroke="#bfbfbf" points="1015,-62 1015,-81 1088,-81 1088,-62 1015,-62"/>
<text text-anchor="middle" x="1051.5" y="-69" font-family="Helvetica,sans-Serif" font-size="10.00">initializer_list</text>
</g>
<!-- Node11&#45;&gt;Node13 -->
<g id="edge15" class="edge"><title>Node11&#45;&gt;Node13</title>
<path fill="none" stroke="midnightblue" d="M1051.5,-123.475C1051.5,-115.08 1051.5,-101.981 1051.5,-91.1631"/>
<polygon fill="midnightblue" stroke="midnightblue" points="1055,-91.0091 1051.5,-81.0091 1048,-91.0091 1055,-91.0091"/>
</g>
<!-- Node14 -->
<g id="node14" class="node"><title>Node14</title>
<polygon fill="white" stroke="#bfbfbf" points="1106,-62 1106,-81 1165,-81 1165,-62 1106,-62"/>
<text text-anchor="middle" x="1135.5" y="-69" font-family="Helvetica,sans-Serif" font-size="10.00">functional</text>
</g>
<!-- Node11&#45;&gt;Node14 -->
<g id="edge16" class="edge"><title>Node11&#45;&gt;Node14</title>
<path fill="none" stroke="midnightblue" d="M1063.54,-123.475C1077.01,-113.931 1099.07,-98.3073 1115.22,-86.8683"/>
<polygon fill="midnightblue" stroke="midnightblue" points="1117.35,-89.6454 1123.49,-81.0091 1113.3,-83.9332 1117.35,-89.6454"/>
</g>
<!-- Node15&#45;&gt;Node2 -->
<g id="edge18" class="edge"><title>Node15&#45;&gt;Node2</title>
<path fill="none" stroke="midnightblue" d="M677.887,-184.798C687.823,-165.089 712.212,-116.711 725.505,-90.342"/>
<polygon fill="midnightblue" stroke="midnightblue" points="728.776,-91.6282 730.153,-81.1232 722.526,-88.4771 728.776,-91.6282"/>
</g>
<!-- Node15&#45;&gt;Node5 -->
<g id="edge19" class="edge"><title>Node15&#45;&gt;Node5</title>
<path fill="none" stroke="midnightblue" d="M641.084,-184.937C632.773,-182.868 623.829,-180.751 615.5,-179 545.656,-164.316 464.621,-151.008 411.163,-142.737"/>
<polygon fill="midnightblue" stroke="midnightblue" points="411.597,-139.263 401.181,-141.202 410.533,-146.182 411.597,-139.263"/>
</g>
<!-- Node16 -->
<g id="node16" class="node"><title>Node16</title>
<polygon fill="white" stroke="#bfbfbf" points="571,-123.5 571,-142.5 668,-142.5 668,-123.5 571,-123.5"/>
<text text-anchor="middle" x="619.5" y="-130.5" font-family="Helvetica,sans-Serif" font-size="10.00">boost/function.hpp</text>
</g>
<!-- Node15&#45;&gt;Node16 -->
<g id="edge20" class="edge"><title>Node15&#45;&gt;Node16</title>
<path fill="none" stroke="midnightblue" d="M665.763,-184.975C657.503,-175.873 644.223,-161.241 634.006,-149.983"/>
<polygon fill="midnightblue" stroke="midnightblue" points="636.535,-147.562 627.223,-142.509 631.351,-152.266 636.535,-147.562"/>
</g>
<!-- Node17&#45;&gt;Node2 -->
<g id="edge22" class="edge"><title>Node17&#45;&gt;Node2</title>
<path fill="none" stroke="midnightblue" d="M907.411,-184.725C916.285,-170.349 930.587,-141.528 916.5,-123 901.57,-103.363 841.321,-89.3641 794.181,-81.1595"/>
<polygon fill="midnightblue" stroke="midnightblue" points="794.483,-77.6609 784.04,-79.4471 793.317,-84.5632 794.483,-77.6609"/>
</g>
<!-- Node17&#45;&gt;Node11 -->
<g id="edge23" class="edge"><title>Node17&#45;&gt;Node11</title>
<path fill="none" stroke="midnightblue" d="M922.991,-184.975C948.61,-174.813 991.61,-157.756 1020.74,-146.2"/>
<polygon fill="midnightblue" stroke="midnightblue" points="1022.04,-149.45 1030.05,-142.509 1019.46,-142.943 1022.04,-149.45"/>
</g>
<!-- Node18 -->
<g id="node18" class="node"><title>Node18</title>
<polygon fill="white" stroke="#bfbfbf" points="763,-123.5 763,-142.5 908,-142.5 908,-123.5 763,-123.5"/>
<text text-anchor="middle" x="835.5" y="-130.5" font-family="Helvetica,sans-Serif" font-size="10.00">boost/core/scoped_enum.hpp</text>
</g>
<!-- Node17&#45;&gt;Node18 -->
<g id="edge24" class="edge"><title>Node17&#45;&gt;Node18</title>
<path fill="none" stroke="midnightblue" d="M892.044,-184.975C881.752,-175.697 865.084,-160.671 852.506,-149.331"/>
<polygon fill="midnightblue" stroke="midnightblue" points="854.71,-146.605 844.939,-142.509 850.022,-151.805 854.71,-146.605"/>
</g>
<!-- Node19&#45;&gt;Node2 -->
<g id="edge26" class="edge"><title>Node19&#45;&gt;Node2</title>
<path fill="none" stroke="midnightblue" d="M781.816,-184.808C773.695,-175.201 761.042,-158.966 753.5,-143 745.64,-126.359 740.584,-105.917 737.68,-91.3385"/>
<polygon fill="midnightblue" stroke="midnightblue" points="741.046,-90.2927 735.799,-81.0883 734.161,-91.5557 741.046,-90.2927"/>
</g>
<!-- Node21&#45;&gt;Node2 -->
<g id="edge29" class="edge"><title>Node21&#45;&gt;Node2</title>
<path fill="none" stroke="midnightblue" d="M361.67,-184.902C378.449,-169.704 415.846,-138.262 453.5,-123 546.136,-85.4534 577.554,-106.944 675.5,-87 680.862,-85.9083 686.473,-84.6636 692.013,-83.3728"/>
<polygon fill="midnightblue" stroke="midnightblue" points="692.926,-86.7531 701.837,-81.0225 691.298,-79.9452 692.926,-86.7531"/>
</g>
<!-- Node21&#45;&gt;Node5 -->
<g id="edge30" class="edge"><title>Node21&#45;&gt;Node5</title>
<path fill="none" stroke="midnightblue" d="M352.5,-184.975C352.5,-176.58 352.5,-163.481 352.5,-152.663"/>
<polygon fill="midnightblue" stroke="midnightblue" points="356,-152.509 352.5,-142.509 349,-152.509 356,-152.509"/>
</g>
<!-- Node22 -->
<g id="node22" class="node"><title>Node22</title>
<polygon fill="white" stroke="#bfbfbf" points="237,-123.5 237,-142.5 286,-142.5 286,-123.5 237,-123.5"/>
<text text-anchor="middle" x="261.5" y="-130.5" font-family="Helvetica,sans-Serif" font-size="10.00">istream</text>
</g>
<!-- Node21&#45;&gt;Node22 -->
<g id="edge31" class="edge"><title>Node21&#45;&gt;Node22</title>
<path fill="none" stroke="midnightblue" d="M339.462,-184.975C324.731,-175.343 300.527,-159.517 282.991,-148.052"/>
<polygon fill="midnightblue" stroke="midnightblue" points="284.799,-145.052 274.514,-142.509 280.968,-150.911 284.799,-145.052"/>
</g>
</g>
</svg>
