<?xml version="1.0" encoding="UTF-8" standalone="no"?>
<!DOCTYPE svg PUBLIC "-//W3C//DTD SVG 1.1//EN"
 "http://www.w3.org/Graphics/SVG/1.1/DTD/svg11.dtd">
<!-- Generated by graphviz version 2.38.0 (20140413.2041)
 -->
<!-- Title: boost/ui/image_widget.hpp Pages: 1 -->
<svg width="1215pt" height="330pt"
 viewBox="0.00 0.00 1215.00 330.00" xmlns="http://www.w3.org/2000/svg" xmlns:xlink="http://www.w3.org/1999/xlink">
<g id="graph0" class="graph" transform="scale(1 1) rotate(0) translate(4 326)">
<title>boost/ui/image_widget.hpp</title>
<polygon fill="white" stroke="none" points="-4,4 -4,-326 1211,-326 1211,4 -4,4"/>
<!-- Node1 -->
<g id="node1" class="node"><title>Node1</title>
<polygon fill="#bfbfbf" stroke="black" points="343,-302.5 343,-321.5 476,-321.5 476,-302.5 343,-302.5"/>
<text text-anchor="middle" x="409.5" y="-309.5" font-family="Helvetica,sans-Serif" font-size="10.00">boost/ui/image_widget.hpp</text>
</g>
<!-- Node2 -->
<g id="node2" class="node"><title>Node2</title>
<g id="a_node2"><a xlink:href="config_8hpp.html" target="_top" xlink:title="Configuration options. ">
<polygon fill="white" stroke="black" points="686,-62 686,-81 785,-81 785,-62 686,-62"/>
<text text-anchor="middle" x="735.5" y="-69" font-family="Helvetica,sans-Serif" font-size="10.00">boost/ui/config.hpp</text>
</a>
</g>
</g>
<!-- Node1&#45;&gt;Node2 -->
<g id="edge1" class="edge"><title>Node1&#45;&gt;Node2</title>
<path fill="none" stroke="midnightblue" d="M411.513,-302.451C419.387,-271.222 451.34,-163.058 524.5,-123 585.015,-89.866 608.414,-103.103 675.5,-87 680.264,-85.8564 685.24,-84.6588 690.201,-83.463"/>
<polygon fill="midnightblue" stroke="midnightblue" points="691.388,-86.7771 700.288,-81.0288 689.746,-79.9724 691.388,-86.7771"/>
</g>
<!-- Node4 -->
<g id="node4" class="node"><title>Node4</title>
<g id="a_node4"><a xlink:href="widget_8hpp.html" target="_top" xlink:title="Widget class. ">
<polygon fill="white" stroke="black" points="743,-246.5 743,-265.5 844,-265.5 844,-246.5 743,-246.5"/>
<text text-anchor="middle" x="793.5" y="-253.5" font-family="Helvetica,sans-Serif" font-size="10.00">boost/ui/widget.hpp</text>
</a>
</g>
</g>
<!-- Node1&#45;&gt;Node4 -->
<g id="edge3" class="edge"><title>Node1&#45;&gt;Node4</title>
<path fill="none" stroke="midnightblue" d="M470.346,-302.444C542.104,-292.353 660.679,-275.678 732.503,-265.578"/>
<polygon fill="midnightblue" stroke="midnightblue" points="733.334,-268.995 742.749,-264.137 732.359,-262.064 733.334,-268.995"/>
</g>
<!-- Node22 -->
<g id="node22" class="node"><title>Node22</title>
<g id="a_node22"><a xlink:href="image_8hpp.html" target="_top" xlink:title="Image class. ">
<polygon fill="white" stroke="black" points="282,-185 282,-204 381,-204 381,-185 282,-185"/>
<text text-anchor="middle" x="331.5" y="-192" font-family="Helvetica,sans-Serif" font-size="10.00">boost/ui/image.hpp</text>
</a>
</g>
</g>
<!-- Node1&#45;&gt;Node22 -->
<g id="edge29" class="edge"><title>Node1&#45;&gt;Node22</title>
<path fill="none" stroke="midnightblue" d="M403.637,-302.319C390.82,-283.339 360.099,-237.848 343.175,-212.788"/>
<polygon fill="midnightblue" stroke="midnightblue" points="345.928,-210.61 337.431,-204.282 340.127,-214.528 345.928,-210.61"/>
</g>
<!-- Node3 -->
<g id="node3" class="node"><title>Node3</title>
<polygon fill="white" stroke="#bfbfbf" points="691,-0.5 691,-19.5 780,-19.5 780,-0.5 691,-0.5"/>
<text text-anchor="middle" x="735.5" y="-7.5" font-family="Helvetica,sans-Serif" font-size="10.00">boost/config.hpp</text>
</g>
<!-- Node2&#45;&gt;Node3 -->
<g id="edge2" class="edge"><title>Node2&#45;&gt;Node3</title>
<path fill="none" stroke="midnightblue" d="M735.5,-61.9751C735.5,-53.5803 735.5,-40.4806 735.5,-29.6631"/>
<polygon fill="midnightblue" stroke="midnightblue" points="739,-29.5091 735.5,-19.5091 732,-29.5091 739,-29.5091"/>
</g>
<!-- Node4&#45;&gt;Node2 -->
<g id="edge4" class="edge"><title>Node4&#45;&gt;Node2</title>
<path fill="none" stroke="midnightblue" d="M844.175,-250.889C897.958,-245.351 977.746,-233.367 996.5,-210 1005.12,-199.255 998.851,-192.576 996.5,-179 991.989,-152.959 996.418,-140.37 976.5,-123 949.948,-99.8449 857.683,-85.5723 795.331,-78.3429"/>
<polygon fill="midnightblue" stroke="midnightblue" points="795.541,-74.8445 785.212,-77.2007 794.756,-81.8004 795.541,-74.8445"/>
</g>
<!-- Node5 -->
<g id="node5" class="node"><title>Node5</title>
<g id="a_node5"><a xlink:href="coord_8hpp.html" target="_top" xlink:title="Coordinates classes. ">
<polygon fill="white" stroke="black" points="284,-123.5 284,-142.5 381,-142.5 381,-123.5 284,-123.5"/>
<text text-anchor="middle" x="332.5" y="-130.5" font-family="Helvetica,sans-Serif" font-size="10.00">boost/ui/coord.hpp</text>
</a>
</g>
</g>
<!-- Node4&#45;&gt;Node5 -->
<g id="edge5" class="edge"><title>Node4&#45;&gt;Node5</title>
<path fill="none" stroke="midnightblue" d="M742.849,-253.923C677.4,-251.213 560.678,-241.874 466.5,-210 422.954,-195.262 377.473,-166.052 352.288,-148.448"/>
<polygon fill="midnightblue" stroke="midnightblue" points="354.147,-145.476 343.968,-142.536 350.092,-151.182 354.147,-145.476"/>
</g>
<!-- Node11 -->
<g id="node11" class="node"><title>Node11</title>
<g id="a_node11"><a xlink:href="string_8hpp.html" target="_top" xlink:title="String class and operations. ">
<polygon fill="white" stroke="black" points="1045,-123.5 1045,-142.5 1142,-142.5 1142,-123.5 1045,-123.5"/>
<text text-anchor="middle" x="1093.5" y="-130.5" font-family="Helvetica,sans-Serif" font-size="10.00">boost/ui/string.hpp</text>
</a>
</g>
</g>
<!-- Node4&#45;&gt;Node11 -->
<g id="edge12" class="edge"><title>Node4&#45;&gt;Node11</title>
<path fill="none" stroke="midnightblue" d="M844.142,-255.13C894.64,-253.121 972.791,-244.057 1030.5,-210 1054.41,-195.889 1073.29,-169.203 1083.93,-151.508"/>
<polygon fill="midnightblue" stroke="midnightblue" points="1087.02,-153.153 1088.97,-142.739 1080.95,-149.663 1087.02,-153.153"/>
</g>
<!-- Node15 -->
<g id="node15" class="node"><title>Node15</title>
<g id="a_node15"><a xlink:href="event_8hpp.html" target="_top" xlink:title="Event classes. ">
<polygon fill="white" stroke="black" points="745,-185 745,-204 842,-204 842,-185 745,-185"/>
<text text-anchor="middle" x="793.5" y="-192" font-family="Helvetica,sans-Serif" font-size="10.00">boost/ui/event.hpp</text>
</a>
</g>
</g>
<!-- Node4&#45;&gt;Node15 -->
<g id="edge17" class="edge"><title>Node4&#45;&gt;Node15</title>
<path fill="none" stroke="midnightblue" d="M793.5,-246.475C793.5,-238.08 793.5,-224.981 793.5,-214.163"/>
<polygon fill="midnightblue" stroke="midnightblue" points="797,-214.009 793.5,-204.009 790,-214.009 797,-214.009"/>
</g>
<!-- Node17 -->
<g id="node17" class="node"><title>Node17</title>
<g id="a_node17"><a xlink:href="font_8hpp.html" target="_top" xlink:title="Font class. ">
<polygon fill="white" stroke="black" points="899,-185 899,-204 988,-204 988,-185 899,-185"/>
<text text-anchor="middle" x="943.5" y="-192" font-family="Helvetica,sans-Serif" font-size="10.00">boost/ui/font.hpp</text>
</a>
</g>
</g>
<!-- Node4&#45;&gt;Node17 -->
<g id="edge21" class="edge"><title>Node4&#45;&gt;Node17</title>
<path fill="none" stroke="midnightblue" d="M814.991,-246.475C840.61,-236.313 883.61,-219.256 912.745,-207.7"/>
<polygon fill="midnightblue" stroke="midnightblue" points="914.044,-210.95 922.049,-204.009 911.463,-204.443 914.044,-210.95"/>
</g>
<!-- Node19 -->
<g id="node19" class="node"><title>Node19</title>
<g id="a_node19"><a xlink:href="layout_8hpp.html" target="_top" xlink:title="Layout classes. ">
<polygon fill="white" stroke="black" points="688,-123.5 688,-142.5 787,-142.5 787,-123.5 688,-123.5"/>
<text text-anchor="middle" x="737.5" y="-130.5" font-family="Helvetica,sans-Serif" font-size="10.00">boost/ui/layout.hpp</text>
</a>
</g>
</g>
<!-- Node4&#45;&gt;Node19 -->
<g id="edge25" class="edge"><title>Node4&#45;&gt;Node19</title>
<path fill="none" stroke="midnightblue" d="M811.582,-246.39C825.062,-238.872 842.472,-226.565 850.5,-210 856.508,-197.601 858.233,-190.403 850.5,-179 838.222,-160.895 817.377,-150.074 796.909,-143.607"/>
<polygon fill="midnightblue" stroke="midnightblue" points="797.825,-140.228 787.248,-140.85 795.904,-146.96 797.825,-140.228"/>
</g>
<!-- Node20 -->
<g id="node20" class="node"><title>Node20</title>
<polygon fill="white" stroke="#bfbfbf" points="475.5,-179.5 475.5,-209.5 585.5,-209.5 585.5,-179.5 475.5,-179.5"/>
<text text-anchor="start" x="483.5" y="-197.5" font-family="Helvetica,sans-Serif" font-size="10.00">boost/ui/detail/shared</text>
<text text-anchor="middle" x="530.5" y="-186.5" font-family="Helvetica,sans-Serif" font-size="10.00">_count.hpp</text>
</g>
<!-- Node4&#45;&gt;Node20 -->
<g id="edge27" class="edge"><title>Node4&#45;&gt;Node20</title>
<path fill="none" stroke="midnightblue" d="M755.72,-246.462C717.723,-237.873 657.181,-224.186 595.554,-210.238"/>
<polygon fill="midnightblue" stroke="midnightblue" points="596.184,-206.792 585.658,-207.998 594.638,-213.619 596.184,-206.792"/>
</g>
<!-- Node21 -->
<g id="node21" class="node"><title>Node21</title>
<polygon fill="white" stroke="#bfbfbf" points="604,-185 604,-204 727,-204 727,-185 604,-185"/>
<text text-anchor="middle" x="665.5" y="-192" font-family="Helvetica,sans-Serif" font-size="10.00">boost/ui/detail/event.hpp</text>
</g>
<!-- Node4&#45;&gt;Node21 -->
<g id="edge28" class="edge"><title>Node4&#45;&gt;Node21</title>
<path fill="none" stroke="midnightblue" d="M775.161,-246.475C753.679,-236.49 717.878,-219.848 693.052,-208.307"/>
<polygon fill="midnightblue" stroke="midnightblue" points="694.349,-205.051 683.805,-204.009 691.398,-211.398 694.349,-205.051"/>
</g>
<!-- Node5&#45;&gt;Node2 -->
<g id="edge6" class="edge"><title>Node5&#45;&gt;Node2</title>
<path fill="none" stroke="midnightblue" d="M381.33,-124.955C386.117,-124.286 390.902,-123.624 395.5,-123 519.829,-106.128 552.115,-109.771 675.5,-87 681.239,-85.941 687.251,-84.6764 693.16,-83.3417"/>
<polygon fill="midnightblue" stroke="midnightblue" points="694.002,-86.7392 702.942,-81.0531 692.407,-79.9233 694.002,-86.7392"/>
</g>
<!-- Node6 -->
<g id="node6" class="node"><title>Node6</title>
<polygon fill="white" stroke="#bfbfbf" points="411,-62 411,-81 514,-81 514,-62 411,-62"/>
<text text-anchor="middle" x="462.5" y="-69" font-family="Helvetica,sans-Serif" font-size="10.00">boost/geometry.hpp</text>
</g>
<!-- Node5&#45;&gt;Node6 -->
<g id="edge7" class="edge"><title>Node5&#45;&gt;Node6</title>
<path fill="none" stroke="midnightblue" d="M351.126,-123.475C372.943,-113.49 409.304,-96.8476 434.517,-85.3075"/>
<polygon fill="midnightblue" stroke="midnightblue" points="436.272,-88.3534 443.909,-81.0091 433.359,-81.9884 436.272,-88.3534"/>
</g>
<!-- Node7 -->
<g id="node7" class="node"><title>Node7</title>
<polygon fill="white" stroke="#bfbfbf" points="532,-56.5 532,-86.5 667,-86.5 667,-56.5 532,-56.5"/>
<text text-anchor="start" x="540" y="-74.5" font-family="Helvetica,sans-Serif" font-size="10.00">boost/geometry/geometries</text>
<text text-anchor="middle" x="599.5" y="-63.5" font-family="Helvetica,sans-Serif" font-size="10.00">/point_xy.hpp</text>
</g>
<!-- Node5&#45;&gt;Node7 -->
<g id="edge8" class="edge"><title>Node5&#45;&gt;Node7</title>
<path fill="none" stroke="midnightblue" d="M370.755,-123.475C411.309,-114.438 476.333,-99.9473 526.706,-88.7219"/>
<polygon fill="midnightblue" stroke="midnightblue" points="527.574,-92.1144 536.573,-86.523 526.051,-85.282 527.574,-92.1144"/>
</g>
<!-- Node8 -->
<g id="node8" class="node"><title>Node8</title>
<polygon fill="white" stroke="#bfbfbf" points="0,-56.5 0,-86.5 135,-86.5 135,-56.5 0,-56.5"/>
<text text-anchor="start" x="8" y="-74.5" font-family="Helvetica,sans-Serif" font-size="10.00">boost/geometry/geometries</text>
<text text-anchor="middle" x="67.5" y="-63.5" font-family="Helvetica,sans-Serif" font-size="10.00">/box.hpp</text>
</g>
<!-- Node5&#45;&gt;Node8 -->
<g id="edge9" class="edge"><title>Node5&#45;&gt;Node8</title>
<path fill="none" stroke="midnightblue" d="M294.532,-123.475C254.281,-114.438 189.744,-99.9473 139.749,-88.7219"/>
<polygon fill="midnightblue" stroke="midnightblue" points="140.479,-85.2988 129.955,-86.523 138.946,-92.1288 140.479,-85.2988"/>
</g>
<!-- Node9 -->
<g id="node9" class="node"><title>Node9</title>
<polygon fill="white" stroke="#bfbfbf" points="153,-56.5 153,-86.5 254,-86.5 254,-56.5 153,-56.5"/>
<text text-anchor="start" x="161" y="-74.5" font-family="Helvetica,sans-Serif" font-size="10.00">boost/polygon/point</text>
<text text-anchor="middle" x="203.5" y="-63.5" font-family="Helvetica,sans-Serif" font-size="10.00">_data.hpp</text>
</g>
<!-- Node5&#45;&gt;Node9 -->
<g id="edge10" class="edge"><title>Node5&#45;&gt;Node9</title>
<path fill="none" stroke="midnightblue" d="M314.017,-123.475C295.566,-114.965 266.633,-101.619 242.998,-90.718"/>
<polygon fill="midnightblue" stroke="midnightblue" points="244.449,-87.5332 233.903,-86.523 241.517,-93.8896 244.449,-87.5332"/>
</g>
<!-- Node10 -->
<g id="node10" class="node"><title>Node10</title>
<polygon fill="white" stroke="#bfbfbf" points="272.5,-56.5 272.5,-86.5 392.5,-86.5 392.5,-56.5 272.5,-56.5"/>
<text text-anchor="start" x="280.5" y="-74.5" font-family="Helvetica,sans-Serif" font-size="10.00">boost/polygon/rectangle</text>
<text text-anchor="middle" x="332.5" y="-63.5" font-family="Helvetica,sans-Serif" font-size="10.00">_data.hpp</text>
</g>
<!-- Node5&#45;&gt;Node10 -->
<g id="edge11" class="edge"><title>Node5&#45;&gt;Node10</title>
<path fill="none" stroke="midnightblue" d="M332.5,-123.475C332.5,-116.471 332.5,-106.192 332.5,-96.6956"/>
<polygon fill="midnightblue" stroke="midnightblue" points="336,-96.5229 332.5,-86.523 329,-96.523 336,-96.5229"/>
</g>
<!-- Node11&#45;&gt;Node2 -->
<g id="edge13" class="edge"><title>Node11&#45;&gt;Node2</title>
<path fill="none" stroke="midnightblue" d="M1044.85,-123.914C979.976,-113.132 865.224,-94.0602 795.195,-82.4214"/>
<polygon fill="midnightblue" stroke="midnightblue" points="795.638,-78.947 785.199,-80.76 794.49,-85.8523 795.638,-78.947"/>
</g>
<!-- Node12 -->
<g id="node12" class="node"><title>Node12</title>
<polygon fill="white" stroke="#bfbfbf" points="998,-62 998,-81 1039,-81 1039,-62 998,-62"/>
<text text-anchor="middle" x="1018.5" y="-69" font-family="Helvetica,sans-Serif" font-size="10.00">string</text>
</g>
<!-- Node11&#45;&gt;Node12 -->
<g id="edge14" class="edge"><title>Node11&#45;&gt;Node12</title>
<path fill="none" stroke="midnightblue" d="M1082.75,-123.475C1070.95,-114.108 1051.76,-98.8839 1037.42,-87.5081"/>
<polygon fill="midnightblue" stroke="midnightblue" points="1039.24,-84.4822 1029.23,-81.0091 1034.88,-89.9661 1039.24,-84.4822"/>
</g>
<!-- Node13 -->
<g id="node13" class="node"><title>Node13</title>
<polygon fill="white" stroke="#bfbfbf" points="1057,-62 1057,-81 1130,-81 1130,-62 1057,-62"/>
<text text-anchor="middle" x="1093.5" y="-69" font-family="Helvetica,sans-Serif" font-size="10.00">initializer_list</text>
</g>
<!-- Node11&#45;&gt;Node13 -->
<g id="edge15" class="edge"><title>Node11&#45;&gt;Node13</title>
<path fill="none" stroke="midnightblue" d="M1093.5,-123.475C1093.5,-115.08 1093.5,-101.981 1093.5,-91.1631"/>
<polygon fill="midnightblue" stroke="midnightblue" points="1097,-91.0091 1093.5,-81.0091 1090,-91.0091 1097,-91.0091"/>
</g>
<!-- Node14 -->
<g id="node14" class="node"><title>Node14</title>
<polygon fill="white" stroke="#bfbfbf" points="1148,-62 1148,-81 1207,-81 1207,-62 1148,-62"/>
<text text-anchor="middle" x="1177.5" y="-69" font-family="Helvetica,sans-Serif" font-size="10.00">functional</text>
</g>
<!-- Node11&#45;&gt;Node14 -->
<g id="edge16" class="edge"><title>Node11&#45;&gt;Node14</title>
<path fill="none" stroke="midnightblue" d="M1105.54,-123.475C1119.01,-113.931 1141.07,-98.3073 1157.22,-86.8683"/>
<polygon fill="midnightblue" stroke="midnightblue" points="1159.35,-89.6454 1165.49,-81.0091 1155.3,-83.9332 1159.35,-89.6454"/>
</g>
<!-- Node15&#45;&gt;Node2 -->
<g id="edge18" class="edge"><title>Node15&#45;&gt;Node2</title>
<path fill="none" stroke="midnightblue" d="M765.076,-184.961C734.361,-175.09 688.455,-158.245 678.5,-143 664.945,-122.244 689.645,-100.342 710.658,-86.5613"/>
<polygon fill="midnightblue" stroke="midnightblue" points="712.671,-89.4312 719.316,-81.1793 708.975,-83.4862 712.671,-89.4312"/>
</g>
<!-- Node15&#45;&gt;Node5 -->
<g id="edge19" class="edge"><title>Node15&#45;&gt;Node5</title>
<path fill="none" stroke="midnightblue" d="M762.662,-184.977C753.933,-182.787 744.387,-180.6 735.5,-179 614.154,-157.158 470.224,-144.14 391.404,-138.095"/>
<polygon fill="midnightblue" stroke="midnightblue" points="391.425,-134.587 381.189,-137.323 390.897,-141.567 391.425,-134.587"/>
</g>
<!-- Node16 -->
<g id="node16" class="node"><title>Node16</title>
<polygon fill="white" stroke="#bfbfbf" points="534,-123.5 534,-142.5 631,-142.5 631,-123.5 534,-123.5"/>
<text text-anchor="middle" x="582.5" y="-130.5" font-family="Helvetica,sans-Serif" font-size="10.00">boost/function.hpp</text>
</g>
<!-- Node15&#45;&gt;Node16 -->
<g id="edge20" class="edge"><title>Node15&#45;&gt;Node16</title>
<path fill="none" stroke="midnightblue" d="M763.269,-184.975C726.213,-174.526 663.307,-156.787 622.336,-145.233"/>
<polygon fill="midnightblue" stroke="midnightblue" points="623.25,-141.855 612.675,-142.509 621.35,-148.592 623.25,-141.855"/>
</g>
<!-- Node17&#45;&gt;Node2 -->
<g id="edge22" class="edge"><title>Node17&#45;&gt;Node2</title>
<path fill="none" stroke="midnightblue" d="M949.51,-184.648C958.526,-170.161 973.027,-141.185 958.5,-123 938.387,-97.823 854.091,-84.2688 795.112,-77.7216"/>
<polygon fill="midnightblue" stroke="midnightblue" points="795.463,-74.2393 785.147,-76.6547 794.718,-81.1995 795.463,-74.2393"/>
</g>
<!-- Node17&#45;&gt;Node11 -->
<g id="edge23" class="edge"><title>Node17&#45;&gt;Node11</title>
<path fill="none" stroke="midnightblue" d="M964.991,-184.975C990.61,-174.813 1033.61,-157.756 1062.74,-146.2"/>
<polygon fill="midnightblue" stroke="midnightblue" points="1064.04,-149.45 1072.05,-142.509 1061.46,-142.943 1064.04,-149.45"/>
</g>
<!-- Node18 -->
<g id="node18" class="node"><title>Node18</title>
<polygon fill="white" stroke="#bfbfbf" points="805,-123.5 805,-142.5 950,-142.5 950,-123.5 805,-123.5"/>
<text text-anchor="middle" x="877.5" y="-130.5" font-family="Helvetica,sans-Serif" font-size="10.00">boost/core/scoped_enum.hpp</text>
</g>
<!-- Node17&#45;&gt;Node18 -->
<g id="edge24" class="edge"><title>Node17&#45;&gt;Node18</title>
<path fill="none" stroke="midnightblue" d="M934.044,-184.975C923.752,-175.697 907.084,-160.671 894.506,-149.331"/>
<polygon fill="midnightblue" stroke="midnightblue" points="896.71,-146.605 886.939,-142.509 892.022,-151.805 896.71,-146.605"/>
</g>
<!-- Node19&#45;&gt;Node2 -->
<g id="edge26" class="edge"><title>Node19&#45;&gt;Node2</title>
<path fill="none" stroke="midnightblue" d="M737.213,-123.475C736.931,-115.08 736.491,-101.981 736.127,-91.1631"/>
<polygon fill="midnightblue" stroke="midnightblue" points="739.62,-90.8858 735.786,-81.0091 732.624,-91.1211 739.62,-90.8858"/>
</g>
<!-- Node22&#45;&gt;Node2 -->
<g id="edge30" class="edge"><title>Node22&#45;&gt;Node2</title>
<path fill="none" stroke="midnightblue" d="M340.758,-184.855C357.7,-169.583 395.46,-138.027 433.5,-123 534.634,-83.0476 568.767,-107.792 675.5,-87 681.022,-85.9242 686.803,-84.6798 692.504,-83.3812"/>
<polygon fill="midnightblue" stroke="midnightblue" points="693.671,-86.7026 702.606,-81.01 692.071,-79.8878 693.671,-86.7026"/>
</g>
<!-- Node22&#45;&gt;Node5 -->
<g id="edge31" class="edge"><title>Node22&#45;&gt;Node5</title>
<path fill="none" stroke="midnightblue" d="M331.643,-184.975C331.784,-176.58 332.005,-163.481 332.186,-152.663"/>
<polygon fill="midnightblue" stroke="midnightblue" points="335.688,-152.567 332.357,-142.509 328.689,-152.449 335.688,-152.567"/>
</g>
<!-- Node23 -->
<g id="node23" class="node"><title>Node23</title>
<polygon fill="white" stroke="#bfbfbf" points="217,-123.5 217,-142.5 266,-142.5 266,-123.5 217,-123.5"/>
<text text-anchor="middle" x="241.5" y="-130.5" font-family="Helvetica,sans-Serif" font-size="10.00">istream</text>
</g>
<!-- Node22&#45;&gt;Node23 -->
<g id="edge32" class="edge"><title>Node22&#45;&gt;Node23</title>
<path fill="none" stroke="midnightblue" d="M318.605,-184.975C304.036,-175.343 280.098,-159.517 262.755,-148.052"/>
<polygon fill="midnightblue" stroke="midnightblue" points="264.643,-145.104 254.371,-142.509 260.783,-150.944 264.643,-145.104"/>
</g>
</g>
</svg>
