<?xml version="1.0" encoding="UTF-8" standalone="no"?>
<!DOCTYPE svg PUBLIC "-//W3C//DTD SVG 1.1//EN"
 "http://www.w3.org/Graphics/SVG/1.1/DTD/svg11.dtd">
<!-- Generated by graphviz version 2.43.0 (0)
 -->
<!-- Title: boost/ui/image_widget.hpp Pages: 1 -->
<svg width="4190pt" height="341pt"
 viewBox="0.00 0.00 4189.68 341.00" xmlns="http://www.w3.org/2000/svg" xmlns:xlink="http://www.w3.org/1999/xlink">
<g id="graph0" class="graph" transform="scale(1 1) rotate(0) translate(4 337)">
<title>boost/ui/image_widget.hpp</title>
<polygon fill="white" stroke="transparent" points="-4,4 -4,-337 4185.68,-337 4185.68,4 -4,4"/>
<!-- Node1 -->
<g id="node1" class="node">
<title>Node1</title>
<g id="a_node1"><a xlink:title="Image widget.">
<polygon fill="#bfbfbf" stroke="black" points="61,-313.5 61,-332.5 210,-332.5 210,-313.5 61,-313.5"/>
<text text-anchor="middle" x="135.5" y="-320.5" font-family="Helvetica,sans-Serif" font-size="10.00">boost/ui/image_widget.hpp</text>
</a>
</g>
</g>
<!-- Node2 -->
<g id="node2" class="node">
<title>Node2</title>
<g id="a_node2"><a xlink:href="config_8hpp.html" target="_top" xlink:title="Configuration options.">
<polygon fill="white" stroke="black" points="124,-62 124,-81 233,-81 233,-62 124,-62"/>
<text text-anchor="middle" x="178.5" y="-69" font-family="Helvetica,sans-Serif" font-size="10.00">boost/ui/config.hpp</text>
</a>
</g>
</g>
<!-- Node1&#45;&gt;Node2 -->
<g id="edge1" class="edge">
<title>Node1&#45;&gt;Node2</title>
<path fill="none" stroke="midnightblue" d="M126.63,-313.26C105.52,-291.35 55.2,-232.04 71.5,-179 84.5,-136.68 126.93,-103.84 154.29,-86.4"/>
<polygon fill="midnightblue" stroke="midnightblue" points="156.24,-89.3 162.93,-81.08 152.57,-83.34 156.24,-89.3"/>
</g>
<!-- Node4 -->
<g id="node4" class="node">
<title>Node4</title>
<g id="a_node4"><a xlink:href="widget_8hpp.html" target="_top" xlink:title="Widget class.">
<polygon fill="white" stroke="red" points="1992,-257.5 1992,-276.5 2105,-276.5 2105,-257.5 1992,-257.5"/>
<text text-anchor="middle" x="2048.5" y="-264.5" font-family="Helvetica,sans-Serif" font-size="10.00">boost/ui/widget.hpp</text>
</a>
</g>
</g>
<!-- Node1&#45;&gt;Node4 -->
<g id="edge3" class="edge">
<title>Node1&#45;&gt;Node4</title>
<path fill="none" stroke="midnightblue" d="M210.2,-319.89C518.49,-311.19 1689.4,-278.14 1981.95,-269.88"/>
<polygon fill="midnightblue" stroke="midnightblue" points="1982.08,-273.38 1991.98,-269.6 1981.89,-266.38 1982.08,-273.38"/>
</g>
<!-- Node344 -->
<g id="node50" class="node">
<title>Node344</title>
<g id="a_node50"><a xlink:href="image_8hpp.html" target="_top" xlink:title="Image class.">
<polygon fill="white" stroke="red" points="80.5,-190.5 80.5,-209.5 190.5,-209.5 190.5,-190.5 80.5,-190.5"/>
<text text-anchor="middle" x="135.5" y="-197.5" font-family="Helvetica,sans-Serif" font-size="10.00">boost/ui/image.hpp</text>
</a>
</g>
</g>
<!-- Node1&#45;&gt;Node344 -->
<g id="edge74" class="edge">
<title>Node1&#45;&gt;Node344</title>
<path fill="none" stroke="midnightblue" d="M135.5,-313.3C135.5,-293.85 135.5,-246.49 135.5,-219.9"/>
<polygon fill="midnightblue" stroke="midnightblue" points="139,-219.62 135.5,-209.62 132,-219.62 139,-219.62"/>
</g>
<!-- Node3 -->
<g id="node3" class="node">
<title>Node3</title>
<g id="a_node3"><a xlink:title=" ">
<polygon fill="white" stroke="#bfbfbf" points="732,-0.5 732,-19.5 829,-19.5 829,-0.5 732,-0.5"/>
<text text-anchor="middle" x="780.5" y="-7.5" font-family="Helvetica,sans-Serif" font-size="10.00">boost/config.hpp</text>
</a>
</g>
</g>
<!-- Node2&#45;&gt;Node3 -->
<g id="edge2" class="edge">
<title>Node2&#45;&gt;Node3</title>
<path fill="none" stroke="midnightblue" d="M212.21,-61.94C221.93,-59.72 232.59,-57.53 242.5,-56 415.39,-29.32 622.16,-17.62 721.5,-13.24"/>
<polygon fill="midnightblue" stroke="midnightblue" points="721.8,-16.73 731.64,-12.81 721.5,-9.74 721.8,-16.73"/>
</g>
<!-- Node4&#45;&gt;Node2 -->
<g id="edge4" class="edge">
<title>Node4&#45;&gt;Node2</title>
<path fill="none" stroke="midnightblue" d="M1991.99,-265.93C1693.83,-265.39 314.18,-260.73 233.5,-221 211.95,-210.39 216.88,-195.58 199.5,-179 179.95,-160.34 162.7,-167.11 150.5,-143 141.54,-125.29 152.83,-104 163.64,-89.48"/>
<polygon fill="midnightblue" stroke="midnightblue" points="166.59,-91.4 170.12,-81.41 161.13,-87.01 166.59,-91.4"/>
</g>
<!-- Node4&#45;&gt;Node3 -->
<g id="edge56" class="edge">
<title>Node4&#45;&gt;Node3</title>
<path fill="none" stroke="midnightblue" d="M2105.19,-266.22C2424.19,-267.28 3984.21,-269.92 4072.5,-221 4145.2,-180.72 4218.88,-115.16 4160.5,-56 4130.11,-25.21 1285.84,-12.95 839.22,-11.22"/>
<polygon fill="midnightblue" stroke="midnightblue" points="839.13,-7.72 829.12,-11.18 839.1,-14.72 839.13,-7.72"/>
</g>
<!-- Node5 -->
<g id="node5" class="node">
<title>Node5</title>
<g id="a_node5"><a xlink:href="coord_8hpp.html" target="_top" xlink:title="Coordinates classes.">
<polygon fill="white" stroke="red" points="639,-123.5 639,-142.5 746,-142.5 746,-123.5 639,-123.5"/>
<text text-anchor="middle" x="692.5" y="-130.5" font-family="Helvetica,sans-Serif" font-size="10.00">boost/ui/coord.hpp</text>
</a>
</g>
</g>
<!-- Node4&#45;&gt;Node5 -->
<g id="edge5" class="edge">
<title>Node4&#45;&gt;Node5</title>
<path fill="none" stroke="midnightblue" d="M1991.98,-266.32C1738.77,-267.47 719.07,-269.12 672.5,-221 654.44,-202.34 668.59,-170.83 680.53,-151.29"/>
<polygon fill="midnightblue" stroke="midnightblue" points="683.55,-153.06 686.05,-142.77 677.68,-149.25 683.55,-153.06"/>
</g>
<!-- Node8 -->
<g id="node6" class="node">
<title>Node8</title>
<g id="a_node6"><a xlink:title=" ">
<polygon fill="white" stroke="#bfbfbf" points="4098,-62 4098,-81 4151,-81 4151,-62 4098,-62"/>
<text text-anchor="middle" x="4124.5" y="-69" font-family="Helvetica,sans-Serif" font-size="10.00">cstddef</text>
</a>
</g>
</g>
<!-- Node4&#45;&gt;Node8 -->
<g id="edge73" class="edge">
<title>Node4&#45;&gt;Node8</title>
<path fill="none" stroke="midnightblue" d="M2105.02,-266.27C2420.46,-267.56 3952.07,-271.25 4037.5,-221 4086.55,-192.14 4110.77,-124.02 4119.96,-91.04"/>
<polygon fill="midnightblue" stroke="midnightblue" points="4123.36,-91.87 4122.51,-81.31 4116.59,-90.09 4123.36,-91.87"/>
</g>
<!-- Node22 -->
<g id="node7" class="node">
<title>Node22</title>
<g id="a_node7"><a xlink:title=" ">
<polygon fill="white" stroke="#bfbfbf" points="396.5,-62 396.5,-81 494.5,-81 494.5,-62 396.5,-62"/>
<text text-anchor="middle" x="445.5" y="-69" font-family="Helvetica,sans-Serif" font-size="10.00">boost/assert.hpp</text>
</a>
</g>
</g>
<!-- Node4&#45;&gt;Node22 -->
<g id="edge68" class="edge">
<title>Node4&#45;&gt;Node22</title>
<path fill="none" stroke="midnightblue" d="M1991.61,-265.63C1729.34,-263.76 646.92,-254.07 583.5,-221 535.34,-195.89 548.51,-161.79 510.5,-123 497.25,-109.48 480.32,-96.44 467.05,-86.99"/>
<polygon fill="midnightblue" stroke="midnightblue" points="468.75,-83.91 458.55,-81.06 464.75,-89.65 468.75,-83.91"/>
</g>
<!-- Node86 -->
<g id="node8" class="node">
<title>Node86</title>
<g id="a_node8"><a xlink:title=" ">
<polygon fill="white" stroke="#bfbfbf" points="512.5,-56.5 512.5,-86.5 622.5,-86.5 622.5,-56.5 512.5,-56.5"/>
<text text-anchor="start" x="520.5" y="-74.5" font-family="Helvetica,sans-Serif" font-size="10.00">boost/preprocessor</text>
<text text-anchor="middle" x="567.5" y="-63.5" font-family="Helvetica,sans-Serif" font-size="10.00">/cat.hpp</text>
</a>
</g>
</g>
<!-- Node4&#45;&gt;Node86 -->
<g id="edge44" class="edge">
<title>Node4&#45;&gt;Node86</title>
<path fill="none" stroke="midnightblue" d="M1991.95,-265.99C1733.72,-265.7 676.79,-262.02 620.5,-221 580.77,-192.05 570.7,-130.65 568.23,-96.57"/>
<polygon fill="midnightblue" stroke="midnightblue" points="571.72,-96.32 567.66,-86.54 564.73,-96.72 571.72,-96.32"/>
</g>
<!-- Node105 -->
<g id="node9" class="node">
<title>Node105</title>
<g id="a_node9"><a xlink:title=" ">
<polygon fill="white" stroke="#bfbfbf" points="251,-62 251,-81 316,-81 316,-62 251,-62"/>
<text text-anchor="middle" x="283.5" y="-69" font-family="Helvetica,sans-Serif" font-size="10.00">functional</text>
</a>
</g>
</g>
<!-- Node4&#45;&gt;Node105 -->
<g id="edge30" class="edge">
<title>Node4&#45;&gt;Node105</title>
<path fill="none" stroke="midnightblue" d="M1991.75,-266.27C1703.05,-267.43 408.24,-269.89 339.5,-221 296.92,-190.71 286.69,-123.81 284.25,-91.16"/>
<polygon fill="midnightblue" stroke="midnightblue" points="287.75,-90.93 283.68,-81.15 280.76,-91.34 287.75,-90.93"/>
</g>
<!-- Node112 -->
<g id="node10" class="node">
<title>Node112</title>
<g id="a_node10"><a xlink:title=" ">
<polygon fill="white" stroke="#bfbfbf" points="641,-56.5 641,-86.5 752,-86.5 752,-56.5 641,-56.5"/>
<text text-anchor="start" x="649" y="-74.5" font-family="Helvetica,sans-Serif" font-size="10.00">boost/preprocessor</text>
<text text-anchor="middle" x="696.5" y="-63.5" font-family="Helvetica,sans-Serif" font-size="10.00">/arithmetic/dec.hpp</text>
</a>
</g>
</g>
<!-- Node4&#45;&gt;Node112 -->
<g id="edge40" class="edge">
<title>Node4&#45;&gt;Node112</title>
<path fill="none" stroke="midnightblue" d="M1991.81,-265.92C1737.8,-265.32 714.37,-260.47 659.5,-221 622.63,-194.47 610.38,-163.72 630.5,-123 636.71,-110.42 647.72,-100.12 659,-92.17"/>
<polygon fill="midnightblue" stroke="midnightblue" points="661.13,-94.95 667.59,-86.55 657.3,-89.09 661.13,-94.95"/>
</g>
<!-- Node119 -->
<g id="node11" class="node">
<title>Node119</title>
<g id="a_node11"><a xlink:title=" ">
<polygon fill="white" stroke="#bfbfbf" points="808.5,-56.5 808.5,-86.5 918.5,-86.5 918.5,-56.5 808.5,-56.5"/>
<text text-anchor="start" x="816.5" y="-74.5" font-family="Helvetica,sans-Serif" font-size="10.00">boost/preprocessor</text>
<text text-anchor="middle" x="863.5" y="-63.5" font-family="Helvetica,sans-Serif" font-size="10.00">/tuple/elem.hpp</text>
</a>
</g>
</g>
<!-- Node4&#45;&gt;Node119 -->
<g id="edge47" class="edge">
<title>Node4&#45;&gt;Node119</title>
<path fill="none" stroke="midnightblue" d="M1991.95,-266.23C1745.52,-266.97 775.89,-266.93 731.5,-221 718.53,-207.58 723.45,-195.84 731.5,-179 750.63,-138.98 792.95,-109.19 824.54,-91.44"/>
<polygon fill="midnightblue" stroke="midnightblue" points="826.44,-94.39 833.55,-86.53 823.1,-88.24 826.44,-94.39"/>
</g>
<!-- Node150 -->
<g id="node12" class="node">
<title>Node150</title>
<g id="a_node12"><a xlink:title=" ">
<polygon fill="white" stroke="#bfbfbf" points="936.5,-62 936.5,-81 1000.5,-81 1000.5,-62 936.5,-62"/>
<text text-anchor="middle" x="968.5" y="-69" font-family="Helvetica,sans-Serif" font-size="10.00">algorithm</text>
</a>
</g>
</g>
<!-- Node4&#45;&gt;Node150 -->
<g id="edge51" class="edge">
<title>Node4&#45;&gt;Node150</title>
<path fill="none" stroke="midnightblue" d="M1991.68,-266.21C1746.36,-266.85 788.4,-266.44 744.5,-221 731.53,-207.57 734.53,-194.78 744.5,-179 755.67,-161.32 878.87,-109.15 937.65,-85.01"/>
<polygon fill="midnightblue" stroke="midnightblue" points="939.24,-88.14 947.17,-81.11 936.59,-81.66 939.24,-88.14"/>
</g>
<!-- Node181 -->
<g id="node13" class="node">
<title>Node181</title>
<g id="a_node13"><a xlink:title=" ">
<polygon fill="white" stroke="#bfbfbf" points="1034.5,-62 1034.5,-81 1078.5,-81 1078.5,-62 1034.5,-62"/>
<text text-anchor="middle" x="1056.5" y="-69" font-family="Helvetica,sans-Serif" font-size="10.00">limits</text>
</a>
</g>
</g>
<!-- Node4&#45;&gt;Node181 -->
<g id="edge59" class="edge">
<title>Node4&#45;&gt;Node181</title>
<path fill="none" stroke="midnightblue" d="M2105.03,-265.71C2413.52,-264.01 3881.11,-254.18 3913.5,-221 3926.54,-207.64 3926.45,-192.44 3913.5,-179 3861.89,-125.43 1400.49,-78.78 1088.83,-73.08"/>
<polygon fill="midnightblue" stroke="midnightblue" points="1088.72,-69.58 1078.65,-72.9 1088.59,-76.58 1088.72,-69.58"/>
</g>
<!-- Node189 -->
<g id="node14" class="node">
<title>Node189</title>
<g id="a_node14"><a xlink:title=" ">
<polygon fill="white" stroke="#bfbfbf" points="2340,-62 2340,-81 2435,-81 2435,-62 2340,-62"/>
<text text-anchor="middle" x="2387.5" y="-69" font-family="Helvetica,sans-Serif" font-size="10.00">boost/limits.hpp</text>
</a>
</g>
</g>
<!-- Node4&#45;&gt;Node189 -->
<g id="edge58" class="edge">
<title>Node4&#45;&gt;Node189</title>
<path fill="none" stroke="midnightblue" d="M2105,-265.74C2416.72,-264.15 3913.5,-254.8 3946.5,-221 3976.93,-189.84 3976.8,-154.29 3946.5,-123 3933.19,-109.25 2727.37,-80.4 2445.82,-73.84"/>
<polygon fill="midnightblue" stroke="midnightblue" points="2445.5,-70.34 2435.42,-73.6 2445.33,-77.33 2445.5,-70.34"/>
</g>
<!-- Node192 -->
<g id="node15" class="node">
<title>Node192</title>
<g id="a_node15"><a xlink:title=" ">
<polygon fill="white" stroke="#bfbfbf" points="3075,-62 3075,-81 3128,-81 3128,-62 3075,-62"/>
<text text-anchor="middle" x="3101.5" y="-69" font-family="Helvetica,sans-Serif" font-size="10.00">limits.h</text>
</a>
</g>
</g>
<!-- Node4&#45;&gt;Node192 -->
<g id="edge60" class="edge">
<title>Node4&#45;&gt;Node192</title>
<path fill="none" stroke="midnightblue" d="M2105.23,-265.75C2419.91,-264.25 3938.04,-255.26 3971.5,-221 3979.5,-212.81 3971.53,-126.98 3967.5,-123 3952.51,-108.2 3301.67,-80.67 3138.37,-73.99"/>
<polygon fill="midnightblue" stroke="midnightblue" points="3138.46,-70.49 3128.33,-73.58 3138.18,-77.49 3138.46,-70.49"/>
</g>
<!-- Node206 -->
<g id="node16" class="node">
<title>Node206</title>
<g id="a_node16"><a xlink:title=" ">
<polygon fill="white" stroke="#bfbfbf" points="3457,-62 3457,-81 3522,-81 3522,-62 3457,-62"/>
<text text-anchor="middle" x="3489.5" y="-69" font-family="Helvetica,sans-Serif" font-size="10.00">stdexcept</text>
</a>
</g>
</g>
<!-- Node4&#45;&gt;Node206 -->
<g id="edge65" class="edge">
<title>Node4&#45;&gt;Node206</title>
<path fill="none" stroke="midnightblue" d="M2105.16,-265.76C2421.14,-264.32 3952.75,-255.54 3986.5,-221 3994.44,-212.88 3986.44,-127.07 3982.5,-123 3974.67,-114.92 3650.46,-86.33 3532.14,-76.14"/>
<polygon fill="midnightblue" stroke="midnightblue" points="3532.27,-72.64 3522.01,-75.27 3531.67,-79.61 3532.27,-72.64"/>
</g>
<!-- Node208 -->
<g id="node17" class="node">
<title>Node208</title>
<g id="a_node17"><a xlink:title=" ">
<polygon fill="white" stroke="#bfbfbf" points="334.5,-62 334.5,-81 378.5,-81 378.5,-62 334.5,-62"/>
<text text-anchor="middle" x="356.5" y="-69" font-family="Helvetica,sans-Serif" font-size="10.00">string</text>
</a>
</g>
</g>
<!-- Node4&#45;&gt;Node208 -->
<g id="edge28" class="edge">
<title>Node4&#45;&gt;Node208</title>
<path fill="none" stroke="midnightblue" d="M1991.74,-265.6C1724.97,-263.54 606.02,-253.05 539.5,-221 488.08,-196.23 501.31,-158.35 456.5,-123 450.25,-118.07 411.1,-98.8 383.69,-85.54"/>
<polygon fill="midnightblue" stroke="midnightblue" points="385.08,-82.32 374.55,-81.13 382.04,-88.63 385.08,-82.32"/>
</g>
<!-- Node214 -->
<g id="node18" class="node">
<title>Node214</title>
<g id="a_node18"><a xlink:title=" ">
<polygon fill="white" stroke="#bfbfbf" points="3695,-62 3695,-81 3844,-81 3844,-62 3695,-62"/>
<text text-anchor="middle" x="3769.5" y="-69" font-family="Helvetica,sans-Serif" font-size="10.00">boost/throw_exception.hpp</text>
</a>
</g>
</g>
<!-- Node4&#45;&gt;Node214 -->
<g id="edge53" class="edge">
<title>Node4&#45;&gt;Node214</title>
<path fill="none" stroke="midnightblue" d="M2105.08,-265.78C2422.34,-264.38 3967.47,-255.82 4001.5,-221 4009.26,-213.05 4001.22,-127.3 3997.5,-123 3978.76,-101.29 3911.07,-88.15 3854.28,-80.74"/>
<polygon fill="midnightblue" stroke="midnightblue" points="3854.54,-77.24 3844.18,-79.46 3853.66,-84.19 3854.54,-77.24"/>
</g>
<!-- Node215 -->
<g id="node19" class="node">
<title>Node215</title>
<g id="a_node19"><a xlink:title=" ">
<polygon fill="white" stroke="#bfbfbf" points="3940,-62 3940,-81 4041,-81 4041,-62 3940,-62"/>
<text text-anchor="middle" x="3990.5" y="-69" font-family="Helvetica,sans-Serif" font-size="10.00">boost/cstdint.hpp</text>
</a>
</g>
</g>
<!-- Node4&#45;&gt;Node215 -->
<g id="edge57" class="edge">
<title>Node4&#45;&gt;Node215</title>
<path fill="none" stroke="midnightblue" d="M2105.25,-265.78C2424.37,-264.44 3982.2,-256.09 4016.5,-221 4051.17,-185.53 4020.27,-121.21 4001.87,-90.18"/>
<polygon fill="midnightblue" stroke="midnightblue" points="4004.66,-88.03 3996.44,-81.35 3998.7,-91.7 4004.66,-88.03"/>
</g>
<!-- Node245 -->
<g id="node20" class="node">
<title>Node245</title>
<g id="a_node20"><a xlink:href="string_8hpp.html" target="_top" xlink:title="String class and operations.">
<polygon fill="white" stroke="black" points="159,-123.5 159,-142.5 266,-142.5 266,-123.5 159,-123.5"/>
<text text-anchor="middle" x="212.5" y="-130.5" font-family="Helvetica,sans-Serif" font-size="10.00">boost/ui/string.hpp</text>
</a>
</g>
</g>
<!-- Node4&#45;&gt;Node245 -->
<g id="edge22" class="edge">
<title>Node4&#45;&gt;Node245</title>
<path fill="none" stroke="midnightblue" d="M1992,-265.91C1698.53,-265.3 358.62,-260.33 280.5,-221 251.36,-206.33 230.92,-172.73 220.48,-151.84"/>
<polygon fill="midnightblue" stroke="midnightblue" points="223.62,-150.28 216.17,-142.75 217.29,-153.28 223.62,-150.28"/>
</g>
<!-- Node246 -->
<g id="node21" class="node">
<title>Node246</title>
<g id="a_node21"><a xlink:title=" ">
<polygon fill="white" stroke="#bfbfbf" points="0,-62 0,-81 83,-81 83,-62 0,-62"/>
<text text-anchor="middle" x="41.5" y="-69" font-family="Helvetica,sans-Serif" font-size="10.00">initializer_list</text>
</a>
</g>
</g>
<!-- Node4&#45;&gt;Node246 -->
<g id="edge29" class="edge">
<title>Node4&#45;&gt;Node246</title>
<path fill="none" stroke="midnightblue" d="M1991.86,-265.68C1672.45,-263.74 109.31,-252.66 71.5,-221 33.6,-189.27 35.18,-124.1 38.7,-91.69"/>
<polygon fill="midnightblue" stroke="midnightblue" points="42.22,-91.71 40.01,-81.35 35.28,-90.83 42.22,-91.71"/>
</g>
<!-- Node247 -->
<g id="node22" class="node">
<title>Node247</title>
<g id="a_node22"><a xlink:title=" ">
<polygon fill="white" stroke="#bfbfbf" points="753,-190.5 753,-209.5 862,-209.5 862,-190.5 753,-190.5"/>
<text text-anchor="middle" x="807.5" y="-197.5" font-family="Helvetica,sans-Serif" font-size="10.00">boost/ui/config.hpp</text>
</a>
</g>
</g>
<!-- Node4&#45;&gt;Node247 -->
<g id="edge27" class="edge">
<title>Node4&#45;&gt;Node247</title>
<path fill="none" stroke="midnightblue" d="M1991.87,-265.82C1787.82,-264.84 1090.78,-258.77 871.5,-221 860.83,-219.16 849.47,-216.02 839.32,-212.76"/>
<polygon fill="midnightblue" stroke="midnightblue" points="840.25,-209.38 829.65,-209.51 838.02,-216.02 840.25,-209.38"/>
</g>
<!-- Node248 -->
<g id="node23" class="node">
<title>Node248</title>
<g id="a_node23"><a xlink:href="event_8hpp.html" target="_top" xlink:title="Event classes.">
<polygon fill="white" stroke="black" points="361,-190.5 361,-209.5 468,-209.5 468,-190.5 361,-190.5"/>
<text text-anchor="middle" x="414.5" y="-197.5" font-family="Helvetica,sans-Serif" font-size="10.00">boost/ui/event.hpp</text>
</a>
</g>
</g>
<!-- Node4&#45;&gt;Node248 -->
<g id="edge31" class="edge">
<title>Node4&#45;&gt;Node248</title>
<path fill="none" stroke="midnightblue" d="M1991.66,-266.32C1746.92,-267.4 781.85,-268.51 482.5,-221 470.96,-219.17 458.63,-215.95 447.68,-212.61"/>
<polygon fill="midnightblue" stroke="midnightblue" points="448.66,-209.25 438.07,-209.56 446.54,-215.93 448.66,-209.25"/>
</g>
<!-- Node249 -->
<g id="node24" class="node">
<title>Node249</title>
<g id="a_node24"><a xlink:title=" ">
<polygon fill="white" stroke="#bfbfbf" points="323,-123.5 323,-142.5 430,-142.5 430,-123.5 323,-123.5"/>
<text text-anchor="middle" x="376.5" y="-130.5" font-family="Helvetica,sans-Serif" font-size="10.00">boost/function.hpp</text>
</a>
</g>
</g>
<!-- Node4&#45;&gt;Node249 -->
<g id="edge36" class="edge">
<title>Node4&#45;&gt;Node249</title>
<path fill="none" stroke="midnightblue" d="M1991.69,-265.57C1699.85,-263.23 381.74,-251.02 352.5,-221 334.1,-202.1 350.28,-170.44 363.51,-150.97"/>
<polygon fill="midnightblue" stroke="midnightblue" points="366.44,-152.9 369.43,-142.74 360.75,-148.81 366.44,-152.9"/>
</g>
<!-- Node250 -->
<g id="node25" class="node">
<title>Node250</title>
<g id="a_node25"><a xlink:title=" ">
<polygon fill="white" stroke="#bfbfbf" points="880,-190.5 880,-209.5 987,-209.5 987,-190.5 880,-190.5"/>
<text text-anchor="middle" x="933.5" y="-197.5" font-family="Helvetica,sans-Serif" font-size="10.00">boost/ui/coord.hpp</text>
</a>
</g>
</g>
<!-- Node4&#45;&gt;Node250 -->
<g id="edge35" class="edge">
<title>Node4&#45;&gt;Node250</title>
<path fill="none" stroke="midnightblue" d="M1991.75,-265.55C1801.92,-263.72 1190.24,-255.27 996.5,-221 986.08,-219.16 974.98,-216.04 965.06,-212.82"/>
<polygon fill="midnightblue" stroke="midnightblue" points="966.18,-209.5 955.59,-209.59 963.93,-216.13 966.18,-209.5"/>
</g>
<!-- Node251 -->
<g id="node26" class="node">
<title>Node251</title>
<g id="a_node26"><a xlink:title=" ">
<polygon fill="white" stroke="#bfbfbf" points="1005.5,-179.5 1005.5,-220.5 1123.5,-220.5 1123.5,-179.5 1005.5,-179.5"/>
<text text-anchor="start" x="1013.5" y="-208.5" font-family="Helvetica,sans-Serif" font-size="10.00">/media/disk4_1/work</text>
<text text-anchor="start" x="1013.5" y="-197.5" font-family="Helvetica,sans-Serif" font-size="10.00">/code/ui/boost/boost</text>
<text text-anchor="middle" x="1064.5" y="-186.5" font-family="Helvetica,sans-Serif" font-size="10.00">/functional</text>
</a>
</g>
</g>
<!-- Node4&#45;&gt;Node251 -->
<g id="edge37" class="edge">
<title>Node4&#45;&gt;Node251</title>
<path fill="none" stroke="midnightblue" d="M1991.98,-264.98C1822.32,-261.63 1318.28,-249.64 1133.76,-220.94"/>
<polygon fill="midnightblue" stroke="midnightblue" points="1134.08,-217.44 1123.64,-219.29 1132.95,-224.35 1134.08,-217.44"/>
</g>
<!-- Node252 -->
<g id="node27" class="node">
<title>Node252</title>
<g id="a_node27"><a xlink:title=" ">
<polygon fill="white" stroke="#bfbfbf" points="1141.5,-185 1141.5,-215 1251.5,-215 1251.5,-185 1141.5,-185"/>
<text text-anchor="start" x="1149.5" y="-203" font-family="Helvetica,sans-Serif" font-size="10.00">boost/preprocessor</text>
<text text-anchor="middle" x="1196.5" y="-192" font-family="Helvetica,sans-Serif" font-size="10.00">/iterate.hpp</text>
</a>
</g>
</g>
<!-- Node4&#45;&gt;Node252 -->
<g id="edge38" class="edge">
<title>Node4&#45;&gt;Node252</title>
<path fill="none" stroke="midnightblue" d="M1991.77,-264.53C1835.65,-260.21 1401.92,-246.23 1261.5,-221 1256.54,-220.11 1251.43,-218.96 1246.36,-217.66"/>
<polygon fill="midnightblue" stroke="midnightblue" points="1247.26,-214.28 1236.7,-215.02 1245.42,-221.03 1247.26,-214.28"/>
</g>
<!-- Node253 -->
<g id="node28" class="node">
<title>Node253</title>
<g id="a_node28"><a xlink:title=" ">
<polygon fill="white" stroke="#bfbfbf" points="1270,-185 1270,-215 1387,-215 1387,-185 1270,-185"/>
<text text-anchor="start" x="1278" y="-203" font-family="Helvetica,sans-Serif" font-size="10.00">boost/preprocessor</text>
<text text-anchor="middle" x="1328.5" y="-192" font-family="Helvetica,sans-Serif" font-size="10.00">/iteration/iterate.hpp</text>
</a>
</g>
</g>
<!-- Node4&#45;&gt;Node253 -->
<g id="edge39" class="edge">
<title>Node4&#45;&gt;Node253</title>
<path fill="none" stroke="midnightblue" d="M1991.74,-266.2C1877.91,-265.71 1614,-260.01 1396.5,-221 1391.41,-220.09 1386.15,-218.93 1380.93,-217.64"/>
<polygon fill="midnightblue" stroke="midnightblue" points="1381.53,-214.18 1370.96,-215.02 1379.75,-220.95 1381.53,-214.18"/>
</g>
<!-- Node254 -->
<g id="node29" class="node">
<title>Node254</title>
<g id="a_node29"><a xlink:title=" ">
<polygon fill="white" stroke="#bfbfbf" points="1405.5,-185 1405.5,-215 1515.5,-215 1515.5,-185 1405.5,-185"/>
<text text-anchor="start" x="1413.5" y="-203" font-family="Helvetica,sans-Serif" font-size="10.00">boost/preprocessor</text>
<text text-anchor="middle" x="1460.5" y="-192" font-family="Helvetica,sans-Serif" font-size="10.00">/arithmetic/inc.hpp</text>
</a>
</g>
</g>
<!-- Node4&#45;&gt;Node254 -->
<g id="edge41" class="edge">
<title>Node4&#45;&gt;Node254</title>
<path fill="none" stroke="midnightblue" d="M1991.72,-265.15C1894.95,-262.8 1692.26,-254.01 1524.5,-221 1520.01,-220.12 1515.39,-219.03 1510.78,-217.83"/>
<polygon fill="midnightblue" stroke="midnightblue" points="1511.36,-214.36 1500.79,-215.04 1509.48,-221.1 1511.36,-214.36"/>
</g>
<!-- Node255 -->
<g id="node30" class="node">
<title>Node255</title>
<g id="a_node30"><a xlink:title=" ">
<polygon fill="white" stroke="#bfbfbf" points="1533.5,-185 1533.5,-215 1643.5,-215 1643.5,-185 1533.5,-185"/>
<text text-anchor="start" x="1541.5" y="-203" font-family="Helvetica,sans-Serif" font-size="10.00">boost/preprocessor</text>
<text text-anchor="middle" x="1588.5" y="-192" font-family="Helvetica,sans-Serif" font-size="10.00">/array/elem.hpp</text>
</a>
</g>
</g>
<!-- Node4&#45;&gt;Node255 -->
<g id="edge42" class="edge">
<title>Node4&#45;&gt;Node255</title>
<path fill="none" stroke="midnightblue" d="M1991.89,-262.95C1914.55,-258.02 1771.82,-246.19 1652.5,-221 1648.15,-220.08 1643.68,-218.99 1639.22,-217.81"/>
<polygon fill="midnightblue" stroke="midnightblue" points="1640.08,-214.41 1629.51,-215.08 1638.19,-221.15 1640.08,-214.41"/>
</g>
<!-- Node256 -->
<g id="node31" class="node">
<title>Node256</title>
<g id="a_node31"><a xlink:title=" ">
<polygon fill="white" stroke="#bfbfbf" points="1661.5,-185 1661.5,-215 1771.5,-215 1771.5,-185 1661.5,-185"/>
<text text-anchor="start" x="1669.5" y="-203" font-family="Helvetica,sans-Serif" font-size="10.00">boost/preprocessor</text>
<text text-anchor="middle" x="1716.5" y="-192" font-family="Helvetica,sans-Serif" font-size="10.00">/array/size.hpp</text>
</a>
</g>
</g>
<!-- Node4&#45;&gt;Node256 -->
<g id="edge43" class="edge">
<title>Node4&#45;&gt;Node256</title>
<path fill="none" stroke="midnightblue" d="M1991.84,-258.78C1937.29,-251.28 1852.66,-238.25 1780.5,-221 1776.6,-220.07 1772.59,-219.02 1768.57,-217.92"/>
<polygon fill="midnightblue" stroke="midnightblue" points="1769.2,-214.45 1758.62,-215.06 1767.26,-221.18 1769.2,-214.45"/>
</g>
<!-- Node257 -->
<g id="node32" class="node">
<title>Node257</title>
<g id="a_node32"><a xlink:title=" ">
<polygon fill="white" stroke="#bfbfbf" points="1789.5,-185 1789.5,-215 1899.5,-215 1899.5,-185 1789.5,-185"/>
<text text-anchor="start" x="1797.5" y="-203" font-family="Helvetica,sans-Serif" font-size="10.00">boost/preprocessor</text>
<text text-anchor="middle" x="1844.5" y="-192" font-family="Helvetica,sans-Serif" font-size="10.00">/slot/slot.hpp</text>
</a>
</g>
</g>
<!-- Node4&#45;&gt;Node257 -->
<g id="edge45" class="edge">
<title>Node4&#45;&gt;Node257</title>
<path fill="none" stroke="midnightblue" d="M2021.41,-257.37C1990.07,-247.38 1937.7,-230.7 1898.06,-218.06"/>
<polygon fill="midnightblue" stroke="midnightblue" points="1899.12,-214.73 1888.53,-215.03 1896.99,-221.4 1899.12,-214.73"/>
</g>
<!-- Node258 -->
<g id="node33" class="node">
<title>Node258</title>
<g id="a_node33"><a xlink:title=" ">
<polygon fill="white" stroke="#bfbfbf" points="1917.5,-185 1917.5,-215 2027.5,-215 2027.5,-185 1917.5,-185"/>
<text text-anchor="start" x="1925.5" y="-203" font-family="Helvetica,sans-Serif" font-size="10.00">boost/preprocessor</text>
<text text-anchor="middle" x="1972.5" y="-192" font-family="Helvetica,sans-Serif" font-size="10.00">/slot/detail/def.hpp</text>
</a>
</g>
</g>
<!-- Node4&#45;&gt;Node258 -->
<g id="edge46" class="edge">
<title>Node4&#45;&gt;Node258</title>
<path fill="none" stroke="midnightblue" d="M2038.25,-257.23C2027.68,-248.2 2010.82,-233.77 1996.82,-221.8"/>
<polygon fill="midnightblue" stroke="midnightblue" points="1998.85,-218.93 1988.97,-215.09 1994.3,-224.25 1998.85,-218.93"/>
</g>
<!-- Node259 -->
<g id="node34" class="node">
<title>Node259</title>
<g id="a_node34"><a xlink:title=" ">
<polygon fill="white" stroke="#bfbfbf" points="2046,-190.5 2046,-209.5 2203,-209.5 2203,-190.5 2046,-190.5"/>
<text text-anchor="middle" x="2124.5" y="-197.5" font-family="Helvetica,sans-Serif" font-size="10.00">boost/config/workaround.hpp</text>
</a>
</g>
</g>
<!-- Node4&#45;&gt;Node259 -->
<g id="edge48" class="edge">
<title>Node4&#45;&gt;Node259</title>
<path fill="none" stroke="midnightblue" d="M2058.75,-257.23C2070.94,-246.81 2091.52,-229.21 2106.41,-216.47"/>
<polygon fill="midnightblue" stroke="midnightblue" points="2109.09,-218.79 2114.41,-209.63 2104.54,-213.47 2109.09,-218.79"/>
</g>
<!-- Node260 -->
<g id="node35" class="node">
<title>Node260</title>
<g id="a_node35"><a xlink:title=" ">
<polygon fill="white" stroke="#bfbfbf" points="2221,-185 2221,-215 2338,-215 2338,-185 2221,-185"/>
<text text-anchor="start" x="2229" y="-203" font-family="Helvetica,sans-Serif" font-size="10.00">boost/function/detail</text>
<text text-anchor="middle" x="2279.5" y="-192" font-family="Helvetica,sans-Serif" font-size="10.00">/prologue.hpp</text>
</a>
</g>
</g>
<!-- Node4&#45;&gt;Node260 -->
<g id="edge49" class="edge">
<title>Node4&#45;&gt;Node260</title>
<path fill="none" stroke="midnightblue" d="M2080.3,-257.5C2113.39,-248.6 2166.66,-234.13 2212.5,-221 2216.03,-219.99 2219.67,-218.94 2223.33,-217.87"/>
<polygon fill="midnightblue" stroke="midnightblue" points="2224.44,-221.19 2233.04,-215.01 2222.46,-214.47 2224.44,-221.19"/>
</g>
<!-- Node261 -->
<g id="node36" class="node">
<title>Node261</title>
<g id="a_node36"><a xlink:title=" ">
<polygon fill="white" stroke="#bfbfbf" points="2356.5,-190.5 2356.5,-209.5 2408.5,-209.5 2408.5,-190.5 2356.5,-190.5"/>
<text text-anchor="middle" x="2382.5" y="-197.5" font-family="Helvetica,sans-Serif" font-size="10.00">cassert</text>
</a>
</g>
</g>
<!-- Node4&#45;&gt;Node261 -->
<g id="edge50" class="edge">
<title>Node4&#45;&gt;Node261</title>
<path fill="none" stroke="midnightblue" d="M2105.08,-263.69C2166.34,-259.77 2266.17,-249.24 2347.5,-221 2352.09,-219.41 2356.76,-217.21 2361.13,-214.85"/>
<polygon fill="midnightblue" stroke="midnightblue" points="2363.22,-217.68 2370.08,-209.6 2359.68,-211.64 2363.22,-217.68"/>
</g>
<!-- Node262 -->
<g id="node37" class="node">
<title>Node262</title>
<g id="a_node37"><a xlink:title=" ">
<polygon fill="white" stroke="#bfbfbf" points="2426.5,-185 2426.5,-215 2536.5,-215 2536.5,-185 2426.5,-185"/>
<text text-anchor="start" x="2434.5" y="-203" font-family="Helvetica,sans-Serif" font-size="10.00">boost/config/no_tr1</text>
<text text-anchor="middle" x="2481.5" y="-192" font-family="Helvetica,sans-Serif" font-size="10.00">/functional.hpp</text>
</a>
</g>
</g>
<!-- Node4&#45;&gt;Node262 -->
<g id="edge52" class="edge">
<title>Node4&#45;&gt;Node262</title>
<path fill="none" stroke="midnightblue" d="M2105.29,-262.29C2178.21,-256.79 2308.35,-244.51 2417.5,-221 2421.84,-220.06 2426.31,-218.96 2430.77,-217.77"/>
<polygon fill="midnightblue" stroke="midnightblue" points="2431.81,-221.11 2440.48,-215.02 2429.91,-214.38 2431.81,-221.11"/>
</g>
<!-- Node263 -->
<g id="node38" class="node">
<title>Node263</title>
<g id="a_node38"><a xlink:title=" ">
<polygon fill="white" stroke="#bfbfbf" points="2554.5,-185 2554.5,-215 2666.5,-215 2666.5,-185 2554.5,-185"/>
<text text-anchor="start" x="2562.5" y="-203" font-family="Helvetica,sans-Serif" font-size="10.00">boost/assert/source</text>
<text text-anchor="middle" x="2610.5" y="-192" font-family="Helvetica,sans-Serif" font-size="10.00">_location.hpp</text>
</a>
</g>
</g>
<!-- Node4&#45;&gt;Node263 -->
<g id="edge54" class="edge">
<title>Node4&#45;&gt;Node263</title>
<path fill="none" stroke="midnightblue" d="M2105.32,-264.69C2198.21,-261.7 2388.03,-252 2545.5,-221 2550.18,-220.08 2555,-218.95 2559.8,-217.7"/>
<polygon fill="midnightblue" stroke="midnightblue" points="2560.86,-221.04 2569.57,-215.01 2559,-214.29 2560.86,-221.04"/>
</g>
<!-- Node264 -->
<g id="node39" class="node">
<title>Node264</title>
<g id="a_node39"><a xlink:title=" ">
<polygon fill="white" stroke="#bfbfbf" points="2685,-190.5 2685,-209.5 2832,-209.5 2832,-190.5 2685,-190.5"/>
<text text-anchor="middle" x="2758.5" y="-197.5" font-family="Helvetica,sans-Serif" font-size="10.00">boost/current_function.hpp</text>
</a>
</g>
</g>
<!-- Node4&#45;&gt;Node264 -->
<g id="edge55" class="edge">
<title>Node4&#45;&gt;Node264</title>
<path fill="none" stroke="midnightblue" d="M2105.05,-265.06C2215.39,-262.53 2466.83,-253.4 2675.5,-221 2689.62,-218.81 2704.88,-215.43 2718.42,-212.07"/>
<polygon fill="midnightblue" stroke="midnightblue" points="2719.56,-215.39 2728.38,-209.52 2717.83,-208.61 2719.56,-215.39"/>
</g>
<!-- Node265 -->
<g id="node40" class="node">
<title>Node265</title>
<g id="a_node40"><a xlink:title=" ">
<polygon fill="white" stroke="#bfbfbf" points="2850.5,-190.5 2850.5,-209.5 2898.5,-209.5 2898.5,-190.5 2850.5,-190.5"/>
<text text-anchor="middle" x="2874.5" y="-197.5" font-family="Helvetica,sans-Serif" font-size="10.00">iosfwd</text>
</a>
</g>
</g>
<!-- Node4&#45;&gt;Node265 -->
<g id="edge61" class="edge">
<title>Node4&#45;&gt;Node265</title>
<path fill="none" stroke="midnightblue" d="M2105.24,-266.32C2262.94,-266.67 2703.95,-263.67 2841.5,-221 2846.09,-219.58 2850.69,-217.38 2854.95,-214.96"/>
<polygon fill="midnightblue" stroke="midnightblue" points="2856.98,-217.81 2863.56,-209.51 2853.23,-211.9 2856.98,-217.81"/>
</g>
<!-- Node266 -->
<g id="node41" class="node">
<title>Node266</title>
<g id="a_node41"><a xlink:title=" ">
<polygon fill="white" stroke="#bfbfbf" points="2916.5,-179.5 2916.5,-220.5 3034.5,-220.5 3034.5,-179.5 2916.5,-179.5"/>
<text text-anchor="start" x="2924.5" y="-208.5" font-family="Helvetica,sans-Serif" font-size="10.00">/media/disk4_1/work</text>
<text text-anchor="start" x="2924.5" y="-197.5" font-family="Helvetica,sans-Serif" font-size="10.00">/code/ui/boost/boost</text>
<text text-anchor="middle" x="2975.5" y="-186.5" font-family="Helvetica,sans-Serif" font-size="10.00">/exception</text>
</a>
</g>
</g>
<!-- Node4&#45;&gt;Node266 -->
<g id="edge62" class="edge">
<title>Node4&#45;&gt;Node266</title>
<path fill="none" stroke="midnightblue" d="M2105.28,-264.76C2267.83,-260.93 2733.79,-248 2906.39,-220.92"/>
<polygon fill="midnightblue" stroke="midnightblue" points="2907.05,-224.35 2916.35,-219.28 2905.92,-217.45 2907.05,-224.35"/>
</g>
<!-- Node267 -->
<g id="node42" class="node">
<title>Node267</title>
<g id="a_node42"><a xlink:title=" ">
<polygon fill="white" stroke="#bfbfbf" points="3053,-190.5 3053,-209.5 3220,-209.5 3220,-190.5 3053,-190.5"/>
<text text-anchor="middle" x="3136.5" y="-197.5" font-family="Helvetica,sans-Serif" font-size="10.00">boost/exception/exception.hpp</text>
</a>
</g>
</g>
<!-- Node4&#45;&gt;Node267 -->
<g id="edge63" class="edge">
<title>Node4&#45;&gt;Node267</title>
<path fill="none" stroke="midnightblue" d="M2105.24,-264.68C2287.99,-260.23 2860,-244.71 3043.5,-221 3059.89,-218.88 3077.68,-215.36 3093.27,-211.86"/>
<polygon fill="midnightblue" stroke="midnightblue" points="3094.2,-215.24 3103.16,-209.58 3092.63,-208.42 3094.2,-215.24"/>
</g>
<!-- Node268 -->
<g id="node43" class="node">
<title>Node268</title>
<g id="a_node43"><a xlink:title=" ">
<polygon fill="white" stroke="#bfbfbf" points="3238,-185 3238,-215 3367,-215 3367,-185 3238,-185"/>
<text text-anchor="start" x="3246" y="-203" font-family="Helvetica,sans-Serif" font-size="10.00">boost/function/function</text>
<text text-anchor="middle" x="3302.5" y="-192" font-family="Helvetica,sans-Serif" font-size="10.00">_base.hpp</text>
</a>
</g>
</g>
<!-- Node4&#45;&gt;Node268 -->
<g id="edge64" class="edge">
<title>Node4&#45;&gt;Node268</title>
<path fill="none" stroke="midnightblue" d="M2105.28,-265.56C2309.87,-263.7 3008.83,-254.97 3229.5,-221 3235.41,-220.09 3241.52,-218.87 3247.58,-217.49"/>
<polygon fill="midnightblue" stroke="midnightblue" points="3248.8,-220.79 3257.68,-215.01 3247.13,-213.99 3248.8,-220.79"/>
</g>
<!-- Node269 -->
<g id="node44" class="node">
<title>Node269</title>
<g id="a_node44"><a xlink:title=" ">
<polygon fill="white" stroke="#bfbfbf" points="3385.5,-190.5 3385.5,-209.5 3443.5,-209.5 3443.5,-190.5 3385.5,-190.5"/>
<text text-anchor="middle" x="3414.5" y="-197.5" font-family="Helvetica,sans-Serif" font-size="10.00">memory</text>
</a>
</g>
</g>
<!-- Node4&#45;&gt;Node269 -->
<g id="edge66" class="edge">
<title>Node4&#45;&gt;Node269</title>
<path fill="none" stroke="midnightblue" d="M2105.2,-265.57C2342.91,-263.58 3252.6,-253.85 3376.5,-221 3382.08,-219.52 3387.77,-217.1 3392.98,-214.45"/>
<polygon fill="midnightblue" stroke="midnightblue" points="3394.7,-217.5 3401.74,-209.58 3391.3,-211.39 3394.7,-217.5"/>
</g>
<!-- Node270 -->
<g id="node45" class="node">
<title>Node270</title>
<g id="a_node45"><a xlink:title=" ">
<polygon fill="white" stroke="#bfbfbf" points="3462,-190.5 3462,-209.5 3499,-209.5 3499,-190.5 3462,-190.5"/>
<text text-anchor="middle" x="3480.5" y="-197.5" font-family="Helvetica,sans-Serif" font-size="10.00">new</text>
</a>
</g>
</g>
<!-- Node4&#45;&gt;Node270 -->
<g id="edge67" class="edge">
<title>Node4&#45;&gt;Node270</title>
<path fill="none" stroke="midnightblue" d="M2105.22,-266.12C2351.76,-266.38 3323.56,-264.61 3452.5,-221 3456.23,-219.74 3459.89,-217.8 3463.28,-215.62"/>
<polygon fill="midnightblue" stroke="midnightblue" points="3465.49,-218.34 3471.44,-209.58 3461.32,-212.71 3465.49,-218.34"/>
</g>
<!-- Node271 -->
<g id="node46" class="node">
<title>Node271</title>
<g id="a_node46"><a xlink:title=" ">
<polygon fill="white" stroke="#bfbfbf" points="3517.5,-190.5 3517.5,-209.5 3573.5,-209.5 3573.5,-190.5 3517.5,-190.5"/>
<text text-anchor="middle" x="3545.5" y="-197.5" font-family="Helvetica,sans-Serif" font-size="10.00">assert.h</text>
</a>
</g>
</g>
<!-- Node4&#45;&gt;Node271 -->
<g id="edge69" class="edge">
<title>Node4&#45;&gt;Node271</title>
<path fill="none" stroke="midnightblue" d="M2105.23,-265.8C2357.54,-264.68 3371.45,-257.92 3508.5,-221 3513.83,-219.56 3519.23,-217.23 3524.21,-214.66"/>
<polygon fill="midnightblue" stroke="midnightblue" points="3526.15,-217.58 3533.11,-209.59 3522.69,-211.5 3526.15,-217.58"/>
</g>
<!-- Node272 -->
<g id="node47" class="node">
<title>Node272</title>
<g id="a_node47"><a xlink:title=" ">
<polygon fill="white" stroke="#bfbfbf" points="3592,-190.5 3592,-209.5 3693,-209.5 3693,-190.5 3592,-190.5"/>
<text text-anchor="middle" x="3642.5" y="-197.5" font-family="Helvetica,sans-Serif" font-size="10.00">boost/integer.hpp</text>
</a>
</g>
</g>
<!-- Node4&#45;&gt;Node272 -->
<g id="edge70" class="edge">
<title>Node4&#45;&gt;Node272</title>
<path fill="none" stroke="midnightblue" d="M2105.34,-265.32C2365.36,-262.05 3435.18,-247.13 3582.5,-221 3592.35,-219.25 3602.78,-216.22 3612.13,-213.03"/>
<polygon fill="midnightblue" stroke="midnightblue" points="3613.56,-216.24 3621.79,-209.57 3611.19,-209.65 3613.56,-216.24"/>
</g>
<!-- Node273 -->
<g id="node48" class="node">
<title>Node273</title>
<g id="a_node48"><a xlink:title=" ">
<polygon fill="white" stroke="#bfbfbf" points="3711,-190.5 3711,-209.5 3836,-209.5 3836,-190.5 3711,-190.5"/>
<text text-anchor="middle" x="3773.5" y="-197.5" font-family="Helvetica,sans-Serif" font-size="10.00">boost/integer_fwd.hpp</text>
</a>
</g>
</g>
<!-- Node4&#45;&gt;Node273 -->
<g id="edge71" class="edge">
<title>Node4&#45;&gt;Node273</title>
<path fill="none" stroke="midnightblue" d="M2105.08,-266.34C2357.78,-267.55 3384.6,-269.33 3702.5,-221 3714.64,-219.15 3727.65,-215.88 3739.17,-212.52"/>
<polygon fill="midnightblue" stroke="midnightblue" points="3740.31,-215.83 3748.86,-209.56 3738.27,-209.13 3740.31,-215.83"/>
</g>
<!-- Node274 -->
<g id="node49" class="node">
<title>Node274</title>
<g id="a_node49"><a xlink:title=" ">
<polygon fill="white" stroke="#bfbfbf" points="3854.5,-190.5 3854.5,-209.5 3904.5,-209.5 3904.5,-190.5 3854.5,-190.5"/>
<text text-anchor="middle" x="3879.5" y="-197.5" font-family="Helvetica,sans-Serif" font-size="10.00">climits</text>
</a>
</g>
</g>
<!-- Node4&#45;&gt;Node274 -->
<g id="edge72" class="edge">
<title>Node4&#45;&gt;Node274</title>
<path fill="none" stroke="midnightblue" d="M2105.43,-266.27C2392.58,-267.41 3675.12,-269.69 3845.5,-221 3850.35,-219.61 3855.22,-217.37 3859.7,-214.88"/>
<polygon fill="midnightblue" stroke="midnightblue" points="3861.56,-217.85 3868.22,-209.61 3857.87,-211.9 3861.56,-217.85"/>
</g>
<!-- Node5&#45;&gt;Node2 -->
<g id="edge6" class="edge">
<title>Node5&#45;&gt;Node2</title>
<path fill="none" stroke="midnightblue" d="M638.88,-128.78C554.26,-123.22 384.71,-110.13 242.5,-87 236.08,-85.96 229.34,-84.66 222.74,-83.27"/>
<polygon fill="midnightblue" stroke="midnightblue" points="223.08,-79.76 212.56,-81.03 221.58,-86.59 223.08,-79.76"/>
</g>
<!-- Node5&#45;&gt;Node3 -->
<g id="edge8" class="edge">
<title>Node5&#45;&gt;Node3</title>
<path fill="none" stroke="midnightblue" d="M713.38,-123.48C728.93,-116.08 749.47,-103.89 761.5,-87 773.55,-70.08 777.99,-46.29 779.6,-29.86"/>
<polygon fill="midnightblue" stroke="midnightblue" points="783.1,-30.06 780.33,-19.83 776.12,-29.55 783.1,-30.06"/>
</g>
<!-- Node5&#45;&gt;Node8 -->
<g id="edge7" class="edge">
<title>Node5&#45;&gt;Node8</title>
<path fill="none" stroke="midnightblue" d="M746.11,-131.87C1150.02,-130.77 3708.8,-122.47 4050.5,-87 4062.79,-85.72 4076.07,-83.42 4087.95,-81.02"/>
<polygon fill="midnightblue" stroke="midnightblue" points="4088.9,-84.39 4097.96,-78.9 4087.45,-77.54 4088.9,-84.39"/>
</g>
<!-- Node5&#45;&gt;Node22 -->
<g id="edge9" class="edge">
<title>Node5&#45;&gt;Node22</title>
<path fill="none" stroke="midnightblue" d="M656.24,-123.49C618.17,-114.53 556.58,-99.95 503.5,-87 498.89,-85.87 494.08,-84.69 489.28,-83.5"/>
<polygon fill="midnightblue" stroke="midnightblue" points="490.08,-80.09 479.53,-81.07 488.39,-86.89 490.08,-80.09"/>
</g>
<!-- Node5&#45;&gt;Node86 -->
<g id="edge10" class="edge">
<title>Node5&#45;&gt;Node86</title>
<path fill="none" stroke="midnightblue" d="M674.59,-123.48C656.79,-115 628.92,-101.74 606.08,-90.86"/>
<polygon fill="midnightblue" stroke="midnightblue" points="607.49,-87.66 596.96,-86.52 604.49,-93.98 607.49,-87.66"/>
</g>
<!-- Node5&#45;&gt;Node105 -->
<g id="edge11" class="edge">
<title>Node5&#45;&gt;Node105</title>
<path fill="none" stroke="midnightblue" d="M638.71,-128.96C566.64,-124.08 435.11,-112.34 325.5,-87 322.09,-86.21 318.57,-85.25 315.08,-84.19"/>
<polygon fill="midnightblue" stroke="midnightblue" points="316.07,-80.83 305.48,-81.06 313.9,-87.49 316.07,-80.83"/>
</g>
<!-- Node5&#45;&gt;Node112 -->
<g id="edge12" class="edge">
<title>Node5&#45;&gt;Node112</title>
<path fill="none" stroke="midnightblue" d="M693.07,-123.48C693.54,-116.47 694.23,-106.19 694.87,-96.7"/>
<polygon fill="midnightblue" stroke="midnightblue" points="698.38,-96.74 695.56,-86.52 691.39,-96.27 698.38,-96.74"/>
</g>
<!-- Node5&#45;&gt;Node119 -->
<g id="edge13" class="edge">
<title>Node5&#45;&gt;Node119</title>
<path fill="none" stroke="midnightblue" d="M717,-123.48C742.11,-114.74 781.86,-100.91 813.62,-89.86"/>
<polygon fill="midnightblue" stroke="midnightblue" points="814.9,-93.11 823.2,-86.52 812.6,-86.5 814.9,-93.11"/>
</g>
<!-- Node5&#45;&gt;Node150 -->
<g id="edge14" class="edge">
<title>Node5&#45;&gt;Node150</title>
<path fill="none" stroke="midnightblue" d="M746.22,-124.08C794.2,-116.45 866.16,-103.62 927.5,-87 930.47,-86.2 933.52,-85.28 936.57,-84.31"/>
<polygon fill="midnightblue" stroke="midnightblue" points="937.77,-87.6 946.14,-81.1 935.54,-80.97 937.77,-87.6"/>
</g>
<!-- Node5&#45;&gt;Node181 -->
<g id="edge15" class="edge">
<title>Node5&#45;&gt;Node181</title>
<path fill="none" stroke="midnightblue" d="M746.25,-126.99C809.68,-120.48 918.1,-107.45 1009.5,-87 1014.35,-85.92 1019.42,-84.57 1024.37,-83.15"/>
<polygon fill="midnightblue" stroke="midnightblue" points="1025.67,-86.41 1034.22,-80.16 1023.64,-79.71 1025.67,-86.41"/>
</g>
<!-- Node5&#45;&gt;Node189 -->
<g id="edge16" class="edge">
<title>Node5&#45;&gt;Node189</title>
<path fill="none" stroke="midnightblue" d="M746.03,-130.12C998.42,-121.26 2068.23,-83.71 2329.68,-74.53"/>
<polygon fill="midnightblue" stroke="midnightblue" points="2329.85,-78.03 2339.72,-74.18 2329.6,-71.03 2329.85,-78.03"/>
</g>
<!-- Node5&#45;&gt;Node192 -->
<g id="edge17" class="edge">
<title>Node5&#45;&gt;Node192</title>
<path fill="none" stroke="midnightblue" d="M746.19,-130.67C1072.97,-122.6 2789.65,-80.2 3064.4,-73.42"/>
<polygon fill="midnightblue" stroke="midnightblue" points="3064.72,-76.91 3074.63,-73.16 3064.54,-69.91 3064.72,-76.91"/>
</g>
<!-- Node5&#45;&gt;Node206 -->
<g id="edge18" class="edge">
<title>Node5&#45;&gt;Node206</title>
<path fill="none" stroke="midnightblue" d="M746.28,-131.46C1008.49,-128.75 2178.97,-115.56 3137.5,-87 3249.21,-83.67 3380.78,-77.71 3446.95,-74.57"/>
<polygon fill="midnightblue" stroke="midnightblue" points="3447.17,-78.06 3456.99,-74.09 3446.84,-71.07 3447.17,-78.06"/>
</g>
<!-- Node5&#45;&gt;Node208 -->
<g id="edge19" class="edge">
<title>Node5&#45;&gt;Node208</title>
<path fill="none" stroke="midnightblue" d="M638.86,-128.82C577.12,-124.07 473.23,-112.77 387.5,-87 385.62,-86.44 383.71,-85.78 381.81,-85.05"/>
<polygon fill="midnightblue" stroke="midnightblue" points="383.13,-81.81 372.56,-81.09 380.38,-88.25 383.13,-81.81"/>
</g>
<!-- Node5&#45;&gt;Node214 -->
<g id="edge20" class="edge">
<title>Node5&#45;&gt;Node214</title>
<path fill="none" stroke="midnightblue" d="M746.18,-132.05C1032.39,-132.12 2407.8,-130.11 3531.5,-87 3582.36,-85.05 3639.26,-81.63 3684.68,-78.6"/>
<polygon fill="midnightblue" stroke="midnightblue" points="3685.03,-82.08 3694.77,-77.92 3684.56,-75.1 3685.03,-82.08"/>
</g>
<!-- Node5&#45;&gt;Node215 -->
<g id="edge21" class="edge">
<title>Node5&#45;&gt;Node215</title>
<path fill="none" stroke="midnightblue" d="M746.05,-131.91C1109.04,-131.18 3213.53,-125.34 3853.5,-87 3878.57,-85.5 3906.12,-82.79 3929.9,-80.12"/>
<polygon fill="midnightblue" stroke="midnightblue" points="3930.31,-83.59 3939.84,-78.98 3929.51,-76.64 3930.31,-83.59"/>
</g>
<!-- Node245&#45;&gt;Node2 -->
<g id="edge23" class="edge">
<title>Node245&#45;&gt;Node2</title>
<path fill="none" stroke="midnightblue" d="M207.63,-123.48C202.63,-114.73 194.71,-100.87 188.39,-89.81"/>
<polygon fill="midnightblue" stroke="midnightblue" points="191.36,-87.96 183.36,-81.01 185.28,-91.43 191.36,-87.96"/>
</g>
<!-- Node245&#45;&gt;Node105 -->
<g id="edge26" class="edge">
<title>Node245&#45;&gt;Node105</title>
<path fill="none" stroke="midnightblue" d="M222.67,-123.48C233.85,-114.11 252.02,-98.88 265.59,-87.51"/>
<polygon fill="midnightblue" stroke="midnightblue" points="267.93,-90.11 273.35,-81.01 263.43,-84.75 267.93,-90.11"/>
</g>
<!-- Node245&#45;&gt;Node208 -->
<g id="edge24" class="edge">
<title>Node245&#45;&gt;Node208</title>
<path fill="none" stroke="midnightblue" d="M235.17,-123.42C258.1,-114.64 294.49,-100.41 325.5,-87 326.7,-86.48 327.92,-85.95 329.14,-85.4"/>
<polygon fill="midnightblue" stroke="midnightblue" points="330.9,-88.45 338.55,-81.11 328,-82.08 330.9,-88.45"/>
</g>
<!-- Node245&#45;&gt;Node246 -->
<g id="edge25" class="edge">
<title>Node245&#45;&gt;Node246</title>
<path fill="none" stroke="midnightblue" d="M188,-123.48C158.54,-113.22 108.92,-95.96 75.7,-84.4"/>
<polygon fill="midnightblue" stroke="midnightblue" points="76.55,-80.99 65.95,-81.01 74.25,-87.6 76.55,-80.99"/>
</g>
<!-- Node248&#45;&gt;Node2 -->
<g id="edge32" class="edge">
<title>Node248&#45;&gt;Node2</title>
<path fill="none" stroke="midnightblue" d="M422,-190.49C434.44,-175.32 456.4,-143.27 439.5,-123 411,-88.82 286.1,-95.92 242.5,-87 236.78,-85.83 230.78,-84.55 224.85,-83.24"/>
<polygon fill="midnightblue" stroke="midnightblue" points="225.52,-79.81 214.99,-81.05 223.99,-86.64 225.52,-79.81"/>
</g>
<!-- Node248&#45;&gt;Node5 -->
<g id="edge33" class="edge">
<title>Node248&#45;&gt;Node5</title>
<path fill="none" stroke="midnightblue" d="M451.13,-190.44C501.24,-178.72 591.17,-157.69 645.98,-144.88"/>
<polygon fill="midnightblue" stroke="midnightblue" points="646.85,-148.27 655.79,-142.58 645.26,-141.45 646.85,-148.27"/>
</g>
<!-- Node248&#45;&gt;Node249 -->
<g id="edge34" class="edge">
<title>Node248&#45;&gt;Node249</title>
<path fill="none" stroke="midnightblue" d="M409.38,-190.23C403.56,-180.29 393.94,-163.84 386.61,-151.29"/>
<polygon fill="midnightblue" stroke="midnightblue" points="389.61,-149.49 381.54,-142.63 383.57,-153.03 389.61,-149.49"/>
</g>
<!-- Node344&#45;&gt;Node2 -->
<g id="edge75" class="edge">
<title>Node344&#45;&gt;Node2</title>
<path fill="none" stroke="midnightblue" d="M129.58,-190.19C120.59,-175.61 105.64,-145.85 116.5,-123 123.91,-107.41 138.74,-95.06 152.04,-86.47"/>
<polygon fill="midnightblue" stroke="midnightblue" points="154.14,-89.29 160.89,-81.13 150.52,-83.3 154.14,-89.29"/>
</g>
<!-- Node344&#45;&gt;Node5 -->
<g id="edge76" class="edge">
<title>Node344&#45;&gt;Node5</title>
<path fill="none" stroke="midnightblue" d="M190.69,-192.56C294.62,-180.43 518.81,-154.27 628.89,-141.42"/>
<polygon fill="midnightblue" stroke="midnightblue" points="629.33,-144.9 638.86,-140.26 628.52,-137.94 629.33,-144.9"/>
</g>
</g>
</svg>
