<?xml version="1.0" encoding="UTF-8" standalone="no"?>
<!DOCTYPE svg PUBLIC "-//W3C//DTD SVG 1.1//EN"
 "http://www.w3.org/Graphics/SVG/1.1/DTD/svg11.dtd">
<!-- Generated by graphviz version 2.43.0 (0)
 -->
<!-- Title: boost/ui/image.hpp Pages: 1 -->
<svg width="252pt" height="84pt"
 viewBox="0.00 0.00 252.00 84.00" xmlns="http://www.w3.org/2000/svg" xmlns:xlink="http://www.w3.org/1999/xlink">
<g id="graph0" class="graph" transform="scale(1 1) rotate(0) translate(4 80)">
<title>boost/ui/image.hpp</title>
<polygon fill="white" stroke="transparent" points="-4,4 -4,-80 248,-80 248,4 -4,4"/>
<!-- Node1 -->
<g id="node1" class="node">
<title>Node1</title>
<g id="a_node1"><a xlink:title="Image class.">
<polygon fill="#bfbfbf" stroke="black" points="84.5,-56.5 84.5,-75.5 194.5,-75.5 194.5,-56.5 84.5,-56.5"/>
<text text-anchor="middle" x="139.5" y="-63.5" font-family="Helvetica,sans-Serif" font-size="10.00">boost/ui/image.hpp</text>
</a>
</g>
</g>
<!-- Node2 -->
<g id="node2" class="node">
<title>Node2</title>
<g id="a_node2"><a xlink:href="image__widget_8hpp.html" target="_top" xlink:title="Image widget.">
<polygon fill="white" stroke="black" points="0,-0.5 0,-19.5 149,-19.5 149,-0.5 0,-0.5"/>
<text text-anchor="middle" x="74.5" y="-7.5" font-family="Helvetica,sans-Serif" font-size="10.00">boost/ui/image_widget.hpp</text>
</a>
</g>
</g>
<!-- Node1&#45;&gt;Node2 -->
<g id="edge1" class="edge">
<title>Node1&#45;&gt;Node2</title>
<path fill="none" stroke="midnightblue" d="M121.23,-49.82C109.58,-40.15 94.9,-27.95 85.13,-19.83"/>
<polygon fill="midnightblue" stroke="midnightblue" points="119.13,-52.63 129.06,-56.32 123.6,-47.24 119.13,-52.63"/>
</g>
<!-- Node3 -->
<g id="node3" class="node">
<title>Node3</title>
<g id="a_node3"><a xlink:href="ui_8hpp.html" target="_top" xlink:title="Master Boost.UI file.">
<polygon fill="white" stroke="black" points="167,-0.5 167,-19.5 244,-19.5 244,-0.5 167,-0.5"/>
<text text-anchor="middle" x="205.5" y="-7.5" font-family="Helvetica,sans-Serif" font-size="10.00">boost/ui.hpp</text>
</a>
</g>
</g>
<!-- Node1&#45;&gt;Node3 -->
<g id="edge2" class="edge">
<title>Node1&#45;&gt;Node3</title>
<path fill="none" stroke="midnightblue" d="M158.05,-49.82C169.88,-40.15 184.79,-27.95 194.7,-19.83"/>
<polygon fill="midnightblue" stroke="midnightblue" points="155.63,-47.28 150.1,-56.32 160.06,-52.7 155.63,-47.28"/>
</g>
</g>
</svg>
