<?xml version="1.0" encoding="UTF-8" standalone="no"?>
<!DOCTYPE svg PUBLIC "-//W3C//DTD SVG 1.1//EN"
 "http://www.w3.org/Graphics/SVG/1.1/DTD/svg11.dtd">
<!-- Generated by graphviz version 2.43.0 (0)
 -->
<!-- Title: boost/ui/image.hpp Pages: 1 -->
<svg width="874pt" height="207pt"
 viewBox="0.00 0.00 874.00 207.00" xmlns="http://www.w3.org/2000/svg" xmlns:xlink="http://www.w3.org/1999/xlink">
<g id="graph0" class="graph" transform="scale(1 1) rotate(0) translate(4 203)">
<title>boost/ui/image.hpp</title>
<polygon fill="white" stroke="transparent" points="-4,4 -4,-203 870,-203 870,4 -4,4"/>
<!-- Node1 -->
<g id="node1" class="node">
<title>Node1</title>
<g id="a_node1"><a xlink:title="Image class.">
<polygon fill="#bfbfbf" stroke="black" points="281,-179.5 281,-198.5 391,-198.5 391,-179.5 281,-179.5"/>
<text text-anchor="middle" x="336" y="-186.5" font-family="Helvetica,sans-Serif" font-size="10.00">boost/ui/image.hpp</text>
</a>
</g>
</g>
<!-- Node2 -->
<g id="node2" class="node">
<title>Node2</title>
<g id="a_node2"><a xlink:href="config_8hpp.html" target="_top" xlink:title="Configuration options.">
<polygon fill="white" stroke="black" points="0,-62 0,-81 110,-81 110,-62 0,-62"/>
<text text-anchor="middle" x="55" y="-69" font-family="Helvetica,sans-Serif" font-size="10.00">boost/ui/config.hpp</text>
</a>
</g>
</g>
<!-- Node1&#45;&gt;Node2 -->
<g id="edge1" class="edge">
<title>Node1&#45;&gt;Node2</title>
<path fill="none" stroke="midnightblue" d="M314.88,-179.32C265.53,-159.03 142.52,-108.47 85.24,-84.93"/>
<polygon fill="midnightblue" stroke="midnightblue" points="86.56,-81.69 75.98,-81.12 83.9,-88.16 86.56,-81.69"/>
</g>
<!-- Node4 -->
<g id="node4" class="node">
<title>Node4</title>
<g id="a_node4"><a xlink:href="coord_8hpp.html" target="_top" xlink:title="Coordinates classes.">
<polygon fill="white" stroke="black" points="282.5,-123.5 282.5,-142.5 389.5,-142.5 389.5,-123.5 282.5,-123.5"/>
<text text-anchor="middle" x="336" y="-130.5" font-family="Helvetica,sans-Serif" font-size="10.00">boost/ui/coord.hpp</text>
</a>
</g>
</g>
<!-- Node1&#45;&gt;Node4 -->
<g id="edge3" class="edge">
<title>Node1&#45;&gt;Node4</title>
<path fill="none" stroke="midnightblue" d="M336,-179.08C336,-172.01 336,-161.86 336,-152.99"/>
<polygon fill="midnightblue" stroke="midnightblue" points="339.5,-152.75 336,-142.75 332.5,-152.75 339.5,-152.75"/>
</g>
<!-- Node10 -->
<g id="node10" class="node">
<title>Node10</title>
<g id="a_node10"><a xlink:title=" ">
<polygon fill="white" stroke="#bfbfbf" points="408,-123.5 408,-142.5 462,-142.5 462,-123.5 408,-123.5"/>
<text text-anchor="middle" x="435" y="-130.5" font-family="Helvetica,sans-Serif" font-size="10.00">istream</text>
</a>
</g>
</g>
<!-- Node1&#45;&gt;Node10 -->
<g id="edge10" class="edge">
<title>Node1&#45;&gt;Node10</title>
<path fill="none" stroke="midnightblue" d="M351.91,-179.32C367.64,-170.74 391.94,-157.49 410.21,-147.52"/>
<polygon fill="midnightblue" stroke="midnightblue" points="412.03,-150.52 419.13,-142.65 408.68,-144.37 412.03,-150.52"/>
</g>
<!-- Node3 -->
<g id="node3" class="node">
<title>Node3</title>
<g id="a_node3"><a xlink:title=" ">
<polygon fill="white" stroke="#bfbfbf" points="6,-0.5 6,-19.5 104,-19.5 104,-0.5 6,-0.5"/>
<text text-anchor="middle" x="55" y="-7.5" font-family="Helvetica,sans-Serif" font-size="10.00">boost/config.hpp</text>
</a>
</g>
</g>
<!-- Node2&#45;&gt;Node3 -->
<g id="edge2" class="edge">
<title>Node2&#45;&gt;Node3</title>
<path fill="none" stroke="midnightblue" d="M55,-61.98C55,-53.58 55,-40.48 55,-29.66"/>
<polygon fill="midnightblue" stroke="midnightblue" points="58.5,-29.51 55,-19.51 51.5,-29.51 58.5,-29.51"/>
</g>
<!-- Node4&#45;&gt;Node2 -->
<g id="edge4" class="edge">
<title>Node4&#45;&gt;Node2</title>
<path fill="none" stroke="midnightblue" d="M293.54,-123.43C249.76,-114.55 179.54,-100.13 119,-87 113.57,-85.82 107.89,-84.57 102.25,-83.31"/>
<polygon fill="midnightblue" stroke="midnightblue" points="102.72,-79.83 92.2,-81.05 101.19,-86.66 102.72,-79.83"/>
</g>
<!-- Node5 -->
<g id="node5" class="node">
<title>Node5</title>
<g id="a_node5"><a xlink:title=" ">
<polygon fill="white" stroke="#bfbfbf" points="128.5,-62 128.5,-81 241.5,-81 241.5,-62 128.5,-62"/>
<text text-anchor="middle" x="185" y="-69" font-family="Helvetica,sans-Serif" font-size="10.00">boost/geometry.hpp</text>
</a>
</g>
</g>
<!-- Node4&#45;&gt;Node5 -->
<g id="edge5" class="edge">
<title>Node4&#45;&gt;Node5</title>
<path fill="none" stroke="midnightblue" d="M314.37,-123.48C288.58,-113.31 245.29,-96.26 215.96,-84.7"/>
<polygon fill="midnightblue" stroke="midnightblue" points="217.18,-81.42 206.59,-81.01 214.62,-87.93 217.18,-81.42"/>
</g>
<!-- Node6 -->
<g id="node6" class="node">
<title>Node6</title>
<g id="a_node6"><a xlink:title=" ">
<polygon fill="white" stroke="#bfbfbf" points="260,-56.5 260,-86.5 412,-86.5 412,-56.5 260,-56.5"/>
<text text-anchor="start" x="268" y="-74.5" font-family="Helvetica,sans-Serif" font-size="10.00">boost/geometry/geometries</text>
<text text-anchor="middle" x="336" y="-63.5" font-family="Helvetica,sans-Serif" font-size="10.00">/point_xy.hpp</text>
</a>
</g>
</g>
<!-- Node4&#45;&gt;Node6 -->
<g id="edge6" class="edge">
<title>Node4&#45;&gt;Node6</title>
<path fill="none" stroke="midnightblue" d="M336,-123.48C336,-116.47 336,-106.19 336,-96.7"/>
<polygon fill="midnightblue" stroke="midnightblue" points="339.5,-96.52 336,-86.52 332.5,-96.52 339.5,-96.52"/>
</g>
<!-- Node7 -->
<g id="node7" class="node">
<title>Node7</title>
<g id="a_node7"><a xlink:title=" ">
<polygon fill="white" stroke="#bfbfbf" points="430,-56.5 430,-86.5 582,-86.5 582,-56.5 430,-56.5"/>
<text text-anchor="start" x="438" y="-74.5" font-family="Helvetica,sans-Serif" font-size="10.00">boost/geometry/geometries</text>
<text text-anchor="middle" x="506" y="-63.5" font-family="Helvetica,sans-Serif" font-size="10.00">/box.hpp</text>
</a>
</g>
</g>
<!-- Node4&#45;&gt;Node7 -->
<g id="edge7" class="edge">
<title>Node4&#45;&gt;Node7</title>
<path fill="none" stroke="midnightblue" d="M360.36,-123.48C385.32,-114.74 424.84,-100.91 456.41,-89.86"/>
<polygon fill="midnightblue" stroke="midnightblue" points="457.65,-93.13 465.93,-86.52 455.34,-86.52 457.65,-93.13"/>
</g>
<!-- Node8 -->
<g id="node8" class="node">
<title>Node8</title>
<g id="a_node8"><a xlink:title=" ">
<polygon fill="white" stroke="#bfbfbf" points="600.5,-56.5 600.5,-86.5 713.5,-86.5 713.5,-56.5 600.5,-56.5"/>
<text text-anchor="start" x="608.5" y="-74.5" font-family="Helvetica,sans-Serif" font-size="10.00">boost/polygon/point</text>
<text text-anchor="middle" x="657" y="-63.5" font-family="Helvetica,sans-Serif" font-size="10.00">_data.hpp</text>
</a>
</g>
</g>
<!-- Node4&#45;&gt;Node8 -->
<g id="edge8" class="edge">
<title>Node4&#45;&gt;Node8</title>
<path fill="none" stroke="midnightblue" d="M387.89,-123.49C437.28,-115.25 513.94,-102.08 589.92,-87.17"/>
<polygon fill="midnightblue" stroke="midnightblue" points="591.02,-90.52 600.15,-85.15 589.66,-83.65 591.02,-90.52"/>
</g>
<!-- Node9 -->
<g id="node9" class="node">
<title>Node9</title>
<g id="a_node9"><a xlink:title=" ">
<polygon fill="white" stroke="#bfbfbf" points="732,-56.5 732,-86.5 866,-86.5 866,-56.5 732,-56.5"/>
<text text-anchor="start" x="740" y="-74.5" font-family="Helvetica,sans-Serif" font-size="10.00">boost/polygon/rectangle</text>
<text text-anchor="middle" x="799" y="-63.5" font-family="Helvetica,sans-Serif" font-size="10.00">_data.hpp</text>
</a>
</g>
</g>
<!-- Node4&#45;&gt;Node9 -->
<g id="edge9" class="edge">
<title>Node4&#45;&gt;Node9</title>
<path fill="none" stroke="midnightblue" d="M389.6,-124.23C392.78,-123.8 395.93,-123.39 399,-123 539.5,-105.16 578.02,-108.43 721.83,-87.1"/>
<polygon fill="midnightblue" stroke="midnightblue" points="722.54,-90.54 731.91,-85.59 721.5,-83.61 722.54,-90.54"/>
</g>
</g>
</svg>
