<?xml version="1.0" encoding="UTF-8" standalone="no"?>
<!DOCTYPE svg PUBLIC "-//W3C//DTD SVG 1.1//EN"
 "http://www.w3.org/Graphics/SVG/1.1/DTD/svg11.dtd">
<!-- Generated by graphviz version 2.38.0 (20140413.2041)
 -->
<!-- Title: boost/ui/layout.hpp Pages: 1 -->
<svg width="2359pt" height="196pt"
 viewBox="0.00 0.00 2359.03 196.00" xmlns="http://www.w3.org/2000/svg" xmlns:xlink="http://www.w3.org/1999/xlink">
<g id="graph0" class="graph" transform="scale(1 1) rotate(0) translate(4 192)">
<title>boost/ui/layout.hpp</title>
<polygon fill="white" stroke="none" points="-4,4 -4,-192 2355.03,-192 2355.03,4 -4,4"/>
<!-- Node1 -->
<g id="node1" class="node"><title>Node1</title>
<polygon fill="#bfbfbf" stroke="black" points="1759,-168.5 1759,-187.5 1858,-187.5 1858,-168.5 1759,-168.5"/>
<text text-anchor="middle" x="1808.5" y="-175.5" font-family="Helvetica,sans-Serif" font-size="10.00">boost/ui/layout.hpp</text>
</g>
<!-- Node2 -->
<g id="node2" class="node"><title>Node2</title>
<g id="a_node2"><a xlink:href="widget_8hpp.html" target="_top" xlink:title="Widget class. ">
<polygon fill="white" stroke="black" points="1150,-112.5 1150,-131.5 1251,-131.5 1251,-112.5 1150,-112.5"/>
<text text-anchor="middle" x="1200.5" y="-119.5" font-family="Helvetica,sans-Serif" font-size="10.00">boost/ui/widget.hpp</text>
</a>
</g>
</g>
<!-- Node1&#45;&gt;Node2 -->
<g id="edge1" class="edge"><title>Node1&#45;&gt;Node2</title>
<path fill="none" stroke="midnightblue" d="M1748.68,-171.687C1629.23,-161.078 1363.05,-137.437 1251.37,-127.518"/>
<polygon fill="midnightblue" stroke="midnightblue" points="1748.47,-175.182 1758.74,-172.581 1749.09,-168.21 1748.47,-175.182"/>
</g>
<!-- Node8 -->
<g id="node8" class="node"><title>Node8</title>
<g id="a_node8"><a xlink:href="ui_8hpp.html" target="_top" xlink:title="Master Boost.UI file. ">
<polygon fill="white" stroke="black" points="476.5,-0.5 476.5,-19.5 546.5,-19.5 546.5,-0.5 476.5,-0.5"/>
<text text-anchor="middle" x="511.5" y="-7.5" font-family="Helvetica,sans-Serif" font-size="10.00">boost/ui.hpp</text>
</a>
</g>
</g>
<!-- Node1&#45;&gt;Node8 -->
<g id="edge26" class="edge"><title>Node1&#45;&gt;Node8</title>
<path fill="none" stroke="midnightblue" d="M1868.35,-173.058C2021.53,-161.899 2411.04,-126.25 2342.5,-56 2309.92,-22.6083 797.45,-12.6171 546.58,-11.1885"/>
<polygon fill="midnightblue" stroke="midnightblue" points="1867.9,-169.581 1858.18,-173.788 1868.4,-176.563 1867.9,-169.581"/>
</g>
<!-- Node3 -->
<g id="node3" class="node"><title>Node3</title>
<g id="a_node3"><a xlink:href="web__widget_8hpp.html" target="_top" xlink:title="Web widget. ">
<polygon fill="white" stroke="black" points="0,-56.5 0,-75.5 125,-75.5 125,-56.5 0,-56.5"/>
<text text-anchor="middle" x="62.5" y="-63.5" font-family="Helvetica,sans-Serif" font-size="10.00">boost/ui/web_widget.hpp</text>
</a>
</g>
</g>
<!-- Node2&#45;&gt;Node3 -->
<g id="edge2" class="edge"><title>Node2&#45;&gt;Node3</title>
<path fill="none" stroke="midnightblue" d="M1139.6,-120.18C976.466,-117.604 516.074,-107.848 134.5,-76 131.487,-75.7485 128.406,-75.4651 125.297,-75.1579"/>
<polygon fill="midnightblue" stroke="midnightblue" points="1139.86,-123.684 1149.91,-120.339 1139.97,-116.685 1139.86,-123.684"/>
</g>
<!-- Node4 -->
<g id="node4" class="node"><title>Node4</title>
<g id="a_node4"><a xlink:href="text__box_8hpp.html" target="_top" xlink:title="Text editor widgets. ">
<polygon fill="white" stroke="black" points="143.5,-56.5 143.5,-75.5 253.5,-75.5 253.5,-56.5 143.5,-56.5"/>
<text text-anchor="middle" x="198.5" y="-63.5" font-family="Helvetica,sans-Serif" font-size="10.00">boost/ui/text_box.hpp</text>
</a>
</g>
</g>
<!-- Node2&#45;&gt;Node4 -->
<g id="edge3" class="edge"><title>Node2&#45;&gt;Node4</title>
<path fill="none" stroke="midnightblue" d="M1139.45,-120.01C989.715,-117.159 592.405,-107.044 262.5,-76 259.596,-75.7267 256.621,-75.4161 253.62,-75.0785"/>
<polygon fill="midnightblue" stroke="midnightblue" points="1139.74,-123.515 1149.8,-120.203 1139.87,-116.517 1139.74,-123.515"/>
</g>
<!-- Node5 -->
<g id="node5" class="node"><title>Node5</title>
<g id="a_node5"><a xlink:href="strings__box_8hpp.html" target="_top" xlink:title="Widget with array of strings. ">
<polygon fill="white" stroke="black" points="272,-56.5 272,-75.5 395,-75.5 395,-56.5 272,-56.5"/>
<text text-anchor="middle" x="333.5" y="-63.5" font-family="Helvetica,sans-Serif" font-size="10.00">boost/ui/strings_box.hpp</text>
</a>
</g>
</g>
<!-- Node2&#45;&gt;Node5 -->
<g id="edge4" class="edge"><title>Node2&#45;&gt;Node5</title>
<path fill="none" stroke="midnightblue" d="M1139.63,-118.805C1006.86,-113.738 681.325,-99.8046 409.5,-76 404.867,-75.5943 400.081,-75.1313 395.269,-74.6343"/>
<polygon fill="midnightblue" stroke="midnightblue" points="1139.86,-122.316 1149.99,-119.197 1140.13,-115.321 1139.86,-122.316"/>
</g>
<!-- Node2&#45;&gt;Node8 -->
<g id="edge25" class="edge"><title>Node2&#45;&gt;Node8</title>
<path fill="none" stroke="midnightblue" d="M1139.65,-119.633C964.031,-115.395 467.264,-101.218 443.5,-76 423.564,-54.8433 464.227,-31.6828 490.856,-19.5334"/>
<polygon fill="midnightblue" stroke="midnightblue" points="1139.68,-123.135 1149.76,-119.875 1139.84,-116.137 1139.68,-123.135"/>
</g>
<!-- Node9 -->
<g id="node9" class="node"><title>Node9</title>
<g id="a_node9"><a xlink:href="status__bar_8hpp.html" target="_top" xlink:title="Status bar class. ">
<polygon fill="white" stroke="black" points="452,-56.5 452,-75.5 571,-75.5 571,-56.5 452,-56.5"/>
<text text-anchor="middle" x="511.5" y="-63.5" font-family="Helvetica,sans-Serif" font-size="10.00">boost/ui/status_bar.hpp</text>
</a>
</g>
</g>
<!-- Node2&#45;&gt;Node9 -->
<g id="edge8" class="edge"><title>Node2&#45;&gt;Node9</title>
<path fill="none" stroke="midnightblue" d="M1139.77,-117.749C1028.62,-111.542 785.097,-96.751 580.5,-76 577.495,-75.6952 574.419,-75.3642 571.315,-75.0149"/>
<polygon fill="midnightblue" stroke="midnightblue" points="1139.61,-121.245 1149.78,-118.305 1139.99,-114.256 1139.61,-121.245"/>
</g>
<!-- Node10 -->
<g id="node10" class="node"><title>Node10</title>
<g id="a_node10"><a xlink:href="slider_8hpp.html" target="_top" xlink:title="Slider widget. ">
<polygon fill="white" stroke="black" points="589.5,-56.5 589.5,-75.5 685.5,-75.5 685.5,-56.5 589.5,-56.5"/>
<text text-anchor="middle" x="637.5" y="-63.5" font-family="Helvetica,sans-Serif" font-size="10.00">boost/ui/slider.hpp</text>
</a>
</g>
</g>
<!-- Node2&#45;&gt;Node10 -->
<g id="edge10" class="edge"><title>Node2&#45;&gt;Node10</title>
<path fill="none" stroke="midnightblue" d="M1139.86,-116.877C1044.91,-110.134 855.462,-95.5169 695.5,-76 692.263,-75.6051 688.929,-75.1683 685.573,-74.7062"/>
<polygon fill="midnightblue" stroke="midnightblue" points="1139.63,-120.37 1149.85,-117.583 1140.12,-113.387 1139.63,-120.37"/>
</g>
<!-- Node11 -->
<g id="node11" class="node"><title>Node11</title>
<g id="a_node11"><a xlink:href="progress__bar_8hpp.html" target="_top" xlink:title="Progress bar widget. ">
<polygon fill="white" stroke="black" points="704,-56.5 704,-75.5 833,-75.5 833,-56.5 704,-56.5"/>
<text text-anchor="middle" x="768.5" y="-63.5" font-family="Helvetica,sans-Serif" font-size="10.00">boost/ui/progress_bar.hpp</text>
</a>
</g>
</g>
<!-- Node2&#45;&gt;Node11 -->
<g id="edge11" class="edge"><title>Node2&#45;&gt;Node11</title>
<path fill="none" stroke="midnightblue" d="M1139.63,-113.391C1058.63,-103.267 916.04,-85.4425 833.17,-75.0838"/>
<polygon fill="midnightblue" stroke="midnightblue" points="1139.32,-116.879 1149.67,-114.647 1140.19,-109.933 1139.32,-116.879"/>
</g>
<!-- Node12 -->
<g id="node12" class="node"><title>Node12</title>
<g id="a_node12"><a xlink:href="panel_8hpp.html" target="_top" xlink:title="Panel widget. ">
<polygon fill="white" stroke="black" points="851.5,-56.5 851.5,-75.5 947.5,-75.5 947.5,-56.5 851.5,-56.5"/>
<text text-anchor="middle" x="899.5" y="-63.5" font-family="Helvetica,sans-Serif" font-size="10.00">boost/ui/panel.hpp</text>
</a>
</g>
</g>
<!-- Node2&#45;&gt;Node12 -->
<g id="edge12" class="edge"><title>Node2&#45;&gt;Node12</title>
<path fill="none" stroke="midnightblue" d="M1142.89,-110.664C1086,-100.459 1000.05,-85.0386 946.971,-75.5164"/>
<polygon fill="midnightblue" stroke="midnightblue" points="1142.34,-114.123 1152.81,-112.444 1143.58,-107.233 1142.34,-114.123"/>
</g>
<!-- Node13 -->
<g id="node13" class="node"><title>Node13</title>
<g id="a_node13"><a xlink:href="notebook_8hpp.html" target="_top" xlink:title="Notebook widget. ">
<polygon fill="white" stroke="black" points="966,-56.5 966,-75.5 1079,-75.5 1079,-56.5 966,-56.5"/>
<text text-anchor="middle" x="1022.5" y="-63.5" font-family="Helvetica,sans-Serif" font-size="10.00">boost/ui/notebook.hpp</text>
</a>
</g>
</g>
<!-- Node2&#45;&gt;Node13 -->
<g id="edge13" class="edge"><title>Node2&#45;&gt;Node13</title>
<path fill="none" stroke="midnightblue" d="M1162.38,-109.436C1128.82,-99.2551 1080.73,-84.664 1050.57,-75.5164"/>
<polygon fill="midnightblue" stroke="midnightblue" points="1161.71,-112.89 1172.3,-112.444 1163.74,-106.191 1161.71,-112.89"/>
</g>
<!-- Node14 -->
<g id="node14" class="node"><title>Node14</title>
<g id="a_node14"><a xlink:href="menu_8hpp.html" target="_top" xlink:title="Menu classes. ">
<polygon fill="white" stroke="black" points="1097,-56.5 1097,-75.5 1194,-75.5 1194,-56.5 1097,-56.5"/>
<text text-anchor="middle" x="1145.5" y="-63.5" font-family="Helvetica,sans-Serif" font-size="10.00">boost/ui/menu.hpp</text>
</a>
</g>
</g>
<!-- Node2&#45;&gt;Node14 -->
<g id="edge14" class="edge"><title>Node2&#45;&gt;Node14</title>
<path fill="none" stroke="midnightblue" d="M1184.21,-105.002C1174.46,-95.4329 1162.45,-83.6389 1154.41,-75.7511"/>
<polygon fill="midnightblue" stroke="midnightblue" points="1181.83,-107.575 1191.42,-112.083 1186.73,-102.58 1181.83,-107.575"/>
</g>
<!-- Node15 -->
<g id="node15" class="node"><title>Node15</title>
<g id="a_node15"><a xlink:href="line_8hpp.html" target="_top" xlink:title="line widget ">
<polygon fill="white" stroke="black" points="1211.5,-56.5 1211.5,-75.5 1299.5,-75.5 1299.5,-56.5 1211.5,-56.5"/>
<text text-anchor="middle" x="1255.5" y="-63.5" font-family="Helvetica,sans-Serif" font-size="10.00">boost/ui/line.hpp</text>
</a>
</g>
</g>
<!-- Node2&#45;&gt;Node15 -->
<g id="edge16" class="edge"><title>Node2&#45;&gt;Node15</title>
<path fill="none" stroke="midnightblue" d="M1216.79,-105.002C1226.54,-95.4329 1238.55,-83.6389 1246.59,-75.7511"/>
<polygon fill="midnightblue" stroke="midnightblue" points="1214.27,-102.58 1209.58,-112.083 1219.17,-107.575 1214.27,-102.58"/>
</g>
<!-- Node16 -->
<g id="node16" class="node"><title>Node16</title>
<g id="a_node16"><a xlink:href="label_8hpp.html" target="_top" xlink:title="Label widget. ">
<polygon fill="white" stroke="black" points="1317,-56.5 1317,-75.5 1410,-75.5 1410,-56.5 1317,-56.5"/>
<text text-anchor="middle" x="1363.5" y="-63.5" font-family="Helvetica,sans-Serif" font-size="10.00">boost/ui/label.hpp</text>
</a>
</g>
</g>
<!-- Node2&#45;&gt;Node16 -->
<g id="edge17" class="edge"><title>Node2&#45;&gt;Node16</title>
<path fill="none" stroke="midnightblue" d="M1236.2,-109.172C1266.9,-99.0039 1310.42,-84.5852 1337.79,-75.5164"/>
<polygon fill="midnightblue" stroke="midnightblue" points="1234.72,-105.976 1226.33,-112.444 1236.92,-112.621 1234.72,-105.976"/>
</g>
<!-- Node17 -->
<g id="node17" class="node"><title>Node17</title>
<g id="a_node17"><a xlink:href="image__widget_8hpp.html" target="_top" xlink:title="Image widget. ">
<polygon fill="white" stroke="black" points="1428,-56.5 1428,-75.5 1561,-75.5 1561,-56.5 1428,-56.5"/>
<text text-anchor="middle" x="1494.5" y="-63.5" font-family="Helvetica,sans-Serif" font-size="10.00">boost/ui/image_widget.hpp</text>
</a>
</g>
</g>
<!-- Node2&#45;&gt;Node17 -->
<g id="edge18" class="edge"><title>Node2&#45;&gt;Node17</title>
<path fill="none" stroke="midnightblue" d="M1257.12,-110.601C1312.68,-100.395 1396.4,-85.0189 1448.13,-75.5164"/>
<polygon fill="midnightblue" stroke="midnightblue" points="1256.29,-107.195 1247.09,-112.444 1257.55,-114.079 1256.29,-107.195"/>
</g>
<!-- Node18 -->
<g id="node18" class="node"><title>Node18</title>
<g id="a_node18"><a xlink:href="hyperlink_8hpp.html" target="_top" xlink:title="Hyperlink widget. ">
<polygon fill="white" stroke="black" points="1579.5,-56.5 1579.5,-75.5 1691.5,-75.5 1691.5,-56.5 1579.5,-56.5"/>
<text text-anchor="middle" x="1635.5" y="-63.5" font-family="Helvetica,sans-Serif" font-size="10.00">boost/ui/hyperlink.hpp</text>
</a>
</g>
</g>
<!-- Node2&#45;&gt;Node18 -->
<g id="edge19" class="edge"><title>Node2&#45;&gt;Node18</title>
<path fill="none" stroke="midnightblue" d="M1261.08,-113.944C1334.4,-105.333 1461.56,-90.1653 1570.5,-76 1573.44,-75.6181 1576.45,-75.2209 1579.49,-74.8155"/>
<polygon fill="midnightblue" stroke="midnightblue" points="1260.63,-110.473 1251.1,-115.114 1261.44,-117.425 1260.63,-110.473"/>
</g>
<!-- Node19 -->
<g id="node19" class="node"><title>Node19</title>
<g id="a_node19"><a xlink:href="group__box_8hpp.html" target="_top" xlink:title="Group box widget. ">
<polygon fill="white" stroke="black" points="1709.5,-56.5 1709.5,-75.5 1827.5,-75.5 1827.5,-56.5 1709.5,-56.5"/>
<text text-anchor="middle" x="1768.5" y="-63.5" font-family="Helvetica,sans-Serif" font-size="10.00">boost/ui/group_box.hpp</text>
</a>
</g>
</g>
<!-- Node2&#45;&gt;Node19 -->
<g id="edge20" class="edge"><title>Node2&#45;&gt;Node19</title>
<path fill="none" stroke="midnightblue" d="M1261.52,-116.335C1355.8,-108.942 1542.49,-93.5593 1700.5,-76 1703.34,-75.6843 1706.25,-75.3488 1709.18,-74.9998"/>
<polygon fill="midnightblue" stroke="midnightblue" points="1261.01,-112.864 1251.32,-117.133 1261.56,-119.843 1261.01,-112.864"/>
</g>
<!-- Node20 -->
<g id="node20" class="node"><title>Node20</title>
<g id="a_node20"><a xlink:href="datetime_8hpp.html" target="_top" xlink:title="Date and time pickers. ">
<polygon fill="white" stroke="black" points="1845.5,-56.5 1845.5,-75.5 1955.5,-75.5 1955.5,-56.5 1845.5,-56.5"/>
<text text-anchor="middle" x="1900.5" y="-63.5" font-family="Helvetica,sans-Serif" font-size="10.00">boost/ui/datetime.hpp</text>
</a>
</g>
</g>
<!-- Node2&#45;&gt;Node20 -->
<g id="edge21" class="edge"><title>Node2&#45;&gt;Node20</title>
<path fill="none" stroke="midnightblue" d="M1261.52,-118.088C1374.97,-112.362 1625.94,-98.2274 1836.5,-76 1839.4,-75.6937 1842.37,-75.3569 1845.37,-74.9987"/>
<polygon fill="midnightblue" stroke="midnightblue" points="1261.12,-114.603 1251.31,-118.599 1261.47,-121.595 1261.12,-114.603"/>
</g>
<!-- Node21 -->
<g id="node21" class="node"><title>Node21</title>
<g id="a_node21"><a xlink:href="check__box_8hpp.html" target="_top" xlink:title="Check box widget. ">
<polygon fill="white" stroke="black" points="1973.5,-56.5 1973.5,-75.5 2093.5,-75.5 2093.5,-56.5 1973.5,-56.5"/>
<text text-anchor="middle" x="2033.5" y="-63.5" font-family="Helvetica,sans-Serif" font-size="10.00">boost/ui/check_box.hpp</text>
</a>
</g>
</g>
<!-- Node2&#45;&gt;Node21 -->
<g id="edge22" class="edge"><title>Node2&#45;&gt;Node21</title>
<path fill="none" stroke="midnightblue" d="M1261.21,-118.887C1390.68,-114.059 1703.38,-100.689 1964.5,-76 1967.39,-75.7271 1970.34,-75.4262 1973.32,-75.1051"/>
<polygon fill="midnightblue" stroke="midnightblue" points="1260.97,-115.393 1251.1,-119.26 1261.23,-122.389 1260.97,-115.393"/>
</g>
<!-- Node22 -->
<g id="node22" class="node"><title>Node22</title>
<g id="a_node22"><a xlink:href="canvas_8hpp.html" target="_top" xlink:title="Canvas widget. ">
<polygon fill="white" stroke="black" points="2111.5,-56.5 2111.5,-75.5 2215.5,-75.5 2215.5,-56.5 2111.5,-56.5"/>
<text text-anchor="middle" x="2163.5" y="-63.5" font-family="Helvetica,sans-Serif" font-size="10.00">boost/ui/canvas.hpp</text>
</a>
</g>
</g>
<!-- Node2&#45;&gt;Node22 -->
<g id="edge23" class="edge"><title>Node2&#45;&gt;Node22</title>
<path fill="none" stroke="midnightblue" d="M1261.58,-119.988C1407.37,-117.128 1787.07,-107.064 2102.5,-76 2105.38,-75.7167 2108.32,-75.3931 2111.3,-75.0408"/>
<polygon fill="midnightblue" stroke="midnightblue" points="1261.42,-116.49 1251.49,-120.181 1261.55,-123.489 1261.42,-116.49"/>
</g>
<!-- Node23 -->
<g id="node23" class="node"><title>Node23</title>
<g id="a_node23"><a xlink:href="button_8hpp.html" target="_top" xlink:title="Button widget. ">
<polygon fill="white" stroke="black" points="2233.5,-56.5 2233.5,-75.5 2333.5,-75.5 2333.5,-56.5 2233.5,-56.5"/>
<text text-anchor="middle" x="2283.5" y="-63.5" font-family="Helvetica,sans-Serif" font-size="10.00">boost/ui/button.hpp</text>
</a>
</g>
</g>
<!-- Node2&#45;&gt;Node23 -->
<g id="edge24" class="edge"><title>Node2&#45;&gt;Node23</title>
<path fill="none" stroke="midnightblue" d="M1261.29,-120.605C1420.07,-119.079 1860.14,-111.692 2224.5,-76 2227.39,-75.7172 2230.35,-75.3885 2233.33,-75.0275"/>
<polygon fill="midnightblue" stroke="midnightblue" points="1261.21,-117.105 1251.25,-120.697 1261.28,-124.105 1261.21,-117.105"/>
</g>
<!-- Node6 -->
<g id="node6" class="node"><title>Node6</title>
<g id="a_node6"><a xlink:href="combo__box_8hpp.html" target="_top" xlink:title="Combo box widget. ">
<polygon fill="white" stroke="black" points="179,-0.5 179,-19.5 302,-19.5 302,-0.5 179,-0.5"/>
<text text-anchor="middle" x="240.5" y="-7.5" font-family="Helvetica,sans-Serif" font-size="10.00">boost/ui/combo_box.hpp</text>
</a>
</g>
</g>
<!-- Node5&#45;&gt;Node6 -->
<g id="edge5" class="edge"><title>Node5&#45;&gt;Node6</title>
<path fill="none" stroke="midnightblue" d="M309.694,-51.1774C292.581,-41.2407 270.035,-28.1492 255.405,-19.6545"/>
<polygon fill="midnightblue" stroke="midnightblue" points="308.153,-54.3293 318.558,-56.324 311.668,-48.2758 308.153,-54.3293"/>
</g>
<!-- Node7 -->
<g id="node7" class="node"><title>Node7</title>
<g id="a_node7"><a xlink:href="choice_8hpp.html" target="_top" xlink:title="Choice widget. ">
<polygon fill="white" stroke="black" points="320,-0.5 320,-19.5 421,-19.5 421,-0.5 320,-0.5"/>
<text text-anchor="middle" x="370.5" y="-7.5" font-family="Helvetica,sans-Serif" font-size="10.00">boost/ui/choice.hpp</text>
</a>
</g>
</g>
<!-- Node5&#45;&gt;Node7 -->
<g id="edge6" class="edge"><title>Node5&#45;&gt;Node7</title>
<path fill="none" stroke="midnightblue" d="M345.446,-47.5656C351.812,-38.2747 359.367,-27.2484 364.504,-19.7511"/>
<polygon fill="midnightblue" stroke="midnightblue" points="342.375,-45.8553 339.61,-56.083 348.149,-49.812 342.375,-45.8553"/>
</g>
<!-- Node5&#45;&gt;Node8 -->
<g id="edge7" class="edge"><title>Node5&#45;&gt;Node8</title>
<path fill="none" stroke="midnightblue" d="M371.617,-53.4363C405.178,-43.2551 453.274,-28.664 483.427,-19.5164"/>
<polygon fill="midnightblue" stroke="midnightblue" points="370.258,-50.1911 361.705,-56.4435 372.29,-56.8897 370.258,-50.1911"/>
</g>
<!-- Node9&#45;&gt;Node8 -->
<g id="edge9" class="edge"><title>Node9&#45;&gt;Node8</title>
<path fill="none" stroke="midnightblue" d="M511.5,-45.8045C511.5,-36.9102 511.5,-26.7798 511.5,-19.7511"/>
<polygon fill="midnightblue" stroke="midnightblue" points="508,-46.083 511.5,-56.083 515,-46.083 508,-46.083"/>
</g>
<!-- Node14&#45;&gt;Node8 -->
<g id="edge15" class="edge"><title>Node14&#45;&gt;Node8</title>
<path fill="none" stroke="midnightblue" d="M1086.72,-55.8686C876.255,-31.4644 635.581,-17.4713 546.719,-12.7782"/>
<polygon fill="midnightblue" stroke="midnightblue" points="1086.38,-59.3526 1096.72,-57.0386 1087.19,-52.4 1086.38,-59.3526"/>
</g>
</g>
</svg>
