<?xml version="1.0" encoding="UTF-8" standalone="no"?>
<!DOCTYPE svg PUBLIC "-//W3C//DTD SVG 1.1//EN"
 "http://www.w3.org/Graphics/SVG/1.1/DTD/svg11.dtd">
<!-- Generated by graphviz version 2.38.0 (20140413.2041)
 -->
<!-- Title: boost/ui/layout.hpp Pages: 1 -->
<svg width="2221pt" height="196pt"
 viewBox="0.00 0.00 2221.02 196.00" xmlns="http://www.w3.org/2000/svg" xmlns:xlink="http://www.w3.org/1999/xlink">
<g id="graph0" class="graph" transform="scale(1 1) rotate(0) translate(4 192)">
<title>boost/ui/layout.hpp</title>
<polygon fill="white" stroke="none" points="-4,4 -4,-192 2217.02,-192 2217.02,4 -4,4"/>
<!-- Node1 -->
<g id="node1" class="node"><title>Node1</title>
<polygon fill="#bfbfbf" stroke="black" points="1621,-168.5 1621,-187.5 1720,-187.5 1720,-168.5 1621,-168.5"/>
<text text-anchor="middle" x="1670.5" y="-175.5" font-family="Helvetica,sans-Serif" font-size="10.00">boost/ui/layout.hpp</text>
</g>
<!-- Node2 -->
<g id="node2" class="node"><title>Node2</title>
<g id="a_node2"><a xlink:href="widget_8hpp.html" target="_top" xlink:title="Widget class. ">
<polygon fill="white" stroke="black" points="1067,-112.5 1067,-131.5 1168,-131.5 1168,-112.5 1067,-112.5"/>
<text text-anchor="middle" x="1117.5" y="-119.5" font-family="Helvetica,sans-Serif" font-size="10.00">boost/ui/widget.hpp</text>
</a>
</g>
</g>
<!-- Node1&#45;&gt;Node2 -->
<g id="edge1" class="edge"><title>Node1&#45;&gt;Node2</title>
<path fill="none" stroke="midnightblue" d="M1610.74,-171.164C1501.34,-160.482 1270.75,-137.965 1168.35,-127.965"/>
<polygon fill="midnightblue" stroke="midnightblue" points="1610.65,-174.672 1620.94,-172.16 1611.33,-167.705 1610.65,-174.672"/>
</g>
<!-- Node8 -->
<g id="node8" class="node"><title>Node8</title>
<g id="a_node8"><a xlink:href="ui_8hpp.html" target="_top" xlink:title="Master Boost.UI file. ">
<polygon fill="white" stroke="black" points="402.5,-0.5 402.5,-19.5 472.5,-19.5 472.5,-0.5 402.5,-0.5"/>
<text text-anchor="middle" x="437.5" y="-7.5" font-family="Helvetica,sans-Serif" font-size="10.00">boost/ui.hpp</text>
</a>
</g>
</g>
<!-- Node1&#45;&gt;Node8 -->
<g id="edge23" class="edge"><title>Node1&#45;&gt;Node8</title>
<path fill="none" stroke="midnightblue" d="M1730.35,-173.061C1883.52,-161.911 2273.01,-126.281 2204.5,-56 2173.12,-23.8123 718.116,-12.8435 472.524,-11.22"/>
<polygon fill="midnightblue" stroke="midnightblue" points="1729.9,-169.585 1720.17,-173.791 1730.4,-176.567 1729.9,-169.585"/>
</g>
<!-- Node3 -->
<g id="node3" class="node"><title>Node3</title>
<g id="a_node3"><a xlink:href="web__widget_8hpp.html" target="_top" xlink:title="Web widget. ">
<polygon fill="white" stroke="black" points="0,-56.5 0,-75.5 125,-75.5 125,-56.5 0,-56.5"/>
<text text-anchor="middle" x="62.5" y="-63.5" font-family="Helvetica,sans-Serif" font-size="10.00">boost/ui/web_widget.hpp</text>
</a>
</g>
</g>
<!-- Node2&#45;&gt;Node3 -->
<g id="edge2" class="edge"><title>Node2&#45;&gt;Node3</title>
<path fill="none" stroke="midnightblue" d="M1056.54,-119.875C902.04,-116.662 482.687,-105.685 134.5,-76 131.488,-75.7432 128.407,-75.4554 125.298,-75.1447"/>
<polygon fill="midnightblue" stroke="midnightblue" points="1056.69,-123.379 1066.76,-120.084 1056.84,-116.38 1056.69,-123.379"/>
</g>
<!-- Node4 -->
<g id="node4" class="node"><title>Node4</title>
<g id="a_node4"><a xlink:href="text__box_8hpp.html" target="_top" xlink:title="Text editor widgets. ">
<polygon fill="white" stroke="black" points="143.5,-56.5 143.5,-75.5 253.5,-75.5 253.5,-56.5 143.5,-56.5"/>
<text text-anchor="middle" x="198.5" y="-63.5" font-family="Helvetica,sans-Serif" font-size="10.00">boost/ui/text_box.hpp</text>
</a>
</g>
</g>
<!-- Node2&#45;&gt;Node4 -->
<g id="edge3" class="edge"><title>Node2&#45;&gt;Node4</title>
<path fill="none" stroke="midnightblue" d="M1056.75,-119.571C916.645,-115.888 560.171,-104.303 263.5,-76 260.325,-75.6971 257.066,-75.3527 253.781,-74.9796"/>
<polygon fill="midnightblue" stroke="midnightblue" points="1056.77,-123.072 1066.85,-119.833 1056.95,-116.075 1056.77,-123.072"/>
</g>
<!-- Node5 -->
<g id="node5" class="node"><title>Node5</title>
<g id="a_node5"><a xlink:href="strings__box_8hpp.html" target="_top" xlink:title="Widget with array of strings. ">
<polygon fill="white" stroke="black" points="272,-56.5 272,-75.5 395,-75.5 395,-56.5 272,-56.5"/>
<text text-anchor="middle" x="333.5" y="-63.5" font-family="Helvetica,sans-Serif" font-size="10.00">boost/ui/strings_box.hpp</text>
</a>
</g>
</g>
<!-- Node2&#45;&gt;Node5 -->
<g id="edge4" class="edge"><title>Node2&#45;&gt;Node5</title>
<path fill="none" stroke="midnightblue" d="M1056.47,-118.241C933.757,-112.447 648.466,-97.7273 409.5,-76 404.869,-75.5789 400.083,-75.1047 395.272,-74.5999"/>
<polygon fill="midnightblue" stroke="midnightblue" points="1056.62,-121.752 1066.78,-118.725 1056.95,-114.76 1056.62,-121.752"/>
</g>
<!-- Node2&#45;&gt;Node8 -->
<g id="edge22" class="edge"><title>Node2&#45;&gt;Node8</title>
<path fill="none" stroke="midnightblue" d="M1056.87,-121.386C899.212,-121.782 485.636,-118.698 442.5,-76 427.539,-61.1904 431.678,-33.588 435.061,-19.6001"/>
<polygon fill="midnightblue" stroke="midnightblue" points="1056.89,-124.886 1066.87,-121.356 1056.86,-117.886 1056.89,-124.886"/>
</g>
<!-- Node9 -->
<g id="node9" class="node"><title>Node9</title>
<g id="a_node9"><a xlink:href="slider_8hpp.html" target="_top" xlink:title="Slider widget. ">
<polygon fill="white" stroke="black" points="451.5,-56.5 451.5,-75.5 547.5,-75.5 547.5,-56.5 451.5,-56.5"/>
<text text-anchor="middle" x="499.5" y="-63.5" font-family="Helvetica,sans-Serif" font-size="10.00">boost/ui/slider.hpp</text>
</a>
</g>
</g>
<!-- Node2&#45;&gt;Node9 -->
<g id="edge8" class="edge"><title>Node2&#45;&gt;Node9</title>
<path fill="none" stroke="midnightblue" d="M1056.59,-117.581C953.572,-111.47 738.482,-97.2839 557.5,-76 554.262,-75.6191 550.926,-75.1929 547.569,-74.7385"/>
<polygon fill="midnightblue" stroke="midnightblue" points="1056.61,-121.089 1066.8,-118.182 1057.02,-114.101 1056.61,-121.089"/>
</g>
<!-- Node10 -->
<g id="node10" class="node"><title>Node10</title>
<g id="a_node10"><a xlink:href="progress__bar_8hpp.html" target="_top" xlink:title="Progress bar widget. ">
<polygon fill="white" stroke="black" points="566,-56.5 566,-75.5 695,-75.5 695,-56.5 566,-56.5"/>
<text text-anchor="middle" x="630.5" y="-63.5" font-family="Helvetica,sans-Serif" font-size="10.00">boost/ui/progress_bar.hpp</text>
</a>
</g>
</g>
<!-- Node2&#45;&gt;Node10 -->
<g id="edge9" class="edge"><title>Node2&#45;&gt;Node10</title>
<path fill="none" stroke="midnightblue" d="M1056.97,-114.644C976.465,-106.136 829.728,-90.437 704.5,-76 701.414,-75.6443 698.257,-75.2761 695.068,-74.9011"/>
<polygon fill="midnightblue" stroke="midnightblue" points="1056.62,-118.127 1066.93,-115.696 1057.36,-111.165 1056.62,-118.127"/>
</g>
<!-- Node11 -->
<g id="node11" class="node"><title>Node11</title>
<g id="a_node11"><a xlink:href="panel_8hpp.html" target="_top" xlink:title="Panel widget. ">
<polygon fill="white" stroke="black" points="713.5,-56.5 713.5,-75.5 809.5,-75.5 809.5,-56.5 713.5,-56.5"/>
<text text-anchor="middle" x="761.5" y="-63.5" font-family="Helvetica,sans-Serif" font-size="10.00">boost/ui/panel.hpp</text>
</a>
</g>
</g>
<!-- Node2&#45;&gt;Node11 -->
<g id="edge10" class="edge"><title>Node2&#45;&gt;Node11</title>
<path fill="none" stroke="midnightblue" d="M1056.78,-111.904C996.55,-102.866 901.638,-88.5744 819.5,-76 816.277,-75.5066 812.953,-74.9959 809.604,-74.4799"/>
<polygon fill="midnightblue" stroke="midnightblue" points="1056.46,-115.396 1066.87,-113.419 1057.5,-108.474 1056.46,-115.396"/>
</g>
<!-- Node12 -->
<g id="node12" class="node"><title>Node12</title>
<g id="a_node12"><a xlink:href="notebook_8hpp.html" target="_top" xlink:title="Notebook widget. ">
<polygon fill="white" stroke="black" points="828,-56.5 828,-75.5 941,-75.5 941,-56.5 828,-56.5"/>
<text text-anchor="middle" x="884.5" y="-63.5" font-family="Helvetica,sans-Serif" font-size="10.00">boost/ui/notebook.hpp</text>
</a>
</g>
</g>
<!-- Node2&#45;&gt;Node12 -->
<g id="edge11" class="edge"><title>Node2&#45;&gt;Node12</title>
<path fill="none" stroke="midnightblue" d="M1070.7,-110.153C1026.67,-99.95 961.653,-84.8809 921.247,-75.5164"/>
<polygon fill="midnightblue" stroke="midnightblue" points="1070.05,-113.595 1080.58,-112.444 1071.63,-106.776 1070.05,-113.595"/>
</g>
<!-- Node13 -->
<g id="node13" class="node"><title>Node13</title>
<g id="a_node13"><a xlink:href="menu_8hpp.html" target="_top" xlink:title="Menu classes. ">
<polygon fill="white" stroke="black" points="959,-56.5 959,-75.5 1056,-75.5 1056,-56.5 959,-56.5"/>
<text text-anchor="middle" x="1007.5" y="-63.5" font-family="Helvetica,sans-Serif" font-size="10.00">boost/ui/menu.hpp</text>
</a>
</g>
</g>
<!-- Node2&#45;&gt;Node13 -->
<g id="edge12" class="edge"><title>Node2&#45;&gt;Node13</title>
<path fill="none" stroke="midnightblue" d="M1090.74,-107.862C1070.34,-97.8492 1042.83,-84.3458 1025.13,-75.6545"/>
<polygon fill="midnightblue" stroke="midnightblue" points="1089.31,-111.059 1099.83,-112.324 1092.39,-104.775 1089.31,-111.059"/>
</g>
<!-- Node14 -->
<g id="node14" class="node"><title>Node14</title>
<g id="a_node14"><a xlink:href="line_8hpp.html" target="_top" xlink:title="line widget ">
<polygon fill="white" stroke="black" points="1073.5,-56.5 1073.5,-75.5 1161.5,-75.5 1161.5,-56.5 1073.5,-56.5"/>
<text text-anchor="middle" x="1117.5" y="-63.5" font-family="Helvetica,sans-Serif" font-size="10.00">boost/ui/line.hpp</text>
</a>
</g>
</g>
<!-- Node2&#45;&gt;Node14 -->
<g id="edge13" class="edge"><title>Node2&#45;&gt;Node14</title>
<path fill="none" stroke="midnightblue" d="M1117.5,-101.805C1117.5,-92.9102 1117.5,-82.7798 1117.5,-75.7511"/>
<polygon fill="midnightblue" stroke="midnightblue" points="1114,-102.083 1117.5,-112.083 1121,-102.083 1114,-102.083"/>
</g>
<!-- Node15 -->
<g id="node15" class="node"><title>Node15</title>
<g id="a_node15"><a xlink:href="label_8hpp.html" target="_top" xlink:title="Label widget. ">
<polygon fill="white" stroke="black" points="1179,-56.5 1179,-75.5 1272,-75.5 1272,-56.5 1179,-56.5"/>
<text text-anchor="middle" x="1225.5" y="-63.5" font-family="Helvetica,sans-Serif" font-size="10.00">boost/ui/label.hpp</text>
</a>
</g>
</g>
<!-- Node2&#45;&gt;Node15 -->
<g id="edge14" class="edge"><title>Node2&#45;&gt;Node15</title>
<path fill="none" stroke="midnightblue" d="M1144.05,-107.726C1164.05,-97.7271 1190.89,-84.3065 1208.19,-75.6545"/>
<polygon fill="midnightblue" stroke="midnightblue" points="1142.23,-104.721 1134.85,-112.324 1145.36,-110.982 1142.23,-104.721"/>
</g>
<!-- Node16 -->
<g id="node16" class="node"><title>Node16</title>
<g id="a_node16"><a xlink:href="image__widget_8hpp.html" target="_top" xlink:title="Image widget. ">
<polygon fill="white" stroke="black" points="1290,-56.5 1290,-75.5 1423,-75.5 1423,-56.5 1290,-56.5"/>
<text text-anchor="middle" x="1356.5" y="-63.5" font-family="Helvetica,sans-Serif" font-size="10.00">boost/ui/image_widget.hpp</text>
</a>
</g>
</g>
<!-- Node2&#45;&gt;Node16 -->
<g id="edge15" class="edge"><title>Node2&#45;&gt;Node16</title>
<path fill="none" stroke="midnightblue" d="M1165.22,-110.217C1210.39,-100.013 1277.27,-84.9006 1318.81,-75.5164"/>
<polygon fill="midnightblue" stroke="midnightblue" points="1164.35,-106.826 1155.37,-112.444 1165.9,-113.654 1164.35,-106.826"/>
</g>
<!-- Node17 -->
<g id="node17" class="node"><title>Node17</title>
<g id="a_node17"><a xlink:href="hyperlink_8hpp.html" target="_top" xlink:title="Hyperlink widget. ">
<polygon fill="white" stroke="black" points="1441.5,-56.5 1441.5,-75.5 1553.5,-75.5 1553.5,-56.5 1441.5,-56.5"/>
<text text-anchor="middle" x="1497.5" y="-63.5" font-family="Helvetica,sans-Serif" font-size="10.00">boost/ui/hyperlink.hpp</text>
</a>
</g>
</g>
<!-- Node2&#45;&gt;Node17 -->
<g id="edge16" class="edge"><title>Node2&#45;&gt;Node17</title>
<path fill="none" stroke="midnightblue" d="M1178.26,-112.366C1250.76,-102.063 1371,-84.9765 1441.39,-74.9739"/>
<polygon fill="midnightblue" stroke="midnightblue" points="1177.76,-108.901 1168.35,-113.773 1178.75,-115.832 1177.76,-108.901"/>
</g>
<!-- Node18 -->
<g id="node18" class="node"><title>Node18</title>
<g id="a_node18"><a xlink:href="group__box_8hpp.html" target="_top" xlink:title="Group box widget. ">
<polygon fill="white" stroke="black" points="1571.5,-56.5 1571.5,-75.5 1689.5,-75.5 1689.5,-56.5 1571.5,-56.5"/>
<text text-anchor="middle" x="1630.5" y="-63.5" font-family="Helvetica,sans-Serif" font-size="10.00">boost/ui/group_box.hpp</text>
</a>
</g>
</g>
<!-- Node2&#45;&gt;Node18 -->
<g id="edge17" class="edge"><title>Node2&#45;&gt;Node18</title>
<path fill="none" stroke="midnightblue" d="M1178.35,-115.445C1264.11,-107.48 1425.39,-92.0024 1562.5,-76 1565.34,-75.6687 1568.24,-75.3204 1571.18,-74.9612"/>
<polygon fill="midnightblue" stroke="midnightblue" points="1177.91,-111.971 1168.28,-116.379 1178.56,-118.941 1177.91,-111.971"/>
</g>
<!-- Node19 -->
<g id="node19" class="node"><title>Node19</title>
<g id="a_node19"><a xlink:href="datetime_8hpp.html" target="_top" xlink:title="Date and time pickers. ">
<polygon fill="white" stroke="black" points="1707.5,-56.5 1707.5,-75.5 1817.5,-75.5 1817.5,-56.5 1707.5,-56.5"/>
<text text-anchor="middle" x="1762.5" y="-63.5" font-family="Helvetica,sans-Serif" font-size="10.00">boost/ui/datetime.hpp</text>
</a>
</g>
</g>
<!-- Node2&#45;&gt;Node19 -->
<g id="edge18" class="edge"><title>Node2&#45;&gt;Node19</title>
<path fill="none" stroke="midnightblue" d="M1178.29,-117.545C1284.16,-111.247 1509.19,-96.6223 1698.5,-76 1701.4,-75.6841 1704.37,-75.3395 1707.37,-74.9753"/>
<polygon fill="midnightblue" stroke="midnightblue" points="1177.89,-114.062 1168.11,-118.146 1178.3,-121.05 1177.89,-114.062"/>
</g>
<!-- Node20 -->
<g id="node20" class="node"><title>Node20</title>
<g id="a_node20"><a xlink:href="check__box_8hpp.html" target="_top" xlink:title="Check box widget. ">
<polygon fill="white" stroke="black" points="1835.5,-56.5 1835.5,-75.5 1955.5,-75.5 1955.5,-56.5 1835.5,-56.5"/>
<text text-anchor="middle" x="1895.5" y="-63.5" font-family="Helvetica,sans-Serif" font-size="10.00">boost/ui/check_box.hpp</text>
</a>
</g>
</g>
<!-- Node2&#45;&gt;Node20 -->
<g id="edge19" class="edge"><title>Node2&#45;&gt;Node20</title>
<path fill="none" stroke="midnightblue" d="M1178.64,-118.487C1301.57,-113.133 1587.33,-99.1624 1826.5,-76 1829.39,-75.7205 1832.34,-75.4143 1835.32,-75.0889"/>
<polygon fill="midnightblue" stroke="midnightblue" points="1178.15,-115.005 1168.32,-118.933 1178.46,-121.998 1178.15,-115.005"/>
</g>
<!-- Node21 -->
<g id="node21" class="node"><title>Node21</title>
<g id="a_node21"><a xlink:href="canvas_8hpp.html" target="_top" xlink:title="Canvas widget. ">
<polygon fill="white" stroke="black" points="1973.5,-56.5 1973.5,-75.5 2077.5,-75.5 2077.5,-56.5 1973.5,-56.5"/>
<text text-anchor="middle" x="2025.5" y="-63.5" font-family="Helvetica,sans-Serif" font-size="10.00">boost/ui/canvas.hpp</text>
</a>
</g>
</g>
<!-- Node2&#45;&gt;Node21 -->
<g id="edge20" class="edge"><title>Node2&#45;&gt;Node21</title>
<path fill="none" stroke="midnightblue" d="M1178.28,-119.718C1317.62,-116.354 1670.75,-105.409 1964.5,-76 1967.38,-75.7121 1970.32,-75.3848 1973.3,-75.0296"/>
<polygon fill="midnightblue" stroke="midnightblue" points="1178.14,-116.22 1168.22,-119.957 1178.3,-123.218 1178.14,-116.22"/>
</g>
<!-- Node22 -->
<g id="node22" class="node"><title>Node22</title>
<g id="a_node22"><a xlink:href="button_8hpp.html" target="_top" xlink:title="Button widget. ">
<polygon fill="white" stroke="black" points="2095.5,-56.5 2095.5,-75.5 2195.5,-75.5 2195.5,-56.5 2095.5,-56.5"/>
<text text-anchor="middle" x="2145.5" y="-63.5" font-family="Helvetica,sans-Serif" font-size="10.00">boost/ui/button.hpp</text>
</a>
</g>
</g>
<!-- Node2&#45;&gt;Node22 -->
<g id="edge21" class="edge"><title>Node2&#45;&gt;Node22</title>
<path fill="none" stroke="midnightblue" d="M1178.19,-120.392C1331.05,-118.38 1744.11,-109.97 2086.5,-76 2089.39,-75.7136 2092.35,-75.3821 2095.33,-75.0189"/>
<polygon fill="midnightblue" stroke="midnightblue" points="1178.03,-116.894 1168.07,-120.521 1178.12,-123.893 1178.03,-116.894"/>
</g>
<!-- Node6 -->
<g id="node6" class="node"><title>Node6</title>
<g id="a_node6"><a xlink:href="combo__box_8hpp.html" target="_top" xlink:title="Combo box widget. ">
<polygon fill="white" stroke="black" points="142,-0.5 142,-19.5 265,-19.5 265,-0.5 142,-0.5"/>
<text text-anchor="middle" x="203.5" y="-7.5" font-family="Helvetica,sans-Serif" font-size="10.00">boost/ui/combo_box.hpp</text>
</a>
</g>
</g>
<!-- Node5&#45;&gt;Node6 -->
<g id="edge5" class="edge"><title>Node5&#45;&gt;Node6</title>
<path fill="none" stroke="midnightblue" d="M303.415,-52.503C279.043,-42.3795 245.36,-28.388 224.003,-19.5164"/>
<polygon fill="midnightblue" stroke="midnightblue" points="302.323,-55.8397 312.901,-56.4435 305.009,-49.3752 302.323,-55.8397"/>
</g>
<!-- Node7 -->
<g id="node7" class="node"><title>Node7</title>
<g id="a_node7"><a xlink:href="choice_8hpp.html" target="_top" xlink:title="Choice widget. ">
<polygon fill="white" stroke="black" points="283,-0.5 283,-19.5 384,-19.5 384,-0.5 283,-0.5"/>
<text text-anchor="middle" x="333.5" y="-7.5" font-family="Helvetica,sans-Serif" font-size="10.00">boost/ui/choice.hpp</text>
</a>
</g>
</g>
<!-- Node5&#45;&gt;Node7 -->
<g id="edge6" class="edge"><title>Node5&#45;&gt;Node7</title>
<path fill="none" stroke="midnightblue" d="M333.5,-45.8045C333.5,-36.9102 333.5,-26.7798 333.5,-19.7511"/>
<polygon fill="midnightblue" stroke="midnightblue" points="330,-46.083 333.5,-56.083 337,-46.083 330,-46.083"/>
</g>
<!-- Node5&#45;&gt;Node8 -->
<g id="edge7" class="edge"><title>Node5&#45;&gt;Node8</title>
<path fill="none" stroke="midnightblue" d="M359.328,-51.5895C378.557,-41.6052 404.245,-28.2672 420.832,-19.6545"/>
<polygon fill="midnightblue" stroke="midnightblue" points="357.471,-48.6095 350.209,-56.324 360.697,-54.822 357.471,-48.6095"/>
</g>
</g>
</svg>
