<?xml version="1.0" encoding="UTF-8" standalone="no"?>
<!DOCTYPE svg PUBLIC "-//W3C//DTD SVG 1.1//EN"
 "http://www.w3.org/Graphics/SVG/1.1/DTD/svg11.dtd">
<!-- Generated by graphviz version 2.38.0 (20140413.2041)
 -->
<!-- Title: boost/ui/line.hpp Pages: 1 -->
<svg width="4376pt" height="341pt"
 viewBox="0.00 0.00 4376.18 341.00" xmlns="http://www.w3.org/2000/svg" xmlns:xlink="http://www.w3.org/1999/xlink">
<g id="graph0" class="graph" transform="scale(1 1) rotate(0) translate(4 337)">
<title>boost/ui/line.hpp</title>
<polygon fill="white" stroke="none" points="-4,4 -4,-337 4372.18,-337 4372.18,4 -4,4"/>
<!-- Node1 -->
<g id="node1" class="node"><title>Node1</title>
<polygon fill="#bfbfbf" stroke="black" points="1520.5,-313.5 1520.5,-332.5 1608.5,-332.5 1608.5,-313.5 1520.5,-313.5"/>
<text text-anchor="middle" x="1564.5" y="-320.5" font-family="Helvetica,sans-Serif" font-size="10.00">boost/ui/line.hpp</text>
</g>
<!-- Node2 -->
<g id="node2" class="node"><title>Node2</title>
<g id="a_node2"><a xlink:href="config_8hpp.html" target="_top" xlink:title="Configuration options. ">
<polygon fill="white" stroke="black" points="1710,-62 1710,-81 1809,-81 1809,-62 1710,-62"/>
<text text-anchor="middle" x="1759.5" y="-69" font-family="Helvetica,sans-Serif" font-size="10.00">boost/ui/config.hpp</text>
</a>
</g>
</g>
<!-- Node1&#45;&gt;Node2 -->
<g id="edge1" class="edge"><title>Node1&#45;&gt;Node2</title>
<path fill="none" stroke="midnightblue" d="M1533.33,-313.468C1493.58,-300.721 1426.54,-272.503 1397.5,-221 1375.47,-181.939 1385.72,-150.035 1421.5,-123 1471.38,-85.3112 1639.05,-98.478 1700.5,-87 1706.01,-85.9711 1711.77,-84.7449 1717.45,-83.4474"/>
<polygon fill="midnightblue" stroke="midnightblue" points="1718.57,-86.7779 1727.49,-81.0624 1716.95,-79.9673 1718.57,-86.7779"/>
</g>
<!-- Node4 -->
<g id="node4" class="node"><title>Node4</title>
<g id="a_node4"><a xlink:href="widget_8hpp.html" target="_top" xlink:title="Widget class. ">
<polygon fill="white" stroke="red" points="1727,-257.5 1727,-276.5 1828,-276.5 1828,-257.5 1727,-257.5"/>
<text text-anchor="middle" x="1777.5" y="-264.5" font-family="Helvetica,sans-Serif" font-size="10.00">boost/ui/widget.hpp</text>
</a>
</g>
</g>
<!-- Node1&#45;&gt;Node4 -->
<g id="edge3" class="edge"><title>Node1&#45;&gt;Node4</title>
<path fill="none" stroke="midnightblue" d="M1598.25,-313.444C1635.02,-304.122 1693.95,-289.183 1734.12,-278.997"/>
<polygon fill="midnightblue" stroke="midnightblue" points="1735.07,-282.367 1743.91,-276.516 1733.35,-275.581 1735.07,-282.367"/>
</g>
<!-- Node3 -->
<g id="node3" class="node"><title>Node3</title>
<polygon fill="white" stroke="#bfbfbf" points="1715,-0.5 1715,-19.5 1804,-19.5 1804,-0.5 1715,-0.5"/>
<text text-anchor="middle" x="1759.5" y="-7.5" font-family="Helvetica,sans-Serif" font-size="10.00">boost/config.hpp</text>
</g>
<!-- Node2&#45;&gt;Node3 -->
<g id="edge2" class="edge"><title>Node2&#45;&gt;Node3</title>
<path fill="none" stroke="midnightblue" d="M1759.5,-61.9751C1759.5,-53.5803 1759.5,-40.4806 1759.5,-29.6631"/>
<polygon fill="midnightblue" stroke="midnightblue" points="1763,-29.5091 1759.5,-19.5091 1756,-29.5091 1763,-29.5091"/>
</g>
<!-- Node4&#45;&gt;Node2 -->
<g id="edge4" class="edge"><title>Node4&#45;&gt;Node2</title>
<path fill="none" stroke="midnightblue" d="M1726.9,-262.549C1670.25,-257.507 1583.69,-245.873 1563.5,-221 1490.58,-131.147 1648.6,-167.902 1690.5,-143 1713.85,-129.122 1734.76,-105.374 1747.28,-89.3168"/>
<polygon fill="midnightblue" stroke="midnightblue" points="1750.1,-91.3873 1753.34,-81.2986 1744.52,-87.1676 1750.1,-91.3873"/>
</g>
<!-- Node4&#45;&gt;Node3 -->
<g id="edge57" class="edge"><title>Node4&#45;&gt;Node3</title>
<path fill="none" stroke="midnightblue" d="M1828.06,-266.082C2182.59,-266.538 4283.03,-267.284 4328.5,-221 4425.82,-121.952 4331.48,-155.825 4175.5,-123 3702.95,-23.5537 2129.18,-12.3946 1814.53,-11.1538"/>
<polygon fill="midnightblue" stroke="midnightblue" points="1814.31,-7.65302 1804.3,-11.1152 1814.28,-14.653 1814.31,-7.65302"/>
</g>
<!-- Node5 -->
<g id="node5" class="node"><title>Node5</title>
<g id="a_node5"><a xlink:href="coord_8hpp.html" target="_top" xlink:title="Coordinates classes. ">
<polygon fill="white" stroke="red" points="959,-123.5 959,-142.5 1056,-142.5 1056,-123.5 959,-123.5"/>
<text text-anchor="middle" x="1007.5" y="-130.5" font-family="Helvetica,sans-Serif" font-size="10.00">boost/ui/coord.hpp</text>
</a>
</g>
</g>
<!-- Node4&#45;&gt;Node5 -->
<g id="edge5" class="edge"><title>Node4&#45;&gt;Node5</title>
<path fill="none" stroke="midnightblue" d="M1726.98,-265.208C1575.1,-262.491 1129.62,-251.942 1072.5,-221 1044.42,-205.789 1025.04,-172.62 1015.14,-151.915"/>
<polygon fill="midnightblue" stroke="midnightblue" points="1018.26,-150.302 1010.94,-142.636 1011.88,-153.189 1018.26,-150.302"/>
</g>
<!-- Node6 -->
<g id="node6" class="node"><title>Node6</title>
<polygon fill="white" stroke="#bfbfbf" points="0,-62 0,-81 49,-81 49,-62 0,-62"/>
<text text-anchor="middle" x="24.5" y="-69" font-family="Helvetica,sans-Serif" font-size="10.00">cstddef</text>
</g>
<!-- Node4&#45;&gt;Node6 -->
<g id="edge70" class="edge"><title>Node4&#45;&gt;Node6</title>
<path fill="none" stroke="midnightblue" d="M1726.68,-265.916C1481.55,-265.314 427.404,-260.438 286.5,-221 186.587,-193.035 84.1436,-119.196 43.1268,-87.4051"/>
<polygon fill="midnightblue" stroke="midnightblue" points="45.1438,-84.539 35.1154,-81.121 40.8235,-90.0467 45.1438,-84.539"/>
</g>
<!-- Node7 -->
<g id="node7" class="node"><title>Node7</title>
<polygon fill="white" stroke="#bfbfbf" points="67,-62 67,-81 156,-81 156,-62 67,-62"/>
<text text-anchor="middle" x="111.5" y="-69" font-family="Helvetica,sans-Serif" font-size="10.00">boost/assert.hpp</text>
</g>
<!-- Node4&#45;&gt;Node7 -->
<g id="edge65" class="edge"><title>Node4&#45;&gt;Node7</title>
<path fill="none" stroke="midnightblue" d="M1726.93,-265.694C1493.4,-264.098 525.089,-255.444 394.5,-221 287.59,-192.802 175.645,-118.525 131.282,-86.9904"/>
<polygon fill="midnightblue" stroke="midnightblue" points="133.262,-84.1035 123.099,-81.1105 129.177,-89.7882 133.262,-84.1035"/>
</g>
<!-- Node8 -->
<g id="node8" class="node"><title>Node8</title>
<polygon fill="white" stroke="#bfbfbf" points="174,-62 174,-81 313,-81 313,-62 174,-62"/>
<text text-anchor="middle" x="243.5" y="-69" font-family="Helvetica,sans-Serif" font-size="10.00">boost/detail/workaround.hpp</text>
</g>
<!-- Node4&#45;&gt;Node8 -->
<g id="edge51" class="edge"><title>Node4&#45;&gt;Node8</title>
<path fill="none" stroke="midnightblue" d="M1726.75,-265.721C1503.1,-264.288 611.277,-256.385 491.5,-221 396.195,-192.845 299.942,-119.393 261.234,-87.5673"/>
<polygon fill="midnightblue" stroke="midnightblue" points="263.388,-84.8069 253.464,-81.0983 258.909,-90.1865 263.388,-84.8069"/>
</g>
<!-- Node9 -->
<g id="node9" class="node"><title>Node9</title>
<polygon fill="white" stroke="#bfbfbf" points="331.5,-62 331.5,-81 387.5,-81 387.5,-62 331.5,-62"/>
<text text-anchor="middle" x="359.5" y="-69" font-family="Helvetica,sans-Serif" font-size="10.00">algorithm</text>
</g>
<!-- Node4&#45;&gt;Node9 -->
<g id="edge54" class="edge"><title>Node4&#45;&gt;Node9</title>
<path fill="none" stroke="midnightblue" d="M1726.93,-265.744C1513.05,-264.437 688.608,-257.085 578.5,-221 492.783,-192.909 409.716,-120.544 375.664,-88.3503"/>
<polygon fill="midnightblue" stroke="midnightblue" points="377.729,-85.4815 368.091,-81.0825 372.882,-90.532 377.729,-85.4815"/>
</g>
<!-- Node10 -->
<g id="node10" class="node"><title>Node10</title>
<polygon fill="white" stroke="#bfbfbf" points="405.5,-62 405.5,-81 457.5,-81 457.5,-62 405.5,-62"/>
<text text-anchor="middle" x="431.5" y="-69" font-family="Helvetica,sans-Serif" font-size="10.00">memory</text>
</g>
<!-- Node4&#45;&gt;Node10 -->
<g id="edge63" class="edge"><title>Node4&#45;&gt;Node10</title>
<path fill="none" stroke="midnightblue" d="M1726.87,-265.444C1523.75,-263.01 773.952,-251.99 672.5,-221 579.817,-192.688 486.925,-119.883 449.138,-87.9272"/>
<polygon fill="midnightblue" stroke="midnightblue" points="451.011,-84.9232 441.141,-81.0732 446.456,-90.2383 451.011,-84.9232"/>
</g>
<!-- Node11 -->
<g id="node11" class="node"><title>Node11</title>
<polygon fill="white" stroke="#bfbfbf" points="475.5,-56.5 475.5,-86.5 575.5,-86.5 575.5,-56.5 475.5,-56.5"/>
<text text-anchor="start" x="483.5" y="-74.5" font-family="Helvetica,sans-Serif" font-size="10.00">boost/preprocessor</text>
<text text-anchor="middle" x="525.5" y="-63.5" font-family="Helvetica,sans-Serif" font-size="10.00">/cat.hpp</text>
</g>
<!-- Node4&#45;&gt;Node11 -->
<g id="edge47" class="edge"><title>Node4&#45;&gt;Node11</title>
<path fill="none" stroke="midnightblue" d="M1727,-265.24C1535.27,-262.15 858.601,-249.324 766.5,-221 678.607,-193.97 590.451,-127.122 549.369,-93.1015"/>
<polygon fill="midnightblue" stroke="midnightblue" points="551.477,-90.3014 541.565,-86.5613 546.981,-95.6668 551.477,-90.3014"/>
</g>
<!-- Node12 -->
<g id="node12" class="node"><title>Node12</title>
<polygon fill="white" stroke="#bfbfbf" points="1574,-62 1574,-81 1633,-81 1633,-62 1574,-62"/>
<text text-anchor="middle" x="1603.5" y="-69" font-family="Helvetica,sans-Serif" font-size="10.00">functional</text>
</g>
<!-- Node4&#45;&gt;Node12 -->
<g id="edge33" class="edge"><title>Node4&#45;&gt;Node12</title>
<path fill="none" stroke="midnightblue" d="M1726.68,-263.966C1624.57,-259.355 1402.26,-246.476 1379.5,-221 1350,-187.974 1364.68,-152.731 1397.5,-123 1453.77,-72.0246 1491.62,-108.285 1564.5,-87 1567.14,-86.2292 1569.86,-85.3671 1572.57,-84.4579"/>
<polygon fill="midnightblue" stroke="midnightblue" points="1573.97,-87.6743 1582.23,-81.0374 1571.63,-81.0757 1573.97,-87.6743"/>
</g>
<!-- Node13 -->
<g id="node13" class="node"><title>Node13</title>
<polygon fill="white" stroke="#bfbfbf" points="593.5,-56.5 593.5,-86.5 693.5,-86.5 693.5,-56.5 593.5,-56.5"/>
<text text-anchor="start" x="601.5" y="-74.5" font-family="Helvetica,sans-Serif" font-size="10.00">boost/preprocessor</text>
<text text-anchor="middle" x="643.5" y="-63.5" font-family="Helvetica,sans-Serif" font-size="10.00">/arithmetic/dec.hpp</text>
</g>
<!-- Node4&#45;&gt;Node13 -->
<g id="edge43" class="edge"><title>Node4&#45;&gt;Node13</title>
<path fill="none" stroke="midnightblue" d="M1726.72,-265.232C1544.71,-262.245 931.391,-250.103 848.5,-221 771.4,-193.93 698.153,-127.844 663.835,-93.6977"/>
<polygon fill="midnightblue" stroke="midnightblue" points="666.257,-91.169 656.732,-86.5291 661.284,-96.096 666.257,-91.169"/>
</g>
<!-- Node14 -->
<g id="node14" class="node"><title>Node14</title>
<polygon fill="white" stroke="#bfbfbf" points="711.5,-56.5 711.5,-86.5 811.5,-86.5 811.5,-56.5 711.5,-56.5"/>
<text text-anchor="start" x="719.5" y="-74.5" font-family="Helvetica,sans-Serif" font-size="10.00">boost/preprocessor</text>
<text text-anchor="middle" x="761.5" y="-63.5" font-family="Helvetica,sans-Serif" font-size="10.00">/tuple/elem.hpp</text>
</g>
<!-- Node4&#45;&gt;Node14 -->
<g id="edge50" class="edge"><title>Node4&#45;&gt;Node14</title>
<path fill="none" stroke="midnightblue" d="M1726.86,-265.439C1553.12,-263.229 987.88,-253.584 913.5,-221 851.77,-193.958 800.741,-129.894 776.573,-95.4136"/>
<polygon fill="midnightblue" stroke="midnightblue" points="779.293,-93.1915 770.75,-86.9263 773.522,-97.1521 779.293,-93.1915"/>
</g>
<!-- Node15 -->
<g id="node15" class="node"><title>Node15</title>
<polygon fill="white" stroke="#bfbfbf" points="829.5,-62 829.5,-81 869.5,-81 869.5,-62 829.5,-62"/>
<text text-anchor="middle" x="849.5" y="-69" font-family="Helvetica,sans-Serif" font-size="10.00">limits</text>
</g>
<!-- Node4&#45;&gt;Node15 -->
<g id="edge72" class="edge"><title>Node4&#45;&gt;Node15</title>
<path fill="none" stroke="midnightblue" d="M1726.78,-265.567C1560.04,-263.815 1035.69,-255.586 968.5,-221 912.308,-192.074 873.647,-123.457 857.694,-90.6201"/>
<polygon fill="midnightblue" stroke="midnightblue" points="860.74,-88.8729 853.319,-81.3116 854.405,-91.8506 860.74,-88.8729"/>
</g>
<!-- Node16 -->
<g id="node16" class="node"><title>Node16</title>
<polygon fill="white" stroke="#bfbfbf" points="887.5,-62 887.5,-81 973.5,-81 973.5,-62 887.5,-62"/>
<text text-anchor="middle" x="930.5" y="-69" font-family="Helvetica,sans-Serif" font-size="10.00">boost/limits.hpp</text>
</g>
<!-- Node4&#45;&gt;Node16 -->
<g id="edge71" class="edge"><title>Node4&#45;&gt;Node16</title>
<path fill="none" stroke="midnightblue" d="M1726.77,-265.035C1568.55,-261.738 1090.89,-249.509 1027.5,-221 982.788,-200.89 974.044,-185.44 949.5,-143 940.195,-126.91 935.316,-106.124 932.846,-91.2996"/>
<polygon fill="midnightblue" stroke="midnightblue" points="936.294,-90.6942 931.392,-81.3017 929.367,-91.7012 936.294,-90.6942"/>
</g>
<!-- Node17 -->
<g id="node17" class="node"><title>Node17</title>
<polygon fill="white" stroke="#bfbfbf" points="1030,-62 1030,-81 1149,-81 1149,-62 1030,-62"/>
<text text-anchor="middle" x="1089.5" y="-69" font-family="Helvetica,sans-Serif" font-size="10.00">boost/static_assert.hpp</text>
</g>
<!-- Node4&#45;&gt;Node17 -->
<g id="edge77" class="edge"><title>Node4&#45;&gt;Node17</title>
<path fill="none" stroke="midnightblue" d="M1726.93,-266.098C1610.37,-265.635 1326.27,-260.37 1240.5,-221 1176.02,-191.404 1122.96,-122.06 1100.73,-89.699"/>
<polygon fill="midnightblue" stroke="midnightblue" points="1103.55,-87.6199 1095.07,-81.2707 1097.74,-91.5234 1103.55,-87.6199"/>
</g>
<!-- Node18 -->
<g id="node18" class="node"><title>Node18</title>
<polygon fill="white" stroke="#bfbfbf" points="1167.5,-62 1167.5,-81 1215.5,-81 1215.5,-62 1167.5,-62"/>
<text text-anchor="middle" x="1191.5" y="-69" font-family="Helvetica,sans-Serif" font-size="10.00">limits.h</text>
</g>
<!-- Node4&#45;&gt;Node18 -->
<g id="edge74" class="edge"><title>Node4&#45;&gt;Node18</title>
<path fill="none" stroke="midnightblue" d="M1726.79,-266.805C1616.99,-267.684 1361.26,-264.812 1288.5,-221 1238.25,-190.745 1209.08,-123.307 1197.44,-90.7629"/>
<polygon fill="midnightblue" stroke="midnightblue" points="1200.7,-89.4974 1194.15,-81.1682 1194.08,-91.7628 1200.7,-89.4974"/>
</g>
<!-- Node19 -->
<g id="node19" class="node"><title>Node19</title>
<polygon fill="white" stroke="#bfbfbf" points="1234,-62 1234,-81 1293,-81 1293,-62 1234,-62"/>
<text text-anchor="middle" x="1263.5" y="-69" font-family="Helvetica,sans-Serif" font-size="10.00">stdexcept</text>
</g>
<!-- Node4&#45;&gt;Node19 -->
<g id="edge62" class="edge"><title>Node4&#45;&gt;Node19</title>
<path fill="none" stroke="midnightblue" d="M1726.92,-263.889C1615.5,-258.826 1356.24,-244.629 1324.5,-221 1282.29,-189.571 1269.16,-123.722 1265.18,-91.3228"/>
<polygon fill="midnightblue" stroke="midnightblue" points="1268.62,-90.6008 1264.09,-81.0252 1261.66,-91.3383 1268.62,-90.6008"/>
</g>
<!-- Node20 -->
<g id="node20" class="node"><title>Node20</title>
<polygon fill="white" stroke="#bfbfbf" points="1651,-62 1651,-81 1692,-81 1692,-62 1651,-62"/>
<text text-anchor="middle" x="1671.5" y="-69" font-family="Helvetica,sans-Serif" font-size="10.00">string</text>
</g>
<!-- Node4&#45;&gt;Node20 -->
<g id="edge31" class="edge"><title>Node4&#45;&gt;Node20</title>
<path fill="none" stroke="midnightblue" d="M1726.72,-263.676C1628.23,-258.647 1419.01,-245.21 1397.5,-221 1367.71,-187.479 1386.19,-150.637 1421.5,-123 1499.52,-61.9368 1547.03,-116.867 1641.5,-87 1643.17,-86.4725 1644.86,-85.8672 1646.55,-85.2098"/>
<polygon fill="midnightblue" stroke="midnightblue" points="1648.23,-88.2934 1655.97,-81.0552 1645.41,-81.8889 1648.23,-88.2934"/>
</g>
<!-- Node21 -->
<g id="node21" class="node"><title>Node21</title>
<polygon fill="white" stroke="#bfbfbf" points="1311.5,-62 1311.5,-81 1445.5,-81 1445.5,-62 1311.5,-62"/>
<text text-anchor="middle" x="1378.5" y="-69" font-family="Helvetica,sans-Serif" font-size="10.00">boost/throw_exception.hpp</text>
</g>
<!-- Node4&#45;&gt;Node21 -->
<g id="edge56" class="edge"><title>Node4&#45;&gt;Node21</title>
<path fill="none" stroke="midnightblue" d="M1726.88,-264.51C1617.51,-260.768 1366.92,-249.181 1341.5,-221 1307.63,-183.455 1344.57,-119.663 1365.75,-89.3981"/>
<polygon fill="midnightblue" stroke="midnightblue" points="1368.7,-91.3005 1371.73,-81.1481 1363.03,-87.1953 1368.7,-91.3005"/>
</g>
<!-- Node22 -->
<g id="node22" class="node"><title>Node22</title>
<polygon fill="white" stroke="#bfbfbf" points="1463.5,-62 1463.5,-81 1555.5,-81 1555.5,-62 1463.5,-62"/>
<text text-anchor="middle" x="1509.5" y="-69" font-family="Helvetica,sans-Serif" font-size="10.00">boost/cstdint.hpp</text>
</g>
<!-- Node4&#45;&gt;Node22 -->
<g id="edge73" class="edge"><title>Node4&#45;&gt;Node22</title>
<path fill="none" stroke="midnightblue" d="M1726.69,-264.247C1620.86,-260.072 1384.58,-247.819 1360.5,-221 1331.06,-188.214 1345.92,-155.656 1375.5,-123 1388.15,-109.039 1432.78,-93.9109 1467.09,-83.8894"/>
<polygon fill="midnightblue" stroke="midnightblue" points="1468.26,-87.195 1476.91,-81.077 1466.33,-80.4656 1468.26,-87.195"/>
</g>
<!-- Node23 -->
<g id="node23" class="node"><title>Node23</title>
<g id="a_node23"><a xlink:href="string_8hpp.html" target="_top" xlink:title="String class and operations. ">
<polygon fill="white" stroke="black" points="1431,-123.5 1431,-142.5 1528,-142.5 1528,-123.5 1431,-123.5"/>
<text text-anchor="middle" x="1479.5" y="-130.5" font-family="Helvetica,sans-Serif" font-size="10.00">boost/ui/string.hpp</text>
</a>
</g>
</g>
<!-- Node4&#45;&gt;Node23 -->
<g id="edge25" class="edge"><title>Node4&#45;&gt;Node23</title>
<path fill="none" stroke="midnightblue" d="M1726.84,-263.473C1630.86,-258.165 1430.19,-244.375 1409.5,-221 1397.13,-207.023 1400.56,-195.384 1409.5,-179 1417.32,-164.679 1431.86,-154.236 1445.68,-147.036"/>
<polygon fill="midnightblue" stroke="midnightblue" points="1447.52,-150.034 1455.03,-142.562 1444.5,-143.719 1447.52,-150.034"/>
</g>
<!-- Node24 -->
<g id="node24" class="node"><title>Node24</title>
<polygon fill="white" stroke="#bfbfbf" points="3047,-62 3047,-81 3120,-81 3120,-62 3047,-62"/>
<text text-anchor="middle" x="3083.5" y="-69" font-family="Helvetica,sans-Serif" font-size="10.00">initializer_list</text>
</g>
<!-- Node4&#45;&gt;Node24 -->
<g id="edge32" class="edge"><title>Node4&#45;&gt;Node24</title>
<path fill="none" stroke="midnightblue" d="M1828.27,-266.075C2181.96,-266.484 4265.37,-266.936 4310.5,-221 4323.58,-207.684 4323.12,-192.758 4310.5,-179 4229.32,-90.4677 3345.3,-75.3013 3130.38,-72.9164"/>
<polygon fill="midnightblue" stroke="midnightblue" points="3130.11,-69.4134 3120.08,-72.8062 3130.04,-76.413 3130.11,-69.4134"/>
</g>
<!-- Node25 -->
<g id="node25" class="node"><title>Node25</title>
<polygon fill="white" stroke="#bfbfbf" points="1573,-190.5 1573,-209.5 1672,-209.5 1672,-190.5 1573,-190.5"/>
<text text-anchor="middle" x="1622.5" y="-197.5" font-family="Helvetica,sans-Serif" font-size="10.00">boost/ui/config.hpp</text>
</g>
<!-- Node4&#45;&gt;Node25 -->
<g id="edge30" class="edge"><title>Node4&#45;&gt;Node25</title>
<path fill="none" stroke="midnightblue" d="M1756.92,-257.369C1730.17,-246.15 1683.25,-226.477 1652.53,-213.592"/>
<polygon fill="midnightblue" stroke="midnightblue" points="1653.74,-210.307 1643.17,-209.667 1651.04,-216.762 1653.74,-210.307"/>
</g>
<!-- Node26 -->
<g id="node26" class="node"><title>Node26</title>
<g id="a_node26"><a xlink:href="event_8hpp.html" target="_top" xlink:title="Event classes. ">
<polygon fill="white" stroke="black" points="1419,-190.5 1419,-209.5 1516,-209.5 1516,-190.5 1419,-190.5"/>
<text text-anchor="middle" x="1467.5" y="-197.5" font-family="Helvetica,sans-Serif" font-size="10.00">boost/ui/event.hpp</text>
</a>
</g>
</g>
<!-- Node4&#45;&gt;Node26 -->
<g id="edge34" class="edge"><title>Node4&#45;&gt;Node26</title>
<path fill="none" stroke="midnightblue" d="M1726.96,-258.72C1676.75,-251.037 1597.76,-237.73 1530.5,-221 1521.01,-218.64 1510.86,-215.636 1501.54,-212.678"/>
<polygon fill="midnightblue" stroke="midnightblue" points="1502.42,-209.282 1491.83,-209.519 1500.25,-215.939 1502.42,-209.282"/>
</g>
<!-- Node27 -->
<g id="node27" class="node"><title>Node27</title>
<polygon fill="white" stroke="#bfbfbf" points="1585,-123.5 1585,-142.5 1682,-142.5 1682,-123.5 1585,-123.5"/>
<text text-anchor="middle" x="1633.5" y="-130.5" font-family="Helvetica,sans-Serif" font-size="10.00">boost/function.hpp</text>
</g>
<!-- Node4&#45;&gt;Node27 -->
<g id="edge39" class="edge"><title>Node4&#45;&gt;Node27</title>
<path fill="none" stroke="midnightblue" d="M1765.04,-257.242C1752.97,-248.55 1734.35,-234.595 1719.5,-221 1700.71,-203.802 1698.37,-197.149 1680.5,-179 1670.69,-169.04 1659.38,-158.194 1650.32,-149.646"/>
<polygon fill="midnightblue" stroke="midnightblue" points="1652.71,-147.092 1643.02,-142.805 1647.92,-152.198 1652.71,-147.092"/>
</g>
<!-- Node28 -->
<g id="node28" class="node"><title>Node28</title>
<polygon fill="white" stroke="#bfbfbf" points="1729,-190.5 1729,-209.5 1826,-209.5 1826,-190.5 1729,-190.5"/>
<text text-anchor="middle" x="1777.5" y="-197.5" font-family="Helvetica,sans-Serif" font-size="10.00">boost/ui/coord.hpp</text>
</g>
<!-- Node4&#45;&gt;Node28 -->
<g id="edge38" class="edge"><title>Node4&#45;&gt;Node28</title>
<path fill="none" stroke="midnightblue" d="M1777.5,-257.234C1777.5,-247.683 1777.5,-232.118 1777.5,-219.783"/>
<polygon fill="midnightblue" stroke="midnightblue" points="1781,-219.627 1777.5,-209.627 1774,-219.627 1781,-219.627"/>
</g>
<!-- Node29 -->
<g id="node29" class="node"><title>Node29</title>
<polygon fill="white" stroke="#bfbfbf" points="1844,-179.5 1844,-220.5 1951,-220.5 1951,-179.5 1844,-179.5"/>
<text text-anchor="start" x="1852" y="-208.5" font-family="Helvetica,sans-Serif" font-size="10.00">/media/disk4_1/work</text>
<text text-anchor="start" x="1852" y="-197.5" font-family="Helvetica,sans-Serif" font-size="10.00">/code/ui/boost/boost</text>
<text text-anchor="middle" x="1897.5" y="-186.5" font-family="Helvetica,sans-Serif" font-size="10.00">/functional</text>
</g>
<!-- Node4&#45;&gt;Node29 -->
<g id="edge40" class="edge"><title>Node4&#45;&gt;Node29</title>
<path fill="none" stroke="midnightblue" d="M1793.68,-257.234C1808.73,-249.084 1831.86,-236.555 1852.47,-225.39"/>
<polygon fill="midnightblue" stroke="midnightblue" points="1854.3,-228.382 1861.42,-220.542 1850.96,-222.227 1854.3,-228.382"/>
</g>
<!-- Node30 -->
<g id="node30" class="node"><title>Node30</title>
<polygon fill="white" stroke="#bfbfbf" points="1969.5,-185 1969.5,-215 2069.5,-215 2069.5,-185 1969.5,-185"/>
<text text-anchor="start" x="1977.5" y="-203" font-family="Helvetica,sans-Serif" font-size="10.00">boost/preprocessor</text>
<text text-anchor="middle" x="2019.5" y="-192" font-family="Helvetica,sans-Serif" font-size="10.00">/iterate.hpp</text>
</g>
<!-- Node4&#45;&gt;Node30 -->
<g id="edge41" class="edge"><title>Node4&#45;&gt;Node30</title>
<path fill="none" stroke="midnightblue" d="M1816.31,-257.472C1853.53,-249.056 1911.19,-235.391 1960.5,-221 1963.61,-220.091 1966.81,-219.12 1970.02,-218.115"/>
<polygon fill="midnightblue" stroke="midnightblue" points="1971.21,-221.411 1979.66,-215.022 1969.07,-214.746 1971.21,-221.411"/>
</g>
<!-- Node31 -->
<g id="node31" class="node"><title>Node31</title>
<polygon fill="white" stroke="#bfbfbf" points="2088,-185 2088,-215 2191,-215 2191,-185 2088,-185"/>
<text text-anchor="start" x="2096" y="-203" font-family="Helvetica,sans-Serif" font-size="10.00">boost/preprocessor</text>
<text text-anchor="middle" x="2139.5" y="-192" font-family="Helvetica,sans-Serif" font-size="10.00">/iteration/iterate.hpp</text>
</g>
<!-- Node4&#45;&gt;Node31 -->
<g id="edge42" class="edge"><title>Node4&#45;&gt;Node31</title>
<path fill="none" stroke="midnightblue" d="M1828.06,-261.073C1888.26,-254.602 1991.61,-241.585 2078.5,-221 2082.3,-220.101 2086.19,-219.074 2090.1,-217.97"/>
<polygon fill="midnightblue" stroke="midnightblue" points="2091.16,-221.306 2099.74,-215.1 2089.16,-214.597 2091.16,-221.306"/>
</g>
<!-- Node32 -->
<g id="node32" class="node"><title>Node32</title>
<polygon fill="white" stroke="#bfbfbf" points="2209.5,-185 2209.5,-215 2309.5,-215 2309.5,-185 2209.5,-185"/>
<text text-anchor="start" x="2217.5" y="-203" font-family="Helvetica,sans-Serif" font-size="10.00">boost/preprocessor</text>
<text text-anchor="middle" x="2259.5" y="-192" font-family="Helvetica,sans-Serif" font-size="10.00">/arithmetic/inc.hpp</text>
</g>
<!-- Node4&#45;&gt;Node32 -->
<g id="edge44" class="edge"><title>Node4&#45;&gt;Node32</title>
<path fill="none" stroke="midnightblue" d="M1828.22,-264.218C1908.2,-260.602 2068.14,-250.099 2200.5,-221 2204.37,-220.149 2208.34,-219.132 2212.31,-218.014"/>
<polygon fill="midnightblue" stroke="midnightblue" points="2213.52,-221.303 2222.08,-215.063 2211.5,-214.602 2213.52,-221.303"/>
</g>
<!-- Node33 -->
<g id="node33" class="node"><title>Node33</title>
<polygon fill="white" stroke="#bfbfbf" points="2327.5,-185 2327.5,-215 2427.5,-215 2427.5,-185 2327.5,-185"/>
<text text-anchor="start" x="2335.5" y="-203" font-family="Helvetica,sans-Serif" font-size="10.00">boost/preprocessor</text>
<text text-anchor="middle" x="2377.5" y="-192" font-family="Helvetica,sans-Serif" font-size="10.00">/array/elem.hpp</text>
</g>
<!-- Node4&#45;&gt;Node33 -->
<g id="edge45" class="edge"><title>Node4&#45;&gt;Node33</title>
<path fill="none" stroke="midnightblue" d="M1828.06,-265.881C1924.48,-264.758 2140.87,-257.916 2318.5,-221 2322.44,-220.182 2326.48,-219.179 2330.5,-218.063"/>
<polygon fill="midnightblue" stroke="midnightblue" points="2331.85,-221.314 2340.43,-215.095 2329.84,-214.607 2331.85,-221.314"/>
</g>
<!-- Node34 -->
<g id="node34" class="node"><title>Node34</title>
<polygon fill="white" stroke="#bfbfbf" points="2445.5,-185 2445.5,-215 2545.5,-215 2545.5,-185 2445.5,-185"/>
<text text-anchor="start" x="2453.5" y="-203" font-family="Helvetica,sans-Serif" font-size="10.00">boost/preprocessor</text>
<text text-anchor="middle" x="2495.5" y="-192" font-family="Helvetica,sans-Serif" font-size="10.00">/array/size.hpp</text>
</g>
<!-- Node4&#45;&gt;Node34 -->
<g id="edge46" class="edge"><title>Node4&#45;&gt;Node34</title>
<path fill="none" stroke="midnightblue" d="M1828.38,-264.227C1961.94,-259.301 2320.26,-244.261 2436.5,-221 2440.62,-220.176 2444.84,-219.143 2449.05,-217.982"/>
<polygon fill="midnightblue" stroke="midnightblue" points="2450.18,-221.295 2458.76,-215.08 2448.18,-214.588 2450.18,-221.295"/>
</g>
<!-- Node35 -->
<g id="node35" class="node"><title>Node35</title>
<polygon fill="white" stroke="#bfbfbf" points="2563.5,-185 2563.5,-215 2663.5,-215 2663.5,-185 2563.5,-185"/>
<text text-anchor="start" x="2571.5" y="-203" font-family="Helvetica,sans-Serif" font-size="10.00">boost/preprocessor</text>
<text text-anchor="middle" x="2613.5" y="-192" font-family="Helvetica,sans-Serif" font-size="10.00">/slot/slot.hpp</text>
</g>
<!-- Node4&#45;&gt;Node35 -->
<g id="edge48" class="edge"><title>Node4&#45;&gt;Node35</title>
<path fill="none" stroke="midnightblue" d="M1828.11,-264.843C1977.46,-261.15 2414.58,-248.25 2554.5,-221 2558.68,-220.186 2562.97,-219.149 2567.24,-217.977"/>
<polygon fill="midnightblue" stroke="midnightblue" points="2568.51,-221.251 2577.09,-215.04 2566.51,-214.543 2568.51,-221.251"/>
</g>
<!-- Node36 -->
<g id="node36" class="node"><title>Node36</title>
<polygon fill="white" stroke="#bfbfbf" points="2681.5,-185 2681.5,-215 2781.5,-215 2781.5,-185 2681.5,-185"/>
<text text-anchor="start" x="2689.5" y="-203" font-family="Helvetica,sans-Serif" font-size="10.00">boost/preprocessor</text>
<text text-anchor="middle" x="2731.5" y="-192" font-family="Helvetica,sans-Serif" font-size="10.00">/slot/detail/def.hpp</text>
</g>
<!-- Node4&#45;&gt;Node36 -->
<g id="edge49" class="edge"><title>Node4&#45;&gt;Node36</title>
<path fill="none" stroke="midnightblue" d="M1828.09,-265.292C1992.22,-262.707 2508.79,-252.236 2672.5,-221 2676.68,-220.202 2680.98,-219.176 2685.24,-218.012"/>
<polygon fill="midnightblue" stroke="midnightblue" points="2686.51,-221.287 2695.1,-215.085 2684.52,-214.577 2686.51,-221.287"/>
</g>
<!-- Node37 -->
<g id="node37" class="node"><title>Node37</title>
<polygon fill="white" stroke="#bfbfbf" points="2799.5,-185 2799.5,-215 2903.5,-215 2903.5,-185 2799.5,-185"/>
<text text-anchor="start" x="2807.5" y="-203" font-family="Helvetica,sans-Serif" font-size="10.00">boost/function/detail</text>
<text text-anchor="middle" x="2851.5" y="-192" font-family="Helvetica,sans-Serif" font-size="10.00">/prologue.hpp</text>
</g>
<!-- Node4&#45;&gt;Node37 -->
<g id="edge52" class="edge"><title>Node4&#45;&gt;Node37</title>
<path fill="none" stroke="midnightblue" d="M1828.09,-265.571C2006.08,-263.777 2602.71,-255.29 2790.5,-221 2795,-220.178 2799.63,-219.106 2804.22,-217.884"/>
<polygon fill="midnightblue" stroke="midnightblue" points="2805.53,-221.148 2814.17,-215.011 2803.59,-214.423 2805.53,-221.148"/>
</g>
<!-- Node38 -->
<g id="node38" class="node"><title>Node38</title>
<polygon fill="white" stroke="#bfbfbf" points="2922,-190.5 2922,-209.5 2971,-209.5 2971,-190.5 2922,-190.5"/>
<text text-anchor="middle" x="2946.5" y="-197.5" font-family="Helvetica,sans-Serif" font-size="10.00">cassert</text>
</g>
<!-- Node4&#45;&gt;Node38 -->
<g id="edge53" class="edge"><title>Node4&#45;&gt;Node38</title>
<path fill="none" stroke="midnightblue" d="M1828.08,-265.445C2034.56,-262.983 2807.72,-251.774 2912.5,-221 2917.34,-219.579 2922.21,-217.321 2926.68,-214.825"/>
<polygon fill="midnightblue" stroke="midnightblue" points="2928.54,-217.795 2935.2,-209.56 2924.86,-211.841 2928.54,-217.795"/>
</g>
<!-- Node39 -->
<g id="node39" class="node"><title>Node39</title>
<polygon fill="white" stroke="#bfbfbf" points="2989.5,-185 2989.5,-215 3089.5,-215 3089.5,-185 2989.5,-185"/>
<text text-anchor="start" x="2997.5" y="-203" font-family="Helvetica,sans-Serif" font-size="10.00">boost/config/no_tr1</text>
<text text-anchor="middle" x="3039.5" y="-192" font-family="Helvetica,sans-Serif" font-size="10.00">/functional.hpp</text>
</g>
<!-- Node4&#45;&gt;Node39 -->
<g id="edge55" class="edge"><title>Node4&#45;&gt;Node39</title>
<path fill="none" stroke="midnightblue" d="M1828.09,-266.051C2026.81,-265.951 2754.14,-262.683 2980.5,-221 2984.87,-220.196 2989.35,-219.136 2993.8,-217.922"/>
<polygon fill="midnightblue" stroke="midnightblue" points="2994.84,-221.263 3003.43,-215.059 2992.85,-214.554 2994.84,-221.263"/>
</g>
<!-- Node40 -->
<g id="node40" class="node"><title>Node40</title>
<polygon fill="white" stroke="#bfbfbf" points="3108,-179.5 3108,-220.5 3215,-220.5 3215,-179.5 3108,-179.5"/>
<text text-anchor="start" x="3116" y="-208.5" font-family="Helvetica,sans-Serif" font-size="10.00">/media/disk4_1/work</text>
<text text-anchor="start" x="3116" y="-197.5" font-family="Helvetica,sans-Serif" font-size="10.00">/code/ui/boost/boost</text>
<text text-anchor="middle" x="3161.5" y="-186.5" font-family="Helvetica,sans-Serif" font-size="10.00">/exception</text>
</g>
<!-- Node4&#45;&gt;Node40 -->
<g id="edge58" class="edge"><title>Node4&#45;&gt;Node40</title>
<path fill="none" stroke="midnightblue" d="M1828.29,-266.12C2036.65,-266.331 2827.2,-264.303 3097.61,-220.814"/>
<polygon fill="midnightblue" stroke="midnightblue" points="3098.5,-224.215 3107.78,-219.116 3097.34,-217.311 3098.5,-224.215"/>
</g>
<!-- Node41 -->
<g id="node41" class="node"><title>Node41</title>
<polygon fill="white" stroke="#bfbfbf" points="3233,-190.5 3233,-209.5 3382,-209.5 3382,-190.5 3233,-190.5"/>
<text text-anchor="middle" x="3307.5" y="-197.5" font-family="Helvetica,sans-Serif" font-size="10.00">boost/exception/exception.hpp</text>
</g>
<!-- Node4&#45;&gt;Node41 -->
<g id="edge59" class="edge"><title>Node4&#45;&gt;Node41</title>
<path fill="none" stroke="midnightblue" d="M1828.08,-265.82C2050.9,-264.811 2946.14,-258.461 3224.5,-221 3239.16,-219.027 3255,-215.554 3268.87,-212.05"/>
<polygon fill="midnightblue" stroke="midnightblue" points="3269.79,-215.427 3278.58,-209.513 3268.02,-208.654 3269.79,-215.427"/>
</g>
<!-- Node42 -->
<g id="node42" class="node"><title>Node42</title>
<polygon fill="white" stroke="#bfbfbf" points="3400.5,-190.5 3400.5,-209.5 3532.5,-209.5 3532.5,-190.5 3400.5,-190.5"/>
<text text-anchor="middle" x="3466.5" y="-197.5" font-family="Helvetica,sans-Serif" font-size="10.00">boost/current_function.hpp</text>
</g>
<!-- Node4&#45;&gt;Node42 -->
<g id="edge60" class="edge"><title>Node4&#45;&gt;Node42</title>
<path fill="none" stroke="midnightblue" d="M1828.24,-266.172C2066.9,-266.74 3079.07,-266.379 3391.5,-221 3404.42,-219.124 3418.3,-215.803 3430.57,-212.401"/>
<polygon fill="midnightblue" stroke="midnightblue" points="3431.8,-215.689 3440.43,-209.553 3429.85,-208.963 3431.8,-215.689"/>
</g>
<!-- Node43 -->
<g id="node43" class="node"><title>Node43</title>
<polygon fill="white" stroke="#bfbfbf" points="3550.5,-185 3550.5,-215 3666.5,-215 3666.5,-185 3550.5,-185"/>
<text text-anchor="start" x="3558.5" y="-203" font-family="Helvetica,sans-Serif" font-size="10.00">boost/function/function</text>
<text text-anchor="middle" x="3608.5" y="-192" font-family="Helvetica,sans-Serif" font-size="10.00">_base.hpp</text>
</g>
<!-- Node4&#45;&gt;Node43 -->
<g id="edge61" class="edge"><title>Node4&#45;&gt;Node43</title>
<path fill="none" stroke="midnightblue" d="M1828.21,-265.506C2099,-262.76 3368.67,-248.5 3541.5,-221 3546.89,-220.142 3552.46,-218.967 3557.98,-217.614"/>
<polygon fill="midnightblue" stroke="midnightblue" points="3559.02,-220.957 3567.8,-215.015 3557.23,-214.19 3559.02,-220.957"/>
</g>
<!-- Node44 -->
<g id="node44" class="node"><title>Node44</title>
<polygon fill="white" stroke="#bfbfbf" points="3685,-190.5 3685,-209.5 3720,-209.5 3720,-190.5 3685,-190.5"/>
<text text-anchor="middle" x="3702.5" y="-197.5" font-family="Helvetica,sans-Serif" font-size="10.00">new</text>
</g>
<!-- Node4&#45;&gt;Node44 -->
<g id="edge64" class="edge"><title>Node4&#45;&gt;Node44</title>
<path fill="none" stroke="midnightblue" d="M1828.05,-265.664C2120.48,-263.611 3585.72,-251.813 3675.5,-221 3679.03,-219.789 3682.48,-217.936 3685.67,-215.836"/>
<polygon fill="midnightblue" stroke="midnightblue" points="3688.01,-218.452 3693.82,-209.596 3683.76,-212.892 3688.01,-218.452"/>
</g>
<!-- Node45 -->
<g id="node45" class="node"><title>Node45</title>
<polygon fill="white" stroke="#bfbfbf" points="3738.5,-190.5 3738.5,-209.5 3790.5,-209.5 3790.5,-190.5 3738.5,-190.5"/>
<text text-anchor="middle" x="3764.5" y="-197.5" font-family="Helvetica,sans-Serif" font-size="10.00">assert.h</text>
</g>
<!-- Node4&#45;&gt;Node45 -->
<g id="edge66" class="edge"><title>Node4&#45;&gt;Node45</title>
<path fill="none" stroke="midnightblue" d="M1828.46,-265.533C2126.63,-262.709 3635.35,-247.169 3729.5,-221 3734.46,-219.62 3739.47,-217.38 3744.08,-214.888"/>
<polygon fill="midnightblue" stroke="midnightblue" points="3746.08,-217.767 3752.85,-209.615 3742.48,-211.768 3746.08,-217.767"/>
</g>
<!-- Node46 -->
<g id="node46" class="node"><title>Node46</title>
<polygon fill="white" stroke="#bfbfbf" points="3808.5,-190.5 3808.5,-209.5 3900.5,-209.5 3900.5,-190.5 3808.5,-190.5"/>
<text text-anchor="middle" x="3854.5" y="-197.5" font-family="Helvetica,sans-Serif" font-size="10.00">boost/integer.hpp</text>
</g>
<!-- Node4&#45;&gt;Node46 -->
<g id="edge67" class="edge"><title>Node4&#45;&gt;Node46</title>
<path fill="none" stroke="midnightblue" d="M1828.25,-265.859C2122.24,-264.91 3600.74,-258.301 3799.5,-221 3808.47,-219.316 3817.92,-216.351 3826.41,-213.211"/>
<polygon fill="midnightblue" stroke="midnightblue" points="3827.81,-216.421 3835.84,-209.511 3825.25,-209.904 3827.81,-216.421"/>
</g>
<!-- Node47 -->
<g id="node47" class="node"><title>Node47</title>
<polygon fill="white" stroke="#bfbfbf" points="3919,-190.5 3919,-209.5 4032,-209.5 4032,-190.5 3919,-190.5"/>
<text text-anchor="middle" x="3975.5" y="-197.5" font-family="Helvetica,sans-Serif" font-size="10.00">boost/integer_fwd.hpp</text>
</g>
<!-- Node4&#45;&gt;Node47 -->
<g id="edge68" class="edge"><title>Node4&#45;&gt;Node47</title>
<path fill="none" stroke="midnightblue" d="M1828.48,-265.757C2132.33,-264.197 3698.35,-254.571 3909.5,-221 3920.7,-219.219 3932.65,-216.018 3943.26,-212.691"/>
<polygon fill="midnightblue" stroke="midnightblue" points="3944.54,-215.953 3952.95,-209.505 3942.36,-209.303 3944.54,-215.953"/>
</g>
<!-- Node48 -->
<g id="node48" class="node"><title>Node48</title>
<polygon fill="white" stroke="#bfbfbf" points="4050,-190.5 4050,-209.5 4095,-209.5 4095,-190.5 4050,-190.5"/>
<text text-anchor="middle" x="4072.5" y="-197.5" font-family="Helvetica,sans-Serif" font-size="10.00">climits</text>
</g>
<!-- Node4&#45;&gt;Node48 -->
<g id="edge69" class="edge"><title>Node4&#45;&gt;Node48</title>
<path fill="none" stroke="midnightblue" d="M1828.21,-265.777C2153.06,-264.25 3932.2,-254.382 4041.5,-221 4045.77,-219.695 4050.02,-217.617 4053.93,-215.283"/>
<polygon fill="midnightblue" stroke="midnightblue" points="4056,-218.112 4062.33,-209.618 4052.08,-212.309 4056,-218.112"/>
</g>
<!-- Node49 -->
<g id="node49" class="node"><title>Node49</title>
<polygon fill="white" stroke="#bfbfbf" points="4113,-190.5 4113,-209.5 4232,-209.5 4232,-190.5 4113,-190.5"/>
<text text-anchor="middle" x="4172.5" y="-197.5" font-family="Helvetica,sans-Serif" font-size="10.00">boost/integer_traits.hpp</text>
</g>
<!-- Node4&#45;&gt;Node49 -->
<g id="edge75" class="edge"><title>Node4&#45;&gt;Node49</title>
<path fill="none" stroke="midnightblue" d="M1828.14,-265.83C2147.14,-264.655 3872.68,-256.675 4104.5,-221 4116.14,-219.209 4128.58,-215.962 4139.6,-212.598"/>
<polygon fill="midnightblue" stroke="midnightblue" points="4140.79,-215.891 4149.25,-209.514 4138.66,-209.223 4140.79,-215.891"/>
</g>
<!-- Node50 -->
<g id="node50" class="node"><title>Node50</title>
<polygon fill="white" stroke="#bfbfbf" points="4250,-190.5 4250,-209.5 4301,-209.5 4301,-190.5 4250,-190.5"/>
<text text-anchor="middle" x="4275.5" y="-197.5" font-family="Helvetica,sans-Serif" font-size="10.00">wchar.h</text>
</g>
<!-- Node4&#45;&gt;Node50 -->
<g id="edge76" class="edge"><title>Node4&#45;&gt;Node50</title>
<path fill="none" stroke="midnightblue" d="M1828.2,-265.805C2169.42,-264.403 4121.28,-254.919 4241.5,-221 4246.35,-219.631 4251.23,-217.395 4255.71,-214.904"/>
<polygon fill="midnightblue" stroke="midnightblue" points="4257.56,-217.871 4264.22,-209.629 4253.88,-211.92 4257.56,-217.871"/>
</g>
<!-- Node5&#45;&gt;Node2 -->
<g id="edge6" class="edge"><title>Node5&#45;&gt;Node2</title>
<path fill="none" stroke="midnightblue" d="M1056.13,-131.777C1169.65,-130.619 1460.69,-123.959 1700.5,-87 1706.51,-86.0737 1712.81,-84.8291 1718.95,-83.4566"/>
<polygon fill="midnightblue" stroke="midnightblue" points="1720.16,-86.7683 1729.08,-81.0597 1718.55,-79.9564 1720.16,-86.7683"/>
</g>
<!-- Node5&#45;&gt;Node3 -->
<g id="edge8" class="edge"><title>Node5&#45;&gt;Node3</title>
<path fill="none" stroke="midnightblue" d="M1005.94,-123.343C1003.62,-107.33 1001.37,-73.1605 1020.5,-56 1071.06,-10.6516 1541.87,-9.51017 1704.54,-10.491"/>
<polygon fill="midnightblue" stroke="midnightblue" points="1704.77,-13.9925 1714.8,-10.5582 1704.82,-6.9927 1704.77,-13.9925"/>
</g>
<!-- Node5&#45;&gt;Node6 -->
<g id="edge7" class="edge"><title>Node5&#45;&gt;Node6</title>
<path fill="none" stroke="midnightblue" d="M958.764,-132.035C790.004,-131.79 231.403,-127.84 57.5,-87 55.1355,-86.4447 52.7294,-85.7245 50.3488,-84.9021"/>
<polygon fill="midnightblue" stroke="midnightblue" points="51.4613,-81.5774 40.8769,-81.1074 48.8579,-88.0754 51.4613,-81.5774"/>
</g>
<!-- Node5&#45;&gt;Node7 -->
<g id="edge9" class="edge"><title>Node5&#45;&gt;Node7</title>
<path fill="none" stroke="midnightblue" d="M958.83,-130.769C803.247,-126.619 319.133,-111.985 164.5,-87 159.085,-86.1251 153.429,-84.9117 147.913,-83.556"/>
<polygon fill="midnightblue" stroke="midnightblue" points="148.779,-80.1649 138.218,-81.0044 146.998,-86.9344 148.779,-80.1649"/>
</g>
<!-- Node5&#45;&gt;Node8 -->
<g id="edge10" class="edge"><title>Node5&#45;&gt;Node8</title>
<path fill="none" stroke="midnightblue" d="M958.731,-130.737C846.217,-127.4 559.93,-116.487 322.5,-87 313.456,-85.8767 303.88,-84.3819 294.634,-82.7784"/>
<polygon fill="midnightblue" stroke="midnightblue" points="295.232,-79.3299 284.771,-81.0082 293.995,-86.2198 295.232,-79.3299"/>
</g>
<!-- Node5&#45;&gt;Node9 -->
<g id="edge11" class="edge"><title>Node5&#45;&gt;Node9</title>
<path fill="none" stroke="midnightblue" d="M958.907,-130.3C833.866,-125.624 503.33,-111.283 396.5,-87 393.662,-86.3549 390.754,-85.5286 387.877,-84.5983"/>
<polygon fill="midnightblue" stroke="midnightblue" points="388.953,-81.2654 378.359,-81.1476 386.567,-87.8463 388.953,-81.2654"/>
</g>
<!-- Node5&#45;&gt;Node10 -->
<g id="edge12" class="edge"><title>Node5&#45;&gt;Node10</title>
<path fill="none" stroke="midnightblue" d="M958.643,-129.872C843.769,-124.555 559.239,-109.486 466.5,-87 463.983,-86.3898 461.413,-85.6242 458.864,-84.7656"/>
<polygon fill="midnightblue" stroke="midnightblue" points="459.898,-81.4141 449.307,-81.1242 457.406,-87.9554 459.898,-81.4141"/>
</g>
<!-- Node5&#45;&gt;Node11 -->
<g id="edge13" class="edge"><title>Node5&#45;&gt;Node11</title>
<path fill="none" stroke="midnightblue" d="M958.991,-128.978C881.901,-123.709 726.576,-111.189 585.729,-87.0617"/>
<polygon fill="midnightblue" stroke="midnightblue" points="586.066,-83.5679 575.614,-85.3044 584.868,-90.4646 586.066,-83.5679"/>
</g>
<!-- Node5&#45;&gt;Node12 -->
<g id="edge14" class="edge"><title>Node5&#45;&gt;Node12</title>
<path fill="none" stroke="midnightblue" d="M1056.01,-129.796C1173,-124.204 1468.13,-108.377 1564.5,-87 1567.57,-86.318 1570.73,-85.4479 1573.86,-84.4734"/>
<polygon fill="midnightblue" stroke="midnightblue" points="1575.27,-87.6869 1583.58,-81.1077 1572.98,-81.0722 1575.27,-87.6869"/>
</g>
<!-- Node5&#45;&gt;Node13 -->
<g id="edge15" class="edge"><title>Node5&#45;&gt;Node13</title>
<path fill="none" stroke="midnightblue" d="M958.925,-126.272C900.543,-119.069 799.441,-105.581 703.505,-87.0875"/>
<polygon fill="midnightblue" stroke="midnightblue" points="704.125,-83.6427 693.64,-85.1645 702.786,-90.5134 704.125,-83.6427"/>
</g>
<!-- Node5&#45;&gt;Node14 -->
<g id="edge16" class="edge"><title>Node5&#45;&gt;Node14</title>
<path fill="none" stroke="midnightblue" d="M971.638,-123.425C936.045,-114.901 879.657,-101.366 821.766,-87.3021"/>
<polygon fill="midnightblue" stroke="midnightblue" points="822.252,-83.8182 811.708,-84.8567 820.598,-90.6201 822.252,-83.8182"/>
</g>
<!-- Node5&#45;&gt;Node15 -->
<g id="edge17" class="edge"><title>Node5&#45;&gt;Node15</title>
<path fill="none" stroke="midnightblue" d="M979.683,-123.436C953.292,-115.045 912.696,-101.443 878.5,-87 877.304,-86.4949 876.088,-85.9631 874.866,-85.4136"/>
<polygon fill="midnightblue" stroke="midnightblue" points="876.121,-82.1348 865.587,-81.0009 873.115,-88.4564 876.121,-82.1348"/>
</g>
<!-- Node5&#45;&gt;Node16 -->
<g id="edge18" class="edge"><title>Node5&#45;&gt;Node16</title>
<path fill="none" stroke="midnightblue" d="M996.468,-123.475C984.232,-114.02 964.271,-98.5961 949.507,-87.1871"/>
<polygon fill="midnightblue" stroke="midnightblue" points="951.565,-84.3541 941.512,-81.0091 947.285,-89.8931 951.565,-84.3541"/>
</g>
<!-- Node5&#45;&gt;Node17 -->
<g id="edge19" class="edge"><title>Node5&#45;&gt;Node17</title>
<path fill="none" stroke="midnightblue" d="M1019.25,-123.475C1032.28,-114.02 1053.54,-98.5961 1069.26,-87.1871"/>
<polygon fill="midnightblue" stroke="midnightblue" points="1071.73,-89.7149 1077.77,-81.0091 1067.62,-84.0492 1071.73,-89.7149"/>
</g>
<!-- Node5&#45;&gt;Node18 -->
<g id="edge20" class="edge"><title>Node5&#45;&gt;Node18</title>
<path fill="none" stroke="midnightblue" d="M1039.73,-123.454C1070.34,-115.075 1117.49,-101.482 1157.5,-87 1159.36,-86.3284 1161.26,-85.6089 1163.16,-84.8628"/>
<polygon fill="midnightblue" stroke="midnightblue" points="1164.66,-88.0332 1172.59,-81.0079 1162.01,-81.5543 1164.66,-88.0332"/>
</g>
<!-- Node5&#45;&gt;Node19 -->
<g id="edge21" class="edge"><title>Node5&#45;&gt;Node19</title>
<path fill="none" stroke="midnightblue" d="M1056.28,-124.066C1100.6,-116.343 1167.56,-103.387 1224.5,-87 1227.14,-86.2396 1229.86,-85.3848 1232.57,-84.4804"/>
<polygon fill="midnightblue" stroke="midnightblue" points="1233.97,-87.6982 1242.24,-81.0684 1231.64,-81.0976 1233.97,-87.6982"/>
</g>
<!-- Node5&#45;&gt;Node20 -->
<g id="edge22" class="edge"><title>Node5&#45;&gt;Node20</title>
<path fill="none" stroke="midnightblue" d="M1056.16,-130.919C1184.73,-127.685 1531.15,-116.421 1641.5,-87 1643.43,-86.4859 1645.38,-85.847 1647.32,-85.1263"/>
<polygon fill="midnightblue" stroke="midnightblue" points="1648.91,-88.2514 1656.67,-81.04 1646.11,-81.837 1648.91,-88.2514"/>
</g>
<!-- Node5&#45;&gt;Node21 -->
<g id="edge23" class="edge"><title>Node5&#45;&gt;Node21</title>
<path fill="none" stroke="midnightblue" d="M1056.22,-125.064C1114.61,-116.632 1215.35,-101.7 1301.5,-87 1308.96,-85.7273 1316.81,-84.323 1324.54,-82.9045"/>
<polygon fill="midnightblue" stroke="midnightblue" points="1325.38,-86.3082 1334.57,-81.0414 1324.1,-79.4258 1325.38,-86.3082"/>
</g>
<!-- Node5&#45;&gt;Node22 -->
<g id="edge24" class="edge"><title>Node5&#45;&gt;Node22</title>
<path fill="none" stroke="midnightblue" d="M1056.14,-129.616C1138.62,-125.014 1310.98,-112.976 1454.5,-87 1459.71,-86.0569 1465.15,-84.8727 1470.5,-83.5897"/>
<polygon fill="midnightblue" stroke="midnightblue" points="1471.74,-86.8854 1480.58,-81.0383 1470.02,-80.0995 1471.74,-86.8854"/>
</g>
<!-- Node23&#45;&gt;Node2 -->
<g id="edge26" class="edge"><title>Node23&#45;&gt;Node2</title>
<path fill="none" stroke="midnightblue" d="M1524.06,-123.472C1568.77,-114.786 1639.57,-100.686 1700.5,-87 1705.52,-85.8732 1710.76,-84.6497 1715.97,-83.4072"/>
<polygon fill="midnightblue" stroke="midnightblue" points="1716.96,-86.768 1725.86,-81.0149 1715.32,-79.9642 1716.96,-86.768"/>
</g>
<!-- Node23&#45;&gt;Node12 -->
<g id="edge29" class="edge"><title>Node23&#45;&gt;Node12</title>
<path fill="none" stroke="midnightblue" d="M1497.27,-123.475C1517.98,-113.534 1552.45,-96.9947 1576.49,-85.461"/>
<polygon fill="midnightblue" stroke="midnightblue" points="1578.27,-88.4908 1585.77,-81.0091 1575.24,-82.1797 1578.27,-88.4908"/>
</g>
<!-- Node23&#45;&gt;Node20 -->
<g id="edge27" class="edge"><title>Node23&#45;&gt;Node20</title>
<path fill="none" stroke="midnightblue" d="M1517.76,-123.426C1550.98,-115.498 1600.12,-102.603 1641.5,-87 1642.92,-86.4642 1644.37,-85.8859 1645.81,-85.2793"/>
<polygon fill="midnightblue" stroke="midnightblue" points="1647.56,-88.3311 1655.23,-81.0193 1644.67,-81.9539 1647.56,-88.3311"/>
</g>
<!-- Node23&#45;&gt;Node24 -->
<g id="edge28" class="edge"><title>Node23&#45;&gt;Node24</title>
<path fill="none" stroke="midnightblue" d="M1528.29,-126.854C1543.41,-125.414 1560.13,-123.977 1575.5,-123 2150.58,-86.4469 2850.82,-75.425 3036.49,-73.047"/>
<polygon fill="midnightblue" stroke="midnightblue" points="3036.76,-76.544 3046.72,-72.9182 3036.68,-69.5445 3036.76,-76.544"/>
</g>
<!-- Node26&#45;&gt;Node2 -->
<g id="edge35" class="edge"><title>Node26&#45;&gt;Node2</title>
<path fill="none" stroke="midnightblue" d="M1477.19,-190.401C1495.27,-174.788 1535.89,-141.673 1575.5,-123 1588.29,-116.971 1665.86,-96.5207 1716.12,-83.5675"/>
<polygon fill="midnightblue" stroke="midnightblue" points="1717.27,-86.8846 1726.09,-81.0043 1715.53,-80.1052 1717.27,-86.8846"/>
</g>
<!-- Node26&#45;&gt;Node5 -->
<g id="edge36" class="edge"><title>Node26&#45;&gt;Node5</title>
<path fill="none" stroke="midnightblue" d="M1418.71,-192.105C1333.46,-180.06 1157.77,-155.233 1066.09,-142.278"/>
<polygon fill="midnightblue" stroke="midnightblue" points="1066.53,-138.806 1056.14,-140.873 1065.55,-145.738 1066.53,-138.806"/>
</g>
<!-- Node26&#45;&gt;Node27 -->
<g id="edge37" class="edge"><title>Node26&#45;&gt;Node27</title>
<path fill="none" stroke="midnightblue" d="M1489.54,-190.369C1518.4,-179.071 1569.15,-159.196 1602.04,-146.318"/>
<polygon fill="midnightblue" stroke="midnightblue" points="1603.59,-149.469 1611.63,-142.564 1601.04,-142.951 1603.59,-149.469"/>
</g>
</g>
</svg>
