<?xml version="1.0" encoding="UTF-8" standalone="no"?>
<!DOCTYPE svg PUBLIC "-//W3C//DTD SVG 1.1//EN"
 "http://www.w3.org/Graphics/SVG/1.1/DTD/svg11.dtd">
<!-- Generated by graphviz version 2.38.0 (20140413.2041)
 -->
<!-- Title: boost/ui/listbox.hpp Pages: 1 -->
<svg width="1264pt" height="386pt"
 viewBox="0.00 0.00 1264.00 386.00" xmlns="http://www.w3.org/2000/svg" xmlns:xlink="http://www.w3.org/1999/xlink">
<g id="graph0" class="graph" transform="scale(1 1) rotate(0) translate(4 382)">
<title>boost/ui/listbox.hpp</title>
<polygon fill="white" stroke="none" points="-4,4 -4,-382 1260,-382 1260,4 -4,4"/>
<!-- Node1 -->
<g id="node1" class="node"><title>Node1</title>
<polygon fill="#bfbfbf" stroke="black" points="864,-358.5 864,-377.5 965,-377.5 965,-358.5 864,-358.5"/>
<text text-anchor="middle" x="914.5" y="-365.5" font-family="Helvetica,sans-Serif" font-size="10.00">boost/ui/listbox.hpp</text>
</g>
<!-- Node2 -->
<g id="node2" class="node"><title>Node2</title>
<g id="a_node2"><a xlink:href="config_8hpp.html" target="_top" xlink:title="Configuration options. ">
<polygon fill="white" stroke="black" points="685,-62 685,-81 784,-81 784,-62 685,-62"/>
<text text-anchor="middle" x="734.5" y="-69" font-family="Helvetica,sans-Serif" font-size="10.00">boost/ui/config.hpp</text>
</a>
</g>
</g>
<!-- Node1&#45;&gt;Node2 -->
<g id="edge1" class="edge"><title>Node1&#45;&gt;Node2</title>
<path fill="none" stroke="midnightblue" d="M863.641,-365.287C745.693,-359.934 463.5,-338.601 463.5,-257 463.5,-257 463.5,-257 463.5,-193.5 463.5,-141.986 509.442,-146.073 555.5,-123 567.789,-116.844 642.917,-96.5366 691.856,-83.6259"/>
<polygon fill="midnightblue" stroke="midnightblue" points="692.789,-86.9997 701.569,-81.0699 691.008,-80.2301 692.789,-86.9997"/>
</g>
<!-- Node4 -->
<g id="node4" class="node"><title>Node4</title>
<g id="a_node4"><a xlink:href="stringsbox_8hpp.html" target="_top" xlink:title="Widget with array of strings. ">
<polygon fill="white" stroke="black" points="749.5,-302.5 749.5,-321.5 867.5,-321.5 867.5,-302.5 749.5,-302.5"/>
<text text-anchor="middle" x="808.5" y="-309.5" font-family="Helvetica,sans-Serif" font-size="10.00">boost/ui/stringsbox.hpp</text>
</a>
</g>
</g>
<!-- Node1&#45;&gt;Node4 -->
<g id="edge3" class="edge"><title>Node1&#45;&gt;Node4</title>
<path fill="none" stroke="midnightblue" d="M897.469,-358.324C880.47,-349.664 854.124,-336.242 834.507,-326.249"/>
<polygon fill="midnightblue" stroke="midnightblue" points="835.988,-323.075 825.488,-321.655 832.81,-329.312 835.988,-323.075"/>
</g>
<!-- Node22 -->
<g id="node22" class="node"><title>Node22</title>
<polygon fill="white" stroke="#bfbfbf" points="491.5,-246.5 491.5,-265.5 535.5,-265.5 535.5,-246.5 491.5,-246.5"/>
<text text-anchor="middle" x="513.5" y="-253.5" font-family="Helvetica,sans-Serif" font-size="10.00">vector</text>
</g>
<!-- Node1&#45;&gt;Node22 -->
<g id="edge38" class="edge"><title>Node1&#45;&gt;Node22</title>
<path fill="none" stroke="midnightblue" d="M863.735,-358.919C818.405,-351.182 750.421,-338.29 692.5,-322 639.055,-306.969 578.706,-283.69 543.506,-269.45"/>
<polygon fill="midnightblue" stroke="midnightblue" points="544.429,-266.047 533.848,-265.514 541.788,-272.529 544.429,-266.047"/>
</g>
<!-- Node23 -->
<g id="node23" class="node"><title>Node23</title>
<polygon fill="white" stroke="#bfbfbf" points="554,-246.5 554,-265.5 667,-265.5 667,-246.5 554,-246.5"/>
<text text-anchor="middle" x="610.5" y="-253.5" font-family="Helvetica,sans-Serif" font-size="10.00">boost/range/begin.hpp</text>
</g>
<!-- Node1&#45;&gt;Node23 -->
<g id="edge39" class="edge"><title>Node1&#45;&gt;Node23</title>
<path fill="none" stroke="midnightblue" d="M871.176,-358.456C835.492,-350.791 783.892,-338.252 740.5,-322 701.946,-307.56 659.73,-285.124 634.181,-270.749"/>
<polygon fill="midnightblue" stroke="midnightblue" points="635.67,-267.57 625.247,-265.668 632.209,-273.654 635.67,-267.57"/>
</g>
<!-- Node24 -->
<g id="node24" class="node"><title>Node24</title>
<polygon fill="white" stroke="#bfbfbf" points="843,-246.5 843,-265.5 948,-265.5 948,-246.5 843,-246.5"/>
<text text-anchor="middle" x="895.5" y="-253.5" font-family="Helvetica,sans-Serif" font-size="10.00">boost/range/end.hpp</text>
</g>
<!-- Node1&#45;&gt;Node24 -->
<g id="edge40" class="edge"><title>Node1&#45;&gt;Node24</title>
<path fill="none" stroke="midnightblue" d="M913.009,-358.368C909.943,-340.617 902.87,-299.666 898.712,-275.597"/>
<polygon fill="midnightblue" stroke="midnightblue" points="902.135,-274.85 896.984,-265.591 895.237,-276.041 902.135,-274.85"/>
</g>
<!-- Node25 -->
<g id="node25" class="node"><title>Node25</title>
<polygon fill="white" stroke="#bfbfbf" points="966,-246.5 966,-265.5 1073,-265.5 1073,-246.5 966,-246.5"/>
<text text-anchor="middle" x="1019.5" y="-253.5" font-family="Helvetica,sans-Serif" font-size="10.00">boost/range/size.hpp</text>
</g>
<!-- Node1&#45;&gt;Node25 -->
<g id="edge41" class="edge"><title>Node1&#45;&gt;Node25</title>
<path fill="none" stroke="midnightblue" d="M918.932,-358.305C925.92,-345.136 940.469,-319.787 957.5,-302 968.973,-290.018 983.984,-279.03 996.361,-270.911"/>
<polygon fill="midnightblue" stroke="midnightblue" points="998.259,-273.852 1004.82,-265.533 994.504,-267.944 998.259,-273.852"/>
</g>
<!-- Node26 -->
<g id="node26" class="node"><title>Node26</title>
<polygon fill="white" stroke="#bfbfbf" points="1090.5,-246.5 1090.5,-265.5 1146.5,-265.5 1146.5,-246.5 1090.5,-246.5"/>
<text text-anchor="middle" x="1118.5" y="-253.5" font-family="Helvetica,sans-Serif" font-size="10.00">algorithm</text>
</g>
<!-- Node1&#45;&gt;Node26 -->
<g id="edge42" class="edge"><title>Node1&#45;&gt;Node26</title>
<path fill="none" stroke="midnightblue" d="M923.26,-358.335C937.4,-344.746 966.602,-318.297 995.5,-302 1022.31,-286.882 1055.15,-275.171 1080.16,-267.49"/>
<polygon fill="midnightblue" stroke="midnightblue" points="1081.43,-270.763 1090.01,-264.547 1079.42,-264.056 1081.43,-270.763"/>
</g>
<!-- Node27 -->
<g id="node27" class="node"><title>Node27</title>
<polygon fill="white" stroke="#bfbfbf" points="1165,-246.5 1165,-265.5 1212,-265.5 1212,-246.5 1165,-246.5"/>
<text text-anchor="middle" x="1188.5" y="-253.5" font-family="Helvetica,sans-Serif" font-size="10.00">iterator</text>
</g>
<!-- Node1&#45;&gt;Node27 -->
<g id="edge43" class="edge"><title>Node1&#45;&gt;Node27</title>
<path fill="none" stroke="midnightblue" d="M930.431,-358.38C946.838,-349.449 973.101,-335.003 995.5,-322 1010.33,-313.39 1012.77,-308.829 1028.5,-302 1034.41,-299.436 1109.86,-278.57 1155.01,-266.171"/>
<polygon fill="midnightblue" stroke="midnightblue" points="1155.97,-269.536 1164.69,-263.514 1154.12,-262.785 1155.97,-269.536"/>
</g>
<!-- Node28 -->
<g id="node28" class="node"><title>Node28</title>
<polygon fill="white" stroke="#bfbfbf" points="1038,-302.5 1038,-321.5 1137,-321.5 1137,-302.5 1038,-302.5"/>
<text text-anchor="middle" x="1087.5" y="-309.5" font-family="Helvetica,sans-Serif" font-size="10.00">boost/ui/config.hpp</text>
</g>
<!-- Node1&#45;&gt;Node28 -->
<g id="edge36" class="edge"><title>Node1&#45;&gt;Node28</title>
<path fill="none" stroke="midnightblue" d="M941.912,-358.444C971.269,-349.28 1018.02,-334.688 1050.6,-324.519"/>
<polygon fill="midnightblue" stroke="midnightblue" points="1051.71,-327.837 1060.22,-321.516 1049.63,-321.155 1051.71,-327.837"/>
</g>
<!-- Node29 -->
<g id="node29" class="node"><title>Node29</title>
<polygon fill="white" stroke="#bfbfbf" points="1155,-302.5 1155,-321.5 1256,-321.5 1256,-302.5 1155,-302.5"/>
<text text-anchor="middle" x="1205.5" y="-309.5" font-family="Helvetica,sans-Serif" font-size="10.00">boost/ui/widget.hpp</text>
</g>
<!-- Node1&#45;&gt;Node29 -->
<g id="edge37" class="edge"><title>Node1&#45;&gt;Node29</title>
<path fill="none" stroke="midnightblue" d="M960.61,-358.444C1011.91,-348.925 1094.77,-333.547 1149.69,-323.356"/>
<polygon fill="midnightblue" stroke="midnightblue" points="1150.41,-326.782 1159.61,-321.516 1149.14,-319.9 1150.41,-326.782"/>
</g>
<!-- Node3 -->
<g id="node3" class="node"><title>Node3</title>
<polygon fill="white" stroke="#bfbfbf" points="690,-0.5 690,-19.5 779,-19.5 779,-0.5 690,-0.5"/>
<text text-anchor="middle" x="734.5" y="-7.5" font-family="Helvetica,sans-Serif" font-size="10.00">boost/config.hpp</text>
</g>
<!-- Node2&#45;&gt;Node3 -->
<g id="edge2" class="edge"><title>Node2&#45;&gt;Node3</title>
<path fill="none" stroke="midnightblue" d="M734.5,-61.9751C734.5,-53.5803 734.5,-40.4806 734.5,-29.6631"/>
<polygon fill="midnightblue" stroke="midnightblue" points="738,-29.5091 734.5,-19.5091 731,-29.5091 738,-29.5091"/>
</g>
<!-- Node4&#45;&gt;Node2 -->
<g id="edge4" class="edge"><title>Node4&#45;&gt;Node2</title>
<path fill="none" stroke="midnightblue" d="M790.056,-302.353C771.05,-293.4 740.6,-278.936 714.5,-266 697.047,-257.349 692.971,-254.615 675.5,-246 641.978,-229.47 626.882,-235.439 599.5,-210 574.419,-186.699 570.233,-176.101 561.5,-143 559.232,-134.405 556.167,-130.112 561.5,-123 565.517,-117.643 641.536,-96.8648 691.455,-83.688"/>
<polygon fill="midnightblue" stroke="midnightblue" points="692.588,-87.0091 701.368,-81.0803 690.807,-80.2394 692.588,-87.0091"/>
</g>
<!-- Node5 -->
<g id="node5" class="node"><title>Node5</title>
<g id="a_node5"><a xlink:href="widget_8hpp.html" target="_top" xlink:title="Widget class. ">
<polygon fill="white" stroke="black" points="724,-246.5 724,-265.5 825,-265.5 825,-246.5 724,-246.5"/>
<text text-anchor="middle" x="774.5" y="-253.5" font-family="Helvetica,sans-Serif" font-size="10.00">boost/ui/widget.hpp</text>
</a>
</g>
</g>
<!-- Node4&#45;&gt;Node5 -->
<g id="edge5" class="edge"><title>Node4&#45;&gt;Node5</title>
<path fill="none" stroke="midnightblue" d="M802.886,-302.083C798.133,-294.534 791.182,-283.495 785.348,-274.23"/>
<polygon fill="midnightblue" stroke="midnightblue" points="788.3,-272.349 780.01,-265.751 782.376,-276.078 788.3,-272.349"/>
</g>
<!-- Node4&#45;&gt;Node22 -->
<g id="edge30" class="edge"><title>Node4&#45;&gt;Node22</title>
<path fill="none" stroke="midnightblue" d="M749.401,-302.892C697.956,-295.39 621.226,-283.133 545.906,-266.115"/>
<polygon fill="midnightblue" stroke="midnightblue" points="546.301,-262.615 535.772,-263.794 544.738,-269.439 546.301,-262.615"/>
</g>
<!-- Node4&#45;&gt;Node23 -->
<g id="edge31" class="edge"><title>Node4&#45;&gt;Node23</title>
<path fill="none" stroke="midnightblue" d="M777.126,-302.444C743.237,-293.201 689.097,-278.436 651.776,-268.257"/>
<polygon fill="midnightblue" stroke="midnightblue" points="652.295,-264.771 641.727,-265.516 650.454,-271.524 652.295,-264.771"/>
</g>
<!-- Node4&#45;&gt;Node24 -->
<g id="edge32" class="edge"><title>Node4&#45;&gt;Node24</title>
<path fill="none" stroke="midnightblue" d="M822.478,-302.324C836.05,-293.9 856.88,-280.971 872.825,-271.074"/>
<polygon fill="midnightblue" stroke="midnightblue" points="874.906,-273.902 881.557,-265.655 871.214,-267.954 874.906,-273.902"/>
</g>
<!-- Node4&#45;&gt;Node25 -->
<g id="edge33" class="edge"><title>Node4&#45;&gt;Node25</title>
<path fill="none" stroke="midnightblue" d="M841.934,-302.444C878.356,-293.122 936.73,-278.183 976.529,-267.997"/>
<polygon fill="midnightblue" stroke="midnightblue" points="977.403,-271.387 986.223,-265.516 975.667,-264.605 977.403,-271.387"/>
</g>
<!-- Node4&#45;&gt;Node26 -->
<g id="edge34" class="edge"><title>Node4&#45;&gt;Node26</title>
<path fill="none" stroke="midnightblue" d="M867.58,-302.574C920.759,-294.692 1001.26,-282.028 1080.15,-266.153"/>
<polygon fill="midnightblue" stroke="midnightblue" points="1081.16,-269.52 1090.27,-264.099 1079.77,-262.66 1081.16,-269.52"/>
</g>
<!-- Node4&#45;&gt;Node27 -->
<g id="edge35" class="edge"><title>Node4&#45;&gt;Node27</title>
<path fill="none" stroke="midnightblue" d="M867.536,-305.836C934.81,-299.395 1048.16,-286.855 1154.83,-265.872"/>
<polygon fill="midnightblue" stroke="midnightblue" points="1155.68,-269.272 1164.8,-263.882 1154.31,-262.407 1155.68,-269.272"/>
</g>
<!-- Node5&#45;&gt;Node2 -->
<g id="edge6" class="edge"><title>Node5&#45;&gt;Node2</title>
<path fill="none" stroke="midnightblue" d="M769.503,-246.343C764.631,-237.501 757.404,-223.23 753.5,-210 741.32,-168.726 736.887,-118.129 735.32,-91.2983"/>
<polygon fill="midnightblue" stroke="midnightblue" points="738.803,-90.864 734.797,-81.0556 731.812,-91.2212 738.803,-90.864"/>
</g>
<!-- Node6 -->
<g id="node6" class="node"><title>Node6</title>
<g id="a_node6"><a xlink:href="coord_8hpp.html" target="_top" xlink:title="Coordinates classes. ">
<polygon fill="white" stroke="black" points="338,-123.5 338,-142.5 435,-142.5 435,-123.5 338,-123.5"/>
<text text-anchor="middle" x="386.5" y="-130.5" font-family="Helvetica,sans-Serif" font-size="10.00">boost/ui/coord.hpp</text>
</a>
</g>
</g>
<!-- Node5&#45;&gt;Node6 -->
<g id="edge7" class="edge"><title>Node5&#45;&gt;Node6</title>
<path fill="none" stroke="midnightblue" d="M737.356,-246.487C701.743,-238.081 646.592,-224.423 599.5,-210 534.125,-189.977 459.131,-162.028 417.855,-146.201"/>
<polygon fill="midnightblue" stroke="midnightblue" points="418.946,-142.871 408.357,-142.544 416.432,-149.403 418.946,-142.871"/>
</g>
<!-- Node12 -->
<g id="node12" class="node"><title>Node12</title>
<g id="a_node12"><a xlink:href="string_8hpp.html" target="_top" xlink:title="String class and operations. ">
<polygon fill="white" stroke="black" points="1040,-123.5 1040,-142.5 1137,-142.5 1137,-123.5 1040,-123.5"/>
<text text-anchor="middle" x="1088.5" y="-130.5" font-family="Helvetica,sans-Serif" font-size="10.00">boost/ui/string.hpp</text>
</a>
</g>
</g>
<!-- Node5&#45;&gt;Node12 -->
<g id="edge14" class="edge"><title>Node5&#45;&gt;Node12</title>
<path fill="none" stroke="midnightblue" d="M825.021,-247.226C827.889,-246.806 830.73,-246.394 833.5,-246 893.862,-237.402 1065.31,-255.855 1105.5,-210 1119.65,-193.85 1109.7,-168.485 1100.11,-151.557"/>
<polygon fill="midnightblue" stroke="midnightblue" points="1102.89,-149.399 1094.68,-142.697 1096.92,-153.054 1102.89,-149.399"/>
</g>
<!-- Node16 -->
<g id="node16" class="node"><title>Node16</title>
<g id="a_node16"><a xlink:href="event_8hpp.html" target="_top" xlink:title="Event classes. ">
<polygon fill="white" stroke="black" points="609,-185 609,-204 706,-204 706,-185 609,-185"/>
<text text-anchor="middle" x="657.5" y="-192" font-family="Helvetica,sans-Serif" font-size="10.00">boost/ui/event.hpp</text>
</a>
</g>
</g>
<!-- Node5&#45;&gt;Node16 -->
<g id="edge19" class="edge"><title>Node5&#45;&gt;Node16</title>
<path fill="none" stroke="midnightblue" d="M757.737,-246.475C738.275,-236.578 705.955,-220.142 683.289,-208.615"/>
<polygon fill="midnightblue" stroke="midnightblue" points="684.732,-205.422 674.232,-204.009 681.559,-211.662 684.732,-205.422"/>
</g>
<!-- Node18 -->
<g id="node18" class="node"><title>Node18</title>
<g id="a_node18"><a xlink:href="font_8hpp.html" target="_top" xlink:title="Font class. ">
<polygon fill="white" stroke="black" points="1008,-185 1008,-204 1097,-204 1097,-185 1008,-185"/>
<text text-anchor="middle" x="1052.5" y="-192" font-family="Helvetica,sans-Serif" font-size="10.00">boost/ui/font.hpp</text>
</a>
</g>
</g>
<!-- Node5&#45;&gt;Node18 -->
<g id="edge23" class="edge"><title>Node5&#45;&gt;Node18</title>
<path fill="none" stroke="midnightblue" d="M821.453,-246.474C866.907,-238.007 937.676,-224.26 998.5,-210 1002.93,-208.962 1007.54,-207.819 1012.12,-206.644"/>
<polygon fill="midnightblue" stroke="midnightblue" points="1013.24,-209.969 1022.03,-204.048 1011.47,-203.197 1013.24,-209.969"/>
</g>
<!-- Node20 -->
<g id="node20" class="node"><title>Node20</title>
<g id="a_node20"><a xlink:href="layout_8hpp.html" target="_top" xlink:title="Layout classes. ">
<polygon fill="white" stroke="black" points="891,-185 891,-204 990,-204 990,-185 891,-185"/>
<text text-anchor="middle" x="940.5" y="-192" font-family="Helvetica,sans-Serif" font-size="10.00">boost/ui/layout.hpp</text>
</a>
</g>
</g>
<!-- Node5&#45;&gt;Node20 -->
<g id="edge27" class="edge"><title>Node5&#45;&gt;Node20</title>
<path fill="none" stroke="midnightblue" d="M798.284,-246.475C826.882,-236.225 875.051,-218.959 907.302,-207.399"/>
<polygon fill="midnightblue" stroke="midnightblue" points="908.528,-210.678 916.76,-204.009 906.166,-204.089 908.528,-210.678"/>
</g>
<!-- Node21 -->
<g id="node21" class="node"><title>Node21</title>
<polygon fill="white" stroke="#bfbfbf" points="762.5,-179.5 762.5,-209.5 872.5,-209.5 872.5,-179.5 762.5,-179.5"/>
<text text-anchor="start" x="770.5" y="-197.5" font-family="Helvetica,sans-Serif" font-size="10.00">boost/ui/detail/shared</text>
<text text-anchor="middle" x="817.5" y="-186.5" font-family="Helvetica,sans-Serif" font-size="10.00">_count.hpp</text>
</g>
<!-- Node5&#45;&gt;Node21 -->
<g id="edge29" class="edge"><title>Node5&#45;&gt;Node21</title>
<path fill="none" stroke="midnightblue" d="M780.661,-246.475C786.049,-239.019 794.12,-227.852 801.335,-217.869"/>
<polygon fill="midnightblue" stroke="midnightblue" points="804.345,-219.678 807.366,-209.523 798.672,-215.578 804.345,-219.678"/>
</g>
<!-- Node6&#45;&gt;Node2 -->
<g id="edge8" class="edge"><title>Node6&#45;&gt;Node2</title>
<path fill="none" stroke="midnightblue" d="M435.068,-124.958C504.977,-114.733 630.503,-96.0149 675.5,-87 680.865,-85.9251 686.478,-84.6905 692.019,-83.4049"/>
<polygon fill="midnightblue" stroke="midnightblue" points="692.931,-86.7858 701.845,-81.0595 691.306,-79.9771 692.931,-86.7858"/>
</g>
<!-- Node7 -->
<g id="node7" class="node"><title>Node7</title>
<polygon fill="white" stroke="#bfbfbf" points="411,-62 411,-81 514,-81 514,-62 411,-62"/>
<text text-anchor="middle" x="462.5" y="-69" font-family="Helvetica,sans-Serif" font-size="10.00">boost/geometry.hpp</text>
</g>
<!-- Node6&#45;&gt;Node7 -->
<g id="edge9" class="edge"><title>Node6&#45;&gt;Node7</title>
<path fill="none" stroke="midnightblue" d="M397.389,-123.475C409.466,-114.02 429.167,-98.5961 443.74,-87.1871"/>
<polygon fill="midnightblue" stroke="midnightblue" points="445.915,-89.9295 451.631,-81.0091 441.6,-84.4177 445.915,-89.9295"/>
</g>
<!-- Node8 -->
<g id="node8" class="node"><title>Node8</title>
<polygon fill="white" stroke="#bfbfbf" points="532,-56.5 532,-86.5 667,-86.5 667,-56.5 532,-56.5"/>
<text text-anchor="start" x="540" y="-74.5" font-family="Helvetica,sans-Serif" font-size="10.00">boost/geometry/geometries</text>
<text text-anchor="middle" x="599.5" y="-63.5" font-family="Helvetica,sans-Serif" font-size="10.00">/point_xy.hpp</text>
</g>
<!-- Node6&#45;&gt;Node8 -->
<g id="edge10" class="edge"><title>Node6&#45;&gt;Node8</title>
<path fill="none" stroke="midnightblue" d="M417.018,-123.475C448.899,-114.569 499.734,-100.369 539.663,-89.2151"/>
<polygon fill="midnightblue" stroke="midnightblue" points="540.611,-92.5844 549.3,-86.523 538.727,-85.8425 540.611,-92.5844"/>
</g>
<!-- Node9 -->
<g id="node9" class="node"><title>Node9</title>
<polygon fill="white" stroke="#bfbfbf" points="0,-56.5 0,-86.5 135,-86.5 135,-56.5 0,-56.5"/>
<text text-anchor="start" x="8" y="-74.5" font-family="Helvetica,sans-Serif" font-size="10.00">boost/geometry/geometries</text>
<text text-anchor="middle" x="67.5" y="-63.5" font-family="Helvetica,sans-Serif" font-size="10.00">/box.hpp</text>
</g>
<!-- Node6&#45;&gt;Node9 -->
<g id="edge11" class="edge"><title>Node6&#45;&gt;Node9</title>
<path fill="none" stroke="midnightblue" d="M339.901,-123.448C293.077,-114.837 218.557,-101.086 144.948,-87.2671"/>
<polygon fill="midnightblue" stroke="midnightblue" points="145.516,-83.8127 135.041,-85.4058 144.223,-90.6923 145.516,-83.8127"/>
</g>
<!-- Node10 -->
<g id="node10" class="node"><title>Node10</title>
<polygon fill="white" stroke="#bfbfbf" points="153,-56.5 153,-86.5 254,-86.5 254,-56.5 153,-56.5"/>
<text text-anchor="start" x="161" y="-74.5" font-family="Helvetica,sans-Serif" font-size="10.00">boost/polygon/point</text>
<text text-anchor="middle" x="203.5" y="-63.5" font-family="Helvetica,sans-Serif" font-size="10.00">_data.hpp</text>
</g>
<!-- Node6&#45;&gt;Node10 -->
<g id="edge12" class="edge"><title>Node6&#45;&gt;Node10</title>
<path fill="none" stroke="midnightblue" d="M360.281,-123.475C333.295,-114.701 290.503,-100.788 256.439,-89.7123"/>
<polygon fill="midnightblue" stroke="midnightblue" points="257.222,-86.2866 246.629,-86.523 255.057,-92.9436 257.222,-86.2866"/>
</g>
<!-- Node11 -->
<g id="node11" class="node"><title>Node11</title>
<polygon fill="white" stroke="#bfbfbf" points="272.5,-56.5 272.5,-86.5 392.5,-86.5 392.5,-56.5 272.5,-56.5"/>
<text text-anchor="start" x="280.5" y="-74.5" font-family="Helvetica,sans-Serif" font-size="10.00">boost/polygon/rectangle</text>
<text text-anchor="middle" x="332.5" y="-63.5" font-family="Helvetica,sans-Serif" font-size="10.00">_data.hpp</text>
</g>
<!-- Node6&#45;&gt;Node11 -->
<g id="edge13" class="edge"><title>Node6&#45;&gt;Node11</title>
<path fill="none" stroke="midnightblue" d="M378.763,-123.475C371.791,-115.793 361.244,-104.172 351.98,-93.9643"/>
<polygon fill="midnightblue" stroke="midnightblue" points="354.539,-91.5758 345.227,-86.523 349.356,-96.2802 354.539,-91.5758"/>
</g>
<!-- Node12&#45;&gt;Node2 -->
<g id="edge15" class="edge"><title>Node12&#45;&gt;Node2</title>
<path fill="none" stroke="midnightblue" d="M1039.65,-123.789C975.694,-113.04 863.628,-94.2037 794.559,-82.5946"/>
<polygon fill="midnightblue" stroke="midnightblue" points="794.716,-79.072 784.274,-80.866 793.556,-85.9752 794.716,-79.072"/>
</g>
<!-- Node13 -->
<g id="node13" class="node"><title>Node13</title>
<polygon fill="white" stroke="#bfbfbf" points="993,-62 993,-81 1034,-81 1034,-62 993,-62"/>
<text text-anchor="middle" x="1013.5" y="-69" font-family="Helvetica,sans-Serif" font-size="10.00">string</text>
</g>
<!-- Node12&#45;&gt;Node13 -->
<g id="edge16" class="edge"><title>Node12&#45;&gt;Node13</title>
<path fill="none" stroke="midnightblue" d="M1077.75,-123.475C1065.95,-114.108 1046.76,-98.8839 1032.42,-87.5081"/>
<polygon fill="midnightblue" stroke="midnightblue" points="1034.24,-84.4822 1024.23,-81.0091 1029.88,-89.9661 1034.24,-84.4822"/>
</g>
<!-- Node14 -->
<g id="node14" class="node"><title>Node14</title>
<polygon fill="white" stroke="#bfbfbf" points="1052,-62 1052,-81 1125,-81 1125,-62 1052,-62"/>
<text text-anchor="middle" x="1088.5" y="-69" font-family="Helvetica,sans-Serif" font-size="10.00">initializer_list</text>
</g>
<!-- Node12&#45;&gt;Node14 -->
<g id="edge17" class="edge"><title>Node12&#45;&gt;Node14</title>
<path fill="none" stroke="midnightblue" d="M1088.5,-123.475C1088.5,-115.08 1088.5,-101.981 1088.5,-91.1631"/>
<polygon fill="midnightblue" stroke="midnightblue" points="1092,-91.0091 1088.5,-81.0091 1085,-91.0091 1092,-91.0091"/>
</g>
<!-- Node15 -->
<g id="node15" class="node"><title>Node15</title>
<polygon fill="white" stroke="#bfbfbf" points="1143,-62 1143,-81 1202,-81 1202,-62 1143,-62"/>
<text text-anchor="middle" x="1172.5" y="-69" font-family="Helvetica,sans-Serif" font-size="10.00">functional</text>
</g>
<!-- Node12&#45;&gt;Node15 -->
<g id="edge18" class="edge"><title>Node12&#45;&gt;Node15</title>
<path fill="none" stroke="midnightblue" d="M1100.54,-123.475C1114.01,-113.931 1136.07,-98.3073 1152.22,-86.8683"/>
<polygon fill="midnightblue" stroke="midnightblue" points="1154.35,-89.6454 1160.49,-81.0091 1150.3,-83.9332 1154.35,-89.6454"/>
</g>
<!-- Node16&#45;&gt;Node2 -->
<g id="edge20" class="edge"><title>Node16&#45;&gt;Node2</title>
<path fill="none" stroke="midnightblue" d="M663.038,-184.798C675.691,-164.914 706.912,-115.852 723.588,-89.6471"/>
<polygon fill="midnightblue" stroke="midnightblue" points="726.597,-91.4389 729.013,-81.1232 720.691,-87.6807 726.597,-91.4389"/>
</g>
<!-- Node16&#45;&gt;Node6 -->
<g id="edge21" class="edge"><title>Node16&#45;&gt;Node6</title>
<path fill="none" stroke="midnightblue" d="M620.874,-184.984C612.23,-182.999 603.044,-180.907 594.5,-179 540.701,-166.99 478.961,-153.694 436.809,-144.691"/>
<polygon fill="midnightblue" stroke="midnightblue" points="437.308,-141.218 426.798,-142.554 435.847,-148.064 437.308,-141.218"/>
</g>
<!-- Node17 -->
<g id="node17" class="node"><title>Node17</title>
<polygon fill="white" stroke="#bfbfbf" points="571,-123.5 571,-142.5 668,-142.5 668,-123.5 571,-123.5"/>
<text text-anchor="middle" x="619.5" y="-130.5" font-family="Helvetica,sans-Serif" font-size="10.00">boost/function.hpp</text>
</g>
<!-- Node16&#45;&gt;Node17 -->
<g id="edge22" class="edge"><title>Node16&#45;&gt;Node17</title>
<path fill="none" stroke="midnightblue" d="M652.056,-184.975C646.412,-176.138 637.439,-162.089 630.341,-150.975"/>
<polygon fill="midnightblue" stroke="midnightblue" points="633.267,-149.053 624.934,-142.509 627.367,-152.821 633.267,-149.053"/>
</g>
<!-- Node18&#45;&gt;Node2 -->
<g id="edge24" class="edge"><title>Node18&#45;&gt;Node2</title>
<path fill="none" stroke="midnightblue" d="M1047.73,-184.936C1038.82,-169.792 1018.1,-138.434 991.5,-123 930.535,-87.625 849.173,-76.5744 794.468,-73.3608"/>
<polygon fill="midnightblue" stroke="midnightblue" points="794.402,-69.8529 784.235,-72.8327 794.042,-76.8436 794.402,-69.8529"/>
</g>
<!-- Node18&#45;&gt;Node12 -->
<g id="edge25" class="edge"><title>Node18&#45;&gt;Node12</title>
<path fill="none" stroke="midnightblue" d="M1057.66,-184.975C1062.95,-176.227 1071.34,-162.369 1078.03,-151.309"/>
<polygon fill="midnightblue" stroke="midnightblue" points="1081.17,-152.877 1083.35,-142.509 1075.18,-149.253 1081.17,-152.877"/>
</g>
<!-- Node19 -->
<g id="node19" class="node"><title>Node19</title>
<polygon fill="white" stroke="#bfbfbf" points="838,-123.5 838,-142.5 983,-142.5 983,-123.5 838,-123.5"/>
<text text-anchor="middle" x="910.5" y="-130.5" font-family="Helvetica,sans-Serif" font-size="10.00">boost/core/scoped_enum.hpp</text>
</g>
<!-- Node18&#45;&gt;Node19 -->
<g id="edge26" class="edge"><title>Node18&#45;&gt;Node19</title>
<path fill="none" stroke="midnightblue" d="M1032.15,-184.975C1008.11,-174.901 967.903,-158.053 940.337,-146.502"/>
<polygon fill="midnightblue" stroke="midnightblue" points="941.383,-143.146 930.807,-142.509 938.678,-149.602 941.383,-143.146"/>
</g>
<!-- Node20&#45;&gt;Node2 -->
<g id="edge28" class="edge"><title>Node20&#45;&gt;Node2</title>
<path fill="none" stroke="midnightblue" d="M917.459,-184.844C894.288,-175.744 857.884,-160.357 828.5,-143 800.425,-126.416 770.762,-103.057 752.44,-87.8481"/>
<polygon fill="midnightblue" stroke="midnightblue" points="754.321,-84.8566 744.413,-81.1023 749.817,-90.2155 754.321,-84.8566"/>
</g>
</g>
</svg>
