<?xml version="1.0" encoding="UTF-8" standalone="no"?>
<!DOCTYPE svg PUBLIC "-//W3C//DTD SVG 1.1//EN"
 "http://www.w3.org/Graphics/SVG/1.1/DTD/svg11.dtd">
<!-- Generated by graphviz version 2.43.0 (0)
 -->
<!-- Title: boost/ui/list_box.hpp Pages: 1 -->
<svg width="5368pt" height="274pt"
 viewBox="0.00 0.00 5367.72 274.00" xmlns="http://www.w3.org/2000/svg" xmlns:xlink="http://www.w3.org/1999/xlink">
<g id="graph0" class="graph" transform="scale(1 1) rotate(0) translate(4 270)">
<title>boost/ui/list_box.hpp</title>
<polygon fill="white" stroke="transparent" points="-4,4 -4,-270 5363.72,-270 5363.72,4 -4,4"/>
<!-- Node1 -->
<g id="node1" class="node">
<title>Node1</title>
<g id="a_node1"><a xlink:title="List box widget.">
<polygon fill="#bfbfbf" stroke="black" points="1835.22,-246.5 1835.22,-265.5 1953.22,-265.5 1953.22,-246.5 1835.22,-246.5"/>
<text text-anchor="middle" x="1894.22" y="-253.5" font-family="Helvetica,sans-Serif" font-size="10.00">boost/ui/list_box.hpp</text>
</a>
</g>
</g>
<!-- Node2 -->
<g id="node2" class="node">
<title>Node2</title>
<g id="a_node2"><a xlink:href="config_8hpp.html" target="_top" xlink:title="Configuration options.">
<polygon fill="white" stroke="black" points="4951.72,-62 4951.72,-81 5060.72,-81 5060.72,-62 4951.72,-62"/>
<text text-anchor="middle" x="5006.22" y="-69" font-family="Helvetica,sans-Serif" font-size="10.00">boost/ui/config.hpp</text>
</a>
</g>
</g>
<!-- Node1&#45;&gt;Node2 -->
<g id="edge1" class="edge">
<title>Node1&#45;&gt;Node2</title>
<path fill="none" stroke="midnightblue" d="M1953.44,-254.56C2294.72,-251.92 4013.75,-237.43 4542.22,-210 4685.68,-202.55 5089.14,-259.89 5186.22,-154 5224.86,-111.85 5136.87,-90.04 5070.76,-79.95"/>
<polygon fill="midnightblue" stroke="midnightblue" points="5071.18,-76.47 5060.78,-78.48 5070.16,-83.4 5071.18,-76.47"/>
</g>
<!-- Node4 -->
<g id="node4" class="node">
<title>Node4</title>
<g id="a_node4"><a xlink:href="strings__box_8hpp.html" target="_top" xlink:title="Widget with array of strings.">
<polygon fill="white" stroke="red" points="2376.22,-190.5 2376.22,-209.5 2512.22,-209.5 2512.22,-190.5 2376.22,-190.5"/>
<text text-anchor="middle" x="2444.22" y="-197.5" font-family="Helvetica,sans-Serif" font-size="10.00">boost/ui/strings_box.hpp</text>
</a>
</g>
</g>
<!-- Node1&#45;&gt;Node4 -->
<g id="edge3" class="edge">
<title>Node1&#45;&gt;Node4</title>
<path fill="none" stroke="midnightblue" d="M1953.34,-249.2C2053.02,-239.41 2254.53,-219.62 2365.86,-208.69"/>
<polygon fill="midnightblue" stroke="midnightblue" points="2366.41,-212.16 2376.02,-207.7 2365.73,-205.19 2366.41,-212.16"/>
</g>
<!-- Node248 -->
<g id="node6" class="node">
<title>Node248</title>
<g id="a_node6"><a xlink:title=" ">
<polygon fill="white" stroke="#bfbfbf" points="205.72,-62 205.72,-81 314.72,-81 314.72,-62 205.72,-62"/>
<text text-anchor="middle" x="260.22" y="-69" font-family="Helvetica,sans-Serif" font-size="10.00">boost/ui/config.hpp</text>
</a>
</g>
</g>
<!-- Node1&#45;&gt;Node248 -->
<g id="edge63" class="edge">
<title>Node1&#45;&gt;Node248</title>
<path fill="none" stroke="midnightblue" d="M1834.98,-254.92C1530.44,-254.33 152.18,-249.5 71.22,-210 31.91,-190.82 -2.34,-156.96 25.22,-123 74.16,-62.69 120.35,-103.58 196.22,-87 201.65,-85.81 207.33,-84.55 212.97,-83.29"/>
<polygon fill="midnightblue" stroke="midnightblue" points="214.03,-86.64 223.02,-81.03 212.49,-79.81 214.03,-86.64"/>
</g>
<!-- Node151 -->
<g id="node9" class="node">
<title>Node151</title>
<g id="a_node9"><a xlink:title=" ">
<polygon fill="white" stroke="#bfbfbf" points="4869.22,-62 4869.22,-81 4933.22,-81 4933.22,-62 4869.22,-62"/>
<text text-anchor="middle" x="4901.22" y="-69" font-family="Helvetica,sans-Serif" font-size="10.00">algorithm</text>
</a>
</g>
</g>
<!-- Node1&#45;&gt;Node151 -->
<g id="edge69" class="edge">
<title>Node1&#45;&gt;Node151</title>
<path fill="none" stroke="midnightblue" d="M1953.3,-254.32C2390.17,-249.14 5103.74,-214.54 5161.22,-154 5216.07,-96.24 5181.99,-147.47 4943.22,-87 4940.01,-86.19 4936.69,-85.24 4933.39,-84.22"/>
<polygon fill="midnightblue" stroke="midnightblue" points="4934.27,-80.83 4923.68,-81.04 4932.09,-87.48 4934.27,-80.83"/>
</g>
<!-- Node156 -->
<g id="node12" class="node">
<title>Node156</title>
<g id="a_node12"><a xlink:title=" ">
<polygon fill="white" stroke="#bfbfbf" points="134.72,-62 134.72,-81 187.72,-81 187.72,-62 134.72,-62"/>
<text text-anchor="middle" x="161.22" y="-69" font-family="Helvetica,sans-Serif" font-size="10.00">iterator</text>
</a>
</g>
</g>
<!-- Node1&#45;&gt;Node156 -->
<g id="edge70" class="edge">
<title>Node1&#45;&gt;Node156</title>
<path fill="none" stroke="midnightblue" d="M1835.06,-254.44C1522.3,-251.38 74.35,-235.81 36.22,-210 3,-187.52 -11.15,-155.6 12.22,-123 37.53,-87.7 88.91,-76.77 124.19,-73.55"/>
<polygon fill="midnightblue" stroke="midnightblue" points="124.86,-77.01 134.57,-72.78 124.34,-70.03 124.86,-77.01"/>
</g>
<!-- Node235 -->
<g id="node14" class="node">
<title>Node235</title>
<g id="a_node14"><a xlink:title=" ">
<polygon fill="white" stroke="#bfbfbf" points="332.72,-62 332.72,-81 379.72,-81 379.72,-62 332.72,-62"/>
<text text-anchor="middle" x="356.22" y="-69" font-family="Helvetica,sans-Serif" font-size="10.00">vector</text>
</a>
</g>
</g>
<!-- Node1&#45;&gt;Node235 -->
<g id="edge65" class="edge">
<title>Node1&#45;&gt;Node235</title>
<path fill="none" stroke="midnightblue" d="M1835.16,-255.51C1636.54,-256.74 974.61,-256.81 430.22,-210 253.56,-194.81 151.47,-287.89 35.22,-154 26.19,-143.6 26.1,-133.33 35.22,-123 77.91,-74.65 261.05,-104.15 323.22,-87 325.38,-86.41 327.58,-85.69 329.76,-84.91"/>
<polygon fill="midnightblue" stroke="midnightblue" points="331.13,-88.13 339.1,-81.15 328.51,-81.64 331.13,-88.13"/>
</g>
<!-- Node158 -->
<g id="node17" class="node">
<title>Node158</title>
<g id="a_node17"><a xlink:title=" ">
<polygon fill="white" stroke="#bfbfbf" points="44.72,-129 44.72,-148 169.72,-148 169.72,-129 44.72,-129"/>
<text text-anchor="middle" x="107.22" y="-136" font-family="Helvetica,sans-Serif" font-size="10.00">boost/range/begin.hpp</text>
</a>
</g>
</g>
<!-- Node1&#45;&gt;Node158 -->
<g id="edge66" class="edge">
<title>Node1&#45;&gt;Node158</title>
<path fill="none" stroke="midnightblue" d="M1834.95,-254.52C1656.7,-252.73 1109.97,-244.57 658.22,-210 444.51,-193.64 390.91,-187.63 179.22,-154 171.87,-152.83 164.12,-151.44 156.54,-149.99"/>
<polygon fill="midnightblue" stroke="midnightblue" points="157.21,-146.56 146.73,-148.07 155.87,-153.43 157.21,-146.56"/>
</g>
<!-- Node159 -->
<g id="node20" class="node">
<title>Node159</title>
<g id="a_node20"><a xlink:title=" ">
<polygon fill="white" stroke="#bfbfbf" points="188.22,-129 188.22,-148 304.22,-148 304.22,-129 188.22,-129"/>
<text text-anchor="middle" x="246.22" y="-136" font-family="Helvetica,sans-Serif" font-size="10.00">boost/range/end.hpp</text>
</a>
</g>
</g>
<!-- Node1&#45;&gt;Node159 -->
<g id="edge67" class="edge">
<title>Node1&#45;&gt;Node159</title>
<path fill="none" stroke="midnightblue" d="M1834.91,-254.07C1626.16,-250.21 906.35,-231.71 318.22,-154 310.31,-152.95 301.97,-151.55 293.87,-150.03"/>
<polygon fill="midnightblue" stroke="midnightblue" points="294.29,-146.55 283.8,-148.06 292.94,-153.42 294.29,-146.55"/>
</g>
<!-- Node162 -->
<g id="node31" class="node">
<title>Node162</title>
<g id="a_node31"><a xlink:title=" ">
<polygon fill="white" stroke="#bfbfbf" points="5034.22,-129 5034.22,-148 5152.22,-148 5152.22,-129 5034.22,-129"/>
<text text-anchor="middle" x="5093.22" y="-136" font-family="Helvetica,sans-Serif" font-size="10.00">boost/range/size.hpp</text>
</a>
</g>
</g>
<!-- Node1&#45;&gt;Node162 -->
<g id="edge68" class="edge">
<title>Node1&#45;&gt;Node162</title>
<path fill="none" stroke="midnightblue" d="M1953.22,-254.46C2263.8,-251.35 3740.45,-232.88 4945.22,-154 4970.92,-152.32 4999.06,-149.74 5023.85,-147.23"/>
<polygon fill="midnightblue" stroke="midnightblue" points="5024.29,-150.7 5033.88,-146.2 5023.58,-143.74 5024.29,-150.7"/>
</g>
<!-- Node429 -->
<g id="node50" class="node">
<title>Node429</title>
<g id="a_node50"><a xlink:title=" ">
<polygon fill="white" stroke="#bfbfbf" points="5246.72,-190.5 5246.72,-209.5 5359.72,-209.5 5359.72,-190.5 5246.72,-190.5"/>
<text text-anchor="middle" x="5303.22" y="-197.5" font-family="Helvetica,sans-Serif" font-size="10.00">boost/ui/widget.hpp</text>
</a>
</g>
</g>
<!-- Node1&#45;&gt;Node429 -->
<g id="edge64" class="edge">
<title>Node1&#45;&gt;Node429</title>
<path fill="none" stroke="midnightblue" d="M1953.27,-255.11C2343.67,-255.74 4558.31,-257.1 5232.22,-210 5233.69,-209.9 5235.18,-209.78 5236.68,-209.66"/>
<polygon fill="midnightblue" stroke="midnightblue" points="5237.06,-213.14 5246.7,-208.75 5236.42,-206.17 5237.06,-213.14"/>
</g>
<!-- Node3 -->
<g id="node3" class="node">
<title>Node3</title>
<g id="a_node3"><a xlink:title=" ">
<polygon fill="white" stroke="#bfbfbf" points="781.72,-0.5 781.72,-19.5 878.72,-19.5 878.72,-0.5 781.72,-0.5"/>
<text text-anchor="middle" x="830.22" y="-7.5" font-family="Helvetica,sans-Serif" font-size="10.00">boost/config.hpp</text>
</a>
</g>
</g>
<!-- Node2&#45;&gt;Node3 -->
<g id="edge2" class="edge">
<title>Node2&#45;&gt;Node3</title>
<path fill="none" stroke="midnightblue" d="M4974.55,-61.93C4964.31,-59.54 4952.86,-57.25 4942.22,-56 4522.53,-6.73 1362.08,-10.1 889.32,-10.89"/>
<polygon fill="midnightblue" stroke="midnightblue" points="888.97,-7.39 878.97,-10.91 888.98,-14.39 888.97,-7.39"/>
</g>
<!-- Node4&#45;&gt;Node2 -->
<g id="edge4" class="edge">
<title>Node4&#45;&gt;Node2</title>
<path fill="none" stroke="midnightblue" d="M2512.5,-198.36C2904.03,-194.65 4848.47,-175.15 4906.22,-154 4942.47,-140.72 4975.24,-108.38 4992.79,-88.66"/>
<polygon fill="midnightblue" stroke="midnightblue" points="4995.45,-90.93 4999.34,-81.07 4990.15,-86.35 4995.45,-90.93"/>
</g>
<!-- Node4&#45;&gt;Node3 -->
<g id="edge23" class="edge">
<title>Node4&#45;&gt;Node3</title>
<path fill="none" stroke="midnightblue" d="M2376.1,-198.82C2041.49,-197.76 584.55,-191.02 496.22,-154 447.09,-133.41 391.71,-95.7 427.22,-56 449.73,-30.83 664.86,-18.11 771.25,-13.32"/>
<polygon fill="midnightblue" stroke="midnightblue" points="771.67,-16.8 781.5,-12.87 771.36,-9.81 771.67,-16.8"/>
</g>
<!-- Node5 -->
<g id="node5" class="node">
<title>Node5</title>
<g id="a_node5"><a xlink:href="widget_8hpp.html" target="_top" xlink:title="Widget class.">
<polygon fill="white" stroke="red" points="550.72,-129 550.72,-148 663.72,-148 663.72,-129 550.72,-129"/>
<text text-anchor="middle" x="607.22" y="-136" font-family="Helvetica,sans-Serif" font-size="10.00">boost/ui/widget.hpp</text>
</a>
</g>
</g>
<!-- Node4&#45;&gt;Node5 -->
<g id="edge5" class="edge">
<title>Node4&#45;&gt;Node5</title>
<path fill="none" stroke="midnightblue" d="M2375.78,-199.01C2092.62,-198.76 1011.75,-195.11 673.22,-154 665.69,-153.09 657.75,-151.71 650.1,-150.16"/>
<polygon fill="midnightblue" stroke="midnightblue" points="650.76,-146.72 640.25,-148.05 649.29,-153.57 650.76,-146.72"/>
</g>
<!-- Node87 -->
<g id="node7" class="node">
<title>Node87</title>
<g id="a_node7"><a xlink:title=" ">
<polygon fill="white" stroke="#bfbfbf" points="1081.22,-56.5 1081.22,-86.5 1191.22,-86.5 1191.22,-56.5 1081.22,-56.5"/>
<text text-anchor="start" x="1089.22" y="-74.5" font-family="Helvetica,sans-Serif" font-size="10.00">boost/preprocessor</text>
<text text-anchor="middle" x="1136.22" y="-63.5" font-family="Helvetica,sans-Serif" font-size="10.00">/cat.hpp</text>
</a>
</g>
</g>
<!-- Node4&#45;&gt;Node87 -->
<g id="edge58" class="edge">
<title>Node4&#45;&gt;Node87</title>
<path fill="none" stroke="midnightblue" d="M2512.41,-198.34C2896.79,-194.55 4776.67,-174.95 4797.22,-154 4806.87,-144.16 4806.9,-132.81 4797.22,-123 4780.78,-106.33 1691.35,-77.55 1201.36,-73.09"/>
<polygon fill="midnightblue" stroke="midnightblue" points="1201.3,-69.59 1191.27,-73 1201.24,-76.59 1201.3,-69.59"/>
</g>
<!-- Node260 -->
<g id="node8" class="node">
<title>Node260</title>
<g id="a_node8"><a xlink:title=" ">
<polygon fill="white" stroke="#bfbfbf" points="2991.72,-62 2991.72,-81 3148.72,-81 3148.72,-62 2991.72,-62"/>
<text text-anchor="middle" x="3070.22" y="-69" font-family="Helvetica,sans-Serif" font-size="10.00">boost/config/workaround.hpp</text>
</a>
</g>
</g>
<!-- Node4&#45;&gt;Node260 -->
<g id="edge24" class="edge">
<title>Node4&#45;&gt;Node260</title>
<path fill="none" stroke="midnightblue" d="M2512.41,-198.36C2900.03,-194.64 4809.36,-175.25 4830.22,-154 4839.87,-144.17 4839.82,-132.88 4830.22,-123 4815.51,-107.86 3514.46,-81.22 3159.06,-74.22"/>
<polygon fill="midnightblue" stroke="midnightblue" points="3158.89,-70.72 3148.82,-74.02 3158.75,-77.72 3158.89,-70.72"/>
</g>
<!-- Node4&#45;&gt;Node151 -->
<g id="edge62" class="edge">
<title>Node4&#45;&gt;Node151</title>
<path fill="none" stroke="midnightblue" d="M2512.28,-198.32C2904.61,-194.33 4860.74,-173.45 4884.22,-154 4902.28,-139.04 4904.28,-110.31 4903.32,-91.27"/>
<polygon fill="midnightblue" stroke="midnightblue" points="4906.79,-90.79 4902.48,-81.11 4899.81,-91.37 4906.79,-90.79"/>
</g>
<!-- Node9 -->
<g id="node10" class="node">
<title>Node9</title>
<g id="a_node10"><a xlink:title=" ">
<polygon fill="white" stroke="#bfbfbf" points="4057.72,-62 4057.72,-81 4110.72,-81 4110.72,-62 4057.72,-62"/>
<text text-anchor="middle" x="4084.22" y="-69" font-family="Helvetica,sans-Serif" font-size="10.00">cstddef</text>
</a>
</g>
</g>
<!-- Node4&#45;&gt;Node9 -->
<g id="edge35" class="edge">
<title>Node4&#45;&gt;Node9</title>
<path fill="none" stroke="midnightblue" d="M2512.26,-198.37C2901.19,-194.69 4826.2,-175.42 4847.22,-154 4856.87,-144.17 4856.64,-133.06 4847.22,-123 4822.11,-96.17 4269.57,-77.97 4120.82,-73.55"/>
<polygon fill="midnightblue" stroke="midnightblue" points="4120.92,-70.05 4110.82,-73.25 4120.71,-77.04 4120.92,-70.05"/>
</g>
<!-- Node277 -->
<g id="node11" class="node">
<title>Node277</title>
<g id="a_node11"><a xlink:title=" ">
<polygon fill="white" stroke="#bfbfbf" points="4574.22,-62 4574.22,-81 4628.22,-81 4628.22,-62 4574.22,-62"/>
<text text-anchor="middle" x="4601.22" y="-69" font-family="Helvetica,sans-Serif" font-size="10.00">wchar.h</text>
</a>
</g>
</g>
<!-- Node4&#45;&gt;Node277 -->
<g id="edge38" class="edge">
<title>Node4&#45;&gt;Node277</title>
<path fill="none" stroke="midnightblue" d="M2512.42,-198.38C2903.37,-194.73 4843.05,-175.57 4864.22,-154 4932.36,-84.59 4726.02,-74.03 4638.49,-72.62"/>
<polygon fill="midnightblue" stroke="midnightblue" points="4638.48,-69.12 4628.43,-72.49 4638.39,-76.12 4638.48,-69.12"/>
</g>
<!-- Node4&#45;&gt;Node156 -->
<g id="edge61" class="edge">
<title>Node4&#45;&gt;Node156</title>
<path fill="none" stroke="midnightblue" d="M2376.08,-198.49C2028.42,-195.74 464.94,-181.9 366.22,-154 339.96,-146.58 338.21,-133.97 313.22,-123 263.41,-101.12 247.41,-105.43 196.22,-87 194.37,-86.33 192.46,-85.62 190.55,-84.89"/>
<polygon fill="midnightblue" stroke="midnightblue" points="191.67,-81.56 181.08,-81.11 189.08,-88.07 191.67,-81.56"/>
</g>
<!-- Node53 -->
<g id="node13" class="node">
<title>Node53</title>
<g id="a_node13"><a xlink:title=" ">
<polygon fill="white" stroke="#bfbfbf" points="436.22,-56.5 436.22,-86.5 546.22,-86.5 546.22,-56.5 436.22,-56.5"/>
<text text-anchor="start" x="444.22" y="-74.5" font-family="Helvetica,sans-Serif" font-size="10.00">boost/type_traits/is</text>
<text text-anchor="middle" x="491.22" y="-63.5" font-family="Helvetica,sans-Serif" font-size="10.00">_array.hpp</text>
</a>
</g>
</g>
<!-- Node4&#45;&gt;Node53 -->
<g id="edge29" class="edge">
<title>Node4&#45;&gt;Node53</title>
<path fill="none" stroke="midnightblue" d="M2376.15,-198.45C2038.69,-195.59 559.72,-181.53 521.22,-154 502.99,-140.96 495.82,-115.59 493.01,-96.6"/>
<polygon fill="midnightblue" stroke="midnightblue" points="496.47,-96.08 491.83,-86.56 489.52,-96.9 496.47,-96.08"/>
</g>
<!-- Node4&#45;&gt;Node235 -->
<g id="edge19" class="edge">
<title>Node4&#45;&gt;Node235</title>
<path fill="none" stroke="midnightblue" d="M2376.1,-198.49C2025.24,-195.72 436.64,-181.69 394.22,-154 372.8,-140.02 363.23,-110.55 359.12,-91.15"/>
<polygon fill="midnightblue" stroke="midnightblue" points="362.52,-90.28 357.28,-81.08 355.64,-91.54 362.52,-90.28"/>
</g>
<!-- Node302 -->
<g id="node15" class="node">
<title>Node302</title>
<g id="a_node15"><a xlink:title=" ">
<polygon fill="white" stroke="#bfbfbf" points="564.22,-56.5 564.22,-86.5 674.22,-86.5 674.22,-56.5 564.22,-56.5"/>
<text text-anchor="start" x="572.22" y="-74.5" font-family="Helvetica,sans-Serif" font-size="10.00">boost/type_traits/is</text>
<text text-anchor="middle" x="619.22" y="-63.5" font-family="Helvetica,sans-Serif" font-size="10.00">_void.hpp</text>
</a>
</g>
</g>
<!-- Node4&#45;&gt;Node302 -->
<g id="edge32" class="edge">
<title>Node4&#45;&gt;Node302</title>
<path fill="none" stroke="midnightblue" d="M2376.02,-198.69C2038.75,-197 564.11,-187.67 531.22,-154 509.3,-131.56 543.65,-107.31 575.63,-91.15"/>
<polygon fill="midnightblue" stroke="midnightblue" points="577.51,-94.13 584.98,-86.61 574.45,-87.83 577.51,-94.13"/>
</g>
<!-- Node114 -->
<g id="node16" class="node">
<title>Node114</title>
<g id="a_node16"><a xlink:title=" ">
<polygon fill="white" stroke="#bfbfbf" points="692.22,-56.5 692.22,-86.5 802.22,-86.5 802.22,-56.5 692.22,-56.5"/>
<text text-anchor="start" x="700.22" y="-74.5" font-family="Helvetica,sans-Serif" font-size="10.00">boost/preprocessor</text>
<text text-anchor="middle" x="747.22" y="-63.5" font-family="Helvetica,sans-Serif" font-size="10.00">/config/config.hpp</text>
</a>
</g>
</g>
<!-- Node4&#45;&gt;Node114 -->
<g id="edge60" class="edge">
<title>Node4&#45;&gt;Node114</title>
<path fill="none" stroke="midnightblue" d="M2376.1,-198.68C2040.06,-196.95 573.93,-187.49 541.22,-154 531.59,-144.14 532.72,-133.84 541.22,-123 543.49,-120.11 622.77,-101.25 682.3,-87.42"/>
<polygon fill="midnightblue" stroke="midnightblue" points="683.09,-90.83 692.05,-85.16 681.51,-84.01 683.09,-90.83"/>
</g>
<!-- Node4&#45;&gt;Node158 -->
<g id="edge20" class="edge">
<title>Node4&#45;&gt;Node158</title>
<path fill="none" stroke="midnightblue" d="M2376.12,-199.29C2047.22,-200.43 620.88,-202.47 179.22,-154 170.66,-153.06 161.6,-151.61 152.9,-149.98"/>
<polygon fill="midnightblue" stroke="midnightblue" points="153.4,-146.51 142.91,-148 152.05,-153.37 153.4,-146.51"/>
</g>
<!-- Node44 -->
<g id="node18" class="node">
<title>Node44</title>
<g id="a_node18"><a xlink:title=" ">
<polygon fill="white" stroke="#bfbfbf" points="682.22,-129 682.22,-148 810.22,-148 810.22,-129 682.22,-129"/>
<text text-anchor="middle" x="746.22" y="-136" font-family="Helvetica,sans-Serif" font-size="10.00">boost/range/config.hpp</text>
</a>
</g>
</g>
<!-- Node4&#45;&gt;Node44 -->
<g id="edge21" class="edge">
<title>Node4&#45;&gt;Node44</title>
<path fill="none" stroke="midnightblue" d="M2376.07,-198.64C2108.32,-197 1128.08,-188.7 819.22,-154 810.64,-153.04 801.56,-151.59 792.83,-149.97"/>
<polygon fill="midnightblue" stroke="midnightblue" points="793.28,-146.49 782.8,-148.02 791.94,-153.36 793.28,-146.49"/>
</g>
<!-- Node33 -->
<g id="node19" class="node">
<title>Node33</title>
<g id="a_node19"><a xlink:title=" ">
<polygon fill="white" stroke="#bfbfbf" points="828.22,-129 828.22,-148 962.22,-148 962.22,-129 828.22,-129"/>
<text text-anchor="middle" x="895.22" y="-136" font-family="Helvetica,sans-Serif" font-size="10.00">boost/range/iterator.hpp</text>
</a>
</g>
</g>
<!-- Node4&#45;&gt;Node33 -->
<g id="edge22" class="edge">
<title>Node4&#45;&gt;Node33</title>
<path fill="none" stroke="midnightblue" d="M2376.11,-198.35C2124.68,-195.72 1248.9,-184.54 971.22,-154 962.3,-153.02 952.85,-151.56 943.76,-149.94"/>
<polygon fill="midnightblue" stroke="midnightblue" points="944.18,-146.46 933.71,-148.06 942.89,-153.34 944.18,-146.46"/>
</g>
<!-- Node4&#45;&gt;Node159 -->
<g id="edge25" class="edge">
<title>Node4&#45;&gt;Node159</title>
<path fill="none" stroke="midnightblue" d="M2376.14,-199.19C2059.75,-199.8 730.93,-199.56 318.22,-154 309.75,-153.06 300.79,-151.63 292.18,-150.02"/>
<polygon fill="midnightblue" stroke="midnightblue" points="292.77,-146.57 282.28,-148.07 291.42,-153.44 292.77,-146.57"/>
</g>
<!-- Node345 -->
<g id="node21" class="node">
<title>Node345</title>
<g id="a_node21"><a xlink:title=" ">
<polygon fill="white" stroke="#bfbfbf" points="980.72,-123.5 980.72,-153.5 1125.72,-153.5 1125.72,-123.5 980.72,-123.5"/>
<text text-anchor="start" x="988.72" y="-141.5" font-family="Helvetica,sans-Serif" font-size="10.00">boost/range/detail</text>
<text text-anchor="middle" x="1053.22" y="-130.5" font-family="Helvetica,sans-Serif" font-size="10.00">/implementation_help.hpp</text>
</a>
</g>
</g>
<!-- Node4&#45;&gt;Node345 -->
<g id="edge26" class="edge">
<title>Node4&#45;&gt;Node345</title>
<path fill="none" stroke="midnightblue" d="M2376.17,-197.95C2146.27,-194.19 1398.69,-180.31 1136.26,-154.09"/>
<polygon fill="midnightblue" stroke="midnightblue" points="1136.32,-150.58 1126.01,-153.04 1135.6,-157.54 1136.32,-150.58"/>
</g>
<!-- Node346 -->
<g id="node22" class="node">
<title>Node346</title>
<g id="a_node22"><a xlink:title=" ">
<polygon fill="white" stroke="#bfbfbf" points="1143.72,-123.5 1143.72,-153.5 1248.72,-153.5 1248.72,-123.5 1143.72,-123.5"/>
<text text-anchor="start" x="1151.72" y="-141.5" font-family="Helvetica,sans-Serif" font-size="10.00">boost/range/detail</text>
<text text-anchor="middle" x="1196.22" y="-130.5" font-family="Helvetica,sans-Serif" font-size="10.00">/common.hpp</text>
</a>
</g>
</g>
<!-- Node4&#45;&gt;Node346 -->
<g id="edge27" class="edge">
<title>Node4&#45;&gt;Node346</title>
<path fill="none" stroke="midnightblue" d="M2376.13,-198.17C2160.83,-195.27 1495.61,-184.15 1259.26,-154.07"/>
<polygon fill="midnightblue" stroke="midnightblue" points="1259.38,-150.55 1249,-152.71 1258.46,-157.49 1259.38,-150.55"/>
</g>
<!-- Node347 -->
<g id="node23" class="node">
<title>Node347</title>
<g id="a_node23"><a xlink:title=" ">
<polygon fill="white" stroke="#bfbfbf" points="1266.72,-123.5 1266.72,-153.5 1371.72,-153.5 1371.72,-123.5 1266.72,-123.5"/>
<text text-anchor="start" x="1274.72" y="-141.5" font-family="Helvetica,sans-Serif" font-size="10.00">boost/range/detail</text>
<text text-anchor="middle" x="1319.22" y="-130.5" font-family="Helvetica,sans-Serif" font-size="10.00">/sfinae.hpp</text>
</a>
</g>
</g>
<!-- Node4&#45;&gt;Node347 -->
<g id="edge28" class="edge">
<title>Node4&#45;&gt;Node347</title>
<path fill="none" stroke="midnightblue" d="M2376.21,-197.79C2176.63,-193.97 1593.83,-180.9 1381.97,-153.86"/>
<polygon fill="midnightblue" stroke="midnightblue" points="1382.23,-150.36 1371.86,-152.52 1381.31,-157.3 1382.23,-150.36"/>
</g>
<!-- Node199 -->
<g id="node24" class="node">
<title>Node199</title>
<g id="a_node24"><a xlink:title=" ">
<polygon fill="white" stroke="#bfbfbf" points="1390.22,-123.5 1390.22,-153.5 1520.22,-153.5 1520.22,-123.5 1390.22,-123.5"/>
<text text-anchor="start" x="1398.22" y="-141.5" font-family="Helvetica,sans-Serif" font-size="10.00">boost/type_traits/detail</text>
<text text-anchor="middle" x="1455.22" y="-130.5" font-family="Helvetica,sans-Serif" font-size="10.00">/yes_no_type.hpp</text>
</a>
</g>
</g>
<!-- Node4&#45;&gt;Node199 -->
<g id="edge30" class="edge">
<title>Node4&#45;&gt;Node199</title>
<path fill="none" stroke="midnightblue" d="M2376.21,-199C2225.49,-198.29 1851.95,-192.52 1530.48,-154.03"/>
<polygon fill="midnightblue" stroke="midnightblue" points="1530.86,-150.55 1520.51,-152.82 1530.02,-157.5 1530.86,-150.55"/>
</g>
<!-- Node348 -->
<g id="node25" class="node">
<title>Node348</title>
<g id="a_node25"><a xlink:title=" ">
<polygon fill="white" stroke="#bfbfbf" points="1538.72,-129 1538.72,-148 1583.72,-148 1583.72,-129 1538.72,-129"/>
<text text-anchor="middle" x="1561.22" y="-136" font-family="Helvetica,sans-Serif" font-size="10.00">utility</text>
</a>
</g>
</g>
<!-- Node4&#45;&gt;Node348 -->
<g id="edge31" class="edge">
<title>Node4&#45;&gt;Node348</title>
<path fill="none" stroke="midnightblue" d="M2376.03,-198.76C2201.16,-197.59 1740.14,-191 1592.22,-154 1590.23,-153.5 1588.22,-152.88 1586.22,-152.16"/>
<polygon fill="midnightblue" stroke="midnightblue" points="1587.13,-148.75 1576.56,-148.09 1584.42,-155.2 1587.13,-148.75"/>
</g>
<!-- Node101 -->
<g id="node26" class="node">
<title>Node101</title>
<g id="a_node26"><a xlink:title=" ">
<polygon fill="white" stroke="#bfbfbf" points="1601.72,-129 1601.72,-148 1696.72,-148 1696.72,-129 1601.72,-129"/>
<text text-anchor="middle" x="1649.22" y="-136" font-family="Helvetica,sans-Serif" font-size="10.00">boost/mpl/if.hpp</text>
</a>
</g>
</g>
<!-- Node4&#45;&gt;Node101 -->
<g id="edge33" class="edge">
<title>Node4&#45;&gt;Node101</title>
<path fill="none" stroke="midnightblue" d="M2376.1,-199.11C2245.39,-198.39 1950.67,-192.2 1706.22,-154 1700.34,-153.08 1694.18,-151.83 1688.18,-150.44"/>
<polygon fill="midnightblue" stroke="midnightblue" points="1688.84,-147 1678.29,-148.02 1687.17,-153.8 1688.84,-147"/>
</g>
<!-- Node10 -->
<g id="node27" class="node">
<title>Node10</title>
<g id="a_node27"><a xlink:title=" ">
<polygon fill="white" stroke="#bfbfbf" points="1715.22,-129 1715.22,-148 1817.22,-148 1817.22,-129 1715.22,-129"/>
<text text-anchor="middle" x="1766.22" y="-136" font-family="Helvetica,sans-Serif" font-size="10.00">boost/mpl/int.hpp</text>
</a>
</g>
</g>
<!-- Node4&#45;&gt;Node10 -->
<g id="edge34" class="edge">
<title>Node4&#45;&gt;Node10</title>
<path fill="none" stroke="midnightblue" d="M2376.14,-197.7C2261.85,-194.69 2024.45,-184.95 1826.22,-154 1819.97,-153.02 1813.41,-151.73 1807.01,-150.31"/>
<polygon fill="midnightblue" stroke="midnightblue" points="1807.7,-146.87 1797.17,-148.01 1806.11,-153.69 1807.7,-146.87"/>
</g>
<!-- Node78 -->
<g id="node28" class="node">
<title>Node78</title>
<g id="a_node28"><a xlink:title=" ">
<polygon fill="white" stroke="#bfbfbf" points="1835.22,-123.5 1835.22,-153.5 1945.22,-153.5 1945.22,-123.5 1835.22,-123.5"/>
<text text-anchor="start" x="1843.22" y="-141.5" font-family="Helvetica,sans-Serif" font-size="10.00">boost/type_traits/is</text>
<text text-anchor="middle" x="1890.22" y="-130.5" font-family="Helvetica,sans-Serif" font-size="10.00">_same.hpp</text>
</a>
</g>
</g>
<!-- Node4&#45;&gt;Node78 -->
<g id="edge36" class="edge">
<title>Node4&#45;&gt;Node78</title>
<path fill="none" stroke="midnightblue" d="M2376.1,-195.57C2283.18,-190.27 2111.36,-178.24 1955.53,-154.07"/>
<polygon fill="midnightblue" stroke="midnightblue" points="1955.71,-150.55 1945.29,-152.46 1954.63,-157.47 1955.71,-150.55"/>
</g>
<!-- Node349 -->
<g id="node29" class="node">
<title>Node349</title>
<g id="a_node29"><a xlink:title=" ">
<polygon fill="white" stroke="#bfbfbf" points="1963.72,-129 1963.72,-148 2016.72,-148 2016.72,-129 1963.72,-129"/>
<text text-anchor="middle" x="1990.22" y="-136" font-family="Helvetica,sans-Serif" font-size="10.00">string.h</text>
</a>
</g>
</g>
<!-- Node4&#45;&gt;Node349 -->
<g id="edge37" class="edge">
<title>Node4&#45;&gt;Node349</title>
<path fill="none" stroke="midnightblue" d="M2376.04,-197.63C2292.24,-194.59 2146.26,-184.89 2025.22,-154 2022.71,-153.36 2020.15,-152.57 2017.6,-151.7"/>
<polygon fill="midnightblue" stroke="midnightblue" points="2018.64,-148.35 2008.05,-148.04 2016.13,-154.89 2018.64,-148.35"/>
</g>
<!-- Node350 -->
<g id="node30" class="node">
<title>Node350</title>
<g id="a_node30"><a xlink:title=" ">
<polygon fill="white" stroke="#bfbfbf" points="2034.72,-129 2034.72,-148 2199.72,-148 2199.72,-129 2034.72,-129"/>
<text text-anchor="middle" x="2117.22" y="-136" font-family="Helvetica,sans-Serif" font-size="10.00">boost/range/const_iterator.hpp</text>
</a>
</g>
</g>
<!-- Node4&#45;&gt;Node350 -->
<g id="edge39" class="edge">
<title>Node4&#45;&gt;Node350</title>
<path fill="none" stroke="midnightblue" d="M2397.37,-190.48C2338.49,-179.76 2237.48,-161.38 2174.19,-149.87"/>
<polygon fill="midnightblue" stroke="midnightblue" points="2174.45,-146.36 2163.99,-148.01 2173.2,-153.24 2174.45,-146.36"/>
</g>
<!-- Node4&#45;&gt;Node162 -->
<g id="edge40" class="edge">
<title>Node4&#45;&gt;Node162</title>
<path fill="none" stroke="midnightblue" d="M2512.49,-198.54C2895.07,-195.84 4764.91,-181.36 5020.22,-154 5029,-153.06 5038.28,-151.59 5047.19,-149.94"/>
<polygon fill="midnightblue" stroke="midnightblue" points="5047.89,-153.37 5057.03,-148.02 5046.54,-146.5 5047.89,-153.37"/>
</g>
<!-- Node41 -->
<g id="node32" class="node">
<title>Node41</title>
<g id="a_node32"><a xlink:title=" ">
<polygon fill="white" stroke="#bfbfbf" points="2217.72,-129 2217.72,-148 2362.72,-148 2362.72,-129 2217.72,-129"/>
<text text-anchor="middle" x="2290.22" y="-136" font-family="Helvetica,sans-Serif" font-size="10.00">boost/range/size_type.hpp</text>
</a>
</g>
</g>
<!-- Node4&#45;&gt;Node41 -->
<g id="edge41" class="edge">
<title>Node4&#45;&gt;Node41</title>
<path fill="none" stroke="midnightblue" d="M2422.16,-190.48C2395.85,-180.31 2351.71,-163.26 2321.8,-151.7"/>
<polygon fill="midnightblue" stroke="midnightblue" points="2322.83,-148.35 2312.24,-148.01 2320.31,-154.88 2322.83,-148.35"/>
</g>
<!-- Node42 -->
<g id="node33" class="node">
<title>Node42</title>
<g id="a_node33"><a xlink:title=" ">
<polygon fill="white" stroke="#bfbfbf" points="2381.22,-123.5 2381.22,-153.5 2507.22,-153.5 2507.22,-123.5 2381.22,-123.5"/>
<text text-anchor="start" x="2389.22" y="-141.5" font-family="Helvetica,sans-Serif" font-size="10.00">boost/range/difference</text>
<text text-anchor="middle" x="2444.22" y="-130.5" font-family="Helvetica,sans-Serif" font-size="10.00">_type.hpp</text>
</a>
</g>
</g>
<!-- Node4&#45;&gt;Node42 -->
<g id="edge42" class="edge">
<title>Node4&#45;&gt;Node42</title>
<path fill="none" stroke="midnightblue" d="M2444.22,-190.48C2444.22,-183.47 2444.22,-173.19 2444.22,-163.7"/>
<polygon fill="midnightblue" stroke="midnightblue" points="2447.72,-163.52 2444.22,-153.52 2440.72,-163.52 2447.72,-163.52"/>
</g>
<!-- Node202 -->
<g id="node34" class="node">
<title>Node202</title>
<g id="a_node34"><a xlink:title=" ">
<polygon fill="white" stroke="#bfbfbf" points="2525.72,-129 2525.72,-148 2632.72,-148 2632.72,-129 2525.72,-129"/>
<text text-anchor="middle" x="2579.22" y="-136" font-family="Helvetica,sans-Serif" font-size="10.00">boost/mpl/and.hpp</text>
</a>
</g>
</g>
<!-- Node4&#45;&gt;Node202 -->
<g id="edge43" class="edge">
<title>Node4&#45;&gt;Node202</title>
<path fill="none" stroke="midnightblue" d="M2463.56,-190.48C2486.32,-180.45 2524.31,-163.7 2550.51,-152.15"/>
<polygon fill="midnightblue" stroke="midnightblue" points="2552.18,-155.24 2559.92,-148.01 2549.35,-148.84 2552.18,-155.24"/>
</g>
<!-- Node351 -->
<g id="node35" class="node">
<title>Node351</title>
<g id="a_node35"><a xlink:title=" ">
<polygon fill="white" stroke="#bfbfbf" points="2651.22,-123.5 2651.22,-153.5 2779.22,-153.5 2779.22,-123.5 2651.22,-123.5"/>
<text text-anchor="start" x="2659.22" y="-141.5" font-family="Helvetica,sans-Serif" font-size="10.00">boost/mpl/aux_/config</text>
<text text-anchor="middle" x="2715.22" y="-130.5" font-family="Helvetica,sans-Serif" font-size="10.00">/use_preprocessed.hpp</text>
</a>
</g>
</g>
<!-- Node4&#45;&gt;Node351 -->
<g id="edge44" class="edge">
<title>Node4&#45;&gt;Node351</title>
<path fill="none" stroke="midnightblue" d="M2483.05,-190.48C2524.21,-181.44 2590.21,-166.95 2641.34,-155.72"/>
<polygon fill="midnightblue" stroke="midnightblue" points="2642.34,-159.09 2651.35,-153.52 2640.83,-152.25 2642.34,-159.09"/>
</g>
<!-- Node192 -->
<g id="node36" class="node">
<title>Node192</title>
<g id="a_node36"><a xlink:title=" ">
<polygon fill="white" stroke="#bfbfbf" points="2797.22,-129 2797.22,-148 2907.22,-148 2907.22,-129 2797.22,-129"/>
<text text-anchor="middle" x="2852.22" y="-136" font-family="Helvetica,sans-Serif" font-size="10.00">boost/mpl/bool.hpp</text>
</a>
</g>
</g>
<!-- Node4&#45;&gt;Node192 -->
<g id="edge45" class="edge">
<title>Node4&#45;&gt;Node192</title>
<path fill="none" stroke="midnightblue" d="M2512.39,-191.97C2582,-184.35 2693.05,-170.97 2788.22,-154 2794.4,-152.9 2800.89,-151.6 2807.27,-150.24"/>
<polygon fill="midnightblue" stroke="midnightblue" points="2808.12,-153.63 2817.13,-148.07 2806.61,-146.8 2808.12,-153.63"/>
</g>
<!-- Node352 -->
<g id="node37" class="node">
<title>Node352</title>
<g id="a_node37"><a xlink:title=" ">
<polygon fill="white" stroke="#bfbfbf" points="2925.22,-123.5 2925.22,-153.5 3053.22,-153.5 3053.22,-123.5 2925.22,-123.5"/>
<text text-anchor="start" x="2933.22" y="-141.5" font-family="Helvetica,sans-Serif" font-size="10.00">boost/mpl/aux_/nested</text>
<text text-anchor="middle" x="2989.22" y="-130.5" font-family="Helvetica,sans-Serif" font-size="10.00">_type_wknd.hpp</text>
</a>
</g>
</g>
<!-- Node4&#45;&gt;Node352 -->
<g id="edge46" class="edge">
<title>Node4&#45;&gt;Node352</title>
<path fill="none" stroke="midnightblue" d="M2512.48,-194.67C2602.43,-188.47 2765.74,-175.55 2914.93,-154.09"/>
<polygon fill="midnightblue" stroke="midnightblue" points="2915.8,-157.5 2925.19,-152.6 2914.79,-150.57 2915.8,-157.5"/>
</g>
<!-- Node178 -->
<g id="node38" class="node">
<title>Node178</title>
<g id="a_node38"><a xlink:title=" ">
<polygon fill="white" stroke="#bfbfbf" points="3071.72,-129 3071.72,-148 3226.72,-148 3226.72,-129 3071.72,-129"/>
<text text-anchor="middle" x="3149.22" y="-136" font-family="Helvetica,sans-Serif" font-size="10.00">boost/mpl/aux_/na_spec.hpp</text>
</a>
</g>
</g>
<!-- Node4&#45;&gt;Node178 -->
<g id="edge47" class="edge">
<title>Node4&#45;&gt;Node178</title>
<path fill="none" stroke="midnightblue" d="M2512.55,-196.09C2626.7,-190.77 2863.28,-177.77 3062.22,-154 3072.14,-152.81 3082.66,-151.29 3092.82,-149.68"/>
<polygon fill="midnightblue" stroke="midnightblue" points="3093.52,-153.11 3102.83,-148.05 3092.4,-146.2 3093.52,-153.11"/>
</g>
<!-- Node104 -->
<g id="node39" class="node">
<title>Node104</title>
<g id="a_node39"><a xlink:title=" ">
<polygon fill="white" stroke="#bfbfbf" points="3244.72,-123.5 3244.72,-153.5 3375.72,-153.5 3375.72,-123.5 3244.72,-123.5"/>
<text text-anchor="start" x="3252.72" y="-141.5" font-family="Helvetica,sans-Serif" font-size="10.00">boost/mpl/aux_/lambda</text>
<text text-anchor="middle" x="3310.22" y="-130.5" font-family="Helvetica,sans-Serif" font-size="10.00">_support.hpp</text>
</a>
</g>
</g>
<!-- Node4&#45;&gt;Node104 -->
<g id="edge48" class="edge">
<title>Node4&#45;&gt;Node104</title>
<path fill="none" stroke="midnightblue" d="M2512.48,-198.19C2648.16,-195.92 2961.46,-187.34 3234.35,-153.98"/>
<polygon fill="midnightblue" stroke="midnightblue" points="3234.96,-157.43 3244.45,-152.73 3234.1,-150.49 3234.96,-157.43"/>
</g>
<!-- Node353 -->
<g id="node40" class="node">
<title>Node353</title>
<g id="a_node40"><a xlink:title=" ">
<polygon fill="white" stroke="#bfbfbf" points="3394.22,-123.5 3394.22,-153.5 3524.22,-153.5 3524.22,-123.5 3394.22,-123.5"/>
<text text-anchor="start" x="3402.22" y="-141.5" font-family="Helvetica,sans-Serif" font-size="10.00">boost/mpl/aux_/include</text>
<text text-anchor="middle" x="3459.22" y="-130.5" font-family="Helvetica,sans-Serif" font-size="10.00">_preprocessed.hpp</text>
</a>
</g>
</g>
<!-- Node4&#45;&gt;Node353 -->
<g id="edge49" class="edge">
<title>Node4&#45;&gt;Node353</title>
<path fill="none" stroke="midnightblue" d="M2512.33,-199.07C2665.98,-198.52 3051.37,-193.09 3383.55,-153.94"/>
<polygon fill="midnightblue" stroke="midnightblue" points="3384.35,-157.37 3393.86,-152.71 3383.52,-150.41 3384.35,-157.37"/>
</g>
<!-- Node354 -->
<g id="node41" class="node">
<title>Node354</title>
<g id="a_node41"><a xlink:title=" ">
<polygon fill="white" stroke="#bfbfbf" points="3542.22,-123.5 3542.22,-153.5 3666.22,-153.5 3666.22,-123.5 3542.22,-123.5"/>
<text text-anchor="start" x="3550.22" y="-141.5" font-family="Helvetica,sans-Serif" font-size="10.00">boost/mpl/aux_/config</text>
<text text-anchor="middle" x="3604.22" y="-130.5" font-family="Helvetica,sans-Serif" font-size="10.00">/compiler.hpp</text>
</a>
</g>
</g>
<!-- Node4&#45;&gt;Node354 -->
<g id="edge50" class="edge">
<title>Node4&#45;&gt;Node354</title>
<path fill="none" stroke="midnightblue" d="M2512.39,-197.61C2715.46,-193.26 3315.1,-178.74 3531.94,-153.99"/>
<polygon fill="midnightblue" stroke="midnightblue" points="3532.46,-157.45 3541.98,-152.8 3531.63,-150.5 3532.46,-157.45"/>
</g>
<!-- Node355 -->
<g id="node42" class="node">
<title>Node355</title>
<g id="a_node42"><a xlink:title=" ">
<polygon fill="white" stroke="#bfbfbf" points="3684.22,-123.5 3684.22,-153.5 3808.22,-153.5 3808.22,-123.5 3684.22,-123.5"/>
<text text-anchor="start" x="3692.22" y="-141.5" font-family="Helvetica,sans-Serif" font-size="10.00">boost/mpl/aux_/config</text>
<text text-anchor="middle" x="3746.22" y="-130.5" font-family="Helvetica,sans-Serif" font-size="10.00">/dtp.hpp</text>
</a>
</g>
</g>
<!-- Node4&#45;&gt;Node355 -->
<g id="edge51" class="edge">
<title>Node4&#45;&gt;Node355</title>
<path fill="none" stroke="midnightblue" d="M2512.44,-197.99C2733.26,-194.48 3428,-181.6 3674.01,-153.97"/>
<polygon fill="midnightblue" stroke="midnightblue" points="3674.45,-157.45 3683.98,-152.82 3673.64,-150.49 3674.45,-157.45"/>
</g>
<!-- Node98 -->
<g id="node43" class="node">
<title>Node98</title>
<g id="a_node43"><a xlink:title=" ">
<polygon fill="white" stroke="#bfbfbf" points="3826.22,-123.5 3826.22,-153.5 3950.22,-153.5 3950.22,-123.5 3826.22,-123.5"/>
<text text-anchor="start" x="3834.22" y="-141.5" font-family="Helvetica,sans-Serif" font-size="10.00">boost/mpl/aux_/config</text>
<text text-anchor="middle" x="3888.22" y="-130.5" font-family="Helvetica,sans-Serif" font-size="10.00">/ttp.hpp</text>
</a>
</g>
</g>
<!-- Node4&#45;&gt;Node98 -->
<g id="edge52" class="edge">
<title>Node4&#45;&gt;Node98</title>
<path fill="none" stroke="midnightblue" d="M2512.63,-198.29C2750.38,-195.57 3540.75,-184.49 3816.01,-153.97"/>
<polygon fill="midnightblue" stroke="midnightblue" points="3816.44,-157.44 3825.98,-152.83 3815.65,-150.49 3816.44,-157.44"/>
</g>
<!-- Node97 -->
<g id="node44" class="node">
<title>Node97</title>
<g id="a_node44"><a xlink:title=" ">
<polygon fill="white" stroke="#bfbfbf" points="3968.22,-123.5 3968.22,-153.5 4092.22,-153.5 4092.22,-123.5 3968.22,-123.5"/>
<text text-anchor="start" x="3976.22" y="-141.5" font-family="Helvetica,sans-Serif" font-size="10.00">boost/mpl/aux_/config</text>
<text text-anchor="middle" x="4030.22" y="-130.5" font-family="Helvetica,sans-Serif" font-size="10.00">/ctps.hpp</text>
</a>
</g>
</g>
<!-- Node4&#45;&gt;Node97 -->
<g id="edge53" class="edge">
<title>Node4&#45;&gt;Node97</title>
<path fill="none" stroke="midnightblue" d="M2512.52,-198.53C2765.93,-196.55 3652.94,-187.42 3957.82,-153.99"/>
<polygon fill="midnightblue" stroke="midnightblue" points="3958.44,-157.44 3967.98,-152.84 3957.65,-150.49 3958.44,-157.44"/>
</g>
<!-- Node356 -->
<g id="node45" class="node">
<title>Node356</title>
<g id="a_node45"><a xlink:title=" ">
<polygon fill="white" stroke="#bfbfbf" points="4110.22,-123.5 4110.22,-153.5 4234.22,-153.5 4234.22,-123.5 4110.22,-123.5"/>
<text text-anchor="start" x="4118.22" y="-141.5" font-family="Helvetica,sans-Serif" font-size="10.00">boost/mpl/aux_/config</text>
<text text-anchor="middle" x="4172.22" y="-130.5" font-family="Helvetica,sans-Serif" font-size="10.00">/msvc.hpp</text>
</a>
</g>
</g>
<!-- Node4&#45;&gt;Node356 -->
<g id="edge54" class="edge">
<title>Node4&#45;&gt;Node356</title>
<path fill="none" stroke="midnightblue" d="M2512.33,-198.73C2780.58,-197.44 3765.35,-190.35 4099.8,-153.99"/>
<polygon fill="midnightblue" stroke="midnightblue" points="4100.43,-157.44 4109.98,-152.85 4099.65,-150.48 4100.43,-157.44"/>
</g>
<!-- Node357 -->
<g id="node46" class="node">
<title>Node357</title>
<g id="a_node46"><a xlink:title=" ">
<polygon fill="white" stroke="#bfbfbf" points="4252.22,-123.5 4252.22,-153.5 4376.22,-153.5 4376.22,-123.5 4252.22,-123.5"/>
<text text-anchor="start" x="4260.22" y="-141.5" font-family="Helvetica,sans-Serif" font-size="10.00">boost/mpl/aux_/config</text>
<text text-anchor="middle" x="4314.22" y="-130.5" font-family="Helvetica,sans-Serif" font-size="10.00">/gcc.hpp</text>
</a>
</g>
</g>
<!-- Node4&#45;&gt;Node357 -->
<g id="edge55" class="edge">
<title>Node4&#45;&gt;Node357</title>
<path fill="none" stroke="midnightblue" d="M2512.27,-198.9C2794.94,-198.26 3878.1,-193.3 4241.95,-153.97"/>
<polygon fill="midnightblue" stroke="midnightblue" points="4242.43,-157.44 4251.98,-152.86 4241.66,-150.48 4242.43,-157.44"/>
</g>
<!-- Node358 -->
<g id="node47" class="node">
<title>Node358</title>
<g id="a_node47"><a xlink:title=" ">
<polygon fill="white" stroke="#bfbfbf" points="4394.22,-123.5 4394.22,-153.5 4518.22,-153.5 4518.22,-123.5 4394.22,-123.5"/>
<text text-anchor="start" x="4402.22" y="-141.5" font-family="Helvetica,sans-Serif" font-size="10.00">boost/mpl/aux_/config</text>
<text text-anchor="middle" x="4456.22" y="-130.5" font-family="Helvetica,sans-Serif" font-size="10.00">/workaround.hpp</text>
</a>
</g>
</g>
<!-- Node4&#45;&gt;Node358 -->
<g id="edge56" class="edge">
<title>Node4&#45;&gt;Node358</title>
<path fill="none" stroke="midnightblue" d="M2512.28,-199.05C2808.85,-199.02 3990.59,-196.25 4383.99,-153.97"/>
<polygon fill="midnightblue" stroke="midnightblue" points="4384.43,-157.44 4393.98,-152.86 4383.66,-150.48 4384.43,-157.44"/>
</g>
<!-- Node359 -->
<g id="node48" class="node">
<title>Node359</title>
<g id="a_node48"><a xlink:title=" ">
<polygon fill="white" stroke="#bfbfbf" points="4536.22,-123.5 4536.22,-153.5 4660.22,-153.5 4660.22,-123.5 4536.22,-123.5"/>
<text text-anchor="start" x="4544.22" y="-141.5" font-family="Helvetica,sans-Serif" font-size="10.00">boost/mpl/aux_/config</text>
<text text-anchor="middle" x="4598.22" y="-130.5" font-family="Helvetica,sans-Serif" font-size="10.00">/preprocessor.hpp</text>
</a>
</g>
</g>
<!-- Node4&#45;&gt;Node359 -->
<g id="edge57" class="edge">
<title>Node4&#45;&gt;Node359</title>
<path fill="none" stroke="midnightblue" d="M2512.22,-199.18C2822.04,-199.72 4102.63,-199.22 4525.84,-153.98"/>
<polygon fill="midnightblue" stroke="midnightblue" points="4526.42,-157.44 4535.98,-152.87 4525.66,-150.48 4526.42,-157.44"/>
</g>
<!-- Node360 -->
<g id="node49" class="node">
<title>Node360</title>
<g id="a_node49"><a xlink:title=" ">
<polygon fill="white" stroke="#bfbfbf" points="4678.22,-123.5 4678.22,-153.5 4788.22,-153.5 4788.22,-123.5 4678.22,-123.5"/>
<text text-anchor="start" x="4686.22" y="-141.5" font-family="Helvetica,sans-Serif" font-size="10.00">boost/preprocessor</text>
<text text-anchor="middle" x="4733.22" y="-130.5" font-family="Helvetica,sans-Serif" font-size="10.00">/stringize.hpp</text>
</a>
</g>
</g>
<!-- Node4&#45;&gt;Node360 -->
<g id="edge59" class="edge">
<title>Node4&#45;&gt;Node360</title>
<path fill="none" stroke="midnightblue" d="M2512.41,-198.44C2857.83,-195.52 4407.84,-181.05 4668.11,-153.85"/>
<polygon fill="midnightblue" stroke="midnightblue" points="4668.64,-157.31 4678.19,-152.71 4667.86,-150.36 4668.64,-157.31"/>
</g>
<!-- Node5&#45;&gt;Node2 -->
<g id="edge6" class="edge">
<title>Node5&#45;&gt;Node2</title>
<path fill="none" stroke="midnightblue" d="M639.56,-128.99C650.2,-126.57 662.15,-124.25 673.22,-123 1144.58,-69.82 4471.04,-141.72 4942.22,-87 4949.61,-86.14 4957.4,-84.78 4964.9,-83.22"/>
<polygon fill="midnightblue" stroke="midnightblue" points="4965.87,-86.59 4974.88,-81.01 4964.36,-79.76 4965.87,-86.59"/>
</g>
<!-- Node5&#45;&gt;Node3 -->
<g id="edge11" class="edge">
<title>Node5&#45;&gt;Node3</title>
<path fill="none" stroke="midnightblue" d="M646.08,-128.96C703.61,-116.17 805.31,-92.89 811.22,-87 826.16,-72.09 829.97,-47.33 830.65,-30.14"/>
<polygon fill="midnightblue" stroke="midnightblue" points="834.16,-29.69 830.73,-19.66 827.16,-29.64 834.16,-29.69"/>
</g>
<!-- Node5&#45;&gt;Node248 -->
<g id="edge7" class="edge">
<title>Node5&#45;&gt;Node248</title>
<path fill="none" stroke="midnightblue" d="M554.73,-128.98C497.62,-119.52 403.7,-103.41 323.22,-87 317.51,-85.84 311.53,-84.55 305.62,-83.24"/>
<polygon fill="midnightblue" stroke="midnightblue" points="306.33,-79.81 295.8,-81.02 304.79,-86.64 306.33,-79.81"/>
</g>
<!-- Node5&#45;&gt;Node87 -->
<g id="edge8" class="edge">
<title>Node5&#45;&gt;Node87</title>
<path fill="none" stroke="midnightblue" d="M642.71,-128.97C652.55,-126.8 663.27,-124.63 673.22,-123 814.21,-99.89 981.14,-84.63 1071.04,-77.38"/>
<polygon fill="midnightblue" stroke="midnightblue" points="1071.39,-80.87 1081.08,-76.58 1070.84,-73.89 1071.39,-80.87"/>
</g>
<!-- Node5&#45;&gt;Node260 -->
<g id="edge9" class="edge">
<title>Node5&#45;&gt;Node260</title>
<path fill="none" stroke="midnightblue" d="M639.91,-129C650.46,-126.61 662.27,-124.31 673.22,-123 905.32,-95.33 2575.59,-77.34 2981.5,-73.34"/>
<polygon fill="midnightblue" stroke="midnightblue" points="2981.75,-76.84 2991.71,-73.24 2981.68,-69.84 2981.75,-76.84"/>
</g>
<!-- Node5&#45;&gt;Node151 -->
<g id="edge10" class="edge">
<title>Node5&#45;&gt;Node151</title>
<path fill="none" stroke="midnightblue" d="M639.56,-129C650.2,-126.57 662.15,-124.25 673.22,-123 1110.89,-73.48 4196.98,-101.08 4637.22,-87 4715.55,-84.49 4806.83,-78.88 4858.94,-75.42"/>
<polygon fill="midnightblue" stroke="midnightblue" points="4859.39,-78.9 4869.14,-74.74 4858.93,-71.91 4859.39,-78.9"/>
</g>
<!-- Node5&#45;&gt;Node9 -->
<g id="edge12" class="edge">
<title>Node5&#45;&gt;Node9</title>
<path fill="none" stroke="midnightblue" d="M639.9,-128.95C650.46,-126.56 662.27,-124.27 673.22,-123 947.42,-91.22 2881.22,-91.16 3157.22,-87 3503.61,-81.78 3922.79,-75.09 4047.53,-73.09"/>
<polygon fill="midnightblue" stroke="midnightblue" points="4047.73,-76.59 4057.67,-72.93 4047.62,-69.59 4047.73,-76.59"/>
</g>
<!-- Node5&#45;&gt;Node277 -->
<g id="edge13" class="edge">
<title>Node5&#45;&gt;Node277</title>
<path fill="none" stroke="midnightblue" d="M639.9,-128.93C650.46,-126.53 662.26,-124.25 673.22,-123 1053.78,-79.68 3737.28,-94.77 4120.22,-87 4285.69,-83.64 4483.11,-76.8 4563.94,-73.87"/>
<polygon fill="midnightblue" stroke="midnightblue" points="4564.24,-77.37 4574.1,-73.5 4563.98,-70.37 4564.24,-77.37"/>
</g>
<!-- Node5&#45;&gt;Node156 -->
<g id="edge14" class="edge">
<title>Node5&#45;&gt;Node156</title>
<path fill="none" stroke="midnightblue" d="M550.47,-135.37C470.33,-131.27 319.97,-119.59 196.22,-87 193.77,-86.36 191.27,-85.58 188.78,-84.72"/>
<polygon fill="midnightblue" stroke="midnightblue" points="190.02,-81.44 179.43,-81.13 187.51,-87.98 190.02,-81.44"/>
</g>
<!-- Node5&#45;&gt;Node53 -->
<g id="edge15" class="edge">
<title>Node5&#45;&gt;Node53</title>
<path fill="none" stroke="midnightblue" d="M591.58,-128.73C574.69,-119.27 547.28,-103.91 525.37,-91.64"/>
<polygon fill="midnightblue" stroke="midnightblue" points="526.8,-88.42 516.36,-86.59 523.38,-94.53 526.8,-88.42"/>
</g>
<!-- Node5&#45;&gt;Node235 -->
<g id="edge16" class="edge">
<title>Node5&#45;&gt;Node235</title>
<path fill="none" stroke="midnightblue" d="M574.15,-128.94C526.28,-116.54 438.14,-93.72 389.92,-81.23"/>
<polygon fill="midnightblue" stroke="midnightblue" points="390.54,-77.77 379.98,-78.65 388.79,-84.55 390.54,-77.77"/>
</g>
<!-- Node5&#45;&gt;Node302 -->
<g id="edge17" class="edge">
<title>Node5&#45;&gt;Node302</title>
<path fill="none" stroke="midnightblue" d="M608.84,-128.73C610.35,-120.54 612.68,-107.92 614.75,-96.71"/>
<polygon fill="midnightblue" stroke="midnightblue" points="618.25,-97.06 616.62,-86.59 611.36,-95.79 618.25,-97.06"/>
</g>
<!-- Node5&#45;&gt;Node114 -->
<g id="edge18" class="edge">
<title>Node5&#45;&gt;Node114</title>
<path fill="none" stroke="midnightblue" d="M625.81,-128.87C646.64,-119.2 680.99,-103.25 707.85,-90.78"/>
<polygon fill="midnightblue" stroke="midnightblue" points="709.41,-93.91 717.01,-86.53 706.46,-87.56 709.41,-93.91"/>
</g>
</g>
</svg>
