<?xml version="1.0" encoding="UTF-8" standalone="no"?>
<!DOCTYPE svg PUBLIC "-//W3C//DTD SVG 1.1//EN"
 "http://www.w3.org/Graphics/SVG/1.1/DTD/svg11.dtd">
<!-- Generated by graphviz version 2.43.0 (0)
 -->
<!-- Title: boost/ui/list_box.hpp Pages: 1 -->
<svg width="1530pt" height="386pt"
 viewBox="0.00 0.00 1530.00 386.00" xmlns="http://www.w3.org/2000/svg" xmlns:xlink="http://www.w3.org/1999/xlink">
<g id="graph0" class="graph" transform="scale(1 1) rotate(0) translate(4 382)">
<title>boost/ui/list_box.hpp</title>
<polygon fill="white" stroke="transparent" points="-4,4 -4,-382 1526,-382 1526,4 -4,4"/>
<!-- Node1 -->
<g id="node1" class="node">
<title>Node1</title>
<g id="a_node1"><a xlink:title="List box widget.">
<polygon fill="#bfbfbf" stroke="black" points="1098.5,-358.5 1098.5,-377.5 1216.5,-377.5 1216.5,-358.5 1098.5,-358.5"/>
<text text-anchor="middle" x="1157.5" y="-365.5" font-family="Helvetica,sans-Serif" font-size="10.00">boost/ui/list_box.hpp</text>
</a>
</g>
</g>
<!-- Node2 -->
<g id="node2" class="node">
<title>Node2</title>
<g id="a_node2"><a xlink:href="config_8hpp.html" target="_top" xlink:title="Configuration options.">
<polygon fill="white" stroke="black" points="781.5,-62 781.5,-81 891.5,-81 891.5,-62 781.5,-62"/>
<text text-anchor="middle" x="836.5" y="-69" font-family="Helvetica,sans-Serif" font-size="10.00">boost/ui/config.hpp</text>
</a>
</g>
</g>
<!-- Node1&#45;&gt;Node2 -->
<g id="edge1" class="edge">
<title>Node1&#45;&gt;Node2</title>
<path fill="none" stroke="midnightblue" d="M1098.29,-363.88C929.75,-354.2 459.5,-321.44 459.5,-257 459.5,-257 459.5,-257 459.5,-193.5 459.5,-161.05 454.11,-144.41 478.5,-123 523.66,-83.35 687.05,-95.78 746.5,-87 755.8,-85.63 765.62,-84.11 775.23,-82.59"/>
<polygon fill="midnightblue" stroke="midnightblue" points="775.81,-86.04 785.13,-81.01 774.71,-79.13 775.81,-86.04"/>
</g>
<!-- Node4 -->
<g id="node4" class="node">
<title>Node4</title>
<g id="a_node4"><a xlink:href="strings__box_8hpp.html" target="_top" xlink:title="Widget with array of strings.">
<polygon fill="white" stroke="black" points="974.5,-302.5 974.5,-321.5 1110.5,-321.5 1110.5,-302.5 974.5,-302.5"/>
<text text-anchor="middle" x="1042.5" y="-309.5" font-family="Helvetica,sans-Serif" font-size="10.00">boost/ui/strings_box.hpp</text>
</a>
</g>
</g>
<!-- Node1&#45;&gt;Node4 -->
<g id="edge3" class="edge">
<title>Node1&#45;&gt;Node4</title>
<path fill="none" stroke="midnightblue" d="M1139.28,-358.44C1120.6,-349.68 1091.34,-335.94 1069.88,-325.86"/>
<polygon fill="midnightblue" stroke="midnightblue" points="1071.18,-322.6 1060.64,-321.52 1068.2,-328.93 1071.18,-322.6"/>
</g>
<!-- Node23 -->
<g id="node23" class="node">
<title>Node23</title>
<g id="a_node23"><a xlink:title=" ">
<polygon fill="white" stroke="#bfbfbf" points="693,-246.5 693,-265.5 740,-265.5 740,-246.5 693,-246.5"/>
<text text-anchor="middle" x="716.5" y="-253.5" font-family="Helvetica,sans-Serif" font-size="10.00">vector</text>
</a>
</g>
</g>
<!-- Node1&#45;&gt;Node23 -->
<g id="edge39" class="edge">
<title>Node1&#45;&gt;Node23</title>
<path fill="none" stroke="midnightblue" d="M1098.84,-358.48C1049.11,-350.72 976.1,-338.02 913.5,-322 854.41,-306.88 787.28,-283.31 748.61,-269.1"/>
<polygon fill="midnightblue" stroke="midnightblue" points="749.55,-265.71 738.95,-265.52 747.12,-272.28 749.55,-265.71"/>
</g>
<!-- Node24 -->
<g id="node24" class="node">
<title>Node24</title>
<g id="a_node24"><a xlink:title=" ">
<polygon fill="white" stroke="#bfbfbf" points="758,-246.5 758,-265.5 883,-265.5 883,-246.5 758,-246.5"/>
<text text-anchor="middle" x="820.5" y="-253.5" font-family="Helvetica,sans-Serif" font-size="10.00">boost/range/begin.hpp</text>
</a>
</g>
</g>
<!-- Node1&#45;&gt;Node24 -->
<g id="edge40" class="edge">
<title>Node1&#45;&gt;Node24</title>
<path fill="none" stroke="midnightblue" d="M1109.85,-358.47C1070.56,-350.81 1013.67,-338.27 965.5,-322 922.48,-307.47 874.84,-284.75 846.3,-270.38"/>
<polygon fill="midnightblue" stroke="midnightblue" points="847.55,-267.09 837.05,-265.68 844.37,-273.33 847.55,-267.09"/>
</g>
<!-- Node25 -->
<g id="node25" class="node">
<title>Node25</title>
<g id="a_node25"><a xlink:title=" ">
<polygon fill="white" stroke="#bfbfbf" points="1070.5,-246.5 1070.5,-265.5 1186.5,-265.5 1186.5,-246.5 1070.5,-246.5"/>
<text text-anchor="middle" x="1128.5" y="-253.5" font-family="Helvetica,sans-Serif" font-size="10.00">boost/range/end.hpp</text>
</a>
</g>
</g>
<!-- Node1&#45;&gt;Node25 -->
<g id="edge41" class="edge">
<title>Node1&#45;&gt;Node25</title>
<path fill="none" stroke="midnightblue" d="M1155.22,-358.37C1150.52,-340.54 1139.65,-299.3 1133.32,-275.27"/>
<polygon fill="midnightblue" stroke="midnightblue" points="1136.7,-274.37 1130.77,-265.59 1129.93,-276.15 1136.7,-274.37"/>
</g>
<!-- Node26 -->
<g id="node26" class="node">
<title>Node26</title>
<g id="a_node26"><a xlink:title=" ">
<polygon fill="white" stroke="#bfbfbf" points="1204.5,-246.5 1204.5,-265.5 1322.5,-265.5 1322.5,-246.5 1204.5,-246.5"/>
<text text-anchor="middle" x="1263.5" y="-253.5" font-family="Helvetica,sans-Serif" font-size="10.00">boost/range/size.hpp</text>
</a>
</g>
</g>
<!-- Node1&#45;&gt;Node26 -->
<g id="edge42" class="edge">
<title>Node1&#45;&gt;Node26</title>
<path fill="none" stroke="midnightblue" d="M1161.92,-358.29C1168.88,-345.1 1183.4,-319.72 1200.5,-302 1212.07,-290.01 1227.2,-279.09 1239.73,-271"/>
<polygon fill="midnightblue" stroke="midnightblue" points="1241.68,-273.91 1248.31,-265.64 1237.97,-267.97 1241.68,-273.91"/>
</g>
<!-- Node27 -->
<g id="node27" class="node">
<title>Node27</title>
<g id="a_node27"><a xlink:title=" ">
<polygon fill="white" stroke="#bfbfbf" points="1340.5,-246.5 1340.5,-265.5 1404.5,-265.5 1404.5,-246.5 1340.5,-246.5"/>
<text text-anchor="middle" x="1372.5" y="-253.5" font-family="Helvetica,sans-Serif" font-size="10.00">algorithm</text>
</a>
</g>
</g>
<!-- Node1&#45;&gt;Node27 -->
<g id="edge43" class="edge">
<title>Node1&#45;&gt;Node27</title>
<path fill="none" stroke="midnightblue" d="M1166.21,-358.24C1180.28,-344.53 1209.39,-317.91 1238.5,-302 1267.53,-286.14 1303.13,-274.51 1330.34,-267.04"/>
<polygon fill="midnightblue" stroke="midnightblue" points="1331.56,-270.34 1340.33,-264.39 1329.77,-263.58 1331.56,-270.34"/>
</g>
<!-- Node28 -->
<g id="node28" class="node">
<title>Node28</title>
<g id="a_node28"><a xlink:title=" ">
<polygon fill="white" stroke="#bfbfbf" points="1423,-246.5 1423,-265.5 1476,-265.5 1476,-246.5 1423,-246.5"/>
<text text-anchor="middle" x="1449.5" y="-253.5" font-family="Helvetica,sans-Serif" font-size="10.00">iterator</text>
</a>
</g>
</g>
<!-- Node1&#45;&gt;Node28 -->
<g id="edge44" class="edge">
<title>Node1&#45;&gt;Node28</title>
<path fill="none" stroke="midnightblue" d="M1172.89,-358.46C1189.03,-349.47 1215.12,-334.87 1237.5,-322 1252.7,-313.26 1255.28,-308.66 1271.5,-302 1273.17,-301.32 1361.4,-279.12 1412.99,-266.16"/>
<polygon fill="midnightblue" stroke="midnightblue" points="1413.94,-269.53 1422.79,-263.7 1412.24,-262.74 1413.94,-269.53"/>
</g>
<!-- Node29 -->
<g id="node29" class="node">
<title>Node29</title>
<g id="a_node29"><a xlink:title=" ">
<polygon fill="white" stroke="#bfbfbf" points="1280.5,-302.5 1280.5,-321.5 1390.5,-321.5 1390.5,-302.5 1280.5,-302.5"/>
<text text-anchor="middle" x="1335.5" y="-309.5" font-family="Helvetica,sans-Serif" font-size="10.00">boost/ui/config.hpp</text>
</a>
</g>
</g>
<!-- Node1&#45;&gt;Node29 -->
<g id="edge37" class="edge">
<title>Node1&#45;&gt;Node29</title>
<path fill="none" stroke="midnightblue" d="M1185.7,-358.44C1215.91,-349.28 1264.01,-334.69 1297.53,-324.52"/>
<polygon fill="midnightblue" stroke="midnightblue" points="1298.87,-327.77 1307.43,-321.52 1296.84,-321.07 1298.87,-327.77"/>
</g>
<!-- Node30 -->
<g id="node30" class="node">
<title>Node30</title>
<g id="a_node30"><a xlink:title=" ">
<polygon fill="white" stroke="#bfbfbf" points="1409,-302.5 1409,-321.5 1522,-321.5 1522,-302.5 1409,-302.5"/>
<text text-anchor="middle" x="1465.5" y="-309.5" font-family="Helvetica,sans-Serif" font-size="10.00">boost/ui/widget.hpp</text>
</a>
</g>
</g>
<!-- Node1&#45;&gt;Node30 -->
<g id="edge38" class="edge">
<title>Node1&#45;&gt;Node30</title>
<path fill="none" stroke="midnightblue" d="M1206.3,-358.44C1260.71,-348.9 1348.67,-333.48 1406.79,-323.29"/>
<polygon fill="midnightblue" stroke="midnightblue" points="1407.68,-326.69 1416.92,-321.52 1406.47,-319.8 1407.68,-326.69"/>
</g>
<!-- Node3 -->
<g id="node3" class="node">
<title>Node3</title>
<g id="a_node3"><a xlink:title=" ">
<polygon fill="white" stroke="#bfbfbf" points="787.5,-0.5 787.5,-19.5 885.5,-19.5 885.5,-0.5 787.5,-0.5"/>
<text text-anchor="middle" x="836.5" y="-7.5" font-family="Helvetica,sans-Serif" font-size="10.00">boost/config.hpp</text>
</a>
</g>
</g>
<!-- Node2&#45;&gt;Node3 -->
<g id="edge2" class="edge">
<title>Node2&#45;&gt;Node3</title>
<path fill="none" stroke="midnightblue" d="M836.5,-61.98C836.5,-53.58 836.5,-40.48 836.5,-29.66"/>
<polygon fill="midnightblue" stroke="midnightblue" points="840,-29.51 836.5,-19.51 833,-29.51 840,-29.51"/>
</g>
<!-- Node4&#45;&gt;Node2 -->
<g id="edge4" class="edge">
<title>Node4&#45;&gt;Node2</title>
<path fill="none" stroke="midnightblue" d="M1043.82,-302.11C1046.02,-289.13 1051.25,-264.52 1061.5,-246 1071.87,-227.27 1085.89,-230.01 1093.5,-210 1107.6,-172.91 1103.36,-149.13 1073.5,-123 1048.27,-100.92 962.6,-86.76 901.52,-79.22"/>
<polygon fill="midnightblue" stroke="midnightblue" points="901.91,-75.74 891.56,-78.02 901.07,-82.69 901.91,-75.74"/>
</g>
<!-- Node5 -->
<g id="node5" class="node">
<title>Node5</title>
<g id="a_node5"><a xlink:href="widget_8hpp.html" target="_top" xlink:title="Widget class.">
<polygon fill="white" stroke="black" points="901,-246.5 901,-265.5 1014,-265.5 1014,-246.5 901,-246.5"/>
<text text-anchor="middle" x="957.5" y="-253.5" font-family="Helvetica,sans-Serif" font-size="10.00">boost/ui/widget.hpp</text>
</a>
</g>
</g>
<!-- Node4&#45;&gt;Node5 -->
<g id="edge5" class="edge">
<title>Node4&#45;&gt;Node5</title>
<path fill="none" stroke="midnightblue" d="M1028.84,-302.32C1015.58,-293.9 995.23,-280.97 979.65,-271.07"/>
<polygon fill="midnightblue" stroke="midnightblue" points="981.44,-268.06 971.12,-265.65 977.69,-273.97 981.44,-268.06"/>
</g>
<!-- Node4&#45;&gt;Node23 -->
<g id="edge31" class="edge">
<title>Node4&#45;&gt;Node23</title>
<path fill="none" stroke="midnightblue" d="M974.34,-302.97C916.81,-295.64 832.14,-283.58 750.17,-266.16"/>
<polygon fill="midnightblue" stroke="midnightblue" points="750.7,-262.69 740.18,-264.01 749.22,-269.54 750.7,-262.69"/>
</g>
<!-- Node4&#45;&gt;Node24 -->
<g id="edge32" class="edge">
<title>Node4&#45;&gt;Node24</title>
<path fill="none" stroke="midnightblue" d="M1007.32,-302.44C968.92,-293.1 907.32,-278.12 865.44,-267.93"/>
<polygon fill="midnightblue" stroke="midnightblue" points="866.06,-264.48 855.51,-265.52 864.4,-271.28 866.06,-264.48"/>
</g>
<!-- Node4&#45;&gt;Node25 -->
<g id="edge33" class="edge">
<title>Node4&#45;&gt;Node25</title>
<path fill="none" stroke="midnightblue" d="M1056.32,-302.32C1069.73,-293.9 1090.32,-280.97 1106.09,-271.07"/>
<polygon fill="midnightblue" stroke="midnightblue" points="1108.11,-273.94 1114.72,-265.65 1104.39,-268.01 1108.11,-273.94"/>
</g>
<!-- Node4&#45;&gt;Node26 -->
<g id="edge34" class="edge">
<title>Node4&#45;&gt;Node26</title>
<path fill="none" stroke="midnightblue" d="M1077.52,-302.44C1115.75,-293.1 1177.07,-278.12 1218.76,-267.93"/>
<polygon fill="midnightblue" stroke="midnightblue" points="1219.76,-271.29 1228.65,-265.52 1218.1,-264.49 1219.76,-271.29"/>
</g>
<!-- Node4&#45;&gt;Node27 -->
<g id="edge35" class="edge">
<title>Node4&#45;&gt;Node27</title>
<path fill="none" stroke="midnightblue" d="M1104.42,-302.49C1160.83,-294.47 1246.67,-281.64 1330.38,-266.12"/>
<polygon fill="midnightblue" stroke="midnightblue" points="1331.12,-269.54 1340.31,-264.26 1329.84,-262.66 1331.12,-269.54"/>
</g>
<!-- Node4&#45;&gt;Node28 -->
<g id="edge36" class="edge">
<title>Node4&#45;&gt;Node28</title>
<path fill="none" stroke="midnightblue" d="M1110.58,-305.3C1183.1,-298.65 1301.37,-286.17 1412.78,-265.91"/>
<polygon fill="midnightblue" stroke="midnightblue" points="1413.64,-269.31 1422.84,-264.06 1412.38,-262.43 1413.64,-269.31"/>
</g>
<!-- Node5&#45;&gt;Node2 -->
<g id="edge6" class="edge">
<title>Node5&#45;&gt;Node2</title>
<path fill="none" stroke="midnightblue" d="M956.01,-246.22C953.1,-231.17 945.5,-200.05 929.5,-179 912.93,-157.2 898.11,-163.09 879.5,-143 864.78,-127.11 852.45,-105.41 844.82,-90.3"/>
<polygon fill="midnightblue" stroke="midnightblue" points="847.84,-88.51 840.32,-81.04 841.55,-91.57 847.84,-88.51"/>
</g>
<!-- Node6 -->
<g id="node6" class="node">
<title>Node6</title>
<g id="a_node6"><a xlink:href="coord_8hpp.html" target="_top" xlink:title="Coordinates classes.">
<polygon fill="white" stroke="black" points="324,-123.5 324,-142.5 431,-142.5 431,-123.5 324,-123.5"/>
<text text-anchor="middle" x="377.5" y="-130.5" font-family="Helvetica,sans-Serif" font-size="10.00">boost/ui/coord.hpp</text>
</a>
</g>
</g>
<!-- Node5&#45;&gt;Node6 -->
<g id="edge7" class="edge">
<title>Node5&#45;&gt;Node6</title>
<path fill="none" stroke="midnightblue" d="M901,-247.11C897.79,-246.72 894.6,-246.35 891.5,-246 708.39,-225.55 650.55,-275.94 478.5,-210 443.87,-196.73 410.95,-167.86 392.57,-149.77"/>
<polygon fill="midnightblue" stroke="midnightblue" points="394.93,-147.18 385.41,-142.53 389.95,-152.1 394.93,-147.18"/>
</g>
<!-- Node12 -->
<g id="node12" class="node">
<title>Node12</title>
<g id="a_node12"><a xlink:href="string_8hpp.html" target="_top" xlink:title="String class and operations.">
<polygon fill="white" stroke="black" points="1142,-123.5 1142,-142.5 1249,-142.5 1249,-123.5 1142,-123.5"/>
<text text-anchor="middle" x="1195.5" y="-130.5" font-family="Helvetica,sans-Serif" font-size="10.00">boost/ui/string.hpp</text>
</a>
</g>
</g>
<!-- Node5&#45;&gt;Node12 -->
<g id="edge14" class="edge">
<title>Node5&#45;&gt;Node12</title>
<path fill="none" stroke="midnightblue" d="M993.7,-246.42C1021.86,-238.96 1061.4,-226.71 1093.5,-210 1125.92,-193.12 1159.05,-166.3 1178.43,-149.45"/>
<polygon fill="midnightblue" stroke="midnightblue" points="1180.9,-151.93 1186.08,-142.69 1176.27,-146.69 1180.9,-151.93"/>
</g>
<!-- Node16 -->
<g id="node16" class="node">
<title>Node16</title>
<g id="a_node16"><a xlink:href="event_8hpp.html" target="_top" xlink:title="Event classes.">
<polygon fill="white" stroke="black" points="488,-185 488,-204 595,-204 595,-185 488,-185"/>
<text text-anchor="middle" x="541.5" y="-192" font-family="Helvetica,sans-Serif" font-size="10.00">boost/ui/event.hpp</text>
</a>
</g>
</g>
<!-- Node5&#45;&gt;Node16 -->
<g id="edge19" class="edge">
<title>Node5&#45;&gt;Node16</title>
<path fill="none" stroke="midnightblue" d="M900.98,-247.25C897.77,-246.83 894.6,-246.41 891.5,-246 764.03,-229.32 731.08,-232.45 604.5,-210 598.34,-208.91 591.87,-207.6 585.52,-206.23"/>
<polygon fill="midnightblue" stroke="midnightblue" points="586.22,-202.8 575.7,-204.04 584.7,-209.63 586.22,-202.8"/>
</g>
<!-- Node18 -->
<g id="node18" class="node">
<title>Node18</title>
<g id="a_node18"><a xlink:href="font_8hpp.html" target="_top" xlink:title="Font class.">
<polygon fill="white" stroke="black" points="986,-185 986,-204 1085,-204 1085,-185 986,-185"/>
<text text-anchor="middle" x="1035.5" y="-192" font-family="Helvetica,sans-Serif" font-size="10.00">boost/ui/font.hpp</text>
</a>
</g>
</g>
<!-- Node5&#45;&gt;Node18 -->
<g id="edge23" class="edge">
<title>Node5&#45;&gt;Node18</title>
<path fill="none" stroke="midnightblue" d="M968.68,-246.48C981.07,-237.02 1001.29,-221.6 1016.25,-210.19"/>
<polygon fill="midnightblue" stroke="midnightblue" points="1018.52,-212.86 1024.35,-204.01 1014.27,-207.29 1018.52,-212.86"/>
</g>
<!-- Node20 -->
<g id="node20" class="node">
<title>Node20</title>
<g id="a_node20"><a xlink:href="layout_8hpp.html" target="_top" xlink:title="Layout classes.">
<polygon fill="white" stroke="black" points="723.5,-123.5 723.5,-142.5 833.5,-142.5 833.5,-123.5 723.5,-123.5"/>
<text text-anchor="middle" x="778.5" y="-130.5" font-family="Helvetica,sans-Serif" font-size="10.00">boost/ui/layout.hpp</text>
</a>
</g>
</g>
<!-- Node5&#45;&gt;Node20 -->
<g id="edge27" class="edge">
<title>Node5&#45;&gt;Node20</title>
<path fill="none" stroke="midnightblue" d="M953.23,-246.43C945.06,-230.86 925.76,-197.82 900.5,-179 879.19,-163.13 851.69,-152.34 828.2,-145.31"/>
<polygon fill="midnightblue" stroke="midnightblue" points="828.98,-141.9 818.4,-142.53 827.07,-148.63 828.98,-141.9"/>
</g>
<!-- Node21 -->
<g id="node21" class="node">
<title>Node21</title>
<g id="a_node21"><a xlink:title=" ">
<polygon fill="white" stroke="#bfbfbf" points="613.5,-179.5 613.5,-209.5 735.5,-209.5 735.5,-179.5 613.5,-179.5"/>
<text text-anchor="start" x="621.5" y="-197.5" font-family="Helvetica,sans-Serif" font-size="10.00">boost/ui/detail/shared</text>
<text text-anchor="middle" x="674.5" y="-186.5" font-family="Helvetica,sans-Serif" font-size="10.00">_count.hpp</text>
</a>
</g>
</g>
<!-- Node5&#45;&gt;Node21 -->
<g id="edge29" class="edge">
<title>Node5&#45;&gt;Node21</title>
<path fill="none" stroke="midnightblue" d="M916.95,-246.48C872.28,-237.08 799.59,-221.8 745.43,-210.41"/>
<polygon fill="midnightblue" stroke="midnightblue" points="746.06,-206.97 735.55,-208.34 744.61,-213.82 746.06,-206.97"/>
</g>
<!-- Node22 -->
<g id="node22" class="node">
<title>Node22</title>
<g id="a_node22"><a xlink:title=" ">
<polygon fill="white" stroke="#bfbfbf" points="753.5,-185 753.5,-204 891.5,-204 891.5,-185 753.5,-185"/>
<text text-anchor="middle" x="822.5" y="-192" font-family="Helvetica,sans-Serif" font-size="10.00">boost/ui/detail/event.hpp</text>
</a>
</g>
</g>
<!-- Node5&#45;&gt;Node22 -->
<g id="edge30" class="edge">
<title>Node5&#45;&gt;Node22</title>
<path fill="none" stroke="midnightblue" d="M938.16,-246.48C915.4,-236.45 877.41,-219.7 851.21,-208.15"/>
<polygon fill="midnightblue" stroke="midnightblue" points="852.37,-204.84 841.81,-204.01 849.55,-211.24 852.37,-204.84"/>
</g>
<!-- Node6&#45;&gt;Node2 -->
<g id="edge8" class="edge">
<title>Node6&#45;&gt;Node2</title>
<path fill="none" stroke="midnightblue" d="M431.31,-124.81C436.11,-124.19 440.89,-123.58 445.5,-123 579.17,-106.16 613.08,-105.72 746.5,-87 755.92,-85.68 765.88,-84.18 775.61,-82.65"/>
<polygon fill="midnightblue" stroke="midnightblue" points="776.3,-86.09 785.63,-81.07 775.2,-79.18 776.3,-86.09"/>
</g>
<!-- Node7 -->
<g id="node7" class="node">
<title>Node7</title>
<g id="a_node7"><a xlink:title=" ">
<polygon fill="white" stroke="#bfbfbf" points="0,-62 0,-81 113,-81 113,-62 0,-62"/>
<text text-anchor="middle" x="56.5" y="-69" font-family="Helvetica,sans-Serif" font-size="10.00">boost/geometry.hpp</text>
</a>
</g>
</g>
<!-- Node6&#45;&gt;Node7 -->
<g id="edge9" class="edge">
<title>Node6&#45;&gt;Node7</title>
<path fill="none" stroke="midnightblue" d="M325.61,-123.49C274,-114.88 192.62,-100.88 122.5,-87 116.6,-85.83 110.42,-84.55 104.31,-83.25"/>
<polygon fill="midnightblue" stroke="midnightblue" points="104.65,-79.74 94.14,-81.05 103.17,-86.58 104.65,-79.74"/>
</g>
<!-- Node8 -->
<g id="node8" class="node">
<title>Node8</title>
<g id="a_node8"><a xlink:title=" ">
<polygon fill="white" stroke="#bfbfbf" points="131.5,-56.5 131.5,-86.5 283.5,-86.5 283.5,-56.5 131.5,-56.5"/>
<text text-anchor="start" x="139.5" y="-74.5" font-family="Helvetica,sans-Serif" font-size="10.00">boost/geometry/geometries</text>
<text text-anchor="middle" x="207.5" y="-63.5" font-family="Helvetica,sans-Serif" font-size="10.00">/point_xy.hpp</text>
</a>
</g>
</g>
<!-- Node6&#45;&gt;Node8 -->
<g id="edge10" class="edge">
<title>Node6&#45;&gt;Node8</title>
<path fill="none" stroke="midnightblue" d="M353.14,-123.48C328.18,-114.74 288.66,-100.91 257.09,-89.86"/>
<polygon fill="midnightblue" stroke="midnightblue" points="258.16,-86.52 247.57,-86.52 255.85,-93.13 258.16,-86.52"/>
</g>
<!-- Node9 -->
<g id="node9" class="node">
<title>Node9</title>
<g id="a_node9"><a xlink:title=" ">
<polygon fill="white" stroke="#bfbfbf" points="301.5,-56.5 301.5,-86.5 453.5,-86.5 453.5,-56.5 301.5,-56.5"/>
<text text-anchor="start" x="309.5" y="-74.5" font-family="Helvetica,sans-Serif" font-size="10.00">boost/geometry/geometries</text>
<text text-anchor="middle" x="377.5" y="-63.5" font-family="Helvetica,sans-Serif" font-size="10.00">/box.hpp</text>
</a>
</g>
</g>
<!-- Node6&#45;&gt;Node9 -->
<g id="edge11" class="edge">
<title>Node6&#45;&gt;Node9</title>
<path fill="none" stroke="midnightblue" d="M377.5,-123.48C377.5,-116.47 377.5,-106.19 377.5,-96.7"/>
<polygon fill="midnightblue" stroke="midnightblue" points="381,-96.52 377.5,-86.52 374,-96.52 381,-96.52"/>
</g>
<!-- Node10 -->
<g id="node10" class="node">
<title>Node10</title>
<g id="a_node10"><a xlink:title=" ">
<polygon fill="white" stroke="#bfbfbf" points="472,-56.5 472,-86.5 585,-86.5 585,-56.5 472,-56.5"/>
<text text-anchor="start" x="480" y="-74.5" font-family="Helvetica,sans-Serif" font-size="10.00">boost/polygon/point</text>
<text text-anchor="middle" x="528.5" y="-63.5" font-family="Helvetica,sans-Serif" font-size="10.00">_data.hpp</text>
</a>
</g>
</g>
<!-- Node6&#45;&gt;Node10 -->
<g id="edge12" class="edge">
<title>Node6&#45;&gt;Node10</title>
<path fill="none" stroke="midnightblue" d="M399.13,-123.48C421.02,-114.85 455.5,-101.26 483.36,-90.29"/>
<polygon fill="midnightblue" stroke="midnightblue" points="484.89,-93.45 492.91,-86.52 482.33,-86.93 484.89,-93.45"/>
</g>
<!-- Node11 -->
<g id="node11" class="node">
<title>Node11</title>
<g id="a_node11"><a xlink:title=" ">
<polygon fill="white" stroke="#bfbfbf" points="603.5,-56.5 603.5,-86.5 737.5,-86.5 737.5,-56.5 603.5,-56.5"/>
<text text-anchor="start" x="611.5" y="-74.5" font-family="Helvetica,sans-Serif" font-size="10.00">boost/polygon/rectangle</text>
<text text-anchor="middle" x="670.5" y="-63.5" font-family="Helvetica,sans-Serif" font-size="10.00">_data.hpp</text>
</a>
</g>
</g>
<!-- Node6&#45;&gt;Node11 -->
<g id="edge13" class="edge">
<title>Node6&#45;&gt;Node11</title>
<path fill="none" stroke="midnightblue" d="M419.48,-123.48C464.78,-114.28 537.92,-99.42 593.58,-88.12"/>
<polygon fill="midnightblue" stroke="midnightblue" points="594.31,-91.54 603.41,-86.12 592.92,-84.68 594.31,-91.54"/>
</g>
<!-- Node12&#45;&gt;Node2 -->
<g id="edge15" class="edge">
<title>Node12&#45;&gt;Node2</title>
<path fill="none" stroke="midnightblue" d="M1144.06,-123.48C1079.02,-112.69 967.15,-94.15 897.76,-82.65"/>
<polygon fill="midnightblue" stroke="midnightblue" points="898.28,-79.19 887.84,-81.01 897.13,-86.1 898.28,-79.19"/>
</g>
<!-- Node13 -->
<g id="node13" class="node">
<title>Node13</title>
<g id="a_node13"><a xlink:title=" ">
<polygon fill="white" stroke="#bfbfbf" points="1246.5,-62 1246.5,-81 1290.5,-81 1290.5,-62 1246.5,-62"/>
<text text-anchor="middle" x="1268.5" y="-69" font-family="Helvetica,sans-Serif" font-size="10.00">string</text>
</a>
</g>
</g>
<!-- Node12&#45;&gt;Node13 -->
<g id="edge16" class="edge">
<title>Node12&#45;&gt;Node13</title>
<path fill="none" stroke="midnightblue" d="M1205.96,-123.48C1217.45,-114.11 1236.13,-98.88 1250.09,-87.51"/>
<polygon fill="midnightblue" stroke="midnightblue" points="1252.52,-90.04 1258.06,-81.01 1248.1,-84.61 1252.52,-90.04"/>
</g>
<!-- Node14 -->
<g id="node14" class="node">
<title>Node14</title>
<g id="a_node14"><a xlink:title=" ">
<polygon fill="white" stroke="#bfbfbf" points="1062,-62 1062,-81 1145,-81 1145,-62 1062,-62"/>
<text text-anchor="middle" x="1103.5" y="-69" font-family="Helvetica,sans-Serif" font-size="10.00">initializer_list</text>
</a>
</g>
</g>
<!-- Node12&#45;&gt;Node14 -->
<g id="edge17" class="edge">
<title>Node12&#45;&gt;Node14</title>
<path fill="none" stroke="midnightblue" d="M1182.32,-123.48C1167.43,-113.84 1142.96,-98.02 1125.23,-86.55"/>
<polygon fill="midnightblue" stroke="midnightblue" points="1126.95,-83.5 1116.66,-81.01 1123.15,-89.38 1126.95,-83.5"/>
</g>
<!-- Node15 -->
<g id="node15" class="node">
<title>Node15</title>
<g id="a_node15"><a xlink:title=" ">
<polygon fill="white" stroke="#bfbfbf" points="1163,-62 1163,-81 1228,-81 1228,-62 1163,-62"/>
<text text-anchor="middle" x="1195.5" y="-69" font-family="Helvetica,sans-Serif" font-size="10.00">functional</text>
</a>
</g>
</g>
<!-- Node12&#45;&gt;Node15 -->
<g id="edge18" class="edge">
<title>Node12&#45;&gt;Node15</title>
<path fill="none" stroke="midnightblue" d="M1195.5,-123.48C1195.5,-115.08 1195.5,-101.98 1195.5,-91.16"/>
<polygon fill="midnightblue" stroke="midnightblue" points="1199,-91.01 1195.5,-81.01 1192,-91.01 1199,-91.01"/>
</g>
<!-- Node16&#45;&gt;Node2 -->
<g id="edge20" class="edge">
<title>Node16&#45;&gt;Node2</title>
<path fill="none" stroke="midnightblue" d="M562.24,-184.99C613.43,-164 745.93,-109.65 806.04,-84.99"/>
<polygon fill="midnightblue" stroke="midnightblue" points="807.46,-88.19 815.38,-81.16 804.8,-81.72 807.46,-88.19"/>
</g>
<!-- Node16&#45;&gt;Node6 -->
<g id="edge21" class="edge">
<title>Node16&#45;&gt;Node6</title>
<path fill="none" stroke="midnightblue" d="M518,-184.98C489.87,-174.77 442.57,-157.61 410.71,-146.05"/>
<polygon fill="midnightblue" stroke="midnightblue" points="411.55,-142.63 400.95,-142.51 409.16,-149.21 411.55,-142.63"/>
</g>
<!-- Node17 -->
<g id="node17" class="node">
<title>Node17</title>
<g id="a_node17"><a xlink:title=" ">
<polygon fill="white" stroke="#bfbfbf" points="488,-123.5 488,-142.5 595,-142.5 595,-123.5 488,-123.5"/>
<text text-anchor="middle" x="541.5" y="-130.5" font-family="Helvetica,sans-Serif" font-size="10.00">boost/function.hpp</text>
</a>
</g>
</g>
<!-- Node16&#45;&gt;Node17 -->
<g id="edge22" class="edge">
<title>Node16&#45;&gt;Node17</title>
<path fill="none" stroke="midnightblue" d="M541.5,-184.98C541.5,-176.58 541.5,-163.48 541.5,-152.66"/>
<polygon fill="midnightblue" stroke="midnightblue" points="545,-152.51 541.5,-142.51 538,-152.51 545,-152.51"/>
</g>
<!-- Node18&#45;&gt;Node2 -->
<g id="edge24" class="edge">
<title>Node18&#45;&gt;Node2</title>
<path fill="none" stroke="midnightblue" d="M1042.67,-184.74C1053.51,-170.38 1071.3,-141.58 1056.5,-123 1037.41,-99.03 959.57,-85.51 901.86,-78.6"/>
<polygon fill="midnightblue" stroke="midnightblue" points="902.04,-75.1 891.7,-77.43 901.24,-82.06 902.04,-75.1"/>
</g>
<!-- Node18&#45;&gt;Node12 -->
<g id="edge25" class="edge">
<title>Node18&#45;&gt;Node12</title>
<path fill="none" stroke="midnightblue" d="M1058.42,-184.98C1085.87,-174.77 1132.02,-157.61 1163.1,-146.05"/>
<polygon fill="midnightblue" stroke="midnightblue" points="1164.47,-149.28 1172.62,-142.51 1162.03,-142.71 1164.47,-149.28"/>
</g>
<!-- Node19 -->
<g id="node19" class="node">
<title>Node19</title>
<g id="a_node19"><a xlink:title=" ">
<polygon fill="white" stroke="#bfbfbf" points="889,-123.5 889,-142.5 1048,-142.5 1048,-123.5 889,-123.5"/>
<text text-anchor="middle" x="968.5" y="-130.5" font-family="Helvetica,sans-Serif" font-size="10.00">boost/core/scoped_enum.hpp</text>
</a>
</g>
</g>
<!-- Node18&#45;&gt;Node19 -->
<g id="edge26" class="edge">
<title>Node18&#45;&gt;Node19</title>
<path fill="none" stroke="midnightblue" d="M1025.9,-184.98C1015.45,-175.7 998.53,-160.67 985.76,-149.33"/>
<polygon fill="midnightblue" stroke="midnightblue" points="987.88,-146.53 978.08,-142.51 983.23,-151.77 987.88,-146.53"/>
</g>
<!-- Node20&#45;&gt;Node2 -->
<g id="edge28" class="edge">
<title>Node20&#45;&gt;Node2</title>
<path fill="none" stroke="midnightblue" d="M786.81,-123.48C795.68,-114.37 809.95,-99.74 820.92,-88.48"/>
<polygon fill="midnightblue" stroke="midnightblue" points="823.73,-90.61 828.21,-81.01 818.72,-85.73 823.73,-90.61"/>
</g>
</g>
</svg>
