<?xml version="1.0" encoding="UTF-8" standalone="no"?>
<!DOCTYPE svg PUBLIC "-//W3C//DTD SVG 1.1//EN"
 "http://www.w3.org/Graphics/SVG/1.1/DTD/svg11.dtd">
<!-- Generated by graphviz version 2.38.0 (20140413.2041)
 -->
<!-- Title: boost/ui/list_box.hpp Pages: 1 -->
<svg width="1418pt" height="386pt"
 viewBox="0.00 0.00 1418.00 386.00" xmlns="http://www.w3.org/2000/svg" xmlns:xlink="http://www.w3.org/1999/xlink">
<g id="graph0" class="graph" transform="scale(1 1) rotate(0) translate(4 382)">
<title>boost/ui/list_box.hpp</title>
<polygon fill="white" stroke="none" points="-4,4 -4,-382 1414,-382 1414,4 -4,4"/>
<!-- Node1 -->
<g id="node1" class="node"><title>Node1</title>
<polygon fill="#bfbfbf" stroke="black" points="1015,-358.5 1015,-377.5 1122,-377.5 1122,-358.5 1015,-358.5"/>
<text text-anchor="middle" x="1068.5" y="-365.5" font-family="Helvetica,sans-Serif" font-size="10.00">boost/ui/list_box.hpp</text>
</g>
<!-- Node2 -->
<g id="node2" class="node"><title>Node2</title>
<g id="a_node2"><a xlink:href="config_8hpp.html" target="_top" xlink:title="Configuration options. ">
<polygon fill="white" stroke="black" points="711,-62 711,-81 810,-81 810,-62 711,-62"/>
<text text-anchor="middle" x="760.5" y="-69" font-family="Helvetica,sans-Serif" font-size="10.00">boost/ui/config.hpp</text>
</a>
</g>
</g>
<!-- Node1&#45;&gt;Node2 -->
<g id="edge1" class="edge"><title>Node1&#45;&gt;Node2</title>
<path fill="none" stroke="midnightblue" d="M1014.75,-363.557C859.023,-352.868 418.5,-317.302 418.5,-257 418.5,-257 418.5,-257 418.5,-193.5 418.5,-161.049 413.293,-144.613 437.5,-123 477.401,-87.3753 622.689,-95.4978 675.5,-87 683.892,-85.6496 692.743,-84.1849 701.437,-82.723"/>
<polygon fill="midnightblue" stroke="midnightblue" points="702.257,-86.1342 711.533,-81.0153 701.089,-79.2322 702.257,-86.1342"/>
</g>
<!-- Node4 -->
<g id="node4" class="node"><title>Node4</title>
<g id="a_node4"><a xlink:href="strings__box_8hpp.html" target="_top" xlink:title="Widget with array of strings. ">
<polygon fill="white" stroke="black" points="898,-302.5 898,-321.5 1021,-321.5 1021,-302.5 898,-302.5"/>
<text text-anchor="middle" x="959.5" y="-309.5" font-family="Helvetica,sans-Serif" font-size="10.00">boost/ui/strings_box.hpp</text>
</a>
</g>
</g>
<!-- Node1&#45;&gt;Node4 -->
<g id="edge3" class="edge"><title>Node1&#45;&gt;Node4</title>
<path fill="none" stroke="midnightblue" d="M1050.99,-358.324C1033.43,-349.625 1006.17,-336.12 985.969,-326.113"/>
<polygon fill="midnightblue" stroke="midnightblue" points="987.484,-322.958 976.969,-321.655 984.376,-329.23 987.484,-322.958"/>
</g>
<!-- Node23 -->
<g id="node23" class="node"><title>Node23</title>
<polygon fill="white" stroke="#bfbfbf" points="636.5,-246.5 636.5,-265.5 680.5,-265.5 680.5,-246.5 636.5,-246.5"/>
<text text-anchor="middle" x="658.5" y="-253.5" font-family="Helvetica,sans-Serif" font-size="10.00">vector</text>
</g>
<!-- Node1&#45;&gt;Node23 -->
<g id="edge39" class="edge"><title>Node1&#45;&gt;Node23</title>
<path fill="none" stroke="midnightblue" d="M1014.76,-358.794C968.008,-351.098 898.67,-338.338 839.5,-322 785.223,-307.013 723.909,-283.564 688.383,-269.305"/>
<polygon fill="midnightblue" stroke="midnightblue" points="689.658,-266.045 679.075,-265.542 687.034,-272.535 689.658,-266.045"/>
</g>
<!-- Node24 -->
<g id="node24" class="node"><title>Node24</title>
<polygon fill="white" stroke="#bfbfbf" points="699,-246.5 699,-265.5 812,-265.5 812,-246.5 699,-246.5"/>
<text text-anchor="middle" x="755.5" y="-253.5" font-family="Helvetica,sans-Serif" font-size="10.00">boost/range/begin.hpp</text>
</g>
<!-- Node1&#45;&gt;Node24 -->
<g id="edge40" class="edge"><title>Node1&#45;&gt;Node24</title>
<path fill="none" stroke="midnightblue" d="M1023.34,-358.454C986.45,-350.825 933.287,-338.337 888.5,-322 848.934,-307.567 805.523,-284.977 779.403,-270.587"/>
<polygon fill="midnightblue" stroke="midnightblue" points="781.041,-267.493 770.601,-265.687 777.636,-273.609 781.041,-267.493"/>
</g>
<!-- Node25 -->
<g id="node25" class="node"><title>Node25</title>
<polygon fill="white" stroke="#bfbfbf" points="988,-246.5 988,-265.5 1093,-265.5 1093,-246.5 988,-246.5"/>
<text text-anchor="middle" x="1040.5" y="-253.5" font-family="Helvetica,sans-Serif" font-size="10.00">boost/range/end.hpp</text>
</g>
<!-- Node1&#45;&gt;Node25 -->
<g id="edge41" class="edge"><title>Node1&#45;&gt;Node25</title>
<path fill="none" stroke="midnightblue" d="M1066.3,-358.368C1061.78,-340.617 1051.36,-299.666 1045.23,-275.597"/>
<polygon fill="midnightblue" stroke="midnightblue" points="1048.55,-274.419 1042.69,-265.591 1041.76,-276.146 1048.55,-274.419"/>
</g>
<!-- Node26 -->
<g id="node26" class="node"><title>Node26</title>
<polygon fill="white" stroke="#bfbfbf" points="1111,-246.5 1111,-265.5 1218,-265.5 1218,-246.5 1111,-246.5"/>
<text text-anchor="middle" x="1164.5" y="-253.5" font-family="Helvetica,sans-Serif" font-size="10.00">boost/range/size.hpp</text>
</g>
<!-- Node1&#45;&gt;Node26 -->
<g id="edge42" class="edge"><title>Node1&#45;&gt;Node26</title>
<path fill="none" stroke="midnightblue" d="M1073.11,-358.464C1080.32,-345.503 1095.16,-320.422 1111.5,-302 1121.26,-290.995 1133.74,-280.269 1144.14,-272.051"/>
<polygon fill="midnightblue" stroke="midnightblue" points="1146.49,-274.66 1152.28,-265.787 1142.22,-269.113 1146.49,-274.66"/>
</g>
<!-- Node27 -->
<g id="node27" class="node"><title>Node27</title>
<polygon fill="white" stroke="#bfbfbf" points="1235.5,-246.5 1235.5,-265.5 1291.5,-265.5 1291.5,-246.5 1235.5,-246.5"/>
<text text-anchor="middle" x="1263.5" y="-253.5" font-family="Helvetica,sans-Serif" font-size="10.00">algorithm</text>
</g>
<!-- Node1&#45;&gt;Node27 -->
<g id="edge43" class="edge"><title>Node1&#45;&gt;Node27</title>
<path fill="none" stroke="midnightblue" d="M1077.31,-358.421C1091.52,-344.95 1120.81,-318.66 1149.5,-302 1173.54,-288.039 1202.74,-276.606 1225.57,-268.758"/>
<polygon fill="midnightblue" stroke="midnightblue" points="1226.88,-272.01 1235.25,-265.513 1224.65,-265.373 1226.88,-272.01"/>
</g>
<!-- Node28 -->
<g id="node28" class="node"><title>Node28</title>
<polygon fill="white" stroke="#bfbfbf" points="1310,-246.5 1310,-265.5 1357,-265.5 1357,-246.5 1310,-246.5"/>
<text text-anchor="middle" x="1333.5" y="-253.5" font-family="Helvetica,sans-Serif" font-size="10.00">iterator</text>
</g>
<!-- Node1&#45;&gt;Node28 -->
<g id="edge44" class="edge"><title>Node1&#45;&gt;Node28</title>
<path fill="none" stroke="midnightblue" d="M1084.43,-358.38C1100.84,-349.449 1127.1,-335.003 1149.5,-322 1164.33,-313.39 1166.82,-308.95 1182.5,-302 1193.34,-297.197 1258.71,-278.272 1299.81,-266.548"/>
<polygon fill="midnightblue" stroke="midnightblue" points="1301.03,-269.84 1309.69,-263.736 1299.11,-263.108 1301.03,-269.84"/>
</g>
<!-- Node29 -->
<g id="node29" class="node"><title>Node29</title>
<polygon fill="white" stroke="#bfbfbf" points="1192,-302.5 1192,-321.5 1291,-321.5 1291,-302.5 1192,-302.5"/>
<text text-anchor="middle" x="1241.5" y="-309.5" font-family="Helvetica,sans-Serif" font-size="10.00">boost/ui/config.hpp</text>
</g>
<!-- Node1&#45;&gt;Node29 -->
<g id="edge37" class="edge"><title>Node1&#45;&gt;Node29</title>
<path fill="none" stroke="midnightblue" d="M1095.91,-358.444C1125.27,-349.28 1172.02,-334.688 1204.6,-324.519"/>
<polygon fill="midnightblue" stroke="midnightblue" points="1205.71,-327.837 1214.22,-321.516 1203.63,-321.155 1205.71,-327.837"/>
</g>
<!-- Node30 -->
<g id="node30" class="node"><title>Node30</title>
<polygon fill="white" stroke="#bfbfbf" points="1309,-302.5 1309,-321.5 1410,-321.5 1410,-302.5 1309,-302.5"/>
<text text-anchor="middle" x="1359.5" y="-309.5" font-family="Helvetica,sans-Serif" font-size="10.00">boost/ui/widget.hpp</text>
</g>
<!-- Node1&#45;&gt;Node30 -->
<g id="edge38" class="edge"><title>Node1&#45;&gt;Node30</title>
<path fill="none" stroke="midnightblue" d="M1114.61,-358.444C1165.91,-348.925 1248.77,-333.547 1303.69,-323.356"/>
<polygon fill="midnightblue" stroke="midnightblue" points="1304.41,-326.782 1313.61,-321.516 1303.14,-319.9 1304.41,-326.782"/>
</g>
<!-- Node3 -->
<g id="node3" class="node"><title>Node3</title>
<polygon fill="white" stroke="#bfbfbf" points="716,-0.5 716,-19.5 805,-19.5 805,-0.5 716,-0.5"/>
<text text-anchor="middle" x="760.5" y="-7.5" font-family="Helvetica,sans-Serif" font-size="10.00">boost/config.hpp</text>
</g>
<!-- Node2&#45;&gt;Node3 -->
<g id="edge2" class="edge"><title>Node2&#45;&gt;Node3</title>
<path fill="none" stroke="midnightblue" d="M760.5,-61.9751C760.5,-53.5803 760.5,-40.4806 760.5,-29.6631"/>
<polygon fill="midnightblue" stroke="midnightblue" points="764,-29.5091 760.5,-19.5091 757,-29.5091 764,-29.5091"/>
</g>
<!-- Node4&#45;&gt;Node2 -->
<g id="edge4" class="edge"><title>Node4&#45;&gt;Node2</title>
<path fill="none" stroke="midnightblue" d="M960.982,-302.197C963.386,-289.322 968.865,-264.842 978.5,-246 987.729,-227.953 999.922,-229.173 1006.5,-210 1019.38,-172.472 1016.23,-149.275 986.5,-123 962.203,-101.525 878.789,-87.0625 820.409,-79.3017"/>
<polygon fill="midnightblue" stroke="midnightblue" points="820.549,-75.7907 810.182,-77.9762 819.649,-82.7326 820.549,-75.7907"/>
</g>
<!-- Node5 -->
<g id="node5" class="node"><title>Node5</title>
<g id="a_node5"><a xlink:href="widget_8hpp.html" target="_top" xlink:title="Widget class. ">
<polygon fill="white" stroke="black" points="830,-246.5 830,-265.5 931,-265.5 931,-246.5 830,-246.5"/>
<text text-anchor="middle" x="880.5" y="-253.5" font-family="Helvetica,sans-Serif" font-size="10.00">boost/ui/widget.hpp</text>
</a>
</g>
</g>
<!-- Node4&#45;&gt;Node5 -->
<g id="edge5" class="edge"><title>Node4&#45;&gt;Node5</title>
<path fill="none" stroke="midnightblue" d="M946.807,-302.324C934.599,-293.979 915.922,-281.212 901.497,-271.352"/>
<polygon fill="midnightblue" stroke="midnightblue" points="903.392,-268.408 893.161,-265.655 899.442,-274.187 903.392,-268.408"/>
</g>
<!-- Node4&#45;&gt;Node23 -->
<g id="edge31" class="edge"><title>Node4&#45;&gt;Node23</title>
<path fill="none" stroke="midnightblue" d="M897.977,-302.846C845.245,-295.381 767.123,-283.192 690.58,-266.033"/>
<polygon fill="midnightblue" stroke="midnightblue" points="691.296,-262.607 680.769,-263.804 689.745,-269.433 691.296,-262.607"/>
</g>
<!-- Node4&#45;&gt;Node24 -->
<g id="edge32" class="edge"><title>Node4&#45;&gt;Node24</title>
<path fill="none" stroke="midnightblue" d="M927.176,-302.444C892.111,-293.162 836.002,-278.309 797.535,-268.127"/>
<polygon fill="midnightblue" stroke="midnightblue" points="798.236,-264.692 787.673,-265.516 796.445,-271.459 798.236,-264.692"/>
</g>
<!-- Node4&#45;&gt;Node25 -->
<g id="edge33" class="edge"><title>Node4&#45;&gt;Node25</title>
<path fill="none" stroke="midnightblue" d="M972.514,-302.324C985.032,-293.979 1004.18,-281.212 1018.97,-271.352"/>
<polygon fill="midnightblue" stroke="midnightblue" points="1021.14,-274.114 1027.52,-265.655 1017.26,-268.289 1021.14,-274.114"/>
</g>
<!-- Node4&#45;&gt;Node26 -->
<g id="edge34" class="edge"><title>Node4&#45;&gt;Node26</title>
<path fill="none" stroke="midnightblue" d="M991.983,-302.444C1027.22,-293.162 1083.6,-278.309 1122.26,-268.127"/>
<polygon fill="midnightblue" stroke="midnightblue" points="1123.39,-271.448 1132.17,-265.516 1121.61,-264.679 1123.39,-271.448"/>
</g>
<!-- Node4&#45;&gt;Node27 -->
<g id="edge35" class="edge"><title>Node4&#45;&gt;Node27</title>
<path fill="none" stroke="midnightblue" d="M1017.27,-302.486C1069.28,-294.545 1148,-281.841 1225.35,-266.122"/>
<polygon fill="midnightblue" stroke="midnightblue" points="1226.17,-269.526 1235.27,-264.088 1224.77,-262.669 1226.17,-269.526"/>
</g>
<!-- Node4&#45;&gt;Node28 -->
<g id="edge36" class="edge"><title>Node4&#45;&gt;Node28</title>
<path fill="none" stroke="midnightblue" d="M1021.2,-305.389C1087.68,-298.776 1196.69,-286.293 1299.84,-265.876"/>
<polygon fill="midnightblue" stroke="midnightblue" points="1300.68,-269.276 1309.8,-263.875 1299.31,-262.413 1300.68,-269.276"/>
</g>
<!-- Node5&#45;&gt;Node2 -->
<g id="edge6" class="edge"><title>Node5&#45;&gt;Node2</title>
<path fill="none" stroke="midnightblue" d="M878.785,-246.284C875.514,-231.337 867.263,-200.365 851.5,-179 836.087,-158.109 822.956,-162.216 805.5,-143 790.904,-126.932 778.009,-105.588 769.806,-90.6094"/>
<polygon fill="midnightblue" stroke="midnightblue" points="772.696,-88.5891 764.913,-81.4001 766.514,-91.8733 772.696,-88.5891"/>
</g>
<!-- Node6 -->
<g id="node6" class="node"><title>Node6</title>
<g id="a_node6"><a xlink:href="coord_8hpp.html" target="_top" xlink:title="Coordinates classes. ">
<polygon fill="white" stroke="black" points="293,-123.5 293,-142.5 390,-142.5 390,-123.5 293,-123.5"/>
<text text-anchor="middle" x="341.5" y="-130.5" font-family="Helvetica,sans-Serif" font-size="10.00">boost/ui/coord.hpp</text>
</a>
</g>
</g>
<!-- Node5&#45;&gt;Node6 -->
<g id="edge7" class="edge"><title>Node5&#45;&gt;Node6</title>
<path fill="none" stroke="midnightblue" d="M829.788,-247.192C826.647,-246.771 823.532,-246.37 820.5,-246 650.784,-225.311 596.169,-273.684 437.5,-210 404.311,-196.679 373.284,-168.045 355.911,-149.976"/>
<polygon fill="midnightblue" stroke="midnightblue" points="358.317,-147.425 348.931,-142.511 353.204,-152.206 358.317,-147.425"/>
</g>
<!-- Node12 -->
<g id="node12" class="node"><title>Node12</title>
<g id="a_node12"><a xlink:href="string_8hpp.html" target="_top" xlink:title="String class and operations. ">
<polygon fill="white" stroke="black" points="1055,-123.5 1055,-142.5 1152,-142.5 1152,-123.5 1055,-123.5"/>
<text text-anchor="middle" x="1103.5" y="-130.5" font-family="Helvetica,sans-Serif" font-size="10.00">boost/ui/string.hpp</text>
</a>
</g>
</g>
<!-- Node5&#45;&gt;Node12 -->
<g id="edge14" class="edge"><title>Node5&#45;&gt;Node12</title>
<path fill="none" stroke="midnightblue" d="M913.312,-246.438C939.49,-238.875 976.597,-226.484 1006.5,-210 1037.37,-192.983 1068.68,-166.388 1087.08,-149.594"/>
<polygon fill="midnightblue" stroke="midnightblue" points="1089.63,-152.005 1094.58,-142.637 1084.87,-146.874 1089.63,-152.005"/>
</g>
<!-- Node16 -->
<g id="node16" class="node"><title>Node16</title>
<g id="a_node16"><a xlink:href="event_8hpp.html" target="_top" xlink:title="Event classes. ">
<polygon fill="white" stroke="black" points="447,-185 447,-204 544,-204 544,-185 447,-185"/>
<text text-anchor="middle" x="495.5" y="-192" font-family="Helvetica,sans-Serif" font-size="10.00">boost/ui/event.hpp</text>
</a>
</g>
</g>
<!-- Node5&#45;&gt;Node16 -->
<g id="edge19" class="edge"><title>Node5&#45;&gt;Node16</title>
<path fill="none" stroke="midnightblue" d="M829.769,-247.336C826.633,-246.879 823.524,-246.431 820.5,-246 701.956,-229.118 671.097,-232.555 553.5,-210 548.085,-208.961 542.419,-207.729 536.841,-206.429"/>
<polygon fill="midnightblue" stroke="midnightblue" points="537.508,-202.99 526.966,-204.041 535.863,-209.794 537.508,-202.99"/>
</g>
<!-- Node18 -->
<g id="node18" class="node"><title>Node18</title>
<g id="a_node18"><a xlink:href="font_8hpp.html" target="_top" xlink:title="Font class. ">
<polygon fill="white" stroke="black" points="909,-185 909,-204 998,-204 998,-185 909,-185"/>
<text text-anchor="middle" x="953.5" y="-192" font-family="Helvetica,sans-Serif" font-size="10.00">boost/ui/font.hpp</text>
</a>
</g>
</g>
<!-- Node5&#45;&gt;Node18 -->
<g id="edge23" class="edge"><title>Node5&#45;&gt;Node18</title>
<path fill="none" stroke="midnightblue" d="M890.959,-246.475C902.451,-237.108 921.13,-221.884 935.087,-210.508"/>
<polygon fill="midnightblue" stroke="midnightblue" points="937.52,-213.04 943.06,-204.009 933.098,-207.614 937.52,-213.04"/>
</g>
<!-- Node20 -->
<g id="node20" class="node"><title>Node20</title>
<g id="a_node20"><a xlink:href="layout_8hpp.html" target="_top" xlink:title="Layout classes. ">
<polygon fill="white" stroke="black" points="659,-123.5 659,-142.5 758,-142.5 758,-123.5 659,-123.5"/>
<text text-anchor="middle" x="708.5" y="-130.5" font-family="Helvetica,sans-Serif" font-size="10.00">boost/ui/layout.hpp</text>
</a>
</g>
</g>
<!-- Node5&#45;&gt;Node20 -->
<g id="edge27" class="edge"><title>Node5&#45;&gt;Node20</title>
<path fill="none" stroke="midnightblue" d="M875.938,-246.243C867.419,-230.672 847.654,-198.021 822.5,-179 802.024,-163.517 775.528,-152.633 753.234,-145.452"/>
<polygon fill="midnightblue" stroke="midnightblue" points="754.233,-142.097 743.646,-142.504 752.176,-148.788 754.233,-142.097"/>
</g>
<!-- Node21 -->
<g id="node21" class="node"><title>Node21</title>
<polygon fill="white" stroke="#bfbfbf" points="562.5,-179.5 562.5,-209.5 672.5,-209.5 672.5,-179.5 562.5,-179.5"/>
<text text-anchor="start" x="570.5" y="-197.5" font-family="Helvetica,sans-Serif" font-size="10.00">boost/ui/detail/shared</text>
<text text-anchor="middle" x="617.5" y="-186.5" font-family="Helvetica,sans-Serif" font-size="10.00">_count.hpp</text>
</g>
<!-- Node5&#45;&gt;Node21 -->
<g id="edge29" class="edge"><title>Node5&#45;&gt;Node21</title>
<path fill="none" stroke="midnightblue" d="M842.72,-246.462C804.723,-237.873 744.181,-224.186 682.554,-210.238"/>
<polygon fill="midnightblue" stroke="midnightblue" points="683.184,-206.792 672.658,-207.998 681.638,-213.619 683.184,-206.792"/>
</g>
<!-- Node22 -->
<g id="node22" class="node"><title>Node22</title>
<polygon fill="white" stroke="#bfbfbf" points="691,-185 691,-204 814,-204 814,-185 691,-185"/>
<text text-anchor="middle" x="752.5" y="-192" font-family="Helvetica,sans-Serif" font-size="10.00">boost/ui/detail/event.hpp</text>
</g>
<!-- Node5&#45;&gt;Node22 -->
<g id="edge30" class="edge"><title>Node5&#45;&gt;Node22</title>
<path fill="none" stroke="midnightblue" d="M862.161,-246.475C840.679,-236.49 804.878,-219.848 780.052,-208.307"/>
<polygon fill="midnightblue" stroke="midnightblue" points="781.349,-205.051 770.805,-204.009 778.398,-211.398 781.349,-205.051"/>
</g>
<!-- Node6&#45;&gt;Node2 -->
<g id="edge8" class="edge"><title>Node6&#45;&gt;Node2</title>
<path fill="none" stroke="midnightblue" d="M390.332,-124.976C395.119,-124.302 399.903,-123.634 404.5,-123 524.864,-106.408 555.371,-105.219 675.5,-87 684.211,-85.6789 693.408,-84.199 702.409,-82.703"/>
<polygon fill="midnightblue" stroke="midnightblue" points="703.169,-86.1243 712.451,-81.0147 702.009,-79.2212 703.169,-86.1243"/>
</g>
<!-- Node7 -->
<g id="node7" class="node"><title>Node7</title>
<polygon fill="white" stroke="#bfbfbf" points="0,-62 0,-81 103,-81 103,-62 0,-62"/>
<text text-anchor="middle" x="51.5" y="-69" font-family="Helvetica,sans-Serif" font-size="10.00">boost/geometry.hpp</text>
</g>
<!-- Node6&#45;&gt;Node7 -->
<g id="edge9" class="edge"><title>Node6&#45;&gt;Node7</title>
<path fill="none" stroke="midnightblue" d="M294.682,-123.463C248.119,-114.826 174.702,-100.813 111.5,-87 106.396,-85.8846 101.06,-84.6681 95.766,-83.4296"/>
<polygon fill="midnightblue" stroke="midnightblue" points="96.2458,-79.9463 85.7077,-81.0414 94.6287,-86.757 96.2458,-79.9463"/>
</g>
<!-- Node8 -->
<g id="node8" class="node"><title>Node8</title>
<polygon fill="white" stroke="#bfbfbf" points="121,-56.5 121,-86.5 256,-86.5 256,-56.5 121,-56.5"/>
<text text-anchor="start" x="129" y="-74.5" font-family="Helvetica,sans-Serif" font-size="10.00">boost/geometry/geometries</text>
<text text-anchor="middle" x="188.5" y="-63.5" font-family="Helvetica,sans-Serif" font-size="10.00">/point_xy.hpp</text>
</g>
<!-- Node6&#45;&gt;Node8 -->
<g id="edge10" class="edge"><title>Node6&#45;&gt;Node8</title>
<path fill="none" stroke="midnightblue" d="M319.579,-123.475C297.405,-114.852 262.465,-101.264 234.233,-90.2852"/>
<polygon fill="midnightblue" stroke="midnightblue" points="235.148,-86.8855 224.559,-86.523 232.611,-93.4095 235.148,-86.8855"/>
</g>
<!-- Node9 -->
<g id="node9" class="node"><title>Node9</title>
<polygon fill="white" stroke="#bfbfbf" points="274,-56.5 274,-86.5 409,-86.5 409,-56.5 274,-56.5"/>
<text text-anchor="start" x="282" y="-74.5" font-family="Helvetica,sans-Serif" font-size="10.00">boost/geometry/geometries</text>
<text text-anchor="middle" x="341.5" y="-63.5" font-family="Helvetica,sans-Serif" font-size="10.00">/box.hpp</text>
</g>
<!-- Node6&#45;&gt;Node9 -->
<g id="edge11" class="edge"><title>Node6&#45;&gt;Node9</title>
<path fill="none" stroke="midnightblue" d="M341.5,-123.475C341.5,-116.471 341.5,-106.192 341.5,-96.6956"/>
<polygon fill="midnightblue" stroke="midnightblue" points="345,-96.5229 341.5,-86.523 338,-96.523 345,-96.5229"/>
</g>
<!-- Node10 -->
<g id="node10" class="node"><title>Node10</title>
<polygon fill="white" stroke="#bfbfbf" points="427,-56.5 427,-86.5 528,-86.5 528,-56.5 427,-56.5"/>
<text text-anchor="start" x="435" y="-74.5" font-family="Helvetica,sans-Serif" font-size="10.00">boost/polygon/point</text>
<text text-anchor="middle" x="477.5" y="-63.5" font-family="Helvetica,sans-Serif" font-size="10.00">_data.hpp</text>
</g>
<!-- Node6&#45;&gt;Node10 -->
<g id="edge12" class="edge"><title>Node6&#45;&gt;Node10</title>
<path fill="none" stroke="midnightblue" d="M360.985,-123.475C380.524,-114.927 411.212,-101.501 436.189,-90.5734"/>
<polygon fill="midnightblue" stroke="midnightblue" points="437.689,-93.7378 445.447,-86.523 434.883,-87.3247 437.689,-93.7378"/>
</g>
<!-- Node11 -->
<g id="node11" class="node"><title>Node11</title>
<polygon fill="white" stroke="#bfbfbf" points="546.5,-56.5 546.5,-86.5 666.5,-86.5 666.5,-56.5 546.5,-56.5"/>
<text text-anchor="start" x="554.5" y="-74.5" font-family="Helvetica,sans-Serif" font-size="10.00">boost/polygon/rectangle</text>
<text text-anchor="middle" x="606.5" y="-63.5" font-family="Helvetica,sans-Serif" font-size="10.00">_data.hpp</text>
</g>
<!-- Node6&#45;&gt;Node11 -->
<g id="edge13" class="edge"><title>Node6&#45;&gt;Node11</title>
<path fill="none" stroke="midnightblue" d="M379.468,-123.475C420.323,-114.302 486.197,-99.5114 536.491,-88.219"/>
<polygon fill="midnightblue" stroke="midnightblue" points="537.34,-91.6157 546.33,-86.0099 535.806,-84.7857 537.34,-91.6157"/>
</g>
<!-- Node12&#45;&gt;Node2 -->
<g id="edge15" class="edge"><title>Node12&#45;&gt;Node2</title>
<path fill="none" stroke="midnightblue" d="M1054.72,-123.538C992.796,-112.796 886.044,-94.278 819.573,-82.7474"/>
<polygon fill="midnightblue" stroke="midnightblue" points="820.117,-79.2896 809.666,-81.0289 818.921,-86.1866 820.117,-79.2896"/>
</g>
<!-- Node13 -->
<g id="node13" class="node"><title>Node13</title>
<polygon fill="white" stroke="#bfbfbf" points="1151,-62 1151,-81 1192,-81 1192,-62 1151,-62"/>
<text text-anchor="middle" x="1171.5" y="-69" font-family="Helvetica,sans-Serif" font-size="10.00">string</text>
</g>
<!-- Node12&#45;&gt;Node13 -->
<g id="edge16" class="edge"><title>Node12&#45;&gt;Node13</title>
<path fill="none" stroke="midnightblue" d="M1113.24,-123.475C1123.85,-114.197 1141.02,-99.1706 1153.98,-87.831"/>
<polygon fill="midnightblue" stroke="midnightblue" points="1156.55,-90.2282 1161.78,-81.0091 1151.94,-84.9601 1156.55,-90.2282"/>
</g>
<!-- Node14 -->
<g id="node14" class="node"><title>Node14</title>
<polygon fill="white" stroke="#bfbfbf" points="983,-62 983,-81 1056,-81 1056,-62 983,-62"/>
<text text-anchor="middle" x="1019.5" y="-69" font-family="Helvetica,sans-Serif" font-size="10.00">initializer_list</text>
</g>
<!-- Node12&#45;&gt;Node14 -->
<g id="edge17" class="edge"><title>Node12&#45;&gt;Node14</title>
<path fill="none" stroke="midnightblue" d="M1091.46,-123.475C1077.99,-113.931 1055.93,-98.3073 1039.78,-86.8683"/>
<polygon fill="midnightblue" stroke="midnightblue" points="1041.7,-83.9332 1031.51,-81.0091 1037.65,-89.6454 1041.7,-83.9332"/>
</g>
<!-- Node15 -->
<g id="node15" class="node"><title>Node15</title>
<polygon fill="white" stroke="#bfbfbf" points="1074,-62 1074,-81 1133,-81 1133,-62 1074,-62"/>
<text text-anchor="middle" x="1103.5" y="-69" font-family="Helvetica,sans-Serif" font-size="10.00">functional</text>
</g>
<!-- Node12&#45;&gt;Node15 -->
<g id="edge18" class="edge"><title>Node12&#45;&gt;Node15</title>
<path fill="none" stroke="midnightblue" d="M1103.5,-123.475C1103.5,-115.08 1103.5,-101.981 1103.5,-91.1631"/>
<polygon fill="midnightblue" stroke="midnightblue" points="1107,-91.0091 1103.5,-81.0091 1100,-91.0091 1107,-91.0091"/>
</g>
<!-- Node16&#45;&gt;Node2 -->
<g id="edge20" class="edge"><title>Node16&#45;&gt;Node2</title>
<path fill="none" stroke="midnightblue" d="M514.46,-184.803C543.517,-171.478 600.814,-145.219 649.5,-123 677.687,-110.136 709.921,-95.477 732.364,-85.2787"/>
<polygon fill="midnightblue" stroke="midnightblue" points="733.983,-88.3875 741.639,-81.0645 731.087,-82.0145 733.983,-88.3875"/>
</g>
<!-- Node16&#45;&gt;Node6 -->
<g id="edge21" class="edge"><title>Node16&#45;&gt;Node6</title>
<path fill="none" stroke="midnightblue" d="M473.436,-184.975C447.133,-174.813 402.987,-157.756 373.075,-146.2"/>
<polygon fill="midnightblue" stroke="midnightblue" points="374.113,-142.848 363.524,-142.509 371.59,-149.378 374.113,-142.848"/>
</g>
<!-- Node17 -->
<g id="node17" class="node"><title>Node17</title>
<polygon fill="white" stroke="#bfbfbf" points="447,-123.5 447,-142.5 544,-142.5 544,-123.5 447,-123.5"/>
<text text-anchor="middle" x="495.5" y="-130.5" font-family="Helvetica,sans-Serif" font-size="10.00">boost/function.hpp</text>
</g>
<!-- Node16&#45;&gt;Node17 -->
<g id="edge22" class="edge"><title>Node16&#45;&gt;Node17</title>
<path fill="none" stroke="midnightblue" d="M495.5,-184.975C495.5,-176.58 495.5,-163.481 495.5,-152.663"/>
<polygon fill="midnightblue" stroke="midnightblue" points="499,-152.509 495.5,-142.509 492,-152.509 499,-152.509"/>
</g>
<!-- Node18&#45;&gt;Node2 -->
<g id="edge24" class="edge"><title>Node18&#45;&gt;Node2</title>
<path fill="none" stroke="midnightblue" d="M959.478,-184.673C968.449,-170.223 982.886,-141.297 968.5,-123 950.283,-99.831 874.78,-85.9853 819.979,-78.8045"/>
<polygon fill="midnightblue" stroke="midnightblue" points="820.367,-75.3257 810.006,-77.5405 819.486,-82.2701 820.367,-75.3257"/>
</g>
<!-- Node18&#45;&gt;Node12 -->
<g id="edge25" class="edge"><title>Node18&#45;&gt;Node12</title>
<path fill="none" stroke="midnightblue" d="M974.991,-184.975C1000.61,-174.813 1043.61,-157.756 1072.74,-146.2"/>
<polygon fill="midnightblue" stroke="midnightblue" points="1074.04,-149.45 1082.05,-142.509 1071.46,-142.943 1074.04,-149.45"/>
</g>
<!-- Node19 -->
<g id="node19" class="node"><title>Node19</title>
<polygon fill="white" stroke="#bfbfbf" points="815,-123.5 815,-142.5 960,-142.5 960,-123.5 815,-123.5"/>
<text text-anchor="middle" x="887.5" y="-130.5" font-family="Helvetica,sans-Serif" font-size="10.00">boost/core/scoped_enum.hpp</text>
</g>
<!-- Node18&#45;&gt;Node19 -->
<g id="edge26" class="edge"><title>Node18&#45;&gt;Node19</title>
<path fill="none" stroke="midnightblue" d="M944.044,-184.975C933.752,-175.697 917.084,-160.671 904.506,-149.331"/>
<polygon fill="midnightblue" stroke="midnightblue" points="906.71,-146.605 896.939,-142.509 902.022,-151.805 906.71,-146.605"/>
</g>
<!-- Node20&#45;&gt;Node2 -->
<g id="edge28" class="edge"><title>Node20&#45;&gt;Node2</title>
<path fill="none" stroke="midnightblue" d="M715.95,-123.475C723.828,-114.462 736.445,-100.025 746.244,-88.8118"/>
<polygon fill="midnightblue" stroke="midnightblue" points="749.118,-90.842 753.063,-81.0091 743.847,-86.2356 749.118,-90.842"/>
</g>
</g>
</svg>
