<?xml version="1.0" encoding="UTF-8" standalone="no"?>
<!DOCTYPE svg PUBLIC "-//W3C//DTD SVG 1.1//EN"
 "http://www.w3.org/Graphics/SVG/1.1/DTD/svg11.dtd">
<!-- Generated by graphviz version 2.38.0 (20140413.2041)
 -->
<!-- Title: boost/ui/list_box.hpp Pages: 1 -->
<svg width="5073pt" height="274pt"
 viewBox="0.00 0.00 5072.89 274.00" xmlns="http://www.w3.org/2000/svg" xmlns:xlink="http://www.w3.org/1999/xlink">
<g id="graph0" class="graph" transform="scale(1 1) rotate(0) translate(4 270)">
<title>boost/ui/list_box.hpp</title>
<polygon fill="white" stroke="none" points="-4,4 -4,-270 5068.89,-270 5068.89,4 -4,4"/>
<!-- Node1 -->
<g id="node1" class="node"><title>Node1</title>
<polygon fill="#bfbfbf" stroke="black" points="2771.89,-246.5 2771.89,-265.5 2878.89,-265.5 2878.89,-246.5 2771.89,-246.5"/>
<text text-anchor="middle" x="2825.39" y="-253.5" font-family="Helvetica,sans-Serif" font-size="10.00">boost/ui/list_box.hpp</text>
</g>
<!-- Node2 -->
<g id="node2" class="node"><title>Node2</title>
<g id="a_node2"><a xlink:href="config_8hpp.html" target="_top" xlink:title="Configuration options. ">
<polygon fill="white" stroke="black" points="4618.89,-62 4618.89,-81 4717.89,-81 4717.89,-62 4618.89,-62"/>
<text text-anchor="middle" x="4668.39" y="-69" font-family="Helvetica,sans-Serif" font-size="10.00">boost/ui/config.hpp</text>
</a>
</g>
</g>
<!-- Node1&#45;&gt;Node2 -->
<g id="edge1" class="edge"><title>Node1&#45;&gt;Node2</title>
<path fill="none" stroke="midnightblue" d="M2879.27,-254.792C3137.61,-253.615 4251.15,-246.48 4596.39,-210 4730.84,-195.793 4809.03,-258.029 4895.39,-154 4943.78,-95.6993 4810.35,-79.0979 4727.95,-74.3747"/>
<polygon fill="midnightblue" stroke="midnightblue" points="4728.1,-70.8775 4717.93,-73.8435 4727.73,-77.8677 4728.1,-70.8775"/>
</g>
<!-- Node4 -->
<g id="node4" class="node"><title>Node4</title>
<g id="a_node4"><a xlink:href="strings__box_8hpp.html" target="_top" xlink:title="Widget with array of strings. ">
<polygon fill="white" stroke="red" points="2442.89,-190.5 2442.89,-209.5 2565.89,-209.5 2565.89,-190.5 2442.89,-190.5"/>
<text text-anchor="middle" x="2504.39" y="-197.5" font-family="Helvetica,sans-Serif" font-size="10.00">boost/ui/strings_box.hpp</text>
</a>
</g>
</g>
<!-- Node1&#45;&gt;Node4 -->
<g id="edge3" class="edge"><title>Node1&#45;&gt;Node4</title>
<path fill="none" stroke="midnightblue" d="M2774.52,-246.444C2717.71,-236.885 2625.77,-221.419 2565.2,-211.23"/>
<polygon fill="midnightblue" stroke="midnightblue" points="2565.46,-207.724 2555.01,-209.516 2564.29,-214.627 2565.46,-207.724"/>
</g>
<!-- Node6 -->
<g id="node6" class="node"><title>Node6</title>
<polygon fill="white" stroke="#bfbfbf" points="389.888,-62 389.888,-81 488.888,-81 488.888,-62 389.888,-62"/>
<text text-anchor="middle" x="439.388" y="-69" font-family="Helvetica,sans-Serif" font-size="10.00">boost/ui/config.hpp</text>
</g>
<!-- Node1&#45;&gt;Node6 -->
<g id="edge62" class="edge"><title>Node1&#45;&gt;Node6</title>
<path fill="none" stroke="midnightblue" d="M2771.67,-255.23C2393.61,-256.578 145.497,-260.117 52.3884,-154 -14.8849,-77.3279 -91.6034,-146.366 342.388,-87 354.382,-85.3594 367.195,-83.5117 379.448,-81.6985"/>
<polygon fill="midnightblue" stroke="midnightblue" points="380.203,-85.1248 389.577,-80.1889 379.171,-78.2012 380.203,-85.1248"/>
</g>
<!-- Node8 -->
<g id="node8" class="node"><title>Node8</title>
<polygon fill="white" stroke="#bfbfbf" points="4544.39,-62 4544.39,-81 4600.39,-81 4600.39,-62 4544.39,-62"/>
<text text-anchor="middle" x="4572.39" y="-69" font-family="Helvetica,sans-Serif" font-size="10.00">algorithm</text>
</g>
<!-- Node1&#45;&gt;Node8 -->
<g id="edge68" class="edge"><title>Node1&#45;&gt;Node8</title>
<path fill="none" stroke="midnightblue" d="M2879.08,-254.488C3195.82,-251.207 4808.84,-230.756 4877.39,-154 4886.57,-143.724 4886.46,-133.371 4877.39,-123 4837.83,-77.7695 4667.56,-102.071 4609.39,-87 4606.73,-86.31 4603.99,-85.4832 4601.28,-84.5789"/>
<polygon fill="midnightblue" stroke="midnightblue" points="4602.28,-81.2171 4591.68,-81.0705 4599.87,-87.7915 4602.28,-81.2171"/>
</g>
<!-- Node12 -->
<g id="node12" class="node"><title>Node12</title>
<polygon fill="white" stroke="#bfbfbf" points="289.388,-62 289.388,-81 333.388,-81 333.388,-62 289.388,-62"/>
<text text-anchor="middle" x="311.388" y="-69" font-family="Helvetica,sans-Serif" font-size="10.00">vector</text>
</g>
<!-- Node1&#45;&gt;Node12 -->
<g id="edge64" class="edge"><title>Node1&#45;&gt;Node12</title>
<path fill="none" stroke="midnightblue" d="M2771.79,-254.933C2421.64,-254.383 466.447,-249.548 204.388,-210 116.073,-196.672 65.0275,-225.415 11.3884,-154 3.11405,-142.984 2.4913,-133.52 11.3884,-123 45.4514,-82.7238 208.999,-74.5547 279.231,-72.9093"/>
<polygon fill="midnightblue" stroke="midnightblue" points="279.353,-76.4077 289.279,-72.7041 279.21,-69.4091 279.353,-76.4077"/>
</g>
<!-- Node16 -->
<g id="node16" class="node"><title>Node16</title>
<polygon fill="white" stroke="#bfbfbf" points="61.8884,-129 61.8884,-148 174.888,-148 174.888,-129 61.8884,-129"/>
<text text-anchor="middle" x="118.388" y="-136" font-family="Helvetica,sans-Serif" font-size="10.00">boost/range/begin.hpp</text>
</g>
<!-- Node1&#45;&gt;Node16 -->
<g id="edge65" class="edge"><title>Node1&#45;&gt;Node16</title>
<path fill="none" stroke="midnightblue" d="M2771.57,-254.973C2540.85,-254.606 1612.6,-250.546 851.388,-210 553.88,-194.153 477.903,-198.982 183.388,-154 176.631,-152.968 169.527,-151.639 162.598,-150.206"/>
<polygon fill="midnightblue" stroke="midnightblue" points="163.146,-146.743 152.632,-148.053 161.668,-153.585 163.146,-146.743"/>
</g>
<!-- Node19 -->
<g id="node19" class="node"><title>Node19</title>
<polygon fill="white" stroke="#bfbfbf" points="192.888,-129 192.888,-148 297.888,-148 297.888,-129 192.888,-129"/>
<text text-anchor="middle" x="245.388" y="-136" font-family="Helvetica,sans-Serif" font-size="10.00">boost/range/end.hpp</text>
</g>
<!-- Node1&#45;&gt;Node19 -->
<g id="edge66" class="edge"><title>Node1&#45;&gt;Node19</title>
<path fill="none" stroke="midnightblue" d="M2771.69,-253.901C2454.33,-247.243 820.944,-210.694 322.388,-154 313.452,-152.984 303.996,-151.525 294.884,-149.921"/>
<polygon fill="midnightblue" stroke="midnightblue" points="295.257,-146.431 284.788,-148.063 293.99,-153.315 295.257,-146.431"/>
</g>
<!-- Node29 -->
<g id="node29" class="node"><title>Node29</title>
<polygon fill="white" stroke="#bfbfbf" points="4696.89,-129 4696.89,-148 4803.89,-148 4803.89,-129 4696.89,-129"/>
<text text-anchor="middle" x="4750.39" y="-136" font-family="Helvetica,sans-Serif" font-size="10.00">boost/range/size.hpp</text>
</g>
<!-- Node1&#45;&gt;Node29 -->
<g id="edge67" class="edge"><title>Node1&#45;&gt;Node29</title>
<path fill="none" stroke="midnightblue" d="M2879.24,-253.206C3145.17,-244.173 4319.93,-202.203 4682.39,-154 4689.96,-152.993 4697.94,-151.598 4705.67,-150.069"/>
<polygon fill="midnightblue" stroke="midnightblue" points="4706.55,-153.461 4715.63,-148.001 4705.12,-146.607 4706.55,-153.461"/>
</g>
<!-- Node49 -->
<g id="node49" class="node"><title>Node49</title>
<polygon fill="white" stroke="#bfbfbf" points="4821.89,-129 4821.89,-148 4868.89,-148 4868.89,-129 4821.89,-129"/>
<text text-anchor="middle" x="4845.39" y="-136" font-family="Helvetica,sans-Serif" font-size="10.00">iterator</text>
</g>
<!-- Node1&#45;&gt;Node49 -->
<g id="edge69" class="edge"><title>Node1&#45;&gt;Node49</title>
<path fill="none" stroke="midnightblue" d="M2879.07,-253.986C3055.64,-250.466 3634.45,-237.459 4112.39,-210 4423.98,-192.098 4509.75,-230.283 4812.39,-154 4814.69,-153.419 4817.04,-152.692 4819.36,-151.874"/>
<polygon fill="midnightblue" stroke="midnightblue" points="4820.67,-155.122 4828.65,-148.147 4818.06,-148.626 4820.67,-155.122"/>
</g>
<!-- Node50 -->
<g id="node50" class="node"><title>Node50</title>
<polygon fill="white" stroke="#bfbfbf" points="4963.89,-190.5 4963.89,-209.5 5064.89,-209.5 5064.89,-190.5 4963.89,-190.5"/>
<text text-anchor="middle" x="5014.39" y="-197.5" font-family="Helvetica,sans-Serif" font-size="10.00">boost/ui/widget.hpp</text>
</g>
<!-- Node1&#45;&gt;Node50 -->
<g id="edge63" class="edge"><title>Node1&#45;&gt;Node50</title>
<path fill="none" stroke="midnightblue" d="M2879.11,-254.711C3166.96,-253.031 4529.32,-243.417 4949.39,-210 4950.7,-209.896 4952.02,-209.783 4953.35,-209.662"/>
<polygon fill="midnightblue" stroke="midnightblue" points="4954.12,-213.102 4963.71,-208.598 4953.4,-206.139 4954.12,-213.102"/>
</g>
<!-- Node3 -->
<g id="node3" class="node"><title>Node3</title>
<polygon fill="white" stroke="#bfbfbf" points="812.888,-0.5 812.888,-19.5 901.888,-19.5 901.888,-0.5 812.888,-0.5"/>
<text text-anchor="middle" x="857.388" y="-7.5" font-family="Helvetica,sans-Serif" font-size="10.00">boost/config.hpp</text>
</g>
<!-- Node2&#45;&gt;Node3 -->
<g id="edge2" class="edge"><title>Node2&#45;&gt;Node3</title>
<path fill="none" stroke="midnightblue" d="M4639.23,-61.9319C4629.79,-59.538 4619.22,-57.2508 4609.39,-56 4227.18,-7.39468 1347.09,-10.194 912.297,-10.8985"/>
<polygon fill="midnightblue" stroke="midnightblue" points="912.183,-7.39853 902.189,-10.9152 912.195,-14.3985 912.183,-7.39853"/>
</g>
<!-- Node4&#45;&gt;Node2 -->
<g id="edge4" class="edge"><title>Node4&#45;&gt;Node2</title>
<path fill="none" stroke="midnightblue" d="M2565.92,-198.828C2899.27,-197.753 4477.38,-190.729 4573.39,-154 4608.22,-140.675 4639.04,-108.593 4655.58,-88.8877"/>
<polygon fill="midnightblue" stroke="midnightblue" points="4658.35,-91.0208 4661.95,-81.0539 4652.92,-86.6046 4658.35,-91.0208"/>
</g>
<!-- Node4&#45;&gt;Node3 -->
<g id="edge59" class="edge"><title>Node4&#45;&gt;Node3</title>
<path fill="none" stroke="midnightblue" d="M2442.77,-198.522C2101.87,-195.775 460.712,-181.154 416.388,-154 376.822,-129.761 349.156,-90.317 380.388,-56 408.371,-25.2531 683.562,-15.0851 802.78,-12.1058"/>
<polygon fill="midnightblue" stroke="midnightblue" points="802.884,-15.6044 812.797,-11.8632 802.715,-8.60641 802.884,-15.6044"/>
</g>
<!-- Node5 -->
<g id="node5" class="node"><title>Node5</title>
<g id="a_node5"><a xlink:href="widget_8hpp.html" target="_top" xlink:title="Widget class. ">
<polygon fill="white" stroke="red" points="506.888,-129 506.888,-148 607.888,-148 607.888,-129 506.888,-129"/>
<text text-anchor="middle" x="557.388" y="-136" font-family="Helvetica,sans-Serif" font-size="10.00">boost/ui/widget.hpp</text>
</a>
</g>
</g>
<!-- Node4&#45;&gt;Node5 -->
<g id="edge5" class="edge"><title>Node4&#45;&gt;Node5</title>
<path fill="none" stroke="midnightblue" d="M2442.83,-198.313C2138.43,-194.809 801.471,-178.157 617.388,-154 610.904,-153.149 604.101,-151.88 597.5,-150.44"/>
<polygon fill="midnightblue" stroke="midnightblue" points="597.902,-146.94 587.368,-148.072 596.309,-153.756 597.902,-146.94"/>
</g>
<!-- Node7 -->
<g id="node7" class="node"><title>Node7</title>
<polygon fill="white" stroke="#bfbfbf" points="1091.39,-56.5 1091.39,-86.5 1191.39,-86.5 1191.39,-56.5 1091.39,-56.5"/>
<text text-anchor="start" x="1099.39" y="-74.5" font-family="Helvetica,sans-Serif" font-size="10.00">boost/preprocessor</text>
<text text-anchor="middle" x="1141.39" y="-63.5" font-family="Helvetica,sans-Serif" font-size="10.00">/cat.hpp</text>
</g>
<!-- Node4&#45;&gt;Node7 -->
<g id="edge55" class="edge"><title>Node4&#45;&gt;Node7</title>
<path fill="none" stroke="midnightblue" d="M2566.06,-198.161C2896.32,-193.599 4441.44,-171.339 4458.39,-154 4468.02,-144.146 4468.06,-132.816 4458.39,-123 4443.52,-107.904 1649.96,-77.8564 1201.74,-73.1317"/>
<polygon fill="midnightblue" stroke="midnightblue" points="1201.63,-69.6304 1191.59,-73.0248 1201.56,-76.63 1201.63,-69.6304"/>
</g>
<!-- Node4&#45;&gt;Node8 -->
<g id="edge61" class="edge"><title>Node4&#45;&gt;Node8</title>
<path fill="none" stroke="midnightblue" d="M2565.94,-198.646C2902.78,-196.585 4509.18,-185.134 4549.39,-154 4568.25,-139.396 4572.44,-110.568 4572.98,-91.4104"/>
<polygon fill="midnightblue" stroke="midnightblue" points="4576.48,-91.1776 4572.95,-81.1873 4569.48,-91.1969 4576.48,-91.1776"/>
</g>
<!-- Node9 -->
<g id="node9" class="node"><title>Node9</title>
<polygon fill="white" stroke="#bfbfbf" points="2852.89,-62 2852.89,-81 2901.89,-81 2901.89,-62 2852.89,-62"/>
<text text-anchor="middle" x="2877.39" y="-69" font-family="Helvetica,sans-Serif" font-size="10.00">cstddef</text>
</g>
<!-- Node4&#45;&gt;Node9 -->
<g id="edge32" class="edge"><title>Node4&#45;&gt;Node9</title>
<path fill="none" stroke="midnightblue" d="M2566.03,-198.186C2899.7,-193.711 4475.13,-171.656 4492.39,-154 4502.02,-144.148 4501.98,-132.893 4492.39,-123 4478.15,-108.307 3147.21,-78.4237 2912.53,-73.2664"/>
<polygon fill="midnightblue" stroke="midnightblue" points="2912.27,-69.7599 2902.2,-73.0397 2912.12,-76.7582 2912.27,-69.7599"/>
</g>
<!-- Node10 -->
<g id="node10" class="node"><title>Node10</title>
<polygon fill="white" stroke="#bfbfbf" points="3740.89,-62 3740.89,-81 3791.89,-81 3791.89,-62 3740.89,-62"/>
<text text-anchor="middle" x="3766.39" y="-69" font-family="Helvetica,sans-Serif" font-size="10.00">wchar.h</text>
</g>
<!-- Node4&#45;&gt;Node10 -->
<g id="edge35" class="edge"><title>Node4&#45;&gt;Node10</title>
<path fill="none" stroke="midnightblue" d="M2566.06,-197.906C2902.5,-191.904 4501.67,-162.914 4510.39,-154 4520.02,-144.149 4519.8,-133.067 4510.39,-123 4485.92,-96.8143 3947.02,-78.142 3802.03,-73.5799"/>
<polygon fill="midnightblue" stroke="midnightblue" points="3802.01,-70.0775 3791.9,-73.264 3801.79,-77.0741 3802.01,-70.0775"/>
</g>
<!-- Node11 -->
<g id="node11" class="node"><title>Node11</title>
<polygon fill="white" stroke="#bfbfbf" points="4221.39,-56.5 4221.39,-86.5 4321.39,-86.5 4321.39,-56.5 4221.39,-56.5"/>
<text text-anchor="start" x="4229.39" y="-74.5" font-family="Helvetica,sans-Serif" font-size="10.00">boost/type_traits/is</text>
<text text-anchor="middle" x="4271.39" y="-63.5" font-family="Helvetica,sans-Serif" font-size="10.00">_array.hpp</text>
</g>
<!-- Node4&#45;&gt;Node11 -->
<g id="edge26" class="edge"><title>Node4&#45;&gt;Node11</title>
<path fill="none" stroke="midnightblue" d="M2566.06,-197.919C2904.31,-191.952 4519.59,-162.998 4528.39,-154 4589.35,-91.6676 4425.54,-76.8951 4331.78,-73.4722"/>
<polygon fill="midnightblue" stroke="midnightblue" points="4331.65,-69.9663 4321.54,-73.1332 4331.42,-76.9624 4331.65,-69.9663"/>
</g>
<!-- Node4&#45;&gt;Node12 -->
<g id="edge18" class="edge"><title>Node4&#45;&gt;Node12</title>
<path fill="none" stroke="midnightblue" d="M2442.8,-198.598C2095.48,-196.22 395.541,-183.113 350.388,-154 328.789,-140.073 318.862,-110.589 314.514,-91.1664"/>
<polygon fill="midnightblue" stroke="midnightblue" points="317.899,-90.2341 312.553,-81.0867 311.027,-91.5712 317.899,-90.2341"/>
</g>
<!-- Node13 -->
<g id="node13" class="node"><title>Node13</title>
<polygon fill="white" stroke="#bfbfbf" points="507.388,-56.5 507.388,-86.5 607.388,-86.5 607.388,-56.5 507.388,-56.5"/>
<text text-anchor="start" x="515.388" y="-74.5" font-family="Helvetica,sans-Serif" font-size="10.00">boost/type_traits/is</text>
<text text-anchor="middle" x="557.388" y="-63.5" font-family="Helvetica,sans-Serif" font-size="10.00">_void.hpp</text>
</g>
<!-- Node4&#45;&gt;Node13 -->
<g id="edge29" class="edge"><title>Node4&#45;&gt;Node13</title>
<path fill="none" stroke="midnightblue" d="M2442.84,-198.247C2100.58,-193.992 446.471,-172.479 428.388,-154 400.107,-125.099 451.415,-101.688 497.454,-87.4944"/>
<polygon fill="midnightblue" stroke="midnightblue" points="498.58,-90.8112 507.168,-84.607 496.586,-84.1014 498.58,-90.8112"/>
</g>
<!-- Node14 -->
<g id="node14" class="node"><title>Node14</title>
<polygon fill="white" stroke="#bfbfbf" points="625.388,-62 625.388,-81 711.388,-81 711.388,-62 625.388,-62"/>
<text text-anchor="middle" x="668.388" y="-69" font-family="Helvetica,sans-Serif" font-size="10.00">boost/mpl/if.hpp</text>
</g>
<!-- Node4&#45;&gt;Node14 -->
<g id="edge30" class="edge"><title>Node4&#45;&gt;Node14</title>
<path fill="none" stroke="midnightblue" d="M2442.86,-198.815C2106.19,-197.658 500.845,-190.247 465.388,-154 378.58,-65.2544 396.431,-143.865 616.388,-87 620.421,-85.9576 624.62,-84.8401 628.806,-83.7051"/>
<polygon fill="midnightblue" stroke="midnightblue" points="629.752,-87.0751 638.468,-81.052 627.898,-80.325 629.752,-87.0751"/>
</g>
<!-- Node15 -->
<g id="node15" class="node"><title>Node15</title>
<polygon fill="white" stroke="#bfbfbf" points="729.388,-56.5 729.388,-86.5 829.388,-86.5 829.388,-56.5 729.388,-56.5"/>
<text text-anchor="start" x="737.388" y="-74.5" font-family="Helvetica,sans-Serif" font-size="10.00">boost/preprocessor</text>
<text text-anchor="middle" x="779.388" y="-63.5" font-family="Helvetica,sans-Serif" font-size="10.00">/config/config.hpp</text>
</g>
<!-- Node4&#45;&gt;Node15 -->
<g id="edge57" class="edge"><title>Node4&#45;&gt;Node15</title>
<path fill="none" stroke="midnightblue" d="M2442.74,-198.792C2109,-197.523 532.244,-189.646 497.388,-154 439.571,-94.8715 449.105,-140.934 719.109,-87.1576"/>
<polygon fill="midnightblue" stroke="midnightblue" points="720.126,-90.523 729.239,-85.1177 718.744,-83.6608 720.126,-90.523"/>
</g>
<!-- Node4&#45;&gt;Node16 -->
<g id="edge19" class="edge"><title>Node4&#45;&gt;Node16</title>
<path fill="none" stroke="midnightblue" d="M2442.87,-198.543C2098.11,-195.886 413.103,-181.567 183.388,-154 175.885,-153.1 167.977,-151.714 160.358,-150.149"/>
<polygon fill="midnightblue" stroke="midnightblue" points="161.085,-146.726 150.569,-148.015 159.594,-153.565 161.085,-146.726"/>
</g>
<!-- Node17 -->
<g id="node17" class="node"><title>Node17</title>
<polygon fill="white" stroke="#bfbfbf" points="626.388,-129 626.388,-148 742.388,-148 742.388,-129 626.388,-129"/>
<text text-anchor="middle" x="684.388" y="-136" font-family="Helvetica,sans-Serif" font-size="10.00">boost/range/config.hpp</text>
</g>
<!-- Node4&#45;&gt;Node17 -->
<g id="edge20" class="edge"><title>Node4&#45;&gt;Node17</title>
<path fill="none" stroke="midnightblue" d="M2442.68,-198.967C2172.1,-198.584 1088.99,-194.502 751.388,-154 743.747,-153.083 735.692,-151.705 727.918,-150.156"/>
<polygon fill="midnightblue" stroke="midnightblue" points="728.428,-146.686 717.921,-148.046 726.982,-153.535 728.428,-146.686"/>
</g>
<!-- Node18 -->
<g id="node18" class="node"><title>Node18</title>
<polygon fill="white" stroke="#bfbfbf" points="760.888,-129 760.888,-148 879.888,-148 879.888,-129 760.888,-129"/>
<text text-anchor="middle" x="820.388" y="-136" font-family="Helvetica,sans-Serif" font-size="10.00">boost/range/iterator.hpp</text>
</g>
<!-- Node4&#45;&gt;Node18 -->
<g id="edge21" class="edge"><title>Node4&#45;&gt;Node18</title>
<path fill="none" stroke="midnightblue" d="M2442.86,-198.761C2186.02,-197.535 1198.59,-190.497 889.388,-154 881.439,-153.062 873.049,-151.657 864.962,-150.085"/>
<polygon fill="midnightblue" stroke="midnightblue" points="865.436,-146.609 854.936,-148.026 864.028,-153.466 865.436,-146.609"/>
</g>
<!-- Node4&#45;&gt;Node19 -->
<g id="edge22" class="edge"><title>Node4&#45;&gt;Node19</title>
<path fill="none" stroke="midnightblue" d="M2442.79,-198.444C2109.46,-195.34 528.64,-179.38 312.388,-154 304.576,-153.083 296.332,-151.673 288.399,-150.086"/>
<polygon fill="midnightblue" stroke="midnightblue" points="289.082,-146.653 278.574,-148.004 287.631,-153.501 289.082,-146.653"/>
</g>
<!-- Node20 -->
<g id="node20" class="node"><title>Node20</title>
<polygon fill="white" stroke="#bfbfbf" points="898.388,-123.5 898.388,-153.5 1026.39,-153.5 1026.39,-123.5 898.388,-123.5"/>
<text text-anchor="start" x="906.388" y="-141.5" font-family="Helvetica,sans-Serif" font-size="10.00">boost/range/detail</text>
<text text-anchor="middle" x="962.388" y="-130.5" font-family="Helvetica,sans-Serif" font-size="10.00">/implementation_help.hpp</text>
</g>
<!-- Node4&#45;&gt;Node20 -->
<g id="edge23" class="edge"><title>Node4&#45;&gt;Node20</title>
<path fill="none" stroke="midnightblue" d="M2442.78,-198.472C2203.56,-196.213 1335.25,-186.025 1037.15,-154.038"/>
<polygon fill="midnightblue" stroke="midnightblue" points="1037.11,-150.513 1026.78,-152.891 1036.34,-157.47 1037.11,-150.513"/>
</g>
<!-- Node21 -->
<g id="node21" class="node"><title>Node21</title>
<polygon fill="white" stroke="#bfbfbf" points="1044.39,-123.5 1044.39,-153.5 1138.39,-153.5 1138.39,-123.5 1044.39,-123.5"/>
<text text-anchor="start" x="1052.39" y="-141.5" font-family="Helvetica,sans-Serif" font-size="10.00">boost/range/detail</text>
<text text-anchor="middle" x="1091.39" y="-130.5" font-family="Helvetica,sans-Serif" font-size="10.00">/common.hpp</text>
</g>
<!-- Node4&#45;&gt;Node21 -->
<g id="edge24" class="edge"><title>Node4&#45;&gt;Node21</title>
<path fill="none" stroke="midnightblue" d="M2442.76,-198.757C2215.28,-197.583 1422.25,-190.972 1148.5,-153.892"/>
<polygon fill="midnightblue" stroke="midnightblue" points="1148.98,-150.425 1138.6,-152.503 1148.01,-157.357 1148.98,-150.425"/>
</g>
<!-- Node22 -->
<g id="node22" class="node"><title>Node22</title>
<polygon fill="white" stroke="#bfbfbf" points="1156.39,-123.5 1156.39,-153.5 1250.39,-153.5 1250.39,-123.5 1156.39,-123.5"/>
<text text-anchor="start" x="1164.39" y="-141.5" font-family="Helvetica,sans-Serif" font-size="10.00">boost/range/detail</text>
<text text-anchor="middle" x="1203.39" y="-130.5" font-family="Helvetica,sans-Serif" font-size="10.00">/sfinae.hpp</text>
</g>
<!-- Node4&#45;&gt;Node22 -->
<g id="edge25" class="edge"><title>Node4&#45;&gt;Node22</title>
<path fill="none" stroke="midnightblue" d="M2442.68,-198.542C2227.68,-196.673 1511.55,-188.089 1260.76,-153.928"/>
<polygon fill="midnightblue" stroke="midnightblue" points="1260.99,-150.427 1250.6,-152.493 1260.01,-157.358 1260.99,-150.427"/>
</g>
<!-- Node23 -->
<g id="node23" class="node"><title>Node23</title>
<polygon fill="white" stroke="#bfbfbf" points="1268.39,-123.5 1268.39,-153.5 1384.39,-153.5 1384.39,-123.5 1268.39,-123.5"/>
<text text-anchor="start" x="1276.39" y="-141.5" font-family="Helvetica,sans-Serif" font-size="10.00">boost/type_traits/detail</text>
<text text-anchor="middle" x="1326.39" y="-130.5" font-family="Helvetica,sans-Serif" font-size="10.00">/yes_no_type.hpp</text>
</g>
<!-- Node4&#45;&gt;Node23 -->
<g id="edge27" class="edge"><title>Node4&#45;&gt;Node23</title>
<path fill="none" stroke="midnightblue" d="M2442.81,-197.907C2243.77,-194.156 1618.21,-180.617 1394.77,-153.989"/>
<polygon fill="midnightblue" stroke="midnightblue" points="1395.1,-150.504 1384.75,-152.752 1394.25,-157.451 1395.1,-150.504"/>
</g>
<!-- Node24 -->
<g id="node24" class="node"><title>Node24</title>
<polygon fill="white" stroke="#bfbfbf" points="1402.39,-129 1402.39,-148 1442.39,-148 1442.39,-129 1402.39,-129"/>
<text text-anchor="middle" x="1422.39" y="-136" font-family="Helvetica,sans-Serif" font-size="10.00">utility</text>
</g>
<!-- Node4&#45;&gt;Node24 -->
<g id="edge28" class="edge"><title>Node4&#45;&gt;Node24</title>
<path fill="none" stroke="midnightblue" d="M2442.67,-197.867C2231.72,-193.788 1547.1,-178.764 1451.39,-154 1449.66,-153.554 1447.92,-152.997 1446.2,-152.363"/>
<polygon fill="midnightblue" stroke="midnightblue" points="1447.23,-148.992 1436.67,-148.131 1444.39,-155.389 1447.23,-148.992"/>
</g>
<!-- Node25 -->
<g id="node25" class="node"><title>Node25</title>
<polygon fill="white" stroke="#bfbfbf" points="1460.39,-129 1460.39,-148 1552.39,-148 1552.39,-129 1460.39,-129"/>
<text text-anchor="middle" x="1506.39" y="-136" font-family="Helvetica,sans-Serif" font-size="10.00">boost/mpl/int.hpp</text>
</g>
<!-- Node4&#45;&gt;Node25 -->
<g id="edge31" class="edge"><title>Node4&#45;&gt;Node25</title>
<path fill="none" stroke="midnightblue" d="M2442.74,-197.749C2261.46,-193.803 1732.19,-180.291 1561.39,-154 1555.78,-153.136 1549.91,-151.929 1544.19,-150.576"/>
<polygon fill="midnightblue" stroke="midnightblue" points="1544.68,-147.091 1534.13,-148.026 1542.96,-153.876 1544.68,-147.091"/>
</g>
<!-- Node26 -->
<g id="node26" class="node"><title>Node26</title>
<polygon fill="white" stroke="#bfbfbf" points="1570.39,-123.5 1570.39,-153.5 1670.39,-153.5 1670.39,-123.5 1570.39,-123.5"/>
<text text-anchor="start" x="1578.39" y="-141.5" font-family="Helvetica,sans-Serif" font-size="10.00">boost/type_traits/is</text>
<text text-anchor="middle" x="1620.39" y="-130.5" font-family="Helvetica,sans-Serif" font-size="10.00">_same.hpp</text>
</g>
<!-- Node4&#45;&gt;Node26 -->
<g id="edge33" class="edge"><title>Node4&#45;&gt;Node26</title>
<path fill="none" stroke="midnightblue" d="M2442.67,-199.548C2306.54,-199.914 1970.26,-196.187 1680.75,-154"/>
<polygon fill="midnightblue" stroke="midnightblue" points="1680.88,-150.481 1670.47,-152.483 1679.86,-157.406 1680.88,-150.481"/>
</g>
<!-- Node27 -->
<g id="node27" class="node"><title>Node27</title>
<polygon fill="white" stroke="#bfbfbf" points="1688.89,-129 1688.89,-148 1737.89,-148 1737.89,-129 1688.89,-129"/>
<text text-anchor="middle" x="1713.39" y="-136" font-family="Helvetica,sans-Serif" font-size="10.00">string.h</text>
</g>
<!-- Node4&#45;&gt;Node27 -->
<g id="edge34" class="edge"><title>Node4&#45;&gt;Node27</title>
<path fill="none" stroke="midnightblue" d="M2442.62,-198.14C2286.28,-195.514 1877.99,-185.737 1746.39,-154 1744.03,-153.431 1741.62,-152.701 1739.24,-151.872"/>
<polygon fill="midnightblue" stroke="midnightblue" points="1740.36,-148.548 1729.78,-148.066 1737.75,-155.043 1740.36,-148.548"/>
</g>
<!-- Node28 -->
<g id="node28" class="node"><title>Node28</title>
<polygon fill="white" stroke="#bfbfbf" points="1755.89,-129 1755.89,-148 1904.89,-148 1904.89,-129 1755.89,-129"/>
<text text-anchor="middle" x="1830.39" y="-136" font-family="Helvetica,sans-Serif" font-size="10.00">boost/range/const_iterator.hpp</text>
</g>
<!-- Node4&#45;&gt;Node28 -->
<g id="edge36" class="edge"><title>Node4&#45;&gt;Node28</title>
<path fill="none" stroke="midnightblue" d="M2442.51,-196.266C2334.7,-191.063 2105.6,-178.05 1913.39,-154 1904.11,-152.84 1894.3,-151.355 1884.79,-149.781"/>
<polygon fill="midnightblue" stroke="midnightblue" points="1885.08,-146.28 1874.64,-148.049 1883.91,-153.18 1885.08,-146.28"/>
</g>
<!-- Node4&#45;&gt;Node29 -->
<g id="edge37" class="edge"><title>Node4&#45;&gt;Node29</title>
<path fill="none" stroke="midnightblue" d="M2566.11,-198.055C2909.65,-192.752 4574.61,-166.49 4682.39,-154 4690.31,-153.082 4698.68,-151.671 4706.73,-150.083"/>
<polygon fill="midnightblue" stroke="midnightblue" points="4707.63,-153.471 4716.7,-148.002 4706.2,-146.619 4707.63,-153.471"/>
</g>
<!-- Node30 -->
<g id="node30" class="node"><title>Node30</title>
<polygon fill="white" stroke="#bfbfbf" points="1922.89,-129 1922.89,-148 2053.89,-148 2053.89,-129 1922.89,-129"/>
<text text-anchor="middle" x="1988.39" y="-136" font-family="Helvetica,sans-Serif" font-size="10.00">boost/range/size_type.hpp</text>
</g>
<!-- Node4&#45;&gt;Node30 -->
<g id="edge38" class="edge"><title>Node4&#45;&gt;Node30</title>
<path fill="none" stroke="midnightblue" d="M2442.67,-194.52C2357.03,-187.894 2197.43,-174.061 2062.39,-154 2054.56,-152.837 2046.3,-151.414 2038.25,-149.919"/>
<polygon fill="midnightblue" stroke="midnightblue" points="2038.69,-146.441 2028.21,-148.002 2037.38,-153.316 2038.69,-146.441"/>
</g>
<!-- Node31 -->
<g id="node31" class="node"><title>Node31</title>
<polygon fill="white" stroke="#bfbfbf" points="2071.89,-123.5 2071.89,-153.5 2184.89,-153.5 2184.89,-123.5 2071.89,-123.5"/>
<text text-anchor="start" x="2079.89" y="-141.5" font-family="Helvetica,sans-Serif" font-size="10.00">boost/range/difference</text>
<text text-anchor="middle" x="2128.39" y="-130.5" font-family="Helvetica,sans-Serif" font-size="10.00">_type.hpp</text>
</g>
<!-- Node4&#45;&gt;Node31 -->
<g id="edge39" class="edge"><title>Node4&#45;&gt;Node31</title>
<path fill="none" stroke="midnightblue" d="M2442.79,-191.487C2382.1,-183.767 2286.52,-170.767 2195.04,-154.229"/>
<polygon fill="midnightblue" stroke="midnightblue" points="2195.52,-150.759 2185.06,-152.407 2194.27,-157.646 2195.52,-150.759"/>
</g>
<!-- Node32 -->
<g id="node32" class="node"><title>Node32</title>
<polygon fill="white" stroke="#bfbfbf" points="2202.89,-129 2202.89,-148 2299.89,-148 2299.89,-129 2202.89,-129"/>
<text text-anchor="middle" x="2251.39" y="-136" font-family="Helvetica,sans-Serif" font-size="10.00">boost/mpl/and.hpp</text>
</g>
<!-- Node4&#45;&gt;Node32 -->
<g id="edge40" class="edge"><title>Node4&#45;&gt;Node32</title>
<path fill="none" stroke="midnightblue" d="M2466.59,-190.492C2427.27,-181.591 2363.95,-167.114 2309.39,-154 2304.71,-152.877 2299.83,-151.685 2294.97,-150.487"/>
<polygon fill="midnightblue" stroke="midnightblue" points="2295.65,-147.048 2285.1,-148.038 2293.96,-153.842 2295.65,-147.048"/>
</g>
<!-- Node33 -->
<g id="node33" class="node"><title>Node33</title>
<polygon fill="white" stroke="#bfbfbf" points="2318.39,-123.5 2318.39,-153.5 2436.39,-153.5 2436.39,-123.5 2318.39,-123.5"/>
<text text-anchor="start" x="2326.39" y="-141.5" font-family="Helvetica,sans-Serif" font-size="10.00">boost/mpl/aux_/config</text>
<text text-anchor="middle" x="2377.39" y="-130.5" font-family="Helvetica,sans-Serif" font-size="10.00">/use_preprocessed.hpp</text>
</g>
<!-- Node4&#45;&gt;Node33 -->
<g id="edge41" class="edge"><title>Node4&#45;&gt;Node33</title>
<path fill="none" stroke="midnightblue" d="M2486.19,-190.475C2468.11,-182.002 2439.79,-168.737 2416.58,-157.863"/>
<polygon fill="midnightblue" stroke="midnightblue" points="2417.86,-154.596 2407.32,-153.523 2414.89,-160.935 2417.86,-154.596"/>
</g>
<!-- Node34 -->
<g id="node34" class="node"><title>Node34</title>
<polygon fill="white" stroke="#bfbfbf" points="2454.89,-129 2454.89,-148 2553.89,-148 2553.89,-129 2454.89,-129"/>
<text text-anchor="middle" x="2504.39" y="-136" font-family="Helvetica,sans-Serif" font-size="10.00">boost/mpl/bool.hpp</text>
</g>
<!-- Node4&#45;&gt;Node34 -->
<g id="edge42" class="edge"><title>Node4&#45;&gt;Node34</title>
<path fill="none" stroke="midnightblue" d="M2504.39,-190.475C2504.39,-182.08 2504.39,-168.981 2504.39,-158.163"/>
<polygon fill="midnightblue" stroke="midnightblue" points="2507.89,-158.009 2504.39,-148.009 2500.89,-158.009 2507.89,-158.009"/>
</g>
<!-- Node35 -->
<g id="node35" class="node"><title>Node35</title>
<polygon fill="white" stroke="#bfbfbf" points="2572.39,-123.5 2572.39,-153.5 2688.39,-153.5 2688.39,-123.5 2572.39,-123.5"/>
<text text-anchor="start" x="2580.39" y="-141.5" font-family="Helvetica,sans-Serif" font-size="10.00">boost/mpl/aux_/nested</text>
<text text-anchor="middle" x="2630.39" y="-130.5" font-family="Helvetica,sans-Serif" font-size="10.00">_type_wknd.hpp</text>
</g>
<!-- Node4&#45;&gt;Node35 -->
<g id="edge43" class="edge"><title>Node4&#45;&gt;Node35</title>
<path fill="none" stroke="midnightblue" d="M2522.44,-190.475C2540.38,-182.002 2568.47,-168.737 2591.5,-157.863"/>
<polygon fill="midnightblue" stroke="midnightblue" points="2593.14,-160.958 2600.69,-153.523 2590.16,-154.628 2593.14,-160.958"/>
</g>
<!-- Node36 -->
<g id="node36" class="node"><title>Node36</title>
<polygon fill="white" stroke="#bfbfbf" points="2706.39,-129 2706.39,-148 2848.39,-148 2848.39,-129 2706.39,-129"/>
<text text-anchor="middle" x="2777.39" y="-136" font-family="Helvetica,sans-Serif" font-size="10.00">boost/mpl/aux_/na_spec.hpp</text>
</g>
<!-- Node4&#45;&gt;Node36 -->
<g id="edge44" class="edge"><title>Node4&#45;&gt;Node36</title>
<path fill="none" stroke="midnightblue" d="M2543.5,-190.475C2592.26,-179.849 2675.6,-161.685 2728.51,-150.152"/>
<polygon fill="midnightblue" stroke="midnightblue" points="2729.32,-153.558 2738.35,-148.009 2727.83,-146.719 2729.32,-153.558"/>
</g>
<!-- Node37 -->
<g id="node37" class="node"><title>Node37</title>
<polygon fill="white" stroke="#bfbfbf" points="2866.39,-123.5 2866.39,-153.5 2984.39,-153.5 2984.39,-123.5 2866.39,-123.5"/>
<text text-anchor="start" x="2874.39" y="-141.5" font-family="Helvetica,sans-Serif" font-size="10.00">boost/mpl/aux_/lambda</text>
<text text-anchor="middle" x="2925.39" y="-130.5" font-family="Helvetica,sans-Serif" font-size="10.00">_support.hpp</text>
</g>
<!-- Node4&#45;&gt;Node37 -->
<g id="edge45" class="edge"><title>Node4&#45;&gt;Node37</title>
<path fill="none" stroke="midnightblue" d="M2566.16,-192.703C2634.66,-185.364 2748.66,-172.104 2856.07,-154.141"/>
<polygon fill="midnightblue" stroke="midnightblue" points="2856.83,-157.562 2866.11,-152.445 2855.66,-150.66 2856.83,-157.562"/>
</g>
<!-- Node38 -->
<g id="node38" class="node"><title>Node38</title>
<polygon fill="white" stroke="#bfbfbf" points="3002.89,-123.5 3002.89,-153.5 3119.89,-153.5 3119.89,-123.5 3002.89,-123.5"/>
<text text-anchor="start" x="3010.89" y="-141.5" font-family="Helvetica,sans-Serif" font-size="10.00">boost/mpl/aux_/include</text>
<text text-anchor="middle" x="3061.39" y="-130.5" font-family="Helvetica,sans-Serif" font-size="10.00">_preprocessed.hpp</text>
</g>
<!-- Node4&#45;&gt;Node38 -->
<g id="edge46" class="edge"><title>Node4&#45;&gt;Node38</title>
<path fill="none" stroke="midnightblue" d="M2566.04,-195.673C2657.14,-190.239 2833.21,-177.759 2992.86,-153.949"/>
<polygon fill="midnightblue" stroke="midnightblue" points="2993.5,-157.393 3002.86,-152.439 2992.45,-150.471 2993.5,-157.393"/>
</g>
<!-- Node39 -->
<g id="node39" class="node"><title>Node39</title>
<polygon fill="white" stroke="#bfbfbf" points="3137.89,-123.5 3137.89,-153.5 3250.89,-153.5 3250.89,-123.5 3137.89,-123.5"/>
<text text-anchor="start" x="3145.89" y="-141.5" font-family="Helvetica,sans-Serif" font-size="10.00">boost/mpl/aux_/config</text>
<text text-anchor="middle" x="3194.39" y="-130.5" font-family="Helvetica,sans-Serif" font-size="10.00">/compiler.hpp</text>
</g>
<!-- Node4&#45;&gt;Node39 -->
<g id="edge47" class="edge"><title>Node4&#45;&gt;Node39</title>
<path fill="none" stroke="midnightblue" d="M2566.26,-197.493C2676.96,-194.152 2916.26,-184.003 3127.56,-153.966"/>
<polygon fill="midnightblue" stroke="midnightblue" points="3128.2,-157.41 3137.6,-152.521 3127.21,-150.482 3128.2,-157.41"/>
</g>
<!-- Node40 -->
<g id="node40" class="node"><title>Node40</title>
<polygon fill="white" stroke="#bfbfbf" points="3268.89,-123.5 3268.89,-153.5 3381.89,-153.5 3381.89,-123.5 3268.89,-123.5"/>
<text text-anchor="start" x="3276.89" y="-141.5" font-family="Helvetica,sans-Serif" font-size="10.00">boost/mpl/aux_/config</text>
<text text-anchor="middle" x="3325.39" y="-130.5" font-family="Helvetica,sans-Serif" font-size="10.00">/dtp.hpp</text>
</g>
<!-- Node4&#45;&gt;Node40 -->
<g id="edge48" class="edge"><title>Node4&#45;&gt;Node40</title>
<path fill="none" stroke="midnightblue" d="M2566.37,-198.585C2694.12,-197.02 2996.02,-189.658 3258.5,-153.958"/>
<polygon fill="midnightblue" stroke="midnightblue" points="3259.18,-157.398 3268.61,-152.566 3258.22,-150.463 3259.18,-157.398"/>
</g>
<!-- Node41 -->
<g id="node41" class="node"><title>Node41</title>
<polygon fill="white" stroke="#bfbfbf" points="3399.89,-123.5 3399.89,-153.5 3512.89,-153.5 3512.89,-123.5 3399.89,-123.5"/>
<text text-anchor="start" x="3407.89" y="-141.5" font-family="Helvetica,sans-Serif" font-size="10.00">boost/mpl/aux_/config</text>
<text text-anchor="middle" x="3456.39" y="-130.5" font-family="Helvetica,sans-Serif" font-size="10.00">/ttp.hpp</text>
</g>
<!-- Node4&#45;&gt;Node41 -->
<g id="edge49" class="edge"><title>Node4&#45;&gt;Node41</title>
<path fill="none" stroke="midnightblue" d="M2565.94,-199.367C2708.96,-199.467 3074.83,-195.398 3389.38,-153.962"/>
<polygon fill="midnightblue" stroke="midnightblue" points="3390.16,-157.389 3399.61,-152.599 3389.24,-150.45 3390.16,-157.389"/>
</g>
<!-- Node42 -->
<g id="node42" class="node"><title>Node42</title>
<polygon fill="white" stroke="#bfbfbf" points="3530.89,-123.5 3530.89,-153.5 3643.89,-153.5 3643.89,-123.5 3530.89,-123.5"/>
<text text-anchor="start" x="3538.89" y="-141.5" font-family="Helvetica,sans-Serif" font-size="10.00">boost/mpl/aux_/config</text>
<text text-anchor="middle" x="3587.39" y="-130.5" font-family="Helvetica,sans-Serif" font-size="10.00">/ctps.hpp</text>
</g>
<!-- Node4&#45;&gt;Node42 -->
<g id="edge50" class="edge"><title>Node4&#45;&gt;Node42</title>
<path fill="none" stroke="midnightblue" d="M2566.04,-197.664C2753.52,-193.384 3315.99,-178.894 3520.56,-153.897"/>
<polygon fill="midnightblue" stroke="midnightblue" points="3521.14,-157.353 3530.62,-152.622 3520.26,-150.409 3521.14,-157.353"/>
</g>
<!-- Node43 -->
<g id="node43" class="node"><title>Node43</title>
<polygon fill="white" stroke="#bfbfbf" points="3661.89,-123.5 3661.89,-153.5 3774.89,-153.5 3774.89,-123.5 3661.89,-123.5"/>
<text text-anchor="start" x="3669.89" y="-141.5" font-family="Helvetica,sans-Serif" font-size="10.00">boost/mpl/aux_/config</text>
<text text-anchor="middle" x="3718.39" y="-130.5" font-family="Helvetica,sans-Serif" font-size="10.00">/msvc.hpp</text>
</g>
<!-- Node4&#45;&gt;Node43 -->
<g id="edge51" class="edge"><title>Node4&#45;&gt;Node43</title>
<path fill="none" stroke="midnightblue" d="M2566.21,-198.021C2769.96,-194.57 3420.04,-181.727 3651.57,-153.892"/>
<polygon fill="midnightblue" stroke="midnightblue" points="3652.13,-157.35 3661.62,-152.641 3651.26,-150.404 3652.13,-157.35"/>
</g>
<!-- Node44 -->
<g id="node44" class="node"><title>Node44</title>
<polygon fill="white" stroke="#bfbfbf" points="3792.89,-123.5 3792.89,-153.5 3905.89,-153.5 3905.89,-123.5 3792.89,-123.5"/>
<text text-anchor="start" x="3800.89" y="-141.5" font-family="Helvetica,sans-Serif" font-size="10.00">boost/mpl/aux_/config</text>
<text text-anchor="middle" x="3849.39" y="-130.5" font-family="Helvetica,sans-Serif" font-size="10.00">/gcc.hpp</text>
</g>
<!-- Node4&#45;&gt;Node44 -->
<g id="edge52" class="edge"><title>Node4&#45;&gt;Node44</title>
<path fill="none" stroke="midnightblue" d="M2566.2,-198.308C2785.13,-195.631 3523.84,-184.593 3782.51,-153.896"/>
<polygon fill="midnightblue" stroke="midnightblue" points="3783.12,-157.348 3792.62,-152.656 3782.27,-150.4 3783.12,-157.348"/>
</g>
<!-- Node45 -->
<g id="node45" class="node"><title>Node45</title>
<polygon fill="white" stroke="#bfbfbf" points="3923.89,-123.5 3923.89,-153.5 4036.89,-153.5 4036.89,-123.5 3923.89,-123.5"/>
<text text-anchor="start" x="3931.89" y="-141.5" font-family="Helvetica,sans-Serif" font-size="10.00">boost/mpl/aux_/config</text>
<text text-anchor="middle" x="3980.39" y="-130.5" font-family="Helvetica,sans-Serif" font-size="10.00">/workaround.hpp</text>
</g>
<!-- Node4&#45;&gt;Node45 -->
<g id="edge53" class="edge"><title>Node4&#45;&gt;Node45</title>
<path fill="none" stroke="midnightblue" d="M2566.12,-197.701C2815.05,-192.375 3739.69,-171.698 3913.49,-153.814"/>
<polygon fill="midnightblue" stroke="midnightblue" points="3914.08,-157.27 3923.62,-152.668 3913.29,-150.314 3914.08,-157.27"/>
</g>
<!-- Node46 -->
<g id="node46" class="node"><title>Node46</title>
<polygon fill="white" stroke="#bfbfbf" points="4054.89,-123.5 4054.89,-153.5 4167.89,-153.5 4167.89,-123.5 4054.89,-123.5"/>
<text text-anchor="start" x="4062.89" y="-141.5" font-family="Helvetica,sans-Serif" font-size="10.00">boost/mpl/aux_/config</text>
<text text-anchor="middle" x="4111.39" y="-130.5" font-family="Helvetica,sans-Serif" font-size="10.00">/preprocessor.hpp</text>
</g>
<!-- Node4&#45;&gt;Node46 -->
<g id="edge54" class="edge"><title>Node4&#45;&gt;Node46</title>
<path fill="none" stroke="midnightblue" d="M2566.32,-197.877C2830.39,-192.996 3856.99,-173.067 4044.65,-153.799"/>
<polygon fill="midnightblue" stroke="midnightblue" points="4045.08,-157.273 4054.62,-152.677 4044.29,-150.317 4045.08,-157.273"/>
</g>
<!-- Node47 -->
<g id="node47" class="node"><title>Node47</title>
<polygon fill="white" stroke="#bfbfbf" points="4186.39,-123.5 4186.39,-153.5 4286.39,-153.5 4286.39,-123.5 4186.39,-123.5"/>
<text text-anchor="start" x="4194.39" y="-141.5" font-family="Helvetica,sans-Serif" font-size="10.00">boost/preprocessor</text>
<text text-anchor="middle" x="4236.39" y="-130.5" font-family="Helvetica,sans-Serif" font-size="10.00">/stringize.hpp</text>
</g>
<!-- Node4&#45;&gt;Node47 -->
<g id="edge56" class="edge"><title>Node4&#45;&gt;Node47</title>
<path fill="none" stroke="midnightblue" d="M2566.29,-198.105C2844.51,-193.981 3974.05,-176.109 4176.17,-153.669"/>
<polygon fill="midnightblue" stroke="midnightblue" points="4176.61,-157.141 4186.12,-152.46 4175.77,-150.192 4176.61,-157.141"/>
</g>
<!-- Node48 -->
<g id="node48" class="node"><title>Node48</title>
<polygon fill="white" stroke="#bfbfbf" points="4304.89,-123.5 4304.89,-153.5 4449.89,-153.5 4449.89,-123.5 4304.89,-123.5"/>
<text text-anchor="start" x="4312.89" y="-141.5" font-family="Helvetica,sans-Serif" font-size="10.00">boost/mpl/aux_/preprocessed</text>
<text text-anchor="middle" x="4377.39" y="-130.5" font-family="Helvetica,sans-Serif" font-size="10.00">/plain/and.hpp</text>
</g>
<!-- Node4&#45;&gt;Node48 -->
<g id="edge58" class="edge"><title>Node4&#45;&gt;Node48</title>
<path fill="none" stroke="midnightblue" d="M2566.18,-197.998C2856.47,-193.219 4079.18,-172.25 4294.55,-153.884"/>
<polygon fill="midnightblue" stroke="midnightblue" points="4294.95,-157.362 4304.59,-152.957 4294.31,-150.392 4294.95,-157.362"/>
</g>
<!-- Node4&#45;&gt;Node49 -->
<g id="edge60" class="edge"><title>Node4&#45;&gt;Node49</title>
<path fill="none" stroke="midnightblue" d="M2565.96,-199.242C2910.08,-200.402 4587.77,-203.463 4812.39,-154 4814.9,-153.447 4817.46,-152.697 4819.98,-151.828"/>
<polygon fill="midnightblue" stroke="midnightblue" points="4821.4,-155.03 4829.37,-148.051 4818.79,-148.536 4821.4,-155.03"/>
</g>
<!-- Node5&#45;&gt;Node2 -->
<g id="edge6" class="edge"><title>Node5&#45;&gt;Node2</title>
<path fill="none" stroke="midnightblue" d="M586.744,-128.991C596.417,-126.569 607.285,-124.25 617.388,-123 1057.61,-68.5475 4169.28,-142.303 4609.39,-87 4615.91,-86.1801 4622.76,-84.8996 4629.38,-83.4315"/>
<polygon fill="midnightblue" stroke="midnightblue" points="4630.62,-86.7354 4639.53,-81.0092 4628.99,-79.9267 4630.62,-86.7354"/>
</g>
<!-- Node5&#45;&gt;Node3 -->
<g id="edge10" class="edge"><title>Node5&#45;&gt;Node3</title>
<path fill="none" stroke="midnightblue" d="M590.612,-128.997C599.298,-126.904 608.67,-124.761 617.388,-123 666.162,-113.149 801.766,-120.685 838.388,-87 854.154,-72.4986 857.712,-47.0737 858.117,-29.6553"/>
<polygon fill="midnightblue" stroke="midnightblue" points="861.616,-29.5276 858.023,-19.5604 854.616,-29.5923 861.616,-29.5276"/>
</g>
<!-- Node5&#45;&gt;Node6 -->
<g id="edge7" class="edge"><title>Node5&#45;&gt;Node6</title>
<path fill="none" stroke="midnightblue" d="M541.474,-128.734C521.57,-117.769 487.28,-98.8809 463.986,-86.0495"/>
<polygon fill="midnightblue" stroke="midnightblue" points="465.498,-82.8866 455.05,-81.1273 462.121,-89.0179 465.498,-82.8866"/>
</g>
<!-- Node5&#45;&gt;Node7 -->
<g id="edge8" class="edge"><title>Node5&#45;&gt;Node7</title>
<path fill="none" stroke="midnightblue" d="M588.978,-128.983C598.092,-126.766 608.088,-124.564 617.388,-123 784.085,-94.9687 983.427,-81.0817 1081.23,-75.5327"/>
<polygon fill="midnightblue" stroke="midnightblue" points="1081.44,-79.0267 1091.23,-74.9747 1081.05,-72.0376 1081.44,-79.0267"/>
</g>
<!-- Node5&#45;&gt;Node8 -->
<g id="edge9" class="edge"><title>Node5&#45;&gt;Node8</title>
<path fill="none" stroke="midnightblue" d="M586.745,-128.995C596.418,-126.573 607.285,-124.253 617.388,-123 1026.83,-72.2142 3918.06,-101.343 4330.39,-87 4402.34,-84.4971 4486.19,-78.8647 4533.91,-75.4028"/>
<polygon fill="midnightblue" stroke="midnightblue" points="4534.38,-78.878 4544.1,-74.6569 4533.87,-71.8967 4534.38,-78.878"/>
</g>
<!-- Node5&#45;&gt;Node9 -->
<g id="edge11" class="edge"><title>Node5&#45;&gt;Node9</title>
<path fill="none" stroke="midnightblue" d="M587.06,-128.995C596.657,-126.604 607.399,-124.303 617.388,-123 846.973,-93.0476 2573.63,-75.4051 2842.29,-72.8287"/>
<polygon fill="midnightblue" stroke="midnightblue" points="2842.65,-76.3256 2852.62,-72.7303 2842.59,-69.3259 2842.65,-76.3256"/>
</g>
<!-- Node5&#45;&gt;Node10 -->
<g id="edge12" class="edge"><title>Node5&#45;&gt;Node10</title>
<path fill="none" stroke="midnightblue" d="M587.055,-128.955C596.651,-126.562 607.395,-124.27 617.388,-123 870.164,-90.8754 2655.61,-91.1578 2910.39,-87 3228.52,-81.8082 3613.15,-75.1603 3730.62,-73.1218"/>
<polygon fill="midnightblue" stroke="midnightblue" points="3730.89,-76.6177 3740.83,-72.9445 3730.77,-69.6187 3730.89,-76.6177"/>
</g>
<!-- Node5&#45;&gt;Node11 -->
<g id="edge13" class="edge"><title>Node5&#45;&gt;Node11</title>
<path fill="none" stroke="midnightblue" d="M587.052,-128.929C596.648,-126.535 607.392,-124.248 617.388,-123 968.353,-79.1794 3446.78,-94.442 3800.39,-87 3947.91,-83.8954 4121.35,-77.9681 4210.96,-74.7365"/>
<polygon fill="midnightblue" stroke="midnightblue" points="4211.34,-78.2253 4221.21,-74.3657 4211.09,-71.2298 4211.34,-78.2253"/>
</g>
<!-- Node5&#45;&gt;Node12 -->
<g id="edge14" class="edge"><title>Node5&#45;&gt;Node12</title>
<path fill="none" stroke="midnightblue" d="M524.975,-128.936C477.792,-116.468 390.7,-93.4564 343.62,-81.0164"/>
<polygon fill="midnightblue" stroke="midnightblue" points="344.221,-77.5552 333.659,-78.3844 342.433,-84.323 344.221,-77.5552"/>
</g>
<!-- Node5&#45;&gt;Node13 -->
<g id="edge15" class="edge"><title>Node5&#45;&gt;Node13</title>
<path fill="none" stroke="midnightblue" d="M557.388,-128.734C557.388,-120.541 557.388,-107.923 557.388,-96.7136"/>
<polygon fill="midnightblue" stroke="midnightblue" points="560.888,-96.589 557.388,-86.589 553.888,-96.5891 560.888,-96.589"/>
</g>
<!-- Node5&#45;&gt;Node14 -->
<g id="edge16" class="edge"><title>Node5&#45;&gt;Node14</title>
<path fill="none" stroke="midnightblue" d="M572.358,-128.734C590.999,-117.818 623.051,-99.0487 644.957,-86.2209"/>
<polygon fill="midnightblue" stroke="midnightblue" points="646.795,-89.2008 653.656,-81.1273 643.258,-83.1603 646.795,-89.2008"/>
</g>
<!-- Node5&#45;&gt;Node15 -->
<g id="edge17" class="edge"><title>Node5&#45;&gt;Node15</title>
<path fill="none" stroke="midnightblue" d="M586.868,-128.869C621.118,-118.841 678.444,-102.056 721.654,-89.4042"/>
<polygon fill="midnightblue" stroke="midnightblue" points="722.864,-92.6971 731.477,-86.5281 720.897,-85.9791 722.864,-92.6971"/>
</g>
</g>
</svg>
