<?xml version="1.0" encoding="UTF-8" standalone="no"?>
<!DOCTYPE svg PUBLIC "-//W3C//DTD SVG 1.1//EN"
 "http://www.w3.org/Graphics/SVG/1.1/DTD/svg11.dtd">
<!-- Generated by graphviz version 2.38.0 (20140413.2041)
 -->
<!-- Title: boost/ui/locale.hpp Pages: 1 -->
<svg width="168pt" height="140pt"
 viewBox="0.00 0.00 167.50 140.00" xmlns="http://www.w3.org/2000/svg" xmlns:xlink="http://www.w3.org/1999/xlink">
<g id="graph0" class="graph" transform="scale(1 1) rotate(0) translate(4 136)">
<title>boost/ui/locale.hpp</title>
<polygon fill="white" stroke="none" points="-4,4 -4,-136 163.5,-136 163.5,4 -4,4"/>
<!-- Node1 -->
<g id="node1" class="node"><title>Node1</title>
<polygon fill="#bfbfbf" stroke="black" points="44.5,-112.5 44.5,-131.5 142.5,-131.5 142.5,-112.5 44.5,-112.5"/>
<text text-anchor="middle" x="93.5" y="-119.5" font-family="Helvetica,sans-Serif" font-size="10.00">boost/ui/locale.hpp</text>
</g>
<!-- Node2 -->
<g id="node2" class="node"><title>Node2</title>
<g id="a_node2"><a xlink:href="config_8hpp.html" target="_top" xlink:title="Configuration options. ">
<polygon fill="white" stroke="black" points="0,-56.5 0,-75.5 99,-75.5 99,-56.5 0,-56.5"/>
<text text-anchor="middle" x="49.5" y="-63.5" font-family="Helvetica,sans-Serif" font-size="10.00">boost/ui/config.hpp</text>
</a>
</g>
</g>
<!-- Node1&#45;&gt;Node2 -->
<g id="edge1" class="edge"><title>Node1&#45;&gt;Node2</title>
<path fill="none" stroke="midnightblue" d="M86.2343,-112.083C79.9552,-104.377 70.7124,-93.0333 63.0692,-83.6531"/>
<polygon fill="midnightblue" stroke="midnightblue" points="65.6606,-81.2926 56.6305,-75.7511 60.2339,-85.7143 65.6606,-81.2926"/>
</g>
<!-- Node4 -->
<g id="node4" class="node"><title>Node4</title>
<polygon fill="white" stroke="#bfbfbf" points="117.5,-56.5 117.5,-75.5 159.5,-75.5 159.5,-56.5 117.5,-56.5"/>
<text text-anchor="middle" x="138.5" y="-63.5" font-family="Helvetica,sans-Serif" font-size="10.00">locale</text>
</g>
<!-- Node1&#45;&gt;Node4 -->
<g id="edge3" class="edge"><title>Node1&#45;&gt;Node4</title>
<path fill="none" stroke="midnightblue" d="M100.931,-112.083C107.353,-104.377 116.806,-93.0333 124.622,-83.6531"/>
<polygon fill="midnightblue" stroke="midnightblue" points="127.494,-85.674 131.207,-75.7511 122.117,-81.1927 127.494,-85.674"/>
</g>
<!-- Node3 -->
<g id="node3" class="node"><title>Node3</title>
<polygon fill="white" stroke="#bfbfbf" points="5,-0.5 5,-19.5 94,-19.5 94,-0.5 5,-0.5"/>
<text text-anchor="middle" x="49.5" y="-7.5" font-family="Helvetica,sans-Serif" font-size="10.00">boost/config.hpp</text>
</g>
<!-- Node2&#45;&gt;Node3 -->
<g id="edge2" class="edge"><title>Node2&#45;&gt;Node3</title>
<path fill="none" stroke="midnightblue" d="M49.5,-56.083C49.5,-49.0059 49.5,-38.8611 49.5,-29.9865"/>
<polygon fill="midnightblue" stroke="midnightblue" points="53.0001,-29.751 49.5,-19.7511 46.0001,-29.7511 53.0001,-29.751"/>
</g>
</g>
</svg>
