<?xml version="1.0" encoding="UTF-8" standalone="no"?>
<!DOCTYPE svg PUBLIC "-//W3C//DTD SVG 1.1//EN"
 "http://www.w3.org/Graphics/SVG/1.1/DTD/svg11.dtd">
<!-- Generated by graphviz version 2.38.0 (20140413.2041)
 -->
<!-- Title: boost/ui/menu.hpp Pages: 1 -->
<svg width="4462pt" height="341pt"
 viewBox="0.00 0.00 4461.79 341.00" xmlns="http://www.w3.org/2000/svg" xmlns:xlink="http://www.w3.org/1999/xlink">
<g id="graph0" class="graph" transform="scale(1 1) rotate(0) translate(4 337)">
<title>boost/ui/menu.hpp</title>
<polygon fill="white" stroke="none" points="-4,4 -4,-337 4457.79,-337 4457.79,4 -4,4"/>
<!-- Node1 -->
<g id="node1" class="node"><title>Node1</title>
<polygon fill="#bfbfbf" stroke="black" points="4169.79,-313.5 4169.79,-332.5 4266.79,-332.5 4266.79,-313.5 4169.79,-313.5"/>
<text text-anchor="middle" x="4218.29" y="-320.5" font-family="Helvetica,sans-Serif" font-size="10.00">boost/ui/menu.hpp</text>
</g>
<!-- Node2 -->
<g id="node2" class="node"><title>Node2</title>
<g id="a_node2"><a xlink:href="config_8hpp.html" target="_top" xlink:title="Configuration options. ">
<polygon fill="white" stroke="black" points="2482.79,-62 2482.79,-81 2581.79,-81 2581.79,-62 2482.79,-62"/>
<text text-anchor="middle" x="2532.29" y="-69" font-family="Helvetica,sans-Serif" font-size="10.00">boost/ui/config.hpp</text>
</a>
</g>
</g>
<!-- Node1&#45;&gt;Node2 -->
<g id="edge1" class="edge"><title>Node1&#45;&gt;Node2</title>
<path fill="none" stroke="midnightblue" d="M4228.8,-313.323C4256.46,-289.474 4326.62,-221.857 4288.29,-179 4230.51,-114.383 2893.84,-80.609 2592.34,-73.7982"/>
<polygon fill="midnightblue" stroke="midnightblue" points="2592.13,-70.2927 2582.05,-73.5673 2591.97,-77.291 2592.13,-70.2927"/>
</g>
<!-- Node4 -->
<g id="node4" class="node"><title>Node4</title>
<g id="a_node4"><a xlink:href="widget_8hpp.html" target="_top" xlink:title="Widget class. ">
<polygon fill="white" stroke="red" points="1669.79,-257.5 1669.79,-276.5 1770.79,-276.5 1770.79,-257.5 1669.79,-257.5"/>
<text text-anchor="middle" x="1720.29" y="-264.5" font-family="Helvetica,sans-Serif" font-size="10.00">boost/ui/widget.hpp</text>
</a>
</g>
</g>
<!-- Node1&#45;&gt;Node4 -->
<g id="edge3" class="edge"><title>Node1&#45;&gt;Node4</title>
<path fill="none" stroke="midnightblue" d="M4169.79,-320.952C3857.18,-314.194 2128.36,-276.821 1781.07,-269.314"/>
<polygon fill="midnightblue" stroke="midnightblue" points="1781.03,-265.812 1770.96,-269.095 1780.88,-272.811 1781.03,-265.812"/>
</g>
<!-- Node48 -->
<g id="node48" class="node"><title>Node48</title>
<polygon fill="white" stroke="#bfbfbf" points="4028.29,-185 4028.29,-215 4138.29,-215 4138.29,-185 4028.29,-185"/>
<text text-anchor="start" x="4036.29" y="-203" font-family="Helvetica,sans-Serif" font-size="10.00">boost/ui/detail/shared</text>
<text text-anchor="middle" x="4083.29" y="-192" font-family="Helvetica,sans-Serif" font-size="10.00">_count.hpp</text>
</g>
<!-- Node1&#45;&gt;Node48 -->
<g id="edge76" class="edge"><title>Node1&#45;&gt;Node48</title>
<path fill="none" stroke="midnightblue" d="M4208.59,-313.298C4187.39,-294.296 4136.45,-248.647 4106.46,-221.764"/>
<polygon fill="midnightblue" stroke="midnightblue" points="4108.74,-219.107 4098.96,-215.039 4104.07,-224.32 4108.74,-219.107"/>
</g>
<!-- Node49 -->
<g id="node49" class="node"><title>Node49</title>
<polygon fill="white" stroke="#bfbfbf" points="4156.79,-190.5 4156.79,-209.5 4279.79,-209.5 4279.79,-190.5 4156.79,-190.5"/>
<text text-anchor="middle" x="4218.29" y="-197.5" font-family="Helvetica,sans-Serif" font-size="10.00">boost/ui/detail/event.hpp</text>
</g>
<!-- Node1&#45;&gt;Node49 -->
<g id="edge77" class="edge"><title>Node1&#45;&gt;Node49</title>
<path fill="none" stroke="midnightblue" d="M4218.29,-313.298C4218.29,-293.85 4218.29,-246.49 4218.29,-219.904"/>
<polygon fill="midnightblue" stroke="midnightblue" points="4221.79,-219.623 4218.29,-209.623 4214.79,-219.623 4221.79,-219.623"/>
</g>
<!-- Node50 -->
<g id="node50" class="node"><title>Node50</title>
<polygon fill="white" stroke="#bfbfbf" points="4336.79,-257.5 4336.79,-276.5 4453.79,-276.5 4453.79,-257.5 4336.79,-257.5"/>
<text text-anchor="middle" x="4395.29" y="-264.5" font-family="Helvetica,sans-Serif" font-size="10.00">boost/noncopyable.hpp</text>
</g>
<!-- Node1&#45;&gt;Node50 -->
<g id="edge78" class="edge"><title>Node1&#45;&gt;Node50</title>
<path fill="none" stroke="midnightblue" d="M4246.34,-313.444C4276.38,-304.28 4324.21,-289.688 4357.54,-279.519"/>
<polygon fill="midnightblue" stroke="midnightblue" points="4358.84,-282.782 4367.38,-276.516 4356.79,-276.087 4358.84,-282.782"/>
</g>
<!-- Node3 -->
<g id="node3" class="node"><title>Node3</title>
<polygon fill="white" stroke="#bfbfbf" points="905.794,-0.5 905.794,-19.5 994.794,-19.5 994.794,-0.5 905.794,-0.5"/>
<text text-anchor="middle" x="950.294" y="-7.5" font-family="Helvetica,sans-Serif" font-size="10.00">boost/config.hpp</text>
</g>
<!-- Node2&#45;&gt;Node3 -->
<g id="edge2" class="edge"><title>Node2&#45;&gt;Node3</title>
<path fill="none" stroke="midnightblue" d="M2482.78,-68.6376C2248.27,-59.8177 1250.57,-22.2934 1005.05,-13.0593"/>
<polygon fill="midnightblue" stroke="midnightblue" points="1005.06,-9.55745 994.937,-12.679 1004.8,-16.5525 1005.06,-9.55745"/>
</g>
<!-- Node4&#45;&gt;Node2 -->
<g id="edge4" class="edge"><title>Node4&#45;&gt;Node2</title>
<path fill="none" stroke="midnightblue" d="M1771.04,-265.964C2101.94,-265.608 3940.3,-261.8 3980.29,-221 3993.36,-207.67 3992.47,-193.15 3980.29,-179 3871.53,-52.5916 3775.25,-139.371 3609.29,-123 3222.86,-84.8779 2755.51,-75.3787 2592.12,-73.1467"/>
<polygon fill="midnightblue" stroke="midnightblue" points="2591.85,-69.6429 2581.81,-73.01 2591.76,-76.6423 2591.85,-69.6429"/>
</g>
<!-- Node4&#45;&gt;Node3 -->
<g id="edge56" class="edge"><title>Node4&#45;&gt;Node3</title>
<path fill="none" stroke="midnightblue" d="M1669.59,-265.963C1425.05,-265.581 373.467,-261.574 233.294,-221 120.758,-188.426 64.3812,-188.742 6.29431,-87 -0.536848,-75.0349 -3.21328,-65.9716 6.29431,-56 37.1092,-23.6812 698.358,-13.7859 895.376,-11.5495"/>
<polygon fill="midnightblue" stroke="midnightblue" points="895.539,-15.048 905.5,-11.4368 895.461,-8.04847 895.539,-15.048"/>
</g>
<!-- Node5 -->
<g id="node5" class="node"><title>Node5</title>
<g id="a_node5"><a xlink:href="coord_8hpp.html" target="_top" xlink:title="Coordinates classes. ">
<polygon fill="white" stroke="red" points="876.794,-123.5 876.794,-142.5 973.794,-142.5 973.794,-123.5 876.794,-123.5"/>
<text text-anchor="middle" x="925.294" y="-130.5" font-family="Helvetica,sans-Serif" font-size="10.00">boost/ui/coord.hpp</text>
</a>
</g>
</g>
<!-- Node4&#45;&gt;Node5 -->
<g id="edge5" class="edge"><title>Node4&#45;&gt;Node5</title>
<path fill="none" stroke="midnightblue" d="M1669.76,-265.375C1513.9,-263.104 1047.64,-253.629 988.294,-221 960.615,-205.781 941.984,-172.614 932.544,-151.913"/>
<polygon fill="midnightblue" stroke="midnightblue" points="935.718,-150.434 928.548,-142.634 929.289,-153.203 935.718,-150.434"/>
</g>
<!-- Node6 -->
<g id="node6" class="node"><title>Node6</title>
<polygon fill="white" stroke="#bfbfbf" points="1520.79,-62 1520.79,-81 1569.79,-81 1569.79,-62 1520.79,-62"/>
<text text-anchor="middle" x="1545.29" y="-69" font-family="Helvetica,sans-Serif" font-size="10.00">cstddef</text>
</g>
<!-- Node4&#45;&gt;Node6 -->
<g id="edge69" class="edge"><title>Node4&#45;&gt;Node6</title>
<path fill="none" stroke="midnightblue" d="M1669.61,-264.469C1560.77,-260.658 1312.5,-248.963 1287.29,-221 1274.8,-207.135 1276.9,-194.505 1287.29,-179 1302.28,-156.651 1486.47,-97.3888 1511.29,-87 1512.7,-86.4115 1514.14,-85.8075 1515.59,-85.1957"/>
<polygon fill="midnightblue" stroke="midnightblue" points="1517.34,-88.2569 1525.18,-81.132 1514.6,-81.8119 1517.34,-88.2569"/>
</g>
<!-- Node7 -->
<g id="node7" class="node"><title>Node7</title>
<polygon fill="white" stroke="#bfbfbf" points="15.7943,-62 15.7943,-81 104.794,-81 104.794,-62 15.7943,-62"/>
<text text-anchor="middle" x="60.2943" y="-69" font-family="Helvetica,sans-Serif" font-size="10.00">boost/assert.hpp</text>
</g>
<!-- Node4&#45;&gt;Node7 -->
<g id="edge64" class="edge"><title>Node4&#45;&gt;Node7</title>
<path fill="none" stroke="midnightblue" d="M1669.48,-265.695C1435.93,-264.112 471.382,-255.521 341.294,-221 235.018,-192.798 123.932,-118.523 79.9183,-86.9897"/>
<polygon fill="midnightblue" stroke="midnightblue" points="81.952,-84.1412 71.8,-81.1101 77.846,-89.8105 81.952,-84.1412"/>
</g>
<!-- Node8 -->
<g id="node8" class="node"><title>Node8</title>
<polygon fill="white" stroke="#bfbfbf" points="122.794,-62 122.794,-81 261.794,-81 261.794,-62 122.794,-62"/>
<text text-anchor="middle" x="192.294" y="-69" font-family="Helvetica,sans-Serif" font-size="10.00">boost/detail/workaround.hpp</text>
</g>
<!-- Node4&#45;&gt;Node8 -->
<g id="edge50" class="edge"><title>Node4&#45;&gt;Node8</title>
<path fill="none" stroke="midnightblue" d="M1669.61,-265.739C1446.28,-264.383 555.757,-256.763 436.294,-221 342.615,-192.955 248.482,-120.006 210.177,-87.9695"/>
<polygon fill="midnightblue" stroke="midnightblue" points="211.961,-84.8937 202.069,-81.0976 207.435,-90.2335 211.961,-84.8937"/>
</g>
<!-- Node9 -->
<g id="node9" class="node"><title>Node9</title>
<polygon fill="white" stroke="#bfbfbf" points="280.294,-62 280.294,-81 336.294,-81 336.294,-62 280.294,-62"/>
<text text-anchor="middle" x="308.294" y="-69" font-family="Helvetica,sans-Serif" font-size="10.00">algorithm</text>
</g>
<!-- Node4&#45;&gt;Node9 -->
<g id="edge53" class="edge"><title>Node4&#45;&gt;Node9</title>
<path fill="none" stroke="midnightblue" d="M1669.72,-265.78C1455.78,-264.624 631.166,-257.798 521.294,-221 437.359,-192.889 356.871,-120.534 323.923,-88.3471"/>
<polygon fill="midnightblue" stroke="midnightblue" points="326.162,-85.6383 316.598,-81.0807 321.232,-90.608 326.162,-85.6383"/>
</g>
<!-- Node10 -->
<g id="node10" class="node"><title>Node10</title>
<polygon fill="white" stroke="#bfbfbf" points="354.294,-62 354.294,-81 406.294,-81 406.294,-62 354.294,-62"/>
<text text-anchor="middle" x="380.294" y="-69" font-family="Helvetica,sans-Serif" font-size="10.00">memory</text>
</g>
<!-- Node4&#45;&gt;Node10 -->
<g id="edge62" class="edge"><title>Node4&#45;&gt;Node10</title>
<path fill="none" stroke="midnightblue" d="M1669.51,-265.498C1465.78,-263.27 713.753,-252.94 612.294,-221 522.345,-192.683 433.315,-119.881 397.158,-87.9264"/>
<polygon fill="midnightblue" stroke="midnightblue" points="399.292,-85.1388 389.508,-81.0728 394.621,-90.3525 399.292,-85.1388"/>
</g>
<!-- Node11 -->
<g id="node11" class="node"><title>Node11</title>
<polygon fill="white" stroke="#bfbfbf" points="424.294,-56.5 424.294,-86.5 524.294,-86.5 524.294,-56.5 424.294,-56.5"/>
<text text-anchor="start" x="432.294" y="-74.5" font-family="Helvetica,sans-Serif" font-size="10.00">boost/preprocessor</text>
<text text-anchor="middle" x="474.294" y="-63.5" font-family="Helvetica,sans-Serif" font-size="10.00">/cat.hpp</text>
</g>
<!-- Node4&#45;&gt;Node11 -->
<g id="edge46" class="edge"><title>Node4&#45;&gt;Node11</title>
<path fill="none" stroke="midnightblue" d="M1669.75,-265.327C1477.06,-262.547 794.724,-250.683 702.294,-221 618.315,-194.031 535.548,-127.403 496.9,-93.3161"/>
<polygon fill="midnightblue" stroke="midnightblue" points="499.128,-90.6131 489.338,-86.5621 494.465,-95.8339 499.128,-90.6131"/>
</g>
<!-- Node12 -->
<g id="node12" class="node"><title>Node12</title>
<polygon fill="white" stroke="#bfbfbf" points="1384.79,-62 1384.79,-81 1443.79,-81 1443.79,-62 1384.79,-62"/>
<text text-anchor="middle" x="1414.29" y="-69" font-family="Helvetica,sans-Serif" font-size="10.00">functional</text>
</g>
<!-- Node4&#45;&gt;Node12 -->
<g id="edge32" class="edge"><title>Node4&#45;&gt;Node12</title>
<path fill="none" stroke="midnightblue" d="M1669.7,-265.307C1547.27,-263.107 1242.78,-254.309 1212.29,-221 1205.5,-213.572 1211.21,-127.829 1215.29,-123 1262.33,-67.3221 1305.42,-107.747 1375.29,-87 1377.93,-86.2174 1380.64,-85.3469 1383.36,-84.4321"/>
<polygon fill="midnightblue" stroke="midnightblue" points="1384.76,-87.647 1393.01,-81.002 1382.42,-81.0506 1384.76,-87.647"/>
</g>
<!-- Node13 -->
<g id="node13" class="node"><title>Node13</title>
<polygon fill="white" stroke="#bfbfbf" points="542.294,-56.5 542.294,-86.5 642.294,-86.5 642.294,-56.5 542.294,-56.5"/>
<text text-anchor="start" x="550.294" y="-74.5" font-family="Helvetica,sans-Serif" font-size="10.00">boost/preprocessor</text>
<text text-anchor="middle" x="592.294" y="-63.5" font-family="Helvetica,sans-Serif" font-size="10.00">/arithmetic/dec.hpp</text>
</g>
<!-- Node4&#45;&gt;Node13 -->
<g id="edge42" class="edge"><title>Node4&#45;&gt;Node13</title>
<path fill="none" stroke="midnightblue" d="M1669.76,-265.392C1486.44,-262.941 862.734,-252.356 779.294,-221 707.441,-193.998 641.703,-128.373 610.822,-94.1192"/>
<polygon fill="midnightblue" stroke="midnightblue" points="613.337,-91.6797 604.082,-86.522 608.101,-96.3252 613.337,-91.6797"/>
</g>
<!-- Node14 -->
<g id="node14" class="node"><title>Node14</title>
<polygon fill="white" stroke="#bfbfbf" points="660.294,-56.5 660.294,-86.5 760.294,-86.5 760.294,-56.5 660.294,-56.5"/>
<text text-anchor="start" x="668.294" y="-74.5" font-family="Helvetica,sans-Serif" font-size="10.00">boost/preprocessor</text>
<text text-anchor="middle" x="710.294" y="-63.5" font-family="Helvetica,sans-Serif" font-size="10.00">/tuple/elem.hpp</text>
</g>
<!-- Node4&#45;&gt;Node14 -->
<g id="edge49" class="edge"><title>Node4&#45;&gt;Node14</title>
<path fill="none" stroke="midnightblue" d="M1669.65,-265.74C1493.17,-264.516 911.932,-257.71 837.294,-221 781.923,-193.766 741.12,-130.261 722.139,-95.7783"/>
<polygon fill="midnightblue" stroke="midnightblue" points="725.177,-94.0382 717.369,-86.8764 719.007,-97.3439 725.177,-94.0382"/>
</g>
<!-- Node15 -->
<g id="node15" class="node"><title>Node15</title>
<polygon fill="white" stroke="#bfbfbf" points="778.294,-62 778.294,-81 818.294,-81 818.294,-62 778.294,-62"/>
<text text-anchor="middle" x="798.294" y="-69" font-family="Helvetica,sans-Serif" font-size="10.00">limits</text>
</g>
<!-- Node4&#45;&gt;Node15 -->
<g id="edge71" class="edge"><title>Node4&#45;&gt;Node15</title>
<path fill="none" stroke="midnightblue" d="M1669.62,-266.083C1498.5,-265.98 949.09,-262.398 882.294,-221 834.549,-191.409 811.446,-124.168 802.676,-91.2966"/>
<polygon fill="midnightblue" stroke="midnightblue" points="805.978,-90.0723 800.155,-81.2209 799.187,-91.7714 805.978,-90.0723"/>
</g>
<!-- Node16 -->
<g id="node16" class="node"><title>Node16</title>
<polygon fill="white" stroke="#bfbfbf" points="836.294,-62 836.294,-81 922.294,-81 922.294,-62 836.294,-62"/>
<text text-anchor="middle" x="879.294" y="-69" font-family="Helvetica,sans-Serif" font-size="10.00">boost/limits.hpp</text>
</g>
<!-- Node4&#45;&gt;Node16 -->
<g id="edge70" class="edge"><title>Node4&#45;&gt;Node16</title>
<path fill="none" stroke="midnightblue" d="M1669.51,-265.162C1507.56,-262.198 1010.03,-250.744 944.294,-221 899.913,-200.92 885.791,-188.065 867.294,-143 860.314,-125.994 865.422,-105.076 870.971,-90.4606"/>
<polygon fill="midnightblue" stroke="midnightblue" points="874.267,-91.6525 874.922,-81.0779 867.815,-88.9356 874.267,-91.6525"/>
</g>
<!-- Node17 -->
<g id="node17" class="node"><title>Node17</title>
<polygon fill="white" stroke="#bfbfbf" points="978.294,-62 978.294,-81 1026.29,-81 1026.29,-62 978.294,-62"/>
<text text-anchor="middle" x="1002.29" y="-69" font-family="Helvetica,sans-Serif" font-size="10.00">limits.h</text>
</g>
<!-- Node4&#45;&gt;Node17 -->
<g id="edge73" class="edge"><title>Node4&#45;&gt;Node17</title>
<path fill="none" stroke="midnightblue" d="M1669.55,-264.41C1534.62,-259.867 1174,-245.552 1126.29,-221 1069.17,-191.596 1028.18,-123.216 1011.11,-90.5286"/>
<polygon fill="midnightblue" stroke="midnightblue" points="1014.05,-88.6042 1006.41,-81.2646 1007.81,-91.7671 1014.05,-88.6042"/>
</g>
<!-- Node18 -->
<g id="node18" class="node"><title>Node18</title>
<polygon fill="white" stroke="#bfbfbf" points="1044.79,-62 1044.79,-81 1103.79,-81 1103.79,-62 1044.79,-62"/>
<text text-anchor="middle" x="1074.29" y="-69" font-family="Helvetica,sans-Serif" font-size="10.00">stdexcept</text>
</g>
<!-- Node4&#45;&gt;Node18 -->
<g id="edge61" class="edge"><title>Node4&#45;&gt;Node18</title>
<path fill="none" stroke="midnightblue" d="M1669.49,-264.289C1542.31,-259.657 1217.38,-245.542 1175.29,-221 1123.99,-191.083 1093.12,-123.479 1080.68,-90.8292"/>
<polygon fill="midnightblue" stroke="midnightblue" points="1083.88,-89.3936 1077.16,-81.2015 1077.3,-91.7954 1083.88,-89.3936"/>
</g>
<!-- Node19 -->
<g id="node19" class="node"><title>Node19</title>
<polygon fill="white" stroke="#bfbfbf" points="1461.79,-62 1461.79,-81 1502.79,-81 1502.79,-62 1461.79,-62"/>
<text text-anchor="middle" x="1482.29" y="-69" font-family="Helvetica,sans-Serif" font-size="10.00">string</text>
</g>
<!-- Node4&#45;&gt;Node19 -->
<g id="edge30" class="edge"><title>Node4&#45;&gt;Node19</title>
<path fill="none" stroke="midnightblue" d="M1669.66,-264.685C1553.18,-261.176 1273.85,-249.82 1243.29,-221 1211.37,-190.894 1202.87,-156.43 1231.29,-123 1263.53,-85.0924 1404.85,-101.983 1452.29,-87 1453.96,-86.4731 1455.66,-85.8683 1457.34,-85.2113"/>
<polygon fill="midnightblue" stroke="midnightblue" points="1459.03,-88.295 1466.76,-81.0574 1456.2,-81.8902 1459.03,-88.295"/>
</g>
<!-- Node20 -->
<g id="node20" class="node"><title>Node20</title>
<polygon fill="white" stroke="#bfbfbf" points="1122.29,-62 1122.29,-81 1256.29,-81 1256.29,-62 1122.29,-62"/>
<text text-anchor="middle" x="1189.29" y="-69" font-family="Helvetica,sans-Serif" font-size="10.00">boost/throw_exception.hpp</text>
</g>
<!-- Node4&#45;&gt;Node20 -->
<g id="edge55" class="edge"><title>Node4&#45;&gt;Node20</title>
<path fill="none" stroke="midnightblue" d="M1669.47,-265.292C1544.84,-263.045 1231.8,-254.13 1199.29,-221 1165.28,-186.341 1175.82,-122.546 1183.82,-91.0666"/>
<polygon fill="midnightblue" stroke="midnightblue" points="1187.3,-91.6146 1186.57,-81.045 1180.55,-89.7632 1187.3,-91.6146"/>
</g>
<!-- Node21 -->
<g id="node21" class="node"><title>Node21</title>
<polygon fill="white" stroke="#bfbfbf" points="1274.29,-62 1274.29,-81 1366.29,-81 1366.29,-62 1274.29,-62"/>
<text text-anchor="middle" x="1320.29" y="-69" font-family="Helvetica,sans-Serif" font-size="10.00">boost/cstdint.hpp</text>
</g>
<!-- Node4&#45;&gt;Node21 -->
<g id="edge72" class="edge"><title>Node4&#45;&gt;Node21</title>
<path fill="none" stroke="midnightblue" d="M1669.46,-265.369C1545.64,-263.305 1236.26,-254.787 1205.29,-221 1198.82,-213.939 1204.65,-128.319 1208.29,-123 1217.39,-109.718 1254.69,-94.5427 1283.78,-84.3241"/>
<polygon fill="midnightblue" stroke="midnightblue" points="1284.96,-87.6201 1293.28,-81.0586 1282.68,-81.0005 1284.96,-87.6201"/>
</g>
<!-- Node22 -->
<g id="node22" class="node"><title>Node22</title>
<g id="a_node22"><a xlink:href="string_8hpp.html" target="_top" xlink:title="String class and operations. ">
<polygon fill="white" stroke="black" points="1240.79,-123.5 1240.79,-142.5 1337.79,-142.5 1337.79,-123.5 1240.79,-123.5"/>
<text text-anchor="middle" x="1289.29" y="-130.5" font-family="Helvetica,sans-Serif" font-size="10.00">boost/ui/string.hpp</text>
</a>
</g>
</g>
<!-- Node4&#45;&gt;Node22 -->
<g id="edge24" class="edge"><title>Node4&#45;&gt;Node22</title>
<path fill="none" stroke="midnightblue" d="M1669.67,-264.871C1554.72,-261.785 1281.82,-251.312 1254.29,-221 1235.8,-200.632 1256.97,-169.243 1273.5,-150.26"/>
<polygon fill="midnightblue" stroke="midnightblue" points="1276.23,-152.465 1280.39,-142.723 1271.06,-147.742 1276.23,-152.465"/>
</g>
<!-- Node23 -->
<g id="node23" class="node"><title>Node23</title>
<polygon fill="white" stroke="#bfbfbf" points="1587.79,-62 1587.79,-81 1660.79,-81 1660.79,-62 1587.79,-62"/>
<text text-anchor="middle" x="1624.29" y="-69" font-family="Helvetica,sans-Serif" font-size="10.00">initializer_list</text>
</g>
<!-- Node4&#45;&gt;Node23 -->
<g id="edge31" class="edge"><title>Node4&#45;&gt;Node23</title>
<path fill="none" stroke="midnightblue" d="M1669.65,-264.452C1603.12,-261.229 1491.72,-251.329 1466.29,-221 1419.65,-165.37 1532.94,-109.285 1591.67,-84.9975"/>
<polygon fill="midnightblue" stroke="midnightblue" points="1593.32,-88.1057 1601.28,-81.1079 1590.7,-81.6176 1593.32,-88.1057"/>
</g>
<!-- Node24 -->
<g id="node24" class="node"><title>Node24</title>
<polygon fill="white" stroke="#bfbfbf" points="1296.79,-190.5 1296.79,-209.5 1395.79,-209.5 1395.79,-190.5 1296.79,-190.5"/>
<text text-anchor="middle" x="1346.29" y="-197.5" font-family="Helvetica,sans-Serif" font-size="10.00">boost/ui/config.hpp</text>
</g>
<!-- Node4&#45;&gt;Node24 -->
<g id="edge29" class="edge"><title>Node4&#45;&gt;Node24</title>
<path fill="none" stroke="midnightblue" d="M1669.64,-261.144C1607.88,-254.651 1500.58,-241.523 1410.29,-221 1400.35,-218.74 1389.72,-215.686 1380.04,-212.645"/>
<polygon fill="midnightblue" stroke="midnightblue" points="1380.95,-209.261 1370.36,-209.515 1378.8,-215.922 1380.95,-209.261"/>
</g>
<!-- Node25 -->
<g id="node25" class="node"><title>Node25</title>
<g id="a_node25"><a xlink:href="event_8hpp.html" target="_top" xlink:title="Event classes. ">
<polygon fill="white" stroke="black" points="3874.79,-190.5 3874.79,-209.5 3971.79,-209.5 3971.79,-190.5 3874.79,-190.5"/>
<text text-anchor="middle" x="3923.29" y="-197.5" font-family="Helvetica,sans-Serif" font-size="10.00">boost/ui/event.hpp</text>
</a>
</g>
</g>
<!-- Node4&#45;&gt;Node25 -->
<g id="edge33" class="edge"><title>Node4&#45;&gt;Node25</title>
<path fill="none" stroke="midnightblue" d="M1771.11,-265.878C2075.72,-265.024 3653.42,-258.794 3865.29,-221 3874.92,-219.283 3885.1,-216.226 3894.2,-213.01"/>
<polygon fill="midnightblue" stroke="midnightblue" points="3895.43,-216.289 3903.57,-209.515 3892.98,-209.73 3895.43,-216.289"/>
</g>
<!-- Node26 -->
<g id="node26" class="node"><title>Node26</title>
<polygon fill="white" stroke="#bfbfbf" points="2039.79,-123.5 2039.79,-142.5 2136.79,-142.5 2136.79,-123.5 2039.79,-123.5"/>
<text text-anchor="middle" x="2088.29" y="-130.5" font-family="Helvetica,sans-Serif" font-size="10.00">boost/function.hpp</text>
</g>
<!-- Node4&#45;&gt;Node26 -->
<g id="edge38" class="edge"><title>Node4&#45;&gt;Node26</title>
<path fill="none" stroke="midnightblue" d="M1669.78,-263.913C1583.93,-258.671 1424.13,-240.559 1481.29,-179 1518.12,-139.347 1884.62,-134.34 2029.66,-133.922"/>
<polygon fill="midnightblue" stroke="midnightblue" points="2029.72,-137.422 2039.71,-133.9 2029.7,-130.422 2029.72,-137.422"/>
</g>
<!-- Node27 -->
<g id="node27" class="node"><title>Node27</title>
<polygon fill="white" stroke="#bfbfbf" points="1490.79,-190.5 1490.79,-209.5 1587.79,-209.5 1587.79,-190.5 1490.79,-190.5"/>
<text text-anchor="middle" x="1539.29" y="-197.5" font-family="Helvetica,sans-Serif" font-size="10.00">boost/ui/coord.hpp</text>
</g>
<!-- Node4&#45;&gt;Node27 -->
<g id="edge37" class="edge"><title>Node4&#45;&gt;Node27</title>
<path fill="none" stroke="midnightblue" d="M1696.26,-257.369C1664.53,-245.973 1608.5,-225.853 1572.67,-212.987"/>
<polygon fill="midnightblue" stroke="midnightblue" points="1573.74,-209.65 1563.14,-209.564 1571.37,-216.238 1573.74,-209.65"/>
</g>
<!-- Node28 -->
<g id="node28" class="node"><title>Node28</title>
<polygon fill="white" stroke="#bfbfbf" points="1605.79,-179.5 1605.79,-220.5 1712.79,-220.5 1712.79,-179.5 1605.79,-179.5"/>
<text text-anchor="start" x="1613.79" y="-208.5" font-family="Helvetica,sans-Serif" font-size="10.00">/media/disk4_1/work</text>
<text text-anchor="start" x="1613.79" y="-197.5" font-family="Helvetica,sans-Serif" font-size="10.00">/code/ui/boost/boost</text>
<text text-anchor="middle" x="1659.29" y="-186.5" font-family="Helvetica,sans-Serif" font-size="10.00">/functional</text>
</g>
<!-- Node4&#45;&gt;Node28 -->
<g id="edge39" class="edge"><title>Node4&#45;&gt;Node28</title>
<path fill="none" stroke="midnightblue" d="M1712.07,-257.234C1705,-249.705 1694.43,-238.44 1684.6,-227.965"/>
<polygon fill="midnightblue" stroke="midnightblue" points="1687.03,-225.439 1677.63,-220.542 1681.92,-230.229 1687.03,-225.439"/>
</g>
<!-- Node29 -->
<g id="node29" class="node"><title>Node29</title>
<polygon fill="white" stroke="#bfbfbf" points="1731.29,-185 1731.29,-215 1831.29,-215 1831.29,-185 1731.29,-185"/>
<text text-anchor="start" x="1739.29" y="-203" font-family="Helvetica,sans-Serif" font-size="10.00">boost/preprocessor</text>
<text text-anchor="middle" x="1781.29" y="-192" font-family="Helvetica,sans-Serif" font-size="10.00">/iterate.hpp</text>
</g>
<!-- Node4&#45;&gt;Node29 -->
<g id="edge40" class="edge"><title>Node4&#45;&gt;Node29</title>
<path fill="none" stroke="midnightblue" d="M1728.52,-257.234C1736.84,-248.365 1750.03,-234.311 1761.14,-222.472"/>
<polygon fill="midnightblue" stroke="midnightblue" points="1763.78,-224.776 1768.07,-215.089 1758.68,-219.986 1763.78,-224.776"/>
</g>
<!-- Node30 -->
<g id="node30" class="node"><title>Node30</title>
<polygon fill="white" stroke="#bfbfbf" points="1849.79,-185 1849.79,-215 1952.79,-215 1952.79,-185 1849.79,-185"/>
<text text-anchor="start" x="1857.79" y="-203" font-family="Helvetica,sans-Serif" font-size="10.00">boost/preprocessor</text>
<text text-anchor="middle" x="1901.29" y="-192" font-family="Helvetica,sans-Serif" font-size="10.00">/iteration/iterate.hpp</text>
</g>
<!-- Node4&#45;&gt;Node30 -->
<g id="edge41" class="edge"><title>Node4&#45;&gt;Node30</title>
<path fill="none" stroke="midnightblue" d="M1744.33,-257.369C1771.84,-247.488 1817.62,-231.049 1852.66,-218.466"/>
<polygon fill="midnightblue" stroke="midnightblue" points="1854,-221.702 1862.23,-215.028 1851.64,-215.114 1854,-221.702"/>
</g>
<!-- Node31 -->
<g id="node31" class="node"><title>Node31</title>
<polygon fill="white" stroke="#bfbfbf" points="1971.29,-185 1971.29,-215 2071.29,-215 2071.29,-185 1971.29,-185"/>
<text text-anchor="start" x="1979.29" y="-203" font-family="Helvetica,sans-Serif" font-size="10.00">boost/preprocessor</text>
<text text-anchor="middle" x="2021.29" y="-192" font-family="Helvetica,sans-Serif" font-size="10.00">/arithmetic/inc.hpp</text>
</g>
<!-- Node4&#45;&gt;Node31 -->
<g id="edge43" class="edge"><title>Node4&#45;&gt;Node31</title>
<path fill="none" stroke="midnightblue" d="M1771.05,-258.598C1820.13,-250.955 1896.39,-237.791 1961.29,-221 1964.85,-220.08 1968.51,-219.058 1972.17,-217.977"/>
<polygon fill="midnightblue" stroke="midnightblue" points="1973.3,-221.292 1981.83,-215.008 1971.24,-214.601 1973.3,-221.292"/>
</g>
<!-- Node32 -->
<g id="node32" class="node"><title>Node32</title>
<polygon fill="white" stroke="#bfbfbf" points="2089.29,-185 2089.29,-215 2189.29,-215 2189.29,-185 2089.29,-185"/>
<text text-anchor="start" x="2097.29" y="-203" font-family="Helvetica,sans-Serif" font-size="10.00">boost/preprocessor</text>
<text text-anchor="middle" x="2139.29" y="-192" font-family="Helvetica,sans-Serif" font-size="10.00">/array/elem.hpp</text>
</g>
<!-- Node4&#45;&gt;Node32 -->
<g id="edge44" class="edge"><title>Node4&#45;&gt;Node32</title>
<path fill="none" stroke="midnightblue" d="M1770.94,-262.913C1841.13,-257.903 1971.63,-245.937 2080.29,-221 2084.1,-220.127 2088,-219.102 2091.9,-217.986"/>
<polygon fill="midnightblue" stroke="midnightblue" points="2092.98,-221.316 2101.53,-215.059 2090.95,-214.619 2092.98,-221.316"/>
</g>
<!-- Node33 -->
<g id="node33" class="node"><title>Node33</title>
<polygon fill="white" stroke="#bfbfbf" points="2207.29,-185 2207.29,-215 2307.29,-215 2307.29,-185 2207.29,-185"/>
<text text-anchor="start" x="2215.29" y="-203" font-family="Helvetica,sans-Serif" font-size="10.00">boost/preprocessor</text>
<text text-anchor="middle" x="2257.29" y="-192" font-family="Helvetica,sans-Serif" font-size="10.00">/array/size.hpp</text>
</g>
<!-- Node4&#45;&gt;Node33 -->
<g id="edge45" class="edge"><title>Node4&#45;&gt;Node33</title>
<path fill="none" stroke="midnightblue" d="M1771.12,-265.087C1859.09,-262.651 2045.04,-253.719 2198.29,-221 2202.34,-220.136 2206.49,-219.084 2210.63,-217.919"/>
<polygon fill="midnightblue" stroke="midnightblue" points="2211.64,-221.27 2220.21,-215.032 2209.62,-214.568 2211.64,-221.27"/>
</g>
<!-- Node34 -->
<g id="node34" class="node"><title>Node34</title>
<polygon fill="white" stroke="#bfbfbf" points="2325.29,-185 2325.29,-215 2425.29,-215 2425.29,-185 2325.29,-185"/>
<text text-anchor="start" x="2333.29" y="-203" font-family="Helvetica,sans-Serif" font-size="10.00">boost/preprocessor</text>
<text text-anchor="middle" x="2375.29" y="-192" font-family="Helvetica,sans-Serif" font-size="10.00">/slot/slot.hpp</text>
</g>
<!-- Node4&#45;&gt;Node34 -->
<g id="edge47" class="edge"><title>Node4&#45;&gt;Node34</title>
<path fill="none" stroke="midnightblue" d="M1771.12,-266.437C1874.76,-266.396 2117.52,-261.52 2316.29,-221 2320.41,-220.162 2324.63,-219.118 2328.83,-217.95"/>
<polygon fill="midnightblue" stroke="midnightblue" points="2329.97,-221.262 2338.55,-215.038 2327.96,-214.557 2329.97,-221.262"/>
</g>
<!-- Node35 -->
<g id="node35" class="node"><title>Node35</title>
<polygon fill="white" stroke="#bfbfbf" points="2443.29,-185 2443.29,-215 2543.29,-215 2543.29,-185 2443.29,-185"/>
<text text-anchor="start" x="2451.29" y="-203" font-family="Helvetica,sans-Serif" font-size="10.00">boost/preprocessor</text>
<text text-anchor="middle" x="2493.29" y="-192" font-family="Helvetica,sans-Serif" font-size="10.00">/slot/detail/def.hpp</text>
</g>
<!-- Node4&#45;&gt;Node35 -->
<g id="edge48" class="edge"><title>Node4&#45;&gt;Node35</title>
<path fill="none" stroke="midnightblue" d="M1771.03,-264.54C1912.12,-260.206 2307.03,-246.12 2434.29,-221 2438.47,-220.175 2442.76,-219.131 2447.03,-217.955"/>
<polygon fill="midnightblue" stroke="midnightblue" points="2448.3,-221.227 2456.88,-215.01 2446.3,-214.52 2448.3,-221.227"/>
</g>
<!-- Node36 -->
<g id="node36" class="node"><title>Node36</title>
<polygon fill="white" stroke="#bfbfbf" points="2561.29,-185 2561.29,-215 2665.29,-215 2665.29,-185 2561.29,-185"/>
<text text-anchor="start" x="2569.29" y="-203" font-family="Helvetica,sans-Serif" font-size="10.00">boost/function/detail</text>
<text text-anchor="middle" x="2613.29" y="-192" font-family="Helvetica,sans-Serif" font-size="10.00">/prologue.hpp</text>
</g>
<!-- Node4&#45;&gt;Node36 -->
<g id="edge51" class="edge"><title>Node4&#45;&gt;Node36</title>
<path fill="none" stroke="midnightblue" d="M1770.84,-265.004C1927.13,-261.651 2401.14,-249.353 2552.29,-221 2556.73,-220.168 2561.28,-219.1 2565.81,-217.89"/>
<polygon fill="midnightblue" stroke="midnightblue" points="2566.99,-221.193 2575.63,-215.054 2565.05,-214.468 2566.99,-221.193"/>
</g>
<!-- Node37 -->
<g id="node37" class="node"><title>Node37</title>
<polygon fill="white" stroke="#bfbfbf" points="2683.79,-190.5 2683.79,-209.5 2732.79,-209.5 2732.79,-190.5 2683.79,-190.5"/>
<text text-anchor="middle" x="2708.29" y="-197.5" font-family="Helvetica,sans-Serif" font-size="10.00">cassert</text>
</g>
<!-- Node4&#45;&gt;Node37 -->
<g id="edge52" class="edge"><title>Node4&#45;&gt;Node37</title>
<path fill="none" stroke="midnightblue" d="M1771.07,-265.031C1956.06,-261.305 2587.64,-246.806 2674.29,-221 2679.13,-219.561 2683.99,-217.295 2688.47,-214.798"/>
<polygon fill="midnightblue" stroke="midnightblue" points="2690.32,-217.769 2696.99,-209.535 2686.64,-211.814 2690.32,-217.769"/>
</g>
<!-- Node38 -->
<g id="node38" class="node"><title>Node38</title>
<polygon fill="white" stroke="#bfbfbf" points="2751.29,-185 2751.29,-215 2851.29,-215 2851.29,-185 2751.29,-185"/>
<text text-anchor="start" x="2759.29" y="-203" font-family="Helvetica,sans-Serif" font-size="10.00">boost/config/no_tr1</text>
<text text-anchor="middle" x="2801.29" y="-192" font-family="Helvetica,sans-Serif" font-size="10.00">/functional.hpp</text>
</g>
<!-- Node4&#45;&gt;Node38 -->
<g id="edge54" class="edge"><title>Node4&#45;&gt;Node38</title>
<path fill="none" stroke="midnightblue" d="M1770.98,-265.623C1950.01,-264.002 2551.99,-256.014 2741.29,-221 2745.73,-220.18 2750.28,-219.109 2754.8,-217.889"/>
<polygon fill="midnightblue" stroke="midnightblue" points="2755.98,-221.19 2764.59,-215.017 2754.01,-214.473 2755.98,-221.19"/>
</g>
<!-- Node39 -->
<g id="node39" class="node"><title>Node39</title>
<polygon fill="white" stroke="#bfbfbf" points="2869.79,-179.5 2869.79,-220.5 2976.79,-220.5 2976.79,-179.5 2869.79,-179.5"/>
<text text-anchor="start" x="2877.79" y="-208.5" font-family="Helvetica,sans-Serif" font-size="10.00">/media/disk4_1/work</text>
<text text-anchor="start" x="2877.79" y="-197.5" font-family="Helvetica,sans-Serif" font-size="10.00">/code/ui/boost/boost</text>
<text text-anchor="middle" x="2923.29" y="-186.5" font-family="Helvetica,sans-Serif" font-size="10.00">/exception</text>
</g>
<!-- Node4&#45;&gt;Node39 -->
<g id="edge57" class="edge"><title>Node4&#45;&gt;Node39</title>
<path fill="none" stroke="midnightblue" d="M1770.81,-265.801C1959.89,-264.78 2626.49,-258.652 2859.47,-220.805"/>
<polygon fill="midnightblue" stroke="midnightblue" points="2860.3,-224.215 2869.58,-219.096 2859.13,-217.314 2860.3,-224.215"/>
</g>
<!-- Node40 -->
<g id="node40" class="node"><title>Node40</title>
<polygon fill="white" stroke="#bfbfbf" points="2994.79,-190.5 2994.79,-209.5 3143.79,-209.5 3143.79,-190.5 2994.79,-190.5"/>
<text text-anchor="middle" x="3069.29" y="-197.5" font-family="Helvetica,sans-Serif" font-size="10.00">boost/exception/exception.hpp</text>
</g>
<!-- Node4&#45;&gt;Node40 -->
<g id="edge58" class="edge"><title>Node4&#45;&gt;Node40</title>
<path fill="none" stroke="midnightblue" d="M1770.92,-265.538C1975.88,-263.461 2744.52,-253.617 2985.29,-221 3000,-219.008 3015.89,-215.567 3029.85,-212.095"/>
<polygon fill="midnightblue" stroke="midnightblue" points="3030.82,-215.46 3039.63,-209.581 3029.07,-208.68 3030.82,-215.46"/>
</g>
<!-- Node41 -->
<g id="node41" class="node"><title>Node41</title>
<polygon fill="white" stroke="#bfbfbf" points="3162.29,-190.5 3162.29,-209.5 3294.29,-209.5 3294.29,-190.5 3162.29,-190.5"/>
<text text-anchor="middle" x="3228.29" y="-197.5" font-family="Helvetica,sans-Serif" font-size="10.00">boost/current_function.hpp</text>
</g>
<!-- Node4&#45;&gt;Node41 -->
<g id="edge59" class="edge"><title>Node4&#45;&gt;Node41</title>
<path fill="none" stroke="midnightblue" d="M1771.12,-265.94C1992.95,-265.443 2877.53,-260.945 3152.29,-221 3165.5,-219.079 3179.72,-215.705 3192.24,-212.269"/>
<polygon fill="midnightblue" stroke="midnightblue" points="3193.21,-215.633 3201.87,-209.527 3191.29,-208.901 3193.21,-215.633"/>
</g>
<!-- Node42 -->
<g id="node42" class="node"><title>Node42</title>
<polygon fill="white" stroke="#bfbfbf" points="3312.29,-185 3312.29,-215 3428.29,-215 3428.29,-185 3312.29,-185"/>
<text text-anchor="start" x="3320.29" y="-203" font-family="Helvetica,sans-Serif" font-size="10.00">boost/function/function</text>
<text text-anchor="middle" x="3370.29" y="-192" font-family="Helvetica,sans-Serif" font-size="10.00">_base.hpp</text>
</g>
<!-- Node4&#45;&gt;Node42 -->
<g id="edge60" class="edge"><title>Node4&#45;&gt;Node42</title>
<path fill="none" stroke="midnightblue" d="M1770.88,-266.338C2006.5,-267.641 2997.9,-270.05 3303.29,-221 3308.61,-220.146 3314.1,-218.987 3319.54,-217.654"/>
<polygon fill="midnightblue" stroke="midnightblue" points="3320.45,-221.033 3329.23,-215.097 3318.67,-214.265 3320.45,-221.033"/>
</g>
<!-- Node43 -->
<g id="node43" class="node"><title>Node43</title>
<polygon fill="white" stroke="#bfbfbf" points="3446.79,-190.5 3446.79,-209.5 3481.79,-209.5 3481.79,-190.5 3446.79,-190.5"/>
<text text-anchor="middle" x="3464.29" y="-197.5" font-family="Helvetica,sans-Serif" font-size="10.00">new</text>
</g>
<!-- Node4&#45;&gt;Node43 -->
<g id="edge63" class="edge"><title>Node4&#45;&gt;Node43</title>
<path fill="none" stroke="midnightblue" d="M1770.87,-265.532C2046.35,-262.875 3356.59,-248.811 3437.29,-221 3440.82,-219.785 3444.27,-217.929 3447.46,-215.828"/>
<polygon fill="midnightblue" stroke="midnightblue" points="3449.8,-218.445 3455.62,-209.589 3445.55,-212.885 3449.8,-218.445"/>
</g>
<!-- Node44 -->
<g id="node44" class="node"><title>Node44</title>
<polygon fill="white" stroke="#bfbfbf" points="3500.29,-190.5 3500.29,-209.5 3552.29,-209.5 3552.29,-190.5 3500.29,-190.5"/>
<text text-anchor="middle" x="3526.29" y="-197.5" font-family="Helvetica,sans-Serif" font-size="10.00">assert.h</text>
</g>
<!-- Node4&#45;&gt;Node44 -->
<g id="edge65" class="edge"><title>Node4&#45;&gt;Node44</title>
<path fill="none" stroke="midnightblue" d="M1770.87,-266.152C2042.35,-266.777 3320.79,-267.229 3490.29,-221 3495.51,-219.578 3500.78,-217.254 3505.62,-214.683"/>
<polygon fill="midnightblue" stroke="midnightblue" points="3507.42,-217.686 3514.27,-209.608 3503.88,-211.648 3507.42,-217.686"/>
</g>
<!-- Node45 -->
<g id="node45" class="node"><title>Node45</title>
<polygon fill="white" stroke="#bfbfbf" points="3570.29,-190.5 3570.29,-209.5 3662.29,-209.5 3662.29,-190.5 3570.29,-190.5"/>
<text text-anchor="middle" x="3616.29" y="-197.5" font-family="Helvetica,sans-Serif" font-size="10.00">boost/integer.hpp</text>
</g>
<!-- Node4&#45;&gt;Node45 -->
<g id="edge66" class="edge"><title>Node4&#45;&gt;Node45</title>
<path fill="none" stroke="midnightblue" d="M1770.95,-265.74C2048.76,-264.181 3381.34,-254.976 3561.29,-221 3570.26,-219.306 3579.71,-216.338 3588.2,-213.199"/>
<polygon fill="midnightblue" stroke="midnightblue" points="3589.6,-216.409 3597.63,-209.501 3587.04,-209.892 3589.6,-216.409"/>
</g>
<!-- Node46 -->
<g id="node46" class="node"><title>Node46</title>
<polygon fill="white" stroke="#bfbfbf" points="3680.79,-190.5 3680.79,-209.5 3793.79,-209.5 3793.79,-190.5 3680.79,-190.5"/>
<text text-anchor="middle" x="3737.29" y="-197.5" font-family="Helvetica,sans-Serif" font-size="10.00">boost/integer_fwd.hpp</text>
</g>
<!-- Node4&#45;&gt;Node46 -->
<g id="edge67" class="edge"><title>Node4&#45;&gt;Node46</title>
<path fill="none" stroke="midnightblue" d="M1771.1,-265.651C2058.94,-263.562 3479.03,-251.76 3671.29,-221 3682.4,-219.223 3694.25,-216.055 3704.8,-212.758"/>
<polygon fill="midnightblue" stroke="midnightblue" points="3706.03,-216.037 3714.44,-209.598 3703.85,-209.385 3706.03,-216.037"/>
</g>
<!-- Node47 -->
<g id="node47" class="node"><title>Node47</title>
<polygon fill="white" stroke="#bfbfbf" points="3811.79,-190.5 3811.79,-209.5 3856.79,-209.5 3856.79,-190.5 3811.79,-190.5"/>
<text text-anchor="middle" x="3834.29" y="-197.5" font-family="Helvetica,sans-Serif" font-size="10.00">climits</text>
</g>
<!-- Node4&#45;&gt;Node47 -->
<g id="edge68" class="edge"><title>Node4&#45;&gt;Node47</title>
<path fill="none" stroke="midnightblue" d="M1771.1,-265.665C2080.54,-263.527 3702.04,-250.927 3802.29,-221 3806.67,-219.693 3811.04,-217.613 3815.08,-215.279"/>
<polygon fill="midnightblue" stroke="midnightblue" points="3817.29,-218.013 3823.75,-209.615 3813.47,-212.152 3817.29,-218.013"/>
</g>
<!-- Node4&#45;&gt;Node48 -->
<g id="edge74" class="edge"><title>Node4&#45;&gt;Node48</title>
<path fill="none" stroke="midnightblue" d="M1770.98,-265.803C2087.43,-264.469 3785.88,-255.724 4014.29,-221 4019.84,-220.156 4025.57,-218.991 4031.25,-217.644"/>
<polygon fill="midnightblue" stroke="midnightblue" points="4032.54,-220.926 4041.36,-215.052 4030.8,-214.146 4032.54,-220.926"/>
</g>
<!-- Node4&#45;&gt;Node49 -->
<g id="edge75" class="edge"><title>Node4&#45;&gt;Node49</title>
<path fill="none" stroke="midnightblue" d="M1770.97,-265.839C2098.02,-264.698 3904.77,-256.8 4147.29,-221 4159.54,-219.192 4172.67,-215.897 4184.26,-212.496"/>
<polygon fill="midnightblue" stroke="midnightblue" points="4185.45,-215.791 4193.99,-209.515 4183.4,-209.098 4185.45,-215.791"/>
</g>
<!-- Node5&#45;&gt;Node2 -->
<g id="edge6" class="edge"><title>Node5&#45;&gt;Node2</title>
<path fill="none" stroke="midnightblue" d="M973.826,-130.203C1207.36,-121.556 2214.74,-84.2577 2472.2,-74.7251"/>
<polygon fill="midnightblue" stroke="midnightblue" points="2472.6,-78.2126 2482.47,-74.3449 2472.34,-71.2174 2472.6,-78.2126"/>
</g>
<!-- Node5&#45;&gt;Node3 -->
<g id="edge8" class="edge"><title>Node5&#45;&gt;Node3</title>
<path fill="none" stroke="midnightblue" d="M927.092,-123.298C931.128,-103.763 940.983,-56.0646 946.462,-29.5471"/>
<polygon fill="midnightblue" stroke="midnightblue" points="949.917,-30.1245 948.513,-19.6232 943.062,-28.7081 949.917,-30.1245"/>
</g>
<!-- Node5&#45;&gt;Node6 -->
<g id="edge7" class="edge"><title>Node5&#45;&gt;Node6</title>
<path fill="none" stroke="midnightblue" d="M974.148,-130.296C1095.81,-125.723 1409.83,-111.818 1511.29,-87 1513.8,-86.3863 1516.36,-85.6072 1518.9,-84.7298"/>
<polygon fill="midnightblue" stroke="midnightblue" points="1520.35,-87.9201 1528.37,-81.001 1517.79,-81.4064 1520.35,-87.9201"/>
</g>
<!-- Node5&#45;&gt;Node7 -->
<g id="edge9" class="edge"><title>Node5&#45;&gt;Node7</title>
<path fill="none" stroke="midnightblue" d="M876.557,-130.653C724.737,-126.243 261.623,-111.121 113.294,-87 108.073,-86.1509 102.627,-84.9893 97.2982,-83.6904"/>
<polygon fill="midnightblue" stroke="midnightblue" points="97.8464,-80.2161 87.286,-81.0695 96.0737,-86.9879 97.8464,-80.2161"/>
</g>
<!-- Node5&#45;&gt;Node8 -->
<g id="edge10" class="edge"><title>Node5&#45;&gt;Node8</title>
<path fill="none" stroke="midnightblue" d="M876.707,-130.532C767.909,-126.835 496.571,-115.333 271.294,-87 262.448,-85.8875 253.093,-84.4262 244.035,-82.8597"/>
<polygon fill="midnightblue" stroke="midnightblue" points="244.437,-79.3762 233.977,-81.0595 243.204,-86.2667 244.437,-79.3762"/>
</g>
<!-- Node5&#45;&gt;Node9 -->
<g id="edge11" class="edge"><title>Node5&#45;&gt;Node9</title>
<path fill="none" stroke="midnightblue" d="M876.541,-130.072C755.906,-125.005 445.95,-110.087 345.294,-87 342.457,-86.3493 339.551,-85.5193 336.674,-84.5867"/>
<polygon fill="midnightblue" stroke="midnightblue" points="337.75,-81.254 327.156,-81.1326 335.362,-87.8341 337.75,-81.254"/>
</g>
<!-- Node5&#45;&gt;Node10 -->
<g id="edge12" class="edge"><title>Node5&#45;&gt;Node10</title>
<path fill="none" stroke="midnightblue" d="M876.686,-132.587C785.046,-132.628 581.048,-127.63 415.294,-87 412.779,-86.3834 410.209,-85.6135 407.662,-84.752"/>
<polygon fill="midnightblue" stroke="midnightblue" points="408.697,-81.4008 398.106,-81.106 406.201,-87.9409 408.697,-81.4008"/>
</g>
<!-- Node5&#45;&gt;Node11 -->
<g id="edge13" class="edge"><title>Node5&#45;&gt;Node11</title>
<path fill="none" stroke="midnightblue" d="M876.728,-128.416C804.255,-122.632 663.393,-109.709 534.465,-87.0653"/>
<polygon fill="midnightblue" stroke="midnightblue" points="534.873,-83.5829 524.414,-85.2756 533.645,-90.4745 534.873,-83.5829"/>
</g>
<!-- Node5&#45;&gt;Node12 -->
<g id="edge14" class="edge"><title>Node5&#45;&gt;Node12</title>
<path fill="none" stroke="midnightblue" d="M973.905,-131.2C1057.15,-128.933 1231.88,-120.248 1375.29,-87 1378.36,-86.2888 1381.52,-85.3993 1384.64,-84.413"/>
<polygon fill="midnightblue" stroke="midnightblue" points="1386.06,-87.6237 1394.35,-81.0315 1383.76,-81.0125 1386.06,-87.6237"/>
</g>
<!-- Node5&#45;&gt;Node13 -->
<g id="edge15" class="edge"><title>Node5&#45;&gt;Node13</title>
<path fill="none" stroke="midnightblue" d="M876.579,-125.175C823.72,-117.507 736.641,-104.115 652.433,-87.1413"/>
<polygon fill="midnightblue" stroke="midnightblue" points="652.943,-83.6735 642.446,-85.1083 651.547,-90.5328 652.943,-83.6735"/>
</g>
<!-- Node5&#45;&gt;Node14 -->
<g id="edge16" class="edge"><title>Node5&#45;&gt;Node14</title>
<path fill="none" stroke="midnightblue" d="M894.49,-123.475C862.202,-114.54 810.654,-100.274 770.291,-89.1037"/>
<polygon fill="midnightblue" stroke="midnightblue" points="771.123,-85.7025 760.552,-86.4084 769.256,-92.4489 771.123,-85.7025"/>
</g>
<!-- Node5&#45;&gt;Node15 -->
<g id="edge17" class="edge"><title>Node5&#45;&gt;Node15</title>
<path fill="none" stroke="midnightblue" d="M906.053,-123.392C886.228,-114.47 854.474,-100.031 827.294,-87 826.305,-86.5255 825.297,-86.0391 824.281,-85.5454"/>
<polygon fill="midnightblue" stroke="midnightblue" points="825.633,-82.3099 815.116,-81.029 822.539,-88.5889 825.633,-82.3099"/>
</g>
<!-- Node5&#45;&gt;Node16 -->
<g id="edge18" class="edge"><title>Node5&#45;&gt;Node16</title>
<path fill="none" stroke="midnightblue" d="M918.704,-123.475C911.804,-114.55 900.792,-100.307 892.161,-89.1425"/>
<polygon fill="midnightblue" stroke="midnightblue" points="894.758,-86.7798 885.873,-81.0091 889.22,-91.0612 894.758,-86.7798"/>
</g>
<!-- Node5&#45;&gt;Node17 -->
<g id="edge19" class="edge"><title>Node5&#45;&gt;Node17</title>
<path fill="none" stroke="midnightblue" d="M936.327,-123.475C948.563,-114.02 968.523,-98.5961 983.287,-87.1871"/>
<polygon fill="midnightblue" stroke="midnightblue" points="985.51,-89.8931 991.283,-81.0091 981.23,-84.3541 985.51,-89.8931"/>
</g>
<!-- Node5&#45;&gt;Node18 -->
<g id="edge20" class="edge"><title>Node5&#45;&gt;Node18</title>
<path fill="none" stroke="midnightblue" d="M946.642,-123.475C971.98,-113.357 1014.43,-96.4046 1043.37,-84.8507"/>
<polygon fill="midnightblue" stroke="midnightblue" points="1045,-87.9681 1052.99,-81.0091 1042.4,-81.4673 1045,-87.9681"/>
</g>
<!-- Node5&#45;&gt;Node19 -->
<g id="edge21" class="edge"><title>Node5&#45;&gt;Node19</title>
<path fill="none" stroke="midnightblue" d="M973.809,-130.113C1086.44,-125.368 1362.85,-111.533 1452.29,-87 1454.02,-86.5266 1455.77,-85.9559 1457.5,-85.3182"/>
<polygon fill="midnightblue" stroke="midnightblue" points="1459.36,-88.3304 1467.14,-81.1465 1456.58,-81.9062 1459.36,-88.3304"/>
</g>
<!-- Node5&#45;&gt;Node20 -->
<g id="edge22" class="edge"><title>Node5&#45;&gt;Node20</title>
<path fill="none" stroke="midnightblue" d="M963.119,-123.475C1010.17,-112.871 1090.53,-94.7602 1141.71,-83.2244"/>
<polygon fill="midnightblue" stroke="midnightblue" points="1142.55,-86.6222 1151.54,-81.0091 1141.01,-79.7934 1142.55,-86.6222"/>
</g>
<!-- Node5&#45;&gt;Node21 -->
<g id="edge23" class="edge"><title>Node5&#45;&gt;Node21</title>
<path fill="none" stroke="midnightblue" d="M974.03,-127.502C1040.33,-120.94 1162.48,-107.273 1265.29,-87 1270.37,-85.9989 1275.68,-84.8 1280.9,-83.5262"/>
<polygon fill="midnightblue" stroke="midnightblue" points="1281.94,-86.8734 1290.77,-81.0169 1280.21,-80.0893 1281.94,-86.8734"/>
</g>
<!-- Node22&#45;&gt;Node2 -->
<g id="edge25" class="edge"><title>Node22&#45;&gt;Node2</title>
<path fill="none" stroke="midnightblue" d="M1338.02,-129.668C1533.22,-120.324 2258.41,-85.6102 2472.45,-75.3645"/>
<polygon fill="midnightblue" stroke="midnightblue" points="2472.73,-78.8552 2482.55,-74.881 2472.4,-71.8632 2472.73,-78.8552"/>
</g>
<!-- Node22&#45;&gt;Node12 -->
<g id="edge28" class="edge"><title>Node22&#45;&gt;Node12</title>
<path fill="none" stroke="midnightblue" d="M1307.2,-123.475C1328.18,-113.49 1363.14,-96.8476 1387.39,-85.3075"/>
<polygon fill="midnightblue" stroke="midnightblue" points="1388.89,-88.4673 1396.42,-81.0091 1385.88,-82.1468 1388.89,-88.4673"/>
</g>
<!-- Node22&#45;&gt;Node19 -->
<g id="edge26" class="edge"><title>Node22&#45;&gt;Node19</title>
<path fill="none" stroke="midnightblue" d="M1327.79,-123.455C1361.22,-115.544 1410.67,-102.659 1452.29,-87 1453.72,-86.4654 1455.16,-85.8879 1456.61,-85.282"/>
<polygon fill="midnightblue" stroke="midnightblue" points="1458.35,-88.3343 1466.02,-81.0241 1455.47,-81.9564 1458.35,-88.3343"/>
</g>
<!-- Node22&#45;&gt;Node23 -->
<g id="edge27" class="edge"><title>Node22&#45;&gt;Node23</title>
<path fill="none" stroke="midnightblue" d="M1338.05,-126.687C1395.85,-119.864 1494.86,-106.528 1578.29,-87 1582.13,-86.1025 1586.11,-85.0454 1590.05,-83.9176"/>
<polygon fill="midnightblue" stroke="midnightblue" points="1591.09,-87.2578 1599.66,-81.0192 1589.07,-80.556 1591.09,-87.2578"/>
</g>
<!-- Node25&#45;&gt;Node2 -->
<g id="edge34" class="edge"><title>Node25&#45;&gt;Node2</title>
<path fill="none" stroke="midnightblue" d="M3902.71,-190.481C3891.78,-186.323 3878.01,-181.657 3865.29,-179 3381.61,-77.9821 2780.81,-71.3208 2591.96,-71.9465"/>
<polygon fill="midnightblue" stroke="midnightblue" points="2591.94,-68.4464 2581.95,-71.9879 2591.97,-75.4463 2591.94,-68.4464"/>
</g>
<!-- Node25&#45;&gt;Node5 -->
<g id="edge35" class="edge"><title>Node25&#45;&gt;Node5</title>
<path fill="none" stroke="midnightblue" d="M3903.58,-190.448C3892.55,-186.112 3878.41,-181.29 3865.29,-179 3576.96,-128.656 1523.92,-149.303 1231.29,-143 1145.4,-141.15 1045.97,-138.048 984.351,-136.013"/>
<polygon fill="midnightblue" stroke="midnightblue" points="984.156,-132.504 974.046,-135.67 983.924,-139.5 984.156,-132.504"/>
</g>
<!-- Node25&#45;&gt;Node26 -->
<g id="edge36" class="edge"><title>Node25&#45;&gt;Node26</title>
<path fill="none" stroke="midnightblue" d="M3903.3,-190.404C3892.31,-186.113 3878.29,-181.348 3865.29,-179 3693.46,-147.964 2436.52,-136.632 2147.45,-134.423"/>
<polygon fill="midnightblue" stroke="midnightblue" points="2147.21,-130.921 2137.18,-134.345 2147.16,-137.921 2147.21,-130.921"/>
</g>
</g>
</svg>
