<?xml version="1.0" encoding="UTF-8" standalone="no"?>
<!DOCTYPE svg PUBLIC "-//W3C//DTD SVG 1.1//EN"
 "http://www.w3.org/Graphics/SVG/1.1/DTD/svg11.dtd">
<!-- Generated by graphviz version 2.38.0 (20140413.2041)
 -->
<!-- Title: boost/ui/menu.hpp Pages: 1 -->
<svg width="1246pt" height="330pt"
 viewBox="0.00 0.00 1246.00 330.00" xmlns="http://www.w3.org/2000/svg" xmlns:xlink="http://www.w3.org/1999/xlink">
<g id="graph0" class="graph" transform="scale(1 1) rotate(0) translate(4 326)">
<title>boost/ui/menu.hpp</title>
<polygon fill="white" stroke="none" points="-4,4 -4,-326 1242,-326 1242,4 -4,4"/>
<!-- Node1 -->
<g id="node1" class="node"><title>Node1</title>
<polygon fill="#bfbfbf" stroke="black" points="866,-302.5 866,-321.5 963,-321.5 963,-302.5 866,-302.5"/>
<text text-anchor="middle" x="914.5" y="-309.5" font-family="Helvetica,sans-Serif" font-size="10.00">boost/ui/menu.hpp</text>
</g>
<!-- Node2 -->
<g id="node2" class="node"><title>Node2</title>
<g id="a_node2"><a xlink:href="config_8hpp.html" target="_top" xlink:title="Configuration options. ">
<polygon fill="white" stroke="black" points="685,-62 685,-81 784,-81 784,-62 685,-62"/>
<text text-anchor="middle" x="734.5" y="-69" font-family="Helvetica,sans-Serif" font-size="10.00">boost/ui/config.hpp</text>
</a>
</g>
</g>
<!-- Node1&#45;&gt;Node2 -->
<g id="edge1" class="edge"><title>Node1&#45;&gt;Node2</title>
<path fill="none" stroke="midnightblue" d="M865.753,-308.889C802.616,-303.188 695.039,-282.688 647.5,-210 634.632,-190.325 662,-123.715 662.5,-123 673.589,-107.148 691.338,-94.6174 706.439,-86.0029"/>
<polygon fill="midnightblue" stroke="midnightblue" points="708.283,-88.9849 715.416,-81.1507 704.954,-82.8269 708.283,-88.9849"/>
</g>
<!-- Node4 -->
<g id="node4" class="node"><title>Node4</title>
<g id="a_node4"><a xlink:href="widget_8hpp.html" target="_top" xlink:title="Widget class. ">
<polygon fill="white" stroke="black" points="785,-246.5 785,-265.5 886,-265.5 886,-246.5 785,-246.5"/>
<text text-anchor="middle" x="835.5" y="-253.5" font-family="Helvetica,sans-Serif" font-size="10.00">boost/ui/widget.hpp</text>
</a>
</g>
</g>
<!-- Node1&#45;&gt;Node4 -->
<g id="edge3" class="edge"><title>Node1&#45;&gt;Node4</title>
<path fill="none" stroke="midnightblue" d="M901.807,-302.324C889.599,-293.979 870.922,-281.212 856.497,-271.352"/>
<polygon fill="midnightblue" stroke="midnightblue" points="858.392,-268.408 848.161,-265.655 854.442,-274.187 858.392,-268.408"/>
</g>
<!-- Node20 -->
<g id="node20" class="node"><title>Node20</title>
<polygon fill="white" stroke="#bfbfbf" points="1047.5,-179.5 1047.5,-209.5 1157.5,-209.5 1157.5,-179.5 1047.5,-179.5"/>
<text text-anchor="start" x="1055.5" y="-197.5" font-family="Helvetica,sans-Serif" font-size="10.00">boost/ui/detail/shared</text>
<text text-anchor="middle" x="1102.5" y="-186.5" font-family="Helvetica,sans-Serif" font-size="10.00">_count.hpp</text>
</g>
<!-- Node1&#45;&gt;Node20 -->
<g id="edge28" class="edge"><title>Node1&#45;&gt;Node20</title>
<path fill="none" stroke="midnightblue" d="M914.544,-302.108C915.106,-288.209 918.249,-261.342 933.5,-246 941.227,-238.227 993.171,-223.353 1037.46,-211.752"/>
<polygon fill="midnightblue" stroke="midnightblue" points="1038.55,-215.083 1047.35,-209.18 1036.79,-208.308 1038.55,-215.083"/>
</g>
<!-- Node21 -->
<g id="node21" class="node"><title>Node21</title>
<polygon fill="white" stroke="#bfbfbf" points="943,-246.5 943,-265.5 1060,-265.5 1060,-246.5 943,-246.5"/>
<text text-anchor="middle" x="1001.5" y="-253.5" font-family="Helvetica,sans-Serif" font-size="10.00">boost/noncopyable.hpp</text>
</g>
<!-- Node1&#45;&gt;Node21 -->
<g id="edge29" class="edge"><title>Node1&#45;&gt;Node21</title>
<path fill="none" stroke="midnightblue" d="M928.478,-302.324C942.05,-293.9 962.88,-280.971 978.825,-271.074"/>
<polygon fill="midnightblue" stroke="midnightblue" points="980.906,-273.902 987.557,-265.655 977.214,-267.954 980.906,-273.902"/>
</g>
<!-- Node22 -->
<g id="node22" class="node"><title>Node22</title>
<polygon fill="white" stroke="#bfbfbf" points="1078,-246.5 1078,-265.5 1191,-265.5 1191,-246.5 1078,-246.5"/>
<text text-anchor="middle" x="1134.5" y="-253.5" font-family="Helvetica,sans-Serif" font-size="10.00">boost/move/utility.hpp</text>
</g>
<!-- Node1&#45;&gt;Node22 -->
<g id="edge30" class="edge"><title>Node1&#45;&gt;Node22</title>
<path fill="none" stroke="midnightblue" d="M949.36,-302.444C987.416,-293.102 1048.46,-278.119 1089.96,-267.933"/>
<polygon fill="midnightblue" stroke="midnightblue" points="1090.93,-271.299 1099.8,-265.516 1089.26,-264.501 1090.93,-271.299"/>
</g>
<!-- Node3 -->
<g id="node3" class="node"><title>Node3</title>
<polygon fill="white" stroke="#bfbfbf" points="690,-0.5 690,-19.5 779,-19.5 779,-0.5 690,-0.5"/>
<text text-anchor="middle" x="734.5" y="-7.5" font-family="Helvetica,sans-Serif" font-size="10.00">boost/config.hpp</text>
</g>
<!-- Node2&#45;&gt;Node3 -->
<g id="edge2" class="edge"><title>Node2&#45;&gt;Node3</title>
<path fill="none" stroke="midnightblue" d="M734.5,-61.9751C734.5,-53.5803 734.5,-40.4806 734.5,-29.6631"/>
<polygon fill="midnightblue" stroke="midnightblue" points="738,-29.5091 734.5,-19.5091 731,-29.5091 738,-29.5091"/>
</g>
<!-- Node4&#45;&gt;Node2 -->
<g id="edge4" class="edge"><title>Node4&#45;&gt;Node2</title>
<path fill="none" stroke="midnightblue" d="M784.875,-248.876C738.788,-242.136 675.686,-229.585 660.5,-210 629.221,-169.66 683.99,-114.274 715.147,-87.8"/>
<polygon fill="midnightblue" stroke="midnightblue" points="717.735,-90.2021 723.218,-81.1362 713.278,-84.8044 717.735,-90.2021"/>
</g>
<!-- Node5 -->
<g id="node5" class="node"><title>Node5</title>
<g id="a_node5"><a xlink:href="coord_8hpp.html" target="_top" xlink:title="Coordinates classes. ">
<polygon fill="white" stroke="black" points="433,-123.5 433,-142.5 530,-142.5 530,-123.5 433,-123.5"/>
<text text-anchor="middle" x="481.5" y="-130.5" font-family="Helvetica,sans-Serif" font-size="10.00">boost/ui/coord.hpp</text>
</a>
</g>
</g>
<!-- Node4&#45;&gt;Node5 -->
<g id="edge5" class="edge"><title>Node4&#45;&gt;Node5</title>
<path fill="none" stroke="midnightblue" d="M784.859,-247.924C742.078,-241.036 679.626,-228.821 627.5,-210 581.378,-193.347 531.487,-164.87 503.604,-147.904"/>
<polygon fill="midnightblue" stroke="midnightblue" points="505.379,-144.887 495.029,-142.626 501.71,-150.849 505.379,-144.887"/>
</g>
<!-- Node11 -->
<g id="node11" class="node"><title>Node11</title>
<g id="a_node11"><a xlink:href="string_8hpp.html" target="_top" xlink:title="String class and operations. ">
<polygon fill="white" stroke="black" points="1076,-123.5 1076,-142.5 1173,-142.5 1173,-123.5 1076,-123.5"/>
<text text-anchor="middle" x="1124.5" y="-130.5" font-family="Helvetica,sans-Serif" font-size="10.00">boost/ui/string.hpp</text>
</a>
</g>
</g>
<!-- Node4&#45;&gt;Node11 -->
<g id="edge12" class="edge"><title>Node4&#45;&gt;Node11</title>
<path fill="none" stroke="midnightblue" d="M886.221,-246.587C919.648,-239.739 963.695,-228.174 999.5,-210 1019.24,-199.978 1019.94,-191.076 1038.5,-179 1057.04,-166.939 1079.17,-155.417 1096.34,-147.052"/>
<polygon fill="midnightblue" stroke="midnightblue" points="1098.31,-149.99 1105.81,-142.511 1095.28,-143.678 1098.31,-149.99"/>
</g>
<!-- Node15 -->
<g id="node15" class="node"><title>Node15</title>
<g id="a_node15"><a xlink:href="event_8hpp.html" target="_top" xlink:title="Event classes. ">
<polygon fill="white" stroke="black" points="787,-185 787,-204 884,-204 884,-185 787,-185"/>
<text text-anchor="middle" x="835.5" y="-192" font-family="Helvetica,sans-Serif" font-size="10.00">boost/ui/event.hpp</text>
</a>
</g>
</g>
<!-- Node4&#45;&gt;Node15 -->
<g id="edge17" class="edge"><title>Node4&#45;&gt;Node15</title>
<path fill="none" stroke="midnightblue" d="M835.5,-246.475C835.5,-238.08 835.5,-224.981 835.5,-214.163"/>
<polygon fill="midnightblue" stroke="midnightblue" points="839,-214.009 835.5,-204.009 832,-214.009 839,-214.009"/>
</g>
<!-- Node17 -->
<g id="node17" class="node"><title>Node17</title>
<g id="a_node17"><a xlink:href="font_8hpp.html" target="_top" xlink:title="Font class. ">
<polygon fill="white" stroke="black" points="902,-185 902,-204 991,-204 991,-185 902,-185"/>
<text text-anchor="middle" x="946.5" y="-192" font-family="Helvetica,sans-Serif" font-size="10.00">boost/ui/font.hpp</text>
</a>
</g>
</g>
<!-- Node4&#45;&gt;Node17 -->
<g id="edge21" class="edge"><title>Node4&#45;&gt;Node17</title>
<path fill="none" stroke="midnightblue" d="M851.404,-246.475C869.785,-236.622 900.256,-220.288 921.745,-208.77"/>
<polygon fill="midnightblue" stroke="midnightblue" points="923.466,-211.818 930.626,-204.009 920.159,-205.649 923.466,-211.818"/>
</g>
<!-- Node19 -->
<g id="node19" class="node"><title>Node19</title>
<g id="a_node19"><a xlink:href="layout_8hpp.html" target="_top" xlink:title="Layout classes. ">
<polygon fill="white" stroke="black" points="670,-185 670,-204 769,-204 769,-185 670,-185"/>
<text text-anchor="middle" x="719.5" y="-192" font-family="Helvetica,sans-Serif" font-size="10.00">boost/ui/layout.hpp</text>
</a>
</g>
</g>
<!-- Node4&#45;&gt;Node19 -->
<g id="edge25" class="edge"><title>Node4&#45;&gt;Node19</title>
<path fill="none" stroke="midnightblue" d="M818.88,-246.475C799.585,-236.578 767.541,-220.142 745.069,-208.615"/>
<polygon fill="midnightblue" stroke="midnightblue" points="746.584,-205.459 736.089,-204.009 743.39,-211.687 746.584,-205.459"/>
</g>
<!-- Node4&#45;&gt;Node20 -->
<g id="edge27" class="edge"><title>Node4&#45;&gt;Node20</title>
<path fill="none" stroke="midnightblue" d="M873.755,-246.475C916.337,-236.986 985.897,-221.485 1037.15,-210.064"/>
<polygon fill="midnightblue" stroke="midnightblue" points="1038.14,-213.428 1047.14,-207.837 1036.62,-206.596 1038.14,-213.428"/>
</g>
<!-- Node5&#45;&gt;Node2 -->
<g id="edge6" class="edge"><title>Node5&#45;&gt;Node2</title>
<path fill="none" stroke="midnightblue" d="M519.088,-123.434C558.195,-114.486 621.189,-99.9721 675.5,-87 680.251,-85.8651 685.214,-84.6663 690.157,-83.4639"/>
<polygon fill="midnightblue" stroke="midnightblue" points="691.317,-86.7836 700.2,-81.0098 689.655,-79.9837 691.317,-86.7836"/>
</g>
<!-- Node6 -->
<g id="node6" class="node"><title>Node6</title>
<polygon fill="white" stroke="#bfbfbf" points="0,-62 0,-81 103,-81 103,-62 0,-62"/>
<text text-anchor="middle" x="51.5" y="-69" font-family="Helvetica,sans-Serif" font-size="10.00">boost/geometry.hpp</text>
</g>
<!-- Node5&#45;&gt;Node6 -->
<g id="edge7" class="edge"><title>Node5&#45;&gt;Node6</title>
<path fill="none" stroke="midnightblue" d="M432.745,-127.889C361.717,-121.489 225.796,-107.689 111.5,-87 105.69,-85.9484 99.6022,-84.6778 93.6248,-83.3313"/>
<polygon fill="midnightblue" stroke="midnightblue" points="94.2726,-79.8884 83.7382,-81.0186 92.6781,-86.7044 94.2726,-79.8884"/>
</g>
<!-- Node7 -->
<g id="node7" class="node"><title>Node7</title>
<polygon fill="white" stroke="#bfbfbf" points="121,-56.5 121,-86.5 256,-86.5 256,-56.5 121,-56.5"/>
<text text-anchor="start" x="129" y="-74.5" font-family="Helvetica,sans-Serif" font-size="10.00">boost/geometry/geometries</text>
<text text-anchor="middle" x="188.5" y="-63.5" font-family="Helvetica,sans-Serif" font-size="10.00">/point_xy.hpp</text>
</g>
<!-- Node5&#45;&gt;Node7 -->
<g id="edge8" class="edge"><title>Node5&#45;&gt;Node7</title>
<path fill="none" stroke="midnightblue" d="M439.52,-123.475C394.365,-114.305 321.566,-99.522 265.966,-88.2312"/>
<polygon fill="midnightblue" stroke="midnightblue" points="266.644,-84.7974 256.147,-86.2372 265.25,-91.6574 266.644,-84.7974"/>
</g>
<!-- Node8 -->
<g id="node8" class="node"><title>Node8</title>
<polygon fill="white" stroke="#bfbfbf" points="274,-56.5 274,-86.5 409,-86.5 409,-56.5 274,-56.5"/>
<text text-anchor="start" x="282" y="-74.5" font-family="Helvetica,sans-Serif" font-size="10.00">boost/geometry/geometries</text>
<text text-anchor="middle" x="341.5" y="-63.5" font-family="Helvetica,sans-Serif" font-size="10.00">/box.hpp</text>
</g>
<!-- Node5&#45;&gt;Node8 -->
<g id="edge9" class="edge"><title>Node5&#45;&gt;Node8</title>
<path fill="none" stroke="midnightblue" d="M461.441,-123.475C441.329,-114.927 409.738,-101.501 384.026,-90.5734"/>
<polygon fill="midnightblue" stroke="midnightblue" points="385.068,-87.2133 374.495,-86.523 382.33,-93.6556 385.068,-87.2133"/>
</g>
<!-- Node9 -->
<g id="node9" class="node"><title>Node9</title>
<polygon fill="white" stroke="#bfbfbf" points="427,-56.5 427,-86.5 528,-86.5 528,-56.5 427,-56.5"/>
<text text-anchor="start" x="435" y="-74.5" font-family="Helvetica,sans-Serif" font-size="10.00">boost/polygon/point</text>
<text text-anchor="middle" x="477.5" y="-63.5" font-family="Helvetica,sans-Serif" font-size="10.00">_data.hpp</text>
</g>
<!-- Node5&#45;&gt;Node9 -->
<g id="edge10" class="edge"><title>Node5&#45;&gt;Node9</title>
<path fill="none" stroke="midnightblue" d="M480.927,-123.475C480.456,-116.471 479.765,-106.192 479.127,-96.6956"/>
<polygon fill="midnightblue" stroke="midnightblue" points="482.606,-96.2657 478.443,-86.523 475.621,-96.7352 482.606,-96.2657"/>
</g>
<!-- Node10 -->
<g id="node10" class="node"><title>Node10</title>
<polygon fill="white" stroke="#bfbfbf" points="546.5,-56.5 546.5,-86.5 666.5,-86.5 666.5,-56.5 546.5,-56.5"/>
<text text-anchor="start" x="554.5" y="-74.5" font-family="Helvetica,sans-Serif" font-size="10.00">boost/polygon/rectangle</text>
<text text-anchor="middle" x="606.5" y="-63.5" font-family="Helvetica,sans-Serif" font-size="10.00">_data.hpp</text>
</g>
<!-- Node5&#45;&gt;Node10 -->
<g id="edge11" class="edge"><title>Node5&#45;&gt;Node10</title>
<path fill="none" stroke="midnightblue" d="M499.409,-123.475C517.209,-115.002 545.077,-101.737 567.923,-90.8628"/>
<polygon fill="midnightblue" stroke="midnightblue" points="569.515,-93.9812 577.04,-86.523 566.506,-87.6607 569.515,-93.9812"/>
</g>
<!-- Node11&#45;&gt;Node2 -->
<g id="edge13" class="edge"><title>Node11&#45;&gt;Node2</title>
<path fill="none" stroke="midnightblue" d="M1075.89,-124.585C1004.47,-113.688 871.292,-93.3695 794.077,-81.5893"/>
<polygon fill="midnightblue" stroke="midnightblue" points="794.439,-78.1042 784.026,-80.0559 793.384,-85.0241 794.439,-78.1042"/>
</g>
<!-- Node12 -->
<g id="node12" class="node"><title>Node12</title>
<polygon fill="white" stroke="#bfbfbf" points="1029,-62 1029,-81 1070,-81 1070,-62 1029,-62"/>
<text text-anchor="middle" x="1049.5" y="-69" font-family="Helvetica,sans-Serif" font-size="10.00">string</text>
</g>
<!-- Node11&#45;&gt;Node12 -->
<g id="edge14" class="edge"><title>Node11&#45;&gt;Node12</title>
<path fill="none" stroke="midnightblue" d="M1113.75,-123.475C1101.95,-114.108 1082.76,-98.8839 1068.42,-87.5081"/>
<polygon fill="midnightblue" stroke="midnightblue" points="1070.24,-84.4822 1060.23,-81.0091 1065.88,-89.9661 1070.24,-84.4822"/>
</g>
<!-- Node13 -->
<g id="node13" class="node"><title>Node13</title>
<polygon fill="white" stroke="#bfbfbf" points="1088,-62 1088,-81 1161,-81 1161,-62 1088,-62"/>
<text text-anchor="middle" x="1124.5" y="-69" font-family="Helvetica,sans-Serif" font-size="10.00">initializer_list</text>
</g>
<!-- Node11&#45;&gt;Node13 -->
<g id="edge15" class="edge"><title>Node11&#45;&gt;Node13</title>
<path fill="none" stroke="midnightblue" d="M1124.5,-123.475C1124.5,-115.08 1124.5,-101.981 1124.5,-91.1631"/>
<polygon fill="midnightblue" stroke="midnightblue" points="1128,-91.0091 1124.5,-81.0091 1121,-91.0091 1128,-91.0091"/>
</g>
<!-- Node14 -->
<g id="node14" class="node"><title>Node14</title>
<polygon fill="white" stroke="#bfbfbf" points="1179,-62 1179,-81 1238,-81 1238,-62 1179,-62"/>
<text text-anchor="middle" x="1208.5" y="-69" font-family="Helvetica,sans-Serif" font-size="10.00">functional</text>
</g>
<!-- Node11&#45;&gt;Node14 -->
<g id="edge16" class="edge"><title>Node11&#45;&gt;Node14</title>
<path fill="none" stroke="midnightblue" d="M1136.54,-123.475C1150.01,-113.931 1172.07,-98.3073 1188.22,-86.8683"/>
<polygon fill="midnightblue" stroke="midnightblue" points="1190.35,-89.6454 1196.49,-81.0091 1186.3,-83.9332 1190.35,-89.6454"/>
</g>
<!-- Node15&#45;&gt;Node2 -->
<g id="edge18" class="edge"><title>Node15&#45;&gt;Node2</title>
<path fill="none" stroke="midnightblue" d="M809.7,-184.898C790.178,-177.046 764.285,-163.504 749.5,-143 738.652,-127.956 735.337,-106.699 734.469,-91.4673"/>
<polygon fill="midnightblue" stroke="midnightblue" points="737.961,-91.1002 734.198,-81.1962 730.963,-91.2851 737.961,-91.1002"/>
</g>
<!-- Node15&#45;&gt;Node5 -->
<g id="edge19" class="edge"><title>Node15&#45;&gt;Node5</title>
<path fill="none" stroke="midnightblue" d="M803.713,-184.981C795.232,-182.865 786.048,-180.714 777.5,-179 695.719,-162.599 600.162,-149.078 540.231,-141.271"/>
<polygon fill="midnightblue" stroke="midnightblue" points="540.564,-137.785 530.197,-139.974 539.666,-144.727 540.564,-137.785"/>
</g>
<!-- Node16 -->
<g id="node16" class="node"><title>Node16</title>
<polygon fill="white" stroke="#bfbfbf" points="759,-123.5 759,-142.5 856,-142.5 856,-123.5 759,-123.5"/>
<text text-anchor="middle" x="807.5" y="-130.5" font-family="Helvetica,sans-Serif" font-size="10.00">boost/function.hpp</text>
</g>
<!-- Node15&#45;&gt;Node16 -->
<g id="edge20" class="edge"><title>Node15&#45;&gt;Node16</title>
<path fill="none" stroke="midnightblue" d="M831.488,-184.975C827.413,-176.315 820.982,-162.649 815.804,-151.645"/>
<polygon fill="midnightblue" stroke="midnightblue" points="818.929,-150.067 811.504,-142.509 812.595,-153.048 818.929,-150.067"/>
</g>
<!-- Node17&#45;&gt;Node2 -->
<g id="edge22" class="edge"><title>Node17&#45;&gt;Node2</title>
<path fill="none" stroke="midnightblue" d="M970.431,-184.922C1001.37,-172.55 1048.88,-148.38 1027.5,-123 998.259,-88.2883 870.932,-77.4361 794.074,-74.0432"/>
<polygon fill="midnightblue" stroke="midnightblue" points="794.175,-70.5445 784.04,-73.6298 793.887,-77.5386 794.175,-70.5445"/>
</g>
<!-- Node17&#45;&gt;Node11 -->
<g id="edge23" class="edge"><title>Node17&#45;&gt;Node11</title>
<path fill="none" stroke="midnightblue" d="M972.003,-184.975C1002.8,-174.68 1054.77,-157.31 1089.35,-145.75"/>
<polygon fill="midnightblue" stroke="midnightblue" points="1090.67,-148.999 1099.04,-142.509 1088.45,-142.36 1090.67,-148.999"/>
</g>
<!-- Node18 -->
<g id="node18" class="node"><title>Node18</title>
<polygon fill="white" stroke="#bfbfbf" points="874,-123.5 874,-142.5 1019,-142.5 1019,-123.5 874,-123.5"/>
<text text-anchor="middle" x="946.5" y="-130.5" font-family="Helvetica,sans-Serif" font-size="10.00">boost/core/scoped_enum.hpp</text>
</g>
<!-- Node17&#45;&gt;Node18 -->
<g id="edge24" class="edge"><title>Node17&#45;&gt;Node18</title>
<path fill="none" stroke="midnightblue" d="M946.5,-184.975C946.5,-176.58 946.5,-163.481 946.5,-152.663"/>
<polygon fill="midnightblue" stroke="midnightblue" points="950,-152.509 946.5,-142.509 943,-152.509 950,-152.509"/>
</g>
<!-- Node19&#45;&gt;Node2 -->
<g id="edge26" class="edge"><title>Node19&#45;&gt;Node2</title>
<path fill="none" stroke="midnightblue" d="M717.941,-184.741C715.82,-171.335 712.702,-144.97 716.5,-123 718.412,-111.938 722.518,-100.09 726.326,-90.6524"/>
<polygon fill="midnightblue" stroke="midnightblue" points="729.658,-91.7622 730.366,-81.191 723.22,-89.0133 729.658,-91.7622"/>
</g>
</g>
</svg>
