<?xml version="1.0" encoding="UTF-8" standalone="no"?>
<!DOCTYPE svg PUBLIC "-//W3C//DTD SVG 1.1//EN"
 "http://www.w3.org/Graphics/SVG/1.1/DTD/svg11.dtd">
<!-- Generated by graphviz version 2.43.0 (0)
 -->
<!-- Title: boost/ui/menu.hpp Pages: 1 -->
<svg width="1260pt" height="330pt"
 viewBox="0.00 0.00 1259.50 330.00" xmlns="http://www.w3.org/2000/svg" xmlns:xlink="http://www.w3.org/1999/xlink">
<g id="graph0" class="graph" transform="scale(1 1) rotate(0) translate(4 326)">
<title>boost/ui/menu.hpp</title>
<polygon fill="white" stroke="transparent" points="-4,4 -4,-326 1255.5,-326 1255.5,4 -4,4"/>
<!-- Node1 -->
<g id="node1" class="node">
<title>Node1</title>
<g id="a_node1"><a xlink:title="Menu classes.">
<polygon fill="#bfbfbf" stroke="black" points="722.5,-302.5 722.5,-321.5 829.5,-321.5 829.5,-302.5 722.5,-302.5"/>
<text text-anchor="middle" x="776" y="-309.5" font-family="Helvetica,sans-Serif" font-size="10.00">boost/ui/menu.hpp</text>
</a>
</g>
</g>
<!-- Node2 -->
<g id="node2" class="node">
<title>Node2</title>
<g id="a_node2"><a xlink:href="config_8hpp.html" target="_top" xlink:title="Configuration options.">
<polygon fill="white" stroke="black" points="386,-62 386,-81 496,-81 496,-62 386,-62"/>
<text text-anchor="middle" x="441" y="-69" font-family="Helvetica,sans-Serif" font-size="10.00">boost/ui/config.hpp</text>
</a>
</g>
</g>
<!-- Node1&#45;&gt;Node2 -->
<g id="edge1" class="edge">
<title>Node1&#45;&gt;Node2</title>
<path fill="none" stroke="midnightblue" d="M722.2,-304.52C590.01,-287.24 256.2,-235.06 204,-143 199.62,-135.27 198.41,-129.91 204,-123 225.25,-96.75 313.07,-83.56 375.6,-77.38"/>
<polygon fill="midnightblue" stroke="midnightblue" points="376.17,-80.84 385.79,-76.41 375.51,-73.87 376.17,-80.84"/>
</g>
<!-- Node4 -->
<g id="node4" class="node">
<title>Node4</title>
<g id="a_node4"><a xlink:href="widget_8hpp.html" target="_top" xlink:title="Widget class.">
<polygon fill="white" stroke="black" points="591.5,-246.5 591.5,-265.5 704.5,-265.5 704.5,-246.5 591.5,-246.5"/>
<text text-anchor="middle" x="648" y="-253.5" font-family="Helvetica,sans-Serif" font-size="10.00">boost/ui/widget.hpp</text>
</a>
</g>
</g>
<!-- Node1&#45;&gt;Node4 -->
<g id="edge3" class="edge">
<title>Node1&#45;&gt;Node4</title>
<path fill="none" stroke="midnightblue" d="M755.72,-302.44C734.65,-293.56 701.48,-279.56 677.51,-269.45"/>
<polygon fill="midnightblue" stroke="midnightblue" points="678.76,-266.18 668.19,-265.52 676.04,-272.63 678.76,-266.18"/>
</g>
<!-- Node20 -->
<g id="node20" class="node">
<title>Node20</title>
<g id="a_node20"><a xlink:title=" ">
<polygon fill="white" stroke="#bfbfbf" points="758,-179.5 758,-209.5 880,-209.5 880,-179.5 758,-179.5"/>
<text text-anchor="start" x="766" y="-197.5" font-family="Helvetica,sans-Serif" font-size="10.00">boost/ui/detail/shared</text>
<text text-anchor="middle" x="819" y="-186.5" font-family="Helvetica,sans-Serif" font-size="10.00">_count.hpp</text>
</a>
</g>
</g>
<!-- Node1&#45;&gt;Node20 -->
<g id="edge29" class="edge">
<title>Node1&#45;&gt;Node20</title>
<path fill="none" stroke="midnightblue" d="M779.24,-302.16C783.84,-289.65 792.52,-266.06 800,-246 803.26,-237.26 806.85,-227.69 810.03,-219.24"/>
<polygon fill="midnightblue" stroke="midnightblue" points="813.4,-220.23 813.65,-209.64 806.85,-217.76 813.4,-220.23"/>
</g>
<!-- Node21 -->
<g id="node21" class="node">
<title>Node21</title>
<g id="a_node21"><a xlink:title=" ">
<polygon fill="white" stroke="#bfbfbf" points="898,-185 898,-204 1036,-204 1036,-185 898,-185"/>
<text text-anchor="middle" x="967" y="-192" font-family="Helvetica,sans-Serif" font-size="10.00">boost/ui/detail/event.hpp</text>
</a>
</g>
</g>
<!-- Node1&#45;&gt;Node21 -->
<g id="edge30" class="edge">
<title>Node1&#45;&gt;Node21</title>
<path fill="none" stroke="midnightblue" d="M781.6,-302.2C790.78,-288.42 810.3,-261.72 833,-246 859.58,-227.6 893.73,-214.86 920.9,-206.78"/>
<polygon fill="midnightblue" stroke="midnightblue" points="921.92,-210.13 930.57,-204.01 919.99,-203.4 921.92,-210.13"/>
</g>
<!-- Node22 -->
<g id="node22" class="node">
<title>Node22</title>
<g id="a_node22"><a xlink:title=" ">
<polygon fill="white" stroke="#bfbfbf" points="842,-246.5 842,-265.5 972,-265.5 972,-246.5 842,-246.5"/>
<text text-anchor="middle" x="907" y="-253.5" font-family="Helvetica,sans-Serif" font-size="10.00">boost/noncopyable.hpp</text>
</a>
</g>
</g>
<!-- Node1&#45;&gt;Node22 -->
<g id="edge31" class="edge">
<title>Node1&#45;&gt;Node22</title>
<path fill="none" stroke="midnightblue" d="M796.76,-302.44C818.32,-293.56 852.26,-279.56 876.79,-269.45"/>
<polygon fill="midnightblue" stroke="midnightblue" points="878.43,-272.56 886.34,-265.52 875.76,-266.09 878.43,-272.56"/>
</g>
<!-- Node3 -->
<g id="node3" class="node">
<title>Node3</title>
<g id="a_node3"><a xlink:title=" ">
<polygon fill="white" stroke="#bfbfbf" points="392,-0.5 392,-19.5 490,-19.5 490,-0.5 392,-0.5"/>
<text text-anchor="middle" x="441" y="-7.5" font-family="Helvetica,sans-Serif" font-size="10.00">boost/config.hpp</text>
</a>
</g>
</g>
<!-- Node2&#45;&gt;Node3 -->
<g id="edge2" class="edge">
<title>Node2&#45;&gt;Node3</title>
<path fill="none" stroke="midnightblue" d="M441,-61.98C441,-53.58 441,-40.48 441,-29.66"/>
<polygon fill="midnightblue" stroke="midnightblue" points="444.5,-29.51 441,-19.51 437.5,-29.51 444.5,-29.51"/>
</g>
<!-- Node4&#45;&gt;Node2 -->
<g id="edge4" class="edge">
<title>Node4&#45;&gt;Node2</title>
<path fill="none" stroke="midnightblue" d="M631.35,-246.46C617.4,-238.59 597.78,-225.77 585,-210 558.43,-177.22 576.34,-153.32 547,-123 529.42,-104.83 504,-92.42 482.46,-84.44"/>
<polygon fill="midnightblue" stroke="midnightblue" points="483.47,-81.09 472.88,-81.09 481.16,-87.7 483.47,-81.09"/>
</g>
<!-- Node5 -->
<g id="node5" class="node">
<title>Node5</title>
<g id="a_node5"><a xlink:href="coord_8hpp.html" target="_top" xlink:title="Coordinates classes.">
<polygon fill="white" stroke="black" points="757.5,-123.5 757.5,-142.5 864.5,-142.5 864.5,-123.5 757.5,-123.5"/>
<text text-anchor="middle" x="811" y="-130.5" font-family="Helvetica,sans-Serif" font-size="10.00">boost/ui/coord.hpp</text>
</a>
</g>
</g>
<!-- Node4&#45;&gt;Node5 -->
<g id="edge5" class="edge">
<title>Node4&#45;&gt;Node5</title>
<path fill="none" stroke="midnightblue" d="M660.47,-246.19C673.07,-237.23 693.06,-222.87 710,-210 727.63,-196.6 731.37,-192.4 749,-179 762.64,-168.64 778.24,-157.32 790.38,-148.62"/>
<polygon fill="midnightblue" stroke="midnightblue" points="792.42,-151.46 798.53,-142.81 788.36,-145.77 792.42,-151.46"/>
</g>
<!-- Node11 -->
<g id="node11" class="node">
<title>Node11</title>
<g id="a_node11"><a xlink:href="string_8hpp.html" target="_top" xlink:title="String class and operations.">
<polygon fill="white" stroke="black" points="50.5,-123.5 50.5,-142.5 157.5,-142.5 157.5,-123.5 50.5,-123.5"/>
<text text-anchor="middle" x="104" y="-130.5" font-family="Helvetica,sans-Serif" font-size="10.00">boost/ui/string.hpp</text>
</a>
</g>
</g>
<!-- Node4&#45;&gt;Node11 -->
<g id="edge12" class="edge">
<title>Node4&#45;&gt;Node11</title>
<path fill="none" stroke="midnightblue" d="M591.23,-250.94C524.58,-245.35 411.07,-233.21 316,-210 248.77,-193.59 173.16,-163.54 132.9,-146.56"/>
<polygon fill="midnightblue" stroke="midnightblue" points="134.02,-143.23 123.45,-142.54 131.28,-149.67 134.02,-143.23"/>
</g>
<!-- Node15 -->
<g id="node15" class="node">
<title>Node15</title>
<g id="a_node15"><a xlink:href="event_8hpp.html" target="_top" xlink:title="Event classes.">
<polygon fill="white" stroke="black" points="594.5,-185 594.5,-204 701.5,-204 701.5,-185 594.5,-185"/>
<text text-anchor="middle" x="648" y="-192" font-family="Helvetica,sans-Serif" font-size="10.00">boost/ui/event.hpp</text>
</a>
</g>
</g>
<!-- Node4&#45;&gt;Node15 -->
<g id="edge17" class="edge">
<title>Node4&#45;&gt;Node15</title>
<path fill="none" stroke="midnightblue" d="M648,-246.48C648,-238.08 648,-224.98 648,-214.16"/>
<polygon fill="midnightblue" stroke="midnightblue" points="651.5,-214.01 648,-204.01 644.5,-214.01 651.5,-214.01"/>
</g>
<!-- Node17 -->
<g id="node17" class="node">
<title>Node17</title>
<g id="a_node17"><a xlink:href="font_8hpp.html" target="_top" xlink:title="Font class.">
<polygon fill="white" stroke="black" points="325.5,-185 325.5,-204 424.5,-204 424.5,-185 325.5,-185"/>
<text text-anchor="middle" x="375" y="-192" font-family="Helvetica,sans-Serif" font-size="10.00">boost/ui/font.hpp</text>
</a>
</g>
</g>
<!-- Node4&#45;&gt;Node17 -->
<g id="edge21" class="edge">
<title>Node4&#45;&gt;Node17</title>
<path fill="none" stroke="midnightblue" d="M608.89,-246.48C560.13,-235.85 476.79,-217.68 423.88,-206.15"/>
<polygon fill="midnightblue" stroke="midnightblue" points="424.56,-202.72 414.04,-204.01 423.07,-209.56 424.56,-202.72"/>
</g>
<!-- Node19 -->
<g id="node19" class="node">
<title>Node19</title>
<g id="a_node19"><a xlink:href="layout_8hpp.html" target="_top" xlink:title="Layout classes.">
<polygon fill="white" stroke="black" points="428,-123.5 428,-142.5 538,-142.5 538,-123.5 428,-123.5"/>
<text text-anchor="middle" x="483" y="-130.5" font-family="Helvetica,sans-Serif" font-size="10.00">boost/ui/layout.hpp</text>
</a>
</g>
</g>
<!-- Node4&#45;&gt;Node19 -->
<g id="edge25" class="edge">
<title>Node4&#45;&gt;Node19</title>
<path fill="none" stroke="midnightblue" d="M622.86,-246.37C602.58,-238.69 573.92,-226.18 552,-210 529.02,-193.03 507.76,-167.51 495.08,-150.8"/>
<polygon fill="midnightblue" stroke="midnightblue" points="497.73,-148.49 488.96,-142.54 492.1,-152.66 497.73,-148.49"/>
</g>
<!-- Node4&#45;&gt;Node20 -->
<g id="edge27" class="edge">
<title>Node4&#45;&gt;Node20</title>
<path fill="none" stroke="midnightblue" d="M672.5,-246.48C697.61,-237.74 737.36,-223.91 769.12,-212.86"/>
<polygon fill="midnightblue" stroke="midnightblue" points="770.4,-216.11 778.7,-209.52 768.1,-209.5 770.4,-216.11"/>
</g>
<!-- Node4&#45;&gt;Node21 -->
<g id="edge28" class="edge">
<title>Node4&#45;&gt;Node21</title>
<path fill="none" stroke="midnightblue" d="M693.7,-246.48C751.15,-235.76 849.68,-217.38 911.42,-205.87"/>
<polygon fill="midnightblue" stroke="midnightblue" points="912.19,-209.28 921.38,-204.01 910.91,-202.4 912.19,-209.28"/>
</g>
<!-- Node5&#45;&gt;Node2 -->
<g id="edge6" class="edge">
<title>Node5&#45;&gt;Node2</title>
<path fill="none" stroke="midnightblue" d="M757.43,-124.35C676.34,-112.74 529.25,-91.52 505,-87 499.04,-85.89 492.8,-84.61 486.65,-83.29"/>
<polygon fill="midnightblue" stroke="midnightblue" points="486.96,-79.78 476.44,-81.04 485.46,-86.61 486.96,-79.78"/>
</g>
<!-- Node6 -->
<g id="node6" class="node">
<title>Node6</title>
<g id="a_node6"><a xlink:title=" ">
<polygon fill="white" stroke="#bfbfbf" points="666.5,-62 666.5,-81 779.5,-81 779.5,-62 666.5,-62"/>
<text text-anchor="middle" x="723" y="-69" font-family="Helvetica,sans-Serif" font-size="10.00">boost/geometry.hpp</text>
</a>
</g>
</g>
<!-- Node5&#45;&gt;Node6 -->
<g id="edge7" class="edge">
<title>Node5&#45;&gt;Node6</title>
<path fill="none" stroke="midnightblue" d="M798.39,-123.48C784.28,-113.93 761.17,-98.31 744.25,-86.87"/>
<polygon fill="midnightblue" stroke="midnightblue" points="745.83,-83.71 735.58,-81.01 741.91,-89.51 745.83,-83.71"/>
</g>
<!-- Node7 -->
<g id="node7" class="node">
<title>Node7</title>
<g id="a_node7"><a xlink:title=" ">
<polygon fill="white" stroke="#bfbfbf" points="798,-56.5 798,-86.5 950,-86.5 950,-56.5 798,-56.5"/>
<text text-anchor="start" x="806" y="-74.5" font-family="Helvetica,sans-Serif" font-size="10.00">boost/geometry/geometries</text>
<text text-anchor="middle" x="874" y="-63.5" font-family="Helvetica,sans-Serif" font-size="10.00">/point_xy.hpp</text>
</a>
</g>
</g>
<!-- Node5&#45;&gt;Node7 -->
<g id="edge8" class="edge">
<title>Node5&#45;&gt;Node7</title>
<path fill="none" stroke="midnightblue" d="M820.03,-123.48C828.24,-115.72 840.71,-103.94 851.59,-93.66"/>
<polygon fill="midnightblue" stroke="midnightblue" points="854.29,-95.93 859.15,-86.52 849.48,-90.84 854.29,-95.93"/>
</g>
<!-- Node8 -->
<g id="node8" class="node">
<title>Node8</title>
<g id="a_node8"><a xlink:title=" ">
<polygon fill="white" stroke="#bfbfbf" points="968,-56.5 968,-86.5 1120,-86.5 1120,-56.5 968,-56.5"/>
<text text-anchor="start" x="976" y="-74.5" font-family="Helvetica,sans-Serif" font-size="10.00">boost/geometry/geometries</text>
<text text-anchor="middle" x="1044" y="-63.5" font-family="Helvetica,sans-Serif" font-size="10.00">/box.hpp</text>
</a>
</g>
</g>
<!-- Node5&#45;&gt;Node8 -->
<g id="edge9" class="edge">
<title>Node5&#45;&gt;Node8</title>
<path fill="none" stroke="midnightblue" d="M844.38,-123.48C879.48,-114.51 935.57,-100.19 979.37,-89"/>
<polygon fill="midnightblue" stroke="midnightblue" points="980.26,-92.39 989.09,-86.52 978.53,-85.61 980.26,-92.39"/>
</g>
<!-- Node9 -->
<g id="node9" class="node">
<title>Node9</title>
<g id="a_node9"><a xlink:title=" ">
<polygon fill="white" stroke="#bfbfbf" points="1138.5,-56.5 1138.5,-86.5 1251.5,-86.5 1251.5,-56.5 1138.5,-56.5"/>
<text text-anchor="start" x="1146.5" y="-74.5" font-family="Helvetica,sans-Serif" font-size="10.00">boost/polygon/point</text>
<text text-anchor="middle" x="1195" y="-63.5" font-family="Helvetica,sans-Serif" font-size="10.00">_data.hpp</text>
</a>
</g>
</g>
<!-- Node5&#45;&gt;Node9 -->
<g id="edge10" class="edge">
<title>Node5&#45;&gt;Node9</title>
<path fill="none" stroke="midnightblue" d="M864.65,-125.67C925.98,-118.14 1029.59,-104.58 1128.33,-87.04"/>
<polygon fill="midnightblue" stroke="midnightblue" points="1128.95,-90.48 1138.17,-85.27 1127.71,-83.59 1128.95,-90.48"/>
</g>
<!-- Node10 -->
<g id="node10" class="node">
<title>Node10</title>
<g id="a_node10"><a xlink:title=" ">
<polygon fill="white" stroke="#bfbfbf" points="514,-56.5 514,-86.5 648,-86.5 648,-56.5 514,-56.5"/>
<text text-anchor="start" x="522" y="-74.5" font-family="Helvetica,sans-Serif" font-size="10.00">boost/polygon/rectangle</text>
<text text-anchor="middle" x="581" y="-63.5" font-family="Helvetica,sans-Serif" font-size="10.00">_data.hpp</text>
</a>
</g>
</g>
<!-- Node5&#45;&gt;Node10 -->
<g id="edge11" class="edge">
<title>Node5&#45;&gt;Node10</title>
<path fill="none" stroke="midnightblue" d="M778.05,-123.48C743.48,-114.53 688.26,-100.25 645.07,-89.07"/>
<polygon fill="midnightblue" stroke="midnightblue" points="645.76,-85.64 635.21,-86.52 644.01,-92.42 645.76,-85.64"/>
</g>
<!-- Node11&#45;&gt;Node2 -->
<g id="edge13" class="edge">
<title>Node11&#45;&gt;Node2</title>
<path fill="none" stroke="midnightblue" d="M152.28,-123.48C213.09,-112.74 317.49,-94.31 382.69,-82.79"/>
<polygon fill="midnightblue" stroke="midnightblue" points="383.57,-86.19 392.81,-81.01 382.35,-79.3 383.57,-86.19"/>
</g>
<!-- Node12 -->
<g id="node12" class="node">
<title>Node12</title>
<g id="a_node12"><a xlink:title=" ">
<polygon fill="white" stroke="#bfbfbf" points="0,-62 0,-81 44,-81 44,-62 0,-62"/>
<text text-anchor="middle" x="22" y="-69" font-family="Helvetica,sans-Serif" font-size="10.00">string</text>
</a>
</g>
</g>
<!-- Node11&#45;&gt;Node12 -->
<g id="edge14" class="edge">
<title>Node11&#45;&gt;Node12</title>
<path fill="none" stroke="midnightblue" d="M92.25,-123.48C79.22,-114.02 57.96,-98.6 42.24,-87.19"/>
<polygon fill="midnightblue" stroke="midnightblue" points="43.88,-84.05 33.73,-81.01 39.77,-89.71 43.88,-84.05"/>
</g>
<!-- Node13 -->
<g id="node13" class="node">
<title>Node13</title>
<g id="a_node13"><a xlink:title=" ">
<polygon fill="white" stroke="#bfbfbf" points="62.5,-62 62.5,-81 145.5,-81 145.5,-62 62.5,-62"/>
<text text-anchor="middle" x="104" y="-69" font-family="Helvetica,sans-Serif" font-size="10.00">initializer_list</text>
</a>
</g>
</g>
<!-- Node11&#45;&gt;Node13 -->
<g id="edge15" class="edge">
<title>Node11&#45;&gt;Node13</title>
<path fill="none" stroke="midnightblue" d="M104,-123.48C104,-115.08 104,-101.98 104,-91.16"/>
<polygon fill="midnightblue" stroke="midnightblue" points="107.5,-91.01 104,-81.01 100.5,-91.01 107.5,-91.01"/>
</g>
<!-- Node14 -->
<g id="node14" class="node">
<title>Node14</title>
<g id="a_node14"><a xlink:title=" ">
<polygon fill="white" stroke="#bfbfbf" points="163.5,-62 163.5,-81 228.5,-81 228.5,-62 163.5,-62"/>
<text text-anchor="middle" x="196" y="-69" font-family="Helvetica,sans-Serif" font-size="10.00">functional</text>
</a>
</g>
</g>
<!-- Node11&#45;&gt;Node14 -->
<g id="edge16" class="edge">
<title>Node11&#45;&gt;Node14</title>
<path fill="none" stroke="midnightblue" d="M117.18,-123.48C132.07,-113.84 156.54,-98.02 174.27,-86.55"/>
<polygon fill="midnightblue" stroke="midnightblue" points="176.35,-89.38 182.84,-81.01 172.55,-83.5 176.35,-89.38"/>
</g>
<!-- Node15&#45;&gt;Node2 -->
<g id="edge18" class="edge">
<title>Node15&#45;&gt;Node2</title>
<path fill="none" stroke="midnightblue" d="M641.83,-184.91C630.92,-170.27 606.81,-140.41 580,-123 551.9,-104.75 516.34,-91.99 488.22,-83.86"/>
<polygon fill="midnightblue" stroke="midnightblue" points="488.8,-80.38 478.22,-81.07 486.92,-87.13 488.8,-80.38"/>
</g>
<!-- Node15&#45;&gt;Node5 -->
<g id="edge19" class="edge">
<title>Node15&#45;&gt;Node5</title>
<path fill="none" stroke="midnightblue" d="M671.35,-184.98C699.31,-174.77 746.33,-157.61 777.99,-146.05"/>
<polygon fill="midnightblue" stroke="midnightblue" points="779.5,-149.23 787.69,-142.51 777.1,-142.65 779.5,-149.23"/>
</g>
<!-- Node16 -->
<g id="node16" class="node">
<title>Node16</title>
<g id="a_node16"><a xlink:title=" ">
<polygon fill="white" stroke="#bfbfbf" points="632.5,-123.5 632.5,-142.5 739.5,-142.5 739.5,-123.5 632.5,-123.5"/>
<text text-anchor="middle" x="686" y="-130.5" font-family="Helvetica,sans-Serif" font-size="10.00">boost/function.hpp</text>
</a>
</g>
</g>
<!-- Node15&#45;&gt;Node16 -->
<g id="edge20" class="edge">
<title>Node15&#45;&gt;Node16</title>
<path fill="none" stroke="midnightblue" d="M653.44,-184.98C659.09,-176.14 668.06,-162.09 675.16,-150.98"/>
<polygon fill="midnightblue" stroke="midnightblue" points="678.13,-152.82 680.57,-142.51 672.23,-149.05 678.13,-152.82"/>
</g>
<!-- Node17&#45;&gt;Node2 -->
<g id="edge22" class="edge">
<title>Node17&#45;&gt;Node2</title>
<path fill="none" stroke="midnightblue" d="M379.75,-184.8C390.54,-165 417.12,-116.28 431.46,-89.99"/>
<polygon fill="midnightblue" stroke="midnightblue" points="434.58,-91.58 436.3,-81.12 428.44,-88.23 434.58,-91.58"/>
</g>
<!-- Node17&#45;&gt;Node11 -->
<g id="edge23" class="edge">
<title>Node17&#45;&gt;Node11</title>
<path fill="none" stroke="midnightblue" d="M336.17,-184.98C287.88,-174.37 205.39,-156.26 152.85,-144.72"/>
<polygon fill="midnightblue" stroke="midnightblue" points="153.27,-141.24 142.76,-142.51 151.77,-148.07 153.27,-141.24"/>
</g>
<!-- Node18 -->
<g id="node18" class="node">
<title>Node18</title>
<g id="a_node18"><a xlink:title=" ">
<polygon fill="white" stroke="#bfbfbf" points="213.5,-123.5 213.5,-142.5 372.5,-142.5 372.5,-123.5 213.5,-123.5"/>
<text text-anchor="middle" x="293" y="-130.5" font-family="Helvetica,sans-Serif" font-size="10.00">boost/core/scoped_enum.hpp</text>
</a>
</g>
</g>
<!-- Node17&#45;&gt;Node18 -->
<g id="edge24" class="edge">
<title>Node17&#45;&gt;Node18</title>
<path fill="none" stroke="midnightblue" d="M363.25,-184.98C350.22,-175.52 328.96,-160.1 313.24,-148.69"/>
<polygon fill="midnightblue" stroke="midnightblue" points="314.88,-145.55 304.73,-142.51 310.77,-151.21 314.88,-145.55"/>
</g>
<!-- Node19&#45;&gt;Node2 -->
<g id="edge26" class="edge">
<title>Node19&#45;&gt;Node2</title>
<path fill="none" stroke="midnightblue" d="M476.98,-123.48C470.74,-114.64 460.83,-100.59 452.98,-89.48"/>
<polygon fill="midnightblue" stroke="midnightblue" points="455.63,-87.16 447.01,-81.01 449.91,-91.2 455.63,-87.16"/>
</g>
</g>
</svg>
