<?xml version="1.0" encoding="UTF-8" standalone="no"?>
<!DOCTYPE svg PUBLIC "-//W3C//DTD SVG 1.1//EN"
 "http://www.w3.org/Graphics/SVG/1.1/DTD/svg11.dtd">
<!-- Generated by graphviz version 2.38.0 (20140413.2041)
 -->
<!-- Title: boost/ui/menu.hpp Pages: 1 -->
<svg width="1156pt" height="330pt"
 viewBox="0.00 0.00 1156.00 330.00" xmlns="http://www.w3.org/2000/svg" xmlns:xlink="http://www.w3.org/1999/xlink">
<g id="graph0" class="graph" transform="scale(1 1) rotate(0) translate(4 326)">
<title>boost/ui/menu.hpp</title>
<polygon fill="white" stroke="none" points="-4,4 -4,-326 1152,-326 1152,4 -4,4"/>
<!-- Node1 -->
<g id="node1" class="node"><title>Node1</title>
<polygon fill="#bfbfbf" stroke="black" points="678,-302.5 678,-321.5 775,-321.5 775,-302.5 678,-302.5"/>
<text text-anchor="middle" x="726.5" y="-309.5" font-family="Helvetica,sans-Serif" font-size="10.00">boost/ui/menu.hpp</text>
</g>
<!-- Node2 -->
<g id="node2" class="node"><title>Node2</title>
<g id="a_node2"><a xlink:href="config_8hpp.html" target="_top" xlink:title="Configuration options. ">
<polygon fill="white" stroke="black" points="364,-62 364,-81 463,-81 463,-62 364,-62"/>
<text text-anchor="middle" x="413.5" y="-69" font-family="Helvetica,sans-Serif" font-size="10.00">boost/ui/config.hpp</text>
</a>
</g>
</g>
<!-- Node1&#45;&gt;Node2 -->
<g id="edge1" class="edge"><title>Node1&#45;&gt;Node2</title>
<path fill="none" stroke="midnightblue" d="M677.759,-307.3C592.431,-299.286 412.082,-275.438 275.5,-210 232.433,-189.366 212.218,-186.026 191.5,-143 187.644,-134.991 185.955,-129.948 191.5,-123 211.445,-98.009 294.846,-84.436 353.532,-77.8305"/>
<polygon fill="midnightblue" stroke="midnightblue" points="354.252,-81.273 363.816,-76.7151 353.497,-74.3138 354.252,-81.273"/>
</g>
<!-- Node4 -->
<g id="node4" class="node"><title>Node4</title>
<g id="a_node4"><a xlink:href="widget_8hpp.html" target="_top" xlink:title="Widget class. ">
<polygon fill="white" stroke="black" points="557,-246.5 557,-265.5 658,-265.5 658,-246.5 557,-246.5"/>
<text text-anchor="middle" x="607.5" y="-253.5" font-family="Helvetica,sans-Serif" font-size="10.00">boost/ui/widget.hpp</text>
</a>
</g>
</g>
<!-- Node1&#45;&gt;Node4 -->
<g id="edge3" class="edge"><title>Node1&#45;&gt;Node4</title>
<path fill="none" stroke="midnightblue" d="M707.644,-302.444C688.234,-293.636 657.77,-279.812 635.535,-269.722"/>
<polygon fill="midnightblue" stroke="midnightblue" points="636.82,-266.462 626.268,-265.516 633.928,-272.836 636.82,-266.462"/>
</g>
<!-- Node20 -->
<g id="node20" class="node"><title>Node20</title>
<polygon fill="white" stroke="#bfbfbf" points="712.5,-179.5 712.5,-209.5 822.5,-209.5 822.5,-179.5 712.5,-179.5"/>
<text text-anchor="start" x="720.5" y="-197.5" font-family="Helvetica,sans-Serif" font-size="10.00">boost/ui/detail/shared</text>
<text text-anchor="middle" x="767.5" y="-186.5" font-family="Helvetica,sans-Serif" font-size="10.00">_count.hpp</text>
</g>
<!-- Node1&#45;&gt;Node20 -->
<g id="edge29" class="edge"><title>Node1&#45;&gt;Node20</title>
<path fill="none" stroke="midnightblue" d="M729.582,-302.319C735.796,-284.812 750.018,-244.749 759.169,-218.97"/>
<polygon fill="midnightblue" stroke="midnightblue" points="762.467,-220.14 762.514,-209.545 755.871,-217.798 762.467,-220.14"/>
</g>
<!-- Node21 -->
<g id="node21" class="node"><title>Node21</title>
<polygon fill="white" stroke="#bfbfbf" points="841,-185 841,-204 964,-204 964,-185 841,-185"/>
<text text-anchor="middle" x="902.5" y="-192" font-family="Helvetica,sans-Serif" font-size="10.00">boost/ui/detail/event.hpp</text>
</g>
<!-- Node1&#45;&gt;Node21 -->
<g id="edge30" class="edge"><title>Node1&#45;&gt;Node21</title>
<path fill="none" stroke="midnightblue" d="M732.18,-302.308C741.466,-288.682 761.122,-262.183 783.5,-246 807.556,-228.604 838.523,-215.702 862.837,-207.295"/>
<polygon fill="midnightblue" stroke="midnightblue" points="864.096,-210.565 872.472,-204.076 861.878,-203.925 864.096,-210.565"/>
</g>
<!-- Node22 -->
<g id="node22" class="node"><title>Node22</title>
<polygon fill="white" stroke="#bfbfbf" points="793,-246.5 793,-265.5 910,-265.5 910,-246.5 793,-246.5"/>
<text text-anchor="middle" x="851.5" y="-253.5" font-family="Helvetica,sans-Serif" font-size="10.00">boost/noncopyable.hpp</text>
</g>
<!-- Node1&#45;&gt;Node22 -->
<g id="edge31" class="edge"><title>Node1&#45;&gt;Node22</title>
<path fill="none" stroke="midnightblue" d="M746.307,-302.444C766.787,-293.596 798.983,-279.687 822.365,-269.586"/>
<polygon fill="midnightblue" stroke="midnightblue" points="823.994,-272.695 831.786,-265.516 821.218,-266.269 823.994,-272.695"/>
</g>
<!-- Node3 -->
<g id="node3" class="node"><title>Node3</title>
<polygon fill="white" stroke="#bfbfbf" points="369,-0.5 369,-19.5 458,-19.5 458,-0.5 369,-0.5"/>
<text text-anchor="middle" x="413.5" y="-7.5" font-family="Helvetica,sans-Serif" font-size="10.00">boost/config.hpp</text>
</g>
<!-- Node2&#45;&gt;Node3 -->
<g id="edge2" class="edge"><title>Node2&#45;&gt;Node3</title>
<path fill="none" stroke="midnightblue" d="M413.5,-61.9751C413.5,-53.5803 413.5,-40.4806 413.5,-29.6631"/>
<polygon fill="midnightblue" stroke="midnightblue" points="417,-29.5091 413.5,-19.5091 410,-29.5091 417,-29.5091"/>
</g>
<!-- Node4&#45;&gt;Node2 -->
<g id="edge4" class="edge"><title>Node4&#45;&gt;Node2</title>
<path fill="none" stroke="midnightblue" d="M592.488,-246.295C579.674,-238.239 561.472,-225.23 549.5,-210 523.313,-176.686 539.572,-153.828 510.5,-123 494.044,-105.551 470.209,-93.0257 450.284,-84.8138"/>
<polygon fill="midnightblue" stroke="midnightblue" points="451.454,-81.5133 440.866,-81.1263 448.902,-88.0315 451.454,-81.5133"/>
</g>
<!-- Node5 -->
<g id="node5" class="node"><title>Node5</title>
<g id="a_node5"><a xlink:href="coord_8hpp.html" target="_top" xlink:title="Coordinates classes. ">
<polygon fill="white" stroke="black" points="712,-123.5 712,-142.5 809,-142.5 809,-123.5 712,-123.5"/>
<text text-anchor="middle" x="760.5" y="-130.5" font-family="Helvetica,sans-Serif" font-size="10.00">boost/ui/coord.hpp</text>
</a>
</g>
</g>
<!-- Node4&#45;&gt;Node5 -->
<g id="edge5" class="edge"><title>Node4&#45;&gt;Node5</title>
<path fill="none" stroke="midnightblue" d="M618.436,-246.384C629.917,-237.334 648.49,-222.683 664.5,-210 681.856,-196.251 686.144,-192.749 703.5,-179 716.133,-168.992 730.362,-157.759 741.443,-149.019"/>
<polygon fill="midnightblue" stroke="midnightblue" points="743.879,-151.556 749.564,-142.616 739.544,-146.059 743.879,-151.556"/>
</g>
<!-- Node11 -->
<g id="node11" class="node"><title>Node11</title>
<g id="a_node11"><a xlink:href="string_8hpp.html" target="_top" xlink:title="String class and operations. ">
<polygon fill="white" stroke="black" points="47,-123.5 47,-142.5 144,-142.5 144,-123.5 47,-123.5"/>
<text text-anchor="middle" x="95.5" y="-130.5" font-family="Helvetica,sans-Serif" font-size="10.00">boost/ui/string.hpp</text>
</a>
</g>
</g>
<!-- Node4&#45;&gt;Node11 -->
<g id="edge12" class="edge"><title>Node4&#45;&gt;Node11</title>
<path fill="none" stroke="midnightblue" d="M556.896,-252.31C491.073,-247.871 372.979,-236.676 275.5,-210 218.325,-194.354 155.333,-164.655 121.108,-147.379"/>
<polygon fill="midnightblue" stroke="midnightblue" points="122.344,-144.081 111.846,-142.652 119.162,-150.315 122.344,-144.081"/>
</g>
<!-- Node15 -->
<g id="node15" class="node"><title>Node15</title>
<g id="a_node15"><a xlink:href="event_8hpp.html" target="_top" xlink:title="Event classes. ">
<polygon fill="white" stroke="black" points="559,-185 559,-204 656,-204 656,-185 559,-185"/>
<text text-anchor="middle" x="607.5" y="-192" font-family="Helvetica,sans-Serif" font-size="10.00">boost/ui/event.hpp</text>
</a>
</g>
</g>
<!-- Node4&#45;&gt;Node15 -->
<g id="edge17" class="edge"><title>Node4&#45;&gt;Node15</title>
<path fill="none" stroke="midnightblue" d="M607.5,-246.475C607.5,-238.08 607.5,-224.981 607.5,-214.163"/>
<polygon fill="midnightblue" stroke="midnightblue" points="611,-214.009 607.5,-204.009 604,-214.009 611,-214.009"/>
</g>
<!-- Node17 -->
<g id="node17" class="node"><title>Node17</title>
<g id="a_node17"><a xlink:href="font_8hpp.html" target="_top" xlink:title="Font class. ">
<polygon fill="white" stroke="black" points="285,-185 285,-204 374,-204 374,-185 285,-185"/>
<text text-anchor="middle" x="329.5" y="-192" font-family="Helvetica,sans-Serif" font-size="10.00">boost/ui/font.hpp</text>
</a>
</g>
</g>
<!-- Node4&#45;&gt;Node17 -->
<g id="edge21" class="edge"><title>Node4&#45;&gt;Node17</title>
<path fill="none" stroke="midnightblue" d="M567.669,-246.475C518.021,-235.849 433.153,-217.685 379.271,-206.152"/>
<polygon fill="midnightblue" stroke="midnightblue" points="379.768,-202.68 369.257,-204.009 378.303,-209.525 379.768,-202.68"/>
</g>
<!-- Node19 -->
<g id="node19" class="node"><title>Node19</title>
<g id="a_node19"><a xlink:href="layout_8hpp.html" target="_top" xlink:title="Layout classes. ">
<polygon fill="white" stroke="black" points="403,-123.5 403,-142.5 502,-142.5 502,-123.5 403,-123.5"/>
<text text-anchor="middle" x="452.5" y="-130.5" font-family="Helvetica,sans-Serif" font-size="10.00">boost/ui/layout.hpp</text>
</a>
</g>
</g>
<!-- Node4&#45;&gt;Node19 -->
<g id="edge25" class="edge"><title>Node4&#45;&gt;Node19</title>
<path fill="none" stroke="midnightblue" d="M583.927,-246.481C564.601,-238.791 537.164,-226.206 516.5,-210 494.942,-193.093 475.499,-167.911 463.845,-151.229"/>
<polygon fill="midnightblue" stroke="midnightblue" points="466.44,-148.822 457.926,-142.517 460.65,-152.755 466.44,-148.822"/>
</g>
<!-- Node4&#45;&gt;Node20 -->
<g id="edge27" class="edge"><title>Node4&#45;&gt;Node20</title>
<path fill="none" stroke="midnightblue" d="M630.424,-246.475C653.714,-237.814 690.47,-224.145 720.061,-213.141"/>
<polygon fill="midnightblue" stroke="midnightblue" points="721.638,-216.289 729.791,-209.523 719.198,-209.728 721.638,-216.289"/>
</g>
<!-- Node4&#45;&gt;Node21 -->
<g id="edge28" class="edge"><title>Node4&#45;&gt;Node21</title>
<path fill="none" stroke="midnightblue" d="M650.034,-246.497C695.098,-237.479 768.326,-222.796 831.5,-210 837.731,-208.738 844.268,-207.409 850.748,-206.089"/>
<polygon fill="midnightblue" stroke="midnightblue" points="851.733,-209.46 860.832,-204.033 850.334,-202.602 851.733,-209.46"/>
</g>
<!-- Node5&#45;&gt;Node2 -->
<g id="edge6" class="edge"><title>Node5&#45;&gt;Node2</title>
<path fill="none" stroke="midnightblue" d="M711.89,-124.459C631.324,-111.953 478.338,-88.1712 472.5,-87 467.135,-85.9237 461.522,-84.6882 455.981,-83.4022"/>
<polygon fill="midnightblue" stroke="midnightblue" points="456.695,-79.9744 446.156,-81.0564 455.07,-86.783 456.695,-79.9744"/>
</g>
<!-- Node6 -->
<g id="node6" class="node"><title>Node6</title>
<polygon fill="white" stroke="#bfbfbf" points="620,-62 620,-81 723,-81 723,-62 620,-62"/>
<text text-anchor="middle" x="671.5" y="-69" font-family="Helvetica,sans-Serif" font-size="10.00">boost/geometry.hpp</text>
</g>
<!-- Node5&#45;&gt;Node6 -->
<g id="edge7" class="edge"><title>Node5&#45;&gt;Node6</title>
<path fill="none" stroke="midnightblue" d="M747.748,-123.475C733.473,-113.931 710.103,-98.3073 692.992,-86.8683"/>
<polygon fill="midnightblue" stroke="midnightblue" points="694.486,-83.6572 684.228,-81.0091 690.596,-89.4766 694.486,-83.6572"/>
</g>
<!-- Node7 -->
<g id="node7" class="node"><title>Node7</title>
<polygon fill="white" stroke="#bfbfbf" points="741,-56.5 741,-86.5 876,-86.5 876,-56.5 741,-56.5"/>
<text text-anchor="start" x="749" y="-74.5" font-family="Helvetica,sans-Serif" font-size="10.00">boost/geometry/geometries</text>
<text text-anchor="middle" x="808.5" y="-63.5" font-family="Helvetica,sans-Serif" font-size="10.00">/point_xy.hpp</text>
</g>
<!-- Node5&#45;&gt;Node7 -->
<g id="edge8" class="edge"><title>Node5&#45;&gt;Node7</title>
<path fill="none" stroke="midnightblue" d="M767.377,-123.475C773.453,-115.944 782.583,-104.626 790.699,-94.5663"/>
<polygon fill="midnightblue" stroke="midnightblue" points="793.633,-96.5037 797.187,-86.523 788.184,-92.1085 793.633,-96.5037"/>
</g>
<!-- Node8 -->
<g id="node8" class="node"><title>Node8</title>
<polygon fill="white" stroke="#bfbfbf" points="894,-56.5 894,-86.5 1029,-86.5 1029,-56.5 894,-56.5"/>
<text text-anchor="start" x="902" y="-74.5" font-family="Helvetica,sans-Serif" font-size="10.00">boost/geometry/geometries</text>
<text text-anchor="middle" x="961.5" y="-63.5" font-family="Helvetica,sans-Serif" font-size="10.00">/box.hpp</text>
</g>
<!-- Node5&#45;&gt;Node8 -->
<g id="edge9" class="edge"><title>Node5&#45;&gt;Node8</title>
<path fill="none" stroke="midnightblue" d="M789.298,-123.475C819.192,-114.626 866.747,-100.549 904.316,-89.4277"/>
<polygon fill="midnightblue" stroke="midnightblue" points="905.533,-92.7175 914.128,-86.523 903.546,-86.0054 905.533,-92.7175"/>
</g>
<!-- Node9 -->
<g id="node9" class="node"><title>Node9</title>
<polygon fill="white" stroke="#bfbfbf" points="1047,-56.5 1047,-86.5 1148,-86.5 1148,-56.5 1047,-56.5"/>
<text text-anchor="start" x="1055" y="-74.5" font-family="Helvetica,sans-Serif" font-size="10.00">boost/polygon/point</text>
<text text-anchor="middle" x="1097.5" y="-63.5" font-family="Helvetica,sans-Serif" font-size="10.00">_data.hpp</text>
</g>
<!-- Node5&#45;&gt;Node9 -->
<g id="edge10" class="edge"><title>Node5&#45;&gt;Node9</title>
<path fill="none" stroke="midnightblue" d="M809.24,-125.228C862.667,-117.549 951.113,-104.089 1036.91,-87.0232"/>
<polygon fill="midnightblue" stroke="midnightblue" points="1037.71,-90.4343 1046.82,-85.0341 1036.33,-83.5713 1037.71,-90.4343"/>
</g>
<!-- Node10 -->
<g id="node10" class="node"><title>Node10</title>
<polygon fill="white" stroke="#bfbfbf" points="481.5,-56.5 481.5,-86.5 601.5,-86.5 601.5,-56.5 481.5,-56.5"/>
<text text-anchor="start" x="489.5" y="-74.5" font-family="Helvetica,sans-Serif" font-size="10.00">boost/polygon/rectangle</text>
<text text-anchor="middle" x="541.5" y="-63.5" font-family="Helvetica,sans-Serif" font-size="10.00">_data.hpp</text>
</g>
<!-- Node5&#45;&gt;Node10 -->
<g id="edge11" class="edge"><title>Node5&#45;&gt;Node10</title>
<path fill="none" stroke="midnightblue" d="M729.123,-123.475C696.344,-114.569 644.076,-100.369 603.023,-89.2151"/>
<polygon fill="midnightblue" stroke="midnightblue" points="603.682,-85.7673 593.114,-86.523 601.846,-92.5225 603.682,-85.7673"/>
</g>
<!-- Node11&#45;&gt;Node2 -->
<g id="edge13" class="edge"><title>Node11&#45;&gt;Node2</title>
<path fill="none" stroke="midnightblue" d="M141.062,-123.475C198.326,-112.761 296.55,-94.3821 358.098,-82.8661"/>
<polygon fill="midnightblue" stroke="midnightblue" points="358.837,-86.2886 368.023,-81.0091 357.55,-79.408 358.837,-86.2886"/>
</g>
<!-- Node12 -->
<g id="node12" class="node"><title>Node12</title>
<polygon fill="white" stroke="#bfbfbf" points="0,-62 0,-81 41,-81 41,-62 0,-62"/>
<text text-anchor="middle" x="20.5" y="-69" font-family="Helvetica,sans-Serif" font-size="10.00">string</text>
</g>
<!-- Node11&#45;&gt;Node12 -->
<g id="edge14" class="edge"><title>Node11&#45;&gt;Node12</title>
<path fill="none" stroke="midnightblue" d="M84.7543,-123.475C72.9473,-114.108 53.757,-98.8839 39.4177,-87.5081"/>
<polygon fill="midnightblue" stroke="midnightblue" points="41.2351,-84.4822 31.2257,-81.0091 36.8846,-89.9661 41.2351,-84.4822"/>
</g>
<!-- Node13 -->
<g id="node13" class="node"><title>Node13</title>
<polygon fill="white" stroke="#bfbfbf" points="59,-62 59,-81 132,-81 132,-62 59,-62"/>
<text text-anchor="middle" x="95.5" y="-69" font-family="Helvetica,sans-Serif" font-size="10.00">initializer_list</text>
</g>
<!-- Node11&#45;&gt;Node13 -->
<g id="edge15" class="edge"><title>Node11&#45;&gt;Node13</title>
<path fill="none" stroke="midnightblue" d="M95.5,-123.475C95.5,-115.08 95.5,-101.981 95.5,-91.1631"/>
<polygon fill="midnightblue" stroke="midnightblue" points="99.0001,-91.0091 95.5,-81.0091 92.0001,-91.0091 99.0001,-91.0091"/>
</g>
<!-- Node14 -->
<g id="node14" class="node"><title>Node14</title>
<polygon fill="white" stroke="#bfbfbf" points="150,-62 150,-81 209,-81 209,-62 150,-62"/>
<text text-anchor="middle" x="179.5" y="-69" font-family="Helvetica,sans-Serif" font-size="10.00">functional</text>
</g>
<!-- Node11&#45;&gt;Node14 -->
<g id="edge16" class="edge"><title>Node11&#45;&gt;Node14</title>
<path fill="none" stroke="midnightblue" d="M107.535,-123.475C121.008,-113.931 143.066,-98.3073 159.215,-86.8683"/>
<polygon fill="midnightblue" stroke="midnightblue" points="161.35,-89.6454 167.487,-81.0091 157.304,-83.9332 161.35,-89.6454"/>
</g>
<!-- Node15&#45;&gt;Node2 -->
<g id="edge18" class="edge"><title>Node15&#45;&gt;Node2</title>
<path fill="none" stroke="midnightblue" d="M601.9,-184.934C591.963,-170.342 569.887,-140.545 544.5,-123 518.274,-104.875 484.652,-92.0888 458.037,-83.917"/>
<polygon fill="midnightblue" stroke="midnightblue" points="458.792,-80.4904 448.21,-81.0095 456.806,-87.2028 458.792,-80.4904"/>
</g>
<!-- Node15&#45;&gt;Node5 -->
<g id="edge19" class="edge"><title>Node15&#45;&gt;Node5</title>
<path fill="none" stroke="midnightblue" d="M629.421,-184.975C655.552,-174.813 699.412,-157.756 729.13,-146.2"/>
<polygon fill="midnightblue" stroke="midnightblue" points="730.568,-149.396 738.619,-142.509 728.031,-142.872 730.568,-149.396"/>
</g>
<!-- Node16 -->
<g id="node16" class="node"><title>Node16</title>
<polygon fill="white" stroke="#bfbfbf" points="597,-123.5 597,-142.5 694,-142.5 694,-123.5 597,-123.5"/>
<text text-anchor="middle" x="645.5" y="-130.5" font-family="Helvetica,sans-Serif" font-size="10.00">boost/function.hpp</text>
</g>
<!-- Node15&#45;&gt;Node16 -->
<g id="edge20" class="edge"><title>Node15&#45;&gt;Node16</title>
<path fill="none" stroke="midnightblue" d="M612.944,-184.975C618.588,-176.138 627.561,-162.089 634.659,-150.975"/>
<polygon fill="midnightblue" stroke="midnightblue" points="637.633,-152.821 640.066,-142.509 631.733,-149.053 637.633,-152.821"/>
</g>
<!-- Node17&#45;&gt;Node2 -->
<g id="edge22" class="edge"><title>Node17&#45;&gt;Node2</title>
<path fill="none" stroke="midnightblue" d="M335.541,-184.798C349.345,-164.914 383.404,-115.852 401.596,-89.6471"/>
<polygon fill="midnightblue" stroke="midnightblue" points="404.686,-91.3337 407.514,-81.1232 398.936,-87.3418 404.686,-91.3337"/>
</g>
<!-- Node17&#45;&gt;Node11 -->
<g id="edge23" class="edge"><title>Node17&#45;&gt;Node11</title>
<path fill="none" stroke="midnightblue" d="M295.974,-184.975C254.618,-174.459 184.229,-156.562 138.816,-145.014"/>
<polygon fill="midnightblue" stroke="midnightblue" points="139.518,-141.581 128.964,-142.509 137.793,-148.366 139.518,-141.581"/>
</g>
<!-- Node18 -->
<g id="node18" class="node"><title>Node18</title>
<polygon fill="white" stroke="#bfbfbf" points="201,-123.5 201,-142.5 346,-142.5 346,-123.5 201,-123.5"/>
<text text-anchor="middle" x="273.5" y="-130.5" font-family="Helvetica,sans-Serif" font-size="10.00">boost/core/scoped_enum.hpp</text>
</g>
<!-- Node17&#45;&gt;Node18 -->
<g id="edge24" class="edge"><title>Node17&#45;&gt;Node18</title>
<path fill="none" stroke="midnightblue" d="M321.477,-184.975C312.91,-175.873 299.139,-161.241 288.543,-149.983"/>
<polygon fill="midnightblue" stroke="midnightblue" points="290.911,-147.392 281.509,-142.509 285.814,-152.19 290.911,-147.392"/>
</g>
<!-- Node19&#45;&gt;Node2 -->
<g id="edge26" class="edge"><title>Node19&#45;&gt;Node2</title>
<path fill="none" stroke="midnightblue" d="M446.912,-123.475C441.12,-114.638 431.911,-100.589 424.626,-89.475"/>
<polygon fill="midnightblue" stroke="midnightblue" points="427.487,-87.4539 419.077,-81.0091 421.632,-91.2913 427.487,-87.4539"/>
</g>
</g>
</svg>
