<?xml version="1.0" encoding="UTF-8" standalone="no"?>
<!DOCTYPE svg PUBLIC "-//W3C//DTD SVG 1.1//EN"
 "http://www.w3.org/Graphics/SVG/1.1/DTD/svg11.dtd">
<!-- Generated by graphviz version 2.43.0 (0)
 -->
<!-- Title: boost/ui/menu.hpp Pages: 1 -->
<svg width="4919pt" height="341pt"
 viewBox="0.00 0.00 4919.31 341.00" xmlns="http://www.w3.org/2000/svg" xmlns:xlink="http://www.w3.org/1999/xlink">
<g id="graph0" class="graph" transform="scale(1 1) rotate(0) translate(4 337)">
<title>boost/ui/menu.hpp</title>
<polygon fill="white" stroke="transparent" points="-4,4 -4,-337 4915.31,-337 4915.31,4 -4,4"/>
<!-- Node1 -->
<g id="node1" class="node">
<title>Node1</title>
<g id="a_node1"><a xlink:title="Menu classes.">
<polygon fill="#bfbfbf" stroke="black" points="4602.81,-313.5 4602.81,-332.5 4709.81,-332.5 4709.81,-313.5 4602.81,-313.5"/>
<text text-anchor="middle" x="4656.31" y="-320.5" font-family="Helvetica,sans-Serif" font-size="10.00">boost/ui/menu.hpp</text>
</a>
</g>
</g>
<!-- Node2 -->
<g id="node2" class="node">
<title>Node2</title>
<g id="a_node2"><a xlink:href="config_8hpp.html" target="_top" xlink:title="Configuration options.">
<polygon fill="white" stroke="black" points="2890.81,-62 2890.81,-81 2999.81,-81 2999.81,-62 2890.81,-62"/>
<text text-anchor="middle" x="2945.31" y="-69" font-family="Helvetica,sans-Serif" font-size="10.00">boost/ui/config.hpp</text>
</a>
</g>
</g>
<!-- Node1&#45;&gt;Node2 -->
<g id="edge1" class="edge">
<title>Node1&#45;&gt;Node2</title>
<path fill="none" stroke="midnightblue" d="M4667.66,-313.41C4697.59,-289.78 4773.7,-222.69 4734.31,-179 4675.43,-113.7 3325.56,-80.68 3010.59,-73.85"/>
<polygon fill="midnightblue" stroke="midnightblue" points="3010.34,-70.34 3000.26,-73.63 3010.18,-77.34 3010.34,-70.34"/>
</g>
<!-- Node4 -->
<g id="node4" class="node">
<title>Node4</title>
<g id="a_node4"><a xlink:href="widget_8hpp.html" target="_top" xlink:title="Widget class.">
<polygon fill="white" stroke="red" points="1897.81,-257.5 1897.81,-276.5 2010.81,-276.5 2010.81,-257.5 1897.81,-257.5"/>
<text text-anchor="middle" x="1954.31" y="-264.5" font-family="Helvetica,sans-Serif" font-size="10.00">boost/ui/widget.hpp</text>
</a>
</g>
</g>
<!-- Node1&#45;&gt;Node4 -->
<g id="edge3" class="edge">
<title>Node1&#45;&gt;Node4</title>
<path fill="none" stroke="midnightblue" d="M4602.64,-320.93C4261.63,-314.11 2399.08,-276.89 2021.2,-269.34"/>
<polygon fill="midnightblue" stroke="midnightblue" points="2021.05,-265.83 2010.98,-269.13 2020.91,-272.83 2021.05,-265.83"/>
</g>
<!-- Node334 -->
<g id="node48" class="node">
<title>Node334</title>
<g id="a_node48"><a xlink:title=" ">
<polygon fill="white" stroke="#bfbfbf" points="4447.31,-185 4447.31,-215 4569.31,-215 4569.31,-185 4447.31,-185"/>
<text text-anchor="start" x="4455.31" y="-203" font-family="Helvetica,sans-Serif" font-size="10.00">boost/ui/detail/shared</text>
<text text-anchor="middle" x="4508.31" y="-192" font-family="Helvetica,sans-Serif" font-size="10.00">_count.hpp</text>
</a>
</g>
</g>
<!-- Node1&#45;&gt;Node334 -->
<g id="edge73" class="edge">
<title>Node1&#45;&gt;Node334</title>
<path fill="none" stroke="midnightblue" d="M4645.67,-313.3C4622.33,-294.22 4566.11,-248.26 4533.29,-221.42"/>
<polygon fill="midnightblue" stroke="midnightblue" points="4535.44,-218.66 4525.48,-215.04 4531.01,-224.08 4535.44,-218.66"/>
</g>
<!-- Node335 -->
<g id="node49" class="node">
<title>Node335</title>
<g id="a_node49"><a xlink:title=" ">
<polygon fill="white" stroke="#bfbfbf" points="4587.31,-190.5 4587.31,-209.5 4725.31,-209.5 4725.31,-190.5 4587.31,-190.5"/>
<text text-anchor="middle" x="4656.31" y="-197.5" font-family="Helvetica,sans-Serif" font-size="10.00">boost/ui/detail/event.hpp</text>
</a>
</g>
</g>
<!-- Node1&#45;&gt;Node335 -->
<g id="edge74" class="edge">
<title>Node1&#45;&gt;Node335</title>
<path fill="none" stroke="midnightblue" d="M4656.31,-313.3C4656.31,-293.85 4656.31,-246.49 4656.31,-219.9"/>
<polygon fill="midnightblue" stroke="midnightblue" points="4659.81,-219.62 4656.31,-209.62 4652.81,-219.62 4659.81,-219.62"/>
</g>
<!-- Node344 -->
<g id="node50" class="node">
<title>Node344</title>
<g id="a_node50"><a xlink:title=" ">
<polygon fill="white" stroke="#bfbfbf" points="4781.31,-257.5 4781.31,-276.5 4911.31,-276.5 4911.31,-257.5 4781.31,-257.5"/>
<text text-anchor="middle" x="4846.31" y="-264.5" font-family="Helvetica,sans-Serif" font-size="10.00">boost/noncopyable.hpp</text>
</a>
</g>
</g>
<!-- Node1&#45;&gt;Node344 -->
<g id="edge75" class="edge">
<title>Node1&#45;&gt;Node344</title>
<path fill="none" stroke="midnightblue" d="M4686.42,-313.44C4718.94,-304.2 4770.89,-289.44 4806.7,-279.26"/>
<polygon fill="midnightblue" stroke="midnightblue" points="4807.68,-282.62 4816.34,-276.52 4805.77,-275.88 4807.68,-282.62"/>
</g>
<!-- Node3 -->
<g id="node3" class="node">
<title>Node3</title>
<g id="a_node3"><a xlink:title=" ">
<polygon fill="white" stroke="#bfbfbf" points="774.81,-0.5 774.81,-19.5 871.81,-19.5 871.81,-0.5 774.81,-0.5"/>
<text text-anchor="middle" x="823.31" y="-7.5" font-family="Helvetica,sans-Serif" font-size="10.00">boost/config.hpp</text>
</a>
</g>
</g>
<!-- Node2&#45;&gt;Node3 -->
<g id="edge2" class="edge">
<title>Node2&#45;&gt;Node3</title>
<path fill="none" stroke="midnightblue" d="M2890.72,-68.97C2595.17,-60.68 1188.6,-21.24 882.29,-12.65"/>
<polygon fill="midnightblue" stroke="midnightblue" points="881.95,-9.14 871.86,-12.36 881.76,-16.14 881.95,-9.14"/>
</g>
<!-- Node4&#45;&gt;Node2 -->
<g id="edge4" class="edge">
<title>Node4&#45;&gt;Node2</title>
<path fill="none" stroke="midnightblue" d="M2010.95,-266.04C2373.59,-266.2 4356.08,-265.03 4399.31,-221 4412.39,-207.68 4411.56,-193.09 4399.31,-179 4281.82,-43.86 4178.6,-139.74 4000.31,-123 3626.35,-87.88 3175.39,-76.63 3010.07,-73.54"/>
<polygon fill="midnightblue" stroke="midnightblue" points="3010.13,-70.04 3000.07,-73.35 3010,-77.04 3010.13,-70.04"/>
</g>
<!-- Node4&#45;&gt;Node3 -->
<g id="edge55" class="edge">
<title>Node4&#45;&gt;Node3</title>
<path fill="none" stroke="midnightblue" d="M1897.35,-266.14C1618.52,-266.63 404.42,-266.1 242.31,-221 126.11,-188.67 66.99,-191.24 6.31,-87 -0.62,-75.09 -3.16,-66.01 6.31,-56 32.32,-28.52 581.21,-15.61 764.39,-12.05"/>
<polygon fill="midnightblue" stroke="midnightblue" points="764.71,-15.55 774.64,-11.86 764.58,-8.55 764.71,-15.55"/>
</g>
<!-- Node5 -->
<g id="node5" class="node">
<title>Node5</title>
<g id="a_node5"><a xlink:href="coord_8hpp.html" target="_top" xlink:title="Coordinates classes.">
<polygon fill="white" stroke="red" points="751.81,-123.5 751.81,-142.5 858.81,-142.5 858.81,-123.5 751.81,-123.5"/>
<text text-anchor="middle" x="805.31" y="-130.5" font-family="Helvetica,sans-Serif" font-size="10.00">boost/ui/coord.hpp</text>
</a>
</g>
</g>
<!-- Node4&#45;&gt;Node5 -->
<g id="edge5" class="edge">
<title>Node4&#45;&gt;Node5</title>
<path fill="none" stroke="midnightblue" d="M1897.75,-266.4C1688.37,-267.52 964.63,-267.91 873.31,-221 844.29,-206.1 823.81,-172.57 813.33,-151.76"/>
<polygon fill="midnightblue" stroke="midnightblue" points="816.47,-150.21 809,-142.7 810.16,-153.23 816.47,-150.21"/>
</g>
<!-- Node22 -->
<g id="node6" class="node">
<title>Node22</title>
<g id="a_node6"><a xlink:title=" ">
<polygon fill="white" stroke="#bfbfbf" points="1282.31,-62 1282.31,-81 1380.31,-81 1380.31,-62 1282.31,-62"/>
<text text-anchor="middle" x="1331.31" y="-69" font-family="Helvetica,sans-Serif" font-size="10.00">boost/assert.hpp</text>
</a>
</g>
</g>
<!-- Node4&#45;&gt;Node22 -->
<g id="edge67" class="edge">
<title>Node4&#45;&gt;Node22</title>
<path fill="none" stroke="midnightblue" d="M1897.79,-265.15C1711.01,-262.07 1123.92,-250.1 1096.31,-221 1083.46,-207.46 1086.19,-194.69 1096.31,-179 1102.31,-169.69 1239.49,-111.12 1301.43,-85.02"/>
<polygon fill="midnightblue" stroke="midnightblue" points="1302.83,-88.23 1310.69,-81.13 1300.12,-81.78 1302.83,-88.23"/>
</g>
<!-- Node86 -->
<g id="node7" class="node">
<title>Node86</title>
<g id="a_node7"><a xlink:title=" ">
<polygon fill="white" stroke="#bfbfbf" points="15.31,-56.5 15.31,-86.5 125.31,-86.5 125.31,-56.5 15.31,-56.5"/>
<text text-anchor="start" x="23.31" y="-74.5" font-family="Helvetica,sans-Serif" font-size="10.00">boost/preprocessor</text>
<text text-anchor="middle" x="70.31" y="-63.5" font-family="Helvetica,sans-Serif" font-size="10.00">/cat.hpp</text>
</a>
</g>
</g>
<!-- Node4&#45;&gt;Node86 -->
<g id="edge43" class="edge">
<title>Node4&#45;&gt;Node86</title>
<path fill="none" stroke="midnightblue" d="M1897.45,-265.94C1629.81,-265.45 502.08,-261.02 350.31,-221 250.13,-194.58 145.85,-126.7 97.69,-92.63"/>
<polygon fill="midnightblue" stroke="midnightblue" points="99.54,-89.65 89.37,-86.68 95.47,-95.34 99.54,-89.65"/>
</g>
<!-- Node105 -->
<g id="node8" class="node">
<title>Node105</title>
<g id="a_node8"><a xlink:title=" ">
<polygon fill="white" stroke="#bfbfbf" points="1136.81,-62 1136.81,-81 1201.81,-81 1201.81,-62 1136.81,-62"/>
<text text-anchor="middle" x="1169.31" y="-69" font-family="Helvetica,sans-Serif" font-size="10.00">functional</text>
</a>
</g>
</g>
<!-- Node4&#45;&gt;Node105 -->
<g id="edge29" class="edge">
<title>Node4&#45;&gt;Node105</title>
<path fill="none" stroke="midnightblue" d="M1897.72,-265.4C1700.19,-263.02 1051.64,-252.83 1021.31,-221 1013.81,-213.13 1021.95,-127.4 1025.31,-123 1025.75,-122.43 1092.5,-99.17 1134.96,-84.42"/>
<polygon fill="midnightblue" stroke="midnightblue" points="1136.36,-87.64 1144.65,-81.05 1134.06,-81.03 1136.36,-87.64"/>
</g>
<!-- Node112 -->
<g id="node9" class="node">
<title>Node112</title>
<g id="a_node9"><a xlink:title=" ">
<polygon fill="white" stroke="#bfbfbf" points="143.81,-56.5 143.81,-86.5 254.81,-86.5 254.81,-56.5 143.81,-56.5"/>
<text text-anchor="start" x="151.81" y="-74.5" font-family="Helvetica,sans-Serif" font-size="10.00">boost/preprocessor</text>
<text text-anchor="middle" x="199.31" y="-63.5" font-family="Helvetica,sans-Serif" font-size="10.00">/arithmetic/dec.hpp</text>
</a>
</g>
</g>
<!-- Node4&#45;&gt;Node112 -->
<g id="edge39" class="edge">
<title>Node4&#45;&gt;Node112</title>
<path fill="none" stroke="midnightblue" d="M1897.41,-266C1639.57,-265.79 587.28,-262.39 446.31,-221 356.29,-194.57 265.64,-127.19 223.56,-93.03"/>
<polygon fill="midnightblue" stroke="midnightblue" points="225.76,-90.31 215.81,-86.66 221.32,-95.71 225.76,-90.31"/>
</g>
<!-- Node119 -->
<g id="node10" class="node">
<title>Node119</title>
<g id="a_node10"><a xlink:title=" ">
<polygon fill="white" stroke="#bfbfbf" points="273.31,-56.5 273.31,-86.5 383.31,-86.5 383.31,-56.5 273.31,-56.5"/>
<text text-anchor="start" x="281.31" y="-74.5" font-family="Helvetica,sans-Serif" font-size="10.00">boost/preprocessor</text>
<text text-anchor="middle" x="328.31" y="-63.5" font-family="Helvetica,sans-Serif" font-size="10.00">/tuple/elem.hpp</text>
</a>
</g>
</g>
<!-- Node4&#45;&gt;Node119 -->
<g id="edge46" class="edge">
<title>Node4&#45;&gt;Node119</title>
<path fill="none" stroke="midnightblue" d="M1897.43,-266.23C1647.95,-266.95 657.08,-266.89 526.31,-221 451.24,-194.66 381.18,-128.74 348.16,-94.27"/>
<polygon fill="midnightblue" stroke="midnightblue" points="350.36,-91.5 340.95,-86.62 345.26,-96.3 350.36,-91.5"/>
</g>
<!-- Node150 -->
<g id="node11" class="node">
<title>Node150</title>
<g id="a_node11"><a xlink:title=" ">
<polygon fill="white" stroke="#bfbfbf" points="401.31,-62 401.31,-81 465.31,-81 465.31,-62 401.31,-62"/>
<text text-anchor="middle" x="433.31" y="-69" font-family="Helvetica,sans-Serif" font-size="10.00">algorithm</text>
</a>
</g>
</g>
<!-- Node4&#45;&gt;Node150 -->
<g id="edge50" class="edge">
<title>Node4&#45;&gt;Node150</title>
<path fill="none" stroke="midnightblue" d="M1897.49,-265.22C1647.53,-261.67 655.41,-246.05 594.31,-221 526.1,-193.04 468.87,-122.27 445.11,-89.56"/>
<polygon fill="midnightblue" stroke="midnightblue" points="447.71,-87.19 439.07,-81.06 442.01,-91.24 447.71,-87.19"/>
</g>
<!-- Node181 -->
<g id="node12" class="node">
<title>Node181</title>
<g id="a_node12"><a xlink:title=" ">
<polygon fill="white" stroke="#bfbfbf" points="483.31,-62 483.31,-81 527.31,-81 527.31,-62 483.31,-62"/>
<text text-anchor="middle" x="505.31" y="-69" font-family="Helvetica,sans-Serif" font-size="10.00">limits</text>
</a>
</g>
</g>
<!-- Node4&#45;&gt;Node181 -->
<g id="edge58" class="edge">
<title>Node4&#45;&gt;Node181</title>
<path fill="none" stroke="midnightblue" d="M1897.58,-266.4C1662.95,-267.73 775.18,-269.48 660.31,-221 593.75,-192.91 539.11,-122.2 516.51,-89.53"/>
<polygon fill="midnightblue" stroke="midnightblue" points="519.27,-87.37 510.77,-81.05 513.47,-91.29 519.27,-87.37"/>
</g>
<!-- Node189 -->
<g id="node13" class="node">
<title>Node189</title>
<g id="a_node13"><a xlink:title=" ">
<polygon fill="white" stroke="#bfbfbf" points="545.81,-62 545.81,-81 640.81,-81 640.81,-62 545.81,-62"/>
<text text-anchor="middle" x="593.31" y="-69" font-family="Helvetica,sans-Serif" font-size="10.00">boost/limits.hpp</text>
</a>
</g>
</g>
<!-- Node4&#45;&gt;Node189 -->
<g id="edge57" class="edge">
<title>Node4&#45;&gt;Node189</title>
<path fill="none" stroke="midnightblue" d="M1897.48,-265.22C1661.77,-261.81 770.86,-247.25 717.31,-221 659.61,-192.72 618.91,-123.79 602.01,-90.74"/>
<polygon fill="midnightblue" stroke="midnightblue" points="604.95,-88.78 597.37,-81.38 598.67,-91.89 604.95,-88.78"/>
</g>
<!-- Node192 -->
<g id="node14" class="node">
<title>Node192</title>
<g id="a_node14"><a xlink:title=" ">
<polygon fill="white" stroke="#bfbfbf" points="658.81,-62 658.81,-81 711.81,-81 711.81,-62 658.81,-62"/>
<text text-anchor="middle" x="685.31" y="-69" font-family="Helvetica,sans-Serif" font-size="10.00">limits.h</text>
</a>
</g>
</g>
<!-- Node4&#45;&gt;Node192 -->
<g id="edge59" class="edge">
<title>Node4&#45;&gt;Node192</title>
<path fill="none" stroke="midnightblue" d="M1897.68,-265.47C1666.94,-263.09 807.61,-252.17 759.31,-221 713.41,-191.38 694.91,-124.15 688.4,-91.29"/>
<polygon fill="midnightblue" stroke="midnightblue" points="691.8,-90.43 686.57,-81.22 684.91,-91.68 691.8,-90.43"/>
</g>
<!-- Node206 -->
<g id="node15" class="node">
<title>Node206</title>
<g id="a_node15"><a xlink:title=" ">
<polygon fill="white" stroke="#bfbfbf" points="729.81,-62 729.81,-81 794.81,-81 794.81,-62 729.81,-62"/>
<text text-anchor="middle" x="762.31" y="-69" font-family="Helvetica,sans-Serif" font-size="10.00">stdexcept</text>
</a>
</g>
</g>
<!-- Node4&#45;&gt;Node206 -->
<g id="edge64" class="edge">
<title>Node4&#45;&gt;Node206</title>
<path fill="none" stroke="midnightblue" d="M1897.8,-266.01C1683.31,-265.76 926.59,-261.95 827.31,-221 779.91,-201.45 762.94,-189.94 742.31,-143 734.66,-125.59 742.76,-104.47 750.83,-89.91"/>
<polygon fill="midnightblue" stroke="midnightblue" points="754.04,-91.38 756.22,-81.01 748.05,-87.75 754.04,-91.38"/>
</g>
<!-- Node208 -->
<g id="node16" class="node">
<title>Node208</title>
<g id="a_node16"><a xlink:title=" ">
<polygon fill="white" stroke="#bfbfbf" points="1220.31,-62 1220.31,-81 1264.31,-81 1264.31,-62 1220.31,-62"/>
<text text-anchor="middle" x="1242.31" y="-69" font-family="Helvetica,sans-Serif" font-size="10.00">string</text>
</a>
</g>
</g>
<!-- Node4&#45;&gt;Node208 -->
<g id="edge27" class="edge">
<title>Node4&#45;&gt;Node208</title>
<path fill="none" stroke="midnightblue" d="M1897.76,-265.13C1705,-261.91 1083.76,-249.37 1052.31,-221 1019.73,-191.61 1012.68,-157.09 1040.31,-123 1088.94,-63 1136.93,-111.08 1210.31,-87 1212.18,-86.39 1214.08,-85.7 1215.99,-84.96"/>
<polygon fill="midnightblue" stroke="midnightblue" points="1217.46,-88.14 1225.31,-81.03 1214.74,-81.69 1217.46,-88.14"/>
</g>
<!-- Node214 -->
<g id="node17" class="node">
<title>Node214</title>
<g id="a_node17"><a xlink:title=" ">
<polygon fill="white" stroke="#bfbfbf" points="850.81,-62 850.81,-81 999.81,-81 999.81,-62 850.81,-62"/>
<text text-anchor="middle" x="925.31" y="-69" font-family="Helvetica,sans-Serif" font-size="10.00">boost/throw_exception.hpp</text>
</a>
</g>
</g>
<!-- Node4&#45;&gt;Node214 -->
<g id="edge52" class="edge">
<title>Node4&#45;&gt;Node214</title>
<path fill="none" stroke="midnightblue" d="M1897.77,-266.47C1705.37,-267.64 1083.8,-267.74 1008.31,-221 960.69,-191.52 938.07,-124.22 929.55,-91.32"/>
<polygon fill="midnightblue" stroke="midnightblue" points="932.86,-90.13 927.1,-81.23 926.06,-91.77 932.86,-90.13"/>
</g>
<!-- Node215 -->
<g id="node18" class="node">
<title>Node215</title>
<g id="a_node18"><a xlink:title=" ">
<polygon fill="white" stroke="#bfbfbf" points="1017.81,-62 1017.81,-81 1118.81,-81 1118.81,-62 1017.81,-62"/>
<text text-anchor="middle" x="1068.31" y="-69" font-family="Helvetica,sans-Serif" font-size="10.00">boost/cstdint.hpp</text>
</a>
</g>
</g>
<!-- Node4&#45;&gt;Node215 -->
<g id="edge56" class="edge">
<title>Node4&#45;&gt;Node215</title>
<path fill="none" stroke="midnightblue" d="M1897.64,-265.42C1699.04,-263.11 1044.89,-253.08 1014.31,-221 1007.5,-213.86 1015.87,-128.38 1018.31,-123 1024.66,-108.99 1036.69,-96.65 1047.35,-87.68"/>
<polygon fill="midnightblue" stroke="midnightblue" points="1049.82,-90.19 1055.48,-81.23 1045.47,-84.7 1049.82,-90.19"/>
</g>
<!-- Node245 -->
<g id="node19" class="node">
<title>Node245</title>
<g id="a_node19"><a xlink:href="string_8hpp.html" target="_top" xlink:title="String class and operations.">
<polygon fill="white" stroke="black" points="1049.81,-123.5 1049.81,-142.5 1156.81,-142.5 1156.81,-123.5 1049.81,-123.5"/>
<text text-anchor="middle" x="1103.31" y="-130.5" font-family="Helvetica,sans-Serif" font-size="10.00">boost/ui/string.hpp</text>
</a>
</g>
</g>
<!-- Node4&#45;&gt;Node245 -->
<g id="edge21" class="edge">
<title>Node4&#45;&gt;Node245</title>
<path fill="none" stroke="midnightblue" d="M1897.63,-265.26C1705.92,-262.49 1092.11,-251.29 1063.31,-221 1050.45,-207.47 1056.68,-196.45 1063.31,-179 1067.64,-167.6 1076.34,-157.24 1084.52,-149.34"/>
<polygon fill="midnightblue" stroke="midnightblue" points="1086.95,-151.86 1092.04,-142.57 1082.27,-146.66 1086.95,-151.86"/>
</g>
<!-- Node246 -->
<g id="node20" class="node">
<title>Node246</title>
<g id="a_node20"><a xlink:title=" ">
<polygon fill="white" stroke="#bfbfbf" points="1398.81,-62 1398.81,-81 1481.81,-81 1481.81,-62 1398.81,-62"/>
<text text-anchor="middle" x="1440.31" y="-69" font-family="Helvetica,sans-Serif" font-size="10.00">initializer_list</text>
</a>
</g>
</g>
<!-- Node4&#45;&gt;Node246 -->
<g id="edge28" class="edge">
<title>Node4&#45;&gt;Node246</title>
<path fill="none" stroke="midnightblue" d="M1897.66,-266.49C1744.09,-267.25 1328.57,-265.14 1287.31,-221 1238.2,-168.47 1351.73,-110.15 1409.34,-85.08"/>
<polygon fill="midnightblue" stroke="midnightblue" points="1410.91,-88.21 1418.73,-81.07 1408.16,-81.78 1410.91,-88.21"/>
</g>
<!-- Node247 -->
<g id="node21" class="node">
<title>Node247</title>
<g id="a_node21"><a xlink:title=" ">
<polygon fill="white" stroke="#bfbfbf" points="1105.81,-190.5 1105.81,-209.5 1214.81,-209.5 1214.81,-190.5 1105.81,-190.5"/>
<text text-anchor="middle" x="1160.31" y="-197.5" font-family="Helvetica,sans-Serif" font-size="10.00">boost/ui/config.hpp</text>
</a>
</g>
</g>
<!-- Node4&#45;&gt;Node247 -->
<g id="edge26" class="edge">
<title>Node4&#45;&gt;Node247</title>
<path fill="none" stroke="midnightblue" d="M1897.41,-266.7C1774.48,-267.29 1475.32,-263.75 1229.31,-221 1217.83,-219.01 1205.54,-215.8 1194.56,-212.54"/>
<polygon fill="midnightblue" stroke="midnightblue" points="1195.5,-209.17 1184.91,-209.56 1193.43,-215.86 1195.5,-209.17"/>
</g>
<!-- Node248 -->
<g id="node22" class="node">
<title>Node248</title>
<g id="a_node22"><a xlink:href="event_8hpp.html" target="_top" xlink:title="Event classes.">
<polygon fill="white" stroke="black" points="4283.81,-190.5 4283.81,-209.5 4390.81,-209.5 4390.81,-190.5 4283.81,-190.5"/>
<text text-anchor="middle" x="4337.31" y="-197.5" font-family="Helvetica,sans-Serif" font-size="10.00">boost/ui/event.hpp</text>
</a>
</g>
</g>
<!-- Node4&#45;&gt;Node248 -->
<g id="edge30" class="edge">
<title>Node4&#45;&gt;Node248</title>
<path fill="none" stroke="midnightblue" d="M2010.87,-265.88C2344.16,-265.02 4045.01,-258.8 4274.31,-221 4284.92,-219.25 4296.21,-216.1 4306.26,-212.81"/>
<polygon fill="midnightblue" stroke="midnightblue" points="4307.5,-216.08 4315.82,-209.52 4305.23,-209.46 4307.5,-216.08"/>
</g>
<!-- Node249 -->
<g id="node23" class="node">
<title>Node249</title>
<g id="a_node23"><a xlink:title=" ">
<polygon fill="white" stroke="#bfbfbf" points="3432.81,-123.5 3432.81,-142.5 3539.81,-142.5 3539.81,-123.5 3432.81,-123.5"/>
<text text-anchor="middle" x="3486.31" y="-130.5" font-family="Helvetica,sans-Serif" font-size="10.00">boost/function.hpp</text>
</a>
</g>
</g>
<!-- Node4&#45;&gt;Node249 -->
<g id="edge35" class="edge">
<title>Node4&#45;&gt;Node249</title>
<path fill="none" stroke="midnightblue" d="M1897.67,-266.41C1746.22,-266.92 1340.65,-264.21 1300.31,-221 1287.57,-207.36 1287.25,-192.33 1300.31,-179 1338.43,-140.09 3066.72,-134.78 3422.63,-134.1"/>
<polygon fill="midnightblue" stroke="midnightblue" points="3422.76,-137.6 3432.75,-134.08 3422.75,-130.6 3422.76,-137.6"/>
</g>
<!-- Node250 -->
<g id="node24" class="node">
<title>Node250</title>
<g id="a_node24"><a xlink:title=" ">
<polygon fill="white" stroke="#bfbfbf" points="1309.81,-190.5 1309.81,-209.5 1416.81,-209.5 1416.81,-190.5 1309.81,-190.5"/>
<text text-anchor="middle" x="1363.31" y="-197.5" font-family="Helvetica,sans-Serif" font-size="10.00">boost/ui/coord.hpp</text>
</a>
</g>
</g>
<!-- Node4&#45;&gt;Node250 -->
<g id="edge34" class="edge">
<title>Node4&#45;&gt;Node250</title>
<path fill="none" stroke="midnightblue" d="M1897.47,-265.28C1800.09,-263.14 1595.5,-254.63 1426.31,-221 1416.2,-218.99 1405.43,-215.93 1395.71,-212.8"/>
<polygon fill="midnightblue" stroke="midnightblue" points="1396.62,-209.42 1386.03,-209.56 1394.4,-216.06 1396.62,-209.42"/>
</g>
<!-- Node251 -->
<g id="node25" class="node">
<title>Node251</title>
<g id="a_node25"><a xlink:title=" ">
<polygon fill="white" stroke="#bfbfbf" points="1435.31,-179.5 1435.31,-220.5 1553.31,-220.5 1553.31,-179.5 1435.31,-179.5"/>
<text text-anchor="start" x="1443.31" y="-208.5" font-family="Helvetica,sans-Serif" font-size="10.00">/media/disk4_1/work</text>
<text text-anchor="start" x="1443.31" y="-197.5" font-family="Helvetica,sans-Serif" font-size="10.00">/code/ui/boost/boost</text>
<text text-anchor="middle" x="1494.31" y="-186.5" font-family="Helvetica,sans-Serif" font-size="10.00">/functional</text>
</a>
</g>
</g>
<!-- Node4&#45;&gt;Node251 -->
<g id="edge36" class="edge">
<title>Node4&#45;&gt;Node251</title>
<path fill="none" stroke="midnightblue" d="M1897.68,-262.56C1823.06,-257.36 1687.68,-245.58 1563.56,-221.08"/>
<polygon fill="midnightblue" stroke="midnightblue" points="1563.99,-217.6 1553.5,-219.06 1562.61,-224.46 1563.99,-217.6"/>
</g>
<!-- Node252 -->
<g id="node26" class="node">
<title>Node252</title>
<g id="a_node26"><a xlink:title=" ">
<polygon fill="white" stroke="#bfbfbf" points="1571.31,-185 1571.31,-215 1681.31,-215 1681.31,-185 1571.31,-185"/>
<text text-anchor="start" x="1579.31" y="-203" font-family="Helvetica,sans-Serif" font-size="10.00">boost/preprocessor</text>
<text text-anchor="middle" x="1626.31" y="-192" font-family="Helvetica,sans-Serif" font-size="10.00">/iterate.hpp</text>
</a>
</g>
</g>
<!-- Node4&#45;&gt;Node252 -->
<g id="edge37" class="edge">
<title>Node4&#45;&gt;Node252</title>
<path fill="none" stroke="midnightblue" d="M1897.73,-258.6C1843.97,-251.03 1761.06,-238 1690.31,-221 1686.41,-220.06 1682.4,-219.02 1678.38,-217.9"/>
<polygon fill="midnightblue" stroke="midnightblue" points="1679.01,-214.44 1668.43,-215.04 1677.07,-221.17 1679.01,-214.44"/>
</g>
<!-- Node253 -->
<g id="node27" class="node">
<title>Node253</title>
<g id="a_node27"><a xlink:title=" ">
<polygon fill="white" stroke="#bfbfbf" points="1699.81,-185 1699.81,-215 1816.81,-215 1816.81,-185 1699.81,-185"/>
<text text-anchor="start" x="1707.81" y="-203" font-family="Helvetica,sans-Serif" font-size="10.00">boost/preprocessor</text>
<text text-anchor="middle" x="1758.31" y="-192" font-family="Helvetica,sans-Serif" font-size="10.00">/iteration/iterate.hpp</text>
</a>
</g>
</g>
<!-- Node4&#45;&gt;Node253 -->
<g id="edge38" class="edge">
<title>Node4&#45;&gt;Node253</title>
<path fill="none" stroke="midnightblue" d="M1928.28,-257.37C1898.36,-247.45 1848.5,-230.91 1810.49,-218.31"/>
<polygon fill="midnightblue" stroke="midnightblue" points="1811.2,-214.85 1800.61,-215.03 1809,-221.5 1811.2,-214.85"/>
</g>
<!-- Node254 -->
<g id="node28" class="node">
<title>Node254</title>
<g id="a_node28"><a xlink:title=" ">
<polygon fill="white" stroke="#bfbfbf" points="1835.31,-185 1835.31,-215 1945.31,-215 1945.31,-185 1835.31,-185"/>
<text text-anchor="start" x="1843.31" y="-203" font-family="Helvetica,sans-Serif" font-size="10.00">boost/preprocessor</text>
<text text-anchor="middle" x="1890.31" y="-192" font-family="Helvetica,sans-Serif" font-size="10.00">/arithmetic/inc.hpp</text>
</a>
</g>
</g>
<!-- Node4&#45;&gt;Node254 -->
<g id="edge40" class="edge">
<title>Node4&#45;&gt;Node254</title>
<path fill="none" stroke="midnightblue" d="M1945.68,-257.23C1936.95,-248.36 1923.11,-234.31 1911.45,-222.47"/>
<polygon fill="midnightblue" stroke="midnightblue" points="1913.69,-219.76 1904.18,-215.09 1908.7,-224.67 1913.69,-219.76"/>
</g>
<!-- Node255 -->
<g id="node29" class="node">
<title>Node255</title>
<g id="a_node29"><a xlink:title=" ">
<polygon fill="white" stroke="#bfbfbf" points="1963.31,-185 1963.31,-215 2073.31,-215 2073.31,-185 1963.31,-185"/>
<text text-anchor="start" x="1971.31" y="-203" font-family="Helvetica,sans-Serif" font-size="10.00">boost/preprocessor</text>
<text text-anchor="middle" x="2018.31" y="-192" font-family="Helvetica,sans-Serif" font-size="10.00">/array/elem.hpp</text>
</a>
</g>
</g>
<!-- Node4&#45;&gt;Node255 -->
<g id="edge41" class="edge">
<title>Node4&#45;&gt;Node255</title>
<path fill="none" stroke="midnightblue" d="M1962.94,-257.23C1971.67,-248.36 1985.51,-234.31 1997.17,-222.47"/>
<polygon fill="midnightblue" stroke="midnightblue" points="1999.92,-224.67 2004.44,-215.09 1994.93,-219.76 1999.92,-224.67"/>
</g>
<!-- Node256 -->
<g id="node30" class="node">
<title>Node256</title>
<g id="a_node30"><a xlink:title=" ">
<polygon fill="white" stroke="#bfbfbf" points="2091.31,-185 2091.31,-215 2201.31,-215 2201.31,-185 2091.31,-185"/>
<text text-anchor="start" x="2099.31" y="-203" font-family="Helvetica,sans-Serif" font-size="10.00">boost/preprocessor</text>
<text text-anchor="middle" x="2146.31" y="-192" font-family="Helvetica,sans-Serif" font-size="10.00">/array/size.hpp</text>
</a>
</g>
</g>
<!-- Node4&#45;&gt;Node256 -->
<g id="edge42" class="edge">
<title>Node4&#45;&gt;Node256</title>
<path fill="none" stroke="midnightblue" d="M1979.81,-257.37C2009.11,-247.45 2057.96,-230.91 2095.19,-218.31"/>
<polygon fill="midnightblue" stroke="midnightblue" points="2096.52,-221.55 2104.87,-215.03 2094.28,-214.92 2096.52,-221.55"/>
</g>
<!-- Node257 -->
<g id="node31" class="node">
<title>Node257</title>
<g id="a_node31"><a xlink:title=" ">
<polygon fill="white" stroke="#bfbfbf" points="2219.31,-185 2219.31,-215 2329.31,-215 2329.31,-185 2219.31,-185"/>
<text text-anchor="start" x="2227.31" y="-203" font-family="Helvetica,sans-Serif" font-size="10.00">boost/preprocessor</text>
<text text-anchor="middle" x="2274.31" y="-192" font-family="Helvetica,sans-Serif" font-size="10.00">/slot/slot.hpp</text>
</a>
</g>
</g>
<!-- Node4&#45;&gt;Node257 -->
<g id="edge44" class="edge">
<title>Node4&#45;&gt;Node257</title>
<path fill="none" stroke="midnightblue" d="M2010.93,-258.19C2063.09,-250.49 2142.45,-237.49 2210.31,-221 2214.21,-220.05 2218.21,-219 2222.23,-217.88"/>
<polygon fill="midnightblue" stroke="midnightblue" points="2223.54,-221.15 2232.18,-215.01 2221.6,-214.42 2223.54,-221.15"/>
</g>
<!-- Node258 -->
<g id="node32" class="node">
<title>Node258</title>
<g id="a_node32"><a xlink:title=" ">
<polygon fill="white" stroke="#bfbfbf" points="2347.31,-185 2347.31,-215 2457.31,-215 2457.31,-185 2347.31,-185"/>
<text text-anchor="start" x="2355.31" y="-203" font-family="Helvetica,sans-Serif" font-size="10.00">boost/preprocessor</text>
<text text-anchor="middle" x="2402.31" y="-192" font-family="Helvetica,sans-Serif" font-size="10.00">/slot/detail/def.hpp</text>
</a>
</g>
</g>
<!-- Node4&#45;&gt;Node258 -->
<g id="edge45" class="edge">
<title>Node4&#45;&gt;Node258</title>
<path fill="none" stroke="midnightblue" d="M2011.13,-262.66C2086.55,-257.47 2223.58,-245.43 2338.31,-221 2342.65,-220.08 2347.13,-218.98 2351.59,-217.79"/>
<polygon fill="midnightblue" stroke="midnightblue" points="2352.62,-221.14 2361.3,-215.05 2350.72,-214.4 2352.62,-221.14"/>
</g>
<!-- Node259 -->
<g id="node33" class="node">
<title>Node259</title>
<g id="a_node33"><a xlink:title=" ">
<polygon fill="white" stroke="#bfbfbf" points="2475.81,-190.5 2475.81,-209.5 2632.81,-209.5 2632.81,-190.5 2475.81,-190.5"/>
<text text-anchor="middle" x="2554.31" y="-197.5" font-family="Helvetica,sans-Serif" font-size="10.00">boost/config/workaround.hpp</text>
</a>
</g>
</g>
<!-- Node4&#45;&gt;Node259 -->
<g id="edge47" class="edge">
<title>Node4&#45;&gt;Node259</title>
<path fill="none" stroke="midnightblue" d="M2011.06,-263.53C2105.83,-258.85 2302.12,-246.75 2466.31,-221 2481.13,-218.68 2497.18,-215.29 2511.46,-211.97"/>
<polygon fill="midnightblue" stroke="midnightblue" points="2512.59,-215.3 2521.5,-209.57 2510.96,-208.49 2512.59,-215.3"/>
</g>
<!-- Node260 -->
<g id="node34" class="node">
<title>Node260</title>
<g id="a_node34"><a xlink:title=" ">
<polygon fill="white" stroke="#bfbfbf" points="2650.81,-185 2650.81,-215 2767.81,-215 2767.81,-185 2650.81,-185"/>
<text text-anchor="start" x="2658.81" y="-203" font-family="Helvetica,sans-Serif" font-size="10.00">boost/function/detail</text>
<text text-anchor="middle" x="2709.31" y="-192" font-family="Helvetica,sans-Serif" font-size="10.00">/prologue.hpp</text>
</a>
</g>
</g>
<!-- Node4&#45;&gt;Node260 -->
<g id="edge48" class="edge">
<title>Node4&#45;&gt;Node260</title>
<path fill="none" stroke="midnightblue" d="M2010.92,-266.49C2129.05,-266.6 2410.06,-262.06 2641.31,-221 2646.4,-220.1 2651.66,-218.95 2656.89,-217.66"/>
<polygon fill="midnightblue" stroke="midnightblue" points="2658.07,-220.97 2666.85,-215.05 2656.29,-214.2 2658.07,-220.97"/>
</g>
<!-- Node261 -->
<g id="node35" class="node">
<title>Node261</title>
<g id="a_node35"><a xlink:title=" ">
<polygon fill="white" stroke="#bfbfbf" points="2786.31,-190.5 2786.31,-209.5 2838.31,-209.5 2838.31,-190.5 2786.31,-190.5"/>
<text text-anchor="middle" x="2812.31" y="-197.5" font-family="Helvetica,sans-Serif" font-size="10.00">cassert</text>
</a>
</g>
</g>
<!-- Node4&#45;&gt;Node261 -->
<g id="edge49" class="edge">
<title>Node4&#45;&gt;Node261</title>
<path fill="none" stroke="midnightblue" d="M2011,-266.19C2172.45,-266.22 2632.29,-262.55 2776.31,-221 2781.5,-219.5 2786.76,-217.15 2791.6,-214.57"/>
<polygon fill="midnightblue" stroke="midnightblue" points="2793.39,-217.58 2800.26,-209.51 2789.86,-211.53 2793.39,-217.58"/>
</g>
<!-- Node262 -->
<g id="node36" class="node">
<title>Node262</title>
<g id="a_node36"><a xlink:title=" ">
<polygon fill="white" stroke="#bfbfbf" points="2856.31,-185 2856.31,-215 2966.31,-215 2966.31,-185 2856.31,-185"/>
<text text-anchor="start" x="2864.31" y="-203" font-family="Helvetica,sans-Serif" font-size="10.00">boost/config/no_tr1</text>
<text text-anchor="middle" x="2911.31" y="-192" font-family="Helvetica,sans-Serif" font-size="10.00">/functional.hpp</text>
</a>
</g>
</g>
<!-- Node4&#45;&gt;Node262 -->
<g id="edge51" class="edge">
<title>Node4&#45;&gt;Node262</title>
<path fill="none" stroke="midnightblue" d="M2010.93,-265.01C2181.01,-261.76 2685.61,-249.86 2847.31,-221 2852.07,-220.15 2856.98,-219.05 2861.85,-217.8"/>
<polygon fill="midnightblue" stroke="midnightblue" points="2863.05,-221.1 2871.75,-215.06 2861.18,-214.35 2863.05,-221.1"/>
</g>
<!-- Node263 -->
<g id="node37" class="node">
<title>Node263</title>
<g id="a_node37"><a xlink:title=" ">
<polygon fill="white" stroke="#bfbfbf" points="2984.31,-185 2984.31,-215 3096.31,-215 3096.31,-185 2984.31,-185"/>
<text text-anchor="start" x="2992.31" y="-203" font-family="Helvetica,sans-Serif" font-size="10.00">boost/assert/source</text>
<text text-anchor="middle" x="3040.31" y="-192" font-family="Helvetica,sans-Serif" font-size="10.00">_location.hpp</text>
</a>
</g>
</g>
<!-- Node4&#45;&gt;Node263 -->
<g id="edge53" class="edge">
<title>Node4&#45;&gt;Node263</title>
<path fill="none" stroke="midnightblue" d="M2011,-265.4C2197.02,-263.12 2787.69,-253.45 2975.31,-221 2980.27,-220.14 2985.39,-219.01 2990.46,-217.73"/>
<polygon fill="midnightblue" stroke="midnightblue" points="2991.4,-221.1 3000.13,-215.1 2989.56,-214.35 2991.4,-221.1"/>
</g>
<!-- Node264 -->
<g id="node38" class="node">
<title>Node264</title>
<g id="a_node38"><a xlink:title=" ">
<polygon fill="white" stroke="#bfbfbf" points="3114.81,-190.5 3114.81,-209.5 3261.81,-209.5 3261.81,-190.5 3114.81,-190.5"/>
<text text-anchor="middle" x="3188.31" y="-197.5" font-family="Helvetica,sans-Serif" font-size="10.00">boost/current_function.hpp</text>
</a>
</g>
</g>
<!-- Node4&#45;&gt;Node264 -->
<g id="edge54" class="edge">
<title>Node4&#45;&gt;Node264</title>
<path fill="none" stroke="midnightblue" d="M2011,-265.26C2212.03,-262.43 2890.26,-250.81 3105.31,-221 3119.7,-219 3135.24,-215.61 3148.94,-212.17"/>
<polygon fill="midnightblue" stroke="midnightblue" points="3150.2,-215.46 3159,-209.56 3148.44,-208.68 3150.2,-215.46"/>
</g>
<!-- Node265 -->
<g id="node39" class="node">
<title>Node265</title>
<g id="a_node39"><a xlink:title=" ">
<polygon fill="white" stroke="#bfbfbf" points="3280.31,-190.5 3280.31,-209.5 3328.31,-209.5 3328.31,-190.5 3280.31,-190.5"/>
<text text-anchor="middle" x="3304.31" y="-197.5" font-family="Helvetica,sans-Serif" font-size="10.00">iosfwd</text>
</a>
</g>
</g>
<!-- Node4&#45;&gt;Node265 -->
<g id="edge60" class="edge">
<title>Node4&#45;&gt;Node265</title>
<path fill="none" stroke="midnightblue" d="M2010.94,-265.71C2247.28,-264.26 3148.41,-256.44 3270.31,-221 3275.15,-219.59 3280.02,-217.34 3284.5,-214.85"/>
<polygon fill="midnightblue" stroke="midnightblue" points="3286.35,-217.81 3293.02,-209.58 3282.67,-211.86 3286.35,-217.81"/>
</g>
<!-- Node266 -->
<g id="node40" class="node">
<title>Node266</title>
<g id="a_node40"><a xlink:title=" ">
<polygon fill="white" stroke="#bfbfbf" points="3346.31,-179.5 3346.31,-220.5 3464.31,-220.5 3464.31,-179.5 3346.31,-179.5"/>
<text text-anchor="start" x="3354.31" y="-208.5" font-family="Helvetica,sans-Serif" font-size="10.00">/media/disk4_1/work</text>
<text text-anchor="start" x="3354.31" y="-197.5" font-family="Helvetica,sans-Serif" font-size="10.00">/code/ui/boost/boost</text>
<text text-anchor="middle" x="3405.31" y="-186.5" font-family="Helvetica,sans-Serif" font-size="10.00">/exception</text>
</a>
</g>
</g>
<!-- Node4&#45;&gt;Node266 -->
<g id="edge61" class="edge">
<title>Node4&#45;&gt;Node266</title>
<path fill="none" stroke="midnightblue" d="M2010.86,-266.07C2234.1,-266.04 3055.13,-263.13 3336.01,-220.93"/>
<polygon fill="midnightblue" stroke="midnightblue" points="3336.83,-224.35 3346.18,-219.35 3335.76,-217.43 3336.83,-224.35"/>
</g>
<!-- Node267 -->
<g id="node41" class="node">
<title>Node267</title>
<g id="a_node41"><a xlink:title=" ">
<polygon fill="white" stroke="#bfbfbf" points="3482.81,-190.5 3482.81,-209.5 3649.81,-209.5 3649.81,-190.5 3482.81,-190.5"/>
<text text-anchor="middle" x="3566.31" y="-197.5" font-family="Helvetica,sans-Serif" font-size="10.00">boost/exception/exception.hpp</text>
</a>
</g>
</g>
<!-- Node4&#45;&gt;Node267 -->
<g id="edge62" class="edge">
<title>Node4&#45;&gt;Node267</title>
<path fill="none" stroke="midnightblue" d="M2010.97,-265.7C2250.64,-264.24 3182.1,-256.33 3473.31,-221 3489.99,-218.98 3508.09,-215.4 3523.86,-211.83"/>
<polygon fill="midnightblue" stroke="midnightblue" points="3524.9,-215.18 3533.85,-209.5 3523.31,-208.37 3524.9,-215.18"/>
</g>
<!-- Node268 -->
<g id="node42" class="node">
<title>Node268</title>
<g id="a_node42"><a xlink:title=" ">
<polygon fill="white" stroke="#bfbfbf" points="3667.81,-185 3667.81,-215 3796.81,-215 3796.81,-185 3667.81,-185"/>
<text text-anchor="start" x="3675.81" y="-203" font-family="Helvetica,sans-Serif" font-size="10.00">boost/function/function</text>
<text text-anchor="middle" x="3732.31" y="-192" font-family="Helvetica,sans-Serif" font-size="10.00">_base.hpp</text>
</a>
</g>
</g>
<!-- Node4&#45;&gt;Node268 -->
<g id="edge63" class="edge">
<title>Node4&#45;&gt;Node268</title>
<path fill="none" stroke="midnightblue" d="M2010.86,-266.31C2268.15,-267.44 3329.8,-269.03 3658.31,-221 3664.45,-220.1 3670.8,-218.87 3677.09,-217.45"/>
<polygon fill="midnightblue" stroke="midnightblue" points="3677.97,-220.84 3686.88,-215.1 3676.33,-214.03 3677.97,-220.84"/>
</g>
<!-- Node269 -->
<g id="node43" class="node">
<title>Node269</title>
<g id="a_node43"><a xlink:title=" ">
<polygon fill="white" stroke="#bfbfbf" points="3815.31,-190.5 3815.31,-209.5 3873.31,-209.5 3873.31,-190.5 3815.31,-190.5"/>
<text text-anchor="middle" x="3844.31" y="-197.5" font-family="Helvetica,sans-Serif" font-size="10.00">memory</text>
</a>
</g>
</g>
<!-- Node4&#45;&gt;Node269 -->
<g id="edge65" class="edge">
<title>Node4&#45;&gt;Node269</title>
<path fill="none" stroke="midnightblue" d="M2010.96,-266.13C2302.6,-266.57 3628.03,-266.09 3805.31,-221 3811.02,-219.55 3816.85,-217.14 3822.2,-214.49"/>
<polygon fill="midnightblue" stroke="midnightblue" points="3824.07,-217.46 3831.19,-209.61 3820.73,-211.31 3824.07,-217.46"/>
</g>
<!-- Node270 -->
<g id="node44" class="node">
<title>Node270</title>
<g id="a_node44"><a xlink:title=" ">
<polygon fill="white" stroke="#bfbfbf" points="3891.81,-190.5 3891.81,-209.5 3928.81,-209.5 3928.81,-190.5 3891.81,-190.5"/>
<text text-anchor="middle" x="3910.31" y="-197.5" font-family="Helvetica,sans-Serif" font-size="10.00">new</text>
</a>
</g>
</g>
<!-- Node4&#45;&gt;Node270 -->
<g id="edge66" class="edge">
<title>Node4&#45;&gt;Node270</title>
<path fill="none" stroke="midnightblue" d="M2010.84,-265.62C2319.57,-263.41 3791.36,-251.32 3882.31,-221 3886.04,-219.76 3889.71,-217.83 3893.09,-215.65"/>
<polygon fill="midnightblue" stroke="midnightblue" points="3895.31,-218.37 3901.26,-209.6 3891.14,-212.74 3895.31,-218.37"/>
</g>
<!-- Node271 -->
<g id="node45" class="node">
<title>Node271</title>
<g id="a_node45"><a xlink:title=" ">
<polygon fill="white" stroke="#bfbfbf" points="3947.31,-190.5 3947.31,-209.5 4003.31,-209.5 4003.31,-190.5 3947.31,-190.5"/>
<text text-anchor="middle" x="3975.31" y="-197.5" font-family="Helvetica,sans-Serif" font-size="10.00">assert.h</text>
</a>
</g>
</g>
<!-- Node4&#45;&gt;Node271 -->
<g id="edge68" class="edge">
<title>Node4&#45;&gt;Node271</title>
<path fill="none" stroke="midnightblue" d="M2010.95,-266.26C2314.99,-267.45 3746.78,-270.38 3937.31,-221 3942.9,-219.55 3948.59,-217.15 3953.81,-214.5"/>
<polygon fill="midnightblue" stroke="midnightblue" points="3955.53,-217.55 3962.56,-209.62 3952.12,-211.43 3955.53,-217.55"/>
</g>
<!-- Node272 -->
<g id="node46" class="node">
<title>Node272</title>
<g id="a_node46"><a xlink:title=" ">
<polygon fill="white" stroke="#bfbfbf" points="4021.81,-190.5 4021.81,-209.5 4122.81,-209.5 4122.81,-190.5 4021.81,-190.5"/>
<text text-anchor="middle" x="4072.31" y="-197.5" font-family="Helvetica,sans-Serif" font-size="10.00">boost/integer.hpp</text>
</a>
</g>
</g>
<!-- Node4&#45;&gt;Node272 -->
<g id="edge69" class="edge">
<title>Node4&#45;&gt;Node272</title>
<path fill="none" stroke="midnightblue" d="M2010.92,-265.77C2321.38,-264.4 3810.61,-256 4012.31,-221 4022.24,-219.28 4032.76,-216.22 4042.18,-213"/>
<polygon fill="midnightblue" stroke="midnightblue" points="4043.66,-216.19 4051.88,-209.51 4041.28,-209.6 4043.66,-216.19"/>
</g>
<!-- Node273 -->
<g id="node47" class="node">
<title>Node273</title>
<g id="a_node47"><a xlink:title=" ">
<polygon fill="white" stroke="#bfbfbf" points="4140.81,-190.5 4140.81,-209.5 4265.81,-209.5 4265.81,-190.5 4140.81,-190.5"/>
<text text-anchor="middle" x="4203.31" y="-197.5" font-family="Helvetica,sans-Serif" font-size="10.00">boost/integer_fwd.hpp</text>
</a>
</g>
</g>
<!-- Node4&#45;&gt;Node273 -->
<g id="edge70" class="edge">
<title>Node4&#45;&gt;Node273</title>
<path fill="none" stroke="midnightblue" d="M2010.98,-265.68C2332.1,-263.73 3916.36,-252.56 4131.31,-221 4143.72,-219.18 4157.02,-215.88 4168.78,-212.48"/>
<polygon fill="midnightblue" stroke="midnightblue" points="4170.09,-215.74 4178.65,-209.5 4168.06,-209.04 4170.09,-215.74"/>
</g>
<!-- Node4&#45;&gt;Node334 -->
<g id="edge71" class="edge">
<title>Node4&#45;&gt;Node334</title>
<path fill="none" stroke="midnightblue" d="M2011.02,-265.79C2357.89,-264.43 4186.53,-255.62 4433.31,-221 4439.62,-220.12 4446.15,-218.88 4452.61,-217.44"/>
<polygon fill="midnightblue" stroke="midnightblue" points="4453.74,-220.77 4462.66,-215.05 4452.12,-213.96 4453.74,-220.77"/>
</g>
<!-- Node4&#45;&gt;Node335 -->
<g id="edge72" class="edge">
<title>Node4&#45;&gt;Node335</title>
<path fill="none" stroke="midnightblue" d="M2010.81,-265.82C2368.91,-264.6 4316.07,-256.37 4578.31,-221 4591.97,-219.16 4606.69,-215.77 4619.61,-212.29"/>
<polygon fill="midnightblue" stroke="midnightblue" points="4620.85,-215.58 4629.54,-209.52 4618.97,-208.84 4620.85,-215.58"/>
</g>
<!-- Node5&#45;&gt;Node2 -->
<g id="edge6" class="edge">
<title>Node5&#45;&gt;Node2</title>
<path fill="none" stroke="midnightblue" d="M858.97,-129.77C906.6,-127.82 978.08,-125.02 1040.31,-123 1762.38,-99.6 2638.66,-79.38 2880.71,-73.94"/>
<polygon fill="midnightblue" stroke="midnightblue" points="2880.83,-77.43 2890.75,-73.71 2880.67,-70.44 2880.83,-77.43"/>
</g>
<!-- Node5&#45;&gt;Node3 -->
<g id="edge7" class="edge">
<title>Node5&#45;&gt;Node3</title>
<path fill="none" stroke="midnightblue" d="M806.6,-123.3C809.51,-103.76 816.61,-56.06 820.55,-29.55"/>
<polygon fill="midnightblue" stroke="midnightblue" points="824.02,-30.03 822.03,-19.62 817.09,-29 824.02,-30.03"/>
</g>
<!-- Node5&#45;&gt;Node22 -->
<g id="edge8" class="edge">
<title>Node5&#45;&gt;Node22</title>
<path fill="none" stroke="midnightblue" d="M859,-129.45C946.36,-124.71 1124.49,-112.61 1273.31,-87 1279.08,-86.01 1285.12,-84.75 1291.03,-83.39"/>
<polygon fill="midnightblue" stroke="midnightblue" points="1291.89,-86.78 1300.79,-81.04 1290.25,-79.98 1291.89,-86.78"/>
</g>
<!-- Node5&#45;&gt;Node86 -->
<g id="edge9" class="edge">
<title>Node5&#45;&gt;Node86</title>
<path fill="none" stroke="midnightblue" d="M751.52,-131.23C638.88,-129.01 369.95,-120.5 135.45,-87"/>
<polygon fill="midnightblue" stroke="midnightblue" points="135.76,-83.51 125.37,-85.55 134.76,-90.44 135.76,-83.51"/>
</g>
<!-- Node5&#45;&gt;Node105 -->
<g id="edge10" class="edge">
<title>Node5&#45;&gt;Node105</title>
<path fill="none" stroke="midnightblue" d="M858.89,-127.71C923.28,-121.82 1034.28,-109.34 1127.31,-87 1130.53,-86.23 1133.86,-85.3 1137.16,-84.3"/>
<polygon fill="midnightblue" stroke="midnightblue" points="1138.45,-87.56 1146.88,-81.14 1136.29,-80.91 1138.45,-87.56"/>
</g>
<!-- Node5&#45;&gt;Node112 -->
<g id="edge11" class="edge">
<title>Node5&#45;&gt;Node112</title>
<path fill="none" stroke="midnightblue" d="M751.66,-129.97C655.92,-125.81 449.21,-114.44 265.03,-86.95"/>
<polygon fill="midnightblue" stroke="midnightblue" points="265.3,-83.46 254.88,-85.42 264.25,-90.38 265.3,-83.46"/>
</g>
<!-- Node5&#45;&gt;Node119 -->
<g id="edge12" class="edge">
<title>Node5&#45;&gt;Node119</title>
<path fill="none" stroke="midnightblue" d="M751.58,-128.12C674.45,-122.11 527.74,-109.07 393.45,-87.07"/>
<polygon fill="midnightblue" stroke="midnightblue" points="393.83,-83.58 383.39,-85.4 392.68,-90.49 393.83,-83.58"/>
</g>
<!-- Node5&#45;&gt;Node150 -->
<g id="edge13" class="edge">
<title>Node5&#45;&gt;Node150</title>
<path fill="none" stroke="midnightblue" d="M751.66,-128.1C685.66,-122.54 570.55,-110.3 474.31,-87 471.08,-86.22 467.75,-85.28 464.45,-84.25"/>
<polygon fill="midnightblue" stroke="midnightblue" points="465.36,-80.87 454.76,-81.02 463.14,-87.51 465.36,-80.87"/>
</g>
<!-- Node5&#45;&gt;Node181 -->
<g id="edge14" class="edge">
<title>Node5&#45;&gt;Node181</title>
<path fill="none" stroke="midnightblue" d="M751.74,-127.36C696.73,-121.61 609.1,-109.65 536.31,-87 534.44,-86.42 532.53,-85.74 530.64,-85.01"/>
<polygon fill="midnightblue" stroke="midnightblue" points="531.96,-81.77 521.39,-81.03 529.19,-88.2 531.96,-81.77"/>
</g>
<!-- Node5&#45;&gt;Node189 -->
<g id="edge15" class="edge">
<title>Node5&#45;&gt;Node189</title>
<path fill="none" stroke="midnightblue" d="M774.94,-123.48C737.7,-113.03 674.5,-95.29 633.33,-83.73"/>
<polygon fill="midnightblue" stroke="midnightblue" points="634.2,-80.34 623.63,-81.01 632.31,-87.08 634.2,-80.34"/>
</g>
<!-- Node5&#45;&gt;Node192 -->
<g id="edge16" class="edge">
<title>Node5&#45;&gt;Node192</title>
<path fill="none" stroke="midnightblue" d="M788.12,-123.48C768.07,-113.53 734.71,-96.99 711.45,-85.46"/>
<polygon fill="midnightblue" stroke="midnightblue" points="712.98,-82.32 702.47,-81.01 709.88,-88.59 712.98,-82.32"/>
</g>
<!-- Node5&#45;&gt;Node206 -->
<g id="edge17" class="edge">
<title>Node5&#45;&gt;Node206</title>
<path fill="none" stroke="midnightblue" d="M799.15,-123.48C792.7,-114.55 782.41,-100.31 774.34,-89.14"/>
<polygon fill="midnightblue" stroke="midnightblue" points="777.15,-87.06 768.46,-81.01 771.48,-91.16 777.15,-87.06"/>
</g>
<!-- Node5&#45;&gt;Node208 -->
<g id="edge18" class="edge">
<title>Node5&#45;&gt;Node208</title>
<path fill="none" stroke="midnightblue" d="M858.89,-128.15C953.3,-121.01 1145.42,-104.82 1210.31,-87 1212.46,-86.41 1214.65,-85.69 1216.82,-84.9"/>
<polygon fill="midnightblue" stroke="midnightblue" points="1218.18,-88.12 1226.07,-81.05 1215.49,-81.66 1218.18,-88.12"/>
</g>
<!-- Node5&#45;&gt;Node214 -->
<g id="edge19" class="edge">
<title>Node5&#45;&gt;Node214</title>
<path fill="none" stroke="midnightblue" d="M822.5,-123.48C842.55,-113.53 875.91,-96.99 899.17,-85.46"/>
<polygon fill="midnightblue" stroke="midnightblue" points="900.74,-88.59 908.15,-81.01 897.63,-82.32 900.74,-88.59"/>
</g>
<!-- Node5&#45;&gt;Node215 -->
<g id="edge20" class="edge">
<title>Node5&#45;&gt;Node215</title>
<path fill="none" stroke="midnightblue" d="M845.04,-123.43C886,-114.53 951.69,-100.12 1008.31,-87 1013.27,-85.85 1018.46,-84.63 1023.62,-83.4"/>
<polygon fill="midnightblue" stroke="midnightblue" points="1024.53,-86.78 1033.44,-81.05 1022.9,-79.97 1024.53,-86.78"/>
</g>
<!-- Node245&#45;&gt;Node2 -->
<g id="edge22" class="edge">
<title>Node245&#45;&gt;Node2</title>
<path fill="none" stroke="midnightblue" d="M1156.94,-130.27C1422.02,-121.71 2591,-83.95 2880.35,-74.6"/>
<polygon fill="midnightblue" stroke="midnightblue" points="2880.79,-78.09 2890.67,-74.26 2880.57,-71.09 2880.79,-78.09"/>
</g>
<!-- Node245&#45;&gt;Node105 -->
<g id="edge25" class="edge">
<title>Node245&#45;&gt;Node105</title>
<path fill="none" stroke="midnightblue" d="M1112.77,-123.48C1123.06,-114.2 1139.73,-99.17 1152.3,-87.83"/>
<polygon fill="midnightblue" stroke="midnightblue" points="1154.79,-90.3 1159.87,-81.01 1150.1,-85.11 1154.79,-90.3"/>
</g>
<!-- Node245&#45;&gt;Node208 -->
<g id="edge23" class="edge">
<title>Node245&#45;&gt;Node208</title>
<path fill="none" stroke="midnightblue" d="M1124.29,-123.37C1145.92,-114.44 1180.58,-99.99 1210.31,-87 1211.67,-86.4 1213.07,-85.79 1214.47,-85.17"/>
<polygon fill="midnightblue" stroke="midnightblue" points="1216.04,-88.3 1223.73,-81.02 1213.18,-81.91 1216.04,-88.3"/>
</g>
<!-- Node245&#45;&gt;Node246 -->
<g id="edge24" class="edge">
<title>Node245&#45;&gt;Node246</title>
<path fill="none" stroke="midnightblue" d="M1156.91,-125.54C1214.65,-118.11 1309.05,-104.66 1389.31,-87 1393.73,-86.03 1398.33,-84.9 1402.88,-83.7"/>
<polygon fill="midnightblue" stroke="midnightblue" points="1403.95,-87.03 1412.67,-81.02 1402.1,-80.28 1403.95,-87.03"/>
</g>
<!-- Node248&#45;&gt;Node2 -->
<g id="edge31" class="edge">
<title>Node248&#45;&gt;Node2</title>
<path fill="none" stroke="midnightblue" d="M4314.6,-190.41C4302.75,-186.29 4287.94,-181.67 4274.31,-179 3795.38,-85.06 3203.81,-73.62 3010.05,-72.5"/>
<polygon fill="midnightblue" stroke="midnightblue" points="3010.05,-69 3000.03,-72.45 3010.01,-76 3010.05,-69"/>
</g>
<!-- Node248&#45;&gt;Node5 -->
<g id="edge32" class="edge">
<title>Node248&#45;&gt;Node5</title>
<path fill="none" stroke="midnightblue" d="M4315.83,-190.44C4303.82,-186.1 4288.47,-181.27 4274.31,-179 4096.91,-150.5 1219.93,-147.44 1040.31,-143 982.32,-141.57 916.32,-138.95 869.05,-136.91"/>
<polygon fill="midnightblue" stroke="midnightblue" points="869.11,-133.41 858.96,-136.47 868.8,-140.4 869.11,-133.41"/>
</g>
<!-- Node248&#45;&gt;Node249 -->
<g id="edge33" class="edge">
<title>Node248&#45;&gt;Node249</title>
<path fill="none" stroke="midnightblue" d="M4315.21,-190.48C4303.28,-186.26 4288.19,-181.55 4274.31,-179 3991.04,-127.02 3914.8,-160.17 3627.31,-143 3602.03,-141.49 3574.2,-139.73 3550,-138.18"/>
<polygon fill="midnightblue" stroke="midnightblue" points="3550.07,-134.67 3539.87,-137.52 3549.62,-141.66 3550.07,-134.67"/>
</g>
</g>
</svg>
