<?xml version="1.0" encoding="UTF-8" standalone="no"?>
<!DOCTYPE svg PUBLIC "-//W3C//DTD SVG 1.1//EN"
 "http://www.w3.org/Graphics/SVG/1.1/DTD/svg11.dtd">
<!-- Generated by graphviz version 2.43.0 (0)
 -->
<!-- Title: boost/ui/message.hpp Pages: 1 -->
<svg width="1226pt" height="196pt"
 viewBox="0.00 0.00 1226.01 196.00" xmlns="http://www.w3.org/2000/svg" xmlns:xlink="http://www.w3.org/1999/xlink">
<g id="graph0" class="graph" transform="scale(1 1) rotate(0) translate(4 192)">
<title>boost/ui/message.hpp</title>
<polygon fill="white" stroke="transparent" points="-4,4 -4,-192 1222.01,-192 1222.01,4 -4,4"/>
<!-- Node1 -->
<g id="node1" class="node">
<title>Node1</title>
<g id="a_node1"><a xlink:title="Display message file.">
<polygon fill="#bfbfbf" stroke="black" points="416.51,-168.5 416.51,-187.5 540.51,-187.5 540.51,-168.5 416.51,-168.5"/>
<text text-anchor="middle" x="478.51" y="-175.5" font-family="Helvetica,sans-Serif" font-size="10.00">boost/ui/message.hpp</text>
</a>
</g>
</g>
<!-- Node2 -->
<g id="node2" class="node">
<title>Node2</title>
<g id="a_node2"><a xlink:href="config_8hpp.html" target="_top" xlink:title="Configuration options.">
<polygon fill="white" stroke="black" points="262.01,-56.5 262.01,-75.5 371.01,-75.5 371.01,-56.5 262.01,-56.5"/>
<text text-anchor="middle" x="316.51" y="-63.5" font-family="Helvetica,sans-Serif" font-size="10.00">boost/ui/config.hpp</text>
</a>
</g>
</g>
<!-- Node1&#45;&gt;Node2 -->
<g id="edge1" class="edge">
<title>Node1&#45;&gt;Node2</title>
<path fill="none" stroke="midnightblue" d="M416.36,-170.57C367.22,-164.04 304.33,-152.01 288.51,-132 277.02,-117.47 288.77,-97.52 300.37,-83.57"/>
<polygon fill="midnightblue" stroke="midnightblue" points="303.3,-85.54 307.37,-75.76 298.09,-80.87 303.3,-85.54"/>
</g>
<!-- Node3 -->
<g id="node3" class="node">
<title>Node3</title>
<g id="a_node3"><a xlink:title=" ">
<polygon fill="white" stroke="#bfbfbf" points="103.01,-0.5 103.01,-19.5 200.01,-19.5 200.01,-0.5 103.01,-0.5"/>
<text text-anchor="middle" x="151.51" y="-7.5" font-family="Helvetica,sans-Serif" font-size="10.00">boost/config.hpp</text>
</a>
</g>
</g>
<!-- Node1&#45;&gt;Node3 -->
<g id="edge13" class="edge">
<title>Node1&#45;&gt;Node3</title>
<path fill="none" stroke="midnightblue" d="M416.4,-174.2C298.28,-167.31 49.15,-144.77 5.51,-76 -17.86,-39.18 42.5,-23.07 92.59,-16.12"/>
<polygon fill="midnightblue" stroke="midnightblue" points="93.29,-19.56 102.76,-14.81 92.4,-12.62 93.29,-19.56"/>
</g>
<!-- Node4 -->
<g id="node4" class="node">
<title>Node4</title>
<g id="a_node4"><a xlink:href="string_8hpp.html" target="_top" xlink:title="String class and operations.">
<polygon fill="white" stroke="black" points="134.01,-112.5 134.01,-131.5 241.01,-131.5 241.01,-112.5 134.01,-112.5"/>
<text text-anchor="middle" x="187.51" y="-119.5" font-family="Helvetica,sans-Serif" font-size="10.00">boost/ui/string.hpp</text>
</a>
</g>
</g>
<!-- Node1&#45;&gt;Node4 -->
<g id="edge3" class="edge">
<title>Node1&#45;&gt;Node4</title>
<path fill="none" stroke="midnightblue" d="M432.4,-168.44C381.1,-158.92 298.24,-143.55 243.32,-133.36"/>
<polygon fill="midnightblue" stroke="midnightblue" points="243.87,-129.9 233.4,-131.52 242.6,-136.78 243.87,-129.9"/>
</g>
<!-- Node8 -->
<g id="node8" class="node">
<title>Node8</title>
<g id="a_node8"><a xlink:href="color_8hpp.html" target="_top" xlink:title="Color class.">
<polygon fill="white" stroke="black" points="298.01,-112.5 298.01,-131.5 401.01,-131.5 401.01,-112.5 298.01,-112.5"/>
<text text-anchor="middle" x="349.51" y="-119.5" font-family="Helvetica,sans-Serif" font-size="10.00">boost/ui/color.hpp</text>
</a>
</g>
</g>
<!-- Node1&#45;&gt;Node8 -->
<g id="edge8" class="edge">
<title>Node1&#45;&gt;Node8</title>
<path fill="none" stroke="midnightblue" d="M458.07,-168.44C436.84,-159.56 403.41,-145.56 379.25,-135.45"/>
<polygon fill="midnightblue" stroke="midnightblue" points="380.43,-132.15 369.85,-131.52 377.73,-138.61 380.43,-132.15"/>
</g>
<!-- Node10 -->
<g id="node10" class="node">
<title>Node10</title>
<g id="a_node10"><a xlink:title=" ">
<polygon fill="white" stroke="#bfbfbf" points="419.01,-112.5 419.01,-131.5 538.01,-131.5 538.01,-112.5 419.01,-112.5"/>
<text text-anchor="middle" x="478.51" y="-119.5" font-family="Helvetica,sans-Serif" font-size="10.00">boost/filesystem.hpp</text>
</a>
</g>
</g>
<!-- Node1&#45;&gt;Node10 -->
<g id="edge11" class="edge">
<title>Node1&#45;&gt;Node10</title>
<path fill="none" stroke="midnightblue" d="M478.51,-168.08C478.51,-161.01 478.51,-150.86 478.51,-141.99"/>
<polygon fill="midnightblue" stroke="midnightblue" points="482.01,-141.75 478.51,-131.75 475.01,-141.75 482.01,-141.75"/>
</g>
<!-- Node11 -->
<g id="node11" class="node">
<title>Node11</title>
<g id="a_node11"><a xlink:title=" ">
<polygon fill="white" stroke="#bfbfbf" points="556.01,-112.5 556.01,-131.5 707.01,-131.5 707.01,-112.5 556.01,-112.5"/>
<text text-anchor="middle" x="631.51" y="-119.5" font-family="Helvetica,sans-Serif" font-size="10.00">boost/filesystem/config.hpp</text>
</a>
</g>
</g>
<!-- Node1&#45;&gt;Node11 -->
<g id="edge12" class="edge">
<title>Node1&#45;&gt;Node11</title>
<path fill="none" stroke="midnightblue" d="M502.75,-168.44C528.38,-159.4 568.99,-145.06 597.75,-134.92"/>
<polygon fill="midnightblue" stroke="midnightblue" points="599.11,-138.15 607.38,-131.52 596.78,-131.54 599.11,-138.15"/>
</g>
<!-- Node12 -->
<g id="node12" class="node">
<title>Node12</title>
<g id="a_node12"><a xlink:title=" ">
<polygon fill="white" stroke="#bfbfbf" points="725.51,-112.5 725.51,-131.5 881.51,-131.5 881.51,-112.5 725.51,-112.5"/>
<text text-anchor="middle" x="803.51" y="-119.5" font-family="Helvetica,sans-Serif" font-size="10.00">boost/system/api_config.hpp</text>
</a>
</g>
</g>
<!-- Node1&#45;&gt;Node12 -->
<g id="edge14" class="edge">
<title>Node1&#45;&gt;Node12</title>
<path fill="none" stroke="midnightblue" d="M530.01,-168.44C587.65,-158.87 681,-143.36 742.32,-133.17"/>
<polygon fill="midnightblue" stroke="midnightblue" points="742.96,-136.61 752.25,-131.52 741.81,-129.7 742.96,-136.61"/>
</g>
<!-- Node13 -->
<g id="node13" class="node">
<title>Node13</title>
<g id="a_node13"><a xlink:title=" ">
<polygon fill="white" stroke="#bfbfbf" points="900.01,-112.5 900.01,-131.5 1055.01,-131.5 1055.01,-112.5 900.01,-112.5"/>
<text text-anchor="middle" x="977.51" y="-119.5" font-family="Helvetica,sans-Serif" font-size="10.00">boost/detail/workaround.hpp</text>
</a>
</g>
</g>
<!-- Node1&#45;&gt;Node13 -->
<g id="edge15" class="edge">
<title>Node1&#45;&gt;Node13</title>
<path fill="none" stroke="midnightblue" d="M540.7,-170.27C628.6,-160.76 789.59,-143.34 889.67,-132.51"/>
<polygon fill="midnightblue" stroke="midnightblue" points="890.19,-135.97 899.75,-131.41 889.44,-129.01 890.19,-135.97"/>
</g>
<!-- Node14 -->
<g id="node14" class="node">
<title>Node14</title>
<g id="a_node14"><a xlink:title=" ">
<polygon fill="white" stroke="#bfbfbf" points="1073.01,-112.5 1073.01,-131.5 1218.01,-131.5 1218.01,-112.5 1073.01,-112.5"/>
<text text-anchor="middle" x="1145.51" y="-119.5" font-family="Helvetica,sans-Serif" font-size="10.00">boost/config/auto_link.hpp</text>
</a>
</g>
</g>
<!-- Node1&#45;&gt;Node14 -->
<g id="edge16" class="edge">
<title>Node1&#45;&gt;Node14</title>
<path fill="none" stroke="midnightblue" d="M540.58,-172.93C645.79,-165.88 866.08,-150.45 1062.44,-132.17"/>
<polygon fill="midnightblue" stroke="midnightblue" points="1063.03,-135.63 1072.66,-131.21 1062.38,-128.66 1063.03,-135.63"/>
</g>
<!-- Node2&#45;&gt;Node3 -->
<g id="edge2" class="edge">
<title>Node2&#45;&gt;Node3</title>
<path fill="none" stroke="midnightblue" d="M290.36,-56.44C262.49,-47.32 218.16,-32.81 187.11,-22.65"/>
<polygon fill="midnightblue" stroke="midnightblue" points="188.12,-19.3 177.53,-19.52 185.95,-25.95 188.12,-19.3"/>
</g>
<!-- Node4&#45;&gt;Node2 -->
<g id="edge4" class="edge">
<title>Node4&#45;&gt;Node2</title>
<path fill="none" stroke="midnightblue" d="M207.95,-112.44C229.18,-103.56 262.61,-89.56 286.76,-79.45"/>
<polygon fill="midnightblue" stroke="midnightblue" points="288.29,-82.61 296.16,-75.52 285.59,-76.15 288.29,-82.61"/>
</g>
<!-- Node5 -->
<g id="node5" class="node">
<title>Node5</title>
<g id="a_node5"><a xlink:title=" ">
<polygon fill="white" stroke="#bfbfbf" points="199.51,-56.5 199.51,-75.5 243.51,-75.5 243.51,-56.5 199.51,-56.5"/>
<text text-anchor="middle" x="221.51" y="-63.5" font-family="Helvetica,sans-Serif" font-size="10.00">string</text>
</a>
</g>
</g>
<!-- Node4&#45;&gt;Node5 -->
<g id="edge5" class="edge">
<title>Node4&#45;&gt;Node5</title>
<path fill="none" stroke="midnightblue" d="M193.12,-112.08C197.88,-104.53 204.83,-93.49 210.66,-84.23"/>
<polygon fill="midnightblue" stroke="midnightblue" points="213.63,-86.08 216,-75.75 207.71,-82.35 213.63,-86.08"/>
</g>
<!-- Node6 -->
<g id="node6" class="node">
<title>Node6</title>
<g id="a_node6"><a xlink:title=" ">
<polygon fill="white" stroke="#bfbfbf" points="15.01,-56.5 15.01,-75.5 98.01,-75.5 98.01,-56.5 15.01,-56.5"/>
<text text-anchor="middle" x="56.51" y="-63.5" font-family="Helvetica,sans-Serif" font-size="10.00">initializer_list</text>
</a>
</g>
</g>
<!-- Node4&#45;&gt;Node6 -->
<g id="edge6" class="edge">
<title>Node4&#45;&gt;Node6</title>
<path fill="none" stroke="midnightblue" d="M166.75,-112.44C145.19,-103.56 111.25,-89.56 86.72,-79.45"/>
<polygon fill="midnightblue" stroke="midnightblue" points="87.75,-76.09 77.17,-75.52 85.08,-82.56 87.75,-76.09"/>
</g>
<!-- Node7 -->
<g id="node7" class="node">
<title>Node7</title>
<g id="a_node7"><a xlink:title=" ">
<polygon fill="white" stroke="#bfbfbf" points="116.01,-56.5 116.01,-75.5 181.01,-75.5 181.01,-56.5 116.01,-56.5"/>
<text text-anchor="middle" x="148.51" y="-63.5" font-family="Helvetica,sans-Serif" font-size="10.00">functional</text>
</a>
</g>
</g>
<!-- Node4&#45;&gt;Node7 -->
<g id="edge7" class="edge">
<title>Node4&#45;&gt;Node7</title>
<path fill="none" stroke="midnightblue" d="M181.07,-112.08C175.56,-104.46 167.48,-93.26 160.74,-83.94"/>
<polygon fill="midnightblue" stroke="midnightblue" points="163.52,-81.81 154.83,-75.75 157.85,-85.91 163.52,-81.81"/>
</g>
<!-- Node8&#45;&gt;Node2 -->
<g id="edge9" class="edge">
<title>Node8&#45;&gt;Node2</title>
<path fill="none" stroke="midnightblue" d="M344.06,-112.08C339.49,-104.61 332.84,-93.72 327.22,-84.52"/>
<polygon fill="midnightblue" stroke="midnightblue" points="330.06,-82.46 321.86,-75.75 324.09,-86.11 330.06,-82.46"/>
</g>
<!-- Node9 -->
<g id="node9" class="node">
<title>Node9</title>
<g id="a_node9"><a xlink:title=" ">
<polygon fill="white" stroke="#bfbfbf" points="389.01,-56.5 389.01,-75.5 490.01,-75.5 490.01,-56.5 389.01,-56.5"/>
<text text-anchor="middle" x="439.51" y="-63.5" font-family="Helvetica,sans-Serif" font-size="10.00">boost/cstdint.hpp</text>
</a>
</g>
</g>
<!-- Node8&#45;&gt;Node9 -->
<g id="edge10" class="edge">
<title>Node8&#45;&gt;Node9</title>
<path fill="none" stroke="midnightblue" d="M363.97,-112.32C378.01,-103.9 399.56,-90.97 416.05,-81.07"/>
<polygon fill="midnightblue" stroke="midnightblue" points="418.31,-83.8 425.09,-75.65 414.71,-77.8 418.31,-83.8"/>
</g>
</g>
</svg>
