<?xml version="1.0" encoding="UTF-8" standalone="no"?>
<!DOCTYPE svg PUBLIC "-//W3C//DTD SVG 1.1//EN"
 "http://www.w3.org/Graphics/SVG/1.1/DTD/svg11.dtd">
<!-- Generated by graphviz version 2.38.0 (20140413.2041)
 -->
<!-- Title: boost/ui/message.hpp Pages: 1 -->
<svg width="1125pt" height="196pt"
 viewBox="0.00 0.00 1125.40 196.00" xmlns="http://www.w3.org/2000/svg" xmlns:xlink="http://www.w3.org/1999/xlink">
<g id="graph0" class="graph" transform="scale(1 1) rotate(0) translate(4 192)">
<title>boost/ui/message.hpp</title>
<polygon fill="white" stroke="none" points="-4,4 -4,-192 1121.4,-192 1121.4,4 -4,4"/>
<!-- Node1 -->
<g id="node1" class="node"><title>Node1</title>
<polygon fill="#bfbfbf" stroke="black" points="385.398,-168.5 385.398,-187.5 498.398,-187.5 498.398,-168.5 385.398,-168.5"/>
<text text-anchor="middle" x="441.898" y="-175.5" font-family="Helvetica,sans-Serif" font-size="10.00">boost/ui/message.hpp</text>
</g>
<!-- Node2 -->
<g id="node2" class="node"><title>Node2</title>
<g id="a_node2"><a xlink:href="config_8hpp.html" target="_top" xlink:title="Configuration options. ">
<polygon fill="white" stroke="black" points="241.398,-56.5 241.398,-75.5 340.398,-75.5 340.398,-56.5 241.398,-56.5"/>
<text text-anchor="middle" x="290.898" y="-63.5" font-family="Helvetica,sans-Serif" font-size="10.00">boost/ui/config.hpp</text>
</a>
</g>
</g>
<!-- Node1&#45;&gt;Node2 -->
<g id="edge1" class="edge"><title>Node1&#45;&gt;Node2</title>
<path fill="none" stroke="midnightblue" d="M385.053,-169.945C339.689,-163.01 281.411,-150.717 266.898,-132 255.788,-117.672 266.079,-97.6848 276.422,-83.6683"/>
<polygon fill="midnightblue" stroke="midnightblue" points="279.184,-85.8187 282.678,-75.8167 273.709,-81.4566 279.184,-85.8187"/>
</g>
<!-- Node3 -->
<g id="node3" class="node"><title>Node3</title>
<polygon fill="white" stroke="#bfbfbf" points="93.3981,-0.5 93.3981,-19.5 182.398,-19.5 182.398,-0.5 93.3981,-0.5"/>
<text text-anchor="middle" x="137.898" y="-7.5" font-family="Helvetica,sans-Serif" font-size="10.00">boost/config.hpp</text>
</g>
<!-- Node1&#45;&gt;Node3 -->
<g id="edge13" class="edge"><title>Node1&#45;&gt;Node3</title>
<path fill="none" stroke="midnightblue" d="M385.165,-173.517C276.054,-165.392 44.2353,-140.708 4.8981,-76 -15.8914,-41.8022 37.8237,-25.1576 83.0949,-17.3652"/>
<polygon fill="midnightblue" stroke="midnightblue" points="83.867,-20.7861 93.1858,-15.7453 82.7574,-13.8746 83.867,-20.7861"/>
</g>
<!-- Node4 -->
<g id="node4" class="node"><title>Node4</title>
<g id="a_node4"><a xlink:href="string_8hpp.html" target="_top" xlink:title="String class and operations. ">
<polygon fill="white" stroke="black" points="122.398,-112.5 122.398,-131.5 219.398,-131.5 219.398,-112.5 122.398,-112.5"/>
<text text-anchor="middle" x="170.898" y="-119.5" font-family="Helvetica,sans-Serif" font-size="10.00">boost/ui/string.hpp</text>
</a>
</g>
</g>
<!-- Node1&#45;&gt;Node4 -->
<g id="edge3" class="edge"><title>Node1&#45;&gt;Node4</title>
<path fill="none" stroke="midnightblue" d="M398.957,-168.444C351.385,-158.964 274.655,-143.675 223.51,-133.483"/>
<polygon fill="midnightblue" stroke="midnightblue" points="224.129,-130.038 213.638,-131.516 222.761,-136.903 224.129,-130.038"/>
</g>
<!-- Node8 -->
<g id="node8" class="node"><title>Node8</title>
<g id="a_node8"><a xlink:href="color_8hpp.html" target="_top" xlink:title="Color class. ">
<polygon fill="white" stroke="black" points="275.898,-112.5 275.898,-131.5 369.898,-131.5 369.898,-112.5 275.898,-112.5"/>
<text text-anchor="middle" x="322.898" y="-119.5" font-family="Helvetica,sans-Serif" font-size="10.00">boost/ui/color.hpp</text>
</a>
</g>
</g>
<!-- Node1&#45;&gt;Node8 -->
<g id="edge8" class="edge"><title>Node1&#45;&gt;Node8</title>
<path fill="none" stroke="midnightblue" d="M423.042,-168.444C403.632,-159.636 373.168,-145.812 350.934,-135.722"/>
<polygon fill="midnightblue" stroke="midnightblue" points="352.218,-132.462 341.666,-131.516 349.326,-138.836 352.218,-132.462"/>
</g>
<!-- Node10 -->
<g id="node10" class="node"><title>Node10</title>
<polygon fill="white" stroke="#bfbfbf" points="388.398,-112.5 388.398,-131.5 495.398,-131.5 495.398,-112.5 388.398,-112.5"/>
<text text-anchor="middle" x="441.898" y="-119.5" font-family="Helvetica,sans-Serif" font-size="10.00">boost/filesystem.hpp</text>
</g>
<!-- Node1&#45;&gt;Node10 -->
<g id="edge11" class="edge"><title>Node1&#45;&gt;Node10</title>
<path fill="none" stroke="midnightblue" d="M441.898,-168.083C441.898,-161.006 441.898,-150.861 441.898,-141.986"/>
<polygon fill="midnightblue" stroke="midnightblue" points="445.398,-141.751 441.898,-131.751 438.398,-141.751 445.398,-141.751"/>
</g>
<!-- Node11 -->
<g id="node11" class="node"><title>Node11</title>
<polygon fill="white" stroke="#bfbfbf" points="513.398,-112.5 513.398,-131.5 650.398,-131.5 650.398,-112.5 513.398,-112.5"/>
<text text-anchor="middle" x="581.898" y="-119.5" font-family="Helvetica,sans-Serif" font-size="10.00">boost/filesystem/config.hpp</text>
</g>
<!-- Node1&#45;&gt;Node11 -->
<g id="edge12" class="edge"><title>Node1&#45;&gt;Node11</title>
<path fill="none" stroke="midnightblue" d="M464.082,-168.444C487.327,-159.478 524.047,-145.314 550.313,-135.183"/>
<polygon fill="midnightblue" stroke="midnightblue" points="551.748,-138.381 559.818,-131.516 549.229,-131.85 551.748,-138.381"/>
</g>
<!-- Node12 -->
<g id="node12" class="node"><title>Node12</title>
<polygon fill="white" stroke="#bfbfbf" points="668.898,-112.5 668.898,-131.5 810.898,-131.5 810.898,-112.5 668.898,-112.5"/>
<text text-anchor="middle" x="739.898" y="-119.5" font-family="Helvetica,sans-Serif" font-size="10.00">boost/system/api_config.hpp</text>
</g>
<!-- Node1&#45;&gt;Node12 -->
<g id="edge14" class="edge"><title>Node1&#45;&gt;Node12</title>
<path fill="none" stroke="midnightblue" d="M489.117,-168.444C541.647,-158.925 626.508,-143.547 682.746,-133.356"/>
<polygon fill="midnightblue" stroke="midnightblue" points="683.684,-136.743 692.9,-131.516 682.436,-129.856 683.684,-136.743"/>
</g>
<!-- Node13 -->
<g id="node13" class="node"><title>Node13</title>
<polygon fill="white" stroke="#bfbfbf" points="829.398,-112.5 829.398,-131.5 968.398,-131.5 968.398,-112.5 829.398,-112.5"/>
<text text-anchor="middle" x="898.898" y="-119.5" font-family="Helvetica,sans-Serif" font-size="10.00">boost/detail/workaround.hpp</text>
</g>
<!-- Node1&#45;&gt;Node13 -->
<g id="edge15" class="edge"><title>Node1&#45;&gt;Node13</title>
<path fill="none" stroke="midnightblue" d="M498.853,-170.27C579.572,-160.732 727.597,-143.241 819.189,-132.419"/>
<polygon fill="midnightblue" stroke="midnightblue" points="819.725,-135.88 829.245,-131.23 818.903,-128.928 819.725,-135.88"/>
</g>
<!-- Node14 -->
<g id="node14" class="node"><title>Node14</title>
<polygon fill="white" stroke="#bfbfbf" points="986.398,-112.5 986.398,-131.5 1117.4,-131.5 1117.4,-112.5 986.398,-112.5"/>
<text text-anchor="middle" x="1051.9" y="-119.5" font-family="Helvetica,sans-Serif" font-size="10.00">boost/config/auto_link.hpp</text>
</g>
<!-- Node1&#45;&gt;Node14 -->
<g id="edge16" class="edge"><title>Node1&#45;&gt;Node14</title>
<path fill="none" stroke="midnightblue" d="M498.687,-172.931C594.786,-165.893 795.85,-150.506 975.953,-132.169"/>
<polygon fill="midnightblue" stroke="midnightblue" points="976.553,-135.626 986.145,-131.126 975.84,-128.662 976.553,-135.626"/>
</g>
<!-- Node2&#45;&gt;Node3 -->
<g id="edge2" class="edge"><title>Node2&#45;&gt;Node3</title>
<path fill="none" stroke="midnightblue" d="M266.655,-56.4435C241.027,-47.3986 200.413,-33.064 171.66,-22.9158"/>
<polygon fill="midnightblue" stroke="midnightblue" points="172.623,-19.5442 162.028,-19.5164 170.293,-26.1452 172.623,-19.5442"/>
</g>
<!-- Node4&#45;&gt;Node2 -->
<g id="edge4" class="edge"><title>Node4&#45;&gt;Node2</title>
<path fill="none" stroke="midnightblue" d="M189.912,-112.444C209.486,-103.636 240.206,-89.8116 262.627,-79.722"/>
<polygon fill="midnightblue" stroke="midnightblue" points="264.29,-82.8119 271.973,-75.5164 261.417,-76.4284 264.29,-82.8119"/>
</g>
<!-- Node5 -->
<g id="node5" class="node"><title>Node5</title>
<polygon fill="white" stroke="#bfbfbf" points="182.398,-56.5 182.398,-75.5 223.398,-75.5 223.398,-56.5 182.398,-56.5"/>
<text text-anchor="middle" x="202.898" y="-63.5" font-family="Helvetica,sans-Serif" font-size="10.00">string</text>
</g>
<!-- Node4&#45;&gt;Node5 -->
<g id="edge5" class="edge"><title>Node4&#45;&gt;Node5</title>
<path fill="none" stroke="midnightblue" d="M176.182,-112.083C180.609,-104.613 187.061,-93.7244 192.516,-84.5199"/>
<polygon fill="midnightblue" stroke="midnightblue" points="195.625,-86.1383 197.712,-75.7511 189.603,-82.5697 195.625,-86.1383"/>
</g>
<!-- Node6 -->
<g id="node6" class="node"><title>Node6</title>
<polygon fill="white" stroke="#bfbfbf" points="14.3981,-56.5 14.3981,-75.5 87.3981,-75.5 87.3981,-56.5 14.3981,-56.5"/>
<text text-anchor="middle" x="50.8981" y="-63.5" font-family="Helvetica,sans-Serif" font-size="10.00">initializer_list</text>
</g>
<!-- Node4&#45;&gt;Node6 -->
<g id="edge6" class="edge"><title>Node4&#45;&gt;Node6</title>
<path fill="none" stroke="midnightblue" d="M151.884,-112.444C132.311,-103.636 101.59,-89.8116 79.1692,-79.722"/>
<polygon fill="midnightblue" stroke="midnightblue" points="80.379,-76.4284 69.8235,-75.5164 77.5064,-82.8119 80.379,-76.4284"/>
</g>
<!-- Node7 -->
<g id="node7" class="node"><title>Node7</title>
<polygon fill="white" stroke="#bfbfbf" points="105.398,-56.5 105.398,-75.5 164.398,-75.5 164.398,-56.5 105.398,-56.5"/>
<text text-anchor="middle" x="134.898" y="-63.5" font-family="Helvetica,sans-Serif" font-size="10.00">functional</text>
</g>
<!-- Node4&#45;&gt;Node7 -->
<g id="edge7" class="edge"><title>Node4&#45;&gt;Node7</title>
<path fill="none" stroke="midnightblue" d="M164.953,-112.083C159.921,-104.534 152.561,-93.4948 146.385,-84.2298"/>
<polygon fill="midnightblue" stroke="midnightblue" points="149.191,-82.1301 140.732,-75.7511 143.367,-86.0131 149.191,-82.1301"/>
</g>
<!-- Node8&#45;&gt;Node2 -->
<g id="edge9" class="edge"><title>Node8&#45;&gt;Node2</title>
<path fill="none" stroke="midnightblue" d="M317.614,-112.083C313.187,-104.613 306.735,-93.7244 301.28,-84.5199"/>
<polygon fill="midnightblue" stroke="midnightblue" points="304.193,-82.5697 296.084,-75.7511 298.171,-86.1383 304.193,-82.5697"/>
</g>
<!-- Node9 -->
<g id="node9" class="node"><title>Node9</title>
<polygon fill="white" stroke="#bfbfbf" points="358.898,-56.5 358.898,-75.5 450.898,-75.5 450.898,-56.5 358.898,-56.5"/>
<text text-anchor="middle" x="404.898" y="-63.5" font-family="Helvetica,sans-Serif" font-size="10.00">boost/cstdint.hpp</text>
</g>
<!-- Node8&#45;&gt;Node9 -->
<g id="edge10" class="edge"><title>Node8&#45;&gt;Node9</title>
<path fill="none" stroke="midnightblue" d="M336.073,-112.324C348.745,-103.979 368.131,-91.2122 383.104,-81.3524"/>
<polygon fill="midnightblue" stroke="midnightblue" points="385.329,-84.0776 391.756,-75.6545 381.479,-78.2313 385.329,-84.0776"/>
</g>
</g>
</svg>
