<?xml version="1.0" encoding="UTF-8" standalone="no"?>
<!DOCTYPE svg PUBLIC "-//W3C//DTD SVG 1.1//EN"
 "http://www.w3.org/Graphics/SVG/1.1/DTD/svg11.dtd">
<!-- Generated by graphviz version 2.38.0 (20140413.2041)
 -->
<!-- Title: boost/ui/message.hpp Pages: 1 -->
<svg width="334pt" height="196pt"
 viewBox="0.00 0.00 334.00 196.00" xmlns="http://www.w3.org/2000/svg" xmlns:xlink="http://www.w3.org/1999/xlink">
<g id="graph0" class="graph" transform="scale(1 1) rotate(0) translate(4 192)">
<title>boost/ui/message.hpp</title>
<polygon fill="white" stroke="none" points="-4,4 -4,-192 330,-192 330,4 -4,4"/>
<!-- Node1 -->
<g id="node1" class="node"><title>Node1</title>
<polygon fill="#bfbfbf" stroke="black" points="42,-168.5 42,-187.5 155,-187.5 155,-168.5 42,-168.5"/>
<text text-anchor="middle" x="98.5" y="-175.5" font-family="Helvetica,sans-Serif" font-size="10.00">boost/ui/message.hpp</text>
</g>
<!-- Node2 -->
<g id="node2" class="node"><title>Node2</title>
<g id="a_node2"><a xlink:href="config_8hpp.html" target="_top" xlink:title="Configuration options. ">
<polygon fill="white" stroke="black" points="0,-56.5 0,-75.5 99,-75.5 99,-56.5 0,-56.5"/>
<text text-anchor="middle" x="49.5" y="-63.5" font-family="Helvetica,sans-Serif" font-size="10.00">boost/ui/config.hpp</text>
</a>
</g>
</g>
<!-- Node1&#45;&gt;Node2 -->
<g id="edge1" class="edge"><title>Node1&#45;&gt;Node2</title>
<path fill="none" stroke="midnightblue" d="M94.6551,-168.368C86.676,-150.456 68.1749,-108.923 57.4951,-84.9482"/>
<polygon fill="midnightblue" stroke="midnightblue" points="60.5934,-83.3019 53.3271,-75.5914 54.1991,-86.1503 60.5934,-83.3019"/>
</g>
<!-- Node4 -->
<g id="node4" class="node"><title>Node4</title>
<g id="a_node4"><a xlink:href="string_8hpp.html" target="_top" xlink:title="String class and operations. ">
<polygon fill="white" stroke="black" points="89,-112.5 89,-131.5 186,-131.5 186,-112.5 89,-112.5"/>
<text text-anchor="middle" x="137.5" y="-119.5" font-family="Helvetica,sans-Serif" font-size="10.00">boost/ui/string.hpp</text>
</a>
</g>
</g>
<!-- Node1&#45;&gt;Node4 -->
<g id="edge3" class="edge"><title>Node1&#45;&gt;Node4</title>
<path fill="none" stroke="midnightblue" d="M104.94,-168.083C110.449,-160.455 118.531,-149.264 125.265,-139.941"/>
<polygon fill="midnightblue" stroke="midnightblue" points="128.162,-141.907 131.18,-131.751 122.487,-137.809 128.162,-141.907"/>
</g>
<!-- Node3 -->
<g id="node3" class="node"><title>Node3</title>
<polygon fill="white" stroke="#bfbfbf" points="5,-0.5 5,-19.5 94,-19.5 94,-0.5 5,-0.5"/>
<text text-anchor="middle" x="49.5" y="-7.5" font-family="Helvetica,sans-Serif" font-size="10.00">boost/config.hpp</text>
</g>
<!-- Node2&#45;&gt;Node3 -->
<g id="edge2" class="edge"><title>Node2&#45;&gt;Node3</title>
<path fill="none" stroke="midnightblue" d="M49.5,-56.083C49.5,-49.0059 49.5,-38.8611 49.5,-29.9865"/>
<polygon fill="midnightblue" stroke="midnightblue" points="53.0001,-29.751 49.5,-19.7511 46.0001,-29.7511 53.0001,-29.751"/>
</g>
<!-- Node4&#45;&gt;Node2 -->
<g id="edge4" class="edge"><title>Node4&#45;&gt;Node2</title>
<path fill="none" stroke="midnightblue" d="M123.361,-112.324C109.634,-103.9 88.5637,-90.9709 72.4357,-81.0741"/>
<polygon fill="midnightblue" stroke="midnightblue" points="73.9574,-77.9016 63.6036,-75.6545 70.2963,-83.8678 73.9574,-77.9016"/>
</g>
<!-- Node5 -->
<g id="node5" class="node"><title>Node5</title>
<polygon fill="white" stroke="#bfbfbf" points="117,-56.5 117,-75.5 158,-75.5 158,-56.5 117,-56.5"/>
<text text-anchor="middle" x="137.5" y="-63.5" font-family="Helvetica,sans-Serif" font-size="10.00">string</text>
</g>
<!-- Node4&#45;&gt;Node5 -->
<g id="edge5" class="edge"><title>Node4&#45;&gt;Node5</title>
<path fill="none" stroke="midnightblue" d="M137.5,-112.083C137.5,-105.006 137.5,-94.8611 137.5,-85.9865"/>
<polygon fill="midnightblue" stroke="midnightblue" points="141,-85.751 137.5,-75.7511 134,-85.7511 141,-85.751"/>
</g>
<!-- Node6 -->
<g id="node6" class="node"><title>Node6</title>
<polygon fill="white" stroke="#bfbfbf" points="176,-56.5 176,-75.5 249,-75.5 249,-56.5 176,-56.5"/>
<text text-anchor="middle" x="212.5" y="-63.5" font-family="Helvetica,sans-Serif" font-size="10.00">initializer_list</text>
</g>
<!-- Node4&#45;&gt;Node6 -->
<g id="edge6" class="edge"><title>Node4&#45;&gt;Node6</title>
<path fill="none" stroke="midnightblue" d="M149.55,-112.324C160.963,-104.107 178.331,-91.6017 191.935,-81.8069"/>
<polygon fill="midnightblue" stroke="midnightblue" points="194.16,-84.5174 200.231,-75.8339 190.07,-78.8366 194.16,-84.5174"/>
</g>
<!-- Node7 -->
<g id="node7" class="node"><title>Node7</title>
<polygon fill="white" stroke="#bfbfbf" points="267,-56.5 267,-75.5 326,-75.5 326,-56.5 267,-56.5"/>
<text text-anchor="middle" x="296.5" y="-63.5" font-family="Helvetica,sans-Serif" font-size="10.00">functional</text>
</g>
<!-- Node4&#45;&gt;Node7 -->
<g id="edge7" class="edge"><title>Node4&#45;&gt;Node7</title>
<path fill="none" stroke="midnightblue" d="M162.694,-112.444C189.443,-103.359 231.903,-88.9388 261.805,-78.7831"/>
<polygon fill="midnightblue" stroke="midnightblue" points="263.081,-82.0464 271.424,-75.5164 260.829,-75.4182 263.081,-82.0464"/>
</g>
</g>
</svg>
