<?xml version="1.0" encoding="UTF-8" standalone="no"?>
<!DOCTYPE svg PUBLIC "-//W3C//DTD SVG 1.1//EN"
 "http://www.w3.org/Graphics/SVG/1.1/DTD/svg11.dtd">
<!-- Generated by graphviz version 2.43.0 (0)
 -->
<!-- Title: boost/ui/message.hpp Pages: 1 -->
<svg width="1232pt" height="196pt"
 viewBox="0.00 0.00 1231.51 196.00" xmlns="http://www.w3.org/2000/svg" xmlns:xlink="http://www.w3.org/1999/xlink">
<g id="graph0" class="graph" transform="scale(1 1) rotate(0) translate(4 192)">
<title>boost/ui/message.hpp</title>
<polygon fill="white" stroke="transparent" points="-4,4 -4,-192 1227.51,-192 1227.51,4 -4,4"/>
<!-- Node1 -->
<g id="node1" class="node">
<title>Node1</title>
<g id="a_node1"><a xlink:title="Display message file.">
<polygon fill="#bfbfbf" stroke="black" points="417.51,-168.5 417.51,-187.5 541.51,-187.5 541.51,-168.5 417.51,-168.5"/>
<text text-anchor="middle" x="479.51" y="-175.5" font-family="Helvetica,sans-Serif" font-size="10.00">boost/ui/message.hpp</text>
</a>
</g>
</g>
<!-- Node2 -->
<g id="node2" class="node">
<title>Node2</title>
<g id="a_node2"><a xlink:href="config_8hpp.html" target="_top" xlink:title="Configuration options.">
<polygon fill="white" stroke="black" points="261.51,-56.5 261.51,-75.5 371.51,-75.5 371.51,-56.5 261.51,-56.5"/>
<text text-anchor="middle" x="316.51" y="-63.5" font-family="Helvetica,sans-Serif" font-size="10.00">boost/ui/config.hpp</text>
</a>
</g>
</g>
<!-- Node1&#45;&gt;Node2 -->
<g id="edge1" class="edge">
<title>Node1&#45;&gt;Node2</title>
<path fill="none" stroke="midnightblue" d="M417.04,-170.61C367.64,-164.12 304.42,-152.1 288.51,-132 277.01,-117.48 288.76,-97.53 300.37,-83.57"/>
<polygon fill="midnightblue" stroke="midnightblue" points="303.3,-85.54 307.36,-75.76 298.08,-80.87 303.3,-85.54"/>
</g>
<!-- Node3 -->
<g id="node3" class="node">
<title>Node3</title>
<g id="a_node3"><a xlink:title=" ">
<polygon fill="white" stroke="#bfbfbf" points="102.51,-0.5 102.51,-19.5 200.51,-19.5 200.51,-0.5 102.51,-0.5"/>
<text text-anchor="middle" x="151.51" y="-7.5" font-family="Helvetica,sans-Serif" font-size="10.00">boost/config.hpp</text>
</a>
</g>
</g>
<!-- Node1&#45;&gt;Node3 -->
<g id="edge13" class="edge">
<title>Node1&#45;&gt;Node3</title>
<path fill="none" stroke="midnightblue" d="M417.26,-174.22C298.9,-167.38 49.24,-144.91 5.51,-76 -17.79,-39.29 42.14,-23.17 92.14,-16.18"/>
<polygon fill="midnightblue" stroke="midnightblue" points="92.83,-19.62 102.3,-14.86 91.93,-12.68 92.83,-19.62"/>
</g>
<!-- Node4 -->
<g id="node4" class="node">
<title>Node4</title>
<g id="a_node4"><a xlink:href="string_8hpp.html" target="_top" xlink:title="String class and operations.">
<polygon fill="white" stroke="black" points="134.01,-112.5 134.01,-131.5 241.01,-131.5 241.01,-112.5 134.01,-112.5"/>
<text text-anchor="middle" x="187.51" y="-119.5" font-family="Helvetica,sans-Serif" font-size="10.00">boost/ui/string.hpp</text>
</a>
</g>
</g>
<!-- Node1&#45;&gt;Node4 -->
<g id="edge3" class="edge">
<title>Node1&#45;&gt;Node4</title>
<path fill="none" stroke="midnightblue" d="M433.24,-168.44C381.77,-158.92 298.62,-143.55 243.51,-133.36"/>
<polygon fill="midnightblue" stroke="midnightblue" points="244.03,-129.89 233.56,-131.52 242.76,-136.78 244.03,-129.89"/>
</g>
<!-- Node8 -->
<g id="node8" class="node">
<title>Node8</title>
<g id="a_node8"><a xlink:href="color_8hpp.html" target="_top" xlink:title="Color class.">
<polygon fill="white" stroke="black" points="297.51,-112.5 297.51,-131.5 401.51,-131.5 401.51,-112.5 297.51,-112.5"/>
<text text-anchor="middle" x="349.51" y="-119.5" font-family="Helvetica,sans-Serif" font-size="10.00">boost/ui/color.hpp</text>
</a>
</g>
</g>
<!-- Node1&#45;&gt;Node8 -->
<g id="edge8" class="edge">
<title>Node1&#45;&gt;Node8</title>
<path fill="none" stroke="midnightblue" d="M458.91,-168.44C437.52,-159.56 403.83,-145.56 379.49,-135.45"/>
<polygon fill="midnightblue" stroke="midnightblue" points="380.59,-132.12 370.01,-131.52 377.91,-138.58 380.59,-132.12"/>
</g>
<!-- Node10 -->
<g id="node10" class="node">
<title>Node10</title>
<g id="a_node10"><a xlink:title=" ">
<polygon fill="white" stroke="#bfbfbf" points="420.01,-112.5 420.01,-131.5 539.01,-131.5 539.01,-112.5 420.01,-112.5"/>
<text text-anchor="middle" x="479.51" y="-119.5" font-family="Helvetica,sans-Serif" font-size="10.00">boost/filesystem.hpp</text>
</a>
</g>
</g>
<!-- Node1&#45;&gt;Node10 -->
<g id="edge11" class="edge">
<title>Node1&#45;&gt;Node10</title>
<path fill="none" stroke="midnightblue" d="M479.51,-168.08C479.51,-161.01 479.51,-150.86 479.51,-141.99"/>
<polygon fill="midnightblue" stroke="midnightblue" points="483.01,-141.75 479.51,-131.75 476.01,-141.75 483.01,-141.75"/>
</g>
<!-- Node11 -->
<g id="node11" class="node">
<title>Node11</title>
<g id="a_node11"><a xlink:title=" ">
<polygon fill="white" stroke="#bfbfbf" points="557.51,-112.5 557.51,-131.5 709.51,-131.5 709.51,-112.5 557.51,-112.5"/>
<text text-anchor="middle" x="633.51" y="-119.5" font-family="Helvetica,sans-Serif" font-size="10.00">boost/filesystem/config.hpp</text>
</a>
</g>
</g>
<!-- Node1&#45;&gt;Node11 -->
<g id="edge12" class="edge">
<title>Node1&#45;&gt;Node11</title>
<path fill="none" stroke="midnightblue" d="M503.91,-168.44C529.71,-159.4 570.59,-145.06 599.53,-134.92"/>
<polygon fill="midnightblue" stroke="midnightblue" points="600.94,-138.13 609.22,-131.52 598.63,-131.52 600.94,-138.13"/>
</g>
<!-- Node12 -->
<g id="node12" class="node">
<title>Node12</title>
<g id="a_node12"><a xlink:title=" ">
<polygon fill="white" stroke="#bfbfbf" points="728.01,-112.5 728.01,-131.5 885.01,-131.5 885.01,-112.5 728.01,-112.5"/>
<text text-anchor="middle" x="806.51" y="-119.5" font-family="Helvetica,sans-Serif" font-size="10.00">boost/system/api_config.hpp</text>
</a>
</g>
</g>
<!-- Node1&#45;&gt;Node12 -->
<g id="edge14" class="edge">
<title>Node1&#45;&gt;Node12</title>
<path fill="none" stroke="midnightblue" d="M531.32,-168.44C589.33,-158.87 683.25,-143.36 744.95,-133.17"/>
<polygon fill="midnightblue" stroke="midnightblue" points="745.64,-136.6 754.94,-131.52 744.5,-129.69 745.64,-136.6"/>
</g>
<!-- Node13 -->
<g id="node13" class="node">
<title>Node13</title>
<g id="a_node13"><a xlink:title=" ">
<polygon fill="white" stroke="#bfbfbf" points="903.51,-112.5 903.51,-131.5 1059.51,-131.5 1059.51,-112.5 903.51,-112.5"/>
<text text-anchor="middle" x="981.51" y="-119.5" font-family="Helvetica,sans-Serif" font-size="10.00">boost/detail/workaround.hpp</text>
</a>
</g>
</g>
<!-- Node1&#45;&gt;Node13 -->
<g id="edge15" class="edge">
<title>Node1&#45;&gt;Node13</title>
<path fill="none" stroke="midnightblue" d="M541.57,-170.32C629.83,-160.83 792.06,-143.38 892.94,-132.53"/>
<polygon fill="midnightblue" stroke="midnightblue" points="893.54,-135.98 903.11,-131.43 892.79,-129.02 893.54,-135.98"/>
</g>
<!-- Node14 -->
<g id="node14" class="node">
<title>Node14</title>
<g id="a_node14"><a xlink:title=" ">
<polygon fill="white" stroke="#bfbfbf" points="1077.51,-112.5 1077.51,-131.5 1223.51,-131.5 1223.51,-112.5 1077.51,-112.5"/>
<text text-anchor="middle" x="1150.51" y="-119.5" font-family="Helvetica,sans-Serif" font-size="10.00">boost/config/auto_link.hpp</text>
</a>
</g>
</g>
<!-- Node1&#45;&gt;Node14 -->
<g id="edge16" class="edge">
<title>Node1&#45;&gt;Node14</title>
<path fill="none" stroke="midnightblue" d="M541.9,-172.91C647.69,-165.84 869.28,-150.36 1067.2,-132.09"/>
<polygon fill="midnightblue" stroke="midnightblue" points="1067.57,-135.58 1077.2,-131.17 1066.92,-128.61 1067.57,-135.58"/>
</g>
<!-- Node2&#45;&gt;Node3 -->
<g id="edge2" class="edge">
<title>Node2&#45;&gt;Node3</title>
<path fill="none" stroke="midnightblue" d="M290.37,-56.44C262.49,-47.32 218.16,-32.81 187.11,-22.65"/>
<polygon fill="midnightblue" stroke="midnightblue" points="188.13,-19.3 177.53,-19.52 185.95,-25.95 188.13,-19.3"/>
</g>
<!-- Node4&#45;&gt;Node2 -->
<g id="edge4" class="edge">
<title>Node4&#45;&gt;Node2</title>
<path fill="none" stroke="midnightblue" d="M207.95,-112.44C229.18,-103.56 262.61,-89.56 286.77,-79.45"/>
<polygon fill="midnightblue" stroke="midnightblue" points="288.29,-82.61 296.17,-75.52 285.59,-76.15 288.29,-82.61"/>
</g>
<!-- Node5 -->
<g id="node5" class="node">
<title>Node5</title>
<g id="a_node5"><a xlink:title=" ">
<polygon fill="white" stroke="#bfbfbf" points="199.51,-56.5 199.51,-75.5 243.51,-75.5 243.51,-56.5 199.51,-56.5"/>
<text text-anchor="middle" x="221.51" y="-63.5" font-family="Helvetica,sans-Serif" font-size="10.00">string</text>
</a>
</g>
</g>
<!-- Node4&#45;&gt;Node5 -->
<g id="edge5" class="edge">
<title>Node4&#45;&gt;Node5</title>
<path fill="none" stroke="midnightblue" d="M193.12,-112.08C197.88,-104.53 204.83,-93.49 210.66,-84.23"/>
<polygon fill="midnightblue" stroke="midnightblue" points="213.63,-86.08 216,-75.75 207.71,-82.35 213.63,-86.08"/>
</g>
<!-- Node6 -->
<g id="node6" class="node">
<title>Node6</title>
<g id="a_node6"><a xlink:title=" ">
<polygon fill="white" stroke="#bfbfbf" points="15.01,-56.5 15.01,-75.5 98.01,-75.5 98.01,-56.5 15.01,-56.5"/>
<text text-anchor="middle" x="56.51" y="-63.5" font-family="Helvetica,sans-Serif" font-size="10.00">initializer_list</text>
</a>
</g>
</g>
<!-- Node4&#45;&gt;Node6 -->
<g id="edge6" class="edge">
<title>Node4&#45;&gt;Node6</title>
<path fill="none" stroke="midnightblue" d="M166.75,-112.44C145.19,-103.56 111.25,-89.56 86.72,-79.45"/>
<polygon fill="midnightblue" stroke="midnightblue" points="87.75,-76.09 77.17,-75.52 85.08,-82.56 87.75,-76.09"/>
</g>
<!-- Node7 -->
<g id="node7" class="node">
<title>Node7</title>
<g id="a_node7"><a xlink:title=" ">
<polygon fill="white" stroke="#bfbfbf" points="116.01,-56.5 116.01,-75.5 181.01,-75.5 181.01,-56.5 116.01,-56.5"/>
<text text-anchor="middle" x="148.51" y="-63.5" font-family="Helvetica,sans-Serif" font-size="10.00">functional</text>
</a>
</g>
</g>
<!-- Node4&#45;&gt;Node7 -->
<g id="edge7" class="edge">
<title>Node4&#45;&gt;Node7</title>
<path fill="none" stroke="midnightblue" d="M181.07,-112.08C175.56,-104.46 167.48,-93.26 160.75,-83.94"/>
<polygon fill="midnightblue" stroke="midnightblue" points="163.52,-81.81 154.83,-75.75 157.85,-85.91 163.52,-81.81"/>
</g>
<!-- Node8&#45;&gt;Node2 -->
<g id="edge9" class="edge">
<title>Node8&#45;&gt;Node2</title>
<path fill="none" stroke="midnightblue" d="M344.06,-112.08C339.5,-104.61 332.84,-93.72 327.22,-84.52"/>
<polygon fill="midnightblue" stroke="midnightblue" points="330.06,-82.46 321.86,-75.75 324.09,-86.11 330.06,-82.46"/>
</g>
<!-- Node9 -->
<g id="node9" class="node">
<title>Node9</title>
<g id="a_node9"><a xlink:title=" ">
<polygon fill="white" stroke="#bfbfbf" points="390.01,-56.5 390.01,-75.5 491.01,-75.5 491.01,-56.5 390.01,-56.5"/>
<text text-anchor="middle" x="440.51" y="-63.5" font-family="Helvetica,sans-Serif" font-size="10.00">boost/cstdint.hpp</text>
</a>
</g>
</g>
<!-- Node8&#45;&gt;Node9 -->
<g id="edge10" class="edge">
<title>Node8&#45;&gt;Node9</title>
<path fill="none" stroke="midnightblue" d="M364.13,-112.32C378.46,-103.82 400.52,-90.73 417.26,-80.8"/>
<polygon fill="midnightblue" stroke="midnightblue" points="419.11,-83.77 425.93,-75.65 415.54,-77.75 419.11,-83.77"/>
</g>
</g>
</svg>
