<?xml version="1.0" encoding="UTF-8" standalone="no"?>
<!DOCTYPE svg PUBLIC "-//W3C//DTD SVG 1.1//EN"
 "http://www.w3.org/Graphics/SVG/1.1/DTD/svg11.dtd">
<!-- Generated by graphviz version 2.38.0 (20140413.2041)
 -->
<!-- Title: boost/ui/painter.hpp Pages: 1 -->
<svg width="4921pt" height="263pt"
 viewBox="0.00 0.00 4920.50 263.00" xmlns="http://www.w3.org/2000/svg" xmlns:xlink="http://www.w3.org/1999/xlink">
<g id="graph0" class="graph" transform="scale(1 1) rotate(0) translate(4 259)">
<title>boost/ui/painter.hpp</title>
<polygon fill="white" stroke="none" points="-4,4 -4,-259 4916.5,-259 4916.5,4 -4,4"/>
<!-- Node1 -->
<g id="node1" class="node"><title>Node1</title>
<polygon fill="#bfbfbf" stroke="black" points="4101,-235.5 4101,-254.5 4203,-254.5 4203,-235.5 4101,-235.5"/>
<text text-anchor="middle" x="4152" y="-242.5" font-family="Helvetica,sans-Serif" font-size="10.00">boost/ui/painter.hpp</text>
</g>
<!-- Node2 -->
<g id="node2" class="node"><title>Node2</title>
<g id="a_node2"><a xlink:href="config_8hpp.html" target="_top" xlink:title="Configuration options. ">
<polygon fill="white" stroke="black" points="4089.5,-62 4089.5,-81 4188.5,-81 4188.5,-62 4089.5,-62"/>
<text text-anchor="middle" x="4139" y="-69" font-family="Helvetica,sans-Serif" font-size="10.00">boost/ui/config.hpp</text>
</a>
</g>
</g>
<!-- Node1&#45;&gt;Node2 -->
<g id="edge1" class="edge"><title>Node1&#45;&gt;Node2</title>
<path fill="none" stroke="midnightblue" d="M4151.34,-235.26C4149.32,-208.651 4143.22,-128.215 4140.43,-91.3382"/>
<polygon fill="midnightblue" stroke="midnightblue" points="4143.89,-90.7262 4139.65,-81.0194 4136.91,-91.2553 4143.89,-90.7262"/>
</g>
<!-- Node4 -->
<g id="node4" class="node"><title>Node4</title>
<g id="a_node4"><a xlink:href="def_8hpp.html" target="_top" xlink:title="Definitions. ">
<polygon fill="white" stroke="black" points="3760,-123.5 3760,-142.5 3846,-142.5 3846,-123.5 3760,-123.5"/>
<text text-anchor="middle" x="3803" y="-130.5" font-family="Helvetica,sans-Serif" font-size="10.00">boost/ui/def.hpp</text>
</a>
</g>
</g>
<!-- Node1&#45;&gt;Node4 -->
<g id="edge3" class="edge"><title>Node1&#45;&gt;Node4</title>
<path fill="none" stroke="midnightblue" d="M4100.82,-243.812C4043.87,-241.781 3950.35,-232.921 3878,-199 3853.52,-187.52 3830.87,-165.688 3817,-150.51"/>
<polygon fill="midnightblue" stroke="midnightblue" points="3819.49,-148.044 3810.25,-142.87 3814.25,-152.68 3819.49,-148.044"/>
</g>
<!-- Node5 -->
<g id="node5" class="node"><title>Node5</title>
<polygon fill="white" stroke="#bfbfbf" points="4406.5,-179.5 4406.5,-198.5 4505.5,-198.5 4505.5,-179.5 4406.5,-179.5"/>
<text text-anchor="middle" x="4456" y="-186.5" font-family="Helvetica,sans-Serif" font-size="10.00">boost/ui/config.hpp</text>
</g>
<!-- Node1&#45;&gt;Node5 -->
<g id="edge5" class="edge"><title>Node1&#45;&gt;Node5</title>
<path fill="none" stroke="midnightblue" d="M4200.17,-235.444C4253.87,-225.905 4340.69,-210.483 4398.05,-200.293"/>
<polygon fill="midnightblue" stroke="midnightblue" points="4398.82,-203.712 4408.06,-198.516 4397.6,-196.819 4398.82,-203.712"/>
</g>
<!-- Node6 -->
<g id="node6" class="node"><title>Node6</title>
<g id="a_node6"><a xlink:href="color_8hpp.html" target="_top" xlink:title="Color class. ">
<polygon fill="white" stroke="black" points="4180,-123.5 4180,-142.5 4274,-142.5 4274,-123.5 4180,-123.5"/>
<text text-anchor="middle" x="4227" y="-130.5" font-family="Helvetica,sans-Serif" font-size="10.00">boost/ui/color.hpp</text>
</a>
</g>
</g>
<!-- Node1&#45;&gt;Node6 -->
<g id="edge6" class="edge"><title>Node1&#45;&gt;Node6</title>
<path fill="none" stroke="midnightblue" d="M4157.89,-235.368C4170.26,-217.215 4199.18,-174.802 4215.42,-150.99"/>
<polygon fill="midnightblue" stroke="midnightblue" points="4218.4,-152.825 4221.14,-142.591 4212.62,-148.882 4218.4,-152.825"/>
</g>
<!-- Node7 -->
<g id="node7" class="node"><title>Node7</title>
<polygon fill="white" stroke="#bfbfbf" points="4393,-62 4393,-81 4485,-81 4485,-62 4393,-62"/>
<text text-anchor="middle" x="4439" y="-69" font-family="Helvetica,sans-Serif" font-size="10.00">boost/cstdint.hpp</text>
</g>
<!-- Node1&#45;&gt;Node7 -->
<g id="edge9" class="edge"><title>Node1&#45;&gt;Node7</title>
<path fill="none" stroke="midnightblue" d="M4188.48,-235.483C4216.07,-228.151 4254.31,-216.043 4285,-199 4341.47,-167.638 4397.48,-114.744 4423.66,-88.4013"/>
<polygon fill="midnightblue" stroke="midnightblue" points="4426.29,-90.7192 4430.8,-81.1314 4421.3,-85.8151 4426.29,-90.7192"/>
</g>
<!-- Node8 -->
<g id="node8" class="node"><title>Node8</title>
<g id="a_node8"><a xlink:href="image_8hpp.html" target="_top" xlink:title="Image class. ">
<polygon fill="white" stroke="black" points="3660.5,-179.5 3660.5,-198.5 3759.5,-198.5 3759.5,-179.5 3660.5,-179.5"/>
<text text-anchor="middle" x="3710" y="-186.5" font-family="Helvetica,sans-Serif" font-size="10.00">boost/ui/image.hpp</text>
</a>
</g>
</g>
<!-- Node1&#45;&gt;Node8 -->
<g id="edge10" class="edge"><title>Node1&#45;&gt;Node8</title>
<path fill="none" stroke="midnightblue" d="M4100.82,-237.83C4029.41,-229.209 3895.84,-213.037 3782,-199 3778.03,-198.511 3773.95,-198.005 3769.83,-197.494"/>
<polygon fill="midnightblue" stroke="midnightblue" points="3769.93,-193.98 3759.57,-196.219 3769.07,-200.926 3769.93,-193.98"/>
</g>
<!-- Node38 -->
<g id="node38" class="node"><title>Node38</title>
<polygon fill="white" stroke="#bfbfbf" points="3744.5,-62 3744.5,-81 3857.5,-81 3857.5,-62 3744.5,-62"/>
<text text-anchor="middle" x="3801" y="-69" font-family="Helvetica,sans-Serif" font-size="10.00">boost/range/begin.hpp</text>
</g>
<!-- Node1&#45;&gt;Node38 -->
<g id="edge65" class="edge"><title>Node1&#45;&gt;Node38</title>
<path fill="none" stroke="midnightblue" d="M4146.39,-235.455C4129.73,-210.345 4080.21,-137.634 4056,-123 3982.45,-78.5409 3950.18,-104.359 3866,-87 3860.27,-85.8182 3854.26,-84.5369 3848.32,-83.2418"/>
<polygon fill="midnightblue" stroke="midnightblue" points="3848.94,-79.7952 3838.42,-81.064 3847.44,-86.6316 3848.94,-79.7952"/>
</g>
<!-- Node39 -->
<g id="node39" class="node"><title>Node39</title>
<polygon fill="white" stroke="#bfbfbf" points="3875.5,-62 3875.5,-81 3980.5,-81 3980.5,-62 3875.5,-62"/>
<text text-anchor="middle" x="3928" y="-69" font-family="Helvetica,sans-Serif" font-size="10.00">boost/range/end.hpp</text>
</g>
<!-- Node1&#45;&gt;Node39 -->
<g id="edge66" class="edge"><title>Node1&#45;&gt;Node39</title>
<path fill="none" stroke="midnightblue" d="M4150.01,-235.217C4144.51,-213.008 4127.02,-154.163 4090,-123 4080.6,-115.085 4014.61,-96.0297 3969.81,-83.7217"/>
<polygon fill="midnightblue" stroke="midnightblue" points="3970.61,-80.3123 3960.04,-81.0527 3968.77,-87.0648 3970.61,-80.3123"/>
</g>
<!-- Node40 -->
<g id="node40" class="node"><title>Node40</title>
<polygon fill="white" stroke="#bfbfbf" points="4206.5,-62 4206.5,-81 4313.5,-81 4313.5,-62 4206.5,-62"/>
<text text-anchor="middle" x="4260" y="-69" font-family="Helvetica,sans-Serif" font-size="10.00">boost/range/size.hpp</text>
</g>
<!-- Node1&#45;&gt;Node40 -->
<g id="edge67" class="edge"><title>Node1&#45;&gt;Node40</title>
<path fill="none" stroke="midnightblue" d="M4172.48,-235.435C4203.14,-221.336 4259.87,-190.032 4283,-143 4291.57,-125.562 4282.04,-104.179 4272.77,-89.565"/>
<polygon fill="midnightblue" stroke="midnightblue" points="4275.47,-87.3031 4266.92,-81.0485 4269.7,-91.2708 4275.47,-87.3031"/>
</g>
<!-- Node42 -->
<g id="node42" class="node"><title>Node42</title>
<polygon fill="white" stroke="#bfbfbf" points="4331,-62 4331,-81 4375,-81 4375,-62 4331,-62"/>
<text text-anchor="middle" x="4353" y="-69" font-family="Helvetica,sans-Serif" font-size="10.00">vector</text>
</g>
<!-- Node1&#45;&gt;Node42 -->
<g id="edge64" class="edge"><title>Node1&#45;&gt;Node42</title>
<path fill="none" stroke="midnightblue" d="M4184.65,-235.475C4207.43,-228.377 4237.64,-216.566 4260,-199 4299.16,-168.244 4329.78,-116.974 4344.12,-90.1237"/>
<polygon fill="midnightblue" stroke="midnightblue" points="4347.29,-91.6094 4348.8,-81.1224 4341.08,-88.3805 4347.29,-91.6094"/>
</g>
<!-- Node43 -->
<g id="node43" class="node"><title>Node43</title>
<polygon fill="white" stroke="#bfbfbf" points="2488.5,-123.5 2488.5,-142.5 2537.5,-142.5 2537.5,-123.5 2488.5,-123.5"/>
<text text-anchor="middle" x="2513" y="-130.5" font-family="Helvetica,sans-Serif" font-size="10.00">istream</text>
</g>
<!-- Node1&#45;&gt;Node43 -->
<g id="edge51" class="edge"><title>Node1&#45;&gt;Node43</title>
<path fill="none" stroke="midnightblue" d="M4100.94,-244.547C3901.97,-245.891 3159.66,-243.577 2547.65,-142.968"/>
<polygon fill="midnightblue" stroke="midnightblue" points="2548.18,-139.509 2537.75,-141.329 2547.04,-146.415 2548.18,-139.509"/>
</g>
<!-- Node44 -->
<g id="node44" class="node"><title>Node44</title>
<polygon fill="white" stroke="#bfbfbf" points="4523.5,-179.5 4523.5,-198.5 4620.5,-198.5 4620.5,-179.5 4523.5,-179.5"/>
<text text-anchor="middle" x="4572" y="-186.5" font-family="Helvetica,sans-Serif" font-size="10.00">boost/ui/coord.hpp</text>
</g>
<!-- Node1&#45;&gt;Node44 -->
<g id="edge50" class="edge"><title>Node1&#45;&gt;Node44</title>
<path fill="none" stroke="midnightblue" d="M4203.02,-238.151C4271.18,-230.227 4395.97,-215.34 4513.06,-199.093"/>
<polygon fill="midnightblue" stroke="midnightblue" points="4513.86,-202.516 4523.28,-197.669 4512.89,-195.583 4513.86,-202.516"/>
</g>
<!-- Node45 -->
<g id="node45" class="node"><title>Node45</title>
<g id="a_node45"><a xlink:href="font_8hpp.html" target="_top" xlink:title="Font class. ">
<polygon fill="white" stroke="black" points="3887.5,-179.5 3887.5,-198.5 3976.5,-198.5 3976.5,-179.5 3887.5,-179.5"/>
<text text-anchor="middle" x="3932" y="-186.5" font-family="Helvetica,sans-Serif" font-size="10.00">boost/ui/font.hpp</text>
</a>
</g>
</g>
<!-- Node1&#45;&gt;Node45 -->
<g id="edge52" class="edge"><title>Node1&#45;&gt;Node45</title>
<path fill="none" stroke="midnightblue" d="M4117.14,-235.444C4079.08,-226.102 4018.04,-211.119 3976.54,-200.933"/>
<polygon fill="midnightblue" stroke="midnightblue" points="3977.24,-197.501 3966.7,-198.516 3975.57,-204.299 3977.24,-197.501"/>
</g>
<!-- Node46 -->
<g id="node46" class="node"><title>Node46</title>
<g id="a_node46"><a xlink:href="string_8hpp.html" target="_top" xlink:title="String class and operations. ">
<polygon fill="white" stroke="black" points="3606.5,-123.5 3606.5,-142.5 3703.5,-142.5 3703.5,-123.5 3606.5,-123.5"/>
<text text-anchor="middle" x="3655" y="-130.5" font-family="Helvetica,sans-Serif" font-size="10.00">boost/ui/string.hpp</text>
</a>
</g>
</g>
<!-- Node1&#45;&gt;Node46 -->
<g id="edge60" class="edge"><title>Node1&#45;&gt;Node46</title>
<path fill="none" stroke="midnightblue" d="M4100.93,-239.419C4039.56,-233.25 3933.74,-220.489 3845,-199 3787.55,-185.087 3722.85,-161.09 3685.71,-146.469"/>
<polygon fill="midnightblue" stroke="midnightblue" points="3686.58,-143.049 3675.99,-142.611 3683.99,-149.555 3686.58,-143.049"/>
</g>
<!-- Node48 -->
<g id="node48" class="node"><title>Node48</title>
<polygon fill="white" stroke="#bfbfbf" points="3902.5,-123.5 3902.5,-142.5 4047.5,-142.5 4047.5,-123.5 3902.5,-123.5"/>
<text text-anchor="middle" x="3975" y="-130.5" font-family="Helvetica,sans-Serif" font-size="10.00">boost/core/scoped_enum.hpp</text>
</g>
<!-- Node1&#45;&gt;Node48 -->
<g id="edge63" class="edge"><title>Node1&#45;&gt;Node48</title>
<path fill="none" stroke="midnightblue" d="M4132.5,-235.475C4113.91,-227.061 4085.34,-213.398 4062,-199 4037.13,-183.66 4010.49,-163.071 3993.33,-149.21"/>
<polygon fill="midnightblue" stroke="midnightblue" points="3995.24,-146.253 3985.28,-142.638 3990.82,-151.675 3995.24,-146.253"/>
</g>
<!-- Node49 -->
<g id="node49" class="node"><title>Node49</title>
<polygon fill="white" stroke="#bfbfbf" points="4638.5,-179.5 4638.5,-198.5 4755.5,-198.5 4755.5,-179.5 4638.5,-179.5"/>
<text text-anchor="middle" x="4697" y="-186.5" font-family="Helvetica,sans-Serif" font-size="10.00">boost/noncopyable.hpp</text>
</g>
<!-- Node1&#45;&gt;Node49 -->
<g id="edge61" class="edge"><title>Node1&#45;&gt;Node49</title>
<path fill="none" stroke="midnightblue" d="M4203.24,-239.801C4288.88,-232.644 4466.75,-217.187 4628.29,-199.04"/>
<polygon fill="midnightblue" stroke="midnightblue" points="4628.87,-202.496 4638.41,-197.896 4628.08,-195.541 4628.87,-202.496"/>
</g>
<!-- Node50 -->
<g id="node50" class="node"><title>Node50</title>
<polygon fill="white" stroke="#bfbfbf" points="4773.5,-179.5 4773.5,-198.5 4912.5,-198.5 4912.5,-179.5 4773.5,-179.5"/>
<text text-anchor="middle" x="4843" y="-186.5" font-family="Helvetica,sans-Serif" font-size="10.00">boost/core/noncopyable.hpp</text>
</g>
<!-- Node1&#45;&gt;Node50 -->
<g id="edge62" class="edge"><title>Node1&#45;&gt;Node50</title>
<path fill="none" stroke="midnightblue" d="M4203.24,-240.928C4306.79,-234.569 4548.65,-218.951 4763.04,-199.053"/>
<polygon fill="midnightblue" stroke="midnightblue" points="4763.6,-202.516 4773.23,-198.102 4762.95,-195.546 4763.6,-202.516"/>
</g>
<!-- Node3 -->
<g id="node3" class="node"><title>Node3</title>
<polygon fill="white" stroke="#bfbfbf" points="3814.5,-0.5 3814.5,-19.5 3903.5,-19.5 3903.5,-0.5 3814.5,-0.5"/>
<text text-anchor="middle" x="3859" y="-7.5" font-family="Helvetica,sans-Serif" font-size="10.00">boost/config.hpp</text>
</g>
<!-- Node2&#45;&gt;Node3 -->
<g id="edge2" class="edge"><title>Node2&#45;&gt;Node3</title>
<path fill="none" stroke="midnightblue" d="M4105.36,-61.9851C4097.08,-59.9586 4088.23,-57.8491 4080,-56 4023.47,-43.3033 3958.45,-30.2496 3913.65,-21.4937"/>
<polygon fill="midnightblue" stroke="midnightblue" points="3914.04,-18.0051 3903.56,-19.528 3912.7,-24.8759 3914.04,-18.0051"/>
</g>
<!-- Node4&#45;&gt;Node2 -->
<g id="edge4" class="edge"><title>Node4&#45;&gt;Node2</title>
<path fill="none" stroke="midnightblue" d="M3846.21,-125.175C3918.32,-113.757 4057.53,-91.5782 4080,-87 4085.36,-85.9075 4090.97,-84.6623 4096.51,-83.3713"/>
<polygon fill="midnightblue" stroke="midnightblue" points="4097.43,-86.7516 4106.34,-81.0209 4095.8,-79.9437 4097.43,-86.7516"/>
</g>
<!-- Node6&#45;&gt;Node2 -->
<g id="edge7" class="edge"><title>Node6&#45;&gt;Node2</title>
<path fill="none" stroke="midnightblue" d="M4214.39,-123.475C4200.28,-113.931 4177.17,-98.3073 4160.25,-86.8683"/>
<polygon fill="midnightblue" stroke="midnightblue" points="4161.83,-83.7109 4151.58,-81.0091 4157.91,-89.5098 4161.83,-83.7109"/>
</g>
<!-- Node6&#45;&gt;Node7 -->
<g id="edge8" class="edge"><title>Node6&#45;&gt;Node7</title>
<path fill="none" stroke="midnightblue" d="M4257.37,-123.475C4294.61,-113.026 4357.81,-95.2868 4398.98,-83.7332"/>
<polygon fill="midnightblue" stroke="midnightblue" points="4400,-87.0811 4408.68,-81.0091 4398.11,-80.3416 4400,-87.0811"/>
</g>
<!-- Node8&#45;&gt;Node2 -->
<g id="edge11" class="edge"><title>Node8&#45;&gt;Node2</title>
<path fill="none" stroke="midnightblue" d="M3712.64,-179.491C3717.59,-165.117 3729.73,-136.292 3751,-123 3813.37,-84.0246 4007.58,-99.8043 4080,-87 4085.79,-85.9765 4091.85,-84.7114 4097.8,-83.3584"/>
<polygon fill="midnightblue" stroke="midnightblue" points="4098.7,-86.741 4107.63,-81.0255 4097.09,-79.9304 4098.7,-86.741"/>
</g>
<!-- Node9 -->
<g id="node9" class="node"><title>Node9</title>
<g id="a_node9"><a xlink:href="coord_8hpp.html" target="_top" xlink:title="Coordinates classes. ">
<polygon fill="white" stroke="red" points="2555.5,-123.5 2555.5,-142.5 2652.5,-142.5 2652.5,-123.5 2555.5,-123.5"/>
<text text-anchor="middle" x="2604" y="-130.5" font-family="Helvetica,sans-Serif" font-size="10.00">boost/ui/coord.hpp</text>
</a>
</g>
</g>
<!-- Node8&#45;&gt;Node9 -->
<g id="edge12" class="edge"><title>Node8&#45;&gt;Node9</title>
<path fill="none" stroke="midnightblue" d="M3660.33,-185.575C3479.56,-176.749 2857.21,-146.363 2662.62,-136.862"/>
<polygon fill="midnightblue" stroke="midnightblue" points="2662.75,-133.364 2652.59,-136.373 2662.41,-140.356 2662.75,-133.364"/>
</g>
<!-- Node8&#45;&gt;Node43 -->
<g id="edge49" class="edge"><title>Node8&#45;&gt;Node43</title>
<path fill="none" stroke="midnightblue" d="M3660.46,-187.585C3470.22,-185.761 2785.65,-177.034 2547.71,-142.883"/>
<polygon fill="midnightblue" stroke="midnightblue" points="2548.14,-139.409 2537.74,-141.395 2547.11,-146.332 2548.14,-139.409"/>
</g>
<!-- Node9&#45;&gt;Node2 -->
<g id="edge13" class="edge"><title>Node9&#45;&gt;Node2</title>
<path fill="none" stroke="midnightblue" d="M2652.59,-131.892C2874.72,-131.19 3794.87,-125.941 4080,-87 4086.38,-86.1289 4093.07,-84.849 4099.56,-83.4048"/>
<polygon fill="midnightblue" stroke="midnightblue" points="4100.6,-86.7541 4109.52,-81.0351 4098.98,-79.9441 4100.6,-86.7541"/>
</g>
<!-- Node9&#45;&gt;Node3 -->
<g id="edge17" class="edge"><title>Node9&#45;&gt;Node3</title>
<path fill="none" stroke="midnightblue" d="M2652.55,-131.496C2835.33,-129.355 3475.91,-119.579 3561,-87 3581.36,-79.2069 3579.17,-65.0432 3599,-56 3665.37,-25.7342 3749.77,-15.7094 3804.09,-12.455"/>
<polygon fill="midnightblue" stroke="midnightblue" points="3804.41,-15.943 3814.21,-11.9066 3804.03,-8.95324 3804.41,-15.943"/>
</g>
<!-- Node9&#45;&gt;Node7 -->
<g id="edge47" class="edge"><title>Node9&#45;&gt;Node7</title>
<path fill="none" stroke="midnightblue" d="M2652.94,-131.442C2921.31,-128.292 4208.7,-111.976 4384,-87 4389.82,-86.1702 4395.92,-84.9412 4401.84,-83.5439"/>
<polygon fill="midnightblue" stroke="midnightblue" points="4402.73,-86.9285 4411.56,-81.0741 4401.01,-80.144 4402.73,-86.9285"/>
</g>
<!-- Node10 -->
<g id="node10" class="node"><title>Node10</title>
<polygon fill="white" stroke="#bfbfbf" points="3118.5,-62 3118.5,-81 3221.5,-81 3221.5,-62 3118.5,-62"/>
<text text-anchor="middle" x="3170" y="-69" font-family="Helvetica,sans-Serif" font-size="10.00">boost/geometry.hpp</text>
</g>
<!-- Node9&#45;&gt;Node10 -->
<g id="edge14" class="edge"><title>Node9&#45;&gt;Node10</title>
<path fill="none" stroke="midnightblue" d="M2652.69,-130.003C2743.1,-125.777 2942.84,-114.006 3109,-87 3115.2,-85.9915 3121.71,-84.7001 3128.08,-83.3048"/>
<polygon fill="midnightblue" stroke="midnightblue" points="3128.92,-86.7018 3137.88,-81.0523 3127.35,-79.8793 3128.92,-86.7018"/>
</g>
<!-- Node11 -->
<g id="node11" class="node"><title>Node11</title>
<polygon fill="white" stroke="#bfbfbf" points="3239.5,-56.5 3239.5,-86.5 3374.5,-86.5 3374.5,-56.5 3239.5,-56.5"/>
<text text-anchor="start" x="3247.5" y="-74.5" font-family="Helvetica,sans-Serif" font-size="10.00">boost/geometry/geometries</text>
<text text-anchor="middle" x="3307" y="-63.5" font-family="Helvetica,sans-Serif" font-size="10.00">/point_xy.hpp</text>
</g>
<!-- Node9&#45;&gt;Node11 -->
<g id="edge15" class="edge"><title>Node9&#45;&gt;Node11</title>
<path fill="none" stroke="midnightblue" d="M2652.89,-130.389C2756.98,-126.549 3008.29,-115.096 3229.3,-86.9784"/>
<polygon fill="midnightblue" stroke="midnightblue" points="3229.99,-90.4177 3239.46,-85.6701 3229.1,-83.4749 3229.99,-90.4177"/>
</g>
<!-- Node12 -->
<g id="node12" class="node"><title>Node12</title>
<polygon fill="white" stroke="#bfbfbf" points="3392.5,-62 3392.5,-81 3441.5,-81 3441.5,-62 3392.5,-62"/>
<text text-anchor="middle" x="3417" y="-69" font-family="Helvetica,sans-Serif" font-size="10.00">cstddef</text>
</g>
<!-- Node9&#45;&gt;Node12 -->
<g id="edge16" class="edge"><title>Node9&#45;&gt;Node12</title>
<path fill="none" stroke="midnightblue" d="M2652.74,-131.375C2800.71,-129.134 3243.2,-119.794 3383,-87 3385.51,-86.4101 3388.08,-85.6473 3390.62,-84.7805"/>
<polygon fill="midnightblue" stroke="midnightblue" points="3392.06,-87.974 3400.09,-81.0679 3389.51,-81.4561 3392.06,-87.974"/>
</g>
<!-- Node13 -->
<g id="node13" class="node"><title>Node13</title>
<polygon fill="white" stroke="#bfbfbf" points="3460,-62 3460,-81 3552,-81 3552,-62 3460,-62"/>
<text text-anchor="middle" x="3506" y="-69" font-family="Helvetica,sans-Serif" font-size="10.00">boost/mpl/int.hpp</text>
</g>
<!-- Node9&#45;&gt;Node13 -->
<g id="edge18" class="edge"><title>Node9&#45;&gt;Node13</title>
<path fill="none" stroke="midnightblue" d="M2652.56,-130.696C2808.36,-126.311 3294.56,-111.01 3450,-87 3455.79,-86.1063 3461.84,-84.8676 3467.74,-83.4876"/>
<polygon fill="midnightblue" stroke="midnightblue" points="3468.6,-86.8817 3477.45,-81.0673 3466.9,-80.0894 3468.6,-86.8817"/>
</g>
<!-- Node14 -->
<g id="node14" class="node"><title>Node14</title>
<polygon fill="white" stroke="#bfbfbf" points="0,-56.5 0,-86.5 106,-86.5 106,-56.5 0,-56.5"/>
<text text-anchor="start" x="8" y="-74.5" font-family="Helvetica,sans-Serif" font-size="10.00">boost/geometry/core</text>
<text text-anchor="middle" x="53" y="-63.5" font-family="Helvetica,sans-Serif" font-size="10.00">/cs.hpp</text>
</g>
<!-- Node9&#45;&gt;Node14 -->
<g id="edge19" class="edge"><title>Node9&#45;&gt;Node14</title>
<path fill="none" stroke="midnightblue" d="M2555.32,-123.944C2552.17,-123.578 2549.05,-123.258 2546,-123 2010.93,-77.7451 667.775,-151.982 116.372,-86.9467"/>
<polygon fill="midnightblue" stroke="midnightblue" points="116.65,-83.4551 106.303,-85.7328 115.812,-90.4047 116.65,-83.4551"/>
</g>
<!-- Node15 -->
<g id="node15" class="node"><title>Node15</title>
<polygon fill="white" stroke="#bfbfbf" points="124.5,-56.5 124.5,-86.5 259.5,-86.5 259.5,-56.5 124.5,-56.5"/>
<text text-anchor="start" x="132.5" y="-74.5" font-family="Helvetica,sans-Serif" font-size="10.00">boost/geometry/geometries</text>
<text text-anchor="middle" x="192" y="-63.5" font-family="Helvetica,sans-Serif" font-size="10.00">/point.hpp</text>
</g>
<!-- Node9&#45;&gt;Node15 -->
<g id="edge20" class="edge"><title>Node9&#45;&gt;Node15</title>
<path fill="none" stroke="midnightblue" d="M2555.32,-123.948C2552.17,-123.581 2549.05,-123.259 2546,-123 2045.08,-80.3813 789.186,-137.252 269.754,-86.9027"/>
<polygon fill="midnightblue" stroke="midnightblue" points="269.808,-83.3909 259.511,-85.8862 269.117,-90.3567 269.808,-83.3909"/>
</g>
<!-- Node16 -->
<g id="node16" class="node"><title>Node16</title>
<polygon fill="white" stroke="#bfbfbf" points="278,-62 278,-81 386,-81 386,-62 278,-62"/>
<text text-anchor="middle" x="332" y="-69" font-family="Helvetica,sans-Serif" font-size="10.00">boost/mpl/assert.hpp</text>
</g>
<!-- Node9&#45;&gt;Node16 -->
<g id="edge21" class="edge"><title>Node9&#45;&gt;Node16</title>
<path fill="none" stroke="midnightblue" d="M2555.32,-123.951C2552.17,-123.584 2549.05,-123.261 2546,-123 2069.67,-82.2514 869.544,-144.931 395,-87 387.964,-86.141 380.565,-84.8234 373.411,-83.3257"/>
<polygon fill="midnightblue" stroke="midnightblue" points="373.698,-79.8033 363.175,-81.0349 372.169,-86.6344 373.698,-79.8033"/>
</g>
<!-- Node17 -->
<g id="node17" class="node"><title>Node17</title>
<polygon fill="white" stroke="#bfbfbf" points="404,-56.5 404,-86.5 510,-86.5 510,-56.5 404,-56.5"/>
<text text-anchor="start" x="412" y="-74.5" font-family="Helvetica,sans-Serif" font-size="10.00">boost/geometry/core</text>
<text text-anchor="middle" x="457" y="-63.5" font-family="Helvetica,sans-Serif" font-size="10.00">/access.hpp</text>
</g>
<!-- Node9&#45;&gt;Node17 -->
<g id="edge22" class="edge"><title>Node9&#45;&gt;Node17</title>
<path fill="none" stroke="midnightblue" d="M2555.32,-123.955C2552.17,-123.586 2549.05,-123.262 2546,-123 2100.43,-84.653 982.602,-141.761 520.427,-86.9541"/>
<polygon fill="midnightblue" stroke="midnightblue" points="520.654,-83.456 510.305,-85.7226 519.809,-90.4048 520.654,-83.456"/>
</g>
<!-- Node18 -->
<g id="node18" class="node"><title>Node18</title>
<polygon fill="white" stroke="#bfbfbf" points="528.5,-62 528.5,-81 675.5,-81 675.5,-62 528.5,-62"/>
<text text-anchor="middle" x="602" y="-69" font-family="Helvetica,sans-Serif" font-size="10.00">boost/core/ignore_unused.hpp</text>
</g>
<!-- Node9&#45;&gt;Node18 -->
<g id="edge23" class="edge"><title>Node9&#45;&gt;Node18</title>
<path fill="none" stroke="midnightblue" d="M2555.32,-123.96C2552.17,-123.591 2549.05,-123.265 2546,-123 1721.84,-51.4126 1508.45,-166.417 685,-87 674.844,-86.0205 664.061,-84.4984 653.746,-82.802"/>
<polygon fill="midnightblue" stroke="midnightblue" points="654.077,-79.3075 643.628,-81.0611 652.89,-86.2061 654.077,-79.3075"/>
</g>
<!-- Node19 -->
<g id="node19" class="node"><title>Node19</title>
<polygon fill="white" stroke="#bfbfbf" points="694,-56.5 694,-86.5 794,-86.5 794,-56.5 694,-56.5"/>
<text text-anchor="start" x="702" y="-74.5" font-family="Helvetica,sans-Serif" font-size="10.00">boost/type_traits/is</text>
<text text-anchor="middle" x="744" y="-63.5" font-family="Helvetica,sans-Serif" font-size="10.00">_pointer.hpp</text>
</g>
<!-- Node9&#45;&gt;Node19 -->
<g id="edge24" class="edge"><title>Node9&#45;&gt;Node19</title>
<path fill="none" stroke="midnightblue" d="M2555.32,-123.965C2552.17,-123.594 2549.05,-123.267 2546,-123 2163.36,-89.511 1203.69,-136.717 804.271,-86.9103"/>
<polygon fill="midnightblue" stroke="midnightblue" points="804.433,-83.4025 794.069,-85.6008 803.542,-90.3456 804.433,-83.4025"/>
</g>
<!-- Node20 -->
<g id="node20" class="node"><title>Node20</title>
<polygon fill="white" stroke="#bfbfbf" points="812.5,-56.5 812.5,-86.5 937.5,-86.5 937.5,-56.5 812.5,-56.5"/>
<text text-anchor="start" x="820.5" y="-74.5" font-family="Helvetica,sans-Serif" font-size="10.00">boost/type_traits/remove</text>
<text text-anchor="middle" x="875" y="-63.5" font-family="Helvetica,sans-Serif" font-size="10.00">_pointer.hpp</text>
</g>
<!-- Node9&#45;&gt;Node20 -->
<g id="edge25" class="edge"><title>Node9&#45;&gt;Node20</title>
<path fill="none" stroke="midnightblue" d="M2555.32,-123.972C2552.17,-123.599 2549.05,-123.269 2546,-123 1840.85,-60.6293 1654.61,-165.474 947.802,-87.0598"/>
<polygon fill="midnightblue" stroke="midnightblue" points="947.95,-83.5547 937.623,-85.9219 947.172,-90.5113 947.95,-83.5547"/>
</g>
<!-- Node21 -->
<g id="node21" class="node"><title>Node21</title>
<polygon fill="white" stroke="#bfbfbf" points="955.5,-56.5 955.5,-86.5 1062.5,-86.5 1062.5,-56.5 955.5,-56.5"/>
<text text-anchor="start" x="963.5" y="-74.5" font-family="Helvetica,sans-Serif" font-size="10.00">boost/geometry/core</text>
<text text-anchor="middle" x="1009" y="-63.5" font-family="Helvetica,sans-Serif" font-size="10.00">/coordinate_type.hpp</text>
</g>
<!-- Node9&#45;&gt;Node21 -->
<g id="edge26" class="edge"><title>Node9&#45;&gt;Node21</title>
<path fill="none" stroke="midnightblue" d="M2555.32,-123.978C2552.17,-123.604 2549.04,-123.272 2546,-123 1896.2,-64.9014 1723.23,-169.026 1072.74,-87.0391"/>
<polygon fill="midnightblue" stroke="midnightblue" points="1073.01,-83.5449 1062.65,-85.7567 1072.12,-90.4891 1073.01,-83.5449"/>
</g>
<!-- Node22 -->
<g id="node22" class="node"><title>Node22</title>
<polygon fill="white" stroke="#bfbfbf" points="1080,-56.5 1080,-86.5 1186,-86.5 1186,-56.5 1080,-56.5"/>
<text text-anchor="start" x="1088" y="-74.5" font-family="Helvetica,sans-Serif" font-size="10.00">boost/geometry/core</text>
<text text-anchor="middle" x="1133" y="-63.5" font-family="Helvetica,sans-Serif" font-size="10.00">/point_type.hpp</text>
</g>
<!-- Node9&#45;&gt;Node22 -->
<g id="edge27" class="edge"><title>Node9&#45;&gt;Node22</title>
<path fill="none" stroke="midnightblue" d="M2555.32,-123.986C2552.17,-123.61 2549.04,-123.276 2546,-123 1951.15,-69.1428 1792.51,-162.727 1196.45,-86.9912"/>
<polygon fill="midnightblue" stroke="midnightblue" points="1196.67,-83.4914 1186.31,-85.6919 1195.78,-90.4346 1196.67,-83.4914"/>
</g>
<!-- Node23 -->
<g id="node23" class="node"><title>Node23</title>
<polygon fill="white" stroke="#bfbfbf" points="1204,-56.5 1204,-86.5 1310,-86.5 1310,-56.5 1204,-56.5"/>
<text text-anchor="start" x="1212" y="-74.5" font-family="Helvetica,sans-Serif" font-size="10.00">boost/geometry/core</text>
<text text-anchor="middle" x="1257" y="-63.5" font-family="Helvetica,sans-Serif" font-size="10.00">/tag.hpp</text>
</g>
<!-- Node9&#45;&gt;Node23 -->
<g id="edge28" class="edge"><title>Node9&#45;&gt;Node23</title>
<path fill="none" stroke="midnightblue" d="M2555.32,-123.996C2552.17,-123.618 2549.04,-123.28 2546,-123 2006.04,-73.3799 1861.75,-156.448 1320.33,-86.9798"/>
<polygon fill="midnightblue" stroke="midnightblue" points="1320.68,-83.4956 1310.31,-85.6826 1319.78,-90.4376 1320.68,-83.4956"/>
</g>
<!-- Node24 -->
<g id="node24" class="node"><title>Node24</title>
<polygon fill="white" stroke="#bfbfbf" points="1328,-56.5 1328,-86.5 1428,-86.5 1428,-56.5 1328,-56.5"/>
<text text-anchor="start" x="1336" y="-74.5" font-family="Helvetica,sans-Serif" font-size="10.00">boost/geometry/util</text>
<text text-anchor="middle" x="1378" y="-63.5" font-family="Helvetica,sans-Serif" font-size="10.00">/bare_type.hpp</text>
</g>
<!-- Node9&#45;&gt;Node24 -->
<g id="edge29" class="edge"><title>Node9&#45;&gt;Node24</title>
<path fill="none" stroke="midnightblue" d="M2555.32,-124.007C2552.17,-123.626 2549.04,-123.284 2546,-123 2058.35,-77.42 1927.33,-153.164 1438.23,-86.9473"/>
<polygon fill="midnightblue" stroke="midnightblue" points="1438.46,-83.4464 1428.07,-85.5597 1437.51,-90.3819 1438.46,-83.4464"/>
</g>
<!-- Node25 -->
<g id="node25" class="node"><title>Node25</title>
<polygon fill="white" stroke="#bfbfbf" points="1446,-56.5 1446,-86.5 1552,-86.5 1552,-56.5 1446,-56.5"/>
<text text-anchor="start" x="1454" y="-74.5" font-family="Helvetica,sans-Serif" font-size="10.00">boost/geometry/core</text>
<text text-anchor="middle" x="1499" y="-63.5" font-family="Helvetica,sans-Serif" font-size="10.00">/assert.hpp</text>
</g>
<!-- Node9&#45;&gt;Node25 -->
<g id="edge30" class="edge"><title>Node9&#45;&gt;Node25</title>
<path fill="none" stroke="midnightblue" d="M2555.32,-124.021C2552.17,-123.637 2549.04,-123.291 2546,-123 2112.78,-81.6234 1996.29,-145.018 1562.1,-87.1215"/>
<polygon fill="midnightblue" stroke="midnightblue" points="1562.49,-83.6423 1552.11,-85.7757 1561.56,-90.5796 1562.49,-83.6423"/>
</g>
<!-- Node26 -->
<g id="node26" class="node"><title>Node26</title>
<polygon fill="white" stroke="#bfbfbf" points="1569.5,-62 1569.5,-81 1658.5,-81 1658.5,-62 1569.5,-62"/>
<text text-anchor="middle" x="1614" y="-69" font-family="Helvetica,sans-Serif" font-size="10.00">boost/assert.hpp</text>
</g>
<!-- Node9&#45;&gt;Node26 -->
<g id="edge31" class="edge"><title>Node9&#45;&gt;Node26</title>
<path fill="none" stroke="midnightblue" d="M2555.32,-124.037C2552.17,-123.649 2549.04,-123.297 2546,-123 2156.86,-84.9623 2053.37,-146.972 1667,-87 1661.58,-86.1587 1655.92,-84.9637 1650.4,-83.6165"/>
<polygon fill="midnightblue" stroke="midnightblue" points="1651.27,-80.2252 1640.71,-81.0706 1649.49,-86.9956 1651.27,-80.2252"/>
</g>
<!-- Node27 -->
<g id="node27" class="node"><title>Node27</title>
<polygon fill="white" stroke="#bfbfbf" points="1676.5,-56.5 1676.5,-86.5 1797.5,-86.5 1797.5,-56.5 1676.5,-56.5"/>
<text text-anchor="start" x="1684.5" y="-74.5" font-family="Helvetica,sans-Serif" font-size="10.00">boost/geometry/core</text>
<text text-anchor="middle" x="1737" y="-63.5" font-family="Helvetica,sans-Serif" font-size="10.00">/coordinate_system.hpp</text>
</g>
<!-- Node9&#45;&gt;Node27 -->
<g id="edge32" class="edge"><title>Node9&#45;&gt;Node27</title>
<path fill="none" stroke="midnightblue" d="M2555.31,-124.064C2552.17,-123.669 2549.04,-123.309 2546,-123 2221.77,-90.0499 2134.37,-128.192 1808.08,-87.138"/>
<polygon fill="midnightblue" stroke="midnightblue" points="1808.23,-83.6281 1797.86,-85.8364 1807.34,-90.572 1808.23,-83.6281"/>
</g>
<!-- Node28 -->
<g id="node28" class="node"><title>Node28</title>
<polygon fill="white" stroke="#bfbfbf" points="1815.5,-56.5 1815.5,-86.5 1948.5,-86.5 1948.5,-56.5 1815.5,-56.5"/>
<text text-anchor="start" x="1823.5" y="-74.5" font-family="Helvetica,sans-Serif" font-size="10.00">boost/geometry/core</text>
<text text-anchor="middle" x="1882" y="-63.5" font-family="Helvetica,sans-Serif" font-size="10.00">/coordinate_dimension.hpp</text>
</g>
<!-- Node9&#45;&gt;Node28 -->
<g id="edge33" class="edge"><title>Node9&#45;&gt;Node28</title>
<path fill="none" stroke="midnightblue" d="M2555.31,-124.109C2552.16,-123.703 2549.04,-123.328 2546,-123 2288.56,-95.2193 2218.95,-119.332 1958.72,-87.1096"/>
<polygon fill="midnightblue" stroke="midnightblue" points="1958.94,-83.6104 1948.58,-85.8385 1958.07,-90.556 1958.94,-83.6104"/>
</g>
<!-- Node29 -->
<g id="node29" class="node"><title>Node29</title>
<polygon fill="white" stroke="#bfbfbf" points="1966.5,-56.5 1966.5,-86.5 2101.5,-86.5 2101.5,-56.5 1966.5,-56.5"/>
<text text-anchor="start" x="1974.5" y="-74.5" font-family="Helvetica,sans-Serif" font-size="10.00">boost/geometry/geometries</text>
<text text-anchor="middle" x="2034" y="-63.5" font-family="Helvetica,sans-Serif" font-size="10.00">/box.hpp</text>
</g>
<!-- Node9&#45;&gt;Node29 -->
<g id="edge34" class="edge"><title>Node9&#45;&gt;Node29</title>
<path fill="none" stroke="midnightblue" d="M2555.3,-124.184C2552.16,-123.76 2549.04,-123.36 2546,-123 2356.22,-100.47 2304.42,-112.817 2112.06,-87.1947"/>
<polygon fill="midnightblue" stroke="midnightblue" points="2112.27,-83.6921 2101.89,-85.8234 2111.34,-90.6293 2112.27,-83.6921"/>
</g>
<!-- Node30 -->
<g id="node30" class="node"><title>Node30</title>
<polygon fill="white" stroke="#bfbfbf" points="2119.5,-62 2119.5,-81 2246.5,-81 2246.5,-62 2119.5,-62"/>
<text text-anchor="middle" x="2183" y="-69" font-family="Helvetica,sans-Serif" font-size="10.00">boost/concept/assert.hpp</text>
</g>
<!-- Node9&#45;&gt;Node30 -->
<g id="edge35" class="edge"><title>Node9&#45;&gt;Node30</title>
<path fill="none" stroke="midnightblue" d="M2555.28,-124.33C2552.14,-123.87 2549.03,-123.423 2546,-123 2417.37,-105.04 2384.22,-107.665 2256,-87 2248.55,-85.7992 2240.7,-84.3916 2233.02,-82.934"/>
<polygon fill="midnightblue" stroke="midnightblue" points="2233.55,-79.4722 2223.07,-81.0023 2232.22,-86.3439 2233.55,-79.4722"/>
</g>
<!-- Node31 -->
<g id="node31" class="node"><title>Node31</title>
<polygon fill="white" stroke="#bfbfbf" points="2265,-56.5 2265,-86.5 2397,-86.5 2397,-56.5 2265,-56.5"/>
<text text-anchor="start" x="2273" y="-74.5" font-family="Helvetica,sans-Serif" font-size="10.00">boost/geometry/algorithms</text>
<text text-anchor="middle" x="2331" y="-63.5" font-family="Helvetica,sans-Serif" font-size="10.00">/convert.hpp</text>
</g>
<!-- Node9&#45;&gt;Node31 -->
<g id="edge36" class="edge"><title>Node9&#45;&gt;Node31</title>
<path fill="none" stroke="midnightblue" d="M2564.89,-123.475C2523.42,-114.438 2456.93,-99.9473 2405.43,-88.7219"/>
<polygon fill="midnightblue" stroke="midnightblue" points="2405.86,-85.2328 2395.34,-86.523 2404.37,-92.0723 2405.86,-85.2328"/>
</g>
<!-- Node32 -->
<g id="node32" class="node"><title>Node32</title>
<polygon fill="white" stroke="#bfbfbf" points="2415,-56.5 2415,-86.5 2543,-86.5 2543,-56.5 2415,-56.5"/>
<text text-anchor="start" x="2423" y="-74.5" font-family="Helvetica,sans-Serif" font-size="10.00">boost/numeric/conversion</text>
<text text-anchor="middle" x="2479" y="-63.5" font-family="Helvetica,sans-Serif" font-size="10.00">/cast.hpp</text>
</g>
<!-- Node9&#45;&gt;Node32 -->
<g id="edge37" class="edge"><title>Node9&#45;&gt;Node32</title>
<path fill="none" stroke="midnightblue" d="M2586.09,-123.475C2568.29,-115.002 2540.42,-101.737 2517.58,-90.8628"/>
<polygon fill="midnightblue" stroke="midnightblue" points="2518.99,-87.6607 2508.46,-86.523 2515.99,-93.9812 2518.99,-87.6607"/>
</g>
<!-- Node33 -->
<g id="node33" class="node"><title>Node33</title>
<polygon fill="white" stroke="#bfbfbf" points="2561,-62 2561,-81 2647,-81 2647,-62 2561,-62"/>
<text text-anchor="middle" x="2604" y="-69" font-family="Helvetica,sans-Serif" font-size="10.00">boost/range.hpp</text>
</g>
<!-- Node9&#45;&gt;Node33 -->
<g id="edge38" class="edge"><title>Node9&#45;&gt;Node33</title>
<path fill="none" stroke="midnightblue" d="M2604,-123.475C2604,-115.08 2604,-101.981 2604,-91.1631"/>
<polygon fill="midnightblue" stroke="midnightblue" points="2607.5,-91.0091 2604,-81.0091 2600.5,-91.0091 2607.5,-91.0091"/>
</g>
<!-- Node34 -->
<g id="node34" class="node"><title>Node34</title>
<polygon fill="white" stroke="#bfbfbf" points="2665.5,-62 2665.5,-81 2794.5,-81 2794.5,-62 2665.5,-62"/>
<text text-anchor="middle" x="2730" y="-69" font-family="Helvetica,sans-Serif" font-size="10.00">boost/range/functions.hpp</text>
</g>
<!-- Node9&#45;&gt;Node34 -->
<g id="edge39" class="edge"><title>Node9&#45;&gt;Node34</title>
<path fill="none" stroke="midnightblue" d="M2622.05,-123.475C2643.2,-113.49 2678.44,-96.8476 2702.88,-85.3075"/>
<polygon fill="midnightblue" stroke="midnightblue" points="2704.43,-88.4441 2711.98,-81.0091 2701.44,-82.1143 2704.43,-88.4441"/>
</g>
<!-- Node35 -->
<g id="node35" class="node"><title>Node35</title>
<polygon fill="white" stroke="#bfbfbf" points="2812.5,-62 2812.5,-81 2963.5,-81 2963.5,-62 2812.5,-62"/>
<text text-anchor="middle" x="2888" y="-69" font-family="Helvetica,sans-Serif" font-size="10.00">boost/range/metafunctions.hpp</text>
</g>
<!-- Node9&#45;&gt;Node35 -->
<g id="edge40" class="edge"><title>Node9&#45;&gt;Node35</title>
<path fill="none" stroke="midnightblue" d="M2644.69,-123.475C2695.52,-112.827 2782.47,-94.6092 2837.5,-83.0806"/>
<polygon fill="midnightblue" stroke="midnightblue" points="2838.32,-86.4853 2847.39,-81.0091 2836.88,-79.6341 2838.32,-86.4853"/>
</g>
<!-- Node36 -->
<g id="node36" class="node"><title>Node36</title>
<polygon fill="white" stroke="#bfbfbf" points="2981.5,-62 2981.5,-81 3100.5,-81 3100.5,-62 2981.5,-62"/>
<text text-anchor="middle" x="3041" y="-69" font-family="Helvetica,sans-Serif" font-size="10.00">boost/range/iterator.hpp</text>
</g>
<!-- Node9&#45;&gt;Node36 -->
<g id="edge41" class="edge"><title>Node9&#45;&gt;Node36</title>
<path fill="none" stroke="midnightblue" d="M2652.71,-127.383C2723.33,-120.385 2858.18,-105.883 2972,-87 2978.82,-85.8693 2985.98,-84.5325 2993.01,-83.1353"/>
<polygon fill="midnightblue" stroke="midnightblue" points="2994.05,-86.494 3003.15,-81.062 2992.65,-79.6358 2994.05,-86.494"/>
</g>
<!-- Node37 -->
<g id="node37" class="node"><title>Node37</title>
<polygon fill="white" stroke="#bfbfbf" points="3667.5,-62 3667.5,-81 3726.5,-81 3726.5,-62 3667.5,-62"/>
<text text-anchor="middle" x="3697" y="-69" font-family="Helvetica,sans-Serif" font-size="10.00">functional</text>
</g>
<!-- Node9&#45;&gt;Node37 -->
<g id="edge42" class="edge"><title>Node9&#45;&gt;Node37</title>
<path fill="none" stroke="midnightblue" d="M2652.6,-131.936C2832.71,-131.389 3461.87,-126.618 3658,-87 3661.26,-86.3421 3664.6,-85.4524 3667.9,-84.4356"/>
<polygon fill="midnightblue" stroke="midnightblue" points="3669.21,-87.6873 3677.51,-81.1079 3666.92,-81.0726 3669.21,-87.6873"/>
</g>
<!-- Node9&#45;&gt;Node38 -->
<g id="edge43" class="edge"><title>Node9&#45;&gt;Node38</title>
<path fill="none" stroke="midnightblue" d="M2652.73,-131.207C2840.98,-127.965 3520.85,-114.565 3735,-87 3742.36,-86.0527 3750.11,-84.6884 3757.61,-83.1709"/>
<polygon fill="midnightblue" stroke="midnightblue" points="3758.58,-86.5438 3767.62,-81.0315 3757.11,-79.6984 3758.58,-86.5438"/>
</g>
<!-- Node9&#45;&gt;Node39 -->
<g id="edge44" class="edge"><title>Node9&#45;&gt;Node39</title>
<path fill="none" stroke="midnightblue" d="M2652.78,-131.526C2854.62,-129.37 3625.06,-119.16 3866,-87 3872.77,-86.096 3879.89,-84.7832 3886.79,-83.3117"/>
<polygon fill="midnightblue" stroke="midnightblue" points="3887.7,-86.6945 3896.68,-81.0713 3886.15,-79.8675 3887.7,-86.6945"/>
</g>
<!-- Node9&#45;&gt;Node40 -->
<g id="edge45" class="edge"><title>Node9&#45;&gt;Node40</title>
<path fill="none" stroke="midnightblue" d="M2652.88,-131.922C2886.13,-131.353 3887.4,-126.604 4197,-87 4203.96,-86.1102 4211.27,-84.7909 4218.35,-83.3048"/>
<polygon fill="midnightblue" stroke="midnightblue" points="4219.5,-86.6351 4228.49,-81.0387 4217.97,-79.8035 4219.5,-86.6351"/>
</g>
<!-- Node41 -->
<g id="node41" class="node"><title>Node41</title>
<polygon fill="white" stroke="#bfbfbf" points="3608.5,-62 3608.5,-81 3649.5,-81 3649.5,-62 3608.5,-62"/>
<text text-anchor="middle" x="3629" y="-69" font-family="Helvetica,sans-Serif" font-size="10.00">string</text>
</g>
<!-- Node9&#45;&gt;Node41 -->
<g id="edge46" class="edge"><title>Node9&#45;&gt;Node41</title>
<path fill="none" stroke="midnightblue" d="M2652.64,-132.011C2825.8,-131.705 3411.58,-127.62 3594,-87 3596.68,-86.4041 3599.41,-85.6177 3602.11,-84.7188"/>
<polygon fill="midnightblue" stroke="midnightblue" points="3603.49,-87.9399 3611.58,-81.1087 3600.99,-81.3986 3603.49,-87.9399"/>
</g>
<!-- Node9&#45;&gt;Node42 -->
<g id="edge48" class="edge"><title>Node9&#45;&gt;Node42</title>
<path fill="none" stroke="midnightblue" d="M2652.61,-131.912C2914.93,-131.276 4155.94,-126.206 4322,-87 4324.21,-86.4786 4326.45,-85.7902 4328.66,-84.9961"/>
<polygon fill="midnightblue" stroke="midnightblue" points="4330.16,-88.1598 4338,-81.029 4327.43,-81.7169 4330.16,-88.1598"/>
</g>
<!-- Node45&#45;&gt;Node2 -->
<g id="edge53" class="edge"><title>Node45&#45;&gt;Node2</title>
<path fill="none" stroke="midnightblue" d="M3920.28,-179.476C3903.89,-166.53 3877.75,-141.468 3893,-123 3946.89,-57.7403 3997.32,-105.106 4080,-87 4085.09,-85.8863 4090.4,-84.6629 4095.68,-83.4137"/>
<polygon fill="midnightblue" stroke="midnightblue" points="4096.78,-86.7475 4105.68,-81.0015 4095.14,-79.9424 4096.78,-86.7475"/>
</g>
<!-- Node45&#45;&gt;Node46 -->
<g id="edge54" class="edge"><title>Node45&#45;&gt;Node46</title>
<path fill="none" stroke="midnightblue" d="M3888.11,-179.444C3839.48,-169.964 3761.05,-154.675 3708.78,-144.483"/>
<polygon fill="midnightblue" stroke="midnightblue" points="3709.17,-140.995 3698.69,-142.516 3707.83,-147.865 3709.17,-140.995"/>
</g>
<!-- Node45&#45;&gt;Node48 -->
<g id="edge59" class="edge"><title>Node45&#45;&gt;Node48</title>
<path fill="none" stroke="midnightblue" d="M3939.1,-179.083C3945.24,-171.377 3954.27,-160.033 3961.74,-150.653"/>
<polygon fill="midnightblue" stroke="midnightblue" points="3964.54,-152.754 3968.03,-142.751 3959.06,-148.394 3964.54,-152.754"/>
</g>
<!-- Node46&#45;&gt;Node2 -->
<g id="edge55" class="edge"><title>Node46&#45;&gt;Node2</title>
<path fill="none" stroke="midnightblue" d="M3703.81,-124.817C3708.6,-124.175 3713.39,-123.558 3718,-123 3878.51,-103.563 3920.65,-114.362 4080,-87 4085.86,-85.9937 4092,-84.7274 4098.01,-83.3644"/>
<polygon fill="midnightblue" stroke="midnightblue" points="4099.02,-86.723 4107.94,-81.0083 4097.4,-79.9122 4099.02,-86.723"/>
</g>
<!-- Node46&#45;&gt;Node37 -->
<g id="edge58" class="edge"><title>Node46&#45;&gt;Node37</title>
<path fill="none" stroke="midnightblue" d="M3661.02,-123.475C3667.26,-114.638 3677.17,-100.589 3685.02,-89.475"/>
<polygon fill="midnightblue" stroke="midnightblue" points="3688.09,-91.1972 3690.99,-81.0091 3682.37,-87.1604 3688.09,-91.1972"/>
</g>
<!-- Node46&#45;&gt;Node41 -->
<g id="edge56" class="edge"><title>Node46&#45;&gt;Node41</title>
<path fill="none" stroke="midnightblue" d="M3651.27,-123.475C3647.53,-114.904 3641.64,-101.427 3636.86,-90.483"/>
<polygon fill="midnightblue" stroke="midnightblue" points="3639.93,-88.771 3632.72,-81.0091 3633.52,-91.5739 3639.93,-88.771"/>
</g>
<!-- Node47 -->
<g id="node47" class="node"><title>Node47</title>
<polygon fill="white" stroke="#bfbfbf" points="3998.5,-62 3998.5,-81 4071.5,-81 4071.5,-62 3998.5,-62"/>
<text text-anchor="middle" x="4035" y="-69" font-family="Helvetica,sans-Serif" font-size="10.00">initializer_list</text>
</g>
<!-- Node46&#45;&gt;Node47 -->
<g id="edge57" class="edge"><title>Node46&#45;&gt;Node47</title>
<path fill="none" stroke="midnightblue" d="M3703.83,-124.976C3708.62,-124.302 3713.4,-123.634 3718,-123 3838.36,-106.408 3870.39,-113.363 3989,-87 3992.84,-86.1455 3996.83,-85.1156 4000.77,-84.0036"/>
<polygon fill="midnightblue" stroke="midnightblue" points="4001.81,-87.3461 4010.39,-81.1232 3999.8,-80.6405 4001.81,-87.3461"/>
</g>
</g>
</svg>
