<?xml version="1.0" encoding="UTF-8" standalone="no"?>
<!DOCTYPE svg PUBLIC "-//W3C//DTD SVG 1.1//EN"
 "http://www.w3.org/Graphics/SVG/1.1/DTD/svg11.dtd">
<!-- Generated by graphviz version 2.43.0 (0)
 -->
<!-- Title: boost/ui/painter.hpp Pages: 1 -->
<svg width="2037pt" height="263pt"
 viewBox="0.00 0.00 2037.00 263.00" xmlns="http://www.w3.org/2000/svg" xmlns:xlink="http://www.w3.org/1999/xlink">
<g id="graph0" class="graph" transform="scale(1 1) rotate(0) translate(4 259)">
<title>boost/ui/painter.hpp</title>
<polygon fill="white" stroke="transparent" points="-4,4 -4,-259 2033,-259 2033,4 -4,4"/>
<!-- Node1 -->
<g id="node1" class="node">
<title>Node1</title>
<g id="a_node1"><a xlink:title="Painter class.">
<polygon fill="#bfbfbf" stroke="black" points="1042,-235.5 1042,-254.5 1156,-254.5 1156,-235.5 1042,-235.5"/>
<text text-anchor="middle" x="1099" y="-242.5" font-family="Helvetica,sans-Serif" font-size="10.00">boost/ui/painter.hpp</text>
</a>
</g>
</g>
<!-- Node2 -->
<g id="node2" class="node">
<title>Node2</title>
<g id="a_node2"><a xlink:href="config_8hpp.html" target="_top" xlink:title="Configuration options.">
<polygon fill="white" stroke="black" points="756,-62 756,-81 866,-81 866,-62 756,-62"/>
<text text-anchor="middle" x="811" y="-69" font-family="Helvetica,sans-Serif" font-size="10.00">boost/ui/config.hpp</text>
</a>
</g>
</g>
<!-- Node1&#45;&gt;Node2 -->
<g id="edge1" class="edge">
<title>Node1&#45;&gt;Node2</title>
<path fill="none" stroke="midnightblue" d="M1041.89,-243.41C931.9,-241.5 695.1,-233.39 622,-199 590.15,-184.02 579.47,-175.52 566,-143 524.48,-42.77 613.96,-115.3 747,-87 752.5,-85.83 758.26,-84.57 763.98,-83.3"/>
<polygon fill="midnightblue" stroke="midnightblue" points="765.15,-86.63 774.15,-81.02 763.62,-79.8 765.15,-86.63"/>
</g>
<!-- Node4 -->
<g id="node4" class="node">
<title>Node4</title>
<g id="a_node4"><a xlink:href="def_8hpp.html" target="_top" xlink:title="Definitions.">
<polygon fill="white" stroke="black" points="575.5,-123.5 575.5,-142.5 670.5,-142.5 670.5,-123.5 575.5,-123.5"/>
<text text-anchor="middle" x="623" y="-130.5" font-family="Helvetica,sans-Serif" font-size="10.00">boost/ui/def.hpp</text>
</a>
</g>
</g>
<!-- Node1&#45;&gt;Node4 -->
<g id="edge3" class="edge">
<title>Node1&#45;&gt;Node4</title>
<path fill="none" stroke="midnightblue" d="M1041.86,-242.16C924.9,-237.85 666.67,-225.44 637,-199 624.23,-187.62 621.55,-167.63 621.56,-152.81"/>
<polygon fill="midnightblue" stroke="midnightblue" points="625.06,-152.85 621.97,-142.72 618.07,-152.57 625.06,-152.85"/>
</g>
<!-- Node5 -->
<g id="node5" class="node">
<title>Node5</title>
<g id="a_node5"><a xlink:title=" ">
<polygon fill="white" stroke="#bfbfbf" points="1166,-179.5 1166,-198.5 1276,-198.5 1276,-179.5 1166,-179.5"/>
<text text-anchor="middle" x="1221" y="-186.5" font-family="Helvetica,sans-Serif" font-size="10.00">boost/ui/config.hpp</text>
</a>
</g>
</g>
<!-- Node1&#45;&gt;Node5 -->
<g id="edge5" class="edge">
<title>Node1&#45;&gt;Node5</title>
<path fill="none" stroke="midnightblue" d="M1118.33,-235.44C1138.32,-226.6 1169.74,-212.69 1192.56,-202.59"/>
<polygon fill="midnightblue" stroke="midnightblue" points="1194.03,-205.76 1201.76,-198.52 1191.2,-199.36 1194.03,-205.76"/>
</g>
<!-- Node6 -->
<g id="node6" class="node">
<title>Node6</title>
<g id="a_node6"><a xlink:href="color_8hpp.html" target="_top" xlink:title="Color class.">
<polygon fill="white" stroke="black" points="646,-179.5 646,-198.5 750,-198.5 750,-179.5 646,-179.5"/>
<text text-anchor="middle" x="698" y="-186.5" font-family="Helvetica,sans-Serif" font-size="10.00">boost/ui/color.hpp</text>
</a>
</g>
</g>
<!-- Node1&#45;&gt;Node6 -->
<g id="edge6" class="edge">
<title>Node1&#45;&gt;Node6</title>
<path fill="none" stroke="midnightblue" d="M1041.79,-236.35C975.1,-227.43 861.55,-212.2 764,-199 762.74,-198.83 761.47,-198.66 760.19,-198.48"/>
<polygon fill="midnightblue" stroke="midnightblue" points="760.62,-195.01 750.24,-197.13 759.68,-201.95 760.62,-195.01"/>
</g>
<!-- Node7 -->
<g id="node7" class="node">
<title>Node7</title>
<g id="a_node7"><a xlink:title=" ">
<polygon fill="white" stroke="#bfbfbf" points="727.5,-123.5 727.5,-142.5 828.5,-142.5 828.5,-123.5 727.5,-123.5"/>
<text text-anchor="middle" x="778" y="-130.5" font-family="Helvetica,sans-Serif" font-size="10.00">boost/cstdint.hpp</text>
</a>
</g>
</g>
<!-- Node1&#45;&gt;Node7 -->
<g id="edge9" class="edge">
<title>Node1&#45;&gt;Node7</title>
<path fill="none" stroke="midnightblue" d="M1041.88,-242.65C964.67,-239.65 832.56,-230.01 797,-199 783.87,-187.55 779.57,-167.57 778.28,-152.77"/>
<polygon fill="midnightblue" stroke="midnightblue" points="781.78,-152.51 777.79,-142.7 774.78,-152.86 781.78,-152.51"/>
</g>
<!-- Node8 -->
<g id="node8" class="node">
<title>Node8</title>
<g id="a_node8"><a xlink:href="image_8hpp.html" target="_top" xlink:title="Image class.">
<polygon fill="white" stroke="black" points="806,-179.5 806,-198.5 916,-198.5 916,-179.5 806,-179.5"/>
<text text-anchor="middle" x="861" y="-186.5" font-family="Helvetica,sans-Serif" font-size="10.00">boost/ui/image.hpp</text>
</a>
</g>
</g>
<!-- Node1&#45;&gt;Node8 -->
<g id="edge10" class="edge">
<title>Node1&#45;&gt;Node8</title>
<path fill="none" stroke="midnightblue" d="M1061.29,-235.44C1019.86,-226.04 953.24,-210.93 908.33,-200.74"/>
<polygon fill="midnightblue" stroke="midnightblue" points="909.06,-197.32 898.54,-198.52 907.51,-204.14 909.06,-197.32"/>
</g>
<!-- Node15 -->
<g id="node15" class="node">
<title>Node15</title>
<g id="a_node15"><a xlink:title=" ">
<polygon fill="white" stroke="#bfbfbf" points="885,-123.5 885,-142.5 939,-142.5 939,-123.5 885,-123.5"/>
<text text-anchor="middle" x="912" y="-130.5" font-family="Helvetica,sans-Serif" font-size="10.00">istream</text>
</a>
</g>
</g>
<!-- Node1&#45;&gt;Node15 -->
<g id="edge21" class="edge">
<title>Node1&#45;&gt;Node15</title>
<path fill="none" stroke="midnightblue" d="M1073.91,-235.4C1052.06,-227.41 1019.89,-214.44 994,-199 969.82,-184.58 944.86,-163.8 928.93,-149.64"/>
<polygon fill="midnightblue" stroke="midnightblue" points="931.24,-147.01 921.48,-142.91 926.55,-152.21 931.24,-147.01"/>
</g>
<!-- Node16 -->
<g id="node16" class="node">
<title>Node16</title>
<g id="a_node16"><a xlink:title=" ">
<polygon fill="white" stroke="#bfbfbf" points="1294.5,-179.5 1294.5,-198.5 1401.5,-198.5 1401.5,-179.5 1294.5,-179.5"/>
<text text-anchor="middle" x="1348" y="-186.5" font-family="Helvetica,sans-Serif" font-size="10.00">boost/ui/coord.hpp</text>
</a>
</g>
</g>
<!-- Node1&#45;&gt;Node16 -->
<g id="edge20" class="edge">
<title>Node1&#45;&gt;Node16</title>
<path fill="none" stroke="midnightblue" d="M1138.45,-235.44C1181.89,-226.02 1251.79,-210.87 1298.78,-200.68"/>
<polygon fill="midnightblue" stroke="midnightblue" points="1299.7,-204.06 1308.73,-198.52 1298.22,-197.22 1299.7,-204.06"/>
</g>
<!-- Node17 -->
<g id="node17" class="node">
<title>Node17</title>
<g id="a_node17"><a xlink:href="font_8hpp.html" target="_top" xlink:title="Font class.">
<polygon fill="white" stroke="black" points="1010.5,-179.5 1010.5,-198.5 1109.5,-198.5 1109.5,-179.5 1010.5,-179.5"/>
<text text-anchor="middle" x="1060" y="-186.5" font-family="Helvetica,sans-Serif" font-size="10.00">boost/ui/font.hpp</text>
</a>
</g>
</g>
<!-- Node1&#45;&gt;Node17 -->
<g id="edge22" class="edge">
<title>Node1&#45;&gt;Node17</title>
<path fill="none" stroke="midnightblue" d="M1092.56,-235.08C1087.05,-227.46 1078.97,-216.26 1072.24,-206.94"/>
<polygon fill="midnightblue" stroke="midnightblue" points="1075.01,-204.81 1066.32,-198.75 1069.34,-208.91 1075.01,-204.81"/>
</g>
<!-- Node18 -->
<g id="node18" class="node">
<title>Node18</title>
<g id="a_node18"><a xlink:href="string_8hpp.html" target="_top" xlink:title="String class and operations.">
<polygon fill="white" stroke="black" points="995.5,-123.5 995.5,-142.5 1102.5,-142.5 1102.5,-123.5 995.5,-123.5"/>
<text text-anchor="middle" x="1049" y="-130.5" font-family="Helvetica,sans-Serif" font-size="10.00">boost/ui/string.hpp</text>
</a>
</g>
</g>
<!-- Node1&#45;&gt;Node18 -->
<g id="edge30" class="edge">
<title>Node1&#45;&gt;Node18</title>
<path fill="none" stroke="midnightblue" d="M1056.61,-235.45C1036.42,-229.02 1014.09,-217.93 1002,-199 990.64,-181.21 1009.21,-161.7 1026.25,-148.74"/>
<polygon fill="midnightblue" stroke="midnightblue" points="1028.74,-151.26 1034.85,-142.61 1024.68,-145.56 1028.74,-151.26"/>
</g>
<!-- Node22 -->
<g id="node22" class="node">
<title>Node22</title>
<g id="a_node22"><a xlink:title=" ">
<polygon fill="white" stroke="#bfbfbf" points="1120.5,-123.5 1120.5,-142.5 1279.5,-142.5 1279.5,-123.5 1120.5,-123.5"/>
<text text-anchor="middle" x="1200" y="-130.5" font-family="Helvetica,sans-Serif" font-size="10.00">boost/core/scoped_enum.hpp</text>
</a>
</g>
</g>
<!-- Node1&#45;&gt;Node22 -->
<g id="edge32" class="edge">
<title>Node1&#45;&gt;Node22</title>
<path fill="none" stroke="midnightblue" d="M1106.79,-235.08C1117.83,-222.48 1138.74,-198.78 1157,-179 1166,-169.25 1176.26,-158.51 1184.5,-149.96"/>
<polygon fill="midnightblue" stroke="midnightblue" points="1187.23,-152.17 1191.67,-142.54 1182.2,-147.3 1187.23,-152.17"/>
</g>
<!-- Node23 -->
<g id="node23" class="node">
<title>Node23</title>
<g id="a_node23"><a xlink:title=" ">
<polygon fill="white" stroke="#bfbfbf" points="1420,-179.5 1420,-198.5 1550,-198.5 1550,-179.5 1420,-179.5"/>
<text text-anchor="middle" x="1485" y="-186.5" font-family="Helvetica,sans-Serif" font-size="10.00">boost/noncopyable.hpp</text>
</a>
</g>
</g>
<!-- Node1&#45;&gt;Node23 -->
<g id="edge31" class="edge">
<title>Node1&#45;&gt;Node23</title>
<path fill="none" stroke="midnightblue" d="M1156.37,-235.97C1224.97,-226.38 1339.79,-210.31 1413.94,-199.94"/>
<polygon fill="midnightblue" stroke="midnightblue" points="1414.71,-203.37 1424.12,-198.52 1413.74,-196.44 1414.71,-203.37"/>
</g>
<!-- Node24 -->
<g id="node24" class="node">
<title>Node24</title>
<g id="a_node24"><a xlink:title=" ">
<polygon fill="white" stroke="#bfbfbf" points="1568.5,-179.5 1568.5,-198.5 1615.5,-198.5 1615.5,-179.5 1568.5,-179.5"/>
<text text-anchor="middle" x="1592" y="-186.5" font-family="Helvetica,sans-Serif" font-size="10.00">vector</text>
</a>
</g>
</g>
<!-- Node1&#45;&gt;Node24 -->
<g id="edge33" class="edge">
<title>Node1&#45;&gt;Node24</title>
<path fill="none" stroke="midnightblue" d="M1156.08,-241.52C1241.59,-237.11 1408.02,-225.91 1558.43,-198.78"/>
<polygon fill="midnightblue" stroke="midnightblue" points="1559.11,-202.22 1568.32,-196.97 1557.85,-195.33 1559.11,-202.22"/>
</g>
<!-- Node25 -->
<g id="node25" class="node">
<title>Node25</title>
<g id="a_node25"><a xlink:title=" ">
<polygon fill="white" stroke="#bfbfbf" points="1633.5,-179.5 1633.5,-198.5 1758.5,-198.5 1758.5,-179.5 1633.5,-179.5"/>
<text text-anchor="middle" x="1696" y="-186.5" font-family="Helvetica,sans-Serif" font-size="10.00">boost/range/begin.hpp</text>
</a>
</g>
</g>
<!-- Node1&#45;&gt;Node25 -->
<g id="edge34" class="edge">
<title>Node1&#45;&gt;Node25</title>
<path fill="none" stroke="midnightblue" d="M1156.28,-239.87C1251.21,-232.85 1447.34,-217.64 1623.34,-199.14"/>
<polygon fill="midnightblue" stroke="midnightblue" points="1623.72,-202.62 1633.3,-198.09 1622.98,-195.66 1623.72,-202.62"/>
</g>
<!-- Node26 -->
<g id="node26" class="node">
<title>Node26</title>
<g id="a_node26"><a xlink:title=" ">
<polygon fill="white" stroke="#bfbfbf" points="1777,-179.5 1777,-198.5 1893,-198.5 1893,-179.5 1777,-179.5"/>
<text text-anchor="middle" x="1835" y="-186.5" font-family="Helvetica,sans-Serif" font-size="10.00">boost/range/end.hpp</text>
</a>
</g>
</g>
<!-- Node1&#45;&gt;Node26 -->
<g id="edge35" class="edge">
<title>Node1&#45;&gt;Node26</title>
<path fill="none" stroke="midnightblue" d="M1156.38,-241.43C1270.56,-236.02 1534.53,-222.14 1766.93,-199.04"/>
<polygon fill="midnightblue" stroke="midnightblue" points="1767.32,-202.52 1776.92,-198.04 1766.62,-195.56 1767.32,-202.52"/>
</g>
<!-- Node27 -->
<g id="node27" class="node">
<title>Node27</title>
<g id="a_node27"><a xlink:title=" ">
<polygon fill="white" stroke="#bfbfbf" points="1911,-179.5 1911,-198.5 2029,-198.5 2029,-179.5 1911,-179.5"/>
<text text-anchor="middle" x="1970" y="-186.5" font-family="Helvetica,sans-Serif" font-size="10.00">boost/range/size.hpp</text>
</a>
</g>
</g>
<!-- Node1&#45;&gt;Node27 -->
<g id="edge36" class="edge">
<title>Node1&#45;&gt;Node27</title>
<path fill="none" stroke="midnightblue" d="M1156.07,-242.28C1286.2,-238.05 1615.1,-225.55 1900.56,-199.07"/>
<polygon fill="midnightblue" stroke="midnightblue" points="1901.06,-202.53 1910.69,-198.12 1900.41,-195.56 1901.06,-202.53"/>
</g>
<!-- Node3 -->
<g id="node3" class="node">
<title>Node3</title>
<g id="a_node3"><a xlink:title=" ">
<polygon fill="white" stroke="#bfbfbf" points="762,-0.5 762,-19.5 860,-19.5 860,-0.5 762,-0.5"/>
<text text-anchor="middle" x="811" y="-7.5" font-family="Helvetica,sans-Serif" font-size="10.00">boost/config.hpp</text>
</a>
</g>
</g>
<!-- Node2&#45;&gt;Node3 -->
<g id="edge2" class="edge">
<title>Node2&#45;&gt;Node3</title>
<path fill="none" stroke="midnightblue" d="M811,-61.98C811,-53.58 811,-40.48 811,-29.66"/>
<polygon fill="midnightblue" stroke="midnightblue" points="814.5,-29.51 811,-19.51 807.5,-29.51 814.5,-29.51"/>
</g>
<!-- Node4&#45;&gt;Node2 -->
<g id="edge4" class="edge">
<title>Node4&#45;&gt;Node2</title>
<path fill="none" stroke="midnightblue" d="M649.94,-123.48C682.6,-113.14 737.82,-95.66 774.34,-84.1"/>
<polygon fill="midnightblue" stroke="midnightblue" points="775.64,-87.36 784.11,-81.01 773.52,-80.69 775.64,-87.36"/>
</g>
<!-- Node6&#45;&gt;Node2 -->
<g id="edge7" class="edge">
<title>Node6&#45;&gt;Node2</title>
<path fill="none" stroke="midnightblue" d="M698.59,-179.46C699.93,-166.04 704.24,-139.81 718,-123 732.43,-105.36 754.72,-92.96 773.85,-84.86"/>
<polygon fill="midnightblue" stroke="midnightblue" points="775.24,-88.08 783.23,-81.12 772.64,-81.58 775.24,-88.08"/>
</g>
<!-- Node6&#45;&gt;Node7 -->
<g id="edge8" class="edge">
<title>Node6&#45;&gt;Node7</title>
<path fill="none" stroke="midnightblue" d="M710.85,-179.32C723.22,-170.98 742.13,-158.21 756.74,-148.35"/>
<polygon fill="midnightblue" stroke="midnightblue" points="758.85,-151.15 765.18,-142.65 754.93,-145.35 758.85,-151.15"/>
</g>
<!-- Node8&#45;&gt;Node2 -->
<g id="edge11" class="edge">
<title>Node8&#45;&gt;Node2</title>
<path fill="none" stroke="midnightblue" d="M858.22,-179.46C854.04,-166.9 845.72,-142.82 837,-123 832.11,-111.88 825.9,-99.77 820.78,-90.19"/>
<polygon fill="midnightblue" stroke="midnightblue" points="823.79,-88.4 815.94,-81.28 817.64,-91.74 823.79,-88.4"/>
</g>
<!-- Node9 -->
<g id="node9" class="node">
<title>Node9</title>
<g id="a_node9"><a xlink:href="coord_8hpp.html" target="_top" xlink:title="Coordinates classes.">
<polygon fill="white" stroke="black" points="411.5,-123.5 411.5,-142.5 518.5,-142.5 518.5,-123.5 411.5,-123.5"/>
<text text-anchor="middle" x="465" y="-130.5" font-family="Helvetica,sans-Serif" font-size="10.00">boost/ui/coord.hpp</text>
</a>
</g>
</g>
<!-- Node8&#45;&gt;Node9 -->
<g id="edge12" class="edge">
<title>Node8&#45;&gt;Node9</title>
<path fill="none" stroke="midnightblue" d="M805.94,-180.49C733.23,-170.58 605.45,-153.15 528.67,-142.68"/>
<polygon fill="midnightblue" stroke="midnightblue" points="529.03,-139.2 518.64,-141.32 528.08,-146.13 529.03,-139.2"/>
</g>
<!-- Node8&#45;&gt;Node15 -->
<g id="edge19" class="edge">
<title>Node8&#45;&gt;Node15</title>
<path fill="none" stroke="midnightblue" d="M869.42,-179.08C876.85,-171.22 887.85,-159.57 896.81,-150.08"/>
<polygon fill="midnightblue" stroke="midnightblue" points="899.41,-152.42 903.74,-142.75 894.32,-147.62 899.41,-152.42"/>
</g>
<!-- Node9&#45;&gt;Node2 -->
<g id="edge13" class="edge">
<title>Node9&#45;&gt;Node2</title>
<path fill="none" stroke="midnightblue" d="M518.72,-124.48C575.59,-116.28 667.89,-102.26 747,-87 752.88,-85.87 759.04,-84.59 765.12,-83.27"/>
<polygon fill="midnightblue" stroke="midnightblue" points="766.2,-86.62 775.21,-81.04 764.69,-79.78 766.2,-86.62"/>
</g>
<!-- Node10 -->
<g id="node10" class="node">
<title>Node10</title>
<g id="a_node10"><a xlink:title=" ">
<polygon fill="white" stroke="#bfbfbf" points="454.5,-62 454.5,-81 567.5,-81 567.5,-62 454.5,-62"/>
<text text-anchor="middle" x="511" y="-69" font-family="Helvetica,sans-Serif" font-size="10.00">boost/geometry.hpp</text>
</a>
</g>
</g>
<!-- Node9&#45;&gt;Node10 -->
<g id="edge14" class="edge">
<title>Node9&#45;&gt;Node10</title>
<path fill="none" stroke="midnightblue" d="M471.59,-123.48C478.49,-114.55 489.5,-100.31 498.13,-89.14"/>
<polygon fill="midnightblue" stroke="midnightblue" points="501.07,-91.06 504.42,-81.01 495.54,-86.78 501.07,-91.06"/>
</g>
<!-- Node11 -->
<g id="node11" class="node">
<title>Node11</title>
<g id="a_node11"><a xlink:title=" ">
<polygon fill="white" stroke="#bfbfbf" points="586,-56.5 586,-86.5 738,-86.5 738,-56.5 586,-56.5"/>
<text text-anchor="start" x="594" y="-74.5" font-family="Helvetica,sans-Serif" font-size="10.00">boost/geometry/geometries</text>
<text text-anchor="middle" x="662" y="-63.5" font-family="Helvetica,sans-Serif" font-size="10.00">/point_xy.hpp</text>
</a>
</g>
</g>
<!-- Node9&#45;&gt;Node11 -->
<g id="edge15" class="edge">
<title>Node9&#45;&gt;Node11</title>
<path fill="none" stroke="midnightblue" d="M493.23,-123.48C522.52,-114.63 569.13,-100.55 605.95,-89.43"/>
<polygon fill="midnightblue" stroke="midnightblue" points="607.01,-92.76 615.57,-86.52 604.99,-86.06 607.01,-92.76"/>
</g>
<!-- Node12 -->
<g id="node12" class="node">
<title>Node12</title>
<g id="a_node12"><a xlink:title=" ">
<polygon fill="white" stroke="#bfbfbf" points="0,-56.5 0,-86.5 152,-86.5 152,-56.5 0,-56.5"/>
<text text-anchor="start" x="8" y="-74.5" font-family="Helvetica,sans-Serif" font-size="10.00">boost/geometry/geometries</text>
<text text-anchor="middle" x="76" y="-63.5" font-family="Helvetica,sans-Serif" font-size="10.00">/box.hpp</text>
</a>
</g>
</g>
<!-- Node9&#45;&gt;Node12 -->
<g id="edge16" class="edge">
<title>Node9&#45;&gt;Node12</title>
<path fill="none" stroke="midnightblue" d="M411.4,-124.43C352.7,-116.06 255.52,-101.96 162.32,-87.19"/>
<polygon fill="midnightblue" stroke="midnightblue" points="162.87,-83.73 152.44,-85.62 161.77,-90.65 162.87,-83.73"/>
</g>
<!-- Node13 -->
<g id="node13" class="node">
<title>Node13</title>
<g id="a_node13"><a xlink:title=" ">
<polygon fill="white" stroke="#bfbfbf" points="170.5,-56.5 170.5,-86.5 283.5,-86.5 283.5,-56.5 170.5,-56.5"/>
<text text-anchor="start" x="178.5" y="-74.5" font-family="Helvetica,sans-Serif" font-size="10.00">boost/polygon/point</text>
<text text-anchor="middle" x="227" y="-63.5" font-family="Helvetica,sans-Serif" font-size="10.00">_data.hpp</text>
</a>
</g>
</g>
<!-- Node9&#45;&gt;Node13 -->
<g id="edge17" class="edge">
<title>Node9&#45;&gt;Node13</title>
<path fill="none" stroke="midnightblue" d="M430.9,-123.48C395.05,-114.51 337.75,-100.19 293.01,-89"/>
<polygon fill="midnightblue" stroke="midnightblue" points="293.64,-85.55 283.09,-86.52 291.94,-92.34 293.64,-85.55"/>
</g>
<!-- Node14 -->
<g id="node14" class="node">
<title>Node14</title>
<g id="a_node14"><a xlink:title=" ">
<polygon fill="white" stroke="#bfbfbf" points="302,-56.5 302,-86.5 436,-86.5 436,-56.5 302,-56.5"/>
<text text-anchor="start" x="310" y="-74.5" font-family="Helvetica,sans-Serif" font-size="10.00">boost/polygon/rectangle</text>
<text text-anchor="middle" x="369" y="-63.5" font-family="Helvetica,sans-Serif" font-size="10.00">_data.hpp</text>
</a>
</g>
</g>
<!-- Node9&#45;&gt;Node14 -->
<g id="edge18" class="edge">
<title>Node9&#45;&gt;Node14</title>
<path fill="none" stroke="midnightblue" d="M451.25,-123.48C438,-115.27 417.5,-102.56 400.28,-91.88"/>
<polygon fill="midnightblue" stroke="midnightblue" points="401.97,-88.82 391.63,-86.52 398.28,-94.77 401.97,-88.82"/>
</g>
<!-- Node17&#45;&gt;Node2 -->
<g id="edge23" class="edge">
<title>Node17&#45;&gt;Node2</title>
<path fill="none" stroke="midnightblue" d="M1046.95,-179.43C1026.47,-166.2 985.23,-140.51 948,-123 915.11,-107.53 876.08,-93.55 848.11,-84.24"/>
<polygon fill="midnightblue" stroke="midnightblue" points="848.93,-80.83 838.34,-81.03 846.75,-87.48 848.93,-80.83"/>
</g>
<!-- Node17&#45;&gt;Node18 -->
<g id="edge24" class="edge">
<title>Node17&#45;&gt;Node18</title>
<path fill="none" stroke="midnightblue" d="M1058.18,-179.08C1056.73,-171.93 1054.63,-161.64 1052.81,-152.69"/>
<polygon fill="midnightblue" stroke="midnightblue" points="1056.21,-151.85 1050.78,-142.75 1049.35,-153.25 1056.21,-151.85"/>
</g>
<!-- Node17&#45;&gt;Node22 -->
<g id="edge29" class="edge">
<title>Node17&#45;&gt;Node22</title>
<path fill="none" stroke="midnightblue" d="M1082.18,-179.44C1105.43,-170.48 1142.15,-156.31 1168.42,-146.18"/>
<polygon fill="midnightblue" stroke="midnightblue" points="1169.85,-149.38 1177.92,-142.52 1167.33,-142.85 1169.85,-149.38"/>
</g>
<!-- Node18&#45;&gt;Node2 -->
<g id="edge25" class="edge">
<title>Node18&#45;&gt;Node2</title>
<path fill="none" stroke="midnightblue" d="M1014.9,-123.48C972.75,-112.94 900.95,-94.99 854.77,-83.44"/>
<polygon fill="midnightblue" stroke="midnightblue" points="855.59,-80.04 845.04,-81.01 853.89,-86.83 855.59,-80.04"/>
</g>
<!-- Node19 -->
<g id="node19" class="node">
<title>Node19</title>
<g id="a_node19"><a xlink:title=" ">
<polygon fill="white" stroke="#bfbfbf" points="945,-62 945,-81 989,-81 989,-62 945,-62"/>
<text text-anchor="middle" x="967" y="-69" font-family="Helvetica,sans-Serif" font-size="10.00">string</text>
</a>
</g>
</g>
<!-- Node18&#45;&gt;Node19 -->
<g id="edge26" class="edge">
<title>Node18&#45;&gt;Node19</title>
<path fill="none" stroke="midnightblue" d="M1037.25,-123.48C1024.22,-114.02 1002.96,-98.6 987.24,-87.19"/>
<polygon fill="midnightblue" stroke="midnightblue" points="988.88,-84.05 978.73,-81.01 984.77,-89.71 988.88,-84.05"/>
</g>
<!-- Node20 -->
<g id="node20" class="node">
<title>Node20</title>
<g id="a_node20"><a xlink:title=" ">
<polygon fill="white" stroke="#bfbfbf" points="1007.5,-62 1007.5,-81 1090.5,-81 1090.5,-62 1007.5,-62"/>
<text text-anchor="middle" x="1049" y="-69" font-family="Helvetica,sans-Serif" font-size="10.00">initializer_list</text>
</a>
</g>
</g>
<!-- Node18&#45;&gt;Node20 -->
<g id="edge27" class="edge">
<title>Node18&#45;&gt;Node20</title>
<path fill="none" stroke="midnightblue" d="M1049,-123.48C1049,-115.08 1049,-101.98 1049,-91.16"/>
<polygon fill="midnightblue" stroke="midnightblue" points="1052.5,-91.01 1049,-81.01 1045.5,-91.01 1052.5,-91.01"/>
</g>
<!-- Node21 -->
<g id="node21" class="node">
<title>Node21</title>
<g id="a_node21"><a xlink:title=" ">
<polygon fill="white" stroke="#bfbfbf" points="1108.5,-62 1108.5,-81 1173.5,-81 1173.5,-62 1108.5,-62"/>
<text text-anchor="middle" x="1141" y="-69" font-family="Helvetica,sans-Serif" font-size="10.00">functional</text>
</a>
</g>
</g>
<!-- Node18&#45;&gt;Node21 -->
<g id="edge28" class="edge">
<title>Node18&#45;&gt;Node21</title>
<path fill="none" stroke="midnightblue" d="M1062.18,-123.48C1077.07,-113.84 1101.54,-98.02 1119.27,-86.55"/>
<polygon fill="midnightblue" stroke="midnightblue" points="1121.35,-89.38 1127.84,-81.01 1117.55,-83.5 1121.35,-89.38"/>
</g>
</g>
</svg>
