<?xml version="1.0" encoding="UTF-8" standalone="no"?>
<!DOCTYPE svg PUBLIC "-//W3C//DTD SVG 1.1//EN"
 "http://www.w3.org/Graphics/SVG/1.1/DTD/svg11.dtd">
<!-- Generated by graphviz version 2.43.0 (0)
 -->
<!-- Title: boost/ui/painter.hpp Pages: 1 -->
<svg width="5386pt" height="263pt"
 viewBox="0.00 0.00 5386.00 263.00" xmlns="http://www.w3.org/2000/svg" xmlns:xlink="http://www.w3.org/1999/xlink">
<g id="graph0" class="graph" transform="scale(1 1) rotate(0) translate(4 259)">
<title>boost/ui/painter.hpp</title>
<polygon fill="white" stroke="transparent" points="-4,4 -4,-259 5382,-259 5382,4 -4,4"/>
<!-- Node1 -->
<g id="node1" class="node">
<title>Node1</title>
<g id="a_node1"><a xlink:title="Painter class.">
<polygon fill="#bfbfbf" stroke="black" points="4502.5,-235.5 4502.5,-254.5 4615.5,-254.5 4615.5,-235.5 4502.5,-235.5"/>
<text text-anchor="middle" x="4559" y="-242.5" font-family="Helvetica,sans-Serif" font-size="10.00">boost/ui/painter.hpp</text>
</a>
</g>
</g>
<!-- Node2 -->
<g id="node2" class="node">
<title>Node2</title>
<g id="a_node2"><a xlink:href="config_8hpp.html" target="_top" xlink:title="Configuration options.">
<polygon fill="white" stroke="black" points="4487.5,-62 4487.5,-81 4596.5,-81 4596.5,-62 4487.5,-62"/>
<text text-anchor="middle" x="4542" y="-69" font-family="Helvetica,sans-Serif" font-size="10.00">boost/ui/config.hpp</text>
</a>
</g>
</g>
<!-- Node1&#45;&gt;Node2 -->
<g id="edge1" class="edge">
<title>Node1&#45;&gt;Node2</title>
<path fill="none" stroke="midnightblue" d="M4558.13,-235.26C4555.5,-208.65 4547.52,-128.21 4543.87,-91.34"/>
<polygon fill="midnightblue" stroke="midnightblue" points="4547.31,-90.63 4542.84,-81.02 4540.35,-91.32 4547.31,-90.63"/>
</g>
<!-- Node4 -->
<g id="node4" class="node">
<title>Node4</title>
<g id="a_node4"><a xlink:href="def_8hpp.html" target="_top" xlink:title="Definitions.">
<polygon fill="white" stroke="black" points="4145.5,-123.5 4145.5,-142.5 4240.5,-142.5 4240.5,-123.5 4145.5,-123.5"/>
<text text-anchor="middle" x="4193" y="-130.5" font-family="Helvetica,sans-Serif" font-size="10.00">boost/ui/def.hpp</text>
</a>
</g>
</g>
<!-- Node1&#45;&gt;Node4 -->
<g id="edge3" class="edge">
<title>Node1&#45;&gt;Node4</title>
<path fill="none" stroke="midnightblue" d="M4502.36,-240.38C4448.57,-235.52 4366.19,-224.34 4299,-199 4266.1,-186.59 4232.15,-163.65 4211.81,-148.61"/>
<polygon fill="midnightblue" stroke="midnightblue" points="4213.81,-145.74 4203.72,-142.52 4209.6,-151.33 4213.81,-145.74"/>
</g>
<!-- Node5 -->
<g id="node5" class="node">
<title>Node5</title>
<g id="a_node5"><a xlink:title=" ">
<polygon fill="white" stroke="#bfbfbf" points="4823.5,-179.5 4823.5,-198.5 4932.5,-198.5 4932.5,-179.5 4823.5,-179.5"/>
<text text-anchor="middle" x="4878" y="-186.5" font-family="Helvetica,sans-Serif" font-size="10.00">boost/ui/config.hpp</text>
</a>
</g>
</g>
<!-- Node1&#45;&gt;Node5 -->
<g id="edge5" class="edge">
<title>Node1&#45;&gt;Node5</title>
<path fill="none" stroke="midnightblue" d="M4609.55,-235.44C4666.01,-225.89 4757.37,-210.42 4817.57,-200.23"/>
<polygon fill="midnightblue" stroke="midnightblue" points="4818.41,-203.64 4827.69,-198.52 4817.25,-196.73 4818.41,-203.64"/>
</g>
<!-- Node6 -->
<g id="node6" class="node">
<title>Node6</title>
<g id="a_node6"><a xlink:href="color_8hpp.html" target="_top" xlink:title="Color class.">
<polygon fill="white" stroke="black" points="4587.5,-123.5 4587.5,-142.5 4690.5,-142.5 4690.5,-123.5 4587.5,-123.5"/>
<text text-anchor="middle" x="4639" y="-130.5" font-family="Helvetica,sans-Serif" font-size="10.00">boost/ui/color.hpp</text>
</a>
</g>
</g>
<!-- Node1&#45;&gt;Node6 -->
<g id="edge6" class="edge">
<title>Node1&#45;&gt;Node6</title>
<path fill="none" stroke="midnightblue" d="M4565.28,-235.37C4578.48,-217.22 4609.33,-174.8 4626.64,-150.99"/>
<polygon fill="midnightblue" stroke="midnightblue" points="4629.7,-152.74 4632.75,-142.59 4624.04,-148.62 4629.7,-152.74"/>
</g>
<!-- Node7 -->
<g id="node7" class="node">
<title>Node7</title>
<g id="a_node7"><a xlink:title=" ">
<polygon fill="white" stroke="#bfbfbf" points="4816.5,-62 4816.5,-81 4917.5,-81 4917.5,-62 4816.5,-62"/>
<text text-anchor="middle" x="4867" y="-69" font-family="Helvetica,sans-Serif" font-size="10.00">boost/cstdint.hpp</text>
</a>
</g>
</g>
<!-- Node1&#45;&gt;Node7 -->
<g id="edge9" class="edge">
<title>Node1&#45;&gt;Node7</title>
<path fill="none" stroke="midnightblue" d="M4596.9,-235.49C4625.86,-228.13 4666.25,-215.98 4699,-199 4759.78,-167.5 4821.64,-114.29 4850.4,-88.06"/>
<polygon fill="midnightblue" stroke="midnightblue" points="4852.94,-90.48 4857.92,-81.13 4848.19,-85.34 4852.94,-90.48"/>
</g>
<!-- Node8 -->
<g id="node8" class="node">
<title>Node8</title>
<g id="a_node8"><a xlink:href="image_8hpp.html" target="_top" xlink:title="Image class.">
<polygon fill="white" stroke="black" points="3741,-179.5 3741,-198.5 3851,-198.5 3851,-179.5 3741,-179.5"/>
<text text-anchor="middle" x="3796" y="-186.5" font-family="Helvetica,sans-Serif" font-size="10.00">boost/ui/image.hpp</text>
</a>
</g>
</g>
<!-- Node1&#45;&gt;Node8 -->
<g id="edge10" class="edge">
<title>Node1&#45;&gt;Node8</title>
<path fill="none" stroke="midnightblue" d="M4502.27,-239.99C4363.66,-230.17 4008.34,-205.03 3861.26,-194.62"/>
<polygon fill="midnightblue" stroke="midnightblue" points="3861.26,-191.11 3851.04,-193.9 3860.77,-198.09 3861.26,-191.11"/>
</g>
<!-- Node161 -->
<g id="node38" class="node">
<title>Node161</title>
<g id="a_node38"><a xlink:title=" ">
<polygon fill="white" stroke="#bfbfbf" points="4108.5,-62 4108.5,-81 4233.5,-81 4233.5,-62 4108.5,-62"/>
<text text-anchor="middle" x="4171" y="-69" font-family="Helvetica,sans-Serif" font-size="10.00">boost/range/begin.hpp</text>
</a>
</g>
</g>
<!-- Node1&#45;&gt;Node161 -->
<g id="edge65" class="edge">
<title>Node1&#45;&gt;Node161</title>
<path fill="none" stroke="midnightblue" d="M4553.47,-235.43C4537.07,-210.24 4488.26,-137.33 4464,-123 4378.3,-72.4 4340.91,-104.83 4243,-87 4236.26,-85.77 4229.17,-84.42 4222.19,-83.05"/>
<polygon fill="midnightblue" stroke="midnightblue" points="4222.56,-79.56 4212.07,-81.05 4221.2,-86.42 4222.56,-79.56"/>
</g>
<!-- Node162 -->
<g id="node39" class="node">
<title>Node162</title>
<g id="a_node39"><a xlink:title=" ">
<polygon fill="white" stroke="#bfbfbf" points="4252,-62 4252,-81 4368,-81 4368,-62 4252,-62"/>
<text text-anchor="middle" x="4310" y="-69" font-family="Helvetica,sans-Serif" font-size="10.00">boost/range/end.hpp</text>
</a>
</g>
</g>
<!-- Node1&#45;&gt;Node162 -->
<g id="edge66" class="edge">
<title>Node1&#45;&gt;Node162</title>
<path fill="none" stroke="midnightblue" d="M4557.15,-235.46C4551.91,-213.3 4534.79,-153.59 4497,-123 4486.1,-114.17 4409.95,-95.4 4358.25,-83.39"/>
<polygon fill="midnightblue" stroke="midnightblue" points="4358.79,-79.92 4348.26,-81.09 4357.22,-86.75 4358.79,-79.92"/>
</g>
<!-- Node165 -->
<g id="node40" class="node">
<title>Node165</title>
<g id="a_node40"><a xlink:title=" ">
<polygon fill="white" stroke="#bfbfbf" points="4615,-62 4615,-81 4733,-81 4733,-62 4615,-62"/>
<text text-anchor="middle" x="4674" y="-69" font-family="Helvetica,sans-Serif" font-size="10.00">boost/range/size.hpp</text>
</a>
</g>
</g>
<!-- Node1&#45;&gt;Node165 -->
<g id="edge67" class="edge">
<title>Node1&#45;&gt;Node165</title>
<path fill="none" stroke="midnightblue" d="M4582.08,-235.44C4615.25,-221.73 4675.16,-191.34 4700,-143 4709.08,-125.32 4698.14,-103.71 4687.8,-89.11"/>
<polygon fill="midnightblue" stroke="midnightblue" points="4690.47,-86.85 4681.62,-81.03 4684.91,-91.1 4690.47,-86.85"/>
</g>
<!-- Node237 -->
<g id="node42" class="node">
<title>Node237</title>
<g id="a_node42"><a xlink:title=" ">
<polygon fill="white" stroke="#bfbfbf" points="4751.5,-62 4751.5,-81 4798.5,-81 4798.5,-62 4751.5,-62"/>
<text text-anchor="middle" x="4775" y="-69" font-family="Helvetica,sans-Serif" font-size="10.00">vector</text>
</a>
</g>
</g>
<!-- Node1&#45;&gt;Node237 -->
<g id="edge64" class="edge">
<title>Node1&#45;&gt;Node237</title>
<path fill="none" stroke="midnightblue" d="M4594.67,-235.49C4618.95,-228.48 4650.93,-216.77 4675,-199 4716.14,-168.63 4749.48,-117.19 4765.21,-90.22"/>
<polygon fill="midnightblue" stroke="midnightblue" points="4768.45,-91.59 4770.36,-81.17 4762.37,-88.13 4768.45,-91.59"/>
</g>
<!-- Node248 -->
<g id="node43" class="node">
<title>Node248</title>
<g id="a_node43"><a xlink:title=" ">
<polygon fill="white" stroke="#bfbfbf" points="2739,-123.5 2739,-142.5 2793,-142.5 2793,-123.5 2739,-123.5"/>
<text text-anchor="middle" x="2766" y="-130.5" font-family="Helvetica,sans-Serif" font-size="10.00">istream</text>
</a>
</g>
</g>
<!-- Node1&#45;&gt;Node248 -->
<g id="edge51" class="edge">
<title>Node1&#45;&gt;Node248</title>
<path fill="none" stroke="midnightblue" d="M4502.34,-241.03C4368.38,-233.98 4021.62,-215.6 3732,-199 3321.93,-175.5 3213.02,-205.44 2803.07,-142.87"/>
<polygon fill="midnightblue" stroke="midnightblue" points="2803.43,-139.38 2793.02,-141.32 2802.37,-146.3 2803.43,-139.38"/>
</g>
<!-- Node249 -->
<g id="node44" class="node">
<title>Node249</title>
<g id="a_node44"><a xlink:title=" ">
<polygon fill="white" stroke="#bfbfbf" points="4950.5,-179.5 4950.5,-198.5 5057.5,-198.5 5057.5,-179.5 4950.5,-179.5"/>
<text text-anchor="middle" x="5004" y="-186.5" font-family="Helvetica,sans-Serif" font-size="10.00">boost/ui/coord.hpp</text>
</a>
</g>
</g>
<!-- Node1&#45;&gt;Node249 -->
<g id="edge50" class="edge">
<title>Node1&#45;&gt;Node249</title>
<path fill="none" stroke="midnightblue" d="M4615.52,-237.85C4688.25,-229.82 4818.78,-215.05 4940.04,-199.23"/>
<polygon fill="midnightblue" stroke="midnightblue" points="4940.78,-202.66 4950.24,-197.89 4939.87,-195.72 4940.78,-202.66"/>
</g>
<!-- Node250 -->
<g id="node45" class="node">
<title>Node250</title>
<g id="a_node45"><a xlink:href="font_8hpp.html" target="_top" xlink:title="Font class.">
<polygon fill="white" stroke="black" points="4308.5,-179.5 4308.5,-198.5 4407.5,-198.5 4407.5,-179.5 4308.5,-179.5"/>
<text text-anchor="middle" x="4358" y="-186.5" font-family="Helvetica,sans-Serif" font-size="10.00">boost/ui/font.hpp</text>
</a>
</g>
</g>
<!-- Node1&#45;&gt;Node250 -->
<g id="edge52" class="edge">
<title>Node1&#45;&gt;Node250</title>
<path fill="none" stroke="midnightblue" d="M4527.15,-235.44C4492.6,-226.16 4437.32,-211.31 4399.42,-201.13"/>
<polygon fill="midnightblue" stroke="midnightblue" points="4400.27,-197.73 4389.7,-198.52 4398.45,-204.49 4400.27,-197.73"/>
</g>
<!-- Node251 -->
<g id="node46" class="node">
<title>Node251</title>
<g id="a_node46"><a xlink:href="string_8hpp.html" target="_top" xlink:title="String class and operations.">
<polygon fill="white" stroke="black" points="3981.5,-123.5 3981.5,-142.5 4088.5,-142.5 4088.5,-123.5 3981.5,-123.5"/>
<text text-anchor="middle" x="4035" y="-130.5" font-family="Helvetica,sans-Serif" font-size="10.00">boost/ui/string.hpp</text>
</a>
</g>
</g>
<!-- Node1&#45;&gt;Node251 -->
<g id="edge60" class="edge">
<title>Node1&#45;&gt;Node251</title>
<path fill="none" stroke="midnightblue" d="M4502.45,-237.98C4441.27,-230.91 4341.05,-217.73 4256,-199 4189.11,-184.27 4112.8,-160.16 4069.62,-145.81"/>
<polygon fill="midnightblue" stroke="midnightblue" points="4070.49,-142.41 4059.89,-142.55 4068.27,-149.05 4070.49,-142.41"/>
</g>
<!-- Node253 -->
<g id="node48" class="node">
<title>Node253</title>
<g id="a_node48"><a xlink:title=" ">
<polygon fill="white" stroke="#bfbfbf" points="4296.5,-123.5 4296.5,-142.5 4455.5,-142.5 4455.5,-123.5 4296.5,-123.5"/>
<text text-anchor="middle" x="4376" y="-130.5" font-family="Helvetica,sans-Serif" font-size="10.00">boost/core/scoped_enum.hpp</text>
</a>
</g>
</g>
<!-- Node1&#45;&gt;Node253 -->
<g id="edge63" class="edge">
<title>Node1&#45;&gt;Node253</title>
<path fill="none" stroke="midnightblue" d="M4539.96,-235.47C4521.44,-226.95 4492.72,-213.12 4469,-199 4442.52,-183.24 4413.69,-162.48 4395.25,-148.7"/>
<polygon fill="midnightblue" stroke="midnightblue" points="4397.19,-145.78 4387.1,-142.56 4392.98,-151.37 4397.19,-145.78"/>
</g>
<!-- Node254 -->
<g id="node49" class="node">
<title>Node254</title>
<g id="a_node49"><a xlink:title=" ">
<polygon fill="white" stroke="#bfbfbf" points="5076,-179.5 5076,-198.5 5206,-198.5 5206,-179.5 5076,-179.5"/>
<text text-anchor="middle" x="5141" y="-186.5" font-family="Helvetica,sans-Serif" font-size="10.00">boost/noncopyable.hpp</text>
</a>
</g>
</g>
<!-- Node1&#45;&gt;Node254 -->
<g id="edge61" class="edge">
<title>Node1&#45;&gt;Node254</title>
<path fill="none" stroke="midnightblue" d="M4615.82,-239.58C4707.95,-232.27 4895.91,-216.81 5065.53,-199.13"/>
<polygon fill="midnightblue" stroke="midnightblue" points="5066.06,-202.59 5075.64,-198.07 5065.33,-195.63 5066.06,-202.59"/>
</g>
<!-- Node255 -->
<g id="node50" class="node">
<title>Node255</title>
<g id="a_node50"><a xlink:title=" ">
<polygon fill="white" stroke="#bfbfbf" points="5224,-179.5 5224,-198.5 5378,-198.5 5378,-179.5 5224,-179.5"/>
<text text-anchor="middle" x="5301" y="-186.5" font-family="Helvetica,sans-Serif" font-size="10.00">boost/core/noncopyable.hpp</text>
</a>
</g>
</g>
<!-- Node1&#45;&gt;Node255 -->
<g id="edge62" class="edge">
<title>Node1&#45;&gt;Node255</title>
<path fill="none" stroke="midnightblue" d="M4615.65,-240.8C4727.7,-234.32 4985.8,-218.65 5213.52,-199.1"/>
<polygon fill="midnightblue" stroke="midnightblue" points="5214,-202.57 5223.66,-198.23 5213.39,-195.6 5214,-202.57"/>
</g>
<!-- Node3 -->
<g id="node3" class="node">
<title>Node3</title>
<g id="a_node3"><a xlink:title=" ">
<polygon fill="white" stroke="#bfbfbf" points="4189.5,-0.5 4189.5,-19.5 4286.5,-19.5 4286.5,-0.5 4189.5,-0.5"/>
<text text-anchor="middle" x="4238" y="-7.5" font-family="Helvetica,sans-Serif" font-size="10.00">boost/config.hpp</text>
</a>
</g>
</g>
<!-- Node2&#45;&gt;Node3 -->
<g id="edge2" class="edge">
<title>Node2&#45;&gt;Node3</title>
<path fill="none" stroke="midnightblue" d="M4506.08,-61.96C4497.24,-59.93 4487.79,-57.83 4479,-56 4416.95,-43.07 4345.55,-29.96 4296.66,-21.25"/>
<polygon fill="midnightblue" stroke="midnightblue" points="4297.04,-17.76 4286.59,-19.46 4295.82,-24.65 4297.04,-17.76"/>
</g>
<!-- Node4&#45;&gt;Node2 -->
<g id="edge4" class="edge">
<title>Node4&#45;&gt;Node2</title>
<path fill="none" stroke="midnightblue" d="M4240.76,-124.9C4309.86,-114.56 4434.34,-95.64 4479,-87 4484.79,-85.88 4490.85,-84.61 4496.84,-83.3"/>
<polygon fill="midnightblue" stroke="midnightblue" points="4497.78,-86.67 4506.77,-81.07 4496.25,-79.84 4497.78,-86.67"/>
</g>
<!-- Node6&#45;&gt;Node2 -->
<g id="edge7" class="edge">
<title>Node6&#45;&gt;Node2</title>
<path fill="none" stroke="midnightblue" d="M4625.1,-123.48C4609.33,-113.8 4583.36,-97.87 4564.65,-86.39"/>
<polygon fill="midnightblue" stroke="midnightblue" points="4566.23,-83.25 4555.87,-81.01 4562.57,-89.22 4566.23,-83.25"/>
</g>
<!-- Node6&#45;&gt;Node7 -->
<g id="edge8" class="edge">
<title>Node6&#45;&gt;Node7</title>
<path fill="none" stroke="midnightblue" d="M4671.67,-123.48C4711.88,-112.98 4780.26,-95.14 4824.52,-83.59"/>
<polygon fill="midnightblue" stroke="midnightblue" points="4825.6,-86.92 4834.39,-81.01 4823.83,-80.15 4825.6,-86.92"/>
</g>
<!-- Node8&#45;&gt;Node2 -->
<g id="edge11" class="edge">
<title>Node8&#45;&gt;Node2</title>
<path fill="none" stroke="midnightblue" d="M3851.04,-185.14C3912.34,-180.73 4013.75,-169.77 4097,-143 4115.54,-137.04 4117.33,-128.56 4136,-123 4282.92,-79.28 4327.81,-112.24 4479,-87 4485.32,-85.94 4491.96,-84.64 4498.45,-83.25"/>
<polygon fill="midnightblue" stroke="midnightblue" points="4499.48,-86.6 4508.47,-81.01 4497.95,-79.77 4499.48,-86.6"/>
</g>
<!-- Node9 -->
<g id="node9" class="node">
<title>Node9</title>
<g id="a_node9"><a xlink:href="coord_8hpp.html" target="_top" xlink:title="Coordinates classes.">
<polygon fill="white" stroke="red" points="2811.5,-123.5 2811.5,-142.5 2918.5,-142.5 2918.5,-123.5 2811.5,-123.5"/>
<text text-anchor="middle" x="2865" y="-130.5" font-family="Helvetica,sans-Serif" font-size="10.00">boost/ui/coord.hpp</text>
</a>
</g>
</g>
<!-- Node8&#45;&gt;Node9 -->
<g id="edge12" class="edge">
<title>Node8&#45;&gt;Node9</title>
<path fill="none" stroke="midnightblue" d="M3740.89,-184.8C3578.49,-175.38 3102.29,-147.76 2929,-137.71"/>
<polygon fill="midnightblue" stroke="midnightblue" points="2928.95,-134.2 2918.76,-137.12 2928.54,-141.19 2928.95,-134.2"/>
</g>
<!-- Node8&#45;&gt;Node248 -->
<g id="edge49" class="edge">
<title>Node8&#45;&gt;Node248</title>
<path fill="none" stroke="midnightblue" d="M3740.87,-186.95C3563.05,-183.36 3004.95,-170.26 2803.21,-142.81"/>
<polygon fill="midnightblue" stroke="midnightblue" points="2803.4,-139.31 2793.01,-141.37 2802.42,-146.24 2803.4,-139.31"/>
</g>
<!-- Node9&#45;&gt;Node2 -->
<g id="edge13" class="edge">
<title>Node9&#45;&gt;Node2</title>
<path fill="none" stroke="midnightblue" d="M2918.53,-131.93C3162.07,-131.41 4167.05,-126.85 4479,-87 4485.96,-86.11 4493.27,-84.79 4500.35,-83.31"/>
<polygon fill="midnightblue" stroke="midnightblue" points="4501.5,-86.64 4510.49,-81.04 4499.97,-79.81 4501.5,-86.64"/>
</g>
<!-- Node9&#45;&gt;Node3 -->
<g id="edge17" class="edge">
<title>Node9&#45;&gt;Node3</title>
<path fill="none" stroke="midnightblue" d="M2918.66,-131.68C3119.84,-130.21 3822.54,-122.56 3916,-87 3936.37,-79.25 3934.1,-64.9 3954,-56 4026.97,-23.35 4119.78,-13.94 4179.05,-11.47"/>
<polygon fill="midnightblue" stroke="midnightblue" points="4179.48,-14.96 4189.35,-11.1 4179.23,-7.96 4179.48,-14.96"/>
</g>
<!-- Node9&#45;&gt;Node7 -->
<g id="edge47" class="edge">
<title>Node9&#45;&gt;Node7</title>
<path fill="none" stroke="midnightblue" d="M2918.89,-131.45C3212.85,-128.37 4616.51,-112.44 4808,-87 4814.45,-86.14 4821.22,-84.86 4827.77,-83.4"/>
<polygon fill="midnightblue" stroke="midnightblue" points="4828.91,-86.73 4837.83,-81 4827.29,-79.92 4828.91,-86.73"/>
</g>
<!-- Node10 -->
<g id="node10" class="node">
<title>Node10</title>
<g id="a_node10"><a xlink:title=" ">
<polygon fill="white" stroke="#bfbfbf" points="3431.5,-62 3431.5,-81 3544.5,-81 3544.5,-62 3431.5,-62"/>
<text text-anchor="middle" x="3488" y="-69" font-family="Helvetica,sans-Serif" font-size="10.00">boost/geometry.hpp</text>
</a>
</g>
</g>
<!-- Node9&#45;&gt;Node10 -->
<g id="edge14" class="edge">
<title>Node9&#45;&gt;Node10</title>
<path fill="none" stroke="midnightblue" d="M2918.66,-130.09C3018.3,-126 3238.5,-114.44 3422,-87 3428.86,-85.97 3436.07,-84.65 3443.11,-83.22"/>
<polygon fill="midnightblue" stroke="midnightblue" points="3444.17,-86.57 3453.23,-81.07 3442.72,-79.72 3444.17,-86.57"/>
</g>
<!-- Node11 -->
<g id="node11" class="node">
<title>Node11</title>
<g id="a_node11"><a xlink:title=" ">
<polygon fill="white" stroke="#bfbfbf" points="3563,-56.5 3563,-86.5 3715,-86.5 3715,-56.5 3563,-56.5"/>
<text text-anchor="start" x="3571" y="-74.5" font-family="Helvetica,sans-Serif" font-size="10.00">boost/geometry/geometries</text>
<text text-anchor="middle" x="3639" y="-63.5" font-family="Helvetica,sans-Serif" font-size="10.00">/point_xy.hpp</text>
</a>
</g>
</g>
<!-- Node9&#45;&gt;Node11 -->
<g id="edge15" class="edge">
<title>Node9&#45;&gt;Node11</title>
<path fill="none" stroke="midnightblue" d="M2918.69,-130.35C3033.18,-126.42 3309.89,-114.8 3552.55,-86.96"/>
<polygon fill="midnightblue" stroke="midnightblue" points="3553.09,-90.42 3562.63,-85.79 3552.29,-83.47 3553.09,-90.42"/>
</g>
<!-- Node12 -->
<g id="node12" class="node">
<title>Node12</title>
<g id="a_node12"><a xlink:title=" ">
<polygon fill="white" stroke="#bfbfbf" points="3733.5,-62 3733.5,-81 3786.5,-81 3786.5,-62 3733.5,-62"/>
<text text-anchor="middle" x="3760" y="-69" font-family="Helvetica,sans-Serif" font-size="10.00">cstddef</text>
</a>
</g>
</g>
<!-- Node9&#45;&gt;Node12 -->
<g id="edge16" class="edge">
<title>Node9&#45;&gt;Node12</title>
<path fill="none" stroke="midnightblue" d="M2918.71,-131.5C3081.77,-129.61 3569.44,-121.18 3724,-87 3726.84,-86.37 3729.74,-85.55 3732.61,-84.6"/>
<polygon fill="midnightblue" stroke="midnightblue" points="3733.91,-87.85 3742.06,-81.08 3731.47,-81.29 3733.91,-87.85"/>
</g>
<!-- Node13 -->
<g id="node13" class="node">
<title>Node13</title>
<g id="a_node13"><a xlink:title=" ">
<polygon fill="white" stroke="#bfbfbf" points="3805,-62 3805,-81 3907,-81 3907,-62 3805,-62"/>
<text text-anchor="middle" x="3856" y="-69" font-family="Helvetica,sans-Serif" font-size="10.00">boost/mpl/int.hpp</text>
</a>
</g>
</g>
<!-- Node9&#45;&gt;Node13 -->
<g id="edge18" class="edge">
<title>Node9&#45;&gt;Node13</title>
<path fill="none" stroke="midnightblue" d="M2918.66,-130.71C3090.18,-126.38 3623.95,-111.25 3795,-87 3801.44,-86.09 3808.19,-84.81 3814.76,-83.39"/>
<polygon fill="midnightblue" stroke="midnightblue" points="3815.9,-86.72 3824.87,-81.07 3814.34,-79.9 3815.9,-86.72"/>
</g>
<!-- Node14 -->
<g id="node14" class="node">
<title>Node14</title>
<g id="a_node14"><a xlink:title=" ">
<polygon fill="white" stroke="#bfbfbf" points="0,-56.5 0,-86.5 118,-86.5 118,-56.5 0,-56.5"/>
<text text-anchor="start" x="8" y="-74.5" font-family="Helvetica,sans-Serif" font-size="10.00">boost/geometry/core</text>
<text text-anchor="middle" x="59" y="-63.5" font-family="Helvetica,sans-Serif" font-size="10.00">/cs.hpp</text>
</a>
</g>
</g>
<!-- Node9&#45;&gt;Node14 -->
<g id="edge19" class="edge">
<title>Node9&#45;&gt;Node14</title>
<path fill="none" stroke="midnightblue" d="M2811.44,-123.87C2808.25,-123.54 2805.08,-123.24 2802,-123 2212.62,-77.13 734.51,-152.46 128.41,-86.97"/>
<polygon fill="midnightblue" stroke="midnightblue" points="128.55,-83.46 118.23,-85.85 127.78,-90.42 128.55,-83.46"/>
</g>
<!-- Node15 -->
<g id="node15" class="node">
<title>Node15</title>
<g id="a_node15"><a xlink:title=" ">
<polygon fill="white" stroke="#bfbfbf" points="136,-56.5 136,-86.5 288,-86.5 288,-56.5 136,-56.5"/>
<text text-anchor="start" x="144" y="-74.5" font-family="Helvetica,sans-Serif" font-size="10.00">boost/geometry/geometries</text>
<text text-anchor="middle" x="212" y="-63.5" font-family="Helvetica,sans-Serif" font-size="10.00">/point.hpp</text>
</a>
</g>
</g>
<!-- Node9&#45;&gt;Node15 -->
<g id="edge20" class="edge">
<title>Node9&#45;&gt;Node15</title>
<path fill="none" stroke="midnightblue" d="M2811.44,-123.87C2808.25,-123.54 2805.08,-123.24 2802,-123 2250.23,-79.8 867.71,-137.28 298.36,-87"/>
<polygon fill="midnightblue" stroke="midnightblue" points="298.66,-83.52 288.38,-86.1 298.03,-90.49 298.66,-83.52"/>
</g>
<!-- Node16 -->
<g id="node16" class="node">
<title>Node16</title>
<g id="a_node16"><a xlink:title=" ">
<polygon fill="white" stroke="#bfbfbf" points="306.5,-62 306.5,-81 425.5,-81 425.5,-62 306.5,-62"/>
<text text-anchor="middle" x="366" y="-69" font-family="Helvetica,sans-Serif" font-size="10.00">boost/mpl/assert.hpp</text>
</a>
</g>
</g>
<!-- Node9&#45;&gt;Node16 -->
<g id="edge21" class="edge">
<title>Node9&#45;&gt;Node16</title>
<path fill="none" stroke="midnightblue" d="M2811.44,-123.88C2808.25,-123.54 2805.08,-123.24 2802,-123 2277.56,-81.72 957.81,-145.36 435,-87 426.87,-86.09 418.28,-84.67 410.03,-83.06"/>
<polygon fill="midnightblue" stroke="midnightblue" points="410.69,-79.63 400.18,-81.04 409.27,-86.48 410.69,-79.63"/>
</g>
<!-- Node17 -->
<g id="node17" class="node">
<title>Node17</title>
<g id="a_node17"><a xlink:title=" ">
<polygon fill="white" stroke="#bfbfbf" points="444,-56.5 444,-86.5 562,-86.5 562,-56.5 444,-56.5"/>
<text text-anchor="start" x="452" y="-74.5" font-family="Helvetica,sans-Serif" font-size="10.00">boost/geometry/core</text>
<text text-anchor="middle" x="503" y="-63.5" font-family="Helvetica,sans-Serif" font-size="10.00">/access.hpp</text>
</a>
</g>
</g>
<!-- Node9&#45;&gt;Node17 -->
<g id="edge22" class="edge">
<title>Node9&#45;&gt;Node17</title>
<path fill="none" stroke="midnightblue" d="M2811.43,-123.88C2808.25,-123.54 2805.08,-123.24 2802,-123 2310.96,-84.12 1080.04,-142.19 572.24,-86.95"/>
<polygon fill="midnightblue" stroke="midnightblue" points="572.55,-83.46 562.23,-85.84 571.78,-90.42 572.55,-83.46"/>
</g>
<!-- Node18 -->
<g id="node18" class="node">
<title>Node18</title>
<g id="a_node18"><a xlink:title=" ">
<polygon fill="white" stroke="#bfbfbf" points="580.5,-62 580.5,-81 743.5,-81 743.5,-62 580.5,-62"/>
<text text-anchor="middle" x="662" y="-69" font-family="Helvetica,sans-Serif" font-size="10.00">boost/core/ignore_unused.hpp</text>
</a>
</g>
</g>
<!-- Node9&#45;&gt;Node18 -->
<g id="edge23" class="edge">
<title>Node9&#45;&gt;Node18</title>
<path fill="none" stroke="midnightblue" d="M2811.43,-123.89C2808.25,-123.55 2805.08,-123.25 2802,-123 1894.09,-50.46 1660.3,-166.86 753,-87 741.54,-85.99 729.33,-84.4 717.71,-82.64"/>
<polygon fill="midnightblue" stroke="midnightblue" points="718.09,-79.16 707.67,-81.06 717,-86.08 718.09,-79.16"/>
</g>
<!-- Node19 -->
<g id="node19" class="node">
<title>Node19</title>
<g id="a_node19"><a xlink:title=" ">
<polygon fill="white" stroke="#bfbfbf" points="762,-56.5 762,-86.5 872,-86.5 872,-56.5 762,-56.5"/>
<text text-anchor="start" x="770" y="-74.5" font-family="Helvetica,sans-Serif" font-size="10.00">boost/type_traits/is</text>
<text text-anchor="middle" x="817" y="-63.5" font-family="Helvetica,sans-Serif" font-size="10.00">_pointer.hpp</text>
</a>
</g>
</g>
<!-- Node9&#45;&gt;Node19 -->
<g id="edge24" class="edge">
<title>Node9&#45;&gt;Node19</title>
<path fill="none" stroke="midnightblue" d="M2811.43,-123.89C2808.25,-123.55 2805.08,-123.25 2802,-123 2379.63,-89 1321.04,-137.69 881.97,-86.9"/>
<polygon fill="midnightblue" stroke="midnightblue" points="882.38,-83.42 872.03,-85.72 881.55,-90.37 882.38,-83.42"/>
</g>
<!-- Node20 -->
<g id="node20" class="node">
<title>Node20</title>
<g id="a_node20"><a xlink:title=" ">
<polygon fill="white" stroke="#bfbfbf" points="890,-56.5 890,-86.5 1030,-86.5 1030,-56.5 890,-56.5"/>
<text text-anchor="start" x="898" y="-74.5" font-family="Helvetica,sans-Serif" font-size="10.00">boost/type_traits/remove</text>
<text text-anchor="middle" x="960" y="-63.5" font-family="Helvetica,sans-Serif" font-size="10.00">_pointer.hpp</text>
</a>
</g>
</g>
<!-- Node9&#45;&gt;Node20 -->
<g id="edge25" class="edge">
<title>Node9&#45;&gt;Node20</title>
<path fill="none" stroke="midnightblue" d="M2811.43,-123.9C2808.25,-123.55 2805.08,-123.25 2802,-123 2024.2,-59.74 1820.47,-165.09 1040.2,-86.99"/>
<polygon fill="midnightblue" stroke="midnightblue" points="1040.43,-83.5 1030.13,-85.98 1039.73,-90.46 1040.43,-83.5"/>
</g>
<!-- Node21 -->
<g id="node21" class="node">
<title>Node21</title>
<g id="a_node21"><a xlink:title=" ">
<polygon fill="white" stroke="#bfbfbf" points="1048.5,-56.5 1048.5,-86.5 1167.5,-86.5 1167.5,-56.5 1048.5,-56.5"/>
<text text-anchor="start" x="1056.5" y="-74.5" font-family="Helvetica,sans-Serif" font-size="10.00">boost/geometry/core</text>
<text text-anchor="middle" x="1108" y="-63.5" font-family="Helvetica,sans-Serif" font-size="10.00">/coordinate_type.hpp</text>
</a>
</g>
</g>
<!-- Node9&#45;&gt;Node21 -->
<g id="edge26" class="edge">
<title>Node9&#45;&gt;Node21</title>
<path fill="none" stroke="midnightblue" d="M2811.43,-123.9C2808.25,-123.56 2805.08,-123.25 2802,-123 2085.37,-64.09 1896.41,-168.66 1177.81,-86.91"/>
<polygon fill="midnightblue" stroke="midnightblue" points="1178.06,-83.42 1167.73,-85.76 1177.26,-90.37 1178.06,-83.42"/>
</g>
<!-- Node22 -->
<g id="node22" class="node">
<title>Node22</title>
<g id="a_node22"><a xlink:title=" ">
<polygon fill="white" stroke="#bfbfbf" points="1186,-56.5 1186,-86.5 1304,-86.5 1304,-56.5 1186,-56.5"/>
<text text-anchor="start" x="1194" y="-74.5" font-family="Helvetica,sans-Serif" font-size="10.00">boost/geometry/core</text>
<text text-anchor="middle" x="1245" y="-63.5" font-family="Helvetica,sans-Serif" font-size="10.00">/point_type.hpp</text>
</a>
</g>
</g>
<!-- Node9&#45;&gt;Node22 -->
<g id="edge27" class="edge">
<title>Node9&#45;&gt;Node22</title>
<path fill="none" stroke="midnightblue" d="M2811.43,-123.91C2808.25,-123.56 2805.08,-123.26 2802,-123 2145.69,-68.38 1972.21,-163.38 1314.44,-87"/>
<polygon fill="midnightblue" stroke="midnightblue" points="1314.57,-83.49 1304.23,-85.81 1313.76,-90.45 1314.57,-83.49"/>
</g>
<!-- Node23 -->
<g id="node23" class="node">
<title>Node23</title>
<g id="a_node23"><a xlink:title=" ">
<polygon fill="white" stroke="#bfbfbf" points="1322,-56.5 1322,-86.5 1440,-86.5 1440,-56.5 1322,-56.5"/>
<text text-anchor="start" x="1330" y="-74.5" font-family="Helvetica,sans-Serif" font-size="10.00">boost/geometry/core</text>
<text text-anchor="middle" x="1381" y="-63.5" font-family="Helvetica,sans-Serif" font-size="10.00">/tag.hpp</text>
</a>
</g>
</g>
<!-- Node9&#45;&gt;Node23 -->
<g id="edge28" class="edge">
<title>Node9&#45;&gt;Node23</title>
<path fill="none" stroke="midnightblue" d="M2811.43,-123.92C2808.24,-123.57 2805.08,-123.26 2802,-123 2205.95,-72.66 2048.11,-157.07 1450.4,-87"/>
<polygon fill="midnightblue" stroke="midnightblue" points="1450.57,-83.5 1440.23,-85.8 1449.75,-90.45 1450.57,-83.5"/>
</g>
<!-- Node24 -->
<g id="node24" class="node">
<title>Node24</title>
<g id="a_node24"><a xlink:title=" ">
<polygon fill="white" stroke="#bfbfbf" points="1458.5,-56.5 1458.5,-86.5 1571.5,-86.5 1571.5,-56.5 1458.5,-56.5"/>
<text text-anchor="start" x="1466.5" y="-74.5" font-family="Helvetica,sans-Serif" font-size="10.00">boost/geometry/util</text>
<text text-anchor="middle" x="1515" y="-63.5" font-family="Helvetica,sans-Serif" font-size="10.00">/bare_type.hpp</text>
</a>
</g>
</g>
<!-- Node9&#45;&gt;Node24 -->
<g id="edge29" class="edge">
<title>Node9&#45;&gt;Node24</title>
<path fill="none" stroke="midnightblue" d="M2811.43,-123.93C2808.24,-123.58 2805.08,-123.26 2802,-123 2264.39,-76.82 2121.55,-152.6 1581.76,-86.9"/>
<polygon fill="midnightblue" stroke="midnightblue" points="1582.12,-83.42 1571.77,-85.68 1581.26,-90.37 1582.12,-83.42"/>
</g>
<!-- Node25 -->
<g id="node25" class="node">
<title>Node25</title>
<g id="a_node25"><a xlink:title=" ">
<polygon fill="white" stroke="#bfbfbf" points="1590,-56.5 1590,-86.5 1708,-86.5 1708,-56.5 1590,-56.5"/>
<text text-anchor="start" x="1598" y="-74.5" font-family="Helvetica,sans-Serif" font-size="10.00">boost/geometry/core</text>
<text text-anchor="middle" x="1649" y="-63.5" font-family="Helvetica,sans-Serif" font-size="10.00">/assert.hpp</text>
</a>
</g>
</g>
<!-- Node9&#45;&gt;Node25 -->
<g id="edge30" class="edge">
<title>Node9&#45;&gt;Node25</title>
<path fill="none" stroke="midnightblue" d="M2811.43,-123.94C2808.24,-123.59 2805.08,-123.27 2802,-123 2324.65,-81.11 2197.65,-144.66 1718.18,-86.98"/>
<polygon fill="midnightblue" stroke="midnightblue" points="1718.58,-83.51 1708.23,-85.78 1717.74,-90.46 1718.58,-83.51"/>
</g>
<!-- Node26 -->
<g id="node26" class="node">
<title>Node26</title>
<g id="a_node26"><a xlink:title=" ">
<polygon fill="white" stroke="#bfbfbf" points="1726,-62 1726,-81 1824,-81 1824,-62 1726,-62"/>
<text text-anchor="middle" x="1775" y="-69" font-family="Helvetica,sans-Serif" font-size="10.00">boost/assert.hpp</text>
</a>
</g>
</g>
<!-- Node9&#45;&gt;Node26 -->
<g id="edge31" class="edge">
<title>Node9&#45;&gt;Node26</title>
<path fill="none" stroke="midnightblue" d="M2811.43,-123.96C2808.24,-123.6 2805.08,-123.28 2802,-123 2372.76,-84.47 2259.68,-147.59 1833,-87 1826.94,-86.14 1820.6,-84.91 1814.43,-83.52"/>
<polygon fill="midnightblue" stroke="midnightblue" points="1814.81,-80.01 1804.27,-81.08 1813.18,-86.82 1814.81,-80.01"/>
</g>
<!-- Node27 -->
<g id="node27" class="node">
<title>Node27</title>
<g id="a_node27"><a xlink:title=" ">
<polygon fill="white" stroke="#bfbfbf" points="1842,-56.5 1842,-86.5 1976,-86.5 1976,-56.5 1842,-56.5"/>
<text text-anchor="start" x="1850" y="-74.5" font-family="Helvetica,sans-Serif" font-size="10.00">boost/geometry/core</text>
<text text-anchor="middle" x="1909" y="-63.5" font-family="Helvetica,sans-Serif" font-size="10.00">/coordinate_system.hpp</text>
</a>
</g>
</g>
<!-- Node9&#45;&gt;Node27 -->
<g id="edge32" class="edge">
<title>Node9&#45;&gt;Node27</title>
<path fill="none" stroke="midnightblue" d="M2811.43,-123.98C2808.24,-123.62 2805.08,-123.29 2802,-123 2443.38,-89.56 2347.73,-128.45 1986.01,-86.99"/>
<polygon fill="midnightblue" stroke="midnightblue" points="1986.39,-83.51 1976.06,-85.84 1985.59,-90.47 1986.39,-83.51"/>
</g>
<!-- Node28 -->
<g id="node28" class="node">
<title>Node28</title>
<g id="a_node28"><a xlink:title=" ">
<polygon fill="white" stroke="#bfbfbf" points="1994.5,-56.5 1994.5,-86.5 2143.5,-86.5 2143.5,-56.5 1994.5,-56.5"/>
<text text-anchor="start" x="2002.5" y="-74.5" font-family="Helvetica,sans-Serif" font-size="10.00">boost/geometry/core</text>
<text text-anchor="middle" x="2069" y="-63.5" font-family="Helvetica,sans-Serif" font-size="10.00">/coordinate_dimension.hpp</text>
</a>
</g>
</g>
<!-- Node9&#45;&gt;Node28 -->
<g id="edge33" class="edge">
<title>Node9&#45;&gt;Node28</title>
<path fill="none" stroke="midnightblue" d="M2811.42,-124.02C2808.24,-123.65 2805.08,-123.3 2802,-123 2517.89,-94.88 2441.81,-119.04 2153.92,-87"/>
<polygon fill="midnightblue" stroke="midnightblue" points="2153.92,-83.48 2143.59,-85.84 2153.14,-90.43 2153.92,-83.48"/>
</g>
<!-- Node29 -->
<g id="node29" class="node">
<title>Node29</title>
<g id="a_node29"><a xlink:title=" ">
<polygon fill="white" stroke="#bfbfbf" points="2162,-56.5 2162,-86.5 2314,-86.5 2314,-56.5 2162,-56.5"/>
<text text-anchor="start" x="2170" y="-74.5" font-family="Helvetica,sans-Serif" font-size="10.00">boost/geometry/geometries</text>
<text text-anchor="middle" x="2238" y="-63.5" font-family="Helvetica,sans-Serif" font-size="10.00">/box.hpp</text>
</a>
</g>
</g>
<!-- Node9&#45;&gt;Node29 -->
<g id="edge34" class="edge">
<title>Node9&#45;&gt;Node29</title>
<path fill="none" stroke="midnightblue" d="M2811.41,-124.1C2808.23,-123.7 2805.08,-123.33 2802,-123 2593.08,-100.25 2536.66,-112.58 2324.62,-87.12"/>
<polygon fill="midnightblue" stroke="midnightblue" points="2324.75,-83.61 2314.41,-85.88 2323.91,-90.56 2324.75,-83.61"/>
</g>
<!-- Node30 -->
<g id="node30" class="node">
<title>Node30</title>
<g id="a_node30"><a xlink:title=" ">
<polygon fill="white" stroke="#bfbfbf" points="2332.5,-62 2332.5,-81 2471.5,-81 2471.5,-62 2332.5,-62"/>
<text text-anchor="middle" x="2402" y="-69" font-family="Helvetica,sans-Serif" font-size="10.00">boost/concept/assert.hpp</text>
</a>
</g>
</g>
<!-- Node9&#45;&gt;Node30 -->
<g id="edge35" class="edge">
<title>Node9&#45;&gt;Node30</title>
<path fill="none" stroke="midnightblue" d="M2811.4,-124.23C2808.22,-123.8 2805.07,-123.39 2802,-123 2659.15,-104.82 2622.44,-108.17 2480,-87 2471.86,-85.79 2463.28,-84.36 2454.9,-82.87"/>
<polygon fill="midnightblue" stroke="midnightblue" points="2455.28,-79.38 2444.82,-81.04 2454.03,-86.27 2455.28,-79.38"/>
</g>
<!-- Node31 -->
<g id="node31" class="node">
<title>Node31</title>
<g id="a_node31"><a xlink:title=" ">
<polygon fill="white" stroke="#bfbfbf" points="2489.5,-56.5 2489.5,-86.5 2638.5,-86.5 2638.5,-56.5 2489.5,-56.5"/>
<text text-anchor="start" x="2497.5" y="-74.5" font-family="Helvetica,sans-Serif" font-size="10.00">boost/geometry/algorithms</text>
<text text-anchor="middle" x="2564" y="-63.5" font-family="Helvetica,sans-Serif" font-size="10.00">/convert.hpp</text>
</a>
</g>
</g>
<!-- Node9&#45;&gt;Node31 -->
<g id="edge36" class="edge">
<title>Node9&#45;&gt;Node31</title>
<path fill="none" stroke="midnightblue" d="M2821.87,-123.48C2775.87,-114.38 2701.93,-99.77 2645,-88.51"/>
<polygon fill="midnightblue" stroke="midnightblue" points="2645.43,-85.03 2634.94,-86.52 2644.07,-91.9 2645.43,-85.03"/>
</g>
<!-- Node32 -->
<g id="node32" class="node">
<title>Node32</title>
<g id="a_node32"><a xlink:title=" ">
<polygon fill="white" stroke="#bfbfbf" points="2656.5,-56.5 2656.5,-86.5 2799.5,-86.5 2799.5,-56.5 2656.5,-56.5"/>
<text text-anchor="start" x="2664.5" y="-74.5" font-family="Helvetica,sans-Serif" font-size="10.00">boost/numeric/conversion</text>
<text text-anchor="middle" x="2728" y="-63.5" font-family="Helvetica,sans-Serif" font-size="10.00">/cast.hpp</text>
</a>
</g>
</g>
<!-- Node9&#45;&gt;Node32 -->
<g id="edge37" class="edge">
<title>Node9&#45;&gt;Node32</title>
<path fill="none" stroke="midnightblue" d="M2845.37,-123.48C2825.69,-114.93 2794.78,-101.5 2769.61,-90.57"/>
<polygon fill="midnightblue" stroke="midnightblue" points="2770.85,-87.3 2760.29,-86.52 2768.07,-93.72 2770.85,-87.3"/>
</g>
<!-- Node33 -->
<g id="node33" class="node">
<title>Node33</title>
<g id="a_node33"><a xlink:title=" ">
<polygon fill="white" stroke="#bfbfbf" points="2817.5,-62 2817.5,-81 2912.5,-81 2912.5,-62 2817.5,-62"/>
<text text-anchor="middle" x="2865" y="-69" font-family="Helvetica,sans-Serif" font-size="10.00">boost/range.hpp</text>
</a>
</g>
</g>
<!-- Node9&#45;&gt;Node33 -->
<g id="edge38" class="edge">
<title>Node9&#45;&gt;Node33</title>
<path fill="none" stroke="midnightblue" d="M2865,-123.48C2865,-115.08 2865,-101.98 2865,-91.16"/>
<polygon fill="midnightblue" stroke="midnightblue" points="2868.5,-91.01 2865,-81.01 2861.5,-91.01 2868.5,-91.01"/>
</g>
<!-- Node34 -->
<g id="node34" class="node">
<title>Node34</title>
<g id="a_node34"><a xlink:title=" ">
<polygon fill="white" stroke="#bfbfbf" points="2930.5,-62 2930.5,-81 3073.5,-81 3073.5,-62 2930.5,-62"/>
<text text-anchor="middle" x="3002" y="-69" font-family="Helvetica,sans-Serif" font-size="10.00">boost/range/functions.hpp</text>
</a>
</g>
</g>
<!-- Node9&#45;&gt;Node34 -->
<g id="edge39" class="edge">
<title>Node9&#45;&gt;Node34</title>
<path fill="none" stroke="midnightblue" d="M2884.63,-123.48C2907.82,-113.4 2946.62,-96.55 2973.21,-85"/>
<polygon fill="midnightblue" stroke="midnightblue" points="2974.63,-88.2 2982.41,-81.01 2971.84,-81.78 2974.63,-88.2"/>
</g>
<!-- Node35 -->
<g id="node35" class="node">
<title>Node35</title>
<g id="a_node35"><a xlink:title=" ">
<polygon fill="white" stroke="#bfbfbf" points="3091.5,-62 3091.5,-81 3260.5,-81 3260.5,-62 3091.5,-62"/>
<text text-anchor="middle" x="3176" y="-69" font-family="Helvetica,sans-Serif" font-size="10.00">boost/range/metafunctions.hpp</text>
</a>
</g>
</g>
<!-- Node9&#45;&gt;Node35 -->
<g id="edge40" class="edge">
<title>Node9&#45;&gt;Node35</title>
<path fill="none" stroke="midnightblue" d="M2909.56,-123.48C2965.45,-112.78 3061.23,-94.46 3121.44,-82.94"/>
<polygon fill="midnightblue" stroke="midnightblue" points="3122.36,-86.33 3131.52,-81.01 3121.04,-79.45 3122.36,-86.33"/>
</g>
<!-- Node36 -->
<g id="node36" class="node">
<title>Node36</title>
<g id="a_node36"><a xlink:title=" ">
<polygon fill="white" stroke="#bfbfbf" points="3279,-62 3279,-81 3413,-81 3413,-62 3279,-62"/>
<text text-anchor="middle" x="3346" y="-69" font-family="Helvetica,sans-Serif" font-size="10.00">boost/range/iterator.hpp</text>
</a>
</g>
</g>
<!-- Node9&#45;&gt;Node36 -->
<g id="edge41" class="edge">
<title>Node9&#45;&gt;Node36</title>
<path fill="none" stroke="midnightblue" d="M2918.75,-127.31C2996.33,-120.25 3144.07,-105.69 3269,-87 3277.03,-85.8 3285.51,-84.37 3293.78,-82.88"/>
<polygon fill="midnightblue" stroke="midnightblue" points="3294.53,-86.3 3303.73,-81.05 3293.27,-79.42 3294.53,-86.3"/>
</g>
<!-- Node109 -->
<g id="node37" class="node">
<title>Node109</title>
<g id="a_node37"><a xlink:title=" ">
<polygon fill="white" stroke="#bfbfbf" points="4025.5,-62 4025.5,-81 4090.5,-81 4090.5,-62 4025.5,-62"/>
<text text-anchor="middle" x="4058" y="-69" font-family="Helvetica,sans-Serif" font-size="10.00">functional</text>
</a>
</g>
</g>
<!-- Node9&#45;&gt;Node109 -->
<g id="edge42" class="edge">
<title>Node9&#45;&gt;Node109</title>
<path fill="none" stroke="midnightblue" d="M2918.71,-131.98C3116.17,-131.59 3801.53,-127.3 4016,-87 4019.71,-86.3 4023.53,-85.34 4027.28,-84.25"/>
<polygon fill="midnightblue" stroke="midnightblue" points="4028.53,-87.53 4036.96,-81.11 4026.37,-80.87 4028.53,-87.53"/>
</g>
<!-- Node9&#45;&gt;Node161 -->
<g id="edge43" class="edge">
<title>Node9&#45;&gt;Node161</title>
<path fill="none" stroke="midnightblue" d="M2918.5,-131.21C3124.33,-127.97 3865.21,-114.62 4099,-87 4107.28,-86.02 4116.03,-84.6 4124.47,-83.02"/>
<polygon fill="midnightblue" stroke="midnightblue" points="4125.42,-86.4 4134.56,-81.03 4124.07,-79.53 4125.42,-86.4"/>
</g>
<!-- Node9&#45;&gt;Node162 -->
<g id="edge44" class="edge">
<title>Node9&#45;&gt;Node162</title>
<path fill="none" stroke="midnightblue" d="M2918.58,-131.52C3139.31,-129.35 3978.9,-119.09 4242,-87 4249.66,-86.07 4257.74,-84.69 4265.55,-83.16"/>
<polygon fill="midnightblue" stroke="midnightblue" points="4266.53,-86.53 4275.61,-81.07 4265.1,-79.68 4266.53,-86.53"/>
</g>
<!-- Node9&#45;&gt;Node165 -->
<g id="edge45" class="edge">
<title>Node9&#45;&gt;Node165</title>
<path fill="none" stroke="midnightblue" d="M2918.83,-131.94C3174.47,-131.48 4267.46,-127.12 4606,-87 4613.84,-86.07 4622.11,-84.67 4630.08,-83.1"/>
<polygon fill="midnightblue" stroke="midnightblue" points="4630.88,-86.51 4639.96,-81.04 4629.46,-79.65 4630.88,-86.51"/>
</g>
<!-- Node212 -->
<g id="node41" class="node">
<title>Node212</title>
<g id="a_node41"><a xlink:title=" ">
<polygon fill="white" stroke="#bfbfbf" points="3963,-62 3963,-81 4007,-81 4007,-62 3963,-62"/>
<text text-anchor="middle" x="3985" y="-69" font-family="Helvetica,sans-Serif" font-size="10.00">string</text>
</a>
</g>
</g>
<!-- Node9&#45;&gt;Node212 -->
<g id="edge46" class="edge">
<title>Node9&#45;&gt;Node212</title>
<path fill="none" stroke="midnightblue" d="M2918.57,-132.18C3108.51,-132.45 3749.1,-130.07 3949,-87 3951.84,-86.39 3954.75,-85.57 3957.61,-84.63"/>
<polygon fill="midnightblue" stroke="midnightblue" points="3958.91,-87.89 3967.07,-81.12 3956.47,-81.32 3958.91,-87.89"/>
</g>
<!-- Node9&#45;&gt;Node237 -->
<g id="edge48" class="edge">
<title>Node9&#45;&gt;Node237</title>
<path fill="none" stroke="midnightblue" d="M2918.56,-131.95C3206.07,-131.55 4560.14,-127.47 4742,-87 4744.51,-86.44 4747.07,-85.69 4749.59,-84.82"/>
<polygon fill="midnightblue" stroke="midnightblue" points="4751.01,-88.02 4758.98,-81.04 4748.39,-81.52 4751.01,-88.02"/>
</g>
<!-- Node250&#45;&gt;Node2 -->
<g id="edge53" class="edge">
<title>Node250&#45;&gt;Node2</title>
<path fill="none" stroke="midnightblue" d="M4335.85,-179.31C4308.99,-167.51 4269.48,-145.34 4288,-123 4315.57,-89.75 4436.72,-95.85 4479,-87 4484.49,-85.85 4490.24,-84.6 4495.94,-83.32"/>
<polygon fill="midnightblue" stroke="midnightblue" points="4497.09,-86.65 4506.07,-81.03 4495.55,-79.82 4497.09,-86.65"/>
</g>
<!-- Node250&#45;&gt;Node251 -->
<g id="edge54" class="edge">
<title>Node250&#45;&gt;Node251</title>
<path fill="none" stroke="midnightblue" d="M4308.24,-179.68C4251.08,-170.12 4157.29,-154.44 4095.83,-144.17"/>
<polygon fill="midnightblue" stroke="midnightblue" points="4096.32,-140.7 4085.88,-142.51 4095.17,-147.61 4096.32,-140.7"/>
</g>
<!-- Node250&#45;&gt;Node253 -->
<g id="edge59" class="edge">
<title>Node250&#45;&gt;Node253</title>
<path fill="none" stroke="midnightblue" d="M4360.97,-179.08C4363.38,-171.85 4366.86,-161.41 4369.87,-152.4"/>
<polygon fill="midnightblue" stroke="midnightblue" points="4373.24,-153.34 4373.08,-142.75 4366.6,-151.13 4373.24,-153.34"/>
</g>
<!-- Node251&#45;&gt;Node2 -->
<g id="edge55" class="edge">
<title>Node251&#45;&gt;Node2</title>
<path fill="none" stroke="midnightblue" d="M4088.8,-124.7C4093.6,-124.1 4098.39,-123.53 4103,-123 4269.79,-103.98 4313.29,-113.88 4479,-87 4485.33,-85.97 4491.96,-84.68 4498.46,-83.3"/>
<polygon fill="midnightblue" stroke="midnightblue" points="4499.48,-86.66 4508.48,-81.07 4497.96,-79.82 4499.48,-86.66"/>
</g>
<!-- Node251&#45;&gt;Node109 -->
<g id="edge58" class="edge">
<title>Node251&#45;&gt;Node109</title>
<path fill="none" stroke="midnightblue" d="M4038.3,-123.48C4041.61,-114.9 4046.82,-101.43 4051.05,-90.48"/>
<polygon fill="midnightblue" stroke="midnightblue" points="4054.37,-91.6 4054.71,-81.01 4047.84,-89.07 4054.37,-91.6"/>
</g>
<!-- Node251&#45;&gt;Node212 -->
<g id="edge56" class="edge">
<title>Node251&#45;&gt;Node212</title>
<path fill="none" stroke="midnightblue" d="M4027.84,-123.48C4020.26,-114.46 4008.13,-100.02 3998.71,-88.81"/>
<polygon fill="midnightblue" stroke="midnightblue" points="4001.26,-86.41 3992.15,-81.01 3995.9,-90.92 4001.26,-86.41"/>
</g>
<!-- Node252 -->
<g id="node47" class="node">
<title>Node252</title>
<g id="a_node47"><a xlink:title=" ">
<polygon fill="white" stroke="#bfbfbf" points="4386.5,-62 4386.5,-81 4469.5,-81 4469.5,-62 4386.5,-62"/>
<text text-anchor="middle" x="4428" y="-69" font-family="Helvetica,sans-Serif" font-size="10.00">initializer_list</text>
</a>
</g>
</g>
<!-- Node251&#45;&gt;Node252 -->
<g id="edge57" class="edge">
<title>Node251&#45;&gt;Node252</title>
<path fill="none" stroke="midnightblue" d="M4088.82,-124.87C4093.62,-124.24 4098.4,-123.61 4103,-123 4224.77,-106.94 4256.72,-111.86 4377,-87 4381.48,-86.07 4386.15,-84.96 4390.75,-83.77"/>
<polygon fill="midnightblue" stroke="midnightblue" points="4391.93,-87.08 4400.66,-81.07 4390.09,-80.32 4391.93,-87.08"/>
</g>
</g>
</svg>
