<?xml version="1.0" encoding="UTF-8" standalone="no"?>
<!DOCTYPE svg PUBLIC "-//W3C//DTD SVG 1.1//EN"
 "http://www.w3.org/Graphics/SVG/1.1/DTD/svg11.dtd">
<!-- Generated by graphviz version 2.38.0 (20140413.2041)
 -->
<!-- Title: boost/ui/painter.hpp Pages: 1 -->
<svg width="1875pt" height="263pt"
 viewBox="0.00 0.00 1875.00 263.00" xmlns="http://www.w3.org/2000/svg" xmlns:xlink="http://www.w3.org/1999/xlink">
<g id="graph0" class="graph" transform="scale(1 1) rotate(0) translate(4 259)">
<title>boost/ui/painter.hpp</title>
<polygon fill="white" stroke="none" points="-4,4 -4,-259 1871,-259 1871,4 -4,4"/>
<!-- Node1 -->
<g id="node1" class="node"><title>Node1</title>
<polygon fill="#bfbfbf" stroke="black" points="959.5,-235.5 959.5,-254.5 1061.5,-254.5 1061.5,-235.5 959.5,-235.5"/>
<text text-anchor="middle" x="1010.5" y="-242.5" font-family="Helvetica,sans-Serif" font-size="10.00">boost/ui/painter.hpp</text>
</g>
<!-- Node2 -->
<g id="node2" class="node"><title>Node2</title>
<g id="a_node2"><a xlink:href="config_8hpp.html" target="_top" xlink:title="Configuration options. ">
<polygon fill="white" stroke="black" points="685,-62 685,-81 784,-81 784,-62 685,-62"/>
<text text-anchor="middle" x="734.5" y="-69" font-family="Helvetica,sans-Serif" font-size="10.00">boost/ui/config.hpp</text>
</a>
</g>
</g>
<!-- Node1&#45;&gt;Node2 -->
<g id="edge1" class="edge"><title>Node1&#45;&gt;Node2</title>
<path fill="none" stroke="midnightblue" d="M959.372,-243.428C856.847,-241.548 630.089,-233.496 561.5,-199 531.426,-183.875 522.653,-174.393 510.5,-143 507.291,-134.711 504.925,-129.923 510.5,-123 557.579,-64.5418 602.382,-103.958 675.5,-87 680.447,-85.8528 685.619,-84.6242 690.758,-83.3856"/>
<polygon fill="midnightblue" stroke="midnightblue" points="691.639,-86.7733 700.529,-81.0098 689.985,-79.9714 691.639,-86.7733"/>
</g>
<!-- Node4 -->
<g id="node4" class="node"><title>Node4</title>
<g id="a_node4"><a xlink:href="def_8hpp.html" target="_top" xlink:title="Definitions. ">
<polygon fill="white" stroke="black" points="519.5,-123.5 519.5,-142.5 605.5,-142.5 605.5,-123.5 519.5,-123.5"/>
<text text-anchor="middle" x="562.5" y="-130.5" font-family="Helvetica,sans-Serif" font-size="10.00">boost/ui/def.hpp</text>
</a>
</g>
</g>
<!-- Node1&#45;&gt;Node4 -->
<g id="edge3" class="edge"><title>Node1&#45;&gt;Node4</title>
<path fill="none" stroke="midnightblue" d="M959.297,-242.025C850.625,-237.362 604.523,-224.128 576.5,-199 563.762,-187.578 561.081,-167.593 561.081,-152.789"/>
<polygon fill="midnightblue" stroke="midnightblue" points="564.582,-152.838 561.482,-142.707 557.588,-152.56 564.582,-152.838"/>
</g>
<!-- Node5 -->
<g id="node5" class="node"><title>Node5</title>
<polygon fill="white" stroke="#bfbfbf" points="1076,-179.5 1076,-198.5 1175,-198.5 1175,-179.5 1076,-179.5"/>
<text text-anchor="middle" x="1125.5" y="-186.5" font-family="Helvetica,sans-Serif" font-size="10.00">boost/ui/config.hpp</text>
</g>
<!-- Node1&#45;&gt;Node5 -->
<g id="edge5" class="edge"><title>Node1&#45;&gt;Node5</title>
<path fill="none" stroke="midnightblue" d="M1028.72,-235.444C1047.4,-226.675 1076.66,-212.935 1098.12,-202.858"/>
<polygon fill="midnightblue" stroke="midnightblue" points="1099.8,-205.935 1107.36,-198.516 1096.82,-199.599 1099.8,-205.935"/>
</g>
<!-- Node6 -->
<g id="node6" class="node"><title>Node6</title>
<g id="a_node6"><a xlink:href="color_8hpp.html" target="_top" xlink:title="Color class. ">
<polygon fill="white" stroke="black" points="585.5,-179.5 585.5,-198.5 679.5,-198.5 679.5,-179.5 585.5,-179.5"/>
<text text-anchor="middle" x="632.5" y="-186.5" font-family="Helvetica,sans-Serif" font-size="10.00">boost/ui/color.hpp</text>
</a>
</g>
</g>
<!-- Node1&#45;&gt;Node6 -->
<g id="edge6" class="edge"><title>Node1&#45;&gt;Node6</title>
<path fill="none" stroke="midnightblue" d="M959.428,-236.838C896.768,-228.03 787.297,-212.577 693.5,-199 692.249,-198.819 690.983,-198.635 689.706,-198.45"/>
<polygon fill="midnightblue" stroke="midnightblue" points="690.185,-194.983 679.785,-197.003 689.175,-201.909 690.185,-194.983"/>
</g>
<!-- Node7 -->
<g id="node7" class="node"><title>Node7</title>
<polygon fill="white" stroke="#bfbfbf" points="661.5,-123.5 661.5,-142.5 753.5,-142.5 753.5,-123.5 661.5,-123.5"/>
<text text-anchor="middle" x="707.5" y="-130.5" font-family="Helvetica,sans-Serif" font-size="10.00">boost/cstdint.hpp</text>
</g>
<!-- Node1&#45;&gt;Node7 -->
<g id="edge9" class="edge"><title>Node1&#45;&gt;Node7</title>
<path fill="none" stroke="midnightblue" d="M959.489,-242.32C887.282,-238.901 760.272,-228.726 726.5,-199 713.419,-187.486 709.117,-167.516 707.812,-152.741"/>
<polygon fill="midnightblue" stroke="midnightblue" points="711.304,-152.491 707.303,-142.681 704.313,-152.845 711.304,-152.491"/>
</g>
<!-- Node8 -->
<g id="node8" class="node"><title>Node8</title>
<g id="a_node8"><a xlink:href="image_8hpp.html" target="_top" xlink:title="Image class. ">
<polygon fill="white" stroke="black" points="736,-179.5 736,-198.5 835,-198.5 835,-179.5 736,-179.5"/>
<text text-anchor="middle" x="785.5" y="-186.5" font-family="Helvetica,sans-Serif" font-size="10.00">boost/ui/image.hpp</text>
</a>
</g>
</g>
<!-- Node1&#45;&gt;Node8 -->
<g id="edge10" class="edge"><title>Node1&#45;&gt;Node8</title>
<path fill="none" stroke="midnightblue" d="M974.848,-235.444C935.844,-226.083 873.234,-211.056 830.783,-200.868"/>
<polygon fill="midnightblue" stroke="midnightblue" points="831.526,-197.447 820.985,-198.516 829.892,-204.254 831.526,-197.447"/>
</g>
<!-- Node15 -->
<g id="node15" class="node"><title>Node15</title>
<polygon fill="white" stroke="#bfbfbf" points="810,-123.5 810,-142.5 859,-142.5 859,-123.5 810,-123.5"/>
<text text-anchor="middle" x="834.5" y="-130.5" font-family="Helvetica,sans-Serif" font-size="10.00">istream</text>
</g>
<!-- Node1&#45;&gt;Node15 -->
<g id="edge21" class="edge"><title>Node1&#45;&gt;Node15</title>
<path fill="none" stroke="midnightblue" d="M987.705,-235.352C967.495,-227.242 937.543,-214.122 913.5,-199 890.412,-184.479 866.597,-163.991 851.234,-149.919"/>
<polygon fill="midnightblue" stroke="midnightblue" points="853.333,-147.09 843.628,-142.84 848.564,-152.214 853.333,-147.09"/>
</g>
<!-- Node16 -->
<g id="node16" class="node"><title>Node16</title>
<polygon fill="white" stroke="#bfbfbf" points="1193,-179.5 1193,-198.5 1290,-198.5 1290,-179.5 1193,-179.5"/>
<text text-anchor="middle" x="1241.5" y="-186.5" font-family="Helvetica,sans-Serif" font-size="10.00">boost/ui/coord.hpp</text>
</g>
<!-- Node1&#45;&gt;Node16 -->
<g id="edge20" class="edge"><title>Node1&#45;&gt;Node16</title>
<path fill="none" stroke="midnightblue" d="M1047.1,-235.444C1087.23,-226.063 1151.7,-210.993 1195.28,-200.804"/>
<polygon fill="midnightblue" stroke="midnightblue" points="1196.13,-204.201 1205.07,-198.516 1194.53,-197.385 1196.13,-204.201"/>
</g>
<!-- Node17 -->
<g id="node17" class="node"><title>Node17</title>
<g id="a_node17"><a xlink:href="font_8hpp.html" target="_top" xlink:title="Font class. ">
<polygon fill="white" stroke="black" points="930,-179.5 930,-198.5 1019,-198.5 1019,-179.5 930,-179.5"/>
<text text-anchor="middle" x="974.5" y="-186.5" font-family="Helvetica,sans-Serif" font-size="10.00">boost/ui/font.hpp</text>
</a>
</g>
</g>
<!-- Node1&#45;&gt;Node17 -->
<g id="edge22" class="edge"><title>Node1&#45;&gt;Node17</title>
<path fill="none" stroke="midnightblue" d="M1004.56,-235.083C999.523,-227.534 992.163,-216.495 985.987,-207.23"/>
<polygon fill="midnightblue" stroke="midnightblue" points="988.793,-205.13 980.334,-198.751 982.969,-209.013 988.793,-205.13"/>
</g>
<!-- Node18 -->
<g id="node18" class="node"><title>Node18</title>
<g id="a_node18"><a xlink:href="string_8hpp.html" target="_top" xlink:title="String class and operations. ">
<polygon fill="white" stroke="black" points="916,-123.5 916,-142.5 1013,-142.5 1013,-123.5 916,-123.5"/>
<text text-anchor="middle" x="964.5" y="-130.5" font-family="Helvetica,sans-Serif" font-size="10.00">boost/ui/string.hpp</text>
</a>
</g>
</g>
<!-- Node1&#45;&gt;Node18 -->
<g id="edge30" class="edge"><title>Node1&#45;&gt;Node18</title>
<path fill="none" stroke="midnightblue" d="M973.398,-235.458C954.055,-228.918 932.072,-217.724 920.5,-199 909.641,-181.429 927.067,-161.878 943.09,-148.851"/>
<polygon fill="midnightblue" stroke="midnightblue" points="945.354,-151.526 951.183,-142.679 941.109,-145.96 945.354,-151.526"/>
</g>
<!-- Node22 -->
<g id="node22" class="node"><title>Node22</title>
<polygon fill="white" stroke="#bfbfbf" points="1031,-123.5 1031,-142.5 1176,-142.5 1176,-123.5 1031,-123.5"/>
<text text-anchor="middle" x="1103.5" y="-130.5" font-family="Helvetica,sans-Serif" font-size="10.00">boost/core/scoped_enum.hpp</text>
</g>
<!-- Node1&#45;&gt;Node22 -->
<g id="edge32" class="edge"><title>Node1&#45;&gt;Node22</title>
<path fill="none" stroke="midnightblue" d="M1017.8,-235.368C1033.28,-217.055 1069.64,-174.049 1089.67,-150.362"/>
<polygon fill="midnightblue" stroke="midnightblue" points="1092.45,-152.488 1096.24,-142.591 1087.11,-147.968 1092.45,-152.488"/>
</g>
<!-- Node23 -->
<g id="node23" class="node"><title>Node23</title>
<polygon fill="white" stroke="#bfbfbf" points="1308,-179.5 1308,-198.5 1425,-198.5 1425,-179.5 1308,-179.5"/>
<text text-anchor="middle" x="1366.5" y="-186.5" font-family="Helvetica,sans-Serif" font-size="10.00">boost/noncopyable.hpp</text>
</g>
<!-- Node1&#45;&gt;Node23 -->
<g id="edge31" class="edge"><title>Node1&#45;&gt;Node23</title>
<path fill="none" stroke="midnightblue" d="M1061.51,-236.263C1124.36,-226.729 1231.3,-210.509 1300.39,-200.028"/>
<polygon fill="midnightblue" stroke="midnightblue" points="1300.94,-203.485 1310.3,-198.524 1299.89,-196.564 1300.94,-203.485"/>
</g>
<!-- Node24 -->
<g id="node24" class="node"><title>Node24</title>
<polygon fill="white" stroke="#bfbfbf" points="1443.5,-179.5 1443.5,-198.5 1487.5,-198.5 1487.5,-179.5 1443.5,-179.5"/>
<text text-anchor="middle" x="1465.5" y="-186.5" font-family="Helvetica,sans-Serif" font-size="10.00">vector</text>
</g>
<!-- Node1&#45;&gt;Node24 -->
<g id="edge33" class="edge"><title>Node1&#45;&gt;Node24</title>
<path fill="none" stroke="midnightblue" d="M1061.52,-241.504C1139.72,-237.039 1293.95,-225.718 1433.26,-198.922"/>
<polygon fill="midnightblue" stroke="midnightblue" points="1434.12,-202.32 1443.26,-196.966 1432.78,-195.45 1434.12,-202.32"/>
</g>
<!-- Node25 -->
<g id="node25" class="node"><title>Node25</title>
<polygon fill="white" stroke="#bfbfbf" points="1506,-179.5 1506,-198.5 1619,-198.5 1619,-179.5 1506,-179.5"/>
<text text-anchor="middle" x="1562.5" y="-186.5" font-family="Helvetica,sans-Serif" font-size="10.00">boost/range/begin.hpp</text>
</g>
<!-- Node1&#45;&gt;Node25 -->
<g id="edge34" class="edge"><title>Node1&#45;&gt;Node25</title>
<path fill="none" stroke="midnightblue" d="M1061.65,-239.995C1148.5,-233.035 1330.56,-217.754 1495.65,-199.048"/>
<polygon fill="midnightblue" stroke="midnightblue" points="1496.46,-202.479 1505.99,-197.869 1495.66,-195.524 1496.46,-202.479"/>
</g>
<!-- Node26 -->
<g id="node26" class="node"><title>Node26</title>
<polygon fill="white" stroke="#bfbfbf" points="1637,-179.5 1637,-198.5 1742,-198.5 1742,-179.5 1637,-179.5"/>
<text text-anchor="middle" x="1689.5" y="-186.5" font-family="Helvetica,sans-Serif" font-size="10.00">boost/range/end.hpp</text>
</g>
<!-- Node1&#45;&gt;Node26 -->
<g id="edge35" class="edge"><title>Node1&#45;&gt;Node26</title>
<path fill="none" stroke="midnightblue" d="M1061.89,-241.543C1166.34,-236.271 1411.11,-222.499 1626.72,-199.124"/>
<polygon fill="midnightblue" stroke="midnightblue" points="1627.4,-202.57 1636.96,-198.003 1626.64,-195.611 1627.4,-202.57"/>
</g>
<!-- Node27 -->
<g id="node27" class="node"><title>Node27</title>
<polygon fill="white" stroke="#bfbfbf" points="1760,-179.5 1760,-198.5 1867,-198.5 1867,-179.5 1760,-179.5"/>
<text text-anchor="middle" x="1813.5" y="-186.5" font-family="Helvetica,sans-Serif" font-size="10.00">boost/range/size.hpp</text>
</g>
<!-- Node1&#45;&gt;Node27 -->
<g id="edge36" class="edge"><title>Node1&#45;&gt;Node27</title>
<path fill="none" stroke="midnightblue" d="M1061.83,-242.359C1180.89,-238.236 1485.3,-225.867 1749.59,-199.119"/>
<polygon fill="midnightblue" stroke="midnightblue" points="1750.17,-202.578 1759.77,-198.08 1749.46,-195.614 1750.17,-202.578"/>
</g>
<!-- Node3 -->
<g id="node3" class="node"><title>Node3</title>
<polygon fill="white" stroke="#bfbfbf" points="690,-0.5 690,-19.5 779,-19.5 779,-0.5 690,-0.5"/>
<text text-anchor="middle" x="734.5" y="-7.5" font-family="Helvetica,sans-Serif" font-size="10.00">boost/config.hpp</text>
</g>
<!-- Node2&#45;&gt;Node3 -->
<g id="edge2" class="edge"><title>Node2&#45;&gt;Node3</title>
<path fill="none" stroke="midnightblue" d="M734.5,-61.9751C734.5,-53.5803 734.5,-40.4806 734.5,-29.6631"/>
<polygon fill="midnightblue" stroke="midnightblue" points="738,-29.5091 734.5,-19.5091 731,-29.5091 738,-29.5091"/>
</g>
<!-- Node4&#45;&gt;Node2 -->
<g id="edge4" class="edge"><title>Node4&#45;&gt;Node2</title>
<path fill="none" stroke="midnightblue" d="M587.143,-123.475C616.775,-113.225 666.685,-95.9593 700.102,-84.3994"/>
<polygon fill="midnightblue" stroke="midnightblue" points="701.596,-87.5861 709.902,-81.0091 699.308,-80.9707 701.596,-87.5861"/>
</g>
<!-- Node6&#45;&gt;Node2 -->
<g id="edge7" class="edge"><title>Node6&#45;&gt;Node2</title>
<path fill="none" stroke="midnightblue" d="M633.25,-179.106C634.788,-165.677 639.348,-139.993 652.5,-123 665.451,-106.266 685.639,-93.7351 702.742,-85.3414"/>
<polygon fill="midnightblue" stroke="midnightblue" points="704.268,-88.492 711.861,-81.1034 701.318,-82.144 704.268,-88.492"/>
</g>
<!-- Node6&#45;&gt;Node7 -->
<g id="edge8" class="edge"><title>Node6&#45;&gt;Node7</title>
<path fill="none" stroke="midnightblue" d="M644.55,-179.324C655.963,-171.107 673.331,-158.602 686.935,-148.807"/>
<polygon fill="midnightblue" stroke="midnightblue" points="689.16,-151.517 695.231,-142.834 685.07,-145.837 689.16,-151.517"/>
</g>
<!-- Node8&#45;&gt;Node2 -->
<g id="edge11" class="edge"><title>Node8&#45;&gt;Node2</title>
<path fill="none" stroke="midnightblue" d="M782.962,-179.41C779.125,-166.8 771.348,-142.646 762.5,-123 757.428,-111.739 750.753,-99.6201 745.192,-90.0778"/>
<polygon fill="midnightblue" stroke="midnightblue" points="748.037,-88.0136 739.915,-81.2101 742.021,-91.5935 748.037,-88.0136"/>
</g>
<!-- Node9 -->
<g id="node9" class="node"><title>Node9</title>
<g id="a_node9"><a xlink:href="coord_8hpp.html" target="_top" xlink:title="Coordinates classes. ">
<polygon fill="white" stroke="black" points="366,-123.5 366,-142.5 463,-142.5 463,-123.5 366,-123.5"/>
<text text-anchor="middle" x="414.5" y="-130.5" font-family="Helvetica,sans-Serif" font-size="10.00">boost/ui/coord.hpp</text>
</a>
</g>
</g>
<!-- Node8&#45;&gt;Node9 -->
<g id="edge12" class="edge"><title>Node8&#45;&gt;Node9</title>
<path fill="none" stroke="midnightblue" d="M735.85,-180.773C667.912,-170.885 546.158,-153.163 473.602,-142.602"/>
<polygon fill="midnightblue" stroke="midnightblue" points="473.666,-139.075 463.266,-141.098 472.658,-146.002 473.666,-139.075"/>
</g>
<!-- Node8&#45;&gt;Node15 -->
<g id="edge19" class="edge"><title>Node8&#45;&gt;Node15</title>
<path fill="none" stroke="midnightblue" d="M793.591,-179.083C800.655,-171.298 811.088,-159.801 819.649,-150.367"/>
<polygon fill="midnightblue" stroke="midnightblue" points="822.431,-152.509 826.559,-142.751 817.247,-147.805 822.431,-152.509"/>
</g>
<!-- Node9&#45;&gt;Node2 -->
<g id="edge13" class="edge"><title>Node9&#45;&gt;Node2</title>
<path fill="none" stroke="midnightblue" d="M463.278,-124.639C515.856,-116.461 601.908,-102.367 675.5,-87 680.659,-85.9226 686.052,-84.7134 691.391,-83.4648"/>
<polygon fill="midnightblue" stroke="midnightblue" points="692.607,-86.7728 701.516,-81.0397 690.976,-79.9654 692.607,-86.7728"/>
</g>
<!-- Node10 -->
<g id="node10" class="node"><title>Node10</title>
<polygon fill="white" stroke="#bfbfbf" points="411,-62 411,-81 514,-81 514,-62 411,-62"/>
<text text-anchor="middle" x="462.5" y="-69" font-family="Helvetica,sans-Serif" font-size="10.00">boost/geometry.hpp</text>
</g>
<!-- Node9&#45;&gt;Node10 -->
<g id="edge14" class="edge"><title>Node9&#45;&gt;Node10</title>
<path fill="none" stroke="midnightblue" d="M421.377,-123.475C428.649,-114.462 440.295,-100.025 449.341,-88.8118"/>
<polygon fill="midnightblue" stroke="midnightblue" points="452.081,-90.9898 455.636,-81.0091 446.633,-86.5946 452.081,-90.9898"/>
</g>
<!-- Node11 -->
<g id="node11" class="node"><title>Node11</title>
<polygon fill="white" stroke="#bfbfbf" points="532,-56.5 532,-86.5 667,-86.5 667,-56.5 532,-56.5"/>
<text text-anchor="start" x="540" y="-74.5" font-family="Helvetica,sans-Serif" font-size="10.00">boost/geometry/geometries</text>
<text text-anchor="middle" x="599.5" y="-63.5" font-family="Helvetica,sans-Serif" font-size="10.00">/point_xy.hpp</text>
</g>
<!-- Node9&#45;&gt;Node11 -->
<g id="edge15" class="edge"><title>Node9&#45;&gt;Node11</title>
<path fill="none" stroke="midnightblue" d="M441.006,-123.475C468.286,-114.701 511.546,-100.788 545.983,-89.7123"/>
<polygon fill="midnightblue" stroke="midnightblue" points="547.451,-92.9167 555.899,-86.523 545.308,-86.2529 547.451,-92.9167"/>
</g>
<!-- Node12 -->
<g id="node12" class="node"><title>Node12</title>
<polygon fill="white" stroke="#bfbfbf" points="0,-56.5 0,-86.5 135,-86.5 135,-56.5 0,-56.5"/>
<text text-anchor="start" x="8" y="-74.5" font-family="Helvetica,sans-Serif" font-size="10.00">boost/geometry/geometries</text>
<text text-anchor="middle" x="67.5" y="-63.5" font-family="Helvetica,sans-Serif" font-size="10.00">/box.hpp</text>
</g>
<!-- Node9&#45;&gt;Node12 -->
<g id="edge16" class="edge"><title>Node9&#45;&gt;Node12</title>
<path fill="none" stroke="midnightblue" d="M365.975,-124.302C313.769,-115.939 228.046,-101.977 144.892,-87.2264"/>
<polygon fill="midnightblue" stroke="midnightblue" points="145.488,-83.7775 135.029,-85.4709 144.261,-90.6692 145.488,-83.7775"/>
</g>
<!-- Node13 -->
<g id="node13" class="node"><title>Node13</title>
<polygon fill="white" stroke="#bfbfbf" points="153,-56.5 153,-86.5 254,-86.5 254,-56.5 153,-56.5"/>
<text text-anchor="start" x="161" y="-74.5" font-family="Helvetica,sans-Serif" font-size="10.00">boost/polygon/point</text>
<text text-anchor="middle" x="203.5" y="-63.5" font-family="Helvetica,sans-Serif" font-size="10.00">_data.hpp</text>
</g>
<!-- Node9&#45;&gt;Node13 -->
<g id="edge17" class="edge"><title>Node9&#45;&gt;Node13</title>
<path fill="none" stroke="midnightblue" d="M384.269,-123.475C352.754,-114.588 302.542,-100.429 263.026,-89.2859"/>
<polygon fill="midnightblue" stroke="midnightblue" points="263.803,-85.8685 253.229,-86.523 261.903,-92.6057 263.803,-85.8685"/>
</g>
<!-- Node14 -->
<g id="node14" class="node"><title>Node14</title>
<polygon fill="white" stroke="#bfbfbf" points="272.5,-56.5 272.5,-86.5 392.5,-86.5 392.5,-56.5 272.5,-56.5"/>
<text text-anchor="start" x="280.5" y="-74.5" font-family="Helvetica,sans-Serif" font-size="10.00">boost/polygon/rectangle</text>
<text text-anchor="middle" x="332.5" y="-63.5" font-family="Helvetica,sans-Serif" font-size="10.00">_data.hpp</text>
</g>
<!-- Node9&#45;&gt;Node14 -->
<g id="edge18" class="edge"><title>Node9&#45;&gt;Node14</title>
<path fill="none" stroke="midnightblue" d="M402.751,-123.475C391.646,-115.417 374.565,-103.023 360.027,-92.4741"/>
<polygon fill="midnightblue" stroke="midnightblue" points="361.975,-89.5631 351.826,-86.523 357.864,-95.2287 361.975,-89.5631"/>
</g>
<!-- Node17&#45;&gt;Node2 -->
<g id="edge23" class="edge"><title>Node17&#45;&gt;Node2</title>
<path fill="none" stroke="midnightblue" d="M962.079,-179.417C942.56,-166.172 903.24,-140.458 867.5,-123 835.777,-107.504 798.013,-93.5678 770.845,-84.2812"/>
<polygon fill="midnightblue" stroke="midnightblue" points="771.941,-80.957 761.346,-81.0759 769.703,-87.5895 771.941,-80.957"/>
</g>
<!-- Node17&#45;&gt;Node18 -->
<g id="edge24" class="edge"><title>Node17&#45;&gt;Node18</title>
<path fill="none" stroke="midnightblue" d="M972.849,-179.083C971.524,-171.927 969.618,-161.635 967.961,-152.691"/>
<polygon fill="midnightblue" stroke="midnightblue" points="971.383,-151.947 966.121,-142.751 964.5,-153.221 971.383,-151.947"/>
</g>
<!-- Node17&#45;&gt;Node22 -->
<g id="edge29" class="edge"><title>Node17&#45;&gt;Node22</title>
<path fill="none" stroke="midnightblue" d="M994.94,-179.444C1016.17,-170.557 1049.6,-156.563 1073.75,-146.451"/>
<polygon fill="midnightblue" stroke="midnightblue" points="1075.28,-149.606 1083.16,-142.516 1072.58,-143.149 1075.28,-149.606"/>
</g>
<!-- Node18&#45;&gt;Node2 -->
<g id="edge25" class="edge"><title>Node18&#45;&gt;Node2</title>
<path fill="none" stroke="midnightblue" d="M931.547,-123.475C890.898,-112.959 821.713,-95.0615 777.076,-83.5142"/>
<polygon fill="midnightblue" stroke="midnightblue" points="777.95,-80.1252 767.392,-81.0091 776.197,-86.9021 777.95,-80.1252"/>
</g>
<!-- Node19 -->
<g id="node19" class="node"><title>Node19</title>
<polygon fill="white" stroke="#bfbfbf" points="869,-62 869,-81 910,-81 910,-62 869,-62"/>
<text text-anchor="middle" x="889.5" y="-69" font-family="Helvetica,sans-Serif" font-size="10.00">string</text>
</g>
<!-- Node18&#45;&gt;Node19 -->
<g id="edge26" class="edge"><title>Node18&#45;&gt;Node19</title>
<path fill="none" stroke="midnightblue" d="M953.754,-123.475C941.947,-114.108 922.757,-98.8839 908.418,-87.5081"/>
<polygon fill="midnightblue" stroke="midnightblue" points="910.235,-84.4822 900.226,-81.0091 905.885,-89.9661 910.235,-84.4822"/>
</g>
<!-- Node20 -->
<g id="node20" class="node"><title>Node20</title>
<polygon fill="white" stroke="#bfbfbf" points="928,-62 928,-81 1001,-81 1001,-62 928,-62"/>
<text text-anchor="middle" x="964.5" y="-69" font-family="Helvetica,sans-Serif" font-size="10.00">initializer_list</text>
</g>
<!-- Node18&#45;&gt;Node20 -->
<g id="edge27" class="edge"><title>Node18&#45;&gt;Node20</title>
<path fill="none" stroke="midnightblue" d="M964.5,-123.475C964.5,-115.08 964.5,-101.981 964.5,-91.1631"/>
<polygon fill="midnightblue" stroke="midnightblue" points="968,-91.0091 964.5,-81.0091 961,-91.0091 968,-91.0091"/>
</g>
<!-- Node21 -->
<g id="node21" class="node"><title>Node21</title>
<polygon fill="white" stroke="#bfbfbf" points="1019,-62 1019,-81 1078,-81 1078,-62 1019,-62"/>
<text text-anchor="middle" x="1048.5" y="-69" font-family="Helvetica,sans-Serif" font-size="10.00">functional</text>
</g>
<!-- Node18&#45;&gt;Node21 -->
<g id="edge28" class="edge"><title>Node18&#45;&gt;Node21</title>
<path fill="none" stroke="midnightblue" d="M976.535,-123.475C990.008,-113.931 1012.07,-98.3073 1028.22,-86.8683"/>
<polygon fill="midnightblue" stroke="midnightblue" points="1030.35,-89.6454 1036.49,-81.0091 1026.3,-83.9332 1030.35,-89.6454"/>
</g>
</g>
</svg>
