<?xml version="1.0" encoding="UTF-8" standalone="no"?>
<!DOCTYPE svg PUBLIC "-//W3C//DTD SVG 1.1//EN"
 "http://www.w3.org/Graphics/SVG/1.1/DTD/svg11.dtd">
<!-- Generated by graphviz version 2.38.0 (20140413.2041)
 -->
<!-- Title: boost/ui/progressbar.hpp Pages: 1 -->
<svg width="1189pt" height="330pt"
 viewBox="0.00 0.00 1189.00 330.00" xmlns="http://www.w3.org/2000/svg" xmlns:xlink="http://www.w3.org/1999/xlink">
<g id="graph0" class="graph" transform="scale(1 1) rotate(0) translate(4 326)">
<title>boost/ui/progressbar.hpp</title>
<polygon fill="white" stroke="none" points="-4,4 -4,-326 1185,-326 1185,4 -4,4"/>
<!-- Node1 -->
<g id="node1" class="node"><title>Node1</title>
<polygon fill="#bfbfbf" stroke="black" points="573.5,-302.5 573.5,-321.5 697.5,-321.5 697.5,-302.5 573.5,-302.5"/>
<text text-anchor="middle" x="635.5" y="-309.5" font-family="Helvetica,sans-Serif" font-size="10.00">boost/ui/progressbar.hpp</text>
</g>
<!-- Node2 -->
<g id="node2" class="node"><title>Node2</title>
<g id="a_node2"><a xlink:href="config_8hpp.html" target="_top" xlink:title="Configuration options. ">
<polygon fill="white" stroke="black" points="685,-62 685,-81 784,-81 784,-62 685,-62"/>
<text text-anchor="middle" x="734.5" y="-69" font-family="Helvetica,sans-Serif" font-size="10.00">boost/ui/config.hpp</text>
</a>
</g>
</g>
<!-- Node1&#45;&gt;Node2 -->
<g id="edge1" class="edge"><title>Node1&#45;&gt;Node2</title>
<path fill="none" stroke="midnightblue" d="M624.72,-302.488C590.833,-274.723 491.496,-185.019 539.5,-123 540.683,-121.471 633.323,-97.9467 690.473,-83.5515"/>
<polygon fill="midnightblue" stroke="midnightblue" points="691.513,-86.8991 700.356,-81.0641 689.804,-80.1108 691.513,-86.8991"/>
</g>
<!-- Node4 -->
<g id="node4" class="node"><title>Node4</title>
<g id="a_node4"><a xlink:href="widget_8hpp.html" target="_top" xlink:title="Widget class. ">
<polygon fill="white" stroke="black" points="701,-246.5 701,-265.5 802,-265.5 802,-246.5 701,-246.5"/>
<text text-anchor="middle" x="751.5" y="-253.5" font-family="Helvetica,sans-Serif" font-size="10.00">boost/ui/widget.hpp</text>
</a>
</g>
</g>
<!-- Node1&#45;&gt;Node4 -->
<g id="edge3" class="edge"><title>Node1&#45;&gt;Node4</title>
<path fill="none" stroke="midnightblue" d="M653.881,-302.444C672.716,-293.675 702.231,-279.935 723.879,-269.858"/>
<polygon fill="midnightblue" stroke="midnightblue" points="725.617,-272.91 733.205,-265.516 722.662,-266.564 725.617,-272.91"/>
</g>
<!-- Node3 -->
<g id="node3" class="node"><title>Node3</title>
<polygon fill="white" stroke="#bfbfbf" points="690,-0.5 690,-19.5 779,-19.5 779,-0.5 690,-0.5"/>
<text text-anchor="middle" x="734.5" y="-7.5" font-family="Helvetica,sans-Serif" font-size="10.00">boost/config.hpp</text>
</g>
<!-- Node2&#45;&gt;Node3 -->
<g id="edge2" class="edge"><title>Node2&#45;&gt;Node3</title>
<path fill="none" stroke="midnightblue" d="M734.5,-61.9751C734.5,-53.5803 734.5,-40.4806 734.5,-29.6631"/>
<polygon fill="midnightblue" stroke="midnightblue" points="738,-29.5091 734.5,-19.5091 731,-29.5091 738,-29.5091"/>
</g>
<!-- Node4&#45;&gt;Node2 -->
<g id="edge4" class="edge"><title>Node4&#45;&gt;Node2</title>
<path fill="none" stroke="midnightblue" d="M746.37,-246.407C741.442,-237.614 734.34,-223.381 731.5,-210 722.652,-168.308 727.602,-117.907 731.409,-91.2119"/>
<polygon fill="midnightblue" stroke="midnightblue" points="734.87,-91.7322 732.927,-81.317 727.951,-90.6705 734.87,-91.7322"/>
</g>
<!-- Node5 -->
<g id="node5" class="node"><title>Node5</title>
<g id="a_node5"><a xlink:href="coord_8hpp.html" target="_top" xlink:title="Coordinates classes. ">
<polygon fill="white" stroke="black" points="395,-123.5 395,-142.5 492,-142.5 492,-123.5 395,-123.5"/>
<text text-anchor="middle" x="443.5" y="-130.5" font-family="Helvetica,sans-Serif" font-size="10.00">boost/ui/coord.hpp</text>
</a>
</g>
</g>
<!-- Node4&#45;&gt;Node5 -->
<g id="edge5" class="edge"><title>Node4&#45;&gt;Node5</title>
<path fill="none" stroke="midnightblue" d="M705.015,-246.451C669.345,-239.069 619.295,-226.912 577.5,-210 535.326,-192.935 490.033,-164.991 464.388,-148.162"/>
<polygon fill="midnightblue" stroke="midnightblue" points="466.138,-145.122 455.871,-142.505 462.265,-150.953 466.138,-145.122"/>
</g>
<!-- Node11 -->
<g id="node11" class="node"><title>Node11</title>
<g id="a_node11"><a xlink:href="string_8hpp.html" target="_top" xlink:title="String class and operations. ">
<polygon fill="white" stroke="black" points="1019,-123.5 1019,-142.5 1116,-142.5 1116,-123.5 1019,-123.5"/>
<text text-anchor="middle" x="1067.5" y="-130.5" font-family="Helvetica,sans-Serif" font-size="10.00">boost/ui/string.hpp</text>
</a>
</g>
</g>
<!-- Node4&#45;&gt;Node11 -->
<g id="edge12" class="edge"><title>Node4&#45;&gt;Node11</title>
<path fill="none" stroke="midnightblue" d="M802.201,-255.903C886.172,-256.191 1048.46,-251.236 1084.5,-210 1098.63,-193.831 1088.68,-168.471 1079.1,-151.548"/>
<polygon fill="midnightblue" stroke="midnightblue" points="1081.88,-149.396 1073.68,-142.693 1075.91,-153.049 1081.88,-149.396"/>
</g>
<!-- Node15 -->
<g id="node15" class="node"><title>Node15</title>
<g id="a_node15"><a xlink:href="event_8hpp.html" target="_top" xlink:title="Event classes. ">
<polygon fill="white" stroke="black" points="587,-185 587,-204 684,-204 684,-185 587,-185"/>
<text text-anchor="middle" x="635.5" y="-192" font-family="Helvetica,sans-Serif" font-size="10.00">boost/ui/event.hpp</text>
</a>
</g>
</g>
<!-- Node4&#45;&gt;Node15 -->
<g id="edge17" class="edge"><title>Node4&#45;&gt;Node15</title>
<path fill="none" stroke="midnightblue" d="M734.88,-246.475C715.585,-236.578 683.541,-220.142 661.069,-208.615"/>
<polygon fill="midnightblue" stroke="midnightblue" points="662.584,-205.459 652.089,-204.009 659.39,-211.687 662.584,-205.459"/>
</g>
<!-- Node17 -->
<g id="node17" class="node"><title>Node17</title>
<g id="a_node17"><a xlink:href="font_8hpp.html" target="_top" xlink:title="Font class. ">
<polygon fill="white" stroke="black" points="987,-185 987,-204 1076,-204 1076,-185 987,-185"/>
<text text-anchor="middle" x="1031.5" y="-192" font-family="Helvetica,sans-Serif" font-size="10.00">boost/ui/font.hpp</text>
</a>
</g>
</g>
<!-- Node4&#45;&gt;Node17 -->
<g id="edge21" class="edge"><title>Node4&#45;&gt;Node17</title>
<path fill="none" stroke="midnightblue" d="M799.313,-246.425C845.192,-237.974 916.336,-224.285 977.5,-210 981.927,-208.966 986.541,-207.825 991.125,-206.651"/>
<polygon fill="midnightblue" stroke="midnightblue" points="992.244,-209.976 1001.03,-204.057 990.471,-203.205 992.244,-209.976"/>
</g>
<!-- Node19 -->
<g id="node19" class="node"><title>Node19</title>
<g id="a_node19"><a xlink:href="layout_8hpp.html" target="_top" xlink:title="Layout classes. ">
<polygon fill="white" stroke="black" points="741,-185 741,-204 840,-204 840,-185 741,-185"/>
<text text-anchor="middle" x="790.5" y="-192" font-family="Helvetica,sans-Serif" font-size="10.00">boost/ui/layout.hpp</text>
</a>
</g>
</g>
<!-- Node4&#45;&gt;Node19 -->
<g id="edge25" class="edge"><title>Node4&#45;&gt;Node19</title>
<path fill="none" stroke="midnightblue" d="M757.088,-246.475C762.88,-237.638 772.089,-223.589 779.374,-212.475"/>
<polygon fill="midnightblue" stroke="midnightblue" points="782.368,-214.291 784.923,-204.009 776.513,-210.454 782.368,-214.291"/>
</g>
<!-- Node20 -->
<g id="node20" class="node"><title>Node20</title>
<polygon fill="white" stroke="#bfbfbf" points="858.5,-179.5 858.5,-209.5 968.5,-209.5 968.5,-179.5 858.5,-179.5"/>
<text text-anchor="start" x="866.5" y="-197.5" font-family="Helvetica,sans-Serif" font-size="10.00">boost/ui/detail/shared</text>
<text text-anchor="middle" x="913.5" y="-186.5" font-family="Helvetica,sans-Serif" font-size="10.00">_count.hpp</text>
</g>
<!-- Node4&#45;&gt;Node20 -->
<g id="edge27" class="edge"><title>Node4&#45;&gt;Node20</title>
<path fill="none" stroke="midnightblue" d="M774.711,-246.475C798.394,-237.776 835.831,-224.026 865.858,-212.998"/>
<polygon fill="midnightblue" stroke="midnightblue" points="867.14,-216.256 875.32,-209.523 864.726,-209.685 867.14,-216.256"/>
</g>
<!-- Node5&#45;&gt;Node2 -->
<g id="edge6" class="edge"><title>Node5&#45;&gt;Node2</title>
<path fill="none" stroke="midnightblue" d="M491.184,-123.463C538.186,-114.88 611.985,-100.956 675.5,-87 680.522,-85.8965 685.771,-84.6874 690.979,-83.4531"/>
<polygon fill="midnightblue" stroke="midnightblue" points="691.969,-86.8147 700.871,-81.0692 690.329,-80.0095 691.969,-86.8147"/>
</g>
<!-- Node6 -->
<g id="node6" class="node"><title>Node6</title>
<polygon fill="white" stroke="#bfbfbf" points="411,-62 411,-81 514,-81 514,-62 411,-62"/>
<text text-anchor="middle" x="462.5" y="-69" font-family="Helvetica,sans-Serif" font-size="10.00">boost/geometry.hpp</text>
</g>
<!-- Node5&#45;&gt;Node6 -->
<g id="edge7" class="edge"><title>Node5&#45;&gt;Node6</title>
<path fill="none" stroke="midnightblue" d="M446.222,-123.475C448.931,-114.992 453.174,-101.704 456.649,-90.8222"/>
<polygon fill="midnightblue" stroke="midnightblue" points="460.075,-91.5999 459.783,-81.0091 453.407,-89.4705 460.075,-91.5999"/>
</g>
<!-- Node7 -->
<g id="node7" class="node"><title>Node7</title>
<polygon fill="white" stroke="#bfbfbf" points="532,-56.5 532,-86.5 667,-86.5 667,-56.5 532,-56.5"/>
<text text-anchor="start" x="540" y="-74.5" font-family="Helvetica,sans-Serif" font-size="10.00">boost/geometry/geometries</text>
<text text-anchor="middle" x="599.5" y="-63.5" font-family="Helvetica,sans-Serif" font-size="10.00">/point_xy.hpp</text>
</g>
<!-- Node5&#45;&gt;Node7 -->
<g id="edge8" class="edge"><title>Node5&#45;&gt;Node7</title>
<path fill="none" stroke="midnightblue" d="M465.851,-123.475C488.559,-114.814 524.396,-101.145 553.247,-90.1415"/>
<polygon fill="midnightblue" stroke="midnightblue" points="554.638,-93.3569 562.734,-86.523 552.143,-86.8165 554.638,-93.3569"/>
</g>
<!-- Node8 -->
<g id="node8" class="node"><title>Node8</title>
<polygon fill="white" stroke="#bfbfbf" points="0,-56.5 0,-86.5 135,-86.5 135,-56.5 0,-56.5"/>
<text text-anchor="start" x="8" y="-74.5" font-family="Helvetica,sans-Serif" font-size="10.00">boost/geometry/geometries</text>
<text text-anchor="middle" x="67.5" y="-63.5" font-family="Helvetica,sans-Serif" font-size="10.00">/box.hpp</text>
</g>
<!-- Node5&#45;&gt;Node8 -->
<g id="edge9" class="edge"><title>Node5&#45;&gt;Node8</title>
<path fill="none" stroke="midnightblue" d="M394.822,-125.303C337.429,-117.273 238.915,-103.068 144.974,-87.215"/>
<polygon fill="midnightblue" stroke="midnightblue" points="145.465,-83.7483 135.02,-85.5259 144.293,-90.6496 145.465,-83.7483"/>
</g>
<!-- Node9 -->
<g id="node9" class="node"><title>Node9</title>
<polygon fill="white" stroke="#bfbfbf" points="153,-56.5 153,-86.5 254,-86.5 254,-56.5 153,-56.5"/>
<text text-anchor="start" x="161" y="-74.5" font-family="Helvetica,sans-Serif" font-size="10.00">boost/polygon/point</text>
<text text-anchor="middle" x="203.5" y="-63.5" font-family="Helvetica,sans-Serif" font-size="10.00">_data.hpp</text>
</g>
<!-- Node5&#45;&gt;Node9 -->
<g id="edge10" class="edge"><title>Node5&#45;&gt;Node9</title>
<path fill="none" stroke="midnightblue" d="M409.114,-123.475C371.318,-114.105 309.879,-98.8731 263.988,-87.4959"/>
<polygon fill="midnightblue" stroke="midnightblue" points="264.701,-84.0669 254.153,-85.0576 263.017,-90.8612 264.701,-84.0669"/>
</g>
<!-- Node10 -->
<g id="node10" class="node"><title>Node10</title>
<polygon fill="white" stroke="#bfbfbf" points="272.5,-56.5 272.5,-86.5 392.5,-86.5 392.5,-56.5 272.5,-56.5"/>
<text text-anchor="start" x="280.5" y="-74.5" font-family="Helvetica,sans-Serif" font-size="10.00">boost/polygon/rectangle</text>
<text text-anchor="middle" x="332.5" y="-63.5" font-family="Helvetica,sans-Serif" font-size="10.00">_data.hpp</text>
</g>
<!-- Node5&#45;&gt;Node10 -->
<g id="edge11" class="edge"><title>Node5&#45;&gt;Node10</title>
<path fill="none" stroke="midnightblue" d="M427.596,-123.475C412.001,-115.115 387.702,-102.09 367.571,-91.2991"/>
<polygon fill="midnightblue" stroke="midnightblue" points="369.128,-88.1627 358.661,-86.523 365.821,-94.3322 369.128,-88.1627"/>
</g>
<!-- Node11&#45;&gt;Node2 -->
<g id="edge13" class="edge"><title>Node11&#45;&gt;Node2</title>
<path fill="none" stroke="midnightblue" d="M1019.79,-123.475C959.701,-112.739 856.542,-94.3063 792.117,-82.7949"/>
<polygon fill="midnightblue" stroke="midnightblue" points="792.582,-79.3227 782.122,-81.0091 791.351,-86.2135 792.582,-79.3227"/>
</g>
<!-- Node12 -->
<g id="node12" class="node"><title>Node12</title>
<polygon fill="white" stroke="#bfbfbf" points="972,-62 972,-81 1013,-81 1013,-62 972,-62"/>
<text text-anchor="middle" x="992.5" y="-69" font-family="Helvetica,sans-Serif" font-size="10.00">string</text>
</g>
<!-- Node11&#45;&gt;Node12 -->
<g id="edge14" class="edge"><title>Node11&#45;&gt;Node12</title>
<path fill="none" stroke="midnightblue" d="M1056.75,-123.475C1044.95,-114.108 1025.76,-98.8839 1011.42,-87.5081"/>
<polygon fill="midnightblue" stroke="midnightblue" points="1013.24,-84.4822 1003.23,-81.0091 1008.88,-89.9661 1013.24,-84.4822"/>
</g>
<!-- Node13 -->
<g id="node13" class="node"><title>Node13</title>
<polygon fill="white" stroke="#bfbfbf" points="1031,-62 1031,-81 1104,-81 1104,-62 1031,-62"/>
<text text-anchor="middle" x="1067.5" y="-69" font-family="Helvetica,sans-Serif" font-size="10.00">initializer_list</text>
</g>
<!-- Node11&#45;&gt;Node13 -->
<g id="edge15" class="edge"><title>Node11&#45;&gt;Node13</title>
<path fill="none" stroke="midnightblue" d="M1067.5,-123.475C1067.5,-115.08 1067.5,-101.981 1067.5,-91.1631"/>
<polygon fill="midnightblue" stroke="midnightblue" points="1071,-91.0091 1067.5,-81.0091 1064,-91.0091 1071,-91.0091"/>
</g>
<!-- Node14 -->
<g id="node14" class="node"><title>Node14</title>
<polygon fill="white" stroke="#bfbfbf" points="1122,-62 1122,-81 1181,-81 1181,-62 1122,-62"/>
<text text-anchor="middle" x="1151.5" y="-69" font-family="Helvetica,sans-Serif" font-size="10.00">functional</text>
</g>
<!-- Node11&#45;&gt;Node14 -->
<g id="edge16" class="edge"><title>Node11&#45;&gt;Node14</title>
<path fill="none" stroke="midnightblue" d="M1079.54,-123.475C1093.01,-113.931 1115.07,-98.3073 1131.22,-86.8683"/>
<polygon fill="midnightblue" stroke="midnightblue" points="1133.35,-89.6454 1139.49,-81.0091 1129.3,-83.9332 1133.35,-89.6454"/>
</g>
<!-- Node15&#45;&gt;Node2 -->
<g id="edge18" class="edge"><title>Node15&#45;&gt;Node2</title>
<path fill="none" stroke="midnightblue" d="M642.62,-184.798C659.031,-164.74 699.736,-114.989 721.03,-88.9628"/>
<polygon fill="midnightblue" stroke="midnightblue" points="723.821,-91.0791 727.445,-81.1232 718.403,-86.6464 723.821,-91.0791"/>
</g>
<!-- Node15&#45;&gt;Node5 -->
<g id="edge19" class="edge"><title>Node15&#45;&gt;Node5</title>
<path fill="none" stroke="midnightblue" d="M607.991,-184.975C574.629,-174.636 518.238,-157.161 480.937,-145.602"/>
<polygon fill="midnightblue" stroke="midnightblue" points="481.546,-142.126 470.958,-142.509 479.474,-148.812 481.546,-142.126"/>
</g>
<!-- Node16 -->
<g id="node16" class="node"><title>Node16</title>
<polygon fill="white" stroke="#bfbfbf" points="549,-123.5 549,-142.5 646,-142.5 646,-123.5 549,-123.5"/>
<text text-anchor="middle" x="597.5" y="-130.5" font-family="Helvetica,sans-Serif" font-size="10.00">boost/function.hpp</text>
</g>
<!-- Node15&#45;&gt;Node16 -->
<g id="edge20" class="edge"><title>Node15&#45;&gt;Node16</title>
<path fill="none" stroke="midnightblue" d="M630.056,-184.975C624.412,-176.138 615.439,-162.089 608.341,-150.975"/>
<polygon fill="midnightblue" stroke="midnightblue" points="611.267,-149.053 602.934,-142.509 605.367,-152.821 611.267,-149.053"/>
</g>
<!-- Node17&#45;&gt;Node2 -->
<g id="edge22" class="edge"><title>Node17&#45;&gt;Node2</title>
<path fill="none" stroke="midnightblue" d="M1026.7,-184.98C1017.75,-169.907 996.968,-138.656 970.5,-123 916.35,-90.969 844.53,-79.1395 794.399,-74.833"/>
<polygon fill="midnightblue" stroke="midnightblue" points="794.602,-71.3384 784.359,-74.046 794.055,-78.3169 794.602,-71.3384"/>
</g>
<!-- Node17&#45;&gt;Node11 -->
<g id="edge23" class="edge"><title>Node17&#45;&gt;Node11</title>
<path fill="none" stroke="midnightblue" d="M1036.66,-184.975C1041.95,-176.227 1050.34,-162.369 1057.03,-151.309"/>
<polygon fill="midnightblue" stroke="midnightblue" points="1060.17,-152.877 1062.35,-142.509 1054.18,-149.253 1060.17,-152.877"/>
</g>
<!-- Node18 -->
<g id="node18" class="node"><title>Node18</title>
<polygon fill="white" stroke="#bfbfbf" points="817,-123.5 817,-142.5 962,-142.5 962,-123.5 817,-123.5"/>
<text text-anchor="middle" x="889.5" y="-130.5" font-family="Helvetica,sans-Serif" font-size="10.00">boost/core/scoped_enum.hpp</text>
</g>
<!-- Node17&#45;&gt;Node18 -->
<g id="edge24" class="edge"><title>Node17&#45;&gt;Node18</title>
<path fill="none" stroke="midnightblue" d="M1011.15,-184.975C987.113,-174.901 946.903,-158.053 919.337,-146.502"/>
<polygon fill="midnightblue" stroke="midnightblue" points="920.383,-143.146 909.807,-142.509 917.678,-149.602 920.383,-143.146"/>
</g>
<!-- Node19&#45;&gt;Node2 -->
<g id="edge26" class="edge"><title>Node19&#45;&gt;Node2</title>
<path fill="none" stroke="midnightblue" d="M786.473,-184.798C777.351,-165.089 754.961,-116.711 742.757,-90.342"/>
<polygon fill="midnightblue" stroke="midnightblue" points="745.867,-88.7283 738.491,-81.1232 739.515,-91.6684 745.867,-88.7283"/>
</g>
</g>
</svg>
