<?xml version="1.0" encoding="UTF-8" standalone="no"?>
<!DOCTYPE svg PUBLIC "-//W3C//DTD SVG 1.1//EN"
 "http://www.w3.org/Graphics/SVG/1.1/DTD/svg11.dtd">
<!-- Generated by graphviz version 2.43.0 (0)
 -->
<!-- Title: boost/ui/stream.hpp Pages: 1 -->
<svg width="365pt" height="196pt"
 viewBox="0.00 0.00 364.50 196.00" xmlns="http://www.w3.org/2000/svg" xmlns:xlink="http://www.w3.org/1999/xlink">
<g id="graph0" class="graph" transform="scale(1 1) rotate(0) translate(4 192)">
<title>boost/ui/stream.hpp</title>
<polygon fill="white" stroke="transparent" points="-4,4 -4,-192 360.5,-192 360.5,4 -4,4"/>
<!-- Node1 -->
<g id="node1" class="node">
<title>Node1</title>
<g id="a_node1"><a xlink:title="Stream class and manipulators.">
<polygon fill="#bfbfbf" stroke="black" points="54,-168.5 54,-187.5 168,-187.5 168,-168.5 54,-168.5"/>
<text text-anchor="middle" x="111" y="-175.5" font-family="Helvetica,sans-Serif" font-size="10.00">boost/ui/stream.hpp</text>
</a>
</g>
</g>
<!-- Node2 -->
<g id="node2" class="node">
<title>Node2</title>
<g id="a_node2"><a xlink:href="config_8hpp.html" target="_top" xlink:title="Configuration options.">
<polygon fill="white" stroke="black" points="0,-56.5 0,-75.5 110,-75.5 110,-56.5 0,-56.5"/>
<text text-anchor="middle" x="55" y="-63.5" font-family="Helvetica,sans-Serif" font-size="10.00">boost/ui/config.hpp</text>
</a>
</g>
</g>
<!-- Node1&#45;&gt;Node2 -->
<g id="edge1" class="edge">
<title>Node1&#45;&gt;Node2</title>
<path fill="none" stroke="midnightblue" d="M102.17,-168.48C93.81,-159.96 81.47,-146.13 74,-132 66.27,-117.38 61.3,-99.21 58.39,-85.8"/>
<polygon fill="midnightblue" stroke="midnightblue" points="61.79,-84.97 56.41,-75.84 54.93,-86.33 61.79,-84.97"/>
</g>
<!-- Node4 -->
<g id="node4" class="node">
<title>Node4</title>
<g id="a_node4"><a xlink:title=" ">
<polygon fill="white" stroke="#bfbfbf" points="83,-112.5 83,-131.5 139,-131.5 139,-112.5 83,-112.5"/>
<text text-anchor="middle" x="111" y="-119.5" font-family="Helvetica,sans-Serif" font-size="10.00">sstream</text>
</a>
</g>
</g>
<!-- Node1&#45;&gt;Node4 -->
<g id="edge3" class="edge">
<title>Node1&#45;&gt;Node4</title>
<path fill="none" stroke="midnightblue" d="M111,-168.08C111,-161.01 111,-150.86 111,-141.99"/>
<polygon fill="midnightblue" stroke="midnightblue" points="114.5,-141.75 111,-131.75 107.5,-141.75 114.5,-141.75"/>
</g>
<!-- Node5 -->
<g id="node5" class="node">
<title>Node5</title>
<g id="a_node5"><a xlink:href="string_8hpp.html" target="_top" xlink:title="String class and operations.">
<polygon fill="white" stroke="black" points="157.5,-112.5 157.5,-131.5 264.5,-131.5 264.5,-112.5 157.5,-112.5"/>
<text text-anchor="middle" x="211" y="-119.5" font-family="Helvetica,sans-Serif" font-size="10.00">boost/ui/string.hpp</text>
</a>
</g>
</g>
<!-- Node1&#45;&gt;Node5 -->
<g id="edge4" class="edge">
<title>Node1&#45;&gt;Node5</title>
<path fill="none" stroke="midnightblue" d="M127.07,-168.32C142.96,-159.74 167.51,-146.49 185.96,-136.52"/>
<polygon fill="midnightblue" stroke="midnightblue" points="187.84,-139.49 194.97,-131.65 184.51,-133.33 187.84,-139.49"/>
</g>
<!-- Node3 -->
<g id="node3" class="node">
<title>Node3</title>
<g id="a_node3"><a xlink:title=" ">
<polygon fill="white" stroke="#bfbfbf" points="6,-0.5 6,-19.5 104,-19.5 104,-0.5 6,-0.5"/>
<text text-anchor="middle" x="55" y="-7.5" font-family="Helvetica,sans-Serif" font-size="10.00">boost/config.hpp</text>
</a>
</g>
</g>
<!-- Node2&#45;&gt;Node3 -->
<g id="edge2" class="edge">
<title>Node2&#45;&gt;Node3</title>
<path fill="none" stroke="midnightblue" d="M55,-56.08C55,-49.01 55,-38.86 55,-29.99"/>
<polygon fill="midnightblue" stroke="midnightblue" points="58.5,-29.75 55,-19.75 51.5,-29.75 58.5,-29.75"/>
</g>
<!-- Node5&#45;&gt;Node2 -->
<g id="edge5" class="edge">
<title>Node5&#45;&gt;Node2</title>
<path fill="none" stroke="midnightblue" d="M186.28,-112.44C160.15,-103.4 118.74,-89.06 89.42,-78.92"/>
<polygon fill="midnightblue" stroke="midnightblue" points="90.2,-75.48 79.6,-75.52 87.91,-82.1 90.2,-75.48"/>
</g>
<!-- Node6 -->
<g id="node6" class="node">
<title>Node6</title>
<g id="a_node6"><a xlink:title=" ">
<polygon fill="white" stroke="#bfbfbf" points="128,-56.5 128,-75.5 172,-75.5 172,-56.5 128,-56.5"/>
<text text-anchor="middle" x="150" y="-63.5" font-family="Helvetica,sans-Serif" font-size="10.00">string</text>
</a>
</g>
</g>
<!-- Node5&#45;&gt;Node6 -->
<g id="edge6" class="edge">
<title>Node5&#45;&gt;Node6</title>
<path fill="none" stroke="midnightblue" d="M201.2,-112.32C192.18,-104.34 178.59,-92.31 167.68,-82.65"/>
<polygon fill="midnightblue" stroke="midnightblue" points="169.79,-79.84 159.98,-75.83 165.15,-85.08 169.79,-79.84"/>
</g>
<!-- Node7 -->
<g id="node7" class="node">
<title>Node7</title>
<g id="a_node7"><a xlink:title=" ">
<polygon fill="white" stroke="#bfbfbf" points="190.5,-56.5 190.5,-75.5 273.5,-75.5 273.5,-56.5 190.5,-56.5"/>
<text text-anchor="middle" x="232" y="-63.5" font-family="Helvetica,sans-Serif" font-size="10.00">initializer_list</text>
</a>
</g>
</g>
<!-- Node5&#45;&gt;Node7 -->
<g id="edge7" class="edge">
<title>Node5&#45;&gt;Node7</title>
<path fill="none" stroke="midnightblue" d="M214.47,-112.08C217.31,-104.77 221.43,-94.18 224.96,-85.1"/>
<polygon fill="midnightblue" stroke="midnightblue" points="228.23,-86.34 228.6,-75.75 221.71,-83.8 228.23,-86.34"/>
</g>
<!-- Node8 -->
<g id="node8" class="node">
<title>Node8</title>
<g id="a_node8"><a xlink:title=" ">
<polygon fill="white" stroke="#bfbfbf" points="291.5,-56.5 291.5,-75.5 356.5,-75.5 356.5,-56.5 291.5,-56.5"/>
<text text-anchor="middle" x="324" y="-63.5" font-family="Helvetica,sans-Serif" font-size="10.00">functional</text>
</a>
</g>
</g>
<!-- Node5&#45;&gt;Node8 -->
<g id="edge8" class="edge">
<title>Node5&#45;&gt;Node8</title>
<path fill="none" stroke="midnightblue" d="M228.91,-112.44C247.25,-103.68 276.01,-89.94 297.09,-79.86"/>
<polygon fill="midnightblue" stroke="midnightblue" points="298.67,-82.99 306.18,-75.52 295.65,-76.67 298.67,-82.99"/>
</g>
</g>
</svg>
