<?xml version="1.0" encoding="UTF-8" standalone="no"?>
<!DOCTYPE svg PUBLIC "-//W3C//DTD SVG 1.1//EN"
 "http://www.w3.org/Graphics/SVG/1.1/DTD/svg11.dtd">
<!-- Generated by graphviz version 2.38.0 (20140413.2041)
 -->
<!-- Title: boost/ui/string.hpp Pages: 1 -->
<svg width="2431pt" height="252pt"
 viewBox="0.00 0.00 2431.22 252.00" xmlns="http://www.w3.org/2000/svg" xmlns:xlink="http://www.w3.org/1999/xlink">
<g id="graph0" class="graph" transform="scale(1 1) rotate(0) translate(4 248)">
<title>boost/ui/string.hpp</title>
<polygon fill="white" stroke="none" points="-4,4 -4,-248 2427.22,-248 2427.22,4 -4,4"/>
<!-- Node1 -->
<g id="node1" class="node"><title>Node1</title>
<polygon fill="#bfbfbf" stroke="black" points="207.219,-224.5 207.219,-243.5 304.219,-243.5 304.219,-224.5 207.219,-224.5"/>
<text text-anchor="middle" x="255.719" y="-231.5" font-family="Helvetica,sans-Serif" font-size="10.00">boost/ui/string.hpp</text>
</g>
<!-- Node2 -->
<g id="node2" class="node"><title>Node2</title>
<g id="a_node2"><a xlink:href="widget_8hpp.html" target="_top" xlink:title="Widget class. ">
<polygon fill="white" stroke="black" points="989.219,-112.5 989.219,-131.5 1090.22,-131.5 1090.22,-112.5 989.219,-112.5"/>
<text text-anchor="middle" x="1039.72" y="-119.5" font-family="Helvetica,sans-Serif" font-size="10.00">boost/ui/widget.hpp</text>
</a>
</g>
</g>
<!-- Node1&#45;&gt;Node2 -->
<g id="edge1" class="edge"><title>Node1&#45;&gt;Node2</title>
<path fill="none" stroke="midnightblue" d="M241.692,-216.154C231.415,-201.706 221.246,-181.189 233.719,-168 259.735,-140.491 816.291,-127.357 989.04,-123.933"/>
<polygon fill="midnightblue" stroke="midnightblue" points="239.038,-218.445 247.903,-224.247 244.591,-214.183 239.038,-218.445"/>
</g>
<!-- Node8 -->
<g id="node8" class="node"><title>Node8</title>
<g id="a_node8"><a xlink:href="ui_8hpp.html" target="_top" xlink:title="Master Boost.UI file. ">
<polygon fill="white" stroke="black" points="116.719,-0.5 116.719,-19.5 186.719,-19.5 186.719,-0.5 116.719,-0.5"/>
<text text-anchor="middle" x="151.719" y="-7.5" font-family="Helvetica,sans-Serif" font-size="10.00">boost/ui.hpp</text>
</a>
</g>
</g>
<!-- Node1&#45;&gt;Node8 -->
<g id="edge34" class="edge"><title>Node1&#45;&gt;Node8</title>
<path fill="none" stroke="midnightblue" d="M196.891,-230.592C133.574,-224.283 37.5268,-202.863 4.71927,-132 -21.6666,-75.008 72.0879,-35.9616 122.184,-19.6164"/>
<polygon fill="midnightblue" stroke="midnightblue" points="196.872,-234.104 207.145,-231.511 197.497,-227.132 196.872,-234.104"/>
</g>
<!-- Node23 -->
<g id="node23" class="node"><title>Node23</title>
<g id="a_node23"><a xlink:href="string__io_8hpp.html" target="_top" xlink:title="String I/O operations. ">
<polygon fill="white" stroke="black" points="242.719,-168.5 242.719,-187.5 352.719,-187.5 352.719,-168.5 242.719,-168.5"/>
<text text-anchor="middle" x="297.719" y="-175.5" font-family="Helvetica,sans-Serif" font-size="10.00">boost/ui/string_io.hpp</text>
</a>
</g>
</g>
<!-- Node1&#45;&gt;Node23 -->
<g id="edge24" class="edge"><title>Node1&#45;&gt;Node23</title>
<path fill="none" stroke="midnightblue" d="M268.83,-216.144C276.147,-206.736 284.96,-195.405 290.913,-187.751"/>
<polygon fill="midnightblue" stroke="midnightblue" points="266.031,-214.041 262.655,-224.083 271.557,-218.338 266.031,-214.041"/>
</g>
<!-- Node24 -->
<g id="node24" class="node"><title>Node24</title>
<g id="a_node24"><a xlink:href="stream_8hpp.html" target="_top" xlink:title="Stream class and manipulators. ">
<polygon fill="white" stroke="black" points="371.219,-168.5 371.219,-187.5 474.219,-187.5 474.219,-168.5 371.219,-168.5"/>
<text text-anchor="middle" x="422.719" y="-175.5" font-family="Helvetica,sans-Serif" font-size="10.00">boost/ui/stream.hpp</text>
</a>
</g>
</g>
<!-- Node1&#45;&gt;Node24 -->
<g id="edge25" class="edge"><title>Node1&#45;&gt;Node24</title>
<path fill="none" stroke="midnightblue" d="M291.889,-221.304C323.356,-211.129 368.214,-196.625 396.381,-187.516"/>
<polygon fill="midnightblue" stroke="midnightblue" points="290.619,-218.037 282.181,-224.444 292.773,-224.697 290.619,-218.037"/>
</g>
<!-- Node25 -->
<g id="node25" class="node"><title>Node25</title>
<g id="a_node25"><a xlink:href="painter_8hpp.html" target="_top" xlink:title="Painter class. ">
<polygon fill="white" stroke="black" points="13.7193,-112.5 13.7193,-131.5 115.719,-131.5 115.719,-112.5 13.7193,-112.5"/>
<text text-anchor="middle" x="64.7193" y="-119.5" font-family="Helvetica,sans-Serif" font-size="10.00">boost/ui/painter.hpp</text>
</a>
</g>
</g>
<!-- Node1&#45;&gt;Node25 -->
<g id="edge26" class="edge"><title>Node1&#45;&gt;Node25</title>
<path fill="none" stroke="midnightblue" d="M196.6,-230.642C161.02,-226.248 117.08,-215.145 87.7193,-188 71.3709,-172.885 66.6372,-145.421 65.2708,-131.532"/>
<polygon fill="midnightblue" stroke="midnightblue" points="196.55,-234.157 206.869,-231.756 197.305,-227.198 196.55,-234.157"/>
</g>
<!-- Node26 -->
<g id="node26" class="node"><title>Node26</title>
<g id="a_node26"><a xlink:href="message_8hpp.html" target="_top" xlink:title="Display message file. ">
<polygon fill="white" stroke="black" points="492.219,-168.5 492.219,-187.5 605.219,-187.5 605.219,-168.5 492.219,-168.5"/>
<text text-anchor="middle" x="548.719" y="-175.5" font-family="Helvetica,sans-Serif" font-size="10.00">boost/ui/message.hpp</text>
</a>
</g>
</g>
<!-- Node1&#45;&gt;Node26 -->
<g id="edge28" class="edge"><title>Node1&#45;&gt;Node26</title>
<path fill="none" stroke="midnightblue" d="M312.145,-222.601C367.519,-212.395 450.95,-197.019 502.51,-187.516"/>
<polygon fill="midnightblue" stroke="midnightblue" points="311.346,-219.189 302.146,-224.444 312.615,-226.073 311.346,-219.189"/>
</g>
<!-- Node27 -->
<g id="node27" class="node"><title>Node27</title>
<g id="a_node27"><a xlink:href="log_8hpp.html" target="_top" xlink:title="Classes for logging. ">
<polygon fill="white" stroke="black" points="623.719,-168.5 623.719,-187.5 709.719,-187.5 709.719,-168.5 623.719,-168.5"/>
<text text-anchor="middle" x="666.719" y="-175.5" font-family="Helvetica,sans-Serif" font-size="10.00">boost/ui/log.hpp</text>
</a>
</g>
</g>
<!-- Node1&#45;&gt;Node27 -->
<g id="edge29" class="edge"><title>Node1&#45;&gt;Node27</title>
<path fill="none" stroke="midnightblue" d="M314.417,-226.494C385.6,-218.408 509.169,-203.741 614.719,-188 617.619,-187.568 620.606,-187.103 623.614,-186.62"/>
<polygon fill="midnightblue" stroke="midnightblue" points="313.846,-223.036 304.303,-227.639 314.633,-229.992 313.846,-223.036"/>
</g>
<!-- Node28 -->
<g id="node28" class="node"><title>Node28</title>
<g id="a_node28"><a xlink:href="font_8hpp.html" target="_top" xlink:title="Font class. ">
<polygon fill="white" stroke="black" points="97.2193,-168.5 97.2193,-187.5 186.219,-187.5 186.219,-168.5 97.2193,-168.5"/>
<text text-anchor="middle" x="141.719" y="-175.5" font-family="Helvetica,sans-Serif" font-size="10.00">boost/ui/font.hpp</text>
</a>
</g>
</g>
<!-- Node1&#45;&gt;Node28 -->
<g id="edge30" class="edge"><title>Node1&#45;&gt;Node28</title>
<path fill="none" stroke="midnightblue" d="M228.477,-220.096C207.179,-210.007 178.178,-196.27 159.698,-187.516"/>
<polygon fill="midnightblue" stroke="midnightblue" points="227.12,-223.326 237.656,-224.444 230.117,-217 227.12,-223.326"/>
</g>
<!-- Node3 -->
<g id="node3" class="node"><title>Node3</title>
<g id="a_node3"><a xlink:href="web__widget_8hpp.html" target="_top" xlink:title="Web widget. ">
<polygon fill="white" stroke="black" points="1963.22,-56.5 1963.22,-75.5 2088.22,-75.5 2088.22,-56.5 1963.22,-56.5"/>
<text text-anchor="middle" x="2025.72" y="-63.5" font-family="Helvetica,sans-Serif" font-size="10.00">boost/ui/web_widget.hpp</text>
</a>
</g>
</g>
<!-- Node2&#45;&gt;Node3 -->
<g id="edge2" class="edge"><title>Node2&#45;&gt;Node3</title>
<path fill="none" stroke="midnightblue" d="M1100.5,-119.586C1247.34,-115.827 1633,-103.901 1953.72,-76 1956.73,-75.738 1959.81,-75.446 1962.92,-75.1319"/>
<polygon fill="midnightblue" stroke="midnightblue" points="1100.25,-116.091 1090.34,-119.843 1100.43,-123.089 1100.25,-116.091"/>
</g>
<!-- Node4 -->
<g id="node4" class="node"><title>Node4</title>
<g id="a_node4"><a xlink:href="text__box_8hpp.html" target="_top" xlink:title="Text editor widgets. ">
<polygon fill="white" stroke="black" points="2106.72,-56.5 2106.72,-75.5 2216.72,-75.5 2216.72,-56.5 2106.72,-56.5"/>
<text text-anchor="middle" x="2161.72" y="-63.5" font-family="Helvetica,sans-Serif" font-size="10.00">boost/ui/text_box.hpp</text>
</a>
</g>
</g>
<!-- Node2&#45;&gt;Node4 -->
<g id="edge3" class="edge"><title>Node2&#45;&gt;Node4</title>
<path fill="none" stroke="midnightblue" d="M1100.76,-120.477C1263.25,-118.635 1719.71,-110.535 2097.72,-76 2100.62,-75.7346 2103.6,-75.4302 2106.6,-75.0976"/>
<polygon fill="midnightblue" stroke="midnightblue" points="1100.45,-116.98 1090.49,-120.589 1100.53,-123.979 1100.45,-116.98"/>
</g>
<!-- Node5 -->
<g id="node5" class="node"><title>Node5</title>
<g id="a_node5"><a xlink:href="strings__box_8hpp.html" target="_top" xlink:title="Widget with array of strings. ">
<polygon fill="white" stroke="black" points="2235.22,-56.5 2235.22,-75.5 2358.22,-75.5 2358.22,-56.5 2235.22,-56.5"/>
<text text-anchor="middle" x="2296.72" y="-63.5" font-family="Helvetica,sans-Serif" font-size="10.00">boost/ui/strings_box.hpp</text>
</a>
</g>
</g>
<!-- Node2&#45;&gt;Node5 -->
<g id="edge4" class="edge"><title>Node2&#45;&gt;Node5</title>
<path fill="none" stroke="midnightblue" d="M1100.43,-120.584C1275.38,-118.979 1795.59,-111.353 2225.72,-76 2228.82,-75.7456 2231.98,-75.455 2235.18,-75.1377"/>
<polygon fill="midnightblue" stroke="midnightblue" points="1100.36,-117.085 1090.39,-120.673 1100.42,-124.084 1100.36,-117.085"/>
</g>
<!-- Node2&#45;&gt;Node8 -->
<g id="edge23" class="edge"><title>Node2&#45;&gt;Node8</title>
<path fill="none" stroke="midnightblue" d="M978.928,-121.081C795.592,-120.871 256.597,-116.758 189.719,-76 168.734,-63.2111 158.077,-34.151 153.897,-19.6151"/>
<polygon fill="midnightblue" stroke="midnightblue" points="978.936,-124.581 988.939,-121.089 978.942,-117.581 978.936,-124.581"/>
</g>
<!-- Node9 -->
<g id="node9" class="node"><title>Node9</title>
<g id="a_node9"><a xlink:href="slider_8hpp.html" target="_top" xlink:title="Slider widget. ">
<polygon fill="white" stroke="black" points="314.719,-56.5 314.719,-75.5 410.719,-75.5 410.719,-56.5 314.719,-56.5"/>
<text text-anchor="middle" x="362.719" y="-63.5" font-family="Helvetica,sans-Serif" font-size="10.00">boost/ui/slider.hpp</text>
</a>
</g>
</g>
<!-- Node2&#45;&gt;Node9 -->
<g id="edge8" class="edge"><title>Node2&#45;&gt;Node9</title>
<path fill="none" stroke="midnightblue" d="M979.032,-118.23C867.982,-112.797 624.721,-99.204 420.719,-76 417.479,-75.6315 414.143,-75.2145 410.785,-74.7668"/>
<polygon fill="midnightblue" stroke="midnightblue" points="978.883,-121.727 989.04,-118.715 979.222,-114.735 978.883,-121.727"/>
</g>
<!-- Node10 -->
<g id="node10" class="node"><title>Node10</title>
<g id="a_node10"><a xlink:href="progress__bar_8hpp.html" target="_top" xlink:title="Progress bar widget. ">
<polygon fill="white" stroke="black" points="429.219,-56.5 429.219,-75.5 558.219,-75.5 558.219,-56.5 429.219,-56.5"/>
<text text-anchor="middle" x="493.719" y="-63.5" font-family="Helvetica,sans-Serif" font-size="10.00">boost/ui/progress_bar.hpp</text>
</a>
</g>
</g>
<!-- Node2&#45;&gt;Node10 -->
<g id="edge9" class="edge"><title>Node2&#45;&gt;Node10</title>
<path fill="none" stroke="midnightblue" d="M979.02,-115.721C889.112,-107.786 715.271,-92.0037 567.719,-76 564.631,-75.6651 561.472,-75.3138 558.282,-74.9523"/>
<polygon fill="midnightblue" stroke="midnightblue" points="978.766,-119.212 989.034,-116.603 979.38,-112.239 978.766,-119.212"/>
</g>
<!-- Node11 -->
<g id="node11" class="node"><title>Node11</title>
<g id="a_node11"><a xlink:href="panel_8hpp.html" target="_top" xlink:title="Panel widget. ">
<polygon fill="white" stroke="black" points="576.719,-56.5 576.719,-75.5 672.719,-75.5 672.719,-56.5 576.719,-56.5"/>
<text text-anchor="middle" x="624.719" y="-63.5" font-family="Helvetica,sans-Serif" font-size="10.00">boost/ui/panel.hpp</text>
</a>
</g>
</g>
<!-- Node2&#45;&gt;Node11 -->
<g id="edge10" class="edge"><title>Node2&#45;&gt;Node11</title>
<path fill="none" stroke="midnightblue" d="M978.994,-113.881C907.899,-105.422 786.639,-90.6093 682.719,-76 679.49,-75.5461 676.162,-75.065 672.81,-74.5706"/>
<polygon fill="midnightblue" stroke="midnightblue" points="978.768,-117.379 989.111,-115.082 979.594,-110.428 978.768,-117.379"/>
</g>
<!-- Node12 -->
<g id="node12" class="node"><title>Node12</title>
<g id="a_node12"><a xlink:href="notebook_8hpp.html" target="_top" xlink:title="Notebook widget. ">
<polygon fill="white" stroke="black" points="691.219,-56.5 691.219,-75.5 804.219,-75.5 804.219,-56.5 691.219,-56.5"/>
<text text-anchor="middle" x="747.719" y="-63.5" font-family="Helvetica,sans-Serif" font-size="10.00">boost/ui/notebook.hpp</text>
</a>
</g>
</g>
<!-- Node2&#45;&gt;Node12 -->
<g id="edge11" class="edge"><title>Node2&#45;&gt;Node12</title>
<path fill="none" stroke="midnightblue" d="M983.486,-110.601C928.301,-100.395 845.155,-85.0189 793.771,-75.5164"/>
<polygon fill="midnightblue" stroke="midnightblue" points="982.981,-114.067 993.451,-112.444 984.254,-107.183 982.981,-114.067"/>
</g>
<!-- Node13 -->
<g id="node13" class="node"><title>Node13</title>
<g id="a_node13"><a xlink:href="menu_8hpp.html" target="_top" xlink:title="Menu classes. ">
<polygon fill="white" stroke="black" points="199.219,-56.5 199.219,-75.5 296.219,-75.5 296.219,-56.5 199.219,-56.5"/>
<text text-anchor="middle" x="247.719" y="-63.5" font-family="Helvetica,sans-Serif" font-size="10.00">boost/ui/menu.hpp</text>
</a>
</g>
</g>
<!-- Node2&#45;&gt;Node13 -->
<g id="edge12" class="edge"><title>Node2&#45;&gt;Node13</title>
<path fill="none" stroke="midnightblue" d="M978.64,-119.17C852.565,-114.972 554.493,-102.869 305.719,-76 302.68,-75.6717 299.556,-75.2968 296.41,-74.8907"/>
<polygon fill="midnightblue" stroke="midnightblue" points="978.75,-122.676 988.86,-119.506 978.98,-115.68 978.75,-122.676"/>
</g>
<!-- Node14 -->
<g id="node14" class="node"><title>Node14</title>
<g id="a_node14"><a xlink:href="line_8hpp.html" target="_top" xlink:title="line widget ">
<polygon fill="white" stroke="black" points="822.719,-56.5 822.719,-75.5 910.719,-75.5 910.719,-56.5 822.719,-56.5"/>
<text text-anchor="middle" x="866.719" y="-63.5" font-family="Helvetica,sans-Serif" font-size="10.00">boost/ui/line.hpp</text>
</a>
</g>
</g>
<!-- Node2&#45;&gt;Node14 -->
<g id="edge14" class="edge"><title>Node2&#45;&gt;Node14</title>
<path fill="none" stroke="midnightblue" d="M1002.67,-109.436C970.055,-99.2551 923.31,-84.664 894.003,-75.5164"/>
<polygon fill="midnightblue" stroke="midnightblue" points="1001.72,-112.805 1012.31,-112.444 1003.8,-106.123 1001.72,-112.805"/>
</g>
<!-- Node15 -->
<g id="node15" class="node"><title>Node15</title>
<g id="a_node15"><a xlink:href="label_8hpp.html" target="_top" xlink:title="Label widget. ">
<polygon fill="white" stroke="black" points="928.219,-56.5 928.219,-75.5 1021.22,-75.5 1021.22,-56.5 928.219,-56.5"/>
<text text-anchor="middle" x="974.719" y="-63.5" font-family="Helvetica,sans-Serif" font-size="10.00">boost/ui/label.hpp</text>
</a>
</g>
</g>
<!-- Node2&#45;&gt;Node15 -->
<g id="edge15" class="edge"><title>Node2&#45;&gt;Node15</title>
<path fill="none" stroke="midnightblue" d="M1021.45,-105.82C1009.8,-96.1452 995.12,-83.9481 985.353,-75.8339"/>
<polygon fill="midnightblue" stroke="midnightblue" points="1019.35,-108.626 1029.28,-112.324 1023.82,-103.242 1019.35,-108.626"/>
</g>
<!-- Node16 -->
<g id="node16" class="node"><title>Node16</title>
<g id="a_node16"><a xlink:href="image__widget_8hpp.html" target="_top" xlink:title="Image widget. ">
<polygon fill="white" stroke="black" points="1039.22,-56.5 1039.22,-75.5 1172.22,-75.5 1172.22,-56.5 1039.22,-56.5"/>
<text text-anchor="middle" x="1105.72" y="-63.5" font-family="Helvetica,sans-Serif" font-size="10.00">boost/ui/image_widget.hpp</text>
</a>
</g>
</g>
<!-- Node2&#45;&gt;Node16 -->
<g id="edge16" class="edge"><title>Node2&#45;&gt;Node16</title>
<path fill="none" stroke="midnightblue" d="M1058.27,-105.82C1070.1,-96.1452 1085,-83.9481 1094.92,-75.8339"/>
<polygon fill="midnightblue" stroke="midnightblue" points="1055.85,-103.283 1050.32,-112.324 1060.28,-108.7 1055.85,-103.283"/>
</g>
<!-- Node17 -->
<g id="node17" class="node"><title>Node17</title>
<g id="a_node17"><a xlink:href="hyperlink_8hpp.html" target="_top" xlink:title="Hyperlink widget. ">
<polygon fill="white" stroke="black" points="1190.72,-56.5 1190.72,-75.5 1302.72,-75.5 1302.72,-56.5 1190.72,-56.5"/>
<text text-anchor="middle" x="1246.72" y="-63.5" font-family="Helvetica,sans-Serif" font-size="10.00">boost/ui/hyperlink.hpp</text>
</a>
</g>
</g>
<!-- Node2&#45;&gt;Node17 -->
<g id="edge17" class="edge"><title>Node2&#45;&gt;Node17</title>
<path fill="none" stroke="midnightblue" d="M1082.54,-109.829C1121.62,-99.6333 1178.55,-84.7823 1214.07,-75.5164"/>
<polygon fill="midnightblue" stroke="midnightblue" points="1081.31,-106.533 1072.52,-112.444 1083.08,-113.306 1081.31,-106.533"/>
</g>
<!-- Node18 -->
<g id="node18" class="node"><title>Node18</title>
<g id="a_node18"><a xlink:href="group__box_8hpp.html" target="_top" xlink:title="Group box widget. ">
<polygon fill="white" stroke="black" points="1320.72,-56.5 1320.72,-75.5 1438.72,-75.5 1438.72,-56.5 1320.72,-56.5"/>
<text text-anchor="middle" x="1379.72" y="-63.5" font-family="Helvetica,sans-Serif" font-size="10.00">boost/ui/group_box.hpp</text>
</a>
</g>
</g>
<!-- Node2&#45;&gt;Node18 -->
<g id="edge18" class="edge"><title>Node2&#45;&gt;Node18</title>
<path fill="none" stroke="midnightblue" d="M1100.23,-111.39C1164.37,-101.203 1264.7,-85.267 1326.1,-75.5162"/>
<polygon fill="midnightblue" stroke="midnightblue" points="1099.58,-107.949 1090.25,-112.974 1100.68,-114.862 1099.58,-107.949"/>
</g>
<!-- Node19 -->
<g id="node19" class="node"><title>Node19</title>
<g id="a_node19"><a xlink:href="datetime_8hpp.html" target="_top" xlink:title="Date and time pickers. ">
<polygon fill="white" stroke="black" points="1456.72,-56.5 1456.72,-75.5 1566.72,-75.5 1566.72,-56.5 1456.72,-56.5"/>
<text text-anchor="middle" x="1511.72" y="-63.5" font-family="Helvetica,sans-Serif" font-size="10.00">boost/ui/datetime.hpp</text>
</a>
</g>
</g>
<!-- Node2&#45;&gt;Node19 -->
<g id="edge19" class="edge"><title>Node2&#45;&gt;Node19</title>
<path fill="none" stroke="midnightblue" d="M1100.7,-114.848C1180.51,-106.665 1324.73,-91.4269 1447.72,-76 1450.61,-75.6369 1453.58,-75.2548 1456.58,-74.8611"/>
<polygon fill="midnightblue" stroke="midnightblue" points="1099.94,-111.408 1090.34,-115.907 1100.65,-118.372 1099.94,-111.408"/>
</g>
<!-- Node20 -->
<g id="node20" class="node"><title>Node20</title>
<g id="a_node20"><a xlink:href="check__box_8hpp.html" target="_top" xlink:title="Check box widget. ">
<polygon fill="white" stroke="black" points="1584.72,-56.5 1584.72,-75.5 1704.72,-75.5 1704.72,-56.5 1584.72,-56.5"/>
<text text-anchor="middle" x="1644.72" y="-63.5" font-family="Helvetica,sans-Serif" font-size="10.00">boost/ui/check_box.hpp</text>
</a>
</g>
</g>
<!-- Node2&#45;&gt;Node20 -->
<g id="edge20" class="edge"><title>Node2&#45;&gt;Node20</title>
<path fill="none" stroke="midnightblue" d="M1100.58,-116.805C1200.09,-109.741 1403.76,-94.4231 1575.72,-76 1578.6,-75.6911 1581.55,-75.3611 1584.53,-75.0165"/>
<polygon fill="midnightblue" stroke="midnightblue" points="1100.14,-113.327 1090.41,-117.524 1100.64,-120.31 1100.14,-113.327"/>
</g>
<!-- Node21 -->
<g id="node21" class="node"><title>Node21</title>
<g id="a_node21"><a xlink:href="canvas_8hpp.html" target="_top" xlink:title="Canvas widget. ">
<polygon fill="white" stroke="black" points="1722.72,-56.5 1722.72,-75.5 1826.72,-75.5 1826.72,-56.5 1722.72,-56.5"/>
<text text-anchor="middle" x="1774.72" y="-63.5" font-family="Helvetica,sans-Serif" font-size="10.00">boost/ui/canvas.hpp</text>
</a>
</g>
</g>
<!-- Node2&#45;&gt;Node21 -->
<g id="edge21" class="edge"><title>Node2&#45;&gt;Node21</title>
<path fill="none" stroke="midnightblue" d="M1100.88,-118.553C1219.39,-113.451 1488.47,-100.098 1713.72,-76 1716.59,-75.6925 1719.54,-75.3498 1722.51,-74.9827"/>
<polygon fill="midnightblue" stroke="midnightblue" points="1100.41,-115.07 1090.57,-118.993 1100.71,-122.064 1100.41,-115.07"/>
</g>
<!-- Node22 -->
<g id="node22" class="node"><title>Node22</title>
<g id="a_node22"><a xlink:href="button_8hpp.html" target="_top" xlink:title="Button widget. ">
<polygon fill="white" stroke="black" points="1844.72,-56.5 1844.72,-75.5 1944.72,-75.5 1944.72,-56.5 1844.72,-56.5"/>
<text text-anchor="middle" x="1894.72" y="-63.5" font-family="Helvetica,sans-Serif" font-size="10.00">boost/ui/button.hpp</text>
</a>
</g>
</g>
<!-- Node2&#45;&gt;Node22 -->
<g id="edge22" class="edge"><title>Node2&#45;&gt;Node22</title>
<path fill="none" stroke="midnightblue" d="M1100.64,-119.527C1234.13,-115.868 1562.34,-104.513 1835.72,-76 1838.6,-75.699 1841.57,-75.3562 1844.55,-74.9844"/>
<polygon fill="midnightblue" stroke="midnightblue" points="1100.51,-116.029 1090.61,-119.798 1100.7,-123.027 1100.51,-116.029"/>
</g>
<!-- Node6 -->
<g id="node6" class="node"><title>Node6</title>
<g id="a_node6"><a xlink:href="combo__box_8hpp.html" target="_top" xlink:title="Combo box widget. ">
<polygon fill="white" stroke="black" points="2300.22,-0.5 2300.22,-19.5 2423.22,-19.5 2423.22,-0.5 2300.22,-0.5"/>
<text text-anchor="middle" x="2361.72" y="-7.5" font-family="Helvetica,sans-Serif" font-size="10.00">boost/ui/combo_box.hpp</text>
</a>
</g>
</g>
<!-- Node5&#45;&gt;Node6 -->
<g id="edge5" class="edge"><title>Node5&#45;&gt;Node6</title>
<path fill="none" stroke="midnightblue" d="M2314.99,-49.8197C2326.64,-40.1452 2341.32,-27.9481 2351.09,-19.8339"/>
<polygon fill="midnightblue" stroke="midnightblue" points="2312.62,-47.2416 2307.16,-56.324 2317.09,-52.6259 2312.62,-47.2416"/>
</g>
<!-- Node7 -->
<g id="node7" class="node"><title>Node7</title>
<g id="a_node7"><a xlink:href="choice_8hpp.html" target="_top" xlink:title="Choice widget. ">
<polygon fill="white" stroke="black" points="2181.22,-0.5 2181.22,-19.5 2282.22,-19.5 2282.22,-0.5 2181.22,-0.5"/>
<text text-anchor="middle" x="2231.72" y="-7.5" font-family="Helvetica,sans-Serif" font-size="10.00">boost/ui/choice.hpp</text>
</a>
</g>
</g>
<!-- Node5&#45;&gt;Node7 -->
<g id="edge6" class="edge"><title>Node5&#45;&gt;Node7</title>
<path fill="none" stroke="midnightblue" d="M2278.45,-49.8197C2266.8,-40.1452 2252.12,-27.9481 2242.35,-19.8339"/>
<polygon fill="midnightblue" stroke="midnightblue" points="2276.35,-52.6259 2286.28,-56.324 2280.82,-47.2416 2276.35,-52.6259"/>
</g>
<!-- Node5&#45;&gt;Node8 -->
<g id="edge7" class="edge"><title>Node5&#45;&gt;Node8</title>
<path fill="none" stroke="midnightblue" d="M2224.96,-56.0578C1784.65,-24.7575 423.219,-13.079 186.865,-11.2594"/>
<polygon fill="midnightblue" stroke="midnightblue" points="2224.96,-59.5671 2235.19,-56.8009 2225.47,-52.5855 2224.96,-59.5671"/>
</g>
<!-- Node13&#45;&gt;Node8 -->
<g id="edge13" class="edge"><title>Node13&#45;&gt;Node8</title>
<path fill="none" stroke="midnightblue" d="M223.146,-51.1774C205.48,-41.2407 182.207,-28.1492 167.105,-19.6545"/>
<polygon fill="midnightblue" stroke="midnightblue" points="221.864,-54.4718 232.295,-56.324 225.295,-48.3708 221.864,-54.4718"/>
</g>
<!-- Node25&#45;&gt;Node8 -->
<g id="edge27" class="edge"><title>Node25&#45;&gt;Node8</title>
<path fill="none" stroke="midnightblue" d="M77.9492,-104.272C96.7557,-80.4942 130.532,-37.7889 144.924,-19.5914"/>
<polygon fill="midnightblue" stroke="midnightblue" points="75.0043,-102.354 71.546,-112.368 80.4946,-106.696 75.0043,-102.354"/>
</g>
<!-- Node28&#45;&gt;Node2 -->
<g id="edge31" class="edge"><title>Node28&#45;&gt;Node2</title>
<path fill="none" stroke="midnightblue" d="M196.765,-168.427C198.095,-168.277 199.415,-168.134 200.719,-168 498.545,-137.372 858.125,-126.93 988.988,-123.993"/>
<polygon fill="midnightblue" stroke="midnightblue" points="195.931,-165.004 186.438,-169.709 196.793,-171.951 195.931,-165.004"/>
</g>
<!-- Node28&#45;&gt;Node8 -->
<g id="edge33" class="edge"><title>Node28&#45;&gt;Node8</title>
<path fill="none" stroke="midnightblue" d="M142.868,-157.93C145.037,-121.92 149.657,-45.2312 151.203,-19.5681"/>
<polygon fill="midnightblue" stroke="midnightblue" points="139.365,-157.883 142.257,-168.075 146.352,-158.304 139.365,-157.883"/>
</g>
<!-- Node28&#45;&gt;Node25 -->
<g id="edge32" class="edge"><title>Node28&#45;&gt;Node25</title>
<path fill="none" stroke="midnightblue" d="M120.818,-162.342C106.808,-152.517 88.8363,-139.913 77.06,-131.655"/>
<polygon fill="midnightblue" stroke="midnightblue" points="119.151,-165.448 129.348,-168.324 123.17,-159.717 119.151,-165.448"/>
</g>
</g>
</svg>
