<?xml version="1.0" encoding="UTF-8" standalone="no"?>
<!DOCTYPE svg PUBLIC "-//W3C//DTD SVG 1.1//EN"
 "http://www.w3.org/Graphics/SVG/1.1/DTD/svg11.dtd">
<!-- Generated by graphviz version 2.43.0 (0)
 -->
<!-- Title: boost/ui/string.hpp Pages: 1 -->
<svg width="2803pt" height="252pt"
 viewBox="0.00 0.00 2802.51 252.00" xmlns="http://www.w3.org/2000/svg" xmlns:xlink="http://www.w3.org/1999/xlink">
<g id="graph0" class="graph" transform="scale(1 1) rotate(0) translate(4 248)">
<title>boost/ui/string.hpp</title>
<polygon fill="white" stroke="transparent" points="-4,4 -4,-248 2798.51,-248 2798.51,4 -4,4"/>
<!-- Node1 -->
<g id="node1" class="node">
<title>Node1</title>
<g id="a_node1"><a xlink:title="String class and operations.">
<polygon fill="#bfbfbf" stroke="black" points="223.01,-224.5 223.01,-243.5 330.01,-243.5 330.01,-224.5 223.01,-224.5"/>
<text text-anchor="middle" x="276.51" y="-231.5" font-family="Helvetica,sans-Serif" font-size="10.00">boost/ui/string.hpp</text>
</a>
</g>
</g>
<!-- Node2 -->
<g id="node2" class="node">
<title>Node2</title>
<g id="a_node2"><a xlink:href="widget_8hpp.html" target="_top" xlink:title="Widget class.">
<polygon fill="white" stroke="black" points="1151.01,-112.5 1151.01,-131.5 1264.01,-131.5 1264.01,-112.5 1151.01,-112.5"/>
<text text-anchor="middle" x="1207.51" y="-119.5" font-family="Helvetica,sans-Serif" font-size="10.00">boost/ui/widget.hpp</text>
</a>
</g>
</g>
<!-- Node1&#45;&gt;Node2 -->
<g id="edge1" class="edge">
<title>Node1&#45;&gt;Node2</title>
<path fill="none" stroke="midnightblue" d="M261.6,-216.63C250.29,-202.21 238.67,-181.46 251.51,-168 282.67,-135.33 950.2,-125.7 1150.92,-123.53"/>
<polygon fill="midnightblue" stroke="midnightblue" points="258.93,-218.89 268.05,-224.29 264.29,-214.38 258.93,-218.89"/>
</g>
<!-- Node8 -->
<g id="node8" class="node">
<title>Node8</title>
<g id="a_node8"><a xlink:href="ui_8hpp.html" target="_top" xlink:title="Master Boost.UI file.">
<polygon fill="white" stroke="black" points="144.01,-0.5 144.01,-19.5 221.01,-19.5 221.01,-0.5 144.01,-0.5"/>
<text text-anchor="middle" x="182.51" y="-7.5" font-family="Helvetica,sans-Serif" font-size="10.00">boost/ui.hpp</text>
</a>
</g>
</g>
<!-- Node1&#45;&gt;Node8 -->
<g id="edge36" class="edge">
<title>Node1&#45;&gt;Node8</title>
<path fill="none" stroke="midnightblue" d="M212.64,-232C144.77,-226.9 42.27,-206.53 5.51,-132 -25.2,-69.74 82.78,-33.98 143.67,-19.15"/>
<polygon fill="midnightblue" stroke="midnightblue" points="212.6,-235.5 222.8,-232.67 213.06,-228.52 212.6,-235.5"/>
</g>
<!-- Node24 -->
<g id="node24" class="node">
<title>Node24</title>
<g id="a_node24"><a xlink:href="string__io_8hpp.html" target="_top" xlink:title="String I/O operations.">
<polygon fill="white" stroke="black" points="260.51,-168.5 260.51,-187.5 382.51,-187.5 382.51,-168.5 260.51,-168.5"/>
<text text-anchor="middle" x="321.51" y="-175.5" font-family="Helvetica,sans-Serif" font-size="10.00">boost/ui/string_io.hpp</text>
</a>
</g>
</g>
<!-- Node1&#45;&gt;Node24 -->
<g id="edge26" class="edge">
<title>Node1&#45;&gt;Node24</title>
<path fill="none" stroke="midnightblue" d="M290.56,-216.14C298.4,-206.74 307.84,-195.4 314.22,-187.75"/>
<polygon fill="midnightblue" stroke="midnightblue" points="287.65,-214.16 283.94,-224.08 293.03,-218.64 287.65,-214.16"/>
</g>
<!-- Node25 -->
<g id="node25" class="node">
<title>Node25</title>
<g id="a_node25"><a xlink:href="stream_8hpp.html" target="_top" xlink:title="Stream class and manipulators.">
<polygon fill="white" stroke="black" points="400.51,-168.5 400.51,-187.5 514.51,-187.5 514.51,-168.5 400.51,-168.5"/>
<text text-anchor="middle" x="457.51" y="-175.5" font-family="Helvetica,sans-Serif" font-size="10.00">boost/ui/stream.hpp</text>
</a>
</g>
</g>
<!-- Node1&#45;&gt;Node25 -->
<g id="edge27" class="edge">
<title>Node1&#45;&gt;Node25</title>
<path fill="none" stroke="midnightblue" d="M314.83,-221.57C348.97,-211.38 398.17,-196.7 428.96,-187.52"/>
<polygon fill="midnightblue" stroke="midnightblue" points="313.77,-218.23 305.19,-224.44 315.77,-224.94 313.77,-218.23"/>
</g>
<!-- Node26 -->
<g id="node26" class="node">
<title>Node26</title>
<g id="a_node26"><a xlink:href="painter_8hpp.html" target="_top" xlink:title="Painter class.">
<polygon fill="white" stroke="black" points="14.51,-112.5 14.51,-131.5 128.51,-131.5 128.51,-112.5 14.51,-112.5"/>
<text text-anchor="middle" x="71.51" y="-119.5" font-family="Helvetica,sans-Serif" font-size="10.00">boost/ui/painter.hpp</text>
</a>
</g>
</g>
<!-- Node1&#45;&gt;Node26 -->
<g id="edge28" class="edge">
<title>Node1&#45;&gt;Node26</title>
<path fill="none" stroke="midnightblue" d="M212.82,-231.64C174.61,-227.62 127.39,-216.56 95.51,-188 78.84,-173.07 73.73,-145.52 72.17,-131.57"/>
<polygon fill="midnightblue" stroke="midnightblue" points="212.56,-235.13 222.84,-232.56 213.2,-228.16 212.56,-235.13"/>
</g>
<!-- Node27 -->
<g id="node27" class="node">
<title>Node27</title>
<g id="a_node27"><a xlink:href="message_8hpp.html" target="_top" xlink:title="Display message file.">
<polygon fill="white" stroke="black" points="532.51,-168.5 532.51,-187.5 656.51,-187.5 656.51,-168.5 532.51,-168.5"/>
<text text-anchor="middle" x="594.51" y="-175.5" font-family="Helvetica,sans-Serif" font-size="10.00">boost/ui/message.hpp</text>
</a>
</g>
</g>
<!-- Node1&#45;&gt;Node27 -->
<g id="edge30" class="edge">
<title>Node1&#45;&gt;Node27</title>
<path fill="none" stroke="midnightblue" d="M337,-222.73C397.1,-212.52 488.17,-197.06 544.36,-187.52"/>
<polygon fill="midnightblue" stroke="midnightblue" points="336.17,-219.32 326.9,-224.44 337.34,-226.22 336.17,-219.32"/>
</g>
<!-- Node28 -->
<g id="node28" class="node">
<title>Node28</title>
<g id="a_node28"><a xlink:href="log_8hpp.html" target="_top" xlink:title="Classes for logging.">
<polygon fill="white" stroke="black" points="675.01,-168.5 675.01,-187.5 770.01,-187.5 770.01,-168.5 675.01,-168.5"/>
<text text-anchor="middle" x="722.51" y="-175.5" font-family="Helvetica,sans-Serif" font-size="10.00">boost/ui/log.hpp</text>
</a>
</g>
</g>
<!-- Node1&#45;&gt;Node28 -->
<g id="edge31" class="edge">
<title>Node1&#45;&gt;Node28</title>
<path fill="none" stroke="midnightblue" d="M340.12,-226.46C417.23,-218.34 551.09,-203.64 665.51,-188 668.59,-187.58 671.75,-187.13 674.95,-186.66"/>
<polygon fill="midnightblue" stroke="midnightblue" points="339.66,-222.99 330.08,-227.51 340.39,-229.95 339.66,-222.99"/>
</g>
<!-- Node29 -->
<g id="node29" class="node">
<title>Node29</title>
<g id="a_node29"><a xlink:href="font_8hpp.html" target="_top" xlink:title="Font class.">
<polygon fill="white" stroke="black" points="105.01,-168.5 105.01,-187.5 204.01,-187.5 204.01,-168.5 105.01,-168.5"/>
<text text-anchor="middle" x="154.51" y="-175.5" font-family="Helvetica,sans-Serif" font-size="10.00">boost/ui/font.hpp</text>
</a>
</g>
</g>
<!-- Node1&#45;&gt;Node29 -->
<g id="edge32" class="edge">
<title>Node1&#45;&gt;Node29</title>
<path fill="none" stroke="midnightblue" d="M247.97,-220.37C225.12,-210.26 193.71,-196.35 173.75,-187.52"/>
<polygon fill="midnightblue" stroke="midnightblue" points="246.62,-223.6 257.18,-224.44 249.45,-217.2 246.62,-223.6"/>
</g>
<!-- Node3 -->
<g id="node3" class="node">
<title>Node3</title>
<g id="a_node3"><a xlink:href="web__widget_8hpp.html" target="_top" xlink:title="Web widget.">
<polygon fill="white" stroke="black" points="2291.51,-56.5 2291.51,-75.5 2429.51,-75.5 2429.51,-56.5 2291.51,-56.5"/>
<text text-anchor="middle" x="2360.51" y="-63.5" font-family="Helvetica,sans-Serif" font-size="10.00">boost/ui/web_widget.hpp</text>
</a>
</g>
</g>
<!-- Node2&#45;&gt;Node3 -->
<g id="edge2" class="edge">
<title>Node2&#45;&gt;Node3</title>
<path fill="none" stroke="midnightblue" d="M1274.36,-119.9C1443.44,-116.74 1901.74,-105.9 2282.51,-76 2285.36,-75.78 2288.27,-75.53 2291.21,-75.26"/>
<polygon fill="midnightblue" stroke="midnightblue" points="1274.06,-116.4 1264.13,-120.09 1274.19,-123.4 1274.06,-116.4"/>
</g>
<!-- Node4 -->
<g id="node4" class="node">
<title>Node4</title>
<g id="a_node4"><a xlink:href="text__box_8hpp.html" target="_top" xlink:title="Text editor widgets.">
<polygon fill="white" stroke="black" points="2447.51,-56.5 2447.51,-75.5 2569.51,-75.5 2569.51,-56.5 2447.51,-56.5"/>
<text text-anchor="middle" x="2508.51" y="-63.5" font-family="Helvetica,sans-Serif" font-size="10.00">boost/ui/text_box.hpp</text>
</a>
</g>
</g>
<!-- Node2&#45;&gt;Node4 -->
<g id="edge3" class="edge">
<title>Node2&#45;&gt;Node4</title>
<path fill="none" stroke="midnightblue" d="M1274.18,-120.7C1459.27,-119.41 1995.05,-112.54 2438.51,-76 2441.44,-75.76 2444.44,-75.48 2447.46,-75.18"/>
<polygon fill="midnightblue" stroke="midnightblue" points="1274.04,-117.2 1264.06,-120.77 1274.08,-124.2 1274.04,-117.2"/>
</g>
<!-- Node5 -->
<g id="node5" class="node">
<title>Node5</title>
<g id="a_node5"><a xlink:href="strings__box_8hpp.html" target="_top" xlink:title="Widget with array of strings.">
<polygon fill="white" stroke="black" points="2587.51,-56.5 2587.51,-75.5 2723.51,-75.5 2723.51,-56.5 2587.51,-56.5"/>
<text text-anchor="middle" x="2655.51" y="-63.5" font-family="Helvetica,sans-Serif" font-size="10.00">boost/ui/strings_box.hpp</text>
</a>
</g>
</g>
<!-- Node2&#45;&gt;Node5 -->
<g id="edge4" class="edge">
<title>Node2&#45;&gt;Node5</title>
<path fill="none" stroke="midnightblue" d="M1274.36,-120.78C1473.23,-119.71 2078.35,-113.37 2578.51,-76 2581.33,-75.79 2584.2,-75.55 2587.1,-75.3"/>
<polygon fill="midnightblue" stroke="midnightblue" points="1274.06,-117.28 1264.08,-120.84 1274.1,-124.28 1274.06,-117.28"/>
</g>
<!-- Node2&#45;&gt;Node8 -->
<g id="edge25" class="edge">
<title>Node2&#45;&gt;Node8</title>
<path fill="none" stroke="midnightblue" d="M1140.72,-120.13C921.9,-117.02 238.44,-104.99 201.51,-76 184.31,-62.5 182.07,-34.3 182.14,-19.89"/>
<polygon fill="midnightblue" stroke="midnightblue" points="1140.74,-123.63 1150.78,-120.27 1140.83,-116.63 1140.74,-123.63"/>
</g>
<!-- Node9 -->
<g id="node9" class="node">
<title>Node9</title>
<g id="a_node9"><a xlink:href="status__bar_8hpp.html" target="_top" xlink:title="Status bar class.">
<polygon fill="white" stroke="black" points="211.01,-56.5 211.01,-75.5 342.01,-75.5 342.01,-56.5 211.01,-56.5"/>
<text text-anchor="middle" x="276.51" y="-63.5" font-family="Helvetica,sans-Serif" font-size="10.00">boost/ui/status_bar.hpp</text>
</a>
</g>
</g>
<!-- Node2&#45;&gt;Node9 -->
<g id="edge8" class="edge">
<title>Node2&#45;&gt;Node9</title>
<path fill="none" stroke="midnightblue" d="M1140.81,-119.01C996.59,-114.38 645.08,-101.3 351.51,-76 348.51,-75.74 345.43,-75.46 342.33,-75.15"/>
<polygon fill="midnightblue" stroke="midnightblue" points="1140.72,-122.51 1150.83,-119.33 1140.94,-115.52 1140.72,-122.51"/>
</g>
<!-- Node10 -->
<g id="node10" class="node">
<title>Node10</title>
<g id="a_node10"><a xlink:href="slider_8hpp.html" target="_top" xlink:title="Slider widget.">
<polygon fill="white" stroke="black" points="485.01,-56.5 485.01,-75.5 592.01,-75.5 592.01,-56.5 485.01,-56.5"/>
<text text-anchor="middle" x="538.51" y="-63.5" font-family="Helvetica,sans-Serif" font-size="10.00">boost/ui/slider.hpp</text>
</a>
</g>
</g>
<!-- Node2&#45;&gt;Node10 -->
<g id="edge10" class="edge">
<title>Node2&#45;&gt;Node10</title>
<path fill="none" stroke="midnightblue" d="M1140.89,-117.53C1029.17,-111.39 797.04,-97.2 601.51,-76 598.43,-75.67 595.28,-75.3 592.1,-74.91"/>
<polygon fill="midnightblue" stroke="midnightblue" points="1140.82,-121.04 1151,-118.09 1141.21,-114.05 1140.82,-121.04"/>
</g>
<!-- Node11 -->
<g id="node11" class="node">
<title>Node11</title>
<g id="a_node11"><a xlink:href="progress__bar_8hpp.html" target="_top" xlink:title="Progress bar widget.">
<polygon fill="white" stroke="black" points="610.01,-56.5 610.01,-75.5 753.01,-75.5 753.01,-56.5 610.01,-56.5"/>
<text text-anchor="middle" x="681.51" y="-63.5" font-family="Helvetica,sans-Serif" font-size="10.00">boost/ui/progress_bar.hpp</text>
</a>
</g>
</g>
<!-- Node2&#45;&gt;Node11 -->
<g id="edge11" class="edge">
<title>Node2&#45;&gt;Node11</title>
<path fill="none" stroke="midnightblue" d="M1140.94,-114.48C1053.92,-105.9 896.76,-90.25 762.51,-76 759.41,-75.67 756.25,-75.33 753.06,-74.99"/>
<polygon fill="midnightblue" stroke="midnightblue" points="1140.65,-117.96 1150.94,-115.46 1141.33,-111 1140.65,-117.96"/>
</g>
<!-- Node12 -->
<g id="node12" class="node">
<title>Node12</title>
<g id="a_node12"><a xlink:href="panel_8hpp.html" target="_top" xlink:title="Panel widget.">
<polygon fill="white" stroke="black" points="771.01,-56.5 771.01,-75.5 878.01,-75.5 878.01,-56.5 771.01,-56.5"/>
<text text-anchor="middle" x="824.51" y="-63.5" font-family="Helvetica,sans-Serif" font-size="10.00">boost/ui/panel.hpp</text>
</a>
</g>
</g>
<!-- Node2&#45;&gt;Node12 -->
<g id="edge12" class="edge">
<title>Node2&#45;&gt;Node12</title>
<path fill="none" stroke="midnightblue" d="M1140.79,-111.66C1076.05,-102.59 975.04,-88.41 887.51,-76 884.45,-75.57 881.3,-75.12 878.13,-74.67"/>
<polygon fill="midnightblue" stroke="midnightblue" points="1140.47,-115.15 1150.86,-113.07 1141.44,-108.22 1140.47,-115.15"/>
</g>
<!-- Node13 -->
<g id="node13" class="node">
<title>Node13</title>
<g id="a_node13"><a xlink:href="notebook_8hpp.html" target="_top" xlink:title="Notebook widget.">
<polygon fill="white" stroke="black" points="896.01,-56.5 896.01,-75.5 1021.01,-75.5 1021.01,-56.5 896.01,-56.5"/>
<text text-anchor="middle" x="958.51" y="-63.5" font-family="Helvetica,sans-Serif" font-size="10.00">boost/ui/notebook.hpp</text>
</a>
</g>
</g>
<!-- Node2&#45;&gt;Node13 -->
<g id="edge13" class="edge">
<title>Node2&#45;&gt;Node13</title>
<path fill="none" stroke="midnightblue" d="M1158.09,-110.28C1111.03,-100.08 1041.14,-84.92 997.78,-75.52"/>
<polygon fill="midnightblue" stroke="midnightblue" points="1157.54,-113.74 1168.06,-112.44 1159.02,-106.9 1157.54,-113.74"/>
</g>
<!-- Node14 -->
<g id="node14" class="node">
<title>Node14</title>
<g id="a_node14"><a xlink:href="menu_8hpp.html" target="_top" xlink:title="Menu classes.">
<polygon fill="white" stroke="black" points="360.01,-56.5 360.01,-75.5 467.01,-75.5 467.01,-56.5 360.01,-56.5"/>
<text text-anchor="middle" x="413.51" y="-63.5" font-family="Helvetica,sans-Serif" font-size="10.00">boost/ui/menu.hpp</text>
</a>
</g>
</g>
<!-- Node2&#45;&gt;Node14 -->
<g id="edge14" class="edge">
<title>Node2&#45;&gt;Node14</title>
<path fill="none" stroke="midnightblue" d="M1140.89,-118.69C1012.22,-113.84 720.67,-100.91 476.51,-76 473.43,-75.69 470.27,-75.33 467.09,-74.95"/>
<polygon fill="midnightblue" stroke="midnightblue" points="1140.86,-122.19 1150.98,-119.07 1141.12,-115.2 1140.86,-122.19"/>
</g>
<!-- Node15 -->
<g id="node15" class="node">
<title>Node15</title>
<g id="a_node15"><a xlink:href="line_8hpp.html" target="_top" xlink:title="line widget">
<polygon fill="white" stroke="black" points="1039.51,-56.5 1039.51,-75.5 1137.51,-75.5 1137.51,-56.5 1039.51,-56.5"/>
<text text-anchor="middle" x="1088.51" y="-63.5" font-family="Helvetica,sans-Serif" font-size="10.00">boost/ui/line.hpp</text>
</a>
</g>
</g>
<!-- Node2&#45;&gt;Node15 -->
<g id="edge16" class="edge">
<title>Node2&#45;&gt;Node15</title>
<path fill="none" stroke="midnightblue" d="M1179.37,-108.23C1157.11,-98.13 1126.65,-84.31 1107.28,-75.52"/>
<polygon fill="midnightblue" stroke="midnightblue" points="1178.1,-111.5 1188.65,-112.44 1180.99,-105.12 1178.1,-111.5"/>
</g>
<!-- Node16 -->
<g id="node16" class="node">
<title>Node16</title>
<g id="a_node16"><a xlink:href="label_8hpp.html" target="_top" xlink:title="Label widget.">
<polygon fill="white" stroke="black" points="1155.51,-56.5 1155.51,-75.5 1259.51,-75.5 1259.51,-56.5 1155.51,-56.5"/>
<text text-anchor="middle" x="1207.51" y="-63.5" font-family="Helvetica,sans-Serif" font-size="10.00">boost/ui/label.hpp</text>
</a>
</g>
</g>
<!-- Node2&#45;&gt;Node16 -->
<g id="edge17" class="edge">
<title>Node2&#45;&gt;Node16</title>
<path fill="none" stroke="midnightblue" d="M1207.51,-101.8C1207.51,-92.91 1207.51,-82.78 1207.51,-75.75"/>
<polygon fill="midnightblue" stroke="midnightblue" points="1204.01,-102.08 1207.51,-112.08 1211.01,-102.08 1204.01,-102.08"/>
</g>
<!-- Node17 -->
<g id="node17" class="node">
<title>Node17</title>
<g id="a_node17"><a xlink:href="image__widget_8hpp.html" target="_top" xlink:title="Image widget.">
<polygon fill="white" stroke="black" points="1278.01,-56.5 1278.01,-75.5 1427.01,-75.5 1427.01,-56.5 1278.01,-56.5"/>
<text text-anchor="middle" x="1352.51" y="-63.5" font-family="Helvetica,sans-Serif" font-size="10.00">boost/ui/image_widget.hpp</text>
</a>
</g>
</g>
<!-- Node2&#45;&gt;Node17 -->
<g id="edge18" class="edge">
<title>Node2&#45;&gt;Node17</title>
<path fill="none" stroke="midnightblue" d="M1239.99,-108.91C1267.25,-98.75 1305.5,-84.51 1329.64,-75.52"/>
<polygon fill="midnightblue" stroke="midnightblue" points="1238.64,-105.67 1230.49,-112.44 1241.08,-112.23 1238.64,-105.67"/>
</g>
<!-- Node18 -->
<g id="node18" class="node">
<title>Node18</title>
<g id="a_node18"><a xlink:href="hyperlink_8hpp.html" target="_top" xlink:title="Hyperlink widget.">
<polygon fill="white" stroke="black" points="1445.01,-56.5 1445.01,-75.5 1570.01,-75.5 1570.01,-56.5 1445.01,-56.5"/>
<text text-anchor="middle" x="1507.51" y="-63.5" font-family="Helvetica,sans-Serif" font-size="10.00">boost/ui/hyperlink.hpp</text>
</a>
</g>
</g>
<!-- Node2&#45;&gt;Node18 -->
<g id="edge19" class="edge">
<title>Node2&#45;&gt;Node18</title>
<path fill="none" stroke="midnightblue" d="M1264.93,-110.66C1321.63,-100.46 1407.3,-85.04 1460.2,-75.52"/>
<polygon fill="midnightblue" stroke="midnightblue" points="1264.27,-107.23 1255.05,-112.44 1265.51,-114.12 1264.27,-107.23"/>
</g>
<!-- Node19 -->
<g id="node19" class="node">
<title>Node19</title>
<g id="a_node19"><a xlink:href="group__box_8hpp.html" target="_top" xlink:title="Group box widget.">
<polygon fill="white" stroke="black" points="1588.01,-56.5 1588.01,-75.5 1719.01,-75.5 1719.01,-56.5 1588.01,-56.5"/>
<text text-anchor="middle" x="1653.51" y="-63.5" font-family="Helvetica,sans-Serif" font-size="10.00">boost/ui/group_box.hpp</text>
</a>
</g>
</g>
<!-- Node2&#45;&gt;Node19 -->
<g id="edge20" class="edge">
<title>Node2&#45;&gt;Node19</title>
<path fill="none" stroke="midnightblue" d="M1274.41,-112.92C1348.87,-103.92 1472.8,-88.94 1579.51,-76 1582.21,-75.67 1584.96,-75.34 1587.74,-75"/>
<polygon fill="midnightblue" stroke="midnightblue" points="1273.74,-109.48 1264.23,-114.15 1274.58,-116.43 1273.74,-109.48"/>
</g>
<!-- Node20 -->
<g id="node20" class="node">
<title>Node20</title>
<g id="a_node20"><a xlink:href="datetime_8hpp.html" target="_top" xlink:title="Date and time pickers.">
<polygon fill="white" stroke="black" points="1737.51,-56.5 1737.51,-75.5 1861.51,-75.5 1861.51,-56.5 1737.51,-56.5"/>
<text text-anchor="middle" x="1799.51" y="-63.5" font-family="Helvetica,sans-Serif" font-size="10.00">boost/ui/datetime.hpp</text>
</a>
</g>
</g>
<!-- Node2&#45;&gt;Node20 -->
<g id="edge21" class="edge">
<title>Node2&#45;&gt;Node20</title>
<path fill="none" stroke="midnightblue" d="M1274.43,-116.08C1373.67,-108.59 1565.68,-93.35 1728.51,-76 1731.35,-75.7 1734.26,-75.38 1737.19,-75.04"/>
<polygon fill="midnightblue" stroke="midnightblue" points="1273.96,-112.6 1264.25,-116.85 1274.48,-119.59 1273.96,-112.6"/>
</g>
<!-- Node21 -->
<g id="node21" class="node">
<title>Node21</title>
<g id="a_node21"><a xlink:href="check__box_8hpp.html" target="_top" xlink:title="Check box widget.">
<polygon fill="white" stroke="black" points="1880.01,-56.5 1880.01,-75.5 2011.01,-75.5 2011.01,-56.5 1880.01,-56.5"/>
<text text-anchor="middle" x="1945.51" y="-63.5" font-family="Helvetica,sans-Serif" font-size="10.00">boost/ui/check_box.hpp</text>
</a>
</g>
</g>
<!-- Node2&#45;&gt;Node21 -->
<g id="edge22" class="edge">
<title>Node2&#45;&gt;Node21</title>
<path fill="none" stroke="midnightblue" d="M1274.46,-117.6C1394.2,-111.27 1652.87,-96.43 1870.51,-76 1873.51,-75.72 1876.58,-75.41 1879.68,-75.09"/>
<polygon fill="midnightblue" stroke="midnightblue" points="1274.15,-114.11 1264.35,-118.13 1274.52,-121.1 1274.15,-114.11"/>
</g>
<!-- Node22 -->
<g id="node22" class="node">
<title>Node22</title>
<g id="a_node22"><a xlink:href="canvas_8hpp.html" target="_top" xlink:title="Canvas widget.">
<polygon fill="white" stroke="black" points="2029.51,-56.5 2029.51,-75.5 2143.51,-75.5 2143.51,-56.5 2029.51,-56.5"/>
<text text-anchor="middle" x="2086.51" y="-63.5" font-family="Helvetica,sans-Serif" font-size="10.00">boost/ui/canvas.hpp</text>
</a>
</g>
</g>
<!-- Node2&#45;&gt;Node22 -->
<g id="edge23" class="edge">
<title>Node2&#45;&gt;Node22</title>
<path fill="none" stroke="midnightblue" d="M1274.38,-119.12C1413.52,-114.79 1744.23,-102.44 2020.51,-76 2023.39,-75.72 2026.33,-75.42 2029.31,-75.09"/>
<polygon fill="midnightblue" stroke="midnightblue" points="1274.19,-115.62 1264.3,-119.42 1274.41,-122.62 1274.19,-115.62"/>
</g>
<!-- Node23 -->
<g id="node23" class="node">
<title>Node23</title>
<g id="a_node23"><a xlink:href="button_8hpp.html" target="_top" xlink:title="Button widget.">
<polygon fill="white" stroke="black" points="2162.01,-56.5 2162.01,-75.5 2273.01,-75.5 2273.01,-56.5 2162.01,-56.5"/>
<text text-anchor="middle" x="2217.51" y="-63.5" font-family="Helvetica,sans-Serif" font-size="10.00">boost/ui/button.hpp</text>
</a>
</g>
</g>
<!-- Node2&#45;&gt;Node23 -->
<g id="edge24" class="edge">
<title>Node2&#45;&gt;Node23</title>
<path fill="none" stroke="midnightblue" d="M1274.37,-119.88C1429.15,-116.84 1823.97,-106.5 2152.51,-76 2155.57,-75.72 2158.71,-75.39 2161.88,-75.04"/>
<polygon fill="midnightblue" stroke="midnightblue" points="1274.02,-116.39 1264.09,-120.08 1274.15,-123.39 1274.02,-116.39"/>
</g>
<!-- Node6 -->
<g id="node6" class="node">
<title>Node6</title>
<g id="a_node6"><a xlink:href="combo__box_8hpp.html" target="_top" xlink:title="Combo box widget.">
<polygon fill="white" stroke="black" points="2658.51,-0.5 2658.51,-19.5 2794.51,-19.5 2794.51,-0.5 2658.51,-0.5"/>
<text text-anchor="middle" x="2726.51" y="-7.5" font-family="Helvetica,sans-Serif" font-size="10.00">boost/ui/combo_box.hpp</text>
</a>
</g>
</g>
<!-- Node5&#45;&gt;Node6 -->
<g id="edge5" class="edge">
<title>Node5&#45;&gt;Node6</title>
<path fill="none" stroke="midnightblue" d="M2675.1,-50.1C2687.88,-40.38 2704.12,-28.03 2714.9,-19.83"/>
<polygon fill="midnightblue" stroke="midnightblue" points="2672.76,-47.48 2666.92,-56.32 2677,-53.06 2672.76,-47.48"/>
</g>
<!-- Node7 -->
<g id="node7" class="node">
<title>Node7</title>
<g id="a_node7"><a xlink:href="choice_8hpp.html" target="_top" xlink:title="Choice widget.">
<polygon fill="white" stroke="black" points="2529.01,-0.5 2529.01,-19.5 2640.01,-19.5 2640.01,-0.5 2529.01,-0.5"/>
<text text-anchor="middle" x="2584.51" y="-7.5" font-family="Helvetica,sans-Serif" font-size="10.00">boost/ui/choice.hpp</text>
</a>
</g>
</g>
<!-- Node5&#45;&gt;Node7 -->
<g id="edge6" class="edge">
<title>Node5&#45;&gt;Node7</title>
<path fill="none" stroke="midnightblue" d="M2635.92,-50.1C2623.14,-40.38 2606.9,-28.03 2596.13,-19.83"/>
<polygon fill="midnightblue" stroke="midnightblue" points="2634.02,-53.06 2644.1,-56.32 2638.26,-47.48 2634.02,-53.06"/>
</g>
<!-- Node5&#45;&gt;Node8 -->
<g id="edge7" class="edge">
<title>Node5&#45;&gt;Node8</title>
<path fill="none" stroke="midnightblue" d="M2576.81,-55.97C2070.76,-22.98 489.6,-12.73 221.36,-11.21"/>
<polygon fill="midnightblue" stroke="midnightblue" points="2576.9,-59.48 2587.11,-56.65 2577.36,-52.5 2576.9,-59.48"/>
</g>
<!-- Node9&#45;&gt;Node8 -->
<g id="edge9" class="edge">
<title>Node9&#45;&gt;Node8</title>
<path fill="none" stroke="midnightblue" d="M252.45,-51.18C235.15,-41.24 212.36,-28.15 197.58,-19.65"/>
<polygon fill="midnightblue" stroke="midnightblue" points="250.99,-54.38 261.41,-56.32 254.48,-48.31 250.99,-54.38"/>
</g>
<!-- Node14&#45;&gt;Node8 -->
<g id="edge15" class="edge">
<title>Node14&#45;&gt;Node8</title>
<path fill="none" stroke="midnightblue" d="M367.11,-54.15C323.46,-43.95 259,-28.88 218.94,-19.52"/>
<polygon fill="midnightblue" stroke="midnightblue" points="366.37,-57.58 376.91,-56.44 367.97,-50.76 366.37,-57.58"/>
</g>
<!-- Node26&#45;&gt;Node8 -->
<g id="edge29" class="edge">
<title>Node26&#45;&gt;Node8</title>
<path fill="none" stroke="midnightblue" d="M85.62,-104.38C97.25,-90.93 114.41,-71.72 130.51,-56 144.18,-42.65 161.07,-28.41 171.82,-19.61"/>
<polygon fill="midnightblue" stroke="midnightblue" points="82.69,-102.41 78.83,-112.28 88,-106.97 82.69,-102.41"/>
</g>
<!-- Node29&#45;&gt;Node2 -->
<g id="edge33" class="edge">
<title>Node29&#45;&gt;Node2</title>
<path fill="none" stroke="midnightblue" d="M214.06,-168.44C215.56,-168.28 217.04,-168.14 218.51,-168 572.13,-135.16 999.21,-126.02 1150.8,-123.71"/>
<polygon fill="midnightblue" stroke="midnightblue" points="213.62,-164.96 204.07,-169.56 214.4,-171.92 213.62,-164.96"/>
</g>
<!-- Node29&#45;&gt;Node8 -->
<g id="edge35" class="edge">
<title>Node29&#45;&gt;Node8</title>
<path fill="none" stroke="midnightblue" d="M157.73,-157.93C163.8,-121.92 176.74,-45.23 181.06,-19.57"/>
<polygon fill="midnightblue" stroke="midnightblue" points="154.23,-157.63 156.02,-168.08 161.13,-158.8 154.23,-157.63"/>
</g>
<!-- Node29&#45;&gt;Node26 -->
<g id="edge34" class="edge">
<title>Node29&#45;&gt;Node26</title>
<path fill="none" stroke="midnightblue" d="M132.41,-162.62C117.25,-152.76 97.63,-139.99 84.81,-131.65"/>
<polygon fill="midnightblue" stroke="midnightblue" points="130.88,-165.8 141.17,-168.32 134.7,-159.94 130.88,-165.8"/>
</g>
</g>
</svg>
