<?xml version="1.0" encoding="UTF-8" standalone="no"?>
<!DOCTYPE svg PUBLIC "-//W3C//DTD SVG 1.1//EN"
 "http://www.w3.org/Graphics/SVG/1.1/DTD/svg11.dtd">
<!-- Generated by graphviz version 2.38.0 (20140413.2041)
 -->
<!-- Title: boost/ui/string.hpp Pages: 1 -->
<svg width="2568pt" height="252pt"
 viewBox="0.00 0.00 2568.49 252.00" xmlns="http://www.w3.org/2000/svg" xmlns:xlink="http://www.w3.org/1999/xlink">
<g id="graph0" class="graph" transform="scale(1 1) rotate(0) translate(4 248)">
<title>boost/ui/string.hpp</title>
<polygon fill="white" stroke="none" points="-4,4 -4,-248 2564.49,-248 2564.49,4 -4,4"/>
<!-- Node1 -->
<g id="node1" class="node"><title>Node1</title>
<polygon fill="#bfbfbf" stroke="black" points="207.489,-224.5 207.489,-243.5 304.489,-243.5 304.489,-224.5 207.489,-224.5"/>
<text text-anchor="middle" x="255.989" y="-231.5" font-family="Helvetica,sans-Serif" font-size="10.00">boost/ui/string.hpp</text>
</g>
<!-- Node2 -->
<g id="node2" class="node"><title>Node2</title>
<g id="a_node2"><a xlink:href="widget_8hpp.html" target="_top" xlink:title="Widget class. ">
<polygon fill="white" stroke="black" points="1061.49,-112.5 1061.49,-131.5 1162.49,-131.5 1162.49,-112.5 1061.49,-112.5"/>
<text text-anchor="middle" x="1111.99" y="-119.5" font-family="Helvetica,sans-Serif" font-size="10.00">boost/ui/widget.hpp</text>
</a>
</g>
</g>
<!-- Node1&#45;&gt;Node2 -->
<g id="edge1" class="edge"><title>Node1&#45;&gt;Node2</title>
<path fill="none" stroke="midnightblue" d="M241.947,-216.14C231.661,-201.683 221.485,-181.161 233.989,-168 262.62,-137.864 878.476,-126.429 1061.27,-123.692"/>
<polygon fill="midnightblue" stroke="midnightblue" points="239.298,-218.438 248.164,-224.239 244.851,-214.175 239.298,-218.438"/>
</g>
<!-- Node8 -->
<g id="node8" class="node"><title>Node8</title>
<g id="a_node8"><a xlink:href="ui_8hpp.html" target="_top" xlink:title="Master Boost.UI file. ">
<polygon fill="white" stroke="black" points="135.989,-0.5 135.989,-19.5 205.989,-19.5 205.989,-0.5 135.989,-0.5"/>
<text text-anchor="middle" x="170.989" y="-7.5" font-family="Helvetica,sans-Serif" font-size="10.00">boost/ui.hpp</text>
</a>
</g>
</g>
<!-- Node1&#45;&gt;Node8 -->
<g id="edge36" class="edge"><title>Node1&#45;&gt;Node8</title>
<path fill="none" stroke="midnightblue" d="M197.161,-230.592C133.844,-224.283 37.7965,-202.863 4.98897,-132 -23.1045,-71.3196 79.0039,-34.617 135.659,-19.32"/>
<polygon fill="midnightblue" stroke="midnightblue" points="197.142,-234.104 207.415,-231.511 197.767,-227.132 197.142,-234.104"/>
</g>
<!-- Node24 -->
<g id="node24" class="node"><title>Node24</title>
<g id="a_node24"><a xlink:href="string__io_8hpp.html" target="_top" xlink:title="String I/O operations. ">
<polygon fill="white" stroke="black" points="242.989,-168.5 242.989,-187.5 352.989,-187.5 352.989,-168.5 242.989,-168.5"/>
<text text-anchor="middle" x="297.989" y="-175.5" font-family="Helvetica,sans-Serif" font-size="10.00">boost/ui/string_io.hpp</text>
</a>
</g>
</g>
<!-- Node1&#45;&gt;Node24 -->
<g id="edge26" class="edge"><title>Node1&#45;&gt;Node24</title>
<path fill="none" stroke="midnightblue" d="M269.099,-216.144C276.417,-206.736 285.23,-195.405 291.183,-187.751"/>
<polygon fill="midnightblue" stroke="midnightblue" points="266.301,-214.041 262.924,-224.083 271.827,-218.338 266.301,-214.041"/>
</g>
<!-- Node25 -->
<g id="node25" class="node"><title>Node25</title>
<g id="a_node25"><a xlink:href="stream_8hpp.html" target="_top" xlink:title="Stream class and manipulators. ">
<polygon fill="white" stroke="black" points="371.489,-168.5 371.489,-187.5 474.489,-187.5 474.489,-168.5 371.489,-168.5"/>
<text text-anchor="middle" x="422.989" y="-175.5" font-family="Helvetica,sans-Serif" font-size="10.00">boost/ui/stream.hpp</text>
</a>
</g>
</g>
<!-- Node1&#45;&gt;Node25 -->
<g id="edge27" class="edge"><title>Node1&#45;&gt;Node25</title>
<path fill="none" stroke="midnightblue" d="M292.159,-221.304C323.626,-211.129 368.483,-196.625 396.651,-187.516"/>
<polygon fill="midnightblue" stroke="midnightblue" points="290.889,-218.037 282.451,-224.444 293.042,-224.697 290.889,-218.037"/>
</g>
<!-- Node26 -->
<g id="node26" class="node"><title>Node26</title>
<g id="a_node26"><a xlink:href="painter_8hpp.html" target="_top" xlink:title="Painter class. ">
<polygon fill="white" stroke="black" points="13.989,-112.5 13.989,-131.5 115.989,-131.5 115.989,-112.5 13.989,-112.5"/>
<text text-anchor="middle" x="64.989" y="-119.5" font-family="Helvetica,sans-Serif" font-size="10.00">boost/ui/painter.hpp</text>
</a>
</g>
</g>
<!-- Node1&#45;&gt;Node26 -->
<g id="edge28" class="edge"><title>Node1&#45;&gt;Node26</title>
<path fill="none" stroke="midnightblue" d="M196.869,-230.642C161.29,-226.248 117.35,-215.145 87.989,-188 71.6406,-172.885 66.9069,-145.421 65.5405,-131.532"/>
<polygon fill="midnightblue" stroke="midnightblue" points="196.82,-234.157 207.139,-231.756 197.575,-227.198 196.82,-234.157"/>
</g>
<!-- Node27 -->
<g id="node27" class="node"><title>Node27</title>
<g id="a_node27"><a xlink:href="message_8hpp.html" target="_top" xlink:title="Display message file. ">
<polygon fill="white" stroke="black" points="492.489,-168.5 492.489,-187.5 605.489,-187.5 605.489,-168.5 492.489,-168.5"/>
<text text-anchor="middle" x="548.989" y="-175.5" font-family="Helvetica,sans-Serif" font-size="10.00">boost/ui/message.hpp</text>
</a>
</g>
</g>
<!-- Node1&#45;&gt;Node27 -->
<g id="edge30" class="edge"><title>Node1&#45;&gt;Node27</title>
<path fill="none" stroke="midnightblue" d="M312.415,-222.601C367.788,-212.395 451.22,-197.019 502.779,-187.516"/>
<polygon fill="midnightblue" stroke="midnightblue" points="311.616,-219.189 302.416,-224.444 312.884,-226.073 311.616,-219.189"/>
</g>
<!-- Node28 -->
<g id="node28" class="node"><title>Node28</title>
<g id="a_node28"><a xlink:href="log_8hpp.html" target="_top" xlink:title="Classes for logging. ">
<polygon fill="white" stroke="black" points="623.989,-168.5 623.989,-187.5 709.989,-187.5 709.989,-168.5 623.989,-168.5"/>
<text text-anchor="middle" x="666.989" y="-175.5" font-family="Helvetica,sans-Serif" font-size="10.00">boost/ui/log.hpp</text>
</a>
</g>
</g>
<!-- Node1&#45;&gt;Node28 -->
<g id="edge31" class="edge"><title>Node1&#45;&gt;Node28</title>
<path fill="none" stroke="midnightblue" d="M314.687,-226.494C385.87,-218.408 509.438,-203.741 614.989,-188 617.889,-187.568 620.876,-187.103 623.884,-186.62"/>
<polygon fill="midnightblue" stroke="midnightblue" points="314.116,-223.036 304.573,-227.639 314.903,-229.992 314.116,-223.036"/>
</g>
<!-- Node29 -->
<g id="node29" class="node"><title>Node29</title>
<g id="a_node29"><a xlink:href="font_8hpp.html" target="_top" xlink:title="Font class. ">
<polygon fill="white" stroke="black" points="97.489,-168.5 97.489,-187.5 186.489,-187.5 186.489,-168.5 97.489,-168.5"/>
<text text-anchor="middle" x="141.989" y="-175.5" font-family="Helvetica,sans-Serif" font-size="10.00">boost/ui/font.hpp</text>
</a>
</g>
</g>
<!-- Node1&#45;&gt;Node29 -->
<g id="edge32" class="edge"><title>Node1&#45;&gt;Node29</title>
<path fill="none" stroke="midnightblue" d="M228.747,-220.096C207.449,-210.007 178.447,-196.27 159.968,-187.516"/>
<polygon fill="midnightblue" stroke="midnightblue" points="227.39,-223.326 237.925,-224.444 230.386,-217 227.39,-223.326"/>
</g>
<!-- Node3 -->
<g id="node3" class="node"><title>Node3</title>
<g id="a_node3"><a xlink:href="web__widget_8hpp.html" target="_top" xlink:title="Web widget. ">
<polygon fill="white" stroke="black" points="2100.49,-56.5 2100.49,-75.5 2225.49,-75.5 2225.49,-56.5 2100.49,-56.5"/>
<text text-anchor="middle" x="2162.99" y="-63.5" font-family="Helvetica,sans-Serif" font-size="10.00">boost/ui/web_widget.hpp</text>
</a>
</g>
</g>
<!-- Node2&#45;&gt;Node3 -->
<g id="edge2" class="edge"><title>Node2&#45;&gt;Node3</title>
<path fill="none" stroke="midnightblue" d="M1172.7,-119.864C1326.57,-116.626 1744.22,-105.597 2090.99,-76 2094,-75.7429 2097.08,-75.4549 2100.19,-75.144"/>
<polygon fill="midnightblue" stroke="midnightblue" points="1172.45,-116.369 1162.52,-120.075 1172.59,-123.367 1172.45,-116.369"/>
</g>
<!-- Node4 -->
<g id="node4" class="node"><title>Node4</title>
<g id="a_node4"><a xlink:href="text__box_8hpp.html" target="_top" xlink:title="Text editor widgets. ">
<polygon fill="white" stroke="black" points="2243.99,-56.5 2243.99,-75.5 2353.99,-75.5 2353.99,-56.5 2243.99,-56.5"/>
<text text-anchor="middle" x="2298.99" y="-63.5" font-family="Helvetica,sans-Serif" font-size="10.00">boost/ui/text_box.hpp</text>
</a>
</g>
</g>
<!-- Node2&#45;&gt;Node4 -->
<g id="edge3" class="edge"><title>Node2&#45;&gt;Node4</title>
<path fill="none" stroke="midnightblue" d="M1172.95,-120.69C1341.96,-119.369 1830.74,-112.432 2234.99,-76 2237.89,-75.7381 2240.87,-75.4366 2243.87,-75.1063"/>
<polygon fill="midnightblue" stroke="midnightblue" points="1172.73,-117.191 1162.75,-120.765 1172.78,-124.191 1172.73,-117.191"/>
</g>
<!-- Node5 -->
<g id="node5" class="node"><title>Node5</title>
<g id="a_node5"><a xlink:href="strings__box_8hpp.html" target="_top" xlink:title="Widget with array of strings. ">
<polygon fill="white" stroke="black" points="2372.49,-56.5 2372.49,-75.5 2495.49,-75.5 2495.49,-56.5 2372.49,-56.5"/>
<text text-anchor="middle" x="2433.99" y="-63.5" font-family="Helvetica,sans-Serif" font-size="10.00">boost/ui/strings_box.hpp</text>
</a>
</g>
</g>
<!-- Node2&#45;&gt;Node5 -->
<g id="edge4" class="edge"><title>Node2&#45;&gt;Node5</title>
<path fill="none" stroke="midnightblue" d="M1172.87,-120.752C1354.24,-119.597 1906.67,-113.053 2362.99,-76 2366.09,-75.7486 2369.25,-75.4605 2372.45,-75.1452"/>
<polygon fill="midnightblue" stroke="midnightblue" points="1172.71,-117.253 1162.73,-120.814 1172.75,-124.253 1172.71,-117.253"/>
</g>
<!-- Node2&#45;&gt;Node8 -->
<g id="edge25" class="edge"><title>Node2&#45;&gt;Node8</title>
<path fill="none" stroke="midnightblue" d="M1051.25,-119.959C851.212,-116.283 223.814,-102.666 189.989,-76 172.816,-62.4617 170.567,-34.2832 170.622,-19.8853"/>
<polygon fill="midnightblue" stroke="midnightblue" points="1051.23,-123.459 1061.29,-120.142 1051.36,-116.461 1051.23,-123.459"/>
</g>
<!-- Node9 -->
<g id="node9" class="node"><title>Node9</title>
<g id="a_node9"><a xlink:href="status__bar_8hpp.html" target="_top" xlink:title="Status bar class. ">
<polygon fill="white" stroke="black" points="199.489,-56.5 199.489,-75.5 318.489,-75.5 318.489,-56.5 199.489,-56.5"/>
<text text-anchor="middle" x="258.989" y="-63.5" font-family="Helvetica,sans-Serif" font-size="10.00">boost/ui/status_bar.hpp</text>
</a>
</g>
</g>
<!-- Node2&#45;&gt;Node9 -->
<g id="edge8" class="edge"><title>Node2&#45;&gt;Node9</title>
<path fill="none" stroke="midnightblue" d="M1051.15,-119.008C919.203,-114.359 596.935,-101.225 327.989,-76 324.982,-75.718 321.904,-75.4052 318.798,-75.0704"/>
<polygon fill="midnightblue" stroke="midnightblue" points="1051.33,-122.517 1061.45,-119.367 1051.58,-115.521 1051.33,-122.517"/>
</g>
<!-- Node10 -->
<g id="node10" class="node"><title>Node10</title>
<g id="a_node10"><a xlink:href="slider_8hpp.html" target="_top" xlink:title="Slider widget. ">
<polygon fill="white" stroke="black" points="451.989,-56.5 451.989,-75.5 547.989,-75.5 547.989,-56.5 451.989,-56.5"/>
<text text-anchor="middle" x="499.989" y="-63.5" font-family="Helvetica,sans-Serif" font-size="10.00">boost/ui/slider.hpp</text>
</a>
</g>
</g>
<!-- Node2&#45;&gt;Node10 -->
<g id="edge10" class="edge"><title>Node2&#45;&gt;Node10</title>
<path fill="none" stroke="midnightblue" d="M1051.33,-117.525C949.268,-111.352 736.804,-97.1074 557.989,-76 554.751,-75.6177 551.416,-75.1904 548.059,-74.7353"/>
<polygon fill="midnightblue" stroke="midnightblue" points="1051.26,-121.027 1061.45,-118.132 1051.68,-114.039 1051.26,-121.027"/>
</g>
<!-- Node11 -->
<g id="node11" class="node"><title>Node11</title>
<g id="a_node11"><a xlink:href="progress__bar_8hpp.html" target="_top" xlink:title="Progress bar widget. ">
<polygon fill="white" stroke="black" points="566.489,-56.5 566.489,-75.5 695.489,-75.5 695.489,-56.5 566.489,-56.5"/>
<text text-anchor="middle" x="630.989" y="-63.5" font-family="Helvetica,sans-Serif" font-size="10.00">boost/ui/progress_bar.hpp</text>
</a>
</g>
</g>
<!-- Node2&#45;&gt;Node11 -->
<g id="edge11" class="edge"><title>Node2&#45;&gt;Node11</title>
<path fill="none" stroke="midnightblue" d="M1050.88,-114.453C971.234,-105.873 827.65,-90.2397 704.989,-76 701.904,-75.6418 698.746,-75.2717 695.558,-74.895"/>
<polygon fill="midnightblue" stroke="midnightblue" points="1050.89,-117.975 1061.21,-115.565 1051.64,-111.015 1050.89,-117.975"/>
</g>
<!-- Node12 -->
<g id="node12" class="node"><title>Node12</title>
<g id="a_node12"><a xlink:href="panel_8hpp.html" target="_top" xlink:title="Panel widget. ">
<polygon fill="white" stroke="black" points="713.989,-56.5 713.989,-75.5 809.989,-75.5 809.989,-56.5 713.989,-56.5"/>
<text text-anchor="middle" x="761.989" y="-63.5" font-family="Helvetica,sans-Serif" font-size="10.00">boost/ui/panel.hpp</text>
</a>
</g>
</g>
<!-- Node2&#45;&gt;Node12 -->
<g id="edge12" class="edge"><title>Node2&#45;&gt;Node12</title>
<path fill="none" stroke="midnightblue" d="M1051.44,-111.687C992.382,-102.6 900.012,-88.3749 819.989,-76 816.766,-75.5017 813.443,-74.9873 810.095,-74.4687"/>
<polygon fill="midnightblue" stroke="midnightblue" points="1050.93,-115.15 1061.35,-113.212 1051.99,-108.232 1050.93,-115.15"/>
</g>
<!-- Node13 -->
<g id="node13" class="node"><title>Node13</title>
<g id="a_node13"><a xlink:href="notebook_8hpp.html" target="_top" xlink:title="Notebook widget. ">
<polygon fill="white" stroke="black" points="828.489,-56.5 828.489,-75.5 941.489,-75.5 941.489,-56.5 828.489,-56.5"/>
<text text-anchor="middle" x="884.989" y="-63.5" font-family="Helvetica,sans-Serif" font-size="10.00">boost/ui/notebook.hpp</text>
</a>
</g>
</g>
<!-- Node2&#45;&gt;Node13 -->
<g id="edge13" class="edge"><title>Node2&#45;&gt;Node13</title>
<path fill="none" stroke="midnightblue" d="M1066.12,-110.088C1023.23,-99.8865 960.072,-84.8612 920.79,-75.5164"/>
<polygon fill="midnightblue" stroke="midnightblue" points="1065.48,-113.534 1076.02,-112.444 1067.1,-106.724 1065.48,-113.534"/>
</g>
<!-- Node14 -->
<g id="node14" class="node"><title>Node14</title>
<g id="a_node14"><a xlink:href="menu_8hpp.html" target="_top" xlink:title="Menu classes. ">
<polygon fill="white" stroke="black" points="336.489,-56.5 336.489,-75.5 433.489,-75.5 433.489,-56.5 336.489,-56.5"/>
<text text-anchor="middle" x="384.989" y="-63.5" font-family="Helvetica,sans-Serif" font-size="10.00">boost/ui/menu.hpp</text>
</a>
</g>
</g>
<!-- Node2&#45;&gt;Node14 -->
<g id="edge14" class="edge"><title>Node2&#45;&gt;Node14</title>
<path fill="none" stroke="midnightblue" d="M1050.82,-118.663C932.934,-113.767 666.201,-100.778 442.989,-76 439.951,-75.6627 436.828,-75.2809 433.682,-74.8696"/>
<polygon fill="midnightblue" stroke="midnightblue" points="1050.95,-122.172 1061.08,-119.085 1051.23,-115.177 1050.95,-122.172"/>
</g>
<!-- Node15 -->
<g id="node15" class="node"><title>Node15</title>
<g id="a_node15"><a xlink:href="line_8hpp.html" target="_top" xlink:title="line widget ">
<polygon fill="white" stroke="black" points="959.989,-56.5 959.989,-75.5 1047.99,-75.5 1047.99,-56.5 959.989,-56.5"/>
<text text-anchor="middle" x="1003.99" y="-63.5" font-family="Helvetica,sans-Serif" font-size="10.00">boost/ui/line.hpp</text>
</a>
</g>
</g>
<!-- Node2&#45;&gt;Node15 -->
<g id="edge16" class="edge"><title>Node2&#45;&gt;Node15</title>
<path fill="none" stroke="midnightblue" d="M1085.44,-107.726C1065.44,-97.7271 1038.6,-84.3065 1021.3,-75.6545"/>
<polygon fill="midnightblue" stroke="midnightblue" points="1084.13,-110.982 1094.64,-112.324 1087.26,-104.721 1084.13,-110.982"/>
</g>
<!-- Node16 -->
<g id="node16" class="node"><title>Node16</title>
<g id="a_node16"><a xlink:href="label_8hpp.html" target="_top" xlink:title="Label widget. ">
<polygon fill="white" stroke="black" points="1065.49,-56.5 1065.49,-75.5 1158.49,-75.5 1158.49,-56.5 1065.49,-56.5"/>
<text text-anchor="middle" x="1111.99" y="-63.5" font-family="Helvetica,sans-Serif" font-size="10.00">boost/ui/label.hpp</text>
</a>
</g>
</g>
<!-- Node2&#45;&gt;Node16 -->
<g id="edge17" class="edge"><title>Node2&#45;&gt;Node16</title>
<path fill="none" stroke="midnightblue" d="M1111.99,-101.805C1111.99,-92.9102 1111.99,-82.7798 1111.99,-75.7511"/>
<polygon fill="midnightblue" stroke="midnightblue" points="1108.49,-102.083 1111.99,-112.083 1115.49,-102.083 1108.49,-102.083"/>
</g>
<!-- Node17 -->
<g id="node17" class="node"><title>Node17</title>
<g id="a_node17"><a xlink:href="image__widget_8hpp.html" target="_top" xlink:title="Image widget. ">
<polygon fill="white" stroke="black" points="1176.49,-56.5 1176.49,-75.5 1309.49,-75.5 1309.49,-56.5 1176.49,-56.5"/>
<text text-anchor="middle" x="1242.99" y="-63.5" font-family="Helvetica,sans-Serif" font-size="10.00">boost/ui/image_widget.hpp</text>
</a>
</g>
</g>
<!-- Node2&#45;&gt;Node17 -->
<g id="edge18" class="edge"><title>Node2&#45;&gt;Node17</title>
<path fill="none" stroke="midnightblue" d="M1142.31,-108.503C1166.86,-98.3795 1200.81,-84.388 1222.33,-75.5164"/>
<polygon fill="midnightblue" stroke="midnightblue" points="1140.66,-105.397 1132.75,-112.444 1143.33,-111.868 1140.66,-105.397"/>
</g>
<!-- Node18 -->
<g id="node18" class="node"><title>Node18</title>
<g id="a_node18"><a xlink:href="hyperlink_8hpp.html" target="_top" xlink:title="Hyperlink widget. ">
<polygon fill="white" stroke="black" points="1327.99,-56.5 1327.99,-75.5 1439.99,-75.5 1439.99,-56.5 1327.99,-56.5"/>
<text text-anchor="middle" x="1383.99" y="-63.5" font-family="Helvetica,sans-Serif" font-size="10.00">boost/ui/hyperlink.hpp</text>
</a>
</g>
</g>
<!-- Node2&#45;&gt;Node18 -->
<g id="edge19" class="edge"><title>Node2&#45;&gt;Node18</title>
<path fill="none" stroke="midnightblue" d="M1165.01,-110.473C1216.42,-100.268 1293.43,-84.9794 1341.09,-75.5164"/>
<polygon fill="midnightblue" stroke="midnightblue" points="1164.22,-107.063 1155.09,-112.444 1165.58,-113.929 1164.22,-107.063"/>
</g>
<!-- Node19 -->
<g id="node19" class="node"><title>Node19</title>
<g id="a_node19"><a xlink:href="group__box_8hpp.html" target="_top" xlink:title="Group box widget. ">
<polygon fill="white" stroke="black" points="1457.99,-56.5 1457.99,-75.5 1575.99,-75.5 1575.99,-56.5 1457.99,-56.5"/>
<text text-anchor="middle" x="1516.99" y="-63.5" font-family="Helvetica,sans-Serif" font-size="10.00">boost/ui/group_box.hpp</text>
</a>
</g>
</g>
<!-- Node2&#45;&gt;Node19 -->
<g id="edge20" class="edge"><title>Node2&#45;&gt;Node19</title>
<path fill="none" stroke="midnightblue" d="M1172.9,-112.878C1249.91,-102.61 1381.6,-85.0524 1457.78,-74.8941"/>
<polygon fill="midnightblue" stroke="midnightblue" points="1172.32,-109.425 1162.87,-114.216 1173.25,-116.363 1172.32,-109.425"/>
</g>
<!-- Node20 -->
<g id="node20" class="node"><title>Node20</title>
<g id="a_node20"><a xlink:href="datetime_8hpp.html" target="_top" xlink:title="Date and time pickers. ">
<polygon fill="white" stroke="black" points="1593.99,-56.5 1593.99,-75.5 1703.99,-75.5 1703.99,-56.5 1593.99,-56.5"/>
<text text-anchor="middle" x="1648.99" y="-63.5" font-family="Helvetica,sans-Serif" font-size="10.00">boost/ui/datetime.hpp</text>
</a>
</g>
</g>
<!-- Node2&#45;&gt;Node20 -->
<g id="edge21" class="edge"><title>Node2&#45;&gt;Node20</title>
<path fill="none" stroke="midnightblue" d="M1172.86,-116.088C1263.01,-108.614 1437.28,-93.403 1584.99,-76 1587.89,-75.6586 1590.86,-75.2938 1593.85,-74.9137"/>
<polygon fill="midnightblue" stroke="midnightblue" points="1172.49,-112.606 1162.82,-116.917 1173.07,-119.582 1172.49,-112.606"/>
</g>
<!-- Node21 -->
<g id="node21" class="node"><title>Node21</title>
<g id="a_node21"><a xlink:href="check__box_8hpp.html" target="_top" xlink:title="Check box widget. ">
<polygon fill="white" stroke="black" points="1721.99,-56.5 1721.99,-75.5 1841.99,-75.5 1841.99,-56.5 1721.99,-56.5"/>
<text text-anchor="middle" x="1781.99" y="-63.5" font-family="Helvetica,sans-Serif" font-size="10.00">boost/ui/check_box.hpp</text>
</a>
</g>
</g>
<!-- Node2&#45;&gt;Node21 -->
<g id="edge22" class="edge"><title>Node2&#45;&gt;Node21</title>
<path fill="none" stroke="midnightblue" d="M1172.84,-117.553C1281.47,-111.152 1515.86,-96.2209 1712.99,-76 1715.87,-75.7041 1718.82,-75.3847 1721.8,-75.0486"/>
<polygon fill="midnightblue" stroke="midnightblue" points="1172.51,-114.066 1162.73,-118.145 1172.92,-121.054 1172.51,-114.066"/>
</g>
<!-- Node22 -->
<g id="node22" class="node"><title>Node22</title>
<g id="a_node22"><a xlink:href="canvas_8hpp.html" target="_top" xlink:title="Canvas widget. ">
<polygon fill="white" stroke="black" points="1859.99,-56.5 1859.99,-75.5 1963.99,-75.5 1963.99,-56.5 1859.99,-56.5"/>
<text text-anchor="middle" x="1911.99" y="-63.5" font-family="Helvetica,sans-Serif" font-size="10.00">boost/ui/canvas.hpp</text>
</a>
</g>
</g>
<!-- Node2&#45;&gt;Node22 -->
<g id="edge23" class="edge"><title>Node2&#45;&gt;Node22</title>
<path fill="none" stroke="midnightblue" d="M1173,-119.054C1299.63,-114.627 1600.11,-102.097 1850.99,-76 1853.86,-75.701 1856.81,-75.3649 1859.78,-75.0029"/>
<polygon fill="midnightblue" stroke="midnightblue" points="1172.61,-115.566 1162.73,-119.409 1172.85,-122.561 1172.61,-115.566"/>
</g>
<!-- Node23 -->
<g id="node23" class="node"><title>Node23</title>
<g id="a_node23"><a xlink:href="button_8hpp.html" target="_top" xlink:title="Button widget. ">
<polygon fill="white" stroke="black" points="1981.99,-56.5 1981.99,-75.5 2081.99,-75.5 2081.99,-56.5 1981.99,-56.5"/>
<text text-anchor="middle" x="2031.99" y="-63.5" font-family="Helvetica,sans-Serif" font-size="10.00">boost/ui/button.hpp</text>
</a>
</g>
</g>
<!-- Node2&#45;&gt;Node23 -->
<g id="edge24" class="edge"><title>Node2&#45;&gt;Node23</title>
<path fill="none" stroke="midnightblue" d="M1172.75,-119.894C1313.71,-116.875 1673.73,-106.569 1972.99,-76 1975.88,-75.7052 1978.84,-75.3672 1981.82,-74.999"/>
<polygon fill="midnightblue" stroke="midnightblue" points="1172.51,-116.398 1162.59,-120.107 1172.66,-123.396 1172.51,-116.398"/>
</g>
<!-- Node6 -->
<g id="node6" class="node"><title>Node6</title>
<g id="a_node6"><a xlink:href="combo__box_8hpp.html" target="_top" xlink:title="Combo box widget. ">
<polygon fill="white" stroke="black" points="2437.49,-0.5 2437.49,-19.5 2560.49,-19.5 2560.49,-0.5 2437.49,-0.5"/>
<text text-anchor="middle" x="2498.99" y="-7.5" font-family="Helvetica,sans-Serif" font-size="10.00">boost/ui/combo_box.hpp</text>
</a>
</g>
</g>
<!-- Node5&#45;&gt;Node6 -->
<g id="edge5" class="edge"><title>Node5&#45;&gt;Node6</title>
<path fill="none" stroke="midnightblue" d="M2452.26,-49.8197C2463.91,-40.1452 2478.59,-27.9481 2488.36,-19.8339"/>
<polygon fill="midnightblue" stroke="midnightblue" points="2449.89,-47.2416 2444.43,-56.324 2454.36,-52.6259 2449.89,-47.2416"/>
</g>
<!-- Node7 -->
<g id="node7" class="node"><title>Node7</title>
<g id="a_node7"><a xlink:href="choice_8hpp.html" target="_top" xlink:title="Choice widget. ">
<polygon fill="white" stroke="black" points="2318.49,-0.5 2318.49,-19.5 2419.49,-19.5 2419.49,-0.5 2318.49,-0.5"/>
<text text-anchor="middle" x="2368.99" y="-7.5" font-family="Helvetica,sans-Serif" font-size="10.00">boost/ui/choice.hpp</text>
</a>
</g>
</g>
<!-- Node5&#45;&gt;Node7 -->
<g id="edge6" class="edge"><title>Node5&#45;&gt;Node7</title>
<path fill="none" stroke="midnightblue" d="M2415.72,-49.8197C2404.07,-40.1452 2389.39,-27.9481 2379.62,-19.8339"/>
<polygon fill="midnightblue" stroke="midnightblue" points="2413.62,-52.6259 2423.55,-56.324 2418.09,-47.2416 2413.62,-52.6259"/>
</g>
<!-- Node5&#45;&gt;Node8 -->
<g id="edge7" class="edge"><title>Node5&#45;&gt;Node8</title>
<path fill="none" stroke="midnightblue" d="M2362.32,-56.0652C1896.95,-23.1931 450.283,-12.7618 206.14,-11.2122"/>
<polygon fill="midnightblue" stroke="midnightblue" points="2362.23,-59.5679 2372.46,-56.7965 2362.73,-52.5861 2362.23,-59.5679"/>
</g>
<!-- Node9&#45;&gt;Node8 -->
<g id="edge9" class="edge"><title>Node9&#45;&gt;Node8</title>
<path fill="none" stroke="midnightblue" d="M236.012,-50.9005C219.876,-40.9986 198.808,-28.0705 185.093,-19.6545"/>
<polygon fill="midnightblue" stroke="midnightblue" points="234.496,-54.0769 244.85,-56.324 238.158,-48.1106 234.496,-54.0769"/>
</g>
<!-- Node14&#45;&gt;Node8 -->
<g id="edge15" class="edge"><title>Node14&#45;&gt;Node8</title>
<path fill="none" stroke="midnightblue" d="M341.234,-53.959C300.815,-43.7598 241.616,-28.8217 204.739,-19.5164"/>
<polygon fill="midnightblue" stroke="midnightblue" points="340.528,-57.3904 351.08,-56.4435 342.24,-50.6032 340.528,-57.3904"/>
</g>
<!-- Node26&#45;&gt;Node8 -->
<g id="edge29" class="edge"><title>Node26&#45;&gt;Node8</title>
<path fill="none" stroke="midnightblue" d="M77.671,-104.241C88.1901,-90.7194 103.826,-71.4711 118.989,-56 132.192,-42.528 148.906,-28.5441 159.767,-19.8119"/>
<polygon fill="midnightblue" stroke="midnightblue" points="74.8713,-102.14 71.5537,-112.202 80.422,-106.405 74.8713,-102.14"/>
</g>
<!-- Node29&#45;&gt;Node2 -->
<g id="edge33" class="edge"><title>Node29&#45;&gt;Node2</title>
<path fill="none" stroke="midnightblue" d="M197.034,-168.42C198.364,-168.272 199.684,-168.131 200.989,-168 527.917,-135.077 923.378,-125.961 1061.49,-123.688"/>
<polygon fill="midnightblue" stroke="midnightblue" points="196.205,-164.995 186.706,-169.689 197.058,-171.943 196.205,-164.995"/>
</g>
<!-- Node29&#45;&gt;Node8 -->
<g id="edge35" class="edge"><title>Node29&#45;&gt;Node8</title>
<path fill="none" stroke="midnightblue" d="M145.321,-157.93C151.611,-121.92 165.009,-45.2312 169.492,-19.5681"/>
<polygon fill="midnightblue" stroke="midnightblue" points="141.821,-157.622 143.548,-168.075 148.717,-158.827 141.821,-157.622"/>
</g>
<!-- Node29&#45;&gt;Node26 -->
<g id="edge34" class="edge"><title>Node29&#45;&gt;Node26</title>
<path fill="none" stroke="midnightblue" d="M121.088,-162.342C107.078,-152.517 89.106,-139.913 77.3296,-131.655"/>
<polygon fill="midnightblue" stroke="midnightblue" points="119.421,-165.448 129.618,-168.324 123.44,-159.717 119.421,-165.448"/>
</g>
</g>
</svg>
