<?xml version="1.0" encoding="UTF-8" standalone="no"?>
<!DOCTYPE svg PUBLIC "-//W3C//DTD SVG 1.1//EN"
 "http://www.w3.org/Graphics/SVG/1.1/DTD/svg11.dtd">
<!-- Generated by graphviz version 2.38.0 (20140413.2041)
 -->
<!-- Title: boost/ui/string.hpp Pages: 1 -->
<svg width="2390pt" height="252pt"
 viewBox="0.00 0.00 2389.53 252.00" xmlns="http://www.w3.org/2000/svg" xmlns:xlink="http://www.w3.org/1999/xlink">
<g id="graph0" class="graph" transform="scale(1 1) rotate(0) translate(4 248)">
<title>boost/ui/string.hpp</title>
<polygon fill="white" stroke="none" points="-4,4 -4,-248 2385.53,-248 2385.53,4 -4,4"/>
<!-- Node1 -->
<g id="node1" class="node"><title>Node1</title>
<polygon fill="#bfbfbf" stroke="black" points="166.03,-224.5 166.03,-243.5 263.03,-243.5 263.03,-224.5 166.03,-224.5"/>
<text text-anchor="middle" x="214.53" y="-231.5" font-family="Helvetica,sans-Serif" font-size="10.00">boost/ui/string.hpp</text>
</g>
<!-- Node2 -->
<g id="node2" class="node"><title>Node2</title>
<g id="a_node2"><a xlink:href="widget_8hpp.html" target="_top" xlink:title="Widget class. ">
<polygon fill="white" stroke="black" points="981.03,-112.5 981.03,-131.5 1082.03,-131.5 1082.03,-112.5 981.03,-112.5"/>
<text text-anchor="middle" x="1031.53" y="-119.5" font-family="Helvetica,sans-Serif" font-size="10.00">boost/ui/widget.hpp</text>
</a>
</g>
</g>
<!-- Node1&#45;&gt;Node2 -->
<g id="edge1" class="edge"><title>Node1&#45;&gt;Node2</title>
<path fill="none" stroke="midnightblue" d="M214.542,-213.901C215.672,-198.917 219.886,-178.84 233.53,-168 291.894,-121.631 814.487,-121.399 980.884,-122.521"/>
<polygon fill="midnightblue" stroke="midnightblue" points="211.036,-214.01 214.175,-224.129 218.032,-214.262 211.036,-214.01"/>
</g>
<!-- Node8 -->
<g id="node8" class="node"><title>Node8</title>
<g id="a_node8"><a xlink:href="ui_8hpp.html" target="_top" xlink:title="Master Boost.UI file. ">
<polygon fill="white" stroke="black" points="97.5301,-0.5 97.5301,-19.5 167.53,-19.5 167.53,-0.5 97.5301,-0.5"/>
<text text-anchor="middle" x="132.53" y="-7.5" font-family="Helvetica,sans-Serif" font-size="10.00">boost/ui.hpp</text>
</a>
</g>
</g>
<!-- Node1&#45;&gt;Node8 -->
<g id="edge32" class="edge"><title>Node1&#45;&gt;Node8</title>
<path fill="none" stroke="midnightblue" d="M156.089,-225.064C103.779,-214.305 31.3289,-189.326 4.53013,-132 -20.5286,-78.3963 65.4238,-36.6962 108.886,-19.5298"/>
<polygon fill="midnightblue" stroke="midnightblue" points="155.451,-228.506 165.934,-226.972 156.783,-221.633 155.451,-228.506"/>
</g>
<!-- Node23 -->
<g id="node23" class="node"><title>Node23</title>
<g id="a_node23"><a xlink:href="string__io_8hpp.html" target="_top" xlink:title="String I/O operations. ">
<polygon fill="white" stroke="black" points="242.53,-168.5 242.53,-187.5 352.53,-187.5 352.53,-168.5 242.53,-168.5"/>
<text text-anchor="middle" x="297.53" y="-175.5" font-family="Helvetica,sans-Serif" font-size="10.00">boost/ui/string_io.hpp</text>
</a>
</g>
</g>
<!-- Node1&#45;&gt;Node23 -->
<g id="edge23" class="edge"><title>Node1&#45;&gt;Node23</title>
<path fill="none" stroke="midnightblue" d="M236.629,-218.622C251.792,-208.757 271.413,-195.992 284.228,-187.655"/>
<polygon fill="midnightblue" stroke="midnightblue" points="234.339,-215.937 227.866,-224.324 238.156,-221.804 234.339,-215.937"/>
</g>
<!-- Node24 -->
<g id="node24" class="node"><title>Node24</title>
<g id="a_node24"><a xlink:href="painter_8hpp.html" target="_top" xlink:title="Painter class. ">
<polygon fill="white" stroke="black" points="13.5301,-112.5 13.5301,-131.5 115.53,-131.5 115.53,-112.5 13.5301,-112.5"/>
<text text-anchor="middle" x="64.5301" y="-119.5" font-family="Helvetica,sans-Serif" font-size="10.00">boost/ui/painter.hpp</text>
</a>
</g>
</g>
<!-- Node1&#45;&gt;Node24 -->
<g id="edge24" class="edge"><title>Node1&#45;&gt;Node24</title>
<path fill="none" stroke="midnightblue" d="M156.238,-223.75C132.287,-217.299 105.916,-206.394 87.5301,-188 71.9591,-172.422 66.8896,-145.658 65.2697,-131.836"/>
<polygon fill="midnightblue" stroke="midnightblue" points="155.424,-227.154 165.973,-226.171 157.113,-220.361 155.424,-227.154"/>
</g>
<!-- Node25 -->
<g id="node25" class="node"><title>Node25</title>
<g id="a_node25"><a xlink:href="message_8hpp.html" target="_top" xlink:title="Display message file. ">
<polygon fill="white" stroke="black" points="371.03,-168.5 371.03,-187.5 484.03,-187.5 484.03,-168.5 371.03,-168.5"/>
<text text-anchor="middle" x="427.53" y="-175.5" font-family="Helvetica,sans-Serif" font-size="10.00">boost/ui/message.hpp</text>
</a>
</g>
</g>
<!-- Node1&#45;&gt;Node25 -->
<g id="edge26" class="edge"><title>Node1&#45;&gt;Node25</title>
<path fill="none" stroke="midnightblue" d="M258.081,-221.959C298.311,-211.76 357.233,-196.822 393.938,-187.516"/>
<polygon fill="midnightblue" stroke="midnightblue" points="257.114,-218.593 248.281,-224.444 258.834,-225.379 257.114,-218.593"/>
</g>
<!-- Node26 -->
<g id="node26" class="node"><title>Node26</title>
<g id="a_node26"><a xlink:href="log_8hpp.html" target="_top" xlink:title="Classes for logging. ">
<polygon fill="white" stroke="black" points="502.53,-168.5 502.53,-187.5 588.53,-187.5 588.53,-168.5 502.53,-168.5"/>
<text text-anchor="middle" x="545.53" y="-175.5" font-family="Helvetica,sans-Serif" font-size="10.00">boost/ui/log.hpp</text>
</a>
</g>
</g>
<!-- Node1&#45;&gt;Node26 -->
<g id="edge27" class="edge"><title>Node1&#45;&gt;Node26</title>
<path fill="none" stroke="midnightblue" d="M273.369,-223.711C329.855,-214.745 417.565,-200.7 493.53,-188 496.422,-187.517 499.403,-187.013 502.406,-186.503"/>
<polygon fill="midnightblue" stroke="midnightblue" points="272.523,-220.301 263.195,-225.324 273.619,-227.215 272.523,-220.301"/>
</g>
<!-- Node27 -->
<g id="node27" class="node"><title>Node27</title>
<g id="a_node27"><a xlink:href="font_8hpp.html" target="_top" xlink:title="Font class. ">
<polygon fill="white" stroke="black" points="97.0301,-168.5 97.0301,-187.5 186.03,-187.5 186.03,-168.5 97.0301,-168.5"/>
<text text-anchor="middle" x="141.53" y="-175.5" font-family="Helvetica,sans-Serif" font-size="10.00">boost/ui/font.hpp</text>
</a>
</g>
</g>
<!-- Node1&#45;&gt;Node27 -->
<g id="edge28" class="edge"><title>Node1&#45;&gt;Node27</title>
<path fill="none" stroke="midnightblue" d="M194.389,-218.101C181.251,-208.382 164.548,-196.027 153.472,-187.834"/>
<polygon fill="midnightblue" stroke="midnightblue" points="192.68,-221.191 202.801,-224.324 196.843,-215.563 192.68,-221.191"/>
</g>
<!-- Node3 -->
<g id="node3" class="node"><title>Node3</title>
<g id="a_node3"><a xlink:href="webview_8hpp.html" target="_top" xlink:title="WebView widget. ">
<polygon fill="white" stroke="black" points="1947.03,-56.5 1947.03,-75.5 2058.03,-75.5 2058.03,-56.5 1947.03,-56.5"/>
<text text-anchor="middle" x="2002.53" y="-63.5" font-family="Helvetica,sans-Serif" font-size="10.00">boost/ui/webview.hpp</text>
</a>
</g>
</g>
<!-- Node2&#45;&gt;Node3 -->
<g id="edge2" class="edge"><title>Node2&#45;&gt;Node3</title>
<path fill="none" stroke="midnightblue" d="M1092.33,-119.826C1238.34,-116.604 1620.19,-105.793 1937.53,-76 1940.59,-75.7125 1943.73,-75.3855 1946.9,-75.0306"/>
<polygon fill="midnightblue" stroke="midnightblue" points="1092.15,-116.329 1082.23,-120.045 1092.3,-123.327 1092.15,-116.329"/>
</g>
<!-- Node4 -->
<g id="node4" class="node"><title>Node4</title>
<g id="a_node4"><a xlink:href="textbox_8hpp.html" target="_top" xlink:title="Text editor widgets. ">
<polygon fill="white" stroke="black" points="2076.03,-56.5 2076.03,-75.5 2181.03,-75.5 2181.03,-56.5 2076.03,-56.5"/>
<text text-anchor="middle" x="2128.53" y="-63.5" font-family="Helvetica,sans-Serif" font-size="10.00">boost/ui/textbox.hpp</text>
</a>
</g>
</g>
<!-- Node2&#45;&gt;Node4 -->
<g id="edge3" class="edge"><title>Node2&#45;&gt;Node4</title>
<path fill="none" stroke="midnightblue" d="M1092.17,-120.547C1252.05,-118.88 1698.16,-111.176 2067.53,-76 2070.3,-75.7361 2073.14,-75.433 2076,-75.1014"/>
<polygon fill="midnightblue" stroke="midnightblue" points="1092.02,-117.048 1082.06,-120.648 1092.09,-124.048 1092.02,-117.048"/>
</g>
<!-- Node5 -->
<g id="node5" class="node"><title>Node5</title>
<g id="a_node5"><a xlink:href="stringsbox_8hpp.html" target="_top" xlink:title="Widget with array of strings. ">
<polygon fill="white" stroke="black" points="2199.53,-56.5 2199.53,-75.5 2317.53,-75.5 2317.53,-56.5 2199.53,-56.5"/>
<text text-anchor="middle" x="2258.53" y="-63.5" font-family="Helvetica,sans-Serif" font-size="10.00">boost/ui/stringsbox.hpp</text>
</a>
</g>
</g>
<!-- Node2&#45;&gt;Node5 -->
<g id="edge4" class="edge"><title>Node2&#45;&gt;Node5</title>
<path fill="none" stroke="midnightblue" d="M1092.33,-120.625C1264.75,-119.133 1771.48,-111.788 2190.53,-76 2193.38,-75.7568 2196.29,-75.4801 2199.23,-75.1783"/>
<polygon fill="midnightblue" stroke="midnightblue" points="1092.16,-117.126 1082.19,-120.709 1092.22,-124.126 1092.16,-117.126"/>
</g>
<!-- Node2&#45;&gt;Node8 -->
<g id="edge22" class="edge"><title>Node2&#45;&gt;Node8</title>
<path fill="none" stroke="midnightblue" d="M970.725,-120.463C789.16,-118.483 259.202,-109.839 189.53,-76 164.148,-63.6723 145.306,-34.396 137.086,-19.7127"/>
<polygon fill="midnightblue" stroke="midnightblue" points="970.863,-123.964 980.899,-120.571 970.937,-116.965 970.863,-123.964"/>
</g>
<!-- Node9 -->
<g id="node9" class="node"><title>Node9</title>
<g id="a_node9"><a xlink:href="slider_8hpp.html" target="_top" xlink:title="Slider widget. ">
<polygon fill="white" stroke="black" points="198.53,-56.5 198.53,-75.5 294.53,-75.5 294.53,-56.5 198.53,-56.5"/>
<text text-anchor="middle" x="246.53" y="-63.5" font-family="Helvetica,sans-Serif" font-size="10.00">boost/ui/slider.hpp</text>
</a>
</g>
</g>
<!-- Node2&#45;&gt;Node9 -->
<g id="edge8" class="edge"><title>Node2&#45;&gt;Node9</title>
<path fill="none" stroke="midnightblue" d="M970.478,-119.183C845.156,-115.023 549.929,-103.006 303.53,-76 300.642,-75.6835 297.677,-75.3231 294.689,-74.933"/>
<polygon fill="midnightblue" stroke="midnightblue" points="970.53,-122.687 980.639,-119.516 970.759,-115.69 970.53,-122.687"/>
</g>
<!-- Node10 -->
<g id="node10" class="node"><title>Node10</title>
<g id="a_node10"><a xlink:href="progressbar_8hpp.html" target="_top" xlink:title="Progress bar widget. ">
<polygon fill="white" stroke="black" points="312.53,-56.5 312.53,-75.5 436.53,-75.5 436.53,-56.5 312.53,-56.5"/>
<text text-anchor="middle" x="374.53" y="-63.5" font-family="Helvetica,sans-Serif" font-size="10.00">boost/ui/progressbar.hpp</text>
</a>
</g>
</g>
<!-- Node2&#45;&gt;Node10 -->
<g id="edge9" class="edge"><title>Node2&#45;&gt;Node10</title>
<path fill="none" stroke="midnightblue" d="M970.658,-117.321C864.091,-110.657 636.854,-95.4601 445.53,-76 442.687,-75.7108 439.782,-75.401 436.848,-75.0765"/>
<polygon fill="midnightblue" stroke="midnightblue" points="970.699,-120.83 980.897,-117.958 971.134,-113.844 970.699,-120.83"/>
</g>
<!-- Node11 -->
<g id="node11" class="node"><title>Node11</title>
<g id="a_node11"><a xlink:href="panel_8hpp.html" target="_top" xlink:title="Panel widget. ">
<polygon fill="white" stroke="black" points="454.53,-56.5 454.53,-75.5 550.53,-75.5 550.53,-56.5 454.53,-56.5"/>
<text text-anchor="middle" x="502.53" y="-63.5" font-family="Helvetica,sans-Serif" font-size="10.00">boost/ui/panel.hpp</text>
</a>
</g>
</g>
<!-- Node2&#45;&gt;Node11 -->
<g id="edge10" class="edge"><title>Node2&#45;&gt;Node11</title>
<path fill="none" stroke="midnightblue" d="M970.885,-116.351C881.075,-109.207 707.487,-94.406 560.53,-76 557.295,-75.5948 553.962,-75.1502 550.606,-74.6825"/>
<polygon fill="midnightblue" stroke="midnightblue" points="970.644,-119.843 980.889,-117.143 971.197,-112.865 970.644,-119.843"/>
</g>
<!-- Node12 -->
<g id="node12" class="node"><title>Node12</title>
<g id="a_node12"><a xlink:href="notebook_8hpp.html" target="_top" xlink:title="Notebook widget. ">
<polygon fill="white" stroke="black" points="569.03,-56.5 569.03,-75.5 682.03,-75.5 682.03,-56.5 569.03,-56.5"/>
<text text-anchor="middle" x="625.53" y="-63.5" font-family="Helvetica,sans-Serif" font-size="10.00">boost/ui/notebook.hpp</text>
</a>
</g>
</g>
<!-- Node2&#45;&gt;Node12 -->
<g id="edge11" class="edge"><title>Node2&#45;&gt;Node12</title>
<path fill="none" stroke="midnightblue" d="M970.721,-113.025C902.688,-104.086 789.198,-89.1224 691.53,-76 688.436,-75.5842 685.26,-75.156 682.054,-74.7227"/>
<polygon fill="midnightblue" stroke="midnightblue" points="970.46,-116.521 980.831,-114.353 971.372,-109.58 970.46,-116.521"/>
</g>
<!-- Node13 -->
<g id="node13" class="node"><title>Node13</title>
<g id="a_node13"><a xlink:href="menu_8hpp.html" target="_top" xlink:title="Menu classes. ">
<polygon fill="white" stroke="black" points="700.03,-56.5 700.03,-75.5 797.03,-75.5 797.03,-56.5 700.03,-56.5"/>
<text text-anchor="middle" x="748.53" y="-63.5" font-family="Helvetica,sans-Serif" font-size="10.00">boost/ui/menu.hpp</text>
</a>
</g>
</g>
<!-- Node2&#45;&gt;Node13 -->
<g id="edge12" class="edge"><title>Node2&#45;&gt;Node13</title>
<path fill="none" stroke="midnightblue" d="M976.697,-110.537C923.212,-100.332 842.859,-84.9992 793.163,-75.5164"/>
<polygon fill="midnightblue" stroke="midnightblue" points="976.209,-114.007 986.688,-112.444 977.521,-107.131 976.209,-114.007"/>
</g>
<!-- Node14 -->
<g id="node14" class="node"><title>Node14</title>
<g id="a_node14"><a xlink:href="line_8hpp.html" target="_top" xlink:title="line widget ">
<polygon fill="white" stroke="black" points="814.53,-56.5 814.53,-75.5 902.53,-75.5 902.53,-56.5 814.53,-56.5"/>
<text text-anchor="middle" x="858.53" y="-63.5" font-family="Helvetica,sans-Serif" font-size="10.00">boost/ui/line.hpp</text>
</a>
</g>
</g>
<!-- Node2&#45;&gt;Node14 -->
<g id="edge13" class="edge"><title>Node2&#45;&gt;Node14</title>
<path fill="none" stroke="midnightblue" d="M994.484,-109.436C961.866,-99.2551 915.12,-84.664 885.814,-75.5164"/>
<polygon fill="midnightblue" stroke="midnightblue" points="993.529,-112.805 1004.12,-112.444 995.615,-106.123 993.529,-112.805"/>
</g>
<!-- Node15 -->
<g id="node15" class="node"><title>Node15</title>
<g id="a_node15"><a xlink:href="label_8hpp.html" target="_top" xlink:title="Label widget. ">
<polygon fill="white" stroke="black" points="920.03,-56.5 920.03,-75.5 1013.03,-75.5 1013.03,-56.5 920.03,-56.5"/>
<text text-anchor="middle" x="966.53" y="-63.5" font-family="Helvetica,sans-Serif" font-size="10.00">boost/ui/label.hpp</text>
</a>
</g>
</g>
<!-- Node2&#45;&gt;Node15 -->
<g id="edge14" class="edge"><title>Node2&#45;&gt;Node15</title>
<path fill="none" stroke="midnightblue" d="M1013.26,-105.82C1001.61,-96.1452 986.931,-83.9481 977.164,-75.8339"/>
<polygon fill="midnightblue" stroke="midnightblue" points="1011.16,-108.626 1021.09,-112.324 1015.63,-103.242 1011.16,-108.626"/>
</g>
<!-- Node16 -->
<g id="node16" class="node"><title>Node16</title>
<g id="a_node16"><a xlink:href="image__widget_8hpp.html" target="_top" xlink:title="Image widget. ">
<polygon fill="white" stroke="black" points="1031.03,-56.5 1031.03,-75.5 1164.03,-75.5 1164.03,-56.5 1031.03,-56.5"/>
<text text-anchor="middle" x="1097.53" y="-63.5" font-family="Helvetica,sans-Serif" font-size="10.00">boost/ui/image_widget.hpp</text>
</a>
</g>
</g>
<!-- Node2&#45;&gt;Node16 -->
<g id="edge15" class="edge"><title>Node2&#45;&gt;Node16</title>
<path fill="none" stroke="midnightblue" d="M1050.08,-105.82C1061.91,-96.1452 1076.82,-83.9481 1086.73,-75.8339"/>
<polygon fill="midnightblue" stroke="midnightblue" points="1047.66,-103.283 1042.13,-112.324 1052.09,-108.7 1047.66,-103.283"/>
</g>
<!-- Node17 -->
<g id="node17" class="node"><title>Node17</title>
<g id="a_node17"><a xlink:href="hyperlink_8hpp.html" target="_top" xlink:title="Hyperlink widget. ">
<polygon fill="white" stroke="black" points="1182.53,-56.5 1182.53,-75.5 1294.53,-75.5 1294.53,-56.5 1182.53,-56.5"/>
<text text-anchor="middle" x="1238.53" y="-63.5" font-family="Helvetica,sans-Serif" font-size="10.00">boost/ui/hyperlink.hpp</text>
</a>
</g>
</g>
<!-- Node2&#45;&gt;Node17 -->
<g id="edge16" class="edge"><title>Node2&#45;&gt;Node17</title>
<path fill="none" stroke="midnightblue" d="M1074.35,-109.829C1113.44,-99.6333 1170.36,-84.7823 1205.88,-75.5164"/>
<polygon fill="midnightblue" stroke="midnightblue" points="1073.12,-106.533 1064.33,-112.444 1074.89,-113.306 1073.12,-106.533"/>
</g>
<!-- Node18 -->
<g id="node18" class="node"><title>Node18</title>
<g id="a_node18"><a xlink:href="groupbox_8hpp.html" target="_top" xlink:title="Group box widget. ">
<polygon fill="white" stroke="black" points="1313.03,-56.5 1313.03,-75.5 1426.03,-75.5 1426.03,-56.5 1313.03,-56.5"/>
<text text-anchor="middle" x="1369.53" y="-63.5" font-family="Helvetica,sans-Serif" font-size="10.00">boost/ui/groupbox.hpp</text>
</a>
</g>
</g>
<!-- Node2&#45;&gt;Node18 -->
<g id="edge17" class="edge"><title>Node2&#45;&gt;Node18</title>
<path fill="none" stroke="midnightblue" d="M1092.04,-111.332C1155.77,-101.152 1255.14,-85.2761 1316.07,-75.5414"/>
<polygon fill="midnightblue" stroke="midnightblue" points="1091.45,-107.882 1082.13,-112.916 1092.56,-114.794 1091.45,-107.882"/>
</g>
<!-- Node19 -->
<g id="node19" class="node"><title>Node19</title>
<g id="a_node19"><a xlink:href="datetime_8hpp.html" target="_top" xlink:title="Date and time pickers. ">
<polygon fill="white" stroke="black" points="1444.53,-56.5 1444.53,-75.5 1554.53,-75.5 1554.53,-56.5 1444.53,-56.5"/>
<text text-anchor="middle" x="1499.53" y="-63.5" font-family="Helvetica,sans-Serif" font-size="10.00">boost/ui/datetime.hpp</text>
</a>
</g>
</g>
<!-- Node2&#45;&gt;Node19 -->
<g id="edge18" class="edge"><title>Node2&#45;&gt;Node19</title>
<path fill="none" stroke="midnightblue" d="M1092.56,-114.755C1171.73,-106.527 1314.07,-91.301 1435.53,-76 1438.42,-75.6354 1441.39,-75.252 1444.39,-74.8574"/>
<polygon fill="midnightblue" stroke="midnightblue" points="1091.87,-111.307 1082.29,-115.82 1092.6,-118.27 1091.87,-111.307"/>
</g>
<!-- Node20 -->
<g id="node20" class="node"><title>Node20</title>
<g id="a_node20"><a xlink:href="checkbox_8hpp.html" target="_top" xlink:title="Checkbox widget. ">
<polygon fill="white" stroke="black" points="1573.03,-56.5 1573.03,-75.5 1688.03,-75.5 1688.03,-56.5 1573.03,-56.5"/>
<text text-anchor="middle" x="1630.53" y="-63.5" font-family="Helvetica,sans-Serif" font-size="10.00">boost/ui/checkbox.hpp</text>
</a>
</g>
</g>
<!-- Node2&#45;&gt;Node20 -->
<g id="edge19" class="edge"><title>Node2&#45;&gt;Node20</title>
<path fill="none" stroke="midnightblue" d="M1092.33,-116.834C1191.25,-109.836 1393.11,-94.6423 1563.53,-76 1566.56,-75.6682 1569.67,-75.3109 1572.81,-74.9368"/>
<polygon fill="midnightblue" stroke="midnightblue" points="1091.95,-113.352 1082.22,-117.546 1092.44,-120.334 1091.95,-113.352"/>
</g>
<!-- Node21 -->
<g id="node21" class="node"><title>Node21</title>
<g id="a_node21"><a xlink:href="canvas_8hpp.html" target="_top" xlink:title="Canvas widget. ">
<polygon fill="white" stroke="black" points="1706.53,-56.5 1706.53,-75.5 1810.53,-75.5 1810.53,-56.5 1706.53,-56.5"/>
<text text-anchor="middle" x="1758.53" y="-63.5" font-family="Helvetica,sans-Serif" font-size="10.00">boost/ui/canvas.hpp</text>
</a>
</g>
</g>
<!-- Node2&#45;&gt;Node21 -->
<g id="edge20" class="edge"><title>Node2&#45;&gt;Node21</title>
<path fill="none" stroke="midnightblue" d="M1092.41,-118.498C1209.74,-113.321 1475.23,-99.8719 1697.53,-76 1700.4,-75.6914 1703.35,-75.3478 1706.32,-74.98"/>
<polygon fill="midnightblue" stroke="midnightblue" points="1092.03,-115.011 1082.2,-118.945 1092.34,-122.005 1092.03,-115.011"/>
</g>
<!-- Node22 -->
<g id="node22" class="node"><title>Node22</title>
<g id="a_node22"><a xlink:href="button_8hpp.html" target="_top" xlink:title="Button widget. ">
<polygon fill="white" stroke="black" points="1828.53,-56.5 1828.53,-75.5 1928.53,-75.5 1928.53,-56.5 1828.53,-56.5"/>
<text text-anchor="middle" x="1878.53" y="-63.5" font-family="Helvetica,sans-Serif" font-size="10.00">boost/ui/button.hpp</text>
</a>
</g>
</g>
<!-- Node2&#45;&gt;Node22 -->
<g id="edge21" class="edge"><title>Node2&#45;&gt;Node22</title>
<path fill="none" stroke="midnightblue" d="M1092.72,-119.471C1225.43,-115.723 1549.5,-104.242 1819.53,-76 1822.42,-75.6982 1825.38,-75.3548 1828.36,-74.9824"/>
<polygon fill="midnightblue" stroke="midnightblue" points="1092.27,-115.982 1082.37,-119.758 1092.46,-122.979 1092.27,-115.982"/>
</g>
<!-- Node6 -->
<g id="node6" class="node"><title>Node6</title>
<g id="a_node6"><a xlink:href="combobox_8hpp.html" target="_top" xlink:title="Combobox widget. ">
<polygon fill="white" stroke="black" points="2263.53,-0.5 2263.53,-19.5 2381.53,-19.5 2381.53,-0.5 2263.53,-0.5"/>
<text text-anchor="middle" x="2322.53" y="-7.5" font-family="Helvetica,sans-Serif" font-size="10.00">boost/ui/combobox.hpp</text>
</a>
</g>
</g>
<!-- Node5&#45;&gt;Node6 -->
<g id="edge5" class="edge"><title>Node5&#45;&gt;Node6</title>
<path fill="none" stroke="midnightblue" d="M2276.52,-49.8197C2287.99,-40.1452 2302.44,-27.9481 2312.06,-19.8339"/>
<polygon fill="midnightblue" stroke="midnightblue" points="2274.2,-47.2002 2268.81,-56.324 2278.71,-52.5502 2274.2,-47.2002"/>
</g>
<!-- Node7 -->
<g id="node7" class="node"><title>Node7</title>
<g id="a_node7"><a xlink:href="choice_8hpp.html" target="_top" xlink:title="Choice widget. ">
<polygon fill="white" stroke="black" points="2144.03,-0.5 2144.03,-19.5 2245.03,-19.5 2245.03,-0.5 2144.03,-0.5"/>
<text text-anchor="middle" x="2194.53" y="-7.5" font-family="Helvetica,sans-Serif" font-size="10.00">boost/ui/choice.hpp</text>
</a>
</g>
</g>
<!-- Node5&#45;&gt;Node7 -->
<g id="edge6" class="edge"><title>Node5&#45;&gt;Node7</title>
<path fill="none" stroke="midnightblue" d="M2240.54,-49.8197C2229.07,-40.1452 2214.62,-27.9481 2205,-19.8339"/>
<polygon fill="midnightblue" stroke="midnightblue" points="2238.35,-52.5502 2248.25,-56.324 2242.86,-47.2002 2238.35,-52.5502"/>
</g>
<!-- Node5&#45;&gt;Node8 -->
<g id="edge7" class="edge"><title>Node5&#45;&gt;Node8</title>
<path fill="none" stroke="midnightblue" d="M2189.11,-55.9988C1753.19,-23.8462 403.408,-12.9275 167.788,-11.2406"/>
<polygon fill="midnightblue" stroke="midnightblue" points="2189,-59.5004 2199.23,-56.7622 2189.52,-52.5202 2189,-59.5004"/>
</g>
<!-- Node24&#45;&gt;Node8 -->
<g id="edge25" class="edge"><title>Node24&#45;&gt;Node8</title>
<path fill="none" stroke="midnightblue" d="M75.262,-103.64C90.0341,-79.7436 116.069,-37.6286 127.219,-19.5914"/>
<polygon fill="midnightblue" stroke="midnightblue" points="72.1472,-102.022 69.866,-112.368 78.1013,-105.703 72.1472,-102.022"/>
</g>
<!-- Node27&#45;&gt;Node2 -->
<g id="edge29" class="edge"><title>Node27&#45;&gt;Node2</title>
<path fill="none" stroke="midnightblue" d="M196.576,-168.428C197.906,-168.278 199.226,-168.134 200.53,-168 495.157,-137.624 850.8,-127.041 980.808,-124.03"/>
<polygon fill="midnightblue" stroke="midnightblue" points="195.742,-165.005 186.249,-169.711 196.605,-171.952 195.742,-165.005"/>
</g>
<!-- Node27&#45;&gt;Node8 -->
<g id="edge31" class="edge"><title>Node27&#45;&gt;Node8</title>
<path fill="none" stroke="midnightblue" d="M140.496,-157.93C138.544,-121.92 134.386,-45.2312 132.995,-19.5681"/>
<polygon fill="midnightblue" stroke="midnightblue" points="137.01,-158.279 141.046,-168.075 144,-157.9 137.01,-158.279"/>
</g>
<!-- Node27&#45;&gt;Node24 -->
<g id="edge30" class="edge"><title>Node27&#45;&gt;Node24</title>
<path fill="none" stroke="midnightblue" d="M120.629,-162.342C106.619,-152.517 88.6472,-139.913 76.8708,-131.655"/>
<polygon fill="midnightblue" stroke="midnightblue" points="118.962,-165.448 129.159,-168.324 122.981,-159.717 118.962,-165.448"/>
</g>
</g>
</svg>
