<?xml version="1.0" encoding="UTF-8" standalone="no"?>
<!DOCTYPE svg PUBLIC "-//W3C//DTD SVG 1.1//EN"
 "http://www.w3.org/Graphics/SVG/1.1/DTD/svg11.dtd">
<!-- Generated by graphviz version 2.38.0 (20140413.2041)
 -->
<!-- Title: boost/ui/string.hpp Pages: 1 -->
<svg width="660pt" height="196pt"
 viewBox="0.00 0.00 659.50 196.00" xmlns="http://www.w3.org/2000/svg" xmlns:xlink="http://www.w3.org/1999/xlink">
<g id="graph0" class="graph" transform="scale(1 1) rotate(0) translate(4 192)">
<title>boost/ui/string.hpp</title>
<polygon fill="white" stroke="none" points="-4,4 -4,-192 655.5,-192 655.5,4 -4,4"/>
<!-- Node1 -->
<g id="node1" class="node"><title>Node1</title>
<polygon fill="#bfbfbf" stroke="black" points="249.5,-168.5 249.5,-187.5 346.5,-187.5 346.5,-168.5 249.5,-168.5"/>
<text text-anchor="middle" x="298" y="-175.5" font-family="Helvetica,sans-Serif" font-size="10.00">boost/ui/string.hpp</text>
</g>
<!-- Node2 -->
<g id="node2" class="node"><title>Node2</title>
<g id="a_node2"><a xlink:href="string__io_8hpp.html" target="_top" xlink:title="String I/O operations. ">
<polygon fill="white" stroke="black" points="0,-112.5 0,-131.5 110,-131.5 110,-112.5 0,-112.5"/>
<text text-anchor="middle" x="55" y="-119.5" font-family="Helvetica,sans-Serif" font-size="10.00">boost/ui/string_io.hpp</text>
</a>
</g>
</g>
<!-- Node1&#45;&gt;Node2 -->
<g id="edge1" class="edge"><title>Node1&#45;&gt;Node2</title>
<path fill="none" stroke="midnightblue" d="M249.478,-166.217C203.56,-156.013 135.553,-140.901 93.3239,-131.516"/>
<polygon fill="midnightblue" stroke="midnightblue" points="248.975,-169.691 259.496,-168.444 250.493,-162.858 248.975,-169.691"/>
</g>
<!-- Node3 -->
<g id="node3" class="node"><title>Node3</title>
<g id="a_node3"><a xlink:href="stream_8hpp.html" target="_top" xlink:title="Stream class and manipulators. ">
<polygon fill="white" stroke="black" points="128.5,-112.5 128.5,-131.5 231.5,-131.5 231.5,-112.5 128.5,-112.5"/>
<text text-anchor="middle" x="180" y="-119.5" font-family="Helvetica,sans-Serif" font-size="10.00">boost/ui/stream.hpp</text>
</a>
</g>
</g>
<!-- Node1&#45;&gt;Node3 -->
<g id="edge2" class="edge"><title>Node1&#45;&gt;Node3</title>
<path fill="none" stroke="midnightblue" d="M270.1,-164.232C248.027,-154.131 217.824,-140.309 198.61,-131.516"/>
<polygon fill="midnightblue" stroke="midnightblue" points="268.753,-167.465 279.303,-168.444 271.666,-161.1 268.753,-167.465"/>
</g>
<!-- Node4 -->
<g id="node4" class="node"><title>Node4</title>
<g id="a_node4"><a xlink:href="painter_8hpp.html" target="_top" xlink:title="Painter class. ">
<polygon fill="white" stroke="black" points="335,-56.5 335,-75.5 437,-75.5 437,-56.5 335,-56.5"/>
<text text-anchor="middle" x="386" y="-63.5" font-family="Helvetica,sans-Serif" font-size="10.00">boost/ui/painter.hpp</text>
</a>
</g>
</g>
<!-- Node1&#45;&gt;Node4 -->
<g id="edge3" class="edge"><title>Node1&#45;&gt;Node4</title>
<path fill="none" stroke="midnightblue" d="M300.306,-158.266C302.787,-144.376 307.842,-125.576 318,-112 330.382,-95.4509 350.758,-83.1416 365.983,-75.6188"/>
<polygon fill="midnightblue" stroke="midnightblue" points="296.845,-157.75 298.82,-168.159 303.767,-158.79 296.845,-157.75"/>
</g>
<!-- Node5 -->
<g id="node5" class="node"><title>Node5</title>
<g id="a_node5"><a xlink:href="ui_8hpp.html" target="_top" xlink:title="Master Boost.UI file. ">
<polygon fill="white" stroke="black" points="351,-0.5 351,-19.5 421,-19.5 421,-0.5 351,-0.5"/>
<text text-anchor="middle" x="386" y="-7.5" font-family="Helvetica,sans-Serif" font-size="10.00">boost/ui.hpp</text>
</a>
</g>
</g>
<!-- Node1&#45;&gt;Node5 -->
<g id="edge10" class="edge"><title>Node1&#45;&gt;Node5</title>
<path fill="none" stroke="midnightblue" d="M297.682,-158.126C298.206,-132.424 302.658,-86.169 326,-56 338.031,-40.4496 356.745,-27.5876 370.071,-19.6527"/>
<polygon fill="midnightblue" stroke="midnightblue" points="294.182,-158.351 297.665,-168.357 301.182,-158.363 294.182,-158.351"/>
</g>
<!-- Node6 -->
<g id="node6" class="node"><title>Node6</title>
<g id="a_node6"><a xlink:href="message_8hpp.html" target="_top" xlink:title="Display message file. ">
<polygon fill="white" stroke="black" points="326.5,-112.5 326.5,-131.5 439.5,-131.5 439.5,-112.5 326.5,-112.5"/>
<text text-anchor="middle" x="383" y="-119.5" font-family="Helvetica,sans-Serif" font-size="10.00">boost/ui/message.hpp</text>
</a>
</g>
</g>
<!-- Node1&#45;&gt;Node6 -->
<g id="edge5" class="edge"><title>Node1&#45;&gt;Node6</title>
<path fill="none" stroke="midnightblue" d="M320.194,-162.901C335.78,-152.999 356.13,-140.071 369.377,-131.655"/>
<polygon fill="midnightblue" stroke="midnightblue" points="318.221,-160.007 311.657,-168.324 321.974,-165.916 318.221,-160.007"/>
</g>
<!-- Node7 -->
<g id="node7" class="node"><title>Node7</title>
<g id="a_node7"><a xlink:href="log_8hpp.html" target="_top" xlink:title="Classes for logging. ">
<polygon fill="white" stroke="black" points="458,-112.5 458,-131.5 544,-131.5 544,-112.5 458,-112.5"/>
<text text-anchor="middle" x="501" y="-119.5" font-family="Helvetica,sans-Serif" font-size="10.00">boost/ui/log.hpp</text>
</a>
</g>
</g>
<!-- Node1&#45;&gt;Node7 -->
<g id="edge6" class="edge"><title>Node1&#45;&gt;Node7</title>
<path fill="none" stroke="midnightblue" d="M339.994,-165.829C378.323,-155.633 434.152,-140.782 468.985,-131.516"/>
<polygon fill="midnightblue" stroke="midnightblue" points="338.93,-162.49 330.166,-168.444 340.73,-169.255 338.93,-162.49"/>
</g>
<!-- Node8 -->
<g id="node8" class="node"><title>Node8</title>
<g id="a_node8"><a xlink:href="font_8hpp.html" target="_top" xlink:title="Font class. ">
<polygon fill="white" stroke="black" points="562.5,-112.5 562.5,-131.5 651.5,-131.5 651.5,-112.5 562.5,-112.5"/>
<text text-anchor="middle" x="607" y="-119.5" font-family="Helvetica,sans-Serif" font-size="10.00">boost/ui/font.hpp</text>
</a>
</g>
</g>
<!-- Node1&#45;&gt;Node8 -->
<g id="edge7" class="edge"><title>Node1&#45;&gt;Node8</title>
<path fill="none" stroke="midnightblue" d="M356.669,-166.747C416.474,-156.296 507.937,-140.312 562.175,-130.834"/>
<polygon fill="midnightblue" stroke="midnightblue" points="355.869,-163.334 346.621,-168.503 357.074,-170.229 355.869,-163.334"/>
</g>
<!-- Node4&#45;&gt;Node5 -->
<g id="edge4" class="edge"><title>Node4&#45;&gt;Node5</title>
<path fill="none" stroke="midnightblue" d="M386,-45.8045C386,-36.9102 386,-26.7798 386,-19.7511"/>
<polygon fill="midnightblue" stroke="midnightblue" points="382.5,-46.083 386,-56.083 389.5,-46.083 382.5,-46.083"/>
</g>
<!-- Node8&#45;&gt;Node4 -->
<g id="edge8" class="edge"><title>Node8&#45;&gt;Node4</title>
<path fill="none" stroke="midnightblue" d="M562.079,-110.024C520.332,-99.8232 459.018,-84.8414 420.854,-75.5164"/>
<polygon fill="midnightblue" stroke="midnightblue" points="561.437,-113.47 571.982,-112.444 563.098,-106.67 561.437,-113.47"/>
</g>
<!-- Node8&#45;&gt;Node5 -->
<g id="edge9" class="edge"><title>Node8&#45;&gt;Node5</title>
<path fill="none" stroke="midnightblue" d="M580.638,-107.878C534.829,-85.0778 441.754,-38.7509 403.261,-19.5914"/>
<polygon fill="midnightblue" stroke="midnightblue" points="579.147,-111.046 589.659,-112.368 582.266,-104.779 579.147,-111.046"/>
</g>
</g>
</svg>
