<?xml version="1.0" encoding="UTF-8" standalone="no"?>
<!DOCTYPE svg PUBLIC "-//W3C//DTD SVG 1.1//EN"
 "http://www.w3.org/Graphics/SVG/1.1/DTD/svg11.dtd">
<!-- Generated by graphviz version 2.43.0 (0)
 -->
<!-- Title: boost/ui/string.hpp Pages: 1 -->
<svg width="711pt" height="196pt"
 viewBox="0.00 0.00 710.50 196.00" xmlns="http://www.w3.org/2000/svg" xmlns:xlink="http://www.w3.org/1999/xlink">
<g id="graph0" class="graph" transform="scale(1 1) rotate(0) translate(4 192)">
<title>boost/ui/string.hpp</title>
<polygon fill="white" stroke="transparent" points="-4,4 -4,-192 706.5,-192 706.5,4 -4,4"/>
<!-- Node1 -->
<g id="node1" class="node">
<title>Node1</title>
<g id="a_node1"><a xlink:title="String class and operations.">
<polygon fill="#bfbfbf" stroke="black" points="266.5,-168.5 266.5,-187.5 373.5,-187.5 373.5,-168.5 266.5,-168.5"/>
<text text-anchor="middle" x="320" y="-175.5" font-family="Helvetica,sans-Serif" font-size="10.00">boost/ui/string.hpp</text>
</a>
</g>
</g>
<!-- Node2 -->
<g id="node2" class="node">
<title>Node2</title>
<g id="a_node2"><a xlink:href="string__io_8hpp.html" target="_top" xlink:title="String I/O operations.">
<polygon fill="white" stroke="black" points="0,-112.5 0,-131.5 122,-131.5 122,-112.5 0,-112.5"/>
<text text-anchor="middle" x="61" y="-119.5" font-family="Helvetica,sans-Serif" font-size="10.00">boost/ui/string_io.hpp</text>
</a>
</g>
</g>
<!-- Node1&#45;&gt;Node2 -->
<g id="edge1" class="edge">
<title>Node1&#45;&gt;Node2</title>
<path fill="none" stroke="midnightblue" d="M268.9,-166.35C219.95,-156.14 147.05,-140.94 101.85,-131.52"/>
<polygon fill="midnightblue" stroke="midnightblue" points="268.46,-169.83 278.96,-168.44 269.89,-162.98 268.46,-169.83"/>
</g>
<!-- Node3 -->
<g id="node3" class="node">
<title>Node3</title>
<g id="a_node3"><a xlink:href="stream_8hpp.html" target="_top" xlink:title="Stream class and manipulators.">
<polygon fill="white" stroke="black" points="140,-112.5 140,-131.5 254,-131.5 254,-112.5 140,-112.5"/>
<text text-anchor="middle" x="197" y="-119.5" font-family="Helvetica,sans-Serif" font-size="10.00">boost/ui/stream.hpp</text>
</a>
</g>
</g>
<!-- Node1&#45;&gt;Node3 -->
<g id="edge2" class="edge">
<title>Node1&#45;&gt;Node3</title>
<path fill="none" stroke="midnightblue" d="M291.23,-164.37C268.19,-154.26 236.52,-140.35 216.4,-131.52"/>
<polygon fill="midnightblue" stroke="midnightblue" points="289.95,-167.63 300.51,-168.44 292.76,-161.22 289.95,-167.63"/>
</g>
<!-- Node4 -->
<g id="node4" class="node">
<title>Node4</title>
<g id="a_node4"><a xlink:href="painter_8hpp.html" target="_top" xlink:title="Painter class.">
<polygon fill="white" stroke="black" points="410.5,-56.5 410.5,-75.5 523.5,-75.5 523.5,-56.5 410.5,-56.5"/>
<text text-anchor="middle" x="467" y="-63.5" font-family="Helvetica,sans-Serif" font-size="10.00">boost/ui/painter.hpp</text>
</a>
</g>
</g>
<!-- Node1&#45;&gt;Node4 -->
<g id="edge3" class="edge">
<title>Node1&#45;&gt;Node4</title>
<path fill="none" stroke="midnightblue" d="M321,-157.97C322.72,-143.63 327.26,-124.39 339,-112 357.63,-92.34 385.36,-81.26 410.24,-75.02"/>
<polygon fill="midnightblue" stroke="midnightblue" points="317.49,-157.93 320.13,-168.19 324.46,-158.52 317.49,-157.93"/>
</g>
<!-- Node5 -->
<g id="node5" class="node">
<title>Node5</title>
<g id="a_node5"><a xlink:href="ui_8hpp.html" target="_top" xlink:title="Master Boost.UI file.">
<polygon fill="white" stroke="black" points="428.5,-0.5 428.5,-19.5 505.5,-19.5 505.5,-0.5 428.5,-0.5"/>
<text text-anchor="middle" x="467" y="-7.5" font-family="Helvetica,sans-Serif" font-size="10.00">boost/ui.hpp</text>
</a>
</g>
</g>
<!-- Node1&#45;&gt;Node5 -->
<g id="edge10" class="edge">
<title>Node1&#45;&gt;Node5</title>
<path fill="none" stroke="midnightblue" d="M317.08,-158.24C315.89,-144.58 316.27,-126.09 324,-112 350.46,-63.77 410.99,-33.25 444.18,-19.51"/>
<polygon fill="midnightblue" stroke="midnightblue" points="313.64,-158.87 318.33,-168.37 320.58,-158.02 313.64,-158.87"/>
</g>
<!-- Node6 -->
<g id="node6" class="node">
<title>Node6</title>
<g id="a_node6"><a xlink:href="message_8hpp.html" target="_top" xlink:title="Display message file.">
<polygon fill="white" stroke="black" points="348,-112.5 348,-131.5 472,-131.5 472,-112.5 348,-112.5"/>
<text text-anchor="middle" x="410" y="-119.5" font-family="Helvetica,sans-Serif" font-size="10.00">boost/ui/message.hpp</text>
</a>
</g>
</g>
<!-- Node1&#45;&gt;Node6 -->
<g id="edge5" class="edge">
<title>Node1&#45;&gt;Node6</title>
<path fill="none" stroke="midnightblue" d="M343.04,-163.18C359.6,-153.24 381.42,-140.15 395.58,-131.65"/>
<polygon fill="midnightblue" stroke="midnightblue" points="341.23,-160.18 334.46,-168.32 344.84,-166.18 341.23,-160.18"/>
</g>
<!-- Node7 -->
<g id="node7" class="node">
<title>Node7</title>
<g id="a_node7"><a xlink:href="log_8hpp.html" target="_top" xlink:title="Classes for logging.">
<polygon fill="white" stroke="black" points="490.5,-112.5 490.5,-131.5 585.5,-131.5 585.5,-112.5 490.5,-112.5"/>
<text text-anchor="middle" x="538" y="-119.5" font-family="Helvetica,sans-Serif" font-size="10.00">boost/ui/log.hpp</text>
</a>
</g>
</g>
<!-- Node1&#45;&gt;Node7 -->
<g id="edge6" class="edge">
<title>Node1&#45;&gt;Node7</title>
<path fill="none" stroke="midnightblue" d="M364.31,-166.02C405.49,-155.82 465.97,-140.84 503.62,-131.52"/>
<polygon fill="midnightblue" stroke="midnightblue" points="363.41,-162.64 354.54,-168.44 365.09,-169.44 363.41,-162.64"/>
</g>
<!-- Node8 -->
<g id="node8" class="node">
<title>Node8</title>
<g id="a_node8"><a xlink:href="font_8hpp.html" target="_top" xlink:title="Font class.">
<polygon fill="white" stroke="black" points="603.5,-112.5 603.5,-131.5 702.5,-131.5 702.5,-112.5 603.5,-112.5"/>
<text text-anchor="middle" x="653" y="-119.5" font-family="Helvetica,sans-Serif" font-size="10.00">boost/ui/font.hpp</text>
</a>
</g>
</g>
<!-- Node1&#45;&gt;Node8 -->
<g id="edge7" class="edge">
<title>Node1&#45;&gt;Node8</title>
<path fill="none" stroke="midnightblue" d="M382.73,-166.83C446.73,-156.45 544.73,-140.56 603.47,-131.03"/>
<polygon fill="midnightblue" stroke="midnightblue" points="382.08,-163.39 372.76,-168.44 383.2,-170.3 382.08,-163.39"/>
</g>
<!-- Node4&#45;&gt;Node5 -->
<g id="edge4" class="edge">
<title>Node4&#45;&gt;Node5</title>
<path fill="none" stroke="midnightblue" d="M467,-45.8C467,-36.91 467,-26.78 467,-19.75"/>
<polygon fill="midnightblue" stroke="midnightblue" points="463.5,-46.08 467,-56.08 470.5,-46.08 463.5,-46.08"/>
</g>
<!-- Node8&#45;&gt;Node4 -->
<g id="edge8" class="edge">
<title>Node8&#45;&gt;Node4</title>
<path fill="none" stroke="midnightblue" d="M613.62,-109.57C578.53,-99.38 527.98,-84.7 496.33,-75.52"/>
<polygon fill="midnightblue" stroke="midnightblue" points="612.95,-113.02 623.53,-112.44 614.9,-106.29 612.95,-113.02"/>
</g>
<!-- Node8&#45;&gt;Node5 -->
<g id="edge9" class="edge">
<title>Node8&#45;&gt;Node5</title>
<path fill="none" stroke="midnightblue" d="M629.34,-107.01C590.3,-83.92 513.52,-38.51 481.53,-19.59"/>
<polygon fill="midnightblue" stroke="midnightblue" points="628.02,-110.29 638.4,-112.37 631.58,-104.27 628.02,-110.29"/>
</g>
</g>
</svg>
