<?xml version="1.0" encoding="UTF-8" standalone="no"?>
<!DOCTYPE svg PUBLIC "-//W3C//DTD SVG 1.1//EN"
 "http://www.w3.org/Graphics/SVG/1.1/DTD/svg11.dtd">
<!-- Generated by graphviz version 2.38.0 (20140413.2041)
 -->
<!-- Title: boost/ui/string.hpp Pages: 1 -->
<svg width="334pt" height="140pt"
 viewBox="0.00 0.00 334.00 140.00" xmlns="http://www.w3.org/2000/svg" xmlns:xlink="http://www.w3.org/1999/xlink">
<g id="graph0" class="graph" transform="scale(1 1) rotate(0) translate(4 136)">
<title>boost/ui/string.hpp</title>
<polygon fill="white" stroke="none" points="-4,4 -4,-136 330,-136 330,4 -4,4"/>
<!-- Node1 -->
<g id="node1" class="node"><title>Node1</title>
<polygon fill="#bfbfbf" stroke="black" points="126,-112.5 126,-131.5 223,-131.5 223,-112.5 126,-112.5"/>
<text text-anchor="middle" x="174.5" y="-119.5" font-family="Helvetica,sans-Serif" font-size="10.00">boost/ui/string.hpp</text>
</g>
<!-- Node2 -->
<g id="node2" class="node"><title>Node2</title>
<g id="a_node2"><a xlink:href="config_8hpp.html" target="_top" xlink:title="Configuration options. ">
<polygon fill="white" stroke="black" points="0,-56.5 0,-75.5 99,-75.5 99,-56.5 0,-56.5"/>
<text text-anchor="middle" x="49.5" y="-63.5" font-family="Helvetica,sans-Serif" font-size="10.00">boost/ui/config.hpp</text>
</a>
</g>
</g>
<!-- Node1&#45;&gt;Node2 -->
<g id="edge1" class="edge"><title>Node1&#45;&gt;Node2</title>
<path fill="none" stroke="midnightblue" d="M154.693,-112.444C134.213,-103.596 102.017,-89.6875 78.6353,-79.5865"/>
<polygon fill="midnightblue" stroke="midnightblue" points="79.782,-76.2692 69.214,-75.5164 77.0059,-82.6953 79.782,-76.2692"/>
</g>
<!-- Node4 -->
<g id="node4" class="node"><title>Node4</title>
<polygon fill="white" stroke="#bfbfbf" points="117,-56.5 117,-75.5 158,-75.5 158,-56.5 117,-56.5"/>
<text text-anchor="middle" x="137.5" y="-63.5" font-family="Helvetica,sans-Serif" font-size="10.00">string</text>
</g>
<!-- Node1&#45;&gt;Node4 -->
<g id="edge3" class="edge"><title>Node1&#45;&gt;Node4</title>
<path fill="none" stroke="midnightblue" d="M168.39,-112.083C163.218,-104.534 155.654,-93.4948 149.306,-84.2298"/>
<polygon fill="midnightblue" stroke="midnightblue" points="152.036,-82.0221 143.496,-75.7511 146.261,-85.9787 152.036,-82.0221"/>
</g>
<!-- Node5 -->
<g id="node5" class="node"><title>Node5</title>
<polygon fill="white" stroke="#bfbfbf" points="176,-56.5 176,-75.5 249,-75.5 249,-56.5 176,-56.5"/>
<text text-anchor="middle" x="212.5" y="-63.5" font-family="Helvetica,sans-Serif" font-size="10.00">initializer_list</text>
</g>
<!-- Node1&#45;&gt;Node5 -->
<g id="edge4" class="edge"><title>Node1&#45;&gt;Node5</title>
<path fill="none" stroke="midnightblue" d="M180.775,-112.083C186.142,-104.455 194.018,-93.2645 200.579,-83.9408"/>
<polygon fill="midnightblue" stroke="midnightblue" points="203.449,-85.9434 206.342,-75.7511 197.725,-81.9149 203.449,-85.9434"/>
</g>
<!-- Node6 -->
<g id="node6" class="node"><title>Node6</title>
<polygon fill="white" stroke="#bfbfbf" points="267,-56.5 267,-75.5 326,-75.5 326,-56.5 267,-56.5"/>
<text text-anchor="middle" x="296.5" y="-63.5" font-family="Helvetica,sans-Serif" font-size="10.00">functional</text>
</g>
<!-- Node1&#45;&gt;Node6 -->
<g id="edge5" class="edge"><title>Node1&#45;&gt;Node6</title>
<path fill="none" stroke="midnightblue" d="M193.831,-112.444C213.82,-103.596 245.243,-89.6875 268.064,-79.5865"/>
<polygon fill="midnightblue" stroke="midnightblue" points="269.532,-82.7645 277.259,-75.5164 266.698,-76.3635 269.532,-82.7645"/>
</g>
<!-- Node3 -->
<g id="node3" class="node"><title>Node3</title>
<polygon fill="white" stroke="#bfbfbf" points="5,-0.5 5,-19.5 94,-19.5 94,-0.5 5,-0.5"/>
<text text-anchor="middle" x="49.5" y="-7.5" font-family="Helvetica,sans-Serif" font-size="10.00">boost/config.hpp</text>
</g>
<!-- Node2&#45;&gt;Node3 -->
<g id="edge2" class="edge"><title>Node2&#45;&gt;Node3</title>
<path fill="none" stroke="midnightblue" d="M49.5,-56.083C49.5,-49.0059 49.5,-38.8611 49.5,-29.9865"/>
<polygon fill="midnightblue" stroke="midnightblue" points="53.0001,-29.751 49.5,-19.7511 46.0001,-29.7511 53.0001,-29.751"/>
</g>
</g>
</svg>
