<?xml version="1.0" encoding="UTF-8" standalone="no"?>
<!DOCTYPE svg PUBLIC "-//W3C//DTD SVG 1.1//EN"
 "http://www.w3.org/Graphics/SVG/1.1/DTD/svg11.dtd">
<!-- Generated by graphviz version 2.38.0 (20140413.2041)
 -->
<!-- Title: boost/ui/strings_box.hpp Pages: 1 -->
<svg width="1389pt" height="330pt"
 viewBox="0.00 0.00 1389.00 330.00" xmlns="http://www.w3.org/2000/svg" xmlns:xlink="http://www.w3.org/1999/xlink">
<g id="graph0" class="graph" transform="scale(1 1) rotate(0) translate(4 326)">
<title>boost/ui/strings_box.hpp</title>
<polygon fill="white" stroke="none" points="-4,4 -4,-326 1385,-326 1385,4 -4,4"/>
<!-- Node1 -->
<g id="node1" class="node"><title>Node1</title>
<polygon fill="#bfbfbf" stroke="black" points="939,-302.5 939,-321.5 1062,-321.5 1062,-302.5 939,-302.5"/>
<text text-anchor="middle" x="1000.5" y="-309.5" font-family="Helvetica,sans-Serif" font-size="10.00">boost/ui/strings_box.hpp</text>
</g>
<!-- Node2 -->
<g id="node2" class="node"><title>Node2</title>
<g id="a_node2"><a xlink:href="config_8hpp.html" target="_top" xlink:title="Configuration options. ">
<polygon fill="white" stroke="black" points="685,-62 685,-81 784,-81 784,-62 685,-62"/>
<text text-anchor="middle" x="734.5" y="-69" font-family="Helvetica,sans-Serif" font-size="10.00">boost/ui/config.hpp</text>
</a>
</g>
</g>
<!-- Node1&#45;&gt;Node2 -->
<g id="edge1" class="edge"><title>Node1&#45;&gt;Node2</title>
<path fill="none" stroke="midnightblue" d="M938.927,-309.097C874.952,-305.521 772.745,-295.276 689.5,-266 643.264,-249.74 618.814,-252.556 594.5,-210 575.318,-176.427 572.276,-154.642 594.5,-123 600.592,-114.326 656.396,-96.0229 695.679,-83.999"/>
<polygon fill="midnightblue" stroke="midnightblue" points="696.718,-87.3414 705.27,-81.0871 694.684,-80.6433 696.718,-87.3414"/>
</g>
<!-- Node4 -->
<g id="node4" class="node"><title>Node4</title>
<g id="a_node4"><a xlink:href="widget_8hpp.html" target="_top" xlink:title="Widget class. ">
<polygon fill="white" stroke="black" points="699,-246.5 699,-265.5 800,-265.5 800,-246.5 699,-246.5"/>
<text text-anchor="middle" x="749.5" y="-253.5" font-family="Helvetica,sans-Serif" font-size="10.00">boost/ui/widget.hpp</text>
</a>
</g>
</g>
<!-- Node1&#45;&gt;Node4 -->
<g id="edge3" class="edge"><title>Node1&#45;&gt;Node4</title>
<path fill="none" stroke="midnightblue" d="M960.728,-302.444C916.942,-293.023 846.486,-277.866 799.12,-267.675"/>
<polygon fill="midnightblue" stroke="midnightblue" points="799.598,-264.198 789.086,-265.516 798.126,-271.041 799.598,-264.198"/>
</g>
<!-- Node22 -->
<g id="node22" class="node"><title>Node22</title>
<polygon fill="white" stroke="#bfbfbf" points="818.5,-246.5 818.5,-265.5 862.5,-265.5 862.5,-246.5 818.5,-246.5"/>
<text text-anchor="middle" x="840.5" y="-253.5" font-family="Helvetica,sans-Serif" font-size="10.00">vector</text>
</g>
<!-- Node1&#45;&gt;Node22 -->
<g id="edge29" class="edge"><title>Node1&#45;&gt;Node22</title>
<path fill="none" stroke="midnightblue" d="M975.148,-302.444C947.281,-293.038 902.468,-277.914 872.275,-267.724"/>
<polygon fill="midnightblue" stroke="midnightblue" points="873.236,-264.355 862.642,-264.473 870.998,-270.987 873.236,-264.355"/>
</g>
<!-- Node23 -->
<g id="node23" class="node"><title>Node23</title>
<polygon fill="white" stroke="#bfbfbf" points="881,-246.5 881,-265.5 994,-265.5 994,-246.5 881,-246.5"/>
<text text-anchor="middle" x="937.5" y="-253.5" font-family="Helvetica,sans-Serif" font-size="10.00">boost/range/begin.hpp</text>
</g>
<!-- Node1&#45;&gt;Node23 -->
<g id="edge30" class="edge"><title>Node1&#45;&gt;Node23</title>
<path fill="none" stroke="midnightblue" d="M990.378,-302.324C980.974,-294.263 966.756,-282.077 955.431,-272.369"/>
<polygon fill="midnightblue" stroke="midnightblue" points="957.677,-269.684 947.806,-265.834 953.121,-274.999 957.677,-269.684"/>
</g>
<!-- Node24 -->
<g id="node24" class="node"><title>Node24</title>
<polygon fill="white" stroke="#bfbfbf" points="1012,-246.5 1012,-265.5 1117,-265.5 1117,-246.5 1012,-246.5"/>
<text text-anchor="middle" x="1064.5" y="-253.5" font-family="Helvetica,sans-Serif" font-size="10.00">boost/range/end.hpp</text>
</g>
<!-- Node1&#45;&gt;Node24 -->
<g id="edge31" class="edge"><title>Node1&#45;&gt;Node24</title>
<path fill="none" stroke="midnightblue" d="M1010.78,-302.324C1020.34,-294.263 1034.78,-282.077 1046.28,-272.369"/>
<polygon fill="midnightblue" stroke="midnightblue" points="1048.64,-274.958 1054.03,-265.834 1044.13,-269.608 1048.64,-274.958"/>
</g>
<!-- Node25 -->
<g id="node25" class="node"><title>Node25</title>
<polygon fill="white" stroke="#bfbfbf" points="1135,-246.5 1135,-265.5 1242,-265.5 1242,-246.5 1135,-246.5"/>
<text text-anchor="middle" x="1188.5" y="-253.5" font-family="Helvetica,sans-Serif" font-size="10.00">boost/range/size.hpp</text>
</g>
<!-- Node1&#45;&gt;Node25 -->
<g id="edge32" class="edge"><title>Node1&#45;&gt;Node25</title>
<path fill="none" stroke="midnightblue" d="M1030.29,-302.444C1062.33,-293.241 1113.43,-278.562 1148.85,-268.388"/>
<polygon fill="midnightblue" stroke="midnightblue" points="1150.21,-271.641 1158.85,-265.516 1148.27,-264.913 1150.21,-271.641"/>
</g>
<!-- Node26 -->
<g id="node26" class="node"><title>Node26</title>
<polygon fill="white" stroke="#bfbfbf" points="1259.5,-246.5 1259.5,-265.5 1315.5,-265.5 1315.5,-246.5 1259.5,-246.5"/>
<text text-anchor="middle" x="1287.5" y="-253.5" font-family="Helvetica,sans-Serif" font-size="10.00">algorithm</text>
</g>
<!-- Node1&#45;&gt;Node26 -->
<g id="edge33" class="edge"><title>Node1&#45;&gt;Node26</title>
<path fill="none" stroke="midnightblue" d="M1054.08,-302.472C1102.75,-294.483 1176.74,-281.733 1249.05,-266.432"/>
<polygon fill="midnightblue" stroke="midnightblue" points="1250.19,-269.767 1259.24,-264.256 1248.73,-262.921 1250.19,-269.767"/>
</g>
<!-- Node27 -->
<g id="node27" class="node"><title>Node27</title>
<polygon fill="white" stroke="#bfbfbf" points="1334,-246.5 1334,-265.5 1381,-265.5 1381,-246.5 1334,-246.5"/>
<text text-anchor="middle" x="1357.5" y="-253.5" font-family="Helvetica,sans-Serif" font-size="10.00">iterator</text>
</g>
<!-- Node1&#45;&gt;Node27 -->
<g id="edge34" class="edge"><title>Node1&#45;&gt;Node27</title>
<path fill="none" stroke="midnightblue" d="M1062.11,-304.823C1125.41,-297.941 1226.94,-285.422 1323.83,-265.893"/>
<polygon fill="midnightblue" stroke="midnightblue" points="1324.7,-269.288 1333.79,-263.856 1323.3,-262.43 1324.7,-269.288"/>
</g>
<!-- Node3 -->
<g id="node3" class="node"><title>Node3</title>
<polygon fill="white" stroke="#bfbfbf" points="690,-0.5 690,-19.5 779,-19.5 779,-0.5 690,-0.5"/>
<text text-anchor="middle" x="734.5" y="-7.5" font-family="Helvetica,sans-Serif" font-size="10.00">boost/config.hpp</text>
</g>
<!-- Node2&#45;&gt;Node3 -->
<g id="edge2" class="edge"><title>Node2&#45;&gt;Node3</title>
<path fill="none" stroke="midnightblue" d="M734.5,-61.9751C734.5,-53.5803 734.5,-40.4806 734.5,-29.6631"/>
<polygon fill="midnightblue" stroke="midnightblue" points="738,-29.5091 734.5,-19.5091 731,-29.5091 738,-29.5091"/>
</g>
<!-- Node4&#45;&gt;Node2 -->
<g id="edge4" class="edge"><title>Node4&#45;&gt;Node2</title>
<path fill="none" stroke="midnightblue" d="M698.893,-252.169C668.031,-247.633 630.427,-236.548 608.5,-210 589.403,-186.878 602.281,-172.936 600.5,-143 599.972,-134.127 595.443,-130.31 600.5,-123 610.992,-107.834 654.325,-93.286 688.913,-83.7331"/>
<polygon fill="midnightblue" stroke="midnightblue" points="690.114,-87.0345 698.86,-81.0544 688.293,-80.2753 690.114,-87.0345"/>
</g>
<!-- Node5 -->
<g id="node5" class="node"><title>Node5</title>
<g id="a_node5"><a xlink:href="coord_8hpp.html" target="_top" xlink:title="Coordinates classes. ">
<polygon fill="white" stroke="black" points="388,-123.5 388,-142.5 485,-142.5 485,-123.5 388,-123.5"/>
<text text-anchor="middle" x="436.5" y="-130.5" font-family="Helvetica,sans-Serif" font-size="10.00">boost/ui/coord.hpp</text>
</a>
</g>
</g>
<!-- Node4&#45;&gt;Node5 -->
<g id="edge5" class="edge"><title>Node4&#45;&gt;Node5</title>
<path fill="none" stroke="midnightblue" d="M704.194,-246.497C668.498,-239.038 617.861,-226.758 575.5,-210 532.033,-192.804 485.014,-164.942 458.319,-148.156"/>
<polygon fill="midnightblue" stroke="midnightblue" points="460.08,-145.129 449.764,-142.717 456.324,-151.036 460.08,-145.129"/>
</g>
<!-- Node11 -->
<g id="node11" class="node"><title>Node11</title>
<g id="a_node11"><a xlink:href="string_8hpp.html" target="_top" xlink:title="String class and operations. ">
<polygon fill="white" stroke="black" points="889,-123.5 889,-142.5 986,-142.5 986,-123.5 889,-123.5"/>
<text text-anchor="middle" x="937.5" y="-130.5" font-family="Helvetica,sans-Serif" font-size="10.00">boost/ui/string.hpp</text>
</a>
</g>
</g>
<!-- Node4&#45;&gt;Node11 -->
<g id="edge12" class="edge"><title>Node4&#45;&gt;Node11</title>
<path fill="none" stroke="midnightblue" d="M753.732,-246.374C761.836,-230.719 781.029,-197.536 806.5,-179 828.901,-162.699 857.67,-151.956 882.54,-145.07"/>
<polygon fill="midnightblue" stroke="midnightblue" points="883.431,-148.454 892.213,-142.528 881.652,-141.684 883.431,-148.454"/>
</g>
<!-- Node15 -->
<g id="node15" class="node"><title>Node15</title>
<g id="a_node15"><a xlink:href="event_8hpp.html" target="_top" xlink:title="Event classes. ">
<polygon fill="white" stroke="black" points="618,-185 618,-204 715,-204 715,-185 618,-185"/>
<text text-anchor="middle" x="666.5" y="-192" font-family="Helvetica,sans-Serif" font-size="10.00">boost/ui/event.hpp</text>
</a>
</g>
</g>
<!-- Node4&#45;&gt;Node15 -->
<g id="edge17" class="edge"><title>Node4&#45;&gt;Node15</title>
<path fill="none" stroke="midnightblue" d="M737.608,-246.475C724.295,-236.931 702.5,-221.307 686.543,-209.868"/>
<polygon fill="midnightblue" stroke="midnightblue" points="688.536,-206.991 678.37,-204.009 684.458,-212.68 688.536,-206.991"/>
</g>
<!-- Node17 -->
<g id="node17" class="node"><title>Node17</title>
<g id="a_node17"><a xlink:href="font_8hpp.html" target="_top" xlink:title="Font class. ">
<polygon fill="white" stroke="black" points="816,-185 816,-204 905,-204 905,-185 816,-185"/>
<text text-anchor="middle" x="860.5" y="-192" font-family="Helvetica,sans-Serif" font-size="10.00">boost/ui/font.hpp</text>
</a>
</g>
</g>
<!-- Node4&#45;&gt;Node17 -->
<g id="edge21" class="edge"><title>Node4&#45;&gt;Node17</title>
<path fill="none" stroke="midnightblue" d="M765.404,-246.475C783.785,-236.622 814.256,-220.288 835.745,-208.77"/>
<polygon fill="midnightblue" stroke="midnightblue" points="837.466,-211.818 844.626,-204.009 834.159,-205.649 837.466,-211.818"/>
</g>
<!-- Node19 -->
<g id="node19" class="node"><title>Node19</title>
<g id="a_node19"><a xlink:href="layout_8hpp.html" target="_top" xlink:title="Layout classes. ">
<polygon fill="white" stroke="black" points="733,-123.5 733,-142.5 832,-142.5 832,-123.5 733,-123.5"/>
<text text-anchor="middle" x="782.5" y="-130.5" font-family="Helvetica,sans-Serif" font-size="10.00">boost/ui/layout.hpp</text>
</a>
</g>
</g>
<!-- Node4&#45;&gt;Node19 -->
<g id="edge25" class="edge"><title>Node4&#45;&gt;Node19</title>
<path fill="none" stroke="midnightblue" d="M751.873,-246.298C757.201,-226.763 770.21,-179.065 777.442,-152.547"/>
<polygon fill="midnightblue" stroke="midnightblue" points="780.894,-153.192 780.148,-142.623 774.14,-151.35 780.894,-153.192"/>
</g>
<!-- Node20 -->
<g id="node20" class="node"><title>Node20</title>
<polygon fill="white" stroke="#bfbfbf" points="923.5,-179.5 923.5,-209.5 1033.5,-209.5 1033.5,-179.5 923.5,-179.5"/>
<text text-anchor="start" x="931.5" y="-197.5" font-family="Helvetica,sans-Serif" font-size="10.00">boost/ui/detail/shared</text>
<text text-anchor="middle" x="978.5" y="-186.5" font-family="Helvetica,sans-Serif" font-size="10.00">_count.hpp</text>
</g>
<!-- Node4&#45;&gt;Node20 -->
<g id="edge27" class="edge"><title>Node4&#45;&gt;Node20</title>
<path fill="none" stroke="midnightblue" d="M782.31,-246.475C816.731,-237.532 871.703,-223.249 914.712,-212.074"/>
<polygon fill="midnightblue" stroke="midnightblue" points="915.731,-215.425 924.529,-209.523 913.97,-208.65 915.731,-215.425"/>
</g>
<!-- Node21 -->
<g id="node21" class="node"><title>Node21</title>
<polygon fill="white" stroke="#bfbfbf" points="1052,-185 1052,-204 1175,-204 1175,-185 1052,-185"/>
<text text-anchor="middle" x="1113.5" y="-192" font-family="Helvetica,sans-Serif" font-size="10.00">boost/ui/detail/event.hpp</text>
</g>
<!-- Node4&#45;&gt;Node21 -->
<g id="edge28" class="edge"><title>Node4&#45;&gt;Node21</title>
<path fill="none" stroke="midnightblue" d="M800.147,-247.36C877.643,-235.649 1019.16,-214.172 1042.5,-210 1049.24,-208.795 1056.32,-207.447 1063.3,-206.071"/>
<polygon fill="midnightblue" stroke="midnightblue" points="1064.27,-209.446 1073.39,-204.049 1062.9,-202.582 1064.27,-209.446"/>
</g>
<!-- Node5&#45;&gt;Node2 -->
<g id="edge6" class="edge"><title>Node5&#45;&gt;Node2</title>
<path fill="none" stroke="midnightblue" d="M485.179,-123.642C533.585,-115.141 609.892,-101.227 675.5,-87 680.588,-85.8966 685.907,-84.6797 691.18,-83.434"/>
<polygon fill="midnightblue" stroke="midnightblue" points="692.284,-86.7682 701.188,-81.0253 690.646,-79.9626 692.284,-86.7682"/>
</g>
<!-- Node6 -->
<g id="node6" class="node"><title>Node6</title>
<polygon fill="white" stroke="#bfbfbf" points="0,-62 0,-81 103,-81 103,-62 0,-62"/>
<text text-anchor="middle" x="51.5" y="-69" font-family="Helvetica,sans-Serif" font-size="10.00">boost/geometry.hpp</text>
</g>
<!-- Node5&#45;&gt;Node6 -->
<g id="edge7" class="edge"><title>Node5&#45;&gt;Node6</title>
<path fill="none" stroke="midnightblue" d="M387.8,-126.789C324.026,-119.615 208.879,-105.461 111.5,-87 105.972,-85.9521 100.188,-84.7241 94.4858,-83.4341"/>
<polygon fill="midnightblue" stroke="midnightblue" points="94.9164,-79.9404 84.382,-81.0704 93.3218,-86.7564 94.9164,-79.9404"/>
</g>
<!-- Node7 -->
<g id="node7" class="node"><title>Node7</title>
<polygon fill="white" stroke="#bfbfbf" points="121,-56.5 121,-86.5 256,-86.5 256,-56.5 121,-56.5"/>
<text text-anchor="start" x="129" y="-74.5" font-family="Helvetica,sans-Serif" font-size="10.00">boost/geometry/geometries</text>
<text text-anchor="middle" x="188.5" y="-63.5" font-family="Helvetica,sans-Serif" font-size="10.00">/point_xy.hpp</text>
</g>
<!-- Node5&#45;&gt;Node7 -->
<g id="edge8" class="edge"><title>Node5&#45;&gt;Node7</title>
<path fill="none" stroke="midnightblue" d="M400.968,-123.475C363.456,-114.475 303.405,-100.068 256.7,-88.8624"/>
<polygon fill="midnightblue" stroke="midnightblue" points="257.489,-85.4526 246.949,-86.523 255.856,-92.2595 257.489,-85.4526"/>
</g>
<!-- Node8 -->
<g id="node8" class="node"><title>Node8</title>
<polygon fill="white" stroke="#bfbfbf" points="274,-56.5 274,-86.5 409,-86.5 409,-56.5 274,-56.5"/>
<text text-anchor="start" x="282" y="-74.5" font-family="Helvetica,sans-Serif" font-size="10.00">boost/geometry/geometries</text>
<text text-anchor="middle" x="341.5" y="-63.5" font-family="Helvetica,sans-Serif" font-size="10.00">/box.hpp</text>
</g>
<!-- Node5&#45;&gt;Node8 -->
<g id="edge9" class="edge"><title>Node5&#45;&gt;Node8</title>
<path fill="none" stroke="midnightblue" d="M422.889,-123.475C409.782,-115.266 389.492,-102.558 372.45,-91.8845"/>
<polygon fill="midnightblue" stroke="midnightblue" points="374.222,-88.8648 363.89,-86.523 370.507,-94.7973 374.222,-88.8648"/>
</g>
<!-- Node9 -->
<g id="node9" class="node"><title>Node9</title>
<polygon fill="white" stroke="#bfbfbf" points="427,-56.5 427,-86.5 528,-86.5 528,-56.5 427,-56.5"/>
<text text-anchor="start" x="435" y="-74.5" font-family="Helvetica,sans-Serif" font-size="10.00">boost/polygon/point</text>
<text text-anchor="middle" x="477.5" y="-63.5" font-family="Helvetica,sans-Serif" font-size="10.00">_data.hpp</text>
</g>
<!-- Node5&#45;&gt;Node9 -->
<g id="edge10" class="edge"><title>Node5&#45;&gt;Node9</title>
<path fill="none" stroke="midnightblue" d="M442.374,-123.475C447.512,-116.019 455.207,-104.852 462.086,-94.8685"/>
<polygon fill="midnightblue" stroke="midnightblue" points="465.045,-96.7433 467.837,-86.523 459.281,-92.7714 465.045,-96.7433"/>
</g>
<!-- Node10 -->
<g id="node10" class="node"><title>Node10</title>
<polygon fill="white" stroke="#bfbfbf" points="546.5,-56.5 546.5,-86.5 666.5,-86.5 666.5,-56.5 546.5,-56.5"/>
<text text-anchor="start" x="554.5" y="-74.5" font-family="Helvetica,sans-Serif" font-size="10.00">boost/polygon/rectangle</text>
<text text-anchor="middle" x="606.5" y="-63.5" font-family="Helvetica,sans-Serif" font-size="10.00">_data.hpp</text>
</g>
<!-- Node5&#45;&gt;Node10 -->
<g id="edge11" class="edge"><title>Node5&#45;&gt;Node10</title>
<path fill="none" stroke="midnightblue" d="M460.857,-123.475C485.818,-114.739 525.336,-100.907 556.914,-89.855"/>
<polygon fill="midnightblue" stroke="midnightblue" points="558.152,-93.13 566.434,-86.523 555.84,-86.523 558.152,-93.13"/>
</g>
<!-- Node11&#45;&gt;Node2 -->
<g id="edge13" class="edge"><title>Node11&#45;&gt;Node2</title>
<path fill="none" stroke="midnightblue" d="M908.415,-123.475C872.915,-113.07 812.755,-95.4367 773.326,-83.8801"/>
<polygon fill="midnightblue" stroke="midnightblue" points="774.112,-80.4632 763.531,-81.0091 772.143,-87.1806 774.112,-80.4632"/>
</g>
<!-- Node12 -->
<g id="node12" class="node"><title>Node12</title>
<polygon fill="white" stroke="#bfbfbf" points="842,-62 842,-81 883,-81 883,-62 842,-62"/>
<text text-anchor="middle" x="862.5" y="-69" font-family="Helvetica,sans-Serif" font-size="10.00">string</text>
</g>
<!-- Node11&#45;&gt;Node12 -->
<g id="edge14" class="edge"><title>Node11&#45;&gt;Node12</title>
<path fill="none" stroke="midnightblue" d="M926.754,-123.475C914.947,-114.108 895.757,-98.8839 881.418,-87.5081"/>
<polygon fill="midnightblue" stroke="midnightblue" points="883.235,-84.4822 873.226,-81.0091 878.885,-89.9661 883.235,-84.4822"/>
</g>
<!-- Node13 -->
<g id="node13" class="node"><title>Node13</title>
<polygon fill="white" stroke="#bfbfbf" points="901,-62 901,-81 974,-81 974,-62 901,-62"/>
<text text-anchor="middle" x="937.5" y="-69" font-family="Helvetica,sans-Serif" font-size="10.00">initializer_list</text>
</g>
<!-- Node11&#45;&gt;Node13 -->
<g id="edge15" class="edge"><title>Node11&#45;&gt;Node13</title>
<path fill="none" stroke="midnightblue" d="M937.5,-123.475C937.5,-115.08 937.5,-101.981 937.5,-91.1631"/>
<polygon fill="midnightblue" stroke="midnightblue" points="941,-91.0091 937.5,-81.0091 934,-91.0091 941,-91.0091"/>
</g>
<!-- Node14 -->
<g id="node14" class="node"><title>Node14</title>
<polygon fill="white" stroke="#bfbfbf" points="992,-62 992,-81 1051,-81 1051,-62 992,-62"/>
<text text-anchor="middle" x="1021.5" y="-69" font-family="Helvetica,sans-Serif" font-size="10.00">functional</text>
</g>
<!-- Node11&#45;&gt;Node14 -->
<g id="edge16" class="edge"><title>Node11&#45;&gt;Node14</title>
<path fill="none" stroke="midnightblue" d="M949.535,-123.475C963.008,-113.931 985.066,-98.3073 1001.22,-86.8683"/>
<polygon fill="midnightblue" stroke="midnightblue" points="1003.35,-89.6454 1009.49,-81.0091 999.304,-83.9332 1003.35,-89.6454"/>
</g>
<!-- Node15&#45;&gt;Node2 -->
<g id="edge18" class="edge"><title>Node15&#45;&gt;Node2</title>
<path fill="none" stroke="midnightblue" d="M649.973,-184.796C627.683,-171.884 592.514,-146.629 608.5,-123 618.373,-108.406 659.701,-93.6316 692.369,-83.8663"/>
<polygon fill="midnightblue" stroke="midnightblue" points="693.566,-87.1632 702.185,-81.0023 691.605,-80.4434 693.566,-87.1632"/>
</g>
<!-- Node15&#45;&gt;Node5 -->
<g id="edge19" class="edge"><title>Node15&#45;&gt;Node5</title>
<path fill="none" stroke="midnightblue" d="M633.547,-184.975C592.898,-174.459 523.713,-156.562 479.076,-145.014"/>
<polygon fill="midnightblue" stroke="midnightblue" points="479.95,-141.625 469.392,-142.509 478.197,-148.402 479.95,-141.625"/>
</g>
<!-- Node16 -->
<g id="node16" class="node"><title>Node16</title>
<polygon fill="white" stroke="#bfbfbf" points="618,-123.5 618,-142.5 715,-142.5 715,-123.5 618,-123.5"/>
<text text-anchor="middle" x="666.5" y="-130.5" font-family="Helvetica,sans-Serif" font-size="10.00">boost/function.hpp</text>
</g>
<!-- Node15&#45;&gt;Node16 -->
<g id="edge20" class="edge"><title>Node15&#45;&gt;Node16</title>
<path fill="none" stroke="midnightblue" d="M666.5,-184.975C666.5,-176.58 666.5,-163.481 666.5,-152.663"/>
<polygon fill="midnightblue" stroke="midnightblue" points="670,-152.509 666.5,-142.509 663,-152.509 670,-152.509"/>
</g>
<!-- Node17&#45;&gt;Node2 -->
<g id="edge22" class="edge"><title>Node17&#45;&gt;Node2</title>
<path fill="none" stroke="midnightblue" d="M860.256,-184.624C859.408,-170.104 855.768,-141.079 840.5,-123 824.703,-104.295 800.397,-92.0257 779.043,-84.2705"/>
<polygon fill="midnightblue" stroke="midnightblue" points="780.075,-80.9247 769.481,-81.018 777.821,-87.5518 780.075,-80.9247"/>
</g>
<!-- Node17&#45;&gt;Node11 -->
<g id="edge23" class="edge"><title>Node17&#45;&gt;Node11</title>
<path fill="none" stroke="midnightblue" d="M871.532,-184.975C883.768,-175.52 903.729,-160.096 918.493,-148.687"/>
<polygon fill="midnightblue" stroke="midnightblue" points="920.715,-151.393 926.488,-142.509 916.435,-145.854 920.715,-151.393"/>
</g>
<!-- Node18 -->
<g id="node18" class="node"><title>Node18</title>
<polygon fill="white" stroke="#bfbfbf" points="1004,-123.5 1004,-142.5 1149,-142.5 1149,-123.5 1004,-123.5"/>
<text text-anchor="middle" x="1076.5" y="-130.5" font-family="Helvetica,sans-Serif" font-size="10.00">boost/core/scoped_enum.hpp</text>
</g>
<!-- Node17&#45;&gt;Node18 -->
<g id="edge24" class="edge"><title>Node17&#45;&gt;Node18</title>
<path fill="none" stroke="midnightblue" d="M891.448,-184.975C929.381,-174.526 993.778,-156.787 1035.72,-145.233"/>
<polygon fill="midnightblue" stroke="midnightblue" points="1036.9,-148.539 1045.61,-142.509 1035.04,-141.791 1036.9,-148.539"/>
</g>
<!-- Node19&#45;&gt;Node2 -->
<g id="edge26" class="edge"><title>Node19&#45;&gt;Node2</title>
<path fill="none" stroke="midnightblue" d="M775.623,-123.475C768.351,-114.462 756.705,-100.025 747.659,-88.8118"/>
<polygon fill="midnightblue" stroke="midnightblue" points="750.367,-86.5946 741.364,-81.0091 744.919,-90.9898 750.367,-86.5946"/>
</g>
</g>
</svg>
