<?xml version="1.0" encoding="UTF-8" standalone="no"?>
<!DOCTYPE svg PUBLIC "-//W3C//DTD SVG 1.1//EN"
 "http://www.w3.org/Graphics/SVG/1.1/DTD/svg11.dtd">
<!-- Generated by graphviz version 2.38.0 (20140413.2041)
 -->
<!-- Title: boost/ui/stringsbox.hpp Pages: 1 -->
<svg width="339pt" height="84pt"
 viewBox="0.00 0.00 338.50 84.00" xmlns="http://www.w3.org/2000/svg" xmlns:xlink="http://www.w3.org/1999/xlink">
<g id="graph0" class="graph" transform="scale(1 1) rotate(0) translate(4 80)">
<title>boost/ui/stringsbox.hpp</title>
<polygon fill="white" stroke="none" points="-4,4 -4,-80 334.5,-80 334.5,4 -4,4"/>
<!-- Node1 -->
<g id="node1" class="node"><title>Node1</title>
<polygon fill="#bfbfbf" stroke="black" points="132.5,-56.5 132.5,-75.5 250.5,-75.5 250.5,-56.5 132.5,-56.5"/>
<text text-anchor="middle" x="191.5" y="-63.5" font-family="Helvetica,sans-Serif" font-size="10.00">boost/ui/stringsbox.hpp</text>
</g>
<!-- Node2 -->
<g id="node2" class="node"><title>Node2</title>
<g id="a_node2"><a xlink:href="combo__box_8hpp.html" target="_top" xlink:title="Combo box widget. ">
<polygon fill="white" stroke="black" points="0,-0.5 0,-19.5 123,-19.5 123,-0.5 0,-0.5"/>
<text text-anchor="middle" x="61.5" y="-7.5" font-family="Helvetica,sans-Serif" font-size="10.00">boost/ui/combo_box.hpp</text>
</a>
</g>
</g>
<!-- Node1&#45;&gt;Node2 -->
<g id="edge1" class="edge"><title>Node1&#45;&gt;Node2</title>
<path fill="none" stroke="midnightblue" d="M161.415,-52.503C137.043,-42.3795 103.36,-28.388 82.0025,-19.5164"/>
<polygon fill="midnightblue" stroke="midnightblue" points="160.323,-55.8397 170.901,-56.4435 163.009,-49.3752 160.323,-55.8397"/>
</g>
<!-- Node3 -->
<g id="node3" class="node"><title>Node3</title>
<g id="a_node3"><a xlink:href="choice_8hpp.html" target="_top" xlink:title="Choice widget. ">
<polygon fill="white" stroke="black" points="141,-0.5 141,-19.5 242,-19.5 242,-0.5 141,-0.5"/>
<text text-anchor="middle" x="191.5" y="-7.5" font-family="Helvetica,sans-Serif" font-size="10.00">boost/ui/choice.hpp</text>
</a>
</g>
</g>
<!-- Node1&#45;&gt;Node3 -->
<g id="edge2" class="edge"><title>Node1&#45;&gt;Node3</title>
<path fill="none" stroke="midnightblue" d="M191.5,-45.8045C191.5,-36.9102 191.5,-26.7798 191.5,-19.7511"/>
<polygon fill="midnightblue" stroke="midnightblue" points="188,-46.083 191.5,-56.083 195,-46.083 188,-46.083"/>
</g>
<!-- Node4 -->
<g id="node4" class="node"><title>Node4</title>
<g id="a_node4"><a xlink:href="ui_8hpp.html" target="_top" xlink:title="Master Boost.UI file. ">
<polygon fill="white" stroke="black" points="260.5,-0.5 260.5,-19.5 330.5,-19.5 330.5,-0.5 260.5,-0.5"/>
<text text-anchor="middle" x="295.5" y="-7.5" font-family="Helvetica,sans-Serif" font-size="10.00">boost/ui.hpp</text>
</a>
</g>
</g>
<!-- Node1&#45;&gt;Node4 -->
<g id="edge3" class="edge"><title>Node1&#45;&gt;Node4</title>
<path fill="none" stroke="midnightblue" d="M217.328,-51.5895C236.557,-41.6052 262.245,-28.2672 278.832,-19.6545"/>
<polygon fill="midnightblue" stroke="midnightblue" points="215.471,-48.6095 208.209,-56.324 218.697,-54.822 215.471,-48.6095"/>
</g>
</g>
</svg>
