<?xml version="1.0" encoding="UTF-8" standalone="no"?>
<!DOCTYPE svg PUBLIC "-//W3C//DTD SVG 1.1//EN"
 "http://www.w3.org/Graphics/SVG/1.1/DTD/svg11.dtd">
<!-- Generated by graphviz version 2.38.0 (20140413.2041)
 -->
<!-- Title: boost/ui/string.hpp Pages: 1 -->
<svg width="2429pt" height="252pt"
 viewBox="0.00 0.00 2429.03 252.00" xmlns="http://www.w3.org/2000/svg" xmlns:xlink="http://www.w3.org/1999/xlink">
<g id="graph0" class="graph" transform="scale(1 1) rotate(0) translate(4 248)">
<title>boost/ui/string.hpp</title>
<polygon fill="white" stroke="none" points="-4,4 -4,-248 2425.03,-248 2425.03,4 -4,4"/>
<!-- Node1 -->
<g id="node1" class="node"><title>Node1</title>
<polygon fill="#bfbfbf" stroke="black" points="166.03,-224.5 166.03,-243.5 263.03,-243.5 263.03,-224.5 166.03,-224.5"/>
<text text-anchor="middle" x="214.53" y="-231.5" font-family="Helvetica,sans-Serif" font-size="10.00">boost/ui/string.hpp</text>
</g>
<!-- Node2 -->
<g id="node2" class="node"><title>Node2</title>
<g id="a_node2"><a xlink:href="widget_8hpp.html" target="_top" xlink:title="Widget class. ">
<polygon fill="white" stroke="black" points="987.03,-112.5 987.03,-131.5 1088.03,-131.5 1088.03,-112.5 987.03,-112.5"/>
<text text-anchor="middle" x="1037.53" y="-119.5" font-family="Helvetica,sans-Serif" font-size="10.00">boost/ui/widget.hpp</text>
</a>
</g>
</g>
<!-- Node1&#45;&gt;Node2 -->
<g id="edge1" class="edge"><title>Node1&#45;&gt;Node2</title>
<path fill="none" stroke="midnightblue" d="M214.541,-213.899C215.67,-198.914 219.884,-178.837 233.53,-168 292.375,-121.269 819.47,-121.291 986.796,-122.497"/>
<polygon fill="midnightblue" stroke="midnightblue" points="211.035,-214.009 214.174,-224.128 218.031,-214.261 211.035,-214.009"/>
</g>
<!-- Node8 -->
<g id="node8" class="node"><title>Node8</title>
<g id="a_node8"><a xlink:href="ui_8hpp.html" target="_top" xlink:title="Master Boost.UI file. ">
<polygon fill="white" stroke="black" points="97.5301,-0.5 97.5301,-19.5 167.53,-19.5 167.53,-0.5 97.5301,-0.5"/>
<text text-anchor="middle" x="132.53" y="-7.5" font-family="Helvetica,sans-Serif" font-size="10.00">boost/ui.hpp</text>
</a>
</g>
</g>
<!-- Node1&#45;&gt;Node8 -->
<g id="edge32" class="edge"><title>Node1&#45;&gt;Node8</title>
<path fill="none" stroke="midnightblue" d="M156.089,-225.064C103.779,-214.305 31.3289,-189.326 4.53013,-132 -20.5286,-78.3963 65.4238,-36.6962 108.886,-19.5298"/>
<polygon fill="midnightblue" stroke="midnightblue" points="155.451,-228.506 165.934,-226.972 156.783,-221.633 155.451,-228.506"/>
</g>
<!-- Node23 -->
<g id="node23" class="node"><title>Node23</title>
<g id="a_node23"><a xlink:href="string__io_8hpp.html" target="_top" xlink:title="String I/O operations. ">
<polygon fill="white" stroke="black" points="242.53,-168.5 242.53,-187.5 352.53,-187.5 352.53,-168.5 242.53,-168.5"/>
<text text-anchor="middle" x="297.53" y="-175.5" font-family="Helvetica,sans-Serif" font-size="10.00">boost/ui/string_io.hpp</text>
</a>
</g>
</g>
<!-- Node1&#45;&gt;Node23 -->
<g id="edge23" class="edge"><title>Node1&#45;&gt;Node23</title>
<path fill="none" stroke="midnightblue" d="M236.629,-218.622C251.792,-208.757 271.413,-195.992 284.228,-187.655"/>
<polygon fill="midnightblue" stroke="midnightblue" points="234.339,-215.937 227.866,-224.324 238.156,-221.804 234.339,-215.937"/>
</g>
<!-- Node24 -->
<g id="node24" class="node"><title>Node24</title>
<g id="a_node24"><a xlink:href="painter_8hpp.html" target="_top" xlink:title="Painter class. ">
<polygon fill="white" stroke="black" points="13.5301,-112.5 13.5301,-131.5 115.53,-131.5 115.53,-112.5 13.5301,-112.5"/>
<text text-anchor="middle" x="64.5301" y="-119.5" font-family="Helvetica,sans-Serif" font-size="10.00">boost/ui/painter.hpp</text>
</a>
</g>
</g>
<!-- Node1&#45;&gt;Node24 -->
<g id="edge24" class="edge"><title>Node1&#45;&gt;Node24</title>
<path fill="none" stroke="midnightblue" d="M156.238,-223.75C132.287,-217.299 105.916,-206.394 87.5301,-188 71.9591,-172.422 66.8896,-145.658 65.2697,-131.836"/>
<polygon fill="midnightblue" stroke="midnightblue" points="155.424,-227.154 165.973,-226.171 157.113,-220.361 155.424,-227.154"/>
</g>
<!-- Node25 -->
<g id="node25" class="node"><title>Node25</title>
<g id="a_node25"><a xlink:href="message_8hpp.html" target="_top" xlink:title="Display message file. ">
<polygon fill="white" stroke="black" points="371.03,-168.5 371.03,-187.5 484.03,-187.5 484.03,-168.5 371.03,-168.5"/>
<text text-anchor="middle" x="427.53" y="-175.5" font-family="Helvetica,sans-Serif" font-size="10.00">boost/ui/message.hpp</text>
</a>
</g>
</g>
<!-- Node1&#45;&gt;Node25 -->
<g id="edge26" class="edge"><title>Node1&#45;&gt;Node25</title>
<path fill="none" stroke="midnightblue" d="M258.081,-221.959C298.311,-211.76 357.233,-196.822 393.938,-187.516"/>
<polygon fill="midnightblue" stroke="midnightblue" points="257.114,-218.593 248.281,-224.444 258.834,-225.379 257.114,-218.593"/>
</g>
<!-- Node26 -->
<g id="node26" class="node"><title>Node26</title>
<g id="a_node26"><a xlink:href="log_8hpp.html" target="_top" xlink:title="Classes for logging. ">
<polygon fill="white" stroke="black" points="502.53,-168.5 502.53,-187.5 588.53,-187.5 588.53,-168.5 502.53,-168.5"/>
<text text-anchor="middle" x="545.53" y="-175.5" font-family="Helvetica,sans-Serif" font-size="10.00">boost/ui/log.hpp</text>
</a>
</g>
</g>
<!-- Node1&#45;&gt;Node26 -->
<g id="edge27" class="edge"><title>Node1&#45;&gt;Node26</title>
<path fill="none" stroke="midnightblue" d="M273.369,-223.711C329.855,-214.745 417.565,-200.7 493.53,-188 496.422,-187.517 499.403,-187.013 502.406,-186.503"/>
<polygon fill="midnightblue" stroke="midnightblue" points="272.523,-220.301 263.195,-225.324 273.619,-227.215 272.523,-220.301"/>
</g>
<!-- Node27 -->
<g id="node27" class="node"><title>Node27</title>
<g id="a_node27"><a xlink:href="font_8hpp.html" target="_top" xlink:title="Font class. ">
<polygon fill="white" stroke="black" points="97.0301,-168.5 97.0301,-187.5 186.03,-187.5 186.03,-168.5 97.0301,-168.5"/>
<text text-anchor="middle" x="141.53" y="-175.5" font-family="Helvetica,sans-Serif" font-size="10.00">boost/ui/font.hpp</text>
</a>
</g>
</g>
<!-- Node1&#45;&gt;Node27 -->
<g id="edge28" class="edge"><title>Node1&#45;&gt;Node27</title>
<path fill="none" stroke="midnightblue" d="M194.389,-218.101C181.251,-208.382 164.548,-196.027 153.472,-187.834"/>
<polygon fill="midnightblue" stroke="midnightblue" points="192.68,-221.191 202.801,-224.324 196.843,-215.563 192.68,-221.191"/>
</g>
<!-- Node3 -->
<g id="node3" class="node"><title>Node3</title>
<g id="a_node3"><a xlink:href="web__widget_8hpp.html" target="_top" xlink:title="Web widget. ">
<polygon fill="white" stroke="black" points="1961.03,-56.5 1961.03,-75.5 2086.03,-75.5 2086.03,-56.5 1961.03,-56.5"/>
<text text-anchor="middle" x="2023.53" y="-63.5" font-family="Helvetica,sans-Serif" font-size="10.00">boost/ui/web_widget.hpp</text>
</a>
</g>
</g>
<!-- Node2&#45;&gt;Node3 -->
<g id="edge2" class="edge"><title>Node2&#45;&gt;Node3</title>
<path fill="none" stroke="midnightblue" d="M1098.31,-119.586C1245.15,-115.827 1630.81,-103.901 1951.53,-76 1954.54,-75.738 1957.62,-75.446 1960.73,-75.1319"/>
<polygon fill="midnightblue" stroke="midnightblue" points="1098.06,-116.091 1088.15,-119.843 1098.24,-123.089 1098.06,-116.091"/>
</g>
<!-- Node4 -->
<g id="node4" class="node"><title>Node4</title>
<g id="a_node4"><a xlink:href="text__box_8hpp.html" target="_top" xlink:title="Text editor widgets. ">
<polygon fill="white" stroke="black" points="2104.53,-56.5 2104.53,-75.5 2214.53,-75.5 2214.53,-56.5 2104.53,-56.5"/>
<text text-anchor="middle" x="2159.53" y="-63.5" font-family="Helvetica,sans-Serif" font-size="10.00">boost/ui/text_box.hpp</text>
</a>
</g>
</g>
<!-- Node2&#45;&gt;Node4 -->
<g id="edge3" class="edge"><title>Node2&#45;&gt;Node4</title>
<path fill="none" stroke="midnightblue" d="M1098.57,-120.477C1261.06,-118.635 1717.52,-110.535 2095.53,-76 2098.44,-75.7346 2101.41,-75.4302 2104.41,-75.0976"/>
<polygon fill="midnightblue" stroke="midnightblue" points="1098.26,-116.98 1088.3,-120.589 1098.34,-123.979 1098.26,-116.98"/>
</g>
<!-- Node5 -->
<g id="node5" class="node"><title>Node5</title>
<g id="a_node5"><a xlink:href="strings__box_8hpp.html" target="_top" xlink:title="Widget with array of strings. ">
<polygon fill="white" stroke="black" points="2233.03,-56.5 2233.03,-75.5 2356.03,-75.5 2356.03,-56.5 2233.03,-56.5"/>
<text text-anchor="middle" x="2294.53" y="-63.5" font-family="Helvetica,sans-Serif" font-size="10.00">boost/ui/strings_box.hpp</text>
</a>
</g>
</g>
<!-- Node2&#45;&gt;Node5 -->
<g id="edge4" class="edge"><title>Node2&#45;&gt;Node5</title>
<path fill="none" stroke="midnightblue" d="M1098.24,-120.584C1273.19,-118.979 1793.4,-111.353 2223.53,-76 2226.63,-75.7456 2229.79,-75.455 2232.99,-75.1377"/>
<polygon fill="midnightblue" stroke="midnightblue" points="1098.17,-117.085 1088.2,-120.673 1098.23,-124.084 1098.17,-117.085"/>
</g>
<!-- Node2&#45;&gt;Node8 -->
<g id="edge22" class="edge"><title>Node2&#45;&gt;Node8</title>
<path fill="none" stroke="midnightblue" d="M976.61,-120.487C794.053,-118.572 259.744,-110.086 189.53,-76 164.146,-63.6771 145.304,-34.3985 137.086,-19.7137"/>
<polygon fill="midnightblue" stroke="midnightblue" points="976.803,-123.989 986.838,-120.591 976.874,-116.989 976.803,-123.989"/>
</g>
<!-- Node9 -->
<g id="node9" class="node"><title>Node9</title>
<g id="a_node9"><a xlink:href="slider_8hpp.html" target="_top" xlink:title="Slider widget. ">
<polygon fill="white" stroke="black" points="198.53,-56.5 198.53,-75.5 294.53,-75.5 294.53,-56.5 198.53,-56.5"/>
<text text-anchor="middle" x="246.53" y="-63.5" font-family="Helvetica,sans-Serif" font-size="10.00">boost/ui/slider.hpp</text>
</a>
</g>
</g>
<!-- Node2&#45;&gt;Node9 -->
<g id="edge8" class="edge"><title>Node2&#45;&gt;Node9</title>
<path fill="none" stroke="midnightblue" d="M976.444,-119.225C850.359,-115.127 552.268,-103.199 303.53,-76 300.642,-75.6842 297.677,-75.3244 294.689,-74.9347"/>
<polygon fill="midnightblue" stroke="midnightblue" points="976.559,-122.73 986.665,-119.552 976.783,-115.734 976.559,-122.73"/>
</g>
<!-- Node10 -->
<g id="node10" class="node"><title>Node10</title>
<g id="a_node10"><a xlink:href="progress__bar_8hpp.html" target="_top" xlink:title="Progress bar widget. ">
<polygon fill="white" stroke="black" points="313.03,-56.5 313.03,-75.5 442.03,-75.5 442.03,-56.5 313.03,-56.5"/>
<text text-anchor="middle" x="377.53" y="-63.5" font-family="Helvetica,sans-Serif" font-size="10.00">boost/ui/progress_bar.hpp</text>
</a>
</g>
</g>
<!-- Node2&#45;&gt;Node10 -->
<g id="edge9" class="edge"><title>Node2&#45;&gt;Node10</title>
<path fill="none" stroke="midnightblue" d="M976.669,-117.22C870.117,-110.402 642.902,-94.9759 451.53,-76 448.439,-75.6935 445.277,-75.3654 442.085,-75.0224"/>
<polygon fill="midnightblue" stroke="midnightblue" points="976.703,-120.729 986.906,-117.872 977.149,-113.743 976.703,-120.729"/>
</g>
<!-- Node11 -->
<g id="node11" class="node"><title>Node11</title>
<g id="a_node11"><a xlink:href="panel_8hpp.html" target="_top" xlink:title="Panel widget. ">
<polygon fill="white" stroke="black" points="460.53,-56.5 460.53,-75.5 556.53,-75.5 556.53,-56.5 460.53,-56.5"/>
<text text-anchor="middle" x="508.53" y="-63.5" font-family="Helvetica,sans-Serif" font-size="10.00">boost/ui/panel.hpp</text>
</a>
</g>
</g>
<!-- Node2&#45;&gt;Node11 -->
<g id="edge10" class="edge"><title>Node2&#45;&gt;Node11</title>
<path fill="none" stroke="midnightblue" d="M976.885,-116.351C887.075,-109.207 713.487,-94.406 566.53,-76 563.295,-75.5948 559.962,-75.1502 556.606,-74.6825"/>
<polygon fill="midnightblue" stroke="midnightblue" points="976.644,-119.843 986.889,-117.143 977.197,-112.865 976.644,-119.843"/>
</g>
<!-- Node12 -->
<g id="node12" class="node"><title>Node12</title>
<g id="a_node12"><a xlink:href="notebook_8hpp.html" target="_top" xlink:title="Notebook widget. ">
<polygon fill="white" stroke="black" points="575.03,-56.5 575.03,-75.5 688.03,-75.5 688.03,-56.5 575.03,-56.5"/>
<text text-anchor="middle" x="631.53" y="-63.5" font-family="Helvetica,sans-Serif" font-size="10.00">boost/ui/notebook.hpp</text>
</a>
</g>
</g>
<!-- Node2&#45;&gt;Node12 -->
<g id="edge11" class="edge"><title>Node2&#45;&gt;Node12</title>
<path fill="none" stroke="midnightblue" d="M976.721,-113.025C908.688,-104.086 795.198,-89.1224 697.53,-76 694.436,-75.5842 691.26,-75.156 688.054,-74.7227"/>
<polygon fill="midnightblue" stroke="midnightblue" points="976.46,-116.521 986.831,-114.353 977.372,-109.58 976.46,-116.521"/>
</g>
<!-- Node13 -->
<g id="node13" class="node"><title>Node13</title>
<g id="a_node13"><a xlink:href="menu_8hpp.html" target="_top" xlink:title="Menu classes. ">
<polygon fill="white" stroke="black" points="706.03,-56.5 706.03,-75.5 803.03,-75.5 803.03,-56.5 706.03,-56.5"/>
<text text-anchor="middle" x="754.53" y="-63.5" font-family="Helvetica,sans-Serif" font-size="10.00">boost/ui/menu.hpp</text>
</a>
</g>
</g>
<!-- Node2&#45;&gt;Node13 -->
<g id="edge12" class="edge"><title>Node2&#45;&gt;Node13</title>
<path fill="none" stroke="midnightblue" d="M982.697,-110.537C929.212,-100.332 848.859,-84.9992 799.163,-75.5164"/>
<polygon fill="midnightblue" stroke="midnightblue" points="982.209,-114.007 992.688,-112.444 983.521,-107.131 982.209,-114.007"/>
</g>
<!-- Node14 -->
<g id="node14" class="node"><title>Node14</title>
<g id="a_node14"><a xlink:href="line_8hpp.html" target="_top" xlink:title="line widget ">
<polygon fill="white" stroke="black" points="820.53,-56.5 820.53,-75.5 908.53,-75.5 908.53,-56.5 820.53,-56.5"/>
<text text-anchor="middle" x="864.53" y="-63.5" font-family="Helvetica,sans-Serif" font-size="10.00">boost/ui/line.hpp</text>
</a>
</g>
</g>
<!-- Node2&#45;&gt;Node14 -->
<g id="edge13" class="edge"><title>Node2&#45;&gt;Node14</title>
<path fill="none" stroke="midnightblue" d="M1000.48,-109.436C967.866,-99.2551 921.12,-84.664 891.814,-75.5164"/>
<polygon fill="midnightblue" stroke="midnightblue" points="999.529,-112.805 1010.12,-112.444 1001.61,-106.123 999.529,-112.805"/>
</g>
<!-- Node15 -->
<g id="node15" class="node"><title>Node15</title>
<g id="a_node15"><a xlink:href="label_8hpp.html" target="_top" xlink:title="Label widget. ">
<polygon fill="white" stroke="black" points="926.03,-56.5 926.03,-75.5 1019.03,-75.5 1019.03,-56.5 926.03,-56.5"/>
<text text-anchor="middle" x="972.53" y="-63.5" font-family="Helvetica,sans-Serif" font-size="10.00">boost/ui/label.hpp</text>
</a>
</g>
</g>
<!-- Node2&#45;&gt;Node15 -->
<g id="edge14" class="edge"><title>Node2&#45;&gt;Node15</title>
<path fill="none" stroke="midnightblue" d="M1019.26,-105.82C1007.61,-96.1452 992.931,-83.9481 983.164,-75.8339"/>
<polygon fill="midnightblue" stroke="midnightblue" points="1017.16,-108.626 1027.09,-112.324 1021.63,-103.242 1017.16,-108.626"/>
</g>
<!-- Node16 -->
<g id="node16" class="node"><title>Node16</title>
<g id="a_node16"><a xlink:href="image__widget_8hpp.html" target="_top" xlink:title="Image widget. ">
<polygon fill="white" stroke="black" points="1037.03,-56.5 1037.03,-75.5 1170.03,-75.5 1170.03,-56.5 1037.03,-56.5"/>
<text text-anchor="middle" x="1103.53" y="-63.5" font-family="Helvetica,sans-Serif" font-size="10.00">boost/ui/image_widget.hpp</text>
</a>
</g>
</g>
<!-- Node2&#45;&gt;Node16 -->
<g id="edge15" class="edge"><title>Node2&#45;&gt;Node16</title>
<path fill="none" stroke="midnightblue" d="M1056.08,-105.82C1067.91,-96.1452 1082.82,-83.9481 1092.73,-75.8339"/>
<polygon fill="midnightblue" stroke="midnightblue" points="1053.66,-103.283 1048.13,-112.324 1058.09,-108.7 1053.66,-103.283"/>
</g>
<!-- Node17 -->
<g id="node17" class="node"><title>Node17</title>
<g id="a_node17"><a xlink:href="hyperlink_8hpp.html" target="_top" xlink:title="Hyperlink widget. ">
<polygon fill="white" stroke="black" points="1188.53,-56.5 1188.53,-75.5 1300.53,-75.5 1300.53,-56.5 1188.53,-56.5"/>
<text text-anchor="middle" x="1244.53" y="-63.5" font-family="Helvetica,sans-Serif" font-size="10.00">boost/ui/hyperlink.hpp</text>
</a>
</g>
</g>
<!-- Node2&#45;&gt;Node17 -->
<g id="edge16" class="edge"><title>Node2&#45;&gt;Node17</title>
<path fill="none" stroke="midnightblue" d="M1080.35,-109.829C1119.44,-99.6333 1176.36,-84.7823 1211.88,-75.5164"/>
<polygon fill="midnightblue" stroke="midnightblue" points="1079.12,-106.533 1070.33,-112.444 1080.89,-113.306 1079.12,-106.533"/>
</g>
<!-- Node18 -->
<g id="node18" class="node"><title>Node18</title>
<g id="a_node18"><a xlink:href="group__box_8hpp.html" target="_top" xlink:title="Group box widget. ">
<polygon fill="white" stroke="black" points="1318.53,-56.5 1318.53,-75.5 1436.53,-75.5 1436.53,-56.5 1318.53,-56.5"/>
<text text-anchor="middle" x="1377.53" y="-63.5" font-family="Helvetica,sans-Serif" font-size="10.00">boost/ui/group_box.hpp</text>
</a>
</g>
</g>
<!-- Node2&#45;&gt;Node18 -->
<g id="edge17" class="edge"><title>Node2&#45;&gt;Node18</title>
<path fill="none" stroke="midnightblue" d="M1098.04,-111.39C1162.18,-101.203 1262.52,-85.267 1323.91,-75.5162"/>
<polygon fill="midnightblue" stroke="midnightblue" points="1097.39,-107.949 1088.06,-112.974 1098.49,-114.862 1097.39,-107.949"/>
</g>
<!-- Node19 -->
<g id="node19" class="node"><title>Node19</title>
<g id="a_node19"><a xlink:href="datetime_8hpp.html" target="_top" xlink:title="Date and time pickers. ">
<polygon fill="white" stroke="black" points="1454.53,-56.5 1454.53,-75.5 1564.53,-75.5 1564.53,-56.5 1454.53,-56.5"/>
<text text-anchor="middle" x="1509.53" y="-63.5" font-family="Helvetica,sans-Serif" font-size="10.00">boost/ui/datetime.hpp</text>
</a>
</g>
</g>
<!-- Node2&#45;&gt;Node19 -->
<g id="edge18" class="edge"><title>Node2&#45;&gt;Node19</title>
<path fill="none" stroke="midnightblue" d="M1098.51,-114.848C1178.32,-106.665 1322.54,-91.4269 1445.53,-76 1448.42,-75.6369 1451.39,-75.2548 1454.39,-74.8611"/>
<polygon fill="midnightblue" stroke="midnightblue" points="1097.75,-111.408 1088.15,-115.907 1098.46,-118.372 1097.75,-111.408"/>
</g>
<!-- Node20 -->
<g id="node20" class="node"><title>Node20</title>
<g id="a_node20"><a xlink:href="check__box_8hpp.html" target="_top" xlink:title="Check box widget. ">
<polygon fill="white" stroke="black" points="1582.53,-56.5 1582.53,-75.5 1702.53,-75.5 1702.53,-56.5 1582.53,-56.5"/>
<text text-anchor="middle" x="1642.53" y="-63.5" font-family="Helvetica,sans-Serif" font-size="10.00">boost/ui/check_box.hpp</text>
</a>
</g>
</g>
<!-- Node2&#45;&gt;Node20 -->
<g id="edge19" class="edge"><title>Node2&#45;&gt;Node20</title>
<path fill="none" stroke="midnightblue" d="M1098.39,-116.805C1197.9,-109.741 1401.57,-94.4231 1573.53,-76 1576.41,-75.6911 1579.36,-75.3611 1582.34,-75.0165"/>
<polygon fill="midnightblue" stroke="midnightblue" points="1097.95,-113.327 1088.23,-117.524 1098.45,-120.31 1097.95,-113.327"/>
</g>
<!-- Node21 -->
<g id="node21" class="node"><title>Node21</title>
<g id="a_node21"><a xlink:href="canvas_8hpp.html" target="_top" xlink:title="Canvas widget. ">
<polygon fill="white" stroke="black" points="1720.53,-56.5 1720.53,-75.5 1824.53,-75.5 1824.53,-56.5 1720.53,-56.5"/>
<text text-anchor="middle" x="1772.53" y="-63.5" font-family="Helvetica,sans-Serif" font-size="10.00">boost/ui/canvas.hpp</text>
</a>
</g>
</g>
<!-- Node2&#45;&gt;Node21 -->
<g id="edge20" class="edge"><title>Node2&#45;&gt;Node21</title>
<path fill="none" stroke="midnightblue" d="M1098.69,-118.553C1217.2,-113.451 1486.28,-100.098 1711.53,-76 1714.4,-75.6925 1717.35,-75.3498 1720.32,-74.9827"/>
<polygon fill="midnightblue" stroke="midnightblue" points="1098.22,-115.07 1088.38,-118.993 1098.52,-122.064 1098.22,-115.07"/>
</g>
<!-- Node22 -->
<g id="node22" class="node"><title>Node22</title>
<g id="a_node22"><a xlink:href="button_8hpp.html" target="_top" xlink:title="Button widget. ">
<polygon fill="white" stroke="black" points="1842.53,-56.5 1842.53,-75.5 1942.53,-75.5 1942.53,-56.5 1842.53,-56.5"/>
<text text-anchor="middle" x="1892.53" y="-63.5" font-family="Helvetica,sans-Serif" font-size="10.00">boost/ui/button.hpp</text>
</a>
</g>
</g>
<!-- Node2&#45;&gt;Node22 -->
<g id="edge21" class="edge"><title>Node2&#45;&gt;Node22</title>
<path fill="none" stroke="midnightblue" d="M1098.45,-119.527C1231.94,-115.868 1560.15,-104.513 1833.53,-76 1836.42,-75.699 1839.38,-75.3562 1842.36,-74.9844"/>
<polygon fill="midnightblue" stroke="midnightblue" points="1098.32,-116.029 1088.42,-119.798 1098.51,-123.027 1098.32,-116.029"/>
</g>
<!-- Node6 -->
<g id="node6" class="node"><title>Node6</title>
<g id="a_node6"><a xlink:href="combo__box_8hpp.html" target="_top" xlink:title="Combo box widget. ">
<polygon fill="white" stroke="black" points="2298.03,-0.5 2298.03,-19.5 2421.03,-19.5 2421.03,-0.5 2298.03,-0.5"/>
<text text-anchor="middle" x="2359.53" y="-7.5" font-family="Helvetica,sans-Serif" font-size="10.00">boost/ui/combo_box.hpp</text>
</a>
</g>
</g>
<!-- Node5&#45;&gt;Node6 -->
<g id="edge5" class="edge"><title>Node5&#45;&gt;Node6</title>
<path fill="none" stroke="midnightblue" d="M2312.8,-49.8197C2324.45,-40.1452 2339.13,-27.9481 2348.9,-19.8339"/>
<polygon fill="midnightblue" stroke="midnightblue" points="2310.43,-47.2416 2304.97,-56.324 2314.9,-52.6259 2310.43,-47.2416"/>
</g>
<!-- Node7 -->
<g id="node7" class="node"><title>Node7</title>
<g id="a_node7"><a xlink:href="choice_8hpp.html" target="_top" xlink:title="Choice widget. ">
<polygon fill="white" stroke="black" points="2179.03,-0.5 2179.03,-19.5 2280.03,-19.5 2280.03,-0.5 2179.03,-0.5"/>
<text text-anchor="middle" x="2229.53" y="-7.5" font-family="Helvetica,sans-Serif" font-size="10.00">boost/ui/choice.hpp</text>
</a>
</g>
</g>
<!-- Node5&#45;&gt;Node7 -->
<g id="edge6" class="edge"><title>Node5&#45;&gt;Node7</title>
<path fill="none" stroke="midnightblue" d="M2276.26,-49.8197C2264.61,-40.1452 2249.93,-27.9481 2240.16,-19.8339"/>
<polygon fill="midnightblue" stroke="midnightblue" points="2274.16,-52.6259 2284.09,-56.324 2278.63,-47.2416 2274.16,-52.6259"/>
</g>
<!-- Node5&#45;&gt;Node8 -->
<g id="edge7" class="edge"><title>Node5&#45;&gt;Node8</title>
<path fill="none" stroke="midnightblue" d="M2223.01,-56.0751C1779.28,-24.5321 404.832,-13.0294 167.58,-11.2516"/>
<polygon fill="midnightblue" stroke="midnightblue" points="2222.77,-59.5668 2233,-56.8002 2223.28,-52.5852 2222.77,-59.5668"/>
</g>
<!-- Node24&#45;&gt;Node8 -->
<g id="edge25" class="edge"><title>Node24&#45;&gt;Node8</title>
<path fill="none" stroke="midnightblue" d="M75.262,-103.64C90.0341,-79.7436 116.069,-37.6286 127.219,-19.5914"/>
<polygon fill="midnightblue" stroke="midnightblue" points="72.1472,-102.022 69.866,-112.368 78.1013,-105.703 72.1472,-102.022"/>
</g>
<!-- Node27&#45;&gt;Node2 -->
<g id="edge29" class="edge"><title>Node27&#45;&gt;Node2</title>
<path fill="none" stroke="midnightblue" d="M196.576,-168.428C197.906,-168.277 199.226,-168.134 200.53,-168 497.646,-137.425 856.368,-126.951 986.92,-124"/>
<polygon fill="midnightblue" stroke="midnightblue" points="195.742,-165.004 186.249,-169.709 196.604,-171.951 195.742,-165.004"/>
</g>
<!-- Node27&#45;&gt;Node8 -->
<g id="edge31" class="edge"><title>Node27&#45;&gt;Node8</title>
<path fill="none" stroke="midnightblue" d="M140.496,-157.93C138.544,-121.92 134.386,-45.2312 132.995,-19.5681"/>
<polygon fill="midnightblue" stroke="midnightblue" points="137.01,-158.279 141.046,-168.075 144,-157.9 137.01,-158.279"/>
</g>
<!-- Node27&#45;&gt;Node24 -->
<g id="edge30" class="edge"><title>Node27&#45;&gt;Node24</title>
<path fill="none" stroke="midnightblue" d="M120.629,-162.342C106.619,-152.517 88.6472,-139.913 76.8708,-131.655"/>
<polygon fill="midnightblue" stroke="midnightblue" points="118.962,-165.448 129.159,-168.324 122.981,-159.717 118.962,-165.448"/>
</g>
</g>
</svg>
