<?xml version="1.0" encoding="UTF-8" standalone="no"?>
<!DOCTYPE svg PUBLIC "-//W3C//DTD SVG 1.1//EN"
 "http://www.w3.org/Graphics/SVG/1.1/DTD/svg11.dtd">
<!-- Generated by graphviz version 2.43.0 (0)
 -->
<!-- Title: boost/ui/web_widget.hpp Pages: 1 -->
<svg width="1296pt" height="330pt"
 viewBox="0.00 0.00 1295.50 330.00" xmlns="http://www.w3.org/2000/svg" xmlns:xlink="http://www.w3.org/1999/xlink">
<g id="graph0" class="graph" transform="scale(1 1) rotate(0) translate(4 326)">
<title>boost/ui/web_widget.hpp</title>
<polygon fill="white" stroke="transparent" points="-4,4 -4,-326 1291.5,-326 1291.5,4 -4,4"/>
<!-- Node1 -->
<g id="node1" class="node">
<title>Node1</title>
<g id="a_node1"><a xlink:title="Web widget.">
<polygon fill="#bfbfbf" stroke="black" points="630.5,-302.5 630.5,-321.5 768.5,-321.5 768.5,-302.5 630.5,-302.5"/>
<text text-anchor="middle" x="699.5" y="-309.5" font-family="Helvetica,sans-Serif" font-size="10.00">boost/ui/web_widget.hpp</text>
</a>
</g>
</g>
<!-- Node2 -->
<g id="node2" class="node">
<title>Node2</title>
<g id="a_node2"><a xlink:href="config_8hpp.html" target="_top" xlink:title="Configuration options.">
<polygon fill="white" stroke="black" points="755.5,-62 755.5,-81 865.5,-81 865.5,-62 755.5,-62"/>
<text text-anchor="middle" x="810.5" y="-69" font-family="Helvetica,sans-Serif" font-size="10.00">boost/ui/config.hpp</text>
</a>
</g>
</g>
<!-- Node1&#45;&gt;Node2 -->
<g id="edge1" class="edge">
<title>Node1&#45;&gt;Node2</title>
<path fill="none" stroke="midnightblue" d="M692.77,-302.17C671.75,-273.44 611.15,-181.11 653.5,-123 660.42,-113.5 723.06,-95.41 767.09,-83.66"/>
<polygon fill="midnightblue" stroke="midnightblue" points="768.23,-86.98 777.01,-81.03 766.44,-80.21 768.23,-86.98"/>
</g>
<!-- Node4 -->
<g id="node4" class="node">
<title>Node4</title>
<g id="a_node4"><a xlink:href="widget_8hpp.html" target="_top" xlink:title="Widget class.">
<polygon fill="white" stroke="black" points="769,-246.5 769,-265.5 882,-265.5 882,-246.5 769,-246.5"/>
<text text-anchor="middle" x="825.5" y="-253.5" font-family="Helvetica,sans-Serif" font-size="10.00">boost/ui/widget.hpp</text>
</a>
</g>
</g>
<!-- Node1&#45;&gt;Node4 -->
<g id="edge3" class="edge">
<title>Node1&#45;&gt;Node4</title>
<path fill="none" stroke="midnightblue" d="M719.47,-302.44C740.11,-293.6 772.56,-279.69 796.13,-269.59"/>
<polygon fill="midnightblue" stroke="midnightblue" points="797.82,-272.67 805.63,-265.52 795.06,-266.24 797.82,-272.67"/>
</g>
<!-- Node3 -->
<g id="node3" class="node">
<title>Node3</title>
<g id="a_node3"><a xlink:title=" ">
<polygon fill="white" stroke="#bfbfbf" points="761.5,-0.5 761.5,-19.5 859.5,-19.5 859.5,-0.5 761.5,-0.5"/>
<text text-anchor="middle" x="810.5" y="-7.5" font-family="Helvetica,sans-Serif" font-size="10.00">boost/config.hpp</text>
</a>
</g>
</g>
<!-- Node2&#45;&gt;Node3 -->
<g id="edge2" class="edge">
<title>Node2&#45;&gt;Node3</title>
<path fill="none" stroke="midnightblue" d="M810.5,-61.98C810.5,-53.58 810.5,-40.48 810.5,-29.66"/>
<polygon fill="midnightblue" stroke="midnightblue" points="814,-29.51 810.5,-19.51 807,-29.51 814,-29.51"/>
</g>
<!-- Node4&#45;&gt;Node2 -->
<g id="edge4" class="edge">
<title>Node4&#45;&gt;Node2</title>
<path fill="none" stroke="midnightblue" d="M768.64,-253.43C734.83,-249.34 693.89,-238.28 669.5,-210 649.88,-187.25 662.5,-172.98 660.5,-143 659.91,-134.13 655.31,-130.22 660.5,-123 667.09,-113.83 727.02,-95.63 769.1,-83.76"/>
<polygon fill="midnightblue" stroke="midnightblue" points="770.16,-87.1 778.84,-81.04 768.27,-80.36 770.16,-87.1"/>
</g>
<!-- Node5 -->
<g id="node5" class="node">
<title>Node5</title>
<g id="a_node5"><a xlink:href="coord_8hpp.html" target="_top" xlink:title="Coordinates classes.">
<polygon fill="white" stroke="black" points="438,-123.5 438,-142.5 545,-142.5 545,-123.5 438,-123.5"/>
<text text-anchor="middle" x="491.5" y="-130.5" font-family="Helvetica,sans-Serif" font-size="10.00">boost/ui/coord.hpp</text>
</a>
</g>
</g>
<!-- Node4&#45;&gt;Node5 -->
<g id="edge5" class="edge">
<title>Node4&#45;&gt;Node5</title>
<path fill="none" stroke="midnightblue" d="M774.06,-246.47C735.23,-239.16 681.04,-227.09 635.5,-210 590.28,-193.03 541.28,-164.86 513.69,-148"/>
<polygon fill="midnightblue" stroke="midnightblue" points="515.21,-144.82 504.86,-142.54 511.53,-150.78 515.21,-144.82"/>
</g>
<!-- Node11 -->
<g id="node11" class="node">
<title>Node11</title>
<g id="a_node11"><a xlink:href="string_8hpp.html" target="_top" xlink:title="String class and operations.">
<polygon fill="white" stroke="black" points="970,-123.5 970,-142.5 1077,-142.5 1077,-123.5 970,-123.5"/>
<text text-anchor="middle" x="1023.5" y="-130.5" font-family="Helvetica,sans-Serif" font-size="10.00">boost/ui/string.hpp</text>
</a>
</g>
</g>
<!-- Node4&#45;&gt;Node11 -->
<g id="edge12" class="edge">
<title>Node4&#45;&gt;Node11</title>
<path fill="none" stroke="midnightblue" d="M829.81,-246.33C838.06,-230.59 857.61,-197.29 883.5,-179 906.98,-162.41 936.9,-151.71 963.04,-144.93"/>
<polygon fill="midnightblue" stroke="midnightblue" points="963.98,-148.3 972.85,-142.51 962.31,-141.5 963.98,-148.3"/>
</g>
<!-- Node15 -->
<g id="node15" class="node">
<title>Node15</title>
<g id="a_node15"><a xlink:href="event_8hpp.html" target="_top" xlink:title="Event classes.">
<polygon fill="white" stroke="black" points="678,-185 678,-204 785,-204 785,-185 678,-185"/>
<text text-anchor="middle" x="731.5" y="-192" font-family="Helvetica,sans-Serif" font-size="10.00">boost/ui/event.hpp</text>
</a>
</g>
</g>
<!-- Node4&#45;&gt;Node15 -->
<g id="edge17" class="edge">
<title>Node4&#45;&gt;Node15</title>
<path fill="none" stroke="midnightblue" d="M812.03,-246.48C796.82,-236.84 771.81,-221.02 753.7,-209.55"/>
<polygon fill="midnightblue" stroke="midnightblue" points="755.26,-206.4 744.94,-204.01 751.52,-212.31 755.26,-206.4"/>
</g>
<!-- Node17 -->
<g id="node17" class="node">
<title>Node17</title>
<g id="a_node17"><a xlink:href="font_8hpp.html" target="_top" xlink:title="Font class.">
<polygon fill="white" stroke="black" points="892,-185 892,-204 991,-204 991,-185 892,-185"/>
<text text-anchor="middle" x="941.5" y="-192" font-family="Helvetica,sans-Serif" font-size="10.00">boost/ui/font.hpp</text>
</a>
</g>
</g>
<!-- Node4&#45;&gt;Node17 -->
<g id="edge21" class="edge">
<title>Node4&#45;&gt;Node17</title>
<path fill="none" stroke="midnightblue" d="M842.12,-246.48C861.42,-236.58 893.46,-220.14 915.93,-208.62"/>
<polygon fill="midnightblue" stroke="midnightblue" points="917.61,-211.69 924.91,-204.01 914.42,-205.46 917.61,-211.69"/>
</g>
<!-- Node19 -->
<g id="node19" class="node">
<title>Node19</title>
<g id="a_node19"><a xlink:href="layout_8hpp.html" target="_top" xlink:title="Layout classes.">
<polygon fill="white" stroke="black" points="803.5,-123.5 803.5,-142.5 913.5,-142.5 913.5,-123.5 803.5,-123.5"/>
<text text-anchor="middle" x="858.5" y="-130.5" font-family="Helvetica,sans-Serif" font-size="10.00">boost/ui/layout.hpp</text>
</a>
</g>
</g>
<!-- Node4&#45;&gt;Node19 -->
<g id="edge25" class="edge">
<title>Node4&#45;&gt;Node19</title>
<path fill="none" stroke="midnightblue" d="M827.87,-246.3C833.2,-226.76 846.21,-179.06 853.44,-152.55"/>
<polygon fill="midnightblue" stroke="midnightblue" points="856.89,-153.19 856.15,-142.62 850.14,-151.35 856.89,-153.19"/>
</g>
<!-- Node20 -->
<g id="node20" class="node">
<title>Node20</title>
<g id="a_node20"><a xlink:title=" ">
<polygon fill="white" stroke="#bfbfbf" points="1009.5,-179.5 1009.5,-209.5 1131.5,-209.5 1131.5,-179.5 1009.5,-179.5"/>
<text text-anchor="start" x="1017.5" y="-197.5" font-family="Helvetica,sans-Serif" font-size="10.00">boost/ui/detail/shared</text>
<text text-anchor="middle" x="1070.5" y="-186.5" font-family="Helvetica,sans-Serif" font-size="10.00">_count.hpp</text>
</a>
</g>
</g>
<!-- Node4&#45;&gt;Node20 -->
<g id="edge27" class="edge">
<title>Node4&#45;&gt;Node20</title>
<path fill="none" stroke="midnightblue" d="M860.6,-246.48C897.58,-237.49 956.74,-223.13 1002.84,-211.93"/>
<polygon fill="midnightblue" stroke="midnightblue" points="1003.87,-215.28 1012.76,-209.52 1002.21,-208.48 1003.87,-215.28"/>
</g>
<!-- Node21 -->
<g id="node21" class="node">
<title>Node21</title>
<g id="a_node21"><a xlink:title=" ">
<polygon fill="white" stroke="#bfbfbf" points="1149.5,-185 1149.5,-204 1287.5,-204 1287.5,-185 1149.5,-185"/>
<text text-anchor="middle" x="1218.5" y="-192" font-family="Helvetica,sans-Serif" font-size="10.00">boost/ui/detail/event.hpp</text>
</a>
</g>
</g>
<!-- Node4&#45;&gt;Node21 -->
<g id="edge28" class="edge">
<title>Node4&#45;&gt;Node21</title>
<path fill="none" stroke="midnightblue" d="M882.23,-247.62C945.38,-239.24 1050.42,-224.8 1140.5,-210 1148.24,-208.73 1156.4,-207.3 1164.4,-205.86"/>
<polygon fill="midnightblue" stroke="midnightblue" points="1165.21,-209.27 1174.42,-204.03 1163.95,-202.38 1165.21,-209.27"/>
</g>
<!-- Node5&#45;&gt;Node2 -->
<g id="edge6" class="edge">
<title>Node5&#45;&gt;Node2</title>
<path fill="none" stroke="midnightblue" d="M544.38,-123.43C596.05,-114.88 676.87,-101.02 746.5,-87 752.3,-85.83 758.37,-84.54 764.37,-83.23"/>
<polygon fill="midnightblue" stroke="midnightblue" points="765.35,-86.6 774.35,-81.01 763.83,-79.76 765.35,-86.6"/>
</g>
<!-- Node6 -->
<g id="node6" class="node">
<title>Node6</title>
<g id="a_node6"><a xlink:title=" ">
<polygon fill="white" stroke="#bfbfbf" points="0,-62 0,-81 113,-81 113,-62 0,-62"/>
<text text-anchor="middle" x="56.5" y="-69" font-family="Helvetica,sans-Serif" font-size="10.00">boost/geometry.hpp</text>
</a>
</g>
</g>
<!-- Node5&#45;&gt;Node6 -->
<g id="edge7" class="edge">
<title>Node5&#45;&gt;Node6</title>
<path fill="none" stroke="midnightblue" d="M437.8,-127.06C365.76,-120.08 233.99,-106 122.5,-87 115.9,-85.87 108.95,-84.53 102.15,-83.12"/>
<polygon fill="midnightblue" stroke="midnightblue" points="102.86,-79.69 92.35,-81.02 101.39,-86.54 102.86,-79.69"/>
</g>
<!-- Node7 -->
<g id="node7" class="node">
<title>Node7</title>
<g id="a_node7"><a xlink:title=" ">
<polygon fill="white" stroke="#bfbfbf" points="131.5,-56.5 131.5,-86.5 283.5,-86.5 283.5,-56.5 131.5,-56.5"/>
<text text-anchor="start" x="139.5" y="-74.5" font-family="Helvetica,sans-Serif" font-size="10.00">boost/geometry/geometries</text>
<text text-anchor="middle" x="207.5" y="-63.5" font-family="Helvetica,sans-Serif" font-size="10.00">/point_xy.hpp</text>
</a>
</g>
</g>
<!-- Node5&#45;&gt;Node7 -->
<g id="edge8" class="edge">
<title>Node5&#45;&gt;Node7</title>
<path fill="none" stroke="midnightblue" d="M450.81,-123.48C407.49,-114.4 337.93,-99.83 284.26,-88.58"/>
<polygon fill="midnightblue" stroke="midnightblue" points="284.94,-85.15 274.43,-86.52 283.5,-92 284.94,-85.15"/>
</g>
<!-- Node8 -->
<g id="node8" class="node">
<title>Node8</title>
<g id="a_node8"><a xlink:title=" ">
<polygon fill="white" stroke="#bfbfbf" points="301.5,-56.5 301.5,-86.5 453.5,-86.5 453.5,-56.5 301.5,-56.5"/>
<text text-anchor="start" x="309.5" y="-74.5" font-family="Helvetica,sans-Serif" font-size="10.00">boost/geometry/geometries</text>
<text text-anchor="middle" x="377.5" y="-63.5" font-family="Helvetica,sans-Serif" font-size="10.00">/box.hpp</text>
</a>
</g>
</g>
<!-- Node5&#45;&gt;Node8 -->
<g id="edge9" class="edge">
<title>Node5&#45;&gt;Node8</title>
<path fill="none" stroke="midnightblue" d="M475.17,-123.48C459.08,-115.08 433.97,-101.97 413.24,-91.15"/>
<polygon fill="midnightblue" stroke="midnightblue" points="414.85,-88.05 404.37,-86.52 411.61,-94.25 414.85,-88.05"/>
</g>
<!-- Node9 -->
<g id="node9" class="node">
<title>Node9</title>
<g id="a_node9"><a xlink:title=" ">
<polygon fill="white" stroke="#bfbfbf" points="472,-56.5 472,-86.5 585,-86.5 585,-56.5 472,-56.5"/>
<text text-anchor="start" x="480" y="-74.5" font-family="Helvetica,sans-Serif" font-size="10.00">boost/polygon/point</text>
<text text-anchor="middle" x="528.5" y="-63.5" font-family="Helvetica,sans-Serif" font-size="10.00">_data.hpp</text>
</a>
</g>
</g>
<!-- Node5&#45;&gt;Node9 -->
<g id="edge10" class="edge">
<title>Node5&#45;&gt;Node9</title>
<path fill="none" stroke="midnightblue" d="M496.8,-123.48C501.39,-116.09 508.24,-105.08 514.4,-95.17"/>
<polygon fill="midnightblue" stroke="midnightblue" points="517.47,-96.86 519.78,-86.52 511.53,-93.17 517.47,-96.86"/>
</g>
<!-- Node10 -->
<g id="node10" class="node">
<title>Node10</title>
<g id="a_node10"><a xlink:title=" ">
<polygon fill="white" stroke="#bfbfbf" points="603.5,-56.5 603.5,-86.5 737.5,-86.5 737.5,-56.5 603.5,-56.5"/>
<text text-anchor="start" x="611.5" y="-74.5" font-family="Helvetica,sans-Serif" font-size="10.00">boost/polygon/rectangle</text>
<text text-anchor="middle" x="670.5" y="-63.5" font-family="Helvetica,sans-Serif" font-size="10.00">_data.hpp</text>
</a>
</g>
</g>
<!-- Node5&#45;&gt;Node10 -->
<g id="edge11" class="edge">
<title>Node5&#45;&gt;Node10</title>
<path fill="none" stroke="midnightblue" d="M517.15,-123.48C543.54,-114.7 585.4,-100.79 618.72,-89.71"/>
<polygon fill="midnightblue" stroke="midnightblue" points="619.93,-93 628.31,-86.52 617.72,-86.36 619.93,-93"/>
</g>
<!-- Node11&#45;&gt;Node2 -->
<g id="edge13" class="edge">
<title>Node11&#45;&gt;Node2</title>
<path fill="none" stroke="midnightblue" d="M992.98,-123.48C955.58,-113.03 892.07,-95.29 850.71,-83.73"/>
<polygon fill="midnightblue" stroke="midnightblue" points="851.53,-80.33 840.96,-81.01 849.65,-87.07 851.53,-80.33"/>
</g>
<!-- Node12 -->
<g id="node12" class="node">
<title>Node12</title>
<g id="a_node12"><a xlink:title=" ">
<polygon fill="white" stroke="#bfbfbf" points="919.5,-62 919.5,-81 963.5,-81 963.5,-62 919.5,-62"/>
<text text-anchor="middle" x="941.5" y="-69" font-family="Helvetica,sans-Serif" font-size="10.00">string</text>
</a>
</g>
</g>
<!-- Node11&#45;&gt;Node12 -->
<g id="edge14" class="edge">
<title>Node11&#45;&gt;Node12</title>
<path fill="none" stroke="midnightblue" d="M1011.75,-123.48C998.72,-114.02 977.46,-98.6 961.74,-87.19"/>
<polygon fill="midnightblue" stroke="midnightblue" points="963.38,-84.05 953.23,-81.01 959.27,-89.71 963.38,-84.05"/>
</g>
<!-- Node13 -->
<g id="node13" class="node">
<title>Node13</title>
<g id="a_node13"><a xlink:title=" ">
<polygon fill="white" stroke="#bfbfbf" points="982,-62 982,-81 1065,-81 1065,-62 982,-62"/>
<text text-anchor="middle" x="1023.5" y="-69" font-family="Helvetica,sans-Serif" font-size="10.00">initializer_list</text>
</a>
</g>
</g>
<!-- Node11&#45;&gt;Node13 -->
<g id="edge15" class="edge">
<title>Node11&#45;&gt;Node13</title>
<path fill="none" stroke="midnightblue" d="M1023.5,-123.48C1023.5,-115.08 1023.5,-101.98 1023.5,-91.16"/>
<polygon fill="midnightblue" stroke="midnightblue" points="1027,-91.01 1023.5,-81.01 1020,-91.01 1027,-91.01"/>
</g>
<!-- Node14 -->
<g id="node14" class="node">
<title>Node14</title>
<g id="a_node14"><a xlink:title=" ">
<polygon fill="white" stroke="#bfbfbf" points="1083,-62 1083,-81 1148,-81 1148,-62 1083,-62"/>
<text text-anchor="middle" x="1115.5" y="-69" font-family="Helvetica,sans-Serif" font-size="10.00">functional</text>
</a>
</g>
</g>
<!-- Node11&#45;&gt;Node14 -->
<g id="edge16" class="edge">
<title>Node11&#45;&gt;Node14</title>
<path fill="none" stroke="midnightblue" d="M1036.68,-123.48C1051.57,-113.84 1076.04,-98.02 1093.77,-86.55"/>
<polygon fill="midnightblue" stroke="midnightblue" points="1095.85,-89.38 1102.34,-81.01 1092.05,-83.5 1095.85,-89.38"/>
</g>
<!-- Node15&#45;&gt;Node2 -->
<g id="edge18" class="edge">
<title>Node15&#45;&gt;Node2</title>
<path fill="none" stroke="midnightblue" d="M713.89,-184.89C690.12,-172.1 652.61,-146.99 669.5,-123 680.55,-107.31 725.74,-92.92 762.02,-83.55"/>
<polygon fill="midnightblue" stroke="midnightblue" points="763.14,-86.88 771.99,-81.05 761.43,-80.09 763.14,-86.88"/>
</g>
<!-- Node15&#45;&gt;Node5 -->
<g id="edge19" class="edge">
<title>Node15&#45;&gt;Node5</title>
<path fill="none" stroke="midnightblue" d="M697.11,-184.98C654.61,-174.44 582.2,-156.49 535.63,-144.94"/>
<polygon fill="midnightblue" stroke="midnightblue" points="536.37,-141.52 525.82,-142.51 534.69,-148.31 536.37,-141.52"/>
</g>
<!-- Node16 -->
<g id="node16" class="node">
<title>Node16</title>
<g id="a_node16"><a xlink:title=" ">
<polygon fill="white" stroke="#bfbfbf" points="678,-123.5 678,-142.5 785,-142.5 785,-123.5 678,-123.5"/>
<text text-anchor="middle" x="731.5" y="-130.5" font-family="Helvetica,sans-Serif" font-size="10.00">boost/function.hpp</text>
</a>
</g>
</g>
<!-- Node15&#45;&gt;Node16 -->
<g id="edge20" class="edge">
<title>Node15&#45;&gt;Node16</title>
<path fill="none" stroke="midnightblue" d="M731.5,-184.98C731.5,-176.58 731.5,-163.48 731.5,-152.66"/>
<polygon fill="midnightblue" stroke="midnightblue" points="735,-152.51 731.5,-142.51 728,-152.51 735,-152.51"/>
</g>
<!-- Node17&#45;&gt;Node2 -->
<g id="edge22" class="edge">
<title>Node17&#45;&gt;Node2</title>
<path fill="none" stroke="midnightblue" d="M941.44,-184.6C940.89,-170.03 937.78,-140.95 922.5,-123 906.3,-103.97 881.47,-91.78 859.3,-84.16"/>
<polygon fill="midnightblue" stroke="midnightblue" points="860.26,-80.79 849.67,-81.07 858.12,-87.46 860.26,-80.79"/>
</g>
<!-- Node17&#45;&gt;Node11 -->
<g id="edge23" class="edge">
<title>Node17&#45;&gt;Node11</title>
<path fill="none" stroke="midnightblue" d="M953.25,-184.98C966.28,-175.52 987.54,-160.1 1003.26,-148.69"/>
<polygon fill="midnightblue" stroke="midnightblue" points="1005.73,-151.21 1011.77,-142.51 1001.62,-145.55 1005.73,-151.21"/>
</g>
<!-- Node18 -->
<g id="node18" class="node">
<title>Node18</title>
<g id="a_node18"><a xlink:title=" ">
<polygon fill="white" stroke="#bfbfbf" points="1095,-123.5 1095,-142.5 1254,-142.5 1254,-123.5 1095,-123.5"/>
<text text-anchor="middle" x="1174.5" y="-130.5" font-family="Helvetica,sans-Serif" font-size="10.00">boost/core/scoped_enum.hpp</text>
</a>
</g>
</g>
<!-- Node17&#45;&gt;Node18 -->
<g id="edge24" class="edge">
<title>Node17&#45;&gt;Node18</title>
<path fill="none" stroke="midnightblue" d="M974.88,-184.98C1016.06,-174.46 1086.15,-156.56 1131.37,-145.01"/>
<polygon fill="midnightblue" stroke="midnightblue" points="1132.36,-148.37 1141.18,-142.51 1130.62,-141.59 1132.36,-148.37"/>
</g>
<!-- Node19&#45;&gt;Node2 -->
<g id="edge26" class="edge">
<title>Node19&#45;&gt;Node2</title>
<path fill="none" stroke="midnightblue" d="M851.62,-123.48C844.35,-114.46 832.7,-100.02 823.66,-88.81"/>
<polygon fill="midnightblue" stroke="midnightblue" points="826.37,-86.59 817.36,-81.01 820.92,-90.99 826.37,-86.59"/>
</g>
</g>
</svg>
