<?xml version="1.0" encoding="UTF-8" standalone="no"?>
<!DOCTYPE svg PUBLIC "-//W3C//DTD SVG 1.1//EN"
 "http://www.w3.org/Graphics/SVG/1.1/DTD/svg11.dtd">
<!-- Generated by graphviz version 2.43.0 (0)
 -->
<!-- Title: boost/ui/web_widget.hpp Pages: 1 -->
<svg width="4769pt" height="341pt"
 viewBox="0.00 0.00 4768.98 341.00" xmlns="http://www.w3.org/2000/svg" xmlns:xlink="http://www.w3.org/1999/xlink">
<g id="graph0" class="graph" transform="scale(1 1) rotate(0) translate(4 337)">
<title>boost/ui/web_widget.hpp</title>
<polygon fill="white" stroke="transparent" points="-4,4 -4,-337 4764.98,-337 4764.98,4 -4,4"/>
<!-- Node1 -->
<g id="node1" class="node">
<title>Node1</title>
<g id="a_node1"><a xlink:title="Web widget.">
<polygon fill="#bfbfbf" stroke="black" points="1485.5,-313.5 1485.5,-332.5 1623.5,-332.5 1623.5,-313.5 1485.5,-313.5"/>
<text text-anchor="middle" x="1554.5" y="-320.5" font-family="Helvetica,sans-Serif" font-size="10.00">boost/ui/web_widget.hpp</text>
</a>
</g>
</g>
<!-- Node2 -->
<g id="node2" class="node">
<title>Node2</title>
<g id="a_node2"><a xlink:href="config_8hpp.html" target="_top" xlink:title="Configuration options.">
<polygon fill="white" stroke="black" points="1456,-62 1456,-81 1565,-81 1565,-62 1456,-62"/>
<text text-anchor="middle" x="1510.5" y="-69" font-family="Helvetica,sans-Serif" font-size="10.00">boost/ui/config.hpp</text>
</a>
</g>
</g>
<!-- Node1&#45;&gt;Node2 -->
<g id="edge1" class="edge">
<title>Node1&#45;&gt;Node2</title>
<path fill="none" stroke="midnightblue" d="M1492.09,-313.48C1399.32,-299.4 1232.11,-268.05 1196.5,-221 1169.95,-185.92 1177.97,-152.62 1210.5,-123 1249.73,-87.28 1394.37,-96.87 1446.5,-87 1452.45,-85.87 1458.69,-84.59 1464.84,-83.26"/>
<polygon fill="midnightblue" stroke="midnightblue" points="1466.04,-86.58 1475.05,-81.01 1464.53,-79.75 1466.04,-86.58"/>
</g>
<!-- Node4 -->
<g id="node4" class="node">
<title>Node4</title>
<g id="a_node4"><a xlink:href="widget_8hpp.html" target="_top" xlink:title="Widget class.">
<polygon fill="white" stroke="red" points="1940,-257.5 1940,-276.5 2053,-276.5 2053,-257.5 1940,-257.5"/>
<text text-anchor="middle" x="1996.5" y="-264.5" font-family="Helvetica,sans-Serif" font-size="10.00">boost/ui/widget.hpp</text>
</a>
</g>
</g>
<!-- Node1&#45;&gt;Node4 -->
<g id="edge3" class="edge">
<title>Node1&#45;&gt;Node4</title>
<path fill="none" stroke="midnightblue" d="M1623.56,-313.56C1707.24,-303.34 1847.23,-286.24 1929.82,-276.15"/>
<polygon fill="midnightblue" stroke="midnightblue" points="1930.34,-279.61 1939.85,-274.92 1929.5,-272.66 1930.34,-279.61"/>
</g>
<!-- Node3 -->
<g id="node3" class="node">
<title>Node3</title>
<g id="a_node3"><a xlink:title=" ">
<polygon fill="white" stroke="#bfbfbf" points="1462,-0.5 1462,-19.5 1559,-19.5 1559,-0.5 1462,-0.5"/>
<text text-anchor="middle" x="1510.5" y="-7.5" font-family="Helvetica,sans-Serif" font-size="10.00">boost/config.hpp</text>
</a>
</g>
</g>
<!-- Node2&#45;&gt;Node3 -->
<g id="edge2" class="edge">
<title>Node2&#45;&gt;Node3</title>
<path fill="none" stroke="midnightblue" d="M1510.5,-61.98C1510.5,-53.58 1510.5,-40.48 1510.5,-29.66"/>
<polygon fill="midnightblue" stroke="midnightblue" points="1514,-29.51 1510.5,-19.51 1507,-29.51 1514,-29.51"/>
</g>
<!-- Node4&#45;&gt;Node2 -->
<g id="edge4" class="edge">
<title>Node4&#45;&gt;Node2</title>
<path fill="none" stroke="midnightblue" d="M1939.94,-264.16C1824.16,-259.86 1568.58,-247.45 1539.5,-221 1502.98,-187.79 1504.45,-123.31 1507.81,-91.37"/>
<polygon fill="midnightblue" stroke="midnightblue" points="1511.32,-91.55 1509.07,-81.2 1504.37,-90.69 1511.32,-91.55"/>
</g>
<!-- Node4&#45;&gt;Node3 -->
<g id="edge56" class="edge">
<title>Node4&#45;&gt;Node3</title>
<path fill="none" stroke="midnightblue" d="M2053.27,-266.17C2442.44,-267.17 4702.45,-270.86 4751.5,-221 4764.59,-207.69 4763.5,-193.29 4751.5,-179 4644.97,-52.14 1998.13,-16.57 1569.02,-11.63"/>
<polygon fill="midnightblue" stroke="midnightblue" points="1569.05,-8.13 1559.01,-11.52 1568.97,-15.13 1569.05,-8.13"/>
</g>
<!-- Node5 -->
<g id="node5" class="node">
<title>Node5</title>
<g id="a_node5"><a xlink:href="coord_8hpp.html" target="_top" xlink:title="Coordinates classes.">
<polygon fill="white" stroke="red" points="788,-123.5 788,-142.5 895,-142.5 895,-123.5 788,-123.5"/>
<text text-anchor="middle" x="841.5" y="-130.5" font-family="Helvetica,sans-Serif" font-size="10.00">boost/ui/coord.hpp</text>
</a>
</g>
</g>
<!-- Node4&#45;&gt;Node5 -->
<g id="edge5" class="edge">
<title>Node4&#45;&gt;Node5</title>
<path fill="none" stroke="midnightblue" d="M1939.99,-266.42C1729.92,-267.59 1001.39,-268.18 909.5,-221 880.48,-206.1 860,-172.57 849.52,-151.76"/>
<polygon fill="midnightblue" stroke="midnightblue" points="852.66,-150.21 845.19,-142.7 846.35,-153.24 852.66,-150.21"/>
</g>
<!-- Node8 -->
<g id="node6" class="node">
<title>Node8</title>
<g id="a_node6"><a xlink:title=" ">
<polygon fill="white" stroke="#bfbfbf" points="0,-62 0,-81 53,-81 53,-62 0,-62"/>
<text text-anchor="middle" x="26.5" y="-69" font-family="Helvetica,sans-Serif" font-size="10.00">cstddef</text>
</a>
</g>
</g>
<!-- Node4&#45;&gt;Node8 -->
<g id="edge73" class="edge">
<title>Node4&#45;&gt;Node8</title>
<path fill="none" stroke="midnightblue" d="M1939.56,-266.08C1662.21,-266.23 459.56,-264.38 298.5,-221 195.19,-193.17 88.26,-118.97 45.67,-87.24"/>
<polygon fill="midnightblue" stroke="midnightblue" points="47.67,-84.36 37.58,-81.14 43.46,-89.95 47.67,-84.36"/>
</g>
<!-- Node22 -->
<g id="node7" class="node">
<title>Node22</title>
<g id="a_node7"><a xlink:title=" ">
<polygon fill="white" stroke="#bfbfbf" points="71.5,-62 71.5,-81 169.5,-81 169.5,-62 71.5,-62"/>
<text text-anchor="middle" x="120.5" y="-69" font-family="Helvetica,sans-Serif" font-size="10.00">boost/assert.hpp</text>
</a>
</g>
</g>
<!-- Node4&#45;&gt;Node22 -->
<g id="edge68" class="edge">
<title>Node4&#45;&gt;Node22</title>
<path fill="none" stroke="midnightblue" d="M1939.82,-265.88C1674.26,-265.12 559.83,-259.63 409.5,-221 300.63,-193.03 186.14,-118.62 140.75,-87.02"/>
<polygon fill="midnightblue" stroke="midnightblue" points="142.56,-84.02 132.37,-81.13 138.54,-89.75 142.56,-84.02"/>
</g>
<!-- Node86 -->
<g id="node8" class="node">
<title>Node86</title>
<g id="a_node8"><a xlink:title=" ">
<polygon fill="white" stroke="#bfbfbf" points="187.5,-56.5 187.5,-86.5 297.5,-86.5 297.5,-56.5 187.5,-56.5"/>
<text text-anchor="start" x="195.5" y="-74.5" font-family="Helvetica,sans-Serif" font-size="10.00">boost/preprocessor</text>
<text text-anchor="middle" x="242.5" y="-63.5" font-family="Helvetica,sans-Serif" font-size="10.00">/cat.hpp</text>
</a>
</g>
</g>
<!-- Node4&#45;&gt;Node86 -->
<g id="edge44" class="edge">
<title>Node4&#45;&gt;Node86</title>
<path fill="none" stroke="midnightblue" d="M1939.77,-265.84C1685.09,-264.9 653.69,-258.78 514.5,-221 416.74,-194.46 315.65,-126.63 269.01,-92.61"/>
<polygon fill="midnightblue" stroke="midnightblue" points="271.07,-89.78 260.94,-86.66 266.92,-95.41 271.07,-89.78"/>
</g>
<!-- Node105 -->
<g id="node9" class="node">
<title>Node105</title>
<g id="a_node9"><a xlink:title=" ">
<polygon fill="white" stroke="#bfbfbf" points="1310,-62 1310,-81 1375,-81 1375,-62 1310,-62"/>
<text text-anchor="middle" x="1342.5" y="-69" font-family="Helvetica,sans-Serif" font-size="10.00">functional</text>
</a>
</g>
</g>
<!-- Node4&#45;&gt;Node105 -->
<g id="edge30" class="edge">
<title>Node4&#45;&gt;Node105</title>
<path fill="none" stroke="midnightblue" d="M1939.89,-265.01C1758.47,-261.56 1201.77,-248.75 1175.5,-221 1145.21,-189 1160.2,-155 1190.5,-123 1225.87,-85.65 1251.74,-103.39 1300.5,-87 1303.08,-86.13 1305.76,-85.23 1308.44,-84.31"/>
<polygon fill="midnightblue" stroke="midnightblue" points="1309.77,-87.56 1318.09,-81 1307.5,-80.93 1309.77,-87.56"/>
</g>
<!-- Node112 -->
<g id="node10" class="node">
<title>Node112</title>
<g id="a_node10"><a xlink:title=" ">
<polygon fill="white" stroke="#bfbfbf" points="316,-56.5 316,-86.5 427,-86.5 427,-56.5 316,-56.5"/>
<text text-anchor="start" x="324" y="-74.5" font-family="Helvetica,sans-Serif" font-size="10.00">boost/preprocessor</text>
<text text-anchor="middle" x="371.5" y="-63.5" font-family="Helvetica,sans-Serif" font-size="10.00">/arithmetic/dec.hpp</text>
</a>
</g>
</g>
<!-- Node4&#45;&gt;Node112 -->
<g id="edge40" class="edge">
<title>Node4&#45;&gt;Node112</title>
<path fill="none" stroke="midnightblue" d="M1939.99,-265.92C1695.49,-265.34 735.25,-260.54 606.5,-221 520.18,-194.49 434.5,-127.4 394.64,-93.21"/>
<polygon fill="midnightblue" stroke="midnightblue" points="396.92,-90.55 387.07,-86.64 392.33,-95.84 396.92,-90.55"/>
</g>
<!-- Node119 -->
<g id="node11" class="node">
<title>Node119</title>
<g id="a_node11"><a xlink:title=" ">
<polygon fill="white" stroke="#bfbfbf" points="445.5,-56.5 445.5,-86.5 555.5,-86.5 555.5,-56.5 445.5,-56.5"/>
<text text-anchor="start" x="453.5" y="-74.5" font-family="Helvetica,sans-Serif" font-size="10.00">boost/preprocessor</text>
<text text-anchor="middle" x="500.5" y="-63.5" font-family="Helvetica,sans-Serif" font-size="10.00">/tuple/elem.hpp</text>
</a>
</g>
</g>
<!-- Node4&#45;&gt;Node119 -->
<g id="edge47" class="edge">
<title>Node4&#45;&gt;Node119</title>
<path fill="none" stroke="midnightblue" d="M1939.75,-266.2C1702.92,-266.73 800.19,-265.76 681.5,-221 611.38,-194.55 548.38,-129.17 518.61,-94.66"/>
<polygon fill="midnightblue" stroke="midnightblue" points="520.91,-91.96 511.77,-86.59 515.57,-96.48 520.91,-91.96"/>
</g>
<!-- Node150 -->
<g id="node12" class="node">
<title>Node150</title>
<g id="a_node12"><a xlink:title=" ">
<polygon fill="white" stroke="#bfbfbf" points="573.5,-62 573.5,-81 637.5,-81 637.5,-62 573.5,-62"/>
<text text-anchor="middle" x="605.5" y="-69" font-family="Helvetica,sans-Serif" font-size="10.00">algorithm</text>
</a>
</g>
</g>
<!-- Node4&#45;&gt;Node150 -->
<g id="edge51" class="edge">
<title>Node4&#45;&gt;Node150</title>
<path fill="none" stroke="midnightblue" d="M1939.73,-265.18C1702.15,-261.58 797.49,-246.27 742.5,-221 680.98,-192.73 634.34,-122.66 615.12,-89.9"/>
<polygon fill="midnightblue" stroke="midnightblue" points="618.05,-87.97 610.05,-81.02 611.97,-91.44 618.05,-87.97"/>
</g>
<!-- Node181 -->
<g id="node13" class="node">
<title>Node181</title>
<g id="a_node13"><a xlink:title=" ">
<polygon fill="white" stroke="#bfbfbf" points="655.5,-62 655.5,-81 699.5,-81 699.5,-62 655.5,-62"/>
<text text-anchor="middle" x="677.5" y="-69" font-family="Helvetica,sans-Serif" font-size="10.00">limits</text>
</a>
</g>
</g>
<!-- Node4&#45;&gt;Node181 -->
<g id="edge59" class="edge">
<title>Node4&#45;&gt;Node181</title>
<path fill="none" stroke="midnightblue" d="M1939.9,-265.17C1709.26,-261.62 850.08,-246.7 798.5,-221 741.56,-192.63 702.15,-123.74 685.87,-90.73"/>
<polygon fill="midnightblue" stroke="midnightblue" points="688.87,-88.88 681.4,-81.37 682.55,-91.9 688.87,-88.88"/>
</g>
<!-- Node189 -->
<g id="node14" class="node">
<title>Node189</title>
<g id="a_node14"><a xlink:title=" ">
<polygon fill="white" stroke="#bfbfbf" points="718,-62 718,-81 813,-81 813,-62 718,-62"/>
<text text-anchor="middle" x="765.5" y="-69" font-family="Helvetica,sans-Serif" font-size="10.00">boost/limits.hpp</text>
</a>
</g>
</g>
<!-- Node4&#45;&gt;Node189 -->
<g id="edge58" class="edge">
<title>Node4&#45;&gt;Node189</title>
<path fill="none" stroke="midnightblue" d="M1939.69,-266.03C1724.06,-265.82 963.31,-262.16 863.5,-221 816.1,-201.45 803.32,-187.86 778.5,-143 769.67,-127.03 766.69,-106.23 765.75,-91.37"/>
<polygon fill="midnightblue" stroke="midnightblue" points="769.25,-91.2 765.38,-81.34 762.25,-91.46 769.25,-91.2"/>
</g>
<!-- Node192 -->
<g id="node15" class="node">
<title>Node192</title>
<g id="a_node15"><a xlink:title=" ">
<polygon fill="white" stroke="#bfbfbf" points="870,-62 870,-81 923,-81 923,-62 870,-62"/>
<text text-anchor="middle" x="896.5" y="-69" font-family="Helvetica,sans-Serif" font-size="10.00">limits.h</text>
</a>
</g>
</g>
<!-- Node4&#45;&gt;Node192 -->
<g id="edge60" class="edge">
<title>Node4&#45;&gt;Node192</title>
<path fill="none" stroke="midnightblue" d="M1939.81,-265.67C1747.61,-264.23 1128.09,-256.84 1046.5,-221 981.46,-192.43 928.9,-121.97 907.23,-89.45"/>
<polygon fill="midnightblue" stroke="midnightblue" points="910.12,-87.47 901.73,-81 904.25,-91.29 910.12,-87.47"/>
</g>
<!-- Node206 -->
<g id="node16" class="node">
<title>Node206</title>
<g id="a_node16"><a xlink:title=" ">
<polygon fill="white" stroke="#bfbfbf" points="941,-62 941,-81 1006,-81 1006,-62 941,-62"/>
<text text-anchor="middle" x="973.5" y="-69" font-family="Helvetica,sans-Serif" font-size="10.00">stdexcept</text>
</a>
</g>
</g>
<!-- Node4&#45;&gt;Node206 -->
<g id="edge65" class="edge">
<title>Node4&#45;&gt;Node206</title>
<path fill="none" stroke="midnightblue" d="M1939.75,-265.67C1755.32,-264.24 1180.39,-256.93 1105.5,-221 1045.75,-192.33 1001.34,-123.06 982.89,-90.27"/>
<polygon fill="midnightblue" stroke="midnightblue" points="985.88,-88.44 978.01,-81.35 979.74,-91.8 985.88,-88.44"/>
</g>
<!-- Node208 -->
<g id="node17" class="node">
<title>Node208</title>
<g id="a_node17"><a xlink:title=" ">
<polygon fill="white" stroke="#bfbfbf" points="1393.5,-62 1393.5,-81 1437.5,-81 1437.5,-62 1393.5,-62"/>
<text text-anchor="middle" x="1415.5" y="-69" font-family="Helvetica,sans-Serif" font-size="10.00">string</text>
</a>
</g>
</g>
<!-- Node4&#45;&gt;Node208 -->
<g id="edge28" class="edge">
<title>Node4&#45;&gt;Node208</title>
<path fill="none" stroke="midnightblue" d="M1939.78,-264.92C1761.39,-261.26 1222,-247.98 1196.5,-221 1166.28,-189.03 1178.78,-153.49 1210.5,-123 1267.13,-68.58 1308.84,-111.35 1383.5,-87 1385.37,-86.39 1387.28,-85.7 1389.18,-84.97"/>
<polygon fill="midnightblue" stroke="midnightblue" points="1390.65,-88.15 1398.5,-81.04 1387.93,-81.7 1390.65,-88.15"/>
</g>
<!-- Node214 -->
<g id="node18" class="node">
<title>Node214</title>
<g id="a_node18"><a xlink:title=" ">
<polygon fill="white" stroke="#bfbfbf" points="1024,-62 1024,-81 1173,-81 1173,-62 1024,-62"/>
<text text-anchor="middle" x="1098.5" y="-69" font-family="Helvetica,sans-Serif" font-size="10.00">boost/throw_exception.hpp</text>
</a>
</g>
</g>
<!-- Node4&#45;&gt;Node214 -->
<g id="edge53" class="edge">
<title>Node4&#45;&gt;Node214</title>
<path fill="none" stroke="midnightblue" d="M1939.78,-264.87C1753.05,-260.9 1167.58,-246.46 1136.5,-221 1097.81,-189.31 1095.45,-124.13 1096.92,-91.7"/>
<polygon fill="midnightblue" stroke="midnightblue" points="1100.44,-91.56 1097.58,-81.35 1093.45,-91.11 1100.44,-91.56"/>
</g>
<!-- Node215 -->
<g id="node19" class="node">
<title>Node215</title>
<g id="a_node19"><a xlink:title=" ">
<polygon fill="white" stroke="#bfbfbf" points="1191,-62 1191,-81 1292,-81 1292,-62 1191,-62"/>
<text text-anchor="middle" x="1241.5" y="-69" font-family="Helvetica,sans-Serif" font-size="10.00">boost/cstdint.hpp</text>
</a>
</g>
</g>
<!-- Node4&#45;&gt;Node215 -->
<g id="edge57" class="edge">
<title>Node4&#45;&gt;Node215</title>
<path fill="none" stroke="midnightblue" d="M1939.81,-265.08C1755.34,-261.83 1182.49,-249.47 1155.5,-221 1125.19,-189.02 1145.36,-159.19 1170.5,-123 1181.51,-107.16 1199.17,-94.57 1214.12,-85.92"/>
<polygon fill="midnightblue" stroke="midnightblue" points="1215.91,-88.93 1223,-81.05 1212.55,-82.79 1215.91,-88.93"/>
</g>
<!-- Node245 -->
<g id="node20" class="node">
<title>Node245</title>
<g id="a_node20"><a xlink:href="string_8hpp.html" target="_top" xlink:title="String class and operations.">
<polygon fill="white" stroke="black" points="1220,-123.5 1220,-142.5 1327,-142.5 1327,-123.5 1220,-123.5"/>
<text text-anchor="middle" x="1273.5" y="-130.5" font-family="Helvetica,sans-Serif" font-size="10.00">boost/ui/string.hpp</text>
</a>
</g>
</g>
<!-- Node4&#45;&gt;Node245 -->
<g id="edge22" class="edge">
<title>Node4&#45;&gt;Node245</title>
<path fill="none" stroke="midnightblue" d="M1939.7,-264.87C1763.05,-261.08 1233.57,-247.54 1208.5,-221 1195.68,-207.43 1199.84,-195.53 1208.5,-179 1215.78,-165.11 1229.51,-154.65 1242.48,-147.33"/>
<polygon fill="midnightblue" stroke="midnightblue" points="1244.43,-150.27 1251.69,-142.55 1241.2,-144.05 1244.43,-150.27"/>
</g>
<!-- Node246 -->
<g id="node21" class="node">
<title>Node246</title>
<g id="a_node21"><a xlink:title=" ">
<polygon fill="white" stroke="#bfbfbf" points="3131,-62 3131,-81 3214,-81 3214,-62 3131,-62"/>
<text text-anchor="middle" x="3172.5" y="-69" font-family="Helvetica,sans-Serif" font-size="10.00">initializer_list</text>
</a>
</g>
</g>
<!-- Node4&#45;&gt;Node246 -->
<g id="edge29" class="edge">
<title>Node4&#45;&gt;Node246</title>
<path fill="none" stroke="midnightblue" d="M2053.21,-266.16C2440.73,-267.12 4684.79,-270.52 4733.5,-221 4746.59,-207.69 4746.24,-192.64 4733.5,-179 4680.78,-122.56 3489.39,-82.34 3224.41,-74.07"/>
<polygon fill="midnightblue" stroke="midnightblue" points="3224.39,-70.57 3214.29,-73.76 3224.18,-77.57 3224.39,-70.57"/>
</g>
<!-- Node247 -->
<g id="node22" class="node">
<title>Node247</title>
<g id="a_node22"><a xlink:title=" ">
<polygon fill="white" stroke="#bfbfbf" points="1382,-190.5 1382,-209.5 1491,-209.5 1491,-190.5 1382,-190.5"/>
<text text-anchor="middle" x="1436.5" y="-197.5" font-family="Helvetica,sans-Serif" font-size="10.00">boost/ui/config.hpp</text>
</a>
</g>
</g>
<!-- Node4&#45;&gt;Node247 -->
<g id="edge27" class="edge">
<title>Node4&#45;&gt;Node247</title>
<path fill="none" stroke="midnightblue" d="M1939.68,-264.31C1847.72,-260.78 1660.9,-250.36 1505.5,-221 1494.36,-218.89 1482.42,-215.76 1471.67,-212.6"/>
<polygon fill="midnightblue" stroke="midnightblue" points="1472.36,-209.15 1461.78,-209.58 1470.32,-215.85 1472.36,-209.15"/>
</g>
<!-- Node248 -->
<g id="node23" class="node">
<title>Node248</title>
<g id="a_node23"><a xlink:href="event_8hpp.html" target="_top" xlink:title="Event classes.">
<polygon fill="white" stroke="black" points="1218,-190.5 1218,-209.5 1325,-209.5 1325,-190.5 1218,-190.5"/>
<text text-anchor="middle" x="1271.5" y="-197.5" font-family="Helvetica,sans-Serif" font-size="10.00">boost/ui/event.hpp</text>
</a>
</g>
</g>
<!-- Node4&#45;&gt;Node248 -->
<g id="edge31" class="edge">
<title>Node4&#45;&gt;Node248</title>
<path fill="none" stroke="midnightblue" d="M1939.75,-266.25C1825.28,-265.84 1558.95,-260.3 1339.5,-221 1328.3,-218.99 1316.32,-215.83 1305.59,-212.6"/>
<polygon fill="midnightblue" stroke="midnightblue" points="1306.33,-209.17 1295.74,-209.53 1304.24,-215.85 1306.33,-209.17"/>
</g>
<!-- Node249 -->
<g id="node24" class="node">
<title>Node249</title>
<g id="a_node24"><a xlink:title=" ">
<polygon fill="white" stroke="#bfbfbf" points="1384,-123.5 1384,-142.5 1491,-142.5 1491,-123.5 1384,-123.5"/>
<text text-anchor="middle" x="1437.5" y="-130.5" font-family="Helvetica,sans-Serif" font-size="10.00">boost/function.hpp</text>
</a>
</g>
</g>
<!-- Node4&#45;&gt;Node249 -->
<g id="edge36" class="edge">
<title>Node4&#45;&gt;Node249</title>
<path fill="none" stroke="midnightblue" d="M1939.82,-266.21C1793.29,-266.16 1410.7,-262.05 1372.5,-221 1359.78,-207.33 1363.84,-195.53 1372.5,-179 1379.78,-165.11 1393.51,-154.65 1406.48,-147.33"/>
<polygon fill="midnightblue" stroke="midnightblue" points="1408.43,-150.27 1415.69,-142.55 1405.2,-144.05 1408.43,-150.27"/>
</g>
<!-- Node250 -->
<g id="node25" class="node">
<title>Node250</title>
<g id="a_node25"><a xlink:title=" ">
<polygon fill="white" stroke="#bfbfbf" points="1548,-190.5 1548,-209.5 1655,-209.5 1655,-190.5 1548,-190.5"/>
<text text-anchor="middle" x="1601.5" y="-197.5" font-family="Helvetica,sans-Serif" font-size="10.00">boost/ui/coord.hpp</text>
</a>
</g>
</g>
<!-- Node4&#45;&gt;Node250 -->
<g id="edge35" class="edge">
<title>Node4&#45;&gt;Node250</title>
<path fill="none" stroke="midnightblue" d="M1939.87,-261.33C1873.36,-255.15 1759.98,-242.46 1664.5,-221 1654.69,-218.8 1644.22,-215.76 1634.69,-212.72"/>
<polygon fill="midnightblue" stroke="midnightblue" points="1635.76,-209.38 1625.17,-209.58 1633.57,-216.03 1635.76,-209.38"/>
</g>
<!-- Node251 -->
<g id="node26" class="node">
<title>Node251</title>
<g id="a_node26"><a xlink:title=" ">
<polygon fill="white" stroke="#bfbfbf" points="1673.5,-179.5 1673.5,-220.5 1791.5,-220.5 1791.5,-179.5 1673.5,-179.5"/>
<text text-anchor="start" x="1681.5" y="-208.5" font-family="Helvetica,sans-Serif" font-size="10.00">/media/disk4_1/work</text>
<text text-anchor="start" x="1681.5" y="-197.5" font-family="Helvetica,sans-Serif" font-size="10.00">/code/ui/boost/boost</text>
<text text-anchor="middle" x="1732.5" y="-186.5" font-family="Helvetica,sans-Serif" font-size="10.00">/functional</text>
</a>
</g>
</g>
<!-- Node4&#45;&gt;Node251 -->
<g id="edge37" class="edge">
<title>Node4&#45;&gt;Node251</title>
<path fill="none" stroke="midnightblue" d="M1956.16,-257.48C1918.51,-249.37 1860.55,-236.46 1801.63,-221.23"/>
<polygon fill="midnightblue" stroke="midnightblue" points="1802.34,-217.8 1791.78,-218.66 1800.57,-224.57 1802.34,-217.8"/>
</g>
<!-- Node252 -->
<g id="node27" class="node">
<title>Node252</title>
<g id="a_node27"><a xlink:title=" ">
<polygon fill="white" stroke="#bfbfbf" points="1809.5,-185 1809.5,-215 1919.5,-215 1919.5,-185 1809.5,-185"/>
<text text-anchor="start" x="1817.5" y="-203" font-family="Helvetica,sans-Serif" font-size="10.00">boost/preprocessor</text>
<text text-anchor="middle" x="1864.5" y="-192" font-family="Helvetica,sans-Serif" font-size="10.00">/iterate.hpp</text>
</a>
</g>
</g>
<!-- Node4&#45;&gt;Node252 -->
<g id="edge38" class="edge">
<title>Node4&#45;&gt;Node252</title>
<path fill="none" stroke="midnightblue" d="M1978.97,-257.37C1959.57,-247.81 1927.71,-232.13 1902.53,-219.72"/>
<polygon fill="midnightblue" stroke="midnightblue" points="1903.76,-216.43 1893.24,-215.15 1900.66,-222.71 1903.76,-216.43"/>
</g>
<!-- Node253 -->
<g id="node28" class="node">
<title>Node253</title>
<g id="a_node28"><a xlink:title=" ">
<polygon fill="white" stroke="#bfbfbf" points="1938,-185 1938,-215 2055,-215 2055,-185 1938,-185"/>
<text text-anchor="start" x="1946" y="-203" font-family="Helvetica,sans-Serif" font-size="10.00">boost/preprocessor</text>
<text text-anchor="middle" x="1996.5" y="-192" font-family="Helvetica,sans-Serif" font-size="10.00">/iteration/iterate.hpp</text>
</a>
</g>
</g>
<!-- Node4&#45;&gt;Node253 -->
<g id="edge39" class="edge">
<title>Node4&#45;&gt;Node253</title>
<path fill="none" stroke="midnightblue" d="M1996.5,-257.23C1996.5,-249.04 1996.5,-236.42 1996.5,-225.21"/>
<polygon fill="midnightblue" stroke="midnightblue" points="2000,-225.09 1996.5,-215.09 1993,-225.09 2000,-225.09"/>
</g>
<!-- Node254 -->
<g id="node29" class="node">
<title>Node254</title>
<g id="a_node29"><a xlink:title=" ">
<polygon fill="white" stroke="#bfbfbf" points="2073.5,-185 2073.5,-215 2183.5,-215 2183.5,-185 2073.5,-185"/>
<text text-anchor="start" x="2081.5" y="-203" font-family="Helvetica,sans-Serif" font-size="10.00">boost/preprocessor</text>
<text text-anchor="middle" x="2128.5" y="-192" font-family="Helvetica,sans-Serif" font-size="10.00">/arithmetic/inc.hpp</text>
</a>
</g>
</g>
<!-- Node4&#45;&gt;Node254 -->
<g id="edge41" class="edge">
<title>Node4&#45;&gt;Node254</title>
<path fill="none" stroke="midnightblue" d="M2014.03,-257.37C2033.43,-247.81 2065.29,-232.13 2090.47,-219.72"/>
<polygon fill="midnightblue" stroke="midnightblue" points="2092.34,-222.71 2099.76,-215.15 2089.24,-216.43 2092.34,-222.71"/>
</g>
<!-- Node255 -->
<g id="node30" class="node">
<title>Node255</title>
<g id="a_node30"><a xlink:title=" ">
<polygon fill="white" stroke="#bfbfbf" points="2201.5,-185 2201.5,-215 2311.5,-215 2311.5,-185 2201.5,-185"/>
<text text-anchor="start" x="2209.5" y="-203" font-family="Helvetica,sans-Serif" font-size="10.00">boost/preprocessor</text>
<text text-anchor="middle" x="2256.5" y="-192" font-family="Helvetica,sans-Serif" font-size="10.00">/array/elem.hpp</text>
</a>
</g>
</g>
<!-- Node4&#45;&gt;Node255 -->
<g id="edge42" class="edge">
<title>Node4&#45;&gt;Node255</title>
<path fill="none" stroke="midnightblue" d="M2038.03,-257.44C2077.86,-249 2139.59,-235.32 2192.5,-221 2196.08,-220.03 2199.76,-218.99 2203.47,-217.92"/>
<polygon fill="midnightblue" stroke="midnightblue" points="2204.67,-221.21 2213.26,-215.01 2202.67,-214.5 2204.67,-221.21"/>
</g>
<!-- Node256 -->
<g id="node31" class="node">
<title>Node256</title>
<g id="a_node31"><a xlink:title=" ">
<polygon fill="white" stroke="#bfbfbf" points="2329.5,-185 2329.5,-215 2439.5,-215 2439.5,-185 2329.5,-185"/>
<text text-anchor="start" x="2337.5" y="-203" font-family="Helvetica,sans-Serif" font-size="10.00">boost/preprocessor</text>
<text text-anchor="middle" x="2384.5" y="-192" font-family="Helvetica,sans-Serif" font-size="10.00">/array/size.hpp</text>
</a>
</g>
</g>
<!-- Node4&#45;&gt;Node256 -->
<g id="edge43" class="edge">
<title>Node4&#45;&gt;Node256</title>
<path fill="none" stroke="midnightblue" d="M2053.2,-260.98C2118.27,-254.57 2227.96,-241.74 2320.5,-221 2324.65,-220.07 2328.93,-219 2333.2,-217.84"/>
<polygon fill="midnightblue" stroke="midnightblue" points="2334.45,-221.12 2343.11,-215.02 2332.54,-214.39 2334.45,-221.12"/>
</g>
<!-- Node257 -->
<g id="node32" class="node">
<title>Node257</title>
<g id="a_node32"><a xlink:title=" ">
<polygon fill="white" stroke="#bfbfbf" points="2457.5,-185 2457.5,-215 2567.5,-215 2567.5,-185 2457.5,-185"/>
<text text-anchor="start" x="2465.5" y="-203" font-family="Helvetica,sans-Serif" font-size="10.00">boost/preprocessor</text>
<text text-anchor="middle" x="2512.5" y="-192" font-family="Helvetica,sans-Serif" font-size="10.00">/slot/slot.hpp</text>
</a>
</g>
</g>
<!-- Node4&#45;&gt;Node257 -->
<g id="edge45" class="edge">
<title>Node4&#45;&gt;Node257</title>
<path fill="none" stroke="midnightblue" d="M2053.07,-264.06C2139.21,-260.29 2308.06,-249.62 2448.5,-221 2452.92,-220.1 2457.46,-219.01 2462,-217.82"/>
<polygon fill="midnightblue" stroke="midnightblue" points="2463.17,-221.13 2471.85,-215.06 2461.28,-214.39 2463.17,-221.13"/>
</g>
<!-- Node258 -->
<g id="node33" class="node">
<title>Node258</title>
<g id="a_node33"><a xlink:title=" ">
<polygon fill="white" stroke="#bfbfbf" points="2585.5,-185 2585.5,-215 2695.5,-215 2695.5,-185 2585.5,-185"/>
<text text-anchor="start" x="2593.5" y="-203" font-family="Helvetica,sans-Serif" font-size="10.00">boost/preprocessor</text>
<text text-anchor="middle" x="2640.5" y="-192" font-family="Helvetica,sans-Serif" font-size="10.00">/slot/detail/def.hpp</text>
</a>
</g>
</g>
<!-- Node4&#45;&gt;Node258 -->
<g id="edge46" class="edge">
<title>Node4&#45;&gt;Node258</title>
<path fill="none" stroke="midnightblue" d="M2053.05,-265.82C2157.45,-264.57 2387.07,-257.46 2576.5,-221 2580.99,-220.14 2585.62,-219.06 2590.22,-217.87"/>
<polygon fill="midnightblue" stroke="midnightblue" points="2591.52,-221.14 2600.22,-215.1 2589.65,-214.4 2591.52,-221.14"/>
</g>
<!-- Node259 -->
<g id="node34" class="node">
<title>Node259</title>
<g id="a_node34"><a xlink:title=" ">
<polygon fill="white" stroke="#bfbfbf" points="2714,-190.5 2714,-209.5 2871,-209.5 2871,-190.5 2714,-190.5"/>
<text text-anchor="middle" x="2792.5" y="-197.5" font-family="Helvetica,sans-Serif" font-size="10.00">boost/config/workaround.hpp</text>
</a>
</g>
</g>
<!-- Node4&#45;&gt;Node259 -->
<g id="edge48" class="edge">
<title>Node4&#45;&gt;Node259</title>
<path fill="none" stroke="midnightblue" d="M2053.26,-265.47C2173.81,-263.66 2464.05,-255.74 2704.5,-221 2719.74,-218.8 2736.26,-215.34 2750.82,-211.91"/>
<polygon fill="midnightblue" stroke="midnightblue" points="2751.65,-215.31 2760.55,-209.56 2750.01,-208.51 2751.65,-215.31"/>
</g>
<!-- Node260 -->
<g id="node35" class="node">
<title>Node260</title>
<g id="a_node35"><a xlink:title=" ">
<polygon fill="white" stroke="#bfbfbf" points="2889,-185 2889,-215 3006,-215 3006,-185 2889,-185"/>
<text text-anchor="start" x="2897" y="-203" font-family="Helvetica,sans-Serif" font-size="10.00">boost/function/detail</text>
<text text-anchor="middle" x="2947.5" y="-192" font-family="Helvetica,sans-Serif" font-size="10.00">/prologue.hpp</text>
</a>
</g>
</g>
<!-- Node4&#45;&gt;Node260 -->
<g id="edge49" class="edge">
<title>Node4&#45;&gt;Node260</title>
<path fill="none" stroke="midnightblue" d="M2053.13,-264.89C2222.03,-261.28 2720.44,-248.55 2880.5,-221 2885.6,-220.12 2890.87,-218.98 2896.09,-217.69"/>
<polygon fill="midnightblue" stroke="midnightblue" points="2897.28,-220.99 2906.05,-215.05 2895.49,-214.23 2897.28,-220.99"/>
</g>
<!-- Node261 -->
<g id="node36" class="node">
<title>Node261</title>
<g id="a_node36"><a xlink:title=" ">
<polygon fill="white" stroke="#bfbfbf" points="3024.5,-190.5 3024.5,-209.5 3076.5,-209.5 3076.5,-190.5 3024.5,-190.5"/>
<text text-anchor="middle" x="3050.5" y="-197.5" font-family="Helvetica,sans-Serif" font-size="10.00">cassert</text>
</a>
</g>
</g>
<!-- Node4&#45;&gt;Node261 -->
<g id="edge50" class="edge">
<title>Node4&#45;&gt;Node261</title>
<path fill="none" stroke="midnightblue" d="M2053.12,-265.06C2253.67,-261.5 2923.11,-247.73 3015.5,-221 3020.45,-219.57 3025.45,-217.31 3030.06,-214.81"/>
<polygon fill="midnightblue" stroke="midnightblue" points="3032.05,-217.69 3038.83,-209.54 3028.45,-211.69 3032.05,-217.69"/>
</g>
<!-- Node262 -->
<g id="node37" class="node">
<title>Node262</title>
<g id="a_node37"><a xlink:title=" ">
<polygon fill="white" stroke="#bfbfbf" points="3094.5,-185 3094.5,-215 3204.5,-215 3204.5,-185 3094.5,-185"/>
<text text-anchor="start" x="3102.5" y="-203" font-family="Helvetica,sans-Serif" font-size="10.00">boost/config/no_tr1</text>
<text text-anchor="middle" x="3149.5" y="-192" font-family="Helvetica,sans-Serif" font-size="10.00">/functional.hpp</text>
</a>
</g>
</g>
<!-- Node4&#45;&gt;Node262 -->
<g id="edge52" class="edge">
<title>Node4&#45;&gt;Node262</title>
<path fill="none" stroke="midnightblue" d="M2053.21,-265.61C2247.31,-263.97 2884.16,-256 3085.5,-221 3090.46,-220.14 3095.58,-219 3100.65,-217.69"/>
<polygon fill="midnightblue" stroke="midnightblue" points="3101.59,-221.06 3110.3,-215.02 3099.72,-214.32 3101.59,-221.06"/>
</g>
<!-- Node263 -->
<g id="node38" class="node">
<title>Node263</title>
<g id="a_node38"><a xlink:title=" ">
<polygon fill="white" stroke="#bfbfbf" points="3222.5,-185 3222.5,-215 3334.5,-215 3334.5,-185 3222.5,-185"/>
<text text-anchor="start" x="3230.5" y="-203" font-family="Helvetica,sans-Serif" font-size="10.00">boost/assert/source</text>
<text text-anchor="middle" x="3278.5" y="-192" font-family="Helvetica,sans-Serif" font-size="10.00">_location.hpp</text>
</a>
</g>
</g>
<!-- Node4&#45;&gt;Node263 -->
<g id="edge54" class="edge">
<title>Node4&#45;&gt;Node263</title>
<path fill="none" stroke="midnightblue" d="M2053.25,-265.87C2261.87,-265.07 2986.02,-259.52 3213.5,-221 3218.54,-220.15 3223.73,-219.01 3228.88,-217.71"/>
<polygon fill="midnightblue" stroke="midnightblue" points="3229.95,-221.05 3238.68,-215.05 3228.11,-214.29 3229.95,-221.05"/>
</g>
<!-- Node264 -->
<g id="node39" class="node">
<title>Node264</title>
<g id="a_node39"><a xlink:title=" ">
<polygon fill="white" stroke="#bfbfbf" points="3353,-190.5 3353,-209.5 3500,-209.5 3500,-190.5 3353,-190.5"/>
<text text-anchor="middle" x="3426.5" y="-197.5" font-family="Helvetica,sans-Serif" font-size="10.00">boost/current_function.hpp</text>
</a>
</g>
</g>
<!-- Node4&#45;&gt;Node264 -->
<g id="edge55" class="edge">
<title>Node4&#45;&gt;Node264</title>
<path fill="none" stroke="midnightblue" d="M2053.03,-265.64C2275.13,-263.99 3088.17,-255.66 3343.5,-221 3357.9,-219.05 3373.44,-215.66 3387.13,-212.22"/>
<polygon fill="midnightblue" stroke="midnightblue" points="3388.4,-215.5 3397.2,-209.6 3386.64,-208.73 3388.4,-215.5"/>
</g>
<!-- Node265 -->
<g id="node40" class="node">
<title>Node265</title>
<g id="a_node40"><a xlink:title=" ">
<polygon fill="white" stroke="#bfbfbf" points="3518.5,-190.5 3518.5,-209.5 3566.5,-209.5 3566.5,-190.5 3518.5,-190.5"/>
<text text-anchor="middle" x="3542.5" y="-197.5" font-family="Helvetica,sans-Serif" font-size="10.00">iosfwd</text>
</a>
</g>
</g>
<!-- Node4&#45;&gt;Node265 -->
<g id="edge61" class="edge">
<title>Node4&#45;&gt;Node265</title>
<path fill="none" stroke="midnightblue" d="M2053.16,-266.02C2311.12,-265.89 3368.05,-262.79 3509.5,-221 3514.11,-219.64 3518.72,-217.47 3522.98,-215.06"/>
<polygon fill="midnightblue" stroke="midnightblue" points="3525.02,-217.91 3531.58,-209.59 3521.26,-212 3525.02,-217.91"/>
</g>
<!-- Node266 -->
<g id="node41" class="node">
<title>Node266</title>
<g id="a_node41"><a xlink:title=" ">
<polygon fill="white" stroke="#bfbfbf" points="3584.5,-179.5 3584.5,-220.5 3702.5,-220.5 3702.5,-179.5 3584.5,-179.5"/>
<text text-anchor="start" x="3592.5" y="-208.5" font-family="Helvetica,sans-Serif" font-size="10.00">/media/disk4_1/work</text>
<text text-anchor="start" x="3592.5" y="-197.5" font-family="Helvetica,sans-Serif" font-size="10.00">/code/ui/boost/boost</text>
<text text-anchor="middle" x="3643.5" y="-186.5" font-family="Helvetica,sans-Serif" font-size="10.00">/exception</text>
</a>
</g>
</g>
<!-- Node4&#45;&gt;Node266 -->
<g id="edge62" class="edge">
<title>Node4&#45;&gt;Node266</title>
<path fill="none" stroke="midnightblue" d="M2053.39,-266.34C2296.84,-267.48 3252.65,-268.86 3574.12,-220.94"/>
<polygon fill="midnightblue" stroke="midnightblue" points="3575.02,-224.35 3584.37,-219.37 3573.95,-217.43 3575.02,-224.35"/>
</g>
<!-- Node267 -->
<g id="node42" class="node">
<title>Node267</title>
<g id="a_node42"><a xlink:title=" ">
<polygon fill="white" stroke="#bfbfbf" points="3721,-190.5 3721,-209.5 3888,-209.5 3888,-190.5 3721,-190.5"/>
<text text-anchor="middle" x="3804.5" y="-197.5" font-family="Helvetica,sans-Serif" font-size="10.00">boost/exception/exception.hpp</text>
</a>
</g>
</g>
<!-- Node4&#45;&gt;Node267 -->
<g id="edge63" class="edge">
<title>Node4&#45;&gt;Node267</title>
<path fill="none" stroke="midnightblue" d="M2053.36,-265.93C2312.08,-265.37 3379.72,-260.68 3711.5,-221 3728.18,-219.01 3746.29,-215.44 3762.05,-211.86"/>
<polygon fill="midnightblue" stroke="midnightblue" points="3763.1,-215.21 3772.04,-209.53 3761.51,-208.4 3763.1,-215.21"/>
</g>
<!-- Node268 -->
<g id="node43" class="node">
<title>Node268</title>
<g id="a_node43"><a xlink:title=" ">
<polygon fill="white" stroke="#bfbfbf" points="3906,-185 3906,-215 4035,-215 4035,-185 3906,-185"/>
<text text-anchor="start" x="3914" y="-203" font-family="Helvetica,sans-Serif" font-size="10.00">boost/function/function</text>
<text text-anchor="middle" x="3970.5" y="-192" font-family="Helvetica,sans-Serif" font-size="10.00">_base.hpp</text>
</a>
</g>
</g>
<!-- Node4&#45;&gt;Node268 -->
<g id="edge64" class="edge">
<title>Node4&#45;&gt;Node268</title>
<path fill="none" stroke="midnightblue" d="M2053.07,-265.48C2348.87,-262.66 3711.32,-248.29 3897.5,-221 3903.64,-220.1 3910.01,-218.85 3916.3,-217.41"/>
<polygon fill="midnightblue" stroke="midnightblue" points="3917.2,-220.79 3926.08,-215.02 3915.54,-213.99 3917.2,-220.79"/>
</g>
<!-- Node269 -->
<g id="node44" class="node">
<title>Node269</title>
<g id="a_node44"><a xlink:title=" ">
<polygon fill="white" stroke="#bfbfbf" points="4053.5,-190.5 4053.5,-209.5 4111.5,-209.5 4111.5,-190.5 4053.5,-190.5"/>
<text text-anchor="middle" x="4082.5" y="-197.5" font-family="Helvetica,sans-Serif" font-size="10.00">memory</text>
</a>
</g>
</g>
<!-- Node4&#45;&gt;Node269 -->
<g id="edge66" class="edge">
<title>Node4&#45;&gt;Node269</title>
<path fill="none" stroke="midnightblue" d="M2053.04,-265.49C2372.98,-262.51 3945.57,-246.6 4044.5,-221 4050.09,-219.55 4055.78,-217.15 4061,-214.5"/>
<polygon fill="midnightblue" stroke="midnightblue" points="4062.72,-217.55 4069.75,-209.62 4059.31,-211.43 4062.72,-217.55"/>
</g>
<!-- Node270 -->
<g id="node45" class="node">
<title>Node270</title>
<g id="a_node45"><a xlink:title=" ">
<polygon fill="white" stroke="#bfbfbf" points="4130,-190.5 4130,-209.5 4167,-209.5 4167,-190.5 4130,-190.5"/>
<text text-anchor="middle" x="4148.5" y="-197.5" font-family="Helvetica,sans-Serif" font-size="10.00">new</text>
</a>
</g>
</g>
<!-- Node4&#45;&gt;Node270 -->
<g id="edge67" class="edge">
<title>Node4&#45;&gt;Node270</title>
<path fill="none" stroke="midnightblue" d="M2053.05,-265.74C2380.25,-264.15 4019.7,-254.48 4120.5,-221 4124.23,-219.76 4127.9,-217.83 4131.29,-215.66"/>
<polygon fill="midnightblue" stroke="midnightblue" points="4133.5,-218.37 4139.45,-209.61 4129.33,-212.75 4133.5,-218.37"/>
</g>
<!-- Node271 -->
<g id="node46" class="node">
<title>Node271</title>
<g id="a_node46"><a xlink:title=" ">
<polygon fill="white" stroke="#bfbfbf" points="4185.5,-190.5 4185.5,-209.5 4241.5,-209.5 4241.5,-190.5 4185.5,-190.5"/>
<text text-anchor="middle" x="4213.5" y="-197.5" font-family="Helvetica,sans-Serif" font-size="10.00">assert.h</text>
</a>
</g>
</g>
<!-- Node4&#45;&gt;Node271 -->
<g id="edge69" class="edge">
<title>Node4&#45;&gt;Node271</title>
<path fill="none" stroke="midnightblue" d="M2053.13,-265.58C2385.42,-263.05 4070.96,-248.86 4176.5,-221 4181.83,-219.59 4187.24,-217.27 4192.22,-214.7"/>
<polygon fill="midnightblue" stroke="midnightblue" points="4194.17,-217.62 4201.12,-209.63 4190.7,-211.54 4194.17,-217.62"/>
</g>
<!-- Node272 -->
<g id="node47" class="node">
<title>Node272</title>
<g id="a_node47"><a xlink:title=" ">
<polygon fill="white" stroke="#bfbfbf" points="4260,-190.5 4260,-209.5 4361,-209.5 4361,-190.5 4260,-190.5"/>
<text text-anchor="middle" x="4310.5" y="-197.5" font-family="Helvetica,sans-Serif" font-size="10.00">boost/integer.hpp</text>
</a>
</g>
</g>
<!-- Node4&#45;&gt;Node272 -->
<g id="edge70" class="edge">
<title>Node4&#45;&gt;Node272</title>
<path fill="none" stroke="midnightblue" d="M2053.05,-265.89C2380.69,-265.12 4028.36,-259.33 4250.5,-221 4260.43,-219.29 4270.96,-216.23 4280.37,-213.01"/>
<polygon fill="midnightblue" stroke="midnightblue" points="4281.85,-216.2 4290.07,-209.52 4279.48,-209.62 4281.85,-216.2"/>
</g>
<!-- Node273 -->
<g id="node48" class="node">
<title>Node273</title>
<g id="a_node48"><a xlink:title=" ">
<polygon fill="white" stroke="#bfbfbf" points="4379,-190.5 4379,-209.5 4504,-209.5 4504,-190.5 4379,-190.5"/>
<text text-anchor="middle" x="4441.5" y="-197.5" font-family="Helvetica,sans-Serif" font-size="10.00">boost/integer_fwd.hpp</text>
</a>
</g>
</g>
<!-- Node4&#45;&gt;Node273 -->
<g id="edge71" class="edge">
<title>Node4&#45;&gt;Node273</title>
<path fill="none" stroke="midnightblue" d="M2053.26,-265.79C2391.54,-264.44 4135,-255.81 4370.5,-221 4382.75,-219.19 4395.87,-215.89 4407.46,-212.49"/>
<polygon fill="midnightblue" stroke="midnightblue" points="4408.66,-215.79 4417.19,-209.51 4406.61,-209.1 4408.66,-215.79"/>
</g>
<!-- Node274 -->
<g id="node49" class="node">
<title>Node274</title>
<g id="a_node49"><a xlink:title=" ">
<polygon fill="white" stroke="#bfbfbf" points="4522.5,-190.5 4522.5,-209.5 4572.5,-209.5 4572.5,-190.5 4522.5,-190.5"/>
<text text-anchor="middle" x="4547.5" y="-197.5" font-family="Helvetica,sans-Serif" font-size="10.00">climits</text>
</a>
</g>
</g>
<!-- Node4&#45;&gt;Node274 -->
<g id="edge72" class="edge">
<title>Node4&#45;&gt;Node274</title>
<path fill="none" stroke="midnightblue" d="M2053.15,-265.8C2414.95,-264.45 4391.25,-255.47 4513.5,-221 4518.35,-219.63 4523.23,-217.4 4527.71,-214.91"/>
<polygon fill="midnightblue" stroke="midnightblue" points="4529.56,-217.87 4536.22,-209.63 4525.88,-211.92 4529.56,-217.87"/>
</g>
<!-- Node275 -->
<g id="node50" class="node">
<title>Node275</title>
<g id="a_node50"><a xlink:title=" ">
<polygon fill="white" stroke="#bfbfbf" points="4591,-190.5 4591,-209.5 4724,-209.5 4724,-190.5 4591,-190.5"/>
<text text-anchor="middle" x="4657.5" y="-197.5" font-family="Helvetica,sans-Serif" font-size="10.00">boost/integer_traits.hpp</text>
</a>
</g>
</g>
<!-- Node4&#45;&gt;Node275 -->
<g id="edge74" class="edge">
<title>Node4&#45;&gt;Node275</title>
<path fill="none" stroke="midnightblue" d="M2053.02,-265.83C2408.05,-264.65 4323.48,-256.67 4581.5,-221 4594.83,-219.16 4609.17,-215.77 4621.76,-212.29"/>
<polygon fill="midnightblue" stroke="midnightblue" points="4622.79,-215.64 4631.44,-209.52 4620.86,-208.91 4622.79,-215.64"/>
</g>
<!-- Node5&#45;&gt;Node2 -->
<g id="edge6" class="edge">
<title>Node5&#45;&gt;Node2</title>
<path fill="none" stroke="midnightblue" d="M895.21,-130.68C1001.18,-127.49 1244.42,-117.24 1446.5,-87 1453.24,-85.99 1460.32,-84.66 1467.22,-83.22"/>
<polygon fill="midnightblue" stroke="midnightblue" points="1468.11,-86.61 1477.13,-81.05 1466.61,-79.77 1468.11,-86.61"/>
</g>
<!-- Node5&#45;&gt;Node3 -->
<g id="edge8" class="edge">
<title>Node5&#45;&gt;Node3</title>
<path fill="none" stroke="midnightblue" d="M840.72,-123.27C839.81,-107.14 840.49,-72.77 860.5,-56 905.23,-18.51 1300.3,-12.22 1451.75,-11.19"/>
<polygon fill="midnightblue" stroke="midnightblue" points="1451.82,-14.69 1461.8,-11.13 1451.78,-7.69 1451.82,-14.69"/>
</g>
<!-- Node5&#45;&gt;Node8 -->
<g id="edge7" class="edge">
<title>Node5&#45;&gt;Node8</title>
<path fill="none" stroke="midnightblue" d="M787.98,-131.16C635.55,-128.43 201.14,-118.05 62.5,-87 59.66,-86.37 56.76,-85.53 53.9,-84.59"/>
<polygon fill="midnightblue" stroke="midnightblue" points="55.04,-81.28 44.45,-81.06 52.59,-87.84 55.04,-81.28"/>
</g>
<!-- Node5&#45;&gt;Node22 -->
<g id="edge9" class="edge">
<title>Node5&#45;&gt;Node22</title>
<path fill="none" stroke="midnightblue" d="M787.86,-131.57C674.6,-129.96 403,-122.4 178.5,-87 172.59,-86.07 166.4,-84.82 160.35,-83.45"/>
<polygon fill="midnightblue" stroke="midnightblue" points="160.94,-79.99 150.4,-81.05 159.3,-86.79 160.94,-79.99"/>
</g>
<!-- Node5&#45;&gt;Node86 -->
<g id="edge10" class="edge">
<title>Node5&#45;&gt;Node86</title>
<path fill="none" stroke="midnightblue" d="M787.67,-129.95C692.64,-125.78 488.83,-114.44 307.55,-87.02"/>
<polygon fill="midnightblue" stroke="midnightblue" points="307.98,-83.54 297.56,-85.49 306.92,-90.46 307.98,-83.54"/>
</g>
<!-- Node5&#45;&gt;Node105 -->
<g id="edge11" class="edge">
<title>Node5&#45;&gt;Node105</title>
<path fill="none" stroke="midnightblue" d="M895.14,-130.81C981.47,-127.99 1156.18,-118.53 1300.5,-87 1304,-86.24 1307.61,-85.27 1311.17,-84.21"/>
<polygon fill="midnightblue" stroke="midnightblue" points="1312.55,-87.44 1320.98,-81.01 1310.39,-80.78 1312.55,-87.44"/>
</g>
<!-- Node5&#45;&gt;Node112 -->
<g id="edge12" class="edge">
<title>Node5&#45;&gt;Node112</title>
<path fill="none" stroke="midnightblue" d="M787.85,-127.91C711.96,-121.71 568.79,-108.5 436.97,-86.95"/>
<polygon fill="midnightblue" stroke="midnightblue" points="437.53,-83.5 427.09,-85.32 436.39,-90.4 437.53,-83.5"/>
</g>
<!-- Node5&#45;&gt;Node119 -->
<g id="edge13" class="edge">
<title>Node5&#45;&gt;Node119</title>
<path fill="none" stroke="midnightblue" d="M787.97,-124.31C734.17,-116.35 648.68,-103.09 565.48,-87.12"/>
<polygon fill="midnightblue" stroke="midnightblue" points="566.1,-83.68 555.61,-85.21 564.77,-90.55 566.1,-83.68"/>
</g>
<!-- Node5&#45;&gt;Node150 -->
<g id="edge14" class="edge">
<title>Node5&#45;&gt;Node150</title>
<path fill="none" stroke="midnightblue" d="M798.15,-123.47C758.39,-115.29 698.04,-102.01 646.5,-87 643.71,-86.19 640.84,-85.29 637.97,-84.36"/>
<polygon fill="midnightblue" stroke="midnightblue" points="638.93,-80.99 628.34,-81.09 636.68,-87.62 638.93,-80.99"/>
</g>
<!-- Node5&#45;&gt;Node181 -->
<g id="edge15" class="edge">
<title>Node5&#45;&gt;Node181</title>
<path fill="none" stroke="midnightblue" d="M813.41,-123.5C786.26,-115.04 744.13,-101.31 708.5,-87 707.12,-86.45 705.72,-85.86 704.3,-85.26"/>
<polygon fill="midnightblue" stroke="midnightblue" points="705.61,-82.01 695.06,-81.13 702.76,-88.4 705.61,-82.01"/>
</g>
<!-- Node5&#45;&gt;Node189 -->
<g id="edge16" class="edge">
<title>Node5&#45;&gt;Node189</title>
<path fill="none" stroke="midnightblue" d="M830.61,-123.48C818.53,-114.02 798.83,-98.6 784.26,-87.19"/>
<polygon fill="midnightblue" stroke="midnightblue" points="786.4,-84.42 776.37,-81.01 782.09,-89.93 786.4,-84.42"/>
</g>
<!-- Node5&#45;&gt;Node192 -->
<g id="edge17" class="edge">
<title>Node5&#45;&gt;Node192</title>
<path fill="none" stroke="midnightblue" d="M849.38,-123.48C857.79,-114.37 871.32,-99.74 881.73,-88.48"/>
<polygon fill="midnightblue" stroke="midnightblue" points="884.42,-90.73 888.63,-81.01 879.28,-85.98 884.42,-90.73"/>
</g>
<!-- Node5&#45;&gt;Node206 -->
<g id="edge18" class="edge">
<title>Node5&#45;&gt;Node206</title>
<path fill="none" stroke="midnightblue" d="M860.41,-123.48C882.66,-113.45 919.81,-96.7 945.43,-85.15"/>
<polygon fill="midnightblue" stroke="midnightblue" points="946.94,-88.31 954.62,-81.01 944.07,-81.93 946.94,-88.31"/>
</g>
<!-- Node5&#45;&gt;Node208 -->
<g id="edge19" class="edge">
<title>Node5&#45;&gt;Node208</title>
<path fill="none" stroke="midnightblue" d="M895.28,-129.87C1013.41,-124.82 1292.23,-110.71 1383.5,-87 1385.66,-86.44 1387.85,-85.74 1390.03,-84.96"/>
<polygon fill="midnightblue" stroke="midnightblue" points="1391.38,-88.19 1399.29,-81.14 1388.71,-81.72 1391.38,-88.19"/>
</g>
<!-- Node5&#45;&gt;Node214 -->
<g id="edge20" class="edge">
<title>Node5&#45;&gt;Node214</title>
<path fill="none" stroke="midnightblue" d="M878.32,-123.48C924.03,-112.89 1002.03,-94.84 1051.87,-83.3"/>
<polygon fill="midnightblue" stroke="midnightblue" points="1052.79,-86.67 1061.75,-81.01 1051.21,-79.85 1052.79,-86.67"/>
</g>
<!-- Node5&#45;&gt;Node215 -->
<g id="edge21" class="edge">
<title>Node5&#45;&gt;Node215</title>
<path fill="none" stroke="midnightblue" d="M895.07,-126.68C962.29,-119.59 1080.97,-105.75 1181.5,-87 1187.24,-85.93 1193.25,-84.66 1199.16,-83.32"/>
<polygon fill="midnightblue" stroke="midnightblue" points="1200,-86.72 1208.94,-81.03 1198.4,-79.9 1200,-86.72"/>
</g>
<!-- Node245&#45;&gt;Node2 -->
<g id="edge23" class="edge">
<title>Node245&#45;&gt;Node2</title>
<path fill="none" stroke="midnightblue" d="M1307.46,-123.48C1349.34,-112.96 1420.63,-95.06 1466.63,-83.51"/>
<polygon fill="midnightblue" stroke="midnightblue" points="1467.76,-86.84 1476.61,-81.01 1466.06,-80.05 1467.76,-86.84"/>
</g>
<!-- Node245&#45;&gt;Node105 -->
<g id="edge26" class="edge">
<title>Node245&#45;&gt;Node105</title>
<path fill="none" stroke="midnightblue" d="M1283.39,-123.48C1294.15,-114.2 1311.57,-99.17 1324.72,-87.83"/>
<polygon fill="midnightblue" stroke="midnightblue" points="1327.34,-90.19 1332.63,-81.01 1322.77,-84.89 1327.34,-90.19"/>
</g>
<!-- Node245&#45;&gt;Node208 -->
<g id="edge24" class="edge">
<title>Node245&#45;&gt;Node208</title>
<path fill="none" stroke="midnightblue" d="M1295.1,-123.44C1317.35,-114.56 1352.99,-100.15 1383.5,-87 1384.87,-86.41 1386.26,-85.8 1387.67,-85.19"/>
<polygon fill="midnightblue" stroke="midnightblue" points="1389.23,-88.32 1396.94,-81.05 1386.38,-81.93 1389.23,-88.32"/>
</g>
<!-- Node245&#45;&gt;Node246 -->
<g id="edge25" class="edge">
<title>Node245&#45;&gt;Node246</title>
<path fill="none" stroke="midnightblue" d="M1327.19,-126.66C1342.76,-125.27 1359.79,-123.91 1375.5,-123 2065.63,-82.89 2906.78,-74.38 3120.98,-72.82"/>
<polygon fill="midnightblue" stroke="midnightblue" points="3121.02,-76.32 3131,-72.75 3120.97,-69.32 3121.02,-76.32"/>
</g>
<!-- Node248&#45;&gt;Node2 -->
<g id="edge32" class="edge">
<title>Node248&#45;&gt;Node2</title>
<path fill="none" stroke="midnightblue" d="M1281.22,-190.47C1298.93,-175.26 1338.1,-143.17 1375.5,-123 1406.2,-106.45 1443.49,-92.95 1471.09,-84.09"/>
<polygon fill="midnightblue" stroke="midnightblue" points="1472.3,-87.37 1480.79,-81.03 1470.2,-80.7 1472.3,-87.37"/>
</g>
<!-- Node248&#45;&gt;Node5 -->
<g id="edge33" class="edge">
<title>Node248&#45;&gt;Node5</title>
<path fill="none" stroke="midnightblue" d="M1217.91,-190.9C1138.51,-178.9 989.91,-156.43 905.11,-143.61"/>
<polygon fill="midnightblue" stroke="midnightblue" points="905.5,-140.13 895.09,-142.1 904.45,-147.06 905.5,-140.13"/>
</g>
<!-- Node248&#45;&gt;Node249 -->
<g id="edge34" class="edge">
<title>Node248&#45;&gt;Node249</title>
<path fill="none" stroke="midnightblue" d="M1293.54,-190.37C1322.4,-179.07 1373.15,-159.2 1406.04,-146.32"/>
<polygon fill="midnightblue" stroke="midnightblue" points="1407.59,-149.47 1415.63,-142.56 1405.04,-142.95 1407.59,-149.47"/>
</g>
</g>
</svg>
