<?xml version="1.0" encoding="UTF-8" standalone="no"?>
<!DOCTYPE svg PUBLIC "-//W3C//DTD SVG 1.1//EN"
 "http://www.w3.org/Graphics/SVG/1.1/DTD/svg11.dtd">
<!-- Generated by graphviz version 2.43.0 (0)
 -->
<!-- Title: boost/ui/widget.hpp Pages: 1 -->
<svg width="1285pt" height="274pt"
 viewBox="0.00 0.00 1284.50 274.00" xmlns="http://www.w3.org/2000/svg" xmlns:xlink="http://www.w3.org/1999/xlink">
<g id="graph0" class="graph" transform="scale(1 1) rotate(0) translate(4 270)">
<title>boost/ui/widget.hpp</title>
<polygon fill="white" stroke="transparent" points="-4,4 -4,-270 1280.5,-270 1280.5,4 -4,4"/>
<!-- Node1 -->
<g id="node1" class="node">
<title>Node1</title>
<g id="a_node1"><a xlink:title="Widget class.">
<polygon fill="#bfbfbf" stroke="black" points="794.5,-246.5 794.5,-265.5 907.5,-265.5 907.5,-246.5 794.5,-246.5"/>
<text text-anchor="middle" x="851" y="-253.5" font-family="Helvetica,sans-Serif" font-size="10.00">boost/ui/widget.hpp</text>
</a>
</g>
</g>
<!-- Node2 -->
<g id="node2" class="node">
<title>Node2</title>
<g id="a_node2"><a xlink:href="config_8hpp.html" target="_top" xlink:title="Configuration options.">
<polygon fill="white" stroke="black" points="756,-62 756,-81 866,-81 866,-62 756,-62"/>
<text text-anchor="middle" x="811" y="-69" font-family="Helvetica,sans-Serif" font-size="10.00">boost/ui/config.hpp</text>
</a>
</g>
</g>
<!-- Node1&#45;&gt;Node2 -->
<g id="edge1" class="edge">
<title>Node1&#45;&gt;Node2</title>
<path fill="none" stroke="midnightblue" d="M794.26,-252.91C728.49,-249.16 626.01,-238.74 602,-210 589.25,-194.74 606.85,-129.51 613,-123 618.26,-117.44 706.47,-96.41 763.36,-83.31"/>
<polygon fill="midnightblue" stroke="midnightblue" points="764.28,-86.69 773.24,-81.04 762.71,-79.87 764.28,-86.69"/>
</g>
<!-- Node4 -->
<g id="node4" class="node">
<title>Node4</title>
<g id="a_node4"><a xlink:href="coord_8hpp.html" target="_top" xlink:title="Coordinates classes.">
<polygon fill="white" stroke="black" points="428.5,-123.5 428.5,-142.5 535.5,-142.5 535.5,-123.5 428.5,-123.5"/>
<text text-anchor="middle" x="482" y="-130.5" font-family="Helvetica,sans-Serif" font-size="10.00">boost/ui/coord.hpp</text>
</a>
</g>
</g>
<!-- Node1&#45;&gt;Node4 -->
<g id="edge3" class="edge">
<title>Node1&#45;&gt;Node4</title>
<path fill="none" stroke="midnightblue" d="M794.46,-251.13C719.29,-245.21 591.16,-232.2 550,-210 524.76,-196.38 504.23,-169.57 492.56,-151.71"/>
<polygon fill="midnightblue" stroke="midnightblue" points="495.29,-149.47 487.02,-142.85 489.35,-153.18 495.29,-149.47"/>
</g>
<!-- Node10 -->
<g id="node10" class="node">
<title>Node10</title>
<g id="a_node10"><a xlink:href="string_8hpp.html" target="_top" xlink:title="String class and operations.">
<polygon fill="white" stroke="black" points="1098.5,-123.5 1098.5,-142.5 1205.5,-142.5 1205.5,-123.5 1098.5,-123.5"/>
<text text-anchor="middle" x="1152" y="-130.5" font-family="Helvetica,sans-Serif" font-size="10.00">boost/ui/string.hpp</text>
</a>
</g>
</g>
<!-- Node1&#45;&gt;Node10 -->
<g id="edge10" class="edge">
<title>Node1&#45;&gt;Node10</title>
<path fill="none" stroke="midnightblue" d="M874.5,-246.44C895.34,-238.4 926.22,-225.31 951,-210 969.54,-198.54 969.64,-189 989,-179 1020.66,-162.65 1058.93,-151.69 1090.44,-144.68"/>
<polygon fill="midnightblue" stroke="midnightblue" points="1091.36,-148.06 1100.41,-142.54 1089.9,-141.21 1091.36,-148.06"/>
</g>
<!-- Node14 -->
<g id="node14" class="node">
<title>Node14</title>
<g id="a_node14"><a xlink:href="event_8hpp.html" target="_top" xlink:title="Event classes.">
<polygon fill="white" stroke="black" points="611.5,-185 611.5,-204 718.5,-204 718.5,-185 611.5,-185"/>
<text text-anchor="middle" x="665" y="-192" font-family="Helvetica,sans-Serif" font-size="10.00">boost/ui/event.hpp</text>
</a>
</g>
</g>
<!-- Node1&#45;&gt;Node14 -->
<g id="edge15" class="edge">
<title>Node1&#45;&gt;Node14</title>
<path fill="none" stroke="midnightblue" d="M824.35,-246.48C792.03,-236.14 737.4,-218.66 701.27,-207.1"/>
<polygon fill="midnightblue" stroke="midnightblue" points="702.19,-203.72 691.6,-204.01 700.06,-210.39 702.19,-203.72"/>
</g>
<!-- Node16 -->
<g id="node16" class="node">
<title>Node16</title>
<g id="a_node16"><a xlink:href="font_8hpp.html" target="_top" xlink:title="Font class.">
<polygon fill="white" stroke="black" points="842.5,-185 842.5,-204 941.5,-204 941.5,-185 842.5,-185"/>
<text text-anchor="middle" x="892" y="-192" font-family="Helvetica,sans-Serif" font-size="10.00">boost/ui/font.hpp</text>
</a>
</g>
</g>
<!-- Node1&#45;&gt;Node16 -->
<g id="edge19" class="edge">
<title>Node1&#45;&gt;Node16</title>
<path fill="none" stroke="midnightblue" d="M856.87,-246.48C862.96,-237.64 872.64,-223.59 880.3,-212.48"/>
<polygon fill="midnightblue" stroke="midnightblue" points="883.34,-214.23 886.14,-204.01 877.58,-210.26 883.34,-214.23"/>
</g>
<!-- Node18 -->
<g id="node18" class="node">
<title>Node18</title>
<g id="a_node18"><a xlink:href="layout_8hpp.html" target="_top" xlink:title="Layout classes.">
<polygon fill="white" stroke="black" points="756,-123.5 756,-142.5 866,-142.5 866,-123.5 756,-123.5"/>
<text text-anchor="middle" x="811" y="-130.5" font-family="Helvetica,sans-Serif" font-size="10.00">boost/ui/layout.hpp</text>
</a>
</g>
</g>
<!-- Node1&#45;&gt;Node18 -->
<g id="edge23" class="edge">
<title>Node1&#45;&gt;Node18</title>
<path fill="none" stroke="midnightblue" d="M847.29,-246.47C843.46,-237.49 837.43,-222.89 833,-210 826.32,-190.56 819.93,-167.87 815.77,-152.38"/>
<polygon fill="midnightblue" stroke="midnightblue" points="819.11,-151.3 813.17,-142.52 812.34,-153.08 819.11,-151.3"/>
</g>
<!-- Node19 -->
<g id="node19" class="node">
<title>Node19</title>
<g id="a_node19"><a xlink:title=" ">
<polygon fill="white" stroke="#bfbfbf" points="998,-179.5 998,-209.5 1120,-209.5 1120,-179.5 998,-179.5"/>
<text text-anchor="start" x="1006" y="-197.5" font-family="Helvetica,sans-Serif" font-size="10.00">boost/ui/detail/shared</text>
<text text-anchor="middle" x="1059" y="-186.5" font-family="Helvetica,sans-Serif" font-size="10.00">_count.hpp</text>
</a>
</g>
</g>
<!-- Node1&#45;&gt;Node19 -->
<g id="edge25" class="edge">
<title>Node1&#45;&gt;Node19</title>
<path fill="none" stroke="midnightblue" d="M880.8,-246.48C911.87,-237.59 961.37,-223.43 1000.32,-212.29"/>
<polygon fill="midnightblue" stroke="midnightblue" points="1001.33,-215.64 1009.98,-209.52 999.4,-208.91 1001.33,-215.64"/>
</g>
<!-- Node20 -->
<g id="node20" class="node">
<title>Node20</title>
<g id="a_node20"><a xlink:title=" ">
<polygon fill="white" stroke="#bfbfbf" points="1138,-185 1138,-204 1276,-204 1276,-185 1138,-185"/>
<text text-anchor="middle" x="1207" y="-192" font-family="Helvetica,sans-Serif" font-size="10.00">boost/ui/detail/event.hpp</text>
</a>
</g>
</g>
<!-- Node1&#45;&gt;Node20 -->
<g id="edge26" class="edge">
<title>Node1&#45;&gt;Node20</title>
<path fill="none" stroke="midnightblue" d="M905.92,-246.5C962.04,-237.72 1051.69,-223.44 1129,-210 1136.45,-208.7 1144.3,-207.3 1152.03,-205.89"/>
<polygon fill="midnightblue" stroke="midnightblue" points="1152.87,-209.29 1162.07,-204.04 1151.61,-202.4 1152.87,-209.29"/>
</g>
<!-- Node3 -->
<g id="node3" class="node">
<title>Node3</title>
<g id="a_node3"><a xlink:title=" ">
<polygon fill="white" stroke="#bfbfbf" points="762,-0.5 762,-19.5 860,-19.5 860,-0.5 762,-0.5"/>
<text text-anchor="middle" x="811" y="-7.5" font-family="Helvetica,sans-Serif" font-size="10.00">boost/config.hpp</text>
</a>
</g>
</g>
<!-- Node2&#45;&gt;Node3 -->
<g id="edge2" class="edge">
<title>Node2&#45;&gt;Node3</title>
<path fill="none" stroke="midnightblue" d="M811,-61.98C811,-53.58 811,-40.48 811,-29.66"/>
<polygon fill="midnightblue" stroke="midnightblue" points="814.5,-29.51 811,-19.51 807.5,-29.51 814.5,-29.51"/>
</g>
<!-- Node4&#45;&gt;Node2 -->
<g id="edge4" class="edge">
<title>Node4&#45;&gt;Node2</title>
<path fill="none" stroke="midnightblue" d="M535.7,-123.76C589.35,-115.33 674.1,-101.44 747,-87 752.8,-85.85 758.88,-84.57 764.88,-83.26"/>
<polygon fill="midnightblue" stroke="midnightblue" points="765.85,-86.63 774.86,-81.05 764.34,-79.8 765.85,-86.63"/>
</g>
<!-- Node5 -->
<g id="node5" class="node">
<title>Node5</title>
<g id="a_node5"><a xlink:title=" ">
<polygon fill="white" stroke="#bfbfbf" points="454.5,-62 454.5,-81 567.5,-81 567.5,-62 454.5,-62"/>
<text text-anchor="middle" x="511" y="-69" font-family="Helvetica,sans-Serif" font-size="10.00">boost/geometry.hpp</text>
</a>
</g>
</g>
<!-- Node4&#45;&gt;Node5 -->
<g id="edge5" class="edge">
<title>Node4&#45;&gt;Node5</title>
<path fill="none" stroke="midnightblue" d="M486.15,-123.48C490.38,-114.82 497.04,-101.15 502.4,-90.15"/>
<polygon fill="midnightblue" stroke="midnightblue" points="505.62,-91.53 506.85,-81.01 499.33,-88.46 505.62,-91.53"/>
</g>
<!-- Node6 -->
<g id="node6" class="node">
<title>Node6</title>
<g id="a_node6"><a xlink:title=" ">
<polygon fill="white" stroke="#bfbfbf" points="586,-56.5 586,-86.5 738,-86.5 738,-56.5 586,-56.5"/>
<text text-anchor="start" x="594" y="-74.5" font-family="Helvetica,sans-Serif" font-size="10.00">boost/geometry/geometries</text>
<text text-anchor="middle" x="662" y="-63.5" font-family="Helvetica,sans-Serif" font-size="10.00">/point_xy.hpp</text>
</a>
</g>
</g>
<!-- Node4&#45;&gt;Node6 -->
<g id="edge6" class="edge">
<title>Node4&#45;&gt;Node6</title>
<path fill="none" stroke="midnightblue" d="M507.79,-123.48C534.33,-114.7 576.42,-100.79 609.93,-89.71"/>
<polygon fill="midnightblue" stroke="midnightblue" points="611.18,-92.98 619.58,-86.52 608.98,-86.34 611.18,-92.98"/>
</g>
<!-- Node7 -->
<g id="node7" class="node">
<title>Node7</title>
<g id="a_node7"><a xlink:title=" ">
<polygon fill="white" stroke="#bfbfbf" points="0,-56.5 0,-86.5 152,-86.5 152,-56.5 0,-56.5"/>
<text text-anchor="start" x="8" y="-74.5" font-family="Helvetica,sans-Serif" font-size="10.00">boost/geometry/geometries</text>
<text text-anchor="middle" x="76" y="-63.5" font-family="Helvetica,sans-Serif" font-size="10.00">/box.hpp</text>
</a>
</g>
</g>
<!-- Node4&#45;&gt;Node7 -->
<g id="edge7" class="edge">
<title>Node4&#45;&gt;Node7</title>
<path fill="none" stroke="midnightblue" d="M428.26,-124.96C366.5,-116.76 261.85,-102.53 162.36,-87.19"/>
<polygon fill="midnightblue" stroke="midnightblue" points="162.86,-83.72 152.44,-85.65 161.78,-90.64 162.86,-83.72"/>
</g>
<!-- Node8 -->
<g id="node8" class="node">
<title>Node8</title>
<g id="a_node8"><a xlink:title=" ">
<polygon fill="white" stroke="#bfbfbf" points="170.5,-56.5 170.5,-86.5 283.5,-86.5 283.5,-56.5 170.5,-56.5"/>
<text text-anchor="start" x="178.5" y="-74.5" font-family="Helvetica,sans-Serif" font-size="10.00">boost/polygon/point</text>
<text text-anchor="middle" x="227" y="-63.5" font-family="Helvetica,sans-Serif" font-size="10.00">_data.hpp</text>
</a>
</g>
</g>
<!-- Node4&#45;&gt;Node8 -->
<g id="edge8" class="edge">
<title>Node4&#45;&gt;Node8</title>
<path fill="none" stroke="midnightblue" d="M445.46,-123.48C405.91,-114.25 341.99,-99.33 293.48,-88.01"/>
<polygon fill="midnightblue" stroke="midnightblue" points="294.22,-84.59 283.69,-85.73 292.63,-91.41 294.22,-84.59"/>
</g>
<!-- Node9 -->
<g id="node9" class="node">
<title>Node9</title>
<g id="a_node9"><a xlink:title=" ">
<polygon fill="white" stroke="#bfbfbf" points="302,-56.5 302,-86.5 436,-86.5 436,-56.5 302,-56.5"/>
<text text-anchor="start" x="310" y="-74.5" font-family="Helvetica,sans-Serif" font-size="10.00">boost/polygon/rectangle</text>
<text text-anchor="middle" x="369" y="-63.5" font-family="Helvetica,sans-Serif" font-size="10.00">_data.hpp</text>
</a>
</g>
</g>
<!-- Node4&#45;&gt;Node9 -->
<g id="edge9" class="edge">
<title>Node4&#45;&gt;Node9</title>
<path fill="none" stroke="midnightblue" d="M465.81,-123.48C449.93,-115.12 425.2,-102.09 404.7,-91.3"/>
<polygon fill="midnightblue" stroke="midnightblue" points="406.11,-88.09 395.63,-86.52 402.85,-94.28 406.11,-88.09"/>
</g>
<!-- Node10&#45;&gt;Node2 -->
<g id="edge11" class="edge">
<title>Node10&#45;&gt;Node2</title>
<path fill="none" stroke="midnightblue" d="M1103.14,-123.48C1041.61,-112.74 935.97,-94.31 870,-82.79"/>
<polygon fill="midnightblue" stroke="midnightblue" points="870.22,-79.28 859.77,-81.01 869.02,-86.18 870.22,-79.28"/>
</g>
<!-- Node11 -->
<g id="node11" class="node">
<title>Node11</title>
<g id="a_node11"><a xlink:title=" ">
<polygon fill="white" stroke="#bfbfbf" points="1048,-62 1048,-81 1092,-81 1092,-62 1048,-62"/>
<text text-anchor="middle" x="1070" y="-69" font-family="Helvetica,sans-Serif" font-size="10.00">string</text>
</a>
</g>
</g>
<!-- Node10&#45;&gt;Node11 -->
<g id="edge12" class="edge">
<title>Node10&#45;&gt;Node11</title>
<path fill="none" stroke="midnightblue" d="M1140.25,-123.48C1127.22,-114.02 1105.96,-98.6 1090.24,-87.19"/>
<polygon fill="midnightblue" stroke="midnightblue" points="1091.88,-84.05 1081.73,-81.01 1087.77,-89.71 1091.88,-84.05"/>
</g>
<!-- Node12 -->
<g id="node12" class="node">
<title>Node12</title>
<g id="a_node12"><a xlink:title=" ">
<polygon fill="white" stroke="#bfbfbf" points="1110.5,-62 1110.5,-81 1193.5,-81 1193.5,-62 1110.5,-62"/>
<text text-anchor="middle" x="1152" y="-69" font-family="Helvetica,sans-Serif" font-size="10.00">initializer_list</text>
</a>
</g>
</g>
<!-- Node10&#45;&gt;Node12 -->
<g id="edge13" class="edge">
<title>Node10&#45;&gt;Node12</title>
<path fill="none" stroke="midnightblue" d="M1152,-123.48C1152,-115.08 1152,-101.98 1152,-91.16"/>
<polygon fill="midnightblue" stroke="midnightblue" points="1155.5,-91.01 1152,-81.01 1148.5,-91.01 1155.5,-91.01"/>
</g>
<!-- Node13 -->
<g id="node13" class="node">
<title>Node13</title>
<g id="a_node13"><a xlink:title=" ">
<polygon fill="white" stroke="#bfbfbf" points="1211.5,-62 1211.5,-81 1276.5,-81 1276.5,-62 1211.5,-62"/>
<text text-anchor="middle" x="1244" y="-69" font-family="Helvetica,sans-Serif" font-size="10.00">functional</text>
</a>
</g>
</g>
<!-- Node10&#45;&gt;Node13 -->
<g id="edge14" class="edge">
<title>Node10&#45;&gt;Node13</title>
<path fill="none" stroke="midnightblue" d="M1165.18,-123.48C1180.07,-113.84 1204.54,-98.02 1222.27,-86.55"/>
<polygon fill="midnightblue" stroke="midnightblue" points="1224.35,-89.38 1230.84,-81.01 1220.55,-83.5 1224.35,-89.38"/>
</g>
<!-- Node14&#45;&gt;Node2 -->
<g id="edge16" class="edge">
<title>Node14&#45;&gt;Node2</title>
<path fill="none" stroke="midnightblue" d="M652.68,-184.9C634.63,-171.26 604.82,-144.04 621,-123 625.47,-117.19 709.52,-96.43 764.31,-83.41"/>
<polygon fill="midnightblue" stroke="midnightblue" points="765.26,-86.78 774.18,-81.07 763.64,-79.97 765.26,-86.78"/>
</g>
<!-- Node14&#45;&gt;Node4 -->
<g id="edge17" class="edge">
<title>Node14&#45;&gt;Node4</title>
<path fill="none" stroke="midnightblue" d="M638.78,-184.98C606.98,-174.64 553.23,-157.16 517.68,-145.6"/>
<polygon fill="midnightblue" stroke="midnightblue" points="518.76,-142.27 508.17,-142.51 516.6,-148.93 518.76,-142.27"/>
</g>
<!-- Node15 -->
<g id="node15" class="node">
<title>Node15</title>
<g id="a_node15"><a xlink:title=" ">
<polygon fill="white" stroke="#bfbfbf" points="630.5,-123.5 630.5,-142.5 737.5,-142.5 737.5,-123.5 630.5,-123.5"/>
<text text-anchor="middle" x="684" y="-130.5" font-family="Helvetica,sans-Serif" font-size="10.00">boost/function.hpp</text>
</a>
</g>
</g>
<!-- Node14&#45;&gt;Node15 -->
<g id="edge18" class="edge">
<title>Node14&#45;&gt;Node15</title>
<path fill="none" stroke="midnightblue" d="M667.72,-184.98C670.43,-176.49 674.67,-163.2 678.15,-152.32"/>
<polygon fill="midnightblue" stroke="midnightblue" points="681.57,-153.1 681.28,-142.51 674.91,-150.97 681.57,-153.1"/>
</g>
<!-- Node16&#45;&gt;Node2 -->
<g id="edge20" class="edge">
<title>Node16&#45;&gt;Node2</title>
<path fill="none" stroke="midnightblue" d="M891.72,-184.99C890.88,-171 887.63,-142.72 875,-123 865.32,-107.89 849.54,-95.37 836.07,-86.57"/>
<polygon fill="midnightblue" stroke="midnightblue" points="837.56,-83.37 827.22,-81.09 833.88,-89.33 837.56,-83.37"/>
</g>
<!-- Node16&#45;&gt;Node10 -->
<g id="edge21" class="edge">
<title>Node16&#45;&gt;Node10</title>
<path fill="none" stroke="midnightblue" d="M929.25,-184.98C975.49,-174.39 1054.4,-156.34 1104.82,-144.8"/>
<polygon fill="midnightblue" stroke="midnightblue" points="1105.85,-148.15 1114.82,-142.51 1104.29,-141.33 1105.85,-148.15"/>
</g>
<!-- Node17 -->
<g id="node17" class="node">
<title>Node17</title>
<g id="a_node17"><a xlink:title=" ">
<polygon fill="white" stroke="#bfbfbf" points="921.5,-123.5 921.5,-142.5 1080.5,-142.5 1080.5,-123.5 921.5,-123.5"/>
<text text-anchor="middle" x="1001" y="-130.5" font-family="Helvetica,sans-Serif" font-size="10.00">boost/core/scoped_enum.hpp</text>
</a>
</g>
</g>
<!-- Node16&#45;&gt;Node17 -->
<g id="edge22" class="edge">
<title>Node16&#45;&gt;Node17</title>
<path fill="none" stroke="midnightblue" d="M907.62,-184.98C925.59,-175.17 955.32,-158.93 976.41,-147.42"/>
<polygon fill="midnightblue" stroke="midnightblue" points="978.31,-150.37 985.41,-142.51 974.96,-144.23 978.31,-150.37"/>
</g>
<!-- Node18&#45;&gt;Node2 -->
<g id="edge24" class="edge">
<title>Node18&#45;&gt;Node2</title>
<path fill="none" stroke="midnightblue" d="M811,-123.48C811,-115.08 811,-101.98 811,-91.16"/>
<polygon fill="midnightblue" stroke="midnightblue" points="814.5,-91.01 811,-81.01 807.5,-91.01 814.5,-91.01"/>
</g>
</g>
</svg>
