<?xml version="1.0" encoding="UTF-8" standalone="no"?>
<!DOCTYPE svg PUBLIC "-//W3C//DTD SVG 1.1//EN"
 "http://www.w3.org/Graphics/SVG/1.1/DTD/svg11.dtd">
<!-- Generated by graphviz version 2.38.0 (20140413.2041)
 -->
<!-- Title: boost/ui/widget.hpp Pages: 1 -->
<svg width="1174pt" height="274pt"
 viewBox="0.00 0.00 1174.00 274.00" xmlns="http://www.w3.org/2000/svg" xmlns:xlink="http://www.w3.org/1999/xlink">
<g id="graph0" class="graph" transform="scale(1 1) rotate(0) translate(4 270)">
<title>boost/ui/widget.hpp</title>
<polygon fill="white" stroke="none" points="-4,4 -4,-270 1170,-270 1170,4 -4,4"/>
<!-- Node1 -->
<g id="node1" class="node"><title>Node1</title>
<polygon fill="#bfbfbf" stroke="black" points="723,-246.5 723,-265.5 824,-265.5 824,-246.5 723,-246.5"/>
<text text-anchor="middle" x="773.5" y="-253.5" font-family="Helvetica,sans-Serif" font-size="10.00">boost/ui/widget.hpp</text>
</g>
<!-- Node2 -->
<g id="node2" class="node"><title>Node2</title>
<g id="a_node2"><a xlink:href="config_8hpp.html" target="_top" xlink:title="Configuration options. ">
<polygon fill="white" stroke="black" points="685,-62 685,-81 784,-81 784,-62 685,-62"/>
<text text-anchor="middle" x="734.5" y="-69" font-family="Helvetica,sans-Serif" font-size="10.00">boost/ui/config.hpp</text>
</a>
</g>
</g>
<!-- Node1&#45;&gt;Node2 -->
<g id="edge1" class="edge"><title>Node1&#45;&gt;Node2</title>
<path fill="none" stroke="midnightblue" d="M722.741,-252.474C661.525,-248.242 564.014,-237.301 541.5,-210 528.869,-194.683 546.568,-129.405 552.5,-123 557.301,-117.816 638.167,-96.7136 690.476,-83.4827"/>
<polygon fill="midnightblue" stroke="midnightblue" points="691.366,-86.868 700.206,-81.029 689.654,-80.0805 691.366,-86.868"/>
</g>
<!-- Node4 -->
<g id="node4" class="node"><title>Node4</title>
<g id="a_node4"><a xlink:href="coord_8hpp.html" target="_top" xlink:title="Coordinates classes. ">
<polygon fill="white" stroke="black" points="378,-123.5 378,-142.5 475,-142.5 475,-123.5 378,-123.5"/>
<text text-anchor="middle" x="426.5" y="-130.5" font-family="Helvetica,sans-Serif" font-size="10.00">boost/ui/coord.hpp</text>
</a>
</g>
</g>
<!-- Node1&#45;&gt;Node4 -->
<g id="edge3" class="edge"><title>Node1&#45;&gt;Node4</title>
<path fill="none" stroke="midnightblue" d="M722.708,-251.264C652.047,-245.343 528.374,-232.149 489.5,-210 465.377,-196.255 446.556,-169.472 435.987,-151.656"/>
<polygon fill="midnightblue" stroke="midnightblue" points="438.957,-149.797 430.983,-142.821 432.866,-153.247 438.957,-149.797"/>
</g>
<!-- Node10 -->
<g id="node10" class="node"><title>Node10</title>
<g id="a_node10"><a xlink:href="string_8hpp.html" target="_top" xlink:title="String class and operations. ">
<polygon fill="white" stroke="black" points="1004,-123.5 1004,-142.5 1101,-142.5 1101,-123.5 1004,-123.5"/>
<text text-anchor="middle" x="1052.5" y="-130.5" font-family="Helvetica,sans-Serif" font-size="10.00">boost/ui/string.hpp</text>
</a>
</g>
</g>
<!-- Node1&#45;&gt;Node10 -->
<g id="edge10" class="edge"><title>Node1&#45;&gt;Node10</title>
<path fill="none" stroke="midnightblue" d="M793.451,-246.472C812.128,-238.157 840.522,-224.652 863.5,-210 882.17,-198.096 882.876,-189.255 902.5,-179 932.569,-163.287 968.965,-152.2 998.375,-144.963"/>
<polygon fill="midnightblue" stroke="midnightblue" points="999.546,-148.282 1008.46,-142.563 997.926,-141.472 999.546,-148.282"/>
</g>
<!-- Node14 -->
<g id="node14" class="node"><title>Node14</title>
<g id="a_node14"><a xlink:href="event_8hpp.html" target="_top" xlink:title="Event classes. ">
<polygon fill="white" stroke="black" points="551,-185 551,-204 648,-204 648,-185 551,-185"/>
<text text-anchor="middle" x="599.5" y="-192" font-family="Helvetica,sans-Serif" font-size="10.00">boost/ui/event.hpp</text>
</a>
</g>
</g>
<!-- Node1&#45;&gt;Node14 -->
<g id="edge15" class="edge"><title>Node1&#45;&gt;Node14</title>
<path fill="none" stroke="midnightblue" d="M748.57,-246.475C718.464,-236.18 667.668,-218.81 633.862,-207.25"/>
<polygon fill="midnightblue" stroke="midnightblue" points="634.978,-203.933 624.384,-204.009 632.713,-210.556 634.978,-203.933"/>
</g>
<!-- Node16 -->
<g id="node16" class="node"><title>Node16</title>
<g id="a_node16"><a xlink:href="font_8hpp.html" target="_top" xlink:title="Font class. ">
<polygon fill="white" stroke="black" points="766,-185 766,-204 855,-204 855,-185 766,-185"/>
<text text-anchor="middle" x="810.5" y="-192" font-family="Helvetica,sans-Serif" font-size="10.00">boost/ui/font.hpp</text>
</a>
</g>
</g>
<!-- Node1&#45;&gt;Node16 -->
<g id="edge19" class="edge"><title>Node1&#45;&gt;Node16</title>
<path fill="none" stroke="midnightblue" d="M778.801,-246.475C784.241,-237.727 792.859,-223.869 799.736,-212.809"/>
<polygon fill="midnightblue" stroke="midnightblue" points="802.9,-214.349 805.209,-204.009 796.956,-210.653 802.9,-214.349"/>
</g>
<!-- Node18 -->
<g id="node18" class="node"><title>Node18</title>
<g id="a_node18"><a xlink:href="layout_8hpp.html" target="_top" xlink:title="Layout classes. ">
<polygon fill="white" stroke="black" points="685,-123.5 685,-142.5 784,-142.5 784,-123.5 685,-123.5"/>
<text text-anchor="middle" x="734.5" y="-130.5" font-family="Helvetica,sans-Serif" font-size="10.00">boost/ui/layout.hpp</text>
</a>
</g>
</g>
<!-- Node1&#45;&gt;Node18 -->
<g id="edge23" class="edge"><title>Node1&#45;&gt;Node18</title>
<path fill="none" stroke="midnightblue" d="M770.036,-246.446C766.447,-237.447 760.775,-222.836 756.5,-210 750.004,-190.494 743.584,-167.818 739.371,-152.347"/>
<polygon fill="midnightblue" stroke="midnightblue" points="742.701,-151.251 736.724,-142.502 735.941,-153.068 742.701,-151.251"/>
</g>
<!-- Node19 -->
<g id="node19" class="node"><title>Node19</title>
<polygon fill="white" stroke="#bfbfbf" points="911.5,-179.5 911.5,-209.5 1021.5,-209.5 1021.5,-179.5 911.5,-179.5"/>
<text text-anchor="start" x="919.5" y="-197.5" font-family="Helvetica,sans-Serif" font-size="10.00">boost/ui/detail/shared</text>
<text text-anchor="middle" x="966.5" y="-186.5" font-family="Helvetica,sans-Serif" font-size="10.00">_count.hpp</text>
</g>
<!-- Node1&#45;&gt;Node19 -->
<g id="edge25" class="edge"><title>Node1&#45;&gt;Node19</title>
<path fill="none" stroke="midnightblue" d="M801.152,-246.475C829.734,-237.664 875.13,-223.668 911.131,-212.57"/>
<polygon fill="midnightblue" stroke="midnightblue" points="912.489,-215.814 921.014,-209.523 910.426,-209.124 912.489,-215.814"/>
</g>
<!-- Node20 -->
<g id="node20" class="node"><title>Node20</title>
<polygon fill="white" stroke="#bfbfbf" points="1040,-185 1040,-204 1163,-204 1163,-185 1040,-185"/>
<text text-anchor="middle" x="1101.5" y="-192" font-family="Helvetica,sans-Serif" font-size="10.00">boost/ui/detail/event.hpp</text>
</g>
<!-- Node1&#45;&gt;Node20 -->
<g id="edge26" class="edge"><title>Node1&#45;&gt;Node20</title>
<path fill="none" stroke="midnightblue" d="M824.29,-246.54C876.188,-237.794 959.071,-223.544 1030.5,-210 1037.06,-208.756 1043.95,-207.404 1050.76,-206.043"/>
<polygon fill="midnightblue" stroke="midnightblue" points="1051.5,-209.463 1060.62,-204.054 1050.12,-202.602 1051.5,-209.463"/>
</g>
<!-- Node3 -->
<g id="node3" class="node"><title>Node3</title>
<polygon fill="white" stroke="#bfbfbf" points="690,-0.5 690,-19.5 779,-19.5 779,-0.5 690,-0.5"/>
<text text-anchor="middle" x="734.5" y="-7.5" font-family="Helvetica,sans-Serif" font-size="10.00">boost/config.hpp</text>
</g>
<!-- Node2&#45;&gt;Node3 -->
<g id="edge2" class="edge"><title>Node2&#45;&gt;Node3</title>
<path fill="none" stroke="midnightblue" d="M734.5,-61.9751C734.5,-53.5803 734.5,-40.4806 734.5,-29.6631"/>
<polygon fill="midnightblue" stroke="midnightblue" points="738,-29.5091 734.5,-19.5091 731,-29.5091 738,-29.5091"/>
</g>
<!-- Node4&#45;&gt;Node2 -->
<g id="edge4" class="edge"><title>Node4&#45;&gt;Node2</title>
<path fill="none" stroke="midnightblue" d="M475.342,-124.096C525.675,-115.735 606.326,-101.736 675.5,-87 680.592,-85.9152 685.914,-84.7097 691.188,-83.4704"/>
<polygon fill="midnightblue" stroke="midnightblue" points="692.29,-86.8053 701.197,-81.0682 690.656,-79.9986 692.29,-86.8053"/>
</g>
<!-- Node5 -->
<g id="node5" class="node"><title>Node5</title>
<polygon fill="white" stroke="#bfbfbf" points="411,-62 411,-81 514,-81 514,-62 411,-62"/>
<text text-anchor="middle" x="462.5" y="-69" font-family="Helvetica,sans-Serif" font-size="10.00">boost/geometry.hpp</text>
</g>
<!-- Node4&#45;&gt;Node5 -->
<g id="edge5" class="edge"><title>Node4&#45;&gt;Node5</title>
<path fill="none" stroke="midnightblue" d="M431.658,-123.475C436.951,-114.727 445.335,-100.869 452.027,-89.8093"/>
<polygon fill="midnightblue" stroke="midnightblue" points="455.17,-91.3768 457.352,-81.0091 449.18,-87.7531 455.17,-91.3768"/>
</g>
<!-- Node6 -->
<g id="node6" class="node"><title>Node6</title>
<polygon fill="white" stroke="#bfbfbf" points="532,-56.5 532,-86.5 667,-86.5 667,-56.5 532,-56.5"/>
<text text-anchor="start" x="540" y="-74.5" font-family="Helvetica,sans-Serif" font-size="10.00">boost/geometry/geometries</text>
<text text-anchor="middle" x="599.5" y="-63.5" font-family="Helvetica,sans-Serif" font-size="10.00">/point_xy.hpp</text>
</g>
<!-- Node4&#45;&gt;Node6 -->
<g id="edge6" class="edge"><title>Node4&#45;&gt;Node6</title>
<path fill="none" stroke="midnightblue" d="M451.287,-123.475C476.688,-114.739 516.904,-100.907 549.039,-89.855"/>
<polygon fill="midnightblue" stroke="midnightblue" points="550.409,-93.0851 558.727,-86.523 548.133,-86.4656 550.409,-93.0851"/>
</g>
<!-- Node7 -->
<g id="node7" class="node"><title>Node7</title>
<polygon fill="white" stroke="#bfbfbf" points="0,-56.5 0,-86.5 135,-86.5 135,-56.5 0,-56.5"/>
<text text-anchor="start" x="8" y="-74.5" font-family="Helvetica,sans-Serif" font-size="10.00">boost/geometry/geometries</text>
<text text-anchor="middle" x="67.5" y="-63.5" font-family="Helvetica,sans-Serif" font-size="10.00">/box.hpp</text>
</g>
<!-- Node4&#45;&gt;Node7 -->
<g id="edge7" class="edge"><title>Node4&#45;&gt;Node7</title>
<path fill="none" stroke="midnightblue" d="M377.85,-124.73C323.502,-116.505 232.642,-102.445 145.126,-87.256"/>
<polygon fill="midnightblue" stroke="midnightblue" points="145.478,-83.7645 135.025,-85.495 144.276,-90.6605 145.478,-83.7645"/>
</g>
<!-- Node8 -->
<g id="node8" class="node"><title>Node8</title>
<polygon fill="white" stroke="#bfbfbf" points="153,-56.5 153,-86.5 254,-86.5 254,-56.5 153,-56.5"/>
<text text-anchor="start" x="161" y="-74.5" font-family="Helvetica,sans-Serif" font-size="10.00">boost/polygon/point</text>
<text text-anchor="middle" x="203.5" y="-63.5" font-family="Helvetica,sans-Serif" font-size="10.00">_data.hpp</text>
</g>
<!-- Node4&#45;&gt;Node8 -->
<g id="edge8" class="edge"><title>Node4&#45;&gt;Node8</title>
<path fill="none" stroke="midnightblue" d="M394.55,-123.475C360.655,-114.432 306.297,-99.928 264.214,-88.6995"/>
<polygon fill="midnightblue" stroke="midnightblue" points="264.911,-85.263 254.346,-86.0666 263.106,-92.0264 264.911,-85.263"/>
</g>
<!-- Node9 -->
<g id="node9" class="node"><title>Node9</title>
<polygon fill="white" stroke="#bfbfbf" points="272.5,-56.5 272.5,-86.5 392.5,-86.5 392.5,-56.5 272.5,-56.5"/>
<text text-anchor="start" x="280.5" y="-74.5" font-family="Helvetica,sans-Serif" font-size="10.00">boost/polygon/rectangle</text>
<text text-anchor="middle" x="332.5" y="-63.5" font-family="Helvetica,sans-Serif" font-size="10.00">_data.hpp</text>
</g>
<!-- Node4&#45;&gt;Node9 -->
<g id="edge9" class="edge"><title>Node4&#45;&gt;Node9</title>
<path fill="none" stroke="midnightblue" d="M413.032,-123.475C400.063,-115.266 379.987,-102.558 363.124,-91.8845"/>
<polygon fill="midnightblue" stroke="midnightblue" points="364.975,-88.9141 354.654,-86.523 361.232,-94.8287 364.975,-88.9141"/>
</g>
<!-- Node10&#45;&gt;Node2 -->
<g id="edge11" class="edge"><title>Node10&#45;&gt;Node2</title>
<path fill="none" stroke="midnightblue" d="M1006.94,-123.475C949.674,-112.761 851.45,-94.3821 789.902,-82.8661"/>
<polygon fill="midnightblue" stroke="midnightblue" points="790.45,-79.408 779.977,-81.0091 789.163,-86.2886 790.45,-79.408"/>
</g>
<!-- Node11 -->
<g id="node11" class="node"><title>Node11</title>
<polygon fill="white" stroke="#bfbfbf" points="957,-62 957,-81 998,-81 998,-62 957,-62"/>
<text text-anchor="middle" x="977.5" y="-69" font-family="Helvetica,sans-Serif" font-size="10.00">string</text>
</g>
<!-- Node10&#45;&gt;Node11 -->
<g id="edge12" class="edge"><title>Node10&#45;&gt;Node11</title>
<path fill="none" stroke="midnightblue" d="M1041.75,-123.475C1029.95,-114.108 1010.76,-98.8839 996.418,-87.5081"/>
<polygon fill="midnightblue" stroke="midnightblue" points="998.235,-84.4822 988.226,-81.0091 993.885,-89.9661 998.235,-84.4822"/>
</g>
<!-- Node12 -->
<g id="node12" class="node"><title>Node12</title>
<polygon fill="white" stroke="#bfbfbf" points="1016,-62 1016,-81 1089,-81 1089,-62 1016,-62"/>
<text text-anchor="middle" x="1052.5" y="-69" font-family="Helvetica,sans-Serif" font-size="10.00">initializer_list</text>
</g>
<!-- Node10&#45;&gt;Node12 -->
<g id="edge13" class="edge"><title>Node10&#45;&gt;Node12</title>
<path fill="none" stroke="midnightblue" d="M1052.5,-123.475C1052.5,-115.08 1052.5,-101.981 1052.5,-91.1631"/>
<polygon fill="midnightblue" stroke="midnightblue" points="1056,-91.0091 1052.5,-81.0091 1049,-91.0091 1056,-91.0091"/>
</g>
<!-- Node13 -->
<g id="node13" class="node"><title>Node13</title>
<polygon fill="white" stroke="#bfbfbf" points="1107,-62 1107,-81 1166,-81 1166,-62 1107,-62"/>
<text text-anchor="middle" x="1136.5" y="-69" font-family="Helvetica,sans-Serif" font-size="10.00">functional</text>
</g>
<!-- Node10&#45;&gt;Node13 -->
<g id="edge14" class="edge"><title>Node10&#45;&gt;Node13</title>
<path fill="none" stroke="midnightblue" d="M1064.54,-123.475C1078.01,-113.931 1100.07,-98.3073 1116.22,-86.8683"/>
<polygon fill="midnightblue" stroke="midnightblue" points="1118.35,-89.6454 1124.49,-81.0091 1114.3,-83.9332 1118.35,-89.6454"/>
</g>
<!-- Node14&#45;&gt;Node2 -->
<g id="edge16" class="edge"><title>Node14&#45;&gt;Node2</title>
<path fill="none" stroke="midnightblue" d="M588.313,-184.79C571.954,-170.996 545.044,-143.579 560.5,-123 564.542,-117.617 641,-96.848 691.207,-83.6796"/>
<polygon fill="midnightblue" stroke="midnightblue" points="692.387,-86.9886 701.177,-81.0737 690.617,-80.2161 692.387,-86.9886"/>
</g>
<!-- Node14&#45;&gt;Node4 -->
<g id="edge17" class="edge"><title>Node14&#45;&gt;Node4</title>
<path fill="none" stroke="midnightblue" d="M574.713,-184.975C544.909,-174.725 494.709,-157.459 461.098,-145.899"/>
<polygon fill="midnightblue" stroke="midnightblue" points="461.835,-142.452 451.241,-142.509 459.559,-149.071 461.835,-142.452"/>
</g>
<!-- Node15 -->
<g id="node15" class="node"><title>Node15</title>
<polygon fill="white" stroke="#bfbfbf" points="570,-123.5 570,-142.5 667,-142.5 667,-123.5 570,-123.5"/>
<text text-anchor="middle" x="618.5" y="-130.5" font-family="Helvetica,sans-Serif" font-size="10.00">boost/function.hpp</text>
</g>
<!-- Node14&#45;&gt;Node15 -->
<g id="edge18" class="edge"><title>Node14&#45;&gt;Node15</title>
<path fill="none" stroke="midnightblue" d="M602.222,-184.975C604.931,-176.492 609.174,-163.204 612.649,-152.322"/>
<polygon fill="midnightblue" stroke="midnightblue" points="616.075,-153.1 615.783,-142.509 609.407,-150.97 616.075,-153.1"/>
</g>
<!-- Node16&#45;&gt;Node2 -->
<g id="edge20" class="edge"><title>Node16&#45;&gt;Node2</title>
<path fill="none" stroke="midnightblue" d="M809.923,-184.603C808.657,-170.552 804.692,-142.789 792.5,-123 783.596,-108.548 769.23,-95.9948 757.024,-87.0191"/>
<polygon fill="midnightblue" stroke="midnightblue" points="758.826,-84.0082 748.626,-81.1397 754.811,-89.7424 758.826,-84.0082"/>
</g>
<!-- Node16&#45;&gt;Node10 -->
<g id="edge21" class="edge"><title>Node16&#45;&gt;Node10</title>
<path fill="none" stroke="midnightblue" d="M845.173,-184.975C888.032,-174.437 961.043,-156.486 1008,-144.941"/>
<polygon fill="midnightblue" stroke="midnightblue" points="1009.02,-148.296 1017.89,-142.509 1007.35,-141.498 1009.02,-148.296"/>
</g>
<!-- Node17 -->
<g id="node17" class="node"><title>Node17</title>
<polygon fill="white" stroke="#bfbfbf" points="841,-123.5 841,-142.5 986,-142.5 986,-123.5 841,-123.5"/>
<text text-anchor="middle" x="913.5" y="-130.5" font-family="Helvetica,sans-Serif" font-size="10.00">boost/core/scoped_enum.hpp</text>
</g>
<!-- Node16&#45;&gt;Node17 -->
<g id="edge22" class="edge"><title>Node16&#45;&gt;Node17</title>
<path fill="none" stroke="midnightblue" d="M825.257,-184.975C842.161,-175.211 870.083,-159.081 889.99,-147.581"/>
<polygon fill="midnightblue" stroke="midnightblue" points="891.862,-150.542 898.77,-142.509 888.36,-144.481 891.862,-150.542"/>
</g>
<!-- Node18&#45;&gt;Node2 -->
<g id="edge24" class="edge"><title>Node18&#45;&gt;Node2</title>
<path fill="none" stroke="midnightblue" d="M734.5,-123.475C734.5,-115.08 734.5,-101.981 734.5,-91.1631"/>
<polygon fill="midnightblue" stroke="midnightblue" points="738,-91.0091 734.5,-81.0091 731,-91.0091 738,-91.0091"/>
</g>
</g>
</svg>
