<?xml version="1.0" encoding="UTF-8" standalone="no"?>
<!DOCTYPE svg PUBLIC "-//W3C//DTD SVG 1.1//EN"
 "http://www.w3.org/Graphics/SVG/1.1/DTD/svg11.dtd">
<!-- Generated by graphviz version 2.43.0 (0)
 -->
<!-- Title: boost/ui/widget.hpp Pages: 1 -->
<svg width="2559pt" height="140pt"
 viewBox="0.00 0.00 2558.50 140.00" xmlns="http://www.w3.org/2000/svg" xmlns:xlink="http://www.w3.org/1999/xlink">
<g id="graph0" class="graph" transform="scale(1 1) rotate(0) translate(4 136)">
<title>boost/ui/widget.hpp</title>
<polygon fill="white" stroke="transparent" points="-4,4 -4,-136 2554.5,-136 2554.5,4 -4,4"/>
<!-- Node1 -->
<g id="node1" class="node">
<title>Node1</title>
<g id="a_node1"><a xlink:title="Widget class.">
<polygon fill="#bfbfbf" stroke="black" points="1188.5,-112.5 1188.5,-131.5 1301.5,-131.5 1301.5,-112.5 1188.5,-112.5"/>
<text text-anchor="middle" x="1245" y="-119.5" font-family="Helvetica,sans-Serif" font-size="10.00">boost/ui/widget.hpp</text>
</a>
</g>
</g>
<!-- Node2 -->
<g id="node2" class="node">
<title>Node2</title>
<g id="a_node2"><a xlink:href="web__widget_8hpp.html" target="_top" xlink:title="Web widget.">
<polygon fill="white" stroke="black" points="0,-56.5 0,-75.5 138,-75.5 138,-56.5 0,-56.5"/>
<text text-anchor="middle" x="69" y="-63.5" font-family="Helvetica,sans-Serif" font-size="10.00">boost/ui/web_widget.hpp</text>
</a>
</g>
</g>
<!-- Node1&#45;&gt;Node2 -->
<g id="edge1" class="edge">
<title>Node1&#45;&gt;Node2</title>
<path fill="none" stroke="midnightblue" d="M1178.21,-119.98C1006.73,-116.99 537.04,-106.45 147,-76 144.15,-75.78 141.24,-75.53 138.3,-75.26"/>
<polygon fill="midnightblue" stroke="midnightblue" points="1178.28,-123.48 1188.34,-120.15 1178.4,-116.48 1178.28,-123.48"/>
</g>
<!-- Node3 -->
<g id="node3" class="node">
<title>Node3</title>
<g id="a_node3"><a xlink:href="text__box_8hpp.html" target="_top" xlink:title="Text editor widgets.">
<polygon fill="white" stroke="black" points="156,-56.5 156,-75.5 278,-75.5 278,-56.5 156,-56.5"/>
<text text-anchor="middle" x="217" y="-63.5" font-family="Helvetica,sans-Serif" font-size="10.00">boost/ui/text_box.hpp</text>
</a>
</g>
</g>
<!-- Node1&#45;&gt;Node3 -->
<g id="edge2" class="edge">
<title>Node1&#45;&gt;Node3</title>
<path fill="none" stroke="midnightblue" d="M1178.09,-119.72C1021.83,-116.32 620.81,-105.25 287,-76 284.07,-75.74 281.08,-75.46 278.05,-75.15"/>
<polygon fill="midnightblue" stroke="midnightblue" points="1178.4,-123.23 1188.47,-119.94 1178.55,-116.23 1178.4,-123.23"/>
</g>
<!-- Node4 -->
<g id="node4" class="node">
<title>Node4</title>
<g id="a_node4"><a xlink:href="strings__box_8hpp.html" target="_top" xlink:title="Widget with array of strings.">
<polygon fill="white" stroke="black" points="296,-56.5 296,-75.5 432,-75.5 432,-56.5 296,-56.5"/>
<text text-anchor="middle" x="364" y="-63.5" font-family="Helvetica,sans-Serif" font-size="10.00">boost/ui/strings_box.hpp</text>
</a>
</g>
</g>
<!-- Node1&#45;&gt;Node4 -->
<g id="edge3" class="edge">
<title>Node1&#45;&gt;Node4</title>
<path fill="none" stroke="midnightblue" d="M1177.89,-118.42C1040.42,-112.88 716.9,-98.48 446,-76 441.58,-75.63 437.02,-75.22 432.43,-74.79"/>
<polygon fill="midnightblue" stroke="midnightblue" points="1178.12,-121.94 1188.26,-118.84 1178.4,-114.94 1178.12,-121.94"/>
</g>
<!-- Node7 -->
<g id="node7" class="node">
<title>Node7</title>
<g id="a_node7"><a xlink:href="ui_8hpp.html" target="_top" xlink:title="Master Boost.UI file.">
<polygon fill="white" stroke="black" points="496.5,-0.5 496.5,-19.5 573.5,-19.5 573.5,-0.5 496.5,-0.5"/>
<text text-anchor="middle" x="535" y="-7.5" font-family="Helvetica,sans-Serif" font-size="10.00">boost/ui.hpp</text>
</a>
</g>
</g>
<!-- Node1&#45;&gt;Node7 -->
<g id="edge24" class="edge">
<title>Node1&#45;&gt;Node7</title>
<path fill="none" stroke="midnightblue" d="M1178.1,-119.53C996.06,-115.21 503.78,-101.22 480,-76 461.75,-56.64 496.35,-32.37 518.51,-19.67"/>
<polygon fill="midnightblue" stroke="midnightblue" points="1178.26,-123.03 1188.34,-119.77 1178.43,-116.04 1178.26,-123.03"/>
</g>
<!-- Node8 -->
<g id="node8" class="node">
<title>Node8</title>
<g id="a_node8"><a xlink:href="status__bar_8hpp.html" target="_top" xlink:title="Status bar class.">
<polygon fill="white" stroke="black" points="488.5,-56.5 488.5,-75.5 619.5,-75.5 619.5,-56.5 488.5,-56.5"/>
<text text-anchor="middle" x="554" y="-63.5" font-family="Helvetica,sans-Serif" font-size="10.00">boost/ui/status_bar.hpp</text>
</a>
</g>
</g>
<!-- Node1&#45;&gt;Node8 -->
<g id="edge7" class="edge">
<title>Node1&#45;&gt;Node8</title>
<path fill="none" stroke="midnightblue" d="M1178.22,-117.14C1065.07,-110.38 828.5,-95.25 629,-76 626,-75.71 622.93,-75.4 619.83,-75.08"/>
<polygon fill="midnightblue" stroke="midnightblue" points="1178.26,-120.65 1188.45,-117.75 1178.67,-113.66 1178.26,-120.65"/>
</g>
<!-- Node9 -->
<g id="node9" class="node">
<title>Node9</title>
<g id="a_node9"><a xlink:href="slider_8hpp.html" target="_top" xlink:title="Slider widget.">
<polygon fill="white" stroke="black" points="637.5,-56.5 637.5,-75.5 744.5,-75.5 744.5,-56.5 637.5,-56.5"/>
<text text-anchor="middle" x="691" y="-63.5" font-family="Helvetica,sans-Serif" font-size="10.00">boost/ui/slider.hpp</text>
</a>
</g>
</g>
<!-- Node1&#45;&gt;Node9 -->
<g id="edge9" class="edge">
<title>Node1&#45;&gt;Node9</title>
<path fill="none" stroke="midnightblue" d="M1178.2,-115.95C1083.62,-108.56 905.34,-93.73 754,-76 750.93,-75.64 747.77,-75.25 744.59,-74.84"/>
<polygon fill="midnightblue" stroke="midnightblue" points="1177.96,-119.45 1188.2,-116.73 1178.5,-112.47 1177.96,-119.45"/>
</g>
<!-- Node10 -->
<g id="node10" class="node">
<title>Node10</title>
<g id="a_node10"><a xlink:href="progress__bar_8hpp.html" target="_top" xlink:title="Progress bar widget.">
<polygon fill="white" stroke="black" points="762.5,-56.5 762.5,-75.5 905.5,-75.5 905.5,-56.5 762.5,-56.5"/>
<text text-anchor="middle" x="834" y="-63.5" font-family="Helvetica,sans-Serif" font-size="10.00">boost/ui/progress_bar.hpp</text>
</a>
</g>
</g>
<!-- Node1&#45;&gt;Node10 -->
<g id="edge10" class="edge">
<title>Node1&#45;&gt;Node10</title>
<path fill="none" stroke="midnightblue" d="M1178.21,-112.22C1101.13,-102.1 975.22,-85.55 898.93,-75.53"/>
<polygon fill="midnightblue" stroke="midnightblue" points="1177.91,-115.72 1188.28,-113.55 1178.82,-108.78 1177.91,-115.72"/>
</g>
<!-- Node11 -->
<g id="node11" class="node">
<title>Node11</title>
<g id="a_node11"><a xlink:href="panel_8hpp.html" target="_top" xlink:title="Panel widget.">
<polygon fill="white" stroke="black" points="923.5,-56.5 923.5,-75.5 1030.5,-75.5 1030.5,-56.5 923.5,-56.5"/>
<text text-anchor="middle" x="977" y="-63.5" font-family="Helvetica,sans-Serif" font-size="10.00">boost/ui/panel.hpp</text>
</a>
</g>
</g>
<!-- Node1&#45;&gt;Node11 -->
<g id="edge11" class="edge">
<title>Node1&#45;&gt;Node11</title>
<path fill="none" stroke="midnightblue" d="M1192.44,-110.41C1141.79,-100.2 1066.13,-84.96 1019.27,-75.52"/>
<polygon fill="midnightblue" stroke="midnightblue" points="1192.04,-113.9 1202.53,-112.44 1193.42,-107.04 1192.04,-113.9"/>
</g>
<!-- Node12 -->
<g id="node12" class="node">
<title>Node12</title>
<g id="a_node12"><a xlink:href="notebook_8hpp.html" target="_top" xlink:title="Notebook widget.">
<polygon fill="white" stroke="black" points="1048.5,-56.5 1048.5,-75.5 1173.5,-75.5 1173.5,-56.5 1048.5,-56.5"/>
<text text-anchor="middle" x="1111" y="-63.5" font-family="Helvetica,sans-Serif" font-size="10.00">boost/ui/notebook.hpp</text>
</a>
</g>
</g>
<!-- Node1&#45;&gt;Node12 -->
<g id="edge12" class="edge">
<title>Node1&#45;&gt;Node12</title>
<path fill="none" stroke="midnightblue" d="M1214.32,-108.64C1189.18,-98.5 1154.25,-84.43 1132.13,-75.52"/>
<polygon fill="midnightblue" stroke="midnightblue" points="1213.18,-111.95 1223.77,-112.44 1215.8,-105.46 1213.18,-111.95"/>
</g>
<!-- Node13 -->
<g id="node13" class="node">
<title>Node13</title>
<g id="a_node13"><a xlink:href="menu_8hpp.html" target="_top" xlink:title="Menu classes.">
<polygon fill="white" stroke="black" points="1191.5,-56.5 1191.5,-75.5 1298.5,-75.5 1298.5,-56.5 1191.5,-56.5"/>
<text text-anchor="middle" x="1245" y="-63.5" font-family="Helvetica,sans-Serif" font-size="10.00">boost/ui/menu.hpp</text>
</a>
</g>
</g>
<!-- Node1&#45;&gt;Node13 -->
<g id="edge13" class="edge">
<title>Node1&#45;&gt;Node13</title>
<path fill="none" stroke="midnightblue" d="M1245,-101.8C1245,-92.91 1245,-82.78 1245,-75.75"/>
<polygon fill="midnightblue" stroke="midnightblue" points="1241.5,-102.08 1245,-112.08 1248.5,-102.08 1241.5,-102.08"/>
</g>
<!-- Node14 -->
<g id="node14" class="node">
<title>Node14</title>
<g id="a_node14"><a xlink:href="line_8hpp.html" target="_top" xlink:title="line widget">
<polygon fill="white" stroke="black" points="1317,-56.5 1317,-75.5 1415,-75.5 1415,-56.5 1317,-56.5"/>
<text text-anchor="middle" x="1366" y="-63.5" font-family="Helvetica,sans-Serif" font-size="10.00">boost/ui/line.hpp</text>
</a>
</g>
</g>
<!-- Node1&#45;&gt;Node14 -->
<g id="edge15" class="edge">
<title>Node1&#45;&gt;Node14</title>
<path fill="none" stroke="midnightblue" d="M1273.31,-108.37C1295.97,-98.26 1327.13,-84.35 1346.92,-75.52"/>
<polygon fill="midnightblue" stroke="midnightblue" points="1271.88,-105.17 1264.17,-112.44 1274.73,-111.56 1271.88,-105.17"/>
</g>
<!-- Node15 -->
<g id="node15" class="node">
<title>Node15</title>
<g id="a_node15"><a xlink:href="label_8hpp.html" target="_top" xlink:title="Label widget.">
<polygon fill="white" stroke="black" points="1433,-56.5 1433,-75.5 1537,-75.5 1537,-56.5 1433,-56.5"/>
<text text-anchor="middle" x="1485" y="-63.5" font-family="Helvetica,sans-Serif" font-size="10.00">boost/ui/label.hpp</text>
</a>
</g>
</g>
<!-- Node1&#45;&gt;Node15 -->
<g id="edge16" class="edge">
<title>Node1&#45;&gt;Node15</title>
<path fill="none" stroke="midnightblue" d="M1292.92,-110.22C1338.27,-100.01 1405.44,-84.9 1447.15,-75.52"/>
<polygon fill="midnightblue" stroke="midnightblue" points="1292.02,-106.83 1283.03,-112.44 1293.55,-113.66 1292.02,-106.83"/>
</g>
<!-- Node16 -->
<g id="node16" class="node">
<title>Node16</title>
<g id="a_node16"><a xlink:href="image__widget_8hpp.html" target="_top" xlink:title="Image widget.">
<polygon fill="white" stroke="black" points="1555.5,-56.5 1555.5,-75.5 1704.5,-75.5 1704.5,-56.5 1555.5,-56.5"/>
<text text-anchor="middle" x="1630" y="-63.5" font-family="Helvetica,sans-Serif" font-size="10.00">boost/ui/image_widget.hpp</text>
</a>
</g>
</g>
<!-- Node1&#45;&gt;Node16 -->
<g id="edge17" class="edge">
<title>Node1&#45;&gt;Node16</title>
<path fill="none" stroke="midnightblue" d="M1311.75,-111.64C1384.24,-101.47 1499.04,-85.37 1569.14,-75.54"/>
<polygon fill="midnightblue" stroke="midnightblue" points="1311.22,-108.18 1301.81,-113.03 1312.2,-115.11 1311.22,-108.18"/>
</g>
<!-- Node17 -->
<g id="node17" class="node">
<title>Node17</title>
<g id="a_node17"><a xlink:href="hyperlink_8hpp.html" target="_top" xlink:title="Hyperlink widget.">
<polygon fill="white" stroke="black" points="1722.5,-56.5 1722.5,-75.5 1847.5,-75.5 1847.5,-56.5 1722.5,-56.5"/>
<text text-anchor="middle" x="1785" y="-63.5" font-family="Helvetica,sans-Serif" font-size="10.00">boost/ui/hyperlink.hpp</text>
</a>
</g>
</g>
<!-- Node1&#45;&gt;Node17 -->
<g id="edge18" class="edge">
<title>Node1&#45;&gt;Node17</title>
<path fill="none" stroke="midnightblue" d="M1311.91,-115.23C1402.96,-107.22 1570.95,-91.93 1714,-76 1716.72,-75.7 1719.49,-75.38 1722.29,-75.05"/>
<polygon fill="midnightblue" stroke="midnightblue" points="1311.39,-111.76 1301.73,-116.12 1312,-118.73 1311.39,-111.76"/>
</g>
<!-- Node18 -->
<g id="node18" class="node">
<title>Node18</title>
<g id="a_node18"><a xlink:href="group__box_8hpp.html" target="_top" xlink:title="Group box widget.">
<polygon fill="white" stroke="black" points="1865.5,-56.5 1865.5,-75.5 1996.5,-75.5 1996.5,-56.5 1865.5,-56.5"/>
<text text-anchor="middle" x="1931" y="-63.5" font-family="Helvetica,sans-Serif" font-size="10.00">boost/ui/group_box.hpp</text>
</a>
</g>
</g>
<!-- Node1&#45;&gt;Node18 -->
<g id="edge19" class="edge">
<title>Node1&#45;&gt;Node18</title>
<path fill="none" stroke="midnightblue" d="M1311.79,-117.13C1424.38,-110.38 1659.06,-95.3 1857,-76 1859.7,-75.74 1862.46,-75.46 1865.25,-75.16"/>
<polygon fill="midnightblue" stroke="midnightblue" points="1311.38,-113.65 1301.61,-117.74 1311.8,-120.64 1311.38,-113.65"/>
</g>
<!-- Node19 -->
<g id="node19" class="node">
<title>Node19</title>
<g id="a_node19"><a xlink:href="datetime_8hpp.html" target="_top" xlink:title="Date and time pickers.">
<polygon fill="white" stroke="black" points="2015,-56.5 2015,-75.5 2139,-75.5 2139,-56.5 2015,-56.5"/>
<text text-anchor="middle" x="2077" y="-63.5" font-family="Helvetica,sans-Serif" font-size="10.00">boost/ui/datetime.hpp</text>
</a>
</g>
</g>
<!-- Node1&#45;&gt;Node19 -->
<g id="edge20" class="edge">
<title>Node1&#45;&gt;Node19</title>
<path fill="none" stroke="midnightblue" d="M1311.91,-118.55C1444.54,-113.37 1750.09,-99.76 2006,-76 2008.85,-75.74 2011.75,-75.45 2014.69,-75.14"/>
<polygon fill="midnightblue" stroke="midnightblue" points="1311.76,-115.06 1301.9,-118.94 1312.03,-122.05 1311.76,-115.06"/>
</g>
<!-- Node20 -->
<g id="node20" class="node">
<title>Node20</title>
<g id="a_node20"><a xlink:href="check__box_8hpp.html" target="_top" xlink:title="Check box widget.">
<polygon fill="white" stroke="black" points="2157.5,-56.5 2157.5,-75.5 2288.5,-75.5 2288.5,-56.5 2157.5,-56.5"/>
<text text-anchor="middle" x="2223" y="-63.5" font-family="Helvetica,sans-Serif" font-size="10.00">boost/ui/check_box.hpp</text>
</a>
</g>
</g>
<!-- Node1&#45;&gt;Node20 -->
<g id="edge21" class="edge">
<title>Node1&#45;&gt;Node20</title>
<path fill="none" stroke="midnightblue" d="M1312.03,-119.26C1462.01,-115.01 1836.03,-102.46 2148,-76 2151.01,-75.75 2154.08,-75.46 2157.18,-75.16"/>
<polygon fill="midnightblue" stroke="midnightblue" points="1311.52,-115.77 1301.62,-119.55 1311.71,-122.77 1311.52,-115.77"/>
</g>
<!-- Node21 -->
<g id="node21" class="node">
<title>Node21</title>
<g id="a_node21"><a xlink:href="canvas_8hpp.html" target="_top" xlink:title="Canvas widget.">
<polygon fill="white" stroke="black" points="2307,-56.5 2307,-75.5 2421,-75.5 2421,-56.5 2307,-56.5"/>
<text text-anchor="middle" x="2364" y="-63.5" font-family="Helvetica,sans-Serif" font-size="10.00">boost/ui/canvas.hpp</text>
</a>
</g>
</g>
<!-- Node1&#45;&gt;Node21 -->
<g id="edge22" class="edge">
<title>Node1&#45;&gt;Node21</title>
<path fill="none" stroke="midnightblue" d="M1311.72,-120.3C1478.38,-118.07 1926.24,-109.22 2298,-76 2300.88,-75.74 2303.83,-75.45 2306.8,-75.13"/>
<polygon fill="midnightblue" stroke="midnightblue" points="1311.58,-116.8 1301.62,-120.43 1311.67,-123.8 1311.58,-116.8"/>
</g>
<!-- Node22 -->
<g id="node22" class="node">
<title>Node22</title>
<g id="a_node22"><a xlink:href="button_8hpp.html" target="_top" xlink:title="Button widget.">
<polygon fill="white" stroke="black" points="2439.5,-56.5 2439.5,-75.5 2550.5,-75.5 2550.5,-56.5 2439.5,-56.5"/>
<text text-anchor="middle" x="2495" y="-63.5" font-family="Helvetica,sans-Serif" font-size="10.00">boost/ui/button.hpp</text>
</a>
</g>
</g>
<!-- Node1&#45;&gt;Node22 -->
<g id="edge23" class="edge">
<title>Node1&#45;&gt;Node22</title>
<path fill="none" stroke="midnightblue" d="M1311.69,-120.79C1492.19,-119.73 2005.26,-113.38 2430,-76 2433.06,-75.73 2436.2,-75.42 2439.37,-75.07"/>
<polygon fill="midnightblue" stroke="midnightblue" points="1311.54,-117.29 1301.56,-120.85 1311.58,-124.29 1311.54,-117.29"/>
</g>
<!-- Node5 -->
<g id="node5" class="node">
<title>Node5</title>
<g id="a_node5"><a xlink:href="combo__box_8hpp.html" target="_top" xlink:title="Combo box widget.">
<polygon fill="white" stroke="black" points="174,-0.5 174,-19.5 310,-19.5 310,-0.5 174,-0.5"/>
<text text-anchor="middle" x="242" y="-7.5" font-family="Helvetica,sans-Serif" font-size="10.00">boost/ui/combo_box.hpp</text>
</a>
</g>
</g>
<!-- Node4&#45;&gt;Node5 -->
<g id="edge4" class="edge">
<title>Node4&#45;&gt;Node5</title>
<path fill="none" stroke="midnightblue" d="M335.46,-52.37C312.61,-42.26 281.19,-28.35 261.24,-19.52"/>
<polygon fill="midnightblue" stroke="midnightblue" points="334.11,-55.6 344.67,-56.44 336.94,-49.2 334.11,-55.6"/>
</g>
<!-- Node6 -->
<g id="node6" class="node">
<title>Node6</title>
<g id="a_node6"><a xlink:href="choice_8hpp.html" target="_top" xlink:title="Choice widget.">
<polygon fill="white" stroke="black" points="328.5,-0.5 328.5,-19.5 439.5,-19.5 439.5,-0.5 328.5,-0.5"/>
<text text-anchor="middle" x="384" y="-7.5" font-family="Helvetica,sans-Serif" font-size="10.00">boost/ui/choice.hpp</text>
</a>
</g>
</g>
<!-- Node4&#45;&gt;Node6 -->
<g id="edge5" class="edge">
<title>Node4&#45;&gt;Node6</title>
<path fill="none" stroke="midnightblue" d="M370.78,-46.69C374.15,-37.59 378.07,-27.01 380.76,-19.75"/>
<polygon fill="midnightblue" stroke="midnightblue" points="367.49,-45.49 367.3,-56.08 374.06,-47.92 367.49,-45.49"/>
</g>
<!-- Node4&#45;&gt;Node7 -->
<g id="edge6" class="edge">
<title>Node4&#45;&gt;Node7</title>
<path fill="none" stroke="midnightblue" d="M401.04,-53.3C433.26,-43.13 479.19,-28.62 508.03,-19.52"/>
<polygon fill="midnightblue" stroke="midnightblue" points="399.58,-50.09 391.1,-56.44 401.69,-56.77 399.58,-50.09"/>
</g>
<!-- Node8&#45;&gt;Node7 -->
<g id="edge8" class="edge">
<title>Node8&#45;&gt;Node7</title>
<path fill="none" stroke="midnightblue" d="M547.45,-46.4C544.28,-37.36 540.61,-26.94 538.08,-19.75"/>
<polygon fill="midnightblue" stroke="midnightblue" points="544.24,-47.81 550.86,-56.08 550.85,-45.49 544.24,-47.81"/>
</g>
<!-- Node13&#45;&gt;Node7 -->
<g id="edge14" class="edge">
<title>Node13&#45;&gt;Node7</title>
<path fill="none" stroke="midnightblue" d="M1181.1,-55.87C944.74,-30.91 673.1,-17.2 573.8,-12.68"/>
<polygon fill="midnightblue" stroke="midnightblue" points="1180.95,-59.37 1191.26,-56.95 1181.69,-52.41 1180.95,-59.37"/>
</g>
</g>
</svg>
