<?xml version="1.0" encoding="UTF-8" standalone="no"?>
<!DOCTYPE svg PUBLIC "-//W3C//DTD SVG 1.1//EN"
 "http://www.w3.org/Graphics/SVG/1.1/DTD/svg11.dtd">
<!-- Generated by graphviz version 2.38.0 (20140413.2041)
 -->
<!-- Title: boost/ui/widget.hpp Pages: 1 -->
<svg width="2165pt" height="140pt"
 viewBox="0.00 0.00 2164.50 140.00" xmlns="http://www.w3.org/2000/svg" xmlns:xlink="http://www.w3.org/1999/xlink">
<g id="graph0" class="graph" transform="scale(1 1) rotate(0) translate(4 136)">
<title>boost/ui/widget.hpp</title>
<polygon fill="white" stroke="none" points="-4,4 -4,-136 2160.5,-136 2160.5,4 -4,4"/>
<!-- Node1 -->
<g id="node1" class="node"><title>Node1</title>
<polygon fill="#bfbfbf" stroke="black" points="981,-112.5 981,-131.5 1082,-131.5 1082,-112.5 981,-112.5"/>
<text text-anchor="middle" x="1031.5" y="-119.5" font-family="Helvetica,sans-Serif" font-size="10.00">boost/ui/widget.hpp</text>
</g>
<!-- Node2 -->
<g id="node2" class="node"><title>Node2</title>
<g id="a_node2"><a xlink:href="webview_8hpp.html" target="_top" xlink:title="WebView widget. ">
<polygon fill="white" stroke="black" points="0,-56.5 0,-75.5 111,-75.5 111,-56.5 0,-56.5"/>
<text text-anchor="middle" x="55.5" y="-63.5" font-family="Helvetica,sans-Serif" font-size="10.00">boost/ui/webview.hpp</text>
</a>
</g>
</g>
<!-- Node1&#45;&gt;Node2 -->
<g id="edge1" class="edge"><title>Node1&#45;&gt;Node2</title>
<path fill="none" stroke="midnightblue" d="M970.825,-119.901C824.239,-116.832 439.298,-106.313 119.5,-76 116.819,-75.7459 114.078,-75.4603 111.313,-75.1514"/>
<polygon fill="midnightblue" stroke="midnightblue" points="970.893,-123.403 980.963,-120.109 971.037,-116.404 970.893,-123.403"/>
</g>
<!-- Node3 -->
<g id="node3" class="node"><title>Node3</title>
<g id="a_node3"><a xlink:href="textbox_8hpp.html" target="_top" xlink:title="Text editor widgets. ">
<polygon fill="white" stroke="black" points="129,-56.5 129,-75.5 234,-75.5 234,-56.5 129,-56.5"/>
<text text-anchor="middle" x="181.5" y="-63.5" font-family="Helvetica,sans-Serif" font-size="10.00">boost/ui/textbox.hpp</text>
</a>
</g>
</g>
<!-- Node1&#45;&gt;Node3 -->
<g id="edge2" class="edge"><title>Node1&#45;&gt;Node3</title>
<path fill="none" stroke="midnightblue" d="M970.322,-119.321C837.644,-115.282 513.628,-103.267 243.5,-76 240.47,-75.6941 237.361,-75.3475 234.227,-74.9727"/>
<polygon fill="midnightblue" stroke="midnightblue" points="970.575,-122.83 980.675,-119.632 970.785,-115.833 970.575,-122.83"/>
</g>
<!-- Node4 -->
<g id="node4" class="node"><title>Node4</title>
<g id="a_node4"><a xlink:href="stringsbox_8hpp.html" target="_top" xlink:title="Widget with array of strings. ">
<polygon fill="white" stroke="black" points="252.5,-56.5 252.5,-75.5 370.5,-75.5 370.5,-56.5 252.5,-56.5"/>
<text text-anchor="middle" x="311.5" y="-63.5" font-family="Helvetica,sans-Serif" font-size="10.00">boost/ui/stringsbox.hpp</text>
</a>
</g>
</g>
<!-- Node1&#45;&gt;Node4 -->
<g id="edge3" class="edge"><title>Node1&#45;&gt;Node4</title>
<path fill="none" stroke="midnightblue" d="M970.677,-117.852C855.917,-111.673 599.642,-96.7291 384.5,-76 380.051,-75.5714 375.454,-75.0917 370.833,-74.583"/>
<polygon fill="midnightblue" stroke="midnightblue" points="970.503,-121.348 980.676,-118.388 970.877,-114.358 970.503,-121.348"/>
</g>
<!-- Node7 -->
<g id="node7" class="node"><title>Node7</title>
<g id="a_node7"><a xlink:href="ui_8hpp.html" target="_top" xlink:title="Master Boost.UI file. ">
<polygon fill="white" stroke="black" points="371.5,-0.5 371.5,-19.5 441.5,-19.5 441.5,-0.5 371.5,-0.5"/>
<text text-anchor="middle" x="406.5" y="-7.5" font-family="Helvetica,sans-Serif" font-size="10.00">boost/ui.hpp</text>
</a>
</g>
</g>
<!-- Node1&#45;&gt;Node7 -->
<g id="edge21" class="edge"><title>Node1&#45;&gt;Node7</title>
<path fill="none" stroke="midnightblue" d="M970.738,-120.724C823.703,-119.476 457.818,-112.678 417.5,-76 401.753,-61.6747 403.082,-33.8528 404.985,-19.7088"/>
<polygon fill="midnightblue" stroke="midnightblue" points="970.911,-124.226 980.939,-120.805 970.967,-117.226 970.911,-124.226"/>
</g>
<!-- Node8 -->
<g id="node8" class="node"><title>Node8</title>
<g id="a_node8"><a xlink:href="slider_8hpp.html" target="_top" xlink:title="Slider widget. ">
<polygon fill="white" stroke="black" points="426.5,-56.5 426.5,-75.5 522.5,-75.5 522.5,-56.5 426.5,-56.5"/>
<text text-anchor="middle" x="474.5" y="-63.5" font-family="Helvetica,sans-Serif" font-size="10.00">boost/ui/slider.hpp</text>
</a>
</g>
</g>
<!-- Node1&#45;&gt;Node8 -->
<g id="edge7" class="edge"><title>Node1&#45;&gt;Node8</title>
<path fill="none" stroke="midnightblue" d="M970.793,-116.852C876.563,-110.116 689.487,-95.5599 531.5,-76 528.617,-75.643 525.655,-75.2514 522.67,-74.8376"/>
<polygon fill="midnightblue" stroke="midnightblue" points="970.769,-120.359 980.992,-117.576 971.265,-113.376 970.769,-120.359"/>
</g>
<!-- Node9 -->
<g id="node9" class="node"><title>Node9</title>
<g id="a_node9"><a xlink:href="progressbar_8hpp.html" target="_top" xlink:title="Progress bar widget. ">
<polygon fill="white" stroke="black" points="540.5,-56.5 540.5,-75.5 664.5,-75.5 664.5,-56.5 540.5,-56.5"/>
<text text-anchor="middle" x="602.5" y="-63.5" font-family="Helvetica,sans-Serif" font-size="10.00">boost/ui/progressbar.hpp</text>
</a>
</g>
</g>
<!-- Node1&#45;&gt;Node9 -->
<g id="edge8" class="edge"><title>Node1&#45;&gt;Node9</title>
<path fill="none" stroke="midnightblue" d="M970.672,-113.374C899.443,-104.439 777.903,-89.1787 673.5,-76 670.665,-75.6421 667.766,-75.2759 664.838,-74.9057"/>
<polygon fill="midnightblue" stroke="midnightblue" points="970.451,-116.873 980.809,-114.645 971.322,-109.928 970.451,-116.873"/>
</g>
<!-- Node10 -->
<g id="node10" class="node"><title>Node10</title>
<g id="a_node10"><a xlink:href="panel_8hpp.html" target="_top" xlink:title="Panel widget. ">
<polygon fill="white" stroke="black" points="682.5,-56.5 682.5,-75.5 778.5,-75.5 778.5,-56.5 682.5,-56.5"/>
<text text-anchor="middle" x="730.5" y="-63.5" font-family="Helvetica,sans-Serif" font-size="10.00">boost/ui/panel.hpp</text>
</a>
</g>
</g>
<!-- Node1&#45;&gt;Node10 -->
<g id="edge9" class="edge"><title>Node1&#45;&gt;Node10</title>
<path fill="none" stroke="midnightblue" d="M973.887,-110.664C917.004,-100.459 831.048,-85.0386 777.971,-75.5164"/>
<polygon fill="midnightblue" stroke="midnightblue" points="973.345,-114.123 983.806,-112.444 974.581,-107.233 973.345,-114.123"/>
</g>
<!-- Node11 -->
<g id="node11" class="node"><title>Node11</title>
<g id="a_node11"><a xlink:href="notebook_8hpp.html" target="_top" xlink:title="Notebook widget. ">
<polygon fill="white" stroke="black" points="797,-56.5 797,-75.5 910,-75.5 910,-56.5 797,-56.5"/>
<text text-anchor="middle" x="853.5" y="-63.5" font-family="Helvetica,sans-Serif" font-size="10.00">boost/ui/notebook.hpp</text>
</a>
</g>
</g>
<!-- Node1&#45;&gt;Node11 -->
<g id="edge10" class="edge"><title>Node1&#45;&gt;Node11</title>
<path fill="none" stroke="midnightblue" d="M993.383,-109.436C959.822,-99.2551 911.726,-84.664 881.573,-75.5164"/>
<polygon fill="midnightblue" stroke="midnightblue" points="992.71,-112.89 1003.3,-112.444 994.742,-106.191 992.71,-112.89"/>
</g>
<!-- Node12 -->
<g id="node12" class="node"><title>Node12</title>
<g id="a_node12"><a xlink:href="menu_8hpp.html" target="_top" xlink:title="Menu classes. ">
<polygon fill="white" stroke="black" points="928,-56.5 928,-75.5 1025,-75.5 1025,-56.5 928,-56.5"/>
<text text-anchor="middle" x="976.5" y="-63.5" font-family="Helvetica,sans-Serif" font-size="10.00">boost/ui/menu.hpp</text>
</a>
</g>
</g>
<!-- Node1&#45;&gt;Node12 -->
<g id="edge11" class="edge"><title>Node1&#45;&gt;Node12</title>
<path fill="none" stroke="midnightblue" d="M1015.21,-105.002C1005.46,-95.4329 993.447,-83.6389 985.413,-75.7511"/>
<polygon fill="midnightblue" stroke="midnightblue" points="1012.83,-107.575 1022.42,-112.083 1017.73,-102.58 1012.83,-107.575"/>
</g>
<!-- Node13 -->
<g id="node13" class="node"><title>Node13</title>
<g id="a_node13"><a xlink:href="line_8hpp.html" target="_top" xlink:title="line widget ">
<polygon fill="white" stroke="black" points="1042.5,-56.5 1042.5,-75.5 1130.5,-75.5 1130.5,-56.5 1042.5,-56.5"/>
<text text-anchor="middle" x="1086.5" y="-63.5" font-family="Helvetica,sans-Serif" font-size="10.00">boost/ui/line.hpp</text>
</a>
</g>
</g>
<!-- Node1&#45;&gt;Node13 -->
<g id="edge12" class="edge"><title>Node1&#45;&gt;Node13</title>
<path fill="none" stroke="midnightblue" d="M1047.79,-105.002C1057.54,-95.4329 1069.55,-83.6389 1077.59,-75.7511"/>
<polygon fill="midnightblue" stroke="midnightblue" points="1045.27,-102.58 1040.58,-112.083 1050.17,-107.575 1045.27,-102.58"/>
</g>
<!-- Node14 -->
<g id="node14" class="node"><title>Node14</title>
<g id="a_node14"><a xlink:href="label_8hpp.html" target="_top" xlink:title="Label widget. ">
<polygon fill="white" stroke="black" points="1148,-56.5 1148,-75.5 1241,-75.5 1241,-56.5 1148,-56.5"/>
<text text-anchor="middle" x="1194.5" y="-63.5" font-family="Helvetica,sans-Serif" font-size="10.00">boost/ui/label.hpp</text>
</a>
</g>
</g>
<!-- Node1&#45;&gt;Node14 -->
<g id="edge13" class="edge"><title>Node1&#45;&gt;Node14</title>
<path fill="none" stroke="midnightblue" d="M1067.2,-109.172C1097.9,-99.0039 1141.42,-84.5852 1168.79,-75.5164"/>
<polygon fill="midnightblue" stroke="midnightblue" points="1065.72,-105.976 1057.33,-112.444 1067.92,-112.621 1065.72,-105.976"/>
</g>
<!-- Node15 -->
<g id="node15" class="node"><title>Node15</title>
<g id="a_node15"><a xlink:href="image__widget_8hpp.html" target="_top" xlink:title="Image widget. ">
<polygon fill="white" stroke="black" points="1259,-56.5 1259,-75.5 1392,-75.5 1392,-56.5 1259,-56.5"/>
<text text-anchor="middle" x="1325.5" y="-63.5" font-family="Helvetica,sans-Serif" font-size="10.00">boost/ui/image_widget.hpp</text>
</a>
</g>
</g>
<!-- Node1&#45;&gt;Node15 -->
<g id="edge14" class="edge"><title>Node1&#45;&gt;Node15</title>
<path fill="none" stroke="midnightblue" d="M1088.12,-110.601C1143.68,-100.395 1227.4,-85.0189 1279.13,-75.5164"/>
<polygon fill="midnightblue" stroke="midnightblue" points="1087.29,-107.195 1078.09,-112.444 1088.55,-114.079 1087.29,-107.195"/>
</g>
<!-- Node16 -->
<g id="node16" class="node"><title>Node16</title>
<g id="a_node16"><a xlink:href="hyperlink_8hpp.html" target="_top" xlink:title="Hyperlink widget. ">
<polygon fill="white" stroke="black" points="1410.5,-56.5 1410.5,-75.5 1522.5,-75.5 1522.5,-56.5 1410.5,-56.5"/>
<text text-anchor="middle" x="1466.5" y="-63.5" font-family="Helvetica,sans-Serif" font-size="10.00">boost/ui/hyperlink.hpp</text>
</a>
</g>
</g>
<!-- Node1&#45;&gt;Node16 -->
<g id="edge15" class="edge"><title>Node1&#45;&gt;Node16</title>
<path fill="none" stroke="midnightblue" d="M1092.08,-113.944C1165.4,-105.333 1292.56,-90.1653 1401.5,-76 1404.44,-75.6181 1407.45,-75.2209 1410.49,-74.8155"/>
<polygon fill="midnightblue" stroke="midnightblue" points="1091.63,-110.473 1082.1,-115.114 1092.44,-117.425 1091.63,-110.473"/>
</g>
<!-- Node17 -->
<g id="node17" class="node"><title>Node17</title>
<g id="a_node17"><a xlink:href="groupbox_8hpp.html" target="_top" xlink:title="Group box widget. ">
<polygon fill="white" stroke="black" points="1541,-56.5 1541,-75.5 1654,-75.5 1654,-56.5 1541,-56.5"/>
<text text-anchor="middle" x="1597.5" y="-63.5" font-family="Helvetica,sans-Serif" font-size="10.00">boost/ui/groupbox.hpp</text>
</a>
</g>
</g>
<!-- Node1&#45;&gt;Node17 -->
<g id="edge16" class="edge"><title>Node1&#45;&gt;Node17</title>
<path fill="none" stroke="midnightblue" d="M1092.53,-116.413C1186.82,-109.121 1373.52,-93.8705 1531.5,-76 1534.6,-75.649 1537.78,-75.272 1541,-74.8783"/>
<polygon fill="midnightblue" stroke="midnightblue" points="1092.03,-112.941 1082.32,-117.199 1092.56,-119.92 1092.03,-112.941"/>
</g>
<!-- Node18 -->
<g id="node18" class="node"><title>Node18</title>
<g id="a_node18"><a xlink:href="datetime_8hpp.html" target="_top" xlink:title="Date and time pickers. ">
<polygon fill="white" stroke="black" points="1672.5,-56.5 1672.5,-75.5 1782.5,-75.5 1782.5,-56.5 1672.5,-56.5"/>
<text text-anchor="middle" x="1727.5" y="-63.5" font-family="Helvetica,sans-Serif" font-size="10.00">boost/ui/datetime.hpp</text>
</a>
</g>
</g>
<!-- Node1&#45;&gt;Node18 -->
<g id="edge17" class="edge"><title>Node1&#45;&gt;Node18</title>
<path fill="none" stroke="midnightblue" d="M1092.57,-118.048C1205.5,-112.279 1454.53,-98.1069 1663.5,-76 1666.4,-75.6931 1669.37,-75.3557 1672.37,-74.9972"/>
<polygon fill="midnightblue" stroke="midnightblue" points="1092.21,-114.562 1082.4,-118.564 1092.56,-121.553 1092.21,-114.562"/>
</g>
<!-- Node19 -->
<g id="node19" class="node"><title>Node19</title>
<g id="a_node19"><a xlink:href="checkbox_8hpp.html" target="_top" xlink:title="Checkbox widget. ">
<polygon fill="white" stroke="black" points="1801,-56.5 1801,-75.5 1916,-75.5 1916,-56.5 1801,-56.5"/>
<text text-anchor="middle" x="1858.5" y="-63.5" font-family="Helvetica,sans-Serif" font-size="10.00">boost/ui/checkbox.hpp</text>
</a>
</g>
</g>
<!-- Node1&#45;&gt;Node19 -->
<g id="edge18" class="edge"><title>Node1&#45;&gt;Node19</title>
<path fill="none" stroke="midnightblue" d="M1092.38,-118.934C1221.47,-114.214 1532.11,-101.066 1791.5,-76 1794.54,-75.7065 1797.65,-75.3798 1800.79,-75.0296"/>
<polygon fill="midnightblue" stroke="midnightblue" points="1092.16,-115.439 1082.3,-119.299 1092.42,-122.434 1092.16,-115.439"/>
</g>
<!-- Node20 -->
<g id="node20" class="node"><title>Node20</title>
<g id="a_node20"><a xlink:href="canvas_8hpp.html" target="_top" xlink:title="Canvas widget. ">
<polygon fill="white" stroke="black" points="1934.5,-56.5 1934.5,-75.5 2038.5,-75.5 2038.5,-56.5 1934.5,-56.5"/>
<text text-anchor="middle" x="1986.5" y="-63.5" font-family="Helvetica,sans-Serif" font-size="10.00">boost/ui/canvas.hpp</text>
</a>
</g>
</g>
<!-- Node1&#45;&gt;Node20 -->
<g id="edge19" class="edge"><title>Node1&#45;&gt;Node20</title>
<path fill="none" stroke="midnightblue" d="M1092.03,-119.96C1236.53,-117.042 1612.87,-106.859 1925.5,-76 1928.38,-75.7161 1931.32,-75.3919 1934.3,-75.0392"/>
<polygon fill="midnightblue" stroke="midnightblue" points="1091.96,-116.461 1082.04,-120.158 1092.1,-123.46 1091.96,-116.461"/>
</g>
<!-- Node21 -->
<g id="node21" class="node"><title>Node21</title>
<g id="a_node21"><a xlink:href="button_8hpp.html" target="_top" xlink:title="Button widget. ">
<polygon fill="white" stroke="black" points="2056.5,-56.5 2056.5,-75.5 2156.5,-75.5 2156.5,-56.5 2056.5,-56.5"/>
<text text-anchor="middle" x="2106.5" y="-63.5" font-family="Helvetica,sans-Serif" font-size="10.00">boost/ui/button.hpp</text>
</a>
</g>
</g>
<!-- Node1&#45;&gt;Node21 -->
<g id="edge20" class="edge"><title>Node1&#45;&gt;Node21</title>
<path fill="none" stroke="midnightblue" d="M1092.57,-120.572C1250.74,-118.971 1686.57,-111.419 2047.5,-76 2050.39,-75.7167 2053.35,-75.3876 2056.33,-75.0263"/>
<polygon fill="midnightblue" stroke="midnightblue" points="1092.08,-117.077 1082.12,-120.673 1092.15,-124.076 1092.08,-117.077"/>
</g>
<!-- Node5 -->
<g id="node5" class="node"><title>Node5</title>
<g id="a_node5"><a xlink:href="combobox_8hpp.html" target="_top" xlink:title="Combobox widget. ">
<polygon fill="white" stroke="black" points="115.5,-0.5 115.5,-19.5 233.5,-19.5 233.5,-0.5 115.5,-0.5"/>
<text text-anchor="middle" x="174.5" y="-7.5" font-family="Helvetica,sans-Serif" font-size="10.00">boost/ui/combobox.hpp</text>
</a>
</g>
</g>
<!-- Node4&#45;&gt;Node5 -->
<g id="edge4" class="edge"><title>Node4&#45;&gt;Node5</title>
<path fill="none" stroke="midnightblue" d="M280.477,-52.772C254.743,-42.6287 218.814,-28.4669 196.106,-19.5164"/>
<polygon fill="midnightblue" stroke="midnightblue" points="279.205,-56.0326 289.792,-56.4435 281.772,-49.5203 279.205,-56.0326"/>
</g>
<!-- Node6 -->
<g id="node6" class="node"><title>Node6</title>
<g id="a_node6"><a xlink:href="choice_8hpp.html" target="_top" xlink:title="Choice widget. ">
<polygon fill="white" stroke="black" points="252,-0.5 252,-19.5 353,-19.5 353,-0.5 252,-0.5"/>
<text text-anchor="middle" x="302.5" y="-7.5" font-family="Helvetica,sans-Serif" font-size="10.00">boost/ui/choice.hpp</text>
</a>
</g>
</g>
<!-- Node4&#45;&gt;Node6 -->
<g id="edge5" class="edge"><title>Node4&#45;&gt;Node6</title>
<path fill="none" stroke="midnightblue" d="M308.35,-46.1005C306.856,-37.1357 305.143,-26.8579 303.959,-19.7511"/>
<polygon fill="midnightblue" stroke="midnightblue" points="304.917,-46.7945 310.014,-56.083 311.822,-45.6436 304.917,-46.7945"/>
</g>
<!-- Node4&#45;&gt;Node7 -->
<g id="edge6" class="edge"><title>Node4&#45;&gt;Node7</title>
<path fill="none" stroke="midnightblue" d="M335.818,-51.1774C353.299,-41.2407 376.33,-28.1492 391.274,-19.6545"/>
<polygon fill="midnightblue" stroke="midnightblue" points="333.727,-48.3395 326.763,-56.324 337.187,-54.425 333.727,-48.3395"/>
</g>
</g>
</svg>
