<?xml version="1.0" encoding="UTF-8" standalone="no"?>
<!DOCTYPE svg PUBLIC "-//W3C//DTD SVG 1.1//EN"
 "http://www.w3.org/Graphics/SVG/1.1/DTD/svg11.dtd">
<!-- Generated by graphviz version 2.38.0 (20140413.2041)
 -->
<!-- Title: boost/ui/widget.hpp Pages: 1 -->
<svg width="2204pt" height="140pt"
 viewBox="0.00 0.00 2203.50 140.00" xmlns="http://www.w3.org/2000/svg" xmlns:xlink="http://www.w3.org/1999/xlink">
<g id="graph0" class="graph" transform="scale(1 1) rotate(0) translate(4 136)">
<title>boost/ui/widget.hpp</title>
<polygon fill="white" stroke="none" points="-4,4 -4,-136 2199.5,-136 2199.5,4 -4,4"/>
<!-- Node1 -->
<g id="node1" class="node"><title>Node1</title>
<polygon fill="#bfbfbf" stroke="black" points="1012,-112.5 1012,-131.5 1113,-131.5 1113,-112.5 1012,-112.5"/>
<text text-anchor="middle" x="1062.5" y="-119.5" font-family="Helvetica,sans-Serif" font-size="10.00">boost/ui/widget.hpp</text>
</g>
<!-- Node2 -->
<g id="node2" class="node"><title>Node2</title>
<g id="a_node2"><a xlink:href="web__widget_8hpp.html" target="_top" xlink:title="Web widget. ">
<polygon fill="white" stroke="black" points="0,-56.5 0,-75.5 125,-75.5 125,-56.5 0,-56.5"/>
<text text-anchor="middle" x="62.5" y="-63.5" font-family="Helvetica,sans-Serif" font-size="10.00">boost/ui/web_widget.hpp</text>
</a>
</g>
</g>
<!-- Node1&#45;&gt;Node2 -->
<g id="edge1" class="edge"><title>Node1&#45;&gt;Node2</title>
<path fill="none" stroke="midnightblue" d="M1001.6,-119.646C853.112,-115.996 460.723,-104.257 134.5,-76 131.488,-75.7391 128.408,-75.448 125.299,-75.1347"/>
<polygon fill="midnightblue" stroke="midnightblue" points="1001.78,-123.151 1011.86,-119.895 1001.95,-116.153 1001.78,-123.151"/>
</g>
<!-- Node3 -->
<g id="node3" class="node"><title>Node3</title>
<g id="a_node3"><a xlink:href="text__box_8hpp.html" target="_top" xlink:title="Text editor widgets. ">
<polygon fill="white" stroke="black" points="143.5,-56.5 143.5,-75.5 253.5,-75.5 253.5,-56.5 143.5,-56.5"/>
<text text-anchor="middle" x="198.5" y="-63.5" font-family="Helvetica,sans-Serif" font-size="10.00">boost/ui/text_box.hpp</text>
</a>
</g>
</g>
<!-- Node1&#45;&gt;Node3 -->
<g id="edge2" class="edge"><title>Node1&#45;&gt;Node3</title>
<path fill="none" stroke="midnightblue" d="M1001.87,-119.269C868.253,-115.084 538.435,-102.731 263.5,-76 260.325,-75.6913 257.067,-75.3425 253.782,-74.966"/>
<polygon fill="midnightblue" stroke="midnightblue" points="1001.81,-122.768 1011.91,-119.579 1002.02,-115.772 1001.81,-122.768"/>
</g>
<!-- Node4 -->
<g id="node4" class="node"><title>Node4</title>
<g id="a_node4"><a xlink:href="strings__box_8hpp.html" target="_top" xlink:title="Widget with array of strings. ">
<polygon fill="white" stroke="black" points="272,-56.5 272,-75.5 395,-75.5 395,-56.5 272,-56.5"/>
<text text-anchor="middle" x="333.5" y="-63.5" font-family="Helvetica,sans-Serif" font-size="10.00">boost/ui/strings_box.hpp</text>
</a>
</g>
</g>
<!-- Node1&#45;&gt;Node4 -->
<g id="edge3" class="edge"><title>Node1&#45;&gt;Node4</title>
<path fill="none" stroke="midnightblue" d="M1001.56,-117.801C885.966,-111.512 626.959,-96.3563 409.5,-76 404.87,-75.5666 400.085,-75.0834 395.275,-74.5723"/>
<polygon fill="midnightblue" stroke="midnightblue" points="1001.45,-121.301 1011.63,-118.346 1001.83,-114.311 1001.45,-121.301"/>
</g>
<!-- Node7 -->
<g id="node7" class="node"><title>Node7</title>
<g id="a_node7"><a xlink:href="ui_8hpp.html" target="_top" xlink:title="Master Boost.UI file. ">
<polygon fill="white" stroke="black" points="402.5,-0.5 402.5,-19.5 472.5,-19.5 472.5,-0.5 402.5,-0.5"/>
<text text-anchor="middle" x="437.5" y="-7.5" font-family="Helvetica,sans-Serif" font-size="10.00">boost/ui.hpp</text>
</a>
</g>
</g>
<!-- Node1&#45;&gt;Node7 -->
<g id="edge22" class="edge"><title>Node1&#45;&gt;Node7</title>
<path fill="none" stroke="midnightblue" d="M1001.47,-120.993C852.864,-120.364 481.546,-114.878 442.5,-76 427.582,-61.1465 431.702,-33.5639 435.071,-19.5903"/>
<polygon fill="midnightblue" stroke="midnightblue" points="1001.76,-124.494 1011.77,-121.031 1001.79,-117.494 1001.76,-124.494"/>
</g>
<!-- Node8 -->
<g id="node8" class="node"><title>Node8</title>
<g id="a_node8"><a xlink:href="slider_8hpp.html" target="_top" xlink:title="Slider widget. ">
<polygon fill="white" stroke="black" points="451.5,-56.5 451.5,-75.5 547.5,-75.5 547.5,-56.5 451.5,-56.5"/>
<text text-anchor="middle" x="499.5" y="-63.5" font-family="Helvetica,sans-Serif" font-size="10.00">boost/ui/slider.hpp</text>
</a>
</g>
</g>
<!-- Node1&#45;&gt;Node8 -->
<g id="edge7" class="edge"><title>Node1&#45;&gt;Node8</title>
<path fill="none" stroke="midnightblue" d="M1001.86,-116.877C906.908,-110.134 717.462,-95.5169 557.5,-76 554.263,-75.6051 550.929,-75.1683 547.573,-74.7062"/>
<polygon fill="midnightblue" stroke="midnightblue" points="1001.63,-120.37 1011.85,-117.583 1002.12,-113.387 1001.63,-120.37"/>
</g>
<!-- Node9 -->
<g id="node9" class="node"><title>Node9</title>
<g id="a_node9"><a xlink:href="progress__bar_8hpp.html" target="_top" xlink:title="Progress bar widget. ">
<polygon fill="white" stroke="black" points="566,-56.5 566,-75.5 695,-75.5 695,-56.5 566,-56.5"/>
<text text-anchor="middle" x="630.5" y="-63.5" font-family="Helvetica,sans-Serif" font-size="10.00">boost/ui/progress_bar.hpp</text>
</a>
</g>
</g>
<!-- Node1&#45;&gt;Node9 -->
<g id="edge8" class="edge"><title>Node1&#45;&gt;Node9</title>
<path fill="none" stroke="midnightblue" d="M1001.63,-113.391C920.634,-103.267 778.04,-85.4425 695.17,-75.0838"/>
<polygon fill="midnightblue" stroke="midnightblue" points="1001.32,-116.879 1011.67,-114.647 1002.19,-109.933 1001.32,-116.879"/>
</g>
<!-- Node10 -->
<g id="node10" class="node"><title>Node10</title>
<g id="a_node10"><a xlink:href="panel_8hpp.html" target="_top" xlink:title="Panel widget. ">
<polygon fill="white" stroke="black" points="713.5,-56.5 713.5,-75.5 809.5,-75.5 809.5,-56.5 713.5,-56.5"/>
<text text-anchor="middle" x="761.5" y="-63.5" font-family="Helvetica,sans-Serif" font-size="10.00">boost/ui/panel.hpp</text>
</a>
</g>
</g>
<!-- Node1&#45;&gt;Node10 -->
<g id="edge9" class="edge"><title>Node1&#45;&gt;Node10</title>
<path fill="none" stroke="midnightblue" d="M1004.89,-110.664C948.004,-100.459 862.048,-85.0386 808.971,-75.5164"/>
<polygon fill="midnightblue" stroke="midnightblue" points="1004.34,-114.123 1014.81,-112.444 1005.58,-107.233 1004.34,-114.123"/>
</g>
<!-- Node11 -->
<g id="node11" class="node"><title>Node11</title>
<g id="a_node11"><a xlink:href="notebook_8hpp.html" target="_top" xlink:title="Notebook widget. ">
<polygon fill="white" stroke="black" points="828,-56.5 828,-75.5 941,-75.5 941,-56.5 828,-56.5"/>
<text text-anchor="middle" x="884.5" y="-63.5" font-family="Helvetica,sans-Serif" font-size="10.00">boost/ui/notebook.hpp</text>
</a>
</g>
</g>
<!-- Node1&#45;&gt;Node11 -->
<g id="edge10" class="edge"><title>Node1&#45;&gt;Node11</title>
<path fill="none" stroke="midnightblue" d="M1024.38,-109.436C990.822,-99.2551 942.726,-84.664 912.573,-75.5164"/>
<polygon fill="midnightblue" stroke="midnightblue" points="1023.71,-112.89 1034.3,-112.444 1025.74,-106.191 1023.71,-112.89"/>
</g>
<!-- Node12 -->
<g id="node12" class="node"><title>Node12</title>
<g id="a_node12"><a xlink:href="menu_8hpp.html" target="_top" xlink:title="Menu classes. ">
<polygon fill="white" stroke="black" points="959,-56.5 959,-75.5 1056,-75.5 1056,-56.5 959,-56.5"/>
<text text-anchor="middle" x="1007.5" y="-63.5" font-family="Helvetica,sans-Serif" font-size="10.00">boost/ui/menu.hpp</text>
</a>
</g>
</g>
<!-- Node1&#45;&gt;Node12 -->
<g id="edge11" class="edge"><title>Node1&#45;&gt;Node12</title>
<path fill="none" stroke="midnightblue" d="M1046.21,-105.002C1036.46,-95.4329 1024.45,-83.6389 1016.41,-75.7511"/>
<polygon fill="midnightblue" stroke="midnightblue" points="1043.83,-107.575 1053.42,-112.083 1048.73,-102.58 1043.83,-107.575"/>
</g>
<!-- Node13 -->
<g id="node13" class="node"><title>Node13</title>
<g id="a_node13"><a xlink:href="line_8hpp.html" target="_top" xlink:title="line widget ">
<polygon fill="white" stroke="black" points="1073.5,-56.5 1073.5,-75.5 1161.5,-75.5 1161.5,-56.5 1073.5,-56.5"/>
<text text-anchor="middle" x="1117.5" y="-63.5" font-family="Helvetica,sans-Serif" font-size="10.00">boost/ui/line.hpp</text>
</a>
</g>
</g>
<!-- Node1&#45;&gt;Node13 -->
<g id="edge13" class="edge"><title>Node1&#45;&gt;Node13</title>
<path fill="none" stroke="midnightblue" d="M1078.79,-105.002C1088.54,-95.4329 1100.55,-83.6389 1108.59,-75.7511"/>
<polygon fill="midnightblue" stroke="midnightblue" points="1076.27,-102.58 1071.58,-112.083 1081.17,-107.575 1076.27,-102.58"/>
</g>
<!-- Node14 -->
<g id="node14" class="node"><title>Node14</title>
<g id="a_node14"><a xlink:href="label_8hpp.html" target="_top" xlink:title="Label widget. ">
<polygon fill="white" stroke="black" points="1179,-56.5 1179,-75.5 1272,-75.5 1272,-56.5 1179,-56.5"/>
<text text-anchor="middle" x="1225.5" y="-63.5" font-family="Helvetica,sans-Serif" font-size="10.00">boost/ui/label.hpp</text>
</a>
</g>
</g>
<!-- Node1&#45;&gt;Node14 -->
<g id="edge14" class="edge"><title>Node1&#45;&gt;Node14</title>
<path fill="none" stroke="midnightblue" d="M1098.2,-109.172C1128.9,-99.0039 1172.42,-84.5852 1199.79,-75.5164"/>
<polygon fill="midnightblue" stroke="midnightblue" points="1096.72,-105.976 1088.33,-112.444 1098.92,-112.621 1096.72,-105.976"/>
</g>
<!-- Node15 -->
<g id="node15" class="node"><title>Node15</title>
<g id="a_node15"><a xlink:href="image__widget_8hpp.html" target="_top" xlink:title="Image widget. ">
<polygon fill="white" stroke="black" points="1290,-56.5 1290,-75.5 1423,-75.5 1423,-56.5 1290,-56.5"/>
<text text-anchor="middle" x="1356.5" y="-63.5" font-family="Helvetica,sans-Serif" font-size="10.00">boost/ui/image_widget.hpp</text>
</a>
</g>
</g>
<!-- Node1&#45;&gt;Node15 -->
<g id="edge15" class="edge"><title>Node1&#45;&gt;Node15</title>
<path fill="none" stroke="midnightblue" d="M1119.12,-110.601C1174.68,-100.395 1258.4,-85.0189 1310.13,-75.5164"/>
<polygon fill="midnightblue" stroke="midnightblue" points="1118.29,-107.195 1109.09,-112.444 1119.55,-114.079 1118.29,-107.195"/>
</g>
<!-- Node16 -->
<g id="node16" class="node"><title>Node16</title>
<g id="a_node16"><a xlink:href="hyperlink_8hpp.html" target="_top" xlink:title="Hyperlink widget. ">
<polygon fill="white" stroke="black" points="1441.5,-56.5 1441.5,-75.5 1553.5,-75.5 1553.5,-56.5 1441.5,-56.5"/>
<text text-anchor="middle" x="1497.5" y="-63.5" font-family="Helvetica,sans-Serif" font-size="10.00">boost/ui/hyperlink.hpp</text>
</a>
</g>
</g>
<!-- Node1&#45;&gt;Node16 -->
<g id="edge16" class="edge"><title>Node1&#45;&gt;Node16</title>
<path fill="none" stroke="midnightblue" d="M1123.08,-113.944C1196.4,-105.333 1323.56,-90.1653 1432.5,-76 1435.44,-75.6181 1438.45,-75.2209 1441.49,-74.8155"/>
<polygon fill="midnightblue" stroke="midnightblue" points="1122.63,-110.473 1113.1,-115.114 1123.44,-117.425 1122.63,-110.473"/>
</g>
<!-- Node17 -->
<g id="node17" class="node"><title>Node17</title>
<g id="a_node17"><a xlink:href="group__box_8hpp.html" target="_top" xlink:title="Group box widget. ">
<polygon fill="white" stroke="black" points="1571.5,-56.5 1571.5,-75.5 1689.5,-75.5 1689.5,-56.5 1571.5,-56.5"/>
<text text-anchor="middle" x="1630.5" y="-63.5" font-family="Helvetica,sans-Serif" font-size="10.00">boost/ui/group_box.hpp</text>
</a>
</g>
</g>
<!-- Node1&#45;&gt;Node17 -->
<g id="edge17" class="edge"><title>Node1&#45;&gt;Node17</title>
<path fill="none" stroke="midnightblue" d="M1123.52,-116.335C1217.8,-108.942 1404.49,-93.5593 1562.5,-76 1565.34,-75.6843 1568.25,-75.3488 1571.18,-74.9998"/>
<polygon fill="midnightblue" stroke="midnightblue" points="1123.01,-112.864 1113.32,-117.133 1123.56,-119.843 1123.01,-112.864"/>
</g>
<!-- Node18 -->
<g id="node18" class="node"><title>Node18</title>
<g id="a_node18"><a xlink:href="datetime_8hpp.html" target="_top" xlink:title="Date and time pickers. ">
<polygon fill="white" stroke="black" points="1707.5,-56.5 1707.5,-75.5 1817.5,-75.5 1817.5,-56.5 1707.5,-56.5"/>
<text text-anchor="middle" x="1762.5" y="-63.5" font-family="Helvetica,sans-Serif" font-size="10.00">boost/ui/datetime.hpp</text>
</a>
</g>
</g>
<!-- Node1&#45;&gt;Node18 -->
<g id="edge18" class="edge"><title>Node1&#45;&gt;Node18</title>
<path fill="none" stroke="midnightblue" d="M1123.52,-118.088C1236.97,-112.362 1487.94,-98.2274 1698.5,-76 1701.4,-75.6937 1704.37,-75.3569 1707.37,-74.9987"/>
<polygon fill="midnightblue" stroke="midnightblue" points="1123.12,-114.603 1113.31,-118.599 1123.47,-121.595 1123.12,-114.603"/>
</g>
<!-- Node19 -->
<g id="node19" class="node"><title>Node19</title>
<g id="a_node19"><a xlink:href="check__box_8hpp.html" target="_top" xlink:title="Check box widget. ">
<polygon fill="white" stroke="black" points="1835.5,-56.5 1835.5,-75.5 1955.5,-75.5 1955.5,-56.5 1835.5,-56.5"/>
<text text-anchor="middle" x="1895.5" y="-63.5" font-family="Helvetica,sans-Serif" font-size="10.00">boost/ui/check_box.hpp</text>
</a>
</g>
</g>
<!-- Node1&#45;&gt;Node19 -->
<g id="edge19" class="edge"><title>Node1&#45;&gt;Node19</title>
<path fill="none" stroke="midnightblue" d="M1123.21,-118.887C1252.68,-114.059 1565.38,-100.689 1826.5,-76 1829.39,-75.7271 1832.34,-75.4262 1835.32,-75.1051"/>
<polygon fill="midnightblue" stroke="midnightblue" points="1122.97,-115.393 1113.1,-119.26 1123.23,-122.389 1122.97,-115.393"/>
</g>
<!-- Node20 -->
<g id="node20" class="node"><title>Node20</title>
<g id="a_node20"><a xlink:href="canvas_8hpp.html" target="_top" xlink:title="Canvas widget. ">
<polygon fill="white" stroke="black" points="1973.5,-56.5 1973.5,-75.5 2077.5,-75.5 2077.5,-56.5 1973.5,-56.5"/>
<text text-anchor="middle" x="2025.5" y="-63.5" font-family="Helvetica,sans-Serif" font-size="10.00">boost/ui/canvas.hpp</text>
</a>
</g>
</g>
<!-- Node1&#45;&gt;Node20 -->
<g id="edge20" class="edge"><title>Node1&#45;&gt;Node20</title>
<path fill="none" stroke="midnightblue" d="M1123.58,-119.988C1269.37,-117.128 1649.07,-107.064 1964.5,-76 1967.38,-75.7167 1970.32,-75.3931 1973.3,-75.0408"/>
<polygon fill="midnightblue" stroke="midnightblue" points="1123.42,-116.49 1113.49,-120.181 1123.55,-123.489 1123.42,-116.49"/>
</g>
<!-- Node21 -->
<g id="node21" class="node"><title>Node21</title>
<g id="a_node21"><a xlink:href="button_8hpp.html" target="_top" xlink:title="Button widget. ">
<polygon fill="white" stroke="black" points="2095.5,-56.5 2095.5,-75.5 2195.5,-75.5 2195.5,-56.5 2095.5,-56.5"/>
<text text-anchor="middle" x="2145.5" y="-63.5" font-family="Helvetica,sans-Serif" font-size="10.00">boost/ui/button.hpp</text>
</a>
</g>
</g>
<!-- Node1&#45;&gt;Node21 -->
<g id="edge21" class="edge"><title>Node1&#45;&gt;Node21</title>
<path fill="none" stroke="midnightblue" d="M1123.29,-120.605C1282.07,-119.079 1722.14,-111.692 2086.5,-76 2089.39,-75.7172 2092.35,-75.3885 2095.33,-75.0275"/>
<polygon fill="midnightblue" stroke="midnightblue" points="1123.21,-117.105 1113.25,-120.697 1123.28,-124.105 1123.21,-117.105"/>
</g>
<!-- Node5 -->
<g id="node5" class="node"><title>Node5</title>
<g id="a_node5"><a xlink:href="combo__box_8hpp.html" target="_top" xlink:title="Combo box widget. ">
<polygon fill="white" stroke="black" points="142,-0.5 142,-19.5 265,-19.5 265,-0.5 142,-0.5"/>
<text text-anchor="middle" x="203.5" y="-7.5" font-family="Helvetica,sans-Serif" font-size="10.00">boost/ui/combo_box.hpp</text>
</a>
</g>
</g>
<!-- Node4&#45;&gt;Node5 -->
<g id="edge4" class="edge"><title>Node4&#45;&gt;Node5</title>
<path fill="none" stroke="midnightblue" d="M303.415,-52.503C279.043,-42.3795 245.36,-28.388 224.003,-19.5164"/>
<polygon fill="midnightblue" stroke="midnightblue" points="302.323,-55.8397 312.901,-56.4435 305.009,-49.3752 302.323,-55.8397"/>
</g>
<!-- Node6 -->
<g id="node6" class="node"><title>Node6</title>
<g id="a_node6"><a xlink:href="choice_8hpp.html" target="_top" xlink:title="Choice widget. ">
<polygon fill="white" stroke="black" points="283,-0.5 283,-19.5 384,-19.5 384,-0.5 283,-0.5"/>
<text text-anchor="middle" x="333.5" y="-7.5" font-family="Helvetica,sans-Serif" font-size="10.00">boost/ui/choice.hpp</text>
</a>
</g>
</g>
<!-- Node4&#45;&gt;Node6 -->
<g id="edge5" class="edge"><title>Node4&#45;&gt;Node6</title>
<path fill="none" stroke="midnightblue" d="M333.5,-45.8045C333.5,-36.9102 333.5,-26.7798 333.5,-19.7511"/>
<polygon fill="midnightblue" stroke="midnightblue" points="330,-46.083 333.5,-56.083 337,-46.083 330,-46.083"/>
</g>
<!-- Node4&#45;&gt;Node7 -->
<g id="edge6" class="edge"><title>Node4&#45;&gt;Node7</title>
<path fill="none" stroke="midnightblue" d="M359.328,-51.5895C378.557,-41.6052 404.245,-28.2672 420.832,-19.6545"/>
<polygon fill="midnightblue" stroke="midnightblue" points="357.471,-48.6095 350.209,-56.324 360.697,-54.822 357.471,-48.6095"/>
</g>
<!-- Node12&#45;&gt;Node7 -->
<g id="edge12" class="edge"><title>Node12&#45;&gt;Node7</title>
<path fill="none" stroke="midnightblue" d="M948.538,-55.8292C763.726,-33.4908 554.503,-18.645 472.729,-13.2476"/>
<polygon fill="midnightblue" stroke="midnightblue" points="948.363,-59.3337 958.714,-57.0698 949.211,-52.3851 948.363,-59.3337"/>
</g>
</g>
</svg>
