<?xml version="1.0" encoding="UTF-8" standalone="no"?>
<!DOCTYPE svg PUBLIC "-//W3C//DTD SVG 1.1//EN"
 "http://www.w3.org/Graphics/SVG/1.1/DTD/svg11.dtd">
<!-- Generated by graphviz version 2.38.0 (20140413.2041)
 -->
<!-- Title: boost/ui/widget.hpp Pages: 1 -->
<svg width="1131pt" height="274pt"
 viewBox="0.00 0.00 1131.00 274.00" xmlns="http://www.w3.org/2000/svg" xmlns:xlink="http://www.w3.org/1999/xlink">
<g id="graph0" class="graph" transform="scale(1 1) rotate(0) translate(4 270)">
<title>boost/ui/widget.hpp</title>
<polygon fill="white" stroke="none" points="-4,4 -4,-270 1127,-270 1127,4 -4,4"/>
<!-- Node1 -->
<g id="node1" class="node"><title>Node1</title>
<polygon fill="#bfbfbf" stroke="black" points="682,-246.5 682,-265.5 783,-265.5 783,-246.5 682,-246.5"/>
<text text-anchor="middle" x="732.5" y="-253.5" font-family="Helvetica,sans-Serif" font-size="10.00">boost/ui/widget.hpp</text>
</g>
<!-- Node2 -->
<g id="node2" class="node"><title>Node2</title>
<g id="a_node2"><a xlink:href="config_8hpp.html" target="_top" xlink:title="Configuration options. ">
<polygon fill="white" stroke="black" points="685,-62 685,-81 784,-81 784,-62 685,-62"/>
<text text-anchor="middle" x="734.5" y="-69" font-family="Helvetica,sans-Serif" font-size="10.00">boost/ui/config.hpp</text>
</a>
</g>
</g>
<!-- Node1&#45;&gt;Node2 -->
<g id="edge1" class="edge"><title>Node1&#45;&gt;Node2</title>
<path fill="none" stroke="midnightblue" d="M681.725,-248.77C635.938,-241.984 573.543,-229.429 558.5,-210 533.547,-177.773 556.642,-149.627 587.5,-123 603.254,-109.406 653.374,-93.8639 690.738,-83.654"/>
<polygon fill="midnightblue" stroke="midnightblue" points="691.668,-87.0282 700.415,-81.0498 689.849,-80.2687 691.668,-87.0282"/>
</g>
<!-- Node4 -->
<g id="node4" class="node"><title>Node4</title>
<g id="a_node4"><a xlink:href="coord_8hpp.html" target="_top" xlink:title="Coordinates classes. ">
<polygon fill="white" stroke="black" points="414,-123.5 414,-142.5 511,-142.5 511,-123.5 414,-123.5"/>
<text text-anchor="middle" x="462.5" y="-130.5" font-family="Helvetica,sans-Serif" font-size="10.00">boost/ui/coord.hpp</text>
</a>
</g>
</g>
<!-- Node1&#45;&gt;Node4 -->
<g id="edge3" class="edge"><title>Node1&#45;&gt;Node4</title>
<path fill="none" stroke="midnightblue" d="M681.851,-253.171C637.704,-249.532 573.42,-239.14 525.5,-210 501.778,-195.574 482.85,-168.972 472.149,-151.381"/>
<polygon fill="midnightblue" stroke="midnightblue" points="475.131,-149.547 467.072,-142.669 469.084,-153.071 475.131,-149.547"/>
</g>
<!-- Node10 -->
<g id="node10" class="node"><title>Node10</title>
<g id="a_node10"><a xlink:href="string_8hpp.html" target="_top" xlink:title="String class and operations. ">
<polygon fill="white" stroke="black" points="961,-123.5 961,-142.5 1058,-142.5 1058,-123.5 961,-123.5"/>
<text text-anchor="middle" x="1009.5" y="-130.5" font-family="Helvetica,sans-Serif" font-size="10.00">boost/ui/string.hpp</text>
</a>
</g>
</g>
<!-- Node1&#45;&gt;Node10 -->
<g id="edge10" class="edge"><title>Node1&#45;&gt;Node10</title>
<path fill="none" stroke="midnightblue" d="M783.16,-246.711C816.836,-239.894 861.345,-228.317 897.5,-210 917.252,-199.993 918.377,-191.721 936.5,-179 952.394,-167.844 971.042,-156.374 985.511,-147.807"/>
<polygon fill="midnightblue" stroke="midnightblue" points="987.489,-150.705 994.346,-142.628 983.949,-144.666 987.489,-150.705"/>
</g>
<!-- Node14 -->
<g id="node14" class="node"><title>Node14</title>
<g id="a_node14"><a xlink:href="event_8hpp.html" target="_top" xlink:title="Event classes. ">
<polygon fill="white" stroke="black" points="568,-185 568,-204 665,-204 665,-185 568,-185"/>
<text text-anchor="middle" x="616.5" y="-192" font-family="Helvetica,sans-Serif" font-size="10.00">boost/ui/event.hpp</text>
</a>
</g>
</g>
<!-- Node1&#45;&gt;Node14 -->
<g id="edge15" class="edge"><title>Node1&#45;&gt;Node14</title>
<path fill="none" stroke="midnightblue" d="M715.88,-246.475C696.585,-236.578 664.541,-220.142 642.069,-208.615"/>
<polygon fill="midnightblue" stroke="midnightblue" points="643.584,-205.459 633.089,-204.009 640.39,-211.687 643.584,-205.459"/>
</g>
<!-- Node16 -->
<g id="node16" class="node"><title>Node16</title>
<g id="a_node16"><a xlink:href="font_8hpp.html" target="_top" xlink:title="Font class. ">
<polygon fill="white" stroke="black" points="800,-185 800,-204 889,-204 889,-185 800,-185"/>
<text text-anchor="middle" x="844.5" y="-192" font-family="Helvetica,sans-Serif" font-size="10.00">boost/ui/font.hpp</text>
</a>
</g>
</g>
<!-- Node1&#45;&gt;Node16 -->
<g id="edge19" class="edge"><title>Node1&#45;&gt;Node16</title>
<path fill="none" stroke="midnightblue" d="M748.547,-246.475C767.093,-236.622 797.84,-220.288 819.522,-208.77"/>
<polygon fill="midnightblue" stroke="midnightblue" points="821.294,-211.792 828.483,-204.009 818.01,-205.61 821.294,-211.792"/>
</g>
<!-- Node18 -->
<g id="node18" class="node"><title>Node18</title>
<g id="a_node18"><a xlink:href="layout_8hpp.html" target="_top" xlink:title="Layout classes. ">
<polygon fill="white" stroke="black" points="683,-185 683,-204 782,-204 782,-185 683,-185"/>
<text text-anchor="middle" x="732.5" y="-192" font-family="Helvetica,sans-Serif" font-size="10.00">boost/ui/layout.hpp</text>
</a>
</g>
</g>
<!-- Node1&#45;&gt;Node18 -->
<g id="edge23" class="edge"><title>Node1&#45;&gt;Node18</title>
<path fill="none" stroke="midnightblue" d="M732.5,-246.475C732.5,-238.08 732.5,-224.981 732.5,-214.163"/>
<polygon fill="midnightblue" stroke="midnightblue" points="736,-214.009 732.5,-204.009 729,-214.009 736,-214.009"/>
</g>
<!-- Node19 -->
<g id="node19" class="node"><title>Node19</title>
<polygon fill="white" stroke="#bfbfbf" points="945.5,-179.5 945.5,-209.5 1055.5,-209.5 1055.5,-179.5 945.5,-179.5"/>
<text text-anchor="start" x="953.5" y="-197.5" font-family="Helvetica,sans-Serif" font-size="10.00">boost/ui/detail/shared</text>
<text text-anchor="middle" x="1000.5" y="-186.5" font-family="Helvetica,sans-Serif" font-size="10.00">_count.hpp</text>
</g>
<!-- Node1&#45;&gt;Node19 -->
<g id="edge25" class="edge"><title>Node1&#45;&gt;Node19</title>
<path fill="none" stroke="midnightblue" d="M770.898,-246.475C813.776,-236.956 883.903,-221.386 935.392,-209.955"/>
<polygon fill="midnightblue" stroke="midnightblue" points="936.423,-213.311 945.427,-207.727 934.906,-206.478 936.423,-213.311"/>
</g>
<!-- Node3 -->
<g id="node3" class="node"><title>Node3</title>
<polygon fill="white" stroke="#bfbfbf" points="690,-0.5 690,-19.5 779,-19.5 779,-0.5 690,-0.5"/>
<text text-anchor="middle" x="734.5" y="-7.5" font-family="Helvetica,sans-Serif" font-size="10.00">boost/config.hpp</text>
</g>
<!-- Node2&#45;&gt;Node3 -->
<g id="edge2" class="edge"><title>Node2&#45;&gt;Node3</title>
<path fill="none" stroke="midnightblue" d="M734.5,-61.9751C734.5,-53.5803 734.5,-40.4806 734.5,-29.6631"/>
<polygon fill="midnightblue" stroke="midnightblue" points="738,-29.5091 734.5,-19.5091 731,-29.5091 738,-29.5091"/>
</g>
<!-- Node4&#45;&gt;Node2 -->
<g id="edge4" class="edge"><title>Node4&#45;&gt;Node2</title>
<path fill="none" stroke="midnightblue" d="M505.023,-123.444C548.081,-114.679 616.546,-100.468 675.5,-87 680.45,-85.8691 685.625,-84.6508 690.765,-83.4179"/>
<polygon fill="midnightblue" stroke="midnightblue" points="691.645,-86.8062 700.538,-81.0482 689.995,-80.0033 691.645,-86.8062"/>
</g>
<!-- Node5 -->
<g id="node5" class="node"><title>Node5</title>
<polygon fill="white" stroke="#bfbfbf" points="411,-62 411,-81 514,-81 514,-62 411,-62"/>
<text text-anchor="middle" x="462.5" y="-69" font-family="Helvetica,sans-Serif" font-size="10.00">boost/geometry.hpp</text>
</g>
<!-- Node4&#45;&gt;Node5 -->
<g id="edge5" class="edge"><title>Node4&#45;&gt;Node5</title>
<path fill="none" stroke="midnightblue" d="M462.5,-123.475C462.5,-115.08 462.5,-101.981 462.5,-91.1631"/>
<polygon fill="midnightblue" stroke="midnightblue" points="466,-91.0091 462.5,-81.0091 459,-91.0091 466,-91.0091"/>
</g>
<!-- Node6 -->
<g id="node6" class="node"><title>Node6</title>
<polygon fill="white" stroke="#bfbfbf" points="532,-56.5 532,-86.5 667,-86.5 667,-56.5 532,-56.5"/>
<text text-anchor="start" x="540" y="-74.5" font-family="Helvetica,sans-Serif" font-size="10.00">boost/geometry/geometries</text>
<text text-anchor="middle" x="599.5" y="-63.5" font-family="Helvetica,sans-Serif" font-size="10.00">/point_xy.hpp</text>
</g>
<!-- Node4&#45;&gt;Node6 -->
<g id="edge6" class="edge"><title>Node4&#45;&gt;Node6</title>
<path fill="none" stroke="midnightblue" d="M482.129,-123.475C501.811,-114.927 532.724,-101.501 557.886,-90.5734"/>
<polygon fill="midnightblue" stroke="midnightblue" points="559.434,-93.7169 567.212,-86.523 556.645,-87.2963 559.434,-93.7169"/>
</g>
<!-- Node7 -->
<g id="node7" class="node"><title>Node7</title>
<polygon fill="white" stroke="#bfbfbf" points="0,-56.5 0,-86.5 135,-86.5 135,-56.5 0,-56.5"/>
<text text-anchor="start" x="8" y="-74.5" font-family="Helvetica,sans-Serif" font-size="10.00">boost/geometry/geometries</text>
<text text-anchor="middle" x="67.5" y="-63.5" font-family="Helvetica,sans-Serif" font-size="10.00">/box.hpp</text>
</g>
<!-- Node4&#45;&gt;Node7 -->
<g id="edge7" class="edge"><title>Node4&#45;&gt;Node7</title>
<path fill="none" stroke="midnightblue" d="M413.748,-125.868C353.098,-118.074 246.131,-103.788 145.087,-87.2193"/>
<polygon fill="midnightblue" stroke="midnightblue" points="145.451,-83.7321 135.015,-85.5567 144.311,-90.6387 145.451,-83.7321"/>
</g>
<!-- Node8 -->
<g id="node8" class="node"><title>Node8</title>
<polygon fill="white" stroke="#bfbfbf" points="153,-56.5 153,-86.5 254,-86.5 254,-56.5 153,-56.5"/>
<text text-anchor="start" x="161" y="-74.5" font-family="Helvetica,sans-Serif" font-size="10.00">boost/polygon/point</text>
<text text-anchor="middle" x="203.5" y="-63.5" font-family="Helvetica,sans-Serif" font-size="10.00">_data.hpp</text>
</g>
<!-- Node4&#45;&gt;Node8 -->
<g id="edge8" class="edge"><title>Node4&#45;&gt;Node8</title>
<path fill="none" stroke="midnightblue" d="M423.94,-123.457C385.859,-114.981 325.701,-101.486 264.119,-87.1259"/>
<polygon fill="midnightblue" stroke="midnightblue" points="264.761,-83.6816 254.227,-84.8144 263.168,-90.498 264.761,-83.6816"/>
</g>
<!-- Node9 -->
<g id="node9" class="node"><title>Node9</title>
<polygon fill="white" stroke="#bfbfbf" points="272.5,-56.5 272.5,-86.5 392.5,-86.5 392.5,-56.5 272.5,-56.5"/>
<text text-anchor="start" x="280.5" y="-74.5" font-family="Helvetica,sans-Serif" font-size="10.00">boost/polygon/rectangle</text>
<text text-anchor="middle" x="332.5" y="-63.5" font-family="Helvetica,sans-Serif" font-size="10.00">_data.hpp</text>
</g>
<!-- Node4&#45;&gt;Node9 -->
<g id="edge9" class="edge"><title>Node4&#45;&gt;Node9</title>
<path fill="none" stroke="midnightblue" d="M443.874,-123.475C425.28,-114.965 396.122,-101.619 372.304,-90.718"/>
<polygon fill="midnightblue" stroke="midnightblue" points="373.688,-87.5023 363.138,-86.523 370.775,-93.8673 373.688,-87.5023"/>
</g>
<!-- Node10&#45;&gt;Node2 -->
<g id="edge11" class="edge"><title>Node10&#45;&gt;Node2</title>
<path fill="none" stroke="midnightblue" d="M970.099,-123.475C920.987,-112.849 837.034,-94.6847 783.734,-83.1524"/>
<polygon fill="midnightblue" stroke="midnightblue" points="784.342,-79.703 773.828,-81.0091 782.861,-86.5447 784.342,-79.703"/>
</g>
<!-- Node11 -->
<g id="node11" class="node"><title>Node11</title>
<polygon fill="white" stroke="#bfbfbf" points="914,-62 914,-81 955,-81 955,-62 914,-62"/>
<text text-anchor="middle" x="934.5" y="-69" font-family="Helvetica,sans-Serif" font-size="10.00">string</text>
</g>
<!-- Node10&#45;&gt;Node11 -->
<g id="edge12" class="edge"><title>Node10&#45;&gt;Node11</title>
<path fill="none" stroke="midnightblue" d="M998.754,-123.475C986.947,-114.108 967.757,-98.8839 953.418,-87.5081"/>
<polygon fill="midnightblue" stroke="midnightblue" points="955.235,-84.4822 945.226,-81.0091 950.885,-89.9661 955.235,-84.4822"/>
</g>
<!-- Node12 -->
<g id="node12" class="node"><title>Node12</title>
<polygon fill="white" stroke="#bfbfbf" points="973,-62 973,-81 1046,-81 1046,-62 973,-62"/>
<text text-anchor="middle" x="1009.5" y="-69" font-family="Helvetica,sans-Serif" font-size="10.00">initializer_list</text>
</g>
<!-- Node10&#45;&gt;Node12 -->
<g id="edge13" class="edge"><title>Node10&#45;&gt;Node12</title>
<path fill="none" stroke="midnightblue" d="M1009.5,-123.475C1009.5,-115.08 1009.5,-101.981 1009.5,-91.1631"/>
<polygon fill="midnightblue" stroke="midnightblue" points="1013,-91.0091 1009.5,-81.0091 1006,-91.0091 1013,-91.0091"/>
</g>
<!-- Node13 -->
<g id="node13" class="node"><title>Node13</title>
<polygon fill="white" stroke="#bfbfbf" points="1064,-62 1064,-81 1123,-81 1123,-62 1064,-62"/>
<text text-anchor="middle" x="1093.5" y="-69" font-family="Helvetica,sans-Serif" font-size="10.00">functional</text>
</g>
<!-- Node10&#45;&gt;Node13 -->
<g id="edge14" class="edge"><title>Node10&#45;&gt;Node13</title>
<path fill="none" stroke="midnightblue" d="M1021.54,-123.475C1035.01,-113.931 1057.07,-98.3073 1073.22,-86.8683"/>
<polygon fill="midnightblue" stroke="midnightblue" points="1075.35,-89.6454 1081.49,-81.0091 1071.3,-83.9332 1075.35,-89.6454"/>
</g>
<!-- Node14&#45;&gt;Node2 -->
<g id="edge16" class="edge"><title>Node14&#45;&gt;Node2</title>
<path fill="none" stroke="midnightblue" d="M609.791,-184.92C599.644,-170.824 582.944,-142.396 596.5,-123 602.487,-114.434 657.347,-96.1444 696.062,-84.0882"/>
<polygon fill="midnightblue" stroke="midnightblue" points="697.486,-87.3116 706.008,-81.0168 695.421,-80.6232 697.486,-87.3116"/>
</g>
<!-- Node14&#45;&gt;Node4 -->
<g id="edge17" class="edge"><title>Node14&#45;&gt;Node4</title>
<path fill="none" stroke="midnightblue" d="M594.436,-184.975C568.133,-174.813 523.987,-157.756 494.075,-146.2"/>
<polygon fill="midnightblue" stroke="midnightblue" points="495.113,-142.848 484.524,-142.509 492.59,-149.378 495.113,-142.848"/>
</g>
<!-- Node15 -->
<g id="node15" class="node"><title>Node15</title>
<polygon fill="white" stroke="#bfbfbf" points="606,-123.5 606,-142.5 703,-142.5 703,-123.5 606,-123.5"/>
<text text-anchor="middle" x="654.5" y="-130.5" font-family="Helvetica,sans-Serif" font-size="10.00">boost/function.hpp</text>
</g>
<!-- Node14&#45;&gt;Node15 -->
<g id="edge18" class="edge"><title>Node14&#45;&gt;Node15</title>
<path fill="none" stroke="midnightblue" d="M621.944,-184.975C627.588,-176.138 636.561,-162.089 643.659,-150.975"/>
<polygon fill="midnightblue" stroke="midnightblue" points="646.633,-152.821 649.066,-142.509 640.733,-149.053 646.633,-152.821"/>
</g>
<!-- Node16&#45;&gt;Node2 -->
<g id="edge20" class="edge"><title>Node16&#45;&gt;Node2</title>
<path fill="none" stroke="midnightblue" d="M833.643,-184.735C821.948,-175.066 803.061,-158.778 788.5,-143 772.718,-125.899 756.774,-104.456 746.346,-89.7354"/>
<polygon fill="midnightblue" stroke="midnightblue" points="748.942,-87.3401 740.346,-81.146 743.203,-91.3484 748.942,-87.3401"/>
</g>
<!-- Node16&#45;&gt;Node10 -->
<g id="edge21" class="edge"><title>Node16&#45;&gt;Node10</title>
<path fill="none" stroke="midnightblue" d="M868.14,-184.975C896.444,-174.769 944.033,-157.608 976.086,-146.049"/>
<polygon fill="midnightblue" stroke="midnightblue" points="977.684,-149.194 985.903,-142.509 975.309,-142.609 977.684,-149.194"/>
</g>
<!-- Node17 -->
<g id="node17" class="node"><title>Node17</title>
<polygon fill="white" stroke="#bfbfbf" points="798,-123.5 798,-142.5 943,-142.5 943,-123.5 798,-123.5"/>
<text text-anchor="middle" x="870.5" y="-130.5" font-family="Helvetica,sans-Serif" font-size="10.00">boost/core/scoped_enum.hpp</text>
</g>
<!-- Node16&#45;&gt;Node17 -->
<g id="edge22" class="edge"><title>Node16&#45;&gt;Node17</title>
<path fill="none" stroke="midnightblue" d="M848.225,-184.975C851.971,-176.404 857.86,-162.927 862.642,-151.983"/>
<polygon fill="midnightblue" stroke="midnightblue" points="865.985,-153.074 866.782,-142.509 859.57,-150.271 865.985,-153.074"/>
</g>
<!-- Node18&#45;&gt;Node2 -->
<g id="edge24" class="edge"><title>Node18&#45;&gt;Node2</title>
<path fill="none" stroke="midnightblue" d="M732.644,-184.798C732.965,-165.35 733.748,-117.99 734.188,-91.4036"/>
<polygon fill="midnightblue" stroke="midnightblue" points="737.692,-91.1797 734.357,-81.1232 730.693,-91.0639 737.692,-91.1797"/>
</g>
</g>
</svg>
