<?xml version="1.0" encoding="UTF-8" standalone="no"?>
<!DOCTYPE svg PUBLIC "-//W3C//DTD SVG 1.1//EN"
 "http://www.w3.org/Graphics/SVG/1.1/DTD/svg11.dtd">
<!-- Generated by graphviz version 2.43.0 (0)
 -->
<!-- Title: boost/ui/widget.hpp Pages: 1 -->
<svg width="2556pt" height="140pt"
 viewBox="0.00 0.00 2555.50 140.00" xmlns="http://www.w3.org/2000/svg" xmlns:xlink="http://www.w3.org/1999/xlink">
<g id="graph0" class="graph" transform="scale(1 1) rotate(0) translate(4 136)">
<title>boost/ui/widget.hpp</title>
<polygon fill="white" stroke="transparent" points="-4,4 -4,-136 2551.5,-136 2551.5,4 -4,4"/>
<!-- Node1 -->
<g id="node1" class="node">
<title>Node1</title>
<g id="a_node1"><a xlink:title="Widget class.">
<polygon fill="#bfbfbf" stroke="black" points="1185.5,-112.5 1185.5,-131.5 1298.5,-131.5 1298.5,-112.5 1185.5,-112.5"/>
<text text-anchor="middle" x="1242" y="-119.5" font-family="Helvetica,sans-Serif" font-size="10.00">boost/ui/widget.hpp</text>
</a>
</g>
</g>
<!-- Node2 -->
<g id="node2" class="node">
<title>Node2</title>
<g id="a_node2"><a xlink:href="web__widget_8hpp.html" target="_top" xlink:title="Web widget.">
<polygon fill="white" stroke="black" points="0,-56.5 0,-75.5 138,-75.5 138,-56.5 0,-56.5"/>
<text text-anchor="middle" x="69" y="-63.5" font-family="Helvetica,sans-Serif" font-size="10.00">boost/ui/web_widget.hpp</text>
</a>
</g>
</g>
<!-- Node1&#45;&gt;Node2 -->
<g id="edge1" class="edge">
<title>Node1&#45;&gt;Node2</title>
<path fill="none" stroke="midnightblue" d="M1175.39,-119.97C1004.38,-116.97 535.97,-106.39 147,-76 144.15,-75.78 141.24,-75.53 138.3,-75.26"/>
<polygon fill="midnightblue" stroke="midnightblue" points="1175.44,-123.48 1185.5,-120.15 1175.56,-116.48 1175.44,-123.48"/>
</g>
<!-- Node3 -->
<g id="node3" class="node">
<title>Node3</title>
<g id="a_node3"><a xlink:href="text__box_8hpp.html" target="_top" xlink:title="Text editor widgets.">
<polygon fill="white" stroke="black" points="156,-56.5 156,-75.5 278,-75.5 278,-56.5 156,-56.5"/>
<text text-anchor="middle" x="217" y="-63.5" font-family="Helvetica,sans-Serif" font-size="10.00">boost/ui/text_box.hpp</text>
</a>
</g>
</g>
<!-- Node1&#45;&gt;Node3 -->
<g id="edge2" class="edge">
<title>Node1&#45;&gt;Node3</title>
<path fill="none" stroke="midnightblue" d="M1175.02,-119.7C1019.05,-116.28 619.56,-105.17 287,-76 284.07,-75.74 281.08,-75.46 278.05,-75.14"/>
<polygon fill="midnightblue" stroke="midnightblue" points="1175.31,-123.21 1185.38,-119.93 1175.46,-116.21 1175.31,-123.21"/>
</g>
<!-- Node4 -->
<g id="node4" class="node">
<title>Node4</title>
<g id="a_node4"><a xlink:href="strings__box_8hpp.html" target="_top" xlink:title="Widget with array of strings.">
<polygon fill="white" stroke="black" points="296,-56.5 296,-75.5 432,-75.5 432,-56.5 296,-56.5"/>
<text text-anchor="middle" x="364" y="-63.5" font-family="Helvetica,sans-Serif" font-size="10.00">boost/ui/strings_box.hpp</text>
</a>
</g>
</g>
<!-- Node1&#45;&gt;Node4 -->
<g id="edge3" class="edge">
<title>Node1&#45;&gt;Node4</title>
<path fill="none" stroke="midnightblue" d="M1175.15,-118.42C1038.19,-112.86 715.88,-98.42 446,-76 441.58,-75.63 437.02,-75.22 432.43,-74.78"/>
<polygon fill="midnightblue" stroke="midnightblue" points="1175.34,-121.93 1185.47,-118.83 1175.62,-114.93 1175.34,-121.93"/>
</g>
<!-- Node7 -->
<g id="node7" class="node">
<title>Node7</title>
<g id="a_node7"><a xlink:href="ui_8hpp.html" target="_top" xlink:title="Master Boost.UI file.">
<polygon fill="white" stroke="black" points="495.5,-0.5 495.5,-19.5 572.5,-19.5 572.5,-0.5 495.5,-0.5"/>
<text text-anchor="middle" x="534" y="-7.5" font-family="Helvetica,sans-Serif" font-size="10.00">boost/ui.hpp</text>
</a>
</g>
</g>
<!-- Node1&#45;&gt;Node7 -->
<g id="edge24" class="edge">
<title>Node1&#45;&gt;Node7</title>
<path fill="none" stroke="midnightblue" d="M1175.27,-119.52C993.71,-115.18 502.72,-101.16 479,-76 460.75,-56.64 495.35,-32.37 517.51,-19.67"/>
<polygon fill="midnightblue" stroke="midnightblue" points="1175.41,-123.03 1185.49,-119.77 1175.58,-116.03 1175.41,-123.03"/>
</g>
<!-- Node8 -->
<g id="node8" class="node">
<title>Node8</title>
<g id="a_node8"><a xlink:href="status__bar_8hpp.html" target="_top" xlink:title="Status bar class.">
<polygon fill="white" stroke="black" points="488,-56.5 488,-75.5 618,-75.5 618,-56.5 488,-56.5"/>
<text text-anchor="middle" x="553" y="-63.5" font-family="Helvetica,sans-Serif" font-size="10.00">boost/ui/status_bar.hpp</text>
</a>
</g>
</g>
<!-- Node1&#45;&gt;Node8 -->
<g id="edge7" class="edge">
<title>Node1&#45;&gt;Node8</title>
<path fill="none" stroke="midnightblue" d="M1174.88,-117.15C1061.74,-110.41 825.9,-95.36 627,-76 624.17,-75.72 621.27,-75.43 618.35,-75.12"/>
<polygon fill="midnightblue" stroke="midnightblue" points="1174.92,-120.66 1185.11,-117.75 1175.34,-113.67 1174.92,-120.66"/>
</g>
<!-- Node9 -->
<g id="node9" class="node">
<title>Node9</title>
<g id="a_node9"><a xlink:href="slider_8hpp.html" target="_top" xlink:title="Slider widget.">
<polygon fill="white" stroke="black" points="636,-56.5 636,-75.5 742,-75.5 742,-56.5 636,-56.5"/>
<text text-anchor="middle" x="689" y="-63.5" font-family="Helvetica,sans-Serif" font-size="10.00">boost/ui/slider.hpp</text>
</a>
</g>
</g>
<!-- Node1&#45;&gt;Node9 -->
<g id="edge9" class="edge">
<title>Node1&#45;&gt;Node9</title>
<path fill="none" stroke="midnightblue" d="M1175.19,-116C1080.61,-108.67 902.32,-93.91 751,-76 748.08,-75.65 745.09,-75.28 742.08,-74.89"/>
<polygon fill="midnightblue" stroke="midnightblue" points="1174.95,-119.49 1185.19,-116.77 1175.49,-112.51 1174.95,-119.49"/>
</g>
<!-- Node10 -->
<g id="node10" class="node">
<title>Node10</title>
<g id="a_node10"><a xlink:href="progress__bar_8hpp.html" target="_top" xlink:title="Progress bar widget.">
<polygon fill="white" stroke="black" points="760,-56.5 760,-75.5 902,-75.5 902,-56.5 760,-56.5"/>
<text text-anchor="middle" x="831" y="-63.5" font-family="Helvetica,sans-Serif" font-size="10.00">boost/ui/progress_bar.hpp</text>
</a>
</g>
</g>
<!-- Node1&#45;&gt;Node10 -->
<g id="edge10" class="edge">
<title>Node1&#45;&gt;Node10</title>
<path fill="none" stroke="midnightblue" d="M1175.21,-112.22C1098.13,-102.1 972.22,-85.55 895.93,-75.53"/>
<polygon fill="midnightblue" stroke="midnightblue" points="1174.91,-115.72 1185.28,-113.55 1175.82,-108.78 1174.91,-115.72"/>
</g>
<!-- Node11 -->
<g id="node11" class="node">
<title>Node11</title>
<g id="a_node11"><a xlink:href="panel_8hpp.html" target="_top" xlink:title="Panel widget.">
<polygon fill="white" stroke="black" points="920.5,-56.5 920.5,-75.5 1027.5,-75.5 1027.5,-56.5 920.5,-56.5"/>
<text text-anchor="middle" x="974" y="-63.5" font-family="Helvetica,sans-Serif" font-size="10.00">boost/ui/panel.hpp</text>
</a>
</g>
</g>
<!-- Node1&#45;&gt;Node11 -->
<g id="edge11" class="edge">
<title>Node1&#45;&gt;Node11</title>
<path fill="none" stroke="midnightblue" d="M1189.44,-110.41C1138.79,-100.2 1063.13,-84.96 1016.27,-75.52"/>
<polygon fill="midnightblue" stroke="midnightblue" points="1189.04,-113.9 1199.53,-112.44 1190.42,-107.04 1189.04,-113.9"/>
</g>
<!-- Node12 -->
<g id="node12" class="node">
<title>Node12</title>
<g id="a_node12"><a xlink:href="notebook_8hpp.html" target="_top" xlink:title="Notebook widget.">
<polygon fill="white" stroke="black" points="1045.5,-56.5 1045.5,-75.5 1170.5,-75.5 1170.5,-56.5 1045.5,-56.5"/>
<text text-anchor="middle" x="1108" y="-63.5" font-family="Helvetica,sans-Serif" font-size="10.00">boost/ui/notebook.hpp</text>
</a>
</g>
</g>
<!-- Node1&#45;&gt;Node12 -->
<g id="edge12" class="edge">
<title>Node1&#45;&gt;Node12</title>
<path fill="none" stroke="midnightblue" d="M1211.32,-108.64C1186.18,-98.5 1151.25,-84.43 1129.13,-75.52"/>
<polygon fill="midnightblue" stroke="midnightblue" points="1210.18,-111.95 1220.77,-112.44 1212.8,-105.46 1210.18,-111.95"/>
</g>
<!-- Node13 -->
<g id="node13" class="node">
<title>Node13</title>
<g id="a_node13"><a xlink:href="menu_8hpp.html" target="_top" xlink:title="Menu classes.">
<polygon fill="white" stroke="black" points="1188.5,-56.5 1188.5,-75.5 1295.5,-75.5 1295.5,-56.5 1188.5,-56.5"/>
<text text-anchor="middle" x="1242" y="-63.5" font-family="Helvetica,sans-Serif" font-size="10.00">boost/ui/menu.hpp</text>
</a>
</g>
</g>
<!-- Node1&#45;&gt;Node13 -->
<g id="edge13" class="edge">
<title>Node1&#45;&gt;Node13</title>
<path fill="none" stroke="midnightblue" d="M1242,-101.8C1242,-92.91 1242,-82.78 1242,-75.75"/>
<polygon fill="midnightblue" stroke="midnightblue" points="1238.5,-102.08 1242,-112.08 1245.5,-102.08 1238.5,-102.08"/>
</g>
<!-- Node14 -->
<g id="node14" class="node">
<title>Node14</title>
<g id="a_node14"><a xlink:href="line_8hpp.html" target="_top" xlink:title="line widget">
<polygon fill="white" stroke="black" points="1314,-56.5 1314,-75.5 1412,-75.5 1412,-56.5 1314,-56.5"/>
<text text-anchor="middle" x="1363" y="-63.5" font-family="Helvetica,sans-Serif" font-size="10.00">boost/ui/line.hpp</text>
</a>
</g>
</g>
<!-- Node1&#45;&gt;Node14 -->
<g id="edge15" class="edge">
<title>Node1&#45;&gt;Node14</title>
<path fill="none" stroke="midnightblue" d="M1270.31,-108.37C1292.97,-98.26 1324.13,-84.35 1343.92,-75.52"/>
<polygon fill="midnightblue" stroke="midnightblue" points="1268.88,-105.17 1261.17,-112.44 1271.73,-111.56 1268.88,-105.17"/>
</g>
<!-- Node15 -->
<g id="node15" class="node">
<title>Node15</title>
<g id="a_node15"><a xlink:href="label_8hpp.html" target="_top" xlink:title="Label widget.">
<polygon fill="white" stroke="black" points="1430,-56.5 1430,-75.5 1534,-75.5 1534,-56.5 1430,-56.5"/>
<text text-anchor="middle" x="1482" y="-63.5" font-family="Helvetica,sans-Serif" font-size="10.00">boost/ui/label.hpp</text>
</a>
</g>
</g>
<!-- Node1&#45;&gt;Node15 -->
<g id="edge16" class="edge">
<title>Node1&#45;&gt;Node15</title>
<path fill="none" stroke="midnightblue" d="M1289.92,-110.22C1335.27,-100.01 1402.44,-84.9 1444.15,-75.52"/>
<polygon fill="midnightblue" stroke="midnightblue" points="1289.02,-106.83 1280.03,-112.44 1290.55,-113.66 1289.02,-106.83"/>
</g>
<!-- Node16 -->
<g id="node16" class="node">
<title>Node16</title>
<g id="a_node16"><a xlink:href="image__widget_8hpp.html" target="_top" xlink:title="Image widget.">
<polygon fill="white" stroke="black" points="1552.5,-56.5 1552.5,-75.5 1701.5,-75.5 1701.5,-56.5 1552.5,-56.5"/>
<text text-anchor="middle" x="1627" y="-63.5" font-family="Helvetica,sans-Serif" font-size="10.00">boost/ui/image_widget.hpp</text>
</a>
</g>
</g>
<!-- Node1&#45;&gt;Node16 -->
<g id="edge17" class="edge">
<title>Node1&#45;&gt;Node16</title>
<path fill="none" stroke="midnightblue" d="M1308.75,-111.64C1381.24,-101.47 1496.04,-85.37 1566.14,-75.54"/>
<polygon fill="midnightblue" stroke="midnightblue" points="1308.22,-108.18 1298.81,-113.03 1309.2,-115.11 1308.22,-108.18"/>
</g>
<!-- Node17 -->
<g id="node17" class="node">
<title>Node17</title>
<g id="a_node17"><a xlink:href="hyperlink_8hpp.html" target="_top" xlink:title="Hyperlink widget.">
<polygon fill="white" stroke="black" points="1719.5,-56.5 1719.5,-75.5 1844.5,-75.5 1844.5,-56.5 1719.5,-56.5"/>
<text text-anchor="middle" x="1782" y="-63.5" font-family="Helvetica,sans-Serif" font-size="10.00">boost/ui/hyperlink.hpp</text>
</a>
</g>
</g>
<!-- Node1&#45;&gt;Node17 -->
<g id="edge18" class="edge">
<title>Node1&#45;&gt;Node17</title>
<path fill="none" stroke="midnightblue" d="M1308.91,-115.23C1399.96,-107.22 1567.95,-91.93 1711,-76 1713.72,-75.7 1716.49,-75.38 1719.29,-75.05"/>
<polygon fill="midnightblue" stroke="midnightblue" points="1308.39,-111.76 1298.73,-116.12 1309,-118.73 1308.39,-111.76"/>
</g>
<!-- Node18 -->
<g id="node18" class="node">
<title>Node18</title>
<g id="a_node18"><a xlink:href="group__box_8hpp.html" target="_top" xlink:title="Group box widget.">
<polygon fill="white" stroke="black" points="1862.5,-56.5 1862.5,-75.5 1993.5,-75.5 1993.5,-56.5 1862.5,-56.5"/>
<text text-anchor="middle" x="1928" y="-63.5" font-family="Helvetica,sans-Serif" font-size="10.00">boost/ui/group_box.hpp</text>
</a>
</g>
</g>
<!-- Node1&#45;&gt;Node18 -->
<g id="edge19" class="edge">
<title>Node1&#45;&gt;Node18</title>
<path fill="none" stroke="midnightblue" d="M1308.79,-117.13C1421.38,-110.38 1656.06,-95.3 1854,-76 1856.7,-75.74 1859.46,-75.46 1862.25,-75.16"/>
<polygon fill="midnightblue" stroke="midnightblue" points="1308.38,-113.65 1298.61,-117.74 1308.8,-120.64 1308.38,-113.65"/>
</g>
<!-- Node19 -->
<g id="node19" class="node">
<title>Node19</title>
<g id="a_node19"><a xlink:href="datetime_8hpp.html" target="_top" xlink:title="Date and time pickers.">
<polygon fill="white" stroke="black" points="2012,-56.5 2012,-75.5 2136,-75.5 2136,-56.5 2012,-56.5"/>
<text text-anchor="middle" x="2074" y="-63.5" font-family="Helvetica,sans-Serif" font-size="10.00">boost/ui/datetime.hpp</text>
</a>
</g>
</g>
<!-- Node1&#45;&gt;Node19 -->
<g id="edge20" class="edge">
<title>Node1&#45;&gt;Node19</title>
<path fill="none" stroke="midnightblue" d="M1308.91,-118.55C1441.54,-113.37 1747.09,-99.76 2003,-76 2005.85,-75.74 2008.75,-75.45 2011.69,-75.14"/>
<polygon fill="midnightblue" stroke="midnightblue" points="1308.76,-115.06 1298.9,-118.94 1309.03,-122.05 1308.76,-115.06"/>
</g>
<!-- Node20 -->
<g id="node20" class="node">
<title>Node20</title>
<g id="a_node20"><a xlink:href="check__box_8hpp.html" target="_top" xlink:title="Check box widget.">
<polygon fill="white" stroke="black" points="2154.5,-56.5 2154.5,-75.5 2285.5,-75.5 2285.5,-56.5 2154.5,-56.5"/>
<text text-anchor="middle" x="2220" y="-63.5" font-family="Helvetica,sans-Serif" font-size="10.00">boost/ui/check_box.hpp</text>
</a>
</g>
</g>
<!-- Node1&#45;&gt;Node20 -->
<g id="edge21" class="edge">
<title>Node1&#45;&gt;Node20</title>
<path fill="none" stroke="midnightblue" d="M1309.03,-119.26C1459.01,-115.01 1833.03,-102.46 2145,-76 2148.01,-75.75 2151.08,-75.46 2154.18,-75.16"/>
<polygon fill="midnightblue" stroke="midnightblue" points="1308.52,-115.77 1298.62,-119.55 1308.71,-122.77 1308.52,-115.77"/>
</g>
<!-- Node21 -->
<g id="node21" class="node">
<title>Node21</title>
<g id="a_node21"><a xlink:href="canvas_8hpp.html" target="_top" xlink:title="Canvas widget.">
<polygon fill="white" stroke="black" points="2304,-56.5 2304,-75.5 2418,-75.5 2418,-56.5 2304,-56.5"/>
<text text-anchor="middle" x="2361" y="-63.5" font-family="Helvetica,sans-Serif" font-size="10.00">boost/ui/canvas.hpp</text>
</a>
</g>
</g>
<!-- Node1&#45;&gt;Node21 -->
<g id="edge22" class="edge">
<title>Node1&#45;&gt;Node21</title>
<path fill="none" stroke="midnightblue" d="M1308.72,-120.3C1475.38,-118.07 1923.24,-109.22 2295,-76 2297.88,-75.74 2300.83,-75.45 2303.8,-75.13"/>
<polygon fill="midnightblue" stroke="midnightblue" points="1308.58,-116.8 1298.62,-120.43 1308.67,-123.8 1308.58,-116.8"/>
</g>
<!-- Node22 -->
<g id="node22" class="node">
<title>Node22</title>
<g id="a_node22"><a xlink:href="button_8hpp.html" target="_top" xlink:title="Button widget.">
<polygon fill="white" stroke="black" points="2436.5,-56.5 2436.5,-75.5 2547.5,-75.5 2547.5,-56.5 2436.5,-56.5"/>
<text text-anchor="middle" x="2492" y="-63.5" font-family="Helvetica,sans-Serif" font-size="10.00">boost/ui/button.hpp</text>
</a>
</g>
</g>
<!-- Node1&#45;&gt;Node22 -->
<g id="edge23" class="edge">
<title>Node1&#45;&gt;Node22</title>
<path fill="none" stroke="midnightblue" d="M1308.69,-120.79C1489.19,-119.73 2002.26,-113.38 2427,-76 2430.06,-75.73 2433.2,-75.42 2436.37,-75.07"/>
<polygon fill="midnightblue" stroke="midnightblue" points="1308.54,-117.29 1298.56,-120.85 1308.58,-124.29 1308.54,-117.29"/>
</g>
<!-- Node5 -->
<g id="node5" class="node">
<title>Node5</title>
<g id="a_node5"><a xlink:href="combo__box_8hpp.html" target="_top" xlink:title="Combo box widget.">
<polygon fill="white" stroke="black" points="174,-0.5 174,-19.5 310,-19.5 310,-0.5 174,-0.5"/>
<text text-anchor="middle" x="242" y="-7.5" font-family="Helvetica,sans-Serif" font-size="10.00">boost/ui/combo_box.hpp</text>
</a>
</g>
</g>
<!-- Node4&#45;&gt;Node5 -->
<g id="edge4" class="edge">
<title>Node4&#45;&gt;Node5</title>
<path fill="none" stroke="midnightblue" d="M335.46,-52.37C312.61,-42.26 281.19,-28.35 261.24,-19.52"/>
<polygon fill="midnightblue" stroke="midnightblue" points="334.11,-55.6 344.67,-56.44 336.94,-49.2 334.11,-55.6"/>
</g>
<!-- Node6 -->
<g id="node6" class="node">
<title>Node6</title>
<g id="a_node6"><a xlink:href="choice_8hpp.html" target="_top" xlink:title="Choice widget.">
<polygon fill="white" stroke="black" points="328.5,-0.5 328.5,-19.5 439.5,-19.5 439.5,-0.5 328.5,-0.5"/>
<text text-anchor="middle" x="384" y="-7.5" font-family="Helvetica,sans-Serif" font-size="10.00">boost/ui/choice.hpp</text>
</a>
</g>
</g>
<!-- Node4&#45;&gt;Node6 -->
<g id="edge5" class="edge">
<title>Node4&#45;&gt;Node6</title>
<path fill="none" stroke="midnightblue" d="M370.78,-46.69C374.15,-37.59 378.07,-27.01 380.76,-19.75"/>
<polygon fill="midnightblue" stroke="midnightblue" points="367.49,-45.49 367.3,-56.08 374.06,-47.92 367.49,-45.49"/>
</g>
<!-- Node4&#45;&gt;Node7 -->
<g id="edge6" class="edge">
<title>Node4&#45;&gt;Node7</title>
<path fill="none" stroke="midnightblue" d="M400.82,-53.3C432.85,-43.13 478.52,-28.62 507.19,-19.52"/>
<polygon fill="midnightblue" stroke="midnightblue" points="399.41,-50.08 390.94,-56.44 401.53,-56.75 399.41,-50.08"/>
</g>
<!-- Node8&#45;&gt;Node7 -->
<g id="edge8" class="edge">
<title>Node8&#45;&gt;Node7</title>
<path fill="none" stroke="midnightblue" d="M546.45,-46.4C543.28,-37.36 539.61,-26.94 537.08,-19.75"/>
<polygon fill="midnightblue" stroke="midnightblue" points="543.24,-47.81 549.86,-56.08 549.85,-45.49 543.24,-47.81"/>
</g>
<!-- Node13&#45;&gt;Node7 -->
<g id="edge14" class="edge">
<title>Node13&#45;&gt;Node7</title>
<path fill="none" stroke="midnightblue" d="M1178.13,-55.87C942.47,-30.96 671.68,-17.22 572.68,-12.69"/>
<polygon fill="midnightblue" stroke="midnightblue" points="1177.95,-59.37 1188.26,-56.95 1178.69,-52.41 1177.95,-59.37"/>
</g>
</g>
</svg>
