<?xml version="1.0" encoding="UTF-8" standalone="no"?>
<!DOCTYPE svg PUBLIC "-//W3C//DTD SVG 1.1//EN"
 "http://www.w3.org/Graphics/SVG/1.1/DTD/svg11.dtd">
<!-- Generated by graphviz version 2.38.0 (20140413.2041)
 -->
<!-- Title: boost/ui/widget.hpp Pages: 1 -->
<svg width="2342pt" height="140pt"
 viewBox="0.00 0.00 2341.50 140.00" xmlns="http://www.w3.org/2000/svg" xmlns:xlink="http://www.w3.org/1999/xlink">
<g id="graph0" class="graph" transform="scale(1 1) rotate(0) translate(4 136)">
<title>boost/ui/widget.hpp</title>
<polygon fill="white" stroke="none" points="-4,4 -4,-136 2337.5,-136 2337.5,4 -4,4"/>
<!-- Node1 -->
<g id="node1" class="node"><title>Node1</title>
<polygon fill="#bfbfbf" stroke="black" points="1095,-112.5 1095,-131.5 1196,-131.5 1196,-112.5 1095,-112.5"/>
<text text-anchor="middle" x="1145.5" y="-119.5" font-family="Helvetica,sans-Serif" font-size="10.00">boost/ui/widget.hpp</text>
</g>
<!-- Node2 -->
<g id="node2" class="node"><title>Node2</title>
<g id="a_node2"><a xlink:href="web__widget_8hpp.html" target="_top" xlink:title="Web widget. ">
<polygon fill="white" stroke="black" points="0,-56.5 0,-75.5 125,-75.5 125,-56.5 0,-56.5"/>
<text text-anchor="middle" x="62.5" y="-63.5" font-family="Helvetica,sans-Serif" font-size="10.00">boost/ui/web_widget.hpp</text>
</a>
</g>
</g>
<!-- Node1&#45;&gt;Node2 -->
<g id="edge1" class="edge"><title>Node1&#45;&gt;Node2</title>
<path fill="none" stroke="midnightblue" d="M1084.5,-119.982C926.995,-116.986 493.887,-106.411 134.5,-76 131.487,-75.7451 128.407,-75.4589 125.298,-75.1494"/>
<polygon fill="midnightblue" stroke="midnightblue" points="1084.85,-123.489 1094.91,-120.177 1084.98,-116.49 1084.85,-123.489"/>
</g>
<!-- Node3 -->
<g id="node3" class="node"><title>Node3</title>
<g id="a_node3"><a xlink:href="text__box_8hpp.html" target="_top" xlink:title="Text editor widgets. ">
<polygon fill="white" stroke="black" points="143.5,-56.5 143.5,-75.5 253.5,-75.5 253.5,-56.5 143.5,-56.5"/>
<text text-anchor="middle" x="198.5" y="-63.5" font-family="Helvetica,sans-Serif" font-size="10.00">boost/ui/text_box.hpp</text>
</a>
</g>
</g>
<!-- Node1&#45;&gt;Node3 -->
<g id="edge2" class="edge"><title>Node1&#45;&gt;Node3</title>
<path fill="none" stroke="midnightblue" d="M1084.33,-119.702C940.743,-116.259 571.013,-105.079 263.5,-76 260.324,-75.6997 257.066,-75.3574 253.78,-74.9859"/>
<polygon fill="midnightblue" stroke="midnightblue" points="1084.6,-123.21 1094.68,-119.946 1084.76,-116.212 1084.6,-123.21"/>
</g>
<!-- Node4 -->
<g id="node4" class="node"><title>Node4</title>
<g id="a_node4"><a xlink:href="strings__box_8hpp.html" target="_top" xlink:title="Widget with array of strings. ">
<polygon fill="white" stroke="black" points="272,-56.5 272,-75.5 395,-75.5 395,-56.5 272,-56.5"/>
<text text-anchor="middle" x="333.5" y="-63.5" font-family="Helvetica,sans-Serif" font-size="10.00">boost/ui/strings_box.hpp</text>
</a>
</g>
</g>
<!-- Node1&#45;&gt;Node4 -->
<g id="edge3" class="edge"><title>Node1&#45;&gt;Node4</title>
<path fill="none" stroke="midnightblue" d="M1084.33,-118.437C958.045,-112.886 659.396,-98.4177 409.5,-76 404.868,-75.5845 400.082,-75.1144 395.271,-74.6123"/>
<polygon fill="midnightblue" stroke="midnightblue" points="1084.42,-121.944 1094.56,-118.884 1084.73,-114.951 1084.42,-121.944"/>
</g>
<!-- Node7 -->
<g id="node7" class="node"><title>Node7</title>
<g id="a_node7"><a xlink:href="ui_8hpp.html" target="_top" xlink:title="Master Boost.UI file. ">
<polygon fill="white" stroke="black" points="457.5,-0.5 457.5,-19.5 527.5,-19.5 527.5,-0.5 457.5,-0.5"/>
<text text-anchor="middle" x="492.5" y="-7.5" font-family="Helvetica,sans-Serif" font-size="10.00">boost/ui.hpp</text>
</a>
</g>
</g>
<!-- Node1&#45;&gt;Node7 -->
<g id="edge24" class="edge"><title>Node1&#45;&gt;Node7</title>
<path fill="none" stroke="midnightblue" d="M1084.82,-119.343C918.344,-114.502 465.301,-99.2434 443.5,-76 426.001,-57.3434 457.741,-32.5754 477.841,-19.6641"/>
<polygon fill="midnightblue" stroke="midnightblue" points="1084.8,-122.843 1094.9,-119.633 1085,-115.846 1084.8,-122.843"/>
</g>
<!-- Node8 -->
<g id="node8" class="node"><title>Node8</title>
<g id="a_node8"><a xlink:href="status__bar_8hpp.html" target="_top" xlink:title="Status bar class. ">
<polygon fill="white" stroke="black" points="452,-56.5 452,-75.5 571,-75.5 571,-56.5 452,-56.5"/>
<text text-anchor="middle" x="511.5" y="-63.5" font-family="Helvetica,sans-Serif" font-size="10.00">boost/ui/status_bar.hpp</text>
</a>
</g>
</g>
<!-- Node1&#45;&gt;Node8 -->
<g id="edge7" class="edge"><title>Node1&#45;&gt;Node8</title>
<path fill="none" stroke="midnightblue" d="M1084.5,-117.15C980.801,-110.379 763.578,-95.2183 580.5,-76 577.496,-75.6847 574.421,-75.3451 571.317,-74.9891"/>
<polygon fill="midnightblue" stroke="midnightblue" points="1084.57,-120.662 1094.77,-117.818 1085.02,-113.676 1084.57,-120.662"/>
</g>
<!-- Node9 -->
<g id="node9" class="node"><title>Node9</title>
<g id="a_node9"><a xlink:href="slider_8hpp.html" target="_top" xlink:title="Slider widget. ">
<polygon fill="white" stroke="black" points="589.5,-56.5 589.5,-75.5 685.5,-75.5 685.5,-56.5 589.5,-56.5"/>
<text text-anchor="middle" x="637.5" y="-63.5" font-family="Helvetica,sans-Serif" font-size="10.00">boost/ui/slider.hpp</text>
</a>
</g>
</g>
<!-- Node1&#45;&gt;Node9 -->
<g id="edge9" class="edge"><title>Node1&#45;&gt;Node9</title>
<path fill="none" stroke="midnightblue" d="M1084.61,-115.967C998.003,-108.568 834.332,-93.6998 695.5,-76 692.265,-75.5876 688.933,-75.1377 685.578,-74.6661"/>
<polygon fill="midnightblue" stroke="midnightblue" points="1084.52,-119.472 1094.78,-116.832 1085.12,-112.497 1084.52,-119.472"/>
</g>
<!-- Node10 -->
<g id="node10" class="node"><title>Node10</title>
<g id="a_node10"><a xlink:href="progress__bar_8hpp.html" target="_top" xlink:title="Progress bar widget. ">
<polygon fill="white" stroke="black" points="704,-56.5 704,-75.5 833,-75.5 833,-56.5 704,-56.5"/>
<text text-anchor="middle" x="768.5" y="-63.5" font-family="Helvetica,sans-Serif" font-size="10.00">boost/ui/progress_bar.hpp</text>
</a>
</g>
</g>
<!-- Node1&#45;&gt;Node10 -->
<g id="edge10" class="edge"><title>Node1&#45;&gt;Node10</title>
<path fill="none" stroke="midnightblue" d="M1084.57,-112.273C1013.93,-102.154 898.245,-85.5842 828.151,-75.5441"/>
<polygon fill="midnightblue" stroke="midnightblue" points="1084.26,-115.764 1094.66,-113.717 1085.25,-108.835 1084.26,-115.764"/>
</g>
<!-- Node11 -->
<g id="node11" class="node"><title>Node11</title>
<g id="a_node11"><a xlink:href="panel_8hpp.html" target="_top" xlink:title="Panel widget. ">
<polygon fill="white" stroke="black" points="851.5,-56.5 851.5,-75.5 947.5,-75.5 947.5,-56.5 851.5,-56.5"/>
<text text-anchor="middle" x="899.5" y="-63.5" font-family="Helvetica,sans-Serif" font-size="10.00">boost/ui/panel.hpp</text>
</a>
</g>
</g>
<!-- Node1&#45;&gt;Node11 -->
<g id="edge11" class="edge"><title>Node1&#45;&gt;Node11</title>
<path fill="none" stroke="midnightblue" d="M1096.67,-110.281C1050.18,-100.077 981.137,-84.9203 938.297,-75.5164"/>
<polygon fill="midnightblue" stroke="midnightblue" points="1096,-113.718 1106.52,-112.444 1097.5,-106.881 1096,-113.718"/>
</g>
<!-- Node12 -->
<g id="node12" class="node"><title>Node12</title>
<g id="a_node12"><a xlink:href="notebook_8hpp.html" target="_top" xlink:title="Notebook widget. ">
<polygon fill="white" stroke="black" points="966,-56.5 966,-75.5 1079,-75.5 1079,-56.5 966,-56.5"/>
<text text-anchor="middle" x="1022.5" y="-63.5" font-family="Helvetica,sans-Serif" font-size="10.00">boost/ui/notebook.hpp</text>
</a>
</g>
</g>
<!-- Node1&#45;&gt;Node12 -->
<g id="edge12" class="edge"><title>Node1&#45;&gt;Node12</title>
<path fill="none" stroke="midnightblue" d="M1116.73,-108.368C1093.69,-98.2553 1062.02,-84.3486 1041.9,-75.5164"/>
<polygon fill="midnightblue" stroke="midnightblue" points="1115.45,-111.628 1126.01,-112.444 1118.26,-105.219 1115.45,-111.628"/>
</g>
<!-- Node13 -->
<g id="node13" class="node"><title>Node13</title>
<g id="a_node13"><a xlink:href="menu_8hpp.html" target="_top" xlink:title="Menu classes. ">
<polygon fill="white" stroke="black" points="1097,-56.5 1097,-75.5 1194,-75.5 1194,-56.5 1097,-56.5"/>
<text text-anchor="middle" x="1145.5" y="-63.5" font-family="Helvetica,sans-Serif" font-size="10.00">boost/ui/menu.hpp</text>
</a>
</g>
</g>
<!-- Node1&#45;&gt;Node13 -->
<g id="edge13" class="edge"><title>Node1&#45;&gt;Node13</title>
<path fill="none" stroke="midnightblue" d="M1145.5,-101.805C1145.5,-92.9102 1145.5,-82.7798 1145.5,-75.7511"/>
<polygon fill="midnightblue" stroke="midnightblue" points="1142,-102.083 1145.5,-112.083 1149,-102.083 1142,-102.083"/>
</g>
<!-- Node14 -->
<g id="node14" class="node"><title>Node14</title>
<g id="a_node14"><a xlink:href="line_8hpp.html" target="_top" xlink:title="line widget ">
<polygon fill="white" stroke="black" points="1211.5,-56.5 1211.5,-75.5 1299.5,-75.5 1299.5,-56.5 1211.5,-56.5"/>
<text text-anchor="middle" x="1255.5" y="-63.5" font-family="Helvetica,sans-Serif" font-size="10.00">boost/ui/line.hpp</text>
</a>
</g>
</g>
<!-- Node1&#45;&gt;Node14 -->
<g id="edge15" class="edge"><title>Node1&#45;&gt;Node14</title>
<path fill="none" stroke="midnightblue" d="M1172.26,-107.862C1192.66,-97.8492 1220.17,-84.3458 1237.87,-75.6545"/>
<polygon fill="midnightblue" stroke="midnightblue" points="1170.61,-104.775 1163.17,-112.324 1173.69,-111.059 1170.61,-104.775"/>
</g>
<!-- Node15 -->
<g id="node15" class="node"><title>Node15</title>
<g id="a_node15"><a xlink:href="label_8hpp.html" target="_top" xlink:title="Label widget. ">
<polygon fill="white" stroke="black" points="1317,-56.5 1317,-75.5 1410,-75.5 1410,-56.5 1317,-56.5"/>
<text text-anchor="middle" x="1363.5" y="-63.5" font-family="Helvetica,sans-Serif" font-size="10.00">boost/ui/label.hpp</text>
</a>
</g>
</g>
<!-- Node1&#45;&gt;Node15 -->
<g id="edge16" class="edge"><title>Node1&#45;&gt;Node15</title>
<path fill="none" stroke="midnightblue" d="M1189.81,-110.024C1230.99,-99.8232 1291.47,-84.8414 1329.12,-75.5164"/>
<polygon fill="midnightblue" stroke="midnightblue" points="1188.91,-106.642 1180.04,-112.444 1190.59,-113.436 1188.91,-106.642"/>
</g>
<!-- Node16 -->
<g id="node16" class="node"><title>Node16</title>
<g id="a_node16"><a xlink:href="image__widget_8hpp.html" target="_top" xlink:title="Image widget. ">
<polygon fill="white" stroke="black" points="1428,-56.5 1428,-75.5 1561,-75.5 1561,-56.5 1428,-56.5"/>
<text text-anchor="middle" x="1494.5" y="-63.5" font-family="Helvetica,sans-Serif" font-size="10.00">boost/ui/image_widget.hpp</text>
</a>
</g>
</g>
<!-- Node1&#45;&gt;Node16 -->
<g id="edge17" class="edge"><title>Node1&#45;&gt;Node16</title>
<path fill="none" stroke="midnightblue" d="M1206.46,-111.567C1272.22,-101.394 1375.98,-85.3391 1439.37,-75.5303"/>
<polygon fill="midnightblue" stroke="midnightblue" points="1205.59,-108.16 1196.25,-113.148 1206.67,-115.078 1205.59,-108.16"/>
</g>
<!-- Node17 -->
<g id="node17" class="node"><title>Node17</title>
<g id="a_node17"><a xlink:href="hyperlink_8hpp.html" target="_top" xlink:title="Hyperlink widget. ">
<polygon fill="white" stroke="black" points="1579.5,-56.5 1579.5,-75.5 1691.5,-75.5 1691.5,-56.5 1579.5,-56.5"/>
<text text-anchor="middle" x="1635.5" y="-63.5" font-family="Helvetica,sans-Serif" font-size="10.00">boost/ui/hyperlink.hpp</text>
</a>
</g>
</g>
<!-- Node1&#45;&gt;Node17 -->
<g id="edge18" class="edge"><title>Node1&#45;&gt;Node17</title>
<path fill="none" stroke="midnightblue" d="M1206.22,-115.189C1288.76,-107.149 1440.94,-91.8244 1570.5,-76 1573.44,-75.6409 1576.45,-75.2619 1579.5,-74.8707"/>
<polygon fill="midnightblue" stroke="midnightblue" points="1205.88,-111.706 1196.26,-116.157 1206.55,-118.673 1205.88,-111.706"/>
</g>
<!-- Node18 -->
<g id="node18" class="node"><title>Node18</title>
<g id="a_node18"><a xlink:href="group__box_8hpp.html" target="_top" xlink:title="Group box widget. ">
<polygon fill="white" stroke="black" points="1709.5,-56.5 1709.5,-75.5 1827.5,-75.5 1827.5,-56.5 1709.5,-56.5"/>
<text text-anchor="middle" x="1768.5" y="-63.5" font-family="Helvetica,sans-Serif" font-size="10.00">boost/ui/group_box.hpp</text>
</a>
</g>
</g>
<!-- Node1&#45;&gt;Node18 -->
<g id="edge19" class="edge"><title>Node1&#45;&gt;Node18</title>
<path fill="none" stroke="midnightblue" d="M1206.22,-117.088C1308.39,-110.279 1521.14,-95.1285 1700.5,-76 1703.34,-75.6969 1706.25,-75.3716 1709.18,-75.0308"/>
<polygon fill="midnightblue" stroke="midnightblue" points="1205.83,-113.606 1196.09,-117.76 1206.3,-120.591 1205.83,-113.606"/>
</g>
<!-- Node19 -->
<g id="node19" class="node"><title>Node19</title>
<g id="a_node19"><a xlink:href="datetime_8hpp.html" target="_top" xlink:title="Date and time pickers. ">
<polygon fill="white" stroke="black" points="1845.5,-56.5 1845.5,-75.5 1955.5,-75.5 1955.5,-56.5 1845.5,-56.5"/>
<text text-anchor="middle" x="1900.5" y="-63.5" font-family="Helvetica,sans-Serif" font-size="10.00">boost/ui/datetime.hpp</text>
</a>
</g>
</g>
<!-- Node1&#45;&gt;Node19 -->
<g id="edge20" class="edge"><title>Node1&#45;&gt;Node19</title>
<path fill="none" stroke="midnightblue" d="M1206.46,-118.561C1327.03,-113.4 1604.38,-99.8451 1836.5,-76 1839.4,-75.7019 1842.37,-75.3715 1845.37,-75.0184"/>
<polygon fill="midnightblue" stroke="midnightblue" points="1206.17,-115.071 1196.32,-118.991 1206.46,-122.064 1206.17,-115.071"/>
</g>
<!-- Node20 -->
<g id="node20" class="node"><title>Node20</title>
<g id="a_node20"><a xlink:href="check__box_8hpp.html" target="_top" xlink:title="Check box widget. ">
<polygon fill="white" stroke="black" points="1973.5,-56.5 1973.5,-75.5 2093.5,-75.5 2093.5,-56.5 1973.5,-56.5"/>
<text text-anchor="middle" x="2033.5" y="-63.5" font-family="Helvetica,sans-Serif" font-size="10.00">boost/ui/check_box.hpp</text>
</a>
</g>
</g>
<!-- Node1&#45;&gt;Node20 -->
<g id="edge21" class="edge"><title>Node1&#45;&gt;Node20</title>
<path fill="none" stroke="midnightblue" d="M1206.63,-119.205C1342.91,-114.862 1681.89,-102.158 1964.5,-76 1967.39,-75.7328 1970.34,-75.4366 1973.32,-75.1191"/>
<polygon fill="midnightblue" stroke="midnightblue" points="1206.28,-115.714 1196.39,-119.528 1206.5,-122.711 1206.28,-115.714"/>
</g>
<!-- Node21 -->
<g id="node21" class="node"><title>Node21</title>
<g id="a_node21"><a xlink:href="canvas_8hpp.html" target="_top" xlink:title="Canvas widget. ">
<polygon fill="white" stroke="black" points="2111.5,-56.5 2111.5,-75.5 2215.5,-75.5 2215.5,-56.5 2111.5,-56.5"/>
<text text-anchor="middle" x="2163.5" y="-63.5" font-family="Helvetica,sans-Serif" font-size="10.00">boost/ui/canvas.hpp</text>
</a>
</g>
</g>
<!-- Node1&#45;&gt;Node21 -->
<g id="edge22" class="edge"><title>Node1&#45;&gt;Node21</title>
<path fill="none" stroke="midnightblue" d="M1206.25,-120.239C1357.84,-117.884 1764.88,-108.763 2102.5,-76 2105.38,-75.7208 2108.33,-75.4004 2111.3,-75.0506"/>
<polygon fill="midnightblue" stroke="midnightblue" points="1206.15,-116.74 1196.21,-120.39 1206.26,-123.739 1206.15,-116.74"/>
</g>
<!-- Node22 -->
<g id="node22" class="node"><title>Node22</title>
<g id="a_node22"><a xlink:href="button_8hpp.html" target="_top" xlink:title="Button widget. ">
<polygon fill="white" stroke="black" points="2233.5,-56.5 2233.5,-75.5 2333.5,-75.5 2333.5,-56.5 2233.5,-56.5"/>
<text text-anchor="middle" x="2283.5" y="-63.5" font-family="Helvetica,sans-Serif" font-size="10.00">boost/ui/button.hpp</text>
</a>
</g>
</g>
<!-- Node1&#45;&gt;Node22 -->
<g id="edge23" class="edge"><title>Node1&#45;&gt;Node22</title>
<path fill="none" stroke="midnightblue" d="M1206.61,-120.796C1371.34,-119.738 1838.29,-113.397 2224.5,-76 2227.39,-75.7204 2230.35,-75.3943 2233.33,-75.0352"/>
<polygon fill="midnightblue" stroke="midnightblue" points="1206.18,-117.298 1196.2,-120.858 1206.22,-124.298 1206.18,-117.298"/>
</g>
<!-- Node5 -->
<g id="node5" class="node"><title>Node5</title>
<g id="a_node5"><a xlink:href="combo__box_8hpp.html" target="_top" xlink:title="Combo box widget. ">
<polygon fill="white" stroke="black" points="160,-0.5 160,-19.5 283,-19.5 283,-0.5 160,-0.5"/>
<text text-anchor="middle" x="221.5" y="-7.5" font-family="Helvetica,sans-Serif" font-size="10.00">boost/ui/combo_box.hpp</text>
</a>
</g>
</g>
<!-- Node4&#45;&gt;Node5 -->
<g id="edge4" class="edge"><title>Node4&#45;&gt;Node5</title>
<path fill="none" stroke="midnightblue" d="M306.251,-51.8622C285.484,-41.8492 257.477,-28.3458 239.45,-19.6545"/>
<polygon fill="midnightblue" stroke="midnightblue" points="304.977,-55.1336 315.505,-56.324 308.018,-48.8282 304.977,-55.1336"/>
</g>
<!-- Node6 -->
<g id="node6" class="node"><title>Node6</title>
<g id="a_node6"><a xlink:href="choice_8hpp.html" target="_top" xlink:title="Choice widget. ">
<polygon fill="white" stroke="black" points="301,-0.5 301,-19.5 402,-19.5 402,-0.5 301,-0.5"/>
<text text-anchor="middle" x="351.5" y="-7.5" font-family="Helvetica,sans-Serif" font-size="10.00">boost/ui/choice.hpp</text>
</a>
</g>
</g>
<!-- Node4&#45;&gt;Node6 -->
<g id="edge5" class="edge"><title>Node4&#45;&gt;Node6</title>
<path fill="none" stroke="midnightblue" d="M339.701,-46.3956C342.713,-37.362 346.188,-26.936 348.583,-19.7511"/>
<polygon fill="midnightblue" stroke="midnightblue" points="336.314,-45.4893 336.472,-56.083 342.955,-47.703 336.314,-45.4893"/>
</g>
<!-- Node4&#45;&gt;Node7 -->
<g id="edge6" class="edge"><title>Node4&#45;&gt;Node7</title>
<path fill="none" stroke="midnightblue" d="M368.327,-53.172C398.266,-43.0039 440.721,-28.5852 467.424,-19.5164"/>
<polygon fill="midnightblue" stroke="midnightblue" points="367.037,-49.9136 358.694,-56.4435 369.288,-56.5417 367.037,-49.9136"/>
</g>
<!-- Node8&#45;&gt;Node7 -->
<g id="edge8" class="edge"><title>Node8&#45;&gt;Node7</title>
<path fill="none" stroke="midnightblue" d="M504.954,-46.3956C501.776,-37.362 498.107,-26.936 495.579,-19.7511"/>
<polygon fill="midnightblue" stroke="midnightblue" points="501.742,-47.8116 508.363,-56.083 508.345,-45.4882 501.742,-47.8116"/>
</g>
<!-- Node13&#45;&gt;Node7 -->
<g id="edge14" class="edge"><title>Node13&#45;&gt;Node7</title>
<path fill="none" stroke="midnightblue" d="M1086.68,-55.8686C868.448,-30.8399 618.244,-17.1299 527.527,-12.6484"/>
<polygon fill="midnightblue" stroke="midnightblue" points="1086.38,-59.3575 1096.72,-57.0307 1087.19,-52.4039 1086.38,-59.3575"/>
</g>
</g>
</svg>
